<?xml version="1.0" encoding="iso-8859-1"?>
<!-- Generator: Adobe Illustrator 19.0.0, SVG Export Plug-In . SVG Version: 6.00 Build 0)  -->
<svg version="1.1" id="Capa_1" xmlns="http://www.w3.org/2000/svg" xmlns:xlink="http://www.w3.org/1999/xlink" x="0px" y="0px"
	 viewBox="0 0 469.334 469.334" style="enable-background:new 0 0 469.334 469.334;" xml:space="preserve">
<path style="fill:#354EC1;" d="M42.667,170.665h383.996c23.564,0,42.667,19.103,42.667,42.667v191.996
	c0,23.564-19.103,42.667-42.667,42.667H42.667C19.103,447.995,0,428.892,0,405.328V213.332C0,189.768,19.103,170.665,42.667,170.665
	z"/>
<path style="fill:#E7CEFF;" d="M42.667,234.665h384l0,0v128c0,23.564-19.103,42.667-42.667,42.667h0H85.334
	c-23.564,0-42.667-19.103-42.667-42.667c0,0,0,0,0,0L42.667,234.665L42.667,234.665L42.667,234.665z"/>
<path style="fill:#DEBAEF;" d="M95.997,319.995h277.33c17.673,0,32,14.327,32,32l0,0c0,17.673-14.327,32-32,32H95.997
	c-17.673,0-32-14.327-32-32l0,0C63.997,334.322,78.324,319.995,95.997,319.995z"/>
<path style="fill:#5F7BCE;" d="M0,213.332v213.333c0,23.564,19.103,42.667,42.667,42.667c0,0,0,0,0,0h384
	c23.564,0,42.667-19.103,42.667-42.667v0V213.332c0-23.564-19.103-42.667-42.667-42.667c0,0,0,0,0,0h-384
	C19.103,170.665,0,189.767,0,213.332C0,213.332,0,213.332,0,213.332z M448,362.665c0,11.782-9.551,21.333-21.333,21.333h0h-384
	c-11.782,0-21.333-9.551-21.333-21.333l0,0V213.332c0-11.782,9.551-21.333,21.333-21.333h384c11.782,0,21.333,9.551,21.333,21.333
	l0,0V362.665z"/>
<path style="fill:#7C94D7;" d="M426.667,170.665h-384c-23.564,0-42.666,19.102-42.667,42.666c0,0,0,0.001,0,0.001v149.333
	c0,23.564,19.103,42.666,42.667,42.667h384c23.564,0,42.666-19.103,42.667-42.667V213.332
	C469.334,189.768,450.232,170.665,426.667,170.665C426.668,170.665,426.667,170.665,426.667,170.665z M448,362.665
	c0,11.782-9.551,21.333-21.333,21.333h-384c-11.782,0-21.333-9.551-21.333-21.333V213.332c0-11.782,9.55-21.333,21.332-21.333
	c0,0,0.001,0,0.001,0h384c11.782,0,21.333,9.55,21.333,21.332c0,0,0,0.001,0,0.001V362.665z"/>
<path style="fill:#A7B7E4;" d="M426.667,170.665h-384c-23.564,0-42.666,19.102-42.667,42.666c0,0,0,0.001,0,0.001v18.305
	C0,237.528,4.775,242.304,10.666,242.305c5.891,0.001,10.667-4.774,10.668-10.665c0-0.001,0-0.002,0-0.003v-18.305
	c0.013-11.777,9.557-21.32,21.333-21.333h384c11.777,0.013,21.32,9.557,21.333,21.333v17.618c0,5.891,4.776,10.667,10.667,10.667
	c5.891,0,10.667-4.776,10.667-10.667l0,0v-17.618C469.334,189.768,450.232,170.665,426.667,170.665
	C426.668,170.665,426.667,170.665,426.667,170.665L426.667,170.665z"/>
<path style="fill:#F6EDFF;" d="M384,149.332H85.334c-23.564,0-42.666,19.102-42.667,42.666c0,0,0,0.001,0,0.001v128
	c0,23.564,19.103,42.666,42.667,42.667H384c23.564,0,42.666-19.103,42.667-42.667v-128C426.667,168.434,407.565,149.332,384,149.332
	C384.001,149.332,384.001,149.332,384,149.332L384,149.332z"/>
<path style="fill:#F0E1FF;" d="M192,170.665c0,11.782,9.551,21.333,21.333,21.333c0,0,0,0,0,0h85.333
	c11.782,0,21.333,9.551,21.333,21.333l0,0c0,11.782-9.551,21.333-21.333,21.333c0,0,0,0,0,0h-85.333
	c-11.782,0-21.333,9.551-21.333,21.333l0,0c0,11.782,9.551,21.333,21.333,21.333h21.333c11.782,0,21.333,9.551,21.333,21.333
	c0,0,0,0,0,0c0,11.782-9.551,21.333-21.333,21.333c0,0,0,0,0,0H192c-11.782,0-21.333,9.551-21.333,21.333l0,0
	c0,11.782,9.551,21.333,21.333,21.333c0,0,0,0,0,0h192c23.564,0,42.667-19.103,42.667-42.667v0v-128
	c0-23.564-19.103-42.667-42.667-42.667h0H213.334C201.552,149.332,192,158.883,192,170.665C192,170.665,192,170.665,192,170.665
	L192,170.665z"/>
<g>
	<path style="fill:#19E77C;" d="M234.664,128.002h-0.001c-11.782,0-21.333-9.551-21.333-21.333V21.335
		c0-11.782,9.551-21.333,21.333-21.333h0.001c11.782,0,21.333,9.551,21.333,21.333v85.334
		C255.997,118.451,246.446,128.002,234.664,128.002z"/>
	<path style="fill:#19E77C;" d="M219.582,121.75c8.331,8.331,21.839,8.331,30.17,0l42.667-39.006c8.331-8.331,8.331-21.839,0-30.17
		s-21.839-8.331-30.17,0v0L219.582,91.58C211.251,99.911,211.251,113.419,219.582,121.75L219.582,121.75L219.582,121.75z"/>
	<path style="fill:#19E77C;" d="M249.752,121.75c-8.331,8.331-21.839,8.331-30.17,0l0,0l-42.667-39.006
		c-8.331-8.331-8.331-21.839,0-30.17s21.839-8.331,30.17,0v0l42.667,39.006C258.083,99.911,258.083,113.419,249.752,121.75
		L249.752,121.75z"/>
	<path style="fill:#19E77C;" d="M362.667,170.665h-256c0,23.564-19.102,42.666-42.666,42.667c0,0-0.001,0-0.001,0v85.333
		c23.564,0,42.666,19.102,42.667,42.666c0,0,0,0.001,0,0.001h256c0-23.564,19.102-42.666,42.666-42.667c0,0,0.001,0,0.001,0v-85.333
		C381.77,213.332,362.667,194.23,362.667,170.665C362.667,170.665,362.667,170.665,362.667,170.665z M234.667,319.998
		c-35.346,0-64-28.654-64-64s28.654-64,64-64s64,28.654,64,64C298.667,291.344,270.013,319.998,234.667,319.998
		C234.667,319.998,234.667,319.998,234.667,319.998z"/>
</g>
<path style="fill:#00C864;" d="M405.334,298.665v-85.333c-23.564,0-42.666-19.102-42.667-42.666c0,0,0-0.001,0-0.001H192
	c0,11.782,9.551,21.333,21.333,21.333h85.333c11.782,0,21.333,9.551,21.333,21.333c0,11.782-9.551,21.333-21.333,21.333h-3.919
	c12.123,32.841-4.672,69.291-37.512,81.414c-7.222,2.666-14.87,3.994-22.569,3.919H192c-11.782,0-21.333,9.55-21.333,21.332
	c0,0,0,0.001,0,0.001h192C362.667,317.768,381.769,298.665,405.334,298.665C405.333,298.665,405.333,298.665,405.334,298.665
	L405.334,298.665z"/>
<path style="fill:#3E60C4;" d="M64,426.665h341.334c11.782,0,21.333,9.551,21.333,21.333v0.001c0,11.782-9.551,21.333-21.333,21.333
	H64c-11.782,0-21.333-9.551-21.333-21.333v-0.001C42.667,436.216,52.218,426.665,64,426.665z"/>
<g>
</g>
<g>
</g>
<g>
</g>
<g>
</g>
<g>
</g>
<g>
</g>
<g>
</g>
<g>
</g>
<g>
</g>
<g>
</g>
<g>
</g>
<g>
</g>
<g>
</g>
<g>
</g>
<g>
</g>
</svg>
