<svg id="Capa_1" enable-background="new 0 0 512 512" height="512" viewBox="0 0 512 512" width="512" xmlns="http://www.w3.org/2000/svg"><g><g><path d="m512 256c0 141.387-112.81 237.527-254.197 237.527s-257.803-96.14-257.803-237.527 114.613-256 256-256 256 114.613 256 256zm0 0" fill="#aaed58"/><path d="m512 256c0 26.051-3.891 51.191-11.129 74.871-5.031 16.469-11.672 32.231-19.75 47.109-8.25 15.2-18 29.461-29.051 42.61-.582.691-1.16 1.379-1.75 2.058-46.941 54.704-116.59 89.352-194.32 89.352-26.101 0-51.291-3.907-75.015-11.168-14.562-17.463-46.847-55.445-46.847-55.445s-54.441-16.079-69.562-19.434c-.971-1.093-1.932-2.195-2.885-3.305-.589-.687-1.179-1.378-1.75-2.07-11.062-13.137-20.812-27.398-29.05-42.598-3.289-6.031-6.332-12.21-9.121-18.531-14-31.629-21.77-66.629-21.77-103.449 0-46.219 12.25-89.57 33.68-127 44.121 77.07 127.16 129 222.32 129s178.211-51.93 222.32-129c21.43 37.43 33.68 80.781 33.68 127zm0 0" fill="#6abb5e"/><path d="m481.262 377.699c-7.16 13.223-15.434 25.742-24.723 37.43-8.437 10.633-17.719 20.57-27.719 29.723-45.539 41.699-106.211 67.148-172.82 67.148-26.098 0-51.285-3.907-75.008-11.167-12.918-14.267-43.185-49.695-43.185-49.695s-67.322-18.513-73.179-25.1c-3.156-3.548-6.213-7.186-9.167-10.909-9.289-11.688-17.563-24.207-24.723-37.43zm0 0" fill="#299f8c"/></g><g><path d="m160.311 179.941h140.543v267.79h-140.543z" fill="#64b0fb"/><path d="m256 129-95.689 50.941 95.689 50.942h95.689v-50.942z" fill="#afe8fd"/><path d="m447.377 426.01v-195.127h-140.542l42.113 263.711c38.086-14.848 71.734-38.555 98.429-68.584z" fill="#9f165b"/><path d="m256 332.766-37.378 64.024 37.378 64.024 75.103 39.982c6.995-2.144 13.86-4.583 20.586-7.296v-262.617h-95.689z" fill="#cb2e81"/><path d="m447.378 230.883-95.689-50.942-95.689 50.942 95.689 50.941z" fill="#dc4180"/><path d="m256 460.814v-128.048h-140.543l39.748 158.615c8.345 3.578 16.917 6.726 25.692 9.415z" fill="#e38031"/><path d="m64.623 426.01c26.053 29.306 58.729 52.585 95.689 67.49v-160.734h-95.689z" fill="#e79d25"/><path d="m160.311 281.824-95.688 50.942 95.688 50.941 95.689-50.941z" fill="#f2d332"/></g></g></svg>