<svg id="svg5" height="512" viewBox="0 0 8.4666662 8.4666662" width="512" xmlns="http://www.w3.org/2000/svg" xmlns:svg="http://www.w3.org/2000/svg"><linearGradient id="linearGradient2739"><stop id="stop2737" offset="0" stop-color="#0ecc24"/></linearGradient><linearGradient id="linearGradient2667"><stop id="stop2665" offset="0"/></linearGradient><g id="layer1"><path id="path7475-3" d="m7.00422 2.7572901.0000021 4.2424495a.96438989.93754153 0 0 1 -.9643902.9375426h-3.613231a.96439044.93754206 0 0 1 -.9643902-.9375426v-5.5330345a.96438716.93753887 0 0 1 .9643902-.93753838l2.2970919.00000726z" fill="#5fd35f" paint-order="normal"/><path id="path6360-9" d="m4.8239088.62708695c-.1849285.47603275-.6129065 1.20584655-.1813568 1.81929105.112127.1701454.7950977.4331655 1.223737.5849395.273591.0968786.4986516.4022643.4986516.6930783l.035882 2.831766c0 .5177899-.4314791.9373165-.9640968.9373165h-3.6132192c-.080357 0-.1583556-.00985-.2329896-.02785.1716193.2915405.490562.4715459.8360859.4718713h3.6132197c.5328374.0001308.9648089-.4198488.9646327-.9378512v-4.2425604z" fill="#37c837" paint-order="normal"/><path id="path6696-7" d="m1.9608656 1.1051842a.13711579.13711579 0 0 1 .1376559.1356315v.3846264a.13711579.13711579 0 0 1 -.1376559.1376558.13711579.13711579 0 0 1 -.1356314-.1376558v-.3846264a.13711579.13711579 0 0 1 .1356314-.1356315z" fill="#fff" stroke-linecap="round" stroke-linejoin="round"/><path id="path6702-2" d="m1.9608656 1.8541937a.13711527.13711527 0 0 1 .1376559.1376558v.056681a.13711527.13711527 0 0 1 -.1376559.1356322.13711527.13711527 0 0 1 -.1356314-.1356314v-.0566818a.13711527.13711527 0 0 1 .1356314-.1376558z" fill="#fff" stroke-linecap="round" stroke-linejoin="round"/><path id="path7319-7" d="m4.7238097.52928325-.2996833 1.17118405a.5954101.58172648 0 0 0 .4797477.7149009l2.1004625.3420318z" fill="#afe9af"/><g fill="#fff"><path id="path133792" d="m4.9485046 4.7607758v.4150968h.9453503.1189055v-.4150968h-.1189055z"/><path id="path133794" d="m4.9485046 4.0260979v.4150978h.9453503.1189055v-.4150978h-.1189055z"/><path id="path133798" d="m4.9485046 5.4954527v.4150968h.9453503.1189055v-.4150968h-.1189055z"/><path id="path133804" d="m4.9485046 6.2301296v.4150978h.9453503.1189055v-.4150978h-.1189055z"/><path id="path133814" d="m3.7012046 4.7607758v.4150968h.9453502.1189056v-.4150968h-.1189056z"/><path id="path133820" d="m3.7012046 5.4954527v.4150968h.9453502.1189056v-.4150968h-.1189056z"/><path id="path133826" d="m3.7012046 6.2301296v.4150978h.9453502.1189056v-.4150978h-.1189056z"/><path id="path133850" d="m3.7012046 4.0260979v.4150978h.9453502.1189056v-.4150978h-.1189056z"/><path id="path133852" d="m2.4539045 4.7607758v.4150968h.9453502.1189056v-.4150968h-.1189056z"/><path id="path133854" d="m2.4539045 5.4954527v.4150968h.9453502.1189056v-.4150968h-.1189056z"/><path id="path133856" d="m2.4539045 6.2301296v.4150978h.9453502.1189056v-.4150978h-.1189056z"/><path id="path133858" d="m2.4539045 4.0260979v.4150978h.9453502.1189056v-.4150978h-.1189056z"/></g></g></svg>