<svg id="Flat" viewBox="0 0 64 64" xmlns="http://www.w3.org/2000/svg"><path d="m60 46.7217c0 3.3137-2.6863 6-6 6h-4v6.2768c0 .7678-.8295 1.2492-1.4961.8682l-12.5039-7.1451h-26c-3.3137 0-6-2.6863-6-6v-30.7217c0-3.3137 2.6863-6 6-6h44c3.3137 0 6 2.6863 6 6v30.7217z" fill="#e53935"/><g fill="#eceff1"><path d="m52 19.0591h-24c-.5522 0-1-.4478-1-1s.4478-1 1-1h24c.5527 0 1 .4478 1 1s-.4473 1-1 1z"/><path d="m52 26.0591h-24c-.5522 0-1-.4478-1-1s.4478-1 1-1h24c.5527 0 1 .4478 1 1s-.4473 1-1 1z"/><path d="m52 33.0591h-24c-.5522 0-1-.4478-1-1s.4478-1 1-1h24c.5527 0 1 .4478 1 1s-.4473 1-1 1z"/><path d="m52 40.0591h-24c-.5522 0-1-.4478-1-1s.4478-1 1-1h24c.5527 0 1 .4478 1 1s-.4473 1-1 1z"/></g><path d="m12 6c0-1.1046.8954-2 2-2h4c1.1046 0 2 .8954 2 2v32.4582c0 .4541-.1546.8948-.4383 1.2494l-2.7809 3.4761c-.4003.5004-1.1614.5004-1.5617 0l-2.7809-3.4761c-.2837-.3546-.4383-.7952-.4383-1.2494v-32.4582z" fill="#ffb300"/><g fill="#ff8f00"><path d="m20 6v4h-8v-4c0-1.1.9-2 2-2h4c1.1 0 2 .9 2 2z"/><path d="m12 36h8v2.46c0 .45-.15.89-.44 1.25l-2.78 3.47c-.4.5-1.16.5-1.5601 0l-2.78-3.47c-.29-.36-.44-.8-.44-1.25v-2.46z"/></g></svg>