<svg enable-background="new 0 0 64 64" viewBox="0 0 64 64" xmlns="http://www.w3.org/2000/svg" xmlns:xlink="http://www.w3.org/1999/xlink"><linearGradient id="lg1"><stop offset="0" stop-color="#abdad2"/><stop offset=".4141" stop-color="#68a4a8"/><stop offset="1" stop-color="#4a64a8"/></linearGradient><linearGradient id="SVGID_1_" gradientUnits="userSpaceOnUse" x1="32" x2="32" xlink:href="#lg1" y1="-40.254" y2="82.342"/><linearGradient id="SVGID_2_" gradientUnits="userSpaceOnUse" x1="-25.562" x2="98.063" y1="61.328" y2="14.079"><stop offset="0" stop-color="#abdad2"/><stop offset="0" stop-color="#68a4a8"/><stop offset="1" stop-color="#4a64a8"/></linearGradient><linearGradient id="SVGID_3_" gradientUnits="userSpaceOnUse" x1="32" x2="32" y1="62.963" y2="42.403"><stop offset="0" stop-color="#abdad2"/><stop offset=".2286" stop-color="#68a4a8"/><stop offset="1" stop-color="#4a64a8"/></linearGradient><linearGradient id="lg2"><stop offset="0" stop-color="#fee8a1"/><stop offset=".3059" stop-color="#ffcf92"/><stop offset=".6931" stop-color="#f3aa85"/><stop offset="1" stop-color="#ff7772"/></linearGradient><linearGradient id="SVGID_4_" gradientUnits="userSpaceOnUse" x1="7.243" x2="7.243" xlink:href="#lg2" y1="55.891" y2="27.394"/><linearGradient id="SVGID_5_" gradientTransform="matrix(-1 0 0 1 115.291 0)" gradientUnits="userSpaceOnUse" x1="58.534" x2="58.534" xlink:href="#lg2" y1="55.891" y2="27.394"/><linearGradient id="SVGID_6_" gradientUnits="userSpaceOnUse" x1="23.115" x2="23.115" xlink:href="#lg1" y1="50.88" y2="26.659"/><linearGradient id="lg3"><stop offset="0" stop-color="#fff"/><stop offset=".499" stop-color="#f5f1e2"/><stop offset="1" stop-color="#f1e8dc"/></linearGradient><linearGradient id="SVGID_7_" gradientUnits="userSpaceOnUse" x1="23.115" x2="23.115" xlink:href="#lg3" y1="26.067" y2="47.397"/><linearGradient id="SVGID_8_" gradientUnits="userSpaceOnUse" x1="40.886" x2="40.886" xlink:href="#lg1" y1="50.88" y2="26.659"/><linearGradient id="SVGID_9_" gradientUnits="userSpaceOnUse" x1="40.886" x2="40.886" xlink:href="#lg3" y1="26.067" y2="47.397"/><linearGradient id="SVGID_10_" gradientUnits="userSpaceOnUse" x1="32" x2="32" xlink:href="#lg3" y1="48.823" y2="26.487"/><linearGradient id="SVGID_11_" gradientUnits="userSpaceOnUse" x1="32" x2="32" y1="64.432" y2="41.515"><stop offset="0" stop-color="#fff"/><stop offset=".499" stop-color="#f5f1e2"/><stop offset="1" stop-color="#dedbcd"/></linearGradient><linearGradient id="SVGID_12_" gradientUnits="userSpaceOnUse" x1="32" x2="32" xlink:href="#lg2" y1="23.522" y2="36.894"/><linearGradient id="SVGID_13_" gradientUnits="userSpaceOnUse" x1="32" x2="32" xlink:href="#lg2" y1="-11.341" y2="24.344"/><linearGradient id="SVGID_14_" gradientUnits="userSpaceOnUse" x1="49.419" x2="29.489" xlink:href="#lg2" y1="12.275" y2="10.093"/><linearGradient id="SVGID_15_" gradientUnits="userSpaceOnUse" x1="32" x2="32" xlink:href="#lg1" y1="12.991" y2="27.459"/><g id="GUIDE"/><g id="Layer_2"><g><path d="m44.7 59.4h-25.4c-5.7 0-10.3-4.7-10.3-10.3v-26.1c0-5.3 4.3-9.6 9.6-9.6h26.8c5.3 0 9.6 4.3 9.6 9.6v26.1c0 5.6-4.6 10.3-10.3 10.3z" fill="url(#SVGID_1_)"/><path d="m55 23c0-5.3-4.3-9.6-9.6-9.6h-12.5l-8.9 3.5 4.7 4.6c2.1 2 3.3 4.8 3.3 7.7v30.2h12.7c5.7 0 10.3-4.6 10.3-10.3z" fill="url(#SVGID_2_)"/><path d="m43.8 52.4h-23.6c-3 0-5.5-2.5-5.5-5.5 0-3 2.5-5.5 5.5-5.5h23.5c3 0 5.5 2.5 5.5 5.5 0 3-2.4 5.5-5.4 5.5z" fill="url(#SVGID_3_)"/><g><path d="m9 41.4h-1.8c-1 0-1.7-.8-1.7-1.7v-12c0-1 .8-1.7 1.7-1.7h1.8z" fill="url(#SVGID_4_)"/><path d="m55 41.4h1.8c1 0 1.7-.8 1.7-1.7v-12c0-1-.8-1.7-1.7-1.7h-1.8z" fill="url(#SVGID_5_)"/></g><g><g><circle cx="23.1" cy="32" fill="url(#SVGID_6_)" r="4.3"/><circle cx="23.1" cy="30.6" fill="url(#SVGID_7_)" r="3.8"/></g><g><circle cx="40.9" cy="32" fill="url(#SVGID_8_)" r="4.3"/><circle cx="40.9" cy="30.6" fill="url(#SVGID_9_)" r="3.8"/></g></g><path d="m38 47.1h-12c-1.5 0-2.8-1.3-2.8-2.8 0-1.5 1.3-2.8 2.8-2.8h12c1.5 0 2.8 1.3 2.8 2.8 0 1.5-1.2 2.8-2.8 2.8z" fill="url(#SVGID_10_)"/><path d="m26 43h12c1.3 0 2.3.9 2.7 2 .1-.3.1-.5.1-.8 0-1.5-1.3-2.8-2.8-2.8h-12c-1.5 0-2.8 1.3-2.8 2.8 0 .3.1.5.1.8.3-1.1 1.4-2 2.7-2z" fill="url(#SVGID_11_)"/><path d="m31.2 33.7-2.1 3.6c-.2.4.1.8.5.8h4.9c.4 0 .7-.5.5-.8l-2.1-3.6c-.4-.6-1.4-.6-1.7 0z" fill="url(#SVGID_12_)"/><path d="m25.7 16.1v-5.2c0-3.4 2.8-6.3 6.3-6.3 3.4 0 6.3 2.8 6.3 6.3v5.2" fill="url(#SVGID_13_)"/><path d="m38.3 16.1v-5c0-3.2-2.3-6-5.4-6.4-1.8-.2-3.5.3-4.8 1.3.4.4 1 1 1.7 1.7 1.5 1.5 2.3 3.5 2.3 5.6v2.9h6.2z" fill="url(#SVGID_14_)"/><path d="m40 16.9h-16c-.5 0-.9-.4-.9-.9 0-.5.4-.9.9-.9h16c.5 0 .9.4.9.9 0 .5-.4.9-.9.9z" fill="url(#SVGID_15_)"/></g></g><g id="Layer_3"/></svg>