<svg id="Layer_1" enable-background="new 0 0 68 68" viewBox="0 0 68 68" xmlns="http://www.w3.org/2000/svg"><g><g><g><g><g enable-background="new"><g><path d="m63.6933975 17.1070938c.0164719 5.6996593-3.9902267 12.6410618-8.9469337 15.5033073-4.2695427 2.4648781-35.1870804 20.315094-39.7422981 22.945549-2.3385973 1.3514328-4.453763 1.4507828-5.9603806.5215263.0289021.018631.0579042.0372658.0869074.0538101l-3.2078652-1.8647003c-1.4818592-.8609467-2.4007452-2.6925278-2.4070106-5.2940025-.0144508-5.1636314 3.5618582-11.4344864 8.0321932-14.1332436-.6561451-1.3121109-1.0203447-2.9698563-1.0266094-4.9297638-.0207167-7.5395164 5.28372-16.7284889 11.8484049-20.51791 3.3010368-1.9060974 6.2936554-2.0840793 8.4542961-.827836l2.1627617 1.2562428c1.8502007-2.5538802 4.1018906-4.7228069 6.5336609-6.1259947 3.1954346-1.8439995 6.0928612-2.015779 8.1831703-.8009305l3.143692 1.8274519.0662918.0393224c1.4258766.8278365 2.4792671 2.3013835 2.9966621 4.3295794 1.517025-.3890839 2.8726692-.2338648 3.9550591.3932276l3.2078667 1.8647032c-.0393105-.0227757-.0786209-.0455379-.1200523-.0662289 1.6825513.9064825 2.7318982 2.9263923 2.7401837 5.8258903z" fill="#edeef2"/></g></g></g><g><g enable-background="new"><g><path d="m57.864418 9.4825726 3.2090034 1.8648701c-1.6322746-.9485769-3.8922997-.8154078-6.3864479.6245909-.1414413.0816612-.2801476.1663065-.4178085.163661l-3.2090034-1.8648682c.137661.0026436.2763634-.0820007.4178047-.163662 2.4941521-1.4399996 4.7541733-1.5731678 6.3864517-.6245918z" fill="#382e49"/></g><g><path d="m47.704361 2.8940544 3.2090034 1.864871c-2.0917702-1.2156055-4.9882965-1.0446062-8.1840897.8004861-2.5701065 1.483851-4.9404678 3.8211513-6.8491859 6.5656486l-3.2090073-1.8648701c1.9087181-2.7444973 4.2790833-5.0817976 6.8491859-6.5656481 3.1957932-1.8450924 6.0923196-2.0160918 8.1840936-.8004875z" fill="#423751"/></g><g><path d="m9.1316881 56.1306877-3.2090073-1.8648682c-1.4816313-.8610306-2.4002414-2.6919403-2.4076176-5.293705-.0146352-5.1623802 3.5635477-11.4348678 8.0320588-14.1333885l3.2090044 1.864872c-4.4685106 2.6985207-8.0466938 8.9710083-8.0320587 14.1333847.0073767 2.6017685.9259868 4.4326744 2.4076204 5.293705z" fill="#312944"/></g><g><path d="m34.0340881 10.4285345c-2.1606407-1.2562437-5.1532593-1.0782614-8.456419.827836-6.5626621 3.7894192-11.8691206 12.9783916-11.846283 20.5179081.0041437 1.9599094.3704653 3.6176548 1.0244875 4.9297657l-3.2078648-1.8647041c-.6561451-1.3121109-1.0203447-2.9698563-1.0266094-4.9297638-.0207167-7.5395164 5.28372-16.7284889 11.8484049-20.51791 3.3010368-1.9060974 6.2936554-2.0840793 8.4542961-.827836z" fill="#382e49"/></g><g><path d="m25.5779381 11.2566376c4.3909206-2.5351 8.2332268-2.0129175 10.3021507.8684225 1.9087181-2.7444973 4.2790794-5.0817976 6.8491859-6.5656486 6.3504524-3.6664374 11.5191994-.7224107 11.5398903 6.576283.137661.0026455.2763672-.0819998.4178085-.163661 4.9577599-2.8623657 8.9904404-.5612211 9.006588 5.1356173.0161552 5.6983547-3.9903145 12.6409073-8.9480782 15.503273-4.2693366 2.4649048-35.1865863 20.3149871-39.7413167 22.9446602-4.5587444 2.6319923-8.2652521.518177-8.280098-4.7186012-.0146356-5.1623764 3.5635476-11.434864 8.0320587-14.1333847-.6548529-1.3115654-1.0195856-2.9685669-1.0251427-4.928751-.0213775-7.5401116 5.2837268-16.7289286 11.8469535-20.5182095z" fill="#edeef2"/></g><g><path d="m63.6931038 17.1081753c.0164719 5.6975765-3.9902267 12.6410484-8.9469376 15.5032978-4.2695389 2.4648743-35.1870766 20.3150902-39.7422981 22.9434738-4.5592632 2.6325264-8.2659321.5194702-8.2804832-4.7186623-.0103078-3.7852783 1.9103284-8.1666107 4.69801-11.2999611.9437456.2214355 1.9246788.3373451 2.9305725.3373451 7.4298086 0 13.4523363-6.3288116 13.4523363-14.1394424 0-4.8614769-2.3345528-9.1517353-5.892168-11.6952562 1.1528282-1.0989523 2.3862953-2.0426846 3.6652374-2.7815304 4.3917141-2.5352478 8.2328873-2.0137072 10.3024788.8671589 1.9081039-2.7442789 4.2799492-5.0808415 6.8503609-6.5647469 6.3494415-3.6673079 11.5172501-.7222848 11.5379677 6.5750923.1386452.0041437.2772942-.0807171.4179611-.1634932 4.9588322-2.8622464 8.9903873-.5608634 9.0069622 5.1367246z" fill="#e0e1ec"/></g></g></g></g></g><g><g><g><g><path d="m64.4848938 49.2368431-.0093155 4.2041397c-.0018616.4150238-.2735748.826313-.8169899 1.1426964l-18.6255493 10.8239441c-.5620461.3275528-1.3046074.4838867-2.0453072.4745865-.6960373-.0093155-1.390213-.1656418-1.9243584-.4745865l-18.7483634-10.8239441c-.5527325-.3200989-.8281651-.7388382-.8281651-1.1575775l.0111771-4.2022858v-.003727c.0018635-.4131508.273571-.826313.8151245-1.1408348l18.6255512-10.8239479c1.0924644-.6364899 2.8716087-.6346283 3.9696655 0l18.7483635 10.8239479c.5527306.3201104.828167.7388497.828167 1.157589z" fill="#423751"/></g><g><g><path d="m63.6563797 48.0785103c1.0991058.6345673 1.1060867 1.664299.0129433 2.2995644l-18.6259842 10.8242378c-1.0919647.6345825-2.8708878.6345863-3.9699898.0000191l-18.7478256-10.8240624c-1.0991364-.6345863-1.104908-1.6649857-.0129414-2.2995644l18.6259823-10.8242378c1.0931473-.6352692 2.8708534-.6346054 3.9699898-.0000229z" fill="#423751"/></g><path d="m63.6693115 50.3780746-18.6259575 10.8242417c-.564045.3277893-1.3113327.4848175-2.0535774.4739685l-.0013657 4.2056503c.7394295.0095062 1.4831276-.1476669 2.0450363-.474205l18.6259575-10.8242455c.5429649-.3155098.8144875-.7283058.81567-1.141674l.009903-4.2054214c-.0011749.4133796-.2727508.8261756-.8156662 1.1416854z" fill="#312944"/><path d="m41.0733681 61.2023277-18.7478638-10.8240585c-.553093-.3193283-.8292999-.7388954-.8281193-1.1578064l-.0099049 4.20541c-.0011806.4189224.2750702.8384819.8281651 1.1578064l18.7478199 10.8240738c.5335541.3080292 1.2273674.46521 1.9249458.4741821l.0013657-4.2056503c-.6947212-.0101433-1.3850326-.1671715-1.9164085-.4739571z" fill="#28223d"/></g></g><g><g><path d="m45.4079208 62.2824059c.3810158-.2199821.6915665-.0443153.6928101.3948097.0012398.4378395-.3072968.9709396-.6883163 1.190918-.3810463.2200012-.6915665.0443153-.6928062-.393528-.0012437-.4391213.3072623-.9722023.6883124-1.1921997z" fill="#28223d"/></g><g><path d="m61.4406204 53.0259209c.3810463-.2199974.6915665-.0443153.6928101.3948097.0012398.4378433-.3072662.9709206-.6883163 1.1909218-.3810463.2199974-.6915665.0443115-.6928062-.393528-.0012437-.4391251.3072623-.9722061.6883124-1.1922035z" fill="#28223d"/></g><g><path d="m59.194149 54.545414c.274868-.1586952.4979591-.0315628.4988556.2842979.0008926.314579-.2207527.6984749-.4956169.8571701l-11.5385017 6.6617584c-.273777.1580658-.4968681.0309334-.4977608-.2836456-.0008965-.3158607.2207489-.6997566.4945221-.8578224z" fill="#28223d"/></g></g><g><g><path d="m45.7180977 62.2824059c.3810196-.2199821.6915665-.0443153.6928101.3948097.0012436.4378395-.3072968.9709396-.6883163 1.190918-.3810463.2200012-.6915665.0443153-.6928062-.393528-.0012437-.4391213.3072623-.9722023.6883124-1.1921997z" fill="#edeef2"/></g><g><path d="m61.7507973 53.0259209c.3810463-.2199974.6915665-.0443153.6928101.3948097.0012436.4378433-.3072662.9709206-.6883163 1.1909218-.3810463.2199974-.6915665.0443115-.6928062-.393528-.0012438-.4391251.3072623-.9722061.6883124-1.1922035z" fill="#edeef2"/></g><g><path d="m59.5043297 54.545414c.2748642-.1586952.4979553-.0315628.4988518.2842979.0008926.314579-.2207527.6984749-.4956169.8571701l-11.5385017 6.6617584c-.273777.1580658-.4968681.0309334-.4977608-.2836456-.0008926-.3158607.2207489-.6997566.4945221-.8578224z" fill="#ffd86a"/></g><g><path d="m60.0034332 54.8293419c0 .314518-.2214584.6997604-.4950294.8579483l-11.5386009 6.6607437c-.2754326.1581993-.496933.0316467-.4987526-.2828712 0-.3163834.2214584-.6997643.4950294-.8579483l2.1253204-1.2264481c.1898308.0725822.3982925.11166.6197472.11166.8412056 0 1.5260658-.5843658 1.5260658-1.3064613 0-.0148926 0-.0297813-.0018616-.0446625l7.2693291-4.1967087c.2754326-.1581879.4968872-.0316353.4987526.2847481z" fill="#fccb4f"/></g></g><g><g><path d="m23.4568729 52.1012802c.1555099.0897865.2810364.3071976.280529.4858932l-.0049076 1.7315788c-.0005074.1786957-.1268539.2506866-.2823639.1609039-.1563606-.0902748-.2818851-.3076859-.2813797-.4863815l.0049095-1.7315788c.0005074-.1786956.1268521-.2506866.2832127-.1604156z" fill="#423751"/></g><g><path d="m24.6071472 52.7653923c.1555099.0897865.2810364.3071976.280529.4858894l-.0049076 1.7315826c-.0005074.1786919-.1268539.2506866-.2823639.1609039-.1555119-.0897865-.2818851-.3076897-.2813797-.4863815l.0049095-1.7315788c.0005074-.1786956.1277009-.2501983.2832127-.1604156z" fill="#423751"/></g><g><path d="m25.7574215 53.4295044c.1555099.0897827.2810364.3071976.280529.4858894l-.0049076 1.7315826c-.0005074.1786919-.1268539.2506866-.2823639.1609001-.1555119-.0897827-.2818851-.3076859-.2813797-.4863777l.0049095-1.7315826c.0005074-.1786918.1277008-.2501983.2832127-.1604118z" fill="#423751"/></g><g><path d="m26.9076958 54.0936165c.1555099.0897827.2810135.3071823.2805061.485878l-.0049076 1.7315788c-.0005074.1786919-.1268311.2507019-.282341.1609154-.1555119-.0897827-.2810383-.3071976-.2805309-.4858894l.0049095-1.7315788c.0005054-.1786958.126852-.2506905.2823639-.160904z" fill="#423751"/></g><g><path d="m28.05797 54.7577248c.1555099.0897865.2810135.3071861.2805061.485878l-.0049076 1.7315826c-.0005074.1786919-.1268311.2506981-.282341.1609154-.1555119-.0897827-.2810383-.3071976-.2805309-.4858894l.0049095-1.7315826c.0005055-.178692.1268521-.2506868.2823639-.160904z" fill="#423751"/></g></g></g><g><g><g><path d="m64.4848938 43.3925323-.0093155 4.2041397c-.0018616.4150238-.2735748.826313-.8169899 1.1426964l-18.6255493 10.8239479c-.5620461.327549-1.3046074.4838829-2.0453072.4745789-.6960373-.0093117-1.390213-.1656342-1.9243584-.4745789l-18.7483634-10.8239479c-.5527325-.3200989-.8281651-.7388382-.8281651-1.1575775l.0111771-4.2022858v-.003727c.0018635-.4131508.273571-.826313.8151245-1.140831l18.6255512-10.8239479c1.0924644-.6364937 2.8716087-.6346302 3.9696655 0l18.7483635 10.8239479c.5527306.3201066.828167.7388459.828167 1.1575852z" fill="#423751"/></g><g><g><path d="m63.6563797 42.2341995c1.0991058.6345673 1.1060867 1.664299.0129433 2.2995644l-18.6259842 10.8242416c-1.0919647.6345787-2.8708878.6345863-3.9699898.0000191l-18.7478256-10.8240624c-1.0991364-.6345863-1.104908-1.6649857-.0129414-2.2995682l18.6259823-10.8242378c1.0931473-.6352673 2.8708534-.6346054 3.9699898-.0000191z" fill="#423751"/></g><path d="m63.6693115 44.5337639-18.6259575 10.8242454c-.564045.3277855-1.3113327.4848137-2.0535774.4739647l-.0013657 4.2056503c.7394295.0095062 1.4831276-.1476669 2.0450363-.474205l18.6259575-10.8242416c.5429649-.3155098.8144875-.7283096.81567-1.141674l.009903-4.2054253c-.0011749.4133797-.2727508.8261795-.8156662 1.1416855z" fill="#312944"/><path d="m41.0733681 55.3580208-18.7478638-10.8240624c-.553093-.3193245-.8292999-.7388954-.8281193-1.1578026l-.0099049 4.20541c-.0011806.4189224.2750702.8384781.8281651 1.1578026l18.7478199 10.8240738c.5335541.308033 1.2273674.46521 1.9249458.4741821l.0013657-4.2056503c-.6947212-.0101433-1.3850326-.1671714-1.9164085-.4739532z" fill="#28223d"/></g></g><g><g><path d="m45.4079208 56.4380951c.3810158-.2199821.6915665-.0443153.6928101.3948097.0012398.4378433-.3072968.9709396-.6883163 1.1909218-.3810463.2199974-.6915665.0443115-.6928062-.393528-.0012437-.439125.3072623-.9722061.6883124-1.1922035z" fill="#28223d"/></g><g><path d="m61.4406204 47.1816139c.3810463-.2200012.6915665-.0443153.6928101.3948097.0012398.4378395-.3072662.9709206-.6883163 1.190918-.3810463.2199974-.6915665.0443153-.6928062-.393528-.0012437-.439125.3072623-.9722023.6883124-1.1921997z" fill="#28223d"/></g><g><path d="m59.194149 48.701107c.274868-.1586952.4979591-.0315666.4988556.2842979.0008926.3145752-.2207527.6984749-.4956169.8571701l-11.5385017 6.6617547c-.273777.1580658-.4968681.0309334-.4977608-.2836418-.0008965-.3158646.2207489-.6997604.4945221-.8578262z" fill="#28223d"/></g></g><g><g><path d="m45.7180977 56.4380951c.3810196-.2199821.6915665-.0443153.6928101.3948097.0012436.4378433-.3072968.9709396-.6883163 1.1909218-.3810463.2199974-.6915665.0443115-.6928062-.393528-.0012437-.439125.3072623-.9722061.6883124-1.1922035z" fill="#edeef2"/></g><g><path d="m61.7507973 47.1816139c.3810463-.2200012.6915665-.0443153.6928101.3948097.0012436.4378395-.3072662.9709206-.6883163 1.190918-.3810463.2199974-.6915665.0443153-.6928062-.393528-.0012438-.439125.3072623-.9722023.6883124-1.1921997z" fill="#edeef2"/></g><g><path d="m59.5043297 48.701107c.2748642-.1586952.4979553-.0315666.4988518.2842979.0008926.3145752-.2207527.6984749-.4956169.8571701l-11.5385017 6.6617546c-.273777.1580658-.4968681.0309334-.4977608-.2836418-.0008926-.3158646.2207489-.6997604.4945221-.8578262z" fill="#ffd86a"/></g><g><path d="m60.0034332 48.9850311c0 .3145218-.2214584.6997604-.4950294.8579483l-11.5386009 6.6607476c-.2754326.1581955-.496933.0316429-.4987526-.2828751 0-.3163834.2214584-.6997643.4950294-.8579483l2.1253204-1.2264481c.1898308.0725861.3982925.11166.6197472.11166.8412056 0 1.5260658-.5843658 1.5260658-1.3064575 0-.0148926 0-.0297852-.0018616-.0446663l7.2693291-4.1967087c.2754326-.1581878.4968872-.0316352.4987526.2847481z" fill="#fccb4f"/></g></g><g><g><path d="m23.4568729 46.2569733c.1555099.0897827.2810364.3071976.280529.4858894l-.0049076 1.7315788c-.0005074.1786957-.1268539.2506905-.2823639.1609039-.1563606-.0902748-.2818851-.3076859-.2813797-.4863777l.0049095-1.7315826c.0005074-.1786919.1268521-.2506866.2832127-.1604118z" fill="#423751"/></g><g><path d="m24.6071472 46.9210854c.1555099.0897827.2810364.3071938.280529.4858894l-.0049076 1.7315788c-.0005074.1786957-.1268539.2506905-.2823639.1609039-.1555119-.0897827-.2818851-.3076859-.2813797-.4863815l.0049095-1.7315788c.0005074-.1786919.1277009-.2501984.2832127-.1604118z" fill="#423751"/></g><g><path d="m25.7574215 47.5851936c.1555099.0897865.2810364.3071976.280529.4858932l-.0049076 1.7315788c-.0005074.1786919-.1268539.2506866-.2823639.1609039-.1555119-.0897865-.2818851-.3076859-.2813797-.4863815l.0049095-1.7315788c.0005074-.1786956.1277008-.2501983.2832127-.1604156z" fill="#423751"/></g><g><path d="m26.9076958 48.2493057c.1555099.0897865.2810135.3071823.2805061.485878l-.0049076 1.7315788c-.0005074.1786957-.1268311.2507019-.282341.1609192-.1555119-.0897865-.2810383-.3071976-.2805309-.4858932l.0049095-1.7315788c.0005054-.1786957.126852-.2506867.2823639-.160904z" fill="#423751"/></g><g><path d="m28.05797 48.9134178c.1555099.0897827.2810135.3071823.2805061.485878l-.0049076 1.7315788c-.0005074.1786919-.1268311.2507019-.282341.1609154-.1555119-.0897827-.2810383-.3071976-.2805309-.4858894l.0049095-1.7315788c.0005055-.1786957.1268521-.2506905.2823639-.160904z" fill="#423751"/></g></g></g><g><g><g><path d="m64.4848938 43.3925323-.0093155 4.2041397c-.0018616.4150238-.2735748.826313-.8169899 1.1426964l-18.6255493 10.8239479c-.5620461.327549-1.3046074.4838829-2.0453072.4745789-.6960373-.0093117-1.390213-.1656342-1.9243584-.4745789l-18.7483634-10.8239479c-.5527325-.3200989-.8281651-.7388382-.8281651-1.1575775l.0111771-4.2022858v-.003727c.0018635-.4131508.273571-.826313.8151245-1.140831l18.6255512-10.8239479c1.0924644-.6364937 2.8716087-.6346302 3.9696655 0l18.7483635 10.8239479c.5527306.3201066.828167.7388459.828167 1.1575852z" fill="#423751"/></g><g><g><path d="m63.6563797 42.2341995c1.0991058.6345673 1.1060867 1.664299.0129433 2.2995644l-18.6259842 10.8242416c-1.0919647.6345787-2.8708878.6345863-3.9699898.0000191l-18.7478256-10.8240624c-1.0991364-.6345863-1.104908-1.6649857-.0129414-2.2995682l18.6259823-10.8242378c1.0931473-.6352673 2.8708534-.6346054 3.9699898-.0000191z" fill="#423751"/></g><path d="m63.6693115 44.5337639-18.6259575 10.8242454c-.564045.3277855-1.3113327.4848137-2.0535774.4739647l-.0013657 4.2056503c.7394295.0095062 1.4831276-.1476669 2.0450363-.474205l18.6259575-10.8242416c.5429649-.3155098.8144875-.7283096.81567-1.141674l.009903-4.2054253c-.0011749.4133797-.2727508.8261795-.8156662 1.1416855z" fill="#312944"/><path d="m41.0733681 55.3580208-18.7478638-10.8240624c-.553093-.3193245-.8292999-.7388954-.8281193-1.1578026l-.0099049 4.20541c-.0011806.4189224.2750702.8384781.8281651 1.1578026l18.7478199 10.8240738c.5335541.308033 1.2273674.46521 1.9249458.4741821l.0013657-4.2056503c-.6947212-.0101433-1.3850326-.1671714-1.9164085-.4739532z" fill="#28223d"/></g></g><g><g><path d="m45.4079208 56.4380951c.3810158-.2199821.6915665-.0443153.6928101.3948097.0012398.4378433-.3072968.9709396-.6883163 1.1909218-.3810463.2199974-.6915665.0443115-.6928062-.393528-.0012437-.439125.3072623-.9722061.6883124-1.1922035z" fill="#28223d"/></g><g><path d="m61.4406204 47.1816139c.3810463-.2200012.6915665-.0443153.6928101.3948097.0012398.4378395-.3072662.9709206-.6883163 1.190918-.3810463.2199974-.6915665.0443153-.6928062-.393528-.0012437-.439125.3072623-.9722023.6883124-1.1921997z" fill="#28223d"/></g><g><path d="m59.194149 48.701107c.274868-.1586952.4979591-.0315666.4988556.2842979.0008926.3145752-.2207527.6984749-.4956169.8571701l-11.5385017 6.6617547c-.273777.1580658-.4968681.0309334-.4977608-.2836418-.0008965-.3158646.2207489-.6997604.4945221-.8578262z" fill="#28223d"/></g></g><g><g><path d="m45.7180977 56.4380951c.3810196-.2199821.6915665-.0443153.6928101.3948097.0012436.4378433-.3072968.9709396-.6883163 1.1909218-.3810463.2199974-.6915665.0443115-.6928062-.393528-.0012437-.439125.3072623-.9722061.6883124-1.1922035z" fill="#edeef2"/></g><g><path d="m61.7507973 47.1816139c.3810463-.2200012.6915665-.0443153.6928101.3948097.0012436.4378395-.3072662.9709206-.6883163 1.190918-.3810463.2199974-.6915665.0443153-.6928062-.393528-.0012438-.439125.3072623-.9722023.6883124-1.1921997z" fill="#edeef2"/></g><g><path d="m59.5043297 48.701107c.2748642-.1586952.4979553-.0315666.4988518.2842979.0008926.3145752-.2207527.6984749-.4956169.8571701l-11.5385017 6.6617546c-.273777.1580658-.4968681.0309334-.4977608-.2836418-.0008926-.3158646.2207489-.6997604.4945221-.8578262z" fill="#ffd86a"/></g><g><path d="m60.0034332 48.9850311c0 .3145218-.2214584.6997604-.4950294.8579483l-11.5386009 6.6607476c-.2754326.1581955-.496933.0316429-.4987526-.2828751 0-.3163834.2214584-.6997643.4950294-.8579483l2.1253204-1.2264481c.1898308.0725861.3982925.11166.6197472.11166.8412056 0 1.5260658-.5843658 1.5260658-1.3064575 0-.0148926 0-.0297852-.0018616-.0446663l7.2693291-4.1967087c.2754326-.1581878.4968872-.0316352.4987526.2847481z" fill="#fccb4f"/></g></g><g><g><path d="m23.4568729 46.2569733c.1555099.0897827.2810364.3071976.280529.4858894l-.0049076 1.7315788c-.0005074.1786957-.1268539.2506905-.2823639.1609039-.1563606-.0902748-.2818851-.3076859-.2813797-.4863777l.0049095-1.7315826c.0005074-.1786919.1268521-.2506866.2832127-.1604118z" fill="#423751"/></g><g><path d="m24.6071472 46.9210854c.1555099.0897827.2810364.3071938.280529.4858894l-.0049076 1.7315788c-.0005074.1786957-.1268539.2506905-.2823639.1609039-.1555119-.0897827-.2818851-.3076859-.2813797-.4863815l.0049095-1.7315788c.0005074-.1786919.1277009-.2501984.2832127-.1604118z" fill="#423751"/></g><g><path d="m25.7574215 47.5851936c.1555099.0897865.2810364.3071976.280529.4858932l-.0049076 1.7315788c-.0005074.1786919-.1268539.2506866-.2823639.1609039-.1555119-.0897865-.2818851-.3076859-.2813797-.4863815l.0049095-1.7315788c.0005074-.1786956.1277008-.2501983.2832127-.1604156z" fill="#423751"/></g><g><path d="m26.9076958 48.2493057c.1555099.0897865.2810135.3071823.2805061.485878l-.0049076 1.7315788c-.0005074.1786957-.1268311.2507019-.282341.1609192-.1555119-.0897865-.2810383-.3071976-.2805309-.4858932l.0049095-1.7315788c.0005054-.1786957.126852-.2506867.2823639-.160904z" fill="#423751"/></g><g><path d="m28.05797 48.9134178c.1555099.0897827.2810135.3071823.2805061.485878l-.0049076 1.7315788c-.0005074.1786919-.1268311.2507019-.282341.1609154-.1555119-.0897827-.2810383-.3071976-.2805309-.4858894l.0049095-1.7315788c.0005055-.1786957.1268521-.2506905.2823639-.160904z" fill="#423751"/></g></g></g><g><g><g><path d="m64.4848938 37.5482254-.0093155 4.2041359c-.0018616.4150276-.2735748.8263168-.8169899 1.1427002l-18.6255493 10.8239441c-.5620461.327549-1.3046074.4838867-2.0453072.4745827-.6960373-.0093155-1.390213-.165638-1.9243584-.4745827l-18.7483634-10.8239441c-.5527325-.3200989-.8281651-.7388382-.8281651-1.1575775l.0111771-4.2022896v-.0037231c.0018635-.4131508.273571-.826313.8151245-1.1408348l18.6255512-10.8239479c1.0924644-.6364918 2.8716087-.6346283 3.9696655 0l18.7483635 10.8239479c.5527306.3201103.828167.7388496.828167 1.1575889z" fill="#423751"/></g><g><g><path d="m63.6563797 36.3898888c1.0991058.6345673 1.1060867 1.664299.0129433 2.2995682l-18.6259842 10.8242378c-1.0919647.6345825-2.8708878.6345863-3.9699898.0000191l-18.7478256-10.8240624c-1.0991364-.6345863-1.104908-1.6649857-.0129414-2.2995644l18.6259823-10.8242397c1.0931473-.6352673 2.8708534-.6346054 3.9699898-.000021z" fill="#423751"/></g><path d="m63.6693115 38.6894569-18.6259575 10.8242417c-.564045.3277855-1.3113327.4848137-2.0535774.4739685l-.0013657 4.2056465c.7394295.00951 1.4831276-.1476669 2.0450363-.474205l18.6259575-10.8242416c.5429649-.3155098.8144875-.7283096.81567-1.141674l.009903-4.2054214c-.0011749.4133757-.2727508.8261755-.8156662 1.1416853z" fill="#312944"/><path d="m41.0733681 49.51371-18.7478638-10.8240623c-.553093-.3193245-.8292999-.7388916-.8281193-1.1578026l-.0099049 4.20541c-.0011806.4189224.2750702.8384781.8281651 1.1578064l18.7478199 10.82407c.5335541.308033 1.2273674.46521 1.9249458.4741821l.0013657-4.2056465c-.6947212-.0101471-1.3850326-.1671715-1.9164085-.4739571z" fill="#28223d"/></g></g><g><g><path d="m45.4079208 50.5937881c.3810158-.2199821.6915665-.0443153.6928101.3948097.0012398.4378395-.3072968.9709358-.6883163 1.190918-.3810463.2199974-.6915665.0443153-.6928062-.393528-.0012437-.439125.3072623-.9722022.6883124-1.1921997z" fill="#28223d"/></g><g><path d="m61.4406204 41.3373032c.3810463-.2199974.6915665-.0443153.6928101.3948097.0012398.4378395-.3072662.9709206-.6883163 1.190918-.3810463.2200012-.6915665.0443153-.6928062-.393528-.0012437-.4391213.3072623-.9722023.6883124-1.1921997z" fill="#28223d"/></g><g><path d="m59.194149 42.8567963c.274868-.1586952.4979591-.0315628.4988556.2842979.0008926.314579-.2207527.6984749-.4956169.8571701l-11.5385017 6.6617584c-.273777.158062-.4968681.0309334-.4977608-.2836456-.0008965-.3158607.2207489-.6997604.4945221-.8578224z" fill="#28223d"/></g></g><g><g><path d="m45.7180977 50.5937881c.3810196-.2199821.6915665-.0443153.6928101.3948097.0012436.4378395-.3072968.9709358-.6883163 1.190918-.3810463.2199974-.6915665.0443153-.6928062-.393528-.0012437-.439125.3072623-.9722022.6883124-1.1921997z" fill="#edeef2"/></g><g><path d="m61.7507973 41.3373032c.3810463-.2199974.6915665-.0443153.6928101.3948097.0012436.4378395-.3072662.9709206-.6883163 1.190918-.3810463.2200012-.6915665.0443153-.6928062-.393528-.0012438-.4391213.3072623-.9722023.6883124-1.1921997z" fill="#edeef2"/></g><g><path d="m59.5043297 42.8567963c.2748642-.1586952.4979553-.0315628.4988518.2842979.0008926.314579-.2207527.6984749-.4956169.8571701l-11.5385017 6.6617584c-.273777.158062-.4968681.0309334-.4977608-.2836456-.0008926-.3158607.2207489-.6997604.4945221-.8578224z" fill="#ffd86a"/></g><g><path d="m60.0034332 43.1407204c0 .3145218-.2214584.6997643-.4950294.8579483l-11.5386009 6.6607475c-.2754326.1581955-.496933.0316467-.4987526-.2828751 0-.3163834.2214584-.6997604.4950294-.8579483l2.1253204-1.2264442c.1898308.0725822.3982925.1116562.6197472.1116562.8412056 0 1.5260658-.584362 1.5260658-1.3064575 0-.0148926 0-.0297852-.0018616-.0446625l7.2693291-4.1967125c.2754326-.1581841.4968872-.0316353.4987526.2847481z" fill="#fccb4f"/></g></g><g><g><path d="m23.4568729 40.4126625c.1555099.0897865.2810364.3071976.280529.4858894l-.0049076 1.7315826c-.0005074.1786919-.1268539.2506866-.2823639.1609039-.1563606-.0902748-.2818851-.3076897-.2813797-.4863815l.0049095-1.7315788c.0005074-.1786956.1268521-.2506904.2832127-.1604156z" fill="#423751"/></g><g><path d="m24.6071472 41.0767746c.1555099.0897827.2810364.3071976.280529.4858894l-.0049076 1.7315826c-.0005074.1786919-.1268539.2506866-.2823639.1609001-.1555119-.0897827-.2818851-.3076859-.2813797-.4863777l.0049095-1.7315826c.0005074-.1786918.1277009-.2501983.2832127-.1604118z" fill="#423751"/></g><g><path d="m25.7574215 41.7408867c.1555099.0897827.2810364.3071938.280529.4858894l-.0049076 1.7315788c-.0005074.1786957-.1268539.2506905-.2823639.1609039-.1555119-.0897827-.2818851-.3076859-.2813797-.4863815l.0049095-1.7315788c.0005074-.1786918.1277008-.2501983.2832127-.1604118z" fill="#423751"/></g><g><path d="m26.9076958 42.404995c.1555099.0897865.2810135.3071861.2805061.485878l-.0049076 1.7315826c-.0005074.1786919-.1268311.2506981-.282341.1609154-.1555119-.0897865-.2810383-.3071976-.2805309-.4858894l.0049095-1.7315826c.0005054-.178692.126852-.2506868.2823639-.160904z" fill="#423751"/></g><g><path d="m28.05797 43.0691071c.1555099.0897865.2810135.3071861.2805061.485878l-.0049076 1.7315788c-.0005074.1786957-.1268311.2507019-.282341.1609192-.1555119-.0897865-.2810383-.3071976-.2805309-.4858932l.0049095-1.7315788c.0005055-.178692.1268521-.2506868.2823639-.160904z" fill="#423751"/></g></g></g><g><g><path d="m53.4682121 37.7757874c.5664444.3270378.5700455.8577271.0066719 1.1851234l-9.5992355 5.5784683c-.562767.3270416-1.4795647.3270454-2.0460052.0000076l-9.6620331-5.5783767c-.5664577-.3270454-.5694332-.858078-.0066681-1.1851196l9.5992355-5.5784683c.5633736-.3273964 1.4795456-.327055 2.0460052-.0000114z" fill="#28223d"/></g><g><g><g fill="#ffd86a"><path d="m53.9605598 36.6642189c.0334854-.050251.0595665-.1005058.0781975-.1526108-.0167656.052105-.0428467.1042214-.0781975.1526108z"/><path d="m54.0387573 36.5097466c.012085-.0358162.0195808-.0719719.0234909-.1082039-.0040435.03619-.0107689.0725593-.0234909.1082039z"/><path d="m54.0283966 36.1643639c.0019989.0049858.0039978.0099297.0058174.0149384-.0018196-.0049859-.0038185-.0099641-.0058174-.0149384z"/><path d="m54.0622482 36.4015427c.0003166-.0031357.0005455-.006237.0008163-.0093613-.0002708.0031242-.0004997.006237-.0008163.0093613z"/><path d="m54.0666542 36.3515625c0 .0133781-.0023613.0270576-.0035896.0406189.0063171-.0713005-.0034523-.1428185-.0288506-.2128792.0207634.0565567.0324402.1140213.0324402.1722603z"/><path d="m53.9773254 36.0630875c.0212669.0332718.0373955.0671425.0510712.1012764-.0135384-.0341912-.0299416-.0680848-.0510712-.1012764z"/></g><g><path d="m54.0630646 36.3921814c.0098152-.1112976-.0184021-.2232399-.0857391-.3290939-.0707436-.11166-.1823807-.2177429-.338726-.3070679l-9.662632-5.5794811c-.565773-.3275375-1.4814453-.3275375-2.0453072 0l-9.5993881 5.5794811c-.2084618.1209602-.3405895.2717056-.3926582.4280396-.0186291.0521049-.0279446.1060829-.0279446.1600494v.0018654l-.0018616.4150124-.003727.4131622c0 .0279083.0018635.0558281.0093155.0837517.0037251.0260429.0111771.0539665.0185833.0800247.053978.1581841.188015.310791.4001541.4336166l9.6626358 5.5776176c.1023674.0595551.2177734.1079445.338726.1451569.0297585.0093155.0614281.0186195.0911903.0260582.0204926.0055885.0409355.0111656.0614281.0148926.0762901.0186043.154438.0316353.2326355.0409393.089325.0111656.1786537.0167542.2679825.0186157.104229.0018616.208416-.003727.3107834-.0167542.1507568-.0167427.2959251-.0465279.431778-.0930519.0706978-.0204697.1358528-.0483932.2010078-.0781631.0390778-.0186081.0744247-.0372238.1097755-.0576935l9.5993881-5.5776176c.2791595-.1637611.4187393-.375927.4206009-.588089l.0055885-.8318901c.0000001.0133781-.0023612.0270576-.0035895.0406189zm-.1025048.2720375c.0334854-.050251.0595665-.1005058.0781975-.1526108-.0167656.052105-.0428467.1042214-.0781975.1526108zm.0781975-.1544723c.012085-.0358162.0195808-.0719719.0234909-.1082039-.0040435.03619-.0107689.0725593-.0234909.1082039z" fill="#ffd86a"/></g></g><g><g><path d="m54.0657997 36.3521423-.0048027.8300285c-.0009575.2138901-.1409874.4258575-.4210472.5889091l-9.5990143 5.5783157c-.2896614.168808-.6723518.2493782-1.0540848.2445831-.3587151-.0047989-.7164726-.0853615-.9917526-.2445831l-9.6623077-5.5783156c-.2848587-.1649666-.4268093-.3807716-.4268093-.5965767l.0057602-.8290749v-.0019226c.0009594-.212925.1409893-.4258537.4200878-.5879478l9.5990143-5.5783157c.5630226-.3280277 1.4799347-.3270683 2.0458374 0l9.6623077 5.5783157c.2848587.1649742.4268112.3807793.4268112.5965843z" fill="#423751"/></g><g><g><path d="m53.638813 35.7551727c.5664406.3270378.5700417.8577271.0066681 1.1851234l-9.5992355 5.5784683c-.562767.3270416-1.4795647.3270454-2.0460052.0000076l-9.6620331-5.5783768c-.5664577-.3270454-.5694332-.858078-.0066681-1.1851196l9.5992355-5.5784683c.5633736-.3273964 1.4795456-.327055 2.0460052-.0000095z" fill="#ffd86a"/></g><g><path d="m53.6460533 36.9396515-9.5993881 5.5794678c-.5639076.327549-1.479538.327549-2.0471725 0l-9.6607704-5.5794678c-.5676327-.3256836-.5694962-.8579483-.0074501-1.1836319l7.1036682-4.1297035c.4932098 1.2487679 1.8964157 2.1495247 3.5509262 2.1495247 1.6451988 0 3.0428581-.8914452 3.5416107-2.1271935l7.1111221 4.1073723c.565773.3256836.5694962.8560829.0074539 1.1836319z" fill="#fccb4f"/></g><path d="m53.6454735 36.9402962-9.5992203 5.5784683c-.2906914.1689301-.6758194.2498589-1.0583496.2442665l-.0007019.8308105c.3810768.0048981.7643547-.0761032 1.0539436-.2443924l9.5992241-5.5784683c.2798271-.1626015.4197617-.3753471.420372-.5883827l.0051041-.8306885c-.0006104.2130394-.1405678.4257851-.420372.5883866z" fill="#f7b92f"/><path d="m42.000248 42.5187721-9.6620483-5.5783768c-.2850456-.1645699-.4273949-.3808022-.4267864-.5966949l-.0051041.8306847c-.0006104.2159004.1417637.4321251.4268093.5966949l9.6620255 5.5783806c.2749786.1587524.6325455.2397537.9920578.244381l.0007019-.8308105c-.3580361-.0052262-.7138024-.086155-.9876557-.244259z" fill="#f2aa19"/></g></g><g><path d="m47.7181778 36.6758957c.2516899.1453171.2532921.3811226.0029602.5265999l-4.2653275 2.4787369c-.2500572.1453171-.6574287.1453171-.9091225.0000038l-4.2932281-2.4786987c-.2517014-.1453171-.2530212-.381279-.002964-.5265961l4.2653275-2.4787369c.2503281-.1454773.6574211-.1453247.9091225-.0000076z" fill="#f2aa19"/></g><g><g><path d="m47.720932 36.0844269c.2516899.1453133.2532921.3811226.0029602.5265961l-4.2653275 2.4787369c-.2500572.1453209-.6574287.1453209-.9091225.0000076l-4.2932281-2.4786987c-.2517014-.1453209-.2530212-.381279-.002964-.5265961l4.2653275-2.4787407c.2503281-.1454735.6574211-.1453209.9091225-.0000038z" fill="#423751"/></g><g><path d="m47.7241325 36.6102409-4.2655487 2.4789391c-.2493973.1451683-.6569595.1451683-.9100838 0l-4.2915802-2.4789391c-.2531242-.1451569-.2531242-.3796539-.003727-.5266724l2.3319206-1.3548622c.4168739.7313957 1.306469 1.2376137 2.339325 1.2376137 1.0533905 0 1.9597054-.5285492 2.3635864-1.2860031l2.4323807 1.4032516c.2531243.1470185.2531243.3815156.003727.5266724z" fill="#382e49"/></g></g></g></g></g></g></svg>