<svg viewBox="0 0 64 64" xmlns="http://www.w3.org/2000/svg"><g id="Tablet"><rect fill="#8ca8f9" height="64" rx="4" width="54" x="5"/><path d="m55 3h-15a1.00028 1.00028 0 0 0 -.832.44531l-1.70316 2.55469h-10.92968l-1.70316-2.55469a1.00028 1.00028 0 0 0 -.832-.44531h-15a.99943.99943 0 0 0 -1 1v56a.99943.99943 0 0 0 1 1h46a.99943.99943 0 0 0 1-1v-56a.99943.99943 0 0 0 -1-1z" fill="#7188ea"/><circle cx="32" cy="4" fill="#7188ea" r="1"/><path d="m42 24h-6a.99943.99943 0 0 0 -1 1 3 3 0 1 1 -3-3 .99943.99943 0 0 0 1-1v-6a.99943.99943 0 0 0 -1-1 11 11 0 1 0 11 11 .99943.99943 0 0 0 -1-1z" fill="#ff884d"/><path d="m43 25a11.00656 11.00656 0 0 1 -11 11v-8a3.00883 3.00883 0 0 0 3-3 1.003 1.003 0 0 1 1-1h6a1.003 1.003 0 0 1 1 1z" fill="#fcd163"/><path d="m33 15v6a1.003 1.003 0 0 1 -1 1 3.00879 3.00879 0 0 0 -3 3h-8a11.00656 11.00656 0 0 1 11-11 1.003 1.003 0 0 1 1 1z" fill="#f95858"/><path d="m36 11a.99943.99943 0 0 0 -1 1v9a.99943.99943 0 0 0 1 1h9a.99943.99943 0 0 0 1-1 10.01177 10.01177 0 0 0 -10-10z" fill="#5fddb9"/><path d="m26 21a.99676.99676 0 0 1 -.707-.293l-3.70706-3.707h-3.58594a1 1 0 0 1 0-2h4a.99927.99927 0 0 1 .707.293l4 4a1 1 0 0 1 -.707 1.707z" fill="#fcd163"/><path d="m22 14h-4a1 1 0 0 1 0-2h4a1 1 0 0 1 0 2z" fill="#fcd163"/><g fill="#546ad3"><path d="m50 41h-36a1 1 0 0 1 0-2h36a1 1 0 0 1 0 2z"/><path d="m35 46h-21a1 1 0 0 1 0-2h21a1 1 0 0 1 0 2z"/><path d="m28 51h-14a1 1 0 0 1 0-2h14a1 1 0 0 1 0 2z"/><path d="m41 56h-27a1 1 0 0 1 0-2h27a1 1 0 0 1 0 2z"/></g></g></svg>