<?xml version="1.0" encoding="iso-8859-1"?>
<!-- Generator: Adobe Illustrator 19.0.0, SVG Export Plug-In . SVG Version: 6.00 Build 0)  -->
<svg version="1.1" id="Capa_1" xmlns="http://www.w3.org/2000/svg" xmlns:xlink="http://www.w3.org/1999/xlink" x="0px" y="0px"
	 viewBox="0 0 512 512" style="enable-background:new 0 0 512 512;" xml:space="preserve">
<g>
	<path style="fill:#804537;" d="M48.552,450.207v35.31c0,14.654,59.321,26.483,132.414,26.483s132.414-11.829,132.414-26.483v-35.31
		H48.552z"/>
	<path style="fill:#CC6F56;" d="M198.621,423.989c64.794,1.677,114.759,12.8,114.759,26.218c0,14.654-59.321,26.483-132.414,26.483
		S48.552,464.861,48.552,450.207c0-13.418,49.964-24.541,114.759-26.218H198.621z"/>
	<path style="fill:#D1D4D1;" d="M198.621,349.749v82.803c0,9.751-7.904,17.655-17.655,17.655l0,0
		c-9.751,0-17.655-7.905-17.655-17.655V324.59L198.621,349.749z"/>
	<path style="fill:#BDC3C7;" d="M96.309,42.549c-0.971,0.971-1.942,2.03-2.825,3.001c-0.318,0.301-0.613,0.626-0.883,0.971
		c-59.233,67.266-38.488,188.557,48.64,275.686s208.419,107.873,275.685,48.64c0.345-0.27,0.67-0.565,0.971-0.883
		c0.971-0.883,2.03-1.854,3.001-2.825L96.309,42.549z"/>
	<path style="fill:#D1D4D1;" d="M431.669,329.446v10.505c-0.259,10.421-4.344,20.382-11.476,27.983
		c-1.877,1.864-3.949,3.521-6.179,4.943c-38.223,23.923-129.148-17.832-212.215-98.604c-2.119-2.119-4.237-4.149-6.356-6.268
		c-2.031-2.03-4.061-4.061-6.092-6.179c-80.86-83.068-122.702-174.168-98.78-212.392c1.422-2.231,3.08-4.302,4.944-6.179
		c7.602-7.132,17.562-11.217,27.983-11.476h10.504c20.657,2.22,40.732,8.204,59.234,17.655
		c44.599,22.673,85.352,52.225,120.762,87.57c2.119,2.03,4.149,4.061,6.268,6.179s4.237,4.237,6.268,6.356
		c35.337,35.364,64.861,76.09,87.481,120.673C423.465,288.714,429.449,308.789,431.669,329.446L431.669,329.446z"/>
	<g>
		<path style="fill:#95A5A5;" d="M431.669,70.621v269.33c-0.259,10.421-4.344,20.382-11.476,27.983
			c-1.877,1.864-3.949,3.521-6.179,4.943V70.621c0-4.875,3.952-8.828,8.828-8.828C427.717,61.793,431.669,65.745,431.669,70.621z"/>
		<path style="fill:#95A5A5;" d="M410.483,40.607c0,4.855-5.473,8.828-12.182,8.828H90.571c1.422-2.231,3.08-4.302,4.944-6.179
			c7.602-7.132,17.562-11.217,27.983-11.476h274.803C405.01,31.779,410.483,35.752,410.483,40.607z"/>
		<path style="fill:#95A5A5;" d="M409.423,66.56l-82.891,82.979L201.799,274.273c-2.119-2.119-4.237-4.149-6.356-6.268
			c-2.031-2.03-4.061-4.061-6.092-6.179l124.647-124.822l82.89-82.979c3.466-3.437,9.058-3.426,12.51,0.026
			C412.849,57.502,412.861,63.094,409.423,66.56z"/>
	</g>
	<circle style="fill:#7F8C8D;" cx="428.138" cy="35.31" r="35.31"/>
</g>
<g>
</g>
<g>
</g>
<g>
</g>
<g>
</g>
<g>
</g>
<g>
</g>
<g>
</g>
<g>
</g>
<g>
</g>
<g>
</g>
<g>
</g>
<g>
</g>
<g>
</g>
<g>
</g>
<g>
</g>
</svg>
