<svg id="Layer_1" enable-background="new 0 0 51 51" height="512" viewBox="0 0 51 51" width="512" xmlns="http://www.w3.org/2000/svg"><g id="_x31_66"><g><g><g><g><g enable-background="new"><g><g><path d="m24.2822647 38.0374489c.5424194-.9906616.52771-2.5014648 1.0245972-3.5860596 1.4711723-3.2114487 3.6030769-4.2053165 3.6854858-8.1958618.022583-1.0928955.2941895-2.0218506.7321777-2.796936l-.0531005-18.143188c-.0100098-.8599854-.3200073-1.4500122-.8300171-1.7000122.0200195.0100098.0499878.0200195.0700073.0300293l-3.4000244-1.9700319c-.4699707-.2799683-1.1299438-.2399902-1.8499756.1800537l-14.0299683 8.0999752c-1.4400024.8300171-2.6000366 2.8399658-2.5900269 4.4899902l.0900269 31.2299805c0 .8200073.289978 1.4000244.75 1.6700439l3.3499756 1.9400024c.4699707.3200073 1.1500244.2999878 1.9099731-.1400146l10.788208-6.2283936c-.5933837-1.4313964-.6054687-3.1296386.3526612-4.8795775z" fill="#1d2943"/></g></g></g></g></g><g><g><g><g><g><g><g><g><g><g enable-background="new"><g><path d="m28.9114151 3.6454206c-.4699707-.2700195-1.1300049-.2299805-1.8499756.1900024l-16.5300293 43.8200068c0 .8200073.2900391 1.3999634.7600098 1.6699829l-3.4099731-1.9799805c-.460022-.2700195-.75-.8500366-.75-1.6700439l-.0900269-31.2299804c-.0100098-1.6500244 1.1500244-3.6599731 2.5900269-4.4899902l14.0299683-8.0999756c.7200317-.4200439 1.3800049-.460022 1.8499756-.1800537z" fill="#4c5c75"/></g><g><g><path d="m27.0631046 3.8314247c1.435667-.8288825 2.6031113-.1635907 2.6077881 1.4860997l.0885525 31.2354355c.0046768 1.6496925-1.1551857 3.6586571-2.5908527 4.4875374l-14.0314703 8.1010737c-1.435667.8288841-2.6031122.1635895-2.607789-1.4860992l-.0885525-31.2354355c-.0046768-1.6496916 1.1551867-3.6586552 2.5908537-4.4875383z" fill="#1d2943"/></g></g></g></g><g><g><path d="m28.66189 37.0651665c.0011921.4075928-.2856102.9044418-.6408482 1.1097336l-15.7498569 9.0932503c-.3546438.2046928-.6438198.0398712-.6450109-.367733l-.0874758-30.9921532c-.0011835-.4075985.2856178-.9050426.640254-1.1097336l15.7498636-9.093255c.3552322-.2052865.6438198-.0404615.6450119.3677282z" fill="#fff"/></g></g><g><g><g><path d="m13.6806765 11.9587545c.3601503-.2079334.6528673-.0415573.6540403.3722839.0011721.4134054-.2896452.9171209-.6497955 1.1250544-.3597746.207716-.652112.0406847-.6532841-.3727217-.001173-.4138402.2892647-.9169006.6490393-1.1246166z" fill="#4c5c75"/></g></g><g><g><path d="m15.9413128 11.124939c.1333447-.0769863.2419739-.0150852.2424088.1385756.0004349.1532269-.1074886.3401546-.2408333.417141-.1337261.0772066-.2423544.0153046-.2427893-.1379213-.0004358-.1536609.1074877-.3405887.2412138-.4177953z" fill="#4c5c75"/></g></g><g><g><path d="m17.6231594 10.153924c.1337261-.0772066.2423496-.0153027.2427864.1383591.000433.1532259-.1074848.3401508-.2412109.4173574-.1333485.0769892-.241972.0150852-.2424068-.1381407-.0004368-.1536617.1074828-.3405866.2408313-.4175758z" fill="#4c5c75"/></g></g></g></g></g><g><g><path d="m24.4368477 3.4554393c-.5368366-.3047264-1.4219685-.3047264-1.9588032 0-.4787426.2756793-.5368366.6964161-.1741047 1.0011427.0435696-.0435705.1015759-.0870523.1741047-.1306224.5368347-.3046379 1.4219666-.3046379 1.9588032 0 .0580044.04357.1160107.0870519.1741047.1306224.3482075-.3047265.2902012-.7254633-.1741047-1.0011427z" fill="#fff"/></g><g><path d="m22.4780445 4.3259597c-.0725288.04357-.1305351.0870519-.1741047.1306224.0435696.0434813.1015759.0870519.1741047.1305337.5513592.3192496 1.4219666.3192496 1.9588032 0 .0580044-.0289583.1160107-.0725288.1741047-.1160107v-.014523c-.058094-.0435705-.1161003-.0870523-.1741047-.1306224-.5368366-.3046379-1.4219685-.3046379-1.9588032 0z" fill="#111d33"/></g></g></g><g><g><g enable-background="new"><g><g><path d="m8.8410168 17.6154518c-.5529156-.3192272-1.0023265-.0631142-1.004128.5722218-.0017996.6347542.4446921 1.408699.9976068 1.7279243.5523996.3189297 1.0018196.0622387 1.0036192-.5725155.0018014-.6353359-.4446984-1.4087028-.997098-1.7276306z" fill="#e9e7fc"/></g></g></g></g><g><g enable-background="new"><g><g><path d="m8.8410168 20.9139309c-.5529156-.3192272-1.0023265-.0631142-1.004128.5722218-.0017996.6347542.4446921 1.408699.9976068 1.7279243.5523996.3189297 1.0018196.0622387 1.0036192-.5725155.0018014-.6353378-.4446984-1.4087028-.997098-1.7276306z" fill="#e9e7fc"/></g></g></g></g></g></g></g></g></g></g></g><g><g><g><path d="m15.8730974 16.9415016c1.512599-.8733006 2.7496595-.1727409 2.7545996 1.5697632l-2.7456427 1.5896072z" fill="#5094ff"/></g></g><g><g><path d="m15.4494238 17.6753311.0089569 3.1593704 2.7418242-1.5829926c.0011234 1.7491016-1.2202816 3.8646622-2.7328796 4.7379608-1.5164299.8755112-2.7496729.1683254-2.754612-1.5741653-.0049401-1.7424907 1.2202815-3.8646621 2.7367105-4.7401733z" fill="#78e75a"/></g></g><g><g><path d="m21.7061443 16.9763203.0100041 3.5289955-1.9606343 1.1319732-.0100059-3.5289955z" fill="#dba660"/></g></g><g><g><path d="m24.4731503 10.4878044.0192871 8.4146195-1.9644623 1.1341838-.0192871-8.4146204z" fill="#b28afd"/></g></g><g><g><path d="m27.250864 11.8692904.0140324 5.4324541-1.9644623 1.1341838-.0140343-5.4324541z" fill="#f45170"/></g></g></g><g><g><path d="m27.4996147 19.5522747.0047627 1.6799336-14.8034029 8.5467491-.0047627-1.6799336z" fill="#e3e7f0"/></g></g><g><g><path d="m27.4816189 26.0482254-.0065632-3.0310421c-.6073112.3505344-14.9054976 8.603344-14.7824955 8.5324306.0003023.1043301.0281725 9.7278023.026371 9.0964279.0003052.1026878.0105028 3.5260887.0098639 3.3113823.1031523-.0596085 4.1258726-2.3842201 3.8753805-2.2394676.1000423-.0577431 7.499176-4.3284645 7.0284729-4.056778l.2407627-.1385384 3.6346188-2.1009483c-.0002957-.1043319-.0267411-9.4745311-.0264111-9.3734664zm-11.1544419 3.6840782.0098648 2.7507057-3.393816 1.9591293-.0066032-2.7540073zm.0098649 3.031044.0066032 2.7540054-3.3905554 1.9591293-.0098639-2.7540054zm-3.3839522 4.9901696 3.393857-1.9591293.0065613 2.7540092-3.393815 1.9591255zm.0164671 5.7850494-.0065622-2.7540054 3.3905134-1.9591293.0099049 2.7540054zm6.992199-15.9072113.0099049 2.7540054-3.393856 1.9591293-.0065632-2.7540054zm.0099048 3.0343437.0065613 2.7507057-3.3905144 1.9591293-.009903-2.7540054zm-3.3839531 4.9901733 3.393816-1.9591293.0066032 2.7539825-3.393816 1.9591293zm.0164681 5.7850266-.0066032-2.7539864 3.3905544-1.9591293.0099049 2.7539864zm6.9921989-15.9071922.0098629 2.7539864-3.393816 1.9591293-.0066032-2.7539864zm.0098629 3.031044.0066032 2.7539845-3.3905144 1.9591312-.0099048-2.7539864zm-3.3839111 4.9901695 3.393816-1.9558258.0066032 2.7506828-3.393856 1.9591293zm.0164661 5.7883301-.0066013-2.7539825 3.3905544-1.9591293.009903 2.7539825zm6.992199-15.9071903.0098648 2.7539845-3.393816 1.9591293-.0066032-2.7539845zm.0098648 3.0310421.0066032 2.7539864-3.3905544 1.9591293-.0098648-2.7539864zm-3.3839512 4.9901714 3.393856-1.9591274.0066013 2.7539864-3.393856 1.9591255zm.0165062 5.7850284-.0066032-2.7539864 3.3905544-1.9558258.0099049 2.7539864z" fill="#4c5c75"/></g></g><g><g><path d="m12.9695568 43.5385666-.0065622-2.7540054 3.3905134-1.9591293.0099049 2.7540054z" fill="#f45170"/></g></g><g><g><path d="m20.2123814 33.277874-.0065632-2.7540054 3.3905163-1.9591293.009903 2.7540073z" fill="#78e75a"/></g></g><g><g><path d="m23.8733902 37.2439613-.0065613-2.7540054 3.3905144-1.9591255.0099049 2.7540054z" fill="#b28afd"/></g></g></g><g><g><g><g><g><g><g enable-background="new"><g><g><path d="m43.9586372 39.3544044-.0058174 1.4496269c-.00243.8567734-.5657425 1.7121773-1.6904869 2.3658066-2.2652206 1.3164024-5.9456329 1.3164215-8.2256699.0000381-1.1433105-.6600914-1.7147293-1.5273209-1.7122726-2.3938408l.0058136-1.4496269c-.0024529.8665199.5689659 1.7337494 1.7122726 2.3938408 2.2800407 1.3163834 5.960453 1.3163643 8.2256737-.0000381 1.1247406-.6536293 1.688057-1.5090332 1.6904869-2.3658066z" fill="#ffd06c"/></g></g><g><g><path d="m42.241333 36.9555969c2.2800407 1.3163795 2.2904434 3.4491386.0268173 4.7646141-2.2652206 1.3164024-5.9456329 1.3164215-8.2256737.0000381-2.2736111-1.3126717-2.2856102-3.4445038-.0203896-4.7609062 2.2636262-1.3154754 5.945633-1.3164176 8.219246-.003746z" fill="#f9a83d"/></g><g><path d="m38.1601639 42.08424c-1.404705 0-2.7204056-.3130569-3.7047958-.8813705-.9013863-.5205078-1.3983498-1.1840668-1.3994064-1.8685837-.0009422-.6801605.4895439-1.3401871 1.3810425-1.858345.9773254-.5679588 2.2897263-.8807831 3.6953735-.8807831 1.4030609 0 2.7156982.3118858 3.6962013.8779564.9045639.5222778 1.4032936 1.1874847 1.4042358 1.8732986.0009422.679924-.4889565 1.3394814-1.3797455 1.8571663-.977211.5678367-2.2887878.880661-3.6929054.880661z" fill="#ffd06c"/></g></g></g></g></g><g><g><path d="m37.6244278 37.502655.2230873.5960464c-.3240356.0388107-.6209564.1303978-.8533287.2654381-.4059982.2359428-.5568924.5665588-.4693108.8925209l.5315285-.3088913.6210556.3585663-.7906227.4594574c.07267.0574226.1480217.113308.2367439.1645317.0887184.0512199.1881256.0962334.2848167.1365929l.7906227-.4594612.6210327.3585548-.5315285.3088913c.5630417.0496788 1.1333199-.0388069 1.5393181-.2747459.2297058-.1334915.3895416-.3042336.4581528-.4905014l1.0297661.1303825c-.1135254.3026886-.3692474.5758781-.7405128.7916336-.8226738.4780846-2.0654755.5867462-3.1334343.3352852l-.7051506.40979-.6210365-.3585548.5448875-.3166542c-.0940285-.0419044-.1880913-.090023-.2768097-.1412468-.0887184-.0512199-.1694145-.1040001-.244751-.159874l-.5448875.3166504-.6210518-.3585625.7051506-.40979c-.4375916-.6177673-.2513809-1.3364525.5712929-1.8145409.3739395-.217308.8501015-.3663215 1.3749695-.4315185z" fill="#f9a83d"/></g></g></g></g><g><g><g><g><g enable-background="new"><g><g><path d="m35.0985603 44.5033226-.0058136 1.4496307c-.00243.8567734-.5657463 1.7121773-1.6904869 2.3658028-2.2652206 1.3164024-5.9456329 1.3164215-8.2256718.0000381-1.1433105-.6600876-1.7147293-1.527317-1.7122726-2.393837l.0058136-1.4496269c-.0024548.8665199.568964 1.7337494 1.7122746 2.3938408 2.2800388 1.3163795 5.9604511 1.3163605 8.2256737-.0000381 1.1247405-.6536293 1.6880569-1.5090332 1.690483-2.3658104z" fill="#ffd06c"/></g></g><g><g><path d="m33.3812561 42.1045151c2.2800407 1.3163834 2.2904434 3.4491425.0268211 4.7646179-2.2652225 1.3163986-5.9456348 1.3164177-8.2256737.0000381-2.273613-1.3126717-2.2856121-3.4445038-.0203915-4.7609062 2.2636243-1.3154754 5.945633-1.3164215 8.2192441-.0037498z" fill="#f9a83d"/></g><g><path d="m29.3000889 47.2331619c-1.404707 0-2.7204037-.3130608-3.7047939-.8813705-.9013863-.5205116-1.3983498-1.1840706-1.3994083-1.8685875-.0009422-.6801605.4895458-1.3401871 1.3810406-1.8583412.9773254-.5679588 2.2897282-.8807831 3.6953773-.8807831 1.4030571 0 2.7156944.311882 3.6962013.8779564.9045639.5222778 1.4032936 1.1874847 1.4042358 1.8732948.0009422.679924-.4889603 1.3394814-1.3797493 1.8571663-.9772072.5678406-2.288784.8806648-3.6929035.8806648z" fill="#ffd06c"/></g></g></g></g></g><g><g><path d="m28.7643528 42.6515732.2230873.5960503c-.3240376.0388069-.6209545.130394-.8533306.2654381-.4059982.235939-.5568924.566555-.4693069.8925171l.5315285-.3088913.6210537.3585663-.7906227.4594612c.0726719.0574226.1480236.113308.2367439.1645279.0887184.0512238.1881256.0962334.2848167.1365929l.7906208-.4594574.6210365.3585547-.5315285.3088875c.5630417.0496788 1.1333199-.0388031 1.5393181-.2747459.2297039-.1334877.3895397-.3042297.458149-.4905014l1.0297661.1303864c-.1135216.3026848-.3692436.5758743-.740509.7916298-.8226757.4780884-2.0654774.58675-3.1334362.335289l-.7051506.4097862-.6210365-.3585548.5448875-.3166542c-.0940285-.0419044-.1880913-.090023-.2768097-.141243-.0887203-.0512238-.1694164-.1040039-.2447491-.1598778l-.5448875.3166542-.6210537-.3585663.7051506-.40979c-.4375896-.6177673-.251379-1.3364525.5712948-1.814537.3739356-.2173082.8500995-.3663217 1.3749675-.4315225z" fill="#f9a83d"/></g></g></g></g></g><g><g><g><g><g><g enable-background="new"><g><g><path d="m43.9586372 37.1532173-.0058174 1.4496269c-.00243.8567772-.5657425 1.7121811-1.6904869 2.3658066-2.2652206 1.3164024-5.9456329 1.3164215-8.2256699.0000381-1.1433105-.6600876-1.7147293-1.527317-1.7122726-2.393837l.0058136-1.4496269c-.0024529.8665199.5689659 1.7337494 1.7122726 2.393837 2.2800407 1.3163834 5.960453 1.3163643 8.2256737-.0000381 1.1247406-.6536255 1.688057-1.5090294 1.6904869-2.3658066z" fill="#ffd06c"/></g></g><g><g><path d="m42.241333 34.7544098c2.2800407 1.3163795 2.2904434 3.4491425.0268173 4.7646141-2.2652206 1.3164024-5.9456329 1.3164215-8.2256737.0000381-2.2736111-1.3126678-2.2856102-3.4445-.0203896-4.7609024 2.2636262-1.3154754 5.945633-1.3164215 8.219246-.0037498z" fill="#f9a83d"/></g><g><path d="m38.1601639 39.8830566c-1.404705 0-2.7204056-.3130608-3.7047958-.8813705-.9013863-.5205116-1.3983498-1.1840706-1.3994064-1.8685875-.0009422-.6801605.4895439-1.3401871 1.3810425-1.8583412.9773254-.5679588 2.2897263-.8807831 3.6953735-.8807831 1.4030609 0 2.7156982.311882 3.6962013.8779564.9045639.522274 1.4032936 1.1874847 1.4042358 1.8732948.0009422.679924-.4889565 1.3394814-1.3797455 1.8571663-.977211.5678406-2.2887878.8806648-3.6929054.8806648z" fill="#ffd06c"/></g></g></g></g></g><g><g><path d="m37.6244278 35.3014679.2230873.5960503c-.3240356.0388069-.6209564.130394-.8533287.2654381-.4059982.235939-.5568924.566555-.4693108.8925171l.5315285-.3088913.6210556.3585663-.7906227.4594574c.07267.0574226.1480217.113308.2367439.1645317.0887184.0512238.1881256.0962334.2848167.1365929l.7906227-.4594612.6210327.3585548-.5315285.3088913c.5630417.0496788 1.1333199-.0388069 1.5393181-.2747459.2297058-.1334877.3895416-.3042336.4581528-.4905014l1.0297661.1303825c-.1135254.3026886-.3692474.5758781-.7405128.7916336-.8226738.4780846-2.0654755.5867462-3.1334343.335289l-.7051506.4097862-.6210365-.3585548.5448875-.3166542c-.0940285-.0419044-.1880913-.090023-.2768097-.141243-.0887184-.0512238-.1694145-.1040039-.244751-.1598778l-.5448875.3166542-.6210518-.3585663.7051506-.40979c-.4375916-.6177673-.2513809-1.3364525.5712929-1.8145409.3739395-.2173081.8501015-.3663178 1.3749695-.4315186z" fill="#f9a83d"/></g></g></g></g><g><g><g><g><g enable-background="new"><g><g><path d="m35.0985603 42.3021355-.0058136 1.4496307c-.00243.8567734-.5657463 1.7121773-1.6904869 2.3658066-2.2652206 1.3164024-5.9456329 1.3164177-8.2256718.0000381-1.1433105-.6600914-1.7147293-1.5273209-1.7122726-2.3938408l.0058136-1.4496269c-.0024548.8665199.568964 1.7337494 1.7122746 2.3938408 2.2800388 1.3163795 5.9604511 1.3163643 8.2256737-.0000381 1.1247405-.6536293 1.6880569-1.5090332 1.690483-2.3658104z" fill="#ffd06c"/></g></g><g><g><path d="m33.3812561 39.9033279c2.2800407 1.3163834 2.2904434 3.4491425.0268211 4.7646179-2.2652225 1.3164024-5.9456348 1.3164177-8.2256737.0000381-2.273613-1.3126717-2.2856121-3.4445038-.0203915-4.7609062 2.2636243-1.3154754 5.945633-1.3164176 8.2192441-.0037498z" fill="#f9a83d"/></g><g><path d="m29.3000889 45.0319748c-1.404707 0-2.7204037-.3130569-3.7047939-.8813705-.9013863-.5205078-1.3983498-1.1840706-1.3994083-1.8685837-.0009422-.6801605.4895458-1.3401909 1.3810406-1.858345.9773254-.5679588 2.2897282-.8807831 3.6953773-.8807831 1.4030571 0 2.7156944.311882 3.6962013.8779564.9045639.5222778 1.4032936 1.1874847 1.4042358 1.8732986.0009422.679924-.4889603 1.3394775-1.3797493 1.8571625-.9772072.5678405-2.288784.8806648-3.6929035.8806648z" fill="#ffd06c"/></g></g></g></g></g><g><g><path d="m28.7643528 40.4503899.2230873.5960464c-.3240376.0388069-.6209545.1303978-.8533306.2654381-.4059982.2359428-.5568924.566555-.4693069.8925171l.5315285-.3088875.6210537.3585625-.7906227.4594612c.0726719.0574226.1480236.113308.2367439.1645317.0887184.0512199.1881256.0962334.2848167.1365891l.7906208-.4594574.6210365.3585548-.5315285.3088913c.5630417.049675 1.1333199-.0388069 1.5393181-.2747459.2297039-.1334915.3895397-.3042336.458149-.4905014l1.0297661.1303825c-.1135216.3026886-.3692436.5758743-.740509.7916298-.8226757.4780884-2.0654774.58675-3.1334362.335289l-.7051506.40979-.6210365-.3585548.5448875-.3166542c-.0940285-.0419083-.1880913-.090023-.2768097-.1412468-.0887203-.0512199-.1694164-.1040001-.2447491-.1598778l-.5448875.3166542-.6210537-.3585625.7051506-.40979c-.4375896-.6177711-.251379-1.3364563.5712948-1.8145409.3739356-.217308.8500995-.3663215 1.3749675-.4315185z" fill="#f9a83d"/></g></g></g></g></g><g><g><g><g><g><g enable-background="new"><g><g><path d="m43.9586372 34.9520302-.0058174 1.4496307c-.00243.8567734-.5657425 1.7121773-1.6904869 2.3658066-2.2652206 1.3164024-5.9456329 1.3164177-8.2256699.0000381-1.1433105-.6600914-1.7147293-1.5273209-1.7122726-2.3938408l.0058136-1.4496269c-.0024529.8665199.5689659 1.7337494 1.7122726 2.3938408 2.2800407 1.3163795 5.960453 1.3163643 8.2256737-.0000381 1.1247406-.6536293 1.688057-1.5090332 1.6904869-2.3658104z" fill="#ffd06c"/></g></g><g><g><path d="m42.241333 32.5532227c2.2800407 1.3163834 2.2904434 3.4491425.0268173 4.7646179-2.2652206 1.3164024-5.9456329 1.3164177-8.2256737.0000381-2.2736111-1.3126717-2.2856102-3.4445038-.0203896-4.7609062 2.2636262-1.3154755 5.945633-1.3164196 8.219246-.0037498z" fill="#f9a83d"/></g><g><path d="m38.1601639 37.6818695c-1.404705 0-2.7204056-.3130608-3.7047958-.8813705-.9013863-.5205116-1.3983498-1.1840706-1.3994064-1.8685875-.0009422-.6801567.4895439-1.3401871 1.3810425-1.8583412.9773254-.5679588 2.2897263-.8807831 3.6953735-.8807831 1.4030609 0 2.7156982.311882 3.6962013.8779564.9045639.5222778 1.4032936 1.1874847 1.4042358 1.8732948.0009422.6799278-.4889565 1.3394814-1.3797455 1.8571663-.977211.5678406-2.2887878.8806648-3.6929054.8806648z" fill="#ffd06c"/></g></g></g></g></g><g><g><path d="m37.6244278 33.1002846.2230873.5960464c-.3240356.0388069-.6209564.1303978-.8533287.2654381-.4059982.235939-.5568924.566555-.4693108.8925171l.5315285-.3088875.6210556.3585625-.7906227.4594612c.07267.0574226.1480217.113308.2367439.1645279.0887184.0512238.1881256.0962334.2848167.1365929l.7906227-.4594574.6210327.3585548-.5315285.3088913c.5630417.049675 1.1333199-.0388069 1.5393181-.2747498.2297058-.1334877.3895416-.3042297.4581528-.4904976l1.0297661.1303825c-.1135254.3026886-.3692474.5758743-.7405128.7916298-.8226738.4780884-2.0654755.58675-3.1334343.335289l-.7051506.40979-.6210365-.3585548.5448875-.3166542c-.0940285-.0419083-.1880913-.090023-.2768097-.1412468-.0887184-.0512199-.1694145-.1040001-.244751-.1598778l-.5448875.3166542-.6210518-.3585663.7051506-.4097862c-.4375916-.6177711-.2513809-1.3364563.5712929-1.8145409.3739395-.2173079.8501015-.3663214 1.3749695-.4315184z" fill="#f9a83d"/></g></g></g></g><g><g><g><g><g enable-background="new"><g><g><path d="m35.0985603 40.1009521-.0058136 1.4496269c-.00243.8567734-.5657463 1.7121811-1.6904869 2.3658066-2.2652206 1.3164024-5.9456329 1.3164215-8.2256718.0000381-1.1433105-.6600876-1.7147293-1.5273209-1.7122726-2.3938408l.0058136-1.4496231c-.0024548.8665161.568964 1.7337494 1.7122746 2.393837 2.2800388 1.3163834 5.9604511 1.3163643 8.2256737-.0000381 1.1247405-.6536255 1.6880569-1.5090332 1.690483-2.3658066z" fill="#ffd06c"/></g></g><g><g><path d="m33.3812561 37.7021446c2.2800407 1.3163795 2.2904434 3.4491386.0268211 4.7646141-2.2652225 1.3164024-5.9456348 1.3164215-8.2256737.0000381-2.273613-1.3126717-2.2856121-3.4445038-.0203915-4.7609024 2.2636243-1.3154754 5.945633-1.3164214 8.2192441-.0037498z" fill="#f9a83d"/></g><g><path d="m29.3000889 42.8307915c-1.404707 0-2.7204037-.3130608-3.7047939-.8813705-.9013863-.5205116-1.3983498-1.1840706-1.3994083-1.8685875-.0009422-.6801605.4895458-1.3401871 1.3810406-1.858345.9773254-.567955 2.2897282-.8807793 3.6953773-.8807793 1.4030571 0 2.7156944.311882 3.6962013.8779564.9045639.522274 1.4032936 1.1874809 1.4042358 1.8732948.0009422.679924-.4889603 1.3394814-1.3797493 1.8571663-.9772072.5678405-2.288784.8806648-3.6929035.8806648z" fill="#ffd06c"/></g></g></g></g></g><g><g><path d="m28.7643528 38.2492027.2230873.5960503c-.3240376.0388069-.6209545.130394-.8533306.2654381-.4059982.235939-.5568924.566555-.4693069.8925171l.5315285-.3088913.6210537.3585663-.7906227.4594574c.0726719.0574226.1480236.113308.2367439.1645317.0887184.0512199.1881256.0962334.2848167.1365929l.7906208-.4594612.6210365.3585548-.5315285.3088912c.5630417.0496788 1.1333199-.0388069 1.5393181-.2747459.2297039-.1334915.3895397-.3042336.458149-.4905014l1.0297661.1303825c-.1135216.3026886-.3692436.5758781-.740509.7916336-.8226757.4780846-2.0654774.5867462-3.1334362.3352852l-.7051506.40979-.6210365-.3585548.5448875-.3166542c-.0940285-.0419044-.1880913-.090023-.2768097-.141243-.0887203-.0512238-.1694164-.1040039-.2447491-.1598778l-.5448875.3166542-.6210537-.3585663.7051506-.40979c-.4375896-.6177673-.251379-1.3364525.5712948-1.8145409.3739356-.217308.8500995-.3663177 1.3749675-.4315185z" fill="#f9a83d"/></g></g></g></g></g><g><g><g><g><g><g enable-background="new"><g><g><path d="m43.9586372 32.7508469-.0058174 1.4496269c-.00243.8567734-.5657425 1.7121773-1.6904869 2.3658066-2.2652206 1.3164024-5.9456329 1.3164215-8.2256699.0000381-1.1433105-.6600914-1.7147293-1.5273209-1.7122726-2.3938408l.0058136-1.4496269c-.0024529.8665199.5689659 1.7337494 1.7122726 2.3938408 2.2800407 1.3163834 5.960453 1.3163643 8.2256737-.0000381 1.1247406-.6536294 1.688057-1.5090333 1.6904869-2.3658066z" fill="#ffd06c"/></g></g><g><g><path d="m42.241333 30.3520374c2.2800407 1.3163815 2.2904434 3.4491405.0268173 4.764616-2.2652206 1.3164024-5.9456329 1.3164215-8.2256737.0000381-2.2736111-1.3126717-2.2856102-3.4445019-.0203896-4.7609043 2.2636262-1.3154754 5.945633-1.3164195 8.219246-.0037498z" fill="#f9a83d"/></g><g><path d="m38.1601639 35.4806862c-1.404705 0-2.7204056-.3130608-3.7047958-.8813744-.9013863-.5205078-1.3983498-1.1840668-1.3994064-1.8685837-.0009422-.6801605.4895439-1.340189 1.3810425-1.8583431.9773254-.5679588 2.2897263-.8807831 3.6953735-.8807831 1.4030609 0 2.7156982.311882 3.6962013.8779564.9045639.5222759 1.4032936 1.1874828 1.4042358 1.8732967.0009422.679924-.4889565 1.3394814-1.3797455 1.8571663-.977211.5678406-2.2887878.8806649-3.6929054.8806649z" fill="#ffd06c"/></g></g></g></g></g><g><g><path d="m37.6244278 30.8990974.2230873.5960484c-.3240356.0388069-.6209564.1303959-.8533287.2654381-.4059982.2359409-.5568924.5665569-.4693108.892519l.5315285-.3088913.6210556.3585663-.7906227.4594574c.07267.0574226.1480217.113308.2367439.1645317.0887184.0512199.1881256.0962334.2848167.1365929l.7906227-.4594612.6210327.3585548-.5315285.3088913c.5630417.0496788 1.1333199-.0388069 1.5393181-.2747459.2297058-.1334915.3895416-.3042336.4581528-.4905014l1.0297661.1303825c-.1135254.3026886-.3692474.5758781-.7405128.7916336-.8226738.4780846-2.0654755.5867462-3.1334343.3352852l-.7051506.40979-.6210365-.3585548.5448875-.3166542c-.0940285-.0419044-.1880913-.090023-.2768097-.1412468-.0887184-.0512199-.1694145-.1040001-.244751-.159874l-.5448875.3166542-.6210518-.3585663.7051506-.40979c-.4375916-.6177673-.2513809-1.3364544.5712929-1.8145409.3739395-.217308.8501015-.3663197 1.3749695-.4315186z" fill="#f9a83d"/></g></g></g></g><g><g><g><g><g enable-background="new"><g><g><path d="m43.9586372 30.5496597-.0058174 1.4496288c-.00243.8567753-.5657425 1.7121792-1.6904869 2.3658047-2.2652206 1.3164024-5.9456329 1.3164215-8.2256699.0000381-1.1433105-.6600876-1.7147293-1.527317-1.7122726-2.3938389l.0058136-1.449625c-.0024529.866518.5689659 1.7337494 1.7122726 2.393837 2.2800407 1.3163834 5.960453 1.3163643 8.2256737-.0000381 1.1247406-.6536255 1.688057-1.5090313 1.6904869-2.3658066z" fill="#ffd06c"/></g></g><g><g><path d="m42.241333 28.1508522c2.2800407 1.3163815 2.2904434 3.4491405.0268173 4.7646141-2.2652206 1.3164024-5.9456329 1.3164215-8.2256737.0000381-2.2736111-1.3126698-2.2856102-3.4445019-.0203896-4.7609043 2.2636262-1.3154735 5.945633-1.3164196 8.219246-.0037479z" fill="#f9a83d"/></g><g><path d="m38.1601639 33.2794991c-1.404705 0-2.7204056-.3130608-3.7047958-.8813705-.9013863-.5205116-1.3983498-1.1840706-1.3994064-1.8685875-.0009422-.6801605.4895439-1.3401871 1.3810425-1.8583431.9773254-.5679569 2.2897263-.8807812 3.6953735-.8807812 1.4030609 0 2.7156982.311882 3.6962013.8779564.9045639.5222759 1.4032936 1.1874828 1.4042358 1.8732948.0009422.6799259-.4889565 1.3394814-1.3797455 1.8571663-.977211.5678405-2.2887878.8806648-3.6929054.8806648z" fill="#ffd06c"/></g></g></g></g></g><g><g><path d="m37.6244278 28.6979122.2230873.5960484c-.3240356.0388069-.6209564.1303959-.8533287.2654381-.4059982.235939-.5568924.566555-.4693108.8925171l.5315285-.3088913.6210556.3585663-.7906227.4594592c.07267.0574226.1480217.113308.2367439.1645298.0887184.0512218.1881256.0962334.2848167.1365929l.7906227-.4594593.6210327.3585548-.5315285.3088913c.5630417.0496769 1.1333199-.0388069 1.5393181-.2747478.2297058-.1334896.3895416-.3042316.4581528-.4904995l1.0297661.1303825c-.1135254.3026886-.3692474.5758762-.7405128.7916317-.8226738.4780884-2.0654755.5867462-3.1334343.3352871l-.7051506.4097881-.6210365-.3585548.5448875-.3166523c-.0940285-.0419064-.1880913-.090023-.2768097-.1412449s-.1694145-.104002-.244751-.1598778l-.5448875.3166542-.6210518-.3585663.7051506-.4097881c-.4375916-.6177692-.2513809-1.3364544.5712929-1.8145409.3739395-.217308.8501015-.3663196 1.3749695-.4315185z" fill="#f9a83d"/></g></g></g></g><g><g><g><g><g enable-background="new"><g><g><path d="m43.9586372 28.3484745-.0058174 1.4496288c-.00243.8567734-.5657425 1.7121773-1.6904869 2.3658066-2.2652206 1.3164024-5.9456329 1.3164177-8.2256699.0000381-1.1433105-.6600914-1.7147293-1.5273209-1.7122726-2.3938408l.0058136-1.4496269c-.0024529.8665199.5689659 1.7337494 1.7122726 2.3938408 2.2800407 1.3163795 5.960453 1.3163643 8.2256737-.0000381 1.1247406-.6536293 1.688057-1.5090332 1.6904869-2.3658085z" fill="#ffd06c"/></g></g><g><g><path d="m42.241333 25.949667c2.2800407 1.3163815 2.2904434 3.4491405.0268173 4.764616-2.2652206 1.3164024-5.9456329 1.3164177-8.2256737.0000381-2.2736111-1.3126717-2.2856102-3.4445038-.0203896-4.7609062 2.2636262-1.3154754 5.945633-1.3164196 8.219246-.0037479z" fill="#f9a83d"/></g><g><path d="m38.1601639 31.0783119c-1.404705 0-2.7204056-.3130589-3.7047958-.8813705-.9013863-.5205097-1.3983498-1.1840687-1.3994064-1.8685856-.0009422-.6801605.4895439-1.3401871 1.3810425-1.8583431.9773254-.5679588 2.2897263-.8807831 3.6953735-.8807831 1.4030609 0 2.7156982.3118839 3.6962013.8779583.9045639.5222759 1.4032936 1.1874828 1.4042358 1.8732948.0009422.679924-.4889565 1.3394814-1.3797455 1.8571663-.977211.5678387-2.2887878.8806629-3.6929054.8806629z" fill="#ffd06c"/></g></g></g></g></g><g><g><path d="m37.6244278 26.4967251.2230873.5960484c-.3240356.0388088-.6209564.1303959-.8533287.2654381-.4059982.2359409-.5568924.5665569-.4693108.892519l.5315285-.3088913.6210556.3585663-.7906227.4594593c.07267.0574226.1480217.113308.2367439.1645298.0887184.0512218.1881256.0962334.2848167.1365929l.7906227-.4594593.6210327.3585548-.5315285.3088894c.5630417.0496788 1.1333199-.038805 1.5393181-.2747459.2297058-.1334896.3895416-.3042316.4581528-.4905014l1.0297661.1303844c-.1135254.3026886-.3692474.5758762-.7405128.7916317-.8226738.4780865-2.0654755.5867481-3.1334343.3352871l-.7051506.4097881-.6210365-.3585548.5448875-.3166542c-.0940285-.0419044-.1880913-.0900211-.2768097-.1412449-.0887184-.0512218-.1694145-.104002-.244751-.1598759l-.5448875.3166542-.6210518-.3585663.7051506-.40979c-.4375916-.6177673-.2513809-1.3364525.5712929-1.814539.3739395-.2173081.8501015-.3663197 1.3749695-.4315205z" fill="#f9a83d"/></g></g></g></g><g><g><g><g><g enable-background="new"><g><g><path d="m35.0985603 37.899765-.0058136 1.4496307c-.00243.8567734-.5657463 1.7121773-1.6904869 2.3658066-2.2652206 1.3164024-5.9456329 1.3164177-8.2256718.0000381-1.1433105-.6600914-1.7147293-1.5273209-1.7122726-2.3938408l.0058136-1.4496269c-.0024548.8665199.568964 1.7337494 1.7122746 2.3938408 2.2800388 1.3163795 5.9604511 1.3163643 8.2256737-.0000381 1.1247405-.6536293 1.6880569-1.5090332 1.690483-2.3658104z" fill="#ffd06c"/></g></g><g><g><path d="m33.3812561 35.5009575c2.2800407 1.3163834 2.2904434 3.4491425.0268211 4.7646179-2.2652225 1.3164024-5.9456348 1.3164177-8.2256737.0000381-2.273613-1.3126717-2.2856121-3.4445038-.0203915-4.7609062 2.2636243-1.3154754 5.945633-1.3164215 8.2192441-.0037498z" fill="#f9a83d"/></g><g><path d="m29.3000889 40.6296043c-1.404707 0-2.7204037-.3130608-3.7047939-.8813705-.9013863-.5205116-1.3983498-1.1840706-1.3994083-1.8685875-.0009422-.6801605.4895458-1.3401871 1.3810406-1.8583412.9773254-.5679588 2.2897282-.8807831 3.6953773-.8807831 1.4030571 0 2.7156944.311882 3.6962013.8779564.9045639.5222778 1.4032936 1.1874847 1.4042358 1.8732948.0009422.679924-.4889603 1.3394814-1.3797493 1.8571663-.9772072.5678406-2.288784.8806648-3.6929035.8806648z" fill="#ffd06c"/></g></g></g></g></g><g><g><path d="m28.7643528 36.0480156.2230873.5960503c-.3240376.0388069-.6209545.1303978-.8533306.2654381-.4059982.235939-.5568924.566555-.4693069.8925171l.5315285-.3088913.6210537.3585663-.7906227.4594612c.0726719.0574226.1480236.113308.2367439.1645279.0887184.0512238.1881256.0962334.2848167.1365929l.7906208-.4594574.6210365.3585548-.5315285.3088875c.5630417.0496788 1.1333199-.0388031 1.5393181-.2747459.2297039-.1334877.3895397-.3042297.458149-.4905014l1.0297661.1303864c-.1135216.3026886-.3692436.5758743-.740509.7916298-.8226757.4780884-2.0654774.58675-3.1334362.335289l-.7051506.40979-.6210365-.3585587.5448875-.3166504c-.0940285-.0419083-.1880913-.090023-.2768097-.1412468-.0887203-.0512238-.1694164-.1040039-.2447491-.1598778l-.5448875.3166542-.6210537-.3585663.7051506-.40979c-.4375896-.6177673-.251379-1.3364525.5712948-1.814537.3739356-.2173082.8500995-.3663217 1.3749675-.4315225z" fill="#f9a83d"/></g></g></g></g></g></g></g></svg>