<svg id="Layer_1" enable-background="new 0 0 343.5 512" viewBox="0 0 343.5 512" xmlns="http://www.w3.org/2000/svg" xmlns:xlink="http://www.w3.org/1999/xlink"><linearGradient id="lg1"><stop offset="0" stop-color="#7b7da1"/><stop offset=".3104" stop-color="#6d6f93"/><stop offset=".8987" stop-color="#494c6d"/><stop offset="1" stop-color="#424566"/></linearGradient><linearGradient id="SVGID_1_" gradientUnits="userSpaceOnUse" x1="35.267" x2="293.445" xlink:href="#lg1" y1="3.009" y2="510.377"/><linearGradient id="lg2"><stop offset="0" stop-color="#a1a4c7"/><stop offset="1" stop-color="#a1a4c7" stop-opacity="0"/></linearGradient><linearGradient id="SVGID_2_" gradientUnits="userSpaceOnUse" x1="29.227" x2="42.547" xlink:href="#lg2" y1="13.62" y2="25.7"/><linearGradient id="lg3"><stop offset="0" stop-color="#32365c"/><stop offset="1" stop-color="#32365c" stop-opacity="0"/></linearGradient><linearGradient id="SVGID_3_" gradientTransform="matrix(-1 0 0 1 -11610.361 0)" gradientUnits="userSpaceOnUse" x1="-11927.347" x2="-11898.584" xlink:href="#lg3" y1="11.204" y2="27.105"/><linearGradient id="SVGID_4_" gradientTransform="matrix(-1 0 0 -1 -11610.361 -12645.592)" gradientUnits="userSpaceOnUse" x1="-11913.286" x2="-11891.526" y1="-13153.523" y2="-13128.892"><stop offset="0" stop-color="#2a2d4d"/><stop offset="1" stop-color="#2a2d4d" stop-opacity="0"/></linearGradient><linearGradient id="SVGID_5_" gradientTransform="matrix(-1 0 0 -1 -11610.36 -12854.347)" gradientUnits="userSpaceOnUse" x1="-11774.364" x2="-11774.364" y1="-13365.948" y2="-13350.405"><stop offset="0" stop-color="#292c4d"/><stop offset="1" stop-color="#292c4d" stop-opacity="0"/></linearGradient><linearGradient id="SVGID_6_" gradientUnits="userSpaceOnUse" x1="8.967" x2="46.728" xlink:href="#lg2" y1="520.65" y2="482.889"/><linearGradient id="SVGID_7_" gradientTransform="matrix(-1 0 0 1 -11610.361 0)" gradientUnits="userSpaceOnUse" x1="-11923.196" x2="-11905.359" xlink:href="#lg3" y1="256" y2="256"/><linearGradient id="SVGID_8_" gradientUnits="userSpaceOnUse" x1="164.004" x2="164.004" xlink:href="#lg2" y1="-2.637" y2="16.054"/><linearGradient id="SVGID_9_" gradientUnits="userSpaceOnUse" x1="15.172" x2="33.767" xlink:href="#lg2" y1="256" y2="256"/><linearGradient id="SVGID_10_" gradientUnits="userSpaceOnUse" x1="44.437" x2="284.226" y1="21.028" y2="492.259"><stop offset="0" stop-color="#e9edff"/><stop offset="1" stop-color="#c4cbff"/></linearGradient><linearGradient id="lg4"><stop offset=".00000187801" stop-color="#a1b3ff"/><stop offset="1" stop-color="#a1b3ff" stop-opacity="0"/></linearGradient><linearGradient id="SVGID_11_" gradientUnits="userSpaceOnUse" x1="291.187" x2="273.265" xlink:href="#lg4" y1="256" y2="256"/><linearGradient id="SVGID_12_" gradientUnits="userSpaceOnUse" x1="164.004" x2="164.004" xlink:href="#lg4" y1="492.032" y2="473.554"/><linearGradient id="lg5"><stop offset=".00000211276" stop-color="#fff"/><stop offset="1" stop-color="#fff" stop-opacity="0"/></linearGradient><linearGradient id="SVGID_13_" gradientUnits="userSpaceOnUse" x1="34.166" x2="54.505" xlink:href="#lg5" y1="256" y2="256"/><linearGradient id="SVGID_14_" gradientUnits="userSpaceOnUse" x1="164.004" x2="164.004" xlink:href="#lg5" y1="20.413" y2="36.444"/><linearGradient id="SVGID_15_" gradientUnits="userSpaceOnUse" x1="164.004" x2="164.004" xlink:href="#lg1" y1="460.247" y2="480.737"/><linearGradient id="lg6"><stop offset="0" stop-color="#9093bd"/><stop offset=".1833" stop-color="#898cb5"/><stop offset=".4669" stop-color="#75789f"/><stop offset=".8134" stop-color="#56597c"/><stop offset="1" stop-color="#424566"/></linearGradient><linearGradient id="SVGID_16_" gradientUnits="userSpaceOnUse" x1="164.004" x2="164.004" xlink:href="#lg6" y1="464.891" y2="475.773"/><linearGradient id="SVGID_17_" gradientUnits="userSpaceOnUse" x1="164.004" x2="164.004" xlink:href="#lg1" y1="31.258" y2="57.954"/><linearGradient id="SVGID_18_" gradientUnits="userSpaceOnUse" x1="164.004" x2="164.004" xlink:href="#lg6" y1="34.05" y2="53.865"/><linearGradient id="SVGID_19_" gradientUnits="userSpaceOnUse" x1="131.171" x2="131.171" xlink:href="#lg1" y1="35.6" y2="49.558"/><linearGradient id="SVGID_20_" gradientUnits="userSpaceOnUse" x1="131.171" x2="131.171" xlink:href="#lg6" y1="38.115" y2="49.856"/><linearGradient id="SVGID_21_" gradientUnits="userSpaceOnUse" x1="130.792" x2="132.659" y1="41.402" y2="44.801"><stop offset="0" stop-color="#b8bad9"/><stop offset=".1478" stop-color="#b0b2d1"/><stop offset=".3764" stop-color="#9a9dbc"/><stop offset=".6572" stop-color="#777999"/><stop offset=".977" stop-color="#46496a"/><stop offset="1" stop-color="#424566"/></linearGradient><linearGradient id="lg7"><stop offset="0" stop-color="#9093bd"/><stop offset="1" stop-color="#424566"/></linearGradient><linearGradient id="SVGID_22_" gradientUnits="userSpaceOnUse" x1="307.531" x2="313.841" xlink:href="#lg7" y1="169.87" y2="169.87"/><linearGradient id="SVGID_23_" gradientUnits="userSpaceOnUse" x1="12.643" x2="17.85" xlink:href="#lg7" y1="164.811" y2="164.811"/><linearGradient id="SVGID_24_" gradientUnits="userSpaceOnUse" x1="29.596" x2="240.982" xlink:href="#lg4" y1="183.243" y2="394.629"/><linearGradient id="lg8"><stop offset="0" stop-color="#ffed81"/><stop offset="1" stop-color="#ff8804"/></linearGradient><linearGradient id="SVGID_25_" gradientUnits="userSpaceOnUse" x1="131.176" x2="131.176" xlink:href="#lg8" y1="134.829" y2="227.416"/><linearGradient id="SVGID_26_" gradientUnits="userSpaceOnUse" x1="131.517" x2="131.517" y1="211.55" y2="163.251"><stop offset="0" stop-color="#f78100"/><stop offset=".6719" stop-color="#f78100" stop-opacity="0"/></linearGradient><linearGradient id="SVGID_27_" gradientUnits="userSpaceOnUse" x1="263.874" x2="213.447" y1="169.007" y2="169.007"><stop offset="0" stop-color="#f78100"/><stop offset=".5393" stop-color="#f78100" stop-opacity="0"/></linearGradient><linearGradient id="SVGID_28_" gradientUnits="userSpaceOnUse" x1="131.179" x2="131.179" y1="130.507" y2="166.877"><stop offset="0" stop-color="#ffeda6"/><stop offset=".7499" stop-color="#ffeda6" stop-opacity="0"/></linearGradient><linearGradient id="lg9"><stop offset="0" stop-color="#ffed81"/><stop offset=".2348" stop-color="#ffd968"/><stop offset=".7302" stop-color="#ffa629"/><stop offset="1" stop-color="#ff8804"/></linearGradient><linearGradient id="SVGID_29_" gradientUnits="userSpaceOnUse" x1="21.431" x2="311.918" xlink:href="#lg9" y1="179.685" y2="470.172"/><linearGradient id="lg10"><stop offset="0" stop-color="#f78100"/><stop offset="1" stop-color="#f78100" stop-opacity="0"/></linearGradient><linearGradient id="SVGID_30_" gradientUnits="userSpaceOnUse" x1="324.356" x2="300.277" xlink:href="#lg10" y1="319.984" y2="319.984"/><linearGradient id="SVGID_31_" gradientUnits="userSpaceOnUse" x1="161.73" x2="161.73" xlink:href="#lg10" y1="436.143" y2="413.673"/><linearGradient id="lg11"><stop offset="0" stop-color="#ffeda6"/><stop offset="1" stop-color="#ffeda6" stop-opacity="0"/></linearGradient><linearGradient id="SVGID_32_" gradientUnits="userSpaceOnUse" x1="-4.495" x2="26.832" xlink:href="#lg11" y1="302.277" y2="302.277"/><linearGradient id="SVGID_33_" gradientUnits="userSpaceOnUse" x1="161.73" x2="161.73" xlink:href="#lg11" y1="203.802" y2="226.702"/><linearGradient id="lg12"><stop offset="0" stop-color="#cfe958"/><stop offset=".1381" stop-color="#c8e458"/><stop offset=".3389" stop-color="#b5d75a"/><stop offset=".578" stop-color="#95c15c"/><stop offset=".8445" stop-color="#69a45e"/><stop offset="1" stop-color="#4c9060"/></linearGradient><linearGradient id="SVGID_34_" gradientTransform="matrix(.974 -.225 .225 .974 756.119 -1521.988)" gradientUnits="userSpaceOnUse" x1="-1001.448" x2="-1001.448" xlink:href="#lg12" y1="1372.418" y2="1501.65"/><linearGradient id="lg13"><stop offset=".004102736" stop-color="#4c9060"/><stop offset="1" stop-color="#4c9060" stop-opacity="0"/></linearGradient><linearGradient id="SVGID_35_" gradientTransform="matrix(.974 -.225 .225 .974 756.119 -1521.988)" gradientUnits="userSpaceOnUse" x1="-1006.304" x2="-1006.304" xlink:href="#lg13" y1="1519.465" y2="1499.524"/><linearGradient id="lg14"><stop offset="0" stop-color="#d2e96b"/><stop offset=".8469" stop-color="#d2e96b" stop-opacity="0"/></linearGradient><linearGradient id="SVGID_36_" gradientTransform="matrix(.974 -.225 .225 .974 756.119 -1521.988)" gradientUnits="userSpaceOnUse" x1="-1037.77" x2="-1017.782" xlink:href="#lg14" y1="1462.094" y2="1482.083"/><linearGradient id="SVGID_37_" gradientTransform="matrix(.974 -.225 .225 .974 756.119 -1521.988)" gradientUnits="userSpaceOnUse" x1="-942.417" x2="-958.513" xlink:href="#lg14" y1="1444.906" y2="1461.002"/><linearGradient id="SVGID_38_" gradientUnits="userSpaceOnUse" x1="124.101" x2="124.101" xlink:href="#lg12" y1="90.138" y2="219.37"/><linearGradient id="SVGID_39_" gradientUnits="userSpaceOnUse" x1="119.245" x2="119.245" xlink:href="#lg13" y1="204.166" y2="184.226"/><linearGradient id="SVGID_40_" gradientUnits="userSpaceOnUse" x1="87.779" x2="107.768" xlink:href="#lg14" y1="146.796" y2="166.784"/><linearGradient id="SVGID_41_" gradientUnits="userSpaceOnUse" x1="183.132" x2="167.037" xlink:href="#lg14" y1="129.608" y2="145.704"/><linearGradient id="SVGID_42_" gradientUnits="userSpaceOnUse" x1="276.52" x2="342.883" y1="285.68" y2="352.043"><stop offset="0" stop-color="#efa33d"/><stop offset="1" stop-color="#a05223"/></linearGradient><linearGradient id="SVGID_43_" gradientUnits="userSpaceOnUse" x1="284.084" x2="301.695" xlink:href="#lg8" y1="311.388" y2="328.999"/><linearGradient id="SVGID_44_" gradientUnits="userSpaceOnUse" x1="346.484" x2="325.514" y1="319.984" y2="319.984"><stop offset=".00000266051" stop-color="#943d09"/><stop offset="1" stop-color="#943d09" stop-opacity="0"/></linearGradient><linearGradient id="SVGID_45_" gradientUnits="userSpaceOnUse" x1="128.27" x2="231.675" xlink:href="#lg10" y1="286.526" y2="389.931"/><linearGradient id="SVGID_46_" gradientUnits="userSpaceOnUse" x1="116.596" x2="217.737" y1="274.85" y2="375.991"><stop offset="0" stop-color="#cfe958"/><stop offset=".5848" stop-color="#80b35d"/><stop offset="1" stop-color="#4c9060"/></linearGradient><radialGradient id="SVGID_47_" cx="157.572" cy="315.314" gradientTransform="matrix(.707 .707 -.725 .725 274.59 -24.544)" gradientUnits="userSpaceOnUse" r="71.089"><stop offset=".8186" stop-color="#3e8252" stop-opacity="0"/><stop offset="1" stop-color="#3e8252"/></radialGradient><radialGradient id="SVGID_48_" cx="165.138" cy="323.149" gradientUnits="userSpaceOnUse" r="68.506"><stop offset=".8186" stop-color="#e6ff75" stop-opacity="0"/><stop offset="1" stop-color="#e6ff75"/></radialGradient><linearGradient id="SVGID_49_" gradientUnits="userSpaceOnUse" x1="148.183" x2="180.822" xlink:href="#lg9" y1="299.797" y2="332.435"/><g><g><g><path d="m65.6 512c-26.6 0-48.2-21.6-48.2-48.2v-415.6c0-26.6 21.6-48.2 48.2-48.2h196.9c26.6 0 48.2 21.6 48.2 48.2v415.7c0 26.6-21.6 48.2-48.2 48.2h-196.9z" fill="url(#SVGID_1_)"/><g><path d="m84.2 66.4v-66.4h-18.6c-26.6 0-48.2 21.6-48.2 48.2v18.3h66.8z" fill="url(#SVGID_2_)"/><path d="m243.8 66.4v-66.4h18.6c26.6 0 48.2 21.6 48.2 48.2v18.3h-66.8z" fill="url(#SVGID_3_)"/><path d="m243.8 445.6v66.4h18.6c26.6 0 48.2-21.6 48.2-48.2v-18.3h-66.8z" fill="url(#SVGID_4_)"/><path d="m17.4 461.5v2.3c0 26.6 21.6 48.2 48.2 48.2h196.9c26.6 0 48.2-21.6 48.2-48.2v-2.3z" fill="url(#SVGID_5_)"/><path d="m84.2 445.6v66.4h-18.6c-26.6 0-48.2-21.6-48.2-48.2v-18.3h66.8z" fill="url(#SVGID_6_)"/><path d="m284 5.1c15.7 7.9 26.6 24.2 26.6 43v415.7c0 18.8-10.8 35.1-26.6 43z" fill="url(#SVGID_7_)"/><path d="m310.6 50.5v-2.3c0-26.6-21.6-48.2-48.2-48.2h-196.8c-26.6 0-48.2 21.6-48.2 48.2v2.3z" fill="url(#SVGID_8_)"/><path d="m44 5.1c-15.7 7.9-26.6 24.2-26.6 43v415.7c0 18.8 10.8 35.1 26.6 43z" fill="url(#SVGID_9_)"/></g></g><g><path d="m290.8 463.8c0 15.7-12.7 28.3-28.3 28.3h-196.9c-15.7 0-28.3-12.7-28.3-28.3v-415.6c0-15.7 12.7-28.3 28.3-28.3h196.9c15.7 0 28.3 12.7 28.3 28.3z" fill="url(#SVGID_10_)"/><g><path d="m262.4 19.8h-14.3v472.4h14.3c15.7 0 28.3-12.7 28.3-28.3v-415.7c.1-15.7-12.6-28.4-28.3-28.4z" fill="url(#SVGID_11_)"/><path d="m37.2 455.4v8.5c0 15.7 12.7 28.3 28.3 28.3h196.9c15.7 0 28.3-12.7 28.3-28.3v-8.5z" fill="url(#SVGID_12_)"/><path d="m65.6 492.2h14.3v-472.4h-14.3c-15.7 0-28.3 12.7-28.3 28.3v415.7c-.1 15.7 12.6 28.4 28.3 28.4z" fill="url(#SVGID_13_)"/><path d="m290.8 64.4v-16.2c0-15.7-12.7-28.3-28.3-28.3h-196.9c-15.7 0-28.3 12.7-28.3 28.3v16.2z" fill="url(#SVGID_14_)"/></g></g><g><g><path d="m211.5 476.5h-94.9c-3.5 0-6.3-2.8-6.3-6.3s2.8-6.3 6.3-6.3h94.9c3.5 0 6.3 2.8 6.3 6.3s-2.8 6.3-6.3 6.3z" fill="url(#SVGID_15_)"/><path d="m116.6 473.5c-1.9 0-3.4-1.5-3.4-3.4s1.5-3.4 3.4-3.4h94.9c1.9 0 3.4 1.5 3.4 3.4s-1.5 3.4-3.4 3.4z" fill="url(#SVGID_16_)"/></g><g><path d="m197.2 53.6h-66.5c-6.4 0-11.5-5.2-11.5-11.5 0-6.4 5.2-11.5 11.5-11.5h66.5c6.4 0 11.5 5.2 11.5 11.5.1 6.4-5.1 11.5-11.5 11.5z" fill="url(#SVGID_17_)"/><path d="m130.8 50.7c-4.7 0-8.6-3.8-8.6-8.6 0-4.7 3.8-8.6 8.6-8.6h66.5c4.7 0 8.6 3.8 8.6 8.6 0 4.7-3.8 8.6-8.6 8.6z" fill="url(#SVGID_18_)"/><g><circle cx="131.2" cy="42.1" fill="url(#SVGID_19_)" r="6.1"/><circle cx="131.2" cy="42.1" fill="url(#SVGID_20_)" r="3.8"/><circle cx="131.2" cy="42.1" fill="url(#SVGID_21_)" r=".6"/></g></g></g><path d="m310.6 140-.1 59.7h.1c1.8 0 3.3-1.5 3.3-3.3v-53.1c0-1.8-1.4-3.3-3.3-3.3z" fill="url(#SVGID_22_)"/><path d="m17.4 162.8v-32.9h-.1c-1.8 0-3.3 1.5-3.3 3.3v26.2c.1 1.9 1.6 3.4 3.4 3.4zm0 36.9v-32.9h-.1c-1.8 0-3.3 1.5-3.3 3.3v26.2c.1 1.9 1.6 3.4 3.4 3.4z" fill="url(#SVGID_23_)"/></g><g><g><path d="m253.7 146.1c-6.5-7.5-16-12.2-26.7-12.2h-191.6c-19.3 0-34.9 15.4-35.4 34.5 0-.1 0-.2 0-.3v233.2c0 7.4 2.3 14.3 6.1 19.9l31.1 15.5 55.5 55.5h169.7c15.6 0 28.3-12.7 28.3-28.3v-280.8c-17-17.1-36.3-36.4-37-37z" fill="url(#SVGID_24_)"/><g><g><path d="m226.9 133.9h-191.5c-19.2 0-34.9 15.4-35.4 34.5 0-.2 0-.3 0-.5v1.4c0-.2 0-.3 0-.5.5 19.1 16.2 34.5 35.4 34.5h226.9v-34c0-19.6-15.8-35.4-35.4-35.4z" fill="url(#SVGID_25_)"/><path d="m.7 174.8c3.2 16.2 17.5 28.5 34.7 28.5h226.9v-28.5z" fill="url(#SVGID_26_)"/><path d="m234.5 134.7v68.6h27.8v-34c0-17-11.9-31.1-27.8-34.6z" fill="url(#SVGID_27_)"/><path d="m261.6 162c-3.4-16.1-17.6-28.2-34.7-28.2h-191.5c-17.1 0-31.3 12.1-34.7 28.2z" fill="url(#SVGID_28_)"/></g><g><path d="m35.4 203.3c-19.5 0-35.4-15.8-35.4-35.4v35.4 197.9c0 19.6 15.9 35.4 35.4 35.4h252.6c19.6 0 35.4-15.9 35.4-35.4v-162.5c0-19.6-15.9-35.4-35.4-35.4z" fill="url(#SVGID_29_)"/><g><path d="m288 203.3h-22.7v233.3h22.7c19.6 0 35.4-15.9 35.4-35.4v-162.5c.1-19.5-15.8-35.4-35.4-35.4z" fill="url(#SVGID_30_)"/><path d="m0 385.9v15.4c0 19.6 15.9 35.4 35.4 35.4h252.6c19.6 0 35.4-15.9 35.4-35.4v-15.4z" fill="url(#SVGID_31_)"/><path d="m39.8 203.3h-4.4c-19.5 0-35.4-15.8-35.4-35.4v233.3c0 19.6 15.9 35.4 35.4 35.4h4.4z" fill="url(#SVGID_32_)"/><path d="m323.5 247.4v-8.7c0-19.6-15.9-35.4-35.4-35.4h-252.7c-19.5 0-35.4-15.8-35.4-35.4v79.5z" fill="url(#SVGID_33_)"/></g></g><g><g><path d="m196.3 120.2-68.4-42.8c-6.4-4-14.7-2-18.7 4.3l-75 119.9c-.3.5-.6 1.1-.9 1.7l148.4-34.2 18.9-30.2c4-6.4 2.1-14.7-4.3-18.7z" fill="url(#SVGID_34_)"/><path d="m47.8 180-13.5 21.6c-.3.5-.6 1.1-.9 1.7l148.4-34.2 14.6-23.3z" fill="url(#SVGID_35_)"/><path d="m127.9 77.4c-6.4-4-14.7-2-18.7 4.3l-75 119.9c-.3.5-.6 1.1-.9 1.7l38.8-8.9 66.9-107c.5-.8 1-1.5 1.6-2.1z" fill="url(#SVGID_36_)"/><path d="m196.3 120.2-68.4-42.8c-6.4-4-14.7-2-18.7 4.3l-4.3 6.9c3.1-.2 6.2.6 9.1 2.3l78.6 49.1c1.9 1.2 3.4 2.7 4.6 4.4l3.5-5.6c3.9-6.3 2-14.6-4.4-18.6z" fill="url(#SVGID_37_)"/></g><g><path d="m210.9 159-57.1-57.1c-5.3-5.3-13.9-5.3-19.2 0l-100 100c-.5.5-.9.9-1.2 1.4h152.3l25.2-25.2c5.3-5.3 5.3-13.8 0-19.1z" fill="url(#SVGID_38_)"/><path d="m52.6 183.9-18 18c-.5.5-.9.9-1.2 1.4h152.3l19.4-19.4z" fill="url(#SVGID_39_)"/><path d="m153.8 101.9c-5.3-5.3-13.9-5.3-19.2 0l-100 100c-.5.5-.9.9-1.2 1.4h39.8l89.2-89.2c.6-.6 1.3-1.2 2-1.7z" fill="url(#SVGID_40_)"/><path d="m210.9 159-57.1-57.1c-5.3-5.3-13.9-5.3-19.2 0l-5.7 5.7c3 .5 6 2 8.3 4.3l65.5 65.5c1.6 1.6 2.7 3.4 3.5 5.3l4.7-4.7c5.3-5.2 5.3-13.7 0-19z" fill="url(#SVGID_41_)"/></g></g><g><path d="m336.6 345.7h-43.7c-14.2 0-25.7-11.5-25.7-25.7 0-14.2 11.5-25.7 25.7-25.7h43.7c3.8 0 6.9 3.1 6.9 6.9v37.6c0 3.8-3.1 6.9-6.9 6.9z" fill="url(#SVGID_42_)"/><circle cx="292.7" cy="320" fill="url(#SVGID_43_)" r="14.5"/><path d="m336.6 294.2h-16.5v51.5h16.5c3.8 0 6.9-3.1 6.9-6.9v-37.6c0-3.9-3.1-7-6.9-7z" fill="url(#SVGID_44_)"/></g></g></g><g><path d="m207.4 276.2c-11.5-12-27.7-19.5-45.7-19.5-35 0-63.3 28.4-63.3 63.3 0 18 7.5 34.2 19.5 45.7.4.4 41.8 41.9 71 71h99.1c19.6 0 35.4-15.8 35.4-35.4v-9c-34.4-34.6-115.5-115.6-116-116.1z" fill="url(#SVGID_45_)"/><g><g><circle cx="161.7" cy="320" fill="url(#SVGID_46_)" r="63.3"/><g><circle cx="161.7" cy="320" fill="url(#SVGID_47_)" r="63.3"/><circle cx="161.7" cy="320" fill="url(#SVGID_48_)" r="63.3"/></g></g><path d="m188.8 299.5c-1.6-1.6-4.2-1.6-5.8 0l-32.3 32.3-10.4-10.4c-1.6-1.6-4.2-1.6-5.8 0s-1.6 4.2 0 5.8l13.3 13.3c.8.8 1.8 1.2 2.9 1.2 1 0 2.1-.4 2.9-1.2l35.2-35.2c1.6-1.6 1.6-4.2 0-5.8z" fill="url(#SVGID_49_)"/></g></g></g></g></svg>