<svg id="Layer_1" enable-background="new 0 0 50 50" height="512" viewBox="0 0 50 50" width="512" xmlns="http://www.w3.org/2000/svg"><g><g><g enable-background="new"><path d="m39.2747 8.5181 4.9671 2.8866c-.8043-.4674-1.8397-.5371-2.9948-.1474l-4.9671-2.8866c1.1551-.3898 2.1905-.3201 2.9948.1474z" fill="#bfbfbf"/><path d="m38.6995 4.5838c-4.7919-2.7914-11.5954 3.9602-14.0107 10.1206l-4.9615-2.8892c1.5223-3.9189 4.3837-7.612 7.6678-9.5005 2.4808-1.4233 4.722-1.5644 6.3288-.6201z" fill="#e8e8e8"/><path d="m10.7263 40.2973-4.9671-2.8866c-1.06-.616-1.7177-1.9251-1.723-3.7846-.0105-3.6872 2.5907-8.2701 5.8844-10.1716l4.9671 2.8866c-3.2956 1.9027-5.8948 6.4862-5.8844 10.1716.0052 1.8595.663 3.1685 1.723 3.7846z" fill="#b0afb0"/><path d="m14.8876 26.341-4.9671-2.8866c.75-5.2276 5.3276-11.4776 9.8011-11.7283l4.9671 2.8866c-4.6122.2584-9.0704 6.6358-9.8011 11.7283z" fill="#bfbfbf"/><g><path d="m41.2891 10.1967c.001.3417-.016.7033-.042 1.0605 4.5466-1.5341 6.3252 3.9569 3.0022 9.7119-1.0675 1.8386-2.5412 3.4559-4.1701 4.3963l-25.1531 14.5222c-3.2577 1.8809-5.9122.3682-5.9228-3.375-.0105-3.6872 2.5907-8.2701 5.8844-10.1716.75-5.2276 5.3276-11.4776 9.8011-11.7283 4.5533-11.6598 16.5709-14.7816 16.6003-4.416z" fill="#d7d7d7"/></g></g></g><g><g enable-background="new"><g><path d="m32.1415 41.7924-1.9869-1.1546.0098 3.4431 1.9869 1.1546z" fill="#bfbfbf"/></g><path d="m39.5148 29.0208-1.9868-1.1546c.0133 4.6846-3.2966 10.418-7.3733 12.7716l1.9869 1.1547c4.0765-2.3537 7.3865-8.0871 7.3732-12.7717z" fill="#dd454d"/><g><path d="m42.5116 27.2906-1.9869-1.1546-2.9968 1.7302 1.9869 1.1546z" fill="#ef5a5a"/></g><g><path d="m39.5148 29.0208c.0133 4.6846-3.2966 10.418-7.3733 12.7716l.0098 3.443c5.7325-3.3097 10.379-11.3572 10.3603-17.9449z" fill="#bc2b3b"/></g></g><g enable-background="new"><g><path d="m32.1308 38.0279-1.9868-1.1546-6.41 9.2012 1.9868 1.1546z" fill="#ef5a5a"/></g><g><path d="m32.1308 38.0279-6.41 9.2012 6.4411 1.7709z" fill="#bc2b3b"/></g></g><g enable-background="new"><g><path d="m32.0933 24.7915-1.9869-1.1546.0121 4.2504 1.9868 1.1546z" fill="#2c3644"/></g><g><path d="m32.0835 21.3479-1.9868-1.1546.0097 3.4436 1.9869 1.1546z" fill="#bfbfbf"/></g><g><path d="m32.0742 18.0704-1.9868-1.1546.0093 3.2775 1.9868 1.1546z" fill="#2c3644"/></g><g><path d="m38.5063 19.846-1.9869-1.1547-6.432-1.7755 1.9868 1.1546z" fill="#475160"/></g><g><path d="m32.0742 18.0704.0093 3.2775.0098 3.4436.012 4.2504 6.401-9.1959z" fill="#39414d"/></g></g><g enable-background="new"><path d="m32.0792 21.3489c-5.73 3.3105-10.38 11.3604-10.36 17.9502l-1.99-1.1602c-.02-6.5796 4.63-14.6396 10.37-17.9497z" fill="#475160"/><g><path d="m32.0835 21.3479c-5.7326 3.3097-10.388 11.363-10.3693 17.9501l3.0058-1.7354c-.0133-4.684 3.2877-10.4122 7.3734-12.7711z" fill="#39414d"/></g></g></g></g></svg>