<svg id="svg84278" height="48" viewBox="0 0 12.7 12.7" width="48" xmlns="http://www.w3.org/2000/svg" xmlns:xlink="http://www.w3.org/1999/xlink" xmlns:svg="http://www.w3.org/2000/svg"><linearGradient id="linearGradient63812" gradientUnits="userSpaceOnUse" x1="9.57" x2="3.266" y1="9.348" y2="1.344"><stop id="stop63806" offset="0" stop-color="#3185fc"/><stop id="stop63808" offset="1" stop-color="#95c1ff"/></linearGradient><linearGradient id="linearGradient68200" gradientUnits="userSpaceOnUse" x1="9.267" x2="7.199" y1="3.291" y2="1.736"><stop id="stop68194" offset="0" stop-color="#e84855"/><stop id="stop68196" offset="1" stop-color="#f8a6ad"/></linearGradient><g id="layer1"><path id="path4384" d="m3.307031.265035c-.44914 0-.81836.36923-.81836.81836v8.8711c.00052.14541.11826.26315.26367.26367h5.14063v.42773c0 .98497.80404 1.78907 1.78906 1.78907.98503 0 1.78908-.8041 1.78906-1.78907v-.76171c0-2.9336 0-5.86719 0-8.80079 0-.44913-.36922-.81836-.81835-.81836z" fill="url(#linearGradient63812)"/><path id="path64021" d="m10.111871 1.577355c.0958.13107.15297.29225.15297.4656v1.32189c0 .43516-.35808.7953-.79324.7953h-2.11718c-.13533 0-.26349-.0346-.37569-.0956.14539.19763.37917.32712.64027.32712h2.11719c.43516 0 .79323-.36014.79323-.7953v-1.32189c0-.29958-.16989-.56236-.41755-.69711z" fill="#1674fc"/><path id="rect4524" d="m7.408591 1.270895c-.43516 0-.79492.35781-.79492.79297v1.32227c0 .43516.35976.79492.79492.79492h2.11719c.43516 0 .79297-.35976.79297-.79492v-1.32227c0-.43516-.35781-.79297-.79297-.79297z" fill="url(#linearGradient68200)"/><path id="path66338" d="m4.767391 2.493195c-.48581 0-.88281.40212-.88281.88867s.39701.89061.88281.89062h.61719c.19611 0 .35156.1571.35156.36133s-.15545.35938-.35156.35938h-1.23438a.2645835.2645835 0 0 0 -.26562.26562.2645835.2645835 0 0 0 .26562.26367h1.23438c.4858 0 .88085-.40212.88086-.88867 0-.48655-.39506-.89062-.88086-.89062h-.61719c-.19612-.00001-.35352-.1571-.35352-.36133s.15741-.36133.35352-.36133h1.23437a.2645835.2645835 0 0 0 .26368-.26367.2645835.2645835 0 0 0 -.26368-.26367z" fill="#1674fc"/><path id="path66340" d="m5.075981 1.458035a.2645835.2645835 0 0 0 -.26562.26367v1.03516a.2645835.2645835 0 0 0 .26562.26367.2645835.2645835 0 0 0 .26367-.26367v-1.03516a.2645835.2645835 0 0 0 -.26367-.26367zm0 3.53516a.2645835.2645835 0 0 0 -.26562.26562v.96094a.2645835.2645835 0 0 0 .26562.26563.2645835.2645835 0 0 0 .26367-.26563v-.96094a.2645835.2645835 0 0 0 -.26367-.26562z" fill="#1674fc"/><path id="path4388" d="m4.498441 2.329495c-.48581 0-.88281.40212-.88281.88867s.39701.89061.88281.89062h.61719c.19611 0 .35156.1571.35156.36133s-.15545.35938-.35156.35938h-1.23438a.2645835.2645835 0 0 0 -.26562.26562.2645835.2645835 0 0 0 .26562.26367h1.23438c.4858 0 .88085-.40212.88086-.88867 0-.48655-.39506-.89062-.88086-.89062h-.61719c-.19612-.00001-.35352-.1571-.35352-.36133s.15741-.36133.35352-.36133h1.23437a.2645835.2645835 0 0 0 .26368-.26367.2645835.2645835 0 0 0 -.26368-.26367z" fill="#f9dc5c"/><path id="path4390" d="m4.807031 1.294335a.2645835.2645835 0 0 0 -.26562.26367v1.03516a.2645835.2645835 0 0 0 .26562.26367.2645835.2645835 0 0 0 .26367-.26367v-1.03516a.2645835.2645835 0 0 0 -.26367-.26367zm0 3.53516a.2645835.2645835 0 0 0 -.26562.26562v.96094a.2645835.2645835 0 0 0 .26562.26563.2645835.2645835 0 0 0 .26367-.26563v-.96094a.2645835.2645835 0 0 0 -.26367-.26562z" fill="#f9dc5c"/><path id="path64831" d="m7.089771 4.991475a.2645835.2645835 0 0 0 -.26563.26367.2645835.2645835 0 0 0 .26563.26562h3.17578a.2645835.2645835 0 0 0 .26367-.26562.2645835.2645835 0 0 0 -.26367-.26367z" fill="#1674fc"/><path id="path4526" d="m6.879301 4.710355a.2645835.2645835 0 0 0 -.26563.26367.2645835.2645835 0 0 0 .26563.26562h3.17578a.2645835.2645835 0 0 0 .26367-.26562.2645835.2645835 0 0 0 -.26367-.26367z" fill="#f9dc5c"/><path id="path64833" d="m7.089771 6.050065a.2645835.2645835 0 0 0 -.26563.26367.2645835.2645835 0 0 0 .26563.26563h3.17578a.2645835.2645835 0 0 0 .26367-.26563.2645835.2645835 0 0 0 -.26367-.26367z" fill="#1674fc"/><path id="path4528" d="m6.879301 5.768945a.2645835.2645835 0 0 0 -.26563.26367.2645835.2645835 0 0 0 .26563.26563h3.17578a.2645835.2645835 0 0 0 .26367-.26563.2645835.2645835 0 0 0 -.26367-.26367z" fill="#f9dc5c"/><path id="path64835" d="m4.179611 7.106705a.2645835.2645835 0 0 0 -.26562.26563.2645835.2645835 0 0 0 .26562.26367h6.08594a.2645835.2645835 0 0 0 .26367-.26367.2645835.2645835 0 0 0 -.26367-.26563z" fill="#1674fc"/><path id="path4530" d="m3.969141 6.825585a.2645835.2645835 0 0 0 -.26562.26563.2645835.2645835 0 0 0 .26562.26367h6.08594a.2645835.2645835 0 0 0 .26367-.26367.2645835.2645835 0 0 0 -.26367-.26563z" fill="#f9dc5c"/><path id="path64837" d="m4.179611 8.165305a.2645835.2645835 0 0 0 -.26562.26562.2645835.2645835 0 0 0 .26562.26367h6.08594a.2645835.2645835 0 0 0 .26367-.26367.2645835.2645835 0 0 0 -.26367-.26562z" fill="#1674fc"/><path id="path4532" d="m3.969141 7.884185a.2645835.2645835 0 0 0 -.26562.26562.2645835.2645835 0 0 0 .26562.26367h6.08594a.2645835.2645835 0 0 0 .26367-.26367.2645835.2645835 0 0 0 -.26367-.26562z" fill="#f9dc5c"/><path id="path4386" d="m1.492581 9.688865c-.14617.00052-.26423.11946-.26367.26563v.6914c0 .98492.80404 1.78907 1.78906 1.78907h6.66406c-1.32188-.33948-1.68612-1.19164-1.56378-2.48062.00056-.14618-.1175-.26512-.26368-.26563h-5.10223z" fill="#0457cf"/><path id="path69901" d="m7.177871 1.908805a.13229166.13229166 0 0 0 -.13086.13281v1.125a.13229166.13229166 0 0 0 .13086.13281.13229166.13229166 0 0 0 .13281-.13281v-1.125a.13229166.13229166 0 0 0 -.13281-.13281z" fill="#fff"/></g></svg>