<svg viewBox="0 0 24 24" xmlns="http://www.w3.org/2000/svg"><g fill="#90a7b2"><path d="m12.9966.241211c-1.5381 0-2.8847.907429-3.45714 2.22413 1.31284.81229 2.20714 2.23957 2.20714 3.91683 0 .3084-.0303.60835-.0878.89758.4171.15478.8685.23924 1.3378.23924 2.0441 0 3.75-1.60276 3.75-3.63889s-1.7059-3.63889-3.75-3.63889z"/><path d="m18.2466 14.7412h-3.5v-1.7111c0-.8377-.4574-1.5801-1.1487-1.978-1.0436-.6008-2.1528-1.0475-3.2941-1.34.5306-.50044.9443-1.12243 1.1901-1.82684 2.5971-.31839 5.2786.19207 7.6051 1.5314.3929.22618.6476.64464.6476 1.11134v2.741c0 .8395-.6985 1.4722-1.5 1.4722z"/><path d="m3.24658 6.38217c0-2.03612 1.70586-3.63888 3.75-3.63888s3.75002 1.60276 3.75002 3.63888c0 2.03613-1.70588 3.63893-3.75002 3.63893s-3.75-1.6028-3.75-3.63893z"/><path d="m.894156 11.9187c3.7593-2.16414 8.44555-2.16414 12.2048 0 .3929.2262.6476.6447.6476 1.1114v2.741c0 .8395-.6985 1.4722-1.5 1.4722h-10.5c-.801495 0-1.5-.6327-1.5-1.4722v-2.741c0-.4667.254688-.8852.647574-1.1114z"/></g><g fill-rule="evenodd"><path d="m16 17.25c-.4142 0-.75.3358-.75.75v3.5c0 .2841.1605.5438.4146.6708l3 1.5c.2111.1056.4597.1056.6708 0l3-1.5c.2541-.127.4146-.3867.4146-.6708v-3.5c0-.4142-.3358-.75-.75-.75z" fill="#1e81d0"/><g fill="#2196f3"><path d="m19.2633 15.2978c-.1697-.0637-.3569-.0637-.5266 0l-4 1.5c-.2928.1097-.4867.3896-.4867.7022s.1939.5925.4867.7022l4 1.5c.1697.0637.3569.0637.5266 0l4-1.5c.2928-.1097.4867-.3896.4867-.7022s-.1939-.5925-.4867-.7022z"/><path d="m6.93235 17.25h-5.18577c-.801495 0-1.5-.6327-1.5-1.4723v-2.741c0-.4667.254688-.8851.647574-1.1113 1.86059-1.0711 3.94824-1.6121 6.03819-1.623v6.9476zm0-7.2228c-2.01551-.03314-3.68577-1.62358-3.68577-3.63835s1.67026-3.60521 3.68577-3.63836z" fill="#7e97a3"/><path d="m12.9482 7.80236v2.90644c-.85-.4274-1.7371-.75744-2.6445-.99004.53-.49993.9434-1.12115 1.1893-1.82467.4831-.05926.9691-.08983 1.4552-.09173zm0-7.55212v7.27719c-.4521-.00558-.887-.08953-1.2899-.23909.0578-.28982.0881-.59042.0881-.8995 0-1.67697-.8939-3.10403-2.20636-3.9164.56686-1.30204 1.89086-2.20347 3.40816-2.2222z" fill="#7e97a3"/><path d="m19 17.25v6.5c-.1149 0-.2298-.0264-.3354-.0792l-3-1.5c-.2541-.127-.4146-.3867-.4146-.6708v-3.5c0-.4142.3358-.75.75-.75z" fill="#1867a7"/><path d="m19 15.25v4.5c-.0892 0-.1784-.0159-.2633-.0478l-4-1.5c-.2928-.1097-.4867-.3896-.4867-.7022s.1939-.5925.4867-.7022l4-1.5c.0849-.0319.1741-.0478.2633-.0478z" fill="#1e81d0"/></g></g></svg>