<svg id="Layer_1" height="512" viewBox="0 0 64 64" width="512" xmlns="http://www.w3.org/2000/svg" data-name="Layer 1"><circle cx="32" cy="32" fill="#7f754a" r="29"/><circle cx="32" cy="32" fill="#e5e5e5" r="25"/><path d="m13 32a25 25 0 0 1 22-24.81 24.65 24.65 0 0 0 -3-.19 25 25 0 0 0 0 50 24.65 24.65 0 0 0 3-.19 25 25 0 0 1 -22-24.81z" fill="#bababa"/><path d="m40.42 46.21a17.12 17.12 0 0 1 -4.32 1.79 4.13 4.13 0 0 0 -8.2 0 17.12 17.12 0 0 1 -4.32-1.79 4.13 4.13 0 0 0 -5.79-5.79 17.12 17.12 0 0 1 -1.79-4.32 4.13 4.13 0 0 0 0-8.2 17.12 17.12 0 0 1 1.79-4.32 4.13 4.13 0 0 0 5.79-5.79 17.12 17.12 0 0 1 4.32-1.79 4.13 4.13 0 0 0 8.2 0 17.12 17.12 0 0 1 4.32 1.79 4.13 4.13 0 0 0 5.79 5.79 17.12 17.12 0 0 1 1.79 4.32 4.13 4.13 0 0 0 0 8.2 17.12 17.12 0 0 1 -1.79 4.32 4.13 4.13 0 0 0 -5.79 5.79z" fill="#c6b87d"/><path d="m44.38 32a4.14 4.14 0 0 1 3.62-4.1 17.12 17.12 0 0 0 -1.79-4.32 4.13 4.13 0 0 1 -5.79-5.79 17.12 17.12 0 0 0 -4.32-1.79 4.14 4.14 0 0 1 -4.1 3.62v24.76a4.14 4.14 0 0 1 4.1 3.62 17.12 17.12 0 0 0 4.32-1.79 4.13 4.13 0 0 1 5.79-5.79 17.12 17.12 0 0 0 1.79-4.32 4.14 4.14 0 0 1 -3.62-4.1z" fill="#a59965"/><circle cx="32" cy="32" fill="#60676d" r="8"/><path d="m32 32h29a28.91 28.91 0 0 1 -8.49 20.51l-20.51-20.51v-29a28.91 28.91 0 0 1 20.51 8.49z" fill="#4a8cdd"/><path d="m61 32a28.91 28.91 0 0 0 -8.49-20.51l-20.51 20.51z" fill="#356baa"/><g fill="#f7f7f7"><ellipse cx="12.16" cy="20.15" rx="2.54" ry="1.24" transform="matrix(.614 -.79 .79 .614 -11.21 17.39)"/><circle cx="10.61" cy="23.86" r="1"/></g></svg>