<svg id="icons" height="512" viewBox="0 0 60 60" width="512" xmlns="http://www.w3.org/2000/svg"><path d="m29.883 15.464-1.813-.846-6.708 14.382h-6.363v2h6.366l6.729 14.412 1.812-.846-6.802-14.569z" fill="#ccd3e2"/><path d="m37 10h8v2h-8z" fill="#ccd3e2"/><path d="m16.98 25.78a.61.61 0 0 0 -.29-.41l-7.36-4.28a.65.65 0 0 0 -.66 0l-7.36 4.28a.61.61 0 0 0 -.29.41.254.254 0 0 0 -.02.12v8.2a.614.614 0 0 0 .31.53l7.36 4.28a.65.65 0 0 0 .66 0l7.36-4.28a.614.614 0 0 0 .31-.53v-8.2a.254.254 0 0 0 -.02-.12z" fill="#3560d8"/><path d="m9 30.31v8.69a.629.629 0 0 1 -.33-.09l-7.36-4.28a.614.614 0 0 1 -.31-.53v-8.2a.254.254 0 0 1 .02-.12l7.63 4.44a.73.73 0 0 0 .35.09z" fill="#2751af"/><path d="m17 25.9v8.2a.614.614 0 0 1 -.31.53l-7.36 4.28a.629.629 0 0 1 -.33.09v-8.69a.73.73 0 0 0 .35-.09l7.63-4.44a.254.254 0 0 1 .02.12z" fill="#1a4187"/><path d="m38.98 5.78a.61.61 0 0 0 -.29-.41l-7.36-4.28a.65.65 0 0 0 -.66 0l-7.36 4.28a.61.61 0 0 0 -.29.41.254.254 0 0 0 -.02.12v8.2a.614.614 0 0 0 .31.53l7.36 4.28a.65.65 0 0 0 .66 0l7.36-4.28a.614.614 0 0 0 .31-.53v-8.2a.254.254 0 0 0 -.02-.12z" fill="#3560d8"/><path d="m31 10.31v8.69a.629.629 0 0 1 -.33-.09l-7.36-4.28a.614.614 0 0 1 -.31-.53v-8.2a.254.254 0 0 1 .02-.12l7.63 4.44a.73.73 0 0 0 .35.09z" fill="#2751af"/><path d="m39 5.9v8.2a.614.614 0 0 1 -.31.53l-7.36 4.28a.629.629 0 0 1 -.33.09v-8.69a.73.73 0 0 0 .35-.09l7.63-4.44a.254.254 0 0 1 .02.12z" fill="#1a4187"/><path d="m38.98 45.78a.61.61 0 0 0 -.29-.41l-7.36-4.28a.65.65 0 0 0 -.66 0l-7.36 4.28a.61.61 0 0 0 -.29.41.254.254 0 0 0 -.02.12v8.2a.614.614 0 0 0 .31.53l7.36 4.28a.65.65 0 0 0 .66 0l7.36-4.28a.614.614 0 0 0 .31-.53v-8.2a.254.254 0 0 0 -.02-.12z" fill="#3560d8"/><path d="m31 50.31v8.69a.629.629 0 0 1 -.33-.09l-7.36-4.28a.614.614 0 0 1 -.31-.53v-8.2a.254.254 0 0 1 .02-.12l7.63 4.44a.73.73 0 0 0 .35.09z" fill="#2751af"/><path d="m39 45.9v8.2a.614.614 0 0 1 -.31.53l-7.36 4.28a.629.629 0 0 1 -.33.09v-8.69a.73.73 0 0 0 .35-.09l7.63-4.44a.254.254 0 0 1 .02.12z" fill="#1a4187"/><path d="m58.98 5.78a.61.61 0 0 0 -.29-.41l-7.36-4.28a.65.65 0 0 0 -.66 0l-7.36 4.28a.61.61 0 0 0 -.29.41.254.254 0 0 0 -.02.12v8.2a.614.614 0 0 0 .31.53l7.36 4.28a.65.65 0 0 0 .66 0l7.36-4.28a.614.614 0 0 0 .31-.53v-8.2a.254.254 0 0 0 -.02-.12z" fill="#3560d8"/><path d="m51 10.31v8.69a.629.629 0 0 1 -.33-.09l-7.36-4.28a.614.614 0 0 1 -.31-.53v-8.2a.254.254 0 0 1 .02-.12l7.63 4.44a.73.73 0 0 0 .35.09z" fill="#2751af"/><path d="m59 5.9v8.2a.614.614 0 0 1 -.31.53l-7.36 4.28a.629.629 0 0 1 -.33.09v-8.69a.73.73 0 0 0 .35-.09l7.63-4.44a.254.254 0 0 1 .02.12z" fill="#1a4187"/></svg>