<svg id="Capa_1" enable-background="new 0 0 512 512" height="512" viewBox="0 0 512 512" width="512" xmlns="http://www.w3.org/2000/svg"><g><path d="m189.971 349.237c1.307 2.264 2.029 4.866 2.029 7.57v93.368c0 5.409-2.886 10.407-7.57 13.112l-80.859 46.684c-2.343 1.353-4.957 2.029-7.571 2.029l-17.616-123.072z" fill="#68ca44"/><path d="m96 403.491-48.97-14.563-45.002-39.691c1.307-2.264 3.199-4.19 5.542-5.542l80.86-46.685c4.684-2.705 10.456-2.705 15.14 0l80.859 46.684c2.342 1.352 4.235 3.278 5.542 5.542z" fill="#97da7b"/><path d="m96 512c-2.614 0-5.228-.676-7.57-2.028l-80.86-46.685c-4.684-2.704-7.57-7.702-7.57-13.112v-93.368c0-2.705.722-5.306 2.028-7.57l93.972 54.254z" fill="#80d261"/><path d="m509.971 349.237c1.307 2.264 2.029 4.866 2.029 7.57v93.368c0 5.409-2.886 10.407-7.57 13.112l-80.859 46.684c-2.342 1.352-4.956 2.028-7.57 2.028l-17.616-123.072z" fill="#ca2e43"/><path d="m416 403.491-48.97-14.563-45.002-39.692c1.307-2.264 3.199-4.19 5.542-5.542l80.859-46.684c4.684-2.705 10.456-2.705 15.141 0l80.859 46.684c2.342 1.352 4.235 3.278 5.542 5.542z" fill="#e53950"/><path d="m416 512c-2.614 0-5.228-.676-7.57-2.028l-80.859-46.684c-4.684-2.705-7.57-7.703-7.57-13.112v-93.368c0-2.705.722-5.306 2.028-7.57l93.971 54.253z" fill="#e53950"/><path d="m189.971 349.237c1.307 2.264 2.029 4.866 2.029 7.57v93.368c0 5.409-2.886 10.407-7.57 13.112l-80.859 46.684c-2.343 1.353-4.957 2.029-7.571 2.029l-17.616-123.072z" fill="#68ca44"/><path d="m189.971 349.237-39.179 13.936v41.02c0 21.114-11.264 40.624-29.55 51.181l-30.802 17.784 5.56 38.842c2.614 0 5.228-.676 7.57-2.028l80.86-46.684c4.684-2.705 7.57-7.703 7.57-13.112v-93.368c0-2.706-.721-5.307-2.029-7.571z" fill="#4fc123"/><path d="m96 403.491-48.97-14.563-45.002-39.691c1.307-2.264 3.199-4.19 5.542-5.542l80.86-46.685c4.684-2.705 10.456-2.705 15.14 0l80.859 46.684c2.342 1.352 4.235 3.278 5.542 5.542z" fill="#97da7b"/><path d="m189.971 349.237c-1.307-2.264-3.199-4.19-5.542-5.542l-33.637-19.42v47.582z" fill="#80d261"/><path d="m96 512c-2.614 0-5.228-.676-7.57-2.028l-80.86-46.685c-4.684-2.704-7.57-7.702-7.57-13.112v-93.368c0-2.705.722-5.306 2.028-7.57l93.972 54.254z" fill="#80d261"/><path d="m62.363 489.368c-1.936 1.118-4.059 1.773-6.213 1.967l32.28 18.637c2.342 1.352 4.956 2.028 7.57 2.028v-42.052z" fill="#68ca44"/><path d="m509.971 349.237c1.307 2.264 2.029 4.866 2.029 7.57v93.368c0 5.409-2.886 10.407-7.57 13.112l-80.859 46.684c-2.342 1.352-4.956 2.028-7.57 2.028l-17.616-123.072z" fill="#ca2e43"/><path d="m509.971 349.237-39.179 13.936v41.02c0 21.114-11.264 40.624-29.55 51.181l-30.803 17.784 5.561 38.842c2.614 0 5.228-.676 7.57-2.028l80.86-46.684c4.684-2.705 7.57-7.703 7.57-13.112v-93.368c0-2.706-.722-5.307-2.029-7.571z" fill="#ac2638"/><path d="m416 403.491-48.97-14.563-45.002-39.692c1.307-2.264 3.199-4.19 5.542-5.542l80.859-46.684c4.684-2.705 10.456-2.705 15.141 0l80.859 46.684c2.342 1.352 4.235 3.278 5.542 5.542z" fill="#eb5569"/><path d="m509.971 349.237c-1.307-2.264-3.199-4.19-5.542-5.542l-33.637-19.42v47.582z" fill="#e53950"/><path d="m416 512c-2.614 0-5.228-.676-7.57-2.028l-80.859-46.684c-4.684-2.705-7.57-7.703-7.57-13.112v-93.368c0-2.705.722-5.306 2.028-7.57l93.971 54.253z" fill="#e53950"/><path d="m382.363 489.368c-1.936 1.118-4.059 1.773-6.213 1.967l32.28 18.637c2.342 1.352 4.956 2.028 7.57 2.028v-42.052z" fill="#ca2e43"/><circle cx="256" cy="256" fill="#ffc344" r="80"/><path d="m269.642 177.158c15.484 14.589 25.151 35.284 25.151 58.238 0 44.183-35.817 80-80 80-4.651 0-9.208-.397-13.642-1.158 14.322 13.493 33.62 21.762 54.849 21.762 44.183 0 80-35.817 80-80 0-39.532-28.674-72.367-66.358-78.842z" fill="#feb237"/><path d="m96.469 327.5h-.938c-12.699 0-23.031-10.332-23.031-23.031v-16.938c0-12.7 10.332-23.031 23.031-23.031h.938c12.699 0 23.031 10.332 23.031 23.031v16.938c0 12.699-10.332 23.031-23.031 23.031zm-.938-48c-4.429 0-8.031 3.603-8.031 8.031v16.938c0 4.428 3.603 8.031 8.031 8.031h.938c4.429 0 8.031-3.603 8.031-8.031v-16.938c0-4.428-3.603-8.031-8.031-8.031z" fill="#82aee3"/><path d="m96 343.5c-4.143 0-7.5-3.358-7.5-7.5v-16c0-4.142 3.357-7.5 7.5-7.5s7.5 3.358 7.5 7.5v16c0 4.142-3.357 7.5-7.5 7.5z" fill="#b2caec"/><path d="m96.469 247.5h-.938c-12.699 0-23.031-10.332-23.031-23.031v-16.938c0-12.7 10.332-23.031 23.031-23.031h.938c12.699 0 23.031 10.332 23.031 23.031v16.938c0 12.699-10.332 23.031-23.031 23.031zm-.938-48c-4.429 0-8.031 3.603-8.031 8.031v16.938c0 4.428 3.603 8.031 8.031 8.031h.938c4.429 0 8.031-3.603 8.031-8.031v-16.938c0-4.428-3.603-8.031-8.031-8.031z" fill="#82aee3"/><path d="m96 279.5c-4.143 0-7.5-3.358-7.5-7.5v-32c0-4.142 3.357-7.5 7.5-7.5s7.5 3.358 7.5 7.5v32c0 4.142-3.357 7.5-7.5 7.5z" fill="#b2caec"/><path d="m304.469 439.5h-16.938c-12.699 0-23.031-10.332-23.031-23.031v-.938c0-12.7 10.332-23.031 23.031-23.031h16.938c12.699 0 23.031 10.332 23.031 23.031v.938c0 12.699-10.332 23.031-23.031 23.031zm-16.938-32c-4.429 0-8.031 3.603-8.031 8.031v.938c0 4.428 3.603 8.031 8.031 8.031h16.938c4.429 0 8.031-3.603 8.031-8.031v-.938c0-4.428-3.603-8.031-8.031-8.031z" fill="#82aee3"/><path d="m224.469 439.5h-16.938c-12.699 0-23.031-10.332-23.031-23.031v-.938c0-12.7 10.332-23.031 23.031-23.031h16.938c12.699 0 23.031 10.332 23.031 23.031v.938c0 12.699-10.332 23.031-23.031 23.031zm-16.938-32c-4.429 0-8.031 3.603-8.031 8.031v.938c0 4.428 3.603 8.031 8.031 8.031h16.938c4.429 0 8.031-3.603 8.031-8.031v-.938c0-4.428-3.603-8.031-8.031-8.031z" fill="#82aee3"/><g fill="#b2caec"><path d="m272 423.5h-32c-4.143 0-7.5-3.358-7.5-7.5s3.357-7.5 7.5-7.5h32c4.143 0 7.5 3.358 7.5 7.5s-3.357 7.5-7.5 7.5z"/><path d="m352 423.5h-32c-4.143 0-7.5-3.358-7.5-7.5s3.357-7.5 7.5-7.5h32c4.143 0 7.5 3.358 7.5 7.5s-3.357 7.5-7.5 7.5z"/><path d="m192 423.5h-32c-4.143 0-7.5-3.358-7.5-7.5s3.357-7.5 7.5-7.5h32c4.143 0 7.5 3.358 7.5 7.5s-3.357 7.5-7.5 7.5z"/></g><path d="m416.469 327.5h-.938c-12.699 0-23.031-10.332-23.031-23.031v-16.938c0-12.7 10.332-23.031 23.031-23.031h.938c12.699 0 23.031 10.332 23.031 23.031v16.938c0 12.699-10.332 23.031-23.031 23.031zm-.938-48c-4.429 0-8.031 3.603-8.031 8.031v16.938c0 4.428 3.603 8.031 8.031 8.031h.938c4.429 0 8.031-3.603 8.031-8.031v-16.938c0-4.428-3.603-8.031-8.031-8.031z" fill="#82aee3"/><path d="m416.469 247.5h-.938c-12.699 0-23.031-10.332-23.031-23.031v-16.938c0-12.7 10.332-23.031 23.031-23.031h.938c12.699 0 23.031 10.332 23.031 23.031v16.938c0 12.699-10.332 23.031-23.031 23.031zm-.938-48c-4.429 0-8.031 3.603-8.031 8.031v16.938c0 4.428 3.603 8.031 8.031 8.031h.938c4.429 0 8.031-3.603 8.031-8.031v-16.938c0-4.428-3.603-8.031-8.031-8.031z" fill="#82aee3"/><path d="m416 343.5c-4.143 0-7.5-3.358-7.5-7.5v-16c0-4.142 3.357-7.5 7.5-7.5s7.5 3.358 7.5 7.5v16c0 4.142-3.357 7.5-7.5 7.5z" fill="#b2caec"/><path d="m416 279.5c-4.143 0-7.5-3.358-7.5-7.5v-32c0-4.142 3.357-7.5 7.5-7.5s7.5 3.358 7.5 7.5v32c0 4.142-3.357 7.5-7.5 7.5z" fill="#b2caec"/><path d="m291.5 239.531c0-12.7-10.332-23.031-23.031-23.031h-4.969v-8.5c0-4.142-3.357-7.5-7.5-7.5s-7.5 3.358-7.5 7.5v8.5h-20.5c-4.143 0-7.5 3.358-7.5 7.5s3.357 7.5 7.5 7.5h8.5v49h-8.5c-4.143 0-7.5 3.358-7.5 7.5s3.357 7.5 7.5 7.5h20.5v8.5c0 4.142 3.357 7.5 7.5 7.5s7.5-3.358 7.5-7.5v-8.5h4.969c12.699 0 23.031-10.332 23.031-23.031v-.938c0-5.979-2.29-11.433-6.04-15.531 3.749-4.098 6.04-9.552 6.04-15.531zm-15 0v.938c0 4.428-3.603 8.031-8.031 8.031h-16.969v-17h16.969c4.428 0 8.031 3.603 8.031 8.031zm0 32.938c0 4.428-3.603 8.031-8.031 8.031h-16.969v-17h16.969c4.429 0 8.031 3.603 8.031 8.031z" fill="#fff3be"/><g fill="#fff0ad"><path d="m267.591 295.5h.878c12.699 0 23.031-10.332 23.031-23.031v-.938c0-2.992-.574-5.853-1.617-8.479-4.648 12.616-12.384 23.738-22.292 32.448z"/><path d="m256 311.5c4.143 0 7.5-3.358 7.5-7.5v-5.135c-4.369 3.358-9.094 6.274-14.109 8.684 1.265 2.352 3.75 3.951 6.609 3.951z"/></g><path d="m189.971 54.255c1.307 2.264 2.029 4.866 2.029 7.57v93.368c0 5.409-2.886 10.407-7.57 13.112l-80.859 46.684c-2.342 1.352-4.956 2.028-7.57 2.028l-17.617-123.071z" fill="#08a9f1"/><path d="m189.971 54.255-39.178 13.935v41.02c0 21.114-11.264 40.624-29.55 51.181l-30.803 17.785 5.56 38.842c2.614 0 5.228-.676 7.57-2.028l80.86-46.684c4.684-2.705 7.57-7.703 7.57-13.112v-93.369c0-2.705-.722-5.307-2.029-7.57z" fill="#0290cf"/><path d="m96 108.509-48.97-14.563-45.002-39.691c1.307-2.264 3.199-4.19 5.542-5.542l80.86-46.685c4.684-2.705 10.456-2.705 15.14 0l80.859 46.684c2.342 1.352 4.235 3.278 5.542 5.542z" fill="#01d0fb"/><path d="m96 217.018c-2.614 0-5.228-.676-7.57-2.028l-80.86-46.685c-4.684-2.704-7.57-7.703-7.57-13.112v-93.368c0-2.705.722-5.306 2.028-7.57l93.972 54.254z" fill="#01c0fa"/><path d="m62.363 194.386c-1.936 1.118-4.059 1.773-6.213 1.967l32.28 18.637c2.342 1.352 4.956 2.028 7.57 2.028v-42.052z" fill="#08a9f1"/><path d="m509.971 54.255c1.307 2.264 2.029 4.866 2.029 7.57v93.368c0 5.409-2.886 10.407-7.57 13.112l-80.859 46.684c-2.342 1.352-4.956 2.028-7.57 2.028l-17.617-123.071z" fill="#fd5426"/><path d="m416 108.509-48.97-14.563-45.002-39.692c1.307-2.264 3.199-4.19 5.542-5.542l80.86-46.684c4.684-2.705 10.456-2.705 15.141 0l80.859 46.684c2.342 1.352 4.235 3.278 5.542 5.542z" fill="#fe7d43"/><path d="m416 217.018c-2.614 0-5.228-.676-7.57-2.028l-80.859-46.684c-4.684-2.705-7.57-7.703-7.57-13.112v-93.369c0-2.705.722-5.306 2.028-7.57l93.971 54.254z" fill="#fd6930"/><path d="m189.971 54.255c-1.307-2.264-3.199-4.19-5.541-5.542l-33.637-19.42v47.582z" fill="#01c0fa"/><path d="m509.971 54.255c1.307 2.264 2.029 4.866 2.029 7.57v93.368c0 5.409-2.886 10.407-7.57 13.112l-80.859 46.684c-2.342 1.352-4.956 2.028-7.57 2.028l-17.617-123.071z" fill="#fd5426"/><path d="m509.971 54.255-39.178 13.935v41.02c0 21.114-11.264 40.624-29.55 51.181l-30.803 17.784 5.56 38.842c2.614 0 5.228-.676 7.57-2.028l80.86-46.684c4.684-2.705 7.57-7.703 7.57-13.112v-93.368c0-2.705-.722-5.307-2.029-7.57z" fill="#ef4424"/><path d="m416 108.509-48.97-14.563-45.002-39.692c1.307-2.264 3.199-4.19 5.542-5.542l80.86-46.684c4.684-2.705 10.456-2.705 15.141 0l80.859 46.684c2.342 1.352 4.235 3.278 5.542 5.542z" fill="#fe7d43"/><path d="m509.971 54.255c-1.307-2.264-3.199-4.19-5.541-5.542l-33.637-19.42v47.582z" fill="#fd6930"/><path d="m416 217.018c-2.614 0-5.228-.676-7.57-2.028l-80.859-46.684c-4.684-2.705-7.57-7.703-7.57-13.112v-93.369c0-2.705.722-5.306 2.028-7.57l93.971 54.254z" fill="#fd6930"/><path d="m382.363 194.386c-1.936 1.118-4.059 1.773-6.213 1.967l32.28 18.637c2.342 1.352 4.956 2.028 7.57 2.028v-42.052z" fill="#fd5426"/><path d="m224.469 135.5h-16.938c-12.699 0-23.031-10.332-23.031-23.031v-.938c0-12.7 10.332-23.031 23.031-23.031h16.938c12.699 0 23.031 10.332 23.031 23.031v.938c0 12.699-10.332 23.031-23.031 23.031zm-16.938-32c-4.429 0-8.031 3.603-8.031 8.031v.938c0 4.428 3.603 8.031 8.031 8.031h16.938c4.429 0 8.031-3.603 8.031-8.031v-.938c0-4.428-3.603-8.031-8.031-8.031z" fill="#82aee3"/><path d="m304.469 135.5h-16.938c-12.699 0-23.031-10.332-23.031-23.031v-.938c0-12.7 10.332-23.031 23.031-23.031h16.938c12.699 0 23.031 10.332 23.031 23.031v.938c0 12.699-10.332 23.031-23.031 23.031zm-16.938-32c-4.429 0-8.031 3.603-8.031 8.031v.938c0 4.428 3.603 8.031 8.031 8.031h16.938c4.429 0 8.031-3.603 8.031-8.031v-.938c0-4.428-3.603-8.031-8.031-8.031z" fill="#82aee3"/><path d="m272 119.5h-32c-4.143 0-7.5-3.358-7.5-7.5s3.357-7.5 7.5-7.5h32c4.143 0 7.5 3.358 7.5 7.5s-3.357 7.5-7.5 7.5z" fill="#b2caec"/><path d="m192 119.5h-32c-4.143 0-7.5-3.358-7.5-7.5s3.357-7.5 7.5-7.5h32c4.143 0 7.5 3.358 7.5 7.5s-3.357 7.5-7.5 7.5z" fill="#b2caec"/><path d="m352 119.5h-32c-4.143 0-7.5-3.358-7.5-7.5s3.357-7.5 7.5-7.5h32c4.143 0 7.5 3.358 7.5 7.5s-3.357 7.5-7.5 7.5z" fill="#b2caec"/></g></svg>