<svg height="512" viewBox="0 0 64 64" width="512" xmlns="http://www.w3.org/2000/svg"><g id="Layer_32" data-name="Layer 32"><path d="m62 37.89a3.519 3.519 0 0 1 -1.86 3.1l-26.38 14.07a7.93 7.93 0 0 1 -3.75.94 8.028 8.028 0 0 1 -3.78-.95l-21.59-11.63a5 5 0 0 1 -2.64-4.42v-12a4.942 4.942 0 0 1 2.67-4.38l27.48-14.18a3.933 3.933 0 0 1 1.81-.44h.08a4 4 0 0 1 1.82.44l24.37 12.64a3.289 3.289 0 0 1 -.01 5.84l-1.22.63v6.45l1.43.95a3.546 3.546 0 0 1 1.57 2.94z" fill="#e73844"/><path d="m60.43 34.95-1.43-.95v-6.45l1.22-.63a3.289 3.289 0 0 0 .01-5.84l-22.622-11.733a3.974 3.974 0 0 0 -1.568-.347h-.08a3.933 3.933 0 0 0 -1.81.44l-27.48 14.18a4.942 4.942 0 0 0 -2.67 4.38v12a5 5 0 0 0 2.64 4.42l20.509 11.048a8.015 8.015 0 0 0 2.861.532 7.93 7.93 0 0 0 3.75-.94l26.38-14.07a3.525 3.525 0 0 0 .29-6.04z" fill="#ff4d55"/><path d="m59 27.55v9.45l-27.12 13.56a4.154 4.154 0 0 1 -3.78-.03l-22.1-11.53v-10l22.09 12.49a4.052 4.052 0 0 0 1.95.51 3.933 3.933 0 0 0 1.81-.44z" fill="#c1cfe8"/><path d="m18 21 22 11-9 5-22-12z" fill="#c1cfe8"/><path d="m51.629 16.623-10.629 6.377h7l-1 5 12.049-7.53z" fill="#fbcf43"/><path d="m6 35.109 24.871 13.502.954-1.758-25.825-14.019z" fill="#95afd1"/><path d="m31.85 41.56a3.933 3.933 0 0 1 -1.81.44h-.04v9h.02a4.169 4.169 0 0 0 1.86-.44l27.12-13.56v-9.45z" fill="#d7e0ef"/><path d="m30 48.118 29-14.5v-2.236l-29 14.5z" fill="#a5badb"/><path d="m12 25 20.486 11.174 7.514-4.174-20.588-10.294z" fill="#d7e0ef"/></g></svg>