<svg id="Layer_2" height="512" viewBox="0 0 64 64" width="512" xmlns="http://www.w3.org/2000/svg" xmlns:xlink="http://www.w3.org/1999/xlink" data-name="Layer 2"><linearGradient id="linear-gradient" gradientUnits="userSpaceOnUse" x1="3" x2="59" y1="35.865" y2="35.865"><stop offset="0" stop-color="#ff3e51"/><stop offset="1" stop-color="#ff182c"/></linearGradient><linearGradient id="linear-gradient-2" gradientUnits="userSpaceOnUse" x1="15" x2="31" y1="38.228" y2="38.228"><stop offset="0" stop-color="#ff182c" stop-opacity="0"/><stop offset=".9814" stop-color="#ff182c"/></linearGradient><linearGradient id="linear-gradient-3" x1="31" xlink:href="#linear-gradient-2" y1="46" y2="56"/><linearGradient id="linear-gradient-4" gradientUnits="userSpaceOnUse" x1="7" x2="55" y1="32.557" y2="32.557"><stop offset="0" stop-color="#d3fffd"/><stop offset="1" stop-color="#9adffe"/></linearGradient><linearGradient id="linear-gradient-5" gradientUnits="userSpaceOnUse" x1="31" x2="31" y1="34" y2="55.999"><stop offset="0" stop-color="#6dc6ff" stop-opacity="0"/><stop offset="1" stop-color="#69c4ff"/></linearGradient><linearGradient id="linear-gradient-6" x1="17" xlink:href="#linear-gradient-5" y1="32.786" y2="32.786"/><linearGradient id="linear-gradient-7" gradientUnits="userSpaceOnUse" x1="16.766" x2="27.085" y1="18.841" y2="18.841"><stop offset="0" stop-color="#76cbff"/><stop offset="1" stop-color="#009bed"/></linearGradient><linearGradient id="linear-gradient-8" x1="21.036" x2="26.901" xlink:href="#linear-gradient-7" y1="24.772" y2="24.772"/><linearGradient id="linear-gradient-9" x1="16.639" x2="26.816" xlink:href="#linear-gradient-7" y1="28.673" y2="28.673"/><linearGradient id="linear-gradient-10" x1="20.735" x2="26.941" xlink:href="#linear-gradient-7" y1="34.698" y2="34.698"/><linearGradient id="linear-gradient-11" x1="16.638" x2="26.434" xlink:href="#linear-gradient-7" y1="38.472" y2="38.472"/><linearGradient id="linear-gradient-12" x1="54.282" x2="46.889" xlink:href="#linear-gradient-5" y1="29.361" y2="25.825"/><linearGradient id="linear-gradient-13" gradientUnits="userSpaceOnUse" x1="42" x2="49" y1="22.564" y2="22.564"><stop offset="0" stop-color="#52aef3"/><stop offset="1" stop-color="#0062c7"/></linearGradient><linearGradient id="linear-gradient-14" gradientUnits="userSpaceOnUse" x1="45.5" x2="45.5" y1="27" y2="36"><stop offset="0" stop-color="#0062c7" stop-opacity="0"/><stop offset="1" stop-color="#0062c7"/></linearGradient><path d="m58.5205 17.146a13.3479 13.3479 0 0 0 -4.3491-1.4 1.0054 1.0054 0 0 0 -.749.169l-22.4224 15.8599-22.4224-15.8603a1.0071 1.0071 0 0 0 -.749-.169 13.3479 13.3479 0 0 0 -4.3491 1.4 1 1 0 0 0 -.4795.8544v32a1 1 0 0 0 1.5205.854c.0415-.0259 4.2754-2.5264 13.1206-.9058a31.03 31.03 0 0 1 12.7193 5.82 1.0012 1.0012 0 0 0 1.28-.0005 30.9064 30.9064 0 0 1 12.7188-5.82c8.7627-1.6059 13.0825.8833 13.1206.9058a1 1 0 0 0 1.5202-.8535v-32a1 1 0 0 0 -.4795-.854z" fill="url(#linear-gradient)"/><path d="m15 49.5732c.8329.087 1.7055.2036 2.6411.375a31.03 31.03 0 0 1 12.7193 5.82.9962.9962 0 0 0 .6396.2318v-24.2251l-16-11.3175z" fill="url(#linear-gradient-2)"/><path d="m3 46v4a1 1 0 0 0 1.5205.854c.0415-.0259 4.2754-2.5264 13.1206-.9058a31.03 31.03 0 0 1 12.7193 5.82 1.0012 1.0012 0 0 0 1.28-.0005 30.9064 30.9064 0 0 1 12.7188-5.82c8.7627-1.6059 13.0825.8833 13.1206.9058a1 1 0 0 0 1.5202-.8535v-4z" fill="url(#linear-gradient-3)"/><path d="m54.2212 9.5605c-.2949-.0683-7.3057-1.6069-13.5894 1.47a21.7354 21.7354 0 0 0 -9.6318 9.4995 21.7354 21.7354 0 0 0 -9.6318-9.499c-6.2852-3.0774-13.295-1.5378-13.5894-1.4705a1 1 0 0 0 -.7788.9751v32a1.001 1.001 0 0 0 1.22.9756c.0659-.0146 6.6314-1.4443 12.2691 1.3155a19.9858 19.9858 0 0 1 9.5615 10.4878 1.0006 1.0006 0 0 0 1.8984 0 19.9858 19.9858 0 0 1 9.5615-10.4878c5.6382-2.76 12.2032-1.3316 12.2691-1.3155a1.001 1.001 0 0 0 1.2204-.9756v-32a1 1 0 0 0 -.7788-.9751z" fill="url(#linear-gradient-4)"/><path d="m7 34v8.5356a1.001 1.001 0 0 0 1.22.9756c.0659-.0146 6.6314-1.4443 12.2691 1.3155a19.9858 19.9858 0 0 1 9.5615 10.4878 1.0006 1.0006 0 0 0 1.8984 0 19.9858 19.9858 0 0 1 9.5615-10.4878c5.6382-2.76 12.2032-1.3316 12.2691-1.3155a1.001 1.001 0 0 0 1.2204-.9756v-8.5356z" fill="url(#linear-gradient-5)"/><path d="m21.3682 11.0308a18.1854 18.1854 0 0 0 -4.3682-1.4584v34.05a15.8484 15.8484 0 0 1 3.4893 1.2041 19.9858 19.9858 0 0 1 9.5615 10.4878 1 1 0 0 0 .9492.684v-35.4683a21.7354 21.7354 0 0 0 -9.6318-9.4992z" fill="url(#linear-gradient-6)"/><path d="m26.0859 22.6226a.9975.9975 0 0 1 -.747-.3345 19.0032 19.0032 0 0 0 -5.85-4.4614 15.3854 15.3854 0 0 0 -2.03-.815 1 1 0 1 1 .6133-1.9033 17.305 17.305 0 0 1 2.2954.9219 21.0018 21.0018 0 0 1 6.4644 4.9267 1 1 0 0 1 -.7461 1.6656z" fill="url(#linear-gradient-7)"/><path d="m25.9014 27.418a.9985.9985 0 0 1 -.7383-.3247 19.29 19.29 0 0 0 -3.6743-3.13 1 1 0 1 1 1.0937-1.6748 21.306 21.306 0 0 1 4.0562 3.4541 1 1 0 0 1 -.7373 1.6753z" fill="url(#linear-gradient-8)"/><path d="m25.8164 32.3262a.9994.9994 0 0 1 -.7339-.32 18.9781 18.9781 0 0 0 -5.5932-4.1792 15.4307 15.4307 0 0 0 -2.1495-.8526 1 1 0 0 1 .5987-1.9082 17.415 17.415 0 0 1 2.43.9644 20.9815 20.9815 0 0 1 6.1815 4.6159 1 1 0 0 1 -.7339 1.68z" fill="url(#linear-gradient-9)"/><path d="m25.9419 37.4624a.9978.9978 0 0 1 -.74-.3271 19.2378 19.2378 0 0 0 -3.9981-3.3545 1 1 0 0 1 1.0625-1.6944 21.2315 21.2315 0 0 1 4.4149 3.7036 1 1 0 0 1 -.7393 1.6728z" fill="url(#linear-gradient-10)"/><path d="m25.4341 41.9243a.9962.9962 0 0 1 -.7153-.3013 18.9547 18.9547 0 0 0 -5.23-3.7963 15.3053 15.3053 0 0 0 -2.149-.8521 1 1 0 0 1 .5967-1.9092 17.3023 17.3023 0 0 1 2.4312.9649 20.94 20.94 0 0 1 5.7812 4.1953 1 1 0 0 1 -.7153 1.6987z" fill="url(#linear-gradient-11)"/><path d="m44.86 9.6025-1.259 23.3975h-1.2974v2.4769l4.1463 7.878a22.7571 22.7571 0 0 1 7.33.1563 1.001 1.001 0 0 0 1.2201-.9756v-22.1356l-5.9335-11.2738a22.6423 22.6423 0 0 0 -4.2065.4763z" fill="url(#linear-gradient-12)"/><path d="m42.5669 35.9014a1.0007 1.0007 0 0 0 1.0576-.1206l1.8755-1.5 1.8755 1.5a1 1 0 0 0 1.6245-.7808v-25.8727a20.9581 20.9581 0 0 0 -7 1.3137v24.559a1 1 0 0 0 .5669.9014z" fill="url(#linear-gradient-13)"/><path d="m42 27v8a1 1 0 0 0 1.6245.7808l1.8755-1.5 1.8755 1.5a1 1 0 0 0 1.6245-.7808v-8z" fill="url(#linear-gradient-14)"/></svg>