<svg id="Layer_1" enable-background="new 0 0 464 464" height="512" viewBox="0 0 464 464" width="512" xmlns="http://www.w3.org/2000/svg"><g><g><g><path d="m294.31 435.44c-38.27 1.12-247.59-42.77-247.59-42.77l-6.2-13.21s8.07-4.77 13.8-15.14c10.489-18.988 4.983-40.816-5.59-59.81 0 0 234.83-14.52 280.16 17.12 45.311 31.648 3.681 112.672-34.58 113.81z" fill="#fbf5f7"/><path d="m456.97 328.94-134.01 109.93c-11.31 9.27-26.13 13.08-40.5 10.4l-272.96-50.8 31.02-19.01 224.09 43.02s46.64 12.38 48.52-27.76c1.917-40.969-7.837-48.567-31.89-54.03-8.701-1.354-66.289-10.32-281.24-43.76l79.78-32.39 363.9-32.64s34.83 32.51 13.29 97.04z" fill="#917bff"/><path d="m443.68 231.9-199.34 103.051-67.25-10.471z" fill="#825fff"/><path d="m163.07 323.94-78.14-76.28s6.78-8.92 4.25-23.84c-.81-4.84-2.62-10.33-5.96-16.34 23.734 18.639 11.428 8.973 71.84 56.43 22.01 35.52 8.01 60.03 8.01 60.03z" fill="#fbf5f7"/><path d="m443.68 231.9-284.11 111.54-107.55-102.04 37.16-17.58c2.53 14.92-4.25 23.84-4.25 23.84 84.11 82.108 78.088 76.372 78.23 76.11 1.16-2.19 12.86-26.03-8.09-59.84-.161-.161-46.636-36.639-114.55-90 48.172-17.192 34.608-12.35 62.81-22.42l17-1.84c67.934 11.924 159.88 28.064 228.55 40.11l104.48-13.7s10.83 33.311-9.68 55.82z" fill="#ffd54f"/><path d="m287 249.43h-97.43l-108.84-89.85 22.6-8.07 17-1.84 107.85 18.93c26.54 34.961 58.82 80.83 58.82 80.83z" fill="#ffc107"/><path d="m443.68 231.9-284.11 111.54c2.12-5.92 3.21-12.67 3.59-19.67 1.52-27.51-7.82-58.94-8.09-59.84-.1-.1-.973.384 69.9-29.36l90.22-50.7 33.69 5.91 104.48-13.7s10.83 33.311-9.68 55.82z" fill="#ffc107"/><path d="m439.68 155.87-139.31 52.02-95.29 14.25s-8.86-8.86-17.02-22.64c-13.741-23.109-19.068-49.113-5.97-72.85 25.78-46.73 251.88-42.42 251.88-42.42-8.412 16.278-16.606 38.456-9.8 55.56 4.95 12.54 15.51 16.08 15.51 16.08z" fill="#fbf5f7"/><path d="m439.68 155.87 24.26 17.5-238.97 61.2c-11.91 3.05-24.56.39-34.24-7.18l-116.95-91.53c-29.76-46.02-1.12-81.78-1.12-81.78.37-.074 178.42-40.19 178.42-40.19l212.86 62.69-233.34 59.53c-5.75 1.63-14.62 3.25-22.38 7.87-10.12 6.02-18.36 17.11-15.39 39.9 5.25 40.27 34.26 28.51 34.26 28.51z" fill="#c4ff85"/><path d="m463.94 173.37-238.97 61.2c-11.876 3.043-24.542.417-34.24-7.18l-116.95-91.53c-29.76-46.02-1.12-81.78-1.12-81.78 24.822 16.462 108.809 72.161 135.56 89.9-10.12 6.02-18.36 17.11-15.39 39.9 5.25 40.27 34.26 28.51 34.26 28.51l212.59-56.52z" fill="#a9fa58"/></g></g><path d="m456.97 328.94-134.01 109.93c-11.31 9.27-26.13 13.08-40.5 10.4l-272.96-50.8 31.02-19.01 224.09 43.02s46.64 12.38 48.52-27.76c1.38-29.5-3.12-41.78-15.43-48.45l145.98-114.37s34.83 32.51 13.29 97.04z" fill="#825fff"/></g></svg>