<svg id="Layer_1" enable-background="new 0 0 64 64" viewBox="0 0 64 64" xmlns="http://www.w3.org/2000/svg"><g><g><g><path d="m59.49 16.4-.08 31.2-27.36 15.9.08-31.2z" fill="#fcc134"/></g><g><path d="m32.13 32.3-.08 31.2-27.54-15.9.08-31.2z" fill="#d7a733"/></g><path d="m59.49 16.4-27.36 15.9-11.49-6.63-5.05-2.92-11-6.35 27.37-15.9 11.09 6.4 5.04 2.92z" fill="#fed62f"/><path d="m48.09 9.82-27.45 15.85-5.05-2.92 27.46-15.85z" fill="#fff43e"/><path d="m20.64 33.23v-7.56l-5.05-2.92v7.57z" fill="#c1962e"/></g><g fill="#212121"><path d="m28.52 57.15v.84l-9.06-5.23.01-.84z"/><path d="m21.6 44.44 2.1 4.7-1.29-.75-.02 4.41-1.63-.94.02-4.41-1.3-.75z"/><path d="m26.43 47.23 2.11 4.7-1.3-.75-.01 4.41-1.63-.94.01-4.41-1.3-.75z"/></g></g></svg>