<?xml version="1.0" encoding="iso-8859-1"?>
<!-- Generator: Adobe Illustrator 19.0.0, SVG Export Plug-In . SVG Version: 6.00 Build 0)  -->
<svg version="1.1" id="Capa_1" xmlns="http://www.w3.org/2000/svg" xmlns:xlink="http://www.w3.org/1999/xlink" x="0px" y="0px"
	 viewBox="0 0 512.001 512.001" style="enable-background:new 0 0 512.001 512.001;" xml:space="preserve">
<g>
	<path style="fill:#EF1B2C;" d="M139.636,116.364V69.818c0-12.853,10.419-23.272,23.272-23.272l0,0
		c12.853,0,23.272,10.419,23.272,23.272l0,0v46.546H139.636z"/>
	<path style="fill:#EF1B2C;" d="M302.545,116.364V69.818c0-12.853,10.419-23.272,23.272-23.272l0,0
		c12.854,0,23.273,10.419,23.273,23.272l0,0v46.546H302.545z"/>
	<path style="fill:#EF1B2C;" d="M139.636,69.818c0-12.853,10.419-23.272,23.272-23.272h162.909
		c12.854,0,23.273,10.419,23.273,23.272l0,0H139.636z"/>
</g>
<path style="fill:#FF5F6B;" d="M139.636,69.818c0-12.853,10.419-23.272,23.272-23.272h116.364c12.853,0,23.272,10.419,23.272,23.272
	H139.636z"/>
<path style="fill:#F83949;" d="M314.182,46.546L314.182,46.546c6.427,0,11.637,5.21,11.637,11.637v23.272
	c0,6.427-5.21,11.637-11.637,11.637l0,0c-6.427,0-11.637-5.21-11.637-11.637V58.181C302.545,51.755,307.755,46.546,314.182,46.546z"
	/>
<path style="fill:#F73343;" d="M151.273,69.818c6.427,0,11.637,5.21,11.637,11.637l0,0l0,0c0,6.427-5.21,11.637-11.637,11.637l0,0
	c-6.427,0-11.637-5.21-11.637-11.637l0,0C139.636,75.028,144.847,69.818,151.273,69.818L151.273,69.818L151.273,69.818z"/>
<path style="fill:#C90024;" d="M46.546,93.091h418.909c25.706,0,46.546,20.84,46.546,46.546v279.273
	c0,25.706-20.84,46.546-46.546,46.546H46.546C20.84,465.455,0,444.616,0,418.909V139.636C0,113.93,20.84,93.091,46.546,93.091z"/>
<path style="fill:#AA0013;" d="M465.455,116.364L465.455,116.364c12.853,0,23.272,10.419,23.272,23.272v279.273
	c0,12.853-10.419,23.272-23.272,23.272l0,0c-12.853,0-23.272-10.419-23.272-23.272V139.636
	C442.182,126.783,452.602,116.364,465.455,116.364z"/>
<path style="fill:#E2001D;" d="M490.1,103.276c-6.427,0-11.637,5.209-11.637,11.636c0,3.093,1.231,6.058,3.421,8.242
	c4.395,4.357,6.86,10.294,6.842,16.483v279.273c-0.014,12.848-10.426,23.258-23.272,23.272h-6.608
	c-6.427,0-11.637,5.21-11.637,11.637s5.21,11.637,11.637,11.637h6.608c25.706,0,46.546-20.84,46.546-46.546V139.636v-0.127v-0.024
	v-0.02l-0.001-0.183l-0.001-0.093v-0.005v-0.05v-0.025v-0.043v-0.033l-0.001-0.057v-0.017l-0.001-0.044v-0.033v-0.041l-0.001-0.034
	v-0.038l-0.001-0.038l-0.001-0.037l-0.001-0.038l-0.001-0.037l-0.001-0.039l-0.001-0.036l-0.001-0.038l-0.001-0.046l-0.001-0.029
	l-0.001-0.047l-0.001-0.028l-0.002-0.062v-0.012l-0.002-0.064v-0.011l-0.001-0.056l-0.001-0.02l-0.001-0.051l-0.001-0.023
	l-0.001-0.046l-0.001-0.029l-0.002-0.051l-0.001-0.023l-0.002-0.05l-0.001-0.025l-0.001-0.043l-0.001-0.033l-0.001-0.04
	l-0.001-0.035l-0.002-0.05l-0.001-0.024l-0.002-0.058l-0.001-0.016l-0.002-0.055l-0.001-0.021l-0.002-0.053l-0.001-0.021
	l-0.003-0.065v-0.009l-0.003-0.063v-0.012l-0.004-0.073l0,0l-0.003-0.071v-0.004l-0.003-0.065v-0.01l-0.003-0.068v-0.007
	c-0.004-0.073-0.009-0.146-0.013-0.219v-0.003l-0.004-0.067v-0.008l-0.004-0.063l-0.001-0.011l-0.004-0.06l-0.001-0.014
	l-0.004-0.062l-0.001-0.012l-0.004-0.065v-0.008l-0.005-0.07v-0.003l-0.005-0.068v-0.007l-0.005-0.071v-0.003l-0.005-0.069v-0.005
	l-0.005-0.072v-0.001l-0.012-0.147v-0.001l-0.005-0.071v-0.003l-0.005-0.069v-0.004l-0.007-0.071v-0.002l-0.005-0.065l-0.001-0.009
	l-0.007-0.071v-0.001c-0.737-8.345-3.727-16.334-8.648-23.114l-0.002-0.002l-0.039-0.055l-0.001-0.001l-0.039-0.053l-0.007-0.009
	l-0.077-0.106l-0.003-0.004l-0.038-0.052l-0.002-0.003l-0.038-0.051l-0.01-0.013l-0.032-0.044l-0.008-0.01l-0.034-0.045
	l-0.011-0.015l-0.032-0.043l-0.009-0.012l-0.031-0.041l-0.016-0.022l-0.026-0.035l-0.015-0.021l-0.026-0.035l-0.019-0.025
	l-0.023-0.031l-0.022-0.029l-0.02-0.026l-0.023-0.031l-0.02-0.025l-0.026-0.035l-0.015-0.02l-0.028-0.037l-0.014-0.02l-0.034-0.045
	l-0.008-0.01l-0.029-0.038l-0.014-0.019l-0.029-0.038l-0.012-0.015l-0.032-0.041l-0.011-0.014l-0.08-0.103l-0.005-0.007
	l-0.041-0.052l-0.001-0.002l-0.04-0.051l-0.003-0.004c-1.179-1.507-2.45-2.938-3.805-4.288
	C496.137,104.494,493.181,103.273,490.1,103.276L490.1,103.276z"/>
<path style="fill:#F72939;" d="M418.909,418.909V139.636c0-25.706,20.84-46.545,46.546-46.546H46.546
	C20.84,93.091,0,113.929,0,139.635c0,0.001,0,0.001,0,0.001v279.273c0,25.706,20.84,46.545,46.546,46.546h418.909
	C439.749,465.454,418.909,444.616,418.909,418.909L418.909,418.909z"/>
<path style="fill:#F95965;" d="M34.909,325.819L34.909,325.819c6.427,0,11.637,5.21,11.637,11.637V384
	c0,6.427-5.21,11.637-11.637,11.637l0,0c-6.427,0-11.637-5.21-11.637-11.637v-46.546C23.272,331.028,28.483,325.819,34.909,325.819z
	"/>
<path style="fill:#DD122D;" d="M418.909,418.909V186.182H256.001c-12.853,0.008-23.266,10.433-23.258,23.287
	c0.008,12.842,10.416,23.251,23.258,23.258h23.272c12.853-0.005,23.277,10.411,23.282,23.264
	c0.005,12.853-10.411,23.277-23.264,23.282c-0.005,0-0.012,0-0.017,0h-162.91c-12.853,0.013-23.261,10.444-23.248,23.297
	c0.013,12.835,10.414,23.235,23.248,23.248h23.272c25.706-0.022,46.562,20.8,46.584,46.507c0.022,25.706-20.8,46.562-46.507,46.584
	c-0.026,0-0.051,0-0.077,0h-23.272c-12.853,0-23.272,10.419-23.272,23.272s10.419,23.272,23.272,23.272h349.091
	C439.749,465.454,418.909,444.616,418.909,418.909L418.909,418.909z"/>
<path style="fill:#C90024;" d="M216.814,379.724c9.503,9.503,24.022,11.859,36.043,5.848l127.306-63.654
	c15.423-7.712,21.675-26.467,13.964-41.891c-1.501-3.002-3.476-5.741-5.848-8.115l0,0c-9.503-9.503-24.022-11.859-36.043-5.848
	l-127.306,63.654c-15.423,7.712-21.675,26.467-13.964,41.891C212.467,374.61,214.441,377.35,216.814,379.724z"/>
<path style="fill:#FF5360;" d="M418.909,93.091H46.546C20.84,93.091,0,113.929,0,139.635v0.001v110.869
	c0,17.63,9.961,33.747,25.73,41.632l139.636,69.818c27.754,13.876,60.422,13.876,88.176,0l139.636-69.818
	c15.769-7.884,25.73-24.002,25.73-41.632V139.636c0-25.706,20.84-46.545,46.546-46.546H418.909z"/>
<circle style="fill:#FF3A49;" cx="232.724" cy="279.273" r="46.546"/>
<path style="fill:#FF8891;" d="M180.955,342.364c-1.802-0.002-3.58-0.422-5.193-1.227L36.136,271.318
	c-7.909-3.916-12.9-11.992-12.864-20.818v-64.318c-0.005-6.427,5.2-11.641,11.627-11.647s11.641,5.2,11.647,11.627
	c0,0.007,0,0.013,0,0.02V250.5l139.626,69.818c5.749,2.873,8.079,9.863,5.206,15.612
	C189.403,339.877,185.367,342.369,180.955,342.364z"/>
<path style="fill:#FF3A49;" d="M407.273,139.636c-6.427,0-11.637,5.21-11.637,11.637v99.234c0.029,8.823-4.959,16.897-12.865,20.817
	l-139.635,69.818c-21.203,10.601-46.159,10.601-67.362,0l-17.348-8.674c-5.747-2.877-12.737-0.551-15.615,5.195
	c-2.877,5.747-0.551,12.737,5.195,15.615c0.004,0.002,0.008,0.004,0.012,0.005l17.348,8.674c27.754,13.876,60.422,13.876,88.176,0
	l139.636-69.818c15.77-7.885,25.731-24.002,25.731-41.633v-99.234C418.909,144.847,413.699,139.636,407.273,139.636L407.273,139.636
	z"/>
<circle style="fill:#F6EDFF;" cx="209.455" cy="256.004" r="46.546"/>
<circle style="fill:#FCF8FF;" cx="186.186" cy="256.004" r="23.272"/>
<path style="fill:#EAD5FF;" d="M209.455,302.545c25.706,0,46.546-20.84,46.546-46.546v-0.083v-0.026v-0.057v-0.032v-0.053v-0.031
	v-0.053v-0.031v-0.062v-0.02l-0.001-0.082v-0.024l-0.001-0.06v-0.031l-0.001-0.051v-0.034l-0.001-0.052v-0.031l-0.001-0.06v-0.023
	l-0.002-0.082v-0.019l-0.001-0.064l-0.001-0.031l-0.001-0.052l-0.001-0.032l-0.001-0.052l-0.001-0.032l-0.001-0.055l-0.001-0.028
	l-0.002-0.065l-0.001-0.027l-0.002-0.072l-0.001-0.026l-0.002-0.057l-0.001-0.032l-0.002-0.052l-0.001-0.032l-0.002-0.052
	l-0.001-0.029l-0.002-0.068v-0.014l-0.003-0.083l-0.001-0.023l-0.002-0.059l-0.001-0.031l-0.002-0.052l-0.001-0.033l-0.002-0.052
	l-0.001-0.029l-0.003-0.058l-0.001-0.026l-0.004-0.082v-0.008l-0.003-0.073l-0.001-0.031l-0.003-0.051l-0.002-0.034l-0.003-0.049
	l-0.002-0.033l-0.003-0.051l-0.002-0.032l-0.003-0.058l-0.002-0.035l-0.004-0.069l-0.002-0.029l-0.003-0.053l-0.002-0.033
	l-0.003-0.049l-0.002-0.033l-0.003-0.05l-0.002-0.033l-0.004-0.061l-0.001-0.02l-0.005-0.082l-0.001-0.022l-0.004-0.06l-0.002-0.031
	l-0.003-0.051l-0.002-0.033l-0.004-0.052l-0.002-0.031l-0.004-0.056l-0.002-0.026l-0.007-0.081l-0.001-0.009l-0.005-0.072
	l-0.002-0.029l-0.004-0.052l-0.003-0.032l-0.004-0.051l-0.002-0.031l-0.004-0.056l-0.002-0.025l-0.007-0.07l-0.001-0.013
	l-0.008-0.081l-0.002-0.024l-0.005-0.057l-0.003-0.031l-0.005-0.052l-0.003-0.029l-0.005-0.053l-0.003-0.029l-0.007-0.067
	l-0.001-0.014l-0.009-0.084l-0.001-0.009l-0.008-0.071l-0.002-0.026l-0.005-0.055l-0.003-0.031l-0.005-0.053l-0.003-0.027
	l-0.007-0.06l-0.002-0.022l-0.017-0.163l-0.003-0.026l-0.007-0.056l-0.003-0.029l-0.005-0.051l-0.003-0.032l-0.007-0.051
	l-0.003-0.031l-0.007-0.057l-0.003-0.024l-0.01-0.077l-0.003-0.029l-0.007-0.051l-0.004-0.033l-0.007-0.049l-0.003-0.031
	l-0.007-0.052l-0.004-0.031l-0.008-0.056l-0.003-0.024l-0.011-0.08l-0.002-0.02l-0.008-0.061l-0.004-0.029l-0.007-0.049
	l-0.004-0.035l-0.007-0.048l-0.004-0.032l-0.008-0.053l-0.003-0.026l-0.011-0.077l-0.002-0.013l-0.01-0.069l-0.004-0.028
	l-0.008-0.052l-0.004-0.031l-0.008-0.051l-0.004-0.031l-0.008-0.052l-0.004-0.027l-0.01-0.062l-0.003-0.019l-0.012-0.081
	l-0.002-0.016l-0.01-0.062l-0.004-0.028l-0.008-0.052l-0.004-0.031l-0.008-0.051l-0.004-0.029l-0.01-0.06l-0.003-0.02l-0.013-0.08
	l-0.002-0.015l-0.011-0.063l-0.004-0.027l-0.009-0.053l-0.005-0.031l-0.009-0.05l-0.004-0.028l-0.01-0.056l-0.004-0.025
	l-0.027-0.158l-0.004-0.026l-0.01-0.055l-0.004-0.027l-0.01-0.053l-0.004-0.027l-0.01-0.057l-0.004-0.024l-0.011-0.061l-0.003-0.02
	l-0.014-0.077l-0.004-0.021l-0.011-0.059l-0.005-0.027l-0.01-0.052l-0.005-0.028l-0.01-0.052l-0.005-0.027l-0.012-0.062
	l-0.003-0.016l-0.015-0.081l-0.002-0.01l-0.013-0.069l-0.005-0.027l-0.01-0.051l-0.005-0.029l-0.01-0.05l-0.005-0.029l-0.011-0.056
	l-0.004-0.023l-0.033-0.16l-0.003-0.015l-0.013-0.063l-0.004-0.023l-0.012-0.057l-0.005-0.026l-0.011-0.055l-0.005-0.025
	l-0.012-0.059l-0.004-0.021l-0.016-0.077l-0.004-0.019l-0.013-0.059l-0.005-0.026l-0.012-0.055l-0.005-0.026l-0.011-0.052
	l-0.007-0.028l-0.012-0.056l-0.005-0.023l-0.017-0.079l-0.002-0.01l-0.015-0.067l-0.007-0.027l-0.011-0.05l-0.008-0.032
	l-0.011-0.048l-0.007-0.028l-0.012-0.053l-0.005-0.026l-0.017-0.074l-0.001-0.002l-0.019-0.077l-0.007-0.026l-0.013-0.053
	l-0.007-0.028l-0.012-0.048l-0.008-0.032l-0.012-0.049l-0.007-0.029l-0.013-0.055l-0.005-0.023l-0.019-0.075l-0.005-0.024
	l-0.013-0.053l-0.008-0.031l-0.012-0.048l-0.008-0.029l-0.012-0.049l-0.008-0.029l-0.014-0.057l-0.005-0.02l-0.02-0.08l-0.02-0.079
	l-0.004-0.019l-0.014-0.056l-0.008-0.028l-0.013-0.05l-0.008-0.027l-0.014-0.053l-0.007-0.023l-0.019-0.071l-0.002-0.007
	l-0.021-0.079l-0.004-0.017l-0.016-0.06l-0.005-0.022l-0.015-0.057l-0.007-0.024l-0.015-0.056l-0.007-0.023l-0.017-0.063
	l-0.004-0.014l-0.022-0.079l-0.002-0.008l-0.02-0.069l-0.007-0.023l-0.015-0.056l-0.007-0.023l-0.016-0.057l-0.005-0.021
	l-0.019-0.064l-0.003-0.013c-0.015-0.052-0.029-0.105-0.045-0.157l-0.004-0.014l-0.017-0.061l-0.007-0.023l-0.016-0.056
	l-0.007-0.022l-0.017-0.061l-0.004-0.015l-0.047-0.156l-0.004-0.014l-0.019-0.062l-0.007-0.023l-0.016-0.055l-0.008-0.023
	l-0.017-0.057l-0.005-0.02l-0.02-0.064l-0.004-0.013l-0.048-0.156l-0.004-0.013l-0.02-0.063l-0.005-0.017l-0.019-0.06l-0.007-0.02
	l-0.021-0.067l-0.002-0.008l-0.05-0.157l-0.004-0.013l-0.02-0.062l-0.007-0.022l-0.019-0.057l-0.007-0.02l-0.02-0.06l-0.005-0.016
	l-0.051-0.154l-0.004-0.012l-0.021-0.063l-0.007-0.021l-0.019-0.057l-0.007-0.021l-0.021-0.061l-0.004-0.014l-0.023-0.068
	l-0.003-0.011l-0.026-0.077l-0.001-0.002l-0.025-0.073l-0.007-0.019l-0.02-0.058l-0.008-0.022l-0.019-0.053l-0.009-0.024
	l-0.021-0.059l-0.005-0.015l-0.053-0.152l-0.007-0.017l-0.021-0.057l-0.009-0.024l-0.02-0.053l-0.008-0.021l-0.021-0.058
	l-0.007-0.019l-0.055-0.152l-0.003-0.008l-0.025-0.069l-0.005-0.014l-0.022-0.06l-0.008-0.02l-0.021-0.057l-0.008-0.02l-0.023-0.06
	l-0.005-0.014l-0.028-0.076l-0.001-0.002l-0.027-0.072l-0.007-0.019l-0.022-0.057l-0.008-0.021l-0.021-0.056l-0.009-0.022
	l-0.022-0.057l-0.007-0.016l-0.058-0.151l-0.004-0.012l-0.024-0.062l-0.008-0.02l-0.022-0.057l-0.008-0.019l-0.024-0.062
	l-0.004-0.012l-0.06-0.153l-0.002-0.005l-0.027-0.069l-0.005-0.014l-0.024-0.06l-0.008-0.017l-0.023-0.058l-0.007-0.017
	l-0.026-0.063l-0.004-0.011l-0.061-0.149l-0.005-0.013l-0.025-0.061l-0.007-0.015l-0.024-0.058l-0.008-0.017l-0.026-0.064
	l-0.003-0.009c-0.032-0.075-0.063-0.151-0.095-0.226l-0.005-0.013l-0.026-0.061l-0.007-0.015l-0.026-0.062l-0.005-0.012
	c-0.033-0.075-0.064-0.149-0.097-0.225l-0.004-0.01l-0.027-0.064l-0.007-0.014l-0.027-0.061l-0.007-0.014l-0.028-0.064l-0.004-0.009
	l-0.067-0.149l-0.004-0.01l-0.028-0.063l-0.007-0.014l-0.026-0.059l-0.007-0.015l-0.029-0.067l-0.002-0.004l-0.069-0.152
	l-0.001-0.002l-0.032-0.069l-0.008-0.015l-0.027-0.059l-0.008-0.015l-0.027-0.059l-0.007-0.014c-0.034-0.073-0.069-0.147-0.103-0.22
	l-0.005-0.011l-0.028-0.06l-0.008-0.017l-0.027-0.057l-0.008-0.015l-0.029-0.061l-0.005-0.012l-0.07-0.146l-0.004-0.009
	l-0.032-0.064l-0.005-0.012l-0.029-0.06l-0.007-0.014l-0.032-0.064l-0.003-0.007c-0.024-0.049-0.048-0.099-0.073-0.148l0,0
	l-0.034-0.069l-0.008-0.015l-0.028-0.058l-0.008-0.014l-0.029-0.06l-0.007-0.012c-0.036-0.072-0.072-0.145-0.109-0.216l-0.007-0.013
	l-0.029-0.058l-0.009-0.017l-0.028-0.056l-0.009-0.016l-0.032-0.062l-0.004-0.008c-0.025-0.048-0.049-0.097-0.074-0.145l-0.005-0.01
	l-0.032-0.06l-0.008-0.015l-0.029-0.056l-0.009-0.016l-0.032-0.06l-0.004-0.009c-0.037-0.072-0.075-0.143-0.113-0.215l-0.007-0.013
	l-0.032-0.06l-0.005-0.011l-0.034-0.063l-0.004-0.008c-0.039-0.073-0.077-0.145-0.117-0.217l-0.001-0.002l-0.037-0.068l-0.004-0.009
	l-0.034-0.062l-0.005-0.01l-0.035-0.064l-0.003-0.007l-0.079-0.143l-0.003-0.007l-0.035-0.063l-0.007-0.011l-0.033-0.06
	l-0.007-0.012l-0.036-0.064l-0.003-0.005c-0.039-0.071-0.08-0.142-0.12-0.212l-0.008-0.013l-0.033-0.058l-0.008-0.013l-0.034-0.059
	l-0.007-0.012c-0.04-0.07-0.08-0.14-0.121-0.209l-0.007-0.011l-0.033-0.057l-0.009-0.015l-0.033-0.056l-0.009-0.014l-0.035-0.059
	l-0.005-0.009l-0.083-0.141l-0.001-0.002l-0.039-0.065l-0.007-0.011l-0.035-0.058l-0.008-0.012l-0.038-0.064l-0.001-0.002
	c-0.043-0.071-0.084-0.14-0.127-0.211l-0.004-0.008l-0.038-0.062l-0.004-0.008l-0.038-0.062l-0.004-0.008
	c-0.043-0.07-0.085-0.14-0.129-0.209l-0.001-0.002l-0.04-0.065l-0.005-0.009l-0.038-0.061l-0.004-0.007l-0.04-0.065l-0.002-0.003
	c-0.044-0.07-0.087-0.14-0.132-0.209l-0.002-0.003l-0.04-0.064l-0.005-0.008c-0.058-0.092-0.117-0.183-0.176-0.275l-0.003-0.005
	l-0.04-0.063l-0.004-0.007l-0.041-0.063l-0.003-0.005c-0.059-0.091-0.119-0.182-0.179-0.273l-0.005-0.009l-0.039-0.06l-0.005-0.009
	l-0.041-0.063l-0.002-0.003c-0.061-0.092-0.122-0.182-0.183-0.273l-0.002-0.003c-0.061-0.091-0.123-0.182-0.185-0.273l-0.001-0.001
	l-0.045-0.065l-0.002-0.003l-0.046-0.065v-0.001c-0.063-0.091-0.127-0.181-0.19-0.272v-0.001l-0.047-0.067l-0.001-0.001
	c-0.08-0.112-0.159-0.225-0.239-0.336l-0.002-0.003c-0.081-0.111-0.161-0.223-0.242-0.334l-0.001-0.001l-0.048-0.065l-0.001-0.001
	c-0.065-0.089-0.131-0.177-0.196-0.265l-0.001-0.001c-0.099-0.132-0.199-0.264-0.299-0.396l-0.002-0.002
	c-0.1-0.131-0.201-0.262-0.303-0.393l0,0c-0.068-0.087-0.136-0.175-0.205-0.261l0,0l-0.051-0.064l0,0
	c-0.085-0.108-0.171-0.215-0.259-0.322l-0.002-0.002c-0.191-0.236-0.384-0.47-0.579-0.701l-0.001-0.001
	c-0.089-0.106-0.178-0.209-0.267-0.314l-0.001-0.002c-2.231-2.603-4.742-4.954-7.486-7.008c-5.143-3.854-12.436-2.809-16.289,2.335
	c-3.854,5.143-2.809,12.436,2.335,16.289c0.002,0.002,0.005,0.004,0.008,0.007c10.301,7.69,12.418,22.273,4.729,32.575
	c-4.393,5.884-11.305,9.351-18.649,9.352c-6.427,0-11.637,5.21-11.637,11.637C197.818,297.336,203.028,302.545,209.455,302.545
	L209.455,302.545z"/>
<path style="fill:#FF5360;" d="M46.546,418.909h349.091c12.853,0,23.272,10.419,23.272,23.272l0,0
	c0,12.853-10.419,23.272-23.272,23.272H46.546c-12.853,0-23.272-10.419-23.272-23.272l0,0
	C23.272,429.329,33.693,418.909,46.546,418.909z"/>
<path style="fill:#FF8891;" d="M34.909,116.364H384c6.427,0,11.637,5.21,11.637,11.637l0,0c0,6.427-5.21,11.637-11.637,11.637
	H34.909c-6.427,0-11.637-5.21-11.637-11.637l0,0C23.272,121.573,28.483,116.364,34.909,116.364z"/>
<g>
</g>
<g>
</g>
<g>
</g>
<g>
</g>
<g>
</g>
<g>
</g>
<g>
</g>
<g>
</g>
<g>
</g>
<g>
</g>
<g>
</g>
<g>
</g>
<g>
</g>
<g>
</g>
<g>
</g>
</svg>
