<svg id="Layer_1" enable-background="new 0 0 512 512" viewBox="0 0 512 512" xmlns="http://www.w3.org/2000/svg" xmlns:xlink="http://www.w3.org/1999/xlink"><linearGradient id="SVGID_1_" gradientUnits="userSpaceOnUse" x1="228.146" x2="244.542" y1="42.611" y2="160.948"><stop offset="0" stop-color="#eaf9fa"/><stop offset="1" stop-color="#b3dafe"/></linearGradient><linearGradient id="lg1"><stop offset="0" stop-color="#7bacdf" stop-opacity="0"/><stop offset="1" stop-color="#7bacdf"/></linearGradient><linearGradient id="SVGID_00000129168316529020830420000016653193500856988319_" gradientUnits="userSpaceOnUse" x1="337.745" x2="365.547" xlink:href="#lg1" y1="94.812" y2="91.248"/><linearGradient id="SVGID_00000132072285535125493040000002605784582372773788_" gradientUnits="userSpaceOnUse" x1="340.105" x2="299.471" xlink:href="#lg1" y1="103.495" y2="89.951"/><linearGradient id="SVGID_00000098218330511762876220000008402735581535140736_" gradientUnits="userSpaceOnUse" x1="346.692" x2="346.692" xlink:href="#lg1" y1="91.396" y2="111.004"/><linearGradient id="SVGID_00000143601507018845286880000016608338684970570930_" gradientUnits="userSpaceOnUse" x1="137.748" x2="137.748" xlink:href="#lg1" y1="91.396" y2="111.004"/><linearGradient id="lg2"><stop offset="0" stop-color="#fef0ae"/><stop offset="1" stop-color="#fbc56d"/></linearGradient><linearGradient id="SVGID_00000042709107402214754090000010314244848079994795_" gradientUnits="userSpaceOnUse" x1="114.78" x2="144.068" xlink:href="#lg2" y1="111.953" y2="160.705"/><linearGradient id="lg3"><stop offset="0" stop-color="#dc8758" stop-opacity="0"/><stop offset=".2153" stop-color="#dd8654" stop-opacity=".215"/><stop offset=".4291" stop-color="#e28448" stop-opacity=".429"/><stop offset=".6424" stop-color="#ea8034" stop-opacity=".642"/><stop offset=".8543" stop-color="#f47b18" stop-opacity=".854"/><stop offset="1" stop-color="#fe7701"/></linearGradient><linearGradient id="SVGID_00000178907942904930378500000014884815191317037207_" gradientUnits="userSpaceOnUse" x1="129.457" x2="129.457" xlink:href="#lg3" y1="110.644" y2="123.495"/><linearGradient id="SVGID_00000090261736167941291640000016876650521861470611_" gradientUnits="userSpaceOnUse" x1="95.834" x2="186.105" xlink:href="#lg3" y1="91.932" y2="177.504"/><linearGradient id="SVGID_00000003106914754342338170000000928546408665512377_" gradientUnits="userSpaceOnUse" x1="160.422" x2="170.119" xlink:href="#lg3" y1="136.384" y2="136.384"/><linearGradient id="SVGID_00000018227525373200926480000006922210245469174441_" gradientUnits="userSpaceOnUse" x1="129.457" x2="129.457" xlink:href="#lg3" y1="148.78" y2="165.647"/><linearGradient id="SVGID_00000100341852895997545500000015519057495079527854_" gradientUnits="userSpaceOnUse" x1="340.308" x2="369.597" xlink:href="#lg2" y1="111.953" y2="160.705"/><linearGradient id="SVGID_00000072259749491076785100000017713300114253979277_" gradientUnits="userSpaceOnUse" x1="354.986" x2="354.986" xlink:href="#lg3" y1="110.644" y2="123.495"/><linearGradient id="SVGID_00000029021206479788441970000002769696399220553089_" gradientUnits="userSpaceOnUse" x1="321.362" x2="411.633" xlink:href="#lg3" y1="91.932" y2="177.504"/><linearGradient id="SVGID_00000052106052450293014760000000035940918465749653_" gradientUnits="userSpaceOnUse" x1="385.95" x2="395.647" xlink:href="#lg3" y1="136.384" y2="136.384"/><linearGradient id="SVGID_00000008147678569849517470000007412837436340920979_" gradientUnits="userSpaceOnUse" x1="354.986" x2="354.986" xlink:href="#lg3" y1="148.78" y2="165.647"/><linearGradient id="lg4"><stop offset="0" stop-color="#c86d36"/><stop offset=".201" stop-color="#c46b35"/><stop offset=".4143" stop-color="#b76233"/><stop offset=".6334" stop-color="#a2552f"/><stop offset=".8549" stop-color="#85422a"/><stop offset="1" stop-color="#6d3326"/></linearGradient><linearGradient id="SVGID_00000042008976225621762070000006615579745794392749_" gradientUnits="userSpaceOnUse" x1="420.382" x2="499.429" xlink:href="#lg4" y1="157.845" y2="464.657"/><linearGradient id="lg5"><stop offset="0" stop-color="#3a0f13" stop-opacity="0"/><stop offset=".2722" stop-color="#3e1215" stop-opacity=".272"/><stop offset=".5611" stop-color="#4b1b19" stop-opacity=".561"/><stop offset=".8568" stop-color="#602a21" stop-opacity=".857"/><stop offset="1" stop-color="#6d3326"/></linearGradient><linearGradient id="SVGID_00000067203409621607029600000015003194592994574493_" gradientUnits="userSpaceOnUse" x1="464.013" x2="464.013" xlink:href="#lg5" y1="450.605" y2="481.325"/><linearGradient id="SVGID_00000158709783085438647950000016965503983202823871_" gradientUnits="userSpaceOnUse" x1="182.902" x2="647.003" xlink:href="#lg5" y1="79.852" y2="476.558"/><linearGradient id="SVGID_00000076576406179915333750000007155513237660744381_" gradientUnits="userSpaceOnUse" x1="407.686" x2="514.935" xlink:href="#lg5" y1="302.001" y2="321.455"/><linearGradient id="SVGID_00000066482249025934612560000011070169143687235717_" gradientUnits="userSpaceOnUse" x1="195.274" x2="292.881" xlink:href="#lg4" y1="126.51" y2="505.355"/><linearGradient id="SVGID_00000072990417785461349860000007958176031743010458_" gradientUnits="userSpaceOnUse" x1="242.221" x2="242.221" xlink:href="#lg5" y1="450.605" y2="481.325"/><linearGradient id="SVGID_00000098905557721574945760000005814351543339340706_" gradientUnits="userSpaceOnUse" x1="242.221" x2="242.221" xlink:href="#lg5" y1="412.735" y2="328.437"/><linearGradient id="SVGID_00000080913916185709401660000009087813351437996448_" gradientUnits="userSpaceOnUse" x1="235.757" x2="276.162" xlink:href="#lg4" y1="81.144" y2="396.531"/><linearGradient id="SVGID_00000097458962261151664340000009163064090856241598_" gradientUnits="userSpaceOnUse" x1="459.425" x2="516.371" xlink:href="#lg5" y1="233.903" y2="233.903"/><linearGradient id="SVGID_00000054263039684587355720000015404017678848655242_" gradientUnits="userSpaceOnUse" x1="156.34" x2="115.944" xlink:href="#lg5" y1="382.555" y2="320.298"/><linearGradient id="SVGID_00000041981089144945827670000000614909882977668003_" gradientUnits="userSpaceOnUse" x1="400.834" x2="351.646" xlink:href="#lg5" y1="402.413" y2="322.572"/><linearGradient id="SVGID_00000034770676807416722280000014294207082340061070_" gradientUnits="userSpaceOnUse" x1="87.688" x2="118.184" xlink:href="#lg2" y1="319.285" y2="370.049"/><linearGradient id="SVGID_00000091723185669450748400000001091642314188687236_" gradientUnits="userSpaceOnUse" x1="93.322" x2="93.322" xlink:href="#lg2" y1="351.779" y2="328.606"/><linearGradient id="SVGID_00000018915991508130822600000013369568026916831364_" gradientUnits="userSpaceOnUse" x1="68.782" x2="162.819" xlink:href="#lg3" y1="298.418" y2="387.56"/><linearGradient id="SVGID_00000114073904809768729700000013442038718329632417_" gradientUnits="userSpaceOnUse" x1="136.705" x2="147.269" xlink:href="#lg3" y1="344.724" y2="344.724"/><linearGradient id="SVGID_00000092432203387790966960000009304244347335215537_" gradientUnits="userSpaceOnUse" x1="102.97" x2="102.97" xlink:href="#lg3" y1="357.12" y2="373.987"/><linearGradient id="SVGID_00000110448674420882081480000003243376904385205398_" gradientUnits="userSpaceOnUse" x1="333.391" x2="363.887" xlink:href="#lg2" y1="319.285" y2="370.049"/><linearGradient id="SVGID_00000152955996465518941790000018374197978799858098_" gradientUnits="userSpaceOnUse" x1="339.025" x2="339.025" xlink:href="#lg2" y1="351.779" y2="328.606"/><linearGradient id="SVGID_00000010289074780749733820000006757057025624155063_" gradientUnits="userSpaceOnUse" x1="314.485" x2="408.522" xlink:href="#lg3" y1="298.418" y2="387.56"/><linearGradient id="SVGID_00000175293095028491675220000002455899257618760121_" gradientUnits="userSpaceOnUse" x1="382.408" x2="392.972" xlink:href="#lg3" y1="344.724" y2="344.724"/><linearGradient id="SVGID_00000179642991159748043290000000971241512613912207_" gradientUnits="userSpaceOnUse" x1="348.673" x2="348.673" xlink:href="#lg3" y1="357.12" y2="373.987"/><linearGradient id="SVGID_00000126305018808221193780000003852919815832644779_" gradientUnits="userSpaceOnUse" x1="242.22" x2="242.22" y1="43.898" y2="70.988"><stop offset="0" stop-color="#5a5a5a"/><stop offset="1" stop-color="#444"/></linearGradient><linearGradient id="lg6"><stop offset="0" stop-color="#433f43" stop-opacity="0"/><stop offset="1" stop-color="#1a1a1a"/></linearGradient><linearGradient id="SVGID_00000046338299443389734520000006909677189857115018_" gradientUnits="userSpaceOnUse" x1="242.22" x2="242.22" xlink:href="#lg6" y1="50.314" y2="79.551"/><linearGradient id="SVGID_00000156552713125416879540000013566020470395325575_" gradientUnits="userSpaceOnUse" x1="283.365" x2="307.603" xlink:href="#lg6" y1="55.514" y2="61.93"/><g><g><g><path d="m364.24 66.755c-2.23-10.23-9.18-17.96-17.78-19.65-69.35-13.64-139.13-13.64-208.48 0-8.6 1.69-15.54 9.42-17.78 19.65-6.7 30.63-10.05 61.34-10.05 92.05h44.27c0-22.1 2.22-44.2 6.67-66.25 1.49-7.37 6.11-12.93 11.83-14.14 46.11-9.82 92.5-9.82 138.6 0 5.72 1.21 10.34 6.77 11.83 14.14 4.45 22.05 6.68 44.15 6.68 66.25h44.26c0-30.71-3.35-61.42-10.05-92.05z" fill="url(#SVGID_1_)"/></g><g><path d="m346.46 47.105c-31.08-6.113-62.245-9.477-93.42-10.111v34.242c19.517.646 39.024 3.034 58.48 7.179 5.72 1.21 10.34 6.77 11.83 14.14 4.45 22.05 6.68 44.15 6.68 66.25h44.26c0-30.71-3.35-61.42-10.05-92.05-2.23-10.23-9.18-17.96-17.78-19.65z" fill="url(#SVGID_00000129168316529020830420000016653193500856988319_)"/><path d="m346.46 47.105c-31.08-6.113-62.245-9.477-93.42-10.111v34.242c19.517.646 39.024 3.034 58.48 7.179 5.72 1.21 10.34 6.77 11.83 14.14 4.45 22.05 6.68 44.15 6.68 66.25h44.26c0-30.71-3.35-61.42-10.05-92.05-2.23-10.23-9.18-17.96-17.78-19.65z" fill="url(#SVGID_00000132072285535125493040000002605784582372773788_)"/></g></g><path d="m323.35 92.555c4.45 22.05 6.68 44.15 6.68 66.25h44.26c0-25.193-2.259-50.387-6.768-75.536h-48.428c2.019 2.451 3.52 5.646 4.256 9.286z" fill="url(#SVGID_00000098218330511762876220000008402735581535140736_)"/><path d="m161.09 92.555c.736-3.64 2.237-6.835 4.256-9.286h-48.428c-4.509 25.149-6.768 50.343-6.768 75.536h44.27c0-22.1 2.22-44.2 6.67-66.25z" fill="url(#SVGID_00000143601507018845286880000016608338684970570930_)"/><g><g><g><g><path d="m162.774 162.847c-22.166 3.231-44.468 3.231-66.634 0-2.749-.401-4.97-2.231-5.685-4.654-4.282-14.512-4.283-29.103 0-43.616.715-2.423 2.936-4.254 5.685-4.654 22.166-3.231 44.468-3.231 66.634 0 2.749.401 4.97 2.231 5.685 4.654 4.283 14.513 4.282 29.104 0 43.616-.715 2.423-2.936 4.253-5.685 4.654z" fill="url(#SVGID_00000042709107402214754090000010314244848079994795_)"/></g><g><path d="m162.774 162.847c-22.166 3.231-44.468 3.231-66.634 0-2.749-.401-4.97-2.231-5.685-4.654-4.282-14.512-4.283-29.103 0-43.616.715-2.423 2.936-4.254 5.685-4.654 22.166-3.231 44.468-3.231 66.634 0 2.749.401 4.97 2.231 5.685 4.654 4.283 14.513 4.282 29.104 0 43.616-.715 2.423-2.936 4.253-5.685 4.654z" fill="url(#SVGID_00000178907942904930378500000014884815191317037207_)"/></g><path d="m168.459 114.576c-.715-2.423-2.936-4.254-5.685-4.654-13.172-1.92-26.393-2.699-39.605-2.337 9.02.247 18.036 1.026 27.03 2.337 2.749.401 4.97 2.231 5.685 4.654 4.283 14.513 4.282 29.104 0 43.616-.715 2.423-2.936 4.254-5.685 4.654-8.993 1.311-18.009 2.09-27.03 2.337 13.211.362 26.432-.417 39.604-2.337 2.749-.401 4.97-2.231 5.685-4.654 4.284-14.512 4.284-29.103.001-43.616z" fill="url(#SVGID_00000090261736167941291640000016876650521861470611_)"/><path d="m162.774 109.922c-4.665-.68-9.335-1.214-14.01-1.607v1.404c.478.067.957.134 1.435.204 2.749.401 4.97 2.231 5.685 4.654 4.283 14.513 4.282 29.104 0 43.616-.715 2.423-2.936 4.254-5.685 4.654-.478.07-.957.137-1.435.204v1.404c4.674-.394 9.345-.927 14.01-1.607 2.749-.401 4.97-2.231 5.685-4.654 4.282-14.512 4.283-29.103 0-43.616-.715-2.425-2.936-4.255-5.685-4.656z" fill="url(#SVGID_00000003106914754342338170000000928546408665512377_)"/><path d="m90.455 158.193c.715 2.423 2.936 4.254 5.685 4.654 22.166 3.231 44.468 3.231 66.634 0 2.749-.401 4.97-2.231 5.685-4.654 2.141-7.256 3.212-14.532 3.212-21.808h-84.427c0 7.275 1.07 14.551 3.211 21.808z" fill="url(#SVGID_00000018227525373200926480000006922210245469174441_)"/></g></g><g><g><g><path d="m388.303 162.847c-22.166 3.231-44.468 3.231-66.634 0-2.749-.401-4.97-2.231-5.685-4.654-4.282-14.512-4.283-29.103 0-43.616.715-2.423 2.936-4.254 5.685-4.654 22.166-3.231 44.468-3.231 66.634 0 2.749.401 4.97 2.231 5.685 4.654 4.283 14.513 4.282 29.104 0 43.616-.716 2.423-2.937 4.253-5.685 4.654z" fill="url(#SVGID_00000100341852895997545500000015519057495079527854_)"/></g><g><path d="m388.303 162.847c-22.166 3.231-44.468 3.231-66.634 0-2.749-.401-4.97-2.231-5.685-4.654-4.282-14.512-4.283-29.103 0-43.616.715-2.423 2.936-4.254 5.685-4.654 22.166-3.231 44.468-3.231 66.634 0 2.749.401 4.97 2.231 5.685 4.654 4.283 14.513 4.282 29.104 0 43.616-.716 2.423-2.937 4.253-5.685 4.654z" fill="url(#SVGID_00000072259749491076785100000017713300114253979277_)"/></g><path d="m393.988 114.576c-.715-2.423-2.936-4.254-5.685-4.654-13.172-1.92-26.393-2.699-39.605-2.337 9.02.247 18.036 1.026 27.03 2.337 2.749.401 4.97 2.231 5.685 4.654 4.283 14.513 4.282 29.104 0 43.616-.715 2.423-2.936 4.254-5.685 4.654-8.993 1.311-18.009 2.09-27.03 2.337 13.211.362 26.432-.417 39.604-2.337 2.749-.401 4.97-2.231 5.685-4.654 4.283-14.512 4.283-29.103.001-43.616z" fill="url(#SVGID_00000029021206479788441970000002769696399220553089_)"/><path d="m388.303 109.922c-4.665-.68-9.335-1.214-14.01-1.607v1.404c.478.067.957.134 1.435.204 2.749.401 4.97 2.231 5.685 4.654 4.283 14.513 4.282 29.104 0 43.616-.715 2.423-2.936 4.254-5.685 4.654-.478.07-.957.137-1.435.204v1.404c4.674-.394 9.345-.927 14.01-1.607 2.749-.401 4.97-2.231 5.685-4.654 4.282-14.512 4.283-29.103 0-43.616-.716-2.425-2.937-4.255-5.685-4.656z" fill="url(#SVGID_00000052106052450293014760000000035940918465749653_)"/><path d="m315.984 158.193c.715 2.423 2.936 4.254 5.685 4.654 22.166 3.231 44.468 3.231 66.634 0 2.749-.401 4.97-2.231 5.685-4.654 2.141-7.256 3.212-14.532 3.212-21.808h-84.428c0 7.275 1.07 14.551 3.212 21.808z" fill="url(#SVGID_00000008147678569849517470000007412837436340920979_)"/></g></g></g><g><g><g><path d="m469.668 484.124h-53.643v-350.792h53.643c23.379 0 42.332 18.953 42.332 42.332v266.127c0 23.38-18.953 42.333-42.332 42.333z" fill="url(#SVGID_00000042008976225621762070000006615579745794392749_)"/><path d="m416.025 275.879v208.245h53.643c23.379 0 42.332-18.953 42.332-42.332v-165.913z" fill="url(#SVGID_00000067203409621607029600000015003194592994574493_)"/><path d="m469.668 133.332h-53.643v350.791h53.643c23.379 0 42.332-18.953 42.332-42.332v-266.126c0-23.38-18.953-42.333-42.332-42.333z" fill="url(#SVGID_00000158709783085438647950000016965503983202823871_)"/><path d="m469.668 133.332h-53.643v350.791h53.643c23.379 0 42.332-18.953 42.332-42.332v-266.126c0-23.38-18.953-42.333-42.332-42.333z" fill="url(#SVGID_00000076576406179915333750000007155513237660744381_)"/></g><g><g><path d="m433.104 484.124h-381.765c-23.379 0-42.332-18.953-42.332-42.332v-266.127c0-23.379 18.953-42.332 42.332-42.332h381.766c23.379 0 42.332 18.953 42.332 42.332v266.127c0 23.379-18.953 42.332-42.333 42.332z" fill="url(#SVGID_00000066482249025934612560000011070169143687235717_)"/><path d="m9.006 275.879v165.912c0 23.379 18.953 42.332 42.332 42.332h381.766c23.379 0 42.332-18.953 42.332-42.332v-165.912z" fill="url(#SVGID_00000072990417785461349860000007958176031743010458_)"/><path d="m9.006 275.879v165.912c0 23.379 18.953 42.332 42.332 42.332h381.766c23.379 0 42.332-18.953 42.332-42.332v-165.912z" fill="url(#SVGID_00000098905557721574945760000005814351543339340706_)"/></g></g></g><path d="m450.82 346.14h-418.271c-17.976 0-32.549-14.572-32.549-32.548v-148.154c0-24.175 19.598-43.773 43.773-43.773h424.455c24.175 0 43.773 19.598 43.773 43.773v21.53c0-3.383-1.198-6.657-3.382-9.241-8.611-10.188-25.249-4.099-25.249 9.241v126.623c-.001 17.977-14.574 32.549-32.55 32.549z" fill="url(#SVGID_00000080913916185709401660000009087813351437996448_)"/><path d="m468.227 121.666h-82.471v224.474h65.064c17.976 0 32.549-14.573 32.549-32.549v-126.623c0-13.34 16.638-19.429 25.249-9.241 2.184 2.584 3.382 5.858 3.382 9.241v-21.53c0-24.175-19.598-43.772-43.773-43.772z" fill="url(#SVGID_00000097458962261151664340000009163064090856241598_)"/></g><path d="m144.178 320.731-81.701 48.671 114.722 114.722h130.372z" fill="url(#SVGID_00000054263039684587355720000015404017678848655242_)"/><path d="m475.437 441.791v-35.507l-85.553-85.553-81.596 48.685 114.708 114.707h10.11c23.378.001 42.331-18.952 42.331-42.332z" fill="url(#SVGID_00000041981089144945827670000000614909882977668003_)"/><g><g><g><g><path d="m139.268 371.187c-24.149 3.231-48.446 3.231-72.595 0-2.995-.401-5.414-2.231-6.194-4.654-4.665-14.512-4.666-29.103 0-43.617.779-2.423 3.199-4.254 6.194-4.654 24.149-3.231 48.446-3.231 72.595 0 2.995.401 5.414 2.231 6.194 4.654 4.666 14.513 4.665 29.104 0 43.616-.78 2.424-3.2 4.254-6.194 4.655z" fill="url(#SVGID_00000034770676807416722280000014294207082340061070_)"/></g><path d="m109.789 330.803-1.878.386c-9.625 1.981-19.553 1.981-29.179 0l-1.878-.386c-4.097-.843-6.911 4.014-4.141 7.149l17.345 19.631c1.733 1.962 4.793 1.962 6.527 0l17.345-19.631c2.769-3.136-.044-7.993-4.141-7.149z" fill="url(#SVGID_00000091723185669450748400000001091642314188687236_)"/><path d="m145.461 322.916c-.779-2.423-3.199-4.254-6.194-4.654-14.351-1.92-28.754-2.699-43.148-2.337 9.827.247 19.65 1.026 29.448 2.337 2.995.401 5.414 2.231 6.194 4.654 4.666 14.513 4.665 29.104 0 43.616-.779 2.423-3.199 4.254-6.194 4.654-9.798 1.311-19.62 2.09-29.447 2.337 14.393.362 28.797-.417 43.147-2.337 2.995-.401 5.414-2.231 6.194-4.654 4.666-14.512 4.666-29.103 0-43.616z" fill="url(#SVGID_00000018915991508130822600000013369568026916831364_)"/><path d="m139.268 318.262c-5.082-.68-10.171-1.214-15.263-1.607v1.404c.521.067 1.042.134 1.563.204 2.995.401 5.414 2.231 6.194 4.654 4.666 14.513 4.665 29.104 0 43.616-.779 2.423-3.199 4.254-6.194 4.654-.521.07-1.042.137-1.563.204v1.404c5.092-.394 10.181-.927 15.263-1.607 2.995-.401 5.414-2.231 6.194-4.654 4.665-14.512 4.666-29.103 0-43.616-.78-2.425-3.2-4.255-6.194-4.656z" fill="url(#SVGID_00000114073904809768729700000013442038718329632417_)"/><path d="m60.479 366.533c.779 2.423 3.199 4.254 6.194 4.654 24.149 3.231 48.446 3.231 72.595 0 2.995-.401 5.414-2.231 6.194-4.654 2.333-7.256 3.499-14.532 3.499-21.808h-91.981c0 7.275 1.167 14.551 3.499 21.808z" fill="url(#SVGID_00000092432203387790966960000009304244347335215537_)"/></g></g><g><g><g><path d="m384.971 371.187c-24.149 3.231-48.446 3.231-72.595 0-2.995-.401-5.414-2.231-6.194-4.654-4.665-14.512-4.666-29.103 0-43.617.779-2.423 3.199-4.254 6.194-4.654 24.148-3.231 48.446-3.231 72.595 0 2.995.401 5.414 2.231 6.194 4.654 4.666 14.513 4.665 29.104 0 43.616-.78 2.424-3.2 4.254-6.194 4.655z" fill="url(#SVGID_00000110448674420882081480000003243376904385205398_)"/></g><path d="m355.492 330.803-1.878.386c-9.625 1.981-19.553 1.981-29.179 0l-1.878-.386c-4.097-.843-6.911 4.014-4.141 7.149l17.345 19.631c1.733 1.962 4.793 1.962 6.527 0l17.345-19.631c2.769-3.136-.044-7.993-4.141-7.149z" fill="url(#SVGID_00000152955996465518941790000018374197978799858098_)"/><path d="m391.164 322.916c-.779-2.423-3.199-4.254-6.194-4.654-14.351-1.92-28.754-2.699-43.148-2.337 9.827.247 19.65 1.026 29.448 2.337 2.995.401 5.414 2.231 6.194 4.654 4.666 14.513 4.665 29.104 0 43.616-.779 2.423-3.199 4.254-6.194 4.654-9.798 1.311-19.62 2.09-29.448 2.337 14.393.362 28.797-.417 43.147-2.337 2.995-.401 5.414-2.231 6.194-4.654 4.667-14.512 4.667-29.103.001-43.616z" fill="url(#SVGID_00000010289074780749733820000006757057025624155063_)"/><path d="m384.971 318.262c-5.082-.68-10.171-1.214-15.263-1.607v1.404c.521.067 1.042.134 1.563.204 2.995.401 5.414 2.231 6.194 4.654 4.666 14.513 4.665 29.104 0 43.616-.779 2.423-3.199 4.254-6.194 4.654-.521.07-1.042.137-1.563.204v1.404c5.092-.394 10.181-.927 15.263-1.607 2.995-.401 5.414-2.231 6.194-4.654 4.665-14.512 4.666-29.103 0-43.616-.78-2.425-3.2-4.255-6.194-4.656z" fill="url(#SVGID_00000175293095028491675220000002455899257618760121_)"/><path d="m306.182 366.533c.779 2.423 3.199 4.254 6.194 4.654 24.149 3.231 48.446 3.231 72.595 0 2.995-.401 5.414-2.231 6.194-4.654 2.333-7.256 3.499-14.532 3.499-21.808h-91.98c-.001 7.275 1.166 14.551 3.498 21.808z" fill="url(#SVGID_00000179642991159748043290000000971241512613912207_)"/></g></g></g><g><path d="m173.466 83.885c45.795-5.927 91.714-5.927 137.509 0 4.901.634 9.241-3.179 9.241-8.12v-35.035c0-4.123-3.065-7.589-7.152-8.134-47.184-6.293-94.503-6.293-141.687 0-4.087.545-7.152 4.01-7.152 8.134v35.035c-.001 4.941 4.34 8.754 9.241 8.12z" fill="url(#SVGID_00000126305018808221193780000003852919815832644779_)"/><path d="m173.466 83.885c45.795-5.927 91.714-5.927 137.509 0 4.901.634 9.241-3.179 9.241-8.12v-35.035c0-4.123-3.065-7.589-7.152-8.134-47.184-6.293-94.503-6.293-141.687 0-4.087.545-7.152 4.01-7.152 8.134v35.035c-.001 4.941 4.34 8.754 9.241 8.12z" fill="url(#SVGID_00000046338299443389734520000006909677189857115018_)"/><path d="m313.064 32.596c-18.29-2.439-36.599-3.921-54.914-4.47v51.56c17.617.527 35.23 1.921 52.825 4.198 4.901.634 9.241-3.179 9.241-8.12v-35.034c0-4.123-3.065-7.589-7.152-8.134z" fill="url(#SVGID_00000156552713125416879540000013566020470395325575_)"/></g></g><g/><g/><g/><g/><g/><g/><g/><g/><g/><g/><g/><g/><g/><g/><g/></svg>