<svg clip-rule="evenodd" fill-rule="evenodd" height="128" image-rendering="optimizeQuality" shape-rendering="geometricPrecision" text-rendering="geometricPrecision" viewBox="0 0 20623 23197" width="114" xmlns="http://www.w3.org/2000/svg"><g id="Layer_x0020_1"><g id="_796694480"><path d="m11333 281 8269 4775c650 375 1021 1018 1021 1768v9549c0 750-371 1394-1021 1768l-8269 4775c-650 375-1393 375-2042 0l-8270-4775c-649-374-1021-1018-1021-1768v-9549c0-750 372-1393 1021-1768l8270-4775c649-375 1392-375 2042 0z" fill="#53b4ed"/><g><path d="m2951 8629h8100v14271h-1788l-6312-3644z" fill="#e4e7ed"/><path d="m3946 9319h3437v1203h-3437z" fill="#ced1d5"/><path d="m2802 8629h8512v-823h-8512z" fill="#154e5e"/><path d="m17180 5338-6393-2637v20199h573l5820-3360z" fill="#dbdee3"/><path d="m17180 5338-6393-2637v258l6393 2636z" fill="#ced1d5"/><path d="m10749 8629v14271h611l1413-816z" fill="#c9cbcf"/><path d="m4622 6480 4973-964v2290h-4973z" fill="#e4e7ed"/><path d="m4317 6557 5437-1076v-490l-5437 1076z" fill="#154e5e"/><path d="m3818 9174h3438v1203h-3438z" fill="#fff"/><path d="m4057 9355h2960v841h-2960z" fill="#53b4ed"/><path d="m3946 11341h3437v1203h-3437z" fill="#ced1d5"/><path d="m3818 11196h3438v1203h-3438z" fill="#fff"/><path d="m4057 11377h2960v841h-2960z" fill="#53b4ed"/><path d="m3946 13363h3437v1203h-3437z" fill="#ced1d5"/><path d="m3818 13219h3438v1202h-3438z" fill="#fff"/><path d="m4057 13400h2960v840h-2960z" fill="#53b4ed"/><path d="m3946 15386h3437v1202h-3437z" fill="#ced1d5"/><path d="m3818 15241h3438v1202h-3438z" fill="#fff"/><path d="m4057 15422h2960v840h-2960z" fill="#53b4ed"/><path d="m3946 17408h3437v1202h-3437z" fill="#ced1d5"/><path d="m3818 17263h3438v1203h-3438z" fill="#fff"/><path d="m4057 17444h2960v841h-2960z" fill="#53b4ed"/><path d="m3946 19430h3437v1203h-2047l-1390-803z" fill="#ced1d5"/><path d="m3818 19285h3438v1203h-2171l-1267-732z" fill="#fff"/><path d="m4057 19466h2960v841h-2246l-714-413z" fill="#53b4ed"/><path d="m8014 9319h2078v1203h-2078z" fill="#ced1d5"/><path d="m7936 9174h2079v1203h-2079z" fill="#fff"/><path d="m8140 9355h1672v841h-1672z" fill="#53b4ed"/><path d="m8014 11341h2078v1203h-2078z" fill="#ced1d5"/><path d="m7936 11196h2079v1203h-2079z" fill="#fff"/><path d="m8140 11377h1672v841h-1672z" fill="#53b4ed"/><path d="m8014 13363h2078v1203h-2078z" fill="#ced1d5"/><path d="m7936 13219h2079v1202h-2079z" fill="#fff"/><path d="m8140 13400h1672v840h-1672z" fill="#53b4ed"/><path d="m8014 15386h2078v1202h-2078z" fill="#ced1d5"/><path d="m7936 15241h2079v1202h-2079z" fill="#fff"/><path d="m8140 15422h1672v840h-1672z" fill="#53b4ed"/><path d="m8014 17408h2078v1202h-2078z" fill="#ced1d5"/><path d="m7936 17263h2079v1203h-2079z" fill="#fff"/><path d="m8140 17444h1672v841h-1672z" fill="#53b4ed"/><path d="m8014 19430h2078v1203h-2078z" fill="#ced1d5"/><path d="m7936 19285h2079v1203h-2079z" fill="#fff"/><path d="m8140 19466h1672v841h-1672z" fill="#53b4ed"/><g fill="#ced1d5"><path d="m2951 8629h7781v249h-7781z"/><path d="m6232 21150h1340v774z"/><path d="m5136 6395 546-108v1519h-543z"/><path d="m6298 6179 543-117v1744h-543z"/><path d="m7457 5931 543-100v1975h-543z"/><path d="m8616 5708 544-107v2205h-544z"/></g><path d="m11459 5647h787 206v206 1114 206h-206-787-206v-206-1114-206zm581 412h-375v702h375z" fill="#fff" fill-rule="nonzero"/><path d="m11459 5853h787v1114h-787z" fill="#53b4ed"/><path d="m13198 5647h786 207v206 1114 206h-207-786-206v-206-1114-206zm580 412h-374v702h374z" fill="#fff" fill-rule="nonzero"/><path d="m13198 5853h786v1114h-786z" fill="#53b4ed"/><path d="m14937 5647h786 206v206 1114 206h-206-786-206v-206-1114-206zm580 412h-374v702h374z" fill="#fff" fill-rule="nonzero"/><path d="m14937 5853h786v1114h-786z" fill="#53b4ed"/><path d="m11459 7575h787 206v206 1115 206h-206-787-206v-206-1115-206zm581 412h-375v702h375z" fill="#fff" fill-rule="nonzero"/><path d="m11459 7781h787v1115h-787z" fill="#53b4ed"/><path d="m13198 7575h786 207v206 1115 206h-207-786-206v-206-1115-206zm580 412h-374v702h374z" fill="#fff" fill-rule="nonzero"/><path d="m13198 7781h786v1115h-786z" fill="#53b4ed"/><path d="m14937 7575h786 206v206 1115 206h-206-786-206v-206-1115-206zm580 412h-374v702h374z" fill="#fff" fill-rule="nonzero"/><path d="m14937 7781h786v1115h-786z" fill="#53b4ed"/><path d="m11459 9504h787 206v206 1114 206h-206-787-206v-206-1114-206zm581 412h-375v702h375z" fill="#fff" fill-rule="nonzero"/><path d="m11459 9710h787v1114h-787z" fill="#53b4ed"/><path d="m13198 9504h786 207v206 1114 206h-207-786-206v-206-1114-206zm580 412h-374v702h374z" fill="#fff" fill-rule="nonzero"/><path d="m13198 9710h786v1114h-786z" fill="#53b4ed"/><path d="m14937 9504h786 206v206 1114 206h-206-786-206v-206-1114-206zm580 412h-374v702h374z" fill="#fff" fill-rule="nonzero"/><path d="m14937 9710h786v1114h-786z" fill="#53b4ed"/><path d="m11459 11433h787 206v206 1114 206h-206-787-206v-206-1114-206zm581 412h-375v702h375z" fill="#fff" fill-rule="nonzero"/><path d="m11459 11639h787v1114h-787z" fill="#53b4ed"/><path d="m13198 11433h786 207v206 1114 206h-207-786-206v-206-1114-206zm580 412h-374v702h374z" fill="#fff" fill-rule="nonzero"/><path d="m13198 11639h786v1114h-786z" fill="#53b4ed"/><path d="m14937 11433h786 206v206 1114 206h-206-786-206v-206-1114-206zm580 412h-374v702h374z" fill="#fff" fill-rule="nonzero"/><path d="m14937 11639h786v1114h-786z" fill="#53b4ed"/><path d="m11459 13361h787 206v207 1114 206h-206-787-206v-206-1114-207zm581 413h-375v702h375z" fill="#fff" fill-rule="nonzero"/><path d="m11459 13568h787v1114h-787z" fill="#53b4ed"/><path d="m13198 13361h786 207v207 1114 206h-207-786-206v-206-1114-207zm580 413h-374v702h374z" fill="#fff" fill-rule="nonzero"/><path d="m13198 13568h786v1114h-786z" fill="#53b4ed"/><path d="m14937 13361h786 206v207 1114 206h-206-786-206v-206-1114-207zm580 413h-374v702h374z" fill="#fff" fill-rule="nonzero"/><path d="m14937 13568h786v1114h-786z" fill="#53b4ed"/><path d="m11459 15290h787 206v206 1114 206h-206-787-206v-206-1114-206zm581 412h-375v702h375z" fill="#fff" fill-rule="nonzero"/><path d="m11459 15496h787v1114h-787z" fill="#53b4ed"/><path d="m13198 15290h786 207v206 1114 206h-207-786-206v-206-1114-206zm580 412h-374v702h374z" fill="#fff" fill-rule="nonzero"/><path d="m13198 15496h786v1114h-786z" fill="#53b4ed"/><path d="m14937 15290h786 206v206 1114 206h-206-786-206v-206-1114-206zm580 412h-374v702h374z" fill="#fff" fill-rule="nonzero"/><path d="m14937 15496h786v1114h-786z" fill="#53b4ed"/><path d="m11459 17219h787 206v206 1114 206h-206-787-206v-206-1114-206zm581 412h-375v702h375z" fill="#fff" fill-rule="nonzero"/><path d="m11459 17425h787v1114h-787z" fill="#53b4ed"/><path d="m13198 17219h786 207v206 1114 206h-207-786-206v-206-1114-206zm580 412h-374v702h374z" fill="#fff" fill-rule="nonzero"/><path d="m13198 17425h786v1114h-786z" fill="#53b4ed"/><path d="m14937 17219h786 206v206 1114 206h-206-786-206v-206-1114-206zm580 412h-374v702h374z" fill="#fff" fill-rule="nonzero"/><path d="m14937 17425h786v1114h-786z" fill="#53b4ed"/><path d="m11459 19148h787 206v206 1114 206h-206-787-206v-206-1114-206zm581 412h-375v702h375z" fill="#fff" fill-rule="nonzero"/><path d="m11459 19354h787v1114h-787z" fill="#53b4ed"/><path d="m13198 19148h786 207v206 1114 206h-207-786-206v-206-1114-206zm580 412h-374v702h374z" fill="#fff" fill-rule="nonzero"/><path d="m13198 19354h786v1114h-786z" fill="#53b4ed"/><path d="m14937 19148h786 206v206 908l-713 412h-279-206v-206-1114-206zm580 412h-374v702h374z" fill="#fff" fill-rule="nonzero"/><path d="m14937 19354h786v1027l-150 87h-636z" fill="#53b4ed"/><path d="m17325 5398-6878-2837v-490l6878 2837z" fill="#154e5e"/><path d="m11459 3718h787 206v206 1114 206h-206-787-206v-206-1114-206zm581 412h-375v702h375z" fill="#fff" fill-rule="nonzero"/><path d="m11459 3924h787v1114h-787z" fill="#53b4ed"/><path d="m13601 21150h790l-790 456z" fill="#c1c4c7"/><path d="m5719 2830c656 0 1188 532 1188 1188s-532 1187-1188 1187c-655 0-1187-531-1187-1187s532-1188 1187-1188z" fill="#ffc42e"/><path d="m3886 4253c332 0 613 184 706 436 71-83 178-136 297-136 103 0 198 40 267 105 31-10 64-16 98-16 170 0 308 135 308 303 0 81-33 156-86 210h-2999c-1-11-2-22-2-33 0-155 127-281 285-281 50 0 96 13 137 35 65-69 159-118 267-134 70-279 367-489 722-489z" fill="#f9f9f9"/><path d="m8600 21150h1144v1750h-481l-663-383z" fill="#ced1d5"/><path d="m18950 7358c272 0 502 150 577 356 59-68 146-111 243-111 85 0 162 33 219 86 25-9 52-13 80-13 139 0 252 111 252 247 0 67-27 128-71 172h-2452c-1-9-1-18-1-27 0-127 104-229 233-229 40 0 78 10 112 28 53-56 130-96 218-110 58-228 300-399 590-399z" fill="#f9f9f9"/><path d="m11276 21150h1093v1168l-1009 582h-84z" fill="#c1c4c7"/><g><path d="m3440 19131c225 126 373 346 373 597v25l-1299-749c-2-17-3-34-3-51 0-234 218-424 487-424s487 190 487 424c0 64-16 124-45 178z" fill="#1eb073"/><path d="m3440 19131c225 126 373 346 373 597v25l-273-157c-16-228-158-426-365-543 28-53 44-112 44-174 0-147-87-276-219-350 268 1 485 190 485 424 0 64-16 124-45 178z" fill="#1a9c66"/></g><g><path d="m16691 19131c-225 126-373 346-373 597 0 97 22 189 63 274l1335-771c-42-38-89-71-140-100 28-54 44-114 44-178 0-234-218-424-487-424s-487 190-487 424c0 64 16 124 45 178z" fill="#1eb073"/><path d="m16691 19131c-225 126-373 346-373 597 0 97 22 189 63 274l249-145c-26-68-40-142-40-218 0-246 146-462 366-586-28-53-44-112-44-174 0-147 87-276 219-350-268 1-485 190-485 424 0 64 16 124 45 178z" fill="#1a9c66"/></g><path d="m9263 22900h2097l-27 16c-650 375-1393 375-2042 0z" fill="#e4e7ed"/><path d="m9263 22900h2097l-27 16c-129 74-261 134-395 179h-1252c-135-45-267-105-395-179z" fill="#eff1f4"/></g></g></g></svg>