<svg height="493pt" viewBox="0 -4 493.602 493" width="493pt" xmlns="http://www.w3.org/2000/svg"><path d="m171.605469 83.210938-28.921875 13.5-21.210938 9.640624 28.921875-17.355468zm0 0" fill="#ffee40"/><path d="m133.042969 141.054688 25.0625 1.929687 19.28125 25.066406 28.921875-15.425781 5.785156 32.777344 25.066406 13.496094 3.855469-26.992188 19.28125-1.929688 25.066406 25.066407 11.570313-19.28125-19.28125-32.777344v-26.996094l19.28125-7.710937-11.570313-34.707032h-26.992187l-17.355469-26.992187-3.855469-32.78125-26.996094-13.496094-3.609374 27.523438-19.183594 2.382812-25.40625-26.046875-11.570313 21.207032 21.207031 29.320312v28.523438l-21.207031 5.785156 11.570313 36.636718zm65.621093-55.496094c0-11.992188 5.839844-19.003906 14.28125-19.003906 16.675782 0 35.640626 25.667968 35.640626 47.484374 0 11.984376-5.839844 19-14.277344 19-16.679688 0-35.644532-25.660156-35.644532-47.480468zm0 0" fill="#d4720a"/><path d="m296.933594 175.761719-26.996094 15.425781-13.496094 19.28125 28.921875-15.425781zm0 0" fill="#b35100"/><path d="m208.238281 216.253906 28.921875-17.355468 3.855469-26.992188-28.921875 13.496094zm0 0" fill="#b35100"/><path d="m277.652344 142.984375-26.996094 15.425781 19.28125 32.777344 26.996094-15.425781zm0 0" fill="#d4720a"/><path d="m277.652344 115.988281-26.996094 17.355469v25.066406l26.996094-15.425781zm0 0" fill="#b35100"/><path d="m296.933594 108.277344-26.996094 15.425781-19.28125 9.640625 26.996094-17.355469zm0 0" fill="#7ab2bc"/><path d="m285.363281 73.570312-28.921875 17.355469 13.496094 32.777344 26.996094-15.425781zm0 0" fill="#d4720a"/><path d="m258.371094 73.570312-26.996094 13.496094 25.066406 3.859375 28.921875-17.355469zm0 0" fill="#ffee40"/><path d="m241.015625 46.578125-28.921875 15.425781-3.855469-32.777344 28.921875-15.425781zm0 0" fill="#d4720a"/><path d="m161.964844 4.160156-26.996094 17.351563 23.308594 24.289062 29.089844-15.59375zm0 0" fill="#d4720a"/><path d="m241.015625 46.578125-28.921875 15.425781 19.28125 25.0625 26.996094-13.496094zm0 0" fill="#b35100"/><path d="m206.550781 27.824219-28.574219 15.945312-19.699218 2.03125 29.089844-15.59375zm0 0" fill="#ffee40"/><path d="m231.375 87.066406 25.066406 3.859375 13.496094 32.777344-19.28125 9.640625v25.066406l19.28125 32.777344-13.496094 19.28125-25.066406-28.921875-19.28125 3.855469-3.855469 30.851562-25.066406-15.425781-5.78125-32.777344-19.28125-25.066406-25.066406-1.929687-11.566407-34.703126 21.207032-9.640624v-26.996094l-21.207032-28.921875 13.496094-19.28125 23.359375 24.289062 19.667969-2.03125 3.246094-28.042969 26.996094 13.496094 3.855468 32.78125zm-47.003906-4.570312c-8.441406 0-14.28125 7.019531-14.28125 19.003906 0 21.820312 18.964844 47.484375 35.644531 47.484375 8.441406 0 14.28125-7.011719 14.28125-19 0-21.816406-18.96875-47.488281-35.644531-47.488281zm0 0" fill="#edac01"/><path d="m210.167969.304688-28.921875 15.421874 26.992187 13.5 28.921875-15.425781zm0 0" fill="#ffee40"/><path d="m331.640625 104.480469v17.292969l111.828125 63.628906 13.5-7.710938zm0 0" fill="#3c7fc2"/><path d="m493.601562 177.691406-142.679687-82.910156-19.28125 9.640625 125.328125 73.367187-13.5 7.613282-30.847656 17.355468-19.28125-11.570312-13.496094 38.5625 67.480469-11.570312-15.421875-5.78125zm0 0" fill="#5db8f5"/><path d="m431.902344 212.398438 15.421875 5.78125-67.480469 11.570312v15.425781l67.480469-11.570312v-11.566407l46.277343-26.996093v-17.351563zm0 0" fill="#2f62a3"/><path d="m0 299.105469v21.265625l165.820312 96.40625v-19.28125zm0 0" fill="#3c7fc2"/><path d="m90.621094 222.039062v19.28125l40.492187 23.136719 19.28125 11.566407v-21.207032l-19.28125-11.570312-17.351562-9.640625zm0 0" fill="#3c7fc2"/><path d="m40.433594 297.164062 90.679687-53.917968v21.210937l-71.339843 42.417969zm0 0" fill="#2f62a3"/><path d="m165.820312 397.496094v19.28125l21.207032-13.496094v-19.28125zm0 0" fill="#2f62a3"/><path d="m59.773438 306.875-19.339844-9.710938 90.679687-53.917968 19.28125 11.570312 13.496094-42.417968-73.269531 9.640624 23.140625 11.566407-113.7031252 65.5 165.7617182 98.390625 21.207032-13.496094zm0 0" fill="#5db8f5"/><path d="m150.394531 276.023438 13.496094-44.34375v-19.28125l-13.496094 42.417968zm0 0" fill="#2f62a3"/><path d="m217.878906 256.742188 30.851563-17.351563 28.921875 17.351563-30.851563 17.355468zm0 0" fill="#ff5f4f"/><path d="m289.21875 278.207031 26.996094-17.605469 28.921875 17.351563-28.921875 17.351563zm0 0" fill="#8beaff"/><path d="m217.878906 468.835938v-212.09375l28.921875 17.355468v212.09375zm0 0" fill="#9e1e23"/><path d="m246.800781 486.191406 30.851563-19.28125v-210.167968l-30.851563 17.355468zm0 0" fill="#f03939"/><path d="m289.21875 428.347656v-150.140625l26.996094 17.097657v148.46875zm0 0" fill="#3c7fc2"/><path d="m316.214844 443.773438 28.921875-17.355469v-148.464844l-28.921875 17.351563zm0 0" fill="#5db8f5"/><path d="m356.703125 389.785156v-92.550781l26.996094 15.222656v92.753907zm0 0" fill="#2b7a69"/><path d="m383.699219 405.210938 28.921875-17.355469v-92.550781l-28.921875 17.152343zm0 0" fill="#28a88c"/><path d="m356.703125 297.234375 28.921875-17.351563 26.996094 15.421876-28.921875 17.152343zm0 0" fill="#4ac9ae"/><path d="m422.261719 347.367188v-36.636719l28.921875 17.355469v36.632812zm0 0" fill="#d4720a"/><path d="m451.183594 364.71875 28.921875-17.351562v-36.636719l-28.921875 17.355469zm0 0" fill="#edac01"/><path d="m422.261719 310.730469 28.921875-17.351563 28.921875 17.351563-28.921875 17.355469zm0 0" fill="#ffee40"/></svg>