<svg id="Layer_1" enable-background="new 0 0 68 68" viewBox="0 0 68 68" xmlns="http://www.w3.org/2000/svg"><g><g><g><g><g><g><g><g><g><g><path d="m21.6756325 23.5314007c.0109425 4.2687283-2.9900036 9.4667377-6.7055492 11.6120739-1.8789673 1.0844269-3.5776596 1.1784477-4.8030901.457592l-6.1964583-3.5983353c-1.2066836-.7020493-1.9557149-2.1939144-1.9619894-4.3157387-.0046678-1.6705151.4544384-3.4836311 1.2348421-5.2011452 1.2144883-2.668745 3.2093809-5.1055565 5.4707079-6.4109383.7412262-.4278107 1.4542179-.7020493 2.1218348-.8336792 1.0169964-.1974535 1.9259501-.0642557 2.6640396.363555l6.2136745 3.6108751c-.0110188-.0062752-.0219612-.0109711-.0329037-.0172443 1.1862545.6707153 1.9384232 2.096756 1.9917564 4.127697.0015294.0673829.0015294.1363354.0031354.205288z" fill="#3c4043"/></g><g><path d="m14.9261627 19.6842155c.7412262-.4278202 1.4542942-.700489 2.1218357-.832119 1.0170727-.1990223 1.9275551-.0658245 2.6656456.3635635l-6.2136745-3.6108751c-.7380896-.4278107-1.6470432-.5610085-2.6640396-.363555-.6676168.1316299-1.3806086.4058685-2.1218348.8336792-2.2613268 1.3047219-4.256372 3.7417909-5.470478 6.4115697l6.2135983 3.6092491c1.2141055-2.6693287 3.2089976-5.1060924 5.4689473-6.4115124z" fill="#252728"/></g><g><g><path d="m14.9264441 19.6849346c.7412224-.4279442 1.454772-.7019768 2.1222391-.8326111 2.6250439-.5138092 4.5382404 1.189991 4.6232891 4.4738922.0017681.0674438.0027771.1356602.0029716.2044449.0121059 4.2699242-2.9886818 9.4674892-6.7046747 11.6129208-3.7149601 2.1448326-6.7363405.4241676-6.7484455-3.8457584-.0121021-4.2687741 2.9896593-9.4680539 6.7046204-11.6128884z" fill="#3c4043"/></g></g><g><g><path d="m14.929678 20.824276c.6319628-.3648624 1.2403297-.5985012 1.8094101-.7098789 2.2380981-.4380703 3.8692799 1.0145798 3.9417915 3.814415.0015068.0575027.002367.1156635.002533.1743088.0103207 3.6405144-2.5481339 8.0719318-5.7163696 9.9011135-3.1673555 1.8286743-5.7433672.3616447-5.7536888-3.2788715-.0103179-3.639536 2.5489682-8.0724126 5.7163238-9.9010869z" fill="#252728"/></g></g><g><g><path d="m8.2222195 31.2978573c-.0048971-1.6712322.4539032-3.4846821 1.2349958-5.2021294l-6.2135983-3.6092491c-.7807097 1.7169018-1.2393568 3.5297775-1.2350717 5.2005138.0062745 2.1218243.7553058 3.6136894 1.9619894 4.3157387l6.213675 3.6093063c-1.2082146-.700489-1.9557151-2.1923561-1.9619902-4.3141803z" fill="#1d1e1e"/></g></g></g><g><path d="m20.8375549 21.1292019 2.8640079 1.4092731c.7018661.3453636 1.4332371.6255016 2.1813526.8540096 5.3573818 1.6363869 9.7126808 4.281744 13.0942764 7.9075012l5.3135529 5.0478687c.9043503.8591309 1.9306374 1.5809288 3.0456924 2.1400337 6.1208649 3.0690804 11.5376625 6.3708191 14.6778488 9.2180977.8492508.7700348 1.3241005 1.8879662 1.223217 3.0298958-.0964928 1.092247-.678772 1.7397079-1.7797241 1.912262l3.4301987 3.3935127c.5370712.5313225.9197159 1.2077942 1.0516663 1.9516602.2514496 1.4175797-.4152756 2.6263084-1.9234543 3.0431023-.420723 1.3558846-1.1670532 2.2199287-2.2270699 2.6101036-.6668549.2454605-1.3988342.2546539-2.0851974.0706711-1.7394943-.4662781-3.3608818-1.0428658-4.7889977-1.8000069.852169 3.2825661-.5632133 4.4179878-3.8947983 3.9974098-.9860802-.1244812-1.9514427-.3784714-2.8811836-.729805l-12.6428794-4.7774925c-.7854919 1.0897026-1.6357117 1.1009598-3.1455994.5452347-3.2124958-.91222-6.4466839-1.9837074-9.4847012-3.5857162-1.1376572-.5999107-2.1223927-1.453083-2.9031696-2.4751129l-4.5849428-6.0016327c-1.1512785-1.5070114-1.7749815-3.3508263-1.7749815-5.2472725v-4.5488434c0-.8102875-.2734928-1.5968552-.7761965-2.2323494l-1.4466906-1.8288383c-5.2202033-3.5510006 4.2375633-17.4545651 9.4577733-13.9035664z" fill="#ffc239"/></g><g><path d="m64.0179596 61.0333557c-.4218369 1.3538284-1.1652641 2.2194481-2.2305565 2.6078224-.6659431.2552147-1.398262.2552147-2.0864182.0776901-1.7309647-.4660645-3.3624954-1.0431442-4.7827034-1.7977486.8545113 3.2736969-.5662384 4.4166794-3.8954086 3.9949799-.9875336-.1220551-1.9528503-.3772736-2.8851166-.7323914l-12.6396255-4.7717934c-.7881317 1.0875053-1.6423683 1.0986137-3.1517143.5437508-3.2069798-.9099808-6.4475555-1.9864464-9.4770775-3.5844498-1.1430473-.5992279-2.1305809-1.4537354-2.9073334-2.4746628l-4.5832968-6.0035706c-1.1541557-1.5092735-1.7753944-3.351387-1.7753944-5.2490349v-4.549839c0-.8100777-.2774305-1.5980034-.7770233-2.2305527l-1.4424229-1.8310051c-5.2270236-3.5511265 4.2389469-17.4559898 9.4545908-13.9048615l2.8631725 1.4093704c.210783.0998363.4326725.1997414.6548347.2995777-.4773769 1.6313286-.7325916 3.3847103-.7325916 5.1935654 0 9.3549557 6.8691216 16.945425 15.3475571 16.945425 4.3169746 0 8.22295-1.9752731 10.9972572-5.1380234 5.0270805 2.674469 9.3551636 5.4376717 12.0406036 7.8679657.8545113.7657127 1.3316154 1.8865433 1.2319145 3.0295219-.0999718 1.0875092-.6770515 1.7422752-1.7867737 1.9087601l3.429142 3.3957481c.5437546.5326462.9208832 1.2095604 1.054184 1.953125.255211 1.4204105-.4107284 2.6300396-1.9197997 3.0406307z" fill="#f9ac00"/></g><g><g><path d="m55.5395241 62.220768c-.2107849-.0887985-.421566-.1887016-.6212425-.2996483 0 0-1.7423401-3.1072083-8.5339737-5.659626-4.7827034-1.7866402-6.8469048-3.151577-7.6347656-3.7952347-.2329979-.188633-.1996765-.554863.0555382-.6880226.0663795-.0332565.1330261-.0554733.2107849-.0554733.0888634 0 .1774559.0332565.2552147.0887985 2.03088 1.5757866 4.871563 2.8963585 8.0232773 4.1059189 4.483322 1.5092735 7.5906028 3.495655 8.2451667 6.3032875z" fill="#e59303"/></g><g><path d="m64.3839798 60.9112358c-.1108093.0444298-.2329941.0887947-.3660202.1221199-.3885117-3.1960068-4.1392479-4.9604988-8.1121407-6.6250801l-5.2822952-1.7422752c-.2329979-.0776901-.3218613-.3772697-.1555138-.5659714.0666504-.0776176.1666222-.1331596.2665939-.1331596.0444336 0 .0774879.0111084.1108131.0222168 3.1406021.9765625 6.0923653 2.0751762 8.644783 3.3624916 2.7187692 1.3427238 4.7496454 3.0073089 4.8937799 5.559658z" fill="#e59303"/></g><g><path d="m61.4577789 52.6481438-12.4565925-6.7735329-.1467934 1.3840637z" fill="#e59303"/></g><g><path d="m25.1443253 44.9756279v1.6841888c0 .0880203.0292072.1735535.0830402.2431908l1.9182167 2.4813881c.0267887.0346565.0591221.0646477.0956898.0887604l5.5822525 3.6811256c2.0975266 1.8421783 3.1183853 4.1947861 2.6746063 7.2576332-.3774033.5215378-.7659149.7989655-1.2430229.8766556 2.1741982-4.7016411-1.8532143-8.4702454-6.7878399-10.5308342-.0533752-.0222855-.1112385-.0330696-.1690655-.0317574l-2.8420353.0645866c.7253628-.2555962 1.347147-.5593758 1.6515465-1.0113564.0819721-.1217155.064661-.2871552-.0127659-.411808l-1.5335484-2.4689713c-.0662231-.106617-.0782204-.2382431-.0323658-.3550758z" fill="#e59303"/></g></g><g><path d="m33.3783836 61.2552452c-.3107529-.0443649-.6437263-.1553078-1.0319672-.2995796-1.6534748-.4660645-3.3069515-.9765587-4.9382114-1.5757866-.0111084-.0111084-.0111084-.0111084-.0111084-.0111084-.0008469-.0112801-.0016575-.0225334-.0024338-.0337601-.102787-1.4888458 1.1769657-2.7542458 2.6674519-2.6789551.5802765.0293159 1.1597881.1438637 1.7374401.3562126.8341694.3066483 1.5473118.9498138 1.8332729 1.7912979.2416993.7112428.2034684 1.5145913-.2544441 2.4516793z" fill="#3c4043"/></g><g><path d="m33.3824997 61.2507133c-.3117104-.0401917-.6433067-.1507645-1.0352783-.2915268-1.658947-.472538-3.3075848-.9752045-4.9363441-1.5783806-.0100632-.0100632-.0100632-.0100632-.0100632-.0100632 0-.0100632-.0100632-.0200653-.0100632-.0401917-.0402508-.5428581.1106949-1.0555878.3821545-1.4778709.4724789.6736183 1.2667313 1.1059036 2.1613693 1.1059036 1.1160278 0 2.08111-.6836205 2.4730816-1.6487617.5630455.351841 1.0053329.8645744 1.2264786 1.4979362.2412681.7037469.2012634 1.5080034-.2513352 2.4429551z" fill="#303335"/></g></g></g></g></g></g></g></g><g><g><g><path d="m57.621666 13.0952559-5.5800858 3.2427721-.085598 25.9236984 5.6173096 3.2431412 5.5800361-3.2427712.0855942-25.9237003z" fill="#eb4336"/></g><g><g enable-background="new"><g><g><path d="m63.2389297 16.3383961-.0856056 25.9236965-5.5800476 3.2427711.0856056-25.9236965z" fill="#e5372e"/></g></g><g><g><path d="m57.6588821 19.5811672-.0856056 25.9236965-5.6172828-3.2431373.0856056-25.9236984z" fill="#d32626"/></g></g><g><g><path d="m63.2389297 16.3383961-5.5800476 3.2427711-5.6172828-3.2431392 5.5800514-3.2427712z" fill="#eb4336"/></g></g></g></g><g><path d="m54.124485 26.256813-.0857048 21.3025971-5.5797653 3.2424278-5.6171494-3.2435303.0845757-21.3014946 5.5808945-3.2435302z" fill="#34a853"/></g><g><g enable-background="new"><g><g><path d="m54.1243324 26.2566471-.0856056 21.3022709-5.5800476 3.2427711.0856018-21.3022708z" fill="#2f9b48"/></g></g><g><g><path d="m48.544281 29.4994183-.0856018 21.3022708-5.6172829-3.2431373.0856057-21.3022728z" fill="#238230"/></g></g><g><g><path d="m54.1243324 26.2566471-5.5800514 3.2427712-5.617279-3.2431393 5.5800476-3.2427712z" fill="#34a853"/></g></g></g></g><g><g><path d="m45.0101013 40.7961159-.0856514 12.0597038-5.5798225 3.2424202-5.6182213-3.2424202.0856514-12.0597038 5.5808945-3.2424317z" fill="#3293fc"/></g><g><g enable-background="new"><g><g><path d="m45.0097351 40.7963257-.0856056 12.0594215-5.5800514 3.2427712.0856056-12.0594216z" fill="#1d80ed"/></g></g><g><g><path d="m39.4296837 44.0390968-.0856056 12.0594216-5.6172791-3.2431412.0856056-12.0594215z" fill="#0f7ed1"/></g></g><g><g><path d="m45.0097351 40.7963257-5.5800514 3.2427711-5.6172791-3.2431411 5.5800476-3.2427712z" fill="#3293fc"/></g></g></g></g></g></g><g><g><path d="m59.1253433 10.8947868c.010849.2871971-.1968575.6168432-.4199486.7459908-.0812759.0469646-.1643562.0668316-.2402496.0505753l-1.7999191-.4018955c-6.0203171 13.9037704-13.8495903 23.9619884-23.5384102 30.06357-.1337051.0776749-.2502136.083992-.3296776.0325203.0018082.0018005.0036163.0036087.0063477.0054169l-1.7818832-1.0359001c-.0749664-.0442505-.1201248-.1354675-.1201248-.2664261l-.0081577-2.8385544c-.0008812-.1517258.0605469-.3242226.1571674-.4687271.0632362-.0948257.1408939-.1779137.2266655-.2348099 3.2802162-2.1973305 6.2578278-4.9347343 8.9835091-8.1218987 2.2325668-2.6100636 4.296196-5.5226746 6.2171669-8.6899719 1.8261604-3.0092468 3.5231552-6.2496977 5.1153717-9.6770916l-1.6292572-.9464903c-.2131271-.1246328-.1345444-.6096163.1707039-.8986206l3.2404404-3.0697565 3.1528587-2.9875679c.0433502-.0406423.0866966-.0731537.1291656-.0984442.1146545-.0659271.222168-.0731537.2998238-.027997l1.7719193 1.0295765v.0008986l.0045395.002712c.0740433.0397382.1228142.1264412.1273575.2546849z" fill="#3c4043"/></g><g><path d="m53.6261368 10.5515966-1.7827644-1.0358934c-1.6640968 3.628582-3.4437332 7.051033-5.3656731 10.2193756l1.7821922 1.0360603c1.9220276-3.1683445 3.7017975-6.5908279 5.3662453-10.2195425z" fill="#303335"/></g><g><g><g><path d="m58.4396935 3.0927548c.2185478-.1262035.4120064-.039232.421463.224195l.2646446 7.5782566c.0101509.2872-.1969185.6163425-.4207191.7455559-.0808067.0466537-.1637535.0672388-.2395096.0504169l-1.8002281-.4014549c-6.0204124 13.9034081-13.8496552 23.9619198-23.5389061 30.063715-.2513313.1456223-.4423027.0400696-.4430656-.228672l-.0080452-2.838501c-.0007133-.2511177.1659012-.5583572.3837967-.704071 8.6533966-5.7984123 15.2082558-15.3468037 20.5667076-27.031004l-1.8158073-.3805151c-.2889557-.0608091-.2257996-.6076317.1071167-.9226208l6.3932304-6.0571017c.0432509-.0409712.0867766-.0736305.129322-.0981989z" fill="#3c4043"/></g></g><g><g><path d="m58.3107109 3.1910431c.042469-.0406423.0867004-.0740578.1291656-.0984387.1138191-.0659325.221241-.0731592.2989426-.0280025l-1.7818832-1.0358937c-.0776558-.0451567-.1851692-.0379301-.2998238.027997-.042469.0252905-.0858154.057802-.1291656.0984442l-3.15308 2.9873638 1.7824554 1.0362134z" fill="#1d1e1e"/></g><g><path d="m55.1573219 6.1787267-1.7824554-1.0362134-3.2402191 3.0699606c-.3052483.2890043-.383831.7739878-.1707039.8986206l1.7828102 1.0358992c-.2140541-.1246328-.1354713-.6096163.1706581-.8986206z" fill="#252728"/></g></g><g><g><path d="m30.8933201 37.2500839.0081577 2.8385544c0 .1309586.0451584.2221756.1201248.2664261l1.7818832 1.0359001c-.0749664-.0442581-.120121-.1363754-.120121-.2664261l-.0081177-2.8385544c-.0005722-.1520004.0610771-.3241005.157608-.4688492l-1.7821484-1.0360756c-.0965746.1447869-.157915.3169633-.1573866.4690247z" fill="#1d1e1e"/></g><g><path d="m48.2598915 20.7711391-1.7821922-1.0360603c-1.9208832 3.1666737-3.9842033 6.0790653-6.2165985 8.6893215l1.7819748 1.0359497c2.2324791-2.6102466 4.2957992-5.5225811 6.2168159-8.6892109z" fill="#1d1e1e"/></g><g><path d="m33.059082 37.5824394c3.2799492-2.1979408 6.258049-4.9348679 8.9839935-8.1220894l-1.7819748-1.0359497c-2.7260323 3.187439-5.704174 5.9244385-8.9839478 8.1221466-.0861683.0573387-.1636047.1402435-.2264462.2345123l1.7821484 1.0360756c.0629312-.0943412.1403238-.1773185.2262269-.2346954z" fill="#303335"/></g></g></g></g></g></g></svg>