<svg id="Layer_1" enable-background="new 0 0 52 52" height="512" viewBox="0 0 52 52" width="512" xmlns="http://www.w3.org/2000/svg" xmlns:xlink="http://www.w3.org/1999/xlink"><linearGradient id="lg1"><stop offset="0" stop-color="#e3e7f0"/><stop offset="1" stop-color="#9ea9c9"/></linearGradient><linearGradient id="SVGID_1_" gradientUnits="userSpaceOnUse" x1="26" x2="26" xlink:href="#lg1" y1="36.489" y2="47.756"/><linearGradient id="SVGID_2_" gradientUnits="userSpaceOnUse" x1="26" x2="26" xlink:href="#lg1" y1="18.648" y2="15.86"/><linearGradient id="SVGID_3_" gradientUnits="userSpaceOnUse" x1="26" x2="26" xlink:href="#lg1" y1="21.858" y2="48.13"/><linearGradient id="lg2"><stop offset="0" stop-color="#e3e7f0" stop-opacity="0"/><stop offset="1" stop-color="#9ea9c9" stop-opacity=".7"/></linearGradient><linearGradient id="SVGID_4_" gradientUnits="userSpaceOnUse" x1="26.087" x2="17.72" xlink:href="#lg2" y1="50.695" y2="42.886"/><linearGradient id="SVGID_5_" gradientUnits="userSpaceOnUse" x1="33.124" x2="28.95" xlink:href="#lg2" y1="33.033" y2="28.522"/><linearGradient id="SVGID_6_" gradientUnits="userSpaceOnUse" x1="21.049" x2="16.228" xlink:href="#lg2" y1="33.297" y2="28.189"/><linearGradient id="SVGID_7_" gradientUnits="userSpaceOnUse" x1="46.196" x2="40.608" xlink:href="#lg2" y1="33.429" y2="27.706"/><linearGradient id="SVGID_8_" gradientUnits="userSpaceOnUse" x1="45.738" x2="29.849" xlink:href="#lg2" y1="55.333" y2="42.621"/><linearGradient id="SVGID_9_" gradientUnits="userSpaceOnUse" x1="26" x2="26" y1="2.828" y2="13.552"><stop offset="0" stop-color="#fe90a9"/><stop offset="1" stop-color="#cc104a"/></linearGradient><linearGradient id="lg3"><stop offset="0" stop-color="#57b3fe"/><stop offset="1" stop-color="#497bfe"/></linearGradient><linearGradient id="SVGID_10_" gradientUnits="userSpaceOnUse" x1="9.396" x2="18.142" xlink:href="#lg3" y1="38.619" y2="38.619"/><linearGradient id="SVGID_11_" gradientUnits="userSpaceOnUse" x1="49.443" x2="42.064" xlink:href="#lg2" y1="55.734" y2="42.29"/><linearGradient id="SVGID_12_" gradientUnits="userSpaceOnUse" x1="34.281" x2="43.028" xlink:href="#lg3" y1="25.455" y2="25.455"/><linearGradient id="SVGID_13_" gradientUnits="userSpaceOnUse" x1="21.838" x2="30.585" xlink:href="#lg3" y1="38.619" y2="38.619"/><linearGradient id="SVGID_14_" gradientUnits="userSpaceOnUse" x1="38.655" x2="38.655" xlink:href="#lg3" y1="37.152" y2="42.047"/><linearGradient id="SVGID_15_" gradientUnits="userSpaceOnUse" x1="9.396" x2="18.142" xlink:href="#lg3" y1="25.455" y2="25.455"/><linearGradient id="SVGID_16_" gradientUnits="userSpaceOnUse" x1="21.838" x2="30.585" xlink:href="#lg3" y1="25.455" y2="25.455"/><g id="_x39_9"><g><g><g><path d="m2 39.4c0 5.9 4.7 10.6 10.6 10.6h26.9c5.8 0 10.5-4.7 10.5-10.6v-24.1c0-1.5-48-1.5-48 0z" fill="url(#SVGID_1_)"/></g><g><path d="m2 15.3v5.5h48v-5.5c0-1.5-48-1.5-48 0z" fill="url(#SVGID_2_)"/><path d="m11.1 49.9c.5.1 1 .1 1.5.1h26.9c.5 0 1 0 1.5-.1z" fill="url(#SVGID_3_)"/></g><g><path d="m17.5 35.6-7.6 6.5 6.8 6.8 1.1 1.1h12.4l-7.5-7.4z" fill="url(#SVGID_4_)"/></g><path d="m35.2 27.8-5.3-5.4-7.5 6.5 6.8 6.8h6.4z" fill="url(#SVGID_5_)"/><path d="m22.4 28.9h1.5l-6.4-6.5-7.6 6.5 7.1 7.1h5.8z" fill="url(#SVGID_6_)"/><g><path d="m48.5 35.8v-7.2l-6.1-6.1-7.6 6.4 6.8 6.9z" fill="url(#SVGID_7_)"/></g><g><path d="m29.9 35.6-7.6 6.5 7.9 7.9h9.2c1 0 2-.2 2.9-.4l-7.1-7z" fill="url(#SVGID_8_)"/></g><path d="m39.4 2h-26.8c-5.9 0-10.6 4.7-10.6 10.6v3.6h48v-3.6c0-5.9-4.7-10.6-10.6-10.6zm-23.8 10.4c-2.1 0-3.7-1.7-3.7-3.7 0-2.1 1.7-3.7 3.7-3.7 2.1 0 3.7 1.7 3.7 3.7s-1.7 3.7-3.7 3.7zm20.8 0c-2.1 0-3.7-1.7-3.7-3.7s1.7-3.7 3.7-3.7c2.1 0 3.7 1.7 3.7 3.7.1 2-1.6 3.7-3.7 3.7z" fill="url(#SVGID_9_)"/><path d="m40.2 21.5h-3.2c-1.5 0-2.8 1.2-2.8 2.8v3.2c0 1.5 1.2 2.8 2.8 2.8h3.2c1.5 0 2.8-1.2 2.8-2.8v-3.2c0-1.6-1.2-2.8-2.8-2.8z" fill="#4563f4"/><g><path d="m15.4 34.6h-3.2c-1.5 0-2.8 1.2-2.8 2.8v3.2c0 1.5 1.2 2.8 2.8 2.8h3.2c1.5 0 2.8-1.2 2.8-2.8v-3.2c-.1-1.5-1.3-2.8-2.8-2.8z" fill="#4563f4"/><path d="m15.4 34.6h-3.2c-1.5 0-2.8 1.2-2.8 2.8v2.4c0 1.5 1.2 2.8 2.8 2.8h3.2c1.5 0 2.8-1.2 2.8-2.8v-2.4c-.1-1.5-1.3-2.8-2.8-2.8z" fill="url(#SVGID_10_)"/></g><g><path d="m49.5 42.7-7.1-7.1-7.6 6.5 7.5 7.5c3.4-1 6.1-3.5 7.2-6.9z" fill="url(#SVGID_11_)"/></g></g><path d="m40.2 21.5h-3.2c-1.5 0-2.8 1.2-2.8 2.8v2.4c0 1.5 1.2 2.8 2.8 2.8h3.2c1.5 0 2.8-1.2 2.8-2.8v-2.4c0-1.6-1.2-2.8-2.8-2.8z" fill="url(#SVGID_12_)"/><path d="m27.8 34.6h-3.2c-1.5 0-2.8 1.2-2.8 2.8v3.2c0 1.5 1.2 2.8 2.8 2.8h3.2c1.5 0 2.8-1.2 2.8-2.8v-3.2c0-1.5-1.3-2.8-2.8-2.8z" fill="#4563f4"/><path d="m40.2 34.6h-3.2c-1.5 0-2.8 1.2-2.8 2.8v3.2c0 1.5 1.2 2.8 2.8 2.8h3.2c1.5 0 2.8-1.2 2.8-2.8v-3.2c0-1.5-1.2-2.8-2.8-2.8z" fill="#4563f4"/><path d="m27.8 34.6h-3.2c-1.5 0-2.8 1.2-2.8 2.8v2.4c0 1.5 1.2 2.8 2.8 2.8h3.2c1.5 0 2.8-1.2 2.8-2.8v-2.4c0-1.5-1.3-2.8-2.8-2.8z" fill="url(#SVGID_13_)"/><path d="m40.2 34.6h-3.2c-1.5 0-2.8 1.2-2.8 2.8v2.4c0 1.5 1.2 2.8 2.8 2.8h3.2c1.5 0 2.8-1.2 2.8-2.8v-2.4c0-1.5-1.2-2.8-2.8-2.8z" fill="url(#SVGID_14_)"/></g><g><path d="m15.4 21.5h-3.2c-1.5 0-2.8 1.2-2.8 2.8v3.2c0 1.5 1.2 2.8 2.8 2.8h3.2c1.5 0 2.8-1.2 2.8-2.8v-3.2c-.1-1.6-1.3-2.8-2.8-2.8z" fill="#4563f4"/><path d="m15.4 21.5h-3.2c-1.5 0-2.8 1.2-2.8 2.8v2.4c0 1.5 1.2 2.8 2.8 2.8h3.2c1.5 0 2.8-1.2 2.8-2.8v-2.4c-.1-1.6-1.3-2.8-2.8-2.8z" fill="url(#SVGID_15_)"/></g><g><path d="m27.8 21.5h-3.2c-1.5 0-2.8 1.2-2.8 2.8v3.2c0 1.5 1.2 2.8 2.8 2.8h3.2c1.5 0 2.8-1.2 2.8-2.8v-3.2c0-1.6-1.3-2.8-2.8-2.8z" fill="#4563f4"/><path d="m27.8 21.5h-3.2c-1.5 0-2.8 1.2-2.8 2.8v2.4c0 1.5 1.2 2.8 2.8 2.8h3.2c1.5 0 2.8-1.2 2.8-2.8v-2.4c0-1.6-1.3-2.8-2.8-2.8z" fill="url(#SVGID_16_)"/></g></g></svg>