<svg id="Capa_1" enable-background="new 0 0 510 510" height="512" viewBox="0 0 510 510" width="512" xmlns="http://www.w3.org/2000/svg" xmlns:xlink="http://www.w3.org/1999/xlink"><linearGradient id="lg1"><stop offset="0" stop-color="#a8d3d8"/><stop offset="1" stop-color="#7ca1b1"/></linearGradient><linearGradient id="SVGID_1_" gradientUnits="userSpaceOnUse" x1="375.555" x2="500.692" xlink:href="#lg1" y1="238.117" y2="366.505"/><linearGradient id="lg2"><stop offset="0" stop-color="#596c76" stop-opacity="0"/><stop offset="1" stop-color="#596c76"/></linearGradient><linearGradient id="SVGID_00000047030157403825627650000017137377073944223630_" gradientUnits="userSpaceOnUse" x1="497.464" x2="417.831" xlink:href="#lg2" y1="290.89" y2="274.638"/><linearGradient id="SVGID_00000115490123541122778740000010699840887729866676_" gradientUnits="userSpaceOnUse" x1="428.031" x2="428.031" xlink:href="#lg2" y1="381.469" y2="468.175"/><linearGradient id="SVGID_00000183216229874462241080000009292422754317550738_" gradientUnits="userSpaceOnUse" x1="171.287" x2="374.43" y1="205.987" y2="409.13"><stop offset="0" stop-color="#eaf6ff"/><stop offset="1" stop-color="#b3dafe"/></linearGradient><linearGradient id="lg3"><stop offset="0" stop-color="#7bacdf" stop-opacity="0"/><stop offset="1" stop-color="#7bacdf"/></linearGradient><linearGradient id="SVGID_00000031206595716320031900000012889767926559624066_" gradientUnits="userSpaceOnUse" x1="388.301" x2="447.634" xlink:href="#lg3" y1="275.891" y2="282.558"/><linearGradient id="SVGID_00000034059003772120302730000014237906155367984312_" gradientUnits="userSpaceOnUse" x1="220.033" x2="220.033" xlink:href="#lg3" y1="397.721" y2="468.148"/><linearGradient id="SVGID_00000050637270287269618920000010552120766180750738_" gradientUnits="userSpaceOnUse" x1="239.338" x2="256.674" y1="55.206" y2="183.058"><stop offset="0" stop-color="#fd4755"/><stop offset="1" stop-color="#c41926"/></linearGradient><linearGradient id="lg4"><stop offset="0" stop-color="#a72b2b" stop-opacity="0"/><stop offset="1" stop-color="#42210b"/></linearGradient><linearGradient id="SVGID_00000114791257895606361000000012210333255758665603_" gradientUnits="userSpaceOnUse" x1="168.593" x2="88.593" xlink:href="#lg4" y1="127.159" y2="46.492"/><linearGradient id="SVGID_00000101803872274815871900000006489687152194363801_" gradientUnits="userSpaceOnUse" x1="247.835" x2="167.835" xlink:href="#lg4" y1="127.159" y2="46.492"/><linearGradient id="SVGID_00000176011560829615183990000003346307417016540833_" gradientUnits="userSpaceOnUse" x1="328.01" x2="248.01" xlink:href="#lg4" y1="127.159" y2="46.492"/><linearGradient id="SVGID_00000002365291097076081360000009467173812515407234_" gradientUnits="userSpaceOnUse" x1="407.718" x2="327.718" xlink:href="#lg4" y1="127.159" y2="46.492"/><linearGradient id="SVGID_00000016789405812952467860000006326779023039785872_" gradientUnits="userSpaceOnUse" x1="479.493" x2="377.493" xlink:href="#lg4" y1="139.191" y2="77.858"/><linearGradient id="SVGID_00000181772572829835975770000015041502647262728069_" gradientUnits="userSpaceOnUse" x1="73.881" x2="191.982" xlink:href="#lg1" y1="177.373" y2="588.018"/><linearGradient id="SVGID_00000163752106107282283670000008708851836434962362_" gradientUnits="userSpaceOnUse" x1="164.739" x2="282.84" xlink:href="#lg1" y1="151.242" y2="561.887"/><linearGradient id="SVGID_00000054981726800846368390000007442535308443308455_" gradientUnits="userSpaceOnUse" x1="255.598" x2="373.699" xlink:href="#lg1" y1="125.112" y2="535.756"/><linearGradient id="SVGID_00000029752811973430825740000018192815879674169475_" gradientUnits="userSpaceOnUse" x1="346.456" x2="464.557" xlink:href="#lg1" y1="98.981" y2="509.625"/><linearGradient id="SVGID_00000025425637918578996870000010697635464853466525_" gradientUnits="userSpaceOnUse" x1="41.697" x2="159.798" xlink:href="#lg1" y1="186.629" y2="597.274"/><linearGradient id="SVGID_00000138562143188590320990000010550207177426319767_" gradientUnits="userSpaceOnUse" x1="132.555" x2="250.656" xlink:href="#lg1" y1="160.499" y2="571.143"/><linearGradient id="SVGID_00000029755985893603066780000009735226549309439115_" gradientUnits="userSpaceOnUse" x1="223.413" x2="341.514" xlink:href="#lg1" y1="134.368" y2="545.012"/><linearGradient id="SVGID_00000165919640803345765540000008340848552746367899_" gradientUnits="userSpaceOnUse" x1="314.272" x2="432.373" xlink:href="#lg1" y1="108.237" y2="518.881"/><linearGradient id="SVGID_00000127766138457042581340000018151646654172938391_" gradientUnits="userSpaceOnUse" x1="9.512" x2="127.613" xlink:href="#lg1" y1="195.885" y2="606.53"/><linearGradient id="SVGID_00000085236642118264967130000007939680434728931516_" gradientUnits="userSpaceOnUse" x1="100.371" x2="218.472" xlink:href="#lg1" y1="169.755" y2="580.399"/><linearGradient id="SVGID_00000024685863918513565840000016278400711582965891_" gradientUnits="userSpaceOnUse" x1="191.229" x2="309.33" xlink:href="#lg1" y1="143.624" y2="554.269"/><linearGradient id="lg5"><stop offset="0" stop-color="#fee45a"/><stop offset="1" stop-color="#fea613"/></linearGradient><linearGradient id="SVGID_00000016041630575487150270000017834743074954673317_" gradientUnits="userSpaceOnUse" x1="66.695" x2="111.693" xlink:href="#lg5" y1="69.559" y2="90.558"/><linearGradient id="SVGID_00000103247042471920904770000016268207347229778583_" gradientUnits="userSpaceOnUse" x1="146.404" x2="191.401" xlink:href="#lg5" y1="69.559" y2="90.558"/><linearGradient id="SVGID_00000067220578414399228500000009478910475048673674_" gradientUnits="userSpaceOnUse" x1="226.112" x2="271.11" xlink:href="#lg5" y1="69.559" y2="90.558"/><linearGradient id="SVGID_00000106138701561038486110000016778596445991137982_" gradientUnits="userSpaceOnUse" x1="305.821" x2="350.818" xlink:href="#lg5" y1="69.559" y2="90.558"/><linearGradient id="SVGID_00000003816756801095378010000007407042362682763672_" gradientUnits="userSpaceOnUse" x1="385.529" x2="430.527" xlink:href="#lg5" y1="69.559" y2="90.558"/><g><g><g><path d="m479.583 467.402h-121.349l-44.218-390.733h135.659c11.243 0 20.695 8.442 21.959 19.614l38.17 337.286c2.04 18.036-12.07 33.833-30.221 33.833z" fill="url(#SVGID_1_)"/><path d="m479.583 467.402h-121.349l-44.218-390.733h135.659c11.243 0 20.695 8.442 21.959 19.614l38.17 337.286c2.04 18.036-12.07 33.833-30.221 33.833z" fill="url(#SVGID_00000047030157403825627650000017137377073944223630_)"/><path d="m358.234 467.402h121.351c18.15-.001 32.259-15.798 30.218-33.833l-8.343-73.72h-155.397z" fill="url(#SVGID_00000115490123541122778740000010699840887729866676_)"/></g><path d="m403.734 467.402h-377.679c-15.548 0-27.635-13.531-25.886-28.981l37.581-332.081c1.913-16.901 16.21-29.671 33.218-29.671h380.981c10.75 0 19.106 9.355 17.897 20.037l-39.234 346.688c-1.547 13.675-13.116 24.008-26.878 24.008z" fill="url(#SVGID_00000183216229874462241080000009292422754317550738_)"/><path d="m451.949 76.669h-196.949v390.733h148.734c13.762 0 25.331-10.333 26.878-24.008l39.234-346.688c1.209-10.681-7.148-20.037-17.897-20.037z" fill="url(#SVGID_00000031206595716320031900000012889767926559624066_)"/><path d="m9.06 359.849-8.892 78.572c-1.748 15.449 10.338 28.981 25.886 28.981h377.679c13.762 0 25.331-10.333 26.878-24.008l9.455-83.545z" fill="url(#SVGID_00000034059003772120302730000014237906155367984312_)"/><path d="m451.949 76.669h-380.981c-17.009 0-31.306 12.77-33.218 29.671l-7.697 68.012h431.006l8.787-77.646c1.209-10.681-7.148-20.037-17.897-20.037z" fill="url(#SVGID_00000050637270287269618920000010552120766180750738_)"/><path d="m196.827 76.669h-115.953v40.999l56.684 56.685h59.269z" fill="url(#SVGID_00000114791257895606361000000012210333255758665603_)"/><path d="m276.07 76.669h-115.954v40.999l56.684 56.685h59.27z" fill="url(#SVGID_00000101803872274815871900000006489687152194363801_)"/><path d="m356.244 76.669h-115.953v40.999l56.684 56.685h59.269z" fill="url(#SVGID_00000176011560829615183990000003346307417016540833_)"/><path d="m435.953 76.669h-115.954v40.999l56.684 56.685h59.27z" fill="url(#SVGID_00000002365291097076081360000009467173812515407234_)"/><path d="m451.949 76.669h-52.105v40.999l56.684 56.684h4.531l8.787-77.646c1.209-10.681-7.148-20.037-17.897-20.037z" fill="url(#SVGID_00000016789405812952467860000006326779023039785872_)"/><g><path d="m60.028 264.451h52.378c8.126 0 15.57-6.587 16.627-14.713l4.087-31.421c1.057-8.126-4.673-14.713-12.799-14.713h-52.378c-8.126 0-15.57 6.587-16.627 14.713l-4.087 31.421c-1.056 8.126 4.674 14.713 12.799 14.713z" fill="url(#SVGID_00000181772572829835975770000015041502647262728069_)"/><path d="m158.402 264.451h52.378c8.126 0 15.57-6.587 16.627-14.713l4.087-31.421c1.057-8.126-4.673-14.713-12.799-14.713h-52.378c-8.126 0-15.57 6.587-16.627 14.713l-4.087 31.421c-1.057 8.126 4.673 14.713 12.799 14.713z" fill="url(#SVGID_00000163752106107282283670000008708851836434962362_)"/><path d="m317.069 203.604h-52.379c-8.126 0-15.57 6.587-16.627 14.713l-4.087 31.421c-1.057 8.126 4.673 14.713 12.799 14.713h52.378c8.126 0 15.57-6.587 16.627-14.713l4.087-31.421c1.057-8.125-4.673-14.713-12.798-14.713z" fill="url(#SVGID_00000054981726800846368390000007442535308443308455_)"/><path d="m415.442 203.604h-52.378c-8.126 0-15.57 6.587-16.627 14.713l-4.087 31.421c-1.057 8.126 4.673 14.713 12.799 14.713h52.378c8.126 0 15.57-6.587 16.627-14.713l4.087-31.421c1.057-8.125-4.673-14.713-12.799-14.713z" fill="url(#SVGID_00000029752811973430825740000018192815879674169475_)"/><path d="m109.469 287.034h-52.378c-8.126 0-15.57 6.587-16.626 14.713l-4.087 31.421c-1.057 8.126 4.673 14.713 12.799 14.713h52.378c8.126 0 15.57-6.587 16.627-14.713l4.087-31.421c1.056-8.126-4.674-14.713-12.8-14.713z" fill="url(#SVGID_00000025425637918578996870000010697635464853466525_)"/><path d="m207.843 287.034h-52.378c-8.126 0-15.57 6.587-16.627 14.713l-4.087 31.421c-1.057 8.126 4.673 14.713 12.799 14.713h52.378c8.126 0 15.57-6.587 16.627-14.713l4.087-31.421c1.057-8.126-4.674-14.713-12.799-14.713z" fill="url(#SVGID_00000138562143188590320990000010550207177426319767_)"/><path d="m306.216 287.034h-52.378c-8.126 0-15.57 6.587-16.627 14.713l-4.087 31.421c-1.057 8.126 4.673 14.713 12.799 14.713h52.378c8.126 0 15.57-6.587 16.627-14.713l4.087-31.421c1.057-8.126-4.673-14.713-12.799-14.713z" fill="url(#SVGID_00000029755985893603066780000009735226549309439115_)"/><path d="m404.59 287.034h-52.378c-8.126 0-15.57 6.587-16.627 14.713l-4.087 31.421c-1.057 8.126 4.673 14.713 12.799 14.713h52.378c8.126 0 15.57-6.587 16.627-14.713l4.087-31.421c1.057-8.126-4.674-14.713-12.799-14.713z" fill="url(#SVGID_00000165919640803345765540000008340848552746367899_)"/><path d="m98.617 370.463h-52.378c-8.126 0-15.57 6.587-16.627 14.713l-4.087 31.421c-1.057 8.126 4.673 14.713 12.799 14.713h52.378c8.126 0 15.57-6.587 16.627-14.713l4.087-31.421c1.057-8.126-4.673-14.713-12.799-14.713z" fill="url(#SVGID_00000127766138457042581340000018151646654172938391_)"/><path d="m196.99 370.463h-52.378c-8.126 0-15.57 6.587-16.627 14.713l-4.087 31.421c-1.057 8.126 4.673 14.713 12.799 14.713h52.378c8.126 0 15.57-6.587 16.627-14.713l4.087-31.421c1.057-8.126-4.673-14.713-12.799-14.713z" fill="url(#SVGID_00000085236642118264967130000007939680434728931516_)"/><path d="m295.364 370.463h-52.378c-8.126 0-15.57 6.587-16.626 14.713l-4.087 31.421c-1.057 8.126 4.673 14.713 12.799 14.713h52.378c8.126 0 15.57-6.587 16.627-14.713l4.087-31.421c1.056-8.126-4.674-14.713-12.8-14.713z" fill="url(#SVGID_00000024685863918513565840000016278400711582965891_)"/></g></g><g><path d="m95.583 123.482c-11.894 0-21.536-9.642-21.536-21.536v-37.813c0-11.894 9.642-21.536 21.536-21.536 11.894 0 21.536 9.642 21.536 21.536v37.813c0 11.894-9.642 21.536-21.536 21.536z" fill="url(#SVGID_00000016041630575487150270000017834743074954673317_)"/><path d="m175.292 123.482c-11.894 0-21.536-9.642-21.536-21.536v-37.813c0-11.894 9.642-21.536 21.536-21.536 11.894 0 21.536 9.642 21.536 21.536v37.813c-.001 11.894-9.643 21.536-21.536 21.536z" fill="url(#SVGID_00000103247042471920904770000016268207347229778583_)"/><path d="m255 123.482c-11.894 0-21.536-9.642-21.536-21.536v-37.813c0-11.894 9.642-21.536 21.536-21.536 11.894 0 21.536 9.642 21.536 21.536v37.813c0 11.894-9.642 21.536-21.536 21.536z" fill="url(#SVGID_00000067220578414399228500000009478910475048673674_)"/><path d="m334.709 123.482c-11.894 0-21.536-9.642-21.536-21.536v-37.813c0-11.894 9.642-21.536 21.536-21.536 11.894 0 21.536 9.642 21.536 21.536v37.813c-.001 11.894-9.643 21.536-21.536 21.536z" fill="url(#SVGID_00000106138701561038486110000016778596445991137982_)"/><path d="m414.417 123.482c-11.894 0-21.536-9.642-21.536-21.536v-37.813c0-11.894 9.642-21.536 21.536-21.536 11.894 0 21.536 9.642 21.536 21.536v37.813c0 11.894-9.642 21.536-21.536 21.536z" fill="url(#SVGID_00000003816756801095378010000007407042362682763672_)"/></g></g></svg>