<svg id="Layer_1" enable-background="new 0 0 115 115" height="512" viewBox="0 0 115 115" width="512" xmlns="http://www.w3.org/2000/svg"><g id="_x32_33"><g><g><g><path d="m94.6746216 72.3641815c0 .2864609-.1823349.5468521-.5209427.7552643l-64.3582993 37.1669617c-.7032795.3905869-1.8753586.3905869-2.5784779 0l-14.9530048-8.7222366c-.338604-.1823349-.5209417-.4687958-.5209417-.729187l-.1301956-42.0395203c0 .2603912.1823378.5468559.5209417.7552643l14.9528465 8.6961594c.7032776.4166641 1.8753567.4166641 2.5784779 0l64.3584595-37.1669617c.3386078-.1823368.5209427-.442728.5209427-.7032795z" fill="#474746"/></g><g><g enable-background="new"><g><path d="m95.6661606 68.8423691c0 .2932968-.1866913.559906-.5333862.7732925l-65.8948288 38.054306c-.7200699.3999176-1.9201317.3999176-2.6400375 0l-15.3100033-8.9304733c-.3466883-.1866913-.5333786-.4799881-.5333786-.7465973l-.1333036-43.104084c0 .2666054.3964977.1123772.743186.3257599l15.265625 8.8125038c.7200699.4266052 1.6353683.0359802 2.3552742-.3906288l65.786087-37.3996315c.3466873-.1866913.7614594-.1785374.7614594-.4453087z" fill="#333"/></g><g><path d="m95.6767349 68.8327637c0 .3096619-.1991043.5750504-.5529099.7740173l-65.8846893 38.0623627c-.7298775.3980789-1.9241142.3980789-2.631855 0l-15.3266459-8.9351044c-.3318005-.1768341-.5309076-.4643631-.5309076-.7518845v-2.1232224c12.2015362 1.0471649 24.7873898-1.8212891 37.6568756-7.5795822 21.8618622-9.7818069 35.8712158-31.5901909 35.7917252-55.5405273v-.0000343l10.7928085-6.2368374c.3538055-.1769695.5307693-.4423561.5307693-.7077408z" fill="#2d2d2d"/></g><g><g><path d="m11.1572933 54.1201706c-.7321119.4226875-.7359858 1.1108017-.0086308 1.533493l15.3065357 8.9074478c.727354.4226913 1.9153233.4226913 2.6474361.0000076l65.8912811-38.042347c.7321243-.4226933.7359924-1.1108055.0086365-1.5334969l-15.3065338-8.907444c-.727356-.4226923-1.9153137-.4227018-2.6474457-.0000076z" fill="#474746"/></g></g></g></g><g><path d="m91.9830627 12.8627052c-.3999023-.1699829-.8999023-.0900269-1.4599609.2199707l-12.9301758 7.4700318c-.9399414.539978-1.7900391 1.7299805-2.0898438 2.9599609l-1.1796875 4.8400269-31.1801757 18.0200195-14.3798828-8.3699951 31.1796875-18.0100098 1.1704102-4.8200073c.3095703-1.2299805 1.1499023-2.4199829 2.0996094-2.9899902l12.9301757-7.4600215c.6098633-.3599854 1.1699219-.3800049 1.5800781-.1499634z" fill="#dce0f4"/></g><g><path d="m92.1090317 12.93433c-.4079895-.2549715-.9691467-.204071-1.5812073.1530151l-12.9356995 7.46488c-.9436188.5356293-1.7851181 1.7343712-2.0911484 2.9584885l-1.1732101 4.8457165-14.3839836-8.3652058 1.173214-4.8201895c.3060265-1.2241154 1.147686-2.4228582 2.091301-2.9838591l12.9355469-7.4648814c.6120605-.3570852 1.1732178-.3826137 1.5811996-.1530142z" fill="#dce0f4"/></g><g><path d="m74.3277664 28.3564301-31.1853905 18.012886-14.3839817-8.3650513 31.1853886-18.0130405z" fill="#c8cfe8"/></g><g><path d="m92.7833557 25.6026955-65.550293 37.8400269v.0099487l-.0097656-.0099487-14.3803711-8.3500367-.0195313-11.25c0-1.3999634.9897461-3.1400146 2.1899414-3.8200073l12.8798828-7.4499512c.5898438-.3300171 1.1499023-.3800049 1.5600586-.1300049l14.3798828 8.3399658c-.0200195-.0100098-.0400391-.0200195-.0600586-.0200195.2700195.1400146.4702148.3900146.5800781.7400513l1.199707 3.4599609 28.7802734-16.6099854 1.1601563-4.8300171c.3095703-1.2299805 1.1499023-2.4299927 2.0898438-2.9699707l12.9501953-7.4799805c1.2197266-.7000122 2.2099609-.1300049 2.2197266 1.2699585z" fill="#dce0f4"/></g><g><path d="m90.529808 13.0770836c1.2212296-.7050819 2.2177277-.1371765 2.2217102 1.2660856l.031929 11.2637224-65.5556773 37.8485909-.0319329-11.2637215c-.0039768-1.4032631.9860535-3.1180916 2.1910038-3.8137703l12.8785934-7.4354591c.9444199-.5452614 1.8094406-.3324966 2.089222.5554695l1.2004356 3.4674301 28.7763901-16.6140556 1.160614-4.8305817c.3064041-1.2264004 1.1511078-2.4262791 2.0955353-2.9715424z" fill="#eef0fd"/></g><g><path d="m43.8330193 40.7868729c-.4079857-.229599-.9691429-.1785393-1.5556755.1530151l-12.8813629 7.4442978c-1.2241173.688488-2.1932602 2.3973312-2.1932602 3.7999878l.025528 11.2724838-14.3839817-8.3650513-.025529-11.2471084c0-1.4026566.9946728-3.1368752 2.1934156-3.8255157l12.8812103-7.4442978c.5865288-.3315582 1.147686-.3824577 1.5556717-.1274872z" fill="#dce0f4"/></g><g><path d="m89.2229691 17.4922676c.537674-.3104267.9635773-.0514965.9653244.566349l.0133743 4.7149639c.0017471.6178455-.4212952 1.3669167-.9589691 1.6773434l-9.8195801 5.6693382c-.5376816.3104267-.9777374.0596676-.9794846-.5581779l-.0133667-4.7149639c-.0017548-.6178455.4354401-1.3750877.9731216-1.6855145z" fill="#dce0f4"/><path d="m89.4409637 22.78409c0 .3570862-.255127.8161297-.5866852 1.0200443l-8.7221298 5.0242615c-.3570862.204071-.8161316 0-.8925629-.3826141-.025528-.0509014-.025528-.1019592-.025528-.1530151l-.025528-3.4429035c0-.3826141.2805023-.8416576.5865326-1.0202007l8.6967621-4.9985752.0253677-.025528c.4081421-.2551289.9182434.0508995.9182434.5100994z" fill="#c8cfe8"/><path d="m88.5227203 22.4270039c0 .3570862-.2549667.8161297-.586525.9946728l-8.6966095 5.0241051c-.025528-.0509014-.025528-.1019592-.025528-.1530151l-.025528-3.4429035c0-.3826141.2805023-.8416576.5865326-1.0202007l8.6967621-4.9985752c.0253677.0509014.0253677.0764294.0253677.1274853z" fill="#5a74e2"/></g><g><path d="m39.778019 46.0522385c.537674-.3104248.9635773-.0514946.9653282.5663528l.0133667 4.714962c.0017509.6178436-.4212914 1.3669167-.9589691 1.6773415l-9.8195801 5.6693382c-.5376759.3104286-.9777317.0596695-.9794827-.5581779l-.0133667-4.714962c-.0017509-.6178436.4354458-1.3750877.9731216-1.6855164z" fill="#dce0f4"/><path d="m39.9960175 51.3440628c0 .3570862-.255127.8161278-.5866852 1.0200462l-8.7221355 5.0242577c-.3570862.204071-.8161297 0-.8925591-.3826141-.025528-.0508995-.025528-.1019554-.025528-.1530151l-.0255299-3.4429016c0-.3826141.2805023-.8416557.5865307-1.0201988l8.696764-4.9985771.0253716-.025528c.4081421-.2551308.9182434.0508995.9182434.5100975z" fill="#c8cfe8"/><path d="m39.077774 50.9869766c0 .3570862-.2549706.8161278-.5865288.9946709l-8.6966076 5.0241051c-.025528-.0508995-.025528-.1019554-.025528-.1530151l-.0255299-3.4429016c0-.3826141.2805023-.8416557.5865307-1.0201988l8.696764-4.9985771c.0253716.0508995.0253716.0764275.0253716.1274872z" fill="#fa3e3d"/></g><g><g><path d="m99.4671707 63.6264343c-3.0871048-1.7962151-6.6690674-1.0559807-11.3840103 1.6662674-9.3176804 5.388649-16.7466736 17.9665527-16.71875 28.6875153.0280914 5.3324432 1.076088 9.1059418 4.1351089 10.8740616l-25.6261825-14.8650818c-3.0310974-1.767952-4.9114189-5.5287704-4.9395103-10.8612366-.0280952-10.7488632 7.5214615-23.7992668 16.8672371-29.187748 4.7149353-2.7224159 8.9809113-2.9749069 12.0680161-1.2067833z" fill="#222323"/></g><g><path d="m92.1706924 59.3814049c-3.0871124-1.7962151-7.3530807-1.5435524-12.0680237 1.1786957-9.3176804 5.3886452-16.8951569 18.4669762-16.8672333 29.1879158.0280914 5.3324661 1.9085846 9.0931091 4.967598 10.8612366l-8.7314568-5.0357132c-3.0310936-1.767952-4.9114151-5.5287704-4.9395103-10.8612289-.0280914-10.7488632 7.5214653-23.7992706 16.8672409-29.1877518 4.7149353-2.7224159 8.9809113-2.9749069 12.0680161-1.2067833z" fill="#474746"/></g><g><path d="m87.4060287 64.809906c9.3714828-5.4106255 16.9578018-1.0873947 16.9882126 9.6399612.0304718 10.748024-7.5065231 23.8232574-16.878006 29.2338867-9.3356476 5.3899384-16.9399414 1.0565262-16.9704132-9.6914902-.0304107-10.7273559 7.5245591-23.7924193 16.8602066-29.1823577z" fill="#474746"/><path d="m101.8356018 74.4541016c.0255356 9.920723-6.9625473 22.0348587-15.5825653 27.0080643-7.4932861 4.3427582-13.0980606 1.480835-13.1598663-7.4724884-.025528-9.8953552 6.9623871-21.983963 15.5825653-26.9826965 2.2698441-1.3005447 4.4631042-1.9891891 6.3503342-1.9891891.1021194 0 .204071 0 .3061905.0255356 4.08049.1530073 6.5033416 3.6725004 6.5033416 9.4107741z" fill="#333"/><path d="m98.1375732 73.0512848c.025528 9.9208832-6.9623947 22.0350189-15.6081009 27.0082245-2.2443161 1.3006973-4.4120407 1.9893417-6.2994308 1.9893417-.1019592 0-.2294388 0-.3315582-.025528-1.7851181-1.5558243-2.7797852-4.3356171-2.8053131-8.0336456-.025528-9.8953552 6.9623871-21.983963 15.5825653-26.9826965 2.2698441-1.3005447 4.4631042-1.9891891 6.3503342-1.9891891.1021194 0 .204071 0 .3061905.0255356 1.7851104 1.5556716 2.7797851 4.310089 2.805313 8.0079574z" fill="#3d9bff"/><path d="m98.1403275 73.0556107c.0220032 9.9081039-6.966713 22.0278473-15.6141663 27.0040359-2.2337799 1.304924-4.4012756 1.9905243-6.3032532 1.9905243-.0884171 0-.2211151 0-.331665-.0221329-.6193237-.5529099-1.1501007-1.2606506-1.5703125-2.1010895 8.8404312-2.2505722 19.423996-16.0391388 19.3961182-28.6186142-.0221329-2.3884735-.4423523-4.3790054-1.216507-5.9050446.8847122-.2653809 1.7251434-.3759384 2.5213013-.3759384.1105576 0 .1991043 0 .3096619.0221405 1.7914199 1.5480348 2.7866897 4.312584 2.8088226 8.0061189z" fill="#2b87dc"/></g><g><g><path d="m68.3493881 71.3454132c-.4005585.6144562-.7745438 1.2287445-1.1217957 1.8430405l-7.3186913-4.2469025c.3472481-.6411896.7210732-1.2554855 1.0950623-1.8430405z" fill="#222323"/></g><g><g><path d="m85.6312637 57.6161041c-.9349747.1602554-1.8965149.4274597-2.8580627.8014488l-6.8379135-3.9800224c1.0683289-.2937775 2.1100769-.4540367 3.0983582-.4540367.133522 0 .2672043 0 .4007263.0267372z" fill="#222323"/></g><g><path d="m79.5144196 59.9933891c-.6945038.3739891-1.3622665.828022-2.0032959 1.3087959l-7.158432-4.1668549c.4807663-.3205147.9615402-.6142921 1.4424744-.9080696.2135696-.133522.4272995-.2404671.6410294-.3472519z" fill="#222323"/></g><g><path d="m75.0003128 63.3322182c-.5340805.4807739-1.0683289.9882851-1.5758362 1.5225258l-7.2653809-4.2203255c.5342484-.5340805 1.0684967-1.0415916 1.6294785-1.5225258z" fill="#222323"/></g><g><path d="m71.3677063 67.151825c-.4807739.5609818-.9348068 1.1219635-1.3355331 1.7095184l-7.2919502-4.2469025c.4272957-.5877151.8547592-1.1752739 1.3355293-1.7095184z" fill="#222323"/></g><g><path d="m65.8653183 75.85952c-.3205109.6410294-.6142883 1.3087921-.8814926 1.9765625l-7.3186913-4.2469025c.2672043-.6677704.5609818-1.3087997.8814964-1.9765625z" fill="#222323"/></g><g><path d="m63.9688072 80.6941376c-.2403069.7212372-.4540367 1.415741-.6142921 2.1368179l-7.2652168-4.2201614c.1602554-.7212372.3472519-1.442482.5608177-2.163559z" fill="#222323"/></g><g><path d="m62.7402229 85.9562225c-.133522.8012848-.2137337 1.5758362-.2404709 2.3505478l-7.1316948-4.1402817c0-.7745514.0534744-1.5758362.1602592-2.377121z" fill="#222323"/></g><g><path d="m63.087471 94.5837021-6.6776581-3.8730698c-.3472519-.8815002-.6410294-1.8430405-.8014526-2.9113693l6.9448662 4.033165c.0800476.9884491.2403068 1.8965149.5342445 2.7512741z" fill="#222323"/></g></g></g></g><g><g><g enable-background="new"><g><path d="m63.5733948 28.1526833v1.3099976c-.0102539.7399902-.5 1.4899902-1.4804688 2.0599976-1.9599609 1.1400146-5.1499023 1.1400146-7.1196289 0-1-.5799561-1.5-1.3399658-1.5-2.0899658v-1.3099977c0-.7399902.4897461-1.4800415 1.4599609-2.0499878 1.9599609-1.1400146 5.1699219-1.1500244 7.159668 0 1.1103516.6399536 1.590332 1.5099487 1.4501953 2.3499756.0200196-.0900269.0302735-.1799927.0302735-.2700195z" fill="#333"/></g></g></g><g><g enable-background="new"><g><path d="m63.5683289 28.1477795.0000076 1.3110008c-.0021133.7473202-.4939156 1.4942894-1.4721527 2.0627785-1.9606361 1.1393986-5.1485138 1.1394711-7.1221046.0000172-1.0037003-.5794868-1.5038872-1.3362961-1.5017509-2.0903416l-.0000267-1.3109283c-.0021248.7540054.4980659 1.5108147 1.5017624 2.0903015 1.9735909 1.139452 5.1614723 1.1393795 7.1221046-.0000172.9782371-.5684891 1.4700431-1.3154564 1.4721603-2.0628109z" fill="#333"/></g><g><path d="m62.0898285 26.0753784c1.973587 1.139452 1.96698 2.9958115.00634 4.1352119-1.9606323 1.1393967-5.1485138 1.1394691-7.1221046.0000172-1.9904327-1.1491795-2.0007248-2.995718-.0400925-4.1351128 1.9606438-1.1394004 5.1654205-1.1492957 7.1558571-.0001163z" fill="#474746"/></g></g></g><g><g enable-background="new"><g><g><path d="m51.3331604 35.2126808v.9400024c0 .5400391-.3598633 1.0700073-1.0600586 1.4800415-1.3999023.8099976-3.6801758.8099976-5.0898438 0-.7202148-.4200439-1.0800781-.960022-1.0800781-1.5v-.9400024c0-.5300293.3500977-1.0599976 1.0498047-1.460022 1.3999023-.8200073 3.6899414-.8200073 5.1201172 0 .7099609.4099732 1.0600586.9400025 1.0600586 1.4799805z" fill="#3f9314"/></g></g></g></g><g><g enable-background="new"><g><g><path d="m51.3304672 35.2152328.0000076.9384155c-.0015144.534935-.3535461 1.0696144-1.0537682 1.4765396-1.4034271.8155823-3.6853104.8156319-5.098011.0000114-.7184486-.4147949-1.0764847-.9565239-1.074955-1.4962692l-.0000153-.9383621c-.0015221.5397186.356514 1.0814438 1.0749626 1.4962387 1.4126968.8156204 3.6945839.8155708 5.0980072-.0000114.7002222-.4069252 1.0522577-.9416046 1.0537721-1.4765625z" fill="#3f9314"/></g></g><g><g><path d="m50.2721558 33.7318077c1.4126968.8156204 1.4079666 2.1444054.0045395 2.9599876-1.4034233.8155823-3.6853104.8156319-5.0980072.0000114-1.4247551-.8225822-1.4321251-2.1443367-.0287018-2.959919 1.4034309-.8155822 3.6974144-.8226622 5.1221695-.00008z" fill="#85e34f"/></g></g></g></g><g><g enable-background="new"><g><path d="m62.7633362 27.0527077v.9699707c0 .6199951-.4204102 1.25-1.2402344 1.7300415-1.6499023.9599609-4.3198242.9599609-5.9799805 0-.8398438-.4900513-1.2597656-1.1199951-1.2597656-1.7600098v-.960022c0-.6199951.409668-1.2399902 1.2197266-1.7199707 1.6499023-.9500122 4.3398438-.960022 6.0102539 0 .8295898.4799805 1.25 1.1099854 1.25 1.7399903z" fill="#df0100"/></g></g></g><g><g enable-background="new"><g><path d="m62.7591972 27.0568657.0009918.9630489c-.0017738.6276073-.4147949 1.2549191-1.2363281 1.7323418-1.6465607.9568768-4.3237724.9569378-5.9812126.0000153-.8429184-.4866581-1.2629814-1.1222363-1.2611885-1.7554893l-.0010071-.9629898c-.0017853.6332226.4182777 1.2687988 1.2611961 1.7554569 1.6574402.9569244 4.3346519.9568634 5.9812126-.0000134.8215333-.4774227 1.2345544-1.1047345 1.2363358-1.7323704z" fill="#df0100"/></g><g><path d="m61.5175362 25.3164425c1.6574402.9569244 1.6518936 2.515913.0053253 3.4727936-1.6465607.9568768-4.3237724.9569378-5.9812126.0000134-1.6715889-.9650917-1.680233-2.5158329-.0336723-3.4727097 1.6465644-.9568806 4.3379707-.965189 6.0095596-.0000973z" fill="#fa3e3d"/></g></g></g></g><g><g><path d="m40.2931213 86.7226944c.0097656 2.2600098-1.3398438 4.8599854-3.0097656 5.8300171-.8100586.4699707-1.550293.4699707-2.1000977.0899658.0297852.0300293.0698242.0500488.1000977.0700073l-.8901367-.539978c-.6401367-.3499756-1.050293-1.25-1.050293-2.4700317 0-2.2399902 1.3100586-14.5099487 2.9902344-15.4799805.1499023-.0999756.2998047-.0800171.4301758 0l.7895508.460022c-.0297852 0-.0698242-.0100098-.0996094-.0100098.0498047 0 .0898438.0100098.1396484.0299683 1.5.5800171 2.7001953 9.9300537 2.7001953 12.0200195z" fill="#c8cfe8"/></g></g><g><g enable-background="new"><g><path d="m21.1730042 94.6227188-2.2099609-1.0499878c-.0097656 0-.0200195-.0100098-.0200195-.0100098l-4.699707-2.7300415c-.25-.1599731-.4003906-.4899902-.4003906-.9499512l-.0297852-13.7400513c0-.4599609.1499023-1 .4301758-1.4799805l2.199707-3.6199951 4.6801758 2.710022.0097656.0099487-.0097656.0200195z" fill="#eef0fd"/></g></g></g><g><g enable-background="new"><g><path d="m18.9407806 77.36306c-.3060284.4845657-.4590435 1.020195-.4590435 1.5047684l.025528 13.720871c0 .4590378.1530151.816124.4335155.9691391l-4.6927032-2.7288895c-.2549725-.1530075-.4079866-.4845657-.4079866-.9436111l-.025528-13.7463989c0-.4590378.1530142-.9946671.4335146-1.4792404l2.1934147-3.6214447 4.6925468 2.7288818z" fill="#c8cfe8"/></g><g><path d="m21.122242 73.7575073.0475292 20.8661575-2.2047939-1.0509567c-.2939987-.1488266-.4581032-.5038757-.4594288-.9716492l-.027317-13.7374191c-.0013275-.4677734.1602306-1.010849.452425-1.4981766z" fill="#c8cfe8"/></g></g></g><g><path d="m37.658123 74.7314453c-.1274872-.0764236-.2805023-.0764236-.4335136 0-1.6831589.9691467-2.98386 13.2362976-2.98386 15.4806137 0 1.2496414.4079857 2.1168289 1.0455704 2.4994431l-.8925591-.5356293c-.6375847-.3570862-1.0457268-1.2496414-1.0457268-2.4739151 0-2.2441559 1.3007011-14.5113144 2.9840164-15.4804535.1530151-.1021118.3060265-.0765839.4335136 0z" fill="#c8cfe8"/></g><g><path d="m37.2304764 74.7372437c1.6771545-.9683075 3.0612221 9.7396545 3.067585 11.9849548.0064201 2.2639465-1.3399353 4.8591232-3.017086 5.8274307-1.6771584.9683075-3.033802-.0662994-3.0402222-2.330246-.0063629-2.2452926 1.3125648-14.5138321 2.9897232-15.4821395z" fill="#eef0fd"/></g><g><g enable-background="new"><g><path d="m18.9407806 77.36306c-.3060284.4845657-.4590435 1.020195-.4590435 1.5047684l.025528 13.720871c0 .4590378.1530151.816124.4335155.9691391l-4.6927032-2.7288895c-.2549725-.1530075-.4079866-.4845657-.4079866-.9436111l-.025528-13.7463989c0-.4590378.1530142-.9946671.4335146-1.4792404l2.1934147-3.6214447 4.6925468 2.7288818z" fill="#dce0f4"/></g><g><path d="m21.122242 73.7575073.0475292 20.8661575-2.2047939-1.0509567c-.2939987-.1488266-.4581032-.5038757-.4594288-.9716492l-.027317-13.7374191c-.0013275-.4677734.1602306-1.010849.452425-1.4981766z" fill="#eef0fd"/></g></g></g><g><path d="m16.0542774 80.8362122c-.7161398-.4134674-1.2733908-.070755-1.2756281.7185593-.0022621.7977219.5512276 1.7817154 1.2673674 2.1951828.686903.3965759 1.2660828.0665283 1.268343-.7311859.0022373-.7893144-.5731812-1.7859727-1.2600823-2.1825562z" fill="#fa3e3d"/><path d="m16.0517769 86.7202377c-.485733-.2804413-.8636971-.0479965-.8652143.4873734-.0015345.5410614.3738785 1.2084732.8596106 1.4889145.4659023.2689819.8587399.0451202.8602734-.4959412.0015181-.5353622-.3887693-1.2113647-.8546697-1.4803467z" fill="#5a74e2"/></g></g><g><path d="m30.9892292 72.3865814c-1.9468193 0-3.5219975 1.5751801-3.5219975 3.5219955 0-.9717102-.3954906-1.8547516-1.0296478-2.4923248-.6375923-.6341782-1.5206356-1.0296707-2.4923286-1.0296707.971693 0 1.8547363-.3954926 2.4923286-1.0296707.6341572-.6375656 1.0296478-1.5206146 1.0296478-2.4922943 0 .9716797.3955116 1.8547287 1.0296688 2.4922943.6375714.6341782 1.5206357 1.0296707 2.4923287 1.0296707z" fill="#fff"/></g></g><g><path d="m37.2579308 86.1208725c1.0573235-.6104431 1.8800583-.1044617 1.8833618 1.0608978.0033379 1.1777649-.8138428 2.6305542-1.8711662 3.2409973-1.0141525.5855179-1.8692627.0982285-1.8726006-1.0795288-.0033035-1.1653671.8462524-2.6368484 1.860405-3.2223663z" fill="#222323"/></g></g></svg>