<svg id="Capa_1" enable-background="new 0 0 512 512" height="512" viewBox="0 0 512 512" width="512" xmlns="http://www.w3.org/2000/svg" xmlns:xlink="http://www.w3.org/1999/xlink"><linearGradient id="SVGID_1_" gradientTransform="matrix(-1 0 0 1 512 0)" gradientUnits="userSpaceOnUse" x1="369.63" x2="307.15" y1="319.376" y2="198.878"><stop offset="0" stop-color="#ab2c37"/><stop offset="1" stop-color="#ff4757"/></linearGradient><linearGradient id="SVGID_2_" gradientTransform="matrix(-1 0 0 1 512 0)" gradientUnits="userSpaceOnUse" x1="138.625" x2="180.705" y1="505.722" y2="226.003"><stop offset="0" stop-color="#0197f8"/><stop offset="1" stop-color="#79d3fe"/></linearGradient><linearGradient id="SVGID_3_" gradientTransform="matrix(-1 0 0 1 512 0)" gradientUnits="userSpaceOnUse" x1="223.186" x2="328.431" y1="47.647" y2="247.739"><stop offset="0" stop-color="#fff"/><stop offset="1" stop-color="#fff" stop-opacity="0"/></linearGradient><g><path d="m318.13 407.605c-12.676 22.318-41.11 30.03-63.326 17.176l-175.022-101.27c-51.945-29.99-82.683-86.578-79.566-146.478 2.478-47.603 29.042-90.661 70.474-114.231 43.129-24.535 96.033-24.366 139.004.443l189.146 109.428c21.967 12.709 29.575 40.754 17.041 62.822z" fill="url(#SVGID_1_)"/><path d="m174.751 279.034c2.477-47.603 29.042-90.661 70.474-114.231 43.129-24.535 96.033-24.366 139.004.443l59.199 33.359c42.564 26.835 68.572 73.708 68.572 124.292 0 52.026-27.952 100.041-73.194 125.73-44.596 25.322-99.269 25.126-143.682-.516l-43.635-24.298c-50.221-30.392-79.798-85.981-76.738-144.779z" fill="url(#SVGID_2_)"/><path d="m342.103 209.781c0 23.352-12.546 44.904-32.853 56.434-20.017 11.366-44.557 11.278-64.492-.232l-107.837-62.992c-23.316-13.461-37.112-38.861-35.713-65.747 1.112-21.367 13.036-40.693 31.632-51.273 19.359-11.013 43.104-10.937 62.392.199l113.89 66.487c20.409 11.783 32.981 33.559 32.981 57.124z" fill="url(#SVGID_3_)" opacity=".2"/></g></svg>