<svg viewBox="0 0 512 512" xmlns="http://www.w3.org/2000/svg" xmlns:xlink="http://www.w3.org/1999/xlink"><linearGradient id="linear-gradient" gradientUnits="userSpaceOnUse" x1="376.23" x2="135.77" y1="376.23" y2="135.77"><stop offset="0" stop-color="#13b601"/><stop offset=".52" stop-color="#13b601"/><stop offset="1" stop-color="#cbf4b4"/></linearGradient><linearGradient id="linear-gradient-2" gradientUnits="userSpaceOnUse" x1="302.64" x2="205.2" y1="283.32" y2="185.87"><stop offset="0" stop-color="#cbf4b4"/><stop offset=".57" stop-color="#fff"/><stop offset="1" stop-color="#fff"/></linearGradient><g id="USER_INTERFACE" data-name="USER INTERFACE"><path d="m496.52 129.85c-13.44-49.47-64.89-100.93-114.37-114.37-30.34-7.56-70.98-15.35-126.15-15.48-55.17.13-95.81 7.92-126.15 15.48-49.47 13.44-100.93 64.89-114.37 114.37-7.56 30.34-15.35 70.98-15.48 126.15.13 55.17 7.92 95.81 15.48 126.15 13.44 49.48 64.9 100.93 114.37 114.37 30.34 7.56 71 15.35 126.15 15.48 55.16-.13 95.81-7.92 126.15-15.48 49.48-13.44 100.93-64.89 114.37-114.37 7.56-30.34 15.35-71 15.48-126.15-.13-55.17-7.92-95.81-15.48-126.15z" fill="#e5f4d9"/><g id="SUCCESS"><path d="m256 86a170 170 0 1 0 170 170 170 170 0 0 0 -170-170z" fill="url(#linear-gradient)"/><path d="m353 227.85-102.23 107.32a30 30 0 0 1 -21.57 9.31h-.13a30 30 0 0 1 -21.52-9.1l-54.23-55.87a30 30 0 1 1 43-41.76l32.5 33.49 80.69-84.74a30 30 0 1 1 43.49 41.35z" fill="url(#linear-gradient-2)"/></g></g></svg>