<svg id="no_chicken" viewBox="0 0 96 96" xmlns="http://www.w3.org/2000/svg" data-name="no chicken"><path d="m90.73 4.81s-.02-.04-.03-.06c-.02-.07-.05-.13-.09-.19 0 0 0-.01 0-.02-.02-.02-.04-.03-.06-.06-.04-.04-.08-.09-.12-.12-.03-.02-.07-.04-.1-.06s-.06-.04-.09-.05c-.02 0-.03 0-.05 0-.04-.01-.08-.02-.12-.02-.05 0-.1-.01-.15-.01-.04 0-.08 0-.12.02-.05 0-.1.02-.15.04-.02 0-.04 0-.06.02l-83.89 41.33c-.29.14-.46.44-.45.76s.23.6.53.71l28.48 10.29 7.13 33.78s.03.07.04.11.02.07.04.1c.04.07.08.12.13.17.01.02.02.03.04.05h.01c.06.05.13.09.2.12.02 0 .03.02.05.03.09.03.18.05.27.05.11 0 .21-.03.3-.06.03-.01.05-.03.08-.04.07-.04.13-.08.18-.13.01-.01.03-.02.04-.03l18.08-20.55 20.72 9.81c.11.05.22.08.34.08.13 0 .27-.03.39-.1.23-.13.38-.35.4-.61l8.05-75.09c0-.09 0-.19-.02-.27zm-43.38 58.73c-.06.09-.11.19-.13.29l-5.03 23.33-6.36-30.11 48.79-45.93zm38.16-55.47-50.75 47.79-26.67-9.63zm-41.9 80.09 4.96-23 10.79 5.11zm37.64-9.3-32.04-15.17 39.62-55.74-7.58 70.9z"/></svg>