<svg clip-rule="evenodd" fill-rule="evenodd" height="128" image-rendering="optimizeQuality" shape-rendering="geometricPrecision" text-rendering="geometricPrecision" viewBox="0 0 188105 211583" width="114" xmlns="http://www.w3.org/2000/svg"><g id="Layer_x0020_1"><g id="_821556640"><path d="m103365 2564 75429 43551c5922 3419 9311 9290 9311 16128v87097c0 6837-3389 12709-9311 16128l-75429 43550c-5922 3420-12702 3420-18625 0l-75429-43550c-5921-3419-9311-9291-9311-16128v-87097c0-6838 3390-12709 9311-16128l75429-43551c5923-3419 12703-3419 18625 0z" fill="#72cf7b"/><g><g fill="#f5f5f5"><g><path d="m31804 82385c28841 4405 40940 19816 48698 32805l21043-12182c-13981-16719-32870-30126-55890-33020l8472-7068-52100 4516 22560 24125z"/><path d="m156302 82385c-28841 4405-40940 19816-48698 32805l-21043-12182c13981-16719 32870-30126 55890-33020l-8471-7068 52099 4516-22561 24125z"/></g><path d="m112259 36223 18172 157168-27066 15627c-2961 1710-6137 2565-9312 2565-3176 0-6351-855-9313-2565l-27063-15625 18170-157170h-14725l32931-31061 32930 31061z"/></g><g fill="#dedede"><path d="m92175 16235h751 2255 752l1189 20042h-1941-2255-1941z"/><path d="m91123 45630h1172 3517 1172l1856 24986h-3028-3517-3028z"/><path d="m90138 86049h1567 4698 1566l2479 24986h-4045-4698-4046z"/><path d="m87442 134484h2645 7934 2645l4187 34938h-6832-7934-6832z"/></g><g><path d="m90443 133081-8134 3452-2440 20326h21060l-2352-20326z" fill="#f7ba74"/><path d="m69618 156856h41648c12656 0 23012 10362 23012 23012v11303l-30913 17847c-2961 1710-6137 2565-9312 2565-3176 0-6351-855-9313-2565l-38132-22016v-7134c0-12655 10355-23012 23010-23012z" fill="#154e5e"/><path d="m105224 120386v12437c0 6547-5475 14158-12162 14158h-5141c-6689 0-12164-7608-12164-14158v-11291c-7276-10680 2412-19009 8285-16294 22-56 40-112 64-168 2395-5573 14277-7591 19839 1185 3908 6163 4527 8411 8573 6411-1204 4300-3950 6709-7294 7720z" fill="#154e5e"/><path d="m75757 132809c-3753-377-6287-8410-3784-11247 1103-1247 2706-1179 3784-30z" fill="#f7ba74"/><path d="m105224 132809c3753-377 6287-8410 3784-11247-1102-1247-2706-1179-3784-30z" fill="#f7ba74"/><path d="m115642 107418-4119-3450c-350-294-648-515-1078-665l-3609-1250c-907 148-1126 593-531 1392l2881 1453c384 193 603 476 942 742l2284 1796-6906-3117c-192-86-370-98-578-122l-4032-461c-1734 181-1529 1945-465 1979l3045 615c259 51 482 74 701 220l4746 3163-6684-2263c-211-72-411-57-627-4l-5722 1416c-1266 584-463 2380 1169 2022l3651-526c197-28 374-2 556 80l5708 2608-7704-746c-264-25-476 82-710 208l-4140 2240c-1092 948-230 2432 937 1802l3186-1294c291-119 554-235 857-147l7798 2255 2417 3046-2254 764c-1526-340-2745-1131-4575-1021-1608 198-1639 1764-544 2127l4953 2452c5744 227 5330 395 10735-841l6869 6420 7453-7701-7725-5025z" fill="#ffc57a"/><path d="m146141 150526-26650-22821 9063-9760 41358 29957c2265 1639 13094 10981-2010 21439l-39081 22289-7132-29575 24721-5834c3157-745 1009-4084-269-5695z" fill="#154e5e"/><g fill="#fff"><path d="m118420 125376 7496-8214 1806 1679-7508 8084z"/><path d="m80217 152353h20363c1261 0 2289 1028 2289 2290v2215h-24941v-2215c0-1262 1028-2290 2289-2290z"/></g></g><g fill="#dedede"><g><path d="m25187 72855s5645-338 11966 1012l-1890 2250c-3130-905-8515-1634-11156-1575z"/><path d="m44829 75763s9136 1197 16225 4065l-2417 3449c-4270-1919-10646-4096-16080-5116z"/><path d="m67568 83658c3191 297 13721 4688 17256 6649l-777 6400c-2798-2071-14391-8610-18532-10352z"/></g><g><path d="m162921 72855s-5646-338-11966 1012l1889 2250c3130-905 8516-1634 11157-1575z"/><path d="m143279 75763s-9137 1197-16226 4065l2417 3449c4270-1919 10645-4096 16079-5116z"/><path d="m120539 83658c-3191 297-13722 4688-17256 6649l777 6400c2798-2071 14391-8610 18532-10352z"/></g></g></g></g></g></svg>