<svg clip-rule="evenodd" fill-rule="evenodd" height="128" image-rendering="optimizeQuality" shape-rendering="geometricPrecision" text-rendering="geometricPrecision" viewBox="0 0 32254 36280" width="114" xmlns="http://www.w3.org/2000/svg"><g id="Layer_x0020_1"><g id="_730985728"><path d="m17724 440 12934 7467c1015 587 1596 1593 1596 2766v14934c0 1173-581 2179-1596 2766l-12934 7467c-1015 587-2178 587-3194 0l-12933-7467c-1016-587-1597-1593-1597-2766v-14934c0-1173 581-2179 1597-2766l12933-7467c1016-587 2179-587 3194 0z" fill="#1c3b5c"/><path d="m17115 5317 81 7 37 3 47-565c-440-19-890-52-1329-48l-87 2-86 2-86 2h-11l22 567h7l82-3 83-2 83-1c389-4 769 8 1157 36zm-3161-429 93 559-42 7-79 13-79 14-79 14-79 15-79 15-79 16-78 17-78 16-78 18-78 17-78 19-77 18-78 19-24 7-142-549 28-7 81-20 81-20 81-19 82-18 81-18 82-18 82-17 82-17 82-16 83-15 82-15 83-15 83-14zm-2785 769 211 526-46 18-72 30-73 30-72 30-72 31-72 31-71 31-72 32-71 33-71 32-70 34-71 33-70 35-70 34-39 20-256-506 43-22 73-36 73-35 74-35 73-35 74-34 75-34 74-34 75-33 75-32 75-32 76-32 75-31 76-31zm-2554 1350 317 470-64 43-64 44-63 45-64 44-63 45-62 46-63 46-62 46-61 46-62 47-61 47-61 48-61 48-60 48-20 16-358-440 23-18 63-50 63-50 63-50 64-49 64-49 65-48 65-49 65-47 65-48 66-47 66-46 66-47 67-45 66-46zm-2208 1865 411 391-6 6-53 56-53 56-52 57-52 57-52 57-51 58-52 58-50 58-51 58-50 59-49 59-50 60-49 59-48 60-12 15-444-352 14-18 51-63 51-62 52-62 51-62 53-61 52-61 53-61 54-61 53-60 54-59 55-60 54-59 55-59 56-58zm-1760 2292 485 294-10 16-40 66-40 67-39 67-39 67-38 68-39 67-37 68-38 69-37 68-36 69-36 69-36 69-35 70-35 69v1l-510-249 2-4 37-73 37-72 37-73 38-72 38-71 38-72 39-71 40-71 39-71 41-70 40-70 41-70 42-70 42-69zm-1229 2616 537 182-19 57-25 74-25 75-24 75-24 76-23 76-23 75-22 76-22 77-22 76-21 76-20 77-20 77-20 77-4 19-551-134 5-22 21-81 21-80 21-80 22-81 23-79 22-80 24-79 24-79 24-79 25-79 25-79 26-78 26-78zm-637 2818 563 64v5l-9 81-9 81-8 81-7 81-7 82-7 81-6 82-5 82-5 82-4 82-4 83-4 82-3 83-1 38-566-15 1-41 3-86 3-86 4-86 5-86 5-86 6-85 6-85 7-86 7-85 8-85 8-84 9-85 9-84zm-22 2889 564-57 3 30 9 81 9 81 9 81 10 80 11 81 11 80 11 80 12 80 13 80 12 80 14 79 14 79 14 79 5 26-557 107-5-30-15-82-15-83-14-83-13-83-13-83-13-84-12-83-11-84-11-84-11-84-10-84-9-85-9-84zm595 2829 538-178 19 58 25 75 25 74 26 75 27 74 26 74 28 74 27 73 28 74 29 73 29 73 29 72 30 73 31 72 10 24-521 224-11-27-32-76-31-75-31-76-30-76-30-77-30-76-28-77-29-77-28-77-28-78-27-78-26-77-26-79zm1188 2633 488-288 12 21 40 67 40 66 40 66 41 66 42 66 41 65 42 65 43 65 43 65 43 64 43 64 44 64 44 63 45 64-1-1-460 331-1-2-46-66-47-66-46-67-45-66-45-68-45-67-44-68-44-68-43-68-43-69-43-68-42-69-42-70-42-70zm1725 2319 415-386 24 26 53 56 53 56 53 56 54 55 54 56 55 54 54 55 56 54 55 54 56 53 56 53 56 53 57 52 52 48-381 419-55-50-59-54-59-55-58-56-59-56-57-56-58-56-57-57-57-57-56-58-56-57-56-59-56-58-55-59zm2179 1898 323-466 35 25 64 44 64 43 64 43 65 43 65 43 65 42 65 41 66 42 66 41 66 40 66 40 67 40 67 39 51 29-283 492-54-31-69-41-70-42-70-42-69-42-68-43-69-43-68-43-68-44-68-44-67-45-68-45-66-45-67-46zm2534 1389 215-524 67 28 72 29 73 29 73 29 74 28 73 27 74 28 74 26 74 27 75 26 74 25 75 25 75 25 75 24 13 4-168 541-16-5-79-25-78-26-79-26-77-26-78-27-78-28-77-28-77-29-77-28-76-30-77-30-76-30-76-31zm2774 812 96-558 76 13 79 14 80 12 80 13 80 12 80 11 80 11 81 11 80 10 81 9 81 9 81 9 81 8 60 5-50 565-64-6-85-8-84-9-85-9-84-10-84-11-84-11-84-11-83-12-84-13-83-13-83-13-83-14zm2881 199-22-566h9l82-4 83-4 82-4 82-5 82-5 82-6 81-7 82-7 81-7 81-8 81-9 81-9 81-9 35-5 71 563-38 5-85 10-84 9-85 9-84 8-85 8-85 7-86 7-85 6-85 6-86 5-86 5-86 4-86 3zm2860-417-144-548 66-17 77-20 76-21 76-22 77-22 76-22 75-23 76-23 76-24 75-24 75-25 74-25 75-25 75-26 11-4 192 533-15 6-78 27-78 26-78 26-78 26-79 25-79 25-79 24-79 24-79 24-80 22-79 23-81 22-80 21zm2703-1022-258-504 41-21 69-36 69-36 69-36 68-37 69-38 68-37 67-39 68-38 67-39 67-39 67-40 66-40 66-40 45-28 300 480-48 30-69 42-69 42-70 42-70 41-70 40-70 41-71 39-71 40-71 39-72 38-71 38-72 38-73 37zm2421-1578-361-437 49-40 60-50 59-49 59-50 58-51 58-50 58-52 58-51 57-52 57-52 57-52 56-53 56-53 56-53 31-30 396 405-33 32-59 56-58 56-59 55-59 54-60 55-59 54-60 53-61 54-61 53-61 52-61 53-62 51-62 52zm2029-2057-446-351 43-54 48-61 47-61 47-62 46-61 46-62 46-63 46-62 45-63 44-64 45-63 44-64 43-64 43-64 19-29 474 312-21 31-45 68-46 66-45 67-47 66-46 66-47 66-48 65-47 65-49 65-48 65-49 64-49 64-50 63zm1543-2442-509-249 4-9 35-70 33-71 34-70 32-71 33-71 32-72 31-71 31-72 31-72 30-72 30-73 30-72 29-73 28-73 1-2 530 201-2 5-30 77-30 76-31 76-31 75-32 76-32 75-32 75-33 75-34 74-34 75-34 74-35 73-35 74-35 73zm984-2718-551-131 17-73 19-78 17-78 18-78 16-78 17-78 16-79 15-79 15-79 14-79 14-79 13-79 13-80 12-73 560 86-12 76-13 83-14 83-15 83-15 82-15 83-16 82-17 82-17 82-18 82-18 81-18 82-19 81zm377-2865-567-11 2-62 1-83 1-83v-83-84l-1-83-1-83-2-83-3-82-2-83-4-82-4-83-4-82-3-54 565-35 4 57 4 86 4 86 4 86 3 86 2 86 2 87 2 86 1 87v87 86l-1 87-2 87zm-239-2880-556 111-13-68-16-78-17-79-16-78-18-78-17-78-19-78-18-77-19-78-20-77-20-77-21-77-21-76-21-76-1-4 544-158 2 7 23 79 22 81 21 80 21 80 20 81 20 80 20 81 19 82 18 81 18 81 18 82 17 82 17 82zm-852-2761-519 227-26-60-31-71-32-72-33-71-32-70-34-71-33-71-35-70-34-70-35-69-35-70-36-69-36-69-37-69-14-26 498-271 16 30 38 71 38 72 37 73 37 72 37 73 36 73 35 73 35 74 35 74 34 74 34 74 34 74 33 75zm-1424-2513-460 331-6-9-46-63-46-62-46-62-46-62-47-62-47-61-48-61-48-60-48-61-49-60-48-59-50-60-50-59-50-59-9-11 428-371 12 14 52 61 52 62 52 62 51 62 51 63 50 63 50 63 50 64 49 64 49 64 48 64 49 65 47 65 48 66zm-1928-2153-379 422-13-12-58-51-58-51-58-51-58-50-59-50-59-50-60-50-59-48-60-49-61-48-60-48-61-48-61-47-62-47-7-5 340-454 9 7 64 49 64 49 64 50 63 50 63 50 63 51 62 51 62 52 62 52 61 52 61 52 61 53 61 54 60 53zm-2342-1692-280 493-27-15-67-38-68-38-69-38-68-36-69-37-69-36-69-36-70-35-69-35-70-34-70-35-71-33-71-34-59-27 237-515 62 29 74 35 74 35 73 35 73 36 73 37 72 37 73 37 72 38 71 38 72 38 71 39 71 40 71 40zm-2652-1152-165 542-76-23-75-23-76-22-77-22-76-21-76-21-77-21-77-20-77-20-78-19-77-18-78-19-78-17-75-17 120-554 79 18 81 18 82 19 81 20 80 20 81 20 80 21 80 21 81 22 79 23 80 23 79 23 79 24z" fill="#e1e3e8" fill-rule="nonzero"/><g><path d="m19396 7358c5954 1805 9318 8096 7513 14051-1805 5954-8095 9318-14050 7513s-9319-8096-7514-14050c1805-5955 8096-9319 14051-7514z" fill="#53b4ed"/><path d="m19396 7358c1520 461 2871 1215 4011 2181-1030-778-2212-1390-3519-1786-5955-1805-12245 1558-14050 7513-1345 4435 178 9055 3503 11871-3664-2764-5405-7617-3996-12265 1805-5955 8096-9319 14051-7514z" fill="#74c3f1"/><path d="m25604 12048c1722 2681 2302 6072 1305 9361-1805 5954-8095 9318-14050 7513-3300-1000-5804-3379-7074-6314 1396 2174 3542 3882 6209 4691 5955 1805 12245-1559 14050-7514 805-2655 582-5376-440-7737z" fill="#43a6e0"/><path d="m25416 11764c1517 2214 2237 4952 1898 7729-17-60-31-136-35-243-231 5-240 8-501-25l-15 11c-142 111-20 83-238 177-260 112-467 309-741 379-102 238-71 308-221 582-57 101-266 354-401 290-42-22-90-550-95-693-9-245-46-434-24-705 10-145 68-411 65-512-156-23-177 74-289-69-78-102-20-132-42-257-84-146-171-293-259-441-84-58-459-115-606-177-265-108-294-99-390-366-291-73-299 42-506-283-136-211-26-449-334-389-79 224 16 307 84 443 48 102 121 184 126 303 3 5-11 112-11 127 253 95 353-11 527-73 98 172-43 153 126 316 135 129 118 72 182 233-1 190-551 539-712 584-124 35-167-20-284 29-173 74-13 105-281 120-288 16-604 137-881 71-10-178-20-359-29-540-4-608-62-390-151-731-45-150 13-219-8-347-13-94-61-148-82-266-31-181-50-455-241-486-75 113 5 596 25 714 21 118 90 187 70 341-26 212-60 174 9 343 147 350-80 227 196 609 207 286 120 326 151 635 161 103 757 27 826 123 49 223-274 457-383 605-362 497-698 386-1086 734-211 186-286 197-501 434-243 267-56 1268-435 1549-84 65-289 57-604 237-335 197-62 228-297 655-107 82-202 59-318 106-67 97-65 191-164 306-111 141-95 52-225 155-96 82-102 126-206 197-92 66-134 80-213 117-384 185-1032-2-1076-58-112-176 2-177 19-371 12-172-33-332-66-477l-4-15c-16-71-29-139-30-200-5-430 130-714 34-1179-117-597 388-736 459-1031 17-80 3-135 15-198 45-337 102-633-36-950-152-345-150-239 62-666 253-488-8-422-314-530-10-516-376-377-715-328-212 29-248-102-468-136-488-79-180 235-658-453-199-287-55-128-131-435-24-110-145-283-189-399-147-370 227-586 289-941 120-658-150-137 438-797 310-353 594-270 722-430 112-144 105-273 268-387 141-90 281-20 398-193 154-210 4-288-167-346 3-268-16-208 108-417 70-118 60-188 127-306 165-297 612 182 806 99 114-113 164-242 121-398-47-156-166-174-187-316 158-48 38 0 160 9 143 11 138-33 306-15 150 15 279-88 444-134 235-68 176-210 426-176 404 50 151-15 301-359 65-4 128-12 191-20 73 194-59 84 54 233 44-10 96-19 144-28 31-178-58-169-46-397-199-28-316 112-450 8-132-101-74-316-14-490 95-116 393-104 510-105 191-6 202-129 408-239 270-144 55 20 236-218 230 61 126 20 281-8l8-1 16-1c90-12 196 11 311 7 418-12 554 98 796 295 187 153 832 352 798 638-205 115-317-49-546-103-22 223-5 228 167 344 62-90 5-65 76-113 58 33 117 62 175 92 127-194 190-141 409-102 10-157-41-127 73-219 211 88 41 15 95 222 158 26 358-97 575-56 135 26 113 74 305 111 158 30 167-28 300 82 86-86 30-100 172-84 218 27 359 209 551 297-93-227-245-234 30-483 245 23 256 63 303 267 67-15 101-39 134-47zm-19114 859c1156-2063 2912-3666 4971-4650 112 82 286 103 412 136 70-69 120-133 208-139 35-2 73 7 124 25-5 44-8 88-10 133-1 3-2 33-4 26 5-5 2 19 3 28 256-61 74-119 261-313-172-92-155-62-234-213 148-88 374-65 530-5-44 107-95 89-82 195 148-40 297-221 485-121 30 39 67 77 101 114-133 66-290 24-441 39-241 582 160 154-47 541 151 34 329-30 418-124-33-88-113-112-132-212 69-100 168-161 288-179 81-12 172-4 268 25 1095 341 559 232 850 490 66 56 196 114 220 193 38 126-58 206 27 322 75 101 112 31 191 230-56 83-150 157-285 119-187-54-38-147-245-189-53 189 112 318-92 368-180 45-45-50-178-21-5 2-17 4-21 6-9 3-18 9-23 14-28 16-51 30-74 44-253-159-212-109-322-342-41-88-46-108-160-133-69-18-168-15-216-96 186-128 202 55 429 15 40-6 308-108 355-137-19-150-1-24-61-136-134-254-204-222-466-301-166 104-311 251-468 287-95 22-194 3-305-89-13 255 194 119 121 410-94-49-131-115-246-110-246 16-46 67-42 116-1 3 99 46-16 53-127 7-11-28-193-224 48-46 97-95 146-143-197 0-448 21-689 59-275 47-540 114-712 198-67 206 13 79-41 332 315 117 183 182 476 370 57 36 131 77 223 122-47 155-220 229-172 419 177 226 276-79 391-259 808 72 510-262 833-621 48-53 110-107 192-161 58 21 288 118 337 145 163 82 58 96 219 235-49 148-183 319 48 350 179 21 181-123 398-94 27 247-26 334-64 609 439 344 170 434-36 767 53 49 110 97 167 144-35 105-70 206-104 307-10-3-497-275-529-296 148-203 294-161 458-365-196-24-200 38-348 39-131 0-217-54-350-76-90 136 36-131-8 64-15 74 41 16-31 78-148-132-33-302-406-226 62 56 125 108 192 161-75 210-43 44-131 172-221 328 258 229 371 242-85 183-203 147-384 149-200 0-278 58-433 47 69-227-23-46 124-173-149-31-276 3-432 20l-15 1c-199 18-230 21-318 242-166 0-358 0-499 78-138 70-276 139-410 208-13 5-22 11-31 14-48 297-87 291-294 349-173 50-221 33-391 111-549 256-288 139-466 812-81-54-158-111-231-166 68-463 113-289-211-499-350-227-355-23-524-38-188-15-214-240-520-152-170 54-324 77-411 238-104 195-243 318-299 552-164 630 391 837 624 591 155-164 163-277 462-132-19 176-105 282-185 397-50 66-167 178-160 293 197 159 256-11 499 256-69 302-325 587-149 827 137 184 182 71 346 90 182 22 118 120 270 194 123-84 64-26 164-144 174-203 168-85 457-154 28-6 53-14 83-23 10 66 24 131 35 194 244-158 202 56 391 177 82 51 143 79 191 94 150 48 188-20 371 115 21 19 50 36 75 53 3 1 12 10 10 15 3 4 11 15 13 19 23 49 15 89 30 139 100 178 201 357 299 531 240 191 301-11 520 384 94 164 36 144 60 326 3 28 16 59 20 94 5 83 15 164 24 246 85 228 314 170 453 421 80 145 4 85 242 206 371 182 230 100 459 414 89 117 131 79 216 183 86 252-20 465-199 610-553 442-394 390-546 827-90 250-322 754-580 745-940-19-487 302-845 661-102 102-160 118-231 202-294 351-215 523-698 278 23 100 9 32 34 124 80 281 51 466-277 429-274-28-149-45-260 235-113 12-145-44-231 3 40 193-1 30 122 170-55 83-103 165-153 246-124 198-81-6-178 239 77 68 142 79 188 211-35 80-187 281-250 404 69 229 111 465 378 567-52 159-9 155-157 146-126-8-341-194-428-281-150-151-277-328-343-547-38-124-25-65-69-184-80-208-4-270-8-395-1-73-86-177 24-379 29-58 214-319 82-304-132 11 81 54-105 83-6-117 10-281 28-417 25-231-24-255-8-395 41-323 182-316 192-872 8-367 289-1157 313-1598 4-70 1-132-10-182-47-182-253-323-398-503-10-6-15-11-17-18-199-253-227-1019-348-1339-56-153-131-116-113-324 10-194 69-142 173-274-136-657 566-435 626-1156 7-134-30-335-89-414-165 20-106 77-219 175-98-102-195-204-289-304-251-451-137-145-169-399-72-535-355-334-540-643-85-132-59-290-258-320-298-48-152 44-407-184-216-195-437-413-564-627 68-251 162-235 76-514-14-51-33-101-53-148zm5122-4720c82-38 166-75 250-111l2 12c7 26 17 30 13 92-187-11-196 19-265 7zm8255 6003c77 90 180 172 232 255 15 273-63 120 35 430 59 169 8 262 88 371 197 33 15 38 167-43 28-16 108-67 133-90-34-112-69-132-95-246 300-219 344-28 339 176-24 563 229 473 410 501 183 28 22 13 168 102 141 85 80 24 195 29 389 22-103 639-164 705-205-35-153-67-291-124-277-117-35 177-644-250-586-404-434-409-705 1-145-56-130-82-254-171-46-36-73-56-92-68l-6-4c-50-36 0-3-81-145-72-124-310-221-455-364 45-150 214-234 109-459-47-30-792-222-917-233-253-22-356 167-670 23-172-79-115-44-128-162 76-41 8-28 119-33 42-3 54 7 94 13 556 81 364-270 774-427 343-137 58 21 291-201 191 40 140 123 322 94 151-26 127-97 315-46 116 216 51 305 282 514 92 82 149 130 190 242 71 215-18 124-7 260 12-2 27-4 43-5l8-1c166-25-45-113 252-249-53-70-93-121-129-159l-5-5c-151-163-108-42-254-406-37-102-53-113-11-239 179 21 173 152 284 333 14 26 34 50 53 74zm1431 8560c-175 31-250 202-394 267-158 75-308-27-420 168-142 244 48 214-239 501-104 107-204 424-132 549 212 381 597-302 735-511 102-147 206-318 307-453 105-147 228-266 143-521zm1841-7864c-78 345 83 536 178 733-66 155-92 102-156 327 132 174 234 285 473 292 113-262 23-274-4-484 21-18 67-34 75-38 88-64 22 43 95-89-146-101-358-347-313-571 99-40 63-9 133-29 153-45 18 53 137-65-27-147-93-191-271-176-77 7-300 82-347 100zm-1439-339c-62-182-32-254-238-323-109 64-246 167-332 289-131 184-40 57-100 280-6 8-6 20-9 28-43 132-26-35-43 93 173 16 48-19 180-21 126-5 506-4 599 51 221 128 365 377 691 270 59-244-203-424-372-589 78-218 83-26 134-243-68-24-106-48-180-40-176 22-96 68-103 92-30 121 162 23-41 121-56 25-129 3-186-8zm-3524-2897c-124 385 50 295 119 525-108 145-79 15-196 164-101 123 10 18-103 252 98 36 258 45 392 74 192 40 193 22 317-149-65-158-130-317-199-476-73-246 20-64 30-248-13-70-22-139-31-209-198 7-176-5-329 67z" fill="#ecf0f1"/><path d="m25605 12049 9 14 47 74 23 37 7 11 66 107 5 9 25 42 42 71 35 59 32 55 35 62 33 60 37 66 24 44 43 78 58 111c38 74 75 148 112 222l2 4 45 93 20 42 37 78 16 36 41 89 8 19 44 98 50 116 39 92 13 33 35 86 15 37 33 86 16 41 33 86 11 31 35 93 42 119c25 73 50 147 74 220l11 35 24 76 19 62 25 81 5 19c45 150 86 301 125 453l8 31 24 100 6 25 25 110 1 4c46 202 86 405 120 610l3 17 19 117 1 2c39 251 69 503 91 757l1 1c66 764 54 1542-41 2322-17-59-31-135-35-242-231 5-240 8-501-25l-15 11c-142 111-20 83-238 177-159 69-298 169-445 252 762-2616 531-5291-475-7616z" fill="#c6cbd6"/><path d="m13045 7849-28 10c-121 36-258 6-391 19-23 56-41 103-53 142-2594 1000-4797 2949-6072 5557-87-96-164-194-222-292 68-251 162-235 76-514-14-51-33-101-53-148 1156-2063 2912-3666 4971-4650 112 82 286 103 412 136 70-69 120-133 208-139 34-2 73 7 124 25-5 44-8 88-10 133-1 3-2 33-4 26 5-5 2 19 3 28 256-61 74-119 261-313-172-92-155-63-234-213 148-88 374-65 530-5-44 107-95 88-82 195 148-40 297-221 485-121 30 38 68 77 101 115-7 3-14 6-22 9zm-1621 54c82-38 166-75 250-111l2 12c7 26 17 30 14 92-188-10-197 19-266 7z" fill="#f3f3f3"/></g><g><path d="m0 0h1275v11692h-1275z" fill="#ffc42e" transform="matrix(0 1.208 -1.03 0 29529.3 8833.04)"/><path d="m29529 8833v1541h1003c171 0 311-140 311-311v-919c0-171-140-311-311-311z" fill="#ff576b"/><path d="m16151 9218v771l1334 385v-770-771z" fill="#fff"/><path d="m14868 9604 1283-386v386 385z" fill="#4d4d4d"/><path d="m0 0h1275v11692h-1275z" fill="#eaa43a" transform="matrix(0 .37 -1.03 0 29529.3 9902.31)"/></g><g><path d="m6684 18657h8399v13649h-7851c-804 0-1461-657-1461-1461v-11275c0-502 411-913 913-913z" fill="#ff576b"/><path d="m6958 29960h8125v2346h-7851c-777 0-1417-614-1459-1381 114-549 603-965 1185-965z" fill="#e64e60"/><path d="m7070 30400h8013v1461h-8013c-402 0-730-329-730-730 0-402 328-731 730-731z" fill="#fff"/></g></g></g></svg>