<svg id="Capa_1" enable-background="new 0 0 512 512" height="512" viewBox="0 0 512 512" width="512" xmlns="http://www.w3.org/2000/svg"><g><path d="m512 336.76-15 15 15 15v49l-256 12.78-256-12.78v-49l15-15-15-15v-49l256-16.76 256 16.76z" fill="#75a2e5"/><path d="m512 336.76-15 15 15 15v49l-256 12.78v-157.54l256 16.76z" fill="#4e6aca"/><path d="m0 336.76h512v30h-512z" fill="#4e6aca"/><path d="m256 336.76h256v30h-256z" fill="#5149bd"/><path d="m0 223.76h512v64h-512z" fill="#faeee4"/><path d="m512 415.76v66.24l-256 14.88-256-14.88v-66.24z" fill="#faeee4"/><path d="m256 223.76h256v64h-256z" fill="#dcd2cd"/><path d="m256 415.76h256v66.24l-256 14.88z" fill="#dcd2cd"/><path d="m399.75 159.76-8.67 64-135.08 15.64-135.08-15.64-8.67-64 143.75-15.64z" fill="#75a2e5"/><path d="m399.75 159.76-8.67 64-135.08 15.64v-95.28z" fill="#4e6aca"/><path d="m179.937 144.124h30v95.277h-30z" fill="#4e6aca"/><path d="m302.063 144.124h30v95.277h-30z" fill="#5149bd"/><path d="m421.41 0-21.66 159.76h-287.5l-12.98-95.76 156.73-31.14z" fill="#3b3957"/><path d="m391.08 223.76-39.08 273.36h-192l-39.08-273.36z" fill="#3b3957"/><path d="m256 223.76h135.08l-39.08 273.36h-96z" fill="#241b38"/><path d="m421.41 0-21.66 159.76h-143.75v-126.9z" fill="#241b38"/><path d="m332.188 90.375h30v30h-30z" fill="#eebd40"/><path d="m271.938 90.375h30v30h-30z" fill="#eebd40"/><path d="m208 415.76h96v81.12h-96z" fill="#75a2e5"/><path d="m256 415.76h48v81.12h-48z" fill="#4e6aca"/><path d="m0 482h512v30h-512z" fill="#85d579"/><path d="m256 482h256v30h-256z" fill="#509978"/><ellipse cx="256" cy="316.25" fill="#f6df42" rx="68.45" ry="34.22"/><path d="m324.45 316.25c0 18.9-30.65 34.22-68.45 34.22v-68.44c37.8 0 68.45 15.32 68.45 34.22z" fill="#eebd40"/></g></svg>