<?xml version="1.0" encoding="utf-8"?>
<!-- Generator: Adobe Illustrator 27.5.0, SVG Export Plug-In . SVG Version: 6.00 Build 0)  -->
<svg version="1.1" id="Layer_1" xmlns="http://www.w3.org/2000/svg" xmlns:xlink="http://www.w3.org/1999/xlink" x="0px" y="0px"
	 viewBox="0 0 1200 1200" style="enable-background:new 0 0 1200 1200;" xml:space="preserve">
<g>
	<rect style="fill:#9ACCDC;" width="1200" height="1200"/>
	<g>
		<g>
			<polygon style="fill:#FFFFFF;" points="750.621,494.868 745.435,488.563 771.162,467.396 824.396,415.565 876.611,458.771 
				924.983,427.099 975.943,373.406 981.862,379.026 929.852,433.667 876.045,468.894 824.838,426.525 776.6,473.474 			"/>
		</g>
		<g>
			
				<ellipse transform="matrix(0.7071 -0.7071 0.7071 0.7071 -106.1006 684.9473)" style="fill:#F1F1F2;" cx="773.754" cy="470.548" rx="13.738" ry="13.738"/>
			<path style="fill:#26A9D5;" d="M780.47,470.548c0,3.709-3.007,6.716-6.716,6.716c-3.709,0-6.717-3.007-6.717-6.716
				c0-3.71,3.008-6.716,6.717-6.716C777.463,463.832,780.47,466.839,780.47,470.548z"/>
		</g>
		<g>
			<path style="fill:#F1F1F2;" d="M838.355,421.045c0,7.587-6.15,13.738-13.737,13.738c-7.588,0-13.738-6.151-13.738-13.738
				c0-7.587,6.15-13.737,13.738-13.737C832.205,407.308,838.355,413.458,838.355,421.045z"/>
			<circle style="fill:#ED8922;" cx="824.618" cy="421.045" r="6.716"/>
		</g>
		<g>
			<path style="fill:#F1F1F2;" d="M890.066,463.832c0,7.587-6.151,13.738-13.738,13.738c-7.587,0-13.737-6.151-13.737-13.738
				c0-7.587,6.15-13.738,13.737-13.738C883.915,450.094,890.066,456.245,890.066,463.832z"/>
			<path style="fill:#38BFC3;" d="M883.045,463.832c0,3.709-3.007,6.716-6.716,6.716c-3.709,0-6.716-3.007-6.716-6.716
				c0-3.709,3.006-6.716,6.716-6.716C880.038,457.116,883.045,460.123,883.045,463.832z"/>
		</g>
		<g>
			<path style="fill:#F1F1F2;" d="M941.353,430.251c0,7.587-6.15,13.738-13.737,13.738c-7.588,0-13.738-6.15-13.738-13.738
				s6.15-13.737,13.738-13.737C935.203,416.514,941.353,422.664,941.353,430.251z"/>
			<path style="fill:#E4C335;" d="M934.331,430.251c0,3.71-3.006,6.716-6.715,6.716c-3.71,0-6.717-3.007-6.717-6.716
				s3.007-6.716,6.717-6.716C931.325,423.535,934.331,426.542,934.331,430.251z"/>
		</g>
		<g>
			<path style="fill:#F1F1F2;" d="M992.64,376.216c0,7.587-6.151,13.738-13.738,13.738c-7.587,0-13.738-6.151-13.738-13.738
				c0-7.587,6.151-13.737,13.738-13.737C986.49,362.479,992.64,368.629,992.64,376.216z"/>
			<path style="fill:#37B34A;" d="M985.619,376.216c0,3.709-3.007,6.716-6.716,6.716c-3.708,0-6.716-3.007-6.716-6.716
				s3.008-6.716,6.716-6.716C982.612,369.5,985.619,372.507,985.619,376.216z"/>
		</g>
	</g>
	<path style="fill:#5190A4;" d="M777.378,361.223c0.02,0.003,0.04,0.006,0.06,0.01c1.502,0.267,2.374,0.252,2.801,0.052
		c1.41-0.172,2.793-0.662,4.103-1.551c7.581-5.143,9.55-14.513,9.55-15.866c0-0.126-0.077-0.363-0.215-0.688l-10.71,6.096
		c-3.164,1.801-7.451,0.292-9.526-3.355l-0.518-0.91c-2.075-3.646-1.185-8.103,1.979-9.904l10.584-6.025
		c-0.25-0.402-0.393-0.631-0.393-0.631c-3.158-0.902-15.867-4.286-22.559,4.211c-2.311,2.934-3.232,5.504-3.222,8.071v0.001
		c0.004,0.861,0.114,1.723,0.31,2.597c-0.102,2.395-1.385,6.484-7.463,12.891l-2.559,2.559c-0.351,0.334-0.675,0.661-0.982,0.982
		l-30.145,30.145l-0.01-0.01l-17.331,17.33c-5.678-1.632-12.053-0.218-16.518,4.247c-6.539,6.539-6.539,17.18,0,23.719
		c6.539,6.539,17.179,6.539,23.719,0c4.791-4.791,6.067-11.782,3.838-17.749l5.233-5.233l0.01,0.01l46.542-46.543
		c0.048-0.047,0.112-0.108,0.187-0.178c0.004-0.004,0.008-0.008,0.013-0.012c0.077-0.071,0.168-0.153,0.271-0.243
		c0.006-0.005,0.012-0.011,0.018-0.016c0.105-0.092,0.224-0.193,0.355-0.301c0.007-0.006,0.013-0.011,0.02-0.017
		c0.135-0.111,0.282-0.229,0.443-0.352c0.004-0.003,0.008-0.006,0.013-0.009c0.164-0.126,0.341-0.257,0.53-0.392
		c0.002-0.001,0.003-0.002,0.004-0.003c2.115-1.505,5.785-3.449,10.295-3.09l-0.001,0c0.328,0.026,0.659,0.06,0.996,0.112
		C777.195,361.194,777.286,361.209,777.378,361.223z M700.748,433.65h-8.545l-6.042-6.042l0-8.545l6.042-6.042l8.545,0l6.042,6.042
		v8.545L700.748,433.65z"/>
	<g>
		<polygon style="fill:#F3EBC5;" points="281.23,817.424 268.854,781.16 293.607,781.16 		"/>
		<rect x="268.854" y="642.201" style="fill:#FFCD26;" width="24.753" height="138.959"/>
		<rect x="276.98" y="642.201" style="fill:#CA992C;" width="8.5" height="138.959"/>
		<polygon style="fill:#313332;" points="281.23,817.424 277.59,806.758 284.87,806.758 		"/>
	</g>
	<g>
		<path style="fill:#5190A4;" d="M234.347,479.879h54.807c1.696,0,3.071,1.375,3.071,3.072v31.518c0,1.696-1.375,3.071-3.071,3.071
			h-54.807c-1.696,0-3.072-1.375-3.072-3.071V482.95C231.276,481.254,232.651,479.879,234.347,479.879z"/>
		<polygon style="fill:#5190A4;" points="284.617,527.909 284.617,514.198 272.152,514.198 		"/>
	</g>
	<g>
		<g>
			<path style="fill:#5190A4;" d="M547.254,454.556h-65.472V409.38h65.472V454.556z M485.71,450.628h57.616v-37.319H485.71V450.628z
				"/>
		</g>
		<g>
			<polygon style="fill:#5190A4;" points="514.518,434.333 482.652,412.976 484.84,409.713 514.518,429.604 544.196,409.713 
				546.384,412.976 			"/>
		</g>
		<g>
			
				<rect x="532.339" y="422.111" transform="matrix(0.77 -0.638 0.638 0.77 -157.4235 441.9354)" style="fill:#5190A4;" width="3.928" height="34.441"/>
		</g>
		<g>
			
				<rect x="477.512" y="437.368" transform="matrix(0.638 -0.77 0.77 0.638 -159.2116 539.9785)" style="fill:#5190A4;" width="34.441" height="3.928"/>
		</g>
	</g>
	<g>
		<g>
			<g>
				<rect x="630.194" y="387.336" style="fill:#231F20;" width="3.817" height="20.04"/>
			</g>
			<g>
				<path style="fill:#231F20;" d="M642.546,372.338h-22.648v-56.684h22.648V372.338z M623.716,368.521h15.013v-49.05h-15.013
					V368.521z"/>
			</g>
			<g>
				<g>
					<g>
						
							<rect x="387.453" y="322.313" transform="matrix(0.7071 -0.7071 0.7071 0.7071 -128.3787 376.5245)" style="fill:#5190A4;" width="5.725" height="41.832"/>
					</g>
					<g>
						
							<rect x="369.4" y="340.366" transform="matrix(0.7072 -0.7071 0.7071 0.7072 -128.3808 376.4924)" style="fill:#5190A4;" width="41.832" height="5.725"/>
					</g>
				</g>
				<g>
					<g>
						
							<rect x="387.453" y="351.893" transform="matrix(0.7071 -0.7071 0.7071 0.7071 -149.2946 385.1881)" style="fill:#5190A4;" width="5.725" height="41.832"/>
					</g>
					<g>
						
							<rect x="369.4" y="369.946" transform="matrix(0.7071 -0.7071 0.7071 0.7071 -149.2948 385.1815)" style="fill:#5190A4;" width="41.832" height="5.725"/>
					</g>
				</g>
				<g>
					<g>
						
							<rect x="387.453" y="381.472" transform="matrix(0.7071 -0.7071 0.7071 0.7071 -170.2107 393.8519)" style="fill:#5190A4;" width="5.725" height="41.832"/>
					</g>
					<g>
						
							<rect x="369.4" y="399.526" transform="matrix(0.7071 -0.7071 0.7071 0.7071 -170.2106 393.8449)" style="fill:#5190A4;" width="41.832" height="5.725"/>
					</g>
				</g>
				<g>
					<g>
						
							<rect x="387.453" y="411.052" transform="matrix(0.7071 -0.7071 0.7071 0.7071 -191.1268 402.5156)" style="fill:#5190A4;" width="5.725" height="41.832"/>
					</g>
					<g>
						
							<rect x="369.4" y="429.106" transform="matrix(0.7071 -0.7071 0.7071 0.7071 -191.1264 402.5084)" style="fill:#5190A4;" width="41.832" height="5.725"/>
					</g>
				</g>
				<g>
					<g>
						
							<rect x="387.453" y="440.632" transform="matrix(0.7071 -0.7071 0.7071 0.7071 -212.0429 411.1793)" style="fill:#5190A4;" width="5.725" height="41.832"/>
					</g>
					<g>
						
							<rect x="369.4" y="458.686" transform="matrix(0.7071 -0.7071 0.7071 0.7071 -212.0423 411.1718)" style="fill:#5190A4;" width="41.832" height="5.725"/>
					</g>
				</g>
				<g>
					<g>
						
							<rect x="387.453" y="470.212" transform="matrix(0.7071 -0.7071 0.7071 0.7071 -232.959 419.843)" style="fill:#5190A4;" width="5.725" height="41.832"/>
					</g>
					<g>
						
							<rect x="369.4" y="488.265" transform="matrix(0.7071 -0.7071 0.7071 0.7071 -232.9581 419.8353)" style="fill:#5190A4;" width="41.832" height="5.725"/>
					</g>
				</g>
				<g>
					<g>
						
							<rect x="387.453" y="499.792" transform="matrix(0.7071 -0.7071 0.7071 0.7071 -253.875 428.5067)" style="fill:#5190A4;" width="5.725" height="41.832"/>
					</g>
					<g>
						
							<rect x="369.4" y="517.845" transform="matrix(0.7071 -0.7071 0.7071 0.7071 -253.8739 428.4988)" style="fill:#5190A4;" width="41.832" height="5.725"/>
					</g>
				</g>
				<g>
					<g>
						
							<rect x="387.453" y="529.371" transform="matrix(0.7071 -0.7071 0.7071 0.7071 -274.7919 437.176)" style="fill:#5190A4;" width="5.725" height="41.832"/>
					</g>
					<g>
						
							<rect x="369.4" y="547.425" transform="matrix(0.7071 -0.7071 0.7071 0.7071 -274.7895 437.1622)" style="fill:#5190A4;" width="41.832" height="5.725"/>
					</g>
				</g>
				<g>
					<g>
						
							<rect x="387.453" y="558.951" transform="matrix(0.7071 -0.7071 0.7071 0.7071 -295.7072 445.8352)" style="fill:#5190A4;" width="5.725" height="41.833"/>
					</g>
					<g>
						
							<rect x="369.399" y="577.004" transform="matrix(0.7071 -0.7072 0.7072 0.7071 -295.7153 445.8764)" style="fill:#5190A4;" width="41.833" height="5.725"/>
					</g>
				</g>
				<g>
					<g>
						
							<rect x="387.453" y="588.531" transform="matrix(0.7071 -0.7071 0.7071 0.7071 -316.6241 454.5026)" style="fill:#5190A4;" width="5.725" height="41.832"/>
					</g>
					<g>
						
							<rect x="369.4" y="606.584" transform="matrix(0.7071 -0.7071 0.7071 0.7071 -316.6212 454.4891)" style="fill:#5190A4;" width="41.832" height="5.725"/>
					</g>
				</g>
			</g>
			<g>
				<path style="fill:#5190A4;" d="M408.099,636.645h-35.567V321.784h35.567V636.645z M380.167,629.011h20.298V329.418h-20.298
					V629.011z"/>
			</g>
			<g>
				<g>
					
						<rect x="407.96" y="299.303" transform="matrix(0.7071 -0.7071 0.7071 0.7071 -88.0497 391.7572)" style="fill:#5190A4;" width="41.832" height="5.725"/>
				</g>
				<g>
					
						<rect x="426.014" y="281.25" transform="matrix(0.7071 -0.7071 0.7071 0.7071 -88.0486 391.7637)" style="fill:#5190A4;" width="5.725" height="41.832"/>
				</g>
			</g>
			<g>
				<g>
					
						<rect x="437.54" y="299.303" transform="matrix(0.7071 -0.7071 0.7071 0.7071 -79.3795 412.7061)" style="fill:#5190A4;" width="41.832" height="5.725"/>
				</g>
				<g>
					
						<rect x="455.593" y="281.25" transform="matrix(0.7071 -0.7071 0.7071 0.7071 -79.3849 412.6795)" style="fill:#5190A4;" width="5.725" height="41.832"/>
				</g>
			</g>
			<g>
				<g>
					
						<rect x="467.119" y="299.303" transform="matrix(0.7071 -0.7071 0.7071 0.7071 -70.7213 433.5954)" style="fill:#5190A4;" width="41.832" height="5.725"/>
				</g>
				<g>
					
						<rect x="485.173" y="281.25" transform="matrix(0.7071 -0.7071 0.7071 0.7071 -70.7213 433.5954)" style="fill:#5190A4;" width="5.725" height="41.832"/>
				</g>
			</g>
			<g>
				<g>
					
						<rect x="496.699" y="299.303" transform="matrix(0.7071 -0.7071 0.7071 0.7071 -62.0576 454.5115)" style="fill:#5190A4;" width="41.832" height="5.725"/>
				</g>
				<g>
					
						<rect x="514.753" y="281.25" transform="matrix(0.7071 -0.7071 0.7071 0.7071 -62.0576 454.5115)" style="fill:#5190A4;" width="5.725" height="41.832"/>
				</g>
			</g>
			<g>
				<g>
					
						<rect x="526.279" y="299.303" transform="matrix(0.7071 -0.7071 0.7071 0.7071 -53.3938 475.4276)" style="fill:#5190A4;" width="41.832" height="5.725"/>
				</g>
				<g>
					
						<rect x="544.332" y="281.25" transform="matrix(0.7071 -0.7071 0.7071 0.7071 -53.3938 475.4276)" style="fill:#5190A4;" width="5.725" height="41.832"/>
				</g>
			</g>
			<g>
				<g>
					<path style="fill:#5190A4;" d="M631.222,319.819h-39.065v-5.726h30.534l-30.312-22.93l-27.817,27.817l-4.048-4.048l29.58-29.58
						c1.009-1.011,2.611-1.122,3.751-0.259l39.103,29.58c0.981,0.742,1.378,2.028,0.987,3.194S632.452,319.819,631.222,319.819z"/>
				</g>
				<g>
					
						<rect x="574.467" y="281.25" transform="matrix(0.7071 -0.7071 0.7071 0.7071 -44.5676 496.736)" style="fill:#5190A4;" width="5.725" height="41.832"/>
				</g>
			</g>
			<g>
				<path style="fill:#5190A4;" d="M595.975,319.949H407.43v-35.567h188.544V319.949z M415.065,312.315h173.276v-20.298H415.065
					V312.315z"/>
			</g>
			<g>
				<g>
					
						<rect x="297.245" y="299.303" transform="matrix(0.7071 -0.7071 0.7071 0.7071 -120.4762 313.4765)" style="fill:#5190A4;" width="41.832" height="5.725"/>
				</g>
				<g>
					
						<rect x="315.299" y="281.25" transform="matrix(0.7071 -0.7071 0.7071 0.7071 -120.4762 313.4765)" style="fill:#5190A4;" width="5.725" height="41.832"/>
				</g>
			</g>
			<g>
				<g>
					
						<rect x="326.825" y="299.303" transform="matrix(0.7071 -0.7071 0.7071 0.7071 -111.8124 334.3926)" style="fill:#5190A4;" width="41.832" height="5.725"/>
				</g>
				<g>
					
						<rect x="344.879" y="281.25" transform="matrix(0.7071 -0.7071 0.7071 0.7071 -111.8124 334.3926)" style="fill:#5190A4;" width="5.725" height="41.832"/>
				</g>
			</g>
			<g>
				<path style="fill:#5190A4;" d="M366.387,319.949h-66.284v-35.567h66.284V319.949z M307.737,312.315h51.015v-20.298h-51.015
					V312.315z"/>
			</g>
			<g>
				<rect x="334.49" y="622.808" style="fill:#808184;" width="111.652" height="20.04"/>
			</g>
			<g>
				<rect x="361.21" y="613.583" style="fill:#58595B;" width="58.212" height="9.225"/>
			</g>
			<g>
				<rect x="358.481" y="270.331" style="fill:#35707F;" width="63.67" height="63.67"/>
			</g>
			<g>
				
					<ellipse transform="matrix(0.2311 -0.9729 0.9729 0.2311 176.9443 857.8196)" style="fill:#ED8922;" cx="631.222" cy="316.956" rx="14.102" ry="14.102"/>
			</g>
			<g>
				<path style="fill:#ED8922;" d="M643.874,361.635H618.57c-4.838,0-7.862,5.238-5.443,9.428l12.652,21.914
					c2.419,4.19,8.467,4.19,10.886,0l12.652-21.914C651.737,366.872,648.713,361.635,643.874,361.635z"/>
			</g>
			<g>
				<path style="fill:#ED8922;" d="M632.103,435.528c-5.196,0-9.424-4.227-9.424-9.424c0-4.198,2.76-7.764,6.561-8.979v-9.749
					c0-1.581,1.281-2.863,2.863-2.863c1.581,0,2.863,1.282,2.863,2.863v15.03h-2.863c-2.039,0-3.698,1.659-3.698,3.698
					c0,2.039,1.659,3.698,3.698,3.698c2.039,0,3.698-1.659,3.698-3.698c0-1.581,1.281-2.863,2.863-2.863s2.863,1.282,2.863,2.863
					C641.527,431.301,637.299,435.528,632.103,435.528z"/>
			</g>
		</g>
		<g>
			<path style="fill:#3F3E40;" d="M654.692,448.608l-20.681-20.68l-20.68,20.68l-2.5-2.499l21.93-21.93c0.691-0.69,1.809-0.69,2.5,0
				l21.93,21.93L654.692,448.608z"/>
		</g>
		<path style="fill:#ED8922;" d="M638.664,423.241c-1.581,0-2.863,1.282-2.863,2.863c0,1.412-0.805,2.628-1.972,3.25
			c1.049,1.418,2.386,3.2,3.489,4.589c2.534-1.691,4.209-4.571,4.209-7.839C641.526,424.523,640.245,423.241,638.664,423.241z"/>
	</g>
	<g>
		<g>
			<path style="fill:#313332;" d="M876.738,483.169h-541.48c-15.048,0-27.247,12.199-27.247,27.247v335.3
				c0,15.048,12.199,27.247,27.247,27.247h541.48c15.048,0,27.247-12.199,27.247-27.247v-335.3
				C903.985,495.368,891.786,483.169,876.738,483.169z"/>
			<rect x="343.4" y="513.429" style="fill:#A3D39F;" width="525.196" height="329.273"/>
			<path style="fill:#BBBDBF;" d="M262.492,864.756l4.793,7.389c8.525,13.143,23.126,21.076,38.792,21.076h599.841
				c15.666,0,30.267-7.933,38.792-21.076l4.793-7.389H262.492z"/>
			<rect x="262.492" y="838.599" style="fill:#F1F1F2;" width="687.012" height="26.157"/>
			<rect x="557.273" y="838.599" style="fill:#DCD6DC;" width="97.448" height="10.258"/>
		</g>
		<rect x="343.329" y="513.484" style="fill:#C2E1BF;" width="525.337" height="23.267"/>
		<path style="fill:#62A55F;" d="M414.213,519.86h-51.287c-2.904,0-5.258,2.354-5.258,5.258s2.354,5.258,5.258,5.258h51.287
			c2.904,0,5.258-2.354,5.258-5.258S417.117,519.86,414.213,519.86z"/>
		<rect x="799.409" y="519.86" style="fill:#62A55F;" width="61.803" height="10.517"/>
		<rect x="710.04" y="519.86" style="fill:#62A55F;" width="61.803" height="10.517"/>
		<g>
			<rect x="464.249" y="601.635" style="fill:#62A55F;" width="283.426" height="1.774"/>
		</g>
		<g>
			<rect x="492.243" y="653.97" style="fill:#62A55F;" width="64.754" height="64.754"/>
			<rect x="573.621" y="653.97" style="fill:#62A55F;" width="64.754" height="64.754"/>
			<rect x="654.998" y="653.97" style="fill:#62A55F;" width="64.754" height="64.754"/>
		</g>
		<g>
			<rect x="492.243" y="729.812" style="fill:#62A55F;" width="64.754" height="64.754"/>
			<rect x="573.621" y="729.812" style="fill:#62A55F;" width="64.754" height="64.754"/>
			<rect x="654.998" y="729.812" style="fill:#62A55F;" width="64.754" height="64.754"/>
		</g>
	</g>
	<g>
		<path style="fill:#1A86AD;" d="M912.671,672.777c0-2.6-0.302-5.127-0.838-7.566l7.093-8.799l-6.526-11.303l-11.2,1.748
			c-3.722-3.401-8.154-6.035-13.08-7.591l-4.066-10.523h-13.052l-4.066,10.523c-4.925,1.555-9.357,4.189-13.08,7.591l-11.2-1.748
			l-6.526,11.303l7.093,8.799c-0.536,2.44-0.838,4.966-0.838,7.566c0,2.6,0.302,5.127,0.838,7.566l-7.093,8.799l6.526,11.303
			l11.2-1.748c3.722,3.401,8.155,6.035,13.08,7.591l4.066,10.523h13.052l4.066-10.523c4.925-1.555,9.358-4.189,13.08-7.591
			l11.2,1.748l6.526-11.303l-7.093-8.799C912.368,677.904,912.671,675.377,912.671,672.777z M877.528,697.332
			c-13.561,0-24.555-10.993-24.555-24.555c0-13.561,10.994-24.555,24.555-24.555c13.561,0,24.555,10.994,24.555,24.555
			C902.083,686.338,891.09,697.332,877.528,697.332z"/>
		<path style="fill:#FFCD26;" d="M929.915,707.915c-0.959-0.959-2.003-1.78-3.101-2.482l-0.629-5.863l-6.577-1.762l-3.487,4.777
			c-2.628,0.118-5.235,0.782-7.626,2.025l-5.382-2.382l-4.815,4.815l2.382,5.382c-1.243,2.391-1.906,4.998-2.025,7.625l-4.777,3.487
			l1.762,6.577l5.863,0.629c0.702,1.098,1.523,2.141,2.482,3.101c0.959,0.959,2.003,1.78,3.1,2.482l0.629,5.863l6.577,1.762
			l3.487-4.777c2.628-0.119,5.234-0.782,7.625-2.025l5.382,2.382l4.815-4.815l-2.382-5.382c1.243-2.391,1.907-4.997,2.025-7.625
			l4.777-3.487l-1.762-6.577l-5.863-0.629C931.695,709.918,930.875,708.875,929.915,707.915z M926.009,729.938
			c-5.003,5.003-13.114,5.003-18.117,0c-5.003-5.003-5.003-13.114,0-18.117c5.003-5.003,13.114-5.003,18.117,0
			C931.012,716.824,931.012,724.935,926.009,729.938z"/>
		<path style="fill:#29B473;" d="M961.481,695.942c0-1.081-0.126-2.131-0.349-3.145l2.948-3.657l-2.712-4.698l-4.655,0.727
			c-1.547-1.414-3.389-2.508-5.436-3.155l-1.69-4.373h-5.424l-1.69,4.373c-2.047,0.646-3.889,1.741-5.436,3.155l-4.655-0.727
			l-2.712,4.698l2.948,3.657c-0.223,1.014-0.349,2.064-0.349,3.144c0,1.081,0.126,2.131,0.349,3.145l-2.948,3.657l2.712,4.698
			l4.655-0.727c1.547,1.413,3.389,2.508,5.436,3.155l1.69,4.373h5.424l1.69-4.373c2.047-0.646,3.889-1.741,5.436-3.155l4.655,0.727
			l2.712-4.698l-2.948-3.657C961.355,698.073,961.481,697.023,961.481,695.942z M946.876,706.147
			c-5.636,0-10.205-4.569-10.205-10.205c0-5.636,4.569-10.205,10.205-10.205c5.636,0,10.205,4.569,10.205,10.205
			C957.081,701.578,952.512,706.147,946.876,706.147z"/>
	</g>
	<g>
		<path style="fill:#FFFFFF;" d="M682.689,444.751h-97.354c-3.686,0-6.675,2.988-6.675,6.675v97.753
			c0,3.686,2.988,6.675,6.675,6.675h97.354c3.686,0,6.675-2.988,6.675-6.675v-97.753
			C689.363,447.74,686.375,444.751,682.689,444.751z"/>
		<rect x="584.622" y="455.719" style="fill:#3F3E40;" width="98.779" height="95.117"/>
		<path style="fill:#E7535D;" d="M591.563,451.337c0,1.327-1.076,2.403-2.403,2.403c-1.327,0-2.403-1.076-2.403-2.403
			s1.076-2.403,2.403-2.403C590.488,448.935,591.563,450.01,591.563,451.337z"/>
		<path style="fill:#FFCD26;" d="M599.75,451.337c0,1.327-1.076,2.403-2.403,2.403c-1.327,0-2.403-1.076-2.403-2.403
			s1.076-2.403,2.403-2.403C598.675,448.935,599.75,450.01,599.75,451.337z"/>
		<path style="fill:#29B473;" d="M607.938,451.337c0,1.327-1.076,2.403-2.403,2.403c-1.327,0-2.403-1.076-2.403-2.403
			s1.076-2.403,2.403-2.403C606.862,448.935,607.938,450.01,607.938,451.337z"/>
		<g>
			<rect x="605.535" y="469.817" style="fill:#26A9D5;" width="39.867" height="4.272"/>
			<rect x="610.518" y="477.648" style="fill:#ED8922;" width="24.561" height="4.272"/>
			<rect x="621.197" y="485.479" style="fill:#29B473;" width="47.876" height="4.272"/>
			<rect x="621.197" y="493.31" style="fill:#29B473;" width="41.469" height="4.272"/>
			<rect x="610.518" y="501.141" style="fill:#ED8922;" width="24.561" height="4.272"/>
			<rect x="605.535" y="508.972" style="fill:#26A9D5;" width="39.867" height="4.272"/>
		</g>
		<g>
			<rect x="598.06" y="455.718" style="fill:#808184;" width="1.068" height="95.117"/>
		</g>
	</g>
	<g>
		
			<ellipse transform="matrix(0.2342 -0.9722 0.9722 0.2342 -179.9812 627.3431)" style="fill:#29B473;" cx="308.214" cy="427.914" rx="44.352" ry="44.352"/>
		<g>
			<path style="fill:#FFFDFD;" d="M279.91,430.568l-0.469,0.076v0.15l0.469,0.074l14.282,5.409v6.004l-20.681-9.192v-4.818
				l20.681-9.192v5.98L279.91,430.568z"/>
			<path style="fill:#FFFDFD;" d="M303.235,447.447h-5.51l14.158-39.065h5.51L303.235,447.447z"/>
			<path style="fill:#FFFDFD;" d="M321.569,424.986v-5.905l21.349,9.192v4.818l-21.349,9.192v-5.905l14.949-5.609l0.445-0.049
				l0.025-0.15l-0.47-0.099L321.569,424.986z"/>
		</g>
	</g>
	<g>
		<path style="fill:#ED8922;" d="M216.799,601.771c-3.571-4.586-5.912-10.173-6.511-16.267h-12.962
			c0.67,9.651,4.421,18.464,10.284,25.456L216.799,601.771z"/>
		<path style="fill:#FFFFFF;" d="M210.405,578.321c0.77-5.957,3.199-11.4,6.816-15.844l-9.166-9.166
			c-5.917,6.844-9.789,15.497-10.656,25.01H210.405z"/>
		<path style="fill:#FFFFFF;" d="M222.357,557.456c4.465-3.478,9.88-5.785,15.788-6.457v-12.981
			c-9.463,0.76-18.1,4.482-24.977,10.249L222.357,557.456z"/>
		<path style="fill:#262261;" d="M245.327,538.019v12.981c5.908,0.672,11.323,2.979,15.787,6.456l9.189-9.189
			C263.427,542.501,254.79,538.778,245.327,538.019z"/>
		<path style="fill:#26A9D5;" d="M261.651,606.907c-4.563,3.714-10.179,6.179-16.324,6.878v12.981
			c9.702-0.779,18.531-4.676,25.489-10.692L261.651,606.907z"/>
		<path style="fill:#38BFC3;" d="M266.25,562.477c3.617,4.444,6.047,9.887,6.817,15.845h13.005
			c-0.867-9.514-4.739-18.167-10.656-25.011L266.25,562.477z"/>
		<path style="fill:#26A9D5;" d="M273.184,585.504c-0.598,6.095-2.94,11.682-6.512,16.268l9.189,9.189
			c5.864-6.992,9.615-15.806,10.285-25.457H273.184z"/>
		<path style="fill:#ED8922;" d="M238.145,613.785c-6.146-0.699-11.761-3.163-16.324-6.878l-9.166,9.166
			c6.958,6.016,15.788,9.914,25.49,10.693V613.785z"/>
	</g>
	<g>
		<g>
			<g>
				<g>
					<path style="fill:#5190A4;" d="M944.151,617.615c-12.648,0-22.937-10.29-22.937-22.937c0-12.648,10.289-22.937,22.937-22.937
						c12.647,0,22.937,10.29,22.937,22.937C967.088,607.325,956.798,617.615,944.151,617.615z M944.151,573.927
						c-11.442,0-20.751,9.309-20.751,20.751c0,11.442,9.309,20.751,20.751,20.751c11.442,0,20.751-9.309,20.751-20.751
						C964.902,583.236,955.593,573.927,944.151,573.927z"/>
				</g>
			</g>
			<g>
				<path style="fill:#5190A4;" d="M947.217,594.678c0,1.693-1.373,3.066-3.066,3.066c-1.693,0-3.066-1.373-3.066-3.066
					c0-1.693,1.373-3.066,3.066-3.066C945.844,591.612,947.217,592.984,947.217,594.678z"/>
			</g>
			<g>
				<path style="fill:#5190A4;" d="M944.971,575.701v3.28c2.264,0.117,4.401,0.719,6.315,1.699l1.641-2.842
					C950.528,576.582,947.831,575.823,944.971,575.701z"/>
			</g>
			<g>
				<path style="fill:#5190A4;" d="M952.705,581.501c1.844,1.201,3.421,2.778,4.622,4.623l2.842-1.641
					c-1.494-2.339-3.485-4.33-5.824-5.824L952.705,581.501z"/>
			</g>
			<g>
				<path style="fill:#5190A4;" d="M958.149,587.543c0.979,1.914,1.582,4.051,1.699,6.315h3.28c-0.122-2.86-0.881-5.557-2.136-7.956
					L958.149,587.543z"/>
			</g>
			<g>
				<path style="fill:#5190A4;" d="M963.128,595.498h-3.28c-0.117,2.265-0.719,4.402-1.699,6.315l2.842,1.641
					C962.247,601.055,963.005,598.358,963.128,595.498z"/>
			</g>
			<g>
				<path style="fill:#5190A4;" d="M937.016,580.68c1.914-0.979,4.051-1.582,6.315-1.699v-3.28c-2.86,0.122-5.557,0.881-7.956,2.136
					L937.016,580.68z"/>
			</g>
			<g>
				<path style="fill:#5190A4;" d="M930.153,601.813c-0.979-1.914-1.582-4.051-1.698-6.315h-3.28
					c0.122,2.86,0.881,5.557,2.136,7.956L930.153,601.813z"/>
			</g>
			<g>
				<path style="fill:#5190A4;" d="M925.175,593.858h3.28c0.117-2.265,0.719-4.402,1.698-6.315l-2.842-1.641
					C926.055,588.301,925.297,590.998,925.175,593.858z"/>
			</g>
			<g>
				<path style="fill:#5190A4;" d="M930.975,586.124c1.201-1.844,2.778-3.421,4.622-4.622l-1.64-2.842
					c-2.339,1.494-4.33,3.484-5.823,5.824L930.975,586.124z"/>
			</g>
			<g>
				<polygon style="fill:#5190A4;" points="942.485,593.262 955.006,581.902 945.817,596.093 				"/>
			</g>
		</g>
		<rect x="940.942" y="567.651" style="fill:#5190A4;" width="6.418" height="5.68"/>
		<g>
			
				<rect x="955.518" y="571.227" transform="matrix(0.7916 0.611 -0.611 0.7916 549.9643 -464.9663)" style="fill:#5190A4;" width="2.324" height="5.21"/>
			
				<rect x="930.46" y="571.227" transform="matrix(-0.7916 0.611 -0.611 -0.7916 2019.7322 458.8565)" style="fill:#5190A4;" width="2.324" height="5.21"/>
		</g>
	</g>
	<g>
		<g>
			<path style="fill:#FFFDFD;" d="M394.207,821.859H380.43c-7.184,0-13.029-5.845-13.029-13.03v-30.705
				c0-7.185,5.845-13.03,13.029-13.03h13.777c7.184,0,13.029,5.845,13.029,13.03v30.705
				C407.236,816.015,401.391,821.859,394.207,821.859z M380.43,775.053c-1.693,0-3.07,1.377-3.07,3.071v30.705
				c0,1.694,1.377,3.071,3.07,3.071h13.777c1.693,0,3.07-1.377,3.07-3.071v-30.705c0-1.694-1.377-3.071-3.07-3.071H380.43z"/>
		</g>
		<path style="opacity:0.48;fill:#FFFDFD;" d="M395.617,721.026h-15.768h-2.158c-3.3,0-5.975-2.675-5.975-5.975
			s2.675-5.975,5.975-5.975h2.158h44.094c3.3,0,5.975-2.675,5.975-5.975c0-3.3-2.675-5.975-5.975-5.975h-18.367h-2.158
			c-3.3,0-5.975-2.675-5.975-5.975s2.675-5.975,5.975-5.975h2.158h38.119c3.3,0,5.975-2.675,5.975-5.975
			c0-3.3-2.675-5.975-5.975-5.975h-73.364c-3.3,0-5.975,2.675-5.975,5.975c0,3.3,2.675,5.975,5.975,5.975h3.501h4.855
			c3.3,0,5.975,2.675,5.975,5.975s-2.675,5.975-5.975,5.975h-4.855h-29.228c-3.3,0-5.975,2.675-5.975,5.975
			c0,3.3,2.675,5.975,5.975,5.975h1.634h6.722c3.3,0,5.975,2.675,5.975,5.975s-2.675,5.975-5.975,5.975h-6.722h-8.133
			c-3.3,0-5.975,2.675-5.975,5.975s2.675,5.975,5.975,5.975h8.133v8.797c0,3.3,2.675,5.975,5.975,5.975s5.975-2.675,5.975-5.975
			v-8.797h37.429c3.3,0,5.975-2.675,5.975-5.975S398.917,721.026,395.617,721.026z"/>
		<path style="fill:#FFFDFD;" d="M375.152,752.521h-51.329c-5.038,0-9.121,4.084-9.121,9.122v67.836
			c0,5.038,4.084,9.121,9.121,9.121h51.329c5.038,0,9.121-4.084,9.121-9.121v-67.836
			C384.274,756.604,380.19,752.521,375.152,752.521z"/>
		<path style="fill:#F1F1F2;" d="M375.152,752.521h-12.545c5.038,0,9.121,4.084,9.121,9.122v67.836c0,5.038-4.084,9.122-9.121,9.122
			h12.545c5.038,0,9.121-4.084,9.121-9.122v-67.836C384.274,756.604,380.19,752.521,375.152,752.521z"/>
		<g>
			<path style="fill:#262261;" d="M325.104,791.791l-0.674,0.143v0.048l0.674,0.151l4.431,1.807v1.593l-6.468-3.004v-1.181
				l6.468-2.996v1.593L325.104,791.791z"/>
			<path style="fill:#262261;" d="M333.443,788.795c0.296-0.412,0.659-0.733,1.09-0.963s0.908-0.345,1.431-0.345
				c0.914,0,1.626,0.275,2.136,0.824c0.51,0.55,0.765,1.395,0.765,2.537v5.374h-1.561v-5.39c0-0.708-0.152-1.231-0.456-1.57
				c-0.304-0.338-0.757-0.507-1.359-0.507c-0.433,0-0.826,0.102-1.177,0.305c-0.351,0.203-0.641,0.48-0.868,0.828v6.333h-1.561
				v-12.365h1.561V788.795z"/>
			<path style="fill:#262261;" d="M343.169,785.577v2.069h1.625v1.157h-1.625v5.208c0,0.402,0.083,0.684,0.25,0.848
				c0.166,0.164,0.387,0.246,0.662,0.246c0.09,0,0.189-0.011,0.297-0.032c0.108-0.021,0.205-0.048,0.289-0.079l0.206,1.07
				c-0.116,0.095-0.287,0.173-0.511,0.234c-0.225,0.061-0.451,0.091-0.678,0.091c-0.634,0-1.139-0.192-1.514-0.575
				c-0.375-0.383-0.563-0.984-0.563-1.803v-5.208h-1.363v-1.157h1.363v-2.069H343.169z"/>
			<path style="fill:#262261;" d="M348.115,787.646l0.111,1.126c0.28-0.407,0.635-0.723,1.066-0.947
				c0.431-0.224,0.931-0.337,1.502-0.337s1.061,0.132,1.47,0.396c0.409,0.264,0.717,0.661,0.923,1.189
				c0.27-0.486,0.626-0.872,1.07-1.157c0.444-0.285,0.962-0.428,1.554-0.428c0.872,0,1.561,0.3,2.069,0.9
				c0.507,0.6,0.761,1.502,0.761,2.707v5.128h-1.562v-5.144c0-0.845-0.145-1.444-0.436-1.795c-0.291-0.351-0.724-0.527-1.3-0.527
				c-0.534,0-0.966,0.185-1.296,0.555c-0.33,0.37-0.525,0.838-0.583,1.403v0.063v5.446h-1.569v-5.144
				c0-0.803-0.149-1.391-0.448-1.764c-0.299-0.372-0.728-0.559-1.288-0.559c-0.476,0-0.867,0.098-1.173,0.293
				c-0.306,0.195-0.542,0.47-0.705,0.824v6.349h-1.562v-8.577H348.115z"/>
			<path style="fill:#262261;" d="M362.597,796.222h-1.562v-12.365h1.562V796.222z"/>
			<path style="fill:#262261;" d="M364.944,789.897v-1.546l6.785,2.996v1.181l-6.785,3.004v-1.554l4.74-1.887l0.674-0.135v-0.048
				l-0.674-0.159L364.944,789.897z"/>
		</g>
	</g>
	<g>
		<g>
			<rect x="535.419" y="874.595" style="fill:#6D5E62;" width="3.88" height="55.075"/>
			<rect x="450.88" y="874.595" style="fill:#6D5E62;" width="3.88" height="55.075"/>
		</g>
		<g>
			<rect x="447.246" y="870.773" style="fill:#FFFDFD;" width="95.688" height="32.428"/>
			<g>
				<polygon style="fill:#E7535D;" points="470.997,870.773 453.849,903.2 463.479,903.2 480.627,870.773 				"/>
				<polygon style="fill:#E7535D;" points="489.013,870.773 471.864,903.2 481.494,903.2 498.643,870.773 				"/>
				<polygon style="fill:#E7535D;" points="447.246,899.83 462.612,870.773 452.982,870.773 447.246,881.62 				"/>
				<polygon style="fill:#E7535D;" points="542.934,871.009 525.91,903.2 535.54,903.2 542.934,889.219 				"/>
				<polygon style="fill:#E7535D;" points="525.043,870.773 507.895,903.2 517.525,903.2 534.673,870.773 				"/>
				<polygon style="fill:#E7535D;" points="507.028,870.773 489.88,903.2 499.509,903.2 516.658,870.773 				"/>
			</g>
		</g>
		<g>
			<g>
				<rect x="528.154" y="863.907" style="fill:#6D5E62;" width="2.166" height="6.866"/>
				<g>
					<path style="fill:#FFFDFD;" d="M534.849,862.954c0,3.1-2.513,5.612-5.612,5.612c-3.1,0-5.612-2.513-5.612-5.612
						c0-3.1,2.513-5.612,5.612-5.612C532.337,857.341,534.849,859.854,534.849,862.954z"/>
					<path style="fill:#E7535D;" d="M533.373,862.954c0,2.285-1.852,4.136-4.136,4.136s-4.137-1.852-4.137-4.136
						c0-2.284,1.852-4.136,4.137-4.136S533.373,860.669,533.373,862.954z"/>
				</g>
			</g>
			<g>
				<rect x="459.86" y="863.907" style="fill:#6D5E62;" width="2.166" height="6.866"/>
				<g>
					<path style="fill:#FFFDFD;" d="M466.555,862.954c0,3.1-2.513,5.612-5.612,5.612s-5.613-2.513-5.613-5.612
						c0-3.1,2.513-5.612,5.613-5.612S466.555,859.854,466.555,862.954z"/>
					<path style="fill:#E7535D;" d="M465.079,862.954c0,2.285-1.852,4.136-4.136,4.136c-2.285,0-4.137-1.852-4.137-4.136
						c0-2.284,1.852-4.136,4.137-4.136C463.227,858.818,465.079,860.669,465.079,862.954z"/>
				</g>
			</g>
		</g>
	</g>
	<g>
		<path style="fill:#5190A4;" d="M879.311,398.03h-42.9c-6.327,0-11.475-5.148-11.475-11.475c0-6.327,5.148-11.475,11.475-11.475
			h7.1c1.399-8.709,9.073-15.357,18.013-15.357c9.096,0,16.628,6.517,18.015,15.36c6.222,0.122,11.247,5.221,11.247,11.472
			C890.786,392.883,885.639,398.03,879.311,398.03z M836.412,377.884c-4.782,0-8.672,3.89-8.672,8.672
			c0,4.782,3.89,8.672,8.672,8.672h42.9c4.782,0,8.672-3.89,8.672-8.672c0-4.782-3.89-8.672-8.672-8.672h-2.297l-0.112-1.279
			c-0.691-7.894-7.446-14.078-15.379-14.078c-7.933,0-14.688,6.184-15.379,14.078l-0.112,1.279H836.412z"/>
	</g>
	<g>
		<polygon style="fill:#E6E7E8;" points="236.918,891.208 236.918,899.21 258.611,904.532 271.595,900.851 343.969,900.851 
			343.969,889.566 271.595,889.566 258.611,885.885 		"/>
		<polygon style="fill:#D0D2D3;" points="236.918,895.209 236.918,899.21 258.611,904.532 271.595,900.851 343.969,900.851 
			343.969,895.209 		"/>
		<g>
			<path style="fill:#ED8922;" d="M418.332,878.989c-17.652,0-35.305,0-52.957,0c-4.64,4.866-9.28,4.866-13.921,0h-9.961l0,32.439
				h9.962c4.64-4.866,9.281-4.866,13.921,0c17.653,0,35.305,0,52.957,0C438.994,911.428,438.994,878.989,418.332,878.989z"/>
			<g>
				<g>
					<rect x="369.788" y="902.67" style="fill:#B46728;" width="45.807" height="3.301"/>
				</g>
				<g>
					<rect x="369.788" y="893.558" style="fill:#B46728;" width="45.807" height="3.301"/>
				</g>
				<g>
					<rect x="369.788" y="884.446" style="fill:#B46728;" width="45.807" height="3.301"/>
				</g>
			</g>
		</g>
	</g>
	<g>
		<g>
			<rect x="824.534" y="836.912" style="fill:#FFCD26;" width="178.14" height="59.755"/>
			<g>
				<circle style="fill:#313332;" cx="969.671" cy="896.667" r="33.003"/>
				
					<ellipse transform="matrix(0.7071 -0.7071 0.7071 0.7071 -350.0292 948.2885)" style="fill:#E6E7E8;" cx="969.671" cy="896.667" rx="19.001" ry="19.001"/>
				<circle style="fill:#313332;" cx="969.671" cy="896.667" r="3.999"/>
				<circle style="fill:#313332;" cx="969.671" cy="885.166" r="2.437"/>
				<path style="fill:#313332;" d="M963.262,886.811c0.952,0.952,0.952,2.495,0,3.446c-0.952,0.952-2.495,0.952-3.446,0
					c-0.952-0.952-0.952-2.495,0-3.446C960.767,885.86,962.31,885.86,963.262,886.811z"/>
				<path style="fill:#313332;" d="M958.17,894.23c1.346,0,2.437,1.091,2.437,2.437c0,1.346-1.091,2.437-2.437,2.437
					c-1.346,0-2.437-1.091-2.437-2.437C955.733,895.321,956.824,894.23,958.17,894.23z"/>
				<path style="fill:#313332;" d="M959.815,903.076c0.952-0.952,2.495-0.952,3.446,0s0.952,2.495,0,3.446
					c-0.952,0.952-2.495,0.952-3.446,0C958.864,905.571,958.864,904.028,959.815,903.076z"/>
				<circle style="fill:#313332;" cx="969.671" cy="908.168" r="2.437"/>
				<path style="fill:#313332;" d="M976.08,906.522c-0.952-0.952-0.952-2.495,0-3.446s2.494-0.952,3.446,0
					c0.952,0.952,0.952,2.495,0,3.446C978.575,907.474,977.032,907.474,976.08,906.522z"/>
				
					<ellipse transform="matrix(0.1597 -0.9872 0.9872 0.1597 -60.6737 1722.056)" style="fill:#313332;" cx="981.172" cy="896.667" rx="2.437" ry="2.437"/>
				<path style="fill:#313332;" d="M979.526,890.258c-0.952,0.952-2.495,0.952-3.446,0s-0.952-2.495,0-3.446
					c0.952-0.952,2.494-0.952,3.446,0C980.478,887.763,980.478,889.306,979.526,890.258z"/>
			</g>
			<g>
				<circle style="fill:#313332;" cx="857.537" cy="896.667" r="33.003"/>
				
					<ellipse transform="matrix(0.2279 -0.9737 0.9737 0.2279 -210.9649 1527.2894)" style="fill:#E6E7E8;" cx="857.537" cy="896.667" rx="19.001" ry="19.001"/>
				<circle style="fill:#313332;" cx="857.537" cy="896.667" r="3.999"/>
				<circle style="fill:#313332;" cx="857.537" cy="885.166" r="2.437"/>
				<path style="fill:#313332;" d="M851.128,886.811c0.952,0.952,0.952,2.495,0,3.446s-2.495,0.952-3.446,0
					c-0.952-0.952-0.952-2.495,0-3.446C848.633,885.86,850.176,885.86,851.128,886.811z"/>
				<circle style="fill:#313332;" cx="846.036" cy="896.667" r="2.437"/>
				<path style="fill:#313332;" d="M847.681,903.076c0.952-0.952,2.495-0.952,3.446,0s0.952,2.495,0,3.446
					c-0.952,0.952-2.495,0.952-3.446,0C846.73,905.571,846.73,904.028,847.681,903.076z"/>
				<circle style="fill:#313332;" cx="857.537" cy="908.168" r="2.437"/>
				<path style="fill:#313332;" d="M863.946,906.522c-0.952-0.952-0.952-2.495,0-3.446s2.494-0.952,3.446,0
					c0.952,0.952,0.952,2.495,0,3.446C866.441,907.474,864.898,907.474,863.946,906.522z"/>
				<circle style="fill:#313332;" cx="869.038" cy="896.667" r="2.437"/>
				<path style="fill:#313332;" d="M867.392,890.258c-0.952,0.952-2.495,0.952-3.446,0s-0.952-2.495,0-3.446
					c0.952-0.952,2.494-0.952,3.446,0C868.344,887.763,868.344,889.306,867.392,890.258z"/>
			</g>
			<rect x="894.477" y="871.777" style="fill:#FFCD26;" width="38.253" height="41.816"/>
			<path style="fill:#CA992C;" d="M927.158,884.777c-2.965-4.293-7.914-7.111-13.526-7.111c-5.612,0-10.561,2.818-13.526,7.111
				H927.158z"/>
			<path style="fill:#FFCD26;" d="M942.409,763.018h-70.978c-10.743,0-20.338,6.721-24.009,16.816l-22.888,57.078l125.001,0.487
				v-67.255C949.535,766.208,946.345,763.018,942.409,763.018z"/>
			<path style="fill:#1A86AD;" d="M833.526,837.399l21.842-54.528l0.047-0.13c2.44-6.71,8.877-11.218,16.016-11.218h69.599v65.843
				L833.526,837.399z"/>
			<path style="fill:#FFCD26;" d="M908.672,811.272c-10.732,0-19.726,8.117-20.823,18.794l-1.819,17.709h58.005v-36.503H908.672z"/>
			<path style="fill:#CA992C;" d="M914.963,817.491h-9.573c-0.751,0-1.359,0.609-1.359,1.359c0,0.751,0.609,1.359,1.359,1.359h9.573
				c0.751,0,1.359-0.609,1.359-1.359C916.323,818.1,915.714,817.491,914.963,817.491z"/>
			<rect x="814.774" y="771.523" style="fill:#6D5E62;" width="9.76" height="122.707"/>
			<path style="fill:#6D5E62;" d="M746.287,884.47c0,5.39,4.37,9.76,9.76,9.76h63.607l0-9.76H746.287z"/>
			<rect x="735.117" y="811.672" style="fill:#C3996B;" width="72.797" height="72.798"/>
			<rect x="749.735" y="837.947" style="fill:#FFFFFF;" width="48.785" height="24.456"/>
			<g>
				<path style="fill:#BE1E2D;" d="M767.255,851.435l0.02,0.057c0.025,1.311-0.436,2.408-1.381,3.294
					c-0.947,0.886-2.197,1.329-3.751,1.329c-1.579,0-2.865-0.559-3.86-1.679c-0.993-1.118-1.49-2.538-1.49-4.259v-2.483
					c0-1.72,0.497-3.141,1.49-4.262c0.995-1.124,2.281-1.685,3.86-1.685c1.579,0,2.837,0.422,3.769,1.261
					c0.934,0.841,1.388,1.956,1.363,3.342l-0.02,0.059h-1.813c0-0.979-0.288-1.752-0.863-2.322
					c-0.575-0.568-1.388-0.854-2.437-0.854c-1.054,0-1.895,0.425-2.522,1.276c-0.627,0.85-0.94,1.904-0.94,3.162v2.501
					c0,1.272,0.313,2.331,0.94,3.182c0.627,0.85,1.468,1.276,2.522,1.276c1.049,0,1.861-0.284,2.437-0.85
					c0.575-0.564,0.863-1.347,0.863-2.344H767.255z"/>
				<path style="fill:#BE1E2D;" d="M777.43,852.398c0-0.636-0.239-1.168-0.72-1.597c-0.479-0.431-1.329-0.79-2.551-1.083
					c-1.477-0.354-2.63-0.872-3.457-1.558c-0.829-0.686-1.243-1.549-1.243-2.587c0-1.09,0.447-1.999,1.338-2.73
					c0.893-0.731,2.049-1.097,3.467-1.097c1.529,0,2.744,0.42,3.65,1.258c0.904,0.838,1.342,1.81,1.309,2.915l-0.02,0.057h-1.802
					c0-0.818-0.272-1.481-0.811-1.985c-0.539-0.505-1.315-0.759-2.326-0.759c-0.94,0-1.661,0.213-2.163,0.638
					c-0.502,0.427-0.752,0.981-0.752,1.665c0,0.607,0.272,1.115,0.815,1.52c0.545,0.405,1.425,0.763,2.647,1.07
					c1.47,0.364,2.59,0.9,3.357,1.61c0.768,0.711,1.151,1.59,1.151,2.638c0,1.125-0.459,2.029-1.381,2.714
					c-0.92,0.684-2.122,1.027-3.605,1.027c-1.395,0-2.626-0.379-3.698-1.136c-1.07-0.759-1.59-1.77-1.558-3.037l0.018-0.057h1.804
					c0,0.895,0.329,1.576,0.988,2.044c0.657,0.466,1.474,0.7,2.446,0.7c0.952,0,1.706-0.2,2.263-0.602
					C777.152,853.627,777.43,853.084,777.43,852.398z"/>
				<path style="fill:#BE1E2D;" d="M789.678,852.398c0-0.636-0.239-1.168-0.72-1.597c-0.479-0.431-1.329-0.79-2.551-1.083
					c-1.477-0.354-2.63-0.872-3.457-1.558c-0.829-0.686-1.243-1.549-1.243-2.587c0-1.09,0.447-1.999,1.338-2.73
					c0.893-0.731,2.049-1.097,3.467-1.097c1.529,0,2.744,0.42,3.65,1.258c0.904,0.838,1.342,1.81,1.309,2.915l-0.02,0.057h-1.802
					c0-0.818-0.271-1.481-0.811-1.985c-0.539-0.505-1.315-0.759-2.326-0.759c-0.94,0-1.661,0.213-2.163,0.638
					c-0.502,0.427-0.752,0.981-0.752,1.665c0,0.607,0.272,1.115,0.815,1.52c0.545,0.405,1.426,0.763,2.647,1.07
					c1.47,0.364,2.59,0.9,3.357,1.61c0.768,0.711,1.151,1.59,1.151,2.638c0,1.125-0.459,2.029-1.381,2.714
					c-0.92,0.684-2.122,1.027-3.605,1.027c-1.395,0-2.626-0.379-3.698-1.136c-1.07-0.759-1.59-1.77-1.558-3.037l0.018-0.057h1.804
					c0,0.895,0.329,1.576,0.988,2.044c0.657,0.466,1.474,0.7,2.446,0.7c0.952,0,1.706-0.2,2.263-0.602
					C789.399,853.627,789.678,853.084,789.678,852.398z"/>
			</g>
			<polygon style="fill:#26A9D5;" points="866.093,837.385 860.3,837.385 882.534,771.531 888.327,771.531 			"/>
			<polygon style="fill:#26A9D5;" points="878.256,837.385 872.463,837.385 894.697,771.531 900.489,771.531 			"/>
		</g>
		<polygon style="fill:#CDA885;" points="775.414,820.195 771.516,818.867 767.618,820.195 767.618,811.672 775.414,811.672 		"/>
	</g>
</g>
</svg>
