<svg id="Capa_1" enable-background="new 0 0 510 510" height="512" viewBox="0 0 510 510" width="512" xmlns="http://www.w3.org/2000/svg" xmlns:xlink="http://www.w3.org/1999/xlink"><linearGradient id="SVGID_1_" gradientUnits="userSpaceOnUse" x1="138.159" x2="408.786" y1="16.657" y2="465.782"><stop offset="0" stop-color="#c8effe"/><stop offset="1" stop-color="#62dbfb"/></linearGradient><linearGradient id="lg1"><stop offset="0" stop-color="#07b2cd" stop-opacity="0"/><stop offset=".3759" stop-color="#06aec9" stop-opacity=".376"/><stop offset=".7648" stop-color="#04a3bd" stop-opacity=".765"/><stop offset="1" stop-color="#0199b1"/></linearGradient><linearGradient id="SVGID_00000010295266594049756370000016001819210071797125_" gradientUnits="userSpaceOnUse" x1="255" x2="255" xlink:href="#lg1" y1="333.117" y2="389.813"/><linearGradient id="SVGID_00000054231725540997783590000005355371179233392778_" gradientUnits="userSpaceOnUse" x1="467.566" x2="509.619" xlink:href="#lg1" y1="210.563" y2="210.563"/><linearGradient id="SVGID_00000085929548010549124820000008162032636035606693_" gradientUnits="userSpaceOnUse" x1="263.5" x2="205.446" xlink:href="#lg1" y1="316.946" y2="316.946"/><linearGradient id="SVGID_00000003082444767468723260000004750712242919944607_" gradientUnits="userSpaceOnUse" x1="162.845" x2="391.944" y1="118.408" y2="347.507"><stop offset="0" stop-color="#eaf9fa"/><stop offset="1" stop-color="#b3dafe"/></linearGradient><linearGradient id="lg2"><stop offset="0" stop-color="#b3dafe" stop-opacity="0"/><stop offset=".2438" stop-color="#acd5fa" stop-opacity=".244"/><stop offset=".589" stop-color="#9ac5f0" stop-opacity=".589"/><stop offset=".9932" stop-color="#7cacdf" stop-opacity=".993"/><stop offset="1" stop-color="#7bacdf"/></linearGradient><linearGradient id="SVGID_00000029010208106126491340000012375546914766163389_" gradientUnits="userSpaceOnUse" x1="289.43" x2="192.43" xlink:href="#lg2" y1="327.184" y2="312.684"/><linearGradient id="SVGID_00000110451705114138822130000000401581073782710955_" gradientUnits="userSpaceOnUse" x1="63.79" x2="5.638" xlink:href="#lg2" y1="210.563" y2="210.563"/><linearGradient id="SVGID_00000161633600233830441950000005253309725290660504_" gradientUnits="userSpaceOnUse" x1="255" x2="255" xlink:href="#lg2" y1="96.231" y2="38.93"/><linearGradient id="SVGID_00000025444965783506959940000000667906234434707598_" gradientUnits="userSpaceOnUse" x1="167.963" x2="511.963" xlink:href="#lg2" y1="-125.467" y2="322.533"/><linearGradient id="SVGID_00000103960561350275806890000002832768641688565916_" gradientUnits="userSpaceOnUse" x1="205.796" x2="549.796" xlink:href="#lg2" y1="-154.518" y2="293.482"/><linearGradient id="SVGID_00000075137218607176658740000017866350977695433907_" gradientUnits="userSpaceOnUse" x1="157.507" x2="501.507" xlink:href="#lg2" y1="-117.438" y2="330.562"/><linearGradient id="SVGID_00000047041311587047440900000014947757625253541007_" gradientUnits="userSpaceOnUse" x1="132.861" x2="476.861" xlink:href="#lg2" y1="-98.514" y2="349.486"/><linearGradient id="SVGID_00000163779463867807309290000015693649695687427519_" gradientUnits="userSpaceOnUse" x1="170.695" x2="514.695" xlink:href="#lg2" y1="-127.565" y2="320.435"/><linearGradient id="SVGID_00000152230746563005649560000009021445422591472552_" gradientUnits="userSpaceOnUse" x1="122.405" x2="466.405" xlink:href="#lg2" y1="-90.485" y2="357.515"/><linearGradient id="SVGID_00000089559417320761146140000001369389424554293934_" gradientUnits="userSpaceOnUse" x1="132.618" x2="476.618" xlink:href="#lg2" y1="-98.327" y2="349.673"/><linearGradient id="SVGID_00000179627764468501793540000009240637089738449343_" gradientUnits="userSpaceOnUse" x1="84.329" x2="428.329" xlink:href="#lg2" y1="-61.248" y2="386.752"/><linearGradient id="SVGID_00000078005029838088826630000009746629335579571843_" gradientUnits="userSpaceOnUse" x1="5.459" x2="349.459" xlink:href="#lg2" y1="-110.768" y2="337.232"/><linearGradient id="SVGID_00000009579518752841022590000014889296349285483148_" gradientUnits="userSpaceOnUse" x1="5.459" x2="349.459" xlink:href="#lg2" y1="-183.268" y2="264.732"/><linearGradient id="SVGID_00000110429929766551757310000004582414985158791603_" gradientUnits="userSpaceOnUse" x1="-47.182" x2="389.374" xlink:href="#lg2" y1="-156.649" y2="411.89"/><linearGradient id="SVGID_00000037664048043830521020000012257243442296118460_" gradientUnits="userSpaceOnUse" x1="81.201" x2="36.575" xlink:href="#lg2" y1="99.518" y2="54.892"/><linearGradient id="lg3"><stop offset="0" stop-color="#f28cc4"/><stop offset="1" stop-color="#e41f2d"/></linearGradient><linearGradient id="SVGID_00000158002135488954834500000002280941153740374458_" gradientUnits="userSpaceOnUse" x1="417.718" x2="488.116" xlink:href="#lg3" y1="296.512" y2="366.909"/><linearGradient id="SVGID_00000042713763106154872480000013588957105872553894_" gradientUnits="userSpaceOnUse" x1="95.166" x2="63.104" xlink:href="#lg2" y1="126.397" y2="94.335"/><linearGradient id="SVGID_00000088095379253907801190000000338348415778164144_" gradientUnits="userSpaceOnUse" x1="23.948" x2="78.511" xlink:href="#lg3" y1="56.282" y2="110.845"/><linearGradient id="SVGID_00000130612051627630243710000012075058344687998396_" gradientUnits="userSpaceOnUse" x1="102.061" x2="134.727" y1="364.638" y2="410.638"><stop offset="0" stop-color="#fef6ad"/><stop offset="1" stop-color="#bbec6c"/></linearGradient><linearGradient id="lg4"><stop offset="0" stop-color="#026841" stop-opacity="0"/><stop offset=".3243" stop-color="#046842" stop-opacity=".324"/><stop offset=".5509" stop-color="#0e6546" stop-opacity=".551"/><stop offset=".7476" stop-color="#1d614c" stop-opacity=".748"/><stop offset=".9263" stop-color="#335c54" stop-opacity=".926"/><stop offset="1" stop-color="#3e5959"/></linearGradient><linearGradient id="SVGID_00000093161505604327179100000017952572252630612649_" gradientUnits="userSpaceOnUse" x1="119" x2="119" xlink:href="#lg4" y1="445.167" y2="393.579"/><linearGradient id="SVGID_00000068642499224332172400000006908330501764810671_" gradientUnits="userSpaceOnUse" x1="156" x2="192.418" xlink:href="#lg4" y1="391.296" y2="391.296"/><linearGradient id="lg5"><stop offset="0" stop-color="#fef0ae"/><stop offset="1" stop-color="#fac600"/></linearGradient><linearGradient id="SVGID_00000054245463567816414340000006939018148365106570_" gradientTransform="matrix(-1 0 0 -1 510 397.728)" gradientUnits="userSpaceOnUse" x1="460.649" x2="267.788" xlink:href="#lg5" y1="148.846" y2="-44.015"/><linearGradient id="lg6"><stop offset="0" stop-color="#fea613" stop-opacity="0"/><stop offset=".2032" stop-color="#fda215" stop-opacity=".203"/><stop offset=".4052" stop-color="#fb961b" stop-opacity=".405"/><stop offset=".6066" stop-color="#f68225" stop-opacity=".607"/><stop offset=".8066" stop-color="#f06633" stop-opacity=".807"/><stop offset="1" stop-color="#e94444"/></linearGradient><linearGradient id="SVGID_00000125573320506215367600000005128629342024658829_" gradientUnits="userSpaceOnUse" x1="119" x2="119" xlink:href="#lg6" y1="362.817" y2="438.428"/><linearGradient id="SVGID_00000144296486180238582800000016460323861183387524_" gradientUnits="userSpaceOnUse" x1="178.496" x2="13.749" xlink:href="#lg5" y1="378.026" y2="213.279"/><linearGradient id="SVGID_00000094605388001890477250000004010971211345827992_" gradientTransform="matrix(-1 0 0 -1 510 -1784.005)" gradientUnits="userSpaceOnUse" x1="391" x2="391" xlink:href="#lg6" y1="-2064.705" y2="-2000.116"/><linearGradient id="SVGID_00000118390952383454416850000015661140079899734718_" gradientUnits="userSpaceOnUse" x1="204.278" x2="120.95" xlink:href="#lg6" y1="383.857" y2="318.385"/><linearGradient id="SVGID_00000150781594713380405040000011278145984466805663_" gradientUnits="userSpaceOnUse" x1="79.656" x2="173.348" xlink:href="#lg5" y1="271.954" y2="365.646"/><linearGradient id="SVGID_00000165954059403255653860000013707109055892107965_" gradientUnits="userSpaceOnUse" x1="145.35" x2="175.398" xlink:href="#lg6" y1="319.427" y2="326.361"/><linearGradient id="SVGID_00000066474757664821968530000001380960177977426314_" gradientUnits="userSpaceOnUse" x1="105.676" x2="128.049" xlink:href="#lg6" y1="282.836" y2="260.462"/><linearGradient id="SVGID_00000167375769270370479160000002398619886987531168_" gradientUnits="userSpaceOnUse" x1="119" x2="119" xlink:href="#lg6" y1="351.757" y2="375.456"/><g><g><g><g><path d="m481.15 386.229h-452.3c-13.908 0-25.183-11.275-25.183-25.183v-300.966c0-13.908 11.275-25.183 25.183-25.183h452.3c13.908 0 25.183 11.275 25.183 25.183v300.966c0 13.909-11.274 25.183-25.183 25.183z" fill="url(#SVGID_1_)"/><path d="m3.667 224.802v136.245c0 13.908 11.275 25.183 25.183 25.183h452.3c13.908 0 25.183-11.275 25.183-25.183v-136.245z" fill="url(#SVGID_00000010295266594049756370000016001819210071797125_)"/><path d="m481.15 34.897h-206.766v351.332h206.766c13.908 0 25.183-11.275 25.183-25.183v-300.966c0-13.908-11.274-25.183-25.183-25.183z" fill="url(#SVGID_00000054231725540997783590000005355371179233392778_)"/><path d="m328.435 386.229-138.567-138.566-42.686 42.686v95.88z" fill="url(#SVGID_00000085929548010549124820000008162032636035606693_)"/></g><g><path d="m489.252 98.276v224.575c0 5.976-4.691 10.83-10.656 11.191-.093.006-.186.012-.279.018-13.073.925-23.568 11.687-24.192 24.777-.012.254-.021.507-.025.759-.118 6.094-5.104 10.963-11.199 10.963h-375.802c-6.095 0-11.081-4.869-11.199-10.963-.005-.252-.013-.505-.025-.759-.624-13.091-11.119-23.852-24.192-24.777-.093-.007-.186-.013-.279-.018-5.965-.361-10.656-5.215-10.656-11.191v-224.575c0-5.976 4.691-10.83 10.656-11.191l.279-.018c13.072-.926 23.567-11.687 24.191-24.778.012-.254.021-.507.025-.759.118-6.094 5.104-10.963 11.199-10.963h375.803c6.095 0 11.081 4.869 11.199 10.963.005.252.013.505.025.759.624 13.091 11.119 23.852 24.192 24.777.093.007.186.013.279.018 5.966.362 10.656 5.216 10.656 11.192z" fill="url(#SVGID_00000003082444767468723260000004750712242919944607_)"/><path d="m312.764 370.559-122.896-122.896-42.686 42.686v80.21z" fill="url(#SVGID_00000029010208106126491340000012375546914766163389_)"/><path d="m212.618 50.567h-145.52c-6.095 0-11.081 4.868-11.199 10.963-.005.252-.013.505-.025.759-.624 13.091-11.119 23.852-24.192 24.778-.093.007-.186.013-.279.018-5.965.361-10.656 5.215-10.656 11.191v224.575c0 5.976 4.691 10.83 10.656 11.191l.279.018c13.073.925 23.568 11.686 24.192 24.777.012.254.021.507.025.759.118 6.094 5.104 10.963 11.199 10.963h145.52z" fill="url(#SVGID_00000110451705114138822130000000401581073782710955_)"/><path d="m478.596 87.085c-.093-.006-.186-.012-.279-.018-13.073-.925-23.568-11.686-24.192-24.777-.012-.254-.02-.507-.025-.759-.118-6.094-5.104-10.963-11.199-10.963h-375.803c-6.095 0-11.081 4.868-11.199 10.963-.005.252-.013.505-.025.759-.624 13.09-11.119 23.851-24.192 24.777-.093.007-.186.013-.279.018-5.965.361-10.656 5.215-10.656 11.191v95.532h468.505v-95.532c0-5.976-4.69-10.83-10.656-11.191z" fill="url(#SVGID_00000161633600233830441950000005253309725290660504_)"/><g><g><g><path d="m442.556 141.567h-124.333c-5.31 0-9.615 4.304-9.615 9.615 0 5.31 4.305 9.615 9.615 9.615h124.333c5.31 0 9.615-4.305 9.615-9.615 0-5.311-4.305-9.615-9.615-9.615z" fill="url(#SVGID_00000025444965783506959940000000667906234434707598_)"/><path d="m385.102 126.024h57.454c5.31 0 9.615-4.305 9.615-9.615 0-5.311-4.305-9.615-9.615-9.615h-57.454c-5.31 0-9.615 4.305-9.615 9.615-.001 5.31 4.304 9.615 9.615 9.615z" fill="url(#SVGID_00000103960561350275806890000002832768641688565916_)"/><path d="m318.397 126.024h37.342c5.31 0 9.615-4.305 9.615-9.615s-4.305-9.615-9.615-9.615h-37.342c-5.311 0-9.615 4.305-9.615 9.615s4.305 9.615 9.615 9.615z" fill="url(#SVGID_00000075137218607176658740000017866350977695433907_)"/><path d="m442.556 214.233h-124.333c-5.31 0-9.615 4.304-9.615 9.615s4.305 9.615 9.615 9.615h124.333c5.31 0 9.615-4.305 9.615-9.615s-4.305-9.615-9.615-9.615z" fill="url(#SVGID_00000047041311587047440900000014947757625253541007_)"/><path d="m442.556 179.46h-57.454c-5.31 0-9.615 4.304-9.615 9.615 0 5.31 4.305 9.615 9.615 9.615h57.454c5.31 0 9.615-4.305 9.615-9.615s-4.305-9.615-9.615-9.615z" fill="url(#SVGID_00000163779463867807309290000015693649695687427519_)"/><path d="m318.397 198.69h37.342c5.31 0 9.615-4.305 9.615-9.615s-4.305-9.615-9.615-9.615h-37.342c-5.311 0-9.615 4.305-9.615 9.615 0 5.311 4.305 9.615 9.615 9.615z" fill="url(#SVGID_00000152230746563005649560000009021445422591472552_)"/><path d="m442.556 258.286h-57.454c-5.31 0-9.615 4.305-9.615 9.615s4.305 9.615 9.615 9.615h57.454c5.31 0 9.615-4.305 9.615-9.615 0-5.311-4.305-9.615-9.615-9.615z" fill="url(#SVGID_00000089559417320761146140000001369389424554293934_)"/><path d="m355.739 258.286h-37.342c-5.311 0-9.615 4.305-9.615 9.615 0 5.311 4.305 9.615 9.615 9.615h37.342c5.31 0 9.615-4.304 9.615-9.615 0-5.31-4.305-9.615-9.615-9.615z" fill="url(#SVGID_00000179627764468501793540000009240637089738449343_)"/></g></g><g><path d="m216.897 198.524h37.342c5.31 0 9.615-4.305 9.615-9.615s-4.305-9.615-9.615-9.615h-37.342c-5.311 0-9.615 4.305-9.615 9.615s4.305 9.615 9.615 9.615z" fill="url(#SVGID_00000078005029838088826630000009746629335579571843_)"/><path d="m216.897 126.024h37.342c5.31 0 9.615-4.305 9.615-9.615s-4.305-9.615-9.615-9.615h-37.342c-5.311 0-9.615 4.305-9.615 9.615s4.305 9.615 9.615 9.615z" fill="url(#SVGID_00000009579518752841022590000014889296349285483148_)"/><path d="m216.897 233.274h55.885c5.31 0 9.615-4.305 9.615-9.615s-4.305-9.615-9.615-9.615h-55.885c-5.311 0-9.615 4.305-9.615 9.615s4.305 9.615 9.615 9.615z" fill="url(#SVGID_00000110429929766551757310000004582414985158791603_)"/></g></g><path d="m186.992 50.567h-119.894c-6.095 0-11.081 4.868-11.199 10.963-.005.252-.013.505-.025.759-.624 13.091-11.119 23.852-24.192 24.778-.093.007-.186.013-.279.018-5.965.361-10.656 5.215-10.656 11.191v95.532h166.245z" fill="url(#SVGID_00000037664048043830521020000012257243442296118460_)"/></g></g><g><path d="m510 264.23v62.645c0 1.382-.549 2.707-1.526 3.684l-56.708 56.708c-.977.977-2.302 1.526-3.684 1.526h-62.645c-2.656 0-3.986-3.211-2.108-5.089l121.583-121.583c1.877-1.877 5.088-.547 5.088 2.109z" fill="url(#SVGID_00000158002135488954834500000002280941153740374458_)"/><path d="m3.667 133.897v168.666l267.666-267.666h-168.667z" fill="url(#SVGID_00000042713763106154872480000013588957105872553894_)"/><path d="m126.671 37.422-121.582 121.583c-1.878 1.877-5.089.548-5.089-2.108v-62.646c0-1.382.549-2.707 1.526-3.684l56.708-56.708c.977-.977 2.302-1.526 3.684-1.526h62.645c2.656 0 3.986 3.211 2.108 5.089z" fill="url(#SVGID_00000088095379253907801190000000338348415778164144_)"/></g></g><path d="m184.5 304.925v164.477c0 6.728-7.62 10.627-13.077 6.692l-44.239-31.905c-4.887-3.524-11.481-3.524-16.368 0l-44.239 31.905c-5.457 3.936-13.077.036-13.077-6.692v-164.477z" fill="url(#SVGID_00000130612051627630243710000012075058344687998396_)"/><path d="m184.5 304.925v164.477c0 6.728-7.62 10.627-13.077 6.692l-44.239-31.905c-4.887-3.524-11.481-3.524-16.368 0l-44.239 31.905c-5.457 3.936-13.077.036-13.077-6.692v-164.477z" fill="url(#SVGID_00000093161505604327179100000017952572252630612649_)"/><path d="m184.5 304.925v164.477c0 6.728-7.62 10.627-13.077 6.692l-44.239-31.905c-4.887-3.524-11.481-3.524-16.368 0l-44.239 31.905c-5.457 3.936-13.077.036-13.077-6.692v-164.477z" fill="url(#SVGID_00000068642499224332172400000006908330501764810671_)"/><g><circle cx="119" cy="318.53" fill="url(#SVGID_00000054245463567816414340000006939018148365106570_)" r="100.222"/><path d="m48.132 389.398c39.139 39.139 102.597 39.139 141.736 0 20.903-20.903 30.639-48.743 29.214-76.111h-200.164c-1.424 27.368 8.311 55.208 29.214 76.111z" fill="url(#SVGID_00000125573320506215367600000005128629342024658829_)"/><circle cx="119" cy="318.53" fill="url(#SVGID_00000144296486180238582800000016460323861183387524_)" r="85.613"/><path d="m179.537 257.993c-33.434-33.434-87.641-33.434-121.075 0-17.856 17.856-26.172 41.638-24.955 65.016h170.985c1.218-23.378-7.098-47.16-24.955-65.016z" fill="url(#SVGID_00000094605388001890477250000004010971211345827992_)"/><path d="m92.951 374.612 29.458 29.458c20.76-.822 41.279-9.153 57.129-25.002 19.863-19.863 27.925-47.059 24.186-72.875l-34.119-34.119z" fill="url(#SVGID_00000118390952383454416850000015661140079899734718_)"/><g><path d="m128.523 372.745c4.984 5.909 14.079 5.891 19.061-.019 12.445-14.761 32.188-42.879 32.731-73.221.386-21.597-16.817-39.663-38.418-39.611-4.935.012-9.651.956-13.981 2.667-5.728 2.262-12.104 2.262-17.832 0-4.33-1.71-9.046-2.655-13.981-2.667-21.601-.052-38.805 18.014-38.418 39.611.543 30.342 20.286 58.461 32.731 73.221 4.983 5.91 14.077 5.928 19.061.019 4.978-5.901 14.069-5.901 19.046 0z" fill="url(#SVGID_00000150781594713380405040000011278145984466805663_)"/><path d="m141.897 259.894c-4.935.012-9.651.956-13.981 2.667-2.886 1.14-5.936 1.704-8.985 1.695v104.066c3.54-.02 7.087 1.454 9.592 4.424 4.984 5.909 14.079 5.891 19.061-.019 12.445-14.761 32.188-42.879 32.731-73.221.387-21.598-16.817-39.664-38.418-39.612z" fill="url(#SVGID_00000165954059403255653860000013707109055892107965_)"/><path d="m126.813 262.967c-5.438 1.846-11.366 1.71-16.729-.407-4.331-1.711-9.046-2.655-13.981-2.667-21.6-.052-38.806 18.015-38.419 39.612.15 8.318 1.745 16.472 4.233 24.227h51.154c-5.978-6.772-9.604-15.668-9.604-25.411.001-15.869 9.619-29.491 23.346-35.354z" fill="url(#SVGID_00000066474757664821968530000001380960177977426314_)"/><path d="m60.11 317.375c5.734 23.197 20.354 43.546 30.307 55.351 4.983 5.91 14.077 5.928 19.061.019 4.977-5.901 14.068-5.901 19.045 0 4.984 5.909 14.079 5.891 19.061-.019 9.953-11.805 24.573-32.154 30.307-55.351z" fill="url(#SVGID_00000167375769270370479160000002398619886987531168_)"/></g></g></g></svg>