<svg id="Layer_1" enable-background="new 0 0 52 52" height="512" viewBox="0 0 52 52" width="512" xmlns="http://www.w3.org/2000/svg" xmlns:xlink="http://www.w3.org/1999/xlink"><linearGradient id="lg1"><stop offset="0" stop-color="#82ea73"/><stop offset=".8324327" stop-color="#2fa52f"/></linearGradient><linearGradient id="SVGID_1_" gradientUnits="userSpaceOnUse" x1="3.798" x2="48.202" xlink:href="#lg1" y1="22.683" y2="22.683"/><linearGradient id="SVGID_2_" gradientUnits="userSpaceOnUse" x1="25.511" x2="26.01" xlink:href="#lg1" y1="39.848" y2=".812"/><linearGradient id="lg2"><stop offset=".4036036" stop-color="#ff4e61"/><stop offset=".9999998" stop-color="#c70a30"/></linearGradient><linearGradient id="SVGID_3_" gradientUnits="userSpaceOnUse" x1="-1.122" x2="10.962" xlink:href="#lg2" y1="22.683" y2="22.683"/><linearGradient id="SVGID_4_" gradientUnits="userSpaceOnUse" x1="31.724" x2="-3.97" y1="44.052" y2="44.052"><stop offset=".0000001" stop-color="#dae7ed"/><stop offset=".524012" stop-color="#b1c5ca"/><stop offset=".713274" stop-color="#a2b9bd"/><stop offset=".9999998" stop-color="#8ca6aa"/></linearGradient><linearGradient id="SVGID_5_" gradientUnits="userSpaceOnUse" x1="53.366" x2="15.766" xlink:href="#lg1" y1="44.425" y2="44.425"/><linearGradient id="SVGID_6_" gradientUnits="userSpaceOnUse" x1="7.736" x2="7.736" xlink:href="#lg2" y1="51.693" y2="38.877"/><linearGradient id="lg3"><stop offset=".0000001" stop-color="#dae7ed"/><stop offset=".713274" stop-color="#a2b9bd"/><stop offset=".9999998" stop-color="#8ca6aa"/></linearGradient><linearGradient id="SVGID_7_" gradientUnits="userSpaceOnUse" x1="29.241" x2="29.241" xlink:href="#lg3" y1="9.128" y2="19.723"/><linearGradient id="SVGID_8_" gradientUnits="userSpaceOnUse" x1="28.53" x2="30.469" xlink:href="#lg3" y1="5.406" y2="19.705"/><radialGradient id="SVGID_9_" cx="32.831" cy="23.883" gradientUnits="userSpaceOnUse" r="4.303"><stop offset=".3063066" stop-color="#fff" stop-opacity=".5"/><stop offset="1" stop-color="#fff" stop-opacity="0"/></radialGradient><radialGradient id="SVGID_10_" cx="32.831" cy="23.883" gradientUnits="userSpaceOnUse" r="3.187"><stop offset=".3063063" stop-color="#fff"/><stop offset="1" stop-color="#fff" stop-opacity="0"/></radialGradient><g id="_x32_1"><g><g><g><path d="m45.5897598 2.0755363h-37.8403334c-2.1822381 0-3.9512408 1.7690027-3.9512408 3.9512405v37.2638168l44.4036255-2.9256935v-35.6773109c.0000016-1.4425757-1.1693938-2.6120529-2.6120513-2.6120529z" fill="url(#SVGID_1_)"/></g><g><path d="m48.1138115 4.0485258c-.2863312-1.1318524-1.3031578-1.9729896-2.5240517-1.9729896h-37.8403334c-2.1822381 0-3.9512408 1.7690027-3.9512408 3.9512405v32.8990555c41.7082536-1.5585684 43.5569131-25.1752123 44.3156259-34.8773064z" fill="url(#SVGID_2_)"/></g><path d="m11.6729269 2.0755363h-3.9235005c-2.1822381 0-3.9512408 1.7690027-3.9512408 3.9512405v37.2637672l7.8747416-1.8935928v-39.3214149z" fill="url(#SVGID_3_)"/><path d="m4.9602485 42.4888153v5.1813126c0 1.5403748-.0573068.1770401 1.483067.1770401h39.8581905v-8.1473923l-38.5521597-.0000534c-1.5403758 0-2.7890978 1.2487183-2.7890978 2.789093z" fill="url(#SVGID_4_)"/><g fill="#8ca6aa"><path d="m46.2969017 45.235714h-41.377944v.932888h41.3824873v-.9231644z"/><path d="m46.2969017 42.6815338h-41.377944v.9329643h41.3824873v-.9231605z"/></g><path d="m7.7494264 41.2500381h39.4728661c.5409355 0 .9795189-.4385071.9795189-.9795227v-.3651657c0-.5410156-.4385834-.9795189-.9795189-.9795189h-39.4728661c-2.1821585 0-3.9512408 1.769001-3.9512408 3.9511604v3.0962334c0 2.1822357 1.7690823 3.9512405 3.9512408 3.9512405h39.4728661c.5409355 0 .9795189-.4385834.9795189-.9795227v-.3652458c0-.5409355-.4385834-.9795189-.9795189-.9795189h-39.4728661c-.898531 0-1.6269536-.7284241-1.6269536-1.6269531v-3.0962334c0-.8985328.7284226-1.6269531 1.6269536-1.6269531z" fill="url(#SVGID_5_)"/><path d="m11.6729269 47.6001778h-3.9235005c-.898531 0-1.6269536-.7284241-1.6269536-1.6269531v-3.0962334c0-.8985329.7284226-1.6269531 1.6269536-1.6269531h3.9235005v-2.3242073h-3.9235005c-2.1821585 0-3.9512408 1.769001-3.9512408 3.9511604v3.0962334c0 2.1822357 1.7690823 3.9512405 3.9512408 3.9512405h3.9235005z" fill="url(#SVGID_6_)"/></g><path d="m36.3920517 7.0557189h-14.3020325c-.7851009 0-1.4214935.6363926-1.4214935 1.4214931v6.5189629c0 .7851009.6363926 1.4214926 1.4214935 1.4214926h14.3020325c.7851028 0 1.4214935-.6363916 1.4214935-1.4214926v-6.5189629c0-.7851005-.6363907-1.4214931-1.4214935-1.4214931z" fill="url(#SVGID_7_)"/><g><path d="m22.0900517 16.417675h14.302042c.7850189 0 1.4214516-.6364326 1.4214516-1.4214516v-6.5189723c0-.1281004-.02248-.2498226-.054203-.367878-3.812542 3.6716051-9.1209831 6.8077745-16.6693764 7.896183.2568359.254446.609888.4121189 1.0000858.4121189z" fill="url(#SVGID_8_)"/></g></g><g><g><g><g><g><g><circle cx="32.831" cy="23.883" fill="url(#SVGID_9_)" r="4.303"/><g><g><g><g><g><g><g><g><path d="m33.3885536 24.1744518 1.0602379 1.3259659-1.3259697-1.0611305-.2914963 2.6306095-.2915039-2.6306095-1.3259639 1.0611305 1.0611286-1.3259659-2.6306038-.2914962 2.6306038-.2923928-1.0611306-1.3250751 1.3259659 1.0602398.2915039-2.6297207.2914963 2.6306095 1.3259697-1.0611305-1.0602379 1.325077 2.6297112.2923908z" fill="url(#SVGID_10_)"/></g></g></g></g></g></g></g></g></g></g></g></g></g></g></g></svg>