<?xml version="1.0" encoding="iso-8859-1"?>
<!-- Generator: Adobe Illustrator 19.0.0, SVG Export Plug-In . SVG Version: 6.00 Build 0)  -->
<svg version="1.1" id="Capa_1" xmlns="http://www.w3.org/2000/svg" xmlns:xlink="http://www.w3.org/1999/xlink" x="0px" y="0px"
	 viewBox="0 0 409.6 409.6" style="enable-background:new 0 0 409.6 409.6;" xml:space="preserve">
<circle style="fill:#334D5C;" cx="204.8" cy="204.8" r="204.8"/>
<path style="opacity:0.1;enable-background:new    ;" d="M409.6,204.8c0-10.365-0.786-20.545-2.272-30.496l-64.198-64.199
	c-2.381-2.548-5.363-4.808-9.155-6.461c-12.629-5.461-22.528-6.016-30.08-4.48v-0.043c-0.213,0.043-0.384,0.085-0.555,0.128
	c-1.365,0.298-2.645,0.64-3.84,1.067c-0.171,0.043-0.341,0.085-0.512,0.17c-1.323,0.47-2.56,1.024-3.712,1.622
	c-0.341,0.17-0.64,0.341-0.982,0.554c-0.811,0.427-1.536,0.896-2.219,1.323c-0.341,0.214-0.64,0.427-0.939,0.64
	c-0.683,0.512-1.28,0.981-1.877,1.493c-0.171,0.128-0.384,0.299-0.555,0.427c-0.725,0.64-1.323,1.238-1.877,1.835
	c-0.128,0.128-0.213,0.214-0.341,0.384c-0.213,0.213-0.357,0.384-0.533,0.576l-1.728-1.728
	c-17.664-13.184-38.656-20.139-60.757-20.139c-22.315,0-43.989,7.467-61.568,20.821c-2.048-1.792-4.395-3.414-7.253-4.651
	c-12.629-5.461-22.528-6.016-30.08-4.48V99.12c-0.213,0.043-0.341,0.085-0.555,0.128c-1.365,0.298-2.645,0.64-3.84,1.067
	c-0.171,0.043-0.341,0.085-0.469,0.17c-1.365,0.47-2.603,1.024-3.755,1.622c-0.341,0.17-0.64,0.341-0.981,0.554
	c-0.768,0.427-1.536,0.896-2.219,1.323c-0.341,0.214-0.64,0.427-0.939,0.64c-0.683,0.512-1.28,0.981-1.877,1.493
	c-0.171,0.128-0.384,0.299-0.555,0.427c-0.726,0.64-1.323,1.238-1.877,1.835c-0.128,0.128-0.213,0.214-0.341,0.384
	c-0.427,0.427-0.768,0.811-1.024,1.152c-0.171,0.17-0.256,0.298-0.384,0.469c-0.213,0.299-0.384,0.512-0.555,0.725
	c-0.042,0.128-0.085,0.171-0.171,0.256c-0.128,0.171-0.213,0.299-0.213,0.299c-40.448-6.187-42.368,28.202-42.368,28.202
	c-11.648,4.139-23.552,14.465-23.552,26.496c0,6.82,2.641,13.066,7.035,17.962h-0.001l0.009,0.009
	c0.71,0.791,1.464,1.546,2.262,2.263l91.206,91.206c-4.24,4.535-7.071,9.99-7.071,15.877c0,6.522,2.448,12.518,6.521,17.321h0.001
	c1.041,1.228,2.187,2.373,3.431,3.431l92.909,92.908C333.885,392.656,409.6,307.578,409.6,204.8z"/>
<g>
	<path style="fill:#DC8744;" d="M155.913,126.329l-6.907-6.428c19.184-20.614,46.326-32.434,74.47-32.434
		c22.092,0,43.105,6.966,60.767,20.142l-5.639,7.563c-16.022-11.953-35.084-18.27-55.127-18.27
		C197.945,96.902,173.317,107.628,155.913,126.329z"/>
	<path style="fill:#DC8744;" d="M163.004,261.827c-23.891-15.904-40.031-41.225-44.28-69.469l9.332-1.401
		c3.852,25.612,18.495,48.582,40.174,63.019L163.004,261.827z"/>
	<path style="fill:#DC8744;" d="M268.98,272.686l-4.224-8.433c27.09-13.575,45.806-39.522,50.071-69.41l9.34,1.334
		C319.467,229.128,298.838,257.73,268.98,272.686z"/>
</g>
<path style="fill:#E1E6E9;" d="M248.054,230.952c-35.614-15.471-49.807,8.014-49.807,8.014
	c-40.481-6.193-42.389,28.191-42.389,28.191c-11.646,4.159-23.536,14.458-23.536,26.504c0,15.724,14.044,28.471,31.368,28.471
	h89.733c10.208-1.542,31.368-12.747,31.368-28.471c0-12.047-6.864-26.312-18.509-30.471
	C266.281,263.191,267.341,239.331,248.054,230.952z"/>
<path style="fill:#EBF0F3;" d="M163.69,322.133c-17.324,0-31.368-12.747-31.368-28.471c0-12.047,11.89-22.346,23.536-26.504
	c0,0,1.908-34.384,42.389-28.191c0,0,5.93-9.813,19.743-12.574v95.741L163.69,322.133L163.69,322.133z"/>
<path style="fill:#2D93BA;" d="M333.959,103.663c-35.614-15.471-49.807,8.014-49.807,8.014
	c-40.482-6.193-42.389,28.191-42.389,28.191c-11.646,4.159-23.536,14.458-23.536,26.504c0,15.724,14.044,28.471,31.368,28.471
	h89.733c10.208-1.542,31.368-12.747,31.368-28.471c0-12.047-6.864-26.312-18.509-30.471
	C352.186,135.902,353.246,112.041,333.959,103.663z"/>
<path style="fill:#27A2DB;" d="M249.595,194.844c-17.324,0-31.368-12.747-31.368-28.471c0-12.047,11.89-22.346,23.536-26.504
	c0,0,1.907-34.384,42.389-28.191c0,0,5.93-9.813,19.743-12.574v95.741L249.595,194.844L249.595,194.844z"/>
<path style="fill:#D15241;" d="M154.636,103.663c-35.614-15.471-49.807,8.014-49.807,8.014
	c-40.481-6.193-42.389,28.191-42.389,28.191c-11.646,4.159-23.536,14.458-23.536,26.504c0,15.724,14.044,28.471,31.368,28.471
	h89.733c10.208-1.542,31.368-12.747,31.368-28.471c0-12.047-6.864-26.312-18.509-30.471
	C172.863,135.902,173.923,112.041,154.636,103.663z"/>
<path style="fill:#E56353;" d="M70.272,194.844c-17.324,0-31.368-12.747-31.368-28.471c0-12.047,11.89-22.346,23.536-26.504
	c0,0,1.908-34.384,42.389-28.191c0,0,5.93-9.813,19.743-12.574v95.741L70.272,194.844L70.272,194.844z"/>
<g>
</g>
<g>
</g>
<g>
</g>
<g>
</g>
<g>
</g>
<g>
</g>
<g>
</g>
<g>
</g>
<g>
</g>
<g>
</g>
<g>
</g>
<g>
</g>
<g>
</g>
<g>
</g>
<g>
</g>
</svg>
