<svg id="Layer_1" enable-background="new 0 0 64 64" viewBox="0 0 64 64" xmlns="http://www.w3.org/2000/svg" xmlns:xlink="http://www.w3.org/1999/xlink"><linearGradient id="lg1"><stop offset="0" stop-color="#6ba6d6"/><stop offset="1" stop-color="#005c98"/></linearGradient><linearGradient id="SVGID_1_" gradientUnits="userSpaceOnUse" x1="54.034" x2="53.297" xlink:href="#lg1" y1="14.922" y2="16.397"/><linearGradient id="SVGID_2_" gradientUnits="userSpaceOnUse" x1="46.591" x2="42.361" xlink:href="#lg1" y1="6.938" y2="13.663"/><linearGradient id="SVGID_3_" gradientUnits="userSpaceOnUse" x1="13.023" x2="5.973" xlink:href="#lg1" y1="40.542" y2="53.666"/><linearGradient id="SVGID_4_" gradientUnits="userSpaceOnUse" x1="33.837" x2="22.232" xlink:href="#lg1" y1="7.71" y2="28.426"/><linearGradient id="SVGID_5_" gradientUnits="userSpaceOnUse" x1="18.113" x2="10.629" xlink:href="#lg1" y1="26.28" y2="38.752"/><g><g><path d="m9.56 36.68-5.28-3.08-.04-24.04 5.28 3.07z" fill="#b70034"/><path d="m12.26 3.57-5.29-3.07 6.53 3.71 5.29 3.07z" fill="#991135"/><path d="m5.79 14.79-5.29-3.08 6.47-11.21 5.29 3.07z" fill="#ff276a"/><path d="m12.26 3.57 6.53 3.71-3.74 2.16.04 24.04-5.53 3.2-.04-24.05-3.73 2.16z" fill="#f71c55"/></g><g><path d="m58.51 18.61c.31-.03.62-.05.91-.03h.04c.31.02.61.08.89.16.01 0 .02.01.04.01.28.09.55.2.81.35l-11.25-6.54c-.01-.01-.03-.02-.04-.02-.13-.07-.26-.14-.4-.2-.12-.05-.24-.09-.36-.13-.01 0-.02-.01-.04-.01-.01 0-.01-.01-.02-.01-.15-.04-.29-.08-.45-.1-.14-.02-.28-.04-.42-.05-.01 0-.03 0-.04 0s-.01 0-.02 0c-.17-.01-.35-.01-.53 0-.12.01-.24.02-.36.04-.05.01-.09.01-.14.01-.03 0-.06 0-.1.01-.23.04-.47.09-.71.15-.07.02-.15.04-.23.07l11.25 6.54c.35-.11.7-.18 1.03-.23.05-.02.09-.02.14-.02z" fill="url(#SVGID_1_)"/><path d="m50.62 11.82c.13-.04.26-.08.39-.11.12-.03.24-.05.36-.08.16-.03.31-.05.47-.07.09-.01.18-.02.26-.03.19-.01.38-.02.57-.01h.13c.22.01.44.04.65.08.05.01.1.02.16.04.17.04.33.08.49.14.05.02.1.03.15.05.2.08.39.17.58.28l-.01-.01s.01 0 .01.01l-11.26-6.53c-.02-.01-.03-.02-.05-.03-.14-.08-.29-.15-.44-.22-.03-.01-.06-.02-.09-.03-.05-.02-.1-.04-.15-.05-.08-.03-.15-.06-.23-.08s-.17-.04-.25-.06c-.05-.01-.1-.03-.16-.04-.03-.01-.06-.01-.09-.02-.16-.03-.34-.05-.52-.06-.01 0-.02 0-.03 0-.04 0-.08 0-.13 0-.14 0-.28-.01-.42 0-.05 0-.1.01-.14.01-.09.01-.18.02-.26.03s-.16.01-.25.02c-.07.01-.15.03-.22.05-.12.02-.24.05-.36.08-.07.02-.13.02-.2.04-.06.02-.13.05-.2.07-.2.06-.41.13-.62.21-.07.03-.14.04-.22.08-.04.02-.08.04-.13.06-.36.16-.73.33-1.11.55-.47.27-.92.59-1.37.93-.09.07-.18.13-.27.2-.43.34-.84.71-1.25 1.1-.03.02-.05.04-.08.07-.21.21-.41.42-.61.64l11.25 6.54c.22-.24.46-.48.69-.71.4-.39.82-.76 1.25-1.1.09-.07.18-.14.27-.2.45-.34.9-.66 1.37-.93.38-.22.74-.39 1.11-.55.12-.05.23-.09.35-.14.2-.08.41-.16.61-.22z" fill="url(#SVGID_2_)"/><path d="m11.75 54.07c0-.47.04-.96.1-1.45.01-.07.02-.14.04-.21.07-.44.16-.88.28-1.33.01-.03.01-.06.02-.09.14-.5.3-1 .5-1.5.01-.02.02-.05.03-.07.19-.48.4-.95.64-1.41.02-.04.04-.07.06-.11.25-.47.51-.94.8-1.39.01-.02.02-.03.03-.05.28-.44.59-.86.91-1.26.04-.05.08-.1.12-.15.28-.35.58-.68.89-1 .05-.06.11-.12.16-.17.37-.37.75-.71 1.14-1.02l-11.26-6.54c-.37.29-.73.61-1.08.96-.02.02-.04.04-.06.06-.05.05-.11.11-.16.17-.18.19-.37.39-.55.59-.12.13-.23.27-.34.41-.04.05-.08.1-.12.15-.03.04-.07.08-.1.12-.16.21-.32.42-.47.63-.12.17-.23.34-.34.51-.01.02-.02.03-.03.05s-.02.03-.03.05c-.12.19-.25.39-.36.59-.11.19-.22.39-.33.59-.03.05-.06.11-.08.16-.02.04-.04.07-.06.11-.05.11-.11.21-.16.32-.1.2-.19.4-.28.61-.07.16-.13.32-.2.48-.01.02-.02.05-.03.07 0 .03-.01.05-.02.07-.08.22-.16.44-.24.66-.08.24-.15.47-.22.71-.01.02-.01.04-.01.06-.01.03-.01.06-.02.09-.06.22-.11.43-.16.65-.05.23-.08.46-.12.68-.01.07-.03.14-.04.21 0 .03-.01.07-.02.1-.06.46-.09.91-.09 1.36 0 1.1.2 2.03.55 2.79.35.75.86 1.32 1.49 1.69l11.25 6.54c-1.25-.74-2.03-2.29-2.03-4.49z" fill="url(#SVGID_3_)"/><path d="m25.78 26.06c.01-.02.02-.05.03-.07.32-.75.68-1.48 1.07-2.2.03-.06.06-.11.09-.17.37-.67.77-1.33 1.2-1.97.05-.07.1-.15.15-.22.42-.61.86-1.2 1.32-1.76.08-.1.17-.21.25-.31.49-.59 1-1.15 1.53-1.67.39-.39.81-.73 1.22-1.08.2-.17.39-.36.6-.52.63-.49 1.27-.93 1.93-1.31.48-.28.95-.5 1.42-.71.15-.06.3-.12.44-.18.26-.1.52-.19.78-.27.17-.05.34-.1.5-.14.15-.04.31-.07.46-.1.2-.04.4-.07.6-.09.11-.01.23-.03.34-.03.25-.02.49-.02.73-.01h.15c.29.02.56.05.83.11.07.01.13.03.2.05.21.05.42.11.62.18.06.02.13.04.19.07.26.1.5.22.74.35l-11.24-6.55c-.02-.01-.04-.02-.06-.04-.18-.1-.37-.2-.57-.28-.04-.01-.07-.02-.11-.04-.06-.01-.12-.03-.19-.05-.1-.04-.2-.08-.3-.11s-.21-.05-.32-.07c-.07-.02-.13-.03-.2-.05-.04-.01-.07-.02-.11-.03-.22-.04-.45-.07-.68-.08-.01 0-.03 0-.04 0-.05 0-.1 0-.15 0-.18-.01-.36-.01-.55 0-.06 0-.12.01-.18.02-.11.01-.22.02-.34.03-.11.01-.21.02-.32.03-.09.01-.19.04-.28.06-.15.03-.3.06-.46.1-.08.02-.16.03-.25.05-.08.02-.17.06-.25.09-.26.08-.52.17-.78.27-.09.04-.19.06-.28.1-.05.02-.11.06-.16.08-.47.2-.94.43-1.42.71-.66.38-1.3.82-1.93 1.31-.2.16-.38.34-.58.51-.42.35-.84.7-1.24 1.09-.01.01-.01.01-.02.02-.42.41-.82.84-1.21 1.3-.1.12-.2.24-.3.36-.09.1-.17.2-.25.31-.12.14-.24.28-.35.43-.26.33-.51.67-.75 1.01-.07.1-.14.21-.21.32-.05.07-.1.15-.15.22-.1.14-.2.29-.29.43-.2.31-.4.63-.58.95-.11.19-.22.38-.32.58-.03.06-.06.11-.1.17-.04.07-.08.13-.11.2-.17.32-.33.64-.49.96s-.31.65-.45.98c-.01.02-.01.04-.02.06s-.02.05-.03.07c-.13.29-.25.59-.36.88-.14.36-.27.71-.38 1.07-.03.08-.05.17-.08.25s-.05.17-.08.25c-.07.22-.14.44-.2.66-.12.43-.23.87-.32 1.3-.02.09-.04.17-.05.26l11.25 6.54c.15-.74.35-1.48.57-2.22.03-.08.05-.17.08-.25.21-.75.48-1.48.8-2.21z" fill="url(#SVGID_4_)"/><path d="m35.17 14.78c4.2-2.42 7.85-1.88 9.81.89 1.09-1.18 2.3-2.21 3.57-2.94 4.87-2.81 8.83-.55 8.84 5.04 0 .36-.02.73-.05 1.08 3.52-1.08 6.15 1.01 6.16 5.34.01 5.03-3.53 11.17-7.91 13.7-2.15 1.24-4.1 1.38-5.53.61-1.48 4.94-4.97 9.84-9.07 12.2-3.52 2.04-6.62 1.67-8.37-.53-1.01 2.78-2.99 5.43-5.31 6.77-2.61 1.51-4.81.88-5.68-1.28-.87.97-1.85 1.8-2.88 2.39-3.86 2.23-7 .44-7.01-3.98-.01-3.95 2.46-8.65 5.71-11.21-.31-.58-.48-1.34-.49-2.23-.01-3.38 2.36-7.49 5.3-9.19.71-.41 1.41-.64 2.03-.7 1.27-6.3 5.64-12.94 10.88-15.96z" fill="#6ba6d6"/><path d="m17.1 39.22c.07-.39.15-.77.27-1.16.01-.04.02-.07.03-.11.13-.42.28-.84.46-1.26 0-.01.01-.01.01-.02.18-.42.4-.84.63-1.24.01-.01.01-.03.02-.04.23-.39.48-.77.74-1.14.02-.03.05-.07.07-.1.24-.33.51-.64.78-.94.06-.06.12-.13.17-.19.22-.23.44-.43.67-.63.1-.09.2-.19.31-.27.33-.26.66-.5 1-.69.32-.19.64-.32.95-.44.06-.02.13-.05.19-.07.3-.1.6-.17.88-.2l-11.22-6.52c-.06.01-.12.01-.18.02-.16.02-.32.06-.49.1-.07.02-.14.05-.21.07-.06.02-.13.04-.19.07-.08.03-.15.05-.23.08-.24.1-.48.22-.72.36-.34.2-.68.44-1 .69-.11.08-.2.18-.31.27-.17.14-.33.27-.48.42-.07.07-.13.14-.2.22-.06.06-.12.12-.18.19-.07.07-.14.14-.2.22-.15.17-.29.34-.43.52-.05.06-.1.13-.14.2-.02.03-.05.07-.07.1-.04.06-.09.12-.13.18-.11.15-.21.3-.31.46-.09.15-.19.3-.27.45-.01.01-.02.03-.03.05-.01.01-.01.03-.02.04-.07.12-.14.24-.2.36-.08.15-.16.3-.23.45-.07.14-.13.29-.2.43 0 .01-.01.01-.01.02s0 .01-.01.01c-.07.16-.13.32-.2.48-.06.17-.12.33-.18.5-.03.09-.05.18-.08.26-.01.04-.02.07-.03.11-.02.06-.04.12-.05.17-.06.2-.11.41-.15.61-.03.13-.04.25-.06.37-.01.06-.02.13-.03.19s-.02.12-.03.17c-.05.35-.07.7-.07 1.05 0 .89.18 1.64.49 2.23l11.25 6.54c-.31-.58-.48-1.34-.49-2.23 0-.4.04-.81.1-1.22-.01-.07 0-.13.01-.19z" fill="url(#SVGID_5_)"/><path d="m56.42 13.45c-.79-1.31-2.3-2.18-3.87-2.19-1.57-.05-3.05.52-4.37 1.27-1.17.68-2.21 1.56-3.16 2.51-.76-.94-1.78-1.7-2.97-2.04-1.34-.41-2.76-.3-4.06.02-2.61.72-4.85 2.26-6.75 4.05-3.71 3.55-6.27 8.21-7.38 13.21-1.29.26-2.39.96-3.31 1.77-1.02.9-1.84 1.99-2.49 3.16-.63 1.18-1.12 2.44-1.35 3.77-.21 1.23-.21 2.56.33 3.77-1.63 1.38-2.9 3.12-3.81 5.01-.95 1.96-1.57 4.12-1.49 6.3.1-2.17.83-4.24 1.85-6.11 1.04-1.86 2.41-3.55 4.08-4.83l.22-.17-.13-.27c-.51-1.05-.48-2.35-.23-3.55.24-1.21.74-2.37 1.37-3.45.65-1.06 1.4-2.06 2.33-2.86.91-.8 2-1.45 3.12-1.56l.39-.04.08-.39c.52-2.44 1.45-4.8 2.67-6.99 1.24-2.17 2.72-4.22 4.52-5.96 1.78-1.72 3.89-3.19 6.23-3.86 2.31-.68 4.96-.13 6.36 1.89l.31.45.36-.41c.96-1.08 2.04-2.06 3.26-2.82 1.21-.76 2.58-1.3 3.99-1.34 1.41-.07 2.8.62 3.63 1.81.8 1.2 1.15 2.68 1.22 4.15.07-1.46-.16-2.99-.95-4.3z" fill="#bad8e8"/></g><g><path d="m55.57 54.44-5.29-3.07 3.73-2.16 5.29 3.08z" fill="#bc7d00"/><path d="m46.31 59.79-5.29-3.08 3.74-2.15 5.28 3.07z" fill="#bc7d00"/><path d="m50.04 57.63-5.28-3.07-.04-24.05 5.29 3.07z" fill="#d19916"/><path d="m50.01 33.58-5.29-3.07 5.53-3.19 5.28 3.07z" fill="#fed62f"/><path d="m55.53 30.39.04 24.05 3.73-2.15-6.47 11.21-6.52-3.71 3.73-2.16-.03-24.05z" fill="#fcc134"/></g></g></svg>