<svg id="Layer_1" enable-background="new 0 0 132 132" height="512" viewBox="0 0 132 132" width="512" xmlns="http://www.w3.org/2000/svg"><g><g><g fill="#e4e8f4"><path d="m86.7946 89.6342-.1504.4513-.1317-.4137z"/><path d="m107.9873 83.3441 14.6394-8.4527-.0846-29.8146-29.9181-17.3848-14.6394 8.4526.0376 11.734-22.0953 12.7496v-10.7374c0-.1786-.094-.3291-.2445-.4137l-5.5097-3.0276v-6.779l6.3748-3.6763c5.4063-3.1215 9.7313-10.634 9.7125-16.8206-.0094-3.131-1.1376-5.3217-2.9429-6.3184.0282.0188.0564.0282.094.047l-5.2747-3.0651c-.9308-.5359-2.0591-.7522-3.3002-.6018l-4.72-2.7455c-1.777-1.0342-4.2404-.9026-6.9577.6676-1.2411.7146-2.454 1.7018-3.5259 2.8301l-1.5702-.9121c-2.736-1.5983-6.5628-1.3727-10.7468 1.0437-8.1988 4.7387-14.8556 16.1719-15.0342 25.687l5.2747 3.0745v.0094l-5.2747-3.0652c-4.043 3.1404-7.1364 9.0168-7.1269 13.8872.0094 2.6796.9685 4.5601 2.501 5.4439l5.1336 2.9806c.0471.0188.0941.047.1411.0846 1.5702.9026 3.7515.7898 6.1303-.5829l23.8066-13.7461v10.2767l-16.9148 9.769c-.1504.0846-.2444.2351-.2351.4043l.0658 11.8657c-3.1967.1411-6.3277.9026-8.7723 2.3224-2.9053 1.6736-4.2499 3.9113-4.0618 6.1021-.0188-.1316-.0376-.2539-.0376-.3855l.0188 6.262c0 .5641.1128 1.1283.3197 1.683-.2633.7052-.3667 1.4198-.3009 2.1343-.0188-.1222-.0376-.2539-.0376-.3855l.0188 6.262c0 .4795.0846.9496.2256 1.4198-.1975.6205-.2632 1.2599-.2068 1.8898-.0188-.1222-.0376-.2538-.0376-.3855l.0188 6.2619c0 .4137.0752.818.1786 1.2317-.1598.5548-.2162 1.1283-.1598 1.7019-.0188-.1316-.0376-.2633-.0376-.3855l.0188 6.262c.0094 2.0403 1.3445 4.0712 4.0148 5.6226 5.3969 3.1403 14.1786 3.1403 19.6037 0 2.7267-1.5702 4.09-3.6387 4.0806-5.7072l-.0188-6.2619c0-.4043-.0658-.818-.1786-1.2223.1316-.4325.2068-.8744.1975-1.3163l-.0188-6.2619c0-.4701-.0752-.9496-.2256-1.4198.1692-.4983.2538-.9966.2445-1.5043l-.0188-6.2619c0-.5642-.1128-1.1283-.3197-1.683.2257-.5735.3479-1.1659.3385-1.7488l-.0188-6.2619c0-2.0498-1.3445-4.09-4.0242-5.6414-2.7172-1.5796-6.2901-2.36-9.863-2.3506l-.0658-11.5648 16.9148-9.7689c.141-.0846.2351-.2351.2351-.4043v-11.0952l5.4251-3.1309v6.5158c0 .1692.0941.3291.2445.4137l5.5097 3.0181v11.0007l-5.82 3.3566c-1.1753.7052-2.1625 2.3787-2.1625 3.7515l.0657 25.8562.0188 2.454c0 .6864.2351 1.1659.6393 1.4198l2.4164 1.3822.6205.3479c.3949.2351.9496.2162 1.5608-.1411l14.3385-8.274-3.0934 9.1578.3479.047-.3479-.0376.2351.3949 5.8764.6958 3.5635-9.863 13.3983-1.6266-.1317-.4137.2821-.0376-1.3351-4.137-11.0571 1.3445 13.3794-7.7193c1.2035-.6958 2.1719-2.3693 2.1625-3.7515l-.0094-2.4634v-.0564zm-53.2451-74.0994-.0094.0094c-.0564-.0282-.1128-.047-.1693-.0658.0565.0188.1223.0376.1787.0564z"/><path d="m100.7745 85.7085-.0855-.0534c-.2351-.1176-.4381-.1283-.5877-.0321l-39.3023 22.8354c.0256-.0153.0589-.0106.0866-.0205-.2107.0763-.3522.2885-.3413.6369.0182.5484.4113 1.2064.9231 1.4989l14.4103 7.3236c.0417.0238.0728.0092.0941-.0189-.0045.0072-.0033.0196-.0098.0262l39.2917-22.8355c.0213-.0107.032-.0428.032-.0748.0107-.0855-.0428-.171-.1175-.2244zm-39.7067 22.6864c.1009.0049.211.0363.3296.0956l.0687.0393-.0717-.0398c-.1165-.0616-.226-.0902-.3266-.0951z"/><path d="m48.082 120.5275-.0165 1.73 6.3858 3.6869 6.3494-3.6899.0164-1.73-6.3858-3.6868z"/><path d="m123.6142 86.4216-6.3493 3.6899-.0165 1.73 6.3858 3.6868 6.3493-3.6898.0165-1.73z"/><path d="m14.7516 68.0734-6.3858-3.6868-6.3493 3.6898-.0165 1.73 6.3859 3.6869 6.3492-3.6899z"/></g><g><g><g><path d="m55.4535 63.9122c-.2598 0-.4701-.2103-.4701-.4701v-13.2756l-5.5087-3.025c-.1501-.0826-.2438-.2406-.2438-.4123v-10.589c0-.2598.2103-.4701.4701-.4701s.4701.2103.4701.4701v10.3108l5.5087 3.025c.1501.0826.2438.2406.2438.4123v13.5539c0 .2598-.2102.47-.4701.47z" fill="#4c7891"/></g><g><g><g enable-background="new"><g><g><path d="m77.9861 36.1403.0845 29.817 29.9163 17.3855-.0845-29.8171z" fill="#416e84"/></g><g><path d="m79.6246 65.06-.0744-26.2103 26.7985 15.5731.0741 26.2107z" fill="#345c70"/></g></g><g><g><path d="m107.9024 53.5257.0845 29.8171 14.6384-8.4515-.0846-29.817z" fill="#37617b"/></g></g><g><g><path d="m77.9861 36.1403 29.9163 17.3854 14.6383-8.4514-29.9163-17.3855z" fill="#4c7891"/></g><g><path d="m81.0915 36.1448 11.5302-6.6569 26.8137 15.5818-11.5302 6.657z" fill="#416e84"/></g></g></g></g><g><g><g><path d="m121.3966 55.7518.0049 1.7462-12.2479 7.0714-.0049-1.7463z" fill="#fff"/></g></g><g><g><path d="m121.3853 52.2966.005 1.7463-12.2479 7.0713-.005-1.7462z" fill="#fff"/></g></g><g><g><path d="m121.374 48.8415.005 1.7462-12.2479 7.0714-.005-1.7463z" fill="#fff"/></g></g></g><g><g><g><path d="m118.5196 71.2464c0 1.2764-.895 2.8407-2.0079 3.4788-1.1129.6459-2.0157.1167-2.0235-1.1519 0-1.2841.895-2.8328 2.0079-3.471 1.1129-.6459 2.0157-.1322 2.0235 1.1441z" fill="#fed57a"/></g></g><g><g><path d="m116.4793 64.3966c.7536-.4351 1.3671-.09 1.3696.776.0024.8614-.6071 1.9218-1.3607 2.3569s-1.3632.0786-1.3657-.7828c-.0024-.866.6032-1.915 1.3568-2.3501z" fill="#9ad898"/></g></g></g></g><g><g><g><g><path d="m86.6473 90.0835-13.3988 1.6284-3.5657 9.8636-5.8803-.6957 4.334-12.847 17.1714-2.0852z" fill="#474b59"/></g><g><path d="m86.7987 89.6371-13.7834 1.6774-3.5666 9.8639-5.8793-.7003 4.3375-12.8442 17.5509-2.1335z" fill="#5b5e71"/></g><g><path d="m63.8025 100.8798-.2323-.3993.5334.0632z" fill="#525566"/></g><g><path d="m86.6473 90.0835.1488-.445-.282.0338z" fill="#525566"/></g></g><g><g enable-background="new"><g><g><path d="m72.7755 83.3554-.0201 7.0804c-.0009.3266-.2159.6526-.6452.9022-.8643.5023-2.267.5023-3.1369 0-.4378-.2527-.6564-.584-.6555-.9148l.0201-7.0804c-.0009.3308.2177.6621.6555.9148.87.5023 2.2726.5023 3.1369 0 .4294-.2495.6443-.5756.6452-.9022z" fill="#363a44"/></g></g><g><g><path d="m72.12 82.4406c.87.5023.8746 1.3147.0102 1.817-.8643.5023-2.267.5023-3.1369 0-.87-.5023-.8745-1.3147-.0102-1.817s2.267-.5023 3.1369 0z" fill="#37617b"/></g></g></g></g><g><g><g><path d="m61.0786 91.6948 12.6899-7.3745 2.2687 1.4921-12.6899 7.3746z" fill="#eaf0f6"/></g></g><g><g><path d="m89.2906 45.672c-.373-.2021-.6515.1362-1.2421.4937l-35.4485 20.4647c-1.1967.6839-1.7389 2.1152-1.7389 3.4829l-.1047 25.5946v2.4713c.0156.6839-.3657 1.3489.0228 1.5666l-.637-.3609-2.4186-1.3839c-.4041-.2486-.6372-.7305-.6372-1.4143l-.0156-2.4558-.062-25.8629c0-1.3678.9792-3.0463 2.1604-3.7457l35.4994-20.4852c.6062-.342 1.1501-.3886 1.5387-.1555z" fill="#5b5e71"/></g></g><g><g><path d="m89.939 72.906-39.7968 22.9973-.0777-25.8473c0-1.3678.9792-3.0464 2.1759-3.7458l35.4994-20.4852c1.1968-.6994 2.1759-.1399 2.1759 1.2278z" fill="#525566"/></g></g><g><g><path d="m88.5151 71.7177-36.9603 21.3539-.0711-23.0184c0-.8535.7113-2.077 1.4795-2.518l35.5234-20.5003z" fill="#fff"/></g></g><g><g><path d="m88.4896 49.6215-37.003 21.3786-.0029-.9469c0-.8535.7113-2.077 1.4795-2.518l35.5234-20.5003z" fill="#6eba6e"/></g></g><g><g><path d="m89.939 72.906.007 2.4656c.0039 1.3789-.9647 3.0566-2.1647 3.7494l-35.4527 20.4687c-1.2066.6966-2.1815.1411-2.1854-1.2379l-.007-2.4656z" fill="#e4e8f4"/></g></g><g><g><path d="m70.9031 86.2469c0 .6005-.4204 1.3061-.9308 1.6064-.5105.3003-.9308.0601-.9308-.5254 0-.6005.4053-1.3211.9308-1.6214.5104-.2852.9308-.045.9308.5404z" fill="#bac1ce"/></g></g></g></g><g><g><g><path d="m57.6102 65.4977c.3061-.1767.5526-.0363.5535.3155.001.3518-.2438.7758-.5499.9526-.3025.1746-.5526.0363-.5536-.3154-.0009-.3519.2476-.7781.55-.9527z" fill="#fff"/></g></g><g><g><path d="m55.7311 66.5469c.3061-.1767.5526-.0363.5536.3154.001.3518-.2438.7758-.55.9526-.3043.1757-.5526.0363-.5535-.3155-.001-.3517.2457-.7768.5499-.9525z" fill="#fff"/></g></g><g><g><path d="m53.8521 67.5961c.3043-.1757.5526-.0363.5536.3154.001.3518-.2457.7769-.55.9526s-.5526.0363-.5536-.3154c-.001-.3518.2457-.777.55-.9526z" fill="#fff"/></g></g></g></g><g><g enable-background="new"><g><g><g><path d="m115.2857 94.9944c0 .032-.0107.0641-.032.0748l-39.2916 22.8355c.0214-.0214.0321-.0428.0321-.0855 0-.0641-.0428-.171-.1176-.203l-14.4044-9.0829-.0748-.0427c-.2351-.1176-.4381-.1282-.5984-.0321l39.3023-22.8355c.1496-.0962.3526-.0855.5877.0321l.0855.0534 14.3937 9.0615c.0748.0534.1282.1389.1175.2244z" fill="#d4dae8"/></g></g></g><g><g><g><path d="m75.9966 117.8243c0 .0731-.0548.1097-.1188.0731l-14.4104-7.3236c-.5118-.2925-.9049-.9505-.9232-1.4989-.0183-.585.3656-.8409.85-.585l.0823.0457 14.4012 9.0784c.0732.0366.1189.1371.1189.2103z" fill="#afb5bf"/></g></g></g></g></g><g><g><g><path d="m100.7406 89.4721-1.9233-1.1394 2.0115-1.1712.0889.0202 1.924 1.1394-1.9782 1.151z" fill="#afb5bf"/></g></g><g><g><path d="m98.2183 90.9287-1.9241-1.1394 2.005-1.1676.1005.0159 1.9118 1.1344-1.9704 1.1567z" fill="#afb5bf"/></g></g><g><g><path d="m67.678 111.4556-1.9393-1.1488 3.6669-2.117.1033.0202 1.9154 1.1344-3.6235 2.1112z" fill="#afb5bf"/></g></g><g><g><path d="m75.1655 115.8066-1.9313-1.1444 2.6574-1.5347.0889.0203 1.9234 1.1394-2.6156 1.5194z" fill="#afb5bf"/></g></g><g><g><path d="m72.667 114.3551-1.9233-1.1394 6.4181-3.7152.0889.0202 1.9234 1.1394-6.3843 3.695z" fill="#afb5bf"/></g></g><g><g><path d="m92.2207 103.0657-1.9313-1.1445 2.0194-1.1662.0889.0203 1.9313 1.1444-1.9855 1.146z" fill="#afb5bf"/></g></g><g><g><path d="m78.333 113.9779-1.924-1.1394 2.6574-1.544.0889.0202 1.932 1.1445-2.6314 1.5187z" fill="#afb5bf"/></g></g><g><g><path d="m101.8591 91.7206-1.9385-1.1481 3.3995-1.9638.0924.0246 1.9357 1.1444-3.3663 1.9429z" fill="#afb5bf"/></g></g><g><g><path d="m95.6967 92.3846-1.9313-1.1445 2.0122-1.1618.0997.0159 1.9118 1.1344-1.9703 1.156z" fill="#afb5bf"/></g></g><g><g><path d="m99.3816 93.1512-1.9385-1.1481 2.0194-1.1669.0932.0246 1.927 1.1394-1.9783 1.151z" fill="#afb5bf"/></g></g><g><g><path d="m93.1744 93.8405-1.9234-1.1394 2.0043-1.1669.0889.0202 1.9313 1.1445-1.9783 1.1416z" fill="#afb5bf"/></g></g><g><g><path d="m96.9373 94.6035-1.9783-1.1496 2.0036-1.1748.0932.0246 1.9269 1.1394-2.0042 1.1669z" fill="#afb5bf"/></g></g><g><g><path d="m90.7005 95.3101-1.9696-1.1437 2.0021-1.1763.0896.0202 1.9233 1.1394-2.0042 1.1669z" fill="#afb5bf"/></g></g><g><g><path d="m104.7904 95.8498-1.9696-1.1444 5.4955-3.1929.0896.0203 1.9233 1.1394-5.4984 3.1841z" fill="#afb5bf"/></g></g><g><g><path d="m94.3897 96.0334-1.9393-1.1489 2.013-1.1618.1033.0203 1.9154 1.1343-1.9703 1.1561z" fill="#afb5bf"/></g></g><g><g><path d="m98.6641 96.4531-1.927-1.1394 2.0123-1.1712.0888.0202 1.9386 1.1481-1.9834 1.1459z" fill="#afb5bf"/></g></g><g><g><path d="m88.1232 96.7573-1.924-1.1394 2.0122-1.1712.0888.0202 1.9234 1.1387-1.9775 1.1517z" fill="#afb5bf"/></g></g><g><g><path d="m102.2753 97.3021-1.9696-1.1445 2.0021-1.1755.0896.0202 1.9233 1.1387-2.0042 1.1676z" fill="#afb5bf"/></g></g><g><g><path d="m91.8897 97.477-1.9392-1.1489 2.0202-1.1668.0924.0245 1.9357 1.1445-1.9862 1.1467z" fill="#afb5bf"/></g></g><g><g><path d="m96.157 97.9004-1.927-1.1387 2.0115-1.172.0896.0203 1.9385 1.148-1.9833 1.146z" fill="#afb5bf"/></g></g><g><g><path d="m85.6009 98.2132-1.9234-1.1394 2.0043-1.1669.0997.0159 1.9118 1.1344-1.9703 1.156z" fill="#afb5bf"/></g></g><g><g><path d="m99.7754 98.745-1.9696-1.1445 2.0028-1.1755.0889.0202 1.9233 1.1394-2.0043 1.1669z" fill="#afb5bf"/></g></g><g><g><path d="m89.4454 98.9292-1.9782-1.1495 2.0035-1.1748.0925.0245 1.9277 1.1395-2.0043 1.1668z" fill="#afb5bf"/></g></g><g><g><path d="m93.6498 99.3483-1.927-1.1394 2.0115-1.1712.0889.0202 1.9393 1.1481-1.9841 1.1459z" fill="#afb5bf"/></g></g><g><g><path d="m83.0786 99.6691-1.9234-1.1394 2.0043-1.1669.1004.0159 1.9118 1.1344-1.971 1.156z" fill="#afb5bf"/></g></g><g><g><path d="m103.2695 99.6236-1.9703-1.1445 2.5505-1.4927.0997.0159 1.9118 1.1343-2.5527 1.4935z" fill="#afb5bf"/></g></g><g><g><path d="m97.2761 100.1886-1.9696-1.1445 2.0022-1.1755.0888.0202 1.9234 1.1394-2.0043 1.1669z" fill="#afb5bf"/></g></g><g><g><path d="m86.8978 100.3591-1.9392-1.1481 2.0122-1.1625.0939.0238 1.9263 1.1394-1.9703 1.1474z" fill="#afb5bf"/></g></g><g><g><path d="m91.1427 100.7955-1.927-1.1394 2.0115-1.1712.0889.0202 1.9392 1.1488-1.984 1.1452z" fill="#afb5bf"/></g></g><g><g><path d="m80.557 101.1257-1.9241-1.1394 2.005-1.1676.0889.0202 1.924 1.1394-1.971 1.1474z" fill="#afb5bf"/></g></g><g><g><path d="m94.7762 101.6315-1.9696-1.1438 2.0021-1.1763.0889.0203 1.9234 1.1394-2.0043 1.1669z" fill="#afb5bf"/></g></g><g><g><path d="m84.3979 101.802-1.9393-1.1488 2.0202-1.1662.0925.0246 1.927 1.1394-1.9776 1.151z" fill="#afb5bf"/></g></g><g><g><path d="m88.6355 102.2434-1.9349-1.1444 2.0194-1.1662.0889.0202 1.9393 1.1489-1.9841 1.1451z" fill="#afb5bf"/></g></g><g><g><path d="m78.0831 102.5953-1.9696-1.1445 2.0021-1.1755.0888.0202 1.9234 1.1394-2.0043 1.1669z" fill="#afb5bf"/></g></g><g><g><path d="m81.9536 103.255-1.9934-1.159 2.0187-1.1654.0925.0246 1.9349 1.1445-2.0122 1.1618z" fill="#afb5bf"/></g></g><g><g><path d="m86.1247 103.6907-1.9154-1.1344 2.0036-1.1763.0889.0203 1.9392 1.1488-1.979 1.1416z" fill="#afb5bf"/></g></g><g><g><path d="m75.5051 104.0418-1.9234-1.1394 2.0115-1.1712.0889.0202 1.9241 1.1394-1.9783 1.151z" fill="#afb5bf"/></g></g><g><g><path d="m89.7207 104.5093-1.9241-1.1394 2.0123-1.172.0888.0202 1.9321 1.1445-1.9862 1.1467z" fill="#afb5bf"/></g></g><g><g><path d="m79.4053 104.6841-1.9393-1.1481 2.013-1.1625.0924.0246 1.9357 1.1444-1.979 1.1416z" fill="#afb5bf"/></g></g><g><g><path d="m83.6176 105.1386-1.9162-1.1344 2.0043-1.1762.0889.0202 1.9392 1.1488-1.9789 1.1416z" fill="#afb5bf"/></g></g><g><g><path d="m72.9828 105.4984-1.9234-1.1394 2.0122-1.172.0889.0203 1.9241 1.1394-1.9783 1.1517z" fill="#afb5bf"/></g></g><g><g><path d="m87.2208 105.9521-1.9234-1.1394 2.0115-1.1712.0889.0203 1.9241 1.1394-1.9783 1.1509z" fill="#afb5bf"/></g></g><g><g><path d="m76.9053 106.1277-1.9385-1.1481 2.0122-1.1625.1041.0202 1.9154 1.1344-1.9703 1.156z" fill="#afb5bf"/></g></g><g><g><path d="m81.1104 106.5858-1.9161-1.1344 2.0043-1.1762.0888.0202 1.9386 1.1481-1.9783 1.1423z" fill="#afb5bf"/></g></g><g><g><path d="m70.4612 106.9543-1.9313-1.1445 2.0122-1.1618.0997.0159 1.9118 1.1343-1.9703 1.1561z" fill="#afb5bf"/></g></g><g><g><path d="m84.7209 107.3957-1.9241-1.1394 2.0122-1.1719.0896.0202 1.9234 1.1394-1.9783 1.1517z" fill="#afb5bf"/></g></g><g><g><path d="m74.4061 107.5713-1.9399-1.1488 2.0201-1.1669.0932.0246 1.927 1.1394-1.9775 1.1517z" fill="#afb5bf"/></g></g><g><g><path d="m78.6025 108.0337-1.9154-1.1343 2.0043-1.1763.0889.0202 1.9392 1.1481-1.979 1.1423z" fill="#afb5bf"/></g></g><g><g><path d="m88.0394 108.4159-1.9696-1.1444 14.6788-8.4955.1004.0159 1.9111 1.1337-14.6802 8.4969z" fill="#afb5bf"/></g></g><g><g><path d="m82.2209 108.8386-1.9233-1.1394 2.0122-1.1712.0889.0202 1.9233 1.1394-1.9775 1.151z" fill="#afb5bf"/></g></g><g><g><path d="m71.9618 109.0236-1.979-1.1495 2.0043-1.1749.0925.0246 1.927 1.1394-2.0043 1.1669z" fill="#afb5bf"/></g></g><g><g><path d="m76.0954 109.4809-1.9154-1.1343 2.0035-1.1763.0896.0203 1.9386 1.148-1.9783 1.1423z" fill="#afb5bf"/></g></g><g><g><path d="m65.1795 110.0033-1.9233-1.1394 4.7636-2.76.0888.0202 1.9313 1.1445-4.7376 2.7347z" fill="#afb5bf"/></g></g><g><g><path d="m79.7217 110.2822-1.924-1.1394 2.0122-1.1719.0889.0202 1.924 1.1394-1.9782 1.1517z" fill="#afb5bf"/></g></g><g><g><path d="m84.6753 110.3162-1.924-1.1394 2.7391-1.591.0997.0159 1.9118 1.1343-2.7037 1.5802z" fill="#afb5bf"/></g></g><g><g><path d="m81.5078 112.1449-1.9313-1.1445 2.6574-1.5346.0889.0202 1.9234 1.1394-2.6156 1.5195z" fill="#afb5bf"/></g></g><g><g><path d="m70.1721 112.9028-1.9269-1.1394 5.4095-3.1329.0889.0203 1.9392 1.1488-5.3813 3.1068z" fill="#afb5bf"/></g></g><g><g><path d="m106.3684 97.8332-1.9689-1.1445 6.4153-3.7239.0888.0202 1.9314 1.1445-6.4254 3.7102z" fill="#afb5bf"/></g></g><g><g><path d="m101.1713 95.0052-1.927-1.1387 2.0043-1.1676.1004.0159 1.9205 1.1394-1.9696 1.1546z" fill="#afb5bf"/></g></g><g><g><path d="m103.6192 93.5919-1.927-1.1386 4.1263-2.3923.0889.0202 1.9385 1.1481-4.0974 2.3663z" fill="#afb5bf"/></g></g></g><g><g><g><g><path d="m12.9126 111.934.0178 6.2617c.0058 2.0394 1.3447 4.0745 4.0179 5.6281 5.3963 3.136 14.1711 3.136 19.6027.0001 2.7256-1.5736 4.0876-3.6414 4.0818-5.7072l-.0177-6.2617c.0058 2.0658-1.3562 4.1336-4.0818 5.7072-5.4316 3.136-14.2064 3.1359-19.6027-.0001-2.6733-1.5536-4.0122-3.5887-4.018-5.6281z" fill="#f34858"/></g></g><g><g><path d="m17.0067 106.2145c-5.4316 3.136-5.4602 8.2187-.0761 11.3476 5.3963 3.136 14.1711 3.136 19.6027.0001 5.4194-3.1289 5.448-8.2115.0517-11.3475-5.3841-3.129-14.159-3.1291-19.5783-.0002z" fill="#f9607f"/></g></g></g><g><g><g><path d="m13.8221 103.1488.0166 8.5273c.0054 1.9056 1.2565 3.8072 3.7543 5.2588 5.0423 2.9302 13.2413 2.9303 18.3165.0001 2.5467-1.4704 3.8194-3.4025 3.8139-5.3328l-.0166-8.5273c.0054 1.9303-1.2672 3.8624-3.814 5.3328-5.0752 2.9302-13.2743 2.9302-18.3165-.0001-2.4978-1.4516-3.7488-3.3532-3.7542-5.2588z" fill="#fed57a"/></g></g><g><g><path d="m17.6475 97.8046c-5.0752 2.9302-5.102 7.6794-.0711 10.603 5.0423 2.9302 13.2413 2.9303 18.3165.0001 5.0638-2.9236 5.0905-7.6728.0483-10.603-5.0309-2.9237-13.23-2.9237-18.2937-.0001z" fill="#fed57a"/></g></g></g><g><g><g><path d="m12.9126 103.1301.0178 6.2617c.0058 2.0394 1.3447 4.0745 4.0179 5.6281 5.3963 3.136 14.1711 3.136 19.6027.0001 2.7256-1.5736 4.0876-3.6414 4.0818-5.7072l-.0177-6.2617c.0058 2.0658-1.3562 4.1336-4.0818 5.7072-5.4316 3.1359-14.2064 3.1359-19.6027-.0001-2.6733-1.5535-4.0122-3.5887-4.018-5.6281z" fill="#f34858"/></g></g><g><g><path d="m17.0067 97.4106c-5.4316 3.1359-5.4602 8.2187-.0761 11.3476 5.3963 3.136 14.1711 3.136 19.6027.0001 5.4194-3.1289 5.448-8.2116.0517-11.3476-5.3841-3.1289-14.159-3.129-19.5783-.0001z" fill="#f9607f"/></g></g></g><g><g><g><path d="m13.8221 94.3449.0166 8.5273c.0054 1.9056 1.2565 3.8072 3.7543 5.2588 5.0423 2.9302 13.2413 2.9303 18.3165.0001 2.5467-1.4704 3.8194-3.4025 3.8139-5.3328l-.0166-8.5273c.0054 1.9303-1.2672 3.8624-3.814 5.3328-5.0752 2.9302-13.2743 2.9302-18.3165-.0001-2.4978-1.4516-3.7488-3.3532-3.7542-5.2588z" fill="#fed57a"/></g></g><g><g><path d="m17.6475 89.0007c-5.0752 2.9302-5.102 7.6794-.0711 10.603 5.0423 2.9302 13.2413 2.9303 18.3165.0001 5.0638-2.9236 5.0905-7.6728.0483-10.603-5.0309-2.9236-13.23-2.9237-18.2937-.0001z" fill="#fed57a"/></g></g></g><g><g><g><path d="m12.9126 93.9437.0178 6.2617c.0058 2.0394 1.3447 4.0745 4.0179 5.6281 5.3963 3.136 14.1711 3.136 19.6027.0001 2.7256-1.5736 4.0876-3.6414 4.0818-5.7072l-.0177-6.2617c.0058 2.0658-1.3562 4.1336-4.0818 5.7072-5.4316 3.1359-14.2064 3.1359-19.6027-.0001-2.6733-1.5535-4.0122-3.5887-4.018-5.6281z" fill="#f34858"/></g></g><g><g><path d="m17.0067 88.2242c-5.4316 3.136-5.4602 8.2187-.0761 11.3476 5.3963 3.136 14.1711 3.136 19.6027.0001 5.4194-3.1289 5.448-8.2115.0517-11.3475-5.3841-3.129-14.159-3.129-19.5783-.0002z" fill="#f9607f"/></g></g></g><g><g><path d="m37.2593 103.5532c.212 0 .4334-.0652.6586-.1949.713-.4116 1.2706-1.3778 1.2691-2.1988-.0031-.7666-.4722-1.1099-.9367-1.1099-.212 0-.4334.066-.6578.1949-.7138.4132-1.2714 1.3802-1.2691 2.2019.0016.6618.3775 1.1068.9359 1.1068z" fill="#fff"/></g><g><path d="m37.7521 100.7566c-.5041.291-.9066.9911-.9049 1.5704.0016.5734.4068.8101.9109.5191.5015-.2896.9066-.9941.905-1.5675-.0018-.5792-.4095-.8115-.911-.522z" fill="#bac1ce"/></g></g><g><g><g><path d="m13.8221 84.6483.0166 8.5273c.0054 1.9056 1.2565 3.8072 3.7543 5.2588 5.0423 2.9302 13.2413 2.9303 18.3165.0001 2.5467-1.4704 3.8194-3.4025 3.8139-5.3328l-.0166-8.5273c.0054 1.9303-1.2672 3.8624-3.814 5.3328-5.0752 2.9302-13.2743 2.9302-18.3165-.0001-2.4978-1.4516-3.7488-3.3532-3.7542-5.2588z" fill="#fed57a"/></g></g><g><g><path d="m17.6475 79.3041c-5.0752 2.9302-5.102 7.6794-.0711 10.603 5.0423 2.9302 13.2413 2.9303 18.3165.0001 5.0638-2.9236 5.0905-7.6728.0483-10.603-5.0309-2.9237-13.23-2.9237-18.2937-.0001z" fill="#fed57a"/></g></g></g><g><g><g><path d="m12.9126 84.2471.0178 6.2617c.0058 2.0394 1.3447 4.0746 4.0179 5.6281 5.3963 3.136 14.1711 3.136 19.6027.0001 2.7256-1.5736 4.0876-3.6414 4.0818-5.7072l-.0177-6.2617c.0058 2.0658-1.3562 4.1336-4.0818 5.7072-5.4316 3.1359-14.2064 3.1359-19.6027-.0001-2.6733-1.5535-4.0122-3.5887-4.018-5.6281z" fill="#f34858"/></g></g><g><g><path d="m17.0067 78.5276c-5.4316 3.1359-5.4602 8.2187-.0761 11.3476 5.3963 3.136 14.1711 3.136 19.6027.0001 5.4194-3.1289 5.448-8.2116.0517-11.3476-5.3841-3.1289-14.159-3.129-19.5783-.0001z" fill="#f9607f"/></g></g><g><g><path d="m23.2461 82.1576c-1.9582 1.1306-1.9686 2.963-.0274 4.0911 1.9455 1.1306 5.1091 1.1306 7.0673 0 1.9538-1.128 1.9641-2.9605.0186-4.0911-1.9411-1.1281-5.1046-1.1281-7.0585 0z" fill="#f34858"/></g></g></g><g><g><path d="m37.2593 93.8566c.212 0 .4334-.0652.6586-.1949.713-.4116 1.2706-1.3778 1.2691-2.1988-.0031-.7666-.4722-1.1099-.9367-1.1099-.212 0-.4334.066-.6578.1949-.7138.4132-1.2714 1.3802-1.2691 2.2019.0016.6618.3775 1.1068.9359 1.1068z" fill="#fff"/></g><g><path d="m37.7521 91.06c-.5041.291-.9066.9911-.9049 1.5704.0016.5734.4068.8101.9109.5191.5015-.2896.9066-.9941.905-1.5675-.0018-.5792-.4095-.8116-.911-.522z" fill="#bac1ce"/></g></g><g><g><path d="m37.2593 112.6634c.212 0 .4334-.0652.6586-.1949.713-.4116 1.2706-1.3778 1.2691-2.1988-.0031-.7666-.4722-1.1099-.9367-1.1099-.212 0-.4334.066-.6578.1949-.7138.4132-1.2714 1.3802-1.2691 2.2019.0016.6618.3775 1.1068.9359 1.1068z" fill="#fff"/></g><g><path d="m37.7524 109.9767c-.4511.2605-.8113.887-.8098 1.4053.0015.5131.364.725.8151.4645.4488-.2591.8113-.8896.8098-1.4027-.0015-.5183-.3663-.7262-.8151-.4671z" fill="#bac1ce"/></g></g><g><g><path d="m37.2593 121.7737c.212 0 .4334-.0652.6586-.1949.713-.4116 1.2706-1.3778 1.2691-2.1988-.0031-.7666-.4722-1.1099-.9367-1.1099-.212 0-.4334.066-.6578.1949-.7138.4132-1.2714 1.3802-1.2691 2.2019.0016.6617.3775 1.1068.9359 1.1068z" fill="#fff"/></g><g><path d="m37.7523 119.0498c-.4691.2708-.8435.9222-.842 1.4612.0015.5335.3785.7538.8475.483.4667-.2694.8435-.925.842-1.4585-.0015-.539-.3809-.7552-.8475-.4857z" fill="#bac1ce"/></g></g></g><g><path d="m26.3014 83.8131c-.2585 0-.4683-.2084-.4701-.4674l-.1184-19.0006c-.0009-.169.0886-.3255.2351-.41l16.9181-9.7677v-23.5938c0-.2598.2103-.4701.4701-.4701s.4701.2103.4701.4701v23.8652c0 .168-.0895.3232-.2351.4072l-16.9163 9.7668.1166 18.7274c.0018.2594-.2075.471-.4674.4729-.0009 0-.0018 0-.0027 0z" fill="#4c7891"/></g><g><g enable-background="new"><g><g><path d="m58.1335 9.8381 5.2733 3.0646c-1.4658-.8519-3.3976-.8968-5.556.0142l-5.2735-3.0645c2.1586-.911 4.0904-.8661 5.5562-.0143z" fill="#4562ef"/></g></g><g><g><path d="m50.1172 6.4927 5.2734 3.0646c-1.7793-1.0341-4.2451-.9021-6.9554.6627-1.3086.7555-2.5872 1.7949-3.6907 3.0011l-5.2734-3.0645c1.1035-1.2062 2.3821-2.2456 3.6907-3.0011 2.7103-1.5649 5.176-1.6969 6.9554-.6628z" fill="#576cfb"/></g></g><g><g><path d="m12.9257 58.224-5.2735-3.0646c-1.5335-.8912-2.49-2.7709-2.4976-5.4433-.0138-4.8787 3.0861-10.7516 7.1259-13.8872l5.2734 3.0646c-4.0398 3.1357-7.1397 9.0086-7.1259 13.8872.0077 2.6723.9642 4.5521 2.4977 5.4433z" fill="#576cfb"/></g></g><g><g><path d="m43.3364 12.1421c-2.7783-1.594-6.5587-1.3663-10.7489 1.0478-8.1986 4.7367-14.8482 16.1689-15.0305 25.6879l-5.2751-3.0681c.1821-9.5193 6.832-20.9515 15.0302-25.6882 4.1905-2.4141 8.0162-2.6418 10.7489-1.0478z" fill="#4562ef"/></g></g><g><g><path d="m32.5984 13.2049c4.9726-2.871 9.3714-2.6662 12.1461.0161 1.1035-1.2061 2.3821-2.2455 3.6907-3.0011 4.4492-2.5687 8.2394-1.2763 9.4157 2.697 4.7421-2.0015 8.3905.6112 8.4065 6.2583.0175 6.1817-4.3012 13.6956-9.71 16.8185l-37.4838 21.6413c-4.711 2.7199-8.6201.5589-8.6355-4.8544-.0138-4.8787 3.0861-10.7516 7.1259-13.8872.1769-9.5406 6.8438-20.9539 15.0444-25.6885z" fill="#748bfd"/></g></g></g></g><g><g><path d="m39.6926 18.2705 7.2426 6.7166-4.32 2.4941.0412 9.577-5.7835 3.3391-.0412-9.5871-4.32 2.4942z" fill="#fff"/></g></g></g><g><g enable-background="new"><g><g><path d="m60.8171 120.5245-.0164 1.7301-6.3494 3.6898.0165-1.73z" fill="#6eba6e"/></g></g><g><g><path d="m54.4678 124.2144-.0165 1.73-6.3858-3.6869.0165-1.73z" fill="#75ca75"/></g></g><g><g><path d="m60.8171 120.5245-6.3493 3.6899-6.3858-3.6869 6.3493-3.6898z" fill="#9ad898"/></g></g></g></g><g><g enable-background="new"><g><g><path d="m130 90.1085-.0165 1.73-6.3493 3.6898.0165-1.73z" fill="#f34858"/></g></g><g><g><path d="m123.6507 93.7983-.0165 1.73-6.3858-3.6868.0164-1.73z" fill="#fa5168"/></g></g><g><g><path d="m130 90.1085-6.3493 3.6898-6.3859-3.6868 6.3494-3.6899z" fill="#f9607f"/></g></g></g></g><g><g enable-background="new"><g><g><path d="m14.7516 68.0734-.0164 1.7301-6.3494 3.6898.0165-1.73z" fill="#cad0dd"/></g></g><g><g><path d="m8.4023 71.7633-.0165 1.73-6.3858-3.6869.0165-1.73z" fill="#d4dae8"/></g></g><g><g><path d="m14.7516 68.0734-6.3493 3.6899-6.3858-3.6869 6.3493-3.6898z" fill="#e4e8f4"/></g></g></g></g></g></g></g></svg>