<svg id="Layer_1" enable-background="new 0 0 64 64" viewBox="0 0 64 64" xmlns="http://www.w3.org/2000/svg" xmlns:xlink="http://www.w3.org/1999/xlink"><linearGradient id="lg1"><stop offset="0" stop-color="#6ba6d6"/><stop offset="1" stop-color="#005c98"/></linearGradient><linearGradient id="SVGID_1_" gradientUnits="userSpaceOnUse" x1="49.047" x2="48.379" xlink:href="#lg1" y1="9.511" y2="10.849"/><linearGradient id="SVGID_2_" gradientUnits="userSpaceOnUse" x1="42.298" x2="38.462" xlink:href="#lg1" y1="2.271" y2="8.369"/><linearGradient id="SVGID_3_" gradientUnits="userSpaceOnUse" x1="11.856" x2="5.463" xlink:href="#lg1" y1="32.745" y2="44.646"/><linearGradient id="SVGID_4_" gradientUnits="userSpaceOnUse" x1="30.732" x2="20.207" xlink:href="#lg1" y1="2.971" y2="21.757"/><linearGradient id="SVGID_5_" gradientUnits="userSpaceOnUse" x1="16.472" x2="9.686" xlink:href="#lg1" y1="19.811" y2="31.122"/><linearGradient id="SVGID_6_" gradientUnits="userSpaceOnUse" x1="59.268" x2="52.669" y1="28.461" y2="44.007"><stop offset="0" stop-color="#4c4f5e"/><stop offset=".5" stop-color="#868ca5"/><stop offset="1" stop-color="#1e202b"/></linearGradient><linearGradient id="SVGID_7_" gradientUnits="userSpaceOnUse" x1="45.528" x2="28.717" y1="26.452" y2="54.021"><stop offset="0" stop-color="#4c4f5e"/><stop offset=".0999" stop-color="#4f5261"/><stop offset=".1773" stop-color="#575a6b"/><stop offset=".2472" stop-color="#64687b"/><stop offset=".3122" stop-color="#777c92"/><stop offset=".3527" stop-color="#868ca5"/><stop offset=".3659" stop-color="#81869f"/><stop offset=".4493" stop-color="#62677b"/><stop offset=".5377" stop-color="#4a4d5e"/><stop offset=".6313" stop-color="#363947"/><stop offset=".7323" stop-color="#292b37"/><stop offset=".8462" stop-color="#21232e"/><stop offset="1" stop-color="#1e202b"/></linearGradient><linearGradient id="lg2"><stop offset="0" stop-color="#1e202b"/><stop offset=".5" stop-color="#5c606b"/><stop offset="1" stop-color="#1e202b"/></linearGradient><linearGradient id="SVGID_8_" gradientUnits="userSpaceOnUse" x1="52.759" x2="46.736" xlink:href="#lg2" y1="39.337" y2="50.379"/><linearGradient id="SVGID_9_" gradientUnits="userSpaceOnUse" x1="56.294" x2="53.067" xlink:href="#lg2" y1="44.22" y2="51.311"/><g><g><path d="m53.11 12.85c.28-.03.56-.04.82-.03h.04c.28.02.55.07.8.14.01 0 .02.01.03.01.26.08.5.18.73.32l-10.2-5.93c-.01-.01-.03-.01-.04-.02-.12-.07-.24-.13-.36-.18-.11-.04-.22-.08-.33-.12-.01 0-.02-.01-.03-.01s-.01 0-.02-.01c-.13-.04-.27-.07-.4-.09-.12-.02-.25-.03-.38-.04-.01 0-.02 0-.04 0-.01 0-.01 0-.02 0-.16-.01-.31-.01-.48 0-.11 0-.22.02-.33.03-.04 0-.08.01-.13.01-.03 0-.06 0-.09.01-.21.03-.42.08-.64.14-.07.02-.14.04-.2.06l10.2 5.93c.32-.1.63-.16.93-.21.05 0 .1 0 .14-.01z" fill="url(#SVGID_1_)"/><path d="m45.95 6.7c.12-.04.24-.07.36-.1.11-.03.22-.05.33-.07.14-.03.28-.05.42-.07.08-.01.16-.02.24-.02.18-.01.35-.02.51-.01h.12c.2.01.4.04.59.07.05.01.09.02.14.03.15.03.3.08.44.13.04.02.09.03.13.05.18.07.36.15.52.25l-.01-.01s.01 0 .01.01l-10.2-5.93c-.01-.01-.03-.02-.04-.02-.13-.07-.26-.14-.4-.2-.03-.01-.05-.02-.08-.03-.04-.02-.09-.03-.14-.05-.07-.02-.14-.05-.21-.07s-.15-.04-.23-.05c-.05-.01-.09-.02-.14-.03-.03-.01-.05-.01-.08-.02-.16-.03-.32-.05-.48-.06-.01 0-.02 0-.03 0-.04 0-.08 0-.11 0-.13 0-.25-.01-.38 0-.04 0-.09.01-.13.01-.08.01-.16.02-.24.02-.08.01-.15.01-.22.02-.06.01-.13.03-.2.04-.11.02-.22.04-.33.07-.06.01-.12.02-.18.04s-.12.04-.18.06c-.19.06-.37.12-.56.19-.07.03-.13.04-.2.07-.04.02-.08.04-.11.06-.33.14-.66.3-1 .5-.42.24-.84.54-1.24.85-.08.06-.16.12-.24.18-.39.31-.76.64-1.13 1-.02.02-.05.04-.07.06-.2.2-.38.39-.57.59l10.2 5.93c.2-.22.42-.43.63-.64.36-.36.74-.69 1.13-1 .08-.06.16-.12.24-.18.41-.31.82-.6 1.24-.85.34-.2.67-.36 1-.5.11-.05.21-.09.31-.13.2-.07.39-.13.57-.19z" fill="url(#SVGID_2_)"/><path d="m10.7 45.01c0-.43.03-.87.1-1.32.01-.06.02-.13.03-.19.06-.4.14-.8.25-1.2.01-.03.01-.06.02-.08.12-.45.27-.91.45-1.36.01-.02.02-.04.03-.06.17-.43.37-.86.58-1.28.02-.03.03-.07.05-.1.22-.43.47-.85.73-1.26.01-.02.02-.03.03-.05.26-.4.53-.78.82-1.15.04-.04.07-.09.11-.13.26-.32.53-.62.81-.91.05-.05.1-.11.15-.15.33-.33.68-.64 1.03-.92l-10.2-5.93c-.34.27-.67.56-.98.87-.02.02-.03.04-.05.06-.06.04-.11.1-.16.15-.17.17-.34.35-.5.53-.1.12-.2.25-.31.37-.04.04-.07.09-.11.13-.03.04-.06.07-.09.11-.14.19-.29.38-.42.57-.11.15-.21.31-.31.47-.01.02-.02.03-.03.05-.01.01-.02.03-.03.04-.11.18-.22.36-.33.54-.1.18-.2.35-.3.54-.03.05-.05.1-.08.15-.02.03-.03.07-.05.1-.05.1-.1.19-.15.29-.09.18-.17.37-.25.55-.06.15-.12.29-.18.44-.01.02-.02.04-.03.07.01 0 0 .03-.01.05-.08.2-.15.4-.21.6-.07.21-.14.43-.2.64 0 .02-.01.04-.01.05-.01.03-.01.06-.02.09-.05.2-.1.39-.14.59-.04.21-.07.41-.11.62-.01.06-.02.12-.03.19 0 .03-.01.06-.02.09-.05.42-.08.83-.08 1.23 0 1 .18 1.84.5 2.53.32.68.78 1.2 1.35 1.53l10.2 5.93c-1.14-.68-1.85-2.08-1.85-4.08z" fill="url(#SVGID_3_)"/><path d="m23.42 19.61c.01-.02.02-.04.03-.06.29-.68.62-1.34.97-2 .03-.05.06-.1.09-.15.34-.61.7-1.21 1.08-1.78.05-.07.09-.13.14-.2.38-.55.78-1.09 1.19-1.6.08-.09.15-.19.23-.28.45-.53.91-1.04 1.39-1.52.36-.35.73-.66 1.11-.98.18-.15.36-.33.54-.47.57-.44 1.15-.84 1.75-1.18.44-.25.87-.46 1.29-.64.14-.06.27-.11.4-.16.24-.09.48-.17.71-.24.15-.05.31-.09.46-.13.14-.03.28-.06.41-.09.18-.03.36-.06.54-.08.1-.01.2-.02.31-.03.23-.02.45-.02.67-.01h.14c.26.01.51.05.75.1.06.01.12.03.18.04.19.04.38.1.56.16.06.02.12.04.17.06.23.09.46.2.67.32l-10.2-5.94c-.02-.01-.04-.02-.06-.03-.17-.09-.34-.18-.52-.25-.03-.01-.07-.02-.1-.03-.06-.02-.11-.04-.17-.06-.09-.03-.18-.07-.27-.1-.08-.03-.18-.05-.28-.07-.06-.01-.12-.03-.18-.04-.03-.01-.07-.02-.1-.02-.2-.03-.41-.06-.62-.07-.01 0-.02 0-.03 0-.04 0-.09 0-.14 0-.17-.01-.33-.01-.5 0-.05 0-.11.01-.17.02-.1.01-.2.02-.31.03-.1.01-.19.01-.29.03-.08.01-.17.04-.25.05-.14.03-.28.05-.41.09-.08.02-.15.03-.23.05s-.15.06-.23.08c-.23.07-.47.15-.71.24-.09.03-.17.05-.26.09-.05.02-.1.05-.15.07-.42.17-.84.37-1.28.62-.6.34-1.18.74-1.75 1.18-.18.14-.35.31-.53.46-.38.32-.76.63-1.12.99-.01.01-.01.01-.02.02-.38.37-.75.77-1.1 1.17-.09.11-.18.22-.27.33-.08.09-.15.19-.23.28-.11.13-.22.26-.32.39-.23.3-.46.61-.68.92-.07.1-.13.19-.19.29-.05.07-.09.13-.14.2-.09.13-.18.26-.26.39-.18.28-.36.57-.53.87-.1.17-.2.35-.29.52-.03.05-.06.1-.09.16s-.07.12-.1.18c-.15.29-.3.58-.44.87s-.28.59-.41.89c-.01.02-.01.03-.02.05s-.02.04-.03.07c-.11.27-.22.53-.33.8-.12.32-.24.65-.35.97-.03.08-.04.15-.07.23-.02.08-.05.15-.07.23-.06.2-.13.4-.18.6-.11.39-.21.79-.29 1.18-.02.08-.03.16-.05.24l10.2 5.93c.13-.67.31-1.34.52-2.02.02-.07.04-.15.07-.23.22-.67.47-1.34.75-2z" fill="url(#SVGID_4_)"/><path d="m31.94 9.38c3.81-2.2 7.12-1.71 8.9.81.99-1.07 2.09-2 3.24-2.67 4.42-2.55 8-.49 8.02 4.57 0 .33-.02.66-.04.98 3.19-.98 5.57.92 5.58 4.85.01 4.56-3.2 10.13-7.17 12.43-1.95 1.13-3.72 1.25-5.01.56-1.34 4.48-4.51 8.92-8.22 11.06-3.2 1.85-6 1.52-7.59-.48-.92 2.52-2.72 4.93-4.81 6.14-2.37 1.37-4.37.8-5.15-1.16-.79.88-1.68 1.63-2.61 2.17-3.5 2.02-6.35.4-6.36-3.61-.01-3.58 2.23-7.85 5.18-10.17-.28-.53-.44-1.21-.44-2.02-.01-3.07 2.14-6.8 4.81-8.34.65-.37 1.28-.58 1.84-.64 1.12-5.72 5.08-11.74 9.83-14.48z" fill="#6ba6d6"/><path d="m15.56 31.54c.06-.35.14-.7.24-1.05.01-.03.02-.06.03-.1.12-.38.26-.77.42-1.14 0-.01 0-.01.01-.02.17-.38.36-.76.57-1.13.01-.01.01-.02.02-.04.21-.36.43-.7.67-1.03.02-.03.04-.06.07-.09.22-.3.46-.58.71-.85.05-.06.11-.11.16-.17.2-.2.4-.39.61-.57.09-.08.18-.17.28-.24.29-.23.6-.45.91-.63.29-.17.58-.29.86-.4.06-.02.12-.04.17-.06.28-.09.55-.15.8-.18l-10.2-5.93c-.05.01-.11.01-.17.02-.14.02-.29.05-.44.09-.06.02-.13.05-.19.07s-.12.04-.17.06c-.07.02-.14.04-.21.07-.22.09-.44.2-.66.33-.31.18-.61.39-.91.63-.1.08-.19.16-.28.24-.14.12-.29.24-.43.37-.06.06-.12.13-.18.2-.05.06-.11.11-.16.17-.06.07-.12.13-.18.2-.13.15-.26.31-.39.48-.05.06-.09.12-.13.18-.02.03-.04.06-.07.09-.04.06-.08.11-.12.16-.1.14-.19.27-.28.42-.09.13-.17.27-.25.41-.01.01-.02.03-.02.04-.01.01-.01.02-.02.04-.06.11-.12.22-.18.33-.07.14-.14.27-.21.41-.06.13-.12.26-.18.39 0 .01 0 .01-.01.02 0 0 0 .01-.01.01-.06.14-.12.29-.18.43-.06.15-.11.3-.16.46-.03.08-.05.16-.07.24-.01.03-.02.06-.03.1-.02.05-.03.1-.05.16-.05.19-.1.37-.14.56-.02.11-.04.23-.06.34-.01.06-.02.12-.03.18-.01.05-.02.11-.03.16-.04.32-.06.64-.06.95 0 .81.16 1.49.44 2.02l10.2 5.93c-.28-.53-.44-1.21-.44-2.02 0-.36.03-.73.09-1.11.02-.08.03-.14.04-.2z" fill="url(#SVGID_5_)"/><path d="m51.21 8.17c-.72-1.18-2.09-1.98-3.51-1.99-1.42-.05-2.77.47-3.96 1.15-1.06.62-2 1.41-2.87 2.27-.69-.85-1.62-1.54-2.69-1.85-1.22-.37-2.51-.27-3.69.02-2.37.65-4.4 2.05-6.12 3.68-3.36 3.22-5.69 7.44-6.69 11.98-1.17.24-2.17.87-3 1.61-.92.82-1.67 1.81-2.25 2.87-.57 1.07-1.02 2.21-1.22 3.42-.19 1.11-.19 2.32.3 3.42-1.48 1.26-2.63 2.83-3.46 4.55-.86 1.78-1.42 3.74-1.35 5.71.09-1.96.75-3.85 1.68-5.54.95-1.69 2.19-3.21 3.7-4.38l.2-.16-.12-.24c-.47-.95-.44-2.13-.21-3.22.22-1.1.67-2.15 1.24-3.13.59-.96 1.27-1.87 2.12-2.59.83-.73 1.81-1.31 2.83-1.42l.35-.04.08-.36c.47-2.21 1.31-4.35 2.42-6.33 1.13-1.97 2.47-3.83 4.1-5.41 1.62-1.56 3.53-2.89 5.65-3.5 2.1-.62 4.5-.12 5.77 1.71l.28.41.33-.37c.87-.98 1.85-1.87 2.95-2.56s2.34-1.18 3.62-1.22c1.28-.06 2.54.57 3.29 1.64.73 1.09 1.05 2.43 1.11 3.77.04-1.31-.17-2.71-.88-3.9z" fill="#bad8e8"/></g><g><path d="m62.86 29.56h.01c.06 0 .11 0 .16.01h.01c.05.01.1.03.14.05l-.98-.57s0 0-.01 0c-.02-.01-.03-.02-.05-.02-.02-.01-.03-.01-.05-.02-.01-.01-.02-.01-.03-.01h-.01-.01c-.02 0-.04-.01-.06-.01s-.04 0-.07 0c-.01 0-.01 0-.02 0h-.01c-.01 0-.02 0-.04 0-.03 0-.06.01-.09.02-.01 0-.03.01-.04.01s-.02.01-.03.01c-.01.01-.03.01-.04.02-.05.02-.09.04-.14.07l-8.63 4.98c-.11.06-.2.14-.3.23-.01.01-.02.01-.03.02s-.03.03-.04.04-.02.02-.03.03-.02.03-.04.04c-.03.03-.05.06-.08.1-.01.01-.02.03-.03.04 0 .01-.01.01-.01.02-.01.01-.02.02-.02.03-.02.03-.04.06-.06.09s-.03.06-.05.08v.01.01c-.01.02-.03.04-.04.07s-.03.06-.04.08c-.01.03-.02.05-.04.08-.01.03-.02.06-.04.09-.01.03-.02.06-.03.09-.01.02-.01.03-.01.05 0 .01 0 .01-.01.02 0 .01-.01.02-.01.03-.01.04-.02.08-.03.11 0 .02-.01.05-.01.07 0 .01 0 .02-.01.04 0 .01 0 .02-.01.03-.01.07-.01.13-.01.19l.03 8.98c0 .31.11.53.29.63l.97.6c-.18-.1-.29-.32-.29-.63l-.03-8.98c0-.07.01-.15.02-.23 0-.01 0-.02.01-.04.01-.07.03-.14.05-.21 0-.01 0-.01.01-.02.02-.08.05-.16.09-.23.03-.08.07-.15.12-.23v-.01c.04-.07.09-.14.14-.21 0-.01.01-.01.01-.02.05-.06.09-.12.14-.17l.03-.03c.02-.02.05-.04.07-.06.09-.09.19-.17.3-.23l8.63-4.99c.06-.04.12-.06.18-.08.01 0 .02-.01.03-.01.07-.04.12-.06.17-.06z" fill="url(#SVGID_6_)"/><path d="m62.48 29.69c.55-.32.99-.06.99.56l.03 8.98c0 .63-.44 1.39-.98 1.71l-8.63 4.99c-.55.32-.99.06-.99-.56l-.03-8.98c0-.62.44-1.39.98-1.71z" fill="#383b49"/><path d="m53.01 33.04h.02c.07-.01.13 0 .19.01h.01c.06.01.12.03.17.07l-19.65-11.43s0 0-.01 0c-.02-.01-.04-.02-.06-.03s-.04-.02-.06-.02c-.01 0-.03-.01-.04-.01h-.01-.01c-.02 0-.05-.01-.07-.01-.03 0-.05 0-.08 0-.01 0-.02 0-.03 0s-.01 0-.02 0-.03 0-.04 0c-.03.01-.07.01-.11.02-.02 0-.03.01-.05.02-.01 0-.03.01-.04.01-.02.01-.04.01-.05.02-.06.02-.11.05-.17.08l-7.87 4.55c-.13.07-.25.17-.37.28-.01.01-.03.02-.04.03-.02.02-.03.03-.04.05-.01.01-.03.03-.04.04-.02.02-.03.03-.05.05-.03.04-.07.08-.1.12-.01.01-.02.03-.03.04s-.01.01-.02.02-.02.03-.03.04c-.02.03-.05.07-.07.1s-.04.07-.06.1v.01.01c-.02.03-.03.06-.05.08-.02.03-.04.07-.05.1-.02.03-.03.06-.04.1-.02.04-.03.07-.04.11s-.03.08-.04.11c-.01.02-.01.04-.02.06 0 .01-.01.02-.01.03s-.01.03-.01.04c-.01.05-.02.09-.03.14-.01.03-.01.06-.01.08 0 .01-.01.03-.01.04s-.01.03-.01.04c-.01.08-.02.16-.02.24l.06 22.82c0 .19.03.35.09.48s.15.23.26.29l19.65 11.42c-.22-.13-.35-.39-.35-.77l-.06-22.82c0-.09.01-.18.02-.28 0-.01 0-.03.01-.04.01-.09.03-.18.06-.26 0-.01.01-.02.01-.03.03-.1.06-.19.1-.28.04-.1.09-.19.14-.28v-.01c.05-.09.11-.18.17-.26.01-.01.01-.01.02-.02.06-.07.11-.14.18-.21.01-.01.03-.03.04-.04.03-.03.05-.05.08-.08.12-.11.24-.21.37-.28l7.87-4.55c.08-.04.15-.08.22-.1.01-.01.03-.01.04-.01.06-.01.12-.03.19-.03z" fill="url(#SVGID_7_)"/><path d="m52.54 33.2c.67-.39 1.21-.08 1.21.69l.06 22.82c0 .76-.53 1.69-1.2 2.08l-7.87 4.55c-.67.39-1.21.08-1.21-.68l-.06-22.82c0-.77.53-1.7 1.2-2.08z" fill="#4c4f5e"/><path d="m62.12 31.48.03 8.21-8.31 4.8-.02-8.22z" fill="#5089c3"/><g><path d="m49.72 53.72c.42-.24.77-.05.77.43 0 .49-.34 1.08-.76 1.32s-.76.05-.76-.44c-.01-.48.33-1.07.75-1.31z" fill="#fcc134"/></g><g><path d="m49.73 56.96c.42-.24.77-.05.77.43 0 .49-.34 1.08-.76 1.32s-.76.05-.76-.44c-.01-.48.33-1.07.75-1.31z" fill="#f71c55"/></g><path d="m49.1 49.08c.02-.12.04-.24.06-.37.02-.08.03-.17.05-.25s.04-.16.06-.23c.03-.11.06-.22.09-.33.02-.06.04-.13.06-.19.04-.12.08-.25.12-.37.02-.05.04-.1.05-.15.06-.17.13-.34.2-.5.01-.02.02-.04.03-.06.07-.15.14-.3.21-.45.02-.05.05-.09.07-.14.07-.14.15-.28.22-.41.02-.03.03-.05.04-.08.09-.16.19-.32.29-.47.03-.05.06-.09.09-.13.07-.11.15-.22.23-.33.04-.06.09-.12.13-.17.07-.09.14-.18.21-.26.06-.07.12-.15.18-.22s.12-.13.17-.2c.1-.11.2-.22.31-.33l.15-.15c.21-.2.42-.39.65-.57.04-.03.08-.06.12-.09.23-.18.47-.34.72-.48.2-.11.39-.21.58-.29.06-.03.12-.05.18-.07.11-.04.22-.08.32-.11.07-.02.14-.04.2-.06s.13-.03.19-.04c.08-.02.16-.03.24-.04.05-.01.09-.01.14-.01.1-.01.2-.01.3-.01h.07c.12.01.23.02.34.04.03.01.05.01.08.02.09.02.17.04.25.07.03.01.05.02.08.03.1.04.21.09.3.14l-4.91-2.86c-.01 0-.02-.01-.03-.01-.07-.04-.15-.08-.23-.11-.01-.01-.03-.01-.05-.02-.03-.01-.05-.02-.08-.03-.04-.01-.08-.03-.12-.04s-.09-.02-.13-.03c-.03-.01-.05-.01-.08-.02-.01 0-.03-.01-.04-.01-.09-.02-.18-.03-.28-.03-.01 0-.01 0-.02 0-.02 0-.04 0-.07 0-.07 0-.15-.01-.22 0-.02 0-.05.01-.08.01-.05 0-.09.01-.14.01-.04 0-.08.01-.13.01-.04.01-.08.02-.11.02-.06.01-.13.02-.19.04-.03.01-.07.01-.1.02s-.07.03-.1.04c-.11.03-.22.07-.32.11-.04.01-.08.02-.11.04-.02.01-.04.02-.07.03-.19.08-.38.17-.58.29-.24.14-.48.31-.72.48-.04.03-.08.06-.12.09-.22.17-.44.36-.65.57-.02.02-.04.03-.05.05-.03.03-.06.07-.1.1-.1.11-.21.21-.31.33-.03.04-.07.07-.1.1s-.05.06-.08.09c-.06.07-.12.14-.18.22-.04.05-.08.09-.12.14-.03.04-.06.08-.09.12-.04.06-.09.11-.13.17-.03.04-.06.08-.09.12-.05.07-.09.14-.14.21-.03.04-.06.09-.09.13-.01.02-.02.04-.04.06-.08.13-.16.26-.24.39-.01.01-.01.02-.01.03-.02.03-.03.05-.04.08-.05.09-.11.19-.16.28-.02.04-.04.09-.07.13-.02.05-.05.09-.07.14-.02.04-.04.08-.06.12-.05.11-.1.22-.15.33-.01.02-.02.04-.03.06 0 .01-.01.01-.01.02-.06.14-.12.27-.17.41-.01.03-.02.05-.03.08-.02.05-.04.1-.05.15-.02.07-.05.14-.07.21-.02.05-.03.11-.05.16-.02.06-.04.13-.06.19-.01.04-.02.08-.04.12-.02.07-.03.14-.05.21-.02.08-.04.16-.06.24-.01.03-.01.05-.02.08-.01.06-.02.11-.03.17-.02.12-.05.25-.06.37 0 .03-.01.07-.02.1 0 .03 0 .06-.01.09-.03.27-.05.54-.05.81 0 .54.07 1.03.21 1.44.22.69.62 1.2 1.13 1.5l4.91 2.86c-.82-.48-1.34-1.5-1.34-2.95 0-.26.02-.53.05-.81.06-.07.06-.13.07-.19z" fill="url(#SVGID_8_)"/><path d="m53.6 42.15c2.54-1.46 4.6-.29 4.61 2.62.01 2.92-2.05 6.47-4.58 7.93-2.54 1.46-4.6.29-4.61-2.63 0-2.91 2.05-6.46 4.58-7.92z" fill="#868ca5"/><path d="m53.94 43.78c1.91-1.1 3.47-.22 3.47 1.98.01 2.2-1.54 4.87-3.45 5.98-1.91 1.1-3.47.22-3.47-1.98s1.54-4.88 3.45-5.98z" fill="#383b49"/><path d="m56.79 46.12c0 1.8-1.26 3.99-2.83 4.89-1.56.9-2.84.17-2.84-1.62 0-.1.01-.2.01-.31.12-1.62 1.19-3.49 2.54-4.41.08-.06.17-.11.26-.17 1.58-.91 2.86-.18 2.86 1.62z" fill="#5089c3"/><path d="m54.12 45.77c0 1.15-.81 2.55-1.81 3.13-.45.26-.86.31-1.18.17.12-1.62 1.19-3.49 2.54-4.41.28.21.45.59.45 1.11z" fill="#6ba6d6"/><path d="m55.33 44.13c.23.34.37.78.37 1.35.01 1.8-1.26 3.99-2.83 4.89-.5.29-.97.4-1.38.37.49.72 1.41.88 2.47.27 1.56-.9 2.83-3.09 2.83-4.89 0-1.22-.6-1.93-1.46-1.99z" fill="url(#SVGID_9_)"/><g><path d="m31.43 36.81-.05 16.08-5.36-3.1.04-16.07z" fill="#383b49"/></g><g><g><path d="m40.47 56.11v.96l-6.08-3.51.01-.95z" fill="#383b49"/></g><g><path d="m40.48 54.05v.95l-6.08-3.51v-.95z" fill="#383b49"/></g><g><path d="m40.48 51.98v.96l-6.08-3.51.01-.96z" fill="#383b49"/></g><g><path d="m40.49 49.91v.96l-6.08-3.51v-.95z" fill="#383b49"/></g><g><path d="m40.5 47.85-.01.95-6.07-3.51v-.95z" fill="#383b49"/></g><g><path d="m40.5 45.78v.95l-6.08-3.5v-.96z" fill="#383b49"/></g></g></g></g></svg>