<svg enable-background="new 0 0 140 140" height="512" viewBox="0 0 140 140" width="512" xmlns="http://www.w3.org/2000/svg"><circle cx="70" cy="69.987" fill="#dad7dc" r="64"/><path d="m31.5599976 52.1276016c1.0300293-14.6901855 13.2399902-26.2900409 28.1900024-26.2900409 8.2700195 0 15.710022 3.5598145 20.8699951 9.2299824l5.6700439 5.6999512c1.0500488-.2299805 2.1398926-.3601074 3.2600098-.3601074 4.5999756 0 8.7199707 2.0200195 11.5400391 5.2202148l.0299072-.0200195 32.3699951 32.369873c-3.9399414 31.5700683-30.8499756 56.0100021-63.4899902 56.0100021-13.789978 0-26.5499878-4.3798828-37-11.8000412.5800171-1.9199219 1.3699951-3.5998535 2.4299927-4.9199219 2.4000244-3 8.9799805-5.7800293 13.8400269-7.5100098l-22.2800294-22.2800293c-4.6099854-3.8898926-7.5499878-9.6999512-7.5499878-16.2099609 0-8.4599609 4.960022-15.7399902 12.1199952-19.1398926z" opacity=".1"/><path d="m104.6915054 58.757061c.1817703-.9471512.2849655-1.9224472.2849655-2.9223709 0-8.5220261-6.9083862-15.4304161-15.4302139-15.4304161-1.6359177 0-3.2101746.2591705-4.6897354.7309875-4.7060547-9.0841408-14.1742554-15.3022003-25.1110687-15.3022003-14.9483337 0-27.1573372 11.6046677-28.1832542 26.2919807-7.1608124 3.4043541-12.1232967 10.6833153-12.1232967 19.1396675 0 11.7109985 9.4935131 21.2044067 21.2044086 21.2044067h63.0361557c9.3234711 0 16.8816299-7.5580597 16.8816299-16.8814316 0-8.9821166-7.019989-16.3044699-15.8695908-16.8306235z" fill="#e6e7e8"/><path d="m76.4681091 39.4246445c-3.3411865-2.8632812-7.1893311-4.8305664-11.2379761-5.6994629-2.0280724-.3869629-4.0828209-.626709-6.1242027-.4436035-2.0408936.0695801-4.0536499.4973145-5.9685669 1.1633301-1.9329224.625-3.7661133 1.5559082-5.447937 2.7102051-1.6994629 1.130127-3.2523804 2.5029297-4.5987549 4.0725098-1.3273926 1.579834-2.5232544 3.3098145-3.4435425 5.2167969-.9247437 1.9064941-1.579895 3.9511719-2.0997314 6.0983887-.1462402-2.1994629.1335449-4.4406738.7240601-6.625.6481934-2.1660156 1.6589355-4.239502 2.9691162-6.1245117 1.269043-1.925293 2.9758911-3.527832 4.7965698-4.9489746.9055176-.7294922 1.9262695-1.2888184 2.9259033-1.8813477 1.0512085-.4958496 2.0970459-1.0092754 3.2105713-1.3571758 4.4088135-1.484375 9.2890015-1.5563965 13.662899-.1323242 4.3759156 1.3967264 8.2268677 4.251951 10.6315918 7.9511698z" fill="#ececec"/><path d="m58.723526 108.9589005c.8733215 5.4311295 5.5793152 9.5977783 11.2528763 9.5977783 5.6736298 0 10.3796921-4.1666489 11.2529373-9.597908-2.0030212-1.3938904-1.912796-3.3107834-1.912796-3.3107834v-5.9366226h-18.6801491v5.9366226s.0902863 1.9169616-1.9128685 3.3109131z" fill="#d6b24e"/><path d="m84.73069 76.4100342c-.0032043 0-.0062943 1.0183029-.0093765 1.0183029-.1988068-8.0967484-6.7390671-15.6756706-14.7115479-15.6756706s-14.5128632 7.5789223-14.711544 15.6756706c-.0030861 0-.0061684-1.0183029-.0093765-1.0183029-1.625473 0-2.9430504 3.6729584-2.9430504 6.9493179 0 3.2763672 1.3175774 5.9320068 2.9430504 5.9320068v.2117844c0 4.047142 3.5256348 9.1678925 7.1260567 13.3418961 4.0144348 4.6540375 11.1751709 4.6540375 15.1896057 0 3.6005478-4.1740036 7.1261826-9.294754 7.1261826-13.3418961v-.2117844c1.625351 0 2.9430542-2.6556396 2.9430542-5.9320068-.0000001-3.2763595-1.3177033-6.9493179-2.9430543-6.9493179z" fill="#ffd25a"/><path d="m81.721405 114.4524765-2.6399536 7.7299805-.0100098.0300293-3.9500122 11.5900955c-.6500244.0600586-1.3099976.0998535-1.9799805.1398926h-.0800171c-.5900269.0300293-1.2000122.0500488-1.7999878.0500488l-.3200073-.7299805-.1600342-14.7299881-.0599976-4.9702148 1.9500122-2 .0100098-.0097656 1.0200195-1.0400391 4.0299683 1.9799805h.0100098l1.8099976.8898926 1.3800049.6799316z" fill="#e6e7e8"/><path d="m107.0114441 122.2325058c-7.4199829 5.2700195-16.0200195 9.0000076-25.3200073 10.7099686-1.7600098.3300781-3.5499878.5800781-5.3599854.7600098l.5700073-1.9199219 2.1699829-9.570076.0100098-.0300293 1.8499756-8.1201172.4700317-2.0698242 3.6499634-4.0700684h.0100098v-.0100098s15.5300293 4.3601074 19.5 9.3500977c1.0700073 1.3398437 1.8599853 3.0300293 2.4500122 4.9699707z" fill="#304651"/><path d="m79.37677 105.004364-9.3768005 4.8831024 7.314209 4.5680085z" fill="#ececec"/><path d="m69.2714539 113.5623398-.0500488 4.9702148-.1599731 14.7299881-.3200073.7299805c-.5999756 0-1.210022-.0200195-1.7999878-.0500488h-.0800171c-.6699829-.0400391-1.3300171-.079834-1.9799805-.1398926l-3.9999962-11.7202225-.0100098-.0200195-2.5900269-7.6098633.7900391-.3901367 1.3999634-.6799316 1.7800293-.8798828.0200195-.0100098 4.0299644-1.9799805 1.0200195 1.0400391.0100098.0097656z" fill="#e6e7e8"/><path d="m63.6614113 133.7024841c-1.8099976-.1799316-3.5999756-.4299316-5.3599854-.7600098-9.2999878-1.7099609-17.8900146-5.439949-25.3200073-10.7099686.5900269-1.9399414 1.3800049-3.630127 2.4500122-4.9699707 3.9799805-4.9899902 19.5100098-9.3500977 19.5100098-9.3500977l3.6500244 4.0800781.4799805 2.0698242 1.7999878 8 .0100098.0200195 2.210022 9.7002029z" fill="#304651"/><path d="m60.6414528 105.0125351 9.3585167 4.8749313-7.3142128 4.5680085z" fill="#ececec"/><path d="m73.1214294 133.6724548.0200195.2700195h-.0800171c-.5900269.0300293-1.2000122.0500488-1.7999878.0500488-.4199829.0200195-.8400269.0200195-1.2600098.0200195s-.8400269 0-1.2600098-.0200195c-.5999756 0-1.210022-.0200195-1.7999878-.0500488h-.0800171l.0200195-.25 1.2000122-15.3000565.2399902-3-1.7399902-3.3598633.75-.4702148 2.6699829-1.6599121 2.6699829 1.6599121.75.4702148-1.7399902 3.3598633.2399902 3.0100098z" fill="#db584d"/><path d="m66.8814392 133.6924744.0599976.25h-.0800171c-.6699829-.0400391-1.3300171-.079834-1.9799805-.1398926-.4100342-.0200195-.8200073-.0600586-1.2200279-.1000977-1.8099976-.1799316-3.5999756-.4299316-5.3599854-.7600098l-4.8099976-9.3000565 4.210022-2.4599609-4.8099976-2.6398926 2.039978-10.6201172.0100098-.0100098 5.6799927-2.8898926.0200195-.0100098.0299683.1398926 1.6000366 7.3400879.4199829 1.9499512.3800049 1.7600098z" fill="#344e5c"/><path d="m82.3014221 121.182457 4.2000122 2.4599609-4.8099976 9.3000565c-1.7600098.3300781-3.5499878.5800781-5.3599854.7600098-.4000244.0400391-.8000488.0800781-1.210022.1000977-.6500244.0600586-1.3099976.0998535-1.9799805.1398926h-.0800171l.0599976-.2700195 3.7999878-17.4599686.3800049-1.7600098.4299927-1.9599609 1.6199951-7.4301758.0100098-.0498047.0200195.0100098 5.6699829 2.8999023h.0100098l2.039978 10.6201172z" fill="#344e5c"/><path d="m51.1554871 69.4639893c.9959373-.6640472 2.3238907-.6640472 2.3238907-.6640472-4.1861343 3.8299026-.0585976 15.3962555 1.7124214 19.766655h.8396339c.1456413-1.7112274.4456825-4.2932587 1.0017433-5.7133255.2744598-.7009201.3428421-1.4571304.1706085-2.1899033-.5218277-2.2200851-1.0631752-6.6329651 2.3619766-8.1008606 0 0 5.1348686-1.8268967 11.0661201-1.7704315 2.8630371.0269318 7.1904449-.8484421 10.7510681 2.8465195.9113693.9458237 1.27285 2.2902222 1.0790024 3.5893021-.238205 1.5966492-.3958664 3.8643417.3427048 5.0727768.8015594 1.3117676 1.3686066 4.3429489 1.2654648 6.2659225h.8395157c1.2373734-2.0970154 2.7640991-6.6841888 2.7640991-16.5572891l-2.1025162-2.5453186 1.5492554.8852158c-1.2173004-5.4221497-9.9595337-9.9593391-9.9595337-9.9593391l3.2091751.8852158c-3.430542-3.2091064-7.9676666-2.4344749-7.9676666-2.4344749l1.6599731-1.1066513c-9.6275787-3.0985184-12.7260971 2.9876709-12.7260971 2.9876709-5.7544289-1.4384117-8.6315804 5.311821-8.6315804 5.311821.5135727-.2566528 2.2808342-.9753418 3.0568886-1.2882004-1.8902167.9362408-4.6061476 4.7187421-4.6061476 4.7187421z" fill="#304651"/></svg>