<svg id="Layer_1" enable-background="new 0 0 64 64" viewBox="0 0 64 64" xmlns="http://www.w3.org/2000/svg" xmlns:xlink="http://www.w3.org/1999/xlink"><clipPath id="SVGID_2_"><path id="SVGID_3103_" d="m56.1 36.1-10.7-5.8c4.1-.6 7.4-4.4 7.8-8.8l10.8 5.7c-.4 4.4-3.8 8.3-7.9 8.9z"/></clipPath><clipPath id="SVGID_4_"><path id="SVGID_3105_" d="m45.5 14.8c1.5-.2 3 .1 4.2.7l10.7 5.8c-1.2-.7-2.6-.9-4.2-.7-3.2-1.7-7.5-4-10.7-5.8z"/></clipPath><clipPath id="SVGID_6_"><path id="SVGID_3107_" d="m54.1 21.2-10.7-5.8c.6-.3 1.3-.5 2-.6l10.7 5.8c-.6.1-1.3.3-2 .6z"/></clipPath><clipPath id="SVGID_8_"><path id="SVGID_3109_" d="m41.5 10.8 10.7 5.8c-.7-.4-1.5-.5-2.3-.4-.6.1-1.3.3-1.8.7l-10.7-5.8c.6-.4 1.2-.6 1.8-.7.8-.1 1.6 0 2.3.4z"/></clipPath><clipPath id="SVGID_10_"><path id="SVGID_3111_" d="m15.2 40.2-10.7-5.8c1.5.8 3.2 1.1 5.1.9l10.7 5.8c-1.9.3-3.6-.1-5.1-.9z"/></clipPath><clipPath id="SVGID_12_"><path id="SVGID_3113_" d="m31.4 1.5 10.7 5.8c-2-1.1-4.4-1.5-6.9-1.2-.1 0-.3 0-.4.1-6.9 1.2-12.4 8.2-12.5 15.6l-10.8-5.8c.1-7.5 5.6-14.4 12.5-15.6.1 0 .3-.1.4-.1 2.6-.4 5 .1 7 1.2z"/></clipPath><clipPath id="SVGID_14_"><path id="SVGID_3115_" d="m15.2 40.2-10.7-5.8c-2.5-1.4-4.2-4-4.4-7.4l10.7 5.8c.2 3.4 1.9 6.1 4.4 7.4z"/></clipPath><clipPath id="SVGID_16_"><path id="SVGID_3117_" d="m9.7 16.1c.6-.1 1.3-.1 1.9-.1l10.7 5.8c-.6 0-1.2 0-1.9.1-5.2.7-9.4 5.7-9.6 11.3-3.6-1.9-7.1-3.9-10.7-5.8.2-5.6 4.4-10.6 9.6-11.3z"/></clipPath><clipPath id="SVGID_18_"><path id="SVGID_3119_" d="m15.2 41.8-10.7-5.8c-2.7-1.5-4.5-4.5-4.5-8.2 0-.3 0-.5 0-.8l10.7 5.8v.8c0 3.7 1.8 6.7 4.5 8.2z"/></clipPath><clipPath id="SVGID_20_"><path id="SVGID_3121_" d="m.1 27.4c3.6 1.9 7.1 3.9 10.7 5.8v.4l-10.8-5.8c0-.1.1-.3.1-.4z"/></clipPath><g><g enable-background="new"><g><path d="m56.3 52.6-10.7-5.8v-2.5l10.7 5.8z" fill="#681e22"/></g><g><path d="m56.3 50.1-10.7-5.8.1-2.9 10.6 5.8z" fill="#681e22"/></g><g><path d="m56.3 47.2-10.6-5.8v-2.5l10.6 5.8z" fill="#681e22"/></g><g><path d="m56.3 44.7-10.6-5.8 7.3-1.1 10.6 5.8z" fill="#90292f"/></g><g><path d="m63.6 43.6v8l-7.3 1v-2.5-2.9-2.5z" fill="#b1343a"/></g></g><g enable-background="new"><g enable-background="new"><g clip-path="url(#SVGID_2_)" enable-background="new"><path d="m56.1 36.1-10.7-5.8c.8-.1 1.6-.3 2.3-.7l10.7 5.8c-.7.3-1.5.6-2.3.7" fill="#9b9b9b"/><path d="m58.4 35.4-10.7-5.8c.4-.2.9-.4 1.3-.7l10.7 5.8c-.4.2-.8.5-1.3.7" fill="#969696"/><path d="m59.7 34.7-10.7-5.8c.3-.2.6-.5.9-.8l10.7 5.8c-.3.3-.6.5-.9.8" fill="#939292"/><path d="m60.6 33.9-10.6-5.8c.3-.3.5-.5.8-.8l10.7 5.8c-.3.3-.6.6-.9.8" fill="#8e8d8d"/><path d="m61.4 33.1-10.7-5.8c.3-.3.5-.6.7-.9l10.7 5.8c-.2.3-.4.6-.7.9" fill="#888"/><path d="m62.1 32.2-10.7-5.8c.2-.3.5-.7.6-1l10.7 5.8c-.1.3-.3.7-.6 1" fill="#848484"/><path d="m62.8 31.2-10.7-5.8c.2-.4.4-.9.6-1.3l10.7 5.8c-.2.4-.4.8-.6 1.3" fill="#808080"/><path d="m63.4 29.8-10.7-5.8c.3-.8.5-1.7.6-2.6l10.7 5.8c-.1.9-.3 1.8-.6 2.6" fill="#7b7b7b"/></g></g><g><path d="m47.8 48.4-10.7-5.8 8.6-1.2 10.6 5.8z" fill="#a64245"/></g><g><path d="m64 27.2v.8c0 4.7-3.5 9-7.9 9.6l-8.3 1.2v-1.6l8.3-1.2c4.1-.5 7.5-4.4 7.9-8.8z" fill="#cececd"/></g><g><path d="m47.8 37.2-10.7-5.8 8.4-1.1 10.6 5.8z" fill="#a7a6a6"/></g><g><path d="m47.8 38.8-10.7-5.8v-1.6l10.7 5.8z" fill="#797979"/></g><g enable-background="new"><g clip-path="url(#SVGID_4_)" enable-background="new"><path d="m56.2 20.6-10.7-5.8c.9-.1 1.9-.1 2.7.1l10.7 5.8c-.9-.2-1.8-.2-2.7-.1" fill="#a3a3a2"/><path d="m58.9 20.8-10.7-5.8c.4.1.8.3 1.2.5l10.7 5.8c-.4-.3-.8-.4-1.2-.5" fill="#9e9e9e"/><path d="m60.1 21.2-10.7-5.8c.1 0 .2.1.2.1l10.7 5.8s-.1-.1-.2-.1" fill="#989898"/></g></g><g><path d="m45.1 51.7-10.7-5.8v-12.5l10.7 5.8z" fill="#783032"/></g><g enable-background="new"><g clip-path="url(#SVGID_6_)" enable-background="new"><path d="m54.1 21.2-10.7-5.8c.6-.3 1.3-.5 2-.6l10.7 5.8c-.6.1-1.3.3-2 .6" fill="#a3a3a2"/></g></g><g><path d="m45.1 39.2-10.7-5.8v-1.6l10.7 5.8z" fill="#783032"/></g><g><path d="m54.1 19.6-10.6-5.8 10.7 5.8z" fill="#b0b0b0"/></g><g><path d="m54.2 19.6-10.7-5.8v-.1l10.6 5.8z" fill="#7d7d7d"/></g><g><path d="m54.1 19.5.1.1h-.1z" fill="#cececd"/></g><g><path d="m54.1 19.6-10.6-5.8v-.1l10.6 5.8z" fill="#7c7c7c"/></g><g><path d="m41 54.8v8l-7.4 1v-7.9z" fill="#168292"/></g><g><path d="m33.6 55.9-10.6-5.8 7.3-1.1 10.7 5.8z" fill="#156a75"/></g><g><path d="m33.6 63.8-10.6-5.8v-7.9l10.6 5.8z" fill="#104c56"/></g><g><path d="m47.8 37.2-10.7-5.8.1-12.1 10.6 5.8z" fill="#7f7f7f"/></g><g><path d="m38.7 38.5-10.7-5.8 6.4-.9 10.7 5.8z" fill="#a7a6a6"/></g><g><path d="m38.7 40.1v-1.6l6.4-.9v1.6z" fill="#cececd"/></g><g><path d="m38.7 40.1-10.7-5.8v-1.6l10.7 5.8z" fill="#797979"/></g><g><path d="m45.1 25.4-10.6-5.8 2.7-.3 10.6 5.8z" fill="#a64245"/></g><g><path d="m45.1 37.6-10.7-5.8.1-12.2 10.6 5.8z" fill="#783032"/></g><g><path d="m47.8 25.1v12.1 1.6 9.6l8.5-1.2v2.9l-11.2 1.6v-12.5-1.6-12.2z" fill="#cc5155"/></g><g><path d="m36 55.5-10.7-5.8v-15l10.7 5.8z" fill="#1d5a58"/></g><g enable-background="new"><g clip-path="url(#SVGID_8_)" enable-background="new"><path d="m48 16.9-10.7-5.8c.2-.1.4-.2.5-.3l10.7 5.8c-.1.1-.3.2-.5.3" fill="#9e9e9e"/><path d="m48.6 16.6-10.7-5.8c.4-.2.8-.3 1.3-.4s1 0 1.5.1l10.7 5.8c-.5-.1-1-.1-1.5-.1s-.9.2-1.3.4" fill="#a3a3a2"/><path d="m51.4 16.3-10.7-5.8c.2.1.5.1.7.3l10.6 5.7c-.2-.1-.4-.2-.6-.2" fill="#9e9e9e"/><path d="m52 16.5-10.7-5.8s.1 0 .1.1l10.7 5.8c0-.1 0-.1-.1-.1" fill="#989898"/></g></g><g><path d="m36 40.5-10.7-5.8v-1.6l10.7 5.8z" fill="#1d5a58"/></g><g><path d="m38.7 38.5-10.7-5.8v-12.2l10.7 5.8z" fill="#7f7f7f"/></g><g><path d="m29.2 41.4-10.6-5.8v-1.5l10.6 5.8z" fill="#797979"/></g><g><path d="m29.2 39.9-10.6-5.8 6.7-1 10.7 5.8z" fill="#a7a6a6"/></g><g><path d="m36 38.9-10.7-5.8.1-12.2 10.6 5.8z" fill="#1d5a58"/></g><g><path d="m29.2 39.9-10.6-5.8v-12.2l10.7 5.8z" fill="#7f7f7f"/></g><g><path d="m29.3 27.7-.1 12.2v1.5 12.5l-11.2 1.6v-2.9l8.5-1.2.1-9.6v-1.6-12.2z" fill="#dcbb60"/></g><g><path d="m29.2 41.4v-1.5l6.8-1v1.6z" fill="#cececd"/></g><g><path d="m38.7 26.3v12.2 1.6 15.1l-2.7.3v-15-1.6-12.2z" fill="#2e9a95"/></g><g><path d="m36 26.7-10.6-5.8 2.6-.4 10.7 5.8z" fill="#267d79"/></g><g><path d="m26.5 51.4-10.6-5.8v-9.6l10.7 5.8z" fill="#826e3a"/></g><g><path d="m26.6 41.8-10.7-5.8v-1.6l10.7 5.8z" fill="#826e3a"/></g><g><path d="m18 52.6-10.7-5.8 8.6-1.2 10.6 5.8z" fill="#b2974d"/></g><g><path d="m18 55.5-10.7-5.8v-2.9l10.7 5.8z" fill="#826e3a"/></g><g><path d="m20.3 41.1-10.7-5.8 6.3-.9 10.7 5.8z" fill="#a7a6a6"/></g><g><path d="m26.6 28-10.7-5.8 2.7-.3 10.7 5.8z" fill="#b2974d"/></g><g><path d="m26.6 40.2-10.7-5.8v-12.2l10.7 5.8z" fill="#826e3a"/></g><g enable-background="new"><g clip-path="url(#SVGID_10_)" enable-background="new"><path d="m15.2 40.2-10.7-5.8c.1.1.2.1.3.1l10.7 5.8c-.1 0-.2 0-.3-.1" fill="#939292"/><path d="m15.5 40.4-10.7-5.8c.5.2 1 .4 1.5.6l10.7 5.7c-.5-.1-1-.3-1.5-.5" fill="#969696"/><path d="m17 40.9-10.7-5.8c1 .3 2.1.3 3.3.2l10.7 5.8c-1.2.2-2.3.1-3.3-.2" fill="#9b9b9b"/></g></g><g enable-background="new"><g clip-path="url(#SVGID_12_)" enable-background="new"><path d="m22.2 21.8-10.7-5.8c0-1.9.4-3.7 1-5.4l10.7 5.8c-.7 1.7-1 3.6-1 5.4" fill="#818181"/><path d="m23.2 16.4-10.7-5.8c.3-.8.6-1.5 1-2.2l10.7 5.8c-.4.7-.7 1.5-1 2.2" fill="#858585"/><path d="m24.2 14.2-10.7-5.8c.3-.6.7-1.2 1.1-1.7l10.7 5.8c-.5.6-.8 1.1-1.1 1.7" fill="#8b8a8a"/><path d="m25.2 12.5-10.6-5.8c.4-.5.8-1 1.2-1.5l10.6 5.8c-.4.5-.8 1-1.2 1.5" fill="#908f8f"/><path d="m26.4 11-10.7-5.8c.4-.5.9-.9 1.3-1.3l10.7 5.8c-.4.4-.9.8-1.3 1.3" fill="#959494"/><path d="m27.7 9.7-10.6-5.8c.5-.4 1-.9 1.6-1.2l10.7 5.8c-.6.3-1.2.7-1.7 1.2" fill="#989898"/><path d="m29.3 8.4-10.7-5.8c.7-.5 1.4-.9 2.1-1.2l10.7 5.8c-.7.4-1.4.8-2.1 1.2" fill="#9e9e9e"/><path d="m31.4 7.2-10.7-5.8c1.1-.5 2.2-.9 3.3-1.1.1 0 .3-.1.4-.1 1.6-.2 3.1-.1 4.5.2l10.7 5.8c-1.4-.4-2.9-.4-4.5-.2-.1 0-.3 0-.4.1-1.1.3-2.3.6-3.3 1.1" fill="#a3a3a2"/><path d="m39.6 6.3-10.6-5.8c.7.2 1.4.4 2 .8l10.7 5.8c-.7-.3-1.4-.6-2.1-.8" fill="#9e9e9e"/><path d="m41.7 7.1-10.7-5.8c.1.1.3.1.4.2l10.7 5.8c-.2-.1-.3-.1-.4-.2" fill="#989898"/></g></g><g enable-background="new"><g clip-path="url(#SVGID_14_)" enable-background="new"><path d="m15.2 40.2-10.7-5.8c-2.5-1.4-4.2-4-4.4-7.4l10.7 5.8c.2 3.4 1.9 6.1 4.4 7.4" fill="#818181"/></g></g><g enable-background="new"><g clip-path="url(#SVGID_16_)" enable-background="new"><path d="m10.7 33.6-10.7-5.8c0-1.4.3-2.8.7-4.1l10.7 5.8c-.4 1.3-.7 2.7-.7 4.1" fill="#818181"/><path d="m11.5 29.5-10.7-5.8c.2-.6.5-1.1.7-1.6l10.7 5.8c-.3.5-.5 1-.7 1.6" fill="#858585"/><path d="m12.2 27.9-10.7-5.8c.2-.4.5-.9.8-1.3l10.7 5.8c-.3.4-.6.8-.8 1.3" fill="#8b8a8a"/><path d="m13 26.6-10.7-5.8c.3-.4.6-.7.9-1.1l10.7 5.8c-.4.4-.7.7-.9 1.1" fill="#908f8f"/><path d="m13.8 25.5-10.6-5.8c.3-.3.6-.7 1-1l10.7 5.8c-.4.3-.8.7-1.1 1" fill="#959494"/><path d="m14.8 24.5-10.6-5.8c.4-.3.8-.6 1.2-.9l10.6 5.8c-.4.3-.8.6-1.2.9" fill="#989898"/><path d="m16 23.6-10.7-5.8c.5-.3 1-.6 1.6-.9l10.7 5.8c-.6.3-1.1.6-1.6.9" fill="#9e9e9e"/><path d="m17.5 22.7-10.6-5.8c.9-.4 1.8-.7 2.8-.8.6-.1 1.3-.1 1.9-.1l10.7 5.8c-.6 0-1.2 0-1.9.1-1.1.1-2 .4-2.9.8" fill="#a3a3a2"/></g></g><g enable-background="new"><g clip-path="url(#SVGID_18_)" enable-background="new"><path d="m15.2 41.8-10.7-5.8c-2.7-1.5-4.5-4.5-4.5-8.2 0-.3 0-.5 0-.8l10.7 5.8v.8c0 3.7 1.8 6.7 4.5 8.2" fill="#7b7b7b"/></g></g><g enable-background="new"><g clip-path="url(#SVGID_20_)" enable-background="new"><path d="m10.7 33.6-10.7-5.8c0-1.4.3-2.8.7-4.1l10.7 5.8c-.4 1.3-.7 2.7-.7 4.1" fill="#818181"/></g></g><g><path d="m20.3 41.1 6.3-.9v1.6l-6.3.9c-5.3.7-9.6-3.3-9.6-9.1 0-.3 0-.5 0-.8.4 5.4 4.5 9 9.6 8.3z" fill="#cececd"/></g><g><path d="m56.2 20.6c4.3-.6 7.8 2.7 7.8 7.4 0-.3 0-.5 0-.8-.4 4.4-3.7 8.3-7.8 8.8l-8.3 1.2v-12.2l-2.7.4v12.2l-6.4.9v-12.2l-2.8.4v12.2l-6.7.9v-12.2l-2.7.4v12.2l-6.3.9c-5.1.7-9.2-2.9-9.6-8.3v.8c0-5.8 4.3-11 9.6-11.8.6-.1 1.3-.1 1.9-.1.1-7.5 5.6-14.4 12.5-15.6.1 0 .3 0 .4-.1 6.7-.8 12.2 3.9 12.9 10.9.6-.4 1.2-.6 1.8-.7 1-.1 1.9.1 2.7.7 1.3 1 1.8 2.7 1.5 4.4.8-.4 1.5-.6 2.2-.7z" fill="#d8d9d8"/></g></g><g enable-background="new"><g><path d="m10.7 59-10.7-5.8v-7.9l10.7 5.8z" fill="#765923"/></g><g><path d="m10.7 51.1-10.7-5.8 7.3-1.1 10.7 5.8z" fill="#a37b2e"/></g><g><path d="m18 50v8l-7.3 1v-7.9z" fill="#c89539"/></g></g></g></svg>