<svg height="512pt" viewBox="-5 0 512 512.00045" width="512pt" xmlns="http://www.w3.org/2000/svg"><path d="m329.726562 464.492188h-215.640624c-4.304688 0-7.792969-3.488282-7.792969-7.789063s3.488281-7.785156 7.792969-7.785156h215.644531c4.300781 0 7.789062 3.484375 7.789062 7.785156s-3.488281 7.789063-7.792969 7.789063zm0 0" fill="#b5722f"/><g fill-rule="evenodd"><path d="m343.9375 387.171875 42.460938 88.921875c5.957031 12.441406.640624 27.511719-11.828126 33.46875-.085937.054688-.175781.085938-.261718.117188-6.890625 3.210937-14.601563 2.976562-21.054688 0-5.167968-2.367188-9.550781-6.457032-12.148437-11.945313l-52.824219-110.5625 23.214844-22.3125zm0 0" fill="#fcc368"/><path d="m314.707031 387.171875 59.863281 122.390625-.261718.117188c-6.890625 3.210937-14.601563 2.976562-21.054688 0-5.167968-2.367188-9.546875-6.457032-12.148437-11.945313l-52.824219-110.5625zm0 0" fill="#ffdda6"/><path d="m100.25 387.171875-42.460938 88.921875c-5.957031 12.441406-.640624 27.507812 11.828126 33.464844.089843.058594.175781.089844.234374.117187 6.921876 3.214844 14.601563 2.980469 21.082032 0 5.171875-2.363281 9.550781-6.453125 12.148437-11.941406l52.828125-110.5625-23.214844-22.3125zm0 0" fill="#ffdda6"/><path d="m379.097656 95.144531-157.574218-23.1875-192.320313 23.1875v247.230469c.347656-.03125.730469-.089844 1.078125-.03125l193.171875 22.398438 193.34375-22.398438v-228.980469l-.058594-18.222656h-37.640625zm0 0" fill="#e6e6e6"/><path d="m120.777344 184.066406c-40.617188-20.441406-57.234375 32.503906-8.933594 52.214844l7.125 30.339844c2.015625 8.644531 10.773438 14.078125 19.417969 12.0625 8.644531-2.042969 14.046875-10.777344 12.03125-19.417969l-3.589844-15.363281c8.175781.847656 16.761719 1.257812 25.460937 1.167968l2.835938 11.972657c1.632812 6.980469 8.699219 11.359375 15.679688 9.726562 7.007812-1.636719 11.386718-8.703125 9.722656-15.710937l-1.808594-7.796875c20.554688-2.628907 44.558594-4.058594 60.066406-13.257813-10.980468-4.089844 14.570313-15.363281 6.949219-26.285156-4.058594-5.78125-23.507813-12.585938-34.691406-9.929688-37.230469 8.820313-80.828125 5.082032-110.265625-9.722656zm0 0" fill="#64b0d9"/><path d="m379.097656 95.144531-28.96875 25.433594 1.695313 24.53125 23.769531 4.46875 41.203125-36.214844 83.253906-73.121093c3.652344-3.214844 3.945313-8.878907.703125-12.5l-13.902344-15.566407c-3.238281-3.621093-8.847656-3.910156-12.527343-.699219l-45.027344 39.570313zm0 0" fill="#f78411"/><path d="m324.050781 50.285156h-301.652343c-12.324219 0-22.398438 10.105469-22.398438 22.429688 0 12.324218 10.074219 22.429687 22.398438 22.429687h356.699218l50.199219-44.097656c-1.8125-.496094-3.738281-.757813-5.726563-.757813h-99.519531zm0 0" fill="#b5722f"/><path d="m323 144.40625.820312 25.640625 24.878907 3.125 26.894531-23.59375-25.464844-29zm0 0" fill="#fcc368"/><path d="m364.089844 136.464844 11.503906 13.113281 41.203125-36.214844 83.253906-73.121093c3.652344-3.214844 3.945313-8.878907.703125-12.5l-10.570312-11.828126c2.246094 3.59375 1.515625 8.441407-1.753906 11.332032-41.464844 36.414062-82.902344 72.804687-124.339844 109.21875zm0 0" fill="#f74311"/><path d="m337.078125 160.179688-.175781-.03125 11.796875 13.023437 26.894531-23.59375-11.535156-13.113281zm0 0" fill="#eda93b"/><path d="m318.328125 139.179688c-17.167969-19.214844-31.507813 10.894531-54.226563 33.847656.261719 1.253906-27.566406 36.242187-2.773437 41.203125 24.820313 4.964843 50.78125 12.703125 51.191406 15.710937 24.148438-7.738281 43.421875-24.441406 43.890625-42.136718.113282-5.082032-.148437-6.191407-3.332031-9.726563l-4.378906-4.90625-9.753907-10.921875zm0 0" fill="#ffdda6"/><path d="m230.199219 207.867188c7.621093 10.921874 17.609375 18.046874 28.589843 22.136718 17.082032 6.363282 36.644532 5.402344 53.730469-.058594-.410156-3.007812-1.578125-26.515624-26.371093-31.480468-24.820313-4.96875-21.785157-24.183594-22.046876-25.4375-9.34375 9.433594-20.089843 17.667968-33.054687 20.761718-11.15625 2.628907-4.90625 8.296876-.847656 14.078126zm0 0" fill="#a2d6f2"/><path d="m296.28125 211.75c-8.175781 2.628906-16.90625 4.203125-25.636719 4.46875-9.578125.261719-19.15625-1.050781-28.09375-4.378906-5.605469-2.105469-10.949219-4.964844-15.855469-8.734375 1.050782 1.519531 2.363282 3.15625 3.503907 4.761719 7.621093 10.921874 17.609375 18.046874 28.589843 22.136718 17.082032 6.363282 36.644532 5.402344 53.730469-.058594-.265625-1.957031-.847656-12.644531-8.089843-21.203124-2.65625 1.109374-5.375 2.132812-8.148438 3.007812zm0 0" fill="#64b0d9"/><path d="m339.96875 172.09375c-1.8125 14.746094-16.382812 28.527344-35.539062 36.648438 7.242187 8.554687 7.824218 19.246093 8.085937 21.199218 24.152344-7.738281 43.425781-24.441406 43.890625-42.136718.117188-5.082032-.144531-6.191407-3.328125-9.726563l-4.378906-4.90625-9.753907-10.921875-2.015624-2.277344c3.09375 3.503906 3.359374 4.613282 3.242187 9.636719-.027344.820313-.085937 1.664063-.203125 2.484375zm0 0" fill="#fcc368"/><path d="m111.84375 236.28125 7.125 30.339844c2.015625 8.644531 10.773438 14.078125 19.417969 12.0625 8.644531-2.042969 14.046875-10.777344 12.03125-19.421875l-3.589844-15.359375c8.175781.847656 16.761719 1.253906 25.460937 1.167968l2.835938 11.972657c1.632812 6.980469 8.699219 11.359375 15.679688 9.726562 7.007812-1.636719 11.386718-8.703125 9.722656-15.710937l-1.808594-7.796875c20.554688-2.628907 44.558594-4.0625 60.066406-13.257813-5.984375-2.222656-11.679687-5.375-16.878906-9.523437-92.65625 18.691406-139.496094-7.242188-159.179688-24.324219-2.539062 13.054688 5.578126 30.546875 29.117188 40.125zm0 0" fill="#4a83c9"/><path d="m388.558594 138.1875v207.429688l28.238281-3.273438v-228.976562zm0 0" fill="#c2c7cc"/><path d="m379.097656 50.285156v44.859375l50.199219-44.097656c-1.8125-.496094-3.738281-.757813-5.726563-.757813h-44.472656zm0 0" fill="#733e08"/><path d="m129.480469 387.171875-59.863281 122.390625.234374.117188c6.921876 3.210937 14.601563 2.976562 21.082032 0 5.171875-2.367188 9.550781-6.457032 12.148437-11.945313l52.828125-110.5625zm0 0" fill="#fcc368"/><path d="m298.882812 0h-151.792968c-13.839844 0-25.144532 11.300781-25.144532 25.144531v25.144531h202.105469v-25.144531c0-13.84375-11.328125-25.144531-25.167969-25.144531zm0 0" fill="#fcc368"/><path d="m324.050781 25.144531c0-13.84375-11.328125-25.144531-25.167969-25.144531h-33.347656c13.808594 0 25.140625 11.300781 25.140625 25.144531v25.144531h33.378907v-25.144531zm0 0" fill="#eda93b"/><path d="m22.398438 387.171875h394.222656c12.351562 0 22.429687-10.074219 22.429687-22.429687 0-7.09375-3.332031-13.429688-8.527343-17.550782-3.769532-3.007812-8.558594-4.816406-13.726563-4.847656-.058594 0-.117187 0-.175781 0h-386.339844c-.347656 0-.730469 0-1.078125.03125.117187-.03125.261719-.03125.40625-.03125h-7.210937c-12.324219 0-22.398438 10.078125-22.398438 22.398438 0 12.355468 10.074219 22.429687 22.398438 22.429687zm0 0" fill="#b5722f"/><path d="m379.097656 345.410156v41.761719h37.523438c12.351562 0 22.429687-10.074219 22.429687-22.429687 0-12.265626-9.988281-22.308594-22.253906-22.398438h-37.699219zm0 0" fill="#733e08"/></g></svg>