<svg id="Layer_1" enable-background="new 0 0 512 512" viewBox="0 0 512 512" xmlns="http://www.w3.org/2000/svg" xmlns:xlink="http://www.w3.org/1999/xlink"><linearGradient id="lg1"><stop offset="0" stop-color="#7b7da1"/><stop offset=".3104" stop-color="#6d6f93"/><stop offset=".8987" stop-color="#494c6d"/><stop offset="1" stop-color="#424566"/></linearGradient><linearGradient id="SVGID_1_" gradientUnits="userSpaceOnUse" x1="31.23" x2="480.357" xlink:href="#lg1" y1="31.23" y2="480.357"/><linearGradient id="lg2"><stop offset=".7889" stop-color="#424566" stop-opacity="0"/><stop offset=".9077" stop-color="#36395f" stop-opacity=".563"/><stop offset="1" stop-color="#292d57"/></linearGradient><radialGradient id="SVGID_2_" cx="-701.668" cy="1178.179" gradientTransform="matrix(0 1 .815 0 -737.822 955.37)" gradientUnits="userSpaceOnUse" r="362.047" xlink:href="#lg2"/><radialGradient id="SVGID_3_" cx="-14996.191" cy="226.894" gradientTransform="matrix(-1 0 0 .815 -14760.361 41.895)" gradientUnits="userSpaceOnUse" r="362.047" xlink:href="#lg2"/><linearGradient id="lg3"><stop offset=".6871" stop-color="#7b7da1" stop-opacity="0"/><stop offset=".7564" stop-color="#7f81a5" stop-opacity=".249"/><stop offset=".8272" stop-color="#8a8db1" stop-opacity=".504"/><stop offset=".8984" stop-color="#9da0c6" stop-opacity=".76"/><stop offset=".9653" stop-color="#b6b9e0"/></linearGradient><radialGradient id="SVGID_4_" cx="260.851" cy="290.213" gradientTransform="matrix(1 0 0 .815 0 53.587)" gradientUnits="userSpaceOnUse" r="370.844" xlink:href="#lg3"/><radialGradient id="SVGID_5_" cx="-694.519" cy="1245.583" gradientTransform="matrix(0 1 .815 0 -725.376 955.37)" gradientUnits="userSpaceOnUse" r="370.844" xlink:href="#lg3"/><linearGradient id="SVGID_6_" gradientUnits="userSpaceOnUse" x1="110.89" x2="390.958" y1="95.042" y2="375.11"><stop offset="0" stop-color="#e9edff"/><stop offset="1" stop-color="#c4cbff"/></linearGradient><linearGradient id="SVGID_7_" gradientUnits="userSpaceOnUse" x1="404.437" x2="374.774" y1="234.387" y2="234.387"><stop offset=".00000226926" stop-color="#9caeff"/><stop offset=".573" stop-color="#b6c1ff" stop-opacity=".427"/><stop offset="1" stop-color="#c4cbff" stop-opacity="0"/></linearGradient><linearGradient id="lg4"><stop offset=".00000186333" stop-color="#fff"/><stop offset="1" stop-color="#e9edff" stop-opacity="0"/></linearGradient><linearGradient id="SVGID_8_" gradientUnits="userSpaceOnUse" x1="256.482" x2="256.482" xlink:href="#lg4" y1="117.835" y2="150.127"/><linearGradient id="SVGID_9_" gradientUnits="userSpaceOnUse" x1="257.235" x2="257.235" y1="350.458" y2="318.253"><stop offset=".00000226926" stop-color="#9caeff"/><stop offset=".3288" stop-color="#a5b4ff" stop-opacity=".671"/><stop offset=".8583" stop-color="#bcc6ff" stop-opacity=".142"/><stop offset="1" stop-color="#c4cbff" stop-opacity="0"/></linearGradient><linearGradient id="SVGID_10_" gradientUnits="userSpaceOnUse" x1="107.076" x2="143.503" xlink:href="#lg4" y1="233.61" y2="233.61"/><linearGradient id="SVGID_11_" gradientUnits="userSpaceOnUse" x1="166.429" x2="191.532" y1="347.545" y2="372.648"><stop offset="0" stop-color="#e9edff"/><stop offset=".8823" stop-color="#c4cbff"/></linearGradient><linearGradient id="SVGID_12_" gradientUnits="userSpaceOnUse" x1="163.799" x2="172.033" xlink:href="#lg4" y1="371.83" y2="371.83"/><linearGradient id="SVGID_13_" gradientUnits="userSpaceOnUse" x1="184.637" x2="191.788" y1="365.749" y2="372.9"><stop offset="0" stop-color="#c4cbff" stop-opacity="0"/><stop offset="1" stop-color="#9caeff"/></linearGradient><linearGradient id="SVGID_14_" gradientUnits="userSpaceOnUse" x1="189.637" x2="189.637" y1="350.558" y2="359.478"><stop offset=".00000226926" stop-color="#9caeff"/><stop offset=".3011" stop-color="#a2b2ff" stop-opacity=".699"/><stop offset=".7047" stop-color="#b3bfff" stop-opacity=".295"/><stop offset="1" stop-color="#c4cbff" stop-opacity="0"/></linearGradient><linearGradient id="lg5"><stop offset="0" stop-color="#a8b9ff"/><stop offset=".3449" stop-color="#abbbff" stop-opacity=".655"/><stop offset=".5579" stop-color="#b3c2ff" stop-opacity=".442"/><stop offset=".7352" stop-color="#c2cdff" stop-opacity=".265"/><stop offset=".8919" stop-color="#d6deff" stop-opacity=".108"/><stop offset="1" stop-color="#e9edff" stop-opacity="0"/></linearGradient><radialGradient id="SVGID_15_" cx="187.064" cy="240.512" gradientUnits="userSpaceOnUse" r="28.858" xlink:href="#lg5"/><linearGradient id="SVGID_16_" gradientUnits="userSpaceOnUse" x1="164.291" x2="202.61" xlink:href="#lg1" y1="217.891" y2="256.211"/><linearGradient id="lg6"><stop offset=".7373" stop-color="#424566" stop-opacity="0"/><stop offset=".8851" stop-color="#36395f" stop-opacity=".563"/><stop offset="1" stop-color="#292d57"/></linearGradient><radialGradient id="SVGID_17_" cx="179.925" cy="233.311" gradientTransform="matrix(.707 .707 -.617 .617 196.594 -37.81)" gradientUnits="userSpaceOnUse" r="27.865" xlink:href="#lg6"/><linearGradient id="lg7"><stop offset=".5815" stop-color="#7b7da1" stop-opacity="0"/><stop offset=".6681" stop-color="#8183a8" stop-opacity=".226"/><stop offset=".791" stop-color="#9395ba" stop-opacity=".546"/><stop offset=".9351" stop-color="#afb2d9" stop-opacity=".922"/><stop offset=".9653" stop-color="#b6b9e0"/></linearGradient><radialGradient id="SVGID_18_" cx="184.972" cy="239.317" gradientTransform="matrix(.707 .707 -.662 .662 212.627 -49.928)" gradientUnits="userSpaceOnUse" r="27.452" xlink:href="#lg7"/><radialGradient id="SVGID_19_" cx="259.852" cy="240.512" gradientUnits="userSpaceOnUse" r="28.858" xlink:href="#lg5"/><radialGradient id="SVGID_20_" cx="332.641" cy="240.512" gradientUnits="userSpaceOnUse" r="28.858" xlink:href="#lg5"/><linearGradient id="SVGID_21_" gradientUnits="userSpaceOnUse" x1="237.079" x2="275.399" xlink:href="#lg1" y1="217.891" y2="256.211"/><radialGradient id="SVGID_22_" cx="252.714" cy="233.311" gradientTransform="matrix(.707 .707 -.617 .617 217.913 -89.28)" gradientUnits="userSpaceOnUse" r="27.865" xlink:href="#lg6"/><radialGradient id="SVGID_23_" cx="257.761" cy="239.317" gradientTransform="matrix(.707 .707 -.662 .662 233.946 -101.397)" gradientUnits="userSpaceOnUse" r="27.452" xlink:href="#lg7"/><linearGradient id="SVGID_24_" gradientUnits="userSpaceOnUse" x1="309.868" x2="348.188" xlink:href="#lg1" y1="217.891" y2="256.211"/><radialGradient id="SVGID_25_" cx="325.503" cy="233.311" gradientTransform="matrix(.707 .707 -.617 .617 239.233 -140.749)" gradientUnits="userSpaceOnUse" r="27.865" xlink:href="#lg6"/><radialGradient id="SVGID_26_" cx="330.55" cy="239.317" gradientTransform="matrix(.707 .707 -.662 .662 255.266 -152.867)" gradientUnits="userSpaceOnUse" r="27.452" xlink:href="#lg7"/><g><g><path d="m512 256c-1.5 85.6-16.6 154.5-59.7 196.3-41.8 43.1-110.7 58.2-196.3 59.7-85.6-1.5-154.5-16.6-196.3-59.7-43.1-41.8-58.2-110.7-59.7-196.3 1.5-85.6 16.6-154.5 59.7-196.3 41.8-43.1 110.7-58.2 196.3-59.7 85.6 1.5 154.5 16.6 196.3 59.7 43.1 41.8 58.2 110.7 59.7 196.3z" fill="url(#SVGID_1_)"/><g><path d="m256 512c85.6-1.5 154.5-16.6 196.3-59.7 43.1-41.8 58.2-110.7 59.7-196.3-1.5-85.6-16.6-154.5-59.7-196.3-41.8-43.1-110.7-58.2-196.3-59.7-85.6 1.5-154.5 16.6-196.3 59.7-43.1 41.8-58.2 110.7-59.7 196.3 1.5 85.6 16.6 154.5 59.7 196.3 41.8 43.1 110.7 58.2 196.3 59.7z" fill="url(#SVGID_2_)"/><path d="m0 256c1.5 85.6 16.6 154.5 59.7 196.3 41.8 43.1 110.7 58.2 196.3 59.7 85.6-1.5 154.5-16.6 196.3-59.7 43.1-41.8 58.2-110.7 59.7-196.3-1.5-85.6-16.6-154.5-59.7-196.3-41.8-43.1-110.7-58.2-196.3-59.7-85.6 1.5-154.5 16.6-196.3 59.7-43.1 41.8-58.2 110.7-59.7 196.3z" fill="url(#SVGID_3_)"/><path d="m512 256c-1.5 85.6-16.6 154.5-59.7 196.3-41.8 43.1-110.7 58.2-196.3 59.7-85.6-1.5-154.5-16.6-196.3-59.7-43.1-41.8-58.2-110.7-59.7-196.3 1.5-85.6 16.6-154.5 59.7-196.3 41.8-43.1 110.7-58.2 196.3-59.7 85.6 1.5 154.5 16.6 196.3 59.7 43.1 41.8 58.2 110.7 59.7 196.3z" fill="url(#SVGID_4_)"/><path d="m256 512c85.6-1.5 154.5-16.6 196.3-59.7 43.1-41.8 58.2-110.7 59.7-196.3-1.5-85.6-16.6-154.5-59.7-196.3-41.8-43.1-110.7-58.2-196.3-59.7-85.6 1.5-154.5 16.6-196.3 59.7-43.1 41.8-58.2 110.7-59.7 196.3 1.5 85.6 16.6 154.5 59.7 196.3 41.8 43.1 110.7 58.2 196.3 59.7z" fill="url(#SVGID_5_)"/></g></g><path d="m367.9 127.8h-202.1c-25.8 0-46.7 20.9-46.7 46.7v130.3c0 30.2 24.5 54.7 54.7 54.7v39.1c0 3.2 3.9 4.9 6.2 2.7l43.4-41.7h137.3c27.7 0 50.1-22.4 50.1-50.1v-138.8c.1-23.7-19.2-42.9-42.9-42.9z" fill="#424566"/><g><g><path d="m358.9 118.8h-202.1c-25.8 0-46.7 20.9-46.7 46.7v130.3c0 30.2 24.5 54.7 54.7 54.7v39.1c0 3.2 3.9 4.9 6.2 2.7l43.4-41.7h143c24.5 0 44.4-19.9 44.4-44.4v-144.5c.1-23.7-19.2-42.9-42.9-42.9z" fill="url(#SVGID_6_)"/><g><path d="m373.8 121.5v225.9c16.4-6.5 28.1-22.5 28.1-41.3v-144.4c0-18.4-11.7-34.2-28.1-40.2z" fill="url(#SVGID_7_)"/><path d="m400.4 150.8c-4.8-18.4-21.6-32-41.5-32h-202.1c-20.6 0-38.2 13.4-44.3 32z" fill="url(#SVGID_8_)"/><path d="m113.4 314.4c7.6 21 27.8 36 51.4 36v39.1c0 3.2 3.9 4.9 6.2 2.7l43.4-41.7h143c21.7 0 39.7-15.5 43.6-36h-287.6z" fill="url(#SVGID_9_)"/><path d="m146.3 120c-20.7 4.8-36.2 23.3-36.2 45.5v130.3c0 23.7 15.1 43.9 36.2 51.5z" fill="url(#SVGID_10_)"/></g><g><path d="m164.8 350.4v39.1c0 3.2 3.9 4.9 6.2 2.7l43.4-41.7h-49.6z" fill="url(#SVGID_11_)"/><g><path d="m173.1 350.4h-8.3v39.1c0 3.2 3.9 4.9 6.2 2.7l2-2v-39.8z" fill="url(#SVGID_12_)"/><path d="m201.7 350.4-36.9 35.5v3.6c0 3.3 3.9 4.9 6.2 2.7l43.4-41.7h-12.7z" fill="url(#SVGID_13_)"/><path d="m204.6 359.9 9.8-9.5h-49.6v9.5z" fill="url(#SVGID_14_)"/></g></g></g><circle cx="187.8" cy="241.4" fill="url(#SVGID_15_)" r="28.2"/><g><circle cx="182.7" cy="236.3" fill="url(#SVGID_16_)" r="23.1"/><circle cx="182.7" cy="236.3" fill="url(#SVGID_17_)" r="23.1"/><circle cx="182.7" cy="236.3" fill="url(#SVGID_18_)" r="23.1"/></g><circle cx="260.6" cy="241.4" fill="url(#SVGID_19_)" r="28.2"/><circle cx="333.4" cy="241.4" fill="url(#SVGID_20_)" r="28.2"/><g><circle cx="255.5" cy="236.3" fill="url(#SVGID_21_)" r="23.1"/><circle cx="255.5" cy="236.3" fill="url(#SVGID_22_)" r="23.1"/><circle cx="255.5" cy="236.3" fill="url(#SVGID_23_)" r="23.1"/></g><g><circle cx="328.3" cy="236.3" fill="url(#SVGID_24_)" r="23.1"/><circle cx="328.3" cy="236.3" fill="url(#SVGID_25_)" r="23.1"/><circle cx="328.3" cy="236.3" fill="url(#SVGID_26_)" r="23.1"/></g></g></g></svg>