<svg id="Capa_1" enable-background="new 0 0 512 512" height="512" viewBox="0 0 512 512" width="512" xmlns="http://www.w3.org/2000/svg" xmlns:xlink="http://www.w3.org/1999/xlink"><radialGradient id="SVGID_1_" cx="351.868" cy="1142.449" gradientTransform="matrix(.931 0 0 .113 -74.264 344.898)" gradientUnits="userSpaceOnUse" r="211.111"><stop offset="0" stop-color="#b8e3ff"/><stop offset=".233" stop-color="#cfedff"/><stop offset=".4962" stop-color="#e6f6ff"/><stop offset=".888" stop-color="#fff"/></radialGradient><linearGradient id="lg1"><stop offset="0" stop-color="#3692bc"/><stop offset=".5038" stop-color="#0681af"/><stop offset=".9755" stop-color="#0055a3"/></linearGradient><radialGradient id="SVGID_00000161603063909833157190000006017664635959422863_" cx="287.424" cy="434.491" gradientTransform="matrix(1 0 0 .457 0 235.887)" gradientUnits="userSpaceOnUse" r="121.608" xlink:href="#lg1"/><linearGradient id="lg2"><stop offset="0" stop-color="#e6f6ff"/><stop offset=".3758" stop-color="#c0dae9"/><stop offset=".4303" stop-color="#bad6e5"/><stop offset="1" stop-color="#8abbd5"/></linearGradient><radialGradient id="SVGID_00000105406263169060506680000006739880282439123895_" cx="94.457" cy="439.011" gradientUnits="userSpaceOnUse" r="97.705" xlink:href="#lg2"/><radialGradient id="SVGID_00000065757579794171521220000000583274918905445031_" cx="318.271" cy="404.685" gradientTransform="matrix(-1 0 0 -.357 636.541 549.222)" gradientUnits="userSpaceOnUse" r="145.857" xlink:href="#lg1"/><radialGradient id="SVGID_00000107552738285644961610000012191103674611729039_" cx="47.226" cy="299.956" gradientTransform="matrix(0 1 -2.931 0 926.254 252.73)" gradientUnits="userSpaceOnUse" r="62.274"><stop offset="0" stop-color="#8abbd5"/><stop offset=".4303" stop-color="#6cabca"/><stop offset="1" stop-color="#0681af"/></radialGradient><radialGradient id="SVGID_00000153665229849660427990000006752481731974792894_" cx="32.541" cy="36.759" gradientUnits="userSpaceOnUse" r="273.522" xlink:href="#lg2"/><radialGradient id="SVGID_00000127752476352334538450000013113170562690465966_" cx="511.4" cy="124.446" gradientUnits="userSpaceOnUse" r="521.538" xlink:href="#lg1"/><radialGradient id="SVGID_00000001649036344465625520000010821241900666658719_" cx="446.814" cy="225.193" gradientTransform="matrix(-1 0 0 -.549 893.628 348.857)" gradientUnits="userSpaceOnUse" r="391.329"><stop offset="0" stop-color="#68e7fd"/><stop offset=".2663" stop-color="#42e3fd"/><stop offset=".6766" stop-color="#00dcfc"/><stop offset=".802" stop-color="#00d8fc"/><stop offset=".9277" stop-color="#00ccfc"/><stop offset="1" stop-color="#00c1fc"/></radialGradient><radialGradient id="SVGID_00000078032241871338416920000005453463706948755342_" cx="369.694" cy="254.949" gradientUnits="userSpaceOnUse" r="274.22"><stop offset="0" stop-color="#0055a3"/><stop offset=".4384" stop-color="#004281"/><stop offset=".9826" stop-color="#00366d"/></radialGradient><radialGradient id="SVGID_00000107553708230822623110000010446703039131490974_" cx="198.101" cy="184.532" gradientUnits="userSpaceOnUse" r="98.146"><stop offset="0" stop-color="#ffcb9b"/><stop offset=".518" stop-color="#ffba7c"/><stop offset=".7495" stop-color="#ffa850"/><stop offset=".9755" stop-color="#ff982a"/></radialGradient><linearGradient id="lg3"><stop offset="0" stop-color="#e0f6df"/><stop offset=".5145" stop-color="#ddf7c5"/><stop offset=".5599" stop-color="#daf7c0"/><stop offset=".9755" stop-color="#c4f19b"/></linearGradient><radialGradient id="SVGID_00000101100896366342868950000015808895611679106193_" cx="336.16" cy="80.334" gradientUnits="userSpaceOnUse" r="44.189" xlink:href="#lg3"/><radialGradient id="SVGID_00000010292644411202974010000000212487369737970103_" cx="195.368" cy="113.482" gradientUnits="userSpaceOnUse" r="57.748" xlink:href="#lg3"/><radialGradient id="SVGID_00000075851694973038039100000002820159567290405797_" cx="424.913" cy="164.809" gradientTransform="matrix(-1 0 0 -.363 849.826 224.704)" gradientUnits="userSpaceOnUse" r="233.425"><stop offset="0" stop-color="#7be700"/><stop offset=".5119" stop-color="#72d800"/><stop offset=".8085" stop-color="#26b847"/><stop offset=".9755" stop-color="#00a96a"/></radialGradient><radialGradient id="SVGID_00000166657625657585086470000009889784004848873865_" cx="427.052" cy="150.551" gradientTransform="matrix(-1 0 0 -.547 854.103 232.848)" gradientUnits="userSpaceOnUse" r="206.05"><stop offset="0" stop-color="#ffab56"/><stop offset=".5119" stop-color="#ff982a"/><stop offset=".5978" stop-color="#ff8f2a"/><stop offset=".9755" stop-color="#ff6927"/></radialGradient><g><path d="m256 498.979c113.107 0 204.798-11.351 204.798-25.353h-409.596c0 14.002 91.691 25.353 204.798 25.353z" fill="url(#SVGID_1_)"/><path d="m314.2 448.221c13.807 0 25 11.193 25 25v.6h-102.4s-33.585-25.6-44.8-25.6z" fill="url(#SVGID_00000161603063909833157190000006017664635959422863_)"/><path d="m211.8 448.221h-51.8l25.6-38.4v-64h-38.4l-32 128h121.6v-.6c0-13.807-11.193-25-25-25z" fill="url(#SVGID_00000105406263169060506680000006739880282439123895_)"/><path d="m300.8 448.221h-140.8l25.6-102.4h140.8z" fill="url(#SVGID_00000065757579794171521220000000583274918905445031_)"/><path d="m115.2 306.979-8.355 1.857c4.257-9.74 8.656-19.907 8.355-27.015l-115.2 12.8v44.629c0 13.807 11.193 25 25 25h83.471c-3.971 0 8.897-30.268 6.729-57.271z" fill="url(#SVGID_00000107552738285644961610000012191103674611729039_)"/><path d="m108.471 13.021h-83.471c-13.807 0-25 11.193-25 25v256.6h97.03c-4.246-100.306-.432-281.6 11.441-281.6z" fill="url(#SVGID_00000153665229849660427990000006752481731974792894_)"/><path d="m512 38.021c0-13.807-11.193-25-25-25h-385.2c-13.807 0-25 11.193-25 25v256.6h435.2z" fill="url(#SVGID_00000127752476352334538450000013113170562690465966_)"/><path d="m102.4 307.421h384v-258.359c0-5.523-4.477-10-10-10h-364c-5.523 0-10 4.477-10 10z" fill="url(#SVGID_00000001649036344465625520000010821241900666658719_)"/><path d="m76.8 294.621v44.629c0 13.807 11.193 25 25 25h385.2c13.807 0 25-11.193 25-25v-44.629z" fill="url(#SVGID_00000078032241871338416920000005453463706948755342_)"/><path d="m192 179.421 76.8 76.8h25.6l-25.6-51.2-51.2-25.6z" fill="url(#SVGID_00000107553708230822623110000010446703039131490974_)"/><path d="m332.8 77.021v38.4l38.399 12.8-12.799-51.2z" fill="url(#SVGID_00000101100896366342868950000015808895611679106193_)"/><path d="m192 115.421v38.4h25.6l25.6-12.8-25.6-25.6z" fill="url(#SVGID_00000010292644411202974010000000212487369737970103_)"/><path d="m435.2 153.821h-217.6v-38.4h140.8v-38.4z" fill="url(#SVGID_00000075851694973038039100000002820159567290405797_)"/><path d="m217.6 179.421h217.6v38.4h-140.8v38.4z" fill="url(#SVGID_00000166657625657585086470000009889784004848873865_)"/></g></svg>