<svg version="1.1" id="Layer_1" xmlns="http://www.w3.org/2000/svg" xmlns:xlink="http://www.w3.org/1999/xlink" x="0px" y="0px"
	 width="100%" viewBox="0 0 220 220" enable-background="new 0 0 220 220" xml:space="preserve">
<path fill="#1267AE" opacity="1.000000" stroke="none" 
	d="
M154.000000,221.000000 
	C102.666672,221.000000 51.833340,221.000000 1.000007,221.000000 
	C1.000005,147.666672 1.000005,74.333351 1.000002,1.000017 
	C74.333321,1.000011 147.666641,1.000011 220.999969,1.000006 
	C220.999985,74.333321 220.999985,147.666641 221.000000,220.999969 
	C198.833328,221.000000 176.666672,221.000000 154.000000,221.000000 
M110.527328,164.600632 
	C139.805786,163.946472 163.189514,151.683823 180.578751,128.309845 
	C190.169708,115.418037 190.049622,106.168037 180.586166,93.164589 
	C148.369034,48.895977 82.464363,40.537678 42.052540,93.192116 
	C31.449905,107.006798 31.545784,114.866920 42.283722,128.648590 
	C59.326237,150.521912 81.371971,163.417587 110.527328,164.600632 
z"/>
<path fill="#F6F9FC" opacity="1.000000" stroke="none" 
	d="
M110.052795,164.587067 
	C81.371971,163.417587 59.326237,150.521912 42.283722,128.648590 
	C31.545784,114.866920 31.449905,107.006798 42.052540,93.192116 
	C82.464363,40.537678 148.369034,48.895977 180.586166,93.164589 
	C190.049622,106.168037 190.169708,115.418037 180.578751,128.309845 
	C163.189514,151.683823 139.805786,163.946472 110.052795,164.587067 
M88.660385,70.958977 
	C75.150421,75.666962 63.558796,83.363106 54.415138,94.300964 
	C41.356232,109.922318 40.930088,111.965752 54.495113,127.203293 
	C91.918503,169.240860 145.983521,158.066055 171.977386,122.694618 
	C178.916092,113.252693 178.903366,108.967369 172.598572,99.661057 
	C154.570953,73.051033 119.768158,60.946690 88.660385,70.958977 
z"/>
<path fill="#1468AF" opacity="1.000000" stroke="none" 
	d="
M89.038971,70.844925 
	C119.768158,60.946690 154.570953,73.051033 172.598572,99.661057 
	C178.903366,108.967369 178.916092,113.252693 171.977386,122.694618 
	C145.983521,158.066055 91.918503,169.240860 54.495113,127.203293 
	C40.930088,111.965752 41.356232,109.922318 54.415138,94.300964 
	C63.558796,83.363106 75.150421,75.666962 89.038971,70.844925 
M125.549706,91.749191 
	C125.549706,98.042831 125.549706,104.336464 125.549706,110.862671 
	C133.751755,110.862671 141.450272,110.862671 149.269852,110.862671 
	C149.269852,102.451553 149.269852,94.382126 149.269852,86.185349 
	C141.325958,86.185349 133.728683,86.185349 125.829689,86.185349 
	C125.727356,87.880219 125.638786,89.347084 125.549706,91.749191 
z"/>
<path fill="#F9FBFD" opacity="1.000000" stroke="none" 
	d="
M125.549957,91.281570 
	C125.638786,89.347084 125.727356,87.880219 125.829689,86.185349 
	C133.728683,86.185349 141.325958,86.185349 149.269852,86.185349 
	C149.269852,94.382126 149.269852,102.451553 149.269852,110.862671 
	C141.450272,110.862671 133.751755,110.862671 125.549706,110.862671 
	C125.549706,104.336464 125.549706,98.042831 125.549957,91.281570 
z"/>
</svg>