<svg id="Layer_1" enable-background="new 0 0 38 38" height="512" viewBox="0 0 38 38" width="512" xmlns="http://www.w3.org/2000/svg"><g id="_Phone_Book"><g><g><g><path d="m33.2252769 7.4910374v23.3877163c0 2.2767601-1.9006901 4.1265793-4.2485428 4.1265793h-17.5535049c-.7097826 0-1.4688911-.1087265-1.8397703-.7217407-.0203476-.0303955-.0305223-.0609207-.0508699-.0913162l-.8130579-1.473877.619998.1423149v-25.7051726c0-2.2869334 1.900691-4.136878 4.2383709-4.136878 14.4239025.0519655 15.497364-.1819303 17.3095741.3151481 2.1752662.6201222 2.3378028 2.1142223 2.3378028 4.1572259z" fill="#495bc9"/></g></g><g><g><g><path d="m32.1529045 7.4910374v23.3877163c0 2.2767601-1.900692 4.1265793-4.2485447 4.1265793-19.0059347-.0107194-17.7946224.0345764-18.265069-.050747-.4573374-.0712166-.8944502-.284626-1.1282063-.6709938-.0203476-.0303955-.0305214-.0609207-.0508699-.0913162l-.8130574-1.473877.6199985.1423149v-25.7051725c0-2.2869334 1.9006901-4.136878 4.2383699-4.136878 14.4239025.0519655 15.497364-.1819303 17.3095741.3151481 2.1752663.6201222 2.3378048 2.1142223 2.3378048 4.1572259z" fill="#5564d7"/></g></g><g><g><g><path d="m33.0226212 21.8951988v3.7635422c0 .4330559-.378376.7574291-.8114052.7574291h-9.9806881c-.2093182 0-.4013824-.0733643-.5438175-.1942234-.0129604-.0086136-.021574-.0194149-.0323486-.0280285l-.3862877-.3431396c-.0064793-.0064793-.0129604-.0107994-.0194416-.0172539l.1985455.0302143c-.0535088-.1784592-.0193138-.0283337-.0302162-3.9685402 0-.418663.3646889-.7574558.8135662-.7574558 11.3663578.0024452 9.952776-.0043144 10.0734653.0043201.0108032-.0798435.0193481-.1408195.0259247-.1877422l.4272766.3798065c.0043182.0043201.0086403.0064812.0129585.0107746.1553688.138115.2524681.3323384.2524681.5502968z" fill="#fa5f7f"/></g></g><g><g><path d="m33.0234909 21.8942623v3.765522c0 .224577-.1050453.4261475-.2718811.5647678l-.5951538-.4636784.051384-4.6232662c.0385895.0010681.0463638-.0002613.0965919.0051441.0117073-.0914059.0247154-.1876488.0247154-.1876488.1000633.088541.2744064.2430115.4406738.390131.1561051.1377088.2536698.3326246.2536698.5490285z" fill="#e93565"/></g></g><g><g><path d="m32.578064 21.5002975v3.7656765c0 .410677-.3522873.7574539-.8114052.7574539h-9.9806881c-.1963577 0-.3754883-.0647488-.5178967-.1726494-.0064793-.0064793-.0129604-.0107994-.0194416-.0172539-.1683292-.1381149-.276228-.3409519-.276228-.5675507v-3.7656765c0-.4165039.3647137-.7552967.8135662-.7552967h9.9806881c.4332734.0000001.8114053.3279172.8114053.7552968z" fill="#fe90a9"/></g></g></g><g opacity=".46"><g><path d="m29.6758423 20.7528343.0241718 5.6712132c.1026859-.0003777 1.9335728-.0071373 1.8193531-.0067158l-.1848145-.3927422v-5.2850933z" fill="#4c5c75"/></g></g><g><g><path d="m30.7738838 7.3794231v21.2658482c0 2.0765152-1.7571735 3.7605858-3.9299622 3.7605858-17.1010933-.0185928-16.2467613.0433884-16.8787384-.0482635-.4597435-.0785484-.8880434-.301815-1.0895462-.7002296-.268424-.514534-.1759405.5138664-.1825905-24.5857239 0-2.0765157 1.7570972-3.760659 3.9236574-3.760659 13.034153.0485053 14.359354-.1690083 15.9906216.2898028 2.0154124.5614065 2.1665583 1.919568 2.1665583 3.7786392z" fill="#c9cee2"/></g></g><g><g><path d="m30.2923927 7.3691959v21.5444393c0 2.1037197-1.769434 3.8098526-3.9573803 3.8098526-17.2203989-.0188407-16.3601856.0439454-16.9964923-.0488967-.4629507-.0795784-.8942385-.3057671-1.097147-.7094021-.2688565-.5184994-.1771603.5516148-.1838646-24.9078064 0-2.1037192 1.7693548-3.8099256 3.9510307-3.8099256 13.1202145.0491216 14.4501038-.1738903 16.1021767.2935984 2.0294761.5687607 2.1816768 1.9447143 2.1816768 3.8281405z" fill="#f1f6fa"/></g></g><g><g><g><path d="m31.6400509 10.0533257v3.7656755c0 .411994-.3542862.7552958-.8114052.7552958h-9.9806881c-.2381535 0-.4542484-.1000643-.5761662-.2222795l-.3862877-.343112c-.0064793-.0064802-.0129604-.0107746-.0194416-.0172548l.1985455.0301886c-.0535297-.1784534-.0193138-.0283079-.0302162-3.9685135 0-.418664.3646889-.7574558.8135662-.7574558 10.268364.0022085 9.9717713-.008073 10.0734673.00648.0038109-.0297041.021595-.1581373.0259209-.1877699l.0108013.0108004.4164753.366847c.0043201.0043201.0086403.0086403.0129604.0108004.1553688.138114.2524681.3344984.2524681.5502978z" fill="#ffd475"/></g></g><g><g><path d="m31.6409225 10.0530462v3.765522c0 .224576-.1050453.4261465-.2718849.5647678l-.5951538-.4636803.051384-4.6232643c.0385914.0010681.0463676-.0002623.0965919.0051432.0117073-.0914049.0247173-.1876488.0247173-.1876488.1000614.088542.2744064.2430124.4406738.390131.1561051.1377087.2536717.3326255.2536717.5490294z" fill="#ffb961"/></g></g><g><g><path d="m31.1954937 9.6605568v3.7635164c0 .4240522-.3688622.7574549-.8114052.7574549h-9.9806881c-.1963577 0-.3754883-.064723-.5178967-.1726227-.0064793-.0064802-.0129604-.0107746-.0194416-.0172548-.1683292-.1381407-.276228-.3409786-.276228-.5675774v-3.7635164c0-.4186363.3647137-.7574558.8135662-.7574558h9.9806881c.2201176 0 .418663.0798445.5632572.2114792v.0021601c.0043201.0021601.0064812.0064802.0108013.0086403.1467268.1359538.2373468.325858.2373468.5351762z" fill="#ffde9b"/></g></g></g><g opacity=".46"><g><path d="m28.2397385 8.8880777.0233898 5.6712132c.1026859.0002966 1.8707733.0054073 1.7624741.0050945l-.1064625-.3978863v-5.2784214z" fill="#5564d7"/></g></g><g><g><path d="m29.4899101 7.2507997v22.2023926c0 2.1679668-1.7583141 3.9262028-3.9325104 3.9262028-16.9750738-.0192572-16.2614097.0446772-16.8896818-.0503889-.460041-.0820084-.8886185-.3151054-1.0902524-.7310677-.2685151-.5370293-.1760545.5364914-.1827087-25.6684761 0-2.1679654 1.7582364-3.9262784 3.9262013-3.9262784 13.0666285.0515606 14.3602438-.1789215 16.0009842.3025658 2.0167227.5861305 2.1679678 2.0041047 2.1679678 3.9450499z" fill="#656fea"/></g></g><g><g><path d="m27.690794 5.9219327v22.2023163c0 2.1678886-1.7583122 3.9262009-3.9325085 3.9262009 0 0-16.2956715.0091133-16.3271351.0028038-.1477842-.5840307-.045731-25.0851493-.045731-25.0851493 0-2.1679654 1.7582364-3.9262781 3.9262013-3.9262781 13.0539627.0167503 14.3602905-.2202761 16.0008259.2611504.3403397.6869084.3783474 1.6043257.3783474 2.618956z" fill="#748bfd"/></g></g><g opacity=".55"><g><path d="m25.5606022 3.0347722v22.4053173c0 2.1710701-1.7582359 3.931963-3.9262009 3.931963h-14.2489819v-22.4368275c0-2.1711473 1.7582364-3.9320405 3.9262013-3.9320405 14.015007.0063487 13.6166363-.0212387 14.2489815.0315877z" fill="#8fabfe"/></g></g><g><g><g><path d="m24.1592121 21.4916058c-.4277534.397171-.8452835.8071156-1.392725 1.0540771-.4302731.1960526-.8681889.2953224-1.3112049.3131638l-1.7313423.0050964.3844604-.1782131c-2.0036602-.5794106-4.0007839-2.755867-5.1099882-4.5269279-1.6152306-2.5893021-1.1559658-4.6801491.1858892-5.8356123l-.5678005-.674716h1.5429363c.2926521-.0093527.4557571.0407467.6645527.2317019.4757748.433835 1.0245438 1.4070177 1.2195473 1.922267.1833096.4812431.0865574.9140635-.3106441 1.2603254-.2011185.170598-.4022369.3411655-.6110325.5015697-.4328213.3310013-.5397663.7129126-.346262 1.2246771.1604023.4201069.3946228.7918243.6696186 1.1431847.5659161.7242718 1.3505287 1.6529579 2.2150707 1.9757557.3411961.1298199.6518097.0560055.9191608-.1986027.1552753-.1502094.3131618-.3004494.4735355-.4455624l-.7052689-.4557266c1.686573.0266018 1.7293186-.0648518 2.1438065.1273041.5843449.2705307 1.4048824 1.0471649 1.7567978 1.4970627.2877065.3666495.2495099.7434634-.0891074 1.0591754z" fill="#e3e7f0"/></g></g><g><g><path d="m13.759985 12.2215405c.1569672-.1241131.3009348-.2647047.4582949-.3882751.7754927-.6089725 1.3652582.3051147 1.8711233 1.1512461.4674759.7819195.7782745 1.4830523.0934525 2.0775108-.1988297.1725941-.4006481.342515-.6097612.5023327-.4334726.3312893-.5410891.7120562-.3452835 1.2253351.1596146.4184055.394803.7915783.6682529 1.141613.5705061.7302895 1.3448114 1.6471062 2.2155638 1.9766674.3413811.1292076.6512508.0566139.9177456-.1991692.2128601-.2043037.4269772-.4076729.647974-.6030407.7699757-.6806889 1.5889568-.0767937 2.3468952.6190205.2396564.2200108.4753189.4509048.6748466.7065411.2878494.3687954.2506714.7452507-.0889587 1.0599251-.4282246.3967571-.8449078.8076878-1.3921261 1.0544796-1.6921043.7631226-3.482235.0642967-4.9174061-1.1245518-1.1255989-.9324093-2.075738-2.0227032-2.8507423-3.2618504-1.6465684-2.6326867-1.1498681-4.783371.3101291-5.9377842z" fill="#fff"/></g></g></g><g><g><g><g><g><g><g><g><path d="m9.6313429 7.2895932c.6529455.0000019 1.2162142.4081297 1.4447899.9877381.3948298.9873705-.3340721 2.1140652-1.444788 2.1140623-.8652792-.0000029-1.5509062-.6938-1.5509071-1.5508051 0-.9217052.7491426-1.5509977 1.5509052-1.5509953z" fill="#656fea"/></g></g></g></g><g><g><g><g><path d="m10.5649405 8.472702c.2179365.5230465-.0568295 1.1071787-.5659085 1.3109322-.8576736.2855968-1.5968599-.452488-1.310709-1.3109369.3854113-.8977228 1.5726271-.8103018 1.8766175.0000047z" fill="#f1f6fa"/></g></g></g></g><g><g><g><g><path d="m10.5649405 8.472702c.2179365.5230465-.0568295 1.1071787-.5659085 1.3109322-.8576736.2855968-1.5968599-.452488-1.310709-1.3109369.3854113-.8977228 1.5726271-.8103018 1.8766175.0000047z" fill="#f1f6fa"/></g></g></g></g><g><g><g><path d="m9.2446709 9.5242891.000001.2499104c.2694511.103322.4996328.0941525.7544346.0094051v-.2499103c-.2553845.0849409-.4854833.0937252-.7544356-.0094052z" fill="#111d33"/></g></g><g><g><path d="m9.2242565 7.6869531c-1.6674457-1.3696094-4.4495354-.3799515-4.4495344 1.502418.0000005 1.1787853 1.1693878 2.1500988 2.6120691 2.1501036v-.7544327c-1.0277295-.0000029-1.8576336-.6317101-1.8576341-1.395668-.0000004-1.211071 1.9732724-1.8625479 3.1637293-.9747649.1069402-.2501807.2721414-.408482.5313701-.527656z" fill="#4c5c75"/></g></g><g><g><path d="m9.4238148 7.8503852c-.0591374-.0603747-.1329975-.1087484-.1995583-.1634321-.2597876.119431-.424736.2781901-.5313702.5276561.0320425.0240011.0694056.0439196.0992222.0695295.5982066.5186538.4206915 1.0533371.4525624 1.2401504.2694521.103322.4996338.0941525.7544355.0094051-.033124-.2008237.1611929-.9274978-.5752916-1.683309z" fill="#4c5c75"/></g></g></g></g><g><g><path d="m6.9908266 10.5523453c.1320376.0188789.2640758.0283184.3959985.0283194v.7544661c-.1319227-.000001-.2639604-.0094404-.395998-.0283203z" fill="#111d33"/></g></g></g></g></g><g><g><g><g><g><g><g><g><path d="m9.6313429 13.2059593c.850791.0000029 1.550807.6946554 1.550808 1.5510044 0 .8570051-.6937971 1.5507984-1.550806 1.5507965-.8652792-.0000038-1.5509062-.6938-1.5509071-1.550806-.0000001-.9217053.7491425-1.5509977 1.5509051-1.5509949z" fill="#656fea"/></g></g></g></g><g><g><g><g><path d="m9.6313515 13.7478733c.4243164.000001.7921114.2640772.933589.6411953.2670374.6408863-.2082567 1.3767786-.933588 1.3767767-.5602589-.0000019-1.0091057-.4457054-1.0091057-1.0088739-.0000001-.5501891.4447021-1.0091 1.0091047-1.0090981z" fill="#f1f6fa"/></g></g></g></g><g><g><g><g><path d="m9.6313515 13.7478733c.4243164.000001.7921114.2640772.933589.6411953.2670374.6408863-.2082567 1.3767786-.933588 1.3767767-.5602589-.0000019-1.0091057-.4457054-1.0091057-1.0088739-.0000001-.5501891.4447021-1.0091 1.0091047-1.0090981z" fill="#f1f6fa"/></g></g></g></g><g><g><g><path d="m9.2446709 15.4406557.000001.2499104c.2694511.1033211.4996328.0941515.7544346.0094042v-.2499104c-.2553845.0849409-.4854833.0937252-.7544356-.0094042z" fill="#111d33"/></g></g><g><g><path d="m9.2242565 13.6033192c-1.6674457-1.3696089-4.4495354-.3799515-4.4495344 1.5024185.0000005 1.1787853 1.1693878 2.1500988 2.6120691 2.1501026v-.7544327c-1.0277295-.0000019-1.8576336-.6317091-1.8576341-1.395668-.0000005-1.2110701 1.9732723-1.8625479 3.1637292-.9747648.1069403-.2501803.2721415-.4084816.5313702-.5276556z" fill="#4c5c75"/></g></g><g><g><path d="m9.4238148 13.7667513c-.0591373-.0603743-.1329975-.1087484-.1995583-.1634321-.2597876.1194305-.424736.2781906-.5313702.5276556.0320425.0240011.0694056.0439205.0992222.0695295.5982065.5186548.4206915 1.0533371.4525623 1.2401514.2694521.1033211.4996338.0941515.7544355.0094042-.0331239-.2008228.161193-.9274979-.5752915-1.6833086z" fill="#4c5c75"/></g></g></g></g><g><g><path d="m6.9908266 16.4687119c.1320376.0188789.2640758.0283184.3959985.0283184v.754467c-.1319227-.0000019-.2639604-.0094414-.395998-.0283203z" fill="#111d33"/></g></g></g></g></g><g><g><g><g><g><g><g><g><path d="m9.6313429 19.1223259c.6529455.0000019 1.2162142.4081287 1.4447899.9877377.3948298.9873714-.3340721 2.1140652-1.444788 2.1140614-.8652792-.0000019-1.5509062-.6937981-1.5509071-1.5508041 0-.9217054.7491426-1.5509988 1.5509052-1.550995z" fill="#656fea"/></g></g></g></g><g><g><g><g><path d="m9.6313515 19.6642399c.4243164 0 .7921114.2640762.933589.6411953.3240004.7775974-.4383307 1.6401863-1.320262 1.3014889-.9120092-.3745098-.7885323-1.7166729.1792345-1.9238071.0659609-.0094376.1319227-.0188771.2074385-.0188771z" fill="#f1f6fa"/></g></g></g></g><g><g><g><g><path d="m9.6313515 19.6642399c.4243164 0 .7921114.2640762.933589.6411953.3240004.7775974-.4383307 1.6401863-1.320262 1.3014889-.9120092-.3745098-.7885323-1.7166729.1792345-1.9238071.0659609-.0094376.1319227-.0188771.2074385-.0188771z" fill="#f1f6fa"/></g></g></g></g><g><g><g><path d="m9.2446709 21.3570213.000001.2499104c.2694511.1033211.4996328.0941525.7544346.0094051v-.2499104c-.2553845.08494-.4854833.0937253-.7544356-.0094051z" fill="#111d33"/></g></g><g><g><path d="m9.2242565 19.5196857c-1.6674457-1.3696098-4.4495354-.3799515-4.4495344 1.5024185.0000005 1.1787834 1.1693878 2.1500988 2.6120691 2.1501026v-.7544327c-1.0277295-.0000038-1.8576336-.6317101-1.8576341-1.395668-.0000005-1.211071 1.9732723-1.8625488 3.1637292-.9747658.1069403-.2501792.2721415-.4084815.5313702-.5276546z" fill="#4c5c75"/></g></g><g><g><path d="m9.4238148 19.6831169c-.0591373-.0603733-.1329975-.1087475-.1995583-.1634312-.2597876.1194305-.424736.2781906-.5313702.5276546.0320425.0240021.0694056.0439205.0992222.0695305.5982066.5186539.4206915 1.0533372.4525624 1.2401505.2694521.1033211.4996338.0941525.7544355.0094051-.033124-.2008228.1611929-.9274978-.5752916-1.6833095z" fill="#4c5c75"/></g></g></g></g><g><g><path d="m6.9908266 22.3850765c.1320376.0188808.2640758.0283203.3959985.0283203v.7544651c-.1319227 0-.2639604-.0094395-.395998-.0283184z" fill="#111d33"/></g></g></g></g></g><g><g><g><g><g><g><g><g><path d="m9.6313429 25.0386906c.6529455.0000019 1.2162142.4081306 1.4447899.9877396.3948298.9873695-.3340721 2.1140652-1.444788 2.1140614-.8652792-.0000019-1.5509062-.6938-1.5509071-1.5508041 0-.9217054.7491426-1.5509988 1.5509052-1.5509969z" fill="#656fea"/></g></g></g></g><g><g><g><g><path d="m9.6313515 25.5806065c.4243164 0 .7921114.2640762.933589.6411934.3240004.7775993-.4383307 1.6401863-1.320262 1.3014908-.367795-.1510315-.6224318-.5092716-.6224318-.933588 0-.5565701.4502898-1.0090981 1.0091048-1.0090962z" fill="#f1f6fa"/></g></g></g></g><g><g><g><g><path d="m9.6313515 25.5806065c.4243164 0 .7921114.2640762.933589.6411934.3240004.7775993-.4383307 1.6401863-1.320262 1.3014908-.367795-.1510315-.6224318-.5092716-.6224318-.933588 0-.5565701.4502898-1.0090981 1.0091048-1.0090962z" fill="#f1f6fa"/></g></g></g></g><g><g><g><path d="m9.2446709 27.2733879.000001.2499104c.2694511.1033211.4996328.0941525.7544346.0094051v-.2499104c-.2553845.08494-.4854833.0937252-.7544356-.0094051z" fill="#111d33"/></g></g><g><g><path d="m9.2242565 25.4360523c-1.6674457-1.3696098-4.4495354-.3799534-4.4495344 1.5024166.0000005 1.1787853 1.1693878 2.1500988 2.6120691 2.1501045v-.7544327c-1.0277295-.0000038-1.8576336-.6317101-1.8576341-1.395668-.0000005-1.211071 1.9732723-1.8625488 3.1637292-.9747658.1069403-.2501792.2721415-.4084815.5313702-.5276546z" fill="#4c5c75"/></g></g><g><g><path d="m9.4238148 25.5994835c-.0591373-.0603752-.1329975-.1087494-.1995583-.1634312-.2597876.1194305-.424736.2781887-.5313702.5276546.0320425.0240021.0694056.0439205.0992222.0695305.5982065.5186539.4206915 1.0533371.4525623 1.2401505.2694521.1033211.4996338.0941525.7544355.0094051-.0331239-.2008247.161193-.9274978-.5752915-1.6833095z" fill="#4c5c75"/></g></g></g></g><g><g><path d="m6.9908266 28.3014431c.1320376.0188789.2640758.0283184.3959985.0283203v.7544651c-.1319227 0-.2639604-.0094395-.395998-.0283184z" fill="#111d33"/></g></g></g></g></g></g></g></g></svg>