<?xml version="1.0" encoding="utf-8"?>
<!-- Generator: Adobe Illustrator 27.5.0, SVG Export Plug-In . SVG Version: 6.00 Build 0)  -->
<svg version="1.1" id="Layer_1" xmlns="http://www.w3.org/2000/svg" xmlns:xlink="http://www.w3.org/1999/xlink" x="0px" y="0px"
	 viewBox="0 0 1000 1000" style="enable-background:new 0 0 1000 1000;" xml:space="preserve">
<g id="Background">
	<rect x="-0.02" y="-0.02" style="fill:#FFFFFF;" width="999.59" height="1000.076"/>
</g>
<g id="Vector">
	<g>
		<g>
			<polygon style="fill:#986E4B;" points="511.453,799.673 532.234,590.795 545.703,590.795 524.398,799.673 			"/>
			<polygon style="fill:#5F3C1A;" points="522.167,799.673 542.948,590.795 550.526,590.795 529.221,799.673 			"/>
			<g>
				<g>
					<path style="fill:#282E39;" d="M830.278,684.362c-1.27,0-2.449-0.812-2.858-2.086c-1.091-3.393,0.012-39.757,0.638-57.852
						c-35.366-7.047-69.357-1.585-78.116,0.07c-1.021,19.188,6.742,55.854,6.824,56.237c0.346,1.621-0.688,3.218-2.311,3.564
						c-1.61,0.349-3.218-0.687-3.564-2.311c-0.355-1.662-8.668-40.934-6.763-60.281c0.127-1.288,1.065-2.352,2.33-2.635
						c1.706-0.385,42.249-9.29,85.324-0.007c1.422,0.307,2.42,1.588,2.368,3.042c-0.734,20.767-1.646,54.911-0.981,58.433
						c0.442,1.55-0.424,3.183-1.97,3.68C830.892,684.315,830.583,684.362,830.278,684.362z M833.138,680.438
						c0.007,0.02,0.013,0.041,0.02,0.062C833.151,680.477,833.145,680.456,833.138,680.438z"/>
				</g>
				<rect x="826.732" y="608.088" style="fill:#555A60;" width="15.719" height="172.753"/>
				<rect x="837.675" y="608.088" style="fill:#44494E;" width="4.776" height="172.753"/>
				<rect x="826.732" y="608.088" style="fill:#ABB0B6;" width="3.743" height="172.753"/>
				<path style="fill:#282E39;" d="M917.164,681.358H752.019v2.036c0,3.086,2.502,5.588,5.588,5.588h153.968
					c3.086,0,5.588-2.502,5.588-5.588V681.358z"/>
				<polygon style="fill:#0054A4;" points="909.576,480.531 925.472,483.474 917.164,646.552 917.164,681.358 891.306,681.358 				
					"/>
				<path style="fill:#0054A4;" d="M917.164,646.552h-82.59l14.542-154.888c0.286-4.603,4.102-8.19,8.714-8.19h67.642
					c3.654,0,6.551,3.082,6.324,6.729L917.164,646.552z"/>
				<path style="fill:#008BDB;" d="M901.267,654.905h-82.59l14.542-166.184c0.286-4.603,4.102-8.19,8.714-8.19h67.642
					c3.654,0,6.551,3.082,6.324,6.729L901.267,654.905z"/>
				<path style="fill:#008BDB;" d="M901.267,651.301H775.779c-12.182,0-22.057,7.863-22.057,17.563l0.668,12.494h146.878V651.301z"
					/>
				<path style="fill:#008BDB;" d="M775.779,651.301c-12.182,0-22.057,7.863-22.057,17.563l0.059,1.116
					c0.792-9.126,10.335-16.335,21.998-16.335h125.488v-2.343H775.779z"/>
				<path style="fill:#282E39;" d="M859.123,695.25H810.06c-2.992,0-5.417-2.425-5.417-5.417v-7.12h59.897v7.12
					C864.54,692.825,862.115,695.25,859.123,695.25z"/>
				<polygon style="fill:#282E39;" points="821.576,777.152 781.341,785.316 782.175,789.498 826.107,780.737 				"/>
				<polygon style="fill:#282E39;" points="830.72,777.152 817.901,786.516 818.761,790.833 831.581,781.469 				"/>
				<polygon style="fill:#282E39;" points="847.704,777.152 886.661,785.308 885.826,789.498 842.451,780.841 				"/>
				<rect x="821.576" y="777.152" style="fill:#282E39;" width="26.128" height="4.125"/>
				<path style="fill:#282E39;" d="M788.997,792.317c0,3.883-3.148,7.031-7.031,7.031c-3.883,0-7.031-3.148-7.031-7.031
					c0-3.883,3.148-7.031,7.031-7.031C785.849,785.286,788.997,788.434,788.997,792.317z"/>
				<path style="fill:#282E39;" d="M826.804,792.317c0,3.883-3.148,7.031-7.031,7.031c-3.883,0-7.031-3.148-7.031-7.031
					c0-3.883,3.148-7.031,7.031-7.031C823.656,785.286,826.804,788.434,826.804,792.317z"/>
				<path style="fill:#282E39;" d="M893.17,792.317c0,3.883-3.148,7.031-7.031,7.031s-7.031-3.148-7.031-7.031
					c0-3.883,3.148-7.031,7.031-7.031S893.17,788.434,893.17,792.317z"/>
				<polygon style="fill:#282E39;" points="837.448,777.152 850.268,786.516 849.407,790.833 836.588,781.469 				"/>
				<path style="fill:#282E39;" d="M841.365,792.317c0,3.883,3.148,7.031,7.031,7.031s7.031-3.148,7.031-7.031
					c0-3.883-3.148-7.031-7.031-7.031S841.365,788.434,841.365,792.317z"/>
				<g>
					<path style="fill:#282E39;" d="M915.296,684.362c-1.27,0-2.449-0.812-2.858-2.086c-1.091-3.393,0.012-39.757,0.638-57.852
						c-35.367-7.047-69.357-1.585-78.116,0.07c-1.021,19.188,6.742,55.854,6.824,56.237c0.346,1.621-0.688,3.218-2.311,3.564
						c-1.608,0.349-3.217-0.687-3.564-2.311c-0.355-1.662-8.668-40.934-6.763-60.281c0.127-1.288,1.066-2.352,2.33-2.635
						c1.705-0.385,42.248-9.29,85.324-0.007c1.422,0.307,2.42,1.588,2.368,3.042c-0.734,20.767-1.646,54.911-0.981,58.433
						c0.442,1.55-0.424,3.183-1.97,3.68C915.91,684.315,915.601,684.362,915.296,684.362z M918.156,680.438
						c0.007,0.02,0.013,0.041,0.02,0.062C918.169,680.477,918.163,680.456,918.156,680.438z"/>
				</g>
				<g>
					
						<rect x="871.913" y="471.423" transform="matrix(0.0066 -1 1 0.0066 353.9385 1381.6558)" style="fill:#0054A4;" width="0.979" height="82.513"/>
				</g>
				<g>
					
						<rect x="869.472" y="499.386" transform="matrix(0.0135 -0.9999 0.9999 0.0135 317.6685 1403.2229)" style="fill:#0054A4;" width="0.977" height="82.475"/>
				</g>
				<g>
					
						<rect x="866.975" y="527.997" transform="matrix(0.0355 -0.9994 0.9994 0.0355 267.8322 1415.8817)" style="fill:#0054A4;" width="0.978" height="82.367"/>
				</g>
			</g>
			<g>
				<g>
					<path style="fill:#282E39;" d="M635.983,684.362c-1.27,0-2.45-0.812-2.859-2.086c-1.09-3.394,0.013-39.757,0.639-57.852
						c-35.406-7.059-69.361-1.59-78.115,0.068c-1.023,19.189,6.741,55.855,6.823,56.238c0.346,1.621-0.688,3.218-2.311,3.564
						c-1.613,0.349-3.218-0.687-3.564-2.311c-0.355-1.662-8.668-40.934-6.762-60.281c0.127-1.289,1.067-2.352,2.33-2.635
						c1.705-0.385,42.25-9.29,85.323-0.007c1.422,0.307,2.42,1.588,2.368,3.042c-0.734,20.767-1.645,54.913-0.981,58.433
						c0.441,1.551-0.424,3.183-1.97,3.681C636.598,684.315,636.288,684.362,635.983,684.362z M638.845,680.438
						c0.007,0.021,0.012,0.042,0.019,0.063C638.857,680.478,638.85,680.457,638.845,680.438z"/>
				</g>
				<rect x="632.438" y="608.088" style="fill:#555A60;" width="15.719" height="172.753"/>
				<rect x="643.381" y="608.088" style="fill:#44494E;" width="4.776" height="172.753"/>
				<rect x="632.438" y="608.088" style="fill:#ABB0B6;" width="3.743" height="172.753"/>
				<path style="fill:#282E39;" d="M722.87,681.358H557.725v2.036c0,3.086,2.502,5.588,5.588,5.588h153.969
					c3.086,0,5.588-2.502,5.588-5.588V681.358z"/>
				<polygon style="fill:#0054A4;" points="715.282,480.531 731.178,483.474 722.87,646.552 722.87,681.358 697.012,681.358 				"/>
				<path style="fill:#0054A4;" d="M722.87,646.552h-82.59l14.542-154.888c0.286-4.603,4.103-8.19,8.714-8.19h67.642
					c3.654,0,6.551,3.082,6.324,6.729L722.87,646.552z"/>
				<path style="fill:#008BDB;" d="M706.973,654.905h-82.59l14.542-166.184c0.286-4.603,4.103-8.19,8.715-8.19h67.642
					c3.654,0,6.551,3.082,6.324,6.729L706.973,654.905z"/>
				<path style="fill:#008BDB;" d="M706.973,651.301H581.485c-12.182,0-22.057,7.863-22.057,17.563l0.667,12.494h146.878V651.301z"
					/>
				<path style="fill:#008BDB;" d="M581.485,651.301c-12.182,0-22.057,7.863-22.057,17.563l0.06,1.116
					c0.792-9.126,10.335-16.335,21.998-16.335h125.488v-2.343H581.485z"/>
				<path style="fill:#282E39;" d="M664.829,695.25h-49.063c-2.992,0-5.417-2.425-5.417-5.417v-7.12h59.897v7.12
					C670.246,692.825,667.82,695.25,664.829,695.25z"/>
				<polygon style="fill:#282E39;" points="627.282,777.152 587.047,785.316 587.881,789.498 631.813,780.737 				"/>
				<polygon style="fill:#282E39;" points="636.426,777.152 623.606,786.516 624.467,790.833 637.286,781.469 				"/>
				<polygon style="fill:#282E39;" points="653.409,777.152 692.367,785.308 691.531,789.498 648.157,780.841 				"/>
				<rect x="627.282" y="777.152" style="fill:#282E39;" width="26.128" height="4.125"/>
				<path style="fill:#282E39;" d="M594.703,792.317c0,3.883-3.148,7.031-7.031,7.031c-3.883,0-7.031-3.148-7.031-7.031
					c0-3.883,3.148-7.031,7.031-7.031C591.555,785.286,594.703,788.434,594.703,792.317z"/>
				<path style="fill:#282E39;" d="M632.509,792.317c0,3.883-3.148,7.031-7.031,7.031c-3.883,0-7.031-3.148-7.031-7.031
					c0-3.883,3.148-7.031,7.031-7.031C629.361,785.286,632.509,788.434,632.509,792.317z"/>
				<path style="fill:#282E39;" d="M698.876,792.317c0,3.883-3.148,7.031-7.031,7.031s-7.031-3.148-7.031-7.031
					c0-3.883,3.148-7.031,7.031-7.031S698.876,788.434,698.876,792.317z"/>
				<polygon style="fill:#282E39;" points="643.154,777.152 655.974,786.516 655.113,790.833 642.293,781.469 				"/>
				<path style="fill:#282E39;" d="M647.071,792.317c0,3.883,3.148,7.031,7.031,7.031s7.031-3.148,7.031-7.031
					c0-3.883-3.148-7.031-7.031-7.031S647.071,788.434,647.071,792.317z"/>
				<g>
					<path style="fill:#282E39;" d="M721.001,684.362c-1.27,0-2.45-0.812-2.859-2.086c-1.09-3.394,0.013-39.757,0.639-57.852
						c-35.406-7.059-69.362-1.59-78.115,0.068c-1.023,19.189,6.741,55.855,6.823,56.238c0.346,1.621-0.688,3.218-2.311,3.564
						c-1.611,0.349-3.217-0.687-3.564-2.311c-0.355-1.662-8.668-40.934-6.762-60.281c0.127-1.289,1.067-2.352,2.33-2.635
						c1.705-0.385,42.249-9.29,85.322-0.007c1.422,0.307,2.42,1.588,2.368,3.042c-0.733,20.767-1.645,54.913-0.981,58.433
						c0.441,1.551-0.424,3.183-1.97,3.681C721.616,684.315,721.306,684.362,721.001,684.362z M723.863,680.438
						c0.007,0.021,0.012,0.042,0.019,0.063C723.875,680.478,723.868,680.457,723.863,680.438z"/>
				</g>
				<g>
					
						<rect x="677.619" y="471.423" transform="matrix(0.0066 -1 1 0.0066 160.935 1187.3657)" style="fill:#0054A4;" width="0.979" height="82.513"/>
				</g>
				<g>
					
						<rect x="675.177" y="499.386" transform="matrix(0.0135 -0.9999 0.9999 0.0135 125.9911 1208.946)" style="fill:#0054A4;" width="0.977" height="82.475"/>
				</g>
				<g>
					
						<rect x="672.681" y="527.998" transform="matrix(0.0355 -0.9994 0.9994 0.0355 80.439 1221.7102)" style="fill:#0054A4;" width="0.978" height="82.366"/>
				</g>
			</g>
			<g>
				<rect x="206.249" y="260.91" style="fill:#EEEEEE;" width="335.017" height="254.013"/>
				<g>
					<rect x="206.249" y="260.91" style="fill:#E6E3E4;" width="335.017" height="9.408"/>
				</g>
				<path style="fill:#282E39;" d="M545.523,264.191h-343.53c-0.912,0-1.651-0.739-1.651-1.651v-11.795
					c0-0.912,0.739-1.651,1.651-1.651h343.53c0.912,0,1.651,0.739,1.651,1.651v11.795
					C547.173,263.452,546.434,264.191,545.523,264.191z"/>
				<path style="fill:#282E39;" d="M546.33,516.891H201.185c-0.466,0-0.843-0.377-0.843-0.843v-2.252
					c0-0.466,0.378-0.843,0.843-0.843H546.33c0.466,0,0.843,0.377,0.843,0.843v2.252
					C547.173,516.514,546.796,516.891,546.33,516.891z"/>
				<g>
					<rect x="418.08" y="284.8" style="fill:#434E5B;" width="80.951" height="3.501"/>
					<rect x="396.201" y="298.363" style="fill:#434E5B;" width="124.709" height="2.955"/>
					<rect x="396.201" y="307.099" style="fill:#434E5B;" width="124.709" height="2.955"/>
					<rect x="396.201" y="315.835" style="fill:#434E5B;" width="124.709" height="2.955"/>
					<rect x="396.201" y="324.571" style="fill:#434E5B;" width="124.709" height="2.955"/>
				</g>
				<g>
					<rect x="418.08" y="450.8" style="fill:#434E5B;" width="80.951" height="3.501"/>
					<rect x="396.201" y="464.363" style="fill:#434E5B;" width="124.709" height="2.955"/>
					<rect x="396.201" y="473.099" style="fill:#434E5B;" width="124.709" height="2.955"/>
					<rect x="396.201" y="481.835" style="fill:#434E5B;" width="124.709" height="2.955"/>
					<rect x="396.201" y="490.571" style="fill:#434E5B;" width="124.709" height="2.955"/>
				</g>
				<g>
					<rect x="250.403" y="401.477" style="fill:#5BB387;" width="80.951" height="3.501"/>
					<rect x="228.524" y="415.04" style="fill:#5BB387;" width="124.709" height="2.955"/>
					<rect x="228.524" y="423.776" style="fill:#5BB387;" width="124.709" height="2.955"/>
					<rect x="228.524" y="432.512" style="fill:#5BB387;" width="124.709" height="2.955"/>
					<rect x="228.524" y="441.248" style="fill:#5BB387;" width="124.709" height="2.955"/>
				</g>
				<g>
					<path style="fill:#706EA1;" d="M316.865,315.591c-1.359-9.313-6.231-17.482-13.228-23.127l-22.92,28.447L316.865,315.591z"/>
					<path style="fill:#FF7576;" d="M272.61,325.725l22.92-28.447c-6.269-5.057-14.238-8.091-22.92-8.091
						c-20.179,0-36.538,16.358-36.538,36.538s16.358,36.538,36.538,36.538s36.538-16.358,36.538-36.538
						c0-1.807-0.136-3.583-0.39-5.32L272.61,325.725z"/>
					<path style="fill:#FFB45A;" d="M309.148,325.725c0-1.807-0.136-3.583-0.39-5.32l-36.148,5.32l4.217,36.288
						C295.019,359.921,309.148,344.477,309.148,325.725z"/>
				</g>
				<g>
					<polygon style="fill:#434E5B;" points="303.525,308.669 303.024,307.829 335.083,288.697 361.909,288.697 361.909,289.676 
						335.352,289.676 					"/>
				</g>
				<g>
					<polygon style="fill:#434E5B;" points="338.718,361.255 312.258,361.255 312.114,361.108 290.529,338.985 291.228,338.301 
						312.67,360.276 338.718,360.276 					"/>
				</g>
				<g>
					<polygon style="fill:#434E5B;" points="260.775,387.79 233.263,387.79 233.263,386.811 260.009,386.811 268.669,351.807 
						269.62,352.043 					"/>
				</g>
				<rect x="340.031" y="282.46" style="fill:#434E5B;" width="17.722" height="2.844"/>
				<rect x="316.865" y="354.004" style="fill:#434E5B;" width="17.722" height="2.844"/>
				<rect x="237.445" y="380.805" style="fill:#434E5B;" width="17.722" height="2.844"/>
				<polygon style="fill:#5BB387;" points="458.556,340.525 396.201,414.324 520.91,414.324 				"/>
				<g>
					<polygon style="fill:#5BB387;" points="443.755,358.042 472.629,358.042 458.556,340.525 					"/>
					<path style="fill:#EEEEEE;" d="M473.772,358.589h-31.199l15.993-18.927L473.772,358.589z M444.936,357.493h26.548
						l-12.941-16.105L444.936,357.493z"/>
				</g>
				<g>
					<polygon style="fill:#E670C3;" points="443.755,358.042 431.781,372.213 485.33,372.213 472.629,358.042 					"/>
					<path style="fill:#EEEEEE;" d="M486.557,372.761H430.6l12.9-15.268h29.373L486.557,372.761z M432.963,371.664h51.139
						l-11.718-13.075H444.01L432.963,371.664z"/>
				</g>
				<g>
					<polygon style="fill:#E08F6E;" points="420.602,385.444 496.509,385.444 485.33,372.213 431.781,372.213 					"/>
					<path style="fill:#EEEEEE;" d="M497.691,385.992h-78.27l12.107-14.328h54.057L497.691,385.992z M421.783,384.896h73.545
						l-10.253-12.135h-53.038L421.783,384.896z"/>
				</g>
				<g>
					<polygon style="fill:#F3DA48;" points="408.909,399.283 420.602,385.444 496.509,385.444 508.202,399.283 					"/>
					<path style="fill:#EEEEEE;" d="M509.383,399.831H407.728l12.62-14.935h76.417L509.383,399.831z M410.09,398.734h96.929
						l-10.765-12.742h-75.398L410.09,398.734z"/>
				</g>
				<g>
					<polygon style="fill:#7681D0;" points="396.201,414.324 520.91,414.324 508.202,399.283 408.909,399.283 					"/>
					<path style="fill:#EEEEEE;" d="M522.092,414.872H395.02l13.634-16.137h99.802L522.092,414.872z M397.383,413.775h122.346
						l-11.782-13.944h-98.783L397.383,413.775z"/>
				</g>
				<g>
					<g>
						<rect x="388.68" y="425.693" style="fill:#E08F6E;" width="8.071" height="8.071"/>
						<path style="fill:#EEEEEE;" d="M397.299,434.311h-9.168v-9.167h9.168V434.311z M389.228,433.215h6.975v-6.974h-6.975V433.215z
							"/>
					</g>
					<rect x="399.223" y="428.425" style="fill:#434E5B;" width="16.023" height="2.606"/>
				</g>
				<g>
					<g>
						<rect x="424.487" y="425.693" style="fill:#5BB387;" width="8.071" height="8.071"/>
						<path style="fill:#EEEEEE;" d="M433.107,434.311h-9.168v-9.167h9.168V434.311z M425.035,433.215h6.975v-6.974h-6.975V433.215z
							"/>
					</g>
					<rect x="435.03" y="428.425" style="fill:#434E5B;" width="16.023" height="2.606"/>
				</g>
				<g>
					<g>
						<rect x="463.237" y="425.693" style="fill:#7681D0;" width="8.071" height="8.071"/>
						<path style="fill:#EEEEEE;" d="M471.856,434.311h-9.168v-9.167h9.168V434.311z M463.785,433.215h6.975v-6.974h-6.975V433.215z
							"/>
					</g>
					<rect x="473.78" y="428.425" style="fill:#434E5B;" width="16.023" height="2.606"/>
				</g>
				<g>
					<g>
						<rect x="499.044" y="425.693" style="fill:#E670C3;" width="8.071" height="8.071"/>
						<path style="fill:#EEEEEE;" d="M507.664,434.311h-9.168v-9.167h9.168V434.311z M499.593,433.215h6.975v-6.974h-6.975V433.215z
							"/>
					</g>
					<rect x="509.587" y="428.425" style="fill:#434E5B;" width="16.023" height="2.606"/>
				</g>
				<g>
					<g>
						<rect x="237.126" y="471.706" style="fill:#E670C3;" width="8.92" height="26.208"/>
						<path style="fill:#EEEEEE;" d="M246.594,498.462h-10.016v-27.305h10.016V498.462z M237.674,497.366h7.823v-25.112h-7.823
							V497.366z"/>
					</g>
					<g>
						<rect x="251.209" y="462.931" style="fill:#E670C3;" width="8.92" height="34.983"/>
						<path style="fill:#EEEEEE;" d="M260.678,498.462h-10.017v-36.079h10.017V498.462z M251.757,497.366h7.824V463.48h-7.824
							V497.366z"/>
					</g>
					<g>
						<rect x="265.293" y="477.19" style="fill:#E670C3;" width="8.92" height="20.724"/>
						<path style="fill:#EEEEEE;" d="M274.761,498.462h-10.016v-21.82h10.016V498.462z M265.842,497.366h7.823v-19.628h-7.823
							V497.366z"/>
					</g>
					<g>
						<rect x="279.377" y="457.447" style="fill:#E670C3;" width="8.92" height="40.467"/>
						<path style="fill:#EEEEEE;" d="M288.846,498.462h-10.017v-41.564h10.017V498.462z M279.925,497.366h7.824v-39.371h-7.824
							V497.366z"/>
					</g>
					<g>
						<rect x="293.461" y="466.221" style="fill:#E670C3;" width="8.92" height="31.693"/>
						<path style="fill:#EEEEEE;" d="M302.929,498.462h-10.016v-32.788h10.016V498.462z M294.009,497.366h7.823V466.77h-7.823
							V497.366z"/>
					</g>
					<g>
						<rect x="307.544" y="476.093" style="fill:#E670C3;" width="8.92" height="21.821"/>
						<path style="fill:#EEEEEE;" d="M317.013,498.462h-10.017v-22.918h10.017V498.462z M308.092,497.366h7.824v-20.725h-7.824
							V497.366z"/>
					</g>
					<g>
						<rect x="321.628" y="460.737" style="fill:#E670C3;" width="8.92" height="37.177"/>
						<path style="fill:#EEEEEE;" d="M331.096,498.462H321.08v-38.273h10.016V498.462z M322.177,497.366H330v-36.08h-7.823V497.366z
							"/>
					</g>
					<g>
						<rect x="335.712" y="453.059" style="fill:#E670C3;" width="8.92" height="44.855"/>
						<path style="fill:#EEEEEE;" d="M345.181,498.462h-10.017v-45.951h10.017V498.462z M336.26,497.366h7.824v-43.758h-7.824
							V497.366z"/>
					</g>
				</g>
			</g>
			<g>
				<path style="fill:#151318;" d="M184.026,773.967c0,0-8.312,21.714,0,22.914c8.312,1.199,49.35,0,49.35,0
					s-2.416-10.6-15.583-12.6c-13.167-2-16.678-10.314-16.678-10.314H184.026z"/>
				<path style="fill:#FFC6A4;" d="M195.677,528.109c0,0,4.338,70.695,6.811,108.389c2.473,37.695,0.584,137.469,0.584,137.469
					h-17.09c0,0-14.693-53.572-12.927-86.803c2.063-38.818-3.307-77.133-14.964-117.968
					C146.435,528.361,195.677,528.109,195.677,528.109z"/>
				<path style="fill:#34333B;" d="M196.695,502.242c0,0,11.707,138.939,11.586,161.7c-0.121,22.76-2.869,110.026-2.869,110.026
					s-6.684,4.599-26.096,1.39c0,0-12.999-65.06-9.934-112.026l-21.439-122.515l3.885-35.881L196.695,502.242z"/>
				<path style="opacity:0.5;fill:#34333B;" d="M179.317,775.357c3.362,0.556,6.334,0.873,8.964,1.025
					c-11.041-32.437-9.245-90.941-10.313-113.722c-1.18-25.179-8.573-82.688-8.573-82.688l-9.277,31.621l9.219,51.462
					C166.272,710.021,179.317,775.357,179.317,775.357z"/>
				<g>
					<path style="fill:#FFC6A4;" d="M336.115,416.748c0,0-0.272,2.332-6.693,6.58c-4.353,2.879-5.156,2.797-5.156,2.797
						s1.199,1.633-0.243,3.141c-1.594,1.666-3.487,0.609-3.487,0.609s1.585,1.227-0.19,2.337c-1.776,1.11-3.699,0.309-3.699,0.309
						s1.342,0.801-0.113,2.451c-1.777,2.015-14.173-1.031-18.799,0.898c-4.626,1.929-4.035-10.038-4.035-10.038l9.214-1.522
						L336.115,416.748z"/>
					<path style="fill:#A84732;" d="M300.054,435.902c0.922,1.414,2.809,1.827,4.237,0.926l102.82-64.874
						c0.399-0.252,0.528-0.774,0.291-1.183c-0.244-0.419-0.781-0.561-1.2-0.318L301.09,431.543
						C299.561,432.432,299.089,434.42,300.054,435.902z"/>
					<path style="fill:#FFC6A4;" d="M299.009,424.953c0,0,6.012-3.377,11.025-8.061c3.688-3.446,18.719-3.167,18.533-1.574
						c-0.249,2.131-10.829,6.549-11.395,6.878c-0.566,0.329-11.738,6.822-11.738,6.822L299.009,424.953z"/>
					<path style="fill:#FFC6A4;" d="M324.266,426.125c0,0-9.159-3.332-10.79-0.642c-1.631,2.691,7.06,4.391,7.06,4.391
						L324.266,426.125z"/>
					<path style="fill:#FFC6A4;" d="M317.36,428.529c0,0-5.737-1.972-6.852,0.175c-1.115,2.147,5.721,3.52,5.721,3.52
						L317.36,428.529z"/>
					<path style="fill:#FFC6A4;" d="M311.745,430.096c0,0-4.108-0.767-4.488,1.081c-0.38,1.849,5.472,3.19,5.472,3.19l2.074-3.668
						L311.745,430.096z"/>
				</g>
				<path style="fill:#DCD9E4;" d="M208.871,381.123c0,0,12.001,15.759,23.166,42.154c2.659,6.287,13.694,20.887,13.694,20.887
					l48.439-19.949c0,0,1.251,10.419,7.193,14.671c0,0-50.883,38.465-64.563,35.884c-11.824-2.23-42.831-40.893-42.831-40.893
					L208.871,381.123z"/>
				<path style="fill:#BBB9C7;" d="M294.21,424.004l-9.078,3.698c0,0,0.633,11.698,8.009,17.194l8.262-6.221
					C301.403,438.675,294.941,429.706,294.21,424.004z"/>
				<path style="opacity:0.5;fill:#DCD9E4;" d="M194.894,433.254c2.829,8.159,32.139,39.674,41.907,41.516
					c13.68,2.58,64.563-35.885,64.563-35.885c-1.174-0.84-1.52-2.224-2.354-3.418c-10.388,7.17-48.495,34.652-59.017,30.918
					c-12.469-4.425-39.953-37.621-39.953-37.621S197.944,430.596,194.894,433.254z"/>
				<path style="fill:#151318;" d="M117.429,773.967c0,0-8.312,21.714,0,22.914c8.312,1.199,49.35,0,49.35,0
					s-2.416-10.6-15.583-12.6c-13.167-2-16.678-10.314-16.678-10.314H117.429z"/>
				<path style="fill:#34333B;" d="M122.282,502.242c0,0-15.143,15.529-15.074,52.577c0.069,37.048,9.071,101.908,6.446,112.701
					c-2.626,10.794-4.172,28.599-3.297,53.395c0.875,24.796,3.378,54.15,3.378,54.15s16.512,3.501,24.389,0
					c0,0,13.656-86.715,15.485-104.218c1.829-17.503,24.359-168.606,24.359-168.606H122.282z"/>
				<path style="opacity:0.5;fill:#34333B;" d="M107.626,553.063c0.069,37.048,8.654,103.664,6.028,114.458
					c-2.626,10.794-4.172,28.599-3.297,53.395c0.875,24.796,3.378,54.15,3.378,54.15s3.186,0.675,7.425,1.136
					c-4.259-28.723,2.532-91.825,5.598-109.872c7.318-43.077-3.197-183.162,2.632-149.438c-7.036-40.712-1.011-14.464-1.011-14.464
					s-0.88-0.073-2.121-0.185h-3.976C122.282,502.242,107.556,516.015,107.626,553.063z"/>
				<path style="fill:#DCD9E4;" d="M107.141,379.946c0,0,13.512-4.486,37.174-11.391c23.662-6.905,54.6,6.897,63.169,11.391
					c8.569,4.493,2.388,43.495-6.008,75.908c-5.633,21.749-4.117,50.855-4.117,50.855s-51.141,6.051-80.335,2.894
					c0,0-0.975-44.001-3.289-60.251C111.638,434.626,107.141,379.946,107.141,379.946z"/>
				<path style="opacity:0.5;fill:#DCD9E4;" d="M112.927,442.726c2.314,16.251,4.098,66.877,4.098,66.877
					c29.194,3.156,80.335-2.894,80.335-2.894s-0.808-9.853,0-22.386c-38.843,2.983-57.902-23.857-63.283-51.085
					c-6.037-30.548-13.287-49.229-17.607-56.277c-5.665,2.228-8.844,3.845-8.844,3.845S110.83,428.001,112.927,442.726z"/>
				<path style="fill:#F5AE8E;" d="M146.836,346.596c0,0,2.845,14.637-2.521,21.959c0,0,13.444,12.283,30.918,11.339
					c0,0-6.862-15.858-5.199-27.743C171.696,340.266,146.836,346.596,146.836,346.596z"/>
				<path style="opacity:0.5;fill:#F5AE8E;" d="M146.836,346.596c0,0,4.52,12.733,23.385,15.443
					c-0.467-3.33-0.627-6.747-0.187-9.888C171.696,340.266,146.836,346.596,146.836,346.596z"/>
				<g>
					<path style="fill:#FFC6A4;" d="M138.382,320.739c-1.089-11.804,7.597-22.255,19.401-23.344
						c11.803-1.089,22.255,7.597,23.344,19.401c0.036,0.391,0.06,0.779,0.075,1.167c0.001,0,0.377,11.837,1.544,16.377
						c1.167,4.54-4.18,18.613-14.01,21.015c-11.783,2.88-22.359-7.17-25.318-14.987c-2.959-7.817-3.751-9.566-4.805-17.934
						C138.517,321.876,138.435,321.312,138.382,320.739z"/>
					<path style="fill:#F6D5C4;" d="M169.395,315.707c5.88,0.316,9.372-0.316,11.425-1.052c-0.381-1.961-1.039-3.807-1.904-5.525
						c-3.612-2.902-8.219-6.408-9.521-6.503c-1.745-0.128-19.998,3.545-28.479,5.855c-1.979,3.617-2.941,7.842-2.533,12.257
						c0.053,0.573,0.134,1.137,0.23,1.695c1.054,8.368,1.846,10.117,4.805,17.934c2.959,7.817,13.535,17.867,25.318,14.987
						c0.983-0.24,1.919-0.602,2.81-1.054c-6.421,1.314-12.453,0.671-18.631-5.925c-9.403-10.038-6.603-27.971-6.603-27.971
						C147.647,317.745,157.238,315.053,169.395,315.707z"/>
					<path style="fill:#7F2A2A;" d="M176.593,295.109c2.841,1.213,18.907,17.348,0.125,17.839
						c-16.577,0.433-31.051-0.939-32.403,7.457c-1.352,8.396,3.604,11.436-4.326,10.031c-7.93-1.404,2.756,8.156,2.756,8.156
						s2.057,5.46,4.325,7.946c0,0-5.544-0.829-10.4-12.602s-1.403-20.973-1.403-20.973s-1.612-12.19,11.569-16.758
						C160.018,291.638,170.256,292.403,176.593,295.109z"/>
					<path style="fill:#933F3F;" d="M139.989,330.436c7.887,1.396,3.03-1.605,4.307-9.899c-5.187-2.174-9.029-7.574-9.029-7.574
						s-3.453,9.201,1.403,20.973c4.856,11.772,10.4,12.602,10.4,12.602c-2.268-2.486-4.325-7.946-4.325-7.946
						S132.059,329.033,139.989,330.436z"/>
					<path style="fill:#FFFFFF;" d="M157.501,326.582c0,0,1.134,4.39-0.144,4.531c-1.278,0.142-2.432,0.114-4.347,0.401
						c-1.915,0.286-3.121,0.742-3.256,0.216c-0.135-0.525-0.501-3.833-0.501-3.833S152.842,326.429,157.501,326.582z"/>
					<path style="fill:#FFFFFF;" d="M178.416,323.679c0,0,1.134,4.39-0.144,4.531c-1.278,0.142-2.432,0.114-4.347,0.401
						c-1.915,0.287-3.121,0.742-3.256,0.216c-0.135-0.525-0.501-3.833-0.501-3.833S173.757,323.526,178.416,323.679z"/>
					<path style="fill:#121212;" d="M155.406,327.003c0.626,0.417,1.071,1.093,1.146,1.9c0.087,0.94-0.349,1.8-1.061,2.317
						c-0.8,0.104-1.667,0.205-2.481,0.295c-0.858-0.353-1.502-1.149-1.593-2.138c-0.077-0.831,0.257-1.6,0.827-2.126
						C153.446,327.066,154.521,327.003,155.406,327.003z"/>
					<path style="fill:#7F2A2A;" d="M159.518,320.874c0,0-0.478-2.218-1.249-2.224c-0.771-0.006-11.764,1.933-11.922,3.565
						c-0.158,1.632,0.2,1.704,1.401,1.362C148.949,323.236,159.582,321.251,159.518,320.874z"/>
					<path style="fill:#7F2A2A;" d="M167.776,320.219c0,0-0.144-2.264,0.596-2.48c0.74-0.216,11.846-1.344,12.442,0.184
						c0.596,1.528,0.272,1.694-0.977,1.692C178.589,319.612,167.817,320.599,167.776,320.219z"/>
					<g>
						<path style="fill:#D97F6E;" d="M166.747,338.884l-0.499-0.583c0.453-0.387,0.886-0.724,1.274-1.025
							c0.89-0.691,1.594-1.237,1.576-1.7c-0.017-0.441-0.643-1.065-1.916-1.911c-3.907-2.591-3.496-7.093-3.477-7.283l0.763,0.077
							c-0.005,0.042-0.377,4.236,3.137,6.566c1.576,1.047,2.231,1.777,2.259,2.522c0.031,0.856-0.768,1.476-1.873,2.334
							C167.613,338.176,167.19,338.505,166.747,338.884z"/>
					</g>
					<path style="fill:#9A1225;" d="M172.878,340.622c0,0-9.213,3.69-15.019,1.385c0,0,2.799,6.971,8.851,6.327
						C172.761,347.69,172.878,340.622,172.878,340.622z"/>
					<path style="fill:#FF7E76;" d="M170.246,346.838c-0.864,0.763-2.011,1.334-3.536,1.496c-2.358,0.251-4.216-0.658-5.613-1.857
						C165.234,345.028,168.675,346.122,170.246,346.838z"/>
					<path style="fill:#121212;" d="M176.388,324.018c0.626,0.417,1.071,1.093,1.146,1.9c0.087,0.94-0.349,1.8-1.061,2.317
						c-0.8,0.104-1.667,0.205-2.481,0.295c-0.859-0.353-1.502-1.15-1.593-2.138c-0.077-0.831,0.257-1.6,0.827-2.125
						C174.429,324.082,175.503,324.019,176.388,324.018z"/>
					<path style="fill:#FFC6A4;" d="M142.963,328.801c0,0-1.653-2.802-4.977-1.708c-4.427,1.457,3.506,15.614,6.23,10.629
						C146.941,332.737,142.963,328.801,142.963,328.801z"/>
					<path style="fill:#F6D5C4;" d="M142.963,328.801c0,0-1.653-2.802-4.977-1.708c-4.427,1.457,3.506,15.614,6.23,10.629
						C146.941,332.737,142.963,328.801,142.963,328.801z"/>
					<g>
						<path style="fill:#D97F6E;" d="M141.213,336.685c-0.165,0-0.381-0.074-0.655-0.289c-1.226-0.965-3.641-4.891-2.756-6.732
							c0.283-0.588,0.7-0.954,1.241-1.091c1.168-0.292,2.462,0.635,2.516,0.675l-0.338,0.466c-0.011-0.009-1.134-0.815-2.04-0.582
							c-0.372,0.094-0.654,0.35-0.862,0.782c-0.478,0.992,0.33,2.919,1.166,4.267c0.834,1.344,1.543,1.928,1.721,1.93
							c0.107-0.106,0.213-0.288,0.325-0.481c0.178-0.303,0.377-0.647,0.795-0.756c0.411-0.106,0.927,0.043,1.667,0.483l-0.294,0.494
							c-0.576-0.341-0.993-0.485-1.229-0.42c-0.178,0.045-0.284,0.215-0.442,0.488c-0.127,0.218-0.271,0.465-0.504,0.656
							C141.452,336.635,141.349,336.685,141.213,336.685z"/>
					</g>
					<path style="fill:#FFFFFF;" d="M154.867,327.764c-0.054-0.585,0.377-1.103,0.962-1.157c0.585-0.054,1.103,0.376,1.157,0.962
						c0.054,0.585-0.377,1.103-0.962,1.157C155.439,328.779,154.921,328.349,154.867,327.764z"/>
					<path style="fill:#FFFFFF;" d="M175.845,325.034c-0.054-0.585,0.377-1.103,0.962-1.157c0.585-0.054,1.103,0.377,1.157,0.962
						c0.054,0.585-0.376,1.103-0.962,1.157C176.417,326.049,175.899,325.619,175.845,325.034z"/>
					<g>
						<path style="fill:#2E2727;" d="M148.975,328.415l-0.285-0.713c4.515-1.801,9.136-1.496,9.331-1.484l-0.055,0.766
							C157.923,326.978,153.318,326.679,148.975,328.415z"/>
					</g>
					<g>
						<path style="fill:#2E2727;" d="M169.958,325.431l-0.285-0.713c4.516-1.805,9.15-1.424,9.343-1.404l-0.066,0.763
							C178.904,324.074,174.298,323.696,169.958,325.431z"/>
					</g>
					<path style="fill:#FFFFFF;" d="M172.878,340.622c0,0-0.02,0.838-0.282,1.955c-2.539,0.999-8.003,2.676-13.647,1.425
						c-0.729-1.107-1.09-1.994-1.09-1.994C163.666,344.312,172.878,340.622,172.878,340.622z"/>
					<path style="fill:#621C1C;" d="M141.869,317.996c0,0-2.382-7.947,12.508-9.401c13.388-1.308,29.104-0.327,27.55-4.823
						c0,0,3.907,4.006-4.382,5.15S143.15,306.949,141.869,317.996z"/>
					<path style="fill:#621C1C;" d="M138.517,314.562c0,0,0.402-10.748,13.312-11.323c13.842-0.616,28.054,0.695,26.501-4.047
						c0,0,3.323,3.396-5.941,5.009C163.124,305.815,142.114,302.136,138.517,314.562z"/>
					<path style="fill:#621C1C;" d="M136.669,311.292c0,0-1.244-12.647,15.505-12.854c16.75-0.207,20.704-3.251,20.704-3.251
						s-2.212,4.718-18.894,5.314C149.404,300.665,140.708,298.376,136.669,311.292z"/>
					<path style="fill:#A84242;" d="M142.85,318.65c0,0-0.425-6.958,10.759-7.358c11.437-0.409,28.972,0.899,30.812-4.414
						c0,0,2.219,5.968-20.35,5.109C141.501,311.129,142.85,318.65,142.85,318.65z"/>
					<path style="fill:#A84242;" d="M139.171,315.482c0,0,1.41-7.828,10.73-8.604c9.32-0.777,28.126-0.955,29.416-3.638
						c0,0-2.261,3.771-18.221,4.21C148.099,307.808,142.666,308.308,139.171,315.482z"/>
					<path style="fill:#A84242;" d="M137.454,312.11c0,0,2.449-8.999,9.615-10.178c9.493-1.562,26.751-0.183,28.771-4.629
						c0,0-0.678,4.016-13.063,4.69C150.391,302.668,143.463,301.257,137.454,312.11z"/>
				</g>
				<path style="fill:#DCD9E4;" d="M165.369,372.026c-1.594,0.242-11.073-2.934-18.533-3.404c-5.261-0.331-9.15,1.926-10.167,2.243
					c0.004,0.006,29.601,41.114,38.297,60.51c0,0,9.061-26.276,5.69-61.631c-2.416-0.626-5.077-2.423-6.258-2.54
					C169.932,366.764,173.128,370.848,165.369,372.026z"/>
				<path style="fill:#FF6B00;" d="M166.776,385.007l-1.408,73.495c0,0,7.777,14.126,9.598,17.548c0,0,3.157-10.738,4.35-18.202
					c0,0-3.16-61.714-7.877-73.771C166.724,372.02,166.776,385.007,166.776,385.007z"/>
				<polygon style="fill:#FF9747;" points="161.096,379.029 166.776,385.007 171.44,384.077 172.389,375.574 165.369,372.026 				
					"/>
				<path style="fill:#FFFFFF;" d="M147.059,361.568l-8.769,7.035c0,0,6.085,10.439,22.806,12.824l4.273-9.401
					C165.369,372.026,149.253,369.136,147.059,361.568z"/>
				<path style="fill:#8A5D33;" d="M115.53,510.915c0,0,49.48,1.896,82.152-3.355l0.578,10.78c0,0-55.343,6.328-86.119,1.952
					L115.53,510.915z"/>
				<rect x="122.372" y="510.247" style="fill:#34333B;" width="1.933" height="12.11"/>
				<path style="fill:#FFFFFF;" d="M165.369,372.026c0,0,4.095-1.385,5.083-8.484l8.737,5.05c0,0,1.358,6.277-4.79,11.053
					L165.369,372.026z"/>
				<path style="fill:#DCD9E4;" d="M111.838,377.961c-10.769,0.816-19.699,17.082-23.862,37.775
					c-4.899,24.343-4.219,44.748-4.731,61.081c-0.512,16.333,2.864,69.666,2.864,69.666s14.199-1.338,20.201-3.44
					c0,0,3.509-58.937,6.213-69.801c2.703-10.865,5.557-29.98,9.583-54.471C124.71,402.91,126.358,376.86,111.838,377.961z"/>
				<g>
					<path style="fill:#FFB45A;" d="M178.914,508.29l-19.814,1.068l0.777,14.405l19.814-1.068L178.914,508.29z M163.221,521.046
						l-0.504-9.344l12.853-0.693l0.504,9.344L163.221,521.046z"/>
				</g>
				<polygon style="fill:#FFFFFF;" points="126.248,430.199 127.378,448.925 140.317,454.614 149.301,448.925 149.301,429.308 				
					"/>
				<path style="fill:#FFC6A4;" d="M103.075,538.247c0,0-0.76,3.655,2.034,7.385c2.793,3.73,4.008,9.551,3.992,13.276
					c-0.016,3.724,2.225,9.08-0.882,7.799c-3.107-1.281-3.214-9.377-5.518-9.545c-2.304-0.168,2.17,21.061-1.015,22.931
					c-3.185,1.87-4.517-13.893-4.517-13.893s4.41,16.482,0.983,17.21c-2.711,0.575-5.269-16.672-5.269-16.672
					s4.872,16.07,1.271,16.685c-2.582,0.441-4.597-16.039-4.597-16.039s3.412,11.723,0.195,11.824
					c-3.217,0.101-5.171-21.019-3.817-25.148c1.355-4.129,3.237-9.579,1.466-13.218C85.63,537.203,103.075,538.247,103.075,538.247z
					"/>
				<path style="fill:#BBB9C7;" d="M126.248,425.516c0,0,15.269,0.729,23.053-1.021v4.813c0,0-13.572,1.927-23.053,0.891V425.516z"
					/>
				<polygon style="fill:#BBB9C7;" points="86.107,546.483 106.308,543.043 107.063,531.163 85.429,535.171 				"/>
				<rect x="143.221" y="510.516" style="fill:#34333B;" width="2.188" height="14.401"/>
				<rect x="191.119" y="507.041" style="fill:#34333B;" width="2.188" height="15.315"/>
			</g>
			<g>
				<path style="fill:#FFC6A4;" d="M550.317,570.759c0,0-4.977,0.265-13.043-1.578c-8.066-1.843-24.174,3.389-25.201,7.804
					c-1.027,4.415,23.184,3.294,23.184,3.294l19.785-0.029L550.317,570.759z"/>
				<polygon style="fill:#E8E8E8;" points="551.444,569.181 545.665,570.108 546.539,580.406 555.041,580.25 				"/>
				<path style="fill:#34333B;" d="M613.974,485.277c0,0-9.391,2.926-11.19,17.641c-1.799,14.715-11.282,61.886-11.282,61.886
					l-43.605,4.428l0.844,11.018h61.607c0,0,10.598-2.897,15.326-35.639C630.402,511.869,613.974,485.277,613.974,485.277z"/>
				<path style="fill:#151318;" d="M631.899,776.359c0,0,8.181,21.879,0,23.06c-8.181,1.181-48.574,0-48.574,0
					s2.378-10.939,15.338-12.908c12.96-1.969,16.416-10.152,16.416-10.152H631.899z"/>
				<path style="fill:#151318;" d="M546.931,776.359c0,0,8.181,21.879,0,23.06c-8.181,1.181-48.574,0-48.574,0
					s2.378-10.939,15.338-12.908c12.96-1.969,16.415-10.152,16.415-10.152H546.931z"/>
				
					<linearGradient id="SVGID_1_" gradientUnits="userSpaceOnUse" x1="206.3045" y1="693.2474" x2="351.9963" y2="693.2474" gradientTransform="matrix(-1 0 0 1 878.8791 0)">
					<stop  offset="0" style="stop-color:#4A4754"/>
					<stop  offset="1" style="stop-color:#35323B"/>
				</linearGradient>
				<path style="fill:url(#SVGID_1_);" d="M628.681,609.3c0,0-58.385,18.077-80.437,32.494
					c-16.636,10.877-21.362,134.898-21.362,134.898s8.659,6.382,23.997,1.932c0,0,16.268-51.365,19.201-98.287
					c0.435-6.967,7.904-9.795,14.182-12.846c22.925-11.144,88.313-47.964,88.313-47.964s-30.193-15.443-31.568-12.963
					C639.631,609.044,628.681,609.3,628.681,609.3z"/>
				
					<linearGradient id="SVGID_00000124128558075803533120000009603233355988756116_" gradientUnits="userSpaceOnUse" x1="172.4851" y1="695.0601" x2="281.6161" y2="695.0601" gradientTransform="matrix(-1 0 0 1 878.8791 0)">
					<stop  offset="0" style="stop-color:#4A4754"/>
					<stop  offset="1" style="stop-color:#35323B"/>
				</linearGradient>
				<path style="fill:url(#SVGID_00000124128558075803533120000009603233355988756116_);" d="M703.058,611.116
					c0,0,7.508,22.97-0.003,35.751c-7.41,12.608-23.251,9.687-56.85,16.916c-9.552,2.055-11.016,7.72-9.185,15.599
					c2.636,11.346,5.274,29.972,3.448,47.594c-4.01,38.686-7.029,51.574-7.029,51.574s-13.236,1.48-20.381-0.901
					c0,0-7.679-75.955-12.125-95.65c-5.584-24.733-7.87-29.515,16.331-50.026c13.776-11.676,45.205-19.098,45.205-19.098
					L703.058,611.116z"/>
				
					<linearGradient id="SVGID_00000071529634118753808430000014760625507163453335_" gradientUnits="userSpaceOnUse" x1="160.8505" y1="546.9747" x2="271.5494" y2="546.9747" gradientTransform="matrix(-1 0 0 1 878.8791 0)">
					<stop  offset="0" style="stop-color:#4A4754"/>
					<stop  offset="1" style="stop-color:#35323B"/>
				</linearGradient>
				<path style="fill:url(#SVGID_00000071529634118753808430000014760625507163453335_);" d="M718.029,491.721
					c0,0-14.572-7.931-39.523-15.211c-24.95-7.28-57.571,5.079-66.607,9.817c-9.036,4.738-3.669,51.507,7.366,80.039
					c8.546,22.094-2.219,46.703-2.219,46.703s75.067,9.384,90.036,5.797c0,0-6.944-43.828-4.504-60.963
					C704.789,542.377,718.029,491.721,718.029,491.721z"/>
				<path style="fill:#F5AE8E;" d="M675.847,451.162c0,0-2.999,15.434,2.659,23.154c0,0-14.176,12.952-32.601,11.956
					c0,0,7.235-16.721,5.482-29.253C649.634,444.487,675.847,451.162,675.847,451.162z"/>
				<path style="opacity:0.5;fill:#F5AE8E;" d="M675.847,451.162c0,0-4.766,13.426-24.657,16.283
					c0.493-3.511,0.661-7.115,0.197-10.426C649.634,444.487,675.847,451.162,675.847,451.162z"/>
				<g>
					<path style="fill:#A84732;" d="M684.714,432.881c0,0-2.293,14.645-7.514,16.47l5.565-14.091L684.714,432.881z"/>
					<path style="fill:#FFC6A4;" d="M684.761,423.898c1.148-12.446-8.011-23.466-20.457-24.615s-23.466,8.011-24.615,20.457
						c-0.038,0.412-0.063,0.822-0.079,1.23c-0.001,0-0.397,12.482-1.628,17.268c-1.231,4.787,4.408,19.626,14.772,22.159
						c12.425,3.037,23.576-7.56,26.696-15.803c3.12-8.243,3.955-10.087,5.067-18.91C684.62,425.097,684.706,424.502,684.761,423.898
						z"/>
					<path style="fill:#F6D5C4;" d="M664.305,399.283c-12.265-1.131-23.124,7.753-24.538,19.921c2.359,0.892,6.089,1.647,11.85,1.33
						c12.317-0.677,20.223-3.604,24.854-1.731c0,0,0.953,9.394-0.805,19.04c-1.172,6.43-2.837,14.599-8.619,20.449
						c5.986-3.23,10.576-8.866,12.405-13.697c3.12-8.242,3.955-10.087,5.067-18.91c0.102-0.588,0.188-1.183,0.243-1.787
						C685.91,411.452,676.751,400.431,664.305,399.283z"/>
					<path style="fill:#240A05;" d="M678.506,417.324c0,0-3.817-3.434-12.914-0.818c-9.097,2.616-21.807,2.285-27.79-0.983
						c-5.983-3.268-5.345-9.761-1.232-12.213c4.113-2.453,8.992-1.145,15.398-5.886c6.407-4.741,28.635-5.361,32.89,14.259
						c0,0,7.198,3.025,2.129,22.073c-5.068,19.048-11.879,17.94-11.879,17.94s5.421-7.067,6.945-15.389
						c1.698-9.275-3.328,0.317-3.757-6.862C677.868,422.267,678.506,417.324,678.506,417.324z"/>
					<path style="fill:#352928;" d="M680.957,418.55c0,0-0.591,10.855,0.391,16.709c0.981,5.854-2.35,13.637-2.35,13.637
						s4.776-4.776,3.768-13.637C681.756,426.398,680.957,418.55,680.957,418.55z"/>
					<path style="fill:#352928;" d="M684.714,416.742c0,0,2.401,9.278,0.666,15.582c-0.033,0.12-0.068,0.239-0.104,0.357
						C683.345,438.986,684.714,416.742,684.714,416.742z"/>
					<path style="fill:#FFFFFF;" d="M664.602,430.059c0,0-1.196,4.629,0.152,4.778c1.347,0.149,2.564,0.121,4.584,0.423
						c2.02,0.302,3.291,0.782,3.433,0.228c0.142-0.554,0.528-4.042,0.528-4.042S669.515,429.897,664.602,430.059z"/>
					<path style="fill:#FFFFFF;" d="M642.548,426.998c0,0-1.196,4.629,0.152,4.778c1.347,0.149,2.564,0.121,4.584,0.423
						c2.019,0.302,3.291,0.782,3.433,0.228c0.142-0.554,0.528-4.042,0.528-4.042S647.461,426.836,642.548,426.998z"/>
					
						<linearGradient id="SVGID_00000069366349851781034720000002116117316516672142_" gradientUnits="userSpaceOnUse" x1="665.5919" y1="432.881" x2="671.0289" y2="432.881">
						<stop  offset="0" style="stop-color:#4A4754"/>
						<stop  offset="1" style="stop-color:#35323B"/>
					</linearGradient>
					<path style="fill:url(#SVGID_00000069366349851781034720000002116117316516672142_);" d="M666.812,430.502
						c-0.66,0.44-1.13,1.153-1.208,2.004c-0.091,0.991,0.368,1.898,1.118,2.443c0.844,0.11,1.758,0.216,2.616,0.311
						c0.905-0.373,1.583-1.212,1.68-2.254c0.081-0.877-0.272-1.687-0.872-2.241C668.877,430.57,667.745,430.503,666.812,430.502z"/>
					<path style="fill:#240A05;" d="M662.469,424.334c0,0,0.406-2.358,1.218-2.398c0.812-0.04,12.479,1.519,12.717,3.232
						c0.238,1.713-0.135,1.804-1.416,1.497C673.707,426.357,662.417,424.733,662.469,424.334z"/>
					<path style="fill:#240A05;" d="M653.768,423.349c0,0,0.152-2.387-0.629-2.615c-0.781-0.228-12.491-1.418-13.12,0.194
						c-0.629,1.611-0.287,1.786,1.03,1.784C642.366,422.71,653.725,423.75,653.768,423.349z"/>
					<g>
						<path style="fill:#D97F6E;" d="M654.853,443.03c-0.468-0.399-0.913-0.745-1.314-1.056c-1.166-0.905-2.008-1.559-1.974-2.462
							c0.03-0.784,0.719-1.554,2.382-2.657c3.717-2.466,3.314-6.88,3.309-6.924l0.803-0.082c0.021,0.201,0.454,4.945-3.665,7.679
							c-1.342,0.891-2.004,1.55-2.021,2.014c-0.019,0.489,0.722,1.065,1.662,1.794c0.409,0.318,0.865,0.672,1.342,1.081
							L654.853,443.03z"/>
					</g>
					
						<linearGradient id="SVGID_00000163063999000327853200000012867950377113220495_" gradientUnits="userSpaceOnUse" x1="643.4673" y1="429.7346" x2="648.9042" y2="429.7346">
						<stop  offset="0" style="stop-color:#4A4754"/>
						<stop  offset="1" style="stop-color:#35323B"/>
					</linearGradient>
					<path style="fill:url(#SVGID_00000163063999000327853200000012867950377113220495_);" d="M644.687,427.356
						c-0.66,0.44-1.13,1.152-1.208,2.004c-0.091,0.991,0.368,1.898,1.118,2.443c0.844,0.11,1.758,0.216,2.616,0.311
						c0.905-0.373,1.583-1.212,1.68-2.254c0.081-0.877-0.272-1.687-0.872-2.241C646.753,427.423,645.62,427.356,644.687,427.356z"/>
					<path style="fill:#FFFFFF;" d="M667.379,431.305c0.057-0.617-0.397-1.163-1.014-1.22c-0.617-0.057-1.163,0.397-1.22,1.014
						c-0.057,0.617,0.397,1.163,1.014,1.22C666.776,432.376,667.322,431.922,667.379,431.305z"/>
					<path style="fill:#FFFFFF;" d="M645.26,428.426c0.057-0.617-0.397-1.163-1.014-1.22c-0.617-0.057-1.163,0.397-1.22,1.014
						c-0.057,0.617,0.397,1.163,1.014,1.22C644.657,429.497,645.203,429.043,645.26,428.426z"/>
					<g>
						<path style="fill:#2E2727;" d="M673.592,431.991c-4.589-1.831-9.435-1.508-9.481-1.509l-0.057-0.805
							c0.202-0.017,5.08-0.337,9.839,1.564L673.592,431.991z"/>
					</g>
					<g>
						<path style="fill:#2E2727;" d="M651.467,428.845c-4.583-1.832-9.433-1.431-9.481-1.426l-0.07-0.805
							c0.204-0.018,5.091-0.421,9.852,1.481L651.467,428.845z"/>
					</g>
					<path style="fill:#FFC6A4;" d="M679.931,432.398c0,0,1.743-2.955,5.248-1.801c4.668,1.536-3.697,16.464-6.569,11.208
						C675.737,436.549,679.931,432.398,679.931,432.398z"/>
					<path style="fill:#F6D5C4;" d="M679.931,432.398c0,0,1.743-2.955,5.248-1.801c4.668,1.536-3.697,16.464-6.569,11.208
						C675.737,436.549,679.931,432.398,679.931,432.398z"/>
					<g>
						<path style="fill:#D97F6E;" d="M681.777,440.712c-0.143,0-0.252-0.053-0.331-0.117c-0.246-0.201-0.398-0.461-0.532-0.692
							c-0.168-0.287-0.28-0.466-0.467-0.514c-0.255-0.064-0.691,0.084-1.295,0.443l-0.311-0.521c0.783-0.465,1.33-0.623,1.757-0.51
							c0.441,0.114,0.652,0.477,0.838,0.795c0.119,0.204,0.232,0.396,0.393,0.527c0.14-0.022,0.888-0.639,1.766-2.055
							c0.883-1.422,1.733-3.453,1.229-4.5c-0.219-0.456-0.516-0.725-0.908-0.824c-0.956-0.244-2.138,0.607-2.15,0.614l-0.356-0.49
							c0.056-0.043,1.43-1.024,2.653-0.713c0.569,0.143,1.009,0.53,1.308,1.149c0.934,1.942-1.613,6.081-2.904,7.098
							C682.178,440.633,681.952,440.712,681.777,440.712z"/>
					</g>
					<path style="fill:#FFFFFF;" d="M646.701,446.725c0,0,6.02,4.703,16.314,0.516c0,0-3.322,4.846-8.82,4.734
						C648.696,451.864,646.701,446.725,646.701,446.725z"/>
					<path style="fill:#352928;" d="M678.506,417.324c0,0,5.286-2.453,6.353-5.641C684.859,411.683,685.72,417.242,678.506,417.324z
						"/>
					<path style="fill:#352928;" d="M637.283,408.495c0,0,3.188,4.676,12.998,4.382c9.81-0.294,22.279-2.659,28.716,2.733
						c0,0-0.103-4.663-11.139-5.48C656.822,409.312,644.477,413.89,637.283,408.495z"/>
					<path style="fill:#352928;" d="M681.347,413.584c0,0-3.679-9.036-14.388-7.512c-10.709,1.524-20.111-0.193-22.482-1.91
						c0,0,13.077,2.453,21.785,0.409C674.97,402.527,681.347,409.68,681.347,413.584z"/>
					<path style="fill:#352928;" d="M682.9,410.784c0,0-3.515-9.238-12.835-10.301c-9.32-1.063-16.259,1.07-20.274-0.245
						c0,0,11.348-1.256,16.471-1.39C674.316,398.638,680.366,400.074,682.9,410.784z"/>
				</g>
				<path style="fill:#DCD9E4;" d="M656.306,477.976c1.68,0.255,11.676-3.094,19.541-3.589c5.547-0.349,9.648,2.03,10.72,2.365
					c-0.005,0.007-31.213,43.352-40.382,63.804c0,0-9.554-27.706-6-64.986c2.547-0.661,5.353-2.555,6.598-2.678
					C651.494,472.428,648.124,476.734,656.306,477.976z"/>
				<path style="fill:#EA5B61;" d="M654.822,491.664l1.485,30.389c0,0-8.2,14.895-10.12,18.503c0,0-3.329-11.322-4.587-19.192
					c0,0,3.332-17.967,8.305-30.68C654.878,477.97,654.822,491.664,654.822,491.664z"/>
				<polygon style="fill:#FF7576;" points="660.811,485.36 654.822,491.664 649.904,490.684 648.904,481.718 656.306,477.976 				
					"/>
				<path style="fill:#FFFFFF;" d="M675.613,466.949l9.246,7.418c0,0-6.416,11.008-24.047,13.522l-4.505-9.913
					C656.306,477.976,673.299,474.929,675.613,466.949z"/>
				<path style="fill:#FFFFFF;" d="M656.306,477.976c0,0-4.318-1.46-5.36-8.946l-9.213,5.324c0,0-1.432,6.619,5.051,11.655
					L656.306,477.976z"/>
				<path style="fill:#696773;" d="M684.815,476.023c0,0,0.812-1.908,12.595,6.45l-25.612,28.383l1.944,3.362l-27.556,26.337
					C646.186,540.556,658.086,515.297,684.815,476.023z"/>
				<path style="fill:#696773;" d="M641.006,475.319c0,0,0.128-2.966-12.325,3.796l3.332,28.499l-2.525,2.643l17.164,30.299
					C646.652,540.556,635.755,505.953,641.006,475.319z"/>
				<path style="fill:#FFC6A4;" d="M611.17,494.334c0,0-3.123-4.913-6.034-11.957c-2.911-7.044-18.65-10.179-17.497-7.051
					c0.967,2.623,12.089,5.205,4.87,7.051c-4.142,1.059-25.601-9.348-26.827-5.498c-1.226,3.85,22.195,9.913,22.195,9.913
					s-23.422-9.006-25.139-6.308c-1.717,2.698,19.187,8.77,19.187,8.77s-18.406-8-19.287-5.074
					c-0.881,2.926,10.401,8.567,17.759,11.02c7.358,2.453,11.922-1.546,19.082,4.868C606.64,506.481,611.17,494.334,611.17,494.334z
					"/>
				<path style="fill:#FFFFFF;" d="M596.244,501.164l-2.861-4.568c0,0,9.688-0.299,17.229-6.124l3.066,5.346L596.244,501.164z"/>
				<path style="fill:#4A4754;" d="M593.383,498.258c0,0,25.217,82.056,43.12,82.686c17.904,0.63,47.592-13.506,74.535-34.852
					c26.943-21.346,18.432-53.306,6.991-54.371c-11.441-1.066-71.692,53.497-71.692,53.497l-33.579-53.22
					C612.758,491.997,602.212,498.749,593.383,498.258z"/>
			</g>
			<g>
				<path style="fill:#203437;" d="M730.153,638.588c0,0-8.318,7.228,6.259,18.342c14.577,11.113,49.963,29.877,56.252,25.784
					C798.953,678.621,763.367,635.148,730.153,638.588z"/>
				<path style="fill:#8E3424;" d="M818.678,416.742c0,0-1.445,18.408-2.229,30.137c-0.784,11.729-4.872,20.977-4.872,20.977
					s13.253,1.074,24.557,0C847.438,466.783,818.678,416.742,818.678,416.742z"/>
				<path style="fill:#78271B;" d="M817.3,465.884c0,0,2.7-15.063,4.906-25.476C824.412,429.996,823.922,450.515,817.3,465.884z"/>
				<path style="fill:#78271B;" d="M827.267,448.308c0,0-0.489,10.219-3.307,16.35c0,0,5.308-7.886,5.521-11.619
					C829.694,449.306,827.267,448.308,827.267,448.308z"/>
				<path style="fill:#FFC6A4;" d="M729.564,570.759c0,0-4.977,0.265-13.043-1.578c-8.066-1.843-24.174,3.389-25.201,7.804
					c-1.027,4.415,23.184,3.294,23.184,3.294l19.785-0.029L729.564,570.759z"/>
				<path style="fill:#FD914E;" d="M814.472,480.709c0,0-7.949,0.589-14.262,14.002c-6.825,14.503-20.924,65.841-20.924,65.841
					l-52.141,8.679l0.844,11.018h61.607c0,0,22.979-12.9,27.707-45.642S814.472,480.709,814.472,480.709z"/>
				<path style="fill:#151318;" d="M779.144,776.602c0,0,8.181,21.373,0,22.554c-8.181,1.181-48.574,0-48.574,0
					s2.378-10.433,15.338-12.402c12.96-1.969,17.512-10.152,17.512-10.152H779.144z"/>
				<path style="fill:#151318;" d="M727.078,776.602c0,0,8.181,21.373,0,22.554c-8.181,1.181-48.574,0-48.574,0
					s2.378-10.433,15.338-12.402c12.96-1.969,16.416-10.152,16.416-10.152H727.078z"/>
				<path style="fill:#F5AE8E;" d="M808.828,609.3c-56.385,17.458-56.838,17.065-80.437,32.494
					c-16.637,10.877-18.134,134.808-18.134,134.808s7.772,4.239,16.821,0c0,0,22.937-57.932,23.582-107.465l102.061-49.611
					c0,0-30.193-15.443-31.568-12.963C819.778,609.044,808.828,609.3,808.828,609.3z"/>
				<path style="fill:#FFC6A4;" d="M877.557,611.116c0,0,16.545,22.97,9.033,35.751c-7.411,12.608-26.386,8.729-60.239,14.657
					c-24.205,4.239-45.332,6.562-45.332,6.562s7.921,31.152,4.577,58.89c-4.654,38.613-6.452,49.627-6.452,49.627
					s-9.375,3.768-16.52,1.388c0,0-13.463-75.818-14.303-95.991c-0.634-15.204-7.482-32.611,21.979-44.378
					c23.413-9.352,56.032-24.04,56.032-24.04L877.557,611.116z"/>
				<path style="fill:#FFAE60;" d="M889.113,489.584c0,0-6.754-7.612-32.653-9.784c-27.072-2.271-37.121-1.984-46.156,2.754
					c-6.442,3.377-9.204,39.404-9.36,45.555c-0.32,12.612,7.037,11.958,11.378,37.725c3.935,23.36-14.091,46.89-14.091,46.89
					s68.383,9.728,83.352,6.142c0,0-3.49-43.828-1.05-60.963C882.742,542.377,889.113,489.584,889.113,489.584z"/>
				<path style="opacity:0.25;fill:#FFAE60;" d="M880.531,557.903c2.211-15.527,8.581-68.319,8.581-68.319
					s-3.267-3.672-13.938-6.643c-11.866,12.179-14.198,38.756-13.645,51.667c0.702,16.38-19.868,22.429-39.553,18.505
					c-6.203-1.237-10.424-1.904-13.3-2.24c1.292,3.755,2.561,8.536,3.643,14.961c2.563,15.212-4.187,30.491-9.208,39.302
					c20.751-0.99,51.711-2.899,77.304-4.548C879.688,586.485,879.127,567.77,880.531,557.903z"/>
				<path style="fill:#F5AE8E;" d="M855.994,451.162c0,0-2.999,15.434,2.659,23.154c0,0-14.175,12.952-32.601,11.956
					c0,0,7.235-16.721,5.482-29.253C829.781,444.487,855.994,451.162,855.994,451.162z"/>
				<path style="opacity:0.5;fill:#F5AE8E;" d="M855.994,451.162c0,0-4.765,13.426-24.657,16.283
					c0.493-3.511,0.661-7.115,0.197-10.426C829.781,444.487,855.994,451.162,855.994,451.162z"/>
				<path style="fill:#FFC6A4;" d="M864.908,423.898c1.148-12.446-8.011-23.466-20.457-24.615s-23.466,8.011-24.615,20.457
					c-0.038,0.412-0.063,0.822-0.079,1.23c-0.001,0-0.397,12.482-1.628,17.268c-1.231,4.787,4.408,19.626,14.772,22.159
					c12.425,3.037,23.576-7.56,26.696-15.803c3.12-8.243,3.955-10.087,5.067-18.91C864.766,425.097,864.852,424.502,864.908,423.898
					z"/>
				<path style="fill:#F6D5C4;" d="M844.451,399.283c-12.446-1.148-23.466,8.011-24.614,20.457c-0.038,0.412-0.063,0.822-0.079,1.23
					c-0.001,0-0.063,1.925-0.211,4.55c2.824-1.194,7.74-2.641,15.421-2.965c13.561-0.572,18.083-3.678,18.083-3.678
					s7.307,24.523-3.498,34.99c-3.563,3.451-7.301,5.624-10.714,6.994c9.905-0.819,18.148-9.365,20.759-16.266
					c3.12-8.242,3.955-10.087,5.067-18.91c0.102-0.588,0.188-1.183,0.243-1.787C866.056,411.452,856.897,400.431,844.451,399.283z"
					/>
				<path style="fill:#FF6464;" d="M828.534,444.863c0,0,3.297,0.052,6.914,0.543s8.923,0.918,8.923,0.918s-2.368,9.035-9.403,8.361
					C827.934,454.01,828.534,444.863,828.534,444.863z"/>
				<g>
					<path style="fill:#D97F6E;" d="M835,443.03c-0.468-0.399-0.913-0.745-1.314-1.056c-1.166-0.906-2.008-1.559-1.974-2.462
						c0.03-0.785,0.719-1.555,2.383-2.657c3.716-2.466,3.313-6.88,3.308-6.924l0.803-0.082c0.021,0.201,0.454,4.945-3.664,7.679
						c-1.344,0.891-2.005,1.55-2.022,2.014c-0.018,0.489,0.724,1.065,1.662,1.794c0.409,0.318,0.866,0.672,1.344,1.081L835,443.03z"
						/>
				</g>
				<path style="fill:#9A1225;" d="M828.534,444.863c0,0,9.714,3.891,15.837,1.461c0,0-2.952,7.351-9.332,6.671
					C828.659,452.316,828.534,444.863,828.534,444.863z"/>
				<path style="fill:#FF7E76;" d="M831.31,451.417c0.911,0.804,2.12,1.407,3.729,1.578c2.487,0.265,4.445-0.694,5.919-1.958
					C836.595,449.509,832.966,450.662,831.31,451.417z"/>
				<path style="fill:#FFFFFF;" d="M828.534,444.863c0,0,0.021,0.883,0.297,2.061c2.678,1.053,8.438,2.821,14.39,1.502
					c0.768-1.168,1.15-2.103,1.15-2.103C838.249,448.754,828.534,444.863,828.534,444.863z"/>
				<path style="fill:#FFFFFF;" d="M843.006,432.263c0,0,1.268,1.905,4.134,1.968c3.991,0.087,5.911-0.977,5.911-0.977
					s-1.704-4.593-5.509-4.373C843.738,429.101,843.006,432.263,843.006,432.263z"/>
				<path style="fill:#FFFFFF;" d="M821.338,430.001c0,0,1.268,1.905,4.135,1.968c3.991,0.088,5.911-0.977,5.911-0.977
					s-1.704-4.593-5.509-4.373C822.071,426.84,821.338,430.001,821.338,430.001z"/>
				<path style="fill:#0D714A;" d="M850.001,431.726c-0.103,1.478-1.384,2.592-2.862,2.49c-1.478-0.103-2.592-1.384-2.49-2.862
					c0.103-1.478,1.384-2.592,2.862-2.49C848.989,428.967,850.104,430.248,850.001,431.726z"/>
				<path style="fill:#A84732;" d="M843.294,422.577c-1.229,0.044-2.282,1.034-2.245,2.263c0.065,1.388,2.912-0.308,7.561,0.422
					c4.649,0.73,7.352,1.841,7.352,1.841S853.792,422.198,843.294,422.577z"/>
				<path style="fill:#0D714A;" d="M823.029,429.096c-0.103,1.478,1.012,2.759,2.49,2.862c1.478,0.103,2.759-1.012,2.862-2.49
					c0.103-1.478-1.012-2.759-2.49-2.862S823.132,427.618,823.029,429.096z"/>
				<path style="fill:#A84732;" d="M831.68,421.77c1.206,0.215,2.106,1.343,1.899,2.551c-0.257,1.366-2.841-0.708-7.547-0.628
					c-4.706,0.08-5.106,0.975-5.106,0.975S821.497,419.953,831.68,421.77z"/>
				<path style="fill:#FFA7B6;" d="M854.524,438.313c-0.064,0.925-1.825,1.556-3.932,1.41c-2.108-0.147-3.764-1.015-3.7-1.94
					c0.064-0.925,1.825-1.556,3.932-1.41C852.931,436.519,854.588,437.388,854.524,438.313z"/>
				<path style="fill:#FFA7B6;" d="M827.776,436.454c-0.064,0.925-1.825,1.556-3.932,1.41c-2.107-0.147-3.764-1.015-3.7-1.94
					c0.064-0.925,1.825-1.556,3.932-1.41C826.184,434.66,827.84,435.529,827.776,436.454z"/>
				<path style="fill:#FFFFFF;" d="M846.178,430.433c0.033-0.476-0.326-0.889-0.802-0.922c-0.476-0.033-0.889,0.326-0.922,0.802
					c-0.033,0.476,0.326,0.889,0.802,0.922C845.732,431.268,846.145,430.909,846.178,430.433z"/>
				<path style="fill:#FFFFFF;" d="M824.832,428.083c0.033-0.476-0.326-0.889-0.802-0.922s-0.889,0.326-0.922,0.802
					c-0.033,0.476,0.326,0.889,0.802,0.922C824.386,428.918,824.799,428.559,824.832,428.083z"/>
				<g>
					<path style="fill:#2E2727;" d="M852.749,433.394c-0.019-1.586-1.74-4.105-5.212-4.15c-0.024,0-0.047-0.001-0.071-0.001
						c-3.405,0-4.085,3.231-4.112,3.37l-0.639-0.515c0.008-0.04,0.717-3.608,4.75-3.608c0.028,0,0.054,0,0.081,0
						c3.974,0.052,5.859,2.863,5.882,4.746L852.749,433.394z"/>
				</g>
				<g>
					<path style="fill:#2E2727;" d="M831.188,431.081c-0.036-0.147-0.944-3.595-4.44-4.037c-4.002-0.51-4.96,2.426-5.097,3.33
						l-0.536-0.523c0.336-2.21,2.008-4.038,5.728-3.554c4.015,0.508,5.068,4.563,5.078,4.603L831.188,431.081z"/>
				</g>
				<path style="fill:#A84732;" d="M862.679,407.698c0,0-9.477,11.625-22.32,12.208c-12.843,0.583-23.879,0.44-27.818,5.979
					c0,0-4.494-21.737,17.227-25.29C851.49,397.041,862.679,407.698,862.679,407.698z"/>
				<path style="fill:#A84732;" d="M862.233,410.963c0,0,4.006-3.695-6.239-11.216c-10.245-7.521-30.026-3.434-33.788,7.358
					C818.444,417.896,862.233,410.963,862.233,410.963z"/>
				<path style="fill:#FFC6A4;" d="M798.996,570.759c0,0-4.977,0.265-13.043-1.578c-8.066-1.843-24.174,3.389-25.201,7.804
					c-1.027,4.415,23.184,3.294,23.184,3.294l19.785-0.029L798.996,570.759z"/>
				<path style="fill:#FD914E;" d="M885.339,485.946c-4.966-1.617-11.774,1.119-15.577,15.448
					c-6.999,26.372-0.316,53.863-9.838,55.733c-10.752,2.112-63.348,9.912-63.348,9.912l0.844,14.308c0,0,46.208,2.476,61.607,2.194
					c14.527-0.266,26.412,5.605,36.522-36.721C901.786,520.711,904.99,492.346,885.339,485.946z"/>
				<polygon style="fill:#FFAE60;" points="822.206,486.327 836.453,477.976 846.409,488.148 832.506,494.089 				"/>
				<g>
					<path style="fill:#FA8F4B;" d="M837.247,492.113c-0.909,0-1.825-0.056-2.745-0.177c-12.468-1.643-12.842-12.869-12.844-12.982
						l1.096-0.023c0.01,0.424,0.374,10.401,11.891,11.918c13.172,1.735,26.115-10.82,26.244-10.947l0.77,0.781
						C861.153,481.18,849.884,492.113,837.247,492.113z"/>
				</g>
				<path style="fill:#E8E8E8;" d="M827.495,482.526c0,0,3.652,5.363,8.64,5.363c4.824,0,8.228-2.354,8.228-2.354l-7.909-7.559
					L827.495,482.526z"/>
				<path style="fill:#FFFFFF;" d="M836.453,477.976c0,0-4.318-1.46-5.36-8.946l-9.213,5.324c0,0-1.432,6.619,5.051,11.655
					L836.453,477.976z"/>
				<path style="fill:#344B4F;" d="M730.153,638.588c0,0,41.256,19.764,62.511,44.126c0,0,7.614-15.629,23.818-18.091
					c24.582-3.734,66.343,1.145,73.177-17.004c6.835-18.149-9.597-54.701-9.597-54.701s-44.916,9.238-69.595-4.738
					c0,0-1.133,19.909-40.516,31.926C740.939,628.958,730.153,638.588,730.153,638.588z"/>
				<g>
					<g>
						<polygon style="fill:#FFFFFF;" points="831.601,525.454 819.018,479.383 820.077,479.094 832.129,523.219 869.551,481.322 
							870.797,481.574 						"/>
					</g>
					
						<rect x="817.149" y="527.271" transform="matrix(0.1207 -0.9927 0.9927 0.1207 196.5953 1297.0713)" style="fill:#EA5B61;" width="26.651" height="20.579"/>
					
						<rect x="819.343" y="529.465" transform="matrix(-0.1207 0.9927 -0.9927 -0.1207 1464.3502 -221.9526)" style="fill:#FFFFFF;" width="22.263" height="16.192"/>
					
						<rect x="830.483" y="522.918" transform="matrix(-0.1207 0.9927 -0.9927 -0.1207 1457.4824 -231.9213)" style="fill:#9A9AA0;" width="1.94" height="13.197"/>
					
						<rect x="829.958" y="527.236" transform="matrix(-0.1207 0.9927 -0.9927 -0.1207 1461.1753 -226.5652)" style="fill:#9A9AA0;" width="1.94" height="13.197"/>
					
						<rect x="829.503" y="530.962" transform="matrix(-0.1207 0.9927 -0.9927 -0.1207 1464.3772 -221.9268)" style="fill:#9A9AA0;" width="1.94" height="13.197"/>
					
						<rect x="829.073" y="534.506" transform="matrix(-0.1208 0.9927 -0.9927 -0.1208 1467.4177 -217.5244)" style="fill:#9A9AA0;" width="1.94" height="13.197"/>
					
						<rect x="828.618" y="538.232" transform="matrix(-0.1207 0.9927 -0.9927 -0.1207 1470.5586 -212.9374)" style="fill:#9A9AA0;" width="1.94" height="13.197"/>
				</g>
				<path style="fill:#FFFFFF;" d="M855.759,466.949l9.246,11.805c0,0-6.416,6.62-24.047,9.135l-4.505-9.913
					C836.453,477.976,853.446,474.929,855.759,466.949z"/>
				<path style="fill:#A84732;" d="M859.144,439.572c0,0-3.901,19.711-12.735,28.285c0,0,4.082,2.622,13.892,2.736
					c9.81,0.115,17.495,0.95,15.533-8.215c-1.962-9.165-5.457-28.47-8.37-42.28C864.552,406.288,859.144,439.572,859.144,439.572z"
					/>
				<path style="fill:#A84732;" d="M855.994,412.854c0,0,1.016,24.451,7.73,21.368c6.714-3.082,4.941-5.605,2.99-19.923
					C865.422,404.816,855.994,412.854,855.994,412.854z"/>
				<path style="fill:#D4604B;" d="M860.301,414.871c0,0,5.419,12.315,5.121,25.533c-0.298,13.218-1.851,22.701-1.851,22.701
					s3.434-15.499,2.616-28.882C865.37,420.839,860.301,414.871,860.301,414.871z"/>
				<path style="fill:#78271B;" d="M859.144,415.198c0,0,1.046,10.129,3.86,16.356c2.814,6.227-5.362,29.016-2.316,34.82
					c0,0,2.342-17.166,3.7-23.837C866.964,429.89,860.031,420.921,859.144,415.198z"/>
				<path style="fill:#78271B;" d="M862.233,413.859c0,0,3.245,8.237,3.955,16.514c1.451,16.934,2.698,36.576,2.698,36.576
					s0.48-20.019-0.763-36.576C867.295,419.363,862.233,413.859,862.233,413.859z"/>
				<path style="fill:#FFC6A4;" d="M860.078,432.398c0,0,1.744-2.955,5.248-1.801c4.668,1.536-3.697,16.464-6.57,11.208
					C855.884,436.549,860.078,432.398,860.078,432.398z"/>
				<path style="fill:#F6D5C4;" d="M860.078,432.398c0,0,1.744-2.955,5.248-1.801c4.668,1.536-3.697,16.464-6.57,11.208
					C855.884,436.549,860.078,432.398,860.078,432.398z"/>
				<g>
					<path style="fill:#D97F6E;" d="M861.924,440.712c-0.143,0-0.251-0.053-0.331-0.117c-0.246-0.201-0.398-0.461-0.532-0.692
						c-0.168-0.287-0.28-0.466-0.467-0.514c-0.251-0.064-0.69,0.084-1.295,0.443l-0.311-0.521c0.782-0.465,1.33-0.623,1.757-0.51
						c0.441,0.114,0.652,0.477,0.838,0.795c0.119,0.204,0.232,0.396,0.393,0.527c0.139-0.022,0.887-0.639,1.764-2.053
						c0.884-1.422,1.735-3.454,1.231-4.502c-0.219-0.456-0.516-0.726-0.909-0.824c-0.787-0.199-1.82,0.376-2.149,0.614l-0.357-0.49
						c0.057-0.043,1.432-1.024,2.654-0.713c0.569,0.143,1.009,0.53,1.308,1.149c0.934,1.944-1.614,6.083-2.906,7.098
						C862.325,440.633,862.099,440.712,861.924,440.712z"/>
				</g>
				<g>
					
						<rect x="730.117" y="568.708" transform="matrix(0.9961 -0.0886 0.0886 0.9961 -48.0109 66.9723)" style="fill:#E07A3D;" width="1.096" height="11.57"/>
				</g>
				<g>
					
						<rect x="800.189" y="566.473" transform="matrix(0.9982 -0.0608 0.0608 0.9982 -33.4009 49.7184)" style="fill:#E07A3D;" width="1.096" height="15.084"/>
				</g>
				<g>
					<path style="fill:#E07A3D;" d="M848.255,592.914c-2.868,0-5.643-0.1-8.181-0.341c-15.448-1.462-28.9-6.628-29.035-6.679
						l0.397-1.024c0.132,0.052,13.451,5.164,28.741,6.611c15.302,1.445,39.438-2.244,39.681-2.28l0.168,1.083
						C879.823,590.316,862.841,592.914,848.255,592.914z"/>
				</g>
				<g>
					<path style="fill:#203437;" d="M793.864,680.696c-10.366-17.536-60.788-43.719-61.272-43.964l1.504-1.016
						c1.988,1.006,50.152,25.808,60.68,43.618L793.864,680.696z"/>
				</g>
				<g>
					<path style="fill:#203437;" d="M807.578,630.851c-0.158-0.047-15.995-4.729-32.018-7.109c-5.918-0.88-6.238-1.719-6.375-2.077
						c-0.108-0.282-0.054-0.582,0.147-0.824c1.704-2.048,21.337-1.732,49.445,3.435l-0.199,1.079
						c-29.231-5.374-45.742-5.04-48.162-3.961c0.448,0.242,1.735,0.732,5.305,1.263c16.103,2.392,32.012,7.096,32.171,7.142
						L807.578,630.851z"/>
				</g>
				<path style="fill:#78271B;" d="M855.962,413.859c0,0,4.431-1.926,7.042-4.177C863.004,409.682,856.528,411.539,855.962,413.859z
					"/>
				<path style="fill:#78271B;" d="M853.516,411.771c0,0-7.472,3.101-18.942,2.855c-11.47-0.245-17.683,0.409-20.626,4.823
					c0,0,3.975-3.907,20.626-3.27C851.225,416.817,853.516,411.771,853.516,411.771z"/>
				<path style="fill:#78271B;" d="M855.962,408.495c0,0-6.452-4.006-16.181-1.717s-20.234,1.717-20.234,1.717
					s10.723,1.811,21.411,0.064C851.646,406.811,855.962,408.495,855.962,408.495z"/>
				<path style="fill:#78271B;" d="M860.301,408.904c0,0-2.55-6.377-14.188-7.685c-9.622-1.081-17.013,0.736-17.013,0.736
					s5.216-3.42,17.309-2.405C858.503,400.565,860.301,408.904,860.301,408.904z"/>
				<path style="fill:#78271B;" d="M851.962,464.658c0,0,5.216-4.868,7.636-20.063C859.598,444.595,860.955,460.162,851.962,464.658
					z"/>
				<path style="fill:#D4604B;" d="M858.653,408.25c0,0-4.246-4.745-12.54-6.009c-8.132-1.239-18.777-0.018-23.09,2.29
					c0,0,10.175-2.182,21.731-1.002C854.579,404.531,858.653,408.25,858.653,408.25z"/>
				<path style="fill:#D4604B;" d="M854.824,410.089c0,0-4.88-1.406-10.07,0c-8.825,2.391-23.653-1.165-28.496,3.495
					c0,0,6.314-2.008,17.474-0.981C846.113,413.742,844.646,408.863,854.824,410.089z"/>
				<path style="fill:#FFAE60;" d="M862.283,443.053c0,1.251-1.015,2.266-2.266,2.266s-2.266-1.015-2.266-2.266
					c0-1.252,1.015-2.266,2.266-2.266S862.283,441.801,862.283,443.053z"/>
				<path style="fill:#FFFFFF;" d="M860.301,442.062c0,0.704-0.571,1.275-1.275,1.275c-0.704,0-1.275-0.571-1.275-1.275
					c0-0.704,0.571-1.275,1.275-1.275C859.73,440.787,860.301,441.358,860.301,442.062z"/>
				<path style="opacity:0.15;fill:#344B4F;" d="M810.468,588.179c0,0-1.982,2.671-6.182,6.643
					c4.997,2.972,15.998,8.211,37.455,13.266c32.458,7.647,23.491,36.914-11.266,41.533c-26.016,3.457-43.922,8.663-54.834,16.708
					c2.546,2.504,14.549,13.548,17.024,16.384c0,0,8.531-16.384,23.818-18.091c24.71-2.759,66.343,1.145,73.177-17.004
					c6.835-18.149-9.597-54.701-9.597-54.701S835.146,602.156,810.468,588.179z"/>
			</g>
			<g>
				<path style="fill:#282E39;" d="M915.296,684.362c-1.27,0-2.449-0.812-2.858-2.086c-1.091-3.393,0.012-39.757,0.638-57.852
					c-35.367-7.047-69.357-1.585-78.116,0.07c-1.021,19.188,6.742,55.854,6.824,56.237c0.346,1.621-0.688,3.218-2.311,3.564
					c-1.608,0.349-3.217-0.687-3.564-2.311c-0.355-1.662-8.668-40.934-6.763-60.281c0.127-1.288,1.066-2.352,2.33-2.635
					c1.705-0.385,42.248-9.29,85.324-0.007c1.422,0.307,2.42,1.588,2.368,3.042c-0.734,20.767-1.646,54.911-0.981,58.433
					c0.442,1.55-0.424,3.183-1.97,3.68C915.91,684.315,915.601,684.362,915.296,684.362z M918.156,680.438
					c0.007,0.02,0.013,0.041,0.02,0.062C918.169,680.477,918.163,680.456,918.156,680.438z"/>
			</g>
			<g>
				<polygon style="fill:#9B765D;" points="548.742,617.194 834.559,617.194 828.974,590.795 558.897,587.299 				"/>
				<polygon style="fill:#5F3C1A;" points="863.724,799.673 842.943,590.795 825.001,590.795 846.306,799.673 				"/>
				<polygon style="fill:#986E4B;" points="855.601,799.673 834.821,590.795 824.652,590.795 845.957,799.673 				"/>
				<polygon style="fill:#8A5D33;" points="717.47,799.673 696.69,590.795 678.747,590.795 700.052,799.673 				"/>
				<rect x="519.576" y="580.25" style="fill:#8A5D33;" width="344.148" height="14.099"/>
				<polygon style="fill:#B98C6C;" points="394.627,617.194 685.627,617.194 680.042,590.795 404.783,587.299 				"/>
				<polygon style="fill:#DFA77B;" points="709.348,799.673 688.567,590.795 678.398,590.795 699.703,799.673 				"/>
				<polygon style="fill:#DFA77B;" points="365.2,799.673 385.98,590.795 399.45,590.795 378.145,799.673 				"/>
				<polygon style="fill:#8A5D33;" points="375.914,799.673 396.694,590.795 404.272,590.795 382.967,799.673 				"/>
				<rect x="365.2" y="580.25" style="fill:#DFA77B;" width="344.148" height="14.099"/>
			</g>
			<g>
				<rect x="471.332" y="462.378" style="fill:#756D70;" width="112.787" height="85.325"/>
				<rect x="466.647" y="462.378" style="fill:#9A9AA0;" width="112.788" height="85.325"/>
				<path style="opacity:0.25;fill:#9A9AA0;" d="M552.553,519.595c-16.206,25.016-63.293,20.531-85.906,19.033v9.074h112.788
					v-85.325h-17.83C563.109,477.714,566.4,498.221,552.553,519.595z"/>
				<polygon style="fill:#5A5A5A;" points="523.659,580.279 499.228,580.279 514.195,501.164 538.627,501.164 				"/>
				<polygon style="fill:#756D70;" points="520.289,580.279 495.857,580.279 510.825,501.164 535.256,501.164 				"/>
				<rect x="503.462" y="575.732" style="fill:#756D70;" width="46.855" height="4.546"/>
				<path style="fill:#756D70;" d="M526.889,488.148c0-2.126-1.723-3.849-3.849-3.849c-2.126,0-3.849,1.723-3.849,3.849
					c0,2.126,1.723,3.849,3.849,3.849C525.166,491.997,526.889,490.274,526.889,488.148z"/>
			</g>
			<g>
				<rect x="669.117" y="462.378" style="fill:#756D70;" width="112.788" height="85.325"/>
				<rect x="664.432" y="462.378" style="fill:#9A9AA0;" width="112.787" height="85.325"/>
				<path style="opacity:0.25;fill:#9A9AA0;" d="M750.338,519.595c-16.206,25.016-63.293,20.531-85.906,19.033v9.074h112.788
					v-85.325h-17.83C760.894,477.714,764.185,498.221,750.338,519.595z"/>
				<polygon style="fill:#5A5A5A;" points="721.445,580.279 697.013,580.279 711.981,501.164 736.412,501.164 				"/>
				<polygon style="fill:#756D70;" points="718.074,580.279 693.642,580.279 708.61,501.164 733.042,501.164 				"/>
				<rect x="701.247" y="575.732" style="fill:#756D70;" width="46.855" height="4.546"/>
				<circle style="fill:#756D70;" cx="720.826" cy="488.148" r="3.849"/>
			</g>
			<g>
				<rect x="636.652" y="292.062" style="fill:#4E555E;" width="81.885" height="6.889"/>
				<rect x="636.652" y="273.145" style="fill:#2E343B;" width="81.885" height="6.889"/>
				<rect x="650.431" y="268.048" style="fill:#2E343B;" width="54.328" height="6.89"/>
				<g>
					<rect x="608.475" y="276.59" style="fill:#4E555E;" width="4.656" height="17.954"/>
					<path style="fill:#4E555E;" d="M611.399,285.566c0,4.958-1.309,8.977-2.924,8.977c-1.615,0-2.924-4.019-2.924-8.977
						c0-4.958,1.309-8.977,2.924-8.977C610.09,276.59,611.399,280.609,611.399,285.566z"/>
				</g>
				<path style="fill:#282E39;" d="M746.987,296.196h-91.875c-1.868,0-3.383-1.514-3.383-3.383V278.32
					c0-1.868,1.514-3.383,3.383-3.383h91.875c1.868,0,3.383,1.514,3.383,3.383v14.493
					C750.37,294.681,748.855,296.196,746.987,296.196z"/>
				<path style="fill:#3C424B;" d="M693.436,296.196h-79.149c-1.739,0-3.148-1.41-3.148-3.148v-14.962
					c0-1.739,1.409-3.148,3.148-3.148h79.149c1.739,0,3.148,1.409,3.148,3.148v14.962
					C696.584,294.786,695.175,296.196,693.436,296.196z"/>
				<rect x="711.451" y="282.023" style="fill:#575D63;" width="9.448" height="7.086"/>
				<rect x="730.151" y="282.023" style="fill:#575D63;" width="9.448" height="7.086"/>
				<rect x="673.918" y="249.095" style="fill:#2E343B;" width="7.354" height="20.656"/>
				<g>
					<path style="fill:#2E343B;" d="M716.297,285.99l-0.244-0.846c0.024-0.008,2.5-0.759,4.025-3.56
						c1.566-2.876,1.625-6.815,0.172-11.707c-2.139-7.208-11.728-8.331-21.881-9.519c-7.918-0.928-16.106-1.885-20.589-6.032
						l0.598-0.646c4.272,3.951,12.316,4.893,20.094,5.803c9.99,1.169,20.319,2.378,22.623,10.142
						c1.525,5.138,1.439,9.311-0.256,12.402C719.129,285.146,716.411,285.957,716.297,285.99z"/>
				</g>
				<g>
					<path style="fill:#2E343B;" d="M734.928,285.99l-0.244-0.846c0.024-0.008,2.5-0.759,4.025-3.56
						c1.566-2.876,1.625-6.815,0.172-11.707c-4.034-13.596-49.452-14.284-58.516-14.284v-0.88c12.888,0,55.254,1.076,59.361,14.913
						c1.524,5.138,1.438,9.311-0.256,12.402C737.761,285.146,735.043,285.957,734.928,285.99z"/>
				</g>
			</g>
			<g>
				<g>
					<path style="fill:#F1F3F2;" d="M628.222,575.118l-0.748-2.063c2.035-0.739,7.523-3.22,8.452-5.784
						c0.199-0.547,0.151-1.042-0.15-1.559c-0.233-0.4-0.515-0.614-0.918-0.694c-1.383-0.276-3.564,1.096-4.217,1.598l-1.335-1.741
						c0.339-0.26,3.386-2.522,5.978-2.01c1.017,0.201,1.843,0.804,2.389,1.743c0.625,1.075,0.735,2.255,0.314,3.411
						C636.544,572.001,629.069,574.81,628.222,575.118z"/>
				</g>
				<path style="fill:#F1F3F2;" d="M619.673,579.972h-2.453c-6.411,0-11.609-5.197-11.609-11.609v-7.453h25.67v7.453
					C631.282,574.775,626.084,579.972,619.673,579.972z"/>
				<path style="fill:#E2E2E2;" d="M617.22,579.972h2.453c6.411,0,11.609-5.197,11.609-11.609v-7.453h-3.898
					c-2.451,12.602-14.188,13.753-20.055,13.507C609.37,577.745,613.031,579.972,617.22,579.972z"/>
				<polygon style="fill:#D9DADF;" points="638.639,577.567 598.254,577.567 603.738,580.279 633.155,580.279 				"/>
			</g>
			<g>
				<g>
					<path style="fill:#F1F3F2;" d="M811.458,575.118l-0.748-2.063c2.035-0.739,7.523-3.22,8.452-5.784
						c0.199-0.547,0.151-1.042-0.15-1.559c-0.232-0.399-0.515-0.613-0.917-0.694c-1.38-0.269-3.563,1.098-4.22,1.599l-1.334-1.742
						c0.339-0.26,3.381-2.522,5.978-2.01c1.017,0.201,1.843,0.803,2.39,1.743c0.625,1.075,0.735,2.255,0.314,3.411
						C819.779,572.001,812.305,574.81,811.458,575.118z"/>
				</g>
				<path style="fill:#F1F3F2;" d="M802.908,579.972h-2.453c-6.411,0-11.609-5.197-11.609-11.609v-7.453h25.67v7.453
					C814.517,574.775,809.319,579.972,802.908,579.972z"/>
				<path style="fill:#E2E2E2;" d="M800.455,579.972h2.453c6.411,0,11.609-5.197,11.609-11.609v-7.453h-3.898
					c-2.451,12.602-14.188,13.753-20.055,13.507C792.605,577.745,796.266,579.972,800.455,579.972z"/>
				<polygon style="fill:#D9DADF;" points="821.874,577.567 781.489,577.567 786.973,580.279 816.39,580.279 				"/>
			</g>
		</g>
		<g>
			<path style="fill:#EEEEEE;" d="M791.753,341.714h-76.061c-5.616,0-10.169,3.917-10.169,8.748v44.418
				c0,4.831,4.553,8.748,10.169,8.748h63.138l23.092,19.184v-27.932v-44.418C801.921,345.63,797.369,341.714,791.753,341.714z"/>
			<rect x="722.669" y="356.421" style="fill:#8A97A6;" width="57.991" height="3.041"/>
			<rect x="722.669" y="366.22" style="fill:#8A97A6;" width="57.991" height="3.041"/>
			<rect x="722.669" y="376.019" style="fill:#8A97A6;" width="57.991" height="3.041"/>
			<rect x="722.669" y="385.818" style="fill:#8A97A6;" width="57.991" height="3.041"/>
		</g>
	</g>
</g>
</svg>
