<svg id="Layer_1" viewBox="0 0 512 512" xmlns="http://www.w3.org/2000/svg" xmlns:xlink="http://www.w3.org/1999/xlink" data-name="Layer 1"><linearGradient id="linear-gradient" gradientUnits="userSpaceOnUse" x1="35.508" x2="476.492" y1="256" y2="256"><stop offset=".016" stop-color="#e65233"/><stop offset="1" stop-color="#f9a82d"/></linearGradient><path d="m395.559 220.066-8.104 14.037c-1.483 2.569-3.505 4.593-5.902 5.977-.546.315-1.109.598-1.687.846v14.403c0 .742.183 1.387.513 1.881.348.521.87.945 1.527 1.217 4.102 1.697 7.581 4.576 10.007 8.206 2.377 3.557 3.764 7.806 3.764 12.349 0 6.144-2.491 11.708-6.519 15.735s-9.591 6.519-15.735 6.519-11.708-2.491-15.736-6.519c-4.027-4.027-6.519-9.591-6.519-15.735 0-3.558 2.885-6.443 6.443-6.443s6.443 2.885 6.443 6.443c0 2.588 1.049 4.93 2.743 6.625 1.695 1.695 4.037 2.743 6.625 2.743s4.93-1.049 6.625-2.743 2.743-4.037 2.743-6.625c0-1.95-.571-3.738-1.55-5.202-1.032-1.544-2.499-2.763-4.219-3.474-3.076-1.273-5.577-3.347-7.315-5.948-1.757-2.627-2.728-5.729-2.728-9.028v-14.403c-.578-.249-1.14-.531-1.687-.846l.006-.011c-2.413-1.397-4.438-3.418-5.909-5.966l-7.91-13.701c-.071-.107-.14-.217-.205-.33l-8.116-14.056.011-.006-.011-.019c-1.485-2.572-2.227-5.33-2.227-8.086s.743-5.515 2.227-8.087c1.483-2.569 3.505-4.593 5.902-5.977 1.202-.694 2.484-1.229 3.826-1.593v-33.679h-131.459v289.336h19.187c5.23 0 9.98 2.135 13.419 5.574s5.575 8.189 5.575 13.419v32.658c0 3.558-2.885 6.443-6.443 6.443h-145.346c-3.558 0-6.443-2.885-6.443-6.443v-32.658c0-5.23 2.135-9.98 5.575-13.419s8.19-5.574 13.419-5.574h19.187v-289.337h-28.459v14.68c0 3.558-2.885 6.443-6.443 6.443h-62.703c-3.558 0-6.443-2.885-6.443-6.443v-87.454c0-3.558 2.885-6.443 6.443-6.443h60.684l74.157-52.181c1.744-1.227 3.887-1.465 5.763-.831l217.846 74.134h34.793c2.258 0 4.244 1.161 5.394 2.919l34.563 44.807c2.168 2.808 1.65 6.842-1.158 9.01-1.17.904-2.554 1.34-3.926 1.339v.02h-76.111v33.679c1.341.364 2.623.898 3.826 1.593 2.398 1.384 4.419 3.408 5.902 5.977 1.485 2.572 2.228 5.33 2.228 8.087 0 2.605-.664 5.212-1.99 7.661-.073.152-.152.302-.238.45l-8.116 14.056-.011-.006zm-29.785-38.385h15.298v-33.112h-15.298zm-5.295-91.207-167.407-56.97 27.949 56.97zm-196.792-48.355-52.59 37.005v11.35h28.867zm43.041 48.355-26.236-53.477-26.236 53.477h52.471zm-95.631 12.886v20.296l27.136-20.296zm97.446 45.209h-45.924l45.924 41.841zm-92.029-12.886h82.163l-41.082-30.727-6.459 4.831c-.13.105-.264.205-.402.301l-.679.508c-.133.108-.27.21-.411.307zm120.889 0h82.163l-41.081-30.727-41.081 30.727zm120.889 0h98.694l-24.934-32.323h-30.545l-43.216 32.323zm21.718-32.323h-82.163l41.081 30.727 41.081-30.727zm-120.889 0h-82.163l41.081 30.727 41.081-30.727zm-106.68 53.337v91.747l50.349-45.873zm0 120.889v91.747l50.349-45.873-50.349-45.873zm0 120.889v39.43h43.278zm56.102 33.713v-96.568l-52.995 48.284zm0-120.889v-96.568l-52.995 48.284zm138.843 112.783-20.064-11.584c-2.15-1.044-3.632-3.249-3.632-5.799v-24.62l-14.54-8.395v72.609l62.825 36.272v-72.609l-14.54-8.395v17.18c0 3.558-2.885 6.443-6.443 6.443-1.336 0-2.577-.407-3.607-1.104zm-10.81-21.085 7.973 4.603v-13.478l-7.973-4.603zm14.416-19.969 62.87-36.297-.809-.467.006-.011-7.214-4.165-62.882 36.305 8.029 4.636zm75.7-28.89-62.87 36.297 14.596 8.427 62.869-36.297zm-96.559 16.846 62.882-36.304-14.596-8.427-34.305 19.805c-.107.071-.217.14-.33.205l-28.235 16.301 14.583 8.42zm117.554 2.701-62.825 36.272v72.609l62.825-36.272z" fill="url(#linear-gradient)" fill-rule="evenodd"/></svg>