<svg height="512" viewBox="0 0 48 48" width="512" xmlns="http://www.w3.org/2000/svg"><g id="Line"><path d="m43.78 32.13-9.73-5.67a3.32 3.32 0 0 0 -1.69-.46 3.37 3.37 0 0 0 -3.36 3.36v.57a4.74 4.74 0 0 1 -1.47-2l-1.59-4.25a1 1 0 0 0 -.94-.68h-3.18v-9.07a1 1 0 0 0 -.17-.56 14.48 14.48 0 0 0 -12.01-6.37h-2.64a5 5 0 0 0 0 10h2.15a4.77 4.77 0 0 1 4.41 2.94l1.85 4.44a1 1 0 0 0 .92.62h3.49v9.07a1 1 0 0 0 .17.56 14.6 14.6 0 0 0 9 6.06v2a3.36 3.36 0 0 0 5.06 2.9l9.72-5.67a4.48 4.48 0 0 0 0-7.74z" fill="#f0ab00"/><path d="m43.78 8.13-9.73-5.67a3.32 3.32 0 0 0 -1.69-.46 3.37 3.37 0 0 0 -3.36 3.36v1.95a14.61 14.61 0 0 0 -10.38 8.61l-5.06 12.14a4.77 4.77 0 0 1 -4.41 2.94h-2a5.14 5.14 0 0 0 -5.15 4.51 5 5 0 0 0 5 5.49h2.64a14.56 14.56 0 0 0 13.58-9.41l4.31-11.49a4.74 4.74 0 0 1 1.47-2v.57a3.36 3.36 0 0 0 5.06 2.9l9.72-5.67a4.48 4.48 0 0 0 0-7.74z" fill="#f5c12e"/></g></svg>