<svg id="Capa_1" enable-background="new 0 0 512 512" height="512" viewBox="0 0 512 512" width="512" xmlns="http://www.w3.org/2000/svg" xmlns:xlink="http://www.w3.org/1999/xlink"><linearGradient id="lg1"><stop offset="0" stop-color="#7b7da1"/><stop offset=".3104" stop-color="#6d6f93"/><stop offset=".8987" stop-color="#494c6d"/><stop offset="1" stop-color="#424566"/></linearGradient><linearGradient id="SVGID_1_" gradientTransform="matrix(1 0 0 -1 0 510)" gradientUnits="userSpaceOnUse" x1="256" x2="256" xlink:href="#lg1" y1="82.457" y2="12.655"/><linearGradient id="SVGID_2_" gradientTransform="matrix(1 0 0 -1 0 510)" gradientUnits="userSpaceOnUse" x1="1.039" x2="502.713" xlink:href="#lg1" y1="153.588" y2="74.631"/><linearGradient id="lg2"><stop offset="0" stop-color="#32365c"/><stop offset="1" stop-color="#32365c" stop-opacity="0"/></linearGradient><linearGradient id="SVGID_3_" gradientTransform="matrix(1 0 0 -1 0 510)" gradientUnits="userSpaceOnUse" x1="255.9" x2="255.9" xlink:href="#lg2" y1="79.153" y2="99.984"/><linearGradient id="lg3"><stop offset="0" stop-color="#a1a4c7"/><stop offset="1" stop-color="#a1a4c7" stop-opacity="0"/></linearGradient><linearGradient id="SVGID_4_" gradientTransform="matrix(1 0 0 -1 0 510)" gradientUnits="userSpaceOnUse" x1="2.623" x2="23.377" xlink:href="#lg3" y1="111.8" y2="111.8"/><linearGradient id="SVGID_5_" gradientTransform="matrix(1 0 0 -1 0 510)" gradientUnits="userSpaceOnUse" x1="510.385" x2="486.28" xlink:href="#lg2" y1="111.65" y2="111.65"/><linearGradient id="SVGID_6_" gradientTransform="matrix(1 0 0 -1 0 510)" gradientUnits="userSpaceOnUse" x1="255.95" x2="255.95" xlink:href="#lg3" y1="142.175" y2="122.619"/><linearGradient id="SVGID_7_" gradientTransform="matrix(1 0 0 -1 0 510)" gradientUnits="userSpaceOnUse" x1="248.002" x2="263.99" y1="118.748" y2="102.76"><stop offset=".00000039125" stop-color="#c4cbff"/><stop offset="1" stop-color="#e9edff"/></linearGradient><linearGradient id="SVGID_8_" gradientTransform="matrix(1 0 0 -1 0 510)" gradientUnits="userSpaceOnUse" x1="255.95" x2="255.95" xlink:href="#lg1" y1="16.668" y2="-2.275"/><linearGradient id="SVGID_9_" gradientTransform="matrix(1 0 0 -1 0 510)" gradientUnits="userSpaceOnUse" x1="30.97" x2="470.052" y1="522.793" y2="83.71"><stop offset="0" stop-color="#e9edff"/><stop offset="1" stop-color="#c4cbff"/></linearGradient><linearGradient id="lg4"><stop offset=".00000187801" stop-color="#a1b3ff"/><stop offset="1" stop-color="#a1b3ff" stop-opacity="0"/></linearGradient><linearGradient id="SVGID_10_" gradientTransform="matrix(1 0 0 -1 0 510)" gradientUnits="userSpaceOnUse" x1="518.026" x2="491.018" xlink:href="#lg4" y1="309" y2="309"/><linearGradient id="SVGID_11_" gradientTransform="matrix(1 0 0 -1 0 510)" gradientUnits="userSpaceOnUse" x1="255.95" x2="255.95" xlink:href="#lg4" y1="135.566" y2="162.41"/><linearGradient id="lg5"><stop offset=".00000211276" stop-color="#fff"/><stop offset="1" stop-color="#fff" stop-opacity="0"/></linearGradient><linearGradient id="SVGID_12_" gradientTransform="matrix(1 0 0 -1 0 510)" gradientUnits="userSpaceOnUse" x1="1.812" x2="21.334" xlink:href="#lg5" y1="308.95" y2="308.95"/><linearGradient id="SVGID_13_" gradientTransform="matrix(1 0 0 -1 0 510)" gradientUnits="userSpaceOnUse" x1="255.95" x2="255.95" xlink:href="#lg5" y1="482.729" y2="458.019"/><linearGradient id="SVGID_14_" gradientTransform="matrix(1 0 0 -1 0 510)" gradientUnits="userSpaceOnUse" x1="162.68" x2="401.437" xlink:href="#lg4" y1="436.897" y2="198.14"/><linearGradient id="SVGID_15_" gradientTransform="matrix(1 0 0 -1 0 510)" gradientUnits="userSpaceOnUse" x1="145.802" x2="368.634" xlink:href="#lg1" y1="453.721" y2="230.89"/><linearGradient id="SVGID_16_" gradientTransform="matrix(1 0 0 -1 0 510)" gradientUnits="userSpaceOnUse" x1="151.283" x2="373.403" y1="448.008" y2="225.887"><stop offset="0" stop-color="#a1ddff"/><stop offset="1" stop-color="#1c83ff"/></linearGradient><linearGradient id="lg6"><stop offset=".00000137427" stop-color="#c9ecff"/><stop offset="1" stop-color="#c9ecff" stop-opacity="0"/></linearGradient><linearGradient id="SVGID_17_" gradientTransform="matrix(1 0 0 -1 0 510)" gradientUnits="userSpaceOnUse" x1="137.098" x2="167.355" xlink:href="#lg6" y1="266.132" y2="280.577"/><linearGradient id="SVGID_18_" gradientTransform="matrix(1 0 0 -1 0 510)" gradientUnits="userSpaceOnUse" x1="133.01" x2="157.788" xlink:href="#lg6" y1="300.5" y2="300.5"/><linearGradient id="SVGID_19_" gradientTransform="matrix(1 0 0 -1 0 510)" gradientUnits="userSpaceOnUse" x1="146.437" x2="175.104" xlink:href="#lg6" y1="239.614" y2="267.44"/><linearGradient id="lg7"><stop offset=".00000211276" stop-color="#0047e0"/><stop offset="1" stop-color="#0047e0" stop-opacity="0"/></linearGradient><linearGradient id="SVGID_20_" gradientTransform="matrix(-1 0 0 -1 -5103.466 510)" gradientUnits="userSpaceOnUse" x1="-5469.102" x2="-5440.435" xlink:href="#lg7" y1="239.64" y2="267.466"/><linearGradient id="SVGID_21_" gradientTransform="matrix(1 0 0 -1 0 510)" gradientUnits="userSpaceOnUse" x1="382.257" x2="348.555" xlink:href="#lg7" y1="274.117" y2="285.351"/><linearGradient id="SVGID_22_" gradientTransform="matrix(-1 0 0 -1 -5103.466 510)" gradientUnits="userSpaceOnUse" x1="-5420.631" x2="-5409.567" xlink:href="#lg6" y1="455.686" y2="436.452"/><linearGradient id="SVGID_23_" gradientTransform="matrix(1 0 0 -1 0 510)" gradientUnits="userSpaceOnUse" x1="383.478" x2="354.122" xlink:href="#lg7" y1="300.5" y2="300.5"/><linearGradient id="SVGID_24_" gradientTransform="matrix(1 0 0 -1 0 510)" gradientUnits="userSpaceOnUse" x1="194.884" x2="205.948" xlink:href="#lg6" y1="455.687" y2="436.453"/><linearGradient id="SVGID_25_" gradientTransform="matrix(1 0 0 -1 0 510)" gradientUnits="userSpaceOnUse" x1="218.966" x2="326.002" xlink:href="#lg7" y1="362.97" y2="255.934"/><linearGradient id="SVGID_26_" gradientTransform="matrix(1 0 0 -1 0 510)" gradientUnits="userSpaceOnUse" x1="217.588" x2="303.544" y1="364.362" y2="278.406"><stop offset="0" stop-color="#ffed81"/><stop offset=".2348" stop-color="#ffd968"/><stop offset=".7302" stop-color="#ffa629"/><stop offset="1" stop-color="#ff8804"/></linearGradient><radialGradient id="SVGID_27_" cx="336.62" cy="410.27" gradientTransform="matrix(.707 .707 .725 -.725 -282.83 239.218)" gradientUnits="userSpaceOnUse" r="60.416"><stop offset=".7889" stop-color="#ff6b06" stop-opacity="0"/><stop offset="1" stop-color="#ff6b06"/></radialGradient><radialGradient id="SVGID_28_" cx="258.87" cy="323.342" gradientTransform="matrix(1 0 0 -1 0 510)" gradientUnits="userSpaceOnUse" r="58.221"><stop offset=".7745" stop-color="#fffcf0" stop-opacity="0"/><stop offset="1" stop-color="#fffcf0"/></radialGradient><linearGradient id="SVGID_29_" gradientTransform="matrix(1 0 0 -1 0 510)" gradientUnits="userSpaceOnUse" x1="245.141" x2="267.471" xlink:href="#lg1" y1="342.507" y2="320.177"/><g><g><g><path d="m154.35 493.8c23.4 0 44.7-13.3 54.9-34.3l14.1-29h65.3l14.1 29c10.2 21 31.6 34.3 54.9 34.3z" fill="url(#SVGID_1_)"/><g><path d="m471.05 430.5h-430.1c-21.1 0-38.2-17.1-38.2-38.2v-24.2h506.4v24.2c0 21.1-17 38.2-38.1 38.2z" fill="url(#SVGID_2_)"/><g><path d="m6.55 409c6.2 12.7 19.2 21.5 34.3 21.5h430.1c15.1 0 28.1-8.8 34.3-21.5z" fill="url(#SVGID_3_)"/><path d="m28.15 368.1h-25.4v24.2c0 16.6 10.6 30.7 25.4 36z" fill="url(#SVGID_4_)"/><path d="m482.85 368.1v60.5c15.3-5 26.4-19.3 26.4-36.3v-24.2z" fill="url(#SVGID_5_)"/><path d="m509.15 392.9c0-.2 0-.4 0-.6v-24.2h-506.4v24.2.6z" fill="url(#SVGID_6_)"/></g></g><circle cx="256.05" cy="399.3" fill="url(#SVGID_7_)" r="11.2"/><path d="m374.65 512h-237.4c-2.4 0-4.3-1.9-4.3-4.3 0-7.7 6.2-13.9 13.9-13.9h218.2c7.7 0 13.9 6.2 13.9 13.9 0 2.4-1.9 4.3-4.3 4.3z" fill="url(#SVGID_8_)"/><g><path d="m509.15 368.1h-506.4v-295.9c0-21.1 17.1-38.2 38.2-38.2h430.1c21.1 0 38.2 17.1 38.2 38.2v295.9z" fill="url(#SVGID_9_)"/><g><path d="m471.05 34h-28.4v334h66.6v-295.8c-.1-21.1-17.1-38.2-38.2-38.2z" fill="url(#SVGID_10_)"/><path d="m2.75 301.9h506.4v66.2h-506.4z" fill="url(#SVGID_11_)"/><path d="m79.25 34h-38.3c-21.1 0-38.2 17.1-38.2 38.2v295.9h76.5z" fill="url(#SVGID_12_)"/><path d="m509.15 73.8v-1.6c0-21.1-17.1-38.2-38.2-38.2h-430c-21.1 0-38.2 17.1-38.2 38.2v1.6z" fill="url(#SVGID_13_)"/></g></g></g><g><path d="m509.15 188.3v179.8h-282.8c-26.6-26.6-58-58-58.6-58.6-29.8-29.3-56.3-69.2-56.3-118.3v-102.4c0-8.2 4.5-15.8 11.7-19.7l64.5-35.1 57.6-31.3c3.3-1.8 7-2.7 10.7-2.7s7.4.9 10.7 2.7l57.6 31.3 64.5 35.1c2.6 1.4 4.8 3.3 6.6 5.5 1 .8 89 88.8 113.8 113.7z" fill="url(#SVGID_14_)"/><g><g><path d="m255.95 368.1c-3.2 0-6.5-.8-9.4-2.2-22.6-11.4-135.2-73.4-135.2-174.6v-102.5c0-8.2 4.5-15.8 11.7-19.7l122.2-66.4c3.3-1.8 7-2.7 10.7-2.7s7.4.9 10.7 2.7l122.1 66.4c7.2 3.9 11.7 11.5 11.7 19.7v102.4c0 101.3-112.6 163.3-135.2 174.6-2.8 1.5-6 2.3-9.3 2.3z" fill="url(#SVGID_15_)"/><g><path d="m257.25 344.2c-.8.4-1.8.4-2.6 0-11.5-6-41.2-22.7-68.2-48.5-34.5-33-52-68.1-52-104.4v-100.5c0-1 .6-2 1.5-2.5l118.7-64.6c.8-.5 1.8-.5 2.7 0l118.7 64.6c.9.5 1.5 1.4 1.5 2.5v100.4c0 36.3-17.5 71.4-52 104.4-27.1 25.8-56.8 42.6-68.3 48.6z" fill="url(#SVGID_16_)"/><g><path d="m284.35 327.8c-.8.4-1.8.4-2.6 0-11.4-6-41.2-22.7-68.2-48.6-34.5-32.9-52-68.1-52-104.4v-100.3l-25.6 13.9c-.9.5-1.5 1.4-1.5 2.5v100.4c0 36.3 17.5 71.4 52 104.4 27 25.8 56.8 42.6 68.2 48.5.8.4 1.8.4 2.6 0 5.9-3.1 16.6-9 29.3-17.5-.8.4-1.6.8-2.2 1.1z" fill="url(#SVGID_17_)"/><path d="m284.35 327.8c-.8.4-1.8.4-2.6 0-11.4-6-41.2-22.7-68.2-48.6-34.5-32.9-52-68.1-52-104.4v-100.3l-25.6 13.9c-.9.5-1.5 1.4-1.5 2.5v100.4c0 36.3 17.5 71.4 52 104.4 27 25.8 56.8 42.6 68.2 48.5.8.4 1.8.4 2.6 0 5.9-3.1 16.6-9 29.3-17.5-.8.4-1.6.8-2.2 1.1z" fill="url(#SVGID_18_)"/><path d="m284.35 327.8c-.8.4-1.8.4-2.6 0-11.4-6-41.2-22.7-68.2-48.6-34.5-32.9-52-68.1-52-104.4v-100.3l-25.6 13.9c-.9.5-1.5 1.4-1.5 2.5v100.4c0 36.3 17.5 71.4 52 104.4 27 25.8 56.8 42.6 68.2 48.5.8.4 1.8.4 2.6 0 5.9-3.1 16.6-9 29.3-17.5-.8.4-1.6.8-2.2 1.1z" fill="url(#SVGID_19_)"/><path d="m227.75 327.8c.8.4 1.8.4 2.6 0 11.4-6 41.2-22.7 68.2-48.6 34.5-32.9 52-68.1 52-104.4v-100.3l25.6 13.9c.9.5 1.5 1.4 1.5 2.5v100.4c0 36.3-17.5 71.4-52 104.4-27 25.8-56.8 42.6-68.2 48.5-.8.4-1.8.4-2.6 0-5.9-3.1-16.6-9-29.3-17.5.8.4 1.5.8 2.2 1.1z" fill="url(#SVGID_20_)"/><path d="m227.75 327.8c.8.4 1.8.4 2.6 0 11.4-6 41.2-22.7 68.2-48.6 34.5-32.9 52-68.1 52-104.4v-100.3l25.6 13.9c.9.5 1.5 1.4 1.5 2.5v100.4c0 36.3-17.5 71.4-52 104.4-27 25.8-56.8 42.6-68.2 48.5-.8.4-1.8.4-2.6 0-5.9-3.1-16.6-9-29.3-17.5.8.4 1.5.8 2.2 1.1z" fill="url(#SVGID_21_)"/><path d="m254.75 23.8c.8-.4 1.8-.4 2.7 0l118.7 64.6c.9.5 1.5 1.4 1.5 2.5v24.2l-145.4-79.1z" fill="url(#SVGID_22_)"/><path d="m227.75 327.8c.8.4 1.8.4 2.6 0 11.4-6 41.2-22.7 68.2-48.6 34.5-32.9 52-68.1 52-104.4v-100.3l25.6 13.9c.9.5 1.5 1.4 1.5 2.5v100.4c0 36.3-17.5 71.4-52 104.4-27 25.8-56.8 42.6-68.2 48.5-.8.4-1.8.4-2.6 0-5.9-3.1-16.6-9-29.3-17.5.8.4 1.5.8 2.2 1.1z" fill="url(#SVGID_23_)"/><path d="m257.35 23.8c-.8-.4-1.8-.4-2.7 0l-118.7 64.6c-.9.5-1.5 1.4-1.5 2.5v24.2l145.3-79.1z" fill="url(#SVGID_24_)"/></g></g></g><g><path d="m294.75 146.7c-9.8-10.2-23.5-16.5-38.8-16.5-29.7 0-53.8 24.1-53.8 53.8 0 15.2 6.3 29 16.5 38.8.4.4 64.7 64.8 88.7 88.7 6-4.8 12.1-10.1 18.1-15.8 23.9-22.8 39.6-46.6 47-71.2-30.5-30.6-77.4-77.5-77.7-77.8z" fill="url(#SVGID_25_)"/><g><g><circle cx="255.95" cy="184" fill="url(#SVGID_26_)" r="53.8"/><g><circle cx="255.95" cy="184" fill="url(#SVGID_27_)" r="53.8"/><circle cx="255.95" cy="184" fill="url(#SVGID_28_)" r="53.8"/></g></g><path d="m279.05 166.6c-1.4-1.4-3.6-1.4-4.9 0l-27.5 27.4-8.8-8.8c-1.4-1.4-3.6-1.4-4.9 0-1.4 1.4-1.4 3.6 0 4.9l11.3 11.3c.7.7 1.6 1 2.5 1s1.8-.3 2.5-1l29.9-29.9c1.2-1.4 1.2-3.6-.1-4.9z" fill="url(#SVGID_29_)"/></g></g></g></g></g></g></svg>