<svg id="Layer_1" enable-background="new 0 0 64 64" viewBox="0 0 64 64" xmlns="http://www.w3.org/2000/svg" xmlns:xlink="http://www.w3.org/1999/xlink"><linearGradient id="lg1"><stop offset="0" stop-color="#005667"/><stop offset="1" stop-color="#001433"/></linearGradient><linearGradient id="SVGID_1_" gradientUnits="userSpaceOnUse" x1="31.701" x2="53.496" xlink:href="#lg1" y1="27.905" y2="27.905"/><linearGradient id="SVGID_2_" gradientUnits="userSpaceOnUse" x1="1.656" x2="31.791" xlink:href="#lg1" y1="32.224" y2="32.224"/><linearGradient id="SVGID_3_" gradientUnits="userSpaceOnUse" x1="1.746" x2="53.496" y1="9.421" y2="9.421"><stop offset="0" stop-color="#80b1cd"/><stop offset="1" stop-color="#085588"/></linearGradient><linearGradient id="SVGID_4_" gradientUnits="userSpaceOnUse" x1="39.14" x2="63.085" y1="43.636" y2="43.636"><stop offset="0" stop-color="#fcc009"/><stop offset="1" stop-color="#ed6500"/></linearGradient><linearGradient id="SVGID_5_" gradientUnits="userSpaceOnUse" x1="32.29" x2="63.085" y1="26.577" y2="26.577"><stop offset="0" stop-color="#fcc009"/><stop offset="1" stop-color="#edb900"/></linearGradient><linearGradient id="SVGID_6_" gradientUnits="userSpaceOnUse" x1=".915" x2="38.717" y1="46.608" y2="46.608"><stop offset="0" stop-color="#5e9802"/><stop offset="1" stop-color="#507813"/></linearGradient><linearGradient id="SVGID_7_" gradientUnits="userSpaceOnUse" x1=".96" x2="38.717" y1="36.729" y2="36.729"><stop offset="0" stop-color="#9bd53b"/><stop offset="1" stop-color="#66a007"/></linearGradient><g><path d="m53.5 5.73-.09 31.74-21.71 12.61.09-31.74z" fill="url(#SVGID_1_)"/><path d="m31.79 18.34-.09 31.74-30.04-3.97.09-31.75z" fill="url(#SVGID_2_)"/><path d="m53.5 5.73-21.71 12.61-30.04-3.98c1.23-3.17 3.95-6.18 8.19-8.64 11.98-6.96 31.49-6.96 43.56.01z" fill="url(#SVGID_3_)"/><path d="m63.06 24.82c-.01.15-.02.31-.03.46-.01.14-.03.27-.05.41-.02.15-.04.31-.07.46-.03.14-.05.27-.09.41-.03.15-.07.3-.11.45-.04.14-.08.27-.12.41-.05.15-.09.3-.15.45-.05.13-.1.27-.15.4-.06.16-.13.31-.2.47-.06.13-.12.26-.18.39-.08.15-.16.31-.24.46-.07.13-.14.25-.21.37-.11.18-.22.36-.34.54-.07.11-.14.22-.22.33-.14.2-.28.4-.43.6-.07.09-.13.17-.19.26-.25.31-.52.63-.8.93-.07.08-.15.16-.22.23-.22.23-.46.47-.7.7-.11.1-.22.21-.34.31-.14.13-.29.26-.44.39-.14.12-.28.24-.42.35-.16.13-.32.25-.48.38-.15.12-.3.23-.46.34-.17.12-.34.24-.52.36-.16.11-.32.22-.49.33-.18.12-.37.24-.56.35-.24.15-.47.29-.71.44-.53.31-1.07.6-1.62.88-.19.1-.39.18-.58.27-.37.18-.74.36-1.12.52-.23.1-.48.19-.71.29-.35.14-.7.29-1.06.43-.26.1-.53.18-.79.27-.34.12-.68.24-1.03.35-.82.26-1.65.49-2.5.71-.22.05-.43.11-.65.16-.74.18-1.49.34-2.26.48-.14.03-.27.06-.41.08-.72.13-1.44.24-2.17.34l-.11 21.42c.73-.1 1.45-.21 2.16-.34.04-.01.08-.01.12-.02.1-.02.2-.04.3-.06.76-.14 1.51-.3 2.25-.48.22-.05.44-.1.65-.16.84-.21 1.68-.45 2.49-.71.02-.01.04-.01.05-.02.34-.11.66-.23.99-.35.26-.09.52-.17.77-.27.36-.14.72-.29 1.07-.43.23-.1.47-.18.7-.28.39-.17.77-.35 1.15-.54.18-.09.37-.17.55-.26.55-.28 1.09-.57 1.62-.88.13-.07.25-.15.38-.22.12-.07.22-.14.34-.21.19-.12.38-.23.56-.35.17-.11.33-.22.49-.33.18-.12.35-.24.52-.37.16-.11.31-.23.46-.35.16-.12.32-.25.48-.38.14-.12.29-.24.43-.35.15-.13.3-.26.44-.39.06-.05.12-.1.18-.16l.15-.15c.24-.23.48-.46.7-.7.07-.08.15-.15.22-.23.28-.31.55-.62.8-.93.01-.01.02-.03.03-.04.06-.07.1-.15.16-.22.15-.2.3-.4.43-.6.08-.11.14-.22.21-.33.12-.18.23-.36.34-.55.03-.05.06-.1.09-.15.04-.07.08-.15.12-.22.08-.15.16-.31.24-.46.06-.13.12-.26.18-.39.07-.16.13-.31.2-.47.03-.07.06-.14.09-.21.02-.06.04-.13.06-.19.05-.15.1-.3.15-.45.04-.14.08-.27.12-.41.04-.15.08-.3.11-.45.02-.08.04-.16.06-.24.01-.05.02-.11.03-.17.03-.15.05-.31.07-.46.02-.14.04-.27.05-.41.02-.15.02-.31.03-.46.01-.09.02-.18.02-.27s0-.18 0-.27l.11-21.42c.03.22.02.4.01.58z" fill="url(#SVGID_4_)"/><path d="m39.25 41.58-.11 21.41-6.96-17.39.11-21.41z" fill="#dc3b01"/><path d="m54 11.57c12.06 6.97 12.13 18.26.14 25.23-4.24 2.47-9.43 4.05-14.89 4.78l-6.96-17.39z" fill="url(#SVGID_5_)"/><path d="m37 47.38c-1.01.1-2.02.16-3.04.2-.17.01-.34.02-.5.02-.91.03-1.83.03-2.74.01-.18 0-.36-.01-.54-.02-.83-.03-1.67-.07-2.5-.13-.09-.01-.18-.01-.26-.02-.88-.07-1.76-.18-2.63-.29-.19-.03-.38-.05-.58-.08-.9-.13-1.79-.28-2.66-.46-.1-.02-.21-.05-.31-.07-.99-.21-1.97-.45-2.93-.72-.04-.01-.08-.02-.12-.03-.61-.17-1.22-.36-1.81-.56-.15-.05-.29-.11-.43-.16-.44-.16-.89-.31-1.32-.48-.13-.05-.25-.1-.37-.15-.59-.24-1.16-.49-1.73-.75-.18-.08-.36-.17-.54-.26-.66-.32-1.31-.66-1.93-1.02-6.07-3.51-9.1-8.1-9.09-12.7l-.06 15.88c-.01 4.59 3.02 9.19 9.09 12.69.62.36 1.27.69 1.93 1.02.18.09.36.17.54.26.56.26 1.14.51 1.73.75.09.04.17.08.26.11.04.01.07.03.11.04.44.17.88.33 1.33.48.14.05.29.11.43.16.59.2 1.2.39 1.81.56.01 0 .03.01.04.01.03.01.06.01.09.02.96.27 1.94.51 2.93.72.07.01.14.04.2.05.03.01.07.01.1.02.88.18 1.77.33 2.67.46.09.01.18.03.28.05.1.01.2.02.3.03.87.12 1.75.22 2.63.29.02 0 .04.01.06.01.07.01.13.01.2.01.83.07 1.66.11 2.5.13.11 0 .22.02.33.02h.2c.91.02 1.83.01 2.74-.01h.21c.1 0 .19-.02.29-.02 1.02-.04 2.03-.1 3.04-.2.03 0 .06 0 .09-.01.55-.05 1.09-.12 1.63-.19l.04-15.87c-.56.08-1.14.15-1.71.2z" fill="url(#SVGID_6_)"/><path d="m31.75 29.8 6.96 17.39c-9.98 1.31-20.87-.28-28.67-4.78s-10.58-10.81-8.34-16.59z" fill="url(#SVGID_7_)"/></g></svg>