<svg viewBox="0 0 512 512" xmlns="http://www.w3.org/2000/svg"><g id="icon"><path d="m455.927 275.588v100.558c0 32.3-99.984 58.479-223.32 58.479s-223.321-26.182-223.321-58.479v-100.558z" fill="#80eaff"/><path d="m35.739 403.772c-16.873-8.227-26.453-17.633-26.453-27.626v-100.558h26.453z" fill="#6cf"/><path d="m455.927 172.079v100.558c0 32.3-99.984 58.479-223.32 58.479s-223.321-26.182-223.321-58.479v-100.558z" fill="#6cf"/><path d="m35.739 300.263c-16.873-8.227-26.453-17.633-26.453-27.626v-100.558h26.453z" fill="#4da6ff"/><path d="m455.927 68.57v100.559c0 32.3-99.984 58.478-223.32 58.478s-223.321-26.182-223.321-58.478v-100.559z" fill="#80eaff"/><path d="m35.739 196.754c-16.873-8.227-26.453-17.633-26.453-27.625v-100.559h26.453z" fill="#6cf"/><path d="m455.927 68.57c0 32.3-99.984 58.479-223.321 58.479s-223.32-26.182-223.32-58.479 99.984-58.479 223.32-58.479 223.321 26.182 223.321 58.479z" fill="#57a4ff"/><path d="m253.532 126.791q-10.337.252-20.925.258c-123.337 0-223.321-26.182-223.321-58.479s99.984-58.479 223.321-58.479q10.587 0 20.925.258c-113.522 2.763-202.394 27.772-202.394 58.221s88.872 55.458 202.394 58.221z" fill="#2486c5"/><path d="m355.521 501.909c-38.644-24.165-69.165-50.645-92.963-80.6-26.949-33.925-44.592-71.472-53.752-114.482l48.221-83.521a340.756 340.756 0 0 1 198.5-.451l47.185 81.727c-8.952 43.532-26.555 81.535-53.633 115.882-23.918 30.336-54.63 57.094-93.558 81.445z" fill="#ffdf40"/><path d="m355.521 208.318v293.591c-38.644-24.165-69.166-50.645-92.962-80.6-26.95-33.925-44.593-71.472-53.753-114.482l48.221-83.521a338.191 338.191 0 0 1 98.494-14.988z" fill="#ffbe40"/><path d="m339.961 409.527a32 32 0 0 1 -22.7-9.387l-40.388-40.388c-18.082-18.082 7.861-44.025 25.942-25.943l37.146 37.147 81.074-81.073c19.458-19.457 45.4 6.486 25.941 25.942l-84.315 84.315a32.009 32.009 0 0 1 -22.7 9.387z" fill="#ff5959"/><g fill="#e63a57"><path d="m355.76 405.378a32.146 32.146 0 0 1 -38.5-5.238l-40.388-40.388c-18.082-18.082 7.86-44.025 25.942-25.943l37.146 37.147 15.8-15.8z"/><path d="m137.817 173.116a6.994 6.994 0 0 1 7.783-6.116c7.022.847 14.306 1.605 21.652 2.255a7 7 0 0 1 -.609 13.972c-.207 0-.415-.008-.625-.027-7.492-.662-14.925-1.436-22.092-2.3a7 7 0 0 1 -6.109-7.784zm-45.19-7.751a7 7 0 0 1 8.2-5.539c7.05 1.367 14.484 2.636 22.1 3.771a7 7 0 0 1 -1.023 13.924 7.073 7.073 0 0 1 -1.041-.077c-7.813-1.165-15.449-2.468-22.7-3.874a7 7 0 0 1 -5.536-8.205zm-43.806-12.209a7 7 0 0 1 8.839-4.456c6.838 2.252 14.405 4.391 22.489 6.355a7 7 0 1 1 -3.305 13.6c-8.445-2.051-16.372-4.292-23.564-6.661a7 7 0 0 1 -4.459-8.838zm89 121a7 7 0 0 1 7.787-6.112c7.052.851 14.336 1.608 21.651 2.255a7 7 0 0 1 -.608 13.973q-.309 0-.624-.028c-7.462-.659-14.9-1.432-22.093-2.3a7 7 0 0 1 -6.117-7.79zm-45.194-7.756a7 7 0 0 1 8.2-5.539c7.05 1.367 14.484 2.636 22.1 3.771a7 7 0 0 1 -1.023 13.925 7.076 7.076 0 0 1 -1.041-.078c-7.813-1.165-15.449-2.468-22.7-3.874a7 7 0 0 1 -5.536-8.205zm-43.806-12.206a7 7 0 0 1 8.839-4.459c6.838 2.252 14.405 4.391 22.489 6.355a7 7 0 1 1 -3.305 13.6c-8.445-2.05-16.372-4.292-23.564-6.661a7 7 0 0 1 -4.459-8.835zm124.791 124.73a7 7 0 0 1 -6.965 6.384q-.309 0-.624-.028c-7.462-.659-14.9-1.432-22.093-2.3a7 7 0 1 1 1.674-13.9c7.052.851 14.336 1.608 21.651 2.255a7 7 0 0 1 6.357 7.589zm-44.793-5.295a7 7 0 0 1 -6.914 5.969 7.213 7.213 0 0 1 -1.041-.077c-7.805-1.165-15.441-2.467-22.7-3.874a7 7 0 1 1 2.664-13.744c7.058 1.368 14.492 2.636 22.1 3.77a7 7 0 0 1 5.891 7.956zm-43.519-8.045a6.986 6.986 0 0 1 -8.455 5.148c-8.444-2.051-16.371-4.293-23.562-6.66a7 7 0 0 1 4.378-13.3c6.839 2.252 14.406 4.391 22.491 6.356a7 7 0 0 1 5.148 8.456z"/></g></g></svg>