<svg height="512" viewBox="0 0 64 64" width="512" xmlns="http://www.w3.org/2000/svg"><g id="Flat"><g id="Color"><g><g><ellipse cx="22" cy="8" fill="#d0d8da" rx="19" ry="5"/><g fill="#93999a"><path d="m22 13c-10.493 0-19-2.239-19-5v15c0 2.761 8.507 5 19 5s19-2.239 19-5v-15c0 2.761-8.507 5-19 5z"/><path d="m22 28c-10.493 0-19-2.239-19-5v15c0 2.761 8.507 5 19 5s19-2.239 19-5v-15c0 2.761-8.507 5-19 5z"/><path d="m22 43c-10.493 0-19-2.239-19-5v15c0 2.761 8.507 5 19 5s19-2.239 19-5v-15c0 2.761-8.507 5-19 5z"/></g><path d="m22 23h-.136a11.936 11.936 0 0 1 -11.82-11.116c-4.295-.917-7.044-2.315-7.044-3.884v15c0 2.761 8.507 5 19 5s19-2.239 19-5v-5c0 2.761-8.507 5-19 5z" fill="#656b76"/><path d="m22 38h-.136a11.936 11.936 0 0 1 -11.82-11.116c-4.295-.917-7.044-2.315-7.044-3.884v15c0 2.761 8.507 5 19 5s19-2.239 19-5v-5c0 2.761-8.507 5-19 5z" fill="#656b76"/><path d="m22 53h-.136a11.936 11.936 0 0 1 -11.82-11.116c-4.295-.917-7.044-2.315-7.044-3.884v15c0 2.761 8.507 5 19 5s19-2.239 19-5v-5c0 2.761-8.507 5-19 5z" fill="#656b76"/><g fill="#f9e109"><path d="m18 21.887h-.057a44.944 44.944 0 0 1 -11.264-1.878 1 1 0 0 1 .642-1.895 42.929 42.929 0 0 0 10.735 1.774 1 1 0 0 1 -.055 2z"/><path d="m23 21.987a1 1 0 0 1 -.014-2c1.344-.019 2.67-.074 3.943-.165a1 1 0 1 1 .142 2c-1.311.094-2.675.151-4.057.17z"/><path d="m18 36.887h-.057a44.944 44.944 0 0 1 -11.264-1.878 1 1 0 0 1 .642-1.9 42.929 42.929 0 0 0 10.735 1.774 1 1 0 0 1 -.055 2z"/><path d="m18 50.887h-.057a44.944 44.944 0 0 1 -11.264-1.878 1 1 0 0 1 .642-1.9 42.929 42.929 0 0 0 10.735 1.774 1 1 0 0 1 -.055 2z"/></g><path d="m6.053 18.741a1 1 0 0 0 .626 1.268 42.922 42.922 0 0 0 10.057 1.791 11.908 11.908 0 0 1 -3.252-2.344 33.871 33.871 0 0 1 -6.163-1.344 1 1 0 0 0 -1.268.629z" fill="#fcbc04"/><path d="m6.053 33.741a1 1 0 0 0 .626 1.268 42.922 42.922 0 0 0 10.057 1.791 11.908 11.908 0 0 1 -3.252-2.344 33.871 33.871 0 0 1 -6.163-1.344 1 1 0 0 0 -1.268.629z" fill="#fcbc04"/><path d="m6.053 47.741a1 1 0 0 0 .626 1.268 39.263 39.263 0 0 0 8.144 1.623 12 12 0 0 1 -2.34-2.323 31.746 31.746 0 0 1 -5.162-1.2 1 1 0 0 0 -1.268.632z" fill="#fcbc04"/></g><g><path d="m54.2 41.2v-8h-4.64a12.953 12.953 0 0 0 -.787-1.916l3.276-3.276-5.657-5.657-3.276 3.276a12.908 12.908 0 0 0 -1.916-.787v-4.64h-8v4.64a12.953 12.953 0 0 0 -1.916.787l-3.276-3.276-5.657 5.657 3.276 3.276a12.953 12.953 0 0 0 -.787 1.916h-4.64v8h4.64a12.953 12.953 0 0 0 .787 1.916l-3.276 3.276 5.657 5.657 3.276-3.276a12.953 12.953 0 0 0 1.916.787v4.64h8v-4.64a12.908 12.908 0 0 0 1.916-.787l3.276 3.276 5.657-5.657-3.276-3.276a12.953 12.953 0 0 0 .787-1.916zm-17 3a7 7 0 1 1 7-7 7 7 0 0 1 -7 7z" fill="#57b7eb"/><path d="m51.657 46h-.657a17.91 17.91 0 0 1 -9.909-2.98 7 7 0 1 1 -7.764-11.648 18.007 18.007 0 0 1 -.327-3.372v-3.086a12.776 12.776 0 0 0 -1.715.714l-3.276-3.276-5.657 5.657 3.276 3.276a12.953 12.953 0 0 0 -.787 1.916h-4.641v8h4.64a12.953 12.953 0 0 0 .787 1.916l-3.276 3.276 5.657 5.657 3.276-3.276a12.953 12.953 0 0 0 1.916.787v4.639h8v-4.64a12.908 12.908 0 0 0 1.916-.787l3.276 3.276 5.657-5.657z" fill="#4891d3"/><path d="m46.282 36.782h8a0 0 0 0 1 0 0v23a4 4 0 0 1 -4 4 4 4 0 0 1 -4-4v-23a0 0 0 0 1 0 0z" fill="#fcbc04" transform="matrix(.707 -.707 .707 .707 -20.828 50.282)"/><path d="m58.087 56.711a4.956 4.956 0 0 1 -4.448-1.411l-9.03-9.029a1.957 1.957 0 0 1 -.315-2.416 7.984 7.984 0 0 0 1.238-3.975l-1.967-1.967-5.657 5.657 16.15 16.15a4.108 4.108 0 0 0 5.32.5 3.988 3.988 0 0 0 1.069-5.22 3.254 3.254 0 0 1 -2.36 1.711z" fill="#e59730"/><path d="m35.04 28.755-1.021 1.021 6.01 6.011a3 3 0 0 1 -4.242 4.242l-6.011-6.01-1.021 1.021a3.556 3.556 0 0 0 0 5.029l3.145 3.142a8 8 0 0 0 11.311-11.311l-3.142-3.143a3.556 3.556 0 0 0 -5.029-.002z" fill="#f9e109"/><path d="m43.211 40.211a8 8 0 0 1 -11.313 0l-3.143-3.142a3.536 3.536 0 0 1 -.7-1.014 3.547 3.547 0 0 0 .7 4.014l3.145 3.142a8 8 0 0 0 13.514-7.156 7.956 7.956 0 0 1 -2.203 4.156z" fill="#fcbc04"/><g fill="#f9e109"><path d="m57 58a1 1 0 0 1 -.707-.293l-10.606-10.607a1 1 0 0 1 1.413-1.413l10.607 10.606a1 1 0 0 1 -.707 1.707z"/><path d="m54 21a1 1 0 0 1 -1-1v-4a3 3 0 0 0 -3-3h-4a1 1 0 0 1 0-2h4a5.006 5.006 0 0 1 5 5v4a1 1 0 0 1 -1 1z"/></g></g></g></g></g></svg>