<svg id="Layer_1" enable-background="new 0 0 68 68" viewBox="0 0 68 68" xmlns="http://www.w3.org/2000/svg"><g><g><g><g><path d="m5.8654833 44.0918503c-.6645999-9.5007629-.6436563-18.673399.0428352-27.5278301.0891104-1.1493483.8874035-2.1340075 1.9961519-2.4496317 7.6374722-2.1741352 14.7299633-.4240971 21.9447403.4450178.8680973.1045742 1.640522.5983019 2.0822182 1.352911l1.1823483 2.0199699c.5813026.9931202 1.7131119 1.509407 2.8504601 1.3343697 7.0531769-1.0854797 13.9908409-1.1195049 20.7998428.0157566 1.1241226.1874237 2.0053444 1.0642967 2.2366409 2.1802197.9961395 4.8059502.2220993 13.8955364-.4051399 22.6293278-.1043205 1.4525833-1.3128242 2.5764885-2.7691498 2.5764885h-47.1844445c-1.4545764-.0000001-2.6750006-1.1255685-2.7765035-2.5765992z" fill="#fa990e"/></g><g><path d="m54.2955627 10.0976v41.014019c0 1.7831688-1.4431877 3.2355576-3.2355576 3.2355576h-37.6408967c-1.7923698 0-3.2355566-1.4523888-3.2355566-3.2355576v-41.014019c0-1.7833939 1.4431868-3.2355566 3.2355566-3.2355566h37.6408958c1.7923708 0 3.2355585 1.4521627 3.2355585 3.2355566z" fill="#d1dafe"/></g></g><path d="m42.3341599 11.8473883v10.5927706c0 .455759-.3764114.8321724-.8321724.8321724h-3.0916138c-.4656754 0-.8423309-.3764133-.8423309-.8321724v-10.5927706c0-.465435.3766556-.8418474.8423309-.8418474h3.0916138c.4557609-.0000001.8321724.3764123.8321724.8418474z" fill="#b53016"/><path d="m19.0587559 16.3062801v6.1338787c0 .455759-.3764133.8321724-.8321724.8321724h-3.0916138c-.4656773 0-.8324137-.3764133-.8324137-.8321724v-6.1338787c0-.465435.3667364-.8418474.8324137-.8418474h3.0916138c.455759 0 .8321724.3764124.8321724.8418474z" fill="#4269c4"/><path d="m34.5758553 14.7609568v7.6792021c0 .455759-.3766556.8321724-.8324165.8321724h-3.0916119c-.4654369 0-.8420906-.3764133-.8420906-.8321724v-7.6792021c0-.4659195.3766537-.8423319.8420906-.8423319h3.0916119c.4557609 0 .8324165.3764124.8324165.8423319z" fill="#4269c4"/><path d="m26.8173046 11.8473883v10.5927706c0 .455759-.3766537.8321724-.8324127.8321724h-3.0913734c-.4656773 0-.8423309-.3764133-.8423309-.8321724v-10.5927706c0-.465435.3766537-.8418474.8423309-.8418474h3.0913734c.455759-.0000001.8324127.3764123.8324127.8418474z" fill="#aec46e"/><path d="m50.0927086 18.7834415v3.6567173c0 .455759-.3764114.8321724-.8321686.8321724h-3.0916176c-.4656754 0-.8423309-.3764133-.8423309-.8321724v-3.6567173c0-.465435.3766556-.8418465.8423309-.8418465h3.0916176c.4557571.0000001.8321686.3764115.8321686.8418465z" fill="#aec46e"/><g fill="#8a9bea"><path d="m14.122817 27.5662403c6.0388079-.5844555 12.0778589-.7189579 18.116909-.7426643 6.0388069.0208035 12.077858.1543369 18.1166649.7426643-6.0388069.587841-12.077858.7218609-18.1166649.7426643-6.03905-.0241909-12.0781011-.1582088-18.116909-.7426643z"/><path d="m14.122817 32.6444206c6.0388079-.5844536 12.0778589-.718956 18.116909-.7426624 6.0388069.0208035 12.077858.1543369 18.1166649.7426624-6.0388069.5878448-12.077858.7218628-18.1166649.7426643-6.03905-.0241889-12.0781011-.1582069-18.116909-.7426643z"/><path d="m14.122817 37.7226028c6.0388079-.5844536 12.0778589-.718956 18.116909-.7426643 6.0388069.0208054 12.077858.1543388 18.1166649.7426643-6.0388069.5878448-12.077858.7218628-18.1166649.7426643-6.03905-.0241889-12.0781011-.1582069-18.116909-.7426643z"/></g><g><path d="m5.3310175 40.5867157c5.2478762-.7572365 11.0299997-.5484314 17.1129532.2044258 1.6449661.2035866 3.2016773-.7812271 3.7389278-2.3492584 1.4906101-4.3505402 3.3504963-8.3066349 5.6755543-11.7666187.5435524-.8088741 1.4214821-1.3383884 2.3872108-1.4691391 7.6625175-1.0374374 15.8137894-1.0873756 24.4474602-.1619549 1.8096962.1939774 3.1850891 1.7215557 3.1595268 3.5414371-.1424713 10.1424465-1.4210472 21.6590252-3.3257751 33.9327774-.2494164 1.6072083-1.5811195 2.8391037-3.2031555 2.9587631-16.0034866 1.1805954-31.7545452 1.2176819-47.2269974-.0118332-1.4896436-.1183701-2.7350163-1.1771393-3.1169004-2.6218567-1.5246148-5.7678261-2.367475-11.9977684-2.7010033-18.5737648-.0931407-1.8364009 1.232285-3.4203738 3.0521986-3.6829776z" fill="#fbad3e"/></g><g><path d="m53.6500015 60.4791107c-.1190186.9811897-.8820038 1.7736893-1.8629532 1.8631935-5.41008.5346222-10.8102455.5346222-16.1905746 0-.9811897-.0895042-1.753849-.8820038-1.8629532-1.8530312-.3072243-2.5565109-.3171425-5.0438309-.0198364-7.4711609.1190224-.9613533.8817635-1.7340126 1.8431168-1.8428726 5.3009796-.5549431 10.7209816-.5351067 16.260006.0198364.9710274.0890236 1.7340126.8616829 1.8629494 1.8331947.2970656 2.3876573.2772292 4.874981-.0297548 7.4508401z" fill="#d1dafe"/></g><g fill="#8a9bea"><path d="m36.7170029 54.6495552c1.1628609-.3072243 2.3257256-.468338 3.4885902-.5776825 1.1628609-.1180496 2.3257256-.1620789 3.4885864-.1649818 1.1628647.0004845 2.3259697.0449944 3.4888344.1630478 1.1628609.10886 2.3257256.2704544 3.4885864.5796165-1.1628609.3096466-2.3257256.471241-3.4885864.580101-1.1628647.117569-2.3259697.1620789-3.4888344.1630478-1.1628609-.002903-2.3257256-.0469284-3.4885864-.1654663-1.1628647-.1093445-2.3257294-.2699738-3.4885902-.5776825z"/><path d="m36.7170029 58.8621826c1.1628609-.3072243 2.3257256-.468338 3.4885902-.5776825 1.1628609-.1180534 2.3257256-.1620789 3.4885864-.1649818 1.1628647.0004845 2.3259697.0449944 3.4888344.1630478 1.1628609.10886 2.3257256.2704544 3.4885864.5796165-1.1628609.3096466-2.3257256.471241-3.4885864.580101-1.1628647.117569-2.3259697.1620789-3.4888344.1630478-1.1628609-.002903-2.3257256-.0469322-3.4885864-.1654663-1.1628647-.10886-2.3257294-.2699737-3.4885902-.5776825z"/></g></g><g><g><path d="m64.4477844 29.0873413-1.713768 12.2604103c-.2332458 1.6686516-1.8696594 2.7648392-3.5022163 2.3482361-8.0518723-2.0547028-15.5396004-5.2671585-22.5542564-9.4504242-1.456089-.8683548-1.8404961-2.8082123-.8100319-4.1544552l7.5123138-9.8144112z" fill="#8a9bea"/><path d="m65.3467255 26.9298115-.9034729 2.1537113-21.0627594-8.8029461.9034729-2.1537113c.7052803-1.7108364 2.6632347-2.507988 4.3633537-1.8030987l14.9070282 6.2428188c1.7001228.7048874 2.5079689 2.6637555 1.7923775 4.363226z" fill="#51504f"/><path d="m65.3011322 7.0800705-6.9490089 13.3055725-4.4967041-1.8805275 4.5920219-14.2912655c.6681328-2.0793543 2.9726105-3.1415431 4.9875679-2.2988868l.0000076.0000031c2.0149575.8426564 2.8771859 3.2291668 1.8661156 5.1651042z" fill="#51504f"/><path d="m54.2262115 17.3515568-.3707847 1.1535854 4.4965629 1.8802757 1.4785882-2.8304481z" fill="#3a3a3a"/></g><g fill="#4269c4"><path d="m42.2539635 27.9887466-2.498764 8.0121422c-.5990448-.3221397-1.1872559-.6543503-1.7754822-.986042z"/><path d="m50.3003197 31.6139297-2.5601158 8.2244835c-.6545486-.2707748-1.2982826-.5510979-1.9309082-.8420067z"/><path d="m44.7679939 33.1385765-1.0772934 4.8807945c-.6111946-.2901344-1.211277-.5908508-1.8109779-.9020233z"/><path d="m53.4152069 37.0430489-1.0240669 4.5823288c-.6136665-.214859-1.2168579-.429863-1.8303871-.6557121z"/><path d="m58.9369392 35.5075531-2.3289413 7.4714165c-.6258011-.1833801-1.2513351-.3667488-1.8656235-.5716896z"/></g></g></g></svg>