<svg id="Layer_1" enable-background="new 0 0 131 131" height="512" viewBox="0 0 131 131" width="512" xmlns="http://www.w3.org/2000/svg"><g><g><g fill="#5b5e71"><path d="m6.1265 83.7159-.46.35-3.78-2.2-.3799-3 .46-.36c22.6599-16.56 40.74-45.59 45.9299-54.44l-2.5399-1.47 8.25-5.87 3.7799 2.19-1.4099 9.75-2.27-1.29c-3.9499 6.75-23.48 38.75-47.5801 56.34z"/><path d="m39.7066 55.7359 3.77 2.19.0699 25.98-6.73 3.89-3.7799-2.19-.0601-21.3199c2.4-2.9101 4.64-5.7701 6.7301-8.5501z"/><path d="m16.9666 86.9059.03 12.33-6.73 3.89-3.78-2.2-.03-10.87c2.29-1.67 4.55-3.48 6.73-5.34z"/><path d="m26.4566 71.8059 3.77 2.19.05 17.57-6.7301 3.89-3.7799-2.19-.04-14.53c2.32-2.26 4.57-4.58 6.73-6.93z"/><path d="m52.9466 36.2359 3.78 2.2.1 37.8-6.73 3.89-3.78-2.19-.09-31.31c2.74-4.04 5.0201-7.59 6.72-10.39z"/><path d="m124.3866 51.1659-1.3999.81 1.3799.8.02 7.05-1.3999.81 1.3799.8.02 7.05-1.3999.81 1.3799.8.02 7.05-1.3999.81 1.3799.8.02 7.05-1.3999.81 1.3799.8.02 7.05-29.9199 17.28-6.88-4c-.6 1.21-1.4601 2.16-2.66 2.87l-3.35 1.94c.09-.05.16-.11.24-.17-1.16.74-2.51 1.17-4.0399 1.22-.49.02-1.0601-.03-1.6501-.11-.1699.19-.3799.37-.6499.54l-22.66 13.08c-1.51.84-3.92.84-5.4 0l-28.6-16.62c-.71-.43-1.09-1.02-1.09-1.56l-.05-3.46c0 .41.21.81.5901 1.16-.9001-.86-.7201-1.98.5699-2.73l22.65-13.07c1.48-.86 3.9199-.87 5.4199 0l19.24 11.18c-2.2999-4.73-3.5699-9.76-3.5599-14.21l.0299-9.36 2.4102-1.4c.73.51 1.4399.97 2.1399 1.3701.3301.2.66.36.99.53l-.02-6.86 1.4001-.81-1.3801-.81-.02-7.04 1.4001-.81-1.3801-.81-.01-2.29-1.27-.75c-1.48-.85-2.3899-2.68-2.3999-5.26v-.03c0-3.86 2.01-8.36 4.9299-11.48-.26-.72-.3699-1.56-.3699-2.5-.01-5.2 3.6599-11.52 8.1799-14.13.52-.3 1.03-.53 1.54-.74.52-4.91 3.9399-10.4 8.09-12.8 1.33-.76 2.58-1.13 3.6801-1.13.4299 0 .83.05 1.2.16 1.51-2.71 3.6399-5.11 5.99-6.48 2.29-1.32 4.37-1.43 5.85-.56l4.23 2.49c2.1801-1.17 4.15-1.26 5.59-.43l6.3201 3.73c1.48.84 2.4 2.65 2.4099 5.2401 0 .1-.0099.21-.0099.31l5.0199 2.96c-.0898-.05-.1799-.09-.2699-.13 1.62.78 2.64 2.64 2.64 5.37.02 5.2-3.6301 11.55-8.16 14.16l-4.1801 2.41 7.21 4.19z"/></g><g><g><g><g><path d="m94.4459 104.6955-26.3125-15.2911.02 7.0465 26.3124 15.2912z" fill="#474b59"/></g><g><path d="m124.3711 87.4182-26.3125-15.2911-29.9252 17.2773 26.3125 15.2911z" fill="#5b5e71"/></g><g><path d="m94.4459 104.6955.0199 7.0466 29.9252-17.2774-.0199-7.0465z" fill="#525566"/></g><g><g><g><path d="m121.1956 90.2579.0053 1.8676 1.6036-.9258-.0053-1.8676z" fill="#cad0dd"/></g></g><g><g><path d="m118.422 91.8593.0053 1.8676 1.6035-.9258-.0053-1.8676z" fill="#cad0dd"/></g></g><g><g><path d="m115.6483 93.4607.0053 1.8676 1.6035-.9258-.0053-1.8676z" fill="#cad0dd"/></g></g><g><g><path d="m112.8746 95.062.0053 1.8676 1.6036-.9258-.0053-1.8676z" fill="#cad0dd"/></g></g><g><g><path d="m121.2048 93.495.0053 1.8673 1.6035-.9258-.0053-1.8673z" fill="#cad0dd"/></g></g><g><g><path d="m118.4312 95.0964.0053 1.8672 1.6035-.9258-.0053-1.8672z" fill="#cad0dd"/></g></g><g><g><path d="m115.6575 96.6977.0053 1.8673 1.6035-.9258-.0053-1.8672z" fill="#cad0dd"/></g></g><g><g><path d="m112.8838 98.2991.0053 1.8673 1.6036-.9258-.0053-1.8673z" fill="#cad0dd"/></g></g><g><g><path d="m103.3876 101.9608c-.5417.3128-.9954 1.0736-.9936 1.6961.0017.5978.4582.8578 1 .5451.5417-.3127.952-1.0733.9503-1.671-.0019-.6225-.415-.8829-.9567-.5702z" fill="#f9bb4a"/></g></g><g><g><path d="m100.2022 103.7999c-.5417.3128-.9954 1.0736-.9936 1.6961.0017.5978.4582.8578 1 .5451.5201-.3003.952-1.0733.9503-1.671-.0018-.6225-.4366-.8705-.9567-.5702z" fill="#f9bb4a"/></g></g><g><g><path d="m96.9952 105.6515c-.5417.3128-.9737 1.0611-.9719 1.6835.0017.5978.4365.8704.9783.5576.5417-.3127.952-1.0733.9503-1.671-.0019-.6224-.415-.8828-.9567-.5701z" fill="#f9bb4a"/></g></g></g></g><g><g><path d="m94.4459 96.0352-26.3125-15.2912.02 7.0466 26.3124 15.2911z" fill="#474b59"/></g><g><path d="m124.3711 78.7579-26.3125-15.2912-29.9252 17.2773 26.3125 15.2912z" fill="#5b5e71"/></g><g><path d="m94.4459 96.0352.0199 7.0465 29.9252-17.2773-.0199-7.0465z" fill="#525566"/></g><g><g><g><path d="m121.1956 81.5976.0053 1.8676 1.6036-.9258-.0053-1.8676z" fill="#cad0dd"/></g></g><g><g><path d="m118.422 83.199.0053 1.8676 1.6035-.9258-.0053-1.8676z" fill="#cad0dd"/></g></g><g><g><path d="m115.6483 84.8003.0053 1.8676 1.6035-.9257-.0053-1.8676z" fill="#cad0dd"/></g></g><g><g><path d="m112.8746 86.4017.0053 1.8676 1.6036-.9258-.0053-1.8676z" fill="#cad0dd"/></g></g><g><g><path d="m121.2048 84.8347.0053 1.8673 1.6035-.9259-.0053-1.8672z" fill="#cad0dd"/></g></g><g><g><path d="m118.4312 86.436.0053 1.8673 1.6035-.9258-.0053-1.8672z" fill="#cad0dd"/></g></g><g><g><path d="m115.6575 88.0374.0053 1.8673 1.6035-.9258-.0053-1.8673z" fill="#cad0dd"/></g></g><g><g><path d="m112.8838 89.6388.0053 1.8673 1.6036-.9259-.0053-1.8672z" fill="#cad0dd"/></g></g><g><g><path d="m103.3876 93.3005c-.5417.3128-.9954 1.0736-.9936 1.6961.0017.5978.4582.8578 1 .5451.5417-.3127.952-1.0733.9503-1.671-.0019-.6225-.415-.8829-.9567-.5702z" fill="#f9bb4a"/></g></g><g><g><path d="m100.2022 95.1396c-.5417.3128-.9954 1.0736-.9936 1.6961.0017.5978.4582.8578 1 .5451.5201-.3003.952-1.0733.9503-1.671-.0018-.6226-.4366-.8705-.9567-.5702z" fill="#f9bb4a"/></g></g><g><g><path d="m96.9952 96.9912c-.5417.3128-.9737 1.0611-.9719 1.6835.0017.5978.4365.8704.9783.5576.5417-.3127.952-1.0733.9503-1.671-.0019-.6225-.415-.8829-.9567-.5701z" fill="#f9bb4a"/></g></g></g></g><g><g><path d="m94.4459 87.3748-26.3125-15.2911.02 7.0466 26.3124 15.2911z" fill="#474b59"/></g><g><path d="m124.3711 70.0975-26.3125-15.2911-29.9252 17.2773 26.3125 15.2911z" fill="#5b5e71"/></g><g><path d="m94.4459 87.3748.0199 7.0466 29.9252-17.2773-.0199-7.0466z" fill="#525566"/></g><g><g><g><path d="m121.1956 72.9373.0053 1.8676 1.6036-.9258-.0053-1.8676z" fill="#cad0dd"/></g></g><g><g><path d="m118.422 74.5386.0053 1.8676 1.6035-.9257-.0053-1.8676z" fill="#cad0dd"/></g></g><g><g><path d="m115.6483 76.14.0053 1.8676 1.6035-.9258-.0053-1.8676z" fill="#cad0dd"/></g></g><g><g><path d="m112.8746 77.7414.0053 1.8676 1.6036-.9258-.0053-1.8676z" fill="#cad0dd"/></g></g><g><g><path d="m121.2048 76.1744.0053 1.8672 1.6035-.9258-.0053-1.8673z" fill="#cad0dd"/></g></g><g><g><path d="m118.4312 77.7757.0053 1.8673 1.6035-.9258-.0053-1.8673z" fill="#cad0dd"/></g></g><g><g><path d="m115.6575 79.3771.0053 1.8672 1.6035-.9257-.0053-1.8673z" fill="#cad0dd"/></g></g><g><g><path d="m112.8838 80.9785.0053 1.8672 1.6036-.9258-.0053-1.8672z" fill="#cad0dd"/></g></g><g><g><path d="m103.3876 84.6402c-.5417.3128-.9954 1.0736-.9936 1.6961.0017.5978.4582.8578 1 .5451.5417-.3127.952-1.0733.9503-1.671-.0019-.6225-.415-.883-.9567-.5702z" fill="#f9bb4a"/></g></g><g><g><path d="m100.2022 86.4793c-.5417.3128-.9954 1.0736-.9936 1.6961.0017.5978.4582.8578 1 .5451.5201-.3003.952-1.0733.9503-1.671-.0018-.6226-.4366-.8705-.9567-.5702z" fill="#f9bb4a"/></g></g><g><g><path d="m96.9952 88.3308c-.5417.3128-.9737 1.0611-.9719 1.6835.0017.5978.4365.8704.9783.5576.5417-.3127.952-1.0733.9503-1.671-.0019-.6224-.415-.8828-.9567-.5701z" fill="#f9bb4a"/></g></g></g></g><g><g><path d="m94.4459 78.7145-26.3125-15.2911.02 7.0466 26.3124 15.2911z" fill="#474b59"/></g><g><path d="m124.3711 61.4372-26.3125-15.2911-29.9252 17.2773 26.3125 15.2911z" fill="#5b5e71"/></g><g><path d="m94.4459 78.7145.0199 7.0466 29.9252-17.2773-.0199-7.0466z" fill="#525566"/></g><g><g><g><path d="m121.1956 64.277.0053 1.8676 1.6036-.9258-.0053-1.8676z" fill="#cad0dd"/></g></g><g><g><path d="m118.422 65.8783.0053 1.8676 1.6035-.9258-.0053-1.8676z" fill="#cad0dd"/></g></g><g><g><path d="m115.6483 67.4797.0053 1.8676 1.6035-.9258-.0053-1.8676z" fill="#cad0dd"/></g></g><g><g><path d="m112.8746 69.0811.0053 1.8676 1.6036-.9258-.0053-1.8676z" fill="#cad0dd"/></g></g><g><g><path d="m121.2048 67.514.0053 1.8673 1.6035-.9258-.0053-1.8673z" fill="#cad0dd"/></g></g><g><g><path d="m118.4312 69.1154.0053 1.8672 1.6035-.9257-.0053-1.8673z" fill="#cad0dd"/></g></g><g><g><path d="m115.6575 70.7168.0053 1.8672 1.6035-.9258-.0053-1.8672z" fill="#cad0dd"/></g></g><g><g><path d="m112.8838 72.3181.0053 1.8673 1.6036-.9258-.0053-1.8673z" fill="#cad0dd"/></g></g><g><g><path d="m103.3876 75.9799c-.5417.3128-.9954 1.0736-.9936 1.6961.0017.5978.4582.8578 1 .5451.5417-.3127.952-1.0733.9503-1.671-.0019-.6226-.415-.883-.9567-.5702z" fill="#f9bb4a"/></g></g><g><g><path d="m100.2022 77.8189c-.5417.3128-.9954 1.0736-.9936 1.6961.0017.5978.4582.8578 1 .5451.5201-.3003.952-1.0733.9503-1.671-.0018-.6225-.4366-.8704-.9567-.5702z" fill="#f9bb4a"/></g></g><g><g><path d="m96.9952 79.6705c-.5417.3128-.9737 1.0611-.9719 1.6835.0017.5978.4365.8704.9783.5576.5417-.3127.952-1.0733.9503-1.671-.0019-.6224-.415-.8828-.9567-.5701z" fill="#f9bb4a"/></g></g></g></g><g><g><path d="m94.4459 70.0542-26.3125-15.2911.02 7.0465 26.3124 15.2912z" fill="#474b59"/></g><g><path d="m124.3711 52.7769-26.3125-15.2911-29.9252 17.2773 26.3125 15.2911z" fill="#5b5e71"/></g><g><path d="m94.4459 70.0542.0199 7.0466 29.9252-17.2774-.0199-7.0465z" fill="#525566"/></g><g><g><g><path d="m121.1956 55.6166.0053 1.8676 1.6036-.9258-.0053-1.8676z" fill="#cad0dd"/></g></g><g><g><path d="m118.422 57.218.0053 1.8676 1.6035-.9258-.0053-1.8676z" fill="#cad0dd"/></g></g><g><g><path d="m115.6483 58.8194.0053 1.8676 1.6035-.9258-.0053-1.8676z" fill="#cad0dd"/></g></g><g><g><path d="m112.8746 60.4207.0053 1.8676 1.6036-.9258-.0053-1.8676z" fill="#cad0dd"/></g></g><g><g><path d="m121.2048 58.8537.0053 1.8673 1.6035-.9258-.0053-1.8673z" fill="#cad0dd"/></g></g><g><g><path d="m118.4312 60.455.0053 1.8673 1.6035-.9258-.0053-1.8672z" fill="#cad0dd"/></g></g><g><g><path d="m115.6575 62.0564.0053 1.8673 1.6035-.9258-.0053-1.8672z" fill="#cad0dd"/></g></g><g><g><path d="m112.8838 63.6578.0053 1.8673 1.6036-.9258-.0053-1.8673z" fill="#cad0dd"/></g></g><g><g><path d="m103.3876 67.3195c-.5417.3128-.9954 1.0736-.9936 1.6961.0017.5978.4582.8578 1 .5451.5417-.3127.952-1.0733.9503-1.671-.0019-.6225-.415-.8829-.9567-.5702z" fill="#f9bb4a"/></g></g><g><g><path d="m100.2022 69.1586c-.5417.3128-.9954 1.0736-.9936 1.6961.0017.5978.4582.8578 1 .5451.5201-.3003.952-1.0733.9503-1.671-.0018-.6225-.4366-.8705-.9567-.5702z" fill="#f9bb4a"/></g></g><g><g><path d="m96.9952 71.0102c-.5417.3128-.9737 1.0611-.9719 1.6835.0017.5978.4365.8704.9783.5576.5417-.3127.952-1.0733.9503-1.671-.0019-.6224-.415-.8828-.9567-.5701z" fill="#f9bb4a"/></g></g></g></g><g><g><path d="m94.4459 61.3939-26.3125-15.2912.02 7.0466 26.3124 15.2911z" fill="#474b59"/></g><g><path d="m124.3711 44.1165-26.3125-15.2911-29.9252 17.2773 26.3125 15.2912z" fill="#5b5e71"/></g><g><path d="m74.5626 46.1114 23.4912-13.5638 19.8879 11.5592-23.4913 13.5638z" fill="#363a44"/></g><g><path d="m94.4459 61.3939.0199 7.0465 29.9252-17.2773-.0199-7.0466z" fill="#525566"/></g><g><g><g><path d="m121.1956 46.9563.0053 1.8676 1.6036-.9258-.0053-1.8676z" fill="#cad0dd"/></g></g><g><g><path d="m118.422 48.5577.0053 1.8676 1.6035-.9258-.0053-1.8676z" fill="#cad0dd"/></g></g><g><g><path d="m115.6483 50.159.0053 1.8676 1.6035-.9257-.0053-1.8676z" fill="#cad0dd"/></g></g><g><g><path d="m112.8746 51.7604.0053 1.8676 1.6036-.9258-.0053-1.8676z" fill="#cad0dd"/></g></g><g><g><path d="m121.2048 50.1934.0053 1.8672 1.6035-.9258-.0053-1.8672z" fill="#cad0dd"/></g></g><g><g><path d="m118.4312 51.7947.0053 1.8673 1.6035-.9258-.0053-1.8673z" fill="#cad0dd"/></g></g><g><g><path d="m115.6575 53.3961.0053 1.8673 1.6035-.9258-.0053-1.8673z" fill="#cad0dd"/></g></g><g><g><path d="m112.8838 54.9975.0053 1.8672 1.6036-.9258-.0053-1.8672z" fill="#cad0dd"/></g></g><g><g><path d="m103.3876 58.6592c-.5417.3128-.9954 1.0736-.9936 1.6961.0017.5978.4582.8578 1 .5451.5417-.3127.952-1.0733.9503-1.671-.0019-.6225-.415-.8829-.9567-.5702z" fill="#f9bb4a"/></g></g><g><g><path d="m100.2022 60.4983c-.5417.3128-.9954 1.0736-.9936 1.6961.0017.5978.4582.8578 1 .5451.5201-.3003.952-1.0733.9503-1.671-.0018-.6226-.4366-.8705-.9567-.5702z" fill="#f9bb4a"/></g></g><g><g><path d="m96.9952 62.3499c-.5417.3128-.9737 1.0611-.9719 1.6835.0017.5978.4365.8704.9783.5576.5417-.3127.952-1.0733.9503-1.671-.0019-.6225-.415-.8829-.9567-.5701z" fill="#f9bb4a"/></g></g></g></g></g><g><g><g><g><g enable-background="new"><g><path d="m120.779 14.3772 6.3428 3.7362c-1.428-.8299-3.3878-.7466-5.5668.4302l-6.3428-3.7361c2.179-1.1769 4.1388-1.2601 5.5668-.4303z" fill="#4562ef"/></g><g><path d="m113.3868 5.8778 6.3428 3.7362c-1.4988-.871-3.5766-.7478-5.8612.5713-.572.3302-1.1438.7221-1.6618 1.1446l-6.3429-3.7361c.518-.4225 1.0898-.8144 1.6618-1.1446 2.2847-1.3192 4.3625-1.4424 5.8613-.5714z" fill="#576cfb"/></g><g><path d="m109.9109 7.551c-1.4837-.8679-3.5554-.7559-5.8511.56-2.3517 1.3718-4.4795 3.7794-5.9912 6.4951l-6.3439-3.7385c1.5117-2.7157 3.6395-5.1233 5.991-6.4951 2.2957-1.3157 4.3674-1.4278 5.8512-.56z" fill="#4562ef"/></g><g><path d="m73.2144 62.5053-6.3428-3.7361c-1.4746-.857-2.3891-2.6802-2.3965-5.2669-.0109-3.8614 1.9994-8.3754 4.9267-11.5056l6.3428 3.7362c-2.9273 3.1302-4.9376 7.6442-4.9267 11.5055.0074 2.5867.9219 4.4099 2.3965 5.2669z" fill="#576cfb"/></g><g><path d="m85.0949 28.3611-6.3429-3.7361c.5232-4.9104 3.9452-10.404 8.0921-12.7982 1.8411-1.0629 3.5411-1.3655 4.885-.9688l6.3428 3.7362c-1.3439-.3968-3.0439-.0942-4.885.9688-4.1469 2.3941-7.5689 7.8878-8.092 12.7981z" fill="#576cfb"/></g><g><path d="m75.7446 45.7329-6.3429-3.7361c-.2526-.7182-.3624-1.56-.3651-2.5048-.0147-5.1964 3.6555-11.5123 8.1778-14.1233.5183-.2993 1.0369-.5369 1.5376-.7437l6.3428 3.7362c-.5006.2068-1.0192.4444-1.5376.7437-4.5223 2.6109-8.1926 8.9268-8.1778 14.1233.0027.9447.1126 1.7865.3652 2.5047z" fill="#4562ef"/></g><g><path d="m104.0692 8.1074c4.0575-2.3426 7.4813-.8836 8.1374 3.2224.518-.4225 1.0898-.8144 1.6618-1.1446 4.5223-2.6109 8.2342-.5366 8.249 4.6598.0034 1.1912-.1721 2.4447-.5624 3.6987 4.4155-2.3847 7.9306-.279 7.945 4.8147.0147 5.1964-3.6376 11.5431-8.1598 14.154l-42.309 24.4271c-4.5222 2.6109-8.1985.4954-8.2132-4.701-.0109-3.8614 1.9994-8.3754 4.9267-11.5056-.2526-.7182-.3625-1.56-.3652-2.5048-.0147-5.1964 3.6555-11.5123 8.1778-14.1233.5183-.2993 1.0369-.5369 1.5376-.7437.5232-4.9104 3.9452-10.404 8.092-12.7982 1.8411-1.0629 3.5411-1.3655 4.885-.9688 1.4962-2.7154 3.6378-5.1245 5.9973-6.4867z" fill="#748bfd"/></g></g></g></g></g></g><g><g><path d="m74.5572 81.4648 2.4125-1.402c-2.7894 1.0845-6.0645.5152-9.802-1.6426-.6985-.4033-1.4128-.8618-2.1435-1.3756l-2.4125 1.402c.7307.5138 1.4449.9723 2.1435 1.3756 3.7375 2.1578 7.0126 2.7271 9.802 1.6426z" fill="#75ca75"/></g><g><path d="m81.5802 112.5567 3.3447-1.9452c3.0957-1.8028 3.9317-5.235 3.9436-10.4181l.0355-9.3581-2.4135 1.3921-.0237 9.37c-.0237 5.1831-1.7909 9.1564-4.8866 10.9593z" fill="#75ca75"/></g><g><path d="m86.4883 92.2317 2.4125-1.402c-.7309-.3301-1.446-.6968-2.1443-1.0999-3.7379-2.1581-7.0061-5.3664-9.7868-9.667l-2.4125 1.402c2.7807 4.3006 6.0488 7.5089 9.7868 9.667.6983.4032 1.4133.7698 2.1443 1.0999z" fill="#9ad898"/></g><path d="m74.5572 81.4648c-2.7894 1.0845-6.0645.5152-9.802-1.6426-.6985-.4033-1.4128-.8618-2.1435-1.3756l-.0265 9.3629c-.02 7.0395 3.1871 15.5587 8.5922 21.9913.9449 1.1295 2.2308 2.3862 3.2897 3.4507 1.0615.1596 2.3503.3895 3.3061.3573 5.4162-.1849 8.6686-4.9747 8.6886-12.0143l.0265-9.3629c-.7309-.3301-1.446-.6968-2.1443-1.0999-3.7379-2.158-7.0061-5.3663-9.7868-9.6669z" fill="#6eba6e"/><path d="m77.7177 111.9521c5.2038-.1772 7.0724-5.4692 7.0862-10.3622l.0235-8.3147c-.4435-.2234-.8821-.4597-1.3119-.7073-3.6596-2.1131-6.9017-5.1908-9.6517-9.1596-.7195.1659-1.464.2501-2.2256.2501-2.2628 0-4.7433-.7437-7.3775-2.211l-.0178 6.3667c-.0194 6.7544 3.2008 14.9663 8.203 20.9211.764.9121 1.8055 1.9545 2.7241 2.8746l.0858.0866c.7963.123 1.685.2582 2.3292.2582z" fill="#9ad898"/><path d="m77.2434 103.3836-1.334-4.9861c.4175-.1901.6551-.6758.657-1.3613.0036-1.2755-.8813-2.8404-1.9913-3.4813-1.1239-.6489-2.0287-.1173-2.0323 1.1582-.0019.6855.246 1.4515.6611 2.1223l-1.3717 3.424z" fill="#fff"/><path d="m71.8269 100.2514 1.3741-3.4076c-.4122-.6871-.6595-1.4565-.6595-2.1435 0-1.1268.7145-1.649 1.6764-1.3193-.1649.2198-.2474.5496-.2474.9069 0 .6871.2474 1.4564.6597 2.1162l-1.3741 3.4352h.0001z" fill="#474b59"/><path d="m73.2561 99.8393 3.6 2.0612.3846 1.4839-5.4138-3.133z" fill="#5b5e71"/><path d="m74.6301 96.4041c-.4123-.6597-.6597-1.4291-.6597-2.1162 0-.3573.0825-.687.2474-.907.1099.0275.2199.0825.3573.1649 1.0993.6595 2.0061 2.226 1.9786 3.4903 0 .687-.2197 1.1817-.632 1.3741l.9345 3.4903-3.6001-2.0611z" fill="#3f434f"/></g><g><path d="m16.9654 86.9077-3.7752-2.1939c-2.187 1.8661-4.4428 3.6672-6.7332 5.3438l3.7753 2.1939c2.2903-1.6766 4.5461-3.4777 6.7331-5.3438z" fill="#748bfd"/><path d="m10.2322 92.2515-3.7752-2.1939.0308 10.8723 3.7753 2.194z" fill="#576cfb"/><path d="m16.9654 86.9077c-2.187 1.8661-4.4428 3.6672-6.7331 5.3438l.0308 10.8724 6.7373-3.8898z" fill="#4562ef"/><g><path d="m30.2314 74.0001c-2.1628 2.351-4.4057 4.6692-6.7287 6.9288l.0412 14.5272 6.7373-3.8898z" fill="#bac1ce"/></g><g><path d="m30.2314 74.0001-3.7752-2.1939c-2.1629 2.351-4.4057 4.6692-6.7287 6.9288l3.7753 2.194c2.3228-2.2597 4.5657-4.5779 6.7286-6.9289z" fill="#d4dae8"/></g><g><path d="m23.5027 80.929-3.7753-2.194.0412 14.5273 3.7753 2.1939z" fill="#cad0dd"/></g><g><path d="m56.7242 38.4331-3.7752-2.1939c-1.7049 2.7949-3.9785 6.3513-6.7189 10.387l3.7753 2.1939c2.7404-4.0357 5.014-7.5921 6.7188-10.387z" fill="#fed57a"/></g><g><path d="m50.0053 48.8201-3.7752-2.1939.0887 31.3073 3.7753 2.1939z" fill="#f9bb4a"/></g><g><path d="m56.7242 38.4331c-1.7049 2.7949-3.9785 6.3513-6.7189 10.387l.0888 31.3073 6.7373-3.8898z" fill="#efac41"/></g><g><path d="m43.477 57.9293-3.7752-2.1939c-2.0817 2.7763-4.3231 5.6449-6.7241 8.5531l3.7753 2.194c2.4009-2.9082 4.6422-5.7769 6.724-8.5532z" fill="#4c7891"/></g><g><path d="m36.7529 66.4824-3.7753-2.1939.0604 21.3127 3.7753 2.1939z" fill="#416e84"/></g><g><path d="m43.477 57.9293c-2.0817 2.7763-4.323 5.6449-6.7241 8.5531l.0604 21.3126 6.7373-3.8898z" fill="#37617b"/></g><g><path d="m5.2776 81.0593-3.7753-2.1939.3853 3.0052 3.7753 2.194z" fill="#e63044"/></g><g><g><path d="m57.3867 18.9202-3.7752-2.1939-8.2504 5.8655 3.7753 2.1939z" fill="#fa5168"/></g><g><path d="m51.6905 26.2479c-5.178 8.8382-23.2652 37.8884-45.941 54.4579l-.4642.357-3.7853-2.1961.4641-.3572c22.6759-16.5693 40.7631-45.6195 45.9411-54.4579z" fill="#f34858"/></g><g><path d="m57.3867 18.9202-8.2504 5.8655 2.5505 1.4665c-5.1818 8.8304-23.2663 37.8767-45.9421 54.4587l-.4672.3484.3853 3.0052.4672-.3484c24.1003-17.5881 43.6265-49.5923 47.581-56.3366l2.2645 1.2906z" fill="#f9607f"/></g></g></g><g><g><path d="m17.6815 105.4721.0422 3.4588c0 .5484.3798 1.139 1.0968 1.5608l28.6006 16.6203c1.4763.8437 3.8808.8437 5.3994 0l22.6525-13.0768c.7593-.464 1.139-1.0124 1.139-1.603v-3.4169c0 .5484-.3798 1.139-1.139 1.5608l-22.6525 13.0771c-1.5185.8857-3.923.8857-5.4416 0l-28.5583-16.6203c-.7593-.422-1.1391-.9704-1.1391-1.5608z" fill="#3f434f"/></g><g><path d="m18.8362 103.9099c-1.5082.8708-1.5161 2.2702-.0177 3.141l28.5772 16.6073c1.4984.8708 3.9145.8708 5.4227 0l22.6504-13.0772c1.4813-.8552 1.5161-2.2703.0177-3.141l-28.5772-16.6073c-1.4984-.8708-3.9414-.8552-5.4227 0z" fill="#5b5e71"/></g><g><g><path d="m48.6954 101.9197-.0024.4355 3.8531 2.2391h.7517l5.3057-3.0633.0025-.4354-3.8531-2.2391-.7517-.0001z" fill="#f9607f"/></g><g><path d="m39.333 115.0748-.0025.4354 10.5425 6.1266h.7518l5.2787-3.0477.0025-.4354-10.5426-6.1266h-.7517z" fill="#fed57a"/></g><g><path d="m32.6436 111.1873-.0025.4354 3.8531 2.2392h.7517l5.2788-3.0477.0024-.4354-3.8531-2.2392h-.7517z" fill="#75ca75"/></g><g><path d="m40.6694 106.5535-.0023.4354 3.8531 2.2392h.7516l5.2788-3.0477.0025-.4354-3.8531-2.2392h-.7517z" fill="#748bfd"/></g><g><path d="m54.0483 114.3285-.0024.4353 3.8531 2.2392.7516.0001 5.2789-3.0478.0024-.4354-3.853-2.2392h-.7518z" fill="#cad0dd"/></g><g><path d="m47.3589 110.441-.0024.4354 3.8531 2.2391.7516.0001 5.2789-3.0477.0024-.4355-3.8531-2.2391h-.7517z" fill="#cad0dd"/></g><g><path d="m22.5302 104.8564c-.2963.171-.2978.4509.0233.6375l7.0908 4.1207c.2943.171.8043.1866 1.1005.0156l21.0076-12.1287c.2963-.171.298-.482.0037-.6531l-7.0908-4.1207c-.3211-.1866-.8312-.1711-1.1275 0z" fill="#e4e8f4"/></g><g><path d="m55.3849 105.8072-.0025.4354 3.8531 2.2392h.7517l5.3058-3.0633.0024-.4354-3.8531-2.2392h-.7517z" fill="#cad0dd"/></g><g><path d="m62.0743 109.6947-.0025.4354 3.8531 2.2392h.7517l5.3058-3.0633.0024-.4354-3.8531-2.2392h-.7516z" fill="#cad0dd"/></g></g></g><path d="m101.3806 33.2417-2.4399 1.7482c-.1208.5028-.2926 1.0117-.505 1.5323l1.5829 1.357-1.8957 3.2717-2.0801-.672c-.2944.3456-.6195.6738-.9548.961l-.3066 3.2322-2.6646 1.5384-.3239-2.8681c-.3257.0944-.6617.148-.9673.1488l-2.0694 3.0677-1.8979-1.0815 1.5598-3.1714c-.2147-.274-.3786-.5891-.5019-.951l-2.452 1.0762-.0087-3.0736 2.2773-1.6308c.1002-.5846.2615-1.1927.4838-1.8011l-1.3889-1.2115 1.8855-3.2659 1.662.5504c.4466-.5739.9442-1.1187 1.4523-1.5642l.2374-2.5133 2.6646-1.5384.2508 2.2314c.5191-.1475 1.0182-.1782 1.4564-.1151l1.6433-2.4588 1.908 1.0756-1.3775 2.8086c.2149.3559.3791.7761.4925 1.2374l2.2689-.9939zm-7.9444 7.7004c2.2273-1.2859 4.0317-4.4113 4.0245-6.9707s-1.8235-3.5943-4.0508-2.3084c-2.2273 1.286-4.0318 4.4113-4.0245 6.9707.0072 2.5594 1.8235 3.5944 4.0508 2.3084" fill="#fed57a"/><path d="m111.5074 19.2245-1.8913 1.209c-.111.3801-.2525.7779-.4347 1.1757l1.1138 1.1947-1.5517 2.4527-1.5198-.6794c-.2336.2636-.4977.5098-.7518.7033l-.3697 2.5429-2.0447 1.0283-.1186-2.2961c-.2545.0533-.499.0657-.7231.0429l-1.6846 2.2953-1.3577-.9954 1.2869-2.4052c-.1433-.2334-.2459-.5019-.3282-.7938l-1.8725.6831.1255-2.4487 1.7693-1.1268c.1005-.4678.2419-.924.4341-1.3978l-.981-1.0607 1.5415-2.4468 1.224.5458c.3452-.4217.7414-.8143 1.1377-1.1368l.2898-1.9817 2.0548-1.0342.0866 1.7878c.3869-.0712.7639-.0665 1.09.0144l1.3293-1.8327 1.378.9836-1.1451 2.136c.1435.3034.2463.6421.3085 1.0159l1.7402-.6301zm-2.9534.3004c.1063-2.0396-1.2003-2.9826-2.9093-2.1246-.069.0347-.1376.0718-.2058.1111-1.6292.9407-2.9881 3.1814-3.0901 5.1279-.1063 2.0396 1.2003 2.9826 2.9093 2.1247.0691-.0347.1376-.0718.2058-.1111 1.6292-.9407 2.9881-3.1815 3.0901-5.128" fill="#fff"/><path d="m112.1328 34.9821-1.8913 1.2207c-.111.3802-.2626.7837-.4347 1.1641l1.1138 1.2064-1.5517 2.4527-1.53-.6735c-.2234.246-.4876.4922-.7417.6974l-.3697 2.5429-2.0548 1.0342-.1186-2.296c-.2443.0474-.4888.0598-.7232.0429l-1.6744 2.2894-1.3577-.9954 1.2869-2.4052c-.1433-.2333-.2561-.496-.3282-.7938l-1.8725.6831.1255-2.4487 1.7693-1.1269c.1005-.4677.2419-.9239.4341-1.3978l-.981-1.0607 1.5415-2.4585 1.2138.5634c.3553-.4392.7515-.8319 1.1479-1.1426l.2898-1.9934 2.0548-1.0342.0764 1.8054c.3971-.0771.774-.084 1.1002.0086l1.3293-1.8327 1.3679.9896-1.1451 2.136c.1536.2859.2463.6304.3187 1.01l1.73-.6242zm-2.9534.3004c.1063-2.0279-1.2003-2.9825-2.9093-2.1246-.0632.0322-.1259.0662-.1883.1023-1.6369.9452-3.0052 3.195-3.1076 5.1484-.1063 2.028 1.2003 2.9826 2.9093 2.1246.0691-.0347.1376-.0717.2057-.1111 1.6292-.9406 2.9882-3.1819 3.0902-5.1396" fill="#9ad898"/></g></g></g></svg>