<svg clip-rule="evenodd" fill-rule="evenodd" height="512" image-rendering="optimizeQuality" shape-rendering="geometricPrecision" text-rendering="geometricPrecision" viewBox="0 0 1707 1707" width="512" xmlns="http://www.w3.org/2000/svg"><g id="Layer_x0020_1"><g id="_570182872" fill="#333"><path d="m853 1410c-14 0-26-12-26-27v-406c0-15 12-27 26-27 15 0 27 12 27 27v406c0 15-12 27-27 27z"/><path d="m360 1283h-40c-15 0-27-12-27-26 0-15 12-27 27-27h40c22 0 40-18 40-40v-213c0-15 12-27 27-27 14 0 26 12 26 27v213c0 51-42 93-93 93z"/><path d="m1387 1283h-40c-52 0-94-42-94-93v-213c0-15 12-27 27-27s27 12 27 27v213c0 22 18 40 40 40h40c14 0 26 12 26 27 0 14-12 26-26 26z"/><path d="m530 1427c-5 0-9-1-13-4-13-7-17-24-10-36l96-167v-243c0-15 12-27 27-27s27 12 27 27v250c0 4-2 9-4 13l-100 173c-5 9-14 14-23 14z"/><path d="m1177 1427c-10 0-19-5-23-14l-100-173c-3-4-4-9-4-13v-250c0-15 12-27 27-27 14 0 26 12 26 27v243l97 167c7 12 3 29-10 36-4 3-9 4-13 4z"/></g><g id="_570182464" fill="#ff3131"><path d="m853 1540c-50 0-93-41-93-90 0-51 42-93 93-93 52 0 94 42 94 93 0 49-43 90-94 90z"/><path d="m253 1347c-52 0-93-40-93-90 0-52 42-94 93-94 52 0 94 42 94 94 0 50-41 90-94 90z"/><path d="m1453 1347c-52 0-93-40-93-90 0-52 42-94 93-94 52 0 94 42 94 94 0 50-41 90-94 90z"/><path d="m487 1540c-51 0-94-41-94-90 0-51 42-93 94-93 51 0 93 42 93 93 0 49-43 90-93 90z"/><path d="m1220 1540c-51 0-93-41-93-90 0-51 42-93 93-93s93 42 93 93c0 49-42 90-93 90z"/></g><g id="_570180424"><path d="m0 742c0-96 56-186 140-230 4-58 28-112 69-153 41-43 95-68 154-73 48-51 113-81 180-81 37 0 72 8 104 23 43-38 99-61 161-61 50 0 97 15 134 42h54c107 0 199 64 239 157h102c126 0 228 104 223 232 86 28 147 108 147 199 0 113-94 206-209 206h-1237c-144 0-261-117-261-261z" fill="#ffa721"/><path d="m398 331c-5 6-13 10-21 10-182 5-247 241-104 339 31 21-1 67-31 46-51-35-87-91-98-152-165 116-82 373 117 373h1236c85 0 154-67 154-150 0-63-41-120-100-143-16 59-86 152-118 107-9-12-6-30 6-39 122-87 64-301-102-301h-85c26 132-54 262-182 299-36 10-51-44-16-54 87-25 147-105 147-196 0-113-92-205-205-205l-70-1c-16-5-43-41-118-41-104 0-188 84-188 188 0 84 57 157 139 179 35 9 22 63-14 54-163-43-233-234-137-372-75-27-156-4-210 59z" fill="#ff961e"/><g fill="#ff700d"><path d="m954 383c0-2 0-5 1-7 4-15 19-24 34-20 39 10 72 36 92 71s26 76 15 113c-4 15-19 24-34 20s-23-20-19-34c6-23 2-49-10-71-13-22-34-38-58-44-12-4-21-15-21-28z"/><path d="m282 568c0-66 44-127 111-146 15-4 30 5 34 20s-4 30-19 34c-51 14-81 66-68 116 4 15-5 30-20 34s-30-5-34-20c-3-13-4-25-4-38z"/><path d="m773 787c0-12 8-24 21-27 25-6 45-22 58-43 12-22 16-48 9-72-4-15 5-30 20-35 15-3 30 5 34 20 11 40 5 80-15 114-20 35-52 60-92 70-15 4-30-5-34-20-1-2-1-5-1-7z"/><path d="m452 800c0-26 7-52 20-75 20-34 53-59 92-70 15-3 30 5 34 20s-5 30-20 34c-24 7-45 22-57 44-13 21-16 47-10 72 4 15-5 30-20 34s-30-5-34-20c-3-13-5-26-5-39z"/><path d="m1232 827c0-26 7-52 20-76 20-35 53-61 92-71 15-4 30 5 34 20s-5 30-20 34c-24 6-45 22-58 45-13 22-16 49-9 74 4 15-5 30-20 34s-30-5-34-20c-3-13-5-26-5-40z"/></g></g></g></svg>