<svg version="1.1" id="Capa_1" xmlns="http://www.w3.org/2000/svg" xmlns:xlink="http://www.w3.org/1999/xlink" x="0px" y="0px" viewBox="0 0 512.024 512.024" style="enable-background:new 0 0 512.024 512.024;" xml:space="preserve">
<g>
	<g>
		<path style="fill:#82AEE3;" d="M483.225,104.008L138.1,105.25v302.766h0.001c0,25.393,16.71,50.732,50.163,70.046&#10;&#9;&#9;&#9;c67.18,38.787,176.44,38.591,244.039-0.438c33.937-19.594,50.921-45.25,50.921-70.85h0.001V104.008z"/>
		<path style="fill:#0573CE;" d="M355.475,239.331v23.64c-19.02,3.02-38.74,4.12-58.25,3.32v-23.64&#10;&#9;&#9;&#9;C316.735,243.451,336.455,242.351,355.475,239.331z"/>
		<path style="fill:#5DE1C4;" d="M438.415,209.791v23.64c-1.97,1.26-4.01,2.5-6.11,3.71c-4.69,2.7-9.57,5.22-14.63,7.55v-23.64&#10;&#9;&#9;&#9;c5.06-2.33,9.94-4.85,14.63-7.55C434.405,212.291,436.445,211.051,438.415,209.791z"/>
		<path style="fill:#FFF0AD;" d="M396.945,229.261v23.64c-6.72,2.28-13.65,4.26-20.74,5.96v-23.64&#10;&#9;&#9;&#9;C383.295,233.521,390.225,231.541,396.945,229.261z"/>
		<path style="fill:#0573CE;" d="M355.475,340.253v23.64c-19.02,3.02-38.74,4.12-58.25,3.32v-23.64&#10;&#9;&#9;&#9;C316.735,344.373,336.455,343.273,355.475,340.253z"/>
		<path style="fill:#5DE1C4;" d="M438.415,310.713v23.64c-1.97,1.26-4.01,2.5-6.11,3.71c-4.69,2.7-9.57,5.22-14.63,7.55v-23.64&#10;&#9;&#9;&#9;c5.06-2.33,9.94-4.85,14.63-7.55C434.405,313.213,436.445,311.973,438.415,310.713z"/>
		<path style="fill:#FFF0AD;" d="M396.945,330.183v23.64c-6.72,2.28-13.65,4.26-20.74,5.96v-23.64&#10;&#9;&#9;&#9;C383.295,334.443,390.225,332.463,396.945,330.183z"/>
		<path style="fill:#0573CE;" d="M355.475,441.175v23.64c-19.02,3.02-38.74,4.12-58.25,3.32v-23.64&#10;&#9;&#9;&#9;C316.735,445.295,336.455,444.195,355.475,441.175z"/>
		<path style="fill:#5DE1C4;" d="M438.415,411.635v23.64c-1.97,1.26-4.01,2.5-6.11,3.71c-4.69,2.7-9.57,5.22-14.63,7.55v-23.64&#10;&#9;&#9;&#9;c5.06-2.33,9.94-4.85,14.63-7.55C434.405,414.135,436.445,412.895,438.415,411.635z"/>
		<path style="fill:#FFF0AD;" d="M396.945,431.105v23.64c-6.72,2.28-13.65,4.26-20.74,5.96v-23.64&#10;&#9;&#9;&#9;C383.295,435.365,390.225,433.385,396.945,431.105z"/>
		
			<ellipse transform="matrix(1 -0.0054 0.0054 1 -0.5586 1.6734)" style="fill:#C0D6F2;" cx="310.662" cy="104.629" rx="172.564" ry="99.626"/>
		<path style="fill:#0055A3;" d="M148.188,398.088l28.215,45.579l31.375-18.114c5.673-3.275,9.194-10.278,9.194-20.216&#10;&#9;&#9;&#9;c0-4.688-0.784-9.628-2.207-14.57c4.062-3.568,7.832-7.569,11.291-11.984l20.58-26.272L148.188,398.088z"/>
		<path style="fill:#B2CAEC;" d="M213.386,356.927c-5.543,0.736-10.883,1.941-15.998,3.604c-3.623-3.794-7.578-7.017-11.714-9.405&#10;&#9;&#9;&#9;c-8.608-4.969-16.433-5.421-22.105-2.145l-31.373,18.113l22.173,38.407l58.451-33.545l33.815-19.447L213.386,356.927z"/>
		<path style="fill:#0573CE;" d="M211.943,373.61l-31.664,4.207c-5.279,0.701-10.365,1.848-15.236,3.433&#10;&#9;&#9;&#9;c-3.45-3.613-7.217-6.682-11.156-8.957c-16.394-9.465-29.806-1.72-29.806,17.209c0,18.93,13.413,42.162,29.806,51.626&#10;&#9;&#9;&#9;s29.806,1.721,29.806-17.209c0-4.465-0.746-9.169-2.102-13.876c3.868-3.398,7.459-7.208,10.753-11.413L211.943,373.61z"/>
		<path style="fill:#0ED2B3;" d="M142.205,396.887c-0.72-8.097,4.133-10.899,10.785-6.227s12.684,15.119,13.404,23.216&#10;&#9;&#9;&#9;c0.72,8.097-4.133,10.899-10.785,6.227C148.957,415.431,142.925,404.984,142.205,396.887z"/>
		<path style="fill:#FD5426;" d="M88.849,319.906l-31.38,18.12c-0.3-12.84,1.12-24.19,4.03-33.91&#10;&#9;&#9;&#9;c6.86-23.04,22.01-36.93,42.16-39.75C93.759,277.036,88.289,295.866,88.849,319.906z"/>
		<path style="fill:#FFF0AD;" d="M193.419,229.696c-36.671-21.171-70.005-23.085-94.157-9.117l0.03-0.024l-31.375,18.115&#10;&#9;&#9;&#9;l0.482-0.273c29.913-16.918,66.207-6.823,95.77,10.66c35.834,21.346,68.352,57.32,92.044,98.38l31.476-17.946&#10;&#9;&#9;&#9;C263.523,287.546,230.144,250.894,193.419,229.696z"/>
		<path style="fill:#5DE1C4;" d="M326.659,457.216c-0.753-41.371-15.528-87.038-38.97-127.726l-31.476,17.946&#10;&#9;&#9;&#9;c23.501,40.729,38.319,86.463,39.076,127.89L326.659,457.216z"/>
		<path style="fill:#FFD15B;" d="M162.043,250.679c-40.546-22.81-77.014-22.679-101.509-4.049l16.47,27.583&#10;&#9;&#9;&#9;c18.563-15.676,49.446-12.267,82.181,7.155c28.746,17.056,55.201,45.969,74.67,78.816l22.36-12.422&#10;&#9;&#9;&#9;C232.055,306.958,198.717,271.311,162.043,250.679z"/>
		<path style="fill:#FE7D43;" d="M28.799,321.47l28.672,16.554c-0.677-29.004,6.417-52.174,20.469-64.352L60.533,243.65&#10;&#9;&#9;&#9;C41.321,258.645,29.473,285.317,28.799,321.47z"/>
		<path style="fill:#0AB69F;" d="M233.855,360.183c17.974,31.489,29.924,66.501,32.067,98.409l28.644,16.734&#10;&#9;&#9;&#9;c-0.747-41.428-15.39-87.162-38.614-127.891L233.855,360.183z"/>
	</g>
	<g>
		<path style="fill:none;stroke:#072F75;stroke-width:6;stroke-linecap:round;stroke-linejoin:round;stroke-miterlimit:10;" d="&#10;&#9;&#9;&#9;M355.475,239.331v23.64c-19.02,3.02-38.74,4.12-58.25,3.32v-23.64C316.735,243.451,336.455,242.351,355.475,239.331z"/>
		<path style="fill:none;stroke:#072F75;stroke-width:6;stroke-linecap:round;stroke-linejoin:round;stroke-miterlimit:10;" d="&#10;&#9;&#9;&#9;M438.415,209.791v23.64c-1.97,1.26-4.01,2.5-6.11,3.71c-4.69,2.7-9.57,5.22-14.63,7.55v-23.64c5.06-2.33,9.94-4.85,14.63-7.55&#10;&#9;&#9;&#9;C434.405,212.291,436.445,211.051,438.415,209.791z"/>
		<path style="fill:none;stroke:#072F75;stroke-width:6;stroke-linecap:round;stroke-linejoin:round;stroke-miterlimit:10;" d="&#10;&#9;&#9;&#9;M396.945,229.261v23.64c-6.72,2.28-13.65,4.26-20.74,5.96v-23.64C383.295,233.521,390.225,231.541,396.945,229.261z"/>
		<path style="fill:none;stroke:#072F75;stroke-width:6;stroke-linecap:round;stroke-linejoin:round;stroke-miterlimit:10;" d="&#10;&#9;&#9;&#9;M251.957,400.387c-12.24-2.5-24.08-5.84-35.27-10.01"/>
		<path style="fill:none;stroke:#072F75;stroke-width:6;stroke-linecap:round;stroke-linejoin:round;stroke-miterlimit:10;" d="&#10;&#9;&#9;&#9;M138.097,307.097c0,15.39,6.14,30.77,18.44,44.79"/>
		<path style="fill:none;stroke:#072F75;stroke-width:6;stroke-linecap:round;stroke-linejoin:round;stroke-miterlimit:10;" d="&#10;&#9;&#9;&#9;M320.367,405.897c40.7-1.45,80.75-11.19,111.94-29.19c33.93-19.6,50.92-45.25,50.92-70.86"/>
		<path style="fill:none;stroke:#072F75;stroke-width:6;stroke-linecap:round;stroke-linejoin:round;stroke-miterlimit:10;" d="&#10;&#9;&#9;&#9;M271.757,302.757c55.85,7.24,116.89-1.77,160.55-26.98c33.93-19.59,50.92-45.25,50.92-70.85"/>
		<path style="fill:none;stroke:#072F75;stroke-width:6;stroke-linecap:round;stroke-linejoin:round;stroke-miterlimit:10;" d="&#10;&#9;&#9;&#9;M438.415,310.713v23.64c-1.97,1.26-4.01,2.5-6.11,3.71c-4.69,2.7-9.57,5.22-14.63,7.55v-23.64c5.06-2.33,9.94-4.85,14.63-7.55&#10;&#9;&#9;&#9;C434.405,313.213,436.445,311.973,438.415,310.713z"/>
		<path style="fill:none;stroke:#072F75;stroke-width:6;stroke-linecap:round;stroke-linejoin:round;stroke-miterlimit:10;" d="&#10;&#9;&#9;&#9;M396.945,330.183v23.64c-6.72,2.28-13.65,4.26-20.74,5.96v-23.64C383.295,334.443,390.225,332.463,396.945,330.183z"/>
		<path style="fill:none;stroke:#072F75;stroke-width:6;stroke-linecap:round;stroke-linejoin:round;stroke-miterlimit:10;" d="&#10;&#9;&#9;&#9;M438.415,411.635v23.64c-1.97,1.26-4.01,2.5-6.11,3.71c-4.69,2.7-9.57,5.22-14.63,7.55v-23.64c5.06-2.33,9.94-4.85,14.63-7.55&#10;&#9;&#9;&#9;C434.405,414.135,436.445,412.895,438.415,411.635z"/>
		<path style="fill:none;stroke:#072F75;stroke-width:6;stroke-linecap:round;stroke-linejoin:round;stroke-miterlimit:10;" d="&#10;&#9;&#9;&#9;M396.945,431.105v23.64c-6.72,2.28-13.65,4.26-20.74,5.96v-23.64C383.295,435.365,390.225,433.385,396.945,431.105z"/>
		<path style="fill:none;stroke:#072F75;stroke-width:10;stroke-linecap:round;stroke-linejoin:round;stroke-miterlimit:10;" d="&#10;&#9;&#9;&#9;M483.225,104.008c0,25.601-16.985,51.257-50.922,70.85c-67.599,39.028-176.859,39.224-244.039,0.438&#10;&#9;&#9;&#9;c-33.453-19.314-50.164-44.653-50.164-70.046"/>
		<path style="fill:none;stroke:#072F75;stroke-width:6;stroke-linecap:round;stroke-linejoin:round;stroke-miterlimit:10;" d="&#10;&#9;&#9;&#9;M142.205,396.887c-0.72-8.097,4.133-10.899,10.785-6.227c6.652,4.672,12.684,15.119,13.404,23.216&#10;&#9;&#9;&#9;c0.72,8.097-4.133,10.899-10.785,6.227C148.957,415.431,142.925,404.984,142.205,396.887z"/>
		
			<line style="fill:none;stroke:#072F75;stroke-width:6;stroke-linecap:round;stroke-linejoin:round;stroke-miterlimit:10;" x1="212.82" y1="371.957" x2="233.71" y2="359.933"/>
		<path style="fill:none;stroke:#072F75;stroke-width:6;stroke-linecap:round;stroke-linejoin:round;stroke-miterlimit:10;" d="&#10;&#9;&#9;&#9;M175.903,442.801c5.605-3.236,8.693-10.108,8.694-19.35c0-4.489-0.729-9.298-2.169-14.293l-0.176-0.609l0.477-0.419&#10;&#9;&#9;&#9;c4.002-3.515,7.758-7.501,11.164-11.85l19.067-24.341l-30.817,4.094c-5.456,0.725-10.779,1.924-15.82,3.564l-0.599,0.194&#10;&#9;&#9;&#9;l-0.435-0.455c-3.664-3.838-7.53-6.943-11.49-9.229c-8.003-4.622-15.499-5.384-21.104-2.146"/>
		<path style="fill:none;stroke:#072F75;stroke-width:6;stroke-linecap:round;stroke-linejoin:round;stroke-miterlimit:10;" d="&#10;&#9;&#9;&#9;M57.469,338.022c-0.31-20.75,1.919-39.692,10.293-52.634c8.385-12.959,20.701-20.917,35.617-23.012"/>
		<path style="fill:none;stroke:#072F75;stroke-width:6;stroke-linecap:round;stroke-linejoin:round;stroke-miterlimit:10;" d="&#10;&#9;&#9;&#9;M295.286,475.326c-1.52-83.3-62.844-184.567-134.244-225.788c-34.807-20.095-67.525-23.341-92.125-9.137"/>
		
			<line style="fill:none;stroke:#072F75;stroke-width:6;stroke-linecap:round;stroke-linejoin:round;stroke-miterlimit:10;" x1="77.938" y1="273.67" x2="60.533" y2="243.65"/>
		
			<line style="fill:none;stroke:#072F75;stroke-width:6;stroke-linecap:round;stroke-linejoin:round;stroke-miterlimit:10;" x1="284.009" y1="331.596" x2="233.859" y2="360.186"/>
		<path style="fill:none;stroke:#072F75;stroke-width:10;stroke-linecap:round;stroke-linejoin:round;stroke-miterlimit:10;" d="&#10;&#9;&#9;&#9;M229.606,354.772l-16.22,2.155c-5.543,0.736-10.883,1.941-15.998,3.604c-3.623-3.794-7.578-7.017-11.714-9.405&#10;&#9;&#9;&#9;c-8.608-4.969-16.433-5.421-22.105-2.145l-31.373,18.113c-5.673,3.275-9.194,10.277-9.194,20.216&#10;&#9;&#9;&#9;c0,19.877,14.084,44.271,31.297,54.209c8.607,4.969,16.431,5.421,22.103,2.146v0l31.375-18.114&#10;&#9;&#9;&#9;c5.673-3.275,9.194-10.278,9.194-20.216c0-4.688-0.784-9.628-2.207-14.57c4.062-3.568,7.832-7.569,11.291-11.984l10.037-12.813"/>
		<path style="fill:none;stroke:#072F75;stroke-width:10;stroke-linecap:round;stroke-linejoin:round;stroke-miterlimit:10;" d="&#10;&#9;&#9;&#9;M99.262,220.579c24.152-13.968,57.486-12.053,94.157,9.117c72.35,41.76,131.71,143.5,133.24,227.52l-31.373,18.11l-28.984-16.734&#10;&#9;&#9;&#9;c-4.49-66.064-51.518-145.439-107.117-179.293c-20.208-12.304-38.965-17.023-54.729-15.049c-0.262,0.033-0.523,0.066-0.785,0.1&#10;&#9;&#9;&#9;c-0.004,0.005-0.008,0.01-0.012,0.015c-9.9,12.67-15.37,31.5-14.81,55.54l-31.38,18.12v-0.004l-28.67-16.552&#10;&#9;&#9;&#9;c0.758-40.631,15.628-69.287,39.205-82.85l-0.087,0.05l31.375-18.115L99.262,220.579z"/>
		<path style="fill:none;stroke:#072F75;stroke-width:6;stroke-linecap:round;stroke-linejoin:round;stroke-miterlimit:10;" d="&#10;&#9;&#9;&#9;M307.517,367.458c16.122,0.109,32.278-1.076,47.958-3.565v-23.64c-19.02,3.02-38.74,4.12-58.25,3.32"/>
		<path style="fill:none;stroke:#072F75;stroke-width:6;stroke-linecap:round;stroke-linejoin:round;stroke-miterlimit:10;" d="&#10;&#9;&#9;&#9;M309.306,468.387c15.527,0.013,31.069-1.174,46.169-3.572v-23.64c-9.363,1.487-18.895,2.508-28.489,3.066"/>
		<path style="fill:none;stroke:#072F75;stroke-width:10;stroke-linecap:round;stroke-linejoin:round;stroke-miterlimit:10;" d="&#10;&#9;&#9;&#9;M144.935,435.818c7.786,15.48,22.225,30.061,43.328,42.244c67.18,38.787,176.44,38.591,244.039-0.438&#10;&#9;&#9;&#9;c33.937-19.594,50.921-45.25,50.921-70.85h0.001V104.008h-0.001c0-25.393-16.71-50.731-50.163-70.046&#10;&#9;&#9;&#9;c-67.18-38.786-176.44-38.59-244.039,0.438c-33.937,19.594-50.921,45.25-50.921,70.85H138.1v105.472"/>
		
			<line style="fill:none;stroke:#072F75;stroke-width:10;stroke-linecap:round;stroke-linejoin:round;stroke-miterlimit:10;" x1="138.1" y1="270.046" x2="138.1" y2="362.531"/>
	</g>
</g>
<g>
</g>
<g>
</g>
<g>
</g>
<g>
</g>
<g>
</g>
<g>
</g>
<g>
</g>
<g>
</g>
<g>
</g>
<g>
</g>
<g>
</g>
<g>
</g>
<g>
</g>
<g>
</g>
<g>
</g>
</svg>