<svg id="Capa_1" enable-background="new 0 0 512.01 512.01" height="512" viewBox="0 0 512.01 512.01" width="512" xmlns="http://www.w3.org/2000/svg" xmlns:xlink="http://www.w3.org/1999/xlink"><linearGradient id="lg1"><stop offset="0" stop-color="#7b7da1"/><stop offset=".3104" stop-color="#6d6f93"/><stop offset=".8987" stop-color="#494c6d"/><stop offset="1" stop-color="#424566"/></linearGradient><linearGradient id="SVGID_1_" gradientTransform="matrix(1 0 0 -1 0 510)" gradientUnits="userSpaceOnUse" x1="256.055" x2="256.055" xlink:href="#lg1" y1="82.394" y2="12.635"/><linearGradient id="SVGID_2_" gradientTransform="matrix(1 0 0 -1 0 510)" gradientUnits="userSpaceOnUse" x1="1.198" x2="502.556" xlink:href="#lg1" y1="153.496" y2="74.589"/><linearGradient id="lg2"><stop offset="0" stop-color="#32365c"/><stop offset="1" stop-color="#32365c" stop-opacity="0"/></linearGradient><linearGradient id="SVGID_3_" gradientTransform="matrix(1 0 0 -1 0 510)" gradientUnits="userSpaceOnUse" x1="255.955" x2="255.955" xlink:href="#lg2" y1="79.091" y2="99.909"/><linearGradient id="lg3"><stop offset="0" stop-color="#a1a4c7"/><stop offset="1" stop-color="#a1a4c7" stop-opacity="0"/></linearGradient><linearGradient id="SVGID_4_" gradientTransform="matrix(1 0 0 -1 0 510)" gradientUnits="userSpaceOnUse" x1="2.778" x2="23.519" xlink:href="#lg3" y1="111.74" y2="111.74"/><linearGradient id="SVGID_5_" gradientTransform="matrix(1 0 0 -1 0 510)" gradientUnits="userSpaceOnUse" x1="510.22" x2="486.131" xlink:href="#lg2" y1="111.54" y2="111.54"/><linearGradient id="SVGID_6_" gradientTransform="matrix(1 0 0 -1 0 510)" gradientUnits="userSpaceOnUse" x1="255.955" x2="255.955" xlink:href="#lg3" y1="142.074" y2="122.531"/><linearGradient id="SVGID_7_" gradientTransform="matrix(1 0 0 -1 0 510)" gradientUnits="userSpaceOnUse" x1="247.968" x2="263.946" y1="118.627" y2="102.648"><stop offset=".00000039125" stop-color="#c4cbff"/><stop offset="1" stop-color="#e9edff"/></linearGradient><linearGradient id="SVGID_8_" gradientTransform="matrix(1 0 0 -1 0 510)" gradientUnits="userSpaceOnUse" x1="255.907" x2="255.907" xlink:href="#lg1" y1="16.646" y2="-2.286"/><linearGradient id="SVGID_9_" gradientTransform="matrix(1 0 0 -1 0 510)" gradientUnits="userSpaceOnUse" x1="31.072" x2="469.878" y1="522.416" y2="83.611"><stop offset="0" stop-color="#e9edff"/><stop offset="1" stop-color="#c4cbff"/></linearGradient><linearGradient id="lg4"><stop offset=".00000187801" stop-color="#a1b3ff"/><stop offset="1" stop-color="#a1b3ff" stop-opacity="0"/></linearGradient><linearGradient id="SVGID_10_" gradientTransform="matrix(1 0 0 -1 0 510)" gradientUnits="userSpaceOnUse" x1="517.857" x2="490.865" xlink:href="#lg4" y1="308.79" y2="308.79"/><linearGradient id="SVGID_11_" gradientTransform="matrix(1 0 0 -1 0 510)" gradientUnits="userSpaceOnUse" x1="255.955" x2="255.955" xlink:href="#lg4" y1="135.469" y2="162.296"/><linearGradient id="lg5"><stop offset=".00000211276" stop-color="#fff"/><stop offset="1" stop-color="#fff" stop-opacity="0"/></linearGradient><linearGradient id="SVGID_12_" gradientTransform="matrix(1 0 0 -1 0 510)" gradientUnits="userSpaceOnUse" x1="1.968" x2="21.478" xlink:href="#lg5" y1="308.74" y2="308.74"/><linearGradient id="SVGID_13_" gradientTransform="matrix(1 0 0 -1 0 510)" gradientUnits="userSpaceOnUse" x1="255.955" x2="255.955" xlink:href="#lg5" y1="482.413" y2="457.719"/><linearGradient id="SVGID_14_" gradientTransform="matrix(1 0 0 -1 0 510)" gradientUnits="userSpaceOnUse" x1="150.539" x2="389.022" xlink:href="#lg4" y1="453.192" y2="214.71"/><linearGradient id="SVGID_15_" gradientTransform="matrix(1 0 0 -1 0 510)" gradientUnits="userSpaceOnUse" x1="122.07" x2="355.796" y1="463.831" y2="230.106"><stop offset="0" stop-color="#ffb18c"/><stop offset=".3254" stop-color="#ff8462"/><stop offset="1" stop-color="#ff1e00"/></linearGradient><radialGradient id="SVGID_16_" cx="268.288" cy="348.529" gradientTransform="matrix(1 0 0 -1 0 510)" gradientUnits="userSpaceOnUse" r="164.531"><stop offset=".7745" stop-color="#ffcfc2" stop-opacity="0"/><stop offset="1" stop-color="#ffcfc2"/></radialGradient><linearGradient id="SVGID_17_" gradientTransform="matrix(1 0 0 -1 0 510)" gradientUnits="userSpaceOnUse" x1="248.92" x2="275.761" y1="430.345" y2="430.345"><stop offset="0" stop-color="#eb281e" stop-opacity="0"/><stop offset="1" stop-color="#eb281e"/></linearGradient><radialGradient id="SVGID_18_" cx="268.288" cy="348.529" gradientTransform="matrix(1 0 0 -1 0 510)" gradientUnits="userSpaceOnUse" r="168.723"><stop offset=".8199" stop-color="#ffcfc2" stop-opacity="0"/><stop offset="1" stop-color="#ffcfc2"/></radialGradient><linearGradient id="SVGID_19_" gradientTransform="matrix(1 0 0 -1 0 510)" gradientUnits="userSpaceOnUse" x1="322.369" x2="304.315" y1="309.949" y2="291.895"><stop offset=".00000226926" stop-color="#eb281e"/><stop offset="1" stop-color="#eb281e" stop-opacity="0"/></linearGradient><linearGradient id="SVGID_20_" gradientTransform="matrix(1 0 0 -1 0 510)" gradientUnits="userSpaceOnUse" x1="247.005" x2="369.233" y1="469.351" y2="347.123"><stop offset="0" stop-color="#a1ddff"/><stop offset="1" stop-color="#1c83ff"/></linearGradient><linearGradient id="SVGID_21_" gradientTransform="matrix(1 0 0 -1 0 510)" gradientUnits="userSpaceOnUse" x1="338.475" x2="331.891" y1="354.852" y2="382.009"><stop offset=".00000211276" stop-color="#0047e0"/><stop offset="1" stop-color="#0047e0" stop-opacity="0"/></linearGradient><linearGradient id="SVGID_22_" gradientTransform="matrix(1 0 0 -1 0 510)" gradientUnits="userSpaceOnUse" x1="265.005" x2="286.75" y1="418.392" y2="418.392"><stop offset=".00000137427" stop-color="#c9ecff"/><stop offset="1" stop-color="#c9ecff" stop-opacity="0"/></linearGradient><radialGradient id="SVGID_23_" cx="266.639" cy="350.445" gradientTransform="matrix(1 0 0 -1 0 510)" gradientUnits="userSpaceOnUse" r="143.665"><stop offset=".8348" stop-color="#c9ecff" stop-opacity="0"/><stop offset="1" stop-color="#c9ecff"/></radialGradient><linearGradient id="SVGID_24_" gradientTransform="matrix(1 0 0 -1 0 510)" gradientUnits="userSpaceOnUse" x1="293.28" x2="391.931" y1="401.315" y2="302.664"><stop offset="0" stop-color="#ffed81"/><stop offset=".2348" stop-color="#ffd968"/><stop offset=".7302" stop-color="#ffa629"/><stop offset="1" stop-color="#ff8804"/></linearGradient><linearGradient id="SVGID_25_" gradientTransform="matrix(1 0 0 -1 0 510)" gradientUnits="userSpaceOnUse" x1="328.572" x2="334.955" y1="372.291" y2="345.737"><stop offset=".00000250401" stop-color="#fffcf0"/><stop offset="1" stop-color="#fffcf0" stop-opacity="0"/></linearGradient><radialGradient id="SVGID_26_" cx="242.226" cy="374.535" gradientTransform="matrix(1 0 0 -1 0 510)" gradientUnits="userSpaceOnUse" r="167.396"><stop offset=".8031" stop-color="#fffcf0" stop-opacity="0"/><stop offset="1" stop-color="#fffcf0"/></radialGradient><linearGradient id="SVGID_27_" gradientTransform="matrix(1 0 0 -1 0 510)" gradientUnits="userSpaceOnUse" x1="307.039" x2="326.236" y1="305.024" y2="324.22"><stop offset="0" stop-color="#ff6b06"/><stop offset="1" stop-color="#ff6b06" stop-opacity="0"/></linearGradient><g><g><g><path d="m154.405 493.81c23.4 0 44.7-13.3 54.9-34.3l14.1-29h65.3l14.1 29c10.2 21 31.5 34.3 54.9 34.3z" fill="url(#SVGID_1_)"/><g><path d="m470.905 430.51h-429.9c-21 0-38.1-17-38.1-38.1v-24.2h506.1v24.2c0 21.1-17 38.1-38.1 38.1z" fill="url(#SVGID_2_)"/><g><path d="m6.705 409.11c6.2 12.7 19.2 21.4 34.3 21.4h429.9c15.1 0 28.1-8.7 34.3-21.4z" fill="url(#SVGID_3_)"/><path d="m28.305 368.21h-25.4v24.2c0 16.6 10.6 30.7 25.4 35.9z" fill="url(#SVGID_4_)"/><path d="m482.705 368.21v60.5c15.3-5 26.4-19.3 26.4-36.3v-24.2z" fill="url(#SVGID_5_)"/><path d="m509.005 393.01c0-.2 0-.4 0-.6v-24.2h-506.1v24.2.6z" fill="url(#SVGID_6_)"/></g></g><circle cx="256.005" cy="399.41" fill="url(#SVGID_7_)" r="11.2"/><path d="m374.605 512.01h-237.3c-2.4 0-4.3-1.9-4.3-4.3 0-7.7 6.2-13.9 13.9-13.9h218c7.7 0 13.9 6.2 13.9 13.9.1 2.4-1.8 4.3-4.2 4.3z" fill="url(#SVGID_8_)"/><g><path d="m509.005 368.21h-506.1v-295.7c0-21.1 17.1-38.1 38.1-38.1h429.9c21.1 0 38.1 17.1 38.1 38.1z" fill="url(#SVGID_9_)"/><g><path d="m470.905 34.31h-28.4v333.8h66.5v-295.6c0-21.1-17-38.2-38.1-38.2z" fill="url(#SVGID_10_)"/><path d="m2.905 302.01h506.1v66.2h-506.1z" fill="url(#SVGID_11_)"/><path d="m79.405 34.31h-38.4c-21 0-38.1 17.1-38.1 38.2v295.7h76.5z" fill="url(#SVGID_12_)"/><path d="m509.005 74.11v-1.6c0-21.1-17.1-38.1-38.1-38.1h-429.9c-21-.1-38.1 17-38.1 38.1v1.6z" fill="url(#SVGID_13_)"/></g></g></g><path d="m367.305 65.41c-12.7-13.2-28.1-23.9-45.3-31.1h-151c-37 29.4-60.6 74.8-60.3 125.8.3 44.6 18.7 84.7 48.2 113.3l94.7 94.7h255.5v-161c-72.1-72.1-141.2-141.1-141.8-141.7z" fill="url(#SVGID_14_)"/><g><g><path d="m263.805.01c-85.4 3.2-153.6 73.8-153.1 160.1.6 87.9 71.3 158.2 159.2 158.2 41.8 0 79.8-16.1 108.2-42.4 2.5-2.3 2.5-6.2.1-8.5l-108.3-108.3v-153.2c0-3.3-2.8-6-6.1-5.9z" fill="url(#SVGID_15_)"/><path d="m263.805.01c-85.4 3.2-153.6 73.8-153.1 160.1.6 87.9 71.3 158.2 159.2 158.2 41.8 0 79.8-16.1 108.2-42.4 2.5-2.3 2.5-6.2.1-8.5l-108.3-108.3v-153.2c0-3.3-2.8-6-6.1-5.9z" fill="url(#SVGID_16_)"/><path d="m270.105 159.31-.2-.2v-153.2c0-3.4-2.8-6.1-6.1-5.9-7 .3-13.8 1-20.6 2.1v157.2z" fill="url(#SVGID_17_)"/><path d="m263.805.01c-85.4 3.2-153.6 73.8-153.1 160.1.6 87.9 71.3 158.2 159.2 158.2 41.8 0 79.8-16.1 108.2-42.4 2.5-2.3 2.5-6.2.1-8.5l-108.3-108.3v-153.2c0-3.3-2.8-6-6.1-5.9z" fill="url(#SVGID_18_)"/><path d="m378.205 267.41-108.3-108.3-38.4.2 129.2 130.6c6.1-4.3 11.9-8.9 17.4-14 2.4-2.2 2.5-6.1.1-8.5z" fill="url(#SVGID_19_)"/></g><g><path d="m401.105 126.71c-14.2-57.8-65.6-101-127.3-102.7-2.1-.1-3.9 1.6-3.9 3.7v131.4l128.4-27.9c2.1-.4 3.4-2.5 2.8-4.5z" fill="url(#SVGID_20_)"/><g><path d="m401.105 126.71c-1.7-6.8-3.9-13.4-6.6-19.8-.3.2-.7.3-1 .4l-123.6 26.8v25l128.4-27.9c2.1-.4 3.4-2.5 2.8-4.5z" fill="url(#SVGID_21_)"/><path d="m273.805 24.01c-2.1-.1-3.9 1.6-3.9 3.8v131.4l26.6-5.8v-125.7c0-.4.1-.8.2-1.2-7.5-1.4-15.1-2.3-22.9-2.5z" fill="url(#SVGID_22_)"/><path d="m401.105 126.71c-14.2-57.8-65.6-101-127.3-102.7-2.1-.1-3.9 1.6-3.9 3.8v19.7c49.4 8 89.8 42.7 105.9 88.8l22.5-4.9c2.1-.6 3.4-2.7 2.8-4.7z" fill="url(#SVGID_23_)"/></g></g><g><path d="m391.205 132.81-121.3 26.3 83 83c24.1-25.1 38.9-59.2 38.9-96.8-.1-4.2-.2-8.4-.6-12.5z" fill="url(#SVGID_24_)"/><path d="m391.205 132.81-121.3 26.3 19.1 19.1 102.3-22.2c.3-3.5.4-7.1.4-10.7 0-4.2-.1-8.4-.5-12.5z" fill="url(#SVGID_25_)"/><path d="m391.205 132.81-121.3 26.3 83 83c24.1-25.1 38.9-59.2 38.9-96.8-.1-4.2-.2-8.4-.6-12.5z" fill="url(#SVGID_26_)"/><path d="m295.505 153.61-25.6 5.5 83 83c5.1-5.3 9.8-11.1 14-17.1z" fill="url(#SVGID_27_)"/></g></g></g></g></svg>