<svg id="Layer_1" enable-background="new 0 0 32 32" viewBox="0 0 32 32" xmlns="http://www.w3.org/2000/svg" xmlns:xlink="http://www.w3.org/1999/xlink"><linearGradient id="lg1"><stop offset="0" stop-color="#2bace2"/><stop offset="1" stop-color="#1c76bc"/></linearGradient><linearGradient id="SVGID_1_" gradientUnits="userSpaceOnUse" x1="16" x2="16" xlink:href="#lg1" y1="0" y2="9.125"/><linearGradient id="SVGID_2_" gradientUnits="userSpaceOnUse" x1="16" x2="16" xlink:href="#lg1" y1="4.563" y2="16.75"/><linearGradient id="SVGID_3_" gradientUnits="userSpaceOnUse" x1="16" x2="16" y1="12.188" y2="24.375"><stop offset="0" stop-color="#f8ed33"/><stop offset="1" stop-color="#f89521"/></linearGradient><linearGradient id="SVGID_4_" gradientUnits="userSpaceOnUse" x1="16" x2="16" y1="19.813" y2="32"><stop offset="0" stop-color="#f04f44"/><stop offset="1" stop-color="#be202e"/></linearGradient><linearGradient id="lg2"><stop offset="0" stop-color="#fff"/><stop offset="1" stop-color="#d2d3d4"/></linearGradient><linearGradient id="SVGID_5_" gradientUnits="userSpaceOnUse" x1="5" x2="5" xlink:href="#lg2" y1="10.125" y2="11.958"/><linearGradient id="SVGID_6_" gradientUnits="userSpaceOnUse" x1="5" x2="5" xlink:href="#lg2" y1="17.906" y2="19.74"/><linearGradient id="SVGID_7_" gradientUnits="userSpaceOnUse" x1="5" x2="5" xlink:href="#lg2" y1="25.531" y2="27.365"/><g><ellipse cx="16" cy="4.6" fill="url(#SVGID_1_)" rx="16" ry="4.6"/><path d="m16 9.1c-7.7 0-16-1.4-16-4.5v7.6c0 3.1 8.3 4.6 16 4.6s16-1.4 16-4.6v-7.6c0 3.1-8.3 4.5-16 4.5z" fill="url(#SVGID_2_)"/><path d="m16 16.8c-7.7 0-16-1.4-16-4.6v7.6c0 3.1 8.3 4.6 16 4.6s16-1.4 16-4.6v-7.6c0 3.1-8.3 4.6-16 4.6z" fill="url(#SVGID_3_)"/><path d="m16 24.4c-7.7 0-16-1.4-16-4.6v7.6c0 3.2 8.3 4.6 16 4.6s16-1.4 16-4.6v-7.6c0 3.1-8.3 4.6-16 4.6z" fill="url(#SVGID_4_)"/><circle cx="5" cy="11" fill="url(#SVGID_5_)" r=".9"/><circle cx="5" cy="18.8" fill="url(#SVGID_6_)" r=".9"/><circle cx="5" cy="26.4" fill="url(#SVGID_7_)" r=".9"/></g></svg>