<svg height="512" viewBox="0 0 64 64" width="512" xmlns="http://www.w3.org/2000/svg"><g id="database-server-management-network-system"><ellipse cx="45" cy="20" fill="#ffc477" rx="16" ry="5"/><path d="m45 15c-.506 0-1.006.009-1.5.024 8.132.236 14.5 2.376 14.5 4.976s-6.368 4.74-14.5 4.976c.494.015.994.024 1.5.024 8.837 0 16-2.239 16-5s-7.163-5-16-5z" fill="#ffb655"/><ellipse cx="19" cy="20" fill="#9bc9ff" rx="16" ry="5"/><path d="m48 34.91v10c7.4-.44 13-2.47 13-4.91v-10c0 2.44-5.6 4.47-13 4.91z" fill="#ff9811"/><path d="m48 24.91v10c7.4-.44 13-2.47 13-4.91v-10c0 2.44-5.6 4.47-13 4.91z" fill="#ffa733"/><path d="m32 51c-8.837 0-16-2.239-16-5v10c0 2.761 7.163 5 16 5s16-2.239 16-5v-10c0 2.761-7.163 5-16 5z" fill="#4e901e"/><path d="m48 44.91v10c7.4-.44 13-2.47 13-4.91v-10c0 2.44-5.6 4.47-13 4.91z" fill="#ee8700"/><path d="m16 44.91v-10c-7.4-.44-13-2.47-13-4.91v10c0 2.44 5.6 4.47 13 4.91z" fill="#2488ff"/><path d="m32 41c-8.837 0-16-2.239-16-5v10c0 2.761 7.163 5 16 5s16-2.239 16-5v-10c0 2.761-7.163 5-16 5z" fill="#5eac24"/><path d="m32 31c-8.837 0-16-2.239-16-5v10c0 2.761 7.163 5 16 5s16-2.239 16-5v-10c0 2.761-7.163 5-16 5z" fill="#7ed63e"/><path d="m16 44.91c-7.4-.44-13-2.47-13-4.91v10c0 2.44 5.6 4.47 13 4.91z" fill="#006df0"/><path d="m16 34.91v-10c-7.4-.44-13-2.47-13-4.91v10c0 2.44 5.6 4.47 13 4.91z" fill="#57a4ff"/><path d="m32 31c8.837 0 16-2.239 16-5v-10c0 2.761-7.163 5-16 5s-16-2.239-16-5v10c0 2.761 7.163 5 16 5z" fill="#91dc5a"/><ellipse cx="32" cy="16" fill="#b6eb92" rx="16" ry="5"/><path d="m32 11c-.506 0-1.006.009-1.5.024 8.132.236 14.5 2.376 14.5 4.976s-6.368 4.74-14.5 4.976c.494.015.994.024 1.5.024 8.837 0 16-2.239 16-5s-7.163-5-16-5z" fill="#a4e276"/></g></svg>