<svg id="Layer_1" enable-background="new 0 0 66 66" viewBox="0 0 66 66" xmlns="http://www.w3.org/2000/svg"><g><g><g><g><path d="m43.63 29.63c-.02 0-.04-.01-.05-.03-.02-.03-.01-.07.02-.08l6.89-4c.56-.32 1.46-.32 2.02 0l6.94 4c.03.02.04.05.02.08s-.06.04-.08.02l-6.94-4c-.52-.3-1.38-.3-1.9 0l-6.89 4c-.01.01-.02.01-.03.01z" fill="#dbdee4"/></g><g><g><g><path d="m47.31 64.5c-.22 0-.44-.06-.64-.17l-6.48-3.76c-.03-.02-.04-.05-.02-.08s.05-.04.08-.02l6.48 3.76c.36.21.8.21 1.16 0l7.22-4.2c.03-.02.07-.01.08.02.02.03.01.07-.02.08l-7.22 4.2c-.2.11-.42.17-.64.17z" fill="#dbdee4"/></g><g><g><path d="m40.75 59.83c.47.27.47.71.01.98-.47.27-1.23.27-1.7 0s-.47-.71-.01-.98c.47-.27 1.23-.27 1.7 0z" fill="#fff"/><path d="m39.91 61.07c-.32 0-.64-.07-.88-.21-.25-.14-.38-.34-.38-.55s.13-.4.38-.54c.48-.28 1.27-.28 1.76 0 .25.14.38.34.38.55s-.13.4-.38.54-.56.21-.88.21zm-.01-1.38c-.3 0-.59.07-.82.2-.21.12-.32.27-.32.44 0 .16.12.32.32.44.45.26 1.19.26 1.63 0 .21-.12.32-.27.32-.44 0-.16-.11-.32-.32-.44-.22-.14-.51-.2-.81-.2z" fill="#dbdee4"/></g><g><path d="m39.91 60.63c-.18 0-.36-.04-.49-.11-.1-.06-.16-.13-.16-.2s.06-.14.16-.19c.12-.07.3-.11.48-.11s.36.04.49.11c.1.06.16.13.16.2s-.06.14-.16.19c-.12.07-.3.11-.48.11z" fill="#1fb6ff"/></g></g></g><g><g><path d="m8.54 50.96c-.01 0-.02 0-.03-.01l-6.61-3.82c-.25-.15-.39-.35-.39-.56s.14-.41.39-.56l9.78-5.68c.03-.02.07-.01.08.02.02.03.01.07-.02.08l-9.78 5.68c-.21.12-.33.28-.33.45s.12.33.33.45l6.61 3.82c.03.02.04.05.02.08-.01.04-.03.05-.05.05z" fill="#dbdee4"/></g></g><g><g><path d="m27.6 59.13c-.02 0-.04-.01-.05-.03-.02-.03-.01-.07.02-.08l9.79-5.69c.03-.02.07-.01.08.02.02.03.01.07-.02.08l-9.79 5.69c-.01 0-.02.01-.03.01z" fill="#dbdee4"/></g><g><g><path d="m36.87 52.69c-.47.27-.47.71-.01.98.47.27 1.23.27 1.7 0s.47-.71.01-.98c-.47-.27-1.23-.27-1.7 0z" fill="#fff"/><path d="m37.71 53.94c-.32 0-.64-.07-.88-.21s-.38-.33-.38-.54.14-.4.38-.55c.49-.28 1.27-.28 1.76 0 .24.14.38.33.38.54s-.14.4-.38.55c-.24.14-.56.21-.88.21zm.01-1.39c-.3 0-.59.07-.82.2-.21.12-.32.28-.32.44s.11.32.32.44c.45.26 1.18.26 1.63 0 .21-.12.32-.28.32-.44s-.11-.32-.32-.44c-.22-.14-.51-.2-.81-.2z" fill="#dbdee4"/></g><g><path d="m37.71 53.49c.18 0 .36-.04.49-.11.1-.06.16-.13.16-.2s-.06-.14-.16-.19c-.12-.07-.3-.11-.48-.11s-.36.04-.49.11c-.1.06-.16.13-.16.2s.06.14.16.19c.12.07.3.11.48.11z" fill="#1fb6ff"/></g></g></g><g><g><g><path d="m42.21 55.44c-.02 0-.04-.01-.05-.03-.02-.03-.01-.07.02-.08l6.61-3.82c.21-.12.33-.28.33-.45s-.12-.33-.33-.45l-9.78-5.68c-.03-.02-.04-.05-.02-.08s.05-.04.08-.02l9.78 5.68c.25.15.39.34.39.56 0 .21-.14.41-.39.56l-6.61 3.82c-.01-.02-.02-.01-.03-.01z" fill="#dbdee4"/></g></g><g><g><g><path d="m40.85 55.11c-.48.28-.49.73-.01 1.01s1.26.28 1.75 0c.48-.28.49-.73.01-1.01s-1.27-.28-1.75 0z" fill="#fff"/><path d="m41.71 56.39c-.33 0-.66-.07-.9-.22-.25-.15-.39-.34-.39-.56 0-.21.14-.41.4-.56.5-.29 1.31-.29 1.81 0 .25.15.39.34.39.56 0 .21-.14.41-.4.56-.25.15-.58.22-.91.22zm-.83-1.23c-.22.12-.33.29-.33.46s.12.33.33.45c.46.27 1.22.27 1.69 0 .22-.12.33-.29.33-.45 0-.17-.12-.33-.33-.45-.47-.28-1.23-.28-1.69-.01z" fill="#dbdee4"/></g><g><path d="m41.71 55.93c.19 0 .37-.04.5-.12.1-.06.16-.13.16-.2s-.06-.14-.16-.2c-.13-.07-.31-.12-.5-.12s-.37.04-.5.12c-.1.06-.16.13-.16.2s.06.14.16.2c.13.08.32.12.5.12z" fill="#1fb6ff"/></g></g></g></g><g><g><g><g opacity=".1"><g><path d="m44.63 43.35 2.41 1.39-10.66 6.2-2.41-1.4-7.06 4.11-25.34-14.63 23.87-13.87 25.33 14.63z"/></g></g><g><g><g enable-background="new"><g><g><path d="m50.77 35.39-.01 2.86-23.86 13.87.01-2.86z" fill="#bec4cd"/><path d="m26.9 52.18c-.01 0-.02 0-.03-.01-.02-.01-.03-.03-.03-.05l.01-2.86c0-.02.01-.04.03-.05l23.87-13.87c.02-.01.04-.01.06 0s.03.03.03.05l-.01 2.86c0 .02-.01.04-.03.05l-23.87 13.87c-.01.01-.02.01-.03.01zm.07-2.89-.01 2.72 23.74-13.8.01-2.72z" fill="#373b42"/></g></g><g><g><path d="m26.91 49.26-.01 2.86-25.34-14.63.01-2.86z" fill="#bec4cd"/><path d="m26.9 52.18c-.01 0-.02 0-.03-.01l-25.34-14.63c-.02-.01-.03-.03-.03-.05l.01-2.86c0-.02.01-.04.03-.05s.04-.01.06 0l25.34 14.63c.02.01.03.03.03.05l-.01 2.86c0 .02-.01.04-.03.05-.01.01-.02.01-.03.01zm-25.28-14.73 25.21 14.56.01-2.72-25.21-14.55z" fill="#373b42"/></g></g><g><g><path d="m50.77 35.39-23.86 13.87-25.34-14.63 23.87-13.87z" fill="#fff"/><path d="m26.91 49.32c-.01 0-.02 0-.03-.01l-25.34-14.63c-.02-.01-.03-.03-.03-.05s.01-.04.03-.05l23.87-13.87c.02-.01.04-.01.06 0l25.33 14.63c.02.01.03.03.03.05s-.01.04-.03.05l-23.86 13.87c-.01.01-.02.01-.03.01zm-25.22-14.69 25.21 14.56 23.74-13.8-25.2-14.56z" fill="#373b42"/></g></g></g></g><g><g><g><g enable-background="new"><g><g><path d="m47.92 17.48-.06 17.9-2.73 1.58.04-14.43-15.47 9.01-.04 14.43-2.75 1.6.06-17.9c4.14-12.91 11.04-17.23 20.95-12.19z" fill="#1fb6ff"/><path d="m26.9 47.63c-.01 0-.02 0-.03-.01-.02-.01-.03-.03-.03-.05l.06-17.9c0-.01 0-.01 0-.02 2.34-7.27 5.58-11.81 9.64-13.5 3.24-1.35 7.08-.91 11.4 1.29.02.01.03.03.03.05l-.06 17.9c0 .02-.01.04-.03.05l-2.73 1.58c-.02.01-.04.01-.06 0s-.03-.03-.03-.05l.04-14.32-15.36 8.92-.04 14.39c0 .02-.01.04-.03.05l-2.75 1.6c0 .02-.01.02-.02.02zm.13-17.96-.06 17.79 2.63-1.53.04-14.39c0-.02.01-.04.03-.05l15.48-8.99c.02-.01.04-.01.06 0s.03.03.03.05l-.04 14.31 2.6-1.51.06-17.83c-4.28-2.17-8.07-2.6-11.27-1.27-4.02 1.68-7.24 6.19-9.56 13.42z" fill="#373b42"/></g><g><path d="m45.17 22.54-.04 12.69-15.47 8.99.04-12.68z" fill="#dbdee4"/><path d="m29.66 44.28c-.01 0-.02 0-.03-.01-.02-.01-.03-.03-.03-.05l.04-12.68c0-.02.01-.04.03-.05l15.48-8.99c.02-.01.04-.01.06 0s.03.03.03.05l-.04 12.68c0 .02-.01.04-.03.05l-15.48 8.99c-.01 0-.02.01-.03.01zm.1-12.71-.04 12.54 15.35-8.92.04-12.54z" fill="#373b42"/></g><g fill="#373b42"><path d="m43.64 32.95-8.21-4.74 8.24-4.79z"/><path d="m43.64 33.01c-.01 0-.02 0-.03-.01l-8.2-4.74c-.02-.01-.03-.03-.03-.05s.01-.04.03-.05l8.23-4.79c.02-.01.04-.01.06 0s.03.03.03.05l-.03 9.53c0 .02-.01.04-.03.05-.01.01-.02.01-.03.01zm-8.08-4.8 8.02 4.63.03-9.31z"/></g><g><path d="m45.17 22.54-.04 14.43-1.5-.87.04-12.68z" fill="#fff"/><path d="m45.13 37.03c-.01 0-.02 0-.03-.01l-1.5-.87c-.02-.01-.03-.03-.03-.05l.04-12.68c0-.02.01-.04.03-.05l1.51-.88c.02-.01.04-.01.06 0s.03.03.03.05l-.04 14.43c0 .02-.01.04-.03.05s-.03.01-.04.01zm-1.44-.96 1.38.8.04-14.21-1.39.81z" fill="#373b42"/></g></g><g><g><path d="m26.96 29.66-.06 17.91-22.54-13.01.07-17.91z" fill="#fff"/><path d="m26.9 47.63c-.01 0-.02 0-.03-.01l-22.54-13.01c-.02-.01-.03-.03-.03-.05l.06-17.9c0-.02.01-.04.03-.05s.04-.01.06 0l22.54 13.01c.02.01.03.03.03.05l-.06 17.9c0 .02-.01.04-.03.05-.01.01-.02.01-.03.01zm-22.47-13.11 22.41 12.94.06-17.76-22.41-12.94z" fill="#373b42"/></g></g></g></g><g><g enable-background="new"><g><g><path d="m15.08 3-6.26 5.82c-.08.07-.15.16-.22.25l22.14 12.87c.07-.1.14-.19.22-.26l6.26-5.82z" fill="#f0f2f5"/><path d="m30.74 22c-.01 0-.02 0-.03-.01l-22.14-12.86c-.02-.01-.03-.03-.03-.04 0-.02 0-.03.01-.05.07-.11.15-.2.23-.27l6.26-5.82c.02-.02.05-.02.07-.01l22.14 12.87c.02.01.03.03.03.05s0 .04-.02.05l-6.26 5.82c-.08.07-.15.16-.21.25-.01.01-.03.02-.05.02zm-22.05-12.95 22.03 12.81c.06-.08.13-.16.2-.22l6.2-5.76-22.03-12.81-6.23 5.79c-.06.05-.12.12-.17.19z" fill="#373b42"/></g><g><path d="m8.6 9.07-4.98 7.4 22.15 12.87 4.97-7.4z" fill="#f0f2f5"/><path d="m25.77 29.4c-.01 0-.02 0-.03-.01l-22.15-12.87c-.01-.01-.03-.02-.03-.04s0-.03.01-.05l4.98-7.4c.02-.02.05-.03.08-.01l22.14 12.87c.01.01.03.02.03.04s0 .03-.01.05l-4.97 7.4c-.01.01-.03.02-.05.02zm-22.06-12.95 22.04 12.81 4.9-7.29-22.03-12.82z" fill="#373b42"/></g><g><path d="m48.72 16.09-22.14-12.87-5-1.64 22.14 12.87z" fill="#dbdee4"/><path d="m48.72 16.15c-.01 0-.01 0-.02 0l-5-1.64-22.15-12.88c-.03-.02-.04-.05-.03-.08s.04-.04.08-.03l5 1.64 22.16 12.87c.03.02.04.05.03.08-.02.02-.04.04-.07.04zm-26.61-14.33 21.64 12.58 4.44 1.45-21.64-12.58z" fill="#373b42"/></g><g><path d="m43.5 14.44c.08-.02.15-.02.22.01l-22.14-12.87c-.06-.02-.14-.02-.22-.01l-6.28 1.43 22.14 12.87z" fill="#f0f2f5"/><path d="m37.22 15.93c-.01 0-.02 0-.03-.01l-22.14-12.87c-.02-.01-.03-.04-.03-.06s.02-.05.05-.05l6.28-1.42c.09-.02.18-.02.25.01l22.15 12.87c.03.02.04.05.02.08-.01.03-.05.04-.08.03-.05-.02-.11-.02-.18 0l-6.28 1.42s0 0-.01 0zm-21.97-12.91 21.98 12.78 6.25-1.42-21.93-12.75c-.04-.01-.1-.01-.17 0z" fill="#373b42"/></g></g><g><g fill="#373b42"><path d="m26.6 30.07-22.14-12.87-.84-.73 22.15 12.87z"/><path d="m26.6 30.13c-.01 0-.02 0-.03-.01l-22.15-12.87-.84-.74c-.02-.02-.03-.06-.01-.08.02-.03.05-.03.08-.02l22.15 12.88.84.74c.02.02.03.06.01.08-.01.01-.03.02-.05.02zm-22.46-13.29.36.31 21.58 12.55-.36-.31z"/></g></g><g><g fill="#373b42"><path d="m37.23 15.87 6.28-1.42c.08-.02.15-.02.22.01l5 1.64-.83 1.69-4.9-1.62-5.77 1.31-5.76 5.35-4.88 7.25-.83-.73 4.97-7.4c.07-.1.14-.18.22-.26z"/><path d="m26.6 30.13c-.01 0-.03-.01-.04-.02l-.83-.73c-.02-.02-.03-.05-.01-.08l4.97-7.4c.07-.1.14-.19.23-.27l6.27-5.82c.01-.01.02-.01.03-.01l6.28-1.42c.09-.02.18-.02.25.01l5 1.64c.02.01.03.02.04.03.01.02.01.03 0 .05l-.83 1.69c-.01.03-.04.04-.07.03l-4.88-1.6-5.73 1.3-5.74 5.33-4.87 7.24c-.03.02-.05.03-.07.03zm-.75-.8.74.65 4.84-7.19 5.76-5.36c.01-.01.02-.01.03-.01l5.77-1.31h.03l4.85 1.59.77-1.57-4.93-1.62c-.05-.02-.12-.02-.18 0l-6.26 1.42-6.27 5.8c-.08.07-.15.15-.21.25z"/></g></g></g></g></g><g><g><g><path d="m37.41 20.8c.93-.54 1.67-.1 1.68.96 0 1.06-.74 2.36-1.67 2.89-.92.53-1.67.1-1.68-.96 0-1.05.74-2.35 1.67-2.89z" fill="#fff"/><path d="m36.67 24.94c-.17 0-.33-.04-.47-.12-.34-.19-.52-.6-.52-1.13 0-1.08.76-2.4 1.7-2.94.47-.27.91-.31 1.25-.12s.52.59.52 1.13c0 1.08-.76 2.4-1.7 2.95-.28.15-.54.23-.78.23zm.77-4.08c-.9.52-1.64 1.79-1.64 2.83 0 .49.17.86.46 1.03.3.17.7.13 1.12-.12.9-.52 1.64-1.8 1.64-2.84 0-.49-.17-.85-.46-1.02-.3-.17-.69-.13-1.12.12z" fill="#373b42"/></g></g><g><path d="m37.41 24.71c-.03 0-.06-.03-.06-.06v-3.85c0-.03.03-.06.06-.06s.06.03.06.06v3.85c0 .04-.02.06-.06.06z" fill="#373b42"/></g><g><path d="m39.08 21.76-3.34 1.93" fill="#fff"/><path d="m35.74 23.75c-.02 0-.04-.01-.05-.03-.02-.03-.01-.07.02-.08l3.35-1.93c.03-.02.07-.01.08.02.02.03.01.07-.02.08l-3.35 1.93c-.01.01-.02.01-.03.01z" fill="#373b42"/></g></g><g><g><g><g fill="#373b42"><path d="m11.02 23.71-.01 3.15v.6l-4.57-2.64.02-3.75.51.3z"/><path d="m11.01 27.52c-.01 0-.02 0-.03-.01l-4.57-2.64c-.02-.01-.03-.03-.03-.05l.01-3.75c0-.02.01-.04.03-.05s.04-.01.06 0l4.57 2.64c.02.01.03.03.03.05l-.01 3.75c0 .02-.01.04-.03.05-.01.01-.02.01-.03.01zm-4.51-2.73 4.44 2.57.01-3.61-4.44-2.57z"/></g></g><g><g fill="#373b42"><path d="m17.67 27.54-.02 3.15v.6l-4.56-2.63.01-3.75.52.29z"/><path d="m17.65 31.35c-.01 0-.02 0-.03-.01l-4.56-2.63c-.02-.01-.03-.03-.03-.05l.02-3.75c0-.02.01-.04.03-.05s.04-.01.06 0l.52.3 4.05 2.34c.02.01.03.03.03.05l-.02 3.75c0 .02-.01.04-.03.05-.02 0-.03 0-.04 0zm-4.5-2.73 4.44 2.56.02-3.61-4.44-2.57z"/></g></g></g></g><g><g><g><g><path d="m11.02 23.71-.01 3.15-4.05-2.34.01-3.15z" fill="#1fb6ff"/><path d="m11.01 26.92c-.01 0-.02 0-.03-.01l-4.05-2.34c-.02-.01-.03-.03-.03-.05l.01-3.15c0-.02.01-.04.03-.05s.04-.01.06 0l4.05 2.34c.02.01.03.03.03.05l-.01 3.15c0 .02-.01.04-.03.05-.01.01-.02.01-.03.01zm-3.99-2.44 3.93 2.27.01-3.01-3.93-2.27z" fill="#373b42"/></g></g><g><g><path d="m17.67 27.54-.02 3.15-4.04-2.33.01-3.16z" fill="#1fb6ff"/><path d="m17.65 30.75c-.01 0-.02 0-.03-.01l-4.05-2.33c-.02-.01-.03-.03-.03-.05l.01-3.16c0-.02.01-.04.03-.05s.04-.01.06 0l4.05 2.34c.02.01.03.03.03.05l-.01 3.15c0 .02-.01.04-.03.05-.01.01-.02.01-.03.01zm-3.98-2.43 3.92 2.26.01-3.01-3.93-2.27z" fill="#373b42"/></g></g></g></g></g></g></g><g><g enable-background="new"><g><g><path d="m35.12 47.39 10.66-6.2 1.26.73-10.66 6.2z" fill="#fff"/><path d="m36.38 48.18c-.01 0-.02 0-.03-.01l-1.26-.73c-.02-.01-.03-.03-.03-.05s.01-.04.03-.05l10.66-6.2c.02-.01.04-.01.06 0l1.26.73c.02.01.03.03.03.05s-.01.04-.03.05l-10.66 6.2c-.01.01-.02.01-.03.01zm-1.14-.79 1.14.66 10.54-6.13-1.14-.66z" fill="#373b42"/></g></g><g><g><path d="m36.38 48.12 10.66-6.2v1.45l-10.66 6.2z" fill="#fff"/><path d="m36.38 49.63c-.01 0-.02 0-.03-.01-.02-.01-.03-.03-.03-.05v-1.45c0-.02.01-.04.03-.05l10.66-6.2c.02-.01.04-.01.06 0s.03.03.03.05v1.45c0 .02-.01.04-.03.05l-10.66 6.2c-.01 0-.02.01-.03.01zm.06-1.48v1.31l10.54-6.13v-1.31z" fill="#373b42"/></g></g><g><g><path d="m35.12 45.94 10.67-6.2-.01 1.45-10.66 6.2z" fill="#fff"/><path d="m35.12 47.45c-.01 0-.02 0-.03-.01-.02-.01-.03-.03-.03-.05v-1.45c0-.02.01-.04.03-.05l10.66-6.2c.02-.01.04-.01.06 0s.03.03.03.05v1.45c0 .02-.01.04-.03.05l-10.66 6.2c-.01.01-.02.01-.03.01zm.07-1.47v1.31l10.54-6.13v-1.31z" fill="#373b42"/></g></g><g><g><path d="m33.87 45.22 10.66-6.2 1.26.72-10.67 6.2z" fill="#fff"/><path d="m35.12 46c-.01 0-.02 0-.03-.01l-1.26-.73c-.02-.01-.03-.03-.03-.05s.01-.04.03-.05l10.66-6.2c.02-.01.04-.01.06 0l1.26.73c.02.01.03.03.03.05s-.01.04-.03.05l-10.65 6.21c-.01 0-.02 0-.04 0zm-1.13-.78 1.14.66 10.54-6.13-1.14-.66z" fill="#373b42"/></g></g><g><g fill="#373b42"><path d="m35.12 45.94v1.45l1.26.73v1.45l-2.52-1.46.01-2.89z"/><path d="m36.38 49.63c-.01 0-.02 0-.03-.01l-2.52-1.45c-.02-.01-.03-.03-.03-.05l.01-2.9c0-.02.01-.04.03-.05s.04-.01.06 0l1.26.73c.02.01.03.03.03.05v1.41l1.23.71c.02.01.03.03.03.05v1.45c0 .02-.01.04-.03.05-.02 0-.03.01-.04.01zm-2.46-1.55 2.39 1.38v-1.31l-1.23-.71c-.02-.01-.03-.03-.03-.05v-1.41l-1.14-.66z"/></g></g></g></g></g><g><path d="m30.72 58.94-9.46 5.5-19.7-11.38 9.46-5.49z" fill="#fff"/><path d="m21.26 64.5c-.01 0-.02 0-.03-.01l-19.7-11.37c-.02-.01-.03-.03-.03-.05s.01-.04.03-.05l9.46-5.5c.02-.01.04-.01.06 0l19.7 11.37c.02.01.03.03.03.05s-.01.04-.03.05l-9.46 5.5c-.01.01-.02.01-.03.01zm-19.58-11.44 19.58 11.3 9.33-5.42-19.58-11.3z" fill="#373b42"/></g><g><path d="m30.72 58.94-9.46 5.5" fill="#fff"/><path d="m21.26 64.5c-.02 0-.04-.01-.05-.03-.02-.03-.01-.07.02-.08l9.46-5.5c.03-.02.07-.01.08.02.02.03.01.07-.02.08l-9.46 5.5c-.01.01-.02.01-.03.01z" fill="#373b42"/></g><g><path d="m7.85 53.86 4.56-2.65 12.02 6.94-4.56 2.65z" fill="#373b42"/></g><g><g><g><path d="m13.89 53.72c.03.02.05.04.05.06 0 .03-.02.05-.05.07s-.07.03-.11.03-.08-.01-.11-.03l-.53-.31-1.49.87c-.03.02-.07.03-.12.03s-.09-.01-.12-.03-.05-.04-.05-.07.02-.05.05-.07l1.49-.87-.53-.31c-.03-.02-.05-.04-.05-.06s.02-.05.05-.06.07-.03.11-.03.08.01.11.03z" fill="#fff"/></g></g><g><g><path d="m20.88 57.76c.03.02.05.04.05.07s-.02.05-.05.07l-1.47.85.26.15c.03.02.05.04.05.06s-.01.05-.04.06c-.03.02-.07.03-.11.03s-.08-.01-.11-.03l-.81-.47c-.03-.02-.05-.04-.05-.06s.02-.04.05-.06.07-.03.11-.03.08.01.11.03l.31.18 1.32-.77-.4-.08-.04-.01-.04-.02c-.03-.02-.05-.04-.05-.06s.02-.05.05-.07c.05-.03.11-.04.17-.02l.54.1c.04.01.07.02.09.03z" fill="#fff"/></g></g><g><g><path d="m18.3 56.16c.03.02.05.04.05.07s-.02.05-.05.07l-1.06.62 1.2.03.06.01.05.02c.05.03.06.05.05.08-.01.02-.03.04-.05.06l-.04.02-.09.01-.72-.05-.15.64c-.01.02-.02.04-.04.06-.04.02-.07.03-.12.03s-.08-.01-.12-.03-.05-.05-.05-.08l.16-.61-.43-.01-.34.2c-.03.02-.07.03-.12.03s-.09-.01-.12-.03-.05-.04-.05-.07.02-.05.05-.07l1.69-.98c.03-.02.07-.03.12-.03.04-.02.09-.01.12.01z" fill="#fff"/></g></g><g><g><path d="m16.84 55.97c.1.06.18.12.22.17.04.06.07.1.09.15.01.03 0 .06-.04.08-.02.01-.05.02-.1.02-.04 0-.08-.01-.1-.02l-.04-.04c-.02-.04-.05-.08-.08-.11s-.07-.07-.14-.11c-.15-.09-.31-.13-.48-.13s-.33.04-.47.12-.21.17-.21.27.07.19.23.28c.07.04.13.07.19.08.06.02.13.03.19.04l.07.02c.03.02.04.04.04.06s-.02.04-.04.06c-.04.02-.08.03-.14.02-.07-.01-.16-.03-.25-.05-.1-.02-.2-.06-.3-.12-.13-.07-.21-.15-.26-.25-.05-.09-.06-.19-.02-.29s.13-.19.27-.27.3-.14.47-.16.33-.02.49.01c.14.04.29.09.41.17z" fill="#fff"/></g></g><g enable-background="new"><g><g><path d="m14.29 54.49c.03.02.05.04.05.07s-.02.05-.05.07-.07.03-.11.03c-.05 0-.08-.01-.12-.03l-.01-.01c-.08-.05-.18-.08-.3-.1-.11-.02-.23-.02-.34 0l-.79.46c-.04.01-.08.02-.13.02s-.09-.01-.12-.03-.05-.04-.05-.07.02-.05.05-.07l1.12-.65c.03-.02.07-.03.12-.03s.09.01.12.03.05.04.05.07-.02.05-.05.07l-.11.06c.11-.01.22-.01.34 0s.22.04.31.09z" fill="#fff"/></g></g><g><g><path d="m15.68 55.31c.03.02.05.04.05.07s-.02.05-.05.07l-1.12.65c-.03.02-.07.03-.12.03s-.09-.01-.12-.03-.05-.04-.05-.07.02-.05.05-.07l.11-.06c-.11 0-.23 0-.36-.02-.13-.01-.25-.06-.37-.12-.1-.06-.16-.12-.19-.19-.02-.07-.01-.13.03-.2s.11-.13.2-.18l.74-.43c.03-.02.07-.03.12-.03s.09.01.12.03.05.04.05.07-.02.05-.05.07l-.71.41c-.1.06-.16.12-.17.17-.01.06.03.12.13.18.09.05.2.09.32.1s.24.01.36.01l.78-.45c.03-.02.07-.03.12-.03.05-.01.09 0 .13.02z" fill="#fff"/></g></g></g></g></g><g><g><g opacity=".1"><path d="m56.72 64.44-7.03-4.09 7.02-4.05 7.03 4.09z"/></g><g><g><g><g enable-background="new"><g><g><path d="m57.42 63.03-7.03-4.09-.02-8.06 7.03 4.08z" fill="#fff"/><path d="m57.42 63.09c-.01 0-.02 0-.03-.01l-7.03-4.08c-.02-.01-.03-.03-.03-.05l-.02-8.07c0-.02.01-.04.03-.05s.04-.01.06 0l7.03 4.09c.02.01.03.03.03.05l.02 8.07c0 .02-.01.04-.03.05-.01 0-.02 0-.03 0zm-6.97-4.18 6.91 4.01-.02-7.92-6.91-4.01z" fill="#373b42"/></g></g><g><g><path d="m57.4 54.96-7.03-4.08 7.01-4.05 7.03 4.08z" fill="#fff"/><path d="m57.4 55.02c-.01 0-.02 0-.03-.01l-7.03-4.09c-.02-.01-.03-.03-.03-.05s.01-.04.03-.05l7.02-4.05c.02-.01.04-.01.06 0l7.03 4.09c.02.01.03.03.03.05s-.01.04-.03.05l-7.02 4.05c-.01.01-.02.01-.03.01zm-6.91-4.14 6.91 4.01 6.9-3.98-6.91-4.01z" fill="#373b42"/></g><g><path d="m61.73 52.46-1.63.94-7.03-4.08 1.63-.94z" fill="#1fb6ff"/><path d="m60.1 53.47c-.01 0-.02 0-.03-.01l-7.03-4.09c-.02-.01-.03-.03-.03-.05s.01-.04.03-.05l1.63-.94c.02-.01.04-.01.06 0l7.03 4.09c.02.01.03.03.03.05s-.01.04-.03.05l-1.64.94s-.01.01-.02.01zm-6.91-4.15 6.91 4.01 1.51-.87-6.91-4.01z" fill="#373b42"/></g></g><g><g><path d="m64.44 58.98-7.02 4.05-.02-8.07 2.7-1.56 1.63-.94 2.69-1.55z" fill="#fff"/><path d="m57.42 63.09c-.01 0-.02 0-.03-.01-.02-.01-.03-.03-.03-.05l-.02-8.07c0-.02.01-.04.03-.05l7.02-4.05c.02-.01.04-.01.06 0s.03.03.03.05l.02 8.07c0 .02-.01.04-.03.05l-7.02 4.05c-.01.01-.02.01-.03.01zm.04-8.09.02 7.92 6.9-3.98-.02-7.92z" fill="#373b42"/></g></g><g><g><path d="m61.74 54.54-1.64.95v-2.09l1.63-.94z" fill="#1fb6ff"/><path d="m60.1 55.55c-.01 0-.02 0-.03-.01-.02-.01-.03-.03-.03-.05v-2.09c0-.02.01-.04.03-.05l1.64-.94c.02-.01.04-.01.06 0s.03.03.03.05v2.08c0 .02-.01.04-.03.05l-1.64.95c-.01.01-.02.01-.03.01zm.06-2.11v1.94l1.51-.87v-1.94z" fill="#373b42"/></g></g></g></g><g><g><g><path d="m59.93 58.24c-.02.01-.03.03-.05.05l-.46.84c-.04.07-.01.13.05.09l.2-.11v1.74c0 .03.02.04.05.03l.44-.25c.03-.02.05-.05.05-.08v-1.74l.2-.11c.05-.03.08-.12.05-.15l-.46-.31c-.03-.02-.05-.01-.07 0z" fill="#373b42"/></g></g><g><g><path d="m58.58 59.02c-.02.01-.03.03-.05.05l-.46.84c-.04.07-.01.13.05.09l.2-.11v1.74c0 .03.02.04.05.03l.44-.25c.03-.01.05-.05.05-.08v-1.74l.2-.11c.05-.03.08-.12.04-.15l-.46-.31c-.02-.02-.04-.01-.06 0z" fill="#373b42"/></g></g></g></g></g></g><g><g><g><g enable-background="new"><g><g><path d="m57.43 53.4-5.67-3.3-.02-6.51 5.67 3.3z" fill="#fff"/><path d="m57.43 53.47c-.01 0-.02 0-.03-.01l-5.68-3.3c-.02-.01-.03-.03-.03-.05l-.02-6.51c0-.02.01-.04.03-.05s.04-.01.06 0l5.68 3.3c.02.01.03.03.03.05l.02 6.51c0 .02-.01.04-.03.05-.01 0-.02.01-.03.01zm-5.61-3.4 5.55 3.23-.02-6.37-5.55-3.23z" fill="#373b42"/></g></g><g><g><path d="m57.41 46.89-5.67-3.3 5.66-3.27 5.68 3.3z" fill="#fff"/><path d="m57.41 46.95c-.01 0-.02 0-.03-.01l-5.68-3.3c-.02-.01-.03-.03-.03-.05s.01-.04.03-.05l5.67-3.27c.02-.01.04-.01.06 0l5.68 3.3c.02.01.03.03.03.05s-.01.04-.03.05l-5.67 3.27c0 .01-.01.01-.03.01zm-5.55-3.36 5.55 3.23 5.54-3.2-5.55-3.23z" fill="#373b42"/></g><g><path d="m60.92 44.87-1.32.76-5.68-3.3 1.32-.76z" fill="#1fb6ff"/><path d="m59.6 45.69c-.01 0-.02 0-.03-.01l-5.68-3.3c-.02-.01-.03-.03-.03-.05s.01-.04.03-.05l1.32-.76c.02-.01.04-.01.06 0l5.68 3.3c.02.01.03.03.03.05s-.01.04-.03.05l-1.32.76c-.01.01-.02.01-.03.01zm-5.56-3.36 5.55 3.23 1.2-.69-5.55-3.23z" fill="#373b42"/></g></g><g><g><path d="m63.1 50.13-5.67 3.27-.02-6.51 2.19-1.26 1.32-.76 2.16-1.25z" fill="#fff"/><path d="m57.43 53.47c-.01 0-.02 0-.03-.01-.02-.01-.03-.03-.03-.05l-.02-6.51c0-.02.01-.04.03-.05l5.67-3.27c.02-.01.04-.01.06 0s.03.03.03.05l.02 6.51c0 .02-.01.04-.03.05l-5.67 3.27c-.01 0-.02.01-.03.01zm.05-6.54.02 6.37 5.55-3.2-.02-6.37z" fill="#373b42"/></g></g><g><g><path d="m60.92 46.55-1.32.77v-1.69l1.32-.76z" fill="#1fb6ff"/><path d="m59.6 47.38c-.01 0-.02 0-.03-.01-.02-.01-.03-.03-.03-.05v-1.68c0-.02.01-.04.03-.05l1.32-.76c.02-.01.04-.01.06 0s.03.03.03.05v1.68c0 .02-.01.04-.03.05l-1.32.76c-.01 0-.02.01-.03.01zm.06-1.71v1.54l1.2-.69v-1.54z" fill="#373b42"/></g></g></g></g><g><g><g><path d="m59.46 49.53c-.01.01-.03.02-.04.04l-.37.68c-.03.05-.01.1.04.08l.16-.09v1.41c0 .02.02.03.04.02l.35-.2c.02-.01.04-.04.04-.07v-1.41l.16-.09c.04-.03.07-.1.04-.12l-.37-.25c-.02-.01-.03-.01-.05 0z" fill="#373b42"/></g></g><g><g><path d="m58.37 50.16c-.01.01-.03.02-.04.04l-.37.68c-.03.05-.01.1.04.08l.16-.09v1.41c0 .02.02.03.04.02l.35-.2c.02-.01.04-.04.04-.07v-1.41l.16-.09c.04-.03.07-.1.04-.12l-.37-.25c-.02-.01-.03-.01-.05 0z" fill="#373b42"/></g></g></g></g></g></g><g><g><g><g enable-background="new"><g><g><path d="m38.26 39.2-4.65-2.7-.01-5.33 4.64 2.7z" fill="#fff"/><path d="m38.26 39.26c-.01 0-.02 0-.03-.01l-4.65-2.7c-.02-.01-.03-.03-.03-.05l-.02-5.33c0-.02.01-.04.03-.05s.04-.01.06 0l4.65 2.7c.02.01.03.03.03.05l.02 5.33c0 .02-.01.04-.03.05-.01.01-.02.01-.03.01zm-4.59-2.79 4.52 2.63-.01-5.19-4.52-2.63z" fill="#373b42"/></g></g><g><g><path d="m38.24 33.87-4.64-2.7 4.64-2.68 4.64 2.7z" fill="#fff"/><path d="m38.24 33.93c-.01 0-.02 0-.03-.01l-4.65-2.7c-.02-.01-.03-.03-.03-.05s.01-.04.03-.05l4.64-2.68c.02-.01.04-.01.06 0l4.65 2.7c.02.01.03.03.03.05s-.01.04-.03.05l-4.64 2.68c-.01.01-.02.01-.03.01zm-4.52-2.76 4.52 2.63 4.52-2.61-4.52-2.63z" fill="#373b42"/></g><g><path d="m41.11 32.22-1.08.62-4.65-2.7 1.08-.62z" fill="#1fb6ff"/><path d="m40.03 32.9c-.01 0-.02 0-.03-.01l-4.65-2.7c-.02-.01-.03-.03-.03-.05s.01-.04.03-.05l1.08-.62c.02-.01.04-.01.06 0l4.65 2.7c.02.01.03.03.03.05s-.01.04-.03.05l-1.08.62c-.01.01-.02.01-.03.01zm-4.52-2.76 4.52 2.63.96-.55-4.52-2.63z" fill="#373b42"/></g></g><g><g><path d="m42.9 36.52-4.64 2.68-.02-5.33 1.79-1.03 1.08-.62 1.77-1.03z" fill="#fff"/><path d="m38.26 39.26c-.01 0-.02 0-.03-.01-.02-.01-.03-.03-.03-.05l-.01-5.33c0-.02.01-.04.03-.05l4.64-2.68c.02-.01.04-.01.06 0s.03.03.03.05l.01 5.33c0 .02-.01.04-.03.05l-4.64 2.68c-.01.01-.02.01-.03.01zm.04-5.35.01 5.19 4.52-2.61-.01-5.19z" fill="#373b42"/></g></g><g><g><path d="m41.11 33.59-1.08.63v-1.38l1.08-.62z" fill="#1fb6ff"/><path d="m40.03 34.28c-.01 0-.02 0-.03-.01-.02-.01-.03-.03-.03-.05v-1.38c0-.02.01-.04.03-.05l1.08-.62c.02-.01.04-.01.06 0s.03.03.03.05v1.38c0 .02-.01.04-.03.05l-1.08.62c-.01.01-.02.01-.03.01zm.06-1.4v1.24l.96-.55v-1.24z" fill="#373b42"/></g></g></g></g><g><g><g><path d="m39.92 36.03c-.01.01-.02.02-.03.03l-.3.56c-.02.04-.01.08.03.06l.13-.08v1.15c0 .02.01.03.03.02l.29-.17c.02-.01.03-.03.03-.05v-1.15l.13-.08c.04-.02.05-.08.03-.1l-.31-.2c-.01.01-.02.01-.03.01z" fill="#373b42"/></g></g><g><g><path d="m39.03 36.55c-.01.01-.02.02-.03.03l-.3.56c-.02.04-.01.08.03.06l.13-.08v1.15c0 .02.01.03.03.02l.29-.17c.02-.01.03-.03.03-.05v-1.15l.13-.08c.04-.02.05-.08.03-.1l-.31-.2c-.01 0-.02 0-.03.01z" fill="#373b42"/></g></g></g></g></g></g><g><g><g><g><path d="m59.46 30.4c-.44-.25-.44-.67-.01-.92.44-.25 1.15-.25 1.59 0s.44.67 0 .92c-.43.26-1.14.26-1.58 0z" fill="#fff"/><path d="m60.25 30.65c-.3 0-.6-.07-.83-.2-.23-.13-.36-.32-.36-.51 0-.2.13-.38.36-.51.45-.26 1.19-.26 1.65 0 .23.13.36.32.36.51 0 .2-.13.38-.36.51-.22.14-.52.2-.82.2zm-.76-.3c.42.24 1.11.24 1.53 0 .19-.11.3-.25.3-.41 0-.15-.11-.3-.3-.41-.42-.24-1.11-.24-1.53 0-.19.11-.3.25-.3.41 0 .15.1.3.3.41z" fill="#dbdee4"/></g><g><path d="m60.25 29.65c.17 0 .34.04.46.11.09.05.15.12.15.18s-.05.13-.15.18c-.12.07-.28.11-.45.11s-.34-.04-.46-.11c-.09-.05-.15-.12-.15-.18s.05-.13.15-.18c.11-.07.28-.11.45-.11z" fill="#1fb6ff"/></g></g><g><path d="m56.37 27.45c.18 0 .36.04.49.12.1.06.16.13.16.2s-.06.14-.16.2c-.13.07-.3.11-.49.11-.18 0-.36-.04-.49-.11-.1-.06-.16-.13-.16-.2s.06-.14.16-.2c.13-.08.31-.12.49-.12z" fill="#373b42"/></g></g></g></g><g><path d="m5.05 43.94c-.15 0-.3.03-.41.1-.08.05-.13.11-.13.16 0 .06.05.11.13.16.1.06.25.1.4.1s.3-.03.41-.1c.08-.05.13-.11.13-.16 0-.06-.05-.11-.13-.16-.1-.06-.25-.1-.4-.1z" fill="#373b42"/></g><g><path d="m3.97 47.9c-.15 0-.3.03-.41.1-.08.05-.13.11-.13.16 0 .06.05.11.13.16.1.06.25.1.4.1s.3-.03.41-.1c.08-.05.13-.11.13-.16 0-.06-.05-.11-.13-.16-.1-.07-.24-.1-.4-.1z" fill="#373b42"/></g><g><path d="m42.99 61.84c-.15 0-.3.03-.41.1-.08.05-.13.11-.13.16 0 .06.05.11.13.16.1.06.25.1.4.1s.3-.03.41-.1c.08-.05.13-.11.13-.16 0-.06-.05-.11-.13-.16-.1-.07-.25-.1-.4-.1z" fill="#373b42"/></g><g><path d="m32.28 56.06c-.15 0-.3.03-.41.1-.08.05-.13.11-.13.16 0 .06.05.11.13.16.1.06.25.1.4.1s.3-.03.41-.1c.08-.05.13-.11.13-.16 0-.06-.05-.11-.13-.16-.1-.06-.25-.1-.4-.1z" fill="#373b42"/></g><g><path d="m45.66 48.38c-.15 0-.3.03-.41.1-.08.05-.13.11-.13.16 0 .06.05.11.13.16.1.06.25.1.4.1s.3-.03.41-.1c.08-.05.13-.11.13-.16 0-.06-.05-.11-.13-.16-.1-.07-.25-.1-.4-.1z" fill="#373b42"/></g></g></g></svg>