<svg enable-background="new 0 0 520 520" height="512" viewBox="0 0 520 520" width="512" xmlns="http://www.w3.org/2000/svg"><g id="_x33_27_x5F_9_-_Layer_24_x2C__compass_x2C__direction_x2C__navigation"><g><path d="m49.995 125.11c11.05 0 20 8.95 20 20s-8.95 20-20 20c-11.04 0-20-8.95-20-20s8.96-20 20-20z" fill="#41c476"/><path d="m469.995 335.11c11.05 0 20 8.95 20 20s-8.95 20-20 20c-11.04 0-20-8.95-20-20s8.96-20 20-20z" fill="#41c476"/><path d="m369.995 25.11c11.05 0 20 8.95 20 20s-8.95 20-20 20c-11.04 0-20-8.95-20-20s8.96-20 20-20z" fill="#41c476"/><path d="m259.995 255.11v230h-.099l-23.861-51.589-22.59-48.861-26.25-56.75z" fill="#bf8c3a"/><path d="m259.995 255.11h-230.21l51.8-23.96 48.86-22.589 56.75-26.25z" fill="#bf8c3a"/><path d="m332.795 327.91-26.24 56.75-22.6 48.861-23.86 51.589h-.1v-230z" fill="#ffbb4d"/><path d="m490.215 255.11h-230.22l72.8-72.799 56.76 26.25 48.85 22.589z" fill="#ffbb4d"/><path d="m259.995 255.11-72.8 72.8-56.75-26.25-48.86-22.59-51.8-23.96z" fill="#ffbb4d"/><path d="m490.215 255.11-51.81 23.96-48.85 22.59-56.76 26.25-72.8-72.8z" fill="#bf8c3a"/><path d="m306.555 125.561 26.24 56.75-72.8 72.799v-230.22l23.96 51.81z" fill="#bf8c3a"/><path d="m259.995 24.89v230.22l-72.8-72.799 26.25-56.75 22.59-48.861z" fill="#ffbb4d"/><g fill="#f25353"><path d="m159.545 404.471-77.34 28.43 28.43-77.34c12.99 19.29 29.62 35.919 48.91 48.91z"/><path d="m213.445 384.66-53.9 19.811c-19.29-12.99-35.92-29.62-48.91-48.91l19.811-53.9 56.75 26.25z"/><path d="m409.365 355.561 28.42 77.34-77.33-28.43c19.29-12.991 35.92-29.62 48.91-48.91z"/><path d="m389.555 301.66 19.811 53.9c-12.99 19.29-29.62 35.92-48.91 48.91l-53.9-19.811 26.24-56.75z"/><path d="m437.785 77.32-28.42 77.34c-12.99-19.29-29.62-35.92-48.91-48.91z"/><path d="m409.365 154.66-19.811 53.9-56.76-26.25-26.24-56.75 53.9-19.811c19.291 12.991 35.921 29.621 48.911 48.911z"/><path d="m82.205 77.32 77.34 28.43c-19.29 12.99-35.92 29.62-48.91 48.91z"/><path d="m213.445 125.561-26.25 56.75-56.75 26.25-19.811-53.9c12.99-19.29 29.62-35.92 48.91-48.91z"/></g><path d="m110.635 154.66 19.811 53.9-48.86 22.59c3.729-28.049 13.929-54.07 29.049-76.49z" fill="#b2b4b6"/><path d="m130.445 301.66-19.811 53.9c-15.12-22.42-25.319-48.44-29.05-76.49z" fill="#b2b4b6"/><path d="m213.445 384.66 22.59 48.86c-28.05-3.73-54.07-13.93-76.49-29.05z" fill="#b2b4b6"/><path d="m306.555 384.66 53.9 19.811c-22.43 15.12-48.44 25.319-76.5 29.05z" fill="#b2b4b6"/><path d="m389.555 301.66 48.851-22.59c-3.73 28.05-13.92 54.07-29.04 76.49z" fill="#b2b4b6"/><path d="m438.405 231.15-48.851-22.59 19.811-53.9c15.12 22.42 25.31 48.441 29.04 76.49z" fill="#b2b4b6"/><path d="m360.455 105.75-53.9 19.811-22.6-48.86c28.06 3.729 54.07 13.929 76.5 29.049z" fill="#b2b4b6"/><path d="m236.035 76.7-22.59 48.86-53.9-19.811c22.42-15.119 48.44-25.319 76.49-29.049z" fill="#b2b4b6"/><path d="m399.995 495.11h-280c-5.523 0-10-4.478-10-10s4.477-10 10-10h280c5.522 0 10 4.478 10 10s-4.477 10-10 10z" fill="#393939"/></g></g></svg>