<svg id="Capa_1" enable-background="new 0 0 512 512" height="512" viewBox="0 0 512 512" width="512" xmlns="http://www.w3.org/2000/svg"><g><path d="m328.001 34.652h-144.002l-116.5 84.548-44.499 136.8 44.499 136.801 116.5 84.547h144.002l116.5-84.547 44.499-136.801-44.499-136.8z" fill="#ffc26d"/><path d="m190.395 444.886-19.636-15.189-12.245-7.472-13.188-12.202-28.751-22.241-9.468-6.761c-.098-.076-5.36-4.711-5.456-4.789-2.095-1.711-3.652-3.994-4.478-6.575l-13.895-43.402-7.193-16.219-3.7-17.805-10.202-31.866c-.767-2.397-.874-4.957-.31-7.409l9.586-41.642 3.944-22.131 5.877-20.531 16.218-70.451-30 21-44.498 136.799 44.499 136.8 116.5 84.547h144.002l9.105-20.359-31.475-2.084-15.713-.04-16.041-2.062-32.944-2.181-13.313.119-12.131-1.803-17.454-1.155c-2.778-.184-5.438-1.192-7.64-2.896z" fill="#ffb54e"/><g><path d="m330.012 479.472-4.658-14.259 12.006-3.922 89.263-64.782 15.978-22.104 34.043-104.655v-27.502l-34.08-104.768-15.84-21.918-89.331-64.831-26.233-8.58h-110.274l-26.248 8.562-79.577 57.69 5.343-22.392 66.379-48.131c.634-.46 1.335-.818 2.08-1.061l28.504-9.298c.751-.245 1.536-.37 2.326-.37h112.66c.792 0 1.579.125 2.331.372l28.489 9.318c.742.243 1.442.6 2.074 1.059l91.256 66.228c.644.467 1.208 1.033 1.674 1.677l17.232 23.845c.456.632.812 1.332 1.053 2.073l34.812 107.018c.244.749.368 1.532.368 2.32v29.88c0 .788-.124 1.571-.368 2.32l-34.775 106.905c-.241.742-.597 1.441-1.054 2.074l-17.369 24.03c-.465.644-1.03 1.21-1.673 1.676l-91.188 66.179c-.633.459-1.333.816-2.076 1.06z" fill="#f7f9fa"/></g><g><path d="m312.363 484.848h-112.723c-.791 0-1.576-.125-2.328-.371l-28.432-9.284c-.743-.243-1.444-.6-2.077-1.06l-90.571-65.729c-.618-.448-1.164-.989-1.619-1.603l-17.876-24.105c-.483-.651-.857-1.376-1.108-2.147l-34.903-107.302c-.244-.749-.368-1.532-.368-2.32v-29.855c0-.788.124-1.571.368-2.32l34.862-107.174c.25-.769.623-1.493 1.104-2.143l17.962-24.265c.456-.616 1.003-1.158 1.623-1.607l24.128-17.552-5.343 22.392-9.04 6.621-16.548 22.354-34.116 104.883v27.477l34.157 105.006 16.461 22.197 88.683 64.359 26.175 8.547h110.335l14.185-4.634 4.658 14.259-15.319 5.005c-.753.246-1.539.371-2.33.371z" fill="#e9edf1"/></g><g><path d="m256 365.488c-1.918 0-3.836-.731-5.3-2.194l-102.102-101.988c-1.408-1.407-2.2-3.315-2.2-5.306s.792-3.899 2.2-5.306l102.102-101.988c2.928-2.925 7.671-2.925 10.601 0l102.103 101.988c1.408 1.407 2.199 3.315 2.199 5.306s-.791 3.899-2.199 5.306l-102.103 101.988c-1.465 1.462-3.383 2.194-5.301 2.194zm-91.49-109.488 91.49 91.387 91.49-91.387-91.49-91.387z" fill="#f7f9fa"/></g><g><path d="m256 440.044c-1.135 0-2.271-.258-3.316-.773l-118.346-58.331c-1.556-.767-2.799-2.05-3.515-3.63l-53.586-118.213c-.892-1.968-.892-4.225 0-6.193l53.586-118.213c.716-1.581 1.959-2.864 3.515-3.631l118.346-58.331c2.092-1.03 4.542-1.029 6.631 0l118.346 58.332c1.567.772 2.815 2.067 3.529 3.662l53.154 118.713c.877 1.958.873 4.197-.01 6.151l-53.153 117.713c-.715 1.585-1.959 2.872-3.52 3.641l-118.346 58.331c-1.044.515-2.179.772-3.315.772zm-112.623-71.372 112.623 55.511 112.617-55.508 50.659-112.188-50.671-113.167-112.605-55.503-112.623 55.511-51.074 112.672z" fill="#f7f9fa"/></g><g><path d="m154.258 263.033c-3.672 0-6.88-2.699-7.415-6.439l-16.877-118.008c-.586-4.101 2.262-7.9 6.362-8.486 4.107-.586 7.9 2.263 8.486 6.362l16.877 118.008c.586 4.101-2.262 7.9-6.362 8.486-.359.052-.718.077-1.071.077z" fill="#f7f9fa"/></g><g><path d="m256.478 161.883c-.35 0-.704-.024-1.061-.075l-119.079-16.858c-4.101-.581-6.955-4.376-6.375-8.477s4.38-6.956 8.477-6.375l119.079 16.858c4.101.581 6.955 4.376 6.374 8.477-.529 3.745-3.739 6.45-7.415 6.45z" fill="#f7f9fa"/></g><g><path d="m357.742 263.033c-.354 0-.712-.025-1.071-.077-4.101-.586-6.949-4.386-6.363-8.486l16.877-118.008c.586-4.101 4.393-6.956 8.486-6.362 4.101.586 6.949 4.386 6.363 8.486l-16.877 118.008c-.535 3.74-3.744 6.439-7.415 6.439z" fill="#f7f9fa"/></g><g><path d="m256.459 161.883c-3.673 0-6.882-2.7-7.416-6.441-.585-4.101 2.265-7.899 6.365-8.484l118.141-16.858c4.104-.585 7.898 2.265 8.484 6.365.585 4.101-2.265 7.899-6.365 8.484l-118.141 16.858c-.358.051-.715.076-1.068.076z" fill="#f7f9fa"/></g><g><path d="m374.619 381.978c-.354 0-.71-.025-1.069-.076l-118.141-16.858c-4.101-.585-6.95-4.384-6.365-8.484s4.384-6.951 8.484-6.365l118.141 16.858c4.101.585 6.95 4.384 6.365 8.484-.534 3.74-3.743 6.441-7.415 6.441z" fill="#f7f9fa"/></g><g><path d="m374.6 381.978c-3.675 0-6.885-2.704-7.416-6.447l-16.877-118.945c-.582-4.101 2.271-7.897 6.372-8.479 4.102-.575 7.897 2.271 8.479 6.372l16.877 118.945c.582 4.101-2.271 7.897-6.372 8.479-.357.05-.713.075-1.063.075z" fill="#f7f9fa"/></g><g><path d="m137.399 381.978c-.351 0-.706-.024-1.063-.075-4.101-.582-6.954-4.378-6.372-8.479l16.877-118.945c.582-4.101 4.376-6.952 8.479-6.372 4.101.582 6.954 4.378 6.372 8.479l-16.876 118.944c-.531 3.744-3.741 6.448-7.417 6.448z" fill="#f7f9fa"/></g><g><path d="m137.381 381.978c-3.676 0-6.887-2.705-7.417-6.45-.581-4.101 2.273-7.896 6.375-8.477l119.079-16.858c4.107-.586 7.896 2.274 8.477 6.375s-2.273 7.896-6.374 8.477l-119.079 16.858c-.357.05-.712.075-1.061.075z" fill="#f7f9fa"/></g><g><path d="m256 440.044c-4.142 0-7.5-3.358-7.5-7.5v-353.088c0-4.142 3.358-7.5 7.5-7.5 4.143 0 7.5 3.358 7.5 7.5v353.089c0 4.142-3.357 7.499-7.5 7.499z" fill="#f7f9fa"/></g><g><path d="m486.5 263.5h-415c-4.142 0-7.5-3.358-7.5-7.5s3.358-7.5 7.5-7.5h415c4.143 0 7.5 3.358 7.5 7.5s-3.357 7.5-7.5 7.5z" fill="#f7f9fa"/></g><g><path d="m137.395 145.025c-.639 0-1.289-.083-1.936-.255l-70.322-18.731c-4.002-1.066-6.383-5.175-5.316-9.178 1.066-4.002 5.175-6.383 9.178-5.316l70.322 18.731c4.002 1.066 6.383 5.175 5.316 9.178-.893 3.356-3.927 5.571-7.242 5.571z" fill="#f7f9fa"/></g><g><path d="m374.604 145.025c-3.315 0-6.349-2.216-7.242-5.571-1.066-4.003 1.314-8.112 5.316-9.178l70.322-18.731c4.002-1.067 8.112 1.314 9.178 5.316 1.066 4.003-1.314 8.112-5.316 9.178l-70.322 18.731c-.646.173-1.297.255-1.936.255z" fill="#f7f9fa"/></g><g><path d="m256.476 86.957c-2.49 0-4.924-1.238-6.351-3.499-2.21-3.503-1.162-8.135 2.341-10.345l71.26-44.956c3.502-2.21 8.136-1.162 10.345 2.341 2.211 3.503 1.162 8.135-2.341 10.345l-71.26 44.956c-1.241.784-2.626 1.158-3.994 1.158z" fill="#f7f9fa"/></g><g><path d="m256.461 86.957c-1.354 0-2.724-.366-3.957-1.134l-72.197-44.956c-3.516-2.189-4.592-6.815-2.402-10.331s6.813-4.592 10.331-2.402l72.197 44.956c3.517 2.189 4.592 6.815 2.402 10.331-1.421 2.282-3.869 3.536-6.374 3.536z" fill="#f7f9fa"/></g><g><path d="m374.614 145.025c-2.851 0-5.574-1.633-6.831-4.396l-46.881-103.023c-1.716-3.77-.051-8.217 3.72-9.933s8.218-.049 9.933 3.72l46.881 103.023c1.716 3.77.051 8.217-3.72 9.933-1.007.459-2.064.676-3.102.676z" fill="#f7f9fa"/></g><g><path d="m137.386 145.025c-1.039 0-2.095-.217-3.102-.675-3.77-1.716-5.436-6.163-3.72-9.933l46.881-103.023c1.715-3.771 6.163-5.435 9.933-3.72 3.77 1.716 5.436 6.163 3.72 9.933l-46.881 103.023c-1.258 2.763-3.982 4.395-6.831 4.395z" fill="#f7f9fa"/></g><g><path d="m184.279 485.001c-2.49 0-4.924-1.238-6.351-3.499-2.21-3.503-.516-6.164 2.987-8.374l34.574-24.19 36.04-22.737c3.506-2.21 8.136-1.161 10.345 2.341 2.211 3.503 1.162 8.135-2.341 10.345l-18.6 11.734-53.039 32.038c-1.243.784-2.248 2.342-3.615 2.342z" fill="#f7f9fa"/></g><g><path d="m327.722 485.001c-1.354 0-2.424-3.786-3.658-4.554l-50.187-27.644-22.31-13.892c-3.516-2.189-4.592-6.815-2.402-10.331s6.816-4.591 10.331-2.402l46.136 28.728 24.901 16.861c3.517 2.189 5.752 6.182 3.563 9.698-1.422 2.282-3.87 3.536-6.374 3.536z" fill="#f7f9fa"/></g><g><path d="m327.724 485.002c-1.039 0-2.094-.217-3.102-.675-3.771-1.716-5.436-6.163-3.72-9.933l46.881-103.023c1.716-3.77 6.161-5.433 9.933-3.72 3.771 1.716 5.436 6.163 3.72 9.933l-46.881 103.023c-1.257 2.762-3.982 4.395-6.831 4.395z" fill="#f7f9fa"/></g><g><path d="m184.276 485.002c-2.85 0-3.636-2.767-4.893-5.53l-34.057-69.449-14.762-32.44c-1.715-3.77-.05-8.217 3.72-9.933 3.769-1.714 8.217-.05 9.933 3.72l26.542 58.327 17.816 45.984c1.715 3.77 2.573 6.93-1.197 8.646-1.007.458-2.063.675-3.102.675z" fill="#f7f9fa"/></g><g><path d="m67.063 400.71c-3.316 0-6.349-2.216-7.242-5.571-1.066-4.003 1.44-6.609 5.442-7.675l36.388-11.229 33.808-9.005c4.003-1.067 8.112 1.314 9.178 5.316 1.066 4.003-1.314 8.112-5.316 9.178l-22.747 6.059-48.074 9.316c-.647.172-.797 3.611-1.437 3.611z" fill="#f7f9fa"/></g><g><path d="m444.937 400.71c-.64 0-1.288-.083-1.936-.255l-70.322-18.731c-4.002-1.066-6.383-5.175-5.316-9.178s5.174-6.381 9.178-5.316l70.322 18.731c4.002 1.066 6.383 5.175 5.316 9.178-.894 3.355-3.927 5.571-7.242 5.571z" fill="#f7f9fa"/></g><g><path d="m84.491 263.001c-3.73 0-6.962-2.78-7.434-6.578l-5.75-46.336-10.25-90.664c-.51-4.11 1.409-7.856 5.52-8.366 4.108-.512 6.856 2.409 7.366 6.52l7.338 51.074 10.662 85.926c.51 4.11-2.409 7.856-6.52 8.366-.313.039-.625.058-.932.058z" fill="#f7f9fa"/></g><g><path d="m67.509 400.001c-.308 0-.619-.019-.933-.058-4.111-.51-5.03-3.256-4.52-7.366l10.329-100.347 4.672-37.654c.51-4.111 4.256-7.031 8.366-6.52 4.111.51 7.03 4.256 6.52 8.366l-8.665 69.832-10.335 67.168c-.471 3.799-1.703 6.579-5.434 6.579z" fill="#f7f9fa"/></g><g fill="#e9edf1"><path d="m61.01 256.702 1.888-8.202h-35.398c-.753 0-1.479.114-2.165.32l-2.335 7.18 2.335 7.18c.686.206 1.412.32 2.165.32h35.687z"/><path d="m183.999 477.348h14.57l42.363-26.726-25.444-1.684-35.22 22.219c-.843.532-1.54 1.206-2.088 1.969z"/><path d="m313.295 477.348h14.706l5.818-4.222c-.556-.775-1.267-1.457-2.127-1.992l-26.062-16.228-31.754-2.102z"/><path d="m171.999 468.639 12 8.709h7.771c-.02-.991-.235-1.995-.671-2.954l-20.339-44.697-25.433-19.674z"/><path d="m67.499 392.8 8.118 5.892 40.957-10.909-14.927-11.547-36.384 9.691z"/><path d="m62.092 135.822 9.367 75.491 9.821-42.662-6.338-51.074c-.131-1.057-.479-2.033-.99-2.895l-6.454 4.518z"/><path d="m73.422 397.099c.803-1.032 1.349-2.284 1.521-3.675l8.335-67.168-10.893-34.026-10.383 83.672 5.497 16.899z"/></g><g><path d="m427.51 264.001c-.309 0-.62-.019-.934-.058-4.11-.51-7.029-4.256-6.52-8.366l17-137c.511-4.112 4.267-7.031 8.367-6.52 4.11.51 7.029 4.256 6.52 8.366l-17 137c-.471 3.798-3.704 6.578-7.433 6.578z" fill="#f7f9fa"/></g><g><path d="m444.49 400.001c-3.728 0-6.958-2.776-7.433-6.571l-17-136c-.514-4.11 2.402-7.858 6.512-8.372 4.113-.515 7.859 2.401 8.373 6.512l17 136c.514 4.11-2.402 7.858-6.512 8.372-.316.039-.629.059-.94.059z" fill="#f7f9fa"/></g><g fill="#5f6c75"><path d="m512 256c0-12.703-10.297-23-23-23-1.848 0-3.644.218-5.366.629-10.114 2.418-16.634 11.516-16.634 22.371 0 12.703 9.297 22 22 22 10.855 0 19.954-6.52 22.371-16.634.411-1.722.629-3.518.629-5.366z"/><path d="m451 256c0-12.703-10.297-23-23-23-1.848 0-3.644.218-5.366.629-10.114 2.418-16.634 11.516-16.634 22.371 0 12.703 9.297 22 22 22 10.855 0 19.954-6.52 22.371-16.634.411-1.722.629-3.518.629-5.366z"/><path d="m381 256c0-12.703-10.297-23-23-23-1.848 0-3.644.218-5.366.629-10.114 2.418-16.634 11.516-16.634 22.371 0 12.703 9.297 22 22 22 10.855 0 19.954-6.52 22.371-16.634.411-1.722.629-3.518.629-5.366z"/><path d="m177 256c0-12.703-10.297-23-23-23-1.848 0-3.644.218-5.366.629-10.114 2.417-16.634 11.516-16.634 22.371 0 12.703 9.297 22 22 22 10.855 0 19.954-6.52 22.371-16.634.411-1.722.629-3.518.629-5.366z"/><path d="m279 256c0-12.703-10.297-23-23-23-1.848 0-3.644.218-5.366.629-10.114 2.418-16.634 11.516-16.634 22.371 0 12.703 9.297 22 22 22 10.855 0 19.954-6.52 22.371-16.634.411-1.722.629-3.518.629-5.366z"/><path d="m279 154c0-12.703-10.297-23-23-23-1.848 0-3.644.218-5.366.629-10.114 2.418-16.634 11.516-16.634 22.371 0 12.703 9.297 22 22 22 10.855 0 19.954-6.52 22.371-16.634.411-1.722.629-3.518.629-5.366z"/><path d="m279 358c0-12.703-10.297-23-23-23-1.848 0-3.644.218-5.366.629-10.114 2.418-16.634 11.516-16.634 22.371 0 12.703 9.297 22 22 22 10.855 0 19.954-6.52 22.371-16.634.411-1.722.629-3.518.629-5.366z"/><path d="m279 433c0-12.703-10.297-23-23-23-1.848 0-3.644.218-5.366.629-10.114 2.418-16.634 11.516-16.634 22.371 0 12.703 9.297 22 22 22 10.855 0 19.954-6.52 22.371-16.634.411-1.722.629-3.518.629-5.366z"/><path d="m279 79c0-12.703-10.297-23-23-23-1.848 0-3.644.218-5.366.629-10.114 2.418-16.634 11.516-16.634 22.371 0 12.703 9.297 22 22 22 10.855 0 19.954-6.52 22.371-16.634.411-1.722.629-3.518.629-5.366z"/><path d="m468 393c0-12.703-10.297-23-23-23-1.848 0-3.644.218-5.366.629-10.114 2.418-16.634 11.516-16.634 22.371 0 12.703 9.297 22 22 22 10.855 0 19.954-6.52 22.371-16.634.411-1.722.629-3.518.629-5.366z"/><path d="m397 374c0-12.703-10.297-23-23-23-1.848 0-3.644.218-5.366.629-10.114 2.418-16.634 11.516-16.634 22.371 0 12.703 9.297 22 22 22 10.855 0 19.954-6.52 22.371-16.634.411-1.722.629-3.518.629-5.366z"/><path d="m160 374c0-12.703-10.297-23-23-23-1.848 0-3.644.218-5.366.629-10.114 2.417-16.634 11.516-16.634 22.371 0 12.703 9.297 22 22 22 10.855 0 19.954-6.52 22.371-16.634.411-1.722.629-3.518.629-5.366z"/><path d="m397 137c0-12.703-10.297-23-23-23-1.848 0-3.644.218-5.366.629-10.114 2.418-16.634 11.516-16.634 22.371 0 12.703 9.297 22 22 22 10.855 0 19.954-6.52 22.371-16.634.411-1.722.629-3.518.629-5.366z"/><path d="m160 137c0-12.703-10.297-23-23-23-1.848 0-3.644.218-5.366.629-10.114 2.417-16.634 11.516-16.634 22.371 0 12.703 9.297 22 22 22 10.855 0 19.954-6.52 22.371-16.634.411-1.722.629-3.518.629-5.366z"/><path d="m91 393c0-12.703-10.297-23-23-23-1.848 0-3.644.218-5.366.629-10.114 2.417-16.634 11.516-16.634 22.371 0 12.703 9.297 22 22 22 10.855 0 19.954-6.52 22.371-16.634.411-1.722.629-3.518.629-5.366z"/><path d="m351 477c0-12.703-10.297-23-23-23-1.848 0-3.644.218-5.366.629-10.114 2.418-16.634 11.516-16.634 22.371 0 12.703 9.297 22 22 22 10.855 0 19.954-6.52 22.371-16.634.411-1.722.629-3.518.629-5.366z"/><path d="m207 477c0-12.703-10.297-23-23-23-1.848 0-3.644.218-5.366.629-10.114 2.417-16.634 11.516-16.634 22.371 0 12.703 9.297 22 22 22 10.855 0 19.954-6.52 22.371-16.634.411-1.722.629-3.518.629-5.366z"/><path d="m91 119c0-12.703-10.297-23-23-23-1.848 0-3.644.218-5.366.629-10.114 2.417-16.634 11.516-16.634 22.371 0 12.703 9.297 22 22 22 10.855 0 19.954-6.52 22.371-16.634.411-1.722.629-3.518.629-5.366z"/><path d="m468 119c0-12.703-10.297-23-23-23-1.848 0-3.644.218-5.366.629-10.114 2.418-16.634 11.516-16.634 22.371 0 12.703 9.297 22 22 22 10.855 0 19.954-6.52 22.371-16.634.411-1.722.629-3.518.629-5.366z"/><path d="m351 35c0-12.703-10.297-23-23-23-1.848 0-3.644.218-5.366.629-10.114 2.418-16.634 11.516-16.634 22.371 0 12.703 9.297 22 22 22 10.855 0 19.954-6.52 22.371-16.634.411-1.722.629-3.518.629-5.366z"/><path d="m207 35c0-12.703-10.297-23-23-23-1.848 0-3.644.218-5.366.629-10.114 2.417-16.634 11.516-16.634 22.371 0 12.703 9.297 22 22 22 10.855 0 19.954-6.52 22.371-16.634.411-1.722.629-3.518.629-5.366z"/><path d="m46 256c0-12.703-10.297-23-23-23-1.848 0-3.644.218-5.366.629-10.114 2.417-16.634 11.516-16.634 22.371 0 12.703 9.297 22 22 22 10.855 0 19.954-6.52 22.371-16.634.411-1.722.629-3.518.629-5.366z"/><path d="m107 256c0-12.703-10.297-23-23-23-1.848 0-3.644.218-5.366.629-10.114 2.417-16.634 11.516-16.634 22.371 0 12.703 9.297 22 22 22 10.855 0 19.954-6.52 22.371-16.634.411-1.722.629-3.518.629-5.366z"/></g><g fill="#4e5a61"><path d="m273 364c-12.703 0-23-10.297-23-23 0-1.848.224-3.643.635-5.364-10.113 2.417-17.635 11.509-17.635 22.364 0 12.703 10.297 23 23 23 10.855 0 19.947-7.522 22.365-17.636-1.722.412-3.517.636-5.365.636z"/><path d="m273 439c-12.703 0-23-10.297-23-23 0-1.848.224-3.643.635-5.364-10.113 2.417-17.635 11.509-17.635 22.364 0 12.703 10.297 23 23 23 10.855 0 19.947-7.522 22.365-17.636-1.722.412-3.517.636-5.365.636z"/><path d="m462 399c-12.703 0-23-10.297-23-23 0-1.848.224-3.643.635-5.364-10.113 2.417-17.635 11.509-17.635 22.364 0 12.703 10.297 23 23 23 10.855 0 19.947-7.522 22.365-17.636-1.722.412-3.517.636-5.365.636z"/><path d="m391 380c-12.703 0-23-10.297-23-23 0-1.848.224-3.643.635-5.364-10.113 2.417-17.635 11.509-17.635 22.364 0 12.703 10.297 23 23 23 10.855 0 19.947-7.522 22.365-17.636-1.722.412-3.517.636-5.365.636z"/><path d="m154 380c-12.703 0-23-10.297-23-23 0-1.848.224-3.643.636-5.364-10.114 2.417-17.636 11.509-17.636 22.364 0 12.703 10.297 23 23 23 10.855 0 19.947-7.522 22.364-17.636-1.721.412-3.516.636-5.364.636z"/><path d="m85 399c-12.703 0-23-10.297-23-23 0-1.848.224-3.643.636-5.364-10.114 2.417-17.636 11.509-17.636 22.364 0 12.703 10.297 23 23 23 10.855 0 19.947-7.522 22.364-17.636-1.721.412-3.516.636-5.364.636z"/><path d="m345 483c-12.703 0-23-10.297-23-23 0-1.848.224-3.643.635-5.364-10.113 2.417-17.635 11.509-17.635 22.364 0 12.703 10.297 23 23 23 10.855 0 19.947-7.522 22.365-17.636-1.722.412-3.517.636-5.365.636z"/><path d="m201 483c-12.703 0-23-10.297-23-23 0-1.848.224-3.643.636-5.364-10.114 2.417-17.636 11.509-17.636 22.364 0 12.703 10.297 23 23 23 10.855 0 19.947-7.522 22.364-17.636-1.721.412-3.516.636-5.364.636z"/><path d="m273 160c-12.703 0-23-10.297-23-23 0-1.848.224-3.643.635-5.364-10.113 2.417-17.635 11.509-17.635 22.364 0 12.703 10.297 23 23 23 10.855 0 19.947-7.522 22.365-17.636-1.722.412-3.517.636-5.365.636z"/><path d="m391 143c-12.703 0-23-10.297-23-23 0-1.848.224-3.643.635-5.364-10.113 2.417-17.635 11.509-17.635 22.364 0 12.703 10.297 23 23 23 10.855 0 19.947-7.522 22.365-17.636-1.722.412-3.517.636-5.365.636z"/><path d="m154 143c-12.703 0-23-10.297-23-23 0-1.848.224-3.643.636-5.364-10.114 2.417-17.636 11.509-17.636 22.364 0 12.703 10.297 23 23 23 10.855 0 19.947-7.522 22.364-17.636-1.721.412-3.516.636-5.364.636z"/><path d="m85 125c-12.703 0-23-10.297-23-23 0-1.848.224-3.643.636-5.364-10.114 2.417-17.636 11.509-17.636 22.364 0 12.703 10.297 23 23 23 10.855 0 19.947-7.522 22.364-17.636-1.721.412-3.516.636-5.364.636z"/><path d="m462 125c-12.703 0-23-10.297-23-23 0-1.848.224-3.643.635-5.364-10.113 2.417-17.635 11.509-17.635 22.364 0 12.703 10.297 23 23 23 10.855 0 19.947-7.522 22.365-17.636-1.722.412-3.517.636-5.365.636z"/><path d="m273 85c-12.703 0-23-10.297-23-23 0-1.848.224-3.643.635-5.364-10.113 2.417-17.635 11.509-17.635 22.364 0 12.703 10.297 23 23 23 10.855 0 19.947-7.522 22.365-17.636-1.722.412-3.517.636-5.365.636z"/><path d="m345 41c-12.703 0-23-10.297-23-23 0-1.848.224-3.643.635-5.364-10.113 2.417-17.635 11.509-17.635 22.364 0 12.703 10.297 23 23 23 10.855 0 19.947-7.522 22.365-17.636-1.722.412-3.517.636-5.365.636z"/><path d="m201 41c-12.703 0-23-10.297-23-23 0-1.848.224-3.643.636-5.364-10.114 2.417-17.636 11.509-17.636 22.364 0 12.703 10.297 23 23 23 10.855 0 19.947-7.522 22.364-17.636-1.721.412-3.516.636-5.364.636z"/><path d="m506 262c-12.703 0-23-10.297-23-23 0-1.848.224-3.643.635-5.364-10.113 2.417-17.635 11.509-17.635 22.364 0 12.703 10.297 23 23 23 10.855 0 19.947-7.522 22.365-17.636-1.722.412-3.517.636-5.365.636z"/><path d="m445 262c-12.703 0-23-10.297-23-23 0-1.848.224-3.643.635-5.364-10.113 2.417-17.635 11.509-17.635 22.364 0 12.703 10.297 23 23 23 10.855 0 19.947-7.522 22.365-17.636-1.722.412-3.517.636-5.365.636z"/><path d="m375 262c-12.703 0-23-10.297-23-23 0-1.848.224-3.643.635-5.364-10.113 2.417-17.635 11.509-17.635 22.364 0 12.703 10.297 23 23 23 10.855 0 19.947-7.522 22.365-17.636-1.722.412-3.517.636-5.365.636z"/><path d="m171 262c-12.703 0-23-10.297-23-23 0-1.848.224-3.643.636-5.364-10.114 2.417-17.636 11.509-17.636 22.364 0 12.703 10.297 23 23 23 10.855 0 19.947-7.522 22.364-17.636-1.721.412-3.516.636-5.364.636z"/><path d="m273 262c-12.703 0-23-10.297-23-23 0-1.848.224-3.643.635-5.364-10.113 2.417-17.635 11.509-17.635 22.364 0 12.703 10.297 23 23 23 10.855 0 19.947-7.522 22.365-17.636-1.722.412-3.517.636-5.365.636z"/><path d="m40 262c-12.703 0-23-10.297-23-23 0-1.848.224-3.643.636-5.364-10.114 2.417-17.636 11.509-17.636 22.364 0 12.703 10.297 23 23 23 10.855 0 19.947-7.522 22.364-17.636-1.721.412-3.516.636-5.364.636z"/><path d="m101 262c-12.703 0-23-10.297-23-23 0-1.848.224-3.643.636-5.364-10.114 2.417-17.636 11.509-17.636 22.364 0 12.703 10.297 23 23 23 10.855 0 19.947-7.522 22.364-17.636-1.721.412-3.516.636-5.364.636z"/></g></g></svg>