<svg id="Flat" height="512" viewBox="0 0 64 64" width="512" xmlns="http://www.w3.org/2000/svg"><g><path d="m60 44v10c0 3.31-2.69 6-6 6h-44c-3.31 0-6-2.69-6-6v-10z" fill="#f98e19"/><g><path d="m57 51.13562v2.86438c0 1.65686-1.34314 3-3 3h-47c-.87988 0-1.71289-.19403-2.46576-.53424.94116 2.08246 3.03192 3.53424 5.46576 3.53424h44c3.31372 0 6-2.68628 6-6v-10c0 2.79596-1.15033 5.32092-3 7.13562z" fill="#d17418"/></g><path d="m50 54h-40c-3.31371 0-6-2.68629-6-6v-31h56v27c0 5.52285-4.47715 10-10 10z" fill="#d5d5d7"/><path d="m57 20h3v24h-3z" fill="#acb5b7"/><path d="m60 44c0 5.51996-4.47998 10-10 10v-9c0-.55228.44772-1 1-1z" fill="#acb5b7"/><path d="m60 20h-56v-4c0-3.31371 2.68629-6 6-6h44c3.31371 0 6 2.68629 6 6z" fill="#f98e19"/><path d="m60 44c0 5.51996-4.47998 10-10 10v-3c3.87 0 7-3.13 7-7z" fill="#939b9d"/><path d="m7 51h43v3h-40c-2.42999 0-4.52002-1.45001-5.46997-3.53003.75995.34003 1.58997.53003 2.46997.53003z" fill="#acb5b7"/><path d="m54 10h-3c3.31372 0 6 2.68628 6 6v4h3v-4c0-3.31372-2.68628-6-6-6z" fill="#d17418"/><g fill="#1f2833"><path d="m47 15c-1.65686 0-3-1.34314-3-3v-5c0-1.65685 1.34314-3 3-3 1.65685 0 3 1.34314 3 3v5c0 1.65686-1.34314 3-3 3z"/><path d="m32 15c-1.65686 0-3-1.34314-3-3v-5c0-1.65685 1.34314-3 3-3 1.65685 0 3 1.34314 3 3v5c0 1.65686-1.34314 3-3 3z"/><path d="m17 15c-1.65686 0-3-1.34314-3-3v-5c0-1.65685 1.34314-3 3-3 1.65685 0 3 1.34314 3 3v5c0 1.65686-1.34314 3-3 3z"/></g><path d="m50 7v5c0 1.65997-1.34003 3-3 3-1.35999 0-2.5-.89001-2.87-2.13.27002.08001.57001.13.87.13 1.65997 0 3-1.34003 3-3v-5c0-.29999-.04999-.60004-.13-.87.47998.14996.91003.40997 1.25.75.53997.53998.88 1.28998.88 2.12z" fill="#11171c"/><path d="m35 7v5c0 1.65997-1.34003 3-3 3-1.35999 0-2.5-.89001-2.87-2.13.27002.08001.57001.13.87.13 1.65997 0 3-1.34003 3-3v-5c0-.29999-.04999-.60004-.13-.87.47998.14996.91003.40997 1.25.75.53997.53998.88 1.28998.88 2.12z" fill="#11171c"/><path d="m20 7v5c0 1.65997-1.34003 3-3 3-1.35999 0-2.5-.89001-2.87-2.13.27002.08001.57001.13.87.13 1.65997 0 3-1.34003 3-3v-5c0-.29999-.04999-.60004-.13-.87.47998.14996.91003.40997 1.25.75.53997.53998.88 1.28998.88 2.12z" fill="#11171c"/><g><path d="m17 49h-2c-.55229 0-1-.44772-1-1v-10c0-.55228.44771-1 1-1h2c.55228 0 1 .44772 1 1v10c0 .55228-.44772 1-1 1z" fill="#efc516"/><path d="m25 49h-2c-.55228 0-1-.44772-1-1v-8c0-.55228.44772-1 1-1h2c.55228 0 1 .44772 1 1v8c0 .55228-.44772 1-1 1z" fill="#d80b15"/><path d="m33 49h-2c-.55228 0-1-.44772-1-1v-12c0-.55228.44772-1 1-1h2c.55228 0 1 .44772 1 1v12c0 .55228-.44772 1-1 1z" fill="#0394dd"/><path d="m41 49h-2c-.55228 0-1-.44772-1-1v-14c0-.55228.44772-1 1-1h2c.55228 0 1 .44772 1 1v14c0 .55228-.44772 1-1 1z" fill="#2abc2a"/><path d="m55 30h-8c-.55228 0-1-.44772-1-1v-4c0-.55228.44772-1 1-1h8c.55228 0 1 .44772 1 1v4c0 .55228-.44772 1-1 1z" fill="#0394dd"/><path d="m54 24v3c0 .55228-.44772 1-1 1h-7v1c0 .55228.44772 1 1 1h8c.55228 0 1-.44772 1-1v-4c0-.55228-.44772-1-1-1z" fill="#047ab5"/><path d="m18 38v10c0 .55228-.44772 1-1 1h-2c-.55229 0-1-.44772-1-1v-2h1c.55229 0 1-.44772 1-1v-8h1c.55228 0 1 .44772 1 1z" fill="#c9a614"/><path d="m26 40v8c0 .55228-.44772 1-1 1h-2c-.55228 0-1-.44772-1-1v-2h1c.55228 0 1-.44772 1-1v-6h1c.55228 0 1 .44772 1 1z" fill="#b20808"/><path d="m34 36v12c0 .55228-.44772 1-1 1h-2c-.55228 0-1-.44772-1-1v-2h1c.55228 0 1-.44772 1-1v-10h1c.55228 0 1 .44772 1 1z" fill="#047ab5"/><path d="m42 34v14c0 .55228-.44772 1-1 1h-2c-.55228 0-1-.44772-1-1v-2h1c.55228 0 1-.44772 1-1v-12h1c.55228 0 1 .44772 1 1z" fill="#20a020"/></g><g><path d="m45 50h-36c-.55225 0-1-.44727-1-1 0 0 0-23.90614 0-23.99973 0-1.28815 2-1.29957 2-.00027v23h34.99968c1.28637 0 1.2941 2 .00032 2z" fill="#1f2833"/></g><g fill="#1f2833"><path d="m14 34h5.76416s3.78857 1.89453 3.78888 1.89468c.38395.19247.84927.11707 1.15399-.18765.00002-.00002 3.70703-3.70703 3.70703-3.70703h3.58594c.26514 0 .51953-.10547.70703-.29297l3.70703-3.70703h3.17188s-.29106.29106-.29296.29296c-.91273.91273.50015 2.32797 1.41405 1.41407 0 0 1.98711-1.9871 1.99915-1.99915.38561-.38568.38341-1.03336-.00001-1.41576 0 0-1.98757-1.98757-1.9991-1.9991-.90847-.90848-2.33447.49365-1.41411 1.41401l.29298.29297h-3.58594c-.26514 0-.51953.10547-.70703.29297l-3.70703 3.70703h-3.58594c-.26514 0-.51953.10547-.70703.29297l-3.49023 3.49023-3.35547-1.67773c-.13868-.06934-.292-.10547-.44727-.10547 0 0-5.96407 0-5.99984 0-1.27757 0-1.3008 2-.00016 2z"/><path d="m47 34h7.99991c1.25645 0 1.30145-1.99999.00009-2 0 0-7.96828 0-7.9999 0-1.2908 0-1.29355 2-.0001 2z"/><path d="m47 38h7.99995c1.24886 0 1.32555-2 .00005-2 0 0-7.97932 0-7.99996 0-1.24084 0-1.28516 2-.00004 2z"/></g></g></svg>