<svg id="Layer_1" enable-background="new 0 0 64 64" viewBox="0 0 64 64" xmlns="http://www.w3.org/2000/svg" xmlns:xlink="http://www.w3.org/1999/xlink"><linearGradient id="lg1"><stop offset="0" stop-color="#6ba6d6"/><stop offset="1" stop-color="#005c98"/></linearGradient><linearGradient id="SVGID_1_" gradientUnits="userSpaceOnUse" x1="49.047" x2="48.379" xlink:href="#lg1" y1="9.511" y2="10.849"/><linearGradient id="SVGID_2_" gradientUnits="userSpaceOnUse" x1="42.298" x2="38.462" xlink:href="#lg1" y1="2.271" y2="8.369"/><linearGradient id="SVGID_3_" gradientUnits="userSpaceOnUse" x1="11.856" x2="5.463" xlink:href="#lg1" y1="32.745" y2="44.646"/><linearGradient id="SVGID_4_" gradientUnits="userSpaceOnUse" x1="30.732" x2="20.207" xlink:href="#lg1" y1="2.971" y2="21.757"/><linearGradient id="SVGID_5_" gradientUnits="userSpaceOnUse" x1="16.472" x2="9.686" xlink:href="#lg1" y1="19.811" y2="31.122"/><linearGradient id="SVGID_6_" gradientUnits="userSpaceOnUse" x1="49.611" x2="28.299" y1="19.343" y2="55.729"><stop offset="0" stop-color="#f0b11b"/><stop offset="1" stop-color="#bc7d00"/></linearGradient><linearGradient id="lg2"><stop offset="0" stop-color="#ff276a"/><stop offset="1" stop-color="#b70034"/></linearGradient><linearGradient id="SVGID_7_" gradientUnits="userSpaceOnUse" x1="40.771" x2="48.679" xlink:href="#lg2" y1="52.285" y2="52.285"/><linearGradient id="lg3"><stop offset="0" stop-color="#f1e9e5"/><stop offset=".157" stop-color="#b2b2b2"/><stop offset=".3885" stop-color="#b2b2b2"/><stop offset=".6647" stop-color="#b2b2b2"/><stop offset="1" stop-color="#4f5050"/></linearGradient><linearGradient id="SVGID_8_" gradientUnits="userSpaceOnUse" x1="55.201" x2="52.261" xlink:href="#lg3" y1="41.399" y2="43.008"/><linearGradient id="SVGID_9_" gradientUnits="userSpaceOnUse" x1="53.98" x2="51.04" xlink:href="#lg3" y1="39.168" y2="40.777"/><linearGradient id="SVGID_10_" gradientUnits="userSpaceOnUse" x1="49.553" x2="57.463" xlink:href="#lg2" y1="37.066" y2="37.066"/><linearGradient id="SVGID_11_" gradientUnits="userSpaceOnUse" x1="46.821" x2="39.984" xlink:href="#lg2" y1="43.811" y2="57.363"/><linearGradient id="SVGID_12_" gradientUnits="userSpaceOnUse" x1="55.431" x2="48.269" xlink:href="#lg2" y1="28.829" y2="43.358"/><linearGradient id="SVGID_13_" gradientUnits="userSpaceOnUse" x1="55.06" x2="46.78" xlink:href="#lg3" y1="42.772" y2="46.732"/><g><g><path d="m53.11 12.85c.28-.03.56-.04.82-.03h.04c.28.02.55.07.8.14.01 0 .02.01.03.01.26.08.5.18.73.32l-10.2-5.93c-.01-.01-.03-.01-.04-.02-.12-.07-.24-.13-.36-.18-.11-.04-.22-.08-.33-.12-.01 0-.02-.01-.03-.01s-.01 0-.02-.01c-.13-.04-.27-.07-.4-.09-.12-.02-.25-.03-.38-.04-.01 0-.02 0-.04 0-.01 0-.01 0-.02 0-.16-.01-.31-.01-.48 0-.11 0-.22.02-.33.03-.04 0-.08.01-.13.01-.03 0-.06 0-.09.01-.21.03-.42.08-.64.14-.07.02-.14.04-.2.06l10.2 5.93c.32-.1.63-.16.93-.21.05 0 .1 0 .14-.01z" fill="url(#SVGID_1_)"/><path d="m45.95 6.7c.12-.04.24-.07.36-.1.11-.03.22-.05.33-.07.14-.03.28-.05.42-.07.08-.01.16-.02.24-.02.18-.01.35-.02.51-.01h.12c.2.01.4.04.59.07.05.01.09.02.14.03.15.03.3.08.44.13.04.02.09.03.13.05.18.07.36.15.52.25l-.01-.01s.01 0 .01.01l-10.2-5.93c-.01-.01-.03-.02-.04-.02-.13-.07-.26-.14-.4-.2-.03-.01-.05-.02-.08-.03-.04-.02-.09-.03-.14-.05-.07-.02-.14-.05-.21-.07s-.15-.04-.23-.05c-.05-.01-.09-.02-.14-.03-.03-.01-.05-.01-.08-.02-.16-.03-.32-.05-.48-.06-.01 0-.02 0-.03 0-.04 0-.08 0-.11 0-.13 0-.25-.01-.38 0-.04 0-.09.01-.13.01-.08.01-.16.02-.24.02-.08.01-.15.01-.22.02-.06.01-.13.03-.2.04-.11.02-.22.04-.33.07-.06.01-.12.02-.18.04s-.12.04-.18.06c-.19.06-.37.12-.56.19-.07.03-.13.04-.2.07-.04.02-.08.04-.11.06-.33.14-.66.3-1 .5-.42.24-.84.54-1.24.85-.08.06-.16.12-.24.18-.39.31-.76.64-1.13 1-.02.02-.05.04-.07.06-.2.2-.38.39-.57.59l10.2 5.93c.2-.22.42-.43.63-.64.36-.36.74-.69 1.13-1 .08-.06.16-.12.24-.18.41-.31.82-.6 1.24-.85.34-.2.67-.36 1-.5.11-.05.21-.09.31-.13.2-.07.39-.13.57-.19z" fill="url(#SVGID_2_)"/><path d="m10.7 45.01c0-.43.03-.87.1-1.32.01-.06.02-.13.03-.19.06-.4.14-.8.25-1.2.01-.03.01-.06.02-.08.12-.45.27-.91.45-1.36.01-.02.02-.04.03-.06.17-.43.37-.86.58-1.28.02-.03.03-.07.05-.1.22-.43.47-.85.73-1.26.01-.02.02-.03.03-.05.26-.4.53-.78.82-1.15.04-.04.07-.09.11-.13.26-.32.53-.62.81-.91.05-.05.1-.11.15-.15.33-.33.68-.64 1.03-.92l-10.2-5.93c-.34.27-.67.56-.98.87-.02.02-.03.04-.05.06-.06.04-.11.1-.16.15-.17.17-.34.35-.5.53-.1.12-.2.25-.31.37-.04.04-.07.09-.11.13-.03.04-.06.07-.09.11-.14.19-.29.38-.42.57-.11.15-.21.31-.31.47-.01.02-.02.03-.03.05-.01.01-.02.03-.03.04-.11.18-.22.36-.33.54-.1.18-.2.35-.3.54-.03.05-.05.1-.08.15-.02.03-.03.07-.05.1-.05.1-.1.19-.15.29-.09.18-.17.37-.25.55-.06.15-.12.29-.18.44-.01.02-.02.04-.03.07.01 0 0 .03-.01.05-.08.2-.15.4-.21.6-.07.21-.14.43-.2.64 0 .02-.01.04-.01.05-.01.03-.01.06-.02.09-.05.2-.1.39-.14.59-.04.21-.07.41-.11.62-.01.06-.02.12-.03.19 0 .03-.01.06-.02.09-.05.42-.08.83-.08 1.23 0 1 .18 1.84.5 2.53.32.68.78 1.2 1.35 1.53l10.2 5.93c-1.14-.68-1.85-2.08-1.85-4.08z" fill="url(#SVGID_3_)"/><path d="m23.42 19.61c.01-.02.02-.04.03-.06.29-.68.62-1.34.97-2 .03-.05.06-.1.09-.15.34-.61.7-1.21 1.08-1.78.05-.07.09-.13.14-.2.38-.55.78-1.09 1.19-1.6.08-.09.15-.19.23-.28.45-.53.91-1.04 1.39-1.52.36-.35.73-.66 1.11-.98.18-.15.36-.33.54-.47.57-.44 1.15-.84 1.75-1.18.44-.25.87-.46 1.29-.64.14-.06.27-.11.4-.16.24-.09.48-.17.71-.24.15-.05.31-.09.46-.13.14-.03.28-.06.41-.09.18-.03.36-.06.54-.08.1-.01.2-.02.31-.03.23-.02.45-.02.67-.01h.14c.26.01.51.05.75.1.06.01.12.03.18.04.19.04.38.1.56.16.06.02.12.04.17.06.23.09.46.2.67.32l-10.2-5.94c-.02-.01-.04-.02-.06-.03-.17-.09-.34-.18-.52-.25-.03-.01-.07-.02-.1-.03-.06-.02-.11-.04-.17-.06-.09-.03-.18-.07-.27-.1-.08-.03-.18-.05-.28-.07-.06-.01-.12-.03-.18-.04-.03-.01-.07-.02-.1-.02-.2-.03-.41-.06-.62-.07-.01 0-.02 0-.03 0-.04 0-.09 0-.14 0-.17-.01-.33-.01-.5 0-.05 0-.11.01-.17.02-.1.01-.2.02-.31.03-.1.01-.19.01-.29.03-.08.01-.17.04-.25.05-.14.03-.28.05-.41.09-.08.02-.15.03-.23.05s-.15.06-.23.08c-.23.07-.47.15-.71.24-.09.03-.17.05-.26.09-.05.02-.1.05-.15.07-.42.17-.84.37-1.28.62-.6.34-1.18.74-1.75 1.18-.18.14-.35.31-.53.46-.38.32-.76.63-1.12.99-.01.01-.01.01-.02.02-.38.37-.75.77-1.1 1.17-.09.11-.18.22-.27.33-.08.09-.15.19-.23.28-.11.13-.22.26-.32.39-.23.3-.46.61-.68.92-.07.1-.13.19-.19.29-.05.07-.09.13-.14.2-.09.13-.18.26-.26.39-.18.28-.36.57-.53.87-.1.17-.2.35-.29.52-.03.05-.06.1-.09.16s-.07.12-.1.18c-.15.29-.3.58-.44.87s-.28.59-.41.89c-.01.02-.01.03-.02.05s-.02.04-.03.07c-.11.27-.22.53-.33.8-.12.32-.24.65-.35.97-.03.08-.04.15-.07.23-.02.08-.05.15-.07.23-.06.2-.13.4-.18.6-.11.39-.21.79-.29 1.18-.02.08-.03.16-.05.24l10.2 5.93c.13-.67.31-1.34.52-2.02.02-.07.04-.15.07-.23.22-.67.47-1.34.75-2z" fill="url(#SVGID_4_)"/><path d="m31.94 9.38c3.81-2.2 7.12-1.71 8.9.81.99-1.07 2.09-2 3.24-2.67 4.42-2.55 8-.49 8.02 4.57 0 .33-.02.66-.04.98 3.19-.98 5.57.92 5.58 4.85.01 4.56-3.2 10.13-7.17 12.43-1.95 1.13-3.72 1.25-5.01.56-1.34 4.48-4.51 8.92-8.22 11.06-3.2 1.85-6 1.52-7.59-.48-.92 2.52-2.72 4.93-4.81 6.14-2.37 1.37-4.37.8-5.15-1.16-.79.88-1.68 1.63-2.61 2.17-3.5 2.02-6.35.4-6.36-3.61-.01-3.58 2.23-7.85 5.18-10.17-.28-.53-.44-1.21-.44-2.02-.01-3.07 2.14-6.8 4.81-8.34.65-.37 1.28-.58 1.84-.64 1.12-5.72 5.08-11.74 9.83-14.48z" fill="#6ba6d6"/><path d="m15.56 31.54c.06-.35.14-.7.24-1.05.01-.03.02-.06.03-.1.12-.38.26-.77.42-1.14 0-.01 0-.01.01-.02.17-.38.36-.76.57-1.13.01-.01.01-.02.02-.04.21-.36.43-.7.67-1.03.02-.03.04-.06.07-.09.22-.3.46-.58.71-.85.05-.06.11-.11.16-.17.2-.2.4-.39.61-.57.09-.08.18-.17.28-.24.29-.23.6-.45.91-.63.29-.17.58-.29.86-.4.06-.02.12-.04.17-.06.28-.09.55-.15.8-.18l-10.2-5.93c-.05.01-.11.01-.17.02-.14.02-.29.05-.44.09-.06.02-.13.05-.19.07s-.12.04-.17.06c-.07.02-.14.04-.21.07-.22.09-.44.2-.66.33-.31.18-.61.39-.91.63-.1.08-.19.16-.28.24-.14.12-.29.24-.43.37-.06.06-.12.13-.18.2-.05.06-.11.11-.16.17-.06.07-.12.13-.18.2-.13.15-.26.31-.39.48-.05.06-.09.12-.13.18-.02.03-.04.06-.07.09-.04.06-.08.11-.12.16-.1.14-.19.27-.28.42-.09.13-.17.27-.25.41-.01.01-.02.03-.02.04-.01.01-.01.02-.02.04-.06.11-.12.22-.18.33-.07.14-.14.27-.21.41-.06.13-.12.26-.18.39 0 .01 0 .01-.01.02 0 0 0 .01-.01.01-.06.14-.12.29-.18.43-.06.15-.11.3-.16.46-.03.08-.05.16-.07.24-.01.03-.02.06-.03.1-.02.05-.03.1-.05.16-.05.19-.1.37-.14.56-.02.11-.04.23-.06.34-.01.06-.02.12-.03.18-.01.05-.02.11-.03.16-.04.32-.06.64-.06.95 0 .81.16 1.49.44 2.02l10.2 5.93c-.28-.53-.44-1.21-.44-2.02 0-.36.03-.73.09-1.11.02-.08.03-.14.04-.2z" fill="url(#SVGID_5_)"/><path d="m51.21 8.17c-.72-1.18-2.09-1.98-3.51-1.99-1.42-.05-2.77.47-3.96 1.15-1.06.62-2 1.41-2.87 2.27-.69-.85-1.62-1.54-2.69-1.85-1.22-.37-2.51-.27-3.69.02-2.37.65-4.4 2.05-6.12 3.68-3.36 3.22-5.69 7.44-6.69 11.98-1.17.24-2.17.87-3 1.61-.92.82-1.67 1.81-2.25 2.87-.57 1.07-1.02 2.21-1.22 3.42-.19 1.11-.19 2.32.3 3.42-1.48 1.26-2.63 2.83-3.46 4.55-.86 1.78-1.42 3.74-1.35 5.71.09-1.96.75-3.85 1.68-5.54.95-1.69 2.19-3.21 3.7-4.38l.2-.16-.12-.24c-.47-.95-.44-2.13-.21-3.22.22-1.1.67-2.15 1.24-3.13.59-.96 1.27-1.87 2.12-2.59.83-.73 1.81-1.31 2.83-1.42l.35-.04.08-.36c.47-2.21 1.31-4.35 2.42-6.33 1.13-1.97 2.47-3.83 4.1-5.41 1.62-1.56 3.53-2.89 5.65-3.5 2.1-.62 4.5-.12 5.77 1.71l.28.41.33-.37c.87-.98 1.85-1.87 2.95-2.56s2.34-1.18 3.62-1.22c1.28-.06 2.54.57 3.29 1.64.73 1.09 1.05 2.43 1.11 3.77.04-1.31-.17-2.71-.88-3.9z" fill="#bad8e8"/></g><g><path d="m59.21 26.71-10.57-6.14c-.03-.02-.05-.03-.08-.05-.24-.13-.48-.25-.74-.36-.05-.02-.1-.03-.15-.05-.08-.03-.17-.06-.25-.09-.13-.04-.25-.1-.38-.13-.14-.04-.28-.07-.43-.1-.09-.02-.17-.04-.26-.06-.05-.01-.09-.02-.14-.03-.29-.05-.58-.08-.89-.1-.02 0-.04 0-.06 0-.07 0-.14 0-.22 0-.23-.01-.46-.02-.7-.01-.08 0-.16.02-.24.02-.15.01-.29.03-.44.04-.14.02-.27.02-.41.04-.12.02-.25.06-.37.08-.2.04-.4.08-.6.13-.11.03-.21.04-.32.07-.25.07-.5.15-.75.23-.02.01-.05.01-.07.02-.3.1-.6.22-.91.34-.12.05-.24.11-.36.17-.12.05-.23.1-.35.16-.44.21-.89.44-1.35.7-.47.27-.94.57-1.4.89-.15.1-.3.22-.44.32-.31.22-.62.45-.92.7-.17.13-.33.28-.5.42-.28.24-.56.48-.83.73-.17.15-.33.31-.5.46-.1.1-.21.19-.31.29-.11.11-.21.23-.31.33-.33.34-.66.69-.98 1.04-.1.11-.21.22-.31.33-.08.1-.16.2-.25.3-.19.23-.38.46-.57.7-.12.15-.25.3-.37.46-.1.13-.19.26-.29.39-.14.18-.27.37-.41.55-.09.13-.19.25-.28.38-.15.22-.3.44-.44.66-.1.14-.19.28-.29.43-.04.06-.08.12-.12.18-.26.41-.51.82-.76 1.24-.02.03-.03.06-.05.08-.05.08-.09.17-.14.25-.17.3-.34.6-.5.9-.07.14-.14.28-.21.42-.08.15-.15.29-.22.44-.06.13-.13.26-.2.39-.17.34-.32.69-.47 1.04-.03.06-.06.12-.08.18-.01.02-.02.04-.02.05-.19.44-.37.88-.54 1.32-.03.08-.06.16-.09.24-.06.16-.12.32-.17.48-.08.22-.16.44-.24.66-.06.17-.1.34-.16.51-.06.2-.13.4-.19.61-.04.13-.08.25-.11.38-.06.22-.11.45-.16.67-.06.25-.13.5-.18.75-.02.09-.05.17-.06.26-.04.18-.06.36-.09.54-.07.39-.15.78-.2 1.17-.02.11-.04.22-.06.33-.03.24-.05.49-.07.73-.02.17-.04.35-.05.52-.04.55-.07 1.09-.07 1.62.01 4.63 1.65 7.88 4.28 9.41l10.57 6.14c-2.64-1.53-4.27-4.79-4.28-9.41 0-.53.02-1.08.07-1.62.01-.17.03-.35.05-.52.03-.35.08-.7.13-1.06.06-.39.13-.78.2-1.17.05-.27.1-.53.16-.8.06-.25.12-.5.18-.75.09-.35.18-.7.28-1.05.06-.2.12-.4.18-.61.12-.39.25-.79.39-1.18.06-.16.11-.32.17-.48.2-.54.42-1.08.65-1.61.03-.06.06-.12.08-.18.21-.48.44-.95.67-1.42.07-.15.15-.29.22-.44.23-.45.47-.89.72-1.32.05-.08.09-.17.14-.25.3-.51.61-1.01.92-1.5.09-.14.19-.28.28-.42.24-.35.48-.7.73-1.05.13-.19.27-.37.41-.55.22-.29.44-.57.66-.85.19-.23.38-.47.57-.7.18-.22.37-.42.56-.63.32-.36.65-.71.98-1.04.21-.21.41-.42.62-.62.16-.16.33-.31.5-.46.27-.25.55-.49.83-.73.17-.14.33-.28.5-.42.3-.24.61-.47.92-.7.15-.11.29-.22.44-.32.46-.32.93-.62 1.4-.89.45-.26.9-.49 1.35-.7.12-.05.23-.11.35-.16.43-.19.85-.37 1.27-.51.02-.01.05-.01.07-.02.37-.12.72-.22 1.08-.3.2-.05.4-.09.6-.13.26-.05.52-.09.78-.12.15-.02.3-.03.44-.04.32-.02.63-.03.94-.02h.22c.37.02.73.07 1.09.14.09.02.17.04.26.06.28.06.55.14.81.23.08.03.17.06.25.09.33.13.66.28.96.46 0-.01 0 0 0 0z" fill="url(#SVGID_6_)"/><path d="m48.76 27.73c8.11-4.69 14.71-.93 14.74 8.4.03 9.32-6.53 20.67-14.64 25.36-8.11 4.68-14.71.93-14.74-8.39-.03-9.33 6.53-20.69 14.64-25.37z" fill="#fcc134"/><g><path d="m48.66 50.15c.01-.04 0-.08 0-.12.01-.13.02-.26.01-.39 0-.06-.01-.12-.02-.18-.01-.11-.03-.21-.06-.31-.01-.05-.03-.11-.05-.16-.04-.1-.08-.18-.13-.26-.02-.04-.04-.08-.07-.11-.08-.11-.18-.2-.3-.27l-2.11-1.23c.12.07.21.16.3.27.03.03.05.08.07.11.05.08.1.17.13.26.02.05.03.1.05.16.03.1.04.2.06.31.01.06.01.12.02.18 0 .12 0 .26-.01.39-.01.06 0 .11-.01.17 0 .02-.01.05-.01.07-.02.15-.06.31-.1.46 0 .01-.01.02-.01.03-.05.17-.11.34-.18.51 0 0 0 .01-.01.01-.08.18-.17.36-.27.54l-2.14 3.71c-.1.17-.21.34-.32.49-.01.01-.02.02-.03.04-.1.14-.21.26-.32.38-.02.02-.04.05-.07.07-.09.09-.18.17-.27.24-.04.04-.08.08-.12.11-.13.1-.26.19-.39.27-.13.07-.25.13-.37.17-.03.01-.05.02-.08.03-.12.04-.23.07-.34.08-.01 0-.02 0-.03 0-.12.01-.24.01-.36-.01 0 0 0 0-.01 0-.12-.02-.23-.06-.33-.12l2.11 1.23c.04.02.07.04.11.05.04.02.07.03.11.04s.07.02.11.03h.01.01c.04.01.08.01.13.02h.14c.03 0 .05-.01.08-.01h.03.05c.06-.01.13-.02.19-.04.03-.01.07-.02.11-.04.03-.01.05-.02.08-.03.02-.01.05-.01.07-.02.1-.04.2-.09.3-.15.13-.08.26-.17.39-.27.04-.03.08-.07.12-.11.07-.06.14-.12.21-.19.02-.02.04-.04.05-.06.02-.02.04-.05.07-.07.04-.04.08-.08.11-.12.06-.07.11-.14.17-.21.01-.02.03-.04.04-.05s.02-.02.03-.04c.03-.03.05-.07.08-.1.04-.06.08-.12.12-.18s.08-.12.11-.18c0-.01.01-.01.01-.02l2.14-3.71c.03-.05.06-.11.09-.16.03-.06.06-.12.09-.18s.06-.12.08-.18v-.01s0-.01.01-.01c.02-.06.05-.11.07-.16.03-.07.05-.13.07-.2.02-.05.03-.1.04-.15 0-.01.01-.02.01-.03s.01-.03.01-.04c.02-.08.04-.17.06-.25.01-.06.02-.12.03-.18 0-.02.01-.05.01-.07.01-.01.02-.03.02-.05z" fill="url(#SVGID_7_)"/><g><path d="m48.05 42.66-2.1 3.64c-1.19 2.02-1.52 3.98-1.03 5.14l1.79-2.91c.06-.53.27-1.16.65-1.79l2.1-3.64c.48-.82 1.13-1.49 1.77-1.89l1.71-2.78c-1.6.34-3.57 1.97-4.89 4.23z" fill="url(#SVGID_8_)"/><path d="m51.22 41.21c.54-.34 1.06-.49 1.47-.36.09.03.16.07.23.12l-.07-2.39z" fill="url(#SVGID_9_)"/></g><path d="m46.09 49.27c-.89-.28-.88-1.74.01-3.26l2.1-3.64c.89-1.52 2.34-2.53 3.23-2.25.13.04.23.11.32.19l1.48-2.4c-.12-.08-.24-.16-.38-.21-1.67-.52-4.38 1.37-6.06 4.22l-2.1 3.64c-1.67 2.85-1.69 5.59-.02 6.12.02.01.05 0 .07.01l1.48-2.4c-.04-.01-.09-.01-.13-.02z" fill="#a3a3a3"/><path d="m57.44 34.93c.01-.04 0-.08 0-.12.01-.13.02-.26.01-.39 0-.06-.01-.12-.02-.18-.01-.11-.03-.21-.06-.31-.01-.05-.03-.11-.05-.16-.04-.1-.08-.18-.13-.26-.02-.04-.04-.08-.07-.11-.09-.11-.18-.2-.3-.27l-2.11-1.23c.12.07.22.16.3.27.03.03.05.08.07.11.05.08.1.17.13.26.02.05.03.1.05.16.03.1.04.2.06.31.01.06.01.12.02.18 0 .12 0 .25-.01.39-.01.06 0 .12-.01.18 0 .02-.01.05-.01.07-.03.15-.06.31-.1.46 0 .01-.01.02-.01.03-.05.17-.11.34-.19.52v.01c-.08.18-.17.36-.27.54l-2.14 3.7c-.1.17-.21.34-.32.49-.01.01-.02.02-.03.04-.1.14-.21.26-.32.38-.02.02-.04.05-.07.07-.09.09-.18.17-.27.24-.04.04-.08.08-.12.11-.13.1-.26.19-.39.27-.13.07-.25.13-.38.18-.03.01-.05.02-.08.03-.12.04-.23.07-.34.08-.01 0-.02 0-.03 0-.12.02-.24.02-.36 0-.12-.02-.23-.06-.34-.12l2.11 1.23c.04.02.07.04.11.05.04.02.08.03.11.04.04.01.08.02.12.03.04.01.09.01.13.02h.14c.03 0 .06-.01.08-.01h.03.05c.06-.01.13-.02.19-.04.04-.01.07-.02.11-.04.03-.01.05-.02.08-.03.02-.01.05-.01.07-.02.1-.04.2-.09.31-.15.13-.08.26-.17.39-.27.04-.03.08-.07.12-.11.07-.06.14-.12.21-.19l.06-.06c.02-.02.04-.05.07-.07.04-.04.08-.08.11-.12.06-.07.11-.14.17-.21.01-.02.03-.04.04-.05s.02-.02.03-.04c.02-.03.05-.07.07-.1.04-.06.08-.12.12-.18s.08-.12.11-.18c0-.01.01-.01.01-.02l2.14-3.7c.03-.05.06-.11.09-.16.03-.06.06-.12.09-.18s.06-.12.08-.19c0 0 0-.01.01-.01v-.01c.02-.06.05-.11.07-.17.03-.07.05-.13.07-.2.02-.05.03-.1.04-.15 0-.01.01-.02.01-.03s.01-.03.01-.04c.02-.08.04-.17.06-.25.01-.06.02-.12.03-.17 0-.03.01-.05.01-.07.03-.04.03-.06.03-.08z" fill="url(#SVGID_10_)"/><path d="m49.66 45.58c1.72.99 1.73 4.21.02 7.18l-2.14 3.71c-.86 1.49-1.99 2.64-3.12 3.29-1.14.66-2.27.81-3.13.32-1.72-.98-1.73-4.2-.02-7.18l2.14-3.71c.86-1.49 1.99-2.64 3.12-3.29 1.13-.66 2.26-.82 3.13-.32zm-1.6 6.26c.83-1.44.83-3.01-.01-3.48-.42-.24-.97-.17-1.52.15s-1.1.88-1.51 1.6l-2.14 3.71c-.83 1.44-.83 3.01.01 3.49.42.24.97.16 1.52-.15.55-.32 1.1-.87 1.51-1.6z" fill="#ff276a"/><path d="m47.57 45.44c.05-.02.11-.03.16-.05.06-.02.12-.03.18-.04.07-.01.15-.03.22-.04.04-.01.09-.01.13-.01.08-.01.17-.01.25-.01h.1c.11 0 .22.01.33.03.01 0 .02 0 .03.01.1.02.2.05.29.08.03.01.05.02.08.03.1.04.2.08.3.14l-2.11-1.23s-.01 0-.01-.01c-.07-.04-.15-.08-.22-.11-.02-.01-.05-.02-.07-.02-.03-.01-.05-.02-.08-.03s-.06-.02-.09-.03c-.07-.02-.14-.03-.21-.05-.01 0-.02-.01-.03-.01h-.01c-.09-.02-.17-.03-.26-.03-.02 0-.04 0-.06 0-.03 0-.07 0-.1 0-.04 0-.08 0-.13 0-.04 0-.08.01-.12.01s-.09.01-.13.01c-.02 0-.05 0-.07.01-.05.01-.1.02-.15.03-.06.01-.12.02-.18.04-.02 0-.04.01-.06.01-.03.01-.07.03-.11.04-.11.03-.22.07-.33.11-.03.01-.06.02-.09.03-.02.01-.05.02-.07.03-.18.08-.37.17-.56.28-.27.16-.54.34-.8.55-.09.07-.17.15-.26.23-.14.12-.29.24-.43.38-.04.04-.07.08-.11.12-.05.05-.09.1-.14.15-.08.08-.15.16-.23.24-.12.14-.24.28-.35.43-.03.04-.06.08-.08.11-.02.02-.04.05-.05.07-.05.07-.1.14-.15.21-.09.12-.17.25-.26.38-.08.12-.15.25-.23.38-.01.01-.02.03-.02.04l-2.14 3.71c-.06.11-.12.21-.18.32-.07.12-.13.25-.19.38s-.12.25-.17.38c0 .01-.01.02-.01.03s-.01.02-.01.03c-.05.11-.09.22-.13.33-.05.14-.1.28-.15.41-.03.1-.06.21-.1.31-.01.02-.01.04-.02.07-.01.02-.02.05-.02.07-.05.17-.09.34-.13.51-.03.13-.04.25-.06.37-.01.05-.02.1-.03.15 0 .03-.01.07-.02.1-.03.27-.05.53-.05.78v.17c.01.29.03.56.07.82 0 .02.01.03.01.04.05.25.12.47.21.68.02.04.03.08.05.12.1.21.21.4.35.56l.09.09c.15.16.32.31.51.42l2.11 1.23c-.19-.11-.36-.26-.51-.42-.03-.03-.06-.06-.09-.09-.14-.17-.25-.35-.35-.56-.02-.04-.03-.08-.05-.12-.09-.21-.16-.44-.21-.68 0-.02-.01-.03-.01-.04-.05-.26-.07-.53-.07-.82 0-.06 0-.12 0-.17 0-.28.02-.58.07-.88.01-.05.02-.1.03-.15.05-.31.12-.63.21-.96.01-.02.01-.04.02-.07.1-.35.23-.7.38-1.06 0-.01.01-.02.01-.03.16-.37.34-.74.56-1.11l2.14-3.71c.21-.36.43-.69.66-1.01.02-.02.04-.05.05-.07.21-.28.44-.54.66-.79.05-.05.09-.1.14-.15.18-.18.36-.34.55-.5.09-.07.17-.16.25-.22.26-.21.53-.4.8-.55.19-.11.37-.2.56-.28.05-.02.1-.04.16-.06.12-.02.23-.06.34-.09z" fill="url(#SVGID_11_)"/><path d="m58.44 30.37c1.73.99 1.74 4.2.02 7.18l-2.14 3.71c-.86 1.49-1.99 2.63-3.12 3.28s-2.26.81-3.13.32c-.84-.48-1.3-1.48-1.31-2.84 0-1.36.45-2.9 1.29-4.34l2.14-3.71c.86-1.49 1.98-2.63 3.12-3.29s2.26-.81 3.13-.31zm-1.59 6.26c.83-1.44.84-3.02-.01-3.49-.4-.23-.94-.18-1.52.15-.57.33-1.11.9-1.52 1.6l-2.14 3.71c-.4.69-.62 1.45-.62 2.11 0 .65.23 1.15.63 1.38.42.24.97.16 1.52-.16s1.1-.87 1.52-1.6z" fill="#ff276a"/><path d="m53.57 32.1c.05-.05.09-.1.14-.14.18-.18.36-.34.55-.5.09-.07.17-.16.25-.22.26-.21.53-.4.8-.55.19-.11.37-.2.56-.28.05-.02.1-.04.16-.06.11-.04.22-.08.33-.11.05-.02.11-.03.16-.05.06-.02.12-.03.18-.04.07-.01.15-.03.22-.04.04-.01.09-.01.13-.01.08-.01.17-.01.25-.01h.11c.11 0 .22.01.33.03.01 0 .02.01.03.01.1.02.2.05.29.08.03.01.05.02.08.03.1.04.2.08.3.14l-2.11-1.23s-.01 0-.01-.01c-.07-.04-.15-.08-.22-.11-.02-.01-.05-.02-.07-.02-.03-.01-.05-.02-.08-.03s-.06-.02-.08-.03c-.07-.02-.14-.03-.21-.05-.01 0-.02-.01-.03-.01h-.01c-.09-.02-.17-.03-.26-.03-.02 0-.04 0-.06 0-.03 0-.07 0-.11 0s-.08 0-.13 0c-.04 0-.08.01-.12.01s-.09.01-.13.01c-.02 0-.05 0-.07.01-.05.01-.1.02-.15.03-.06.01-.12.02-.18.04-.02 0-.04.01-.06.01-.03.01-.07.03-.11.04-.11.03-.22.07-.33.11-.03.01-.06.02-.09.03-.02.01-.05.02-.07.03-.18.08-.37.17-.56.28-.27.15-.54.34-.8.55-.09.07-.17.15-.25.22-.14.12-.29.24-.43.38-.04.04-.08.08-.11.12-.05.05-.09.1-.14.14-.08.08-.15.16-.23.24-.12.14-.24.28-.35.43-.03.04-.06.08-.09.12-.02.02-.04.05-.06.07-.05.07-.1.13-.15.2-.09.12-.17.25-.25.38-.08.12-.15.25-.23.37-.01.02-.02.03-.03.05l-2.14 3.71c-.06.11-.13.22-.19.34-.07.13-.13.25-.19.38s-.12.25-.17.38c-.06.13-.11.26-.16.39-.05.14-.1.28-.15.41-.03.09-.05.17-.08.25-.01.03-.02.05-.02.08-.01.04-.02.07-.03.11-.05.17-.09.34-.12.5-.02.12-.04.23-.06.35-.01.05-.02.1-.03.16-.01.04-.02.08-.02.12-.04.3-.06.59-.06.87 0 1.36.47 2.36 1.31 2.84l2.11 1.23c-.84-.48-1.3-1.48-1.31-2.84 0-.32.03-.65.08-.99.01-.05.02-.1.03-.16.05-.32.12-.63.22-.96.01-.03.02-.05.02-.08.11-.35.23-.71.39-1.06.16-.37.34-.74.55-1.1l2.14-3.71c.21-.36.43-.69.66-1.01.02-.02.04-.05.05-.07.22-.26.45-.52.67-.77z" fill="url(#SVGID_12_)"/><path d="m49.32 47.01 2.1-3.64c.77-1.3.88-2.56.34-3.07l-5.53 8.98c.89.16 2.24-.82 3.09-2.27z" fill="none"/><path d="m51.44 40.11c-.89-.28-2.34.73-3.23 2.25l-2.11 3.64c-.89 1.52-.9 2.99-.01 3.26.04.01.09.01.13.02l5.53-8.98c-.08-.08-.19-.15-.31-.19z" fill="none"/><path d="m54.37 38.58-1.34-.81.35.61c-.15.01-.29.02-.45.05l-.09.14.07 2.39c.65.45.57 1.77-.24 3.14l-2.1 3.64c-.89 1.52-2.34 2.53-3.23 2.26-.52-.16-.72-.73-.63-1.47l-1.76 2.86-.71.07 1.34.79c.02.01.03.02.05.03l.07.04h.01c.07.04.14.08.22.1 1.66.52 4.39-1.38 6.06-4.22l2.1-3.64c1.57-2.69 1.65-5.24.28-5.98z" fill="url(#SVGID_13_)"/><g fill="#a3a3a3"><path d="m53.24 37.9-1.29 1.92-.29.4.1.09c.54.51.43 1.76-.34 3.07l-2.1 3.64c-.85 1.45-2.2 2.43-3.1 2.27l-1.48 2.4c1.67.45 4.34-1.42 5.99-4.23l2.1-3.64c1.54-2.61 1.66-5.1.41-5.92z"/><path d="m45.13 51.05-.39.63c-.02 0-.04 0-.07-.01-.15-.05-.29-.11-.41-.22z"/><path d="m52.61 37.94.42-.17s.12.07.21.13-.15.27-.15.27z"/></g></g></g></g></svg>