<svg id="_3d" height="512" viewBox="0 0 24 24" width="512" xmlns="http://www.w3.org/2000/svg" data-name="3d"><path d="m18.29 12.84-.58 1.92c2.29.68 3.29 1.62 3.29 2.24 0 .86-1.81 2.09-5.17 2.68l.34 2c4.28-.78 6.83-2.52 6.83-4.68 0-1.77-1.67-3.24-4.71-4.16z" fill="#b9d9f4"/><path d="m10 19.91c-4.36-.36-7-1.91-7-2.91 0-.62 1-1.56 3.29-2.24l-.58-1.92c-3.04.92-4.71 2.39-4.71 4.16 0 2.94 4.5 4.56 9 4.91v1.09l3-2-3-2z" fill="#b9d9f4"/><path d="m6 15 6 3 6-3v-7l-6-3-6 3z" fill="#fff"/><path d="m12 3.88-7 3.5v8.24l7 3.5 7-3.5v-8.24zm3.76 4.12-3.76 1.88-3.76-1.88 3.76-1.88zm-8.76 1.62 4 2v4.76l-4-2zm6 6.76v-4.76l4-2v4.76z" fill="#292932"/><path d="m14 4-2-3-2 3h1v4h2v-4z" fill="#0084f0"/></svg>