<svg id="Flat" viewBox="0 0 64 64" xmlns="http://www.w3.org/2000/svg"><path d="m61 45v4a2 2 0 0 1 -2 2h-54a2 2 0 0 1 -2-2v-4z" fill="#bdc0c6"/><path d="m61 7v38h-58v-38a2 2 0 0 1 2-2h54a2 2 0 0 1 2 2z" fill="#1982c4"/><path d="m37 51 2 10h-14l2-10z" fill="#8e9095"/><path d="m48 17v17l-16 7v-7l10-4v-10z" fill="#ff595e"/><path d="m48 17-6 3-10-4-10 4-6-3 16-8z" fill="#ff595e"/><path d="m42 20v10l-10 4v-9z" fill="#8ac926"/><path d="m42 20-10 5-10-5 10-4z" fill="#ffca3a"/><path d="m32 34v7l-16-7v-17l6 3v10z" fill="#ff595e"/><path d="m32 25v9l-10-4v-10z" fill="#1982c4"/><g fill="#136293"><path d="m56 8h2v2h-2z"/><path d="m52 8h2v2h-2z"/><path d="m48 8h2v2h-2z"/></g><path d="m56 47h2v2h-2z" fill="#8e9095"/><path d="m15.6 34.92 16 7a1 1 0 0 0 .8 0l16-7a1 1 0 0 0 .6-.92v-17a1 1 0 0 0 -.55-.89l-16-8a1 1 0 0 0 -.9 0l-16 8a1 1 0 0 0 -.55.89v17a1 1 0 0 0 .6.92zm1.4-16.3 4 2v9.38a1 1 0 0 0 .63.93l9.37 3.75v4.79l-14-6.12zm16 7 8-4v7.7l-8 3.2zm-1-1.74-7.56-3.78 7.56-3 7.56 3zm-1 1.74v6.9l-8-3.2v-7.7zm2 13.85v-4.79l9.37-3.75a1 1 0 0 0 .63-.93v-9.38l4-2v14.73zm-1-29.35 13.76 6.88-3.76 1.9-9.58-3.83a1 1 0 0 0 -.74 0l-9.63 3.83-3.81-1.9z" fill="#e6e6e6"/><path d="m22 59h20v2h-20z" fill="#bdc0c6"/></svg>