<svg id="Capa_1" enable-background="new 0 0 512 512" height="512" viewBox="0 0 512 512" width="512" xmlns="http://www.w3.org/2000/svg"><g><g><g><path d="m454.924 152.644c-6.404-17.947-20.43-32.265-38.186-39.063-2.93-1.122-4.777-3.982-4.774-7.12 0-.019 0-.037 0-.056 0-41.475-33.622-75.097-75.097-75.097-14.585 0-28.193 4.164-39.713 11.361-3.221 2.012-7.397 1.327-9.827-1.591-13.774-16.543-34.516-27.078-57.725-27.078-38.959 0-70.979 29.67-74.721 67.645-.373 3.784-3.449 6.688-7.248 6.84-21.645.868-42.388 12.466-54.02 32.614-4.768 8.258-7.519 17.124-8.42 26.033-.391 3.869-3.775 6.81-7.661 6.676-.808-.028-1.62-.042-2.435-.042-41.807 0-75.635 34.162-75.091 76.094.535 41.269 34.938 74.1 76.21 74.1h359.407c41.501 0 76.119-33.123 76.375-74.624.208-33.723-21.818-62.325-52.276-72.03-2.244-.714-4.006-2.443-4.798-4.662z" fill="#efe7e4"/></g><g><g><path d="m459.723 157.307c-2.245-.715-4.007-2.444-4.799-4.663-6.404-17.947-20.43-32.265-38.186-39.063-2.93-1.122-4.777-3.982-4.774-7.12 0-.019 0-.037 0-.056 0-41.475-33.622-75.097-75.097-75.097-9.774 0-19.105 1.878-27.667 5.277 27.787 11.014 47.448 38.112 47.448 69.82v.056c-.003 3.137 1.844 5.998 4.774 7.12 17.756 6.798 31.782 21.115 38.186 39.063.792 2.218 2.555 3.947 4.799 4.663 30.458 9.705 52.483 38.307 52.276 72.03-.256 41.501-34.873 74.624-76.375 74.624h55.316c41.501 0 76.119-33.123 76.375-74.624.207-33.723-21.818-62.325-52.276-72.03z" fill="#eadfda"/></g></g></g><g><g><path d="m351.442 189.216c-21.414 0-45.589 13.217-73.905 40.407-7.137 6.853-13.554 13.678-18.827 19.584-5.273-5.905-11.69-12.73-18.827-19.584-28.316-27.19-52.49-40.407-73.905-40.407-49.129 0-89.097 39.968-89.097 89.097s39.968 89.097 89.097 89.097c21.414 0 45.589-13.217 73.905-40.407 7.137-6.853 13.554-13.678 18.827-19.584 5.273 5.905 11.69 12.73 18.827 19.584 28.316 27.19 52.49 40.407 73.905 40.407 49.129 0 89.097-39.968 89.097-89.097s-39.968-89.097-89.097-89.097zm-185.463 140.766c-28.49 0-51.669-23.179-51.669-51.669s23.179-51.669 51.669-51.669c16.771 0 46.098 26.097 66.699 49.511 1.09 1.239 1.091 3.099.001 4.339-20.567 23.406-49.871 49.488-66.7 49.488zm185.463 0c-16.771 0-46.098-26.097-66.699-49.511-1.09-1.239-1.091-3.099-.001-4.339 20.567-23.407 49.871-49.488 66.7-49.488 28.49 0 51.669 23.179 51.669 51.669s-23.178 51.669-51.669 51.669z" fill="#698ed5"/></g></g><g><g><path d="m393.975 200.04c15.084 15.967 24.346 37.489 24.346 61.136 0 49.129-39.968 89.097-89.097 89.097-13.113 0-27.264-4.966-42.765-15.052 24.519 21.632 45.853 32.189 64.982 32.189 49.129 0 89.097-39.968 89.097-89.097.001-33.736-18.845-63.151-46.563-78.273z" fill="#4073c8"/></g></g><g><path d="m232.815 467.17-28.234 23.117c-.368.301-.898.301-1.266 0l-28.234-23.117v-67.729c0-2.529 2.939-3.921 4.896-2.319l21.44 17.554c1.472 1.206 3.591 1.206 5.063 0l21.44-17.554c1.957-1.602 4.896-.21 4.896 2.319v67.729z" fill="#698ed5"/></g><g><path d="m277.186 418.905 28.234-23.117c.368-.301.898-.301 1.266 0l28.234 23.117v67.729c0 2.529-2.939 3.921-4.896 2.319l-21.44-17.554c-1.472-1.206-3.591-1.206-5.063 0l-21.44 17.554c-1.957 1.602-4.896.21-4.896-2.319v-67.729z" fill="#698ed5"/></g><g><g><path d="m227.919 397.122-9.715 7.954v50.79c0 2.097-.941 4.083-2.563 5.411l-23.879 19.552 11.553 9.459c.368.301.898.301 1.266 0l28.234-23.117v-67.729c0-2.53-2.939-3.922-4.896-2.32z" fill="#4073c8"/></g></g><g><g><path d="m334.92 418.905-28.234-23.117c-.368-.301-.898-.301-1.266 0l-11.553 9.459 23.879 19.552c1.622 1.328 2.563 3.314 2.563 5.411v50.79l9.715 7.954c1.957 1.602 4.896.21 4.896-2.319z" fill="#4073c8"/></g></g><g><path d="m203.949 498c-1.91 0-3.821-.638-5.38-1.914l-28.235-23.118c-3.201-2.621-3.672-7.341-1.051-10.543 2.622-3.203 7.341-3.672 10.544-1.051l24.12 19.748 24.12-19.748c3.202-2.622 7.922-2.152 10.544 1.051 2.621 3.202 2.151 7.922-1.051 10.543l-28.234 23.117c-1.556 1.276-3.466 1.915-5.377 1.915z" fill="#4073c8"/></g><g><path d="m334.917 426.398c-1.67 0-3.35-.555-4.742-1.696l-24.121-19.748-24.121 19.748c-3.201 2.62-7.922 2.153-10.543-1.051-2.621-3.202-2.151-7.922 1.051-10.543l28.234-23.117c3.116-2.555 7.645-2.553 10.761.002l28.232 23.115c3.202 2.621 3.672 7.341 1.051 10.543-1.482 1.81-3.634 2.747-5.802 2.747z" fill="#4073c8"/></g></g></svg>