<svg id="Capa_1" enable-background="new 0 0 512 512" height="512" viewBox="0 0 512 512" width="512" xmlns="http://www.w3.org/2000/svg" xmlns:xlink="http://www.w3.org/1999/xlink"><radialGradient id="SVGID_1_" cx="21.669" cy="220.389" gradientUnits="userSpaceOnUse" r="134.456"><stop offset="0" stop-color="#cbe7af"/><stop offset=".6123" stop-color="#add984"/><stop offset=".6651" stop-color="#aad880"/><stop offset=".9268" stop-color="#9fd26f"/><stop offset="1" stop-color="#9bd069"/></radialGradient><radialGradient id="SVGID_2_" cx="437.831" cy="265.413" gradientUnits="userSpaceOnUse" r="84.682"><stop offset="0" stop-color="#bed8fb"/><stop offset=".2783" stop-color="#9cc5fb"/><stop offset=".549" stop-color="#80b4fb"/><stop offset="1" stop-color="#5490f9"/></radialGradient><radialGradient id="SVGID_3_" cx="333.925" cy="119.492" gradientTransform="matrix(-1 0 0 -.987 667.85 237.365)" gradientUnits="userSpaceOnUse" r="94.564"><stop offset="0" stop-color="#fffbe4"/><stop offset=".5544" stop-color="#f9efaf"/><stop offset=".6285" stop-color="#f8eea7"/><stop offset="1" stop-color="#f6e781"/></radialGradient><radialGradient id="SVGID_4_" cx="271.115" cy="359.434" gradientUnits="userSpaceOnUse" r="72.722"><stop offset="0" stop-color="#e4989d"/><stop offset=".0782" stop-color="#e38d93"/><stop offset=".2163" stop-color="#df6f78"/><stop offset=".3969" stop-color="#da3f4d"/><stop offset=".4561" stop-color="#d82e3d"/><stop offset="1" stop-color="#c32430"/></radialGradient><radialGradient id="SVGID_5_" cx="232.21" cy="246.869" gradientTransform="matrix(-1 0 0 -.987 464.42 490.395)" gradientUnits="userSpaceOnUse" r="98.557"><stop offset="0" stop-color="#f6e781"/><stop offset=".3716" stop-color="#f3dc56"/><stop offset=".65" stop-color="#f1d333"/><stop offset=".9825" stop-color="#ecc32e"/></radialGradient><linearGradient id="lg1"><stop offset="0" stop-color="#f4dd45"/><stop offset=".2362" stop-color="#f2d740"/><stop offset=".5521" stop-color="#edc631"/><stop offset=".5974" stop-color="#ecc32e"/><stop offset="1" stop-color="#e49824"/></linearGradient><radialGradient id="SVGID_6_" cx="258.977" cy="262.935" gradientTransform="matrix(-1 0 0 -.987 517.955 522.31)" gradientUnits="userSpaceOnUse" r="239.604" xlink:href="#lg1"/><radialGradient id="SVGID_7_" cx="362.47" cy="145.234" gradientTransform="matrix(-1 0 0 -.987 724.94 288.501)" gradientUnits="userSpaceOnUse" r="179.728" xlink:href="#lg1"/><radialGradient id="SVGID_8_" cx="226.9" cy="232.373" gradientTransform="matrix(1 0 0 .987 0 3.147)" gradientUnits="userSpaceOnUse" r="60.212"><stop offset="0" stop-color="#e4989d"/><stop offset=".1423" stop-color="#e38d93"/><stop offset=".3936" stop-color="#df6f77"/><stop offset=".6532" stop-color="#da4a54"/><stop offset="1" stop-color="#c32430"/></radialGradient><radialGradient id="SVGID_9_" cx="338.224" cy="169.844" gradientTransform="matrix(-1 0 0 -.987 676.447 337.388)" gradientUnits="userSpaceOnUse" r="226.732"><stop offset=".0988" stop-color="#dd636e"/><stop offset=".6173" stop-color="#d82e3d"/><stop offset=".726" stop-color="#d32e3b"/><stop offset=".8594" stop-color="#c42f37"/><stop offset="1" stop-color="#ac3030"/></radialGradient><radialGradient id="SVGID_10_" cx="73.942" cy="119.607" gradientUnits="userSpaceOnUse" r="129.1"><stop offset="0" stop-color="#e7f6ec"/><stop offset=".5145" stop-color="#daefc8"/><stop offset="1" stop-color="#cbe7af"/></radialGradient><radialGradient id="SVGID_11_" cx="122.945" cy="137.289" gradientTransform="matrix(-1 0 0 -.987 245.889 272.718)" gradientUnits="userSpaceOnUse" r="452.602"><stop offset="0" stop-color="#aad880"/><stop offset=".1958" stop-color="#a2d474"/><stop offset=".5462" stop-color="#8dc955"/><stop offset=".5793" stop-color="#8bc852"/><stop offset="1" stop-color="#528e61"/></radialGradient><radialGradient id="SVGID_12_" cx="463.206" cy="161.744" gradientTransform="matrix(-1 0 0 -.987 926.412 321.297)" gradientUnits="userSpaceOnUse" r="346.239"><stop offset="0" stop-color="#80b4fb"/><stop offset=".1461" stop-color="#7aaffb"/><stop offset=".3416" stop-color="#69a1fa"/><stop offset=".5158" stop-color="#5490f9"/><stop offset="1" stop-color="#407093"/></radialGradient><radialGradient id="SVGID_13_" cx="430.52" cy="1337.744" gradientTransform="matrix(.931 0 0 .112 -147.994 239.39)" gradientUnits="userSpaceOnUse" r="246.482"><stop offset="0" stop-color="#c6c1c8"/><stop offset=".2432" stop-color="#dddbdf"/><stop offset=".4962" stop-color="#f1f1f4"/><stop offset=".888" stop-color="#fff"/></radialGradient><g><path d="m0 241.351c0 81.315 65.918 147.233 147.233 147.233h39.495c-81.315 0-131.187-76.217-131.187-157.532z" fill="url(#SVGID_1_)"/><path d="m359.872 306.757c36.123 0 65.406-29.283 65.406-65.406s-29.283-65.406-65.406-65.406l39.495-9.566c36.123 0 76.239 38.849 76.239 74.972s-40.116 74.972-76.239 74.972z" fill="url(#SVGID_2_)"/><path d="m359.87 128.722c-34.017 0-64.517 15.076-85.166 38.917l39.495 10.792c20.648-23.842 51.149-49.709 85.166-49.709z" fill="url(#SVGID_3_)"/><path d="m252.227 248.128c0 28.186 5.372 47.188 22.477 66.931 20.648 23.842 51.149 38.93 85.166 38.93h39.495c-34.017 0-64.517-15.089-85.166-38.93-17.105-19.743-27.462-45.524-27.462-73.71z" fill="url(#SVGID_4_)"/><path d="m247.242 241.349c0 55.234-44.774 100.008-100.008 100.008h39.495c55.234 0 106.318-44.774 106.318-100.008l-18.343-12.179z" fill="url(#SVGID_5_)"/><path d="m314.199 315.059c-25.471 43.96-73.012 73.529-127.47 73.529v-47.231c55.234 0 100.008-44.774 100.008-100.008z" fill="url(#SVGID_6_)"/><path d="m399.365 128.722v47.218c-36.125 0-65.41 29.285-65.41 65.409l-19.756-73.71c20.649-23.842 51.149-38.917 85.166-38.917z" fill="url(#SVGID_7_)"/><path d="m147.234 141.341c55.234 0 100.008 44.774 100.008 100.008h39.495c0-55.234-44.774-100.008-100.008-100.008z" fill="url(#SVGID_8_)"/><path d="m399.365 306.759v47.231c-34.017 0-64.517-15.089-85.166-38.93-17.105-19.743-27.462-45.524-27.462-73.71 0-55.234-44.774-100.008-100.008-100.008v-47.219c54.458 0 101.999 29.557 127.47 73.516 12.567 21.682 19.756 46.856 19.756 73.71 0 36.125 29.285 65.41 65.41 65.41z" fill="url(#SVGID_9_)"/><path d="m52.614 241.351c0-81.315 52.799-147.233 134.114-147.233h-39.495c-81.315 0-147.233 65.918-147.233 147.233z" fill="url(#SVGID_10_)"/><path d="m186.728 141.344c-55.232 0-100.006 44.774-100.006 100.006s44.774 100.006 100.006 100.006v47.227c-81.315 0-147.233-65.919-147.233-147.233s65.919-147.232 147.233-147.232z" fill="url(#SVGID_11_)"/><path d="m399.367 175.945c36.123 0 65.406 29.283 65.406 65.406s-29.283 65.406-65.406 65.406v47.227c62.205 0 112.633-50.427 112.633-112.633 0-62.205-50.427-112.633-112.633-112.633z" fill="url(#SVGID_12_)"/><path d="m256 417.882c132.074 0 239.141-13.117 239.141-29.299h-478.282c0 16.182 107.067 29.299 239.141 29.299z" fill="url(#SVGID_13_)"/></g></svg>