<svg viewBox="0 0 200 200" xmlns="http://www.w3.org/2000/svg" xmlns:xlink="http://www.w3.org/1999/xlink"><linearGradient id="linear-gradient" gradientUnits="userSpaceOnUse" x1="100" x2="100" y1="200"><stop offset="0" stop-color="#d1d1d1"/><stop offset="1" stop-color="#efefef"/></linearGradient><linearGradient id="linear-gradient-2" gradientUnits="userSpaceOnUse" x1="119.07" x2="153.56" y1="110.93" y2="76.18"><stop offset=".21" stop-color="#f15a24"/><stop offset=".68" stop-color="#fbb03b"/></linearGradient><linearGradient id="linear-gradient-3" gradientUnits="userSpaceOnUse" x1="80.62" x2="46.16" y1="89.41" y2="124.13"><stop offset=".21" stop-color="#ed1e79"/><stop offset=".89" stop-color="#522785"/></linearGradient><g id="Layer_2" data-name="Layer 2"><g id="Gradiants"><g id="Internet_Computer_Protocol_ICP_" data-name="Internet Computer Protocol (ICP)"><circle cx="100" cy="100" fill="url(#linear-gradient)" r="100"/><path d="m161.61 100a33.44 33.44 0 0 1 -.78 7.53 11.77 11.77 0 0 1 -.92 2.38c.26-.81.48-1.65.67-2.5a21.2 21.2 0 0 1 -22 12.87 38.86 38.86 0 0 1 -7.09-1.66h.21a18.61 18.61 0 0 0 0-37.21 22.56 22.56 0 0 0 -14.29 8 98.34 98.34 0 0 0 -9.55 10.43l-2.56-3.15-.34-.43-4.8-5.93a99.82 99.82 0 0 1 9.16-10 34.79 34.79 0 0 1 22.34-11.14 30.59 30.59 0 0 1 29.95 30.81z" fill="url(#linear-gradient-2)"/><path d="m99.86 109.73a98.41 98.41 0 0 1 -9.19 10.06 34.77 34.77 0 0 1 -22.34 11.14 30.44 30.44 0 0 1 -29.93-30.93 33.1 33.1 0 0 1 1.09-7.27c0-.06 0-.16.08-.3a20.94 20.94 0 0 1 10.78-11.1 26.47 26.47 0 0 1 7.92-1.83 21.15 21.15 0 0 1 3.07.13 38.09 38.09 0 0 1 7.2 1.78h-.32a18.61 18.61 0 0 0 0 37.21 23.12 23.12 0 0 0 14.3-8 89.79 89.79 0 0 0 9.26-10.13l.07.09c2.15 2.42 4.15 4.72 5.66 6.42z" fill="url(#linear-gradient-3)"/><path d="m160.58 107.44c-.19.85-.41 1.69-.67 2.5a30.26 30.26 0 0 1 -28.37 21.17c-11.45 0-23-11.2-31.6-21.3l-.08-.09-2.35-2.72c-1.48-1.7-3.49-4-5.62-6.39l-.07-.09a135.08 135.08 0 0 0 -9.72-10.85 38.21 38.21 0 0 0 -20.72-10 21.15 21.15 0 0 0 -3.07-.13 26.47 26.47 0 0 0 -7.92 1.83 20.94 20.94 0 0 0 -10.78 11.1s0 0 0 0a30.38 30.38 0 0 1 29-23.62c11.46 0 23 11.26 31.61 21.37l4.8 5.93.34.43 2.56 3.15.15.19s4.76 5.67 9.85 10.62a38.58 38.58 0 0 0 20.72 9.66 21.2 21.2 0 0 0 21.94-12.76z" fill="#29abe2" fill-rule="evenodd"/></g></g></g></svg>