<svg viewBox="0 0 512 512" xmlns="http://www.w3.org/2000/svg"><g id="FILES_AND_FOLDER_color" data-name="FILES AND FOLDER color"><path d="m338.61 18.55a92.38 92.38 0 0 0 -52.33-18.18 1262.21 1262.21 0 0 0 -164.82 6.78c-36.56 4.25-71.61 39.3-75.85 75.85-9.61 89.71-9.61 256.26 0 346 4.24 36.56 39.29 71.62 75.85 75.86a1262.11 1262.11 0 0 0 269.1 0c36.55-4.24 71.61-39.3 75.85-75.86 6.53-61.09 8.61-157.83 6.25-241.66 0-.12 0-.23 0-.35a85.72 85.72 0 0 0 -16.66-50.22 564.18 564.18 0 0 0 -117.39-118.22z" fill="#4193d2"/><path d="m398.74 122.66a278.81 278.81 0 0 0 -6.13-58.25 564.16 564.16 0 0 0 -54-45.86 92.38 92.38 0 0 0 -52.33-18.18 1262.21 1262.21 0 0 0 -164.82 6.78c-36.56 4.25-71.61 39.3-75.85 75.85-8.32 77.83-9.42 213.51-3.3 306.65a278.35 278.35 0 0 0 78.26 11.16c153.63.01 278.17-124.53 278.17-278.15z" fill="#48a4df"/><path d="m472.66 187.29c-7 .18-13.94.29-20.87.29a830.94 830.94 0 0 1 -88.15-4.71h-.25c-17.45-2-34.6-10.69-48.3-24.38s-22.35-30.84-24.37-48.29v-.25a831.44 831.44 0 0 1 -4.44-109.58 92.38 92.38 0 0 1 52.33 18.18 564.07 564.07 0 0 1 117.56 118.53 84.75 84.75 0 0 1 16.49 49.92z" fill="#34344f"/><path d="m294.53 404h-147a14 14 0 0 1 0-28h147a14 14 0 0 1 0 28zm70-70.28h-217a14 14 0 0 1 0-28h217a14 14 0 0 1 0 28zm0-70.28h-217a14 14 0 0 1 0-28h217a14 14 0 0 1 0 28z" fill="#fff"/></g></svg>