<svg viewBox="0 0 32 32" xmlns="http://www.w3.org/2000/svg" xmlns:xlink="http://www.w3.org/1999/xlink"><linearGradient id="New_Gradient_Swatch" gradientUnits="userSpaceOnUse" x1="6.11" x2="25.89" y1="25.89" y2="6.11"><stop offset="0" stop-color="#c21500"/><stop offset=".21" stop-color="#cd3500"/><stop offset=".66" stop-color="#e98500"/><stop offset="1" stop-color="#ffc500"/></linearGradient><g id="Layer"><path d="m16 2a14 14 0 1 0 14 14 14 14 0 0 0 -14-14zm-1 12.54 2.7 1.06a3.65 3.65 0 0 1 2.3 3.4 4 4 0 0 1 -3 3.86v1.14a1 1 0 0 1 -2 0v-1.14a4 4 0 0 1 -3-3.86 1 1 0 0 1 2 0 2 2 0 0 0 4 0 1.65 1.65 0 0 0 -1-1.54l-2.7-1.06a3.65 3.65 0 0 1 -2.3-3.4 4 4 0 0 1 3-3.86v-1.14a1 1 0 0 1 2 0v1.14a4 4 0 0 1 3 3.86 1 1 0 0 1 -2 0 2 2 0 0 0 -4 0 1.65 1.65 0 0 0 1 1.54z" fill="url(#New_Gradient_Swatch)"/></g></svg>