<?xml version="1.0" encoding="iso-8859-1"?>
<!-- Generator: Adobe Illustrator 19.0.0, SVG Export Plug-In . SVG Version: 6.00 Build 0)  -->
<svg version="1.1" id="Capa_1" xmlns="http://www.w3.org/2000/svg" xmlns:xlink="http://www.w3.org/1999/xlink" x="0px" y="0px"
	 viewBox="0 0 506.245 506.245" style="enable-background:new 0 0 506.245 506.245;" xml:space="preserve">
<g>
	<polygon style="fill:#BDDCF3;" points="249.219,426.783 249.219,506.245 156.854,452.929 156.854,373.466 	"/>
	<g>
		<path style="fill:#3193C6;" d="M185.721,420.02c-0.599,0-1.187-0.157-1.707-0.453l-5.773-3.327
			c-1.058-0.61-1.709-1.737-1.71-2.958c-0.001-1.221,0.65-2.349,1.707-2.96c1.057-0.611,2.359-0.612,3.417-0.002l5.773,3.327
			c1.34,0.772,1.995,2.348,1.595,3.842C188.622,418.983,187.268,420.021,185.721,420.02L185.721,420.02z"/>
		<path style="fill:#3193C6;" d="M226.121,443.347c-0.6,0.001-1.189-0.158-1.707-0.46l-23.087-13.327
			c-1.622-0.947-2.174-3.027-1.234-4.653c0.94-1.626,3.017-2.187,4.648-1.254l23.087,13.327c1.336,0.773,1.987,2.347,1.587,3.838
			C229.015,442.309,227.665,443.346,226.121,443.347L226.121,443.347z"/>
		<path style="fill:#3193C6;" d="M226.121,469.827c-0.6,0.001-1.189-0.158-1.707-0.46l-46.173-26.653
			c-1.622-0.947-2.174-3.027-1.234-4.653c0.94-1.626,3.017-2.187,4.648-1.254l46.173,26.653c1.336,0.773,1.987,2.347,1.587,3.838
			C229.015,468.789,227.665,469.826,226.121,469.827L226.121,469.827z"/>
	</g>
	<polygon style="fill:#48A8DC;" points="279.188,409.375 249.219,426.783 156.854,373.466 187.165,355.99 187.165,356.127 	"/>
	<polygon style="fill:#3193C6;" points="279.461,409.375 279.461,488.769 279.393,488.837 249.219,506.245 249.219,426.783 
		279.188,409.375 	"/>
	<polygon style="fill:#BDDCF3;" points="154.69,259.884 154.69,339.347 62.325,286.03 62.325,206.568 	"/>
	<g>
		<path style="fill:#3193C6;" d="M91.195,253.117c-0.599,0-1.187-0.157-1.707-0.453l-5.773-3.327
			c-1.635-0.943-2.196-3.032-1.253-4.667c0.943-1.635,3.032-2.196,4.667-1.253l5.773,3.327c1.34,0.772,1.995,2.348,1.595,3.842
			C94.096,252.079,92.742,253.118,91.195,253.117L91.195,253.117z"/>
		<path style="fill:#3193C6;" d="M131.595,276.443c-0.6,0.001-1.189-0.158-1.707-0.46l-23.087-13.327
			c-1.622-0.947-2.174-3.027-1.234-4.653c0.94-1.626,3.017-2.187,4.648-1.254l23.087,13.327c1.336,0.773,1.987,2.347,1.587,3.838
			C134.489,275.405,133.138,276.442,131.595,276.443L131.595,276.443z"/>
		<path style="fill:#3193C6;" d="M131.595,302.923c-0.6,0.001-1.189-0.158-1.707-0.46L83.715,275.81
			c-1.061-0.607-1.715-1.735-1.717-2.957s0.651-2.351,1.711-2.96s2.364-0.605,3.419,0.011l46.173,26.653
			c1.336,0.773,1.987,2.347,1.587,3.838C134.489,301.885,133.138,302.922,131.595,302.923L131.595,302.923z"/>
	</g>
	<polygon style="fill:#48A8DC;" points="184.659,242.476 154.69,259.884 62.325,206.568 92.636,189.092 92.636,189.228 	"/>
	<polygon style="fill:#3193C6;" points="184.932,242.476 184.932,321.871 184.864,321.939 154.69,339.347 154.69,259.884 
		184.659,242.476 	"/>
	<polygon style="fill:#BDDCF3;" points="148.915,70.793 148.915,150.255 56.55,96.939 56.55,17.476 	"/>
	<g>
		<path style="fill:#3193C6;" d="M85.415,64.027c-0.599,0-1.187-0.157-1.707-0.453l-5.773-3.327
			c-1.635-0.943-2.196-3.032-1.253-4.667c0.943-1.635,3.032-2.196,4.667-1.253l5.773,3.327c1.34,0.772,1.995,2.348,1.595,3.842
			C88.316,62.99,86.961,64.028,85.415,64.027L85.415,64.027z"/>
		<path style="fill:#3193C6;" d="M125.815,87.353c-0.6,0.001-1.189-0.158-1.707-0.46l-23.087-13.327
			c-1.622-0.947-2.174-3.027-1.234-4.653c0.94-1.626,3.017-2.187,4.648-1.254l23.087,13.327c1.336,0.773,1.987,2.347,1.587,3.838
			C128.709,86.315,127.358,87.352,125.815,87.353L125.815,87.353z"/>
		<path style="fill:#3193C6;" d="M125.815,113.833c-0.6,0.001-1.189-0.158-1.707-0.46L77.935,86.72
			c-1.061-0.607-1.715-1.735-1.717-2.957s0.651-2.351,1.711-2.96c1.059-0.609,2.364-0.605,3.419,0.011l46.173,26.653
			c1.336,0.773,1.987,2.347,1.587,3.838C128.709,112.795,127.358,113.832,125.815,113.833L125.815,113.833z"/>
	</g>
	<polygon style="fill:#48A8DC;" points="178.884,53.385 148.915,70.793 56.55,17.476 86.86,0 86.86,0.137 	"/>
	<polygon style="fill:#3193C6;" points="179.157,53.385 179.157,132.779 179.089,132.847 148.915,150.255 148.915,70.793 
		178.884,53.385 	"/>
	<path style="fill:#9C63AD;" d="M309.681,245.965l-62.669,32.085c-9.545-16.797-16.517-34.93-20.685-53.794v-0.068
		c-2.088-9.254-3.164-18.708-3.209-28.194h0.068l35.772,20.617v0.068L309.681,245.965z"/>
	<path style="fill:#ED634C;" d="M309.749,120.149v99.26l-0.068,0.068l-63.625-36.796l-22.938-13.244
		c-0.537-14.192,2.941-28.247,10.035-40.55c4.077-6.721,9.937-12.18,16.93-15.77C265.649,105.131,286.675,106.837,309.749,120.149z"
		/>
	<g>
		<path style="fill:#3A3E48;" d="M263.534,149.847c-0.6,0.001-1.189-0.158-1.707-0.46l-99.467-57.42
			c-1.062-0.598-1.725-1.717-1.738-2.936c-0.013-1.219,0.624-2.352,1.673-2.973s2.349-0.635,3.412-0.038l2.507,1.413l97.027,56.047
			c1.336,0.773,1.987,2.347,1.587,3.838C266.429,148.809,265.078,149.846,263.534,149.847L263.534,149.847z"/>
		<path style="fill:#3A3E48;" d="M247.961,232.767l-19.698-11.338c-0.085-0.06-0.137-0.149-0.229-0.202l-89.773-51.747
			c-1.057-0.606-2.357-0.604-3.412,0.006c-1.055,0.61-1.706,1.735-1.708,2.954v53.387c0,1.885,1.528,3.413,3.413,3.413
			c1.885,0,3.413-1.528,3.413-3.413v-47.48l84.453,48.684c0.077,0.054,0.124,0.135,0.208,0.182l19.933,11.473
			c1.058,0.607,2.359,0.604,3.413-0.008c1.055-0.612,1.703-1.741,1.7-2.96C249.672,234.499,249.019,233.374,247.961,232.767
			L247.961,232.767z"/>
	</g>
	<path style="fill:#F4CD1E;" d="M419.385,322.492c0.736,15.437-3.5,30.703-12.083,43.554h-0.068
		c-2.931,4.132-6.613,7.675-10.854,10.445l-5.393,3.072l-0.137,0.068c-11.077,4.684-23.445,5.336-34.953,1.843
		c-8.104-2.145-15.87-5.408-23.074-9.694c-26.416-16.512-48.028-39.677-62.669-67.174l62.669-32.085v-99.328
		C380.541,200.772,419.385,267.742,419.385,322.492z"/>
	<path style="fill:#F6AB27;" d="M449.695,305.084c0,27.17-9.626,46.353-25.19,55.433h-0.068l-28.058,15.974
		c4.241-2.77,7.923-6.313,10.854-10.445h0.068c8.584-12.851,12.819-28.117,12.083-43.554c0-54.75-38.844-121.719-86.562-149.299
		l7.168-4.096v-0.068l23.006-13.244l0.068,0.137C410.784,183.433,449.695,250.334,449.695,305.084z"/>
	<polygon style="fill:#CD4F38;" points="339.993,102.81 339.993,169.097 332.825,173.193 332.825,206.165 316.919,215.313 
		316.851,215.313 309.751,219.409 309.751,120.286 	"/>
	<polygon style="fill:#A773B4;" points="332.825,224.461 332.825,232.585 309.683,245.965 258.961,216.678 258.961,216.61 
		223.189,195.994 246.058,182.682 309.683,219.477 309.751,219.409 316.851,215.313 316.919,215.313 	"/>
	<path style="fill:#FE9189;" d="M309.749,120.286v-0.137c-23.074-13.312-44.1-15.019-59.665-7.031l26.487-15.155l4.369-2.526
		c15.428-7.646,36.181-5.803,59.051,7.373L309.749,120.286z"/>
	<path style="fill:#3A3E48;" d="M355.888,494.46c-0.6,0-1.188-0.159-1.707-0.46l-93.74-54.12c-1.061-0.607-1.715-1.735-1.717-2.957
		s0.651-2.351,1.711-2.96c1.059-0.609,2.364-0.605,3.419,0.011l88.62,51.16V338.787c0-1.885,1.528-3.413,3.413-3.413
		s3.413,1.528,3.413,3.413v152.26C359.298,492.93,357.772,494.456,355.888,494.46z"/>
</g>
<g>
</g>
<g>
</g>
<g>
</g>
<g>
</g>
<g>
</g>
<g>
</g>
<g>
</g>
<g>
</g>
<g>
</g>
<g>
</g>
<g>
</g>
<g>
</g>
<g>
</g>
<g>
</g>
<g>
</g>
</svg>
