<svg clip-rule="evenodd" fill-rule="evenodd" height="1.707in" image-rendering="optimizeQuality" shape-rendering="geometricPrecision" text-rendering="geometricPrecision" viewBox="0 0 1707 1707" width="1.707in" xmlns="http://www.w3.org/2000/svg" xmlns:xlink="http://www.w3.org/1999/xlink"><linearGradient id="id0" gradientUnits="userSpaceOnUse" x1="262.972" x2="1443.7" y1="682.874" y2="682.874"><stop offset="0" stop-color="#c8a300"/><stop offset=".478431" stop-color="#e3d016"/><stop offset="1" stop-color="#fffd2d"/></linearGradient><linearGradient id="id1" gradientUnits="userSpaceOnUse" x1="1584.65" x2="1644.63" y1="1468.69" y2="1468.69"><stop offset="0" stop-color="#479c13"/><stop offset="1" stop-color="#a1f66d"/></linearGradient><linearGradient id="id2" gradientUnits="userSpaceOnUse" x1=".043" x2="183.988" y1="1468.69" y2="1468.69"><stop offset="0" stop-color="#c00000"/><stop offset=".45098" stop-color="#df2d29"/><stop offset="1" stop-color="#ff5a52"/></linearGradient><linearGradient id="id3" gradientUnits="userSpaceOnUse" x1="262.972" x2="1322.71" y1="1468.69" y2="1468.69"><stop offset="0" stop-color="#521600"/><stop offset="1" stop-color="#ac7055"/></linearGradient><linearGradient id="id4" gradientUnits="userSpaceOnUse" x1="1262.74" x2="1443.69" y1="1469.18" y2="1469.18"><stop offset="0" stop-color="#005097"/><stop offset="1" stop-color="#37aaf1"/></linearGradient><linearGradient id="id5" gradientUnits="userSpaceOnUse" x1="1522.67" x2="1706.62" y1="1468.69" y2="1468.69"><stop offset="0" stop-color="#479c13"/><stop offset=".439216" stop-color="#74c940"/><stop offset="1" stop-color="#a1f66d"/></linearGradient><linearGradient id="id6" gradientUnits="userSpaceOnUse" x1="1142.76" x2="1321.73" y1="682.669" y2="682.669"><stop offset="0" stop-color="#000006"/><stop offset="1" stop-color="#4b5260"/></linearGradient><g id="Layer_x0020_1"><g id="_720454736"><g><path d="m853 1273c-325 0-590-265-590-590 0-326 265-590 590-590 326 0 591 264 591 590 0 325-265 590-591 590z" fill="url(#id0)"/><path d="m1173 1013c-4 0-7 0-11-2-11-4-19-15-19-28v-600c0-13 8-24 19-28 11-5 24-2 33 7 82 87 127 201 127 321s-45 234-127 321c-6 6-14 9-22 9z" fill="url(#id6)"/><path d="m1337 1576h-44c-17 0-30-14-30-30v-153c0-17 13-30 30-30h44c59 0 107 48 107 106 0 59-48 107-107 107z" fill="url(#id4)"/><path d="m1293 1614h-885c-80 0-145-65-145-145s65-145 145-145h885c16 0 30 14 30 30v230c0 17-14 30-30 30z" fill="url(#id3)"/><path d="m1615 1561c-17 0-30-13-30-30v-124c0-16 13-30 30-30 16 0 30 14 30 30v124c0 17-14 30-30 30z" fill="url(#id1)"/><path d="m1677 1499h-124c-17 0-30-13-30-30 0-16 13-30 30-30h124c16 0 30 14 30 30 0 17-14 30-30 30z" fill="url(#id5)"/><path d="m154 1499h-124c-17 0-30-13-30-30 0-16 13-30 30-30h124c16 0 30 14 30 30 0 17-14 30-30 30z" fill="url(#id2)"/></g></g></g></svg>