<svg clip-rule="evenodd" fill-rule="evenodd" stroke-linejoin="round" stroke-miterlimit="2" viewBox="0 0 64 64" xmlns="http://www.w3.org/2000/svg"><g id="Artboard1"><circle cx="32" cy="32" fill="#fa4455" r="31"/><path d="m60.588 20c1.554 3.692 2.412 7.747 2.412 12 0 17.109-13.891 31-31 31-4.253 0-8.308-.858-12-2.412l-5.524-11.754 1.516-1.508-6.52-15.142 6.762-16.596 15.491-6.623 16.189 7.324.135-1.948z" fill="#da4455"/><g transform="matrix(.807 0 0 .807 6.18 6.18)"><circle cx="32" cy="32" fill="#7ad7ee" r="20"/></g><g transform="matrix(.807 0 0 .807 10.311 6.438)"><path d="m36.445 14.116c6.215 3.394 10.435 9.99 10.435 17.565 0 11.038-8.962 20-20 20-7.574 0-14.171-4.22-17.565-10.435 2.842 1.552 6.101 2.435 9.565 2.435 11.038 0 20-8.962 20-20 0-3.464-.882-6.723-2.435-9.565z" fill="#4bc3ef"/></g><g transform="matrix(.807 0 0 .807 6.18 6.18)"><g><path d="m60.635 30.937-7.711-18.642c-.211-.51-.796-.753-1.306-.542s-.753.796-.542 1.306l7.711 18.643c.211.51.796.752 1.306.541s.753-.796.542-1.306z" fill="#dbd8db"/></g><g><path d="m53.094 51.295 7.541-18.232c.211-.51-.032-1.095-.542-1.306s-1.095.031-1.306.541l-7.541 18.232c-.211.51.032 1.096.542 1.307s1.095-.032 1.306-.542z" fill="#dbd8db"/></g><g><path d="m33.066 60.638 18.436-7.63c.51-.211.753-.797.542-1.307s-.796-.752-1.306-.541l-18.437 7.63c-.509.211-.752.796-.541 1.306s.796.753 1.306.542z" fill="#dbd8db"/></g><g><path d="m12.498 53.008 18.435 7.63c.51.211 1.095-.032 1.306-.542s-.031-1.095-.541-1.306l-18.436-7.63c-.509-.211-1.095.031-1.306.541s.032 1.096.542 1.307z" fill="#dbd8db"/></g><g><path d="m3.36 33.063 7.547 18.232c.211.51.796.753 1.306.542s.753-.797.542-1.307l-7.547-18.232c-.211-.51-.797-.752-1.307-.541-.509.211-.752.796-.541 1.306z" fill="#dbd8db"/></g><g><path d="m10.907 12.705-7.547 18.232c-.211.51.032 1.095.541 1.306.51.211 1.096-.031 1.307-.541l7.547-18.232c.211-.51-.032-1.096-.542-1.307s-1.095.032-1.306.542z" fill="#dbd8db"/></g><g><path d="m30.897 3.379-18.008 7.451c-.51.211-.753.797-.542 1.307.212.51.797.752 1.307.541l18.008-7.451c.509-.211.752-.797.541-1.307s-.796-.752-1.306-.541z" fill="#dbd8db"/></g><g><path d="m51.115 10.833-17.604-7.288c-.51-.211-1.096.032-1.307.542s.032 1.095.542 1.306l17.604 7.288c.51.211 1.095-.031 1.306-.541s-.031-1.095-.541-1.307z" fill="#dbd8db"/></g><g><circle cx="32" cy="4" fill="#eceaec" r="2"/></g><g><circle cx="12.2" cy="12.2" fill="#eceaec" r="2"/></g><g><circle cx="4" cy="32" fill="#eceaec" r="2"/></g><g><circle cx="12.2" cy="51.8" fill="#eceaec" r="2"/></g><g><circle cx="32" cy="60" fill="#eceaec" r="2"/></g><g><circle cx="51.8" cy="51.8" fill="#eceaec" r="2"/></g><g><circle cx="60" cy="32" fill="#eceaec" r="2"/></g><g><circle cx="51.8" cy="12.2" fill="#eceaec" r="2"/></g></g><g transform="matrix(.807 0 0 .807 59.227 6.199)"><path d="m-25.764 50.342v-2.832c0-.92-.51-1.75-1.33-2.16l-1.33-.67c-.81-.41-1.33-1.25-1.33-2.16v-1.02c0-.92-.51-1.75-1.33-2.16l-1.33-.67c-.81-.41-1.33-1.25-1.33-2.16v-3.51c0-.64.25-1.25.7-1.7l2.59-2.59c.46-.46 1.07-.71 1.71-.71h4c.64 0 1.25.25 1.7.71l1.02 1.02c.19.18.4.33.63.45l3.14 1.57c.34.16.71.25 1.08.25h3.43c0 8.203-4.948 15.258-12.02 18.342z" fill="#4ce1a1"/></g><g transform="matrix(.807 0 0 .807 4.049 5.983)"><path d="m45.925 29.586.436.436c.19.18.4.33.63.45l3.14 1.57c.34.16.71.25 1.08.25h3.43c-.01 8.192-4.955 15.237-12.02 18.318v-2.808c0-.92-.51-1.75-1.33-2.16l-1.33-.67c-.81-.41-1.33-1.25-1.33-2.16v-1.02c0-.456-.126-.89-.352-1.262 3.67-2.632 6.414-6.476 7.646-10.944z" fill="#3ec2a3"/></g><g transform="matrix(.807 0 0 .807 59.227 6.199)"><path d="m-41.614 13.61-2.01 6.02c-.08.25-.12.5-.12.76v2.12c0 .91-.52 1.75-1.33 2.16l-1.33.67c-.82.4-1.34 1.24-1.34 2.15v1.51c0 .64.25 1.25.71 1.71l3.02 3.02c.18.18.34.4.45.63l1.28 2.57c.34.68.34 1.48 0 2.16l-.92 1.84c-.34.68-.34 1.48 0 2.16l1.21 2.41c.17.34.25.7.25 1.08v3.753c-7.06-3.088-12-10.138-12-18.333 0-8.245 5-15.331 12.13-18.39z" fill="#4ce1a1"/></g><g transform="matrix(.807 0 0 .807 6.285 4.026)"><path d="m24 53.036c-4.076-1.783-7.445-4.887-9.565-8.768 2.559 1.397 5.457 2.252 8.537 2.408l.778 1.55c.17.34.25.7.25 1.08z" fill="#3ec2a3"/></g><g transform="matrix(.807 0 0 .807 59.227 6.199)"><path d="m-23.744 14.679c3.678 2.13 6.617 5.397 8.334 9.321h-3.334c-.64 0-1.25.25-1.71.71l-.06.06c-.74.73-1.86.91-2.79.45l-1.93-.97c-.34-.16-.71-.25-1.08-.25h-2.43c-.64 0-1.25-.25-1.7-.7l-.59-.59c-.46-.46-.71-1.07-.71-1.71s.25-1.25.7-1.71l.06-.06c.74-.73 1.86-.91 2.79-.45l.89.44c.93.47 2.06.28 2.79-.45l.06-.06c.46-.46.71-1.07.71-1.71z" fill="#4ce1a1"/></g><g transform="matrix(.807 0 0 .807 2.705 6.211)"><path d="m46.307 15.278v-.575c3.678 2.13 6.617 5.397 8.334 9.321h-3.334c-.64 0-1.25.25-1.71.71l-.06.06c-.36.355-.809.579-1.283.664.035-.482.053-.968.053-1.458 0-3.126-.719-6.086-2-8.722z" fill="#3ec2a3"/></g></g></svg>