<svg height="512" viewBox="0 0 64 64" width="512" xmlns="http://www.w3.org/2000/svg"><g id="Database_network" data-name="Database network"><path d="m32 62a26 26 0 1 1 26-26 26.03 26.03 0 0 1 -26 26zm0-50a24 24 0 1 0 24 24 24.028 24.028 0 0 0 -24-24z" fill="#5eac24"/><path d="m14 40c6.075 0 11-1.343 11-3s-4.925-3-11-3a32.891 32.891 0 0 0 -6.97.68c-2.46.55-4.03 1.385-4.03 2.32 0 1.657 4.925 3 11 3z" fill="#ffcd00"/><path d="m14 50c-6.075 0-11-1.343-11-3v5c0 1.657 4.925 3 11 3s11-1.343 11-3v-5c0 1.657-4.925 3-11 3z" fill="#ff5023"/><path d="m14 45c6.075 0 11-1.343 11-3v-5c0 1.657-4.925 3-11 3s-11-1.343-11-3v5c0 1.657 4.925 3 11 3z" fill="#ff7956"/><path d="m14 50c6.075 0 11-1.343 11-3v-5c0 1.657-4.925 3-11 3s-11-1.343-11-3v5c0 1.657 4.925 3 11 3z" fill="#ff6243"/><path d="m14 50h-.17a25.441 25.441 0 0 1 -9.172 3.58 25.645 25.645 0 0 0 9.342 1.42c6.075 0 11-1.343 11-3v-5c0 1.657-4.925 3-11 3z" fill="#e54820"/><path d="m23.354 38.573a23.676 23.676 0 0 1 -3.454 5.956c3.064-.529 5.1-1.465 5.1-2.529v-5c0 .578-.609 1.115-1.646 1.573z" fill="#e56d4d"/><path d="m19.9 44.529a24.734 24.734 0 0 1 -6.07 5.471h.17c6.075 0 11-1.343 11-3v-5c0 1.064-2.036 2-5.1 2.529z" fill="#e5583c"/><path d="m50 40c6.075 0 11-1.343 11-3s-4.925-3-11-3a32.891 32.891 0 0 0 -6.97.68c-2.46.55-4.03 1.385-4.03 2.32 0 1.657 4.925 3 11 3z" fill="#ffcd00"/><path d="m50 50c-6.075 0-11-1.343-11-3v5c0 1.657 4.925 3 11 3s11-1.343 11-3v-5c0 1.657-4.925 3-11 3z" fill="#ff5023"/><path d="m50 45c6.075 0 11-1.343 11-3v-5c0 1.657-4.925 3-11 3s-11-1.343-11-3v5c0 1.657 4.925 3 11 3z" fill="#ff7956"/><path d="m50 50c6.075 0 11-1.343 11-3v-5c0 1.657-4.925 3-11 3s-11-1.343-11-3v5c0 1.657 4.925 3 11 3z" fill="#ff6243"/><path d="m50 50h-.17a25.441 25.441 0 0 1 -9.172 3.58 25.645 25.645 0 0 0 9.342 1.42c6.075 0 11-1.343 11-3v-5c0 1.657-4.925 3-11 3z" fill="#e54820"/><path d="m59.354 38.573a23.676 23.676 0 0 1 -3.454 5.956c3.064-.529 5.1-1.465 5.1-2.529v-5c0 .578-.609 1.115-1.646 1.573z" fill="#e56d4d"/><path d="m55.9 44.529a24.734 24.734 0 0 1 -6.07 5.471h.17c6.075 0 11-1.343 11-3v-5c0 1.064-2.036 2-5.1 2.529z" fill="#e5583c"/><path d="m32 9c6.075 0 11-1.343 11-3s-4.925-3-11-3a32.891 32.891 0 0 0 -6.97.68c-2.46.55-4.03 1.385-4.03 2.32 0 1.657 4.925 3 11 3z" fill="#ffcd00"/><path d="m32 19c-6.075 0-11-1.343-11-3v5c0 1.657 4.925 3 11 3s11-1.343 11-3v-5c0 1.657-4.925 3-11 3z" fill="#ff5023"/><path d="m32 14c6.075 0 11-1.343 11-3v-5c0 1.657-4.925 3-11 3s-11-1.343-11-3v5c0 1.657 4.925 3 11 3z" fill="#ff7956"/><path d="m32 19c6.075 0 11-1.343 11-3v-5c0 1.657-4.925 3-11 3s-11-1.343-11-3v5c0 1.657 4.925 3 11 3z" fill="#ff6243"/><path d="m32 19h-.17a25.441 25.441 0 0 1 -9.172 3.58 25.645 25.645 0 0 0 9.342 1.42c6.075 0 11-1.343 11-3v-5c0 1.657-4.925 3-11 3z" fill="#e54820"/><path d="m41.354 7.573a23.676 23.676 0 0 1 -3.454 5.956c3.064-.529 5.1-1.465 5.1-2.529v-5c0 .578-.609 1.115-1.646 1.573z" fill="#e56d4d"/><path d="m37.9 13.529a24.734 24.734 0 0 1 -6.07 5.471h.17c6.075 0 11-1.343 11-3v-5c0 1.064-2.036 2-5.1 2.529z" fill="#e5583c"/></g></svg>