<svg id="_01_Elephants" enable-background="new 0 0 512 512" viewBox="0 0 512 512" xmlns="http://www.w3.org/2000/svg" xmlns:xlink="http://www.w3.org/1999/xlink"><linearGradient id="lg1"><stop offset="0" stop-color="#bbec6c"/><stop offset=".2292" stop-color="#b7e967"/><stop offset=".4667" stop-color="#ade05b"/><stop offset=".7079" stop-color="#9dd146"/><stop offset=".9504" stop-color="#86bc29"/><stop offset="1" stop-color="#81b823"/></linearGradient><linearGradient id="SVGID_1_" gradientTransform="matrix(1 0 0 -1 0 514)" gradientUnits="userSpaceOnUse" x1="435.669" x2="456.211" xlink:href="#lg1" y1="94.212" y2="16.849"/><linearGradient id="lg2"><stop offset="0" stop-color="#017b4e" stop-opacity="0"/><stop offset=".1753" stop-color="#017b4e" stop-opacity=".034"/><stop offset=".3569" stop-color="#017b4e" stop-opacity=".135"/><stop offset=".5415" stop-color="#017b4e" stop-opacity=".304"/><stop offset=".7281" stop-color="#017b4e" stop-opacity=".54"/><stop offset=".9146" stop-color="#017b4e" stop-opacity=".841"/><stop offset="1" stop-color="#017b4e"/></linearGradient><linearGradient id="SVGID_00000119090100168873033440000002724792833583848361_" gradientTransform="matrix(1 0 0 -1 0 514)" gradientUnits="userSpaceOnUse" x1="464.446" x2="427.544" xlink:href="#lg2" y1="55.74" y2="55.74"/><linearGradient id="SVGID_00000101801881775149897350000016582547950572040842_" gradientTransform="matrix(1 0 0 -1 0 514)" gradientUnits="userSpaceOnUse" x1="487.516" x2="516.364" xlink:href="#lg2" y1="39.519" y2="22.91"/><linearGradient id="SVGID_00000033347443851086811710000009807208045572591764_" gradientTransform="matrix(1 0 0 -1 0 514)" gradientUnits="userSpaceOnUse" x1="473.397" x2="496.999" xlink:href="#lg2" y1="63.469" y2="76.144"/><linearGradient id="SVGID_00000098218578511811881410000008584765125605604253_" gradientTransform="matrix(1 0 0 -1 0 514)" gradientUnits="userSpaceOnUse" x1="438.584" x2="454.319" xlink:href="#lg2" y1="80.27" y2="92.509"/><linearGradient id="SVGID_00000155854161877908005110000002484216994725439362_" gradientTransform="matrix(1 0 0 -1 0 514)" gradientUnits="userSpaceOnUse" x1="410.72" x2="402.853" xlink:href="#lg2" y1="57.457" y2="83.682"/><linearGradient id="SVGID_00000066493711890254700990000010671018032472614533_" gradientTransform="matrix(1 0 0 -1 0 514)" gradientUnits="userSpaceOnUse" x1="267.874" x2="290.047" xlink:href="#lg1" y1="100.403" y2="16.902"/><linearGradient id="SVGID_00000063625431073118028760000016900336775851486137_" gradientTransform="matrix(1 0 0 -1 0 514)" gradientUnits="userSpaceOnUse" x1="305.561" x2="252.096" xlink:href="#lg2" y1="18.123" y2="80.499"/><linearGradient id="SVGID_00000006695765261385690460000003405880100551716792_" gradientTransform="matrix(1 0 0 -1 0 514)" gradientUnits="userSpaceOnUse" x1="323.835" x2="354.971" xlink:href="#lg2" y1="41.37" y2="23.443"/><linearGradient id="SVGID_00000043423632536689101760000007102726141556318889_" gradientTransform="matrix(1 0 0 -1 0 514)" gradientUnits="userSpaceOnUse" x1="308.596" x2="334.07" xlink:href="#lg2" y1="67.22" y2="80.901"/><linearGradient id="SVGID_00000129886078506765360310000002970239893140988852_" gradientTransform="matrix(1 0 0 -1 0 514)" gradientUnits="userSpaceOnUse" x1="271.021" x2="288.004" xlink:href="#lg2" y1="85.355" y2="98.564"/><linearGradient id="SVGID_00000134966925795393710490000016788939447180121763_" gradientTransform="matrix(1 0 0 -1 0 514)" gradientUnits="userSpaceOnUse" x1="240.947" x2="232.455" xlink:href="#lg2" y1="60.732" y2="89.037"/><linearGradient id="lg3"><stop offset="0" stop-color="#c5d3dd"/><stop offset=".2627" stop-color="#c0ced9"/><stop offset=".5349" stop-color="#b4c2cd"/><stop offset=".8104" stop-color="#9faeb9"/><stop offset="1" stop-color="#8d9ca8"/></linearGradient><linearGradient id="SVGID_00000124131266108807287660000007908362984168327050_" gradientTransform="matrix(1 0 0 -1 0 514)" gradientUnits="userSpaceOnUse" x1="240.704" x2="297.933" xlink:href="#lg3" y1="83.65" y2="79.835"/><linearGradient id="lg4"><stop offset="0" stop-color="#596c76" stop-opacity="0"/><stop offset=".179" stop-color="#596c76" stop-opacity=".035"/><stop offset=".3646" stop-color="#596c76" stop-opacity=".141"/><stop offset=".5532" stop-color="#596c76" stop-opacity=".316"/><stop offset=".7438" stop-color="#596c76" stop-opacity=".563"/><stop offset=".9342" stop-color="#596c76" stop-opacity=".876"/><stop offset="1" stop-color="#596c76"/></linearGradient><linearGradient id="SVGID_00000011741023686645187490000014425609755223436716_" gradientTransform="matrix(1 0 0 -1 0 514)" gradientUnits="userSpaceOnUse" x1="284.662" x2="230.373" xlink:href="#lg4" y1="79.385" y2="86.555"/><linearGradient id="SVGID_00000047053327381039968410000016899986044685427636_" gradientTransform="matrix(1 0 0 -1 0 514)" gradientUnits="userSpaceOnUse" x1="255.741" x2="255.741" xlink:href="#lg4" y1="59.266" y2="116.355"/><linearGradient id="SVGID_00000051354152090328065020000016471243584999422395_" gradientTransform="matrix(1 0 0 -1 0 514)" gradientUnits="userSpaceOnUse" x1="323.431" x2="378.744" xlink:href="#lg3" y1="90.685" y2="81.807"/><linearGradient id="SVGID_00000027575392508875300700000011439826950966689664_" gradientTransform="matrix(1 0 0 -1 0 514)" gradientUnits="userSpaceOnUse" x1="315.334" x2="376.451" xlink:href="#lg4" y1="87.947" y2="82.143"/><linearGradient id="SVGID_00000140709732241987467730000005596057287258809268_" gradientTransform="matrix(1 0 0 -1 0 514)" gradientUnits="userSpaceOnUse" x1="362.357" x2="371.234" xlink:href="#lg4" y1="54.531" y2="111.209"/><linearGradient id="SVGID_00000173162416239041386660000014100158391049422248_" gradientTransform="matrix(1 0 0 -1 0 514)" gradientUnits="userSpaceOnUse" x1="497.08" x2="474.886" xlink:href="#lg3" y1="287.42" y2="271.714"/><linearGradient id="SVGID_00000008141971546194817630000018115603393482087305_" gradientTransform="matrix(1 0 0 -1 0 514)" gradientUnits="userSpaceOnUse" x1="209.85" x2="427.004" xlink:href="#lg3" y1="400.927" y2="59.489"/><linearGradient id="SVGID_00000107557143345080730030000007811937327347839393_" gradientTransform="matrix(1 0 0 -1 0 514)" gradientUnits="userSpaceOnUse" x1="310.741" x2="310.741" xlink:href="#lg4" y1="174.786" y2="102.856"/><linearGradient id="SVGID_00000060709756501849054880000012805760847069680825_" gradientTransform="matrix(1 0 0 -1 0 514)" gradientUnits="userSpaceOnUse" x1="85.2" x2="302.354" xlink:href="#lg3" y1="321.649" y2="-19.788"/><linearGradient id="SVGID_00000178885892124605887100000017868523117364577193_" gradientTransform="matrix(1 0 0 -1 0 514)" gradientUnits="userSpaceOnUse" x1="261.48" x2="170.885" xlink:href="#lg4" y1="163.947" y2="201.278"/><linearGradient id="SVGID_00000131345161162584413130000002277417853294056352_" gradientTransform="matrix(1 0 0 -1 0 514)" gradientUnits="userSpaceOnUse" x1="204.919" x2="275.255" xlink:href="#lg4" y1="125.043" y2="96.363"/><linearGradient id="SVGID_00000132805965577003770560000013134050481694023296_" gradientTransform="matrix(1 0 0 -1 0 514)" gradientUnits="userSpaceOnUse" x1="24.538" x2="181.144" xlink:href="#lg3" y1="256.764" y2="154.788"/><linearGradient id="SVGID_00000142174044725653963500000006639968378197518766_" gradientTransform="matrix(1 0 0 -1 0 514)" gradientUnits="userSpaceOnUse" x1="58.175" x2="72.174" xlink:href="#lg4" y1="204.863" y2="173.792"/><linearGradient id="SVGID_00000114770892501579103410000017313157963540505013_" gradientTransform="matrix(1 0 0 -1 0 514)" gradientUnits="userSpaceOnUse" x1="43.899" x2="98.529" xlink:href="#lg4" y1="88.227" y2="122.598"/><linearGradient id="SVGID_00000027602794828976487310000003978285023183256251_" gradientTransform="matrix(1 0 0 -1 0 514)" gradientUnits="userSpaceOnUse" x1="43.835" x2="51.119" xlink:href="#lg4" y1="131.128" y2="161.175"/><linearGradient id="SVGID_00000134231162766651883750000012528913359503536022_" gradientTransform="matrix(1 0 0 -1 0 514)" gradientUnits="userSpaceOnUse" x1="145.748" x2="145.748" xlink:href="#lg4" y1="204.832" y2="181.802"/><linearGradient id="SVGID_00000145777413575686056810000013691417535220974015_" gradientTransform="matrix(1 0 0 -1 0 514)" gradientUnits="userSpaceOnUse" x1="68.097" x2="82.176" y1="269.846" y2="255.768"><stop offset="0" stop-color="#465a61"/><stop offset=".3978" stop-color="#44565c"/><stop offset=".8093" stop-color="#404c50"/><stop offset="1" stop-color="#3e4648"/></linearGradient><linearGradient id="SVGID_00000105413796654925974030000010464754855906629269_" gradientTransform="matrix(1 0 0 -1 0 514)" gradientUnits="userSpaceOnUse" x1="75.579" x2="232.185" xlink:href="#lg3" y1="335.149" y2="233.173"/><linearGradient id="SVGID_00000180365644595645112970000009966393643590537371_" gradientTransform="matrix(1 0 0 -1 0 514)" gradientUnits="userSpaceOnUse" x1="202.268" x2="246.428" xlink:href="#lg4" y1="252.78" y2="224.555"/><linearGradient id="lg5"><stop offset="0" stop-color="#f5fbff"/><stop offset=".2414" stop-color="#f0f8fe"/><stop offset=".4916" stop-color="#e4f2fe"/><stop offset=".7457" stop-color="#cfe8fe"/><stop offset="1" stop-color="#b3dafe"/></linearGradient><linearGradient id="SVGID_00000150814222096290550200000009886047014948358573_" gradientTransform="matrix(1 0 0 -1 0 514)" gradientUnits="userSpaceOnUse" x1="52.798" x2="59.627" xlink:href="#lg5" y1="182.036" y2="154.721"/><linearGradient id="lg6"><stop offset="0" stop-color="#8ac9fe" stop-opacity="0"/><stop offset=".1291" stop-color="#89c8fd" stop-opacity=".019"/><stop offset=".2629" stop-color="#88c6fb" stop-opacity=".075"/><stop offset=".3989" stop-color="#87c4f8" stop-opacity=".168"/><stop offset=".5365" stop-color="#85c0f4" stop-opacity=".298"/><stop offset=".6753" stop-color="#83bbef" stop-opacity=".466"/><stop offset=".8151" stop-color="#7fb5e9" stop-opacity=".672"/><stop offset=".9532" stop-color="#7caee1" stop-opacity=".911"/><stop offset="1" stop-color="#7bacdf"/></linearGradient><linearGradient id="SVGID_00000145758553812669598090000003643583343528517538_" gradientTransform="matrix(1 0 0 -1 0 514)" gradientUnits="userSpaceOnUse" x1="49.829" x2="80.558" xlink:href="#lg6" y1="171.529" y2="182.228"/><linearGradient id="SVGID_00000006703303066354713760000008822004218324204443_" gradientTransform="matrix(1 0 0 -1 0 514)" gradientUnits="userSpaceOnUse" x1="18.994" x2="175.6" xlink:href="#lg3" y1="248.25" y2="146.274"/><linearGradient id="SVGID_00000141442533724478666510000005650104342814866867_" gradientTransform="matrix(1 0 0 -1 0 514)" gradientUnits="userSpaceOnUse" x1="101.476" x2="110.126" xlink:href="#lg4" y1="189.363" y2="172.746"/><linearGradient id="SVGID_00000158717390742721566850000011580335064589535126_" gradientTransform="matrix(1 0 0 -1 0 514)" gradientUnits="userSpaceOnUse" x1="179.701" x2="192.448" xlink:href="#lg4" y1="285.582" y2="391.2"/><linearGradient id="SVGID_00000158747186801584103360000003151397362355503292_" gradientTransform="matrix(1 0 0 -1 0 514)" gradientUnits="userSpaceOnUse" x1="161.204" x2="170.682" xlink:href="#lg4" y1="280.017" y2="358.554"/><linearGradient id="SVGID_00000146496394780755571110000000531890913163367559_" gradientTransform="matrix(1 0 0 -1 0 514)" gradientUnits="userSpaceOnUse" x1="91.423" x2="103.032" xlink:href="#lg4" y1="62.177" y2="39.415"/><linearGradient id="SVGID_00000125589520311653144080000017240553398872059320_" gradientTransform="matrix(1 0 0 -1 0 514)" gradientUnits="userSpaceOnUse" x1="81.283" x2="73.999" xlink:href="#lg4" y1="66.405" y2="37.269"/><linearGradient id="SVGID_00000135674644880503300110000003960748954583227816_" gradientTransform="matrix(1 0 0 -1 0 514)" gradientUnits="userSpaceOnUse" x1="228.016" x2="445.17" xlink:href="#lg3" y1="412.48" y2="71.043"/><linearGradient id="SVGID_00000181775478428340278250000004888998384467016348_" gradientTransform="matrix(1 0 0 -1 0 514)" gradientUnits="userSpaceOnUse" x1="410.858" x2="483.243" xlink:href="#lg4" y1="189.744" y2="176.087"/><linearGradient id="SVGID_00000068675013900027797150000008740892737829509052_" gradientTransform="matrix(1 0 0 -1 0 514)" gradientUnits="userSpaceOnUse" x1="200.419" x2="200.419" xlink:href="#lg4" y1="57.158" y2="34.143"/><linearGradient id="SVGID_00000081622679415727052960000008565287485766872508_" gradientTransform="matrix(1 0 0 -1 0 514)" gradientUnits="userSpaceOnUse" x1="401.006" x2="401.006" xlink:href="#lg4" y1="57.158" y2="34.143"/><linearGradient id="SVGID_00000019674258857204240830000009843582591866659975_" gradientTransform="matrix(1 0 0 -1 0 514)" gradientUnits="userSpaceOnUse" x1="50.79" x2="66.345" xlink:href="#lg1" y1="69.634" y2="11.055"/><linearGradient id="SVGID_00000179621339976914172690000008787930929959669167_" gradientTransform="matrix(1 0 0 -1 0 514)" gradientUnits="userSpaceOnUse" x1="90.049" x2="111.893" xlink:href="#lg2" y1="28.22" y2="15.644"/><linearGradient id="SVGID_00000076604548101607772130000005599057368240345226_" gradientTransform="matrix(1 0 0 -1 0 514)" gradientUnits="userSpaceOnUse" x1="79.358" x2="97.23" xlink:href="#lg2" y1="46.356" y2="55.953"/><linearGradient id="SVGID_00000121998340202564981060000001977072054147498662_" gradientTransform="matrix(1 0 0 -1 0 514)" gradientUnits="userSpaceOnUse" x1="52.998" x2="64.912" xlink:href="#lg2" y1="59.078" y2="68.344"/><linearGradient id="SVGID_00000069364789005860469740000004436724679834762113_" gradientTransform="matrix(1 0 0 -1 0 514)" gradientUnits="userSpaceOnUse" x1="31.9" x2="25.942" xlink:href="#lg2" y1="41.804" y2="61.661"/><linearGradient id="SVGID_00000164498686807475653970000015570884091437542328_" gradientTransform="matrix(1 0 0 -1 0 514)" gradientUnits="userSpaceOnUse" x1="256" x2="256" y1="30.534" y2="1.649"><stop offset="0" stop-color="#d88a55"/><stop offset=".2002" stop-color="#d58553"/><stop offset=".4075" stop-color="#cf794d"/><stop offset=".6183" stop-color="#c46444"/><stop offset=".83" stop-color="#b54737"/><stop offset="1" stop-color="#a72b2b"/></linearGradient><linearGradient id="SVGID_00000173863272069150780580000016330122859389745837_" gradientTransform="matrix(1 0 0 -1 0 514)" gradientUnits="userSpaceOnUse" x1="371.523" x2="403.047" xlink:href="#lg5" y1="511.361" y2="409.059"/><linearGradient id="SVGID_00000082342321474532491640000009576101259623548051_" gradientTransform="matrix(1 0 0 -1 0 514)" gradientUnits="userSpaceOnUse" x1="345.878" x2="330.049" xlink:href="#lg6" y1="490.947" y2="502.514"/><linearGradient id="SVGID_00000134969540415714804840000010757946947029468580_" gradientTransform="matrix(1 0 0 -1 0 514)" gradientUnits="userSpaceOnUse" x1="323.037" x2="303.149" xlink:href="#lg6" y1="479.498" y2="485.992"/><linearGradient id="SVGID_00000103235614391171860070000015347606674680231095_" gradientTransform="matrix(1 0 0 -1 0 514)" gradientUnits="userSpaceOnUse" x1="449.575" x2="468.651" xlink:href="#lg6" y1="478.833" y2="486.95"/><linearGradient id="SVGID_00000099621468891015405050000002791537910211168670_" gradientTransform="matrix(1 0 0 -1 0 514)" gradientUnits="userSpaceOnUse" x1="410.912" x2="429.176" xlink:href="#lg6" y1="490.052" y2="501.417"/><linearGradient id="SVGID_00000111910465963304615100000009614111111174093188_" gradientTransform="matrix(1 0 0 -1 0 514)" gradientUnits="userSpaceOnUse" x1="437.513" x2="457.559" xlink:href="#lg5" y1="467.63" y2="392.136"/><linearGradient id="SVGID_00000022539758219145032680000008963346893927039642_" gradientTransform="matrix(1 0 0 -1 0 514)" gradientUnits="userSpaceOnUse" x1="488.108" x2="516.258" xlink:href="#lg6" y1="414.258" y2="398.05"/><linearGradient id="SVGID_00000049918499178104329520000006205794089306446746_" gradientTransform="matrix(1 0 0 -1 0 514)" gradientUnits="userSpaceOnUse" x1="474.329" x2="497.362" xlink:href="#lg6" y1="437.629" y2="449.998"/><linearGradient id="SVGID_00000063610187226660889120000009277745937164306825_" gradientTransform="matrix(1 0 0 -1 0 514)" gradientUnits="userSpaceOnUse" x1="440.358" x2="455.712" xlink:href="#lg6" y1="454.025" y2="465.968"/><linearGradient id="SVGID_00000038370921470742138730000000269977357722761889_" gradientTransform="matrix(1 0 0 -1 0 514)" gradientUnits="userSpaceOnUse" x1="413.167" x2="405.49" xlink:href="#lg6" y1="431.763" y2="457.354"/><linearGradient id="SVGID_00000070112918987567096800000012012054942461579450_" gradientTransform="matrix(1 0 0 -1 0 514)" gradientUnits="userSpaceOnUse" x1="47.426" x2="67.473" xlink:href="#lg5" y1="467.63" y2="392.136"/><linearGradient id="SVGID_00000093170573532593964320000005057608087284670633_" gradientTransform="matrix(1 0 0 -1 0 514)" gradientUnits="userSpaceOnUse" x1="98.021" x2="126.172" xlink:href="#lg6" y1="414.258" y2="398.05"/><linearGradient id="SVGID_00000057855776099538426550000018185989983286319528_" gradientTransform="matrix(1 0 0 -1 0 514)" gradientUnits="userSpaceOnUse" x1="84.243" x2="107.275" xlink:href="#lg6" y1="437.629" y2="449.998"/><linearGradient id="SVGID_00000047771100288612042620000007673777177226908803_" gradientTransform="matrix(1 0 0 -1 0 514)" gradientUnits="userSpaceOnUse" x1="50.271" x2="65.626" xlink:href="#lg6" y1="454.025" y2="465.968"/><linearGradient id="SVGID_00000016039983617647507590000002202737841249841586_" gradientTransform="matrix(1 0 0 -1 0 514)" gradientUnits="userSpaceOnUse" x1="23.081" x2="15.403" xlink:href="#lg6" y1="431.763" y2="457.354"/><g><g><path d="m494.4 454.7c-.2-14.7-12.2-26.5-26.9-26.5-5.6 0-10.8 1.7-15.1 4.6-2.2-8.1-9.7-14.1-18.5-14.1-10.6 0-19.2 8.6-19.2 19.2 0 .9.1 1.7.2 2.5-.3 0-.6 0-.9 0-14.8 0-26.9 12-26.9 26.9 0 14.8 12 26.9 26.9 26.9 6 0 11.6-2 16.1-5.3 4.9 5.4 12 8.8 19.9 8.8 8.8 0 16.6-4.2 21.5-10.7 3.8 6.5 10.8 10.9 18.8 10.9 12 0 21.8-9.8 21.8-21.8-.1-10.7-7.7-19.5-17.7-21.4z" fill="url(#SVGID_1_)"/><path d="m494.4 454.7c-.2-14.7-12.2-26.5-26.9-26.5-5.6 0-10.8 1.7-15.1 4.6-2.2-8.1-9.7-14.1-18.5-14.1-10.6 0-19.2 8.6-19.2 19.2 0 .9.1 1.7.2 2.5-.3 0-.6 0-.9 0-14.8 0-26.9 12-26.9 26.9 0 14.8 12 26.9 26.9 26.9 6 0 11.6-2 16.1-5.3 4.9 5.4 12 8.8 19.9 8.8 8.8 0 16.6-4.2 21.5-10.7 3.8 6.5 10.8 10.9 18.8 10.9 12 0 21.8-9.8 21.8-21.8-.1-10.7-7.7-19.5-17.7-21.4z" fill="url(#SVGID_00000119090100168873033440000002724792833583848361_)"/><circle cx="490.2" cy="476" fill="url(#SVGID_00000101801881775149897350000016582547950572040842_)" r="21.8"/><path d="m494.4 454.7c-1.3-.3-2.7-.4-4.2-.4-12 0-21.8 9.7-21.8 21.8 0 2 .3 4 .8 5.9-.6 0-1.1.1-1.7.1-14.8 0-26.9-12-26.9-26.9 0-14.8 12-26.9 26.9-26.9 14.7-.1 26.7 11.7 26.9 26.4z" fill="url(#SVGID_00000033347443851086811710000009807208045572591764_)"/><path d="m440.6 455.1v.8c-2.1.8-4.4 1.2-6.7 1.2-10.6 0-19.2-8.6-19.2-19.2s8.6-19.2 19.2-19.2c8.8 0 16.3 6 18.5 14.1-7.1 4.8-11.8 13-11.8 22.3z" fill="url(#SVGID_00000098218578511811881410000008584765125605604253_)"/><path d="m440.8 467.3c0 14.8-12 26.9-26.9 26.9-14.8 0-26.9-12-26.9-26.9 0-14.8 12-26.9 26.9-26.9h.9c1.2 9.4 9.3 16.7 19 16.7 1.6 0 3.2-.2 4.7-.6 1.5 3.3 2.3 7 2.3 10.8z" fill="url(#SVGID_00000155854161877908005110000002484216994725439362_)"/></g><g><path d="m331.3 451.2c-.2-15.8-13.1-28.6-29-28.6-6 0-11.6 1.8-16.3 5-2.4-8.8-10.4-15.2-20-15.2-11.5 0-20.7 9.3-20.7 20.7 0 .9.1 1.8.2 2.7-.3 0-.7 0-1 0-16 0-29 13-29 29s13 29 29 29c6.5 0 12.5-2.1 17.3-5.7 5.3 5.8 13 9.5 21.5 9.5 9.5 0 17.9-4.5 23.2-11.6 4.1 7 11.6 11.7 20.3 11.7 13 0 23.5-10.5 23.5-23.5 0-11.3-8.2-20.9-19-23z" fill="url(#SVGID_00000066493711890254700990000010671018032472614533_)"/><path d="m331.3 451.2c-.2-15.8-13.1-28.6-29-28.6-6 0-11.6 1.8-16.3 5-2.4-8.8-10.4-15.2-20-15.2-11.5 0-20.7 9.3-20.7 20.7 0 .9.1 1.8.2 2.7-.3 0-.7 0-1 0-16 0-29 13-29 29s13 29 29 29c6.5 0 12.5-2.1 17.3-5.7 5.3 5.8 13 9.5 21.5 9.5 9.5 0 17.9-4.5 23.2-11.6 4.1 7 11.6 11.7 20.3 11.7 13 0 23.5-10.5 23.5-23.5 0-11.3-8.2-20.9-19-23z" fill="url(#SVGID_00000063625431073118028760000016900336775851486137_)"/><circle cx="326.8" cy="474.3" fill="url(#SVGID_00000006695765261385690460000003405880100551716792_)" r="23.5"/><path d="m331.3 451.2c-1.5-.3-3-.4-4.5-.4-13 0-23.5 10.5-23.5 23.5 0 2.2.3 4.3.9 6.3-.6 0-1.2.1-1.9.1-16 0-29-13-29-29s13-29 29-29c15.8 0 28.7 12.7 29 28.5z" fill="url(#SVGID_00000043423632536689101760000007102726141556318889_)"/><path d="m273.2 451.7v.9c-2.3.8-4.7 1.3-7.3 1.3-11.4 0-20.7-9.3-20.7-20.7s9.3-20.7 20.7-20.7c9.5 0 17.6 6.5 20 15.2-7.6 5.2-12.7 14-12.7 24z" fill="url(#SVGID_00000129886078506765360310000002970239893140988852_)"/><path d="m273.4 464.9c0 16-13 29-29 29s-29-13-29-29 13-29 29-29h1c1.3 10.2 10 18 20.6 18 1.7 0 3.4-.2 5-.6 1.6 3.5 2.4 7.5 2.4 11.6z" fill="url(#SVGID_00000134966925795393710490000016788939447180121763_)"/></g><g><path d="m301.8 458.3-46.2 21.2c-5.9 2.7-12.7-1.4-13-7.9l-.1-3.6c-.4-8.5-2.6-16.9-6.6-24.4l-31.6-60.1h73.3c.4 1.1.9 2.3 1.4 3.4l27.3 59.3c2.1 4.5.1 10-4.5 12.1z" fill="url(#SVGID_00000124131266108807287660000007908362984168327050_)"/><path d="m301.8 458.3-46.2 21.2c-5.9 2.7-12.7-1.4-13-7.9l-.1-3.6c-.4-8.5-2.6-16.9-6.6-24.4l-31.6-60.1h73.3c.4 1.1.9 2.3 1.4 3.4l27.3 59.3c2.1 4.5.1 10-4.5 12.1z" fill="url(#SVGID_00000011741023686645187490000014425609755223436716_)"/><path d="m301.8 458.3-46.2 21.2c-5.9 2.7-12.7-1.4-13-7.9l-.1-3.6c-.4-8.5-2.6-16.9-6.6-24.4l-31.6-60.1h73.3c.4 1.1.9 2.3 1.4 3.4l27.3 59.3c2.1 4.5.1 10-4.5 12.1z" fill="url(#SVGID_00000047053327381039968410000016899986044685427636_)"/><path d="m410.3 383.5c-3.5 6.9-5.4 14.6-5.4 22.5v65.2c0 5.1-4.1 9.2-9.2 9.2h-50.8c-6.5 0-11-6.6-8.5-12.6l1.4-3.3c3.2-7.9 4.7-16.4 4.2-24.9l-2-37.4c-.2-3.9-1.3-7.7-3.2-11-1.7-3-4.1-5.6-6.9-7.6z" fill="url(#SVGID_00000051354152090328065020000016471243584999422395_)"/><path d="m410.3 383.5c-3.5 6.9-5.4 14.6-5.4 22.5v65.2c0 5.1-4.1 9.2-9.2 9.2h-50.8c-6.5 0-11-6.6-8.5-12.6l1.4-3.3c3.2-7.9 4.7-16.4 4.2-24.9l-2-37.4c-.2-3.9-1.3-7.7-3.2-11-1.7-3-4.1-5.6-6.9-7.6z" fill="url(#SVGID_00000027575392508875300700000011439826950966689664_)"/><path d="m410.3 383.5c-3.5 6.9-5.4 14.6-5.4 22.5v65.2c0 5.1-4.1 9.2-9.2 9.2h-50.8c-6.5 0-11-6.6-8.5-12.6l1.4-3.3c3.2-7.9 4.7-16.4 4.2-24.9l-2-37.4c-.2-3.9-1.3-7.7-3.2-11-1.7-3-4.1-5.6-6.9-7.6z" fill="url(#SVGID_00000140709732241987467730000005596057287258809268_)"/><path d="m497.7 284.7c-6-47.6-37.4-73.9-50.1-82.8-3-2.1-4-6.1-2.2-9.3 2-3.8 6.9-5 10.4-2.5 5.7 4 14.4 10.8 23.3 20.7 12.9 14.4 28.6 38.3 32.9 72.1.5 4.1-2.5 7.7-6.6 8-3.9.3-7.2-2.4-7.7-6.2z" fill="url(#SVGID_00000173162416239041386660000014100158391049422248_)"/><path d="m265.4 144.6h90.7c70.2 0 127.1 56.9 127.1 127.1 0 70.2-56.9 127.1-127.1 127.1h-90.7c-70.2 0-127.1-56.9-127.1-127.1 0-70.2 56.9-127.1 127.1-127.1z" fill="url(#SVGID_00000008141971546194817630000018115603393482087305_)"/><path d="m138.3 271.7c0 70.2 56.9 127.1 127.1 127.1h90.7c70.2 0 127.1-56.9 127.1-127.1 0-8.5-.8-16.9-2.4-24.9h-340c-1.6 8.1-2.5 16.4-2.5 24.9z" fill="url(#SVGID_00000107557143345080730030000007811937327347839393_)"/><path d="m167.9 367 4.3 81.1c.4 8.5-1 17-4.2 24.9l-1.4 3.3c-2.5 6 2 12.6 8.5 12.6h50.8c5.1 0 9.2-4.1 9.2-9.2v-65.2c0-12.7 4.9-25 13.7-34.2 13-13.5 20.2-31.5 20.2-50.3 0-23-18.6-41.6-41.6-41.6h-39.7l-18.4 66.2c-1.2 4.1-1.6 8.2-1.4 12.4z" fill="url(#SVGID_00000060709756501849054880000012805760847069680825_)"/><path d="m342.5 269v129.8h-77.1c-9.2 0-18.1-1-26.7-2.8-2.4 5.9-3.7 12.2-3.7 18.6v65.2c0 5.1-4.1 9.2-9.2 9.2h-50.8c-6.5 0-10.9-6.6-8.5-12.6l1.4-3.3c3.2-7.9 4.7-16.4 4.2-24.9l-4.3-81.1c-.2-4.1.2-8.2 1.3-12.2-9.6-11.1-17.3-24-22.7-38-5.3-14-8.2-29.2-8.2-45.1 0-44.4 22.8-83.5 57.3-106.2h43.5z" fill="url(#SVGID_00000178885892124605887100000017868523117364577193_)"/><path d="m167.9 367 4.3 81.1c.4 8.5-1 17-4.2 24.9l-1.4 3.3c-2.5 6 2 12.6 8.5 12.6h50.8c5.1 0 9.2-4.1 9.2-9.2v-65.2c0-12.7 4.9-25 13.7-34.2 13-13.5 20.2-31.5 20.2-50.3 0-23-18.6-41.6-41.6-41.6h-39.7l-18.4 66.2c-1.2 4.1-1.6 8.2-1.4 12.4z" fill="url(#SVGID_00000131345161162584413130000002277417853294056352_)"/><g><path d="m92 320.8c31.7 14.1 70.1 8.2 96.1-17.7 33.9-33.7 34-88.7.2-122.5s-88.5-33.8-122.3 0c-16.2 16.2-24.6 37.1-25.3 58.3-.5 15.7-4.1 31.2-10 45.8-7 17.4-10.7 36.1-10.7 55.1v60.1c0 39.5 32.3 73 71.7 73.2 18.7.1 36.5-6.9 50.1-19.7 2.3-2.2 2.1-6-.4-8l-6.8-5.4c-10.9-8.6-24.8-12-38.6-10.2-1.7.2-3.5.3-5.3.2-15.6-.7-27.7-14-27.7-29.7v-60.5c0-.3 0-.6 0-.8.2-14.7 15.5-24.2 29-18.2z" fill="url(#SVGID_00000132805965577003770560000013134050481694023296_)"/><path d="m43.8 356c6.8 0 13.2-1.1 19.3-3.2v-12.9c0-.3 0-.6 0-.8.1-14.7 15.4-24.2 28.9-18.2 1.8.8 3.5 1.5 5.3 2.1 4-8.1 6.3-17.1 6.3-26.8 0-33-26.8-59.8-59.8-59.8-1 0-2 0-2.9.1-.1.8-.1 1.7-.1 2.5-.5 15.7-4.1 31.2-10 45.8-7 17.4-10.7 36.1-10.7 55.1v11.2c7.2 3.1 15.2 4.9 23.7 4.9z" fill="url(#SVGID_00000142174044725653963500000006639968378197518766_)"/><path d="m20 349.9v50c0 39.5 32.3 73 71.7 73.2 18.7.1 36.5-6.9 50.1-19.7 2.3-2.2 2.1-6-.4-8l-6.8-5.4c-10.9-8.6-24.8-12-38.6-10.2-1.7.2-3.5.3-5.3.2-15.6-.7-27.7-14-27.7-29.7v-50.4z" fill="url(#SVGID_00000114770892501579103410000017313157963540505013_)"/><path d="m63.1 400.4v-50.4h-43.1v50c0 5.6.7 11 1.9 16.2h45.7c-2.9-4.7-4.5-10.1-4.5-15.8z" fill="url(#SVGID_00000027602794828976487310000003978285023183256251_)"/><path d="m78.9 255v64.5c4.2-.9 8.7-.6 13 1.3 31.7 14.1 70.1 8.2 96.1-17.7 13.6-13.5 21.8-30.5 24.5-48.2z" fill="url(#SVGID_00000134231162766651883750000012528913359503536022_)"/><path d="m78.9 238.1c7.4 0 13.4 6 13.4 13.4v6.9c0 7.4-6 13.4-13.4 13.4-7.4 0-13.4-6-13.4-13.4v-6.9c0-7.4 6-13.4 13.4-13.4z" fill="url(#SVGID_00000145777413575686056810000013691417535220974015_)"/><path d="m136.9 186.4c-9.4 16.1-14 34.5-13.7 53.1.6 34.1 6.1 116.4 45.9 116.4 30.2 0 30.3-21.8 44.4-50 14.9-29.7 47.4-32.2 47.4-82 0-68.3-63.4-97.6-106.3-59.4-7.5 6.9-13.3 14.5-17.7 21.9z" fill="url(#SVGID_00000105413796654925974030000010464754855906629269_)"/><path d="m136.9 186.4c-9.4 16.1-14 34.5-13.7 53.1.6 34.1 6.1 116.4 45.9 116.4 30.2 0 30.3-21.8 44.4-50 14.9-29.7 47.4-32.2 47.4-82 0-68.3-63.4-97.6-106.3-59.4-7.5 6.9-13.3 14.5-17.7 21.9z" fill="url(#SVGID_00000180365644595645112970000009966393643590537371_)"/><path d="m107.7 330.2c-11.4 20.5-39.8 34.2-62.7 34.2-16.7 0-32-7.3-43.4-19.1-4-4.2.6-10.8 6-8.7 6.7 2.7 14 4.2 21.5 4.2 23 0 43.1-13.7 54.5-34.2z" fill="url(#SVGID_00000150814222096290550200000009886047014948358573_)"/><path d="m107.7 330.2c-11.4 20.5-39.8 34.2-62.7 34.2-6.1 0-12-1-17.5-2.7v-20.9h1.6c23 0 43.1-13.7 54.5-34.2-.1-.1 24.1 23.6 24.1 23.6z" fill="url(#SVGID_00000145758553812669598090000003643583343528517538_)"/><path d="m72.7 305.7 13.6-13.6c9.9-9.9 25.9-9.9 35.7 0 9.9 9.9 9.9 25.9 0 35.7l-13.6 13.6c-9.9 9.9-25.9 9.9-35.7 0-9.9-9.8-9.9-25.8 0-35.7z" fill="url(#SVGID_00000006703303066354713760000008822004218324204443_)"/><path d="m72.7 305.7 13.6-13.6c9.9-9.9 25.9-9.9 35.7 0 9.9 9.9 9.9 25.9 0 35.7l-13.6 13.6c-9.9 9.9-25.9 9.9-35.7 0-9.9-9.8-9.9-25.8 0-35.7z" fill="url(#SVGID_00000141442533724478666510000005650104342814866867_)"/><circle cx="178.6" cy="237.7" fill="url(#SVGID_00000158717390742721566850000011580335064589535126_)" r="53.3"/><circle cx="160.4" cy="240.9" fill="url(#SVGID_00000158747186801584103360000003151397362355503292_)" r="39.6"/><path d="m91.7 473.2c18.7.1 36.5-6.9 50.1-19.7 2.3-2.2 2.1-6-.4-8l-6.8-5.4c-10.9-8.6-24.8-12-38.6-10.2-1.7.2-3.5.3-5.3.2-5.9-.3-11.3-2.4-15.7-5.7h-50.7c10 27.9 36.5 48.6 67.4 48.8z" fill="url(#SVGID_00000146496394780755571110000000531890913163367559_)"/><path d="m91.7 473.2c18.7.1 36.5-6.9 50.1-19.7 2.3-2.2 2.1-6-.4-8l-6.8-5.4c-10.9-8.6-24.8-12-38.6-10.2-1.7.2-3.5.3-5.3.2-5.9-.3-11.3-2.4-15.7-5.7h-50.7c10 27.9 36.5 48.6 67.4 48.8z" fill="url(#SVGID_00000125589520311653144080000017240553398872059320_)"/></g><path d="m446 292.6-7.7-4.6c-35-20.9-80.5-7.7-98.9 28.7-13.3 26.4-4.6 58.6 20.2 74.7 6.6 4.3 10.7 11.4 11.1 19.3l2 37.4c.4 8.5-1 17-4.2 24.9l-1.4 3.3c-2.5 6 2 12.6 8.5 12.6h50.8c5.1 0 9.2-4.1 9.2-9.2v-65.2c0-12.7 4.9-25 13.7-34.2 13-13.5 20.2-31.5 20.2-50.3.1-16.4-9.6-30.7-23.5-37.4z" fill="url(#SVGID_00000135674644880503300110000003960748954583227816_)"/><path d="m469.5 328.9v1.1c0 9.4-1.8 18.6-5.2 27.1s-8.5 16.4-15 23.2c-8.8 9.2-13.7 21.4-13.7 34.2v65.2c0 5.1-4.1 9.2-9.2 9.2h-50.9c-6.5 0-10.9-6.6-8.5-12.6l1.4-3.3c3.2-7.9 4.7-16.4 4.3-24.9l-.1-1.6v-300.8c62.4 8.1 110.5 61.4 110.5 126 0 20.6-4.9 40-13.6 57.2z" fill="url(#SVGID_00000181775478428340278250000004888998384467016348_)"/><path d="m235 438.7v41.1c0 5.1-4.1 9.2-9.2 9.2h-50.8c-6.5 0-10.9-6.6-8.5-12.6l1.4-3.3c3.2-7.9 4.7-16.4 4.2-24.9l-.5-9.4h63.4z" fill="url(#SVGID_00000068675013900027797150000008740892737829509052_)"/><path d="m372.6 438.7h63v41.1c0 5.1-4.1 9.2-9.2 9.2h-50.9c-6.5 0-10.9-6.6-8.5-12.6l1.4-3.3c3.2-7.9 4.7-16.4 4.3-24.9l-.1-1.6z" fill="url(#SVGID_00000081622679415727052960000008565287485766872508_)"/></g><g><path d="m95.3 470.8c-.2-11.1-9.2-20-20.3-20-4.2 0-8.2 1.3-11.4 3.5-1.7-6.2-7.3-10.7-14-10.7-8 0-14.5 6.5-14.5 14.5 0 .7 0 1.3.1 1.9-.2 0-.5 0-.7 0-11.2 0-20.4 9.1-20.4 20.4 0 11.2 9.1 20.4 20.4 20.4 4.6 0 8.8-1.5 12.2-4 3.7 4.1 9.1 6.7 15.1 6.7 6.6 0 12.5-3.2 16.3-8.1 2.9 4.9 8.2 8.2 14.3 8.2 9.1 0 16.5-7.4 16.5-16.5-.3-8.2-6.1-14.9-13.6-16.3z" fill="url(#SVGID_00000019674258857204240830000009843582591866659975_)"/><circle cx="92.1" cy="487" fill="url(#SVGID_00000179621339976914172690000008787930929959669167_)" r="16.5"/><path d="m95.3 470.8c-1-.2-2.1-.3-3.2-.3-9.1 0-16.5 7.4-16.5 16.5 0 1.5.2 3 .6 4.4-.4 0-.9 0-1.3 0-11.2 0-20.4-9.1-20.4-20.4 0-11.2 9.1-20.4 20.4-20.4 11.1.1 20.2 9.1 20.4 20.2z" fill="url(#SVGID_00000076604548101607772130000005599057368240345226_)"/><path d="m54.6 471.1v.6c-1.6.6-3.3.9-5.1.9-8 0-14.5-6.5-14.5-14.5s6.5-14.5 14.5-14.5c6.7 0 12.3 4.5 14 10.7-5.4 3.6-8.9 9.8-8.9 16.8z" fill="url(#SVGID_00000121998340202564981060000001977072054147498662_)"/><path d="m54.7 480.3c0 11.2-9.1 20.4-20.4 20.4-11.2 0-20.4-9.1-20.4-20.4 0-11.2 9.1-20.4 20.4-20.4h.7c.9 7.1 7 12.6 14.4 12.6 1.2 0 2.4-.1 3.5-.4 1.2 2.6 1.8 5.3 1.8 8.2z" fill="url(#SVGID_00000069364789005860469740000004436724679834762113_)"/></g><path d="m27.5 479.6h457c15.2 0 27.5 12.3 27.5 27.5 0 2.7-2.2 4.9-4.9 4.9h-502.2c-2.7 0-4.9-2.2-4.9-4.9 0-15.2 12.3-27.5 27.5-27.5z" fill="url(#SVGID_00000164498686807475653970000015570884091437542328_)"/><g><g><path d="m475.1 33.5c-3.8-.3-7.5.5-10.7 2.1-1.8-12.1-12.3-21.3-24.9-21.3-5.2 0-10 1.6-14 4.3-5.4-11.1-16.8-18.6-29.9-18.6-9.6 0-18.2 4.1-24.3 10.5-3.9-2.5-8.5-3.9-13.5-3.9-10.8 0-20 6.8-23.5 16.3-2.3-1.2-4.9-1.9-7.7-1.9-8.6 0-15.6 6.7-16.2 15.2-.9-.1-1.9-.2-2.9-.2-14.2 0-25.7 11.8-25.1 26.1.5 13.6 12.1 24.3 25.8 24.3h162.5c8.3 0 15.3-6.3 16.1-14.5v-.1c4.9-3.8 8.1-9.6 8.3-16.3.2-11.4-8.7-21.2-20-22z" fill="url(#SVGID_00000173863272069150780580000016330122859389745837_)"/><path d="m383 31.8c0 13.9-11.3 25.2-25.2 25.2-7.7 0-14.6-3.5-19.2-8.9 2.6-2.9 4.2-6.7 4.2-10.9 0-6.2-3.5-11.6-8.5-14.3 3.6-9.5 12.8-16.3 23.5-16.3 13.9 0 25.2 11.3 25.2 25.2z" fill="url(#SVGID_00000082342321474532491640000009576101259623548051_)"/><path d="m342.8 37.2c0 7.3-4.9 13.6-11.6 15.6-3.1-8.9-11.2-15.5-20.8-16.6.5-8.5 7.6-15.2 16.2-15.2 8.9-.1 16.2 7.2 16.2 16.2z" fill="url(#SVGID_00000134969540415714804840000010757946947029468580_)"/><path d="m452.4 54.8c0 2 .3 4 .8 5.8-3.9 2.5-8.6 4-13.6 4-13.9 0-25.2-11.3-25.2-25.2s11.3-25.2 25.2-25.2c12.6 0 23 9.2 24.9 21.3-7.2 3.5-12.1 10.8-12.1 19.3z" fill="url(#SVGID_00000103235614391171860070000015347606674680231095_)"/><path d="m414.4 39.4c0 6.3 2.3 12 6.1 16.4-6.1 6.8-15 11.1-24.9 11.1-18.5 0-33.5-15-33.5-33.5s15-33.5 33.5-33.5c13.1 0 24.5 7.5 29.9 18.5-6.6 4.6-11.1 12.3-11.1 21z" fill="url(#SVGID_00000099621468891015405050000002791537910211168670_)"/></g><g><path d="m494.8 80.4c-.2-14.3-11.9-25.8-26.2-25.8-5.5 0-10.5 1.7-14.7 4.5-2.2-7.9-9.4-13.8-18.1-13.8-10.4 0-18.7 8.4-18.7 18.7 0 .8.1 1.7.2 2.5-.3 0-.6 0-.9 0-14.5 0-26.2 11.7-26.2 26.2s11.7 26.2 26.2 26.2c5.9 0 11.3-1.9 15.7-5.2 4.8 5.3 11.7 8.6 19.4 8.6 8.6 0 16.2-4.1 21-10.4 3.7 6.3 10.5 10.6 18.4 10.6 11.7 0 21.3-9.5 21.3-21.3-.2-10.3-7.6-18.9-17.4-20.8z" fill="url(#SVGID_00000111910465963304615100000009614111111174093188_)"/><circle cx="490.7" cy="101.3" fill="url(#SVGID_00000022539758219145032680000008963346893927039642_)" r="21.3"/><path d="m494.8 80.4c-1.3-.3-2.7-.4-4.1-.4-11.7 0-21.3 9.5-21.3 21.3 0 2 .3 3.9.8 5.7-.6 0-1.1.1-1.7.1-14.5 0-26.2-11.7-26.2-26.2s11.7-26.2 26.2-26.2c14.4-.1 26.1 11.4 26.3 25.7z" fill="url(#SVGID_00000049918499178104329520000006205794089306446746_)"/><path d="m442.4 80.8v.8c-2 .8-4.3 1.2-6.6 1.2-10.4 0-18.7-8.4-18.7-18.7 0-10.4 8.4-18.7 18.7-18.7 8.6 0 15.9 5.8 18.1 13.8-7 4.6-11.5 12.6-11.5 21.6z" fill="url(#SVGID_00000063610187226660889120000009277745937164306825_)"/><path d="m442.6 92.7c0 14.5-11.7 26.2-26.2 26.2s-26.2-11.7-26.2-26.2 11.7-26.2 26.2-26.2h.9c1.2 9.2 9.1 16.3 18.6 16.3 1.6 0 3.1-.2 4.6-.6 1.3 3.3 2.1 6.8 2.1 10.5z" fill="url(#SVGID_00000038370921470742138730000000269977357722761889_)"/></g></g><g><path d="m104.7 80.4c-.2-14.3-11.9-25.8-26.2-25.8-5.5 0-10.5 1.7-14.7 4.5-2.2-7.9-9.4-13.8-18.1-13.8-10.3 0-18.7 8.4-18.7 18.8 0 .8.1 1.7.2 2.5-.3 0-.6 0-.9 0-14.6-.1-26.3 11.7-26.3 26.1 0 14.5 11.7 26.3 26.2 26.3 5.9 0 11.3-1.9 15.7-5.2 4.8 5.3 11.7 8.6 19.4 8.6 8.6 0 16.2-4.1 21-10.4 3.7 6.3 10.5 10.6 18.4 10.6 11.7 0 21.3-9.5 21.3-21.3-.1-10.4-7.5-19-17.3-20.9z" fill="url(#SVGID_00000070112918987567096800000012012054942461579450_)"/><circle cx="100.7" cy="101.3" fill="url(#SVGID_00000093170573532593964320000005057608087284670633_)" r="21.3"/><path d="m104.7 80.4c-1.3-.3-2.7-.4-4.1-.4-11.7 0-21.3 9.5-21.3 21.3 0 2 .3 3.9.8 5.7-.6 0-1.1.1-1.7.1-14.4-.1-26.1-11.8-26.1-26.3s11.7-26.2 26.2-26.2c14.4 0 26 11.5 26.2 25.8z" fill="url(#SVGID_00000057855776099538426550000018185989983286319528_)"/><path d="m52.3 80.8v.8c-2 .8-4.3 1.2-6.6 1.2-10.3 0-18.7-8.4-18.7-18.7 0-10.4 8.4-18.7 18.7-18.7 8.6 0 15.9 5.8 18.1 13.8-7 4.6-11.5 12.6-11.5 21.6z" fill="url(#SVGID_00000047771100288612042620000007673777177226908803_)"/><path d="m52.5 92.7c0 14.5-11.7 26.2-26.2 26.2-14.6.1-26.3-11.7-26.3-26.2s11.7-26.2 26.2-26.2h.9c1.2 9.2 9.1 16.3 18.6 16.3 1.6 0 3.1-.2 4.6-.6 1.4 3.3 2.2 6.8 2.2 10.5z" fill="url(#SVGID_00000016039983617647507590000002202737841249841586_)"/></g></g></svg>