<svg id="svg10" clip-rule="evenodd" fill-rule="evenodd" height="512" stroke-linejoin="round" stroke-miterlimit="2" viewBox="0 0 24 24" width="512" xmlns="http://www.w3.org/2000/svg" xmlns:xlink="http://www.w3.org/1999/xlink" xmlns:svg="http://www.w3.org/2000/svg"><linearGradient id="linearGradient850" gradientUnits="userSpaceOnUse" x1="7.971" x2="16.297" y1="18.514" y2="3.504"><stop id="stop844" offset="0" stop-color="#ff9800"/><stop id="stop846" offset="1" stop-color="#ff0"/></linearGradient><linearGradient id="linearGradient858" gradientUnits="userSpaceOnUse" x1="17.647" x2="10.832" y1="3.246" y2="11.796"><stop id="stop852" offset="0" stop-color="#fdd835"/><stop id="stop854" offset="1" stop-color="#e65100"/></linearGradient><linearGradient id="linearGradient866" gradientUnits="userSpaceOnUse" x1="10.318" x2="17.068" y1="17.068" y2="3.6"><stop id="stop860" offset="0" stop-color="#f57c00"/><stop id="stop862" offset="1" stop-color="#ffee58"/></linearGradient><path id="path2" d="m22 7c0-.796-.316-1.559-.879-2.121-.562-.563-1.325-.879-2.121-.879-3.463 0-10.537 0-14 0-.796 0-1.559.316-2.121.879-.563.562-.879 1.325-.879 2.121v9c0 .796.316 1.559.879 2.121.562.563 1.325.879 2.121.879h14c.796 0 1.559-.316 2.121-.879.563-.562.879-1.325.879-2.121 0-2.444 0-6.556 0-9z" fill="url(#linearGradient850)"/><path id="path4" d="m2.293 5.707 9 9c.39.391 1.024.391 1.414 0l9-9c-.145-.304-.342-.585-.586-.828-.562-.563-1.325-.879-2.121-.879-3.463 0-10.537 0-14 0-.796 0-1.559.316-2.121.879-.244.243-.441.524-.586.828z" fill="url(#linearGradient866)"/><path id="path6" d="m2.682 5.096 8.611 8.611c.39.391 1.024.391 1.414 0l8.611-8.611c-.061-.075-.127-.148-.197-.217-.562-.563-1.325-.879-2.121-.879-3.463 0-10.537 0-14 0-.796 0-1.559.316-2.121.879-.07.069-.136.142-.197.217z" fill="url(#linearGradient858)"/></svg>