<svg id="Capa_1" enable-background="new 0 0 510 510" height="512" viewBox="0 0 510 510" width="512" xmlns="http://www.w3.org/2000/svg" xmlns:xlink="http://www.w3.org/1999/xlink"><linearGradient id="lg1"><stop offset="0" stop-color="#ffe177"/><stop offset="1" stop-color="#fe9738"/></linearGradient><linearGradient id="SVGID_1_" gradientUnits="userSpaceOnUse" x1="382.561" x2="465.311" xlink:href="#lg1" y1="53.187" y2="135.936"/><linearGradient id="lg2"><stop offset="0" stop-color="#eef5f6"/><stop offset="1" stop-color="#cbe5e8"/></linearGradient><linearGradient id="SVGID_2_" gradientUnits="userSpaceOnUse" x1="378.653" x2="468.591" xlink:href="#lg2" y1="49.279" y2="139.216"/><linearGradient id="lg3"><stop offset="0" stop-color="#fe99a0"/><stop offset="1" stop-color="#fd4755"/></linearGradient><linearGradient id="SVGID_3_" gradientUnits="userSpaceOnUse" x1="378.655" x2="468.592" xlink:href="#lg3" y1="49.275" y2="139.213"/><linearGradient id="lg4"><stop offset="0" stop-color="#537983"/><stop offset="1" stop-color="#3e5959"/></linearGradient><linearGradient id="SVGID_4_" gradientTransform="matrix(0 1 -1 0 963.751 408.966)" gradientUnits="userSpaceOnUse" x1="-321.917" x2="-312.535" xlink:href="#lg4" y1="593.342" y2="602.724"/><linearGradient id="SVGID_5_" gradientTransform="matrix(.707 -.707 .707 .707 -390.145 1694.608)" gradientUnits="userSpaceOnUse" x1="1695.955" x2="1719.489" xlink:href="#lg4" y1="-586.055" y2="-586.055"/><linearGradient id="SVGID_6_" gradientUnits="userSpaceOnUse" x1="408.987" x2="432.521" xlink:href="#lg4" y1="54.923" y2="54.923"/><linearGradient id="SVGID_7_" gradientUnits="userSpaceOnUse" x1="414.943" x2="427.534" xlink:href="#lg1" y1="85.568" y2="98.159"/><linearGradient id="lg5"><stop offset="0" stop-color="#ffdcbd"/><stop offset="1" stop-color="#ffa9b1"/></linearGradient><linearGradient id="SVGID_8_" gradientUnits="userSpaceOnUse" x1="131.427" x2="161.356" xlink:href="#lg5" y1="153.253" y2="183.183"/><linearGradient id="SVGID_9_" gradientUnits="userSpaceOnUse" x1="340.712" x2="382.594" xlink:href="#lg5" y1="147.568" y2="189.449"/><linearGradient id="SVGID_10_" gradientUnits="userSpaceOnUse" x1="255" x2="255" xlink:href="#lg4" y1="325.513" y2="440.287"/><linearGradient id="SVGID_11_" gradientUnits="userSpaceOnUse" x1="454" x2="408" y1="376.238" y2="376.238"><stop offset="0" stop-color="#3e5959" stop-opacity="0"/><stop offset="1" stop-color="#384949"/></linearGradient><linearGradient id="SVGID_12_" gradientUnits="userSpaceOnUse" x1="220.564" x2="192.903" xlink:href="#lg3" y1="276.947" y2="321.205"/><linearGradient id="SVGID_13_" gradientUnits="userSpaceOnUse" x1="292.34" x2="315.978" xlink:href="#lg3" y1="281.628" y2="319.348"/><linearGradient id="SVGID_14_" gradientUnits="userSpaceOnUse" x1="147.363" x2="362.638" xlink:href="#lg5" y1="171.181" y2="171.181"/><linearGradient id="SVGID_15_" gradientUnits="userSpaceOnUse" x1="255" x2="255" y1="187" y2="227.749"><stop offset="0" stop-color="#ffa9b1" stop-opacity="0"/><stop offset=".9972" stop-color="#ffa78f"/></linearGradient><linearGradient id="SVGID_16_" gradientUnits="userSpaceOnUse" x1="256.069" x2="256.069" y1="533.169" y2="471.835"><stop offset="0" stop-color="#883f2e"/><stop offset="1" stop-color="#6d3326"/></linearGradient><linearGradient id="SVGID_17_" gradientUnits="userSpaceOnUse" x1="255" x2="255" y1="453.809" y2="478.766"><stop offset="0" stop-color="#ca6e59"/><stop offset="1" stop-color="#883f2e"/></linearGradient><linearGradient id="SVGID_18_" gradientUnits="userSpaceOnUse" x1="222.445" x2="298.315" xlink:href="#lg2" y1="275.251" y2="444.01"/><linearGradient id="SVGID_19_" gradientUnits="userSpaceOnUse" x1="285.36" x2="241.298" y1="379.526" y2="335.464"><stop offset="0" stop-color="#eef5f6" stop-opacity="0"/><stop offset="1" stop-color="#fff"/></linearGradient><linearGradient id="SVGID_20_" gradientUnits="userSpaceOnUse" x1="255" x2="255" y1="412.579" y2="448.972"><stop offset="0" stop-color="#cbe5e8" stop-opacity="0"/><stop offset="1" stop-color="#7ca1b1"/></linearGradient><linearGradient id="SVGID_21_" gradientUnits="userSpaceOnUse" x1="191.643" x2="222.928" xlink:href="#lg4" y1="172.848" y2="172.848"/><linearGradient id="SVGID_22_" gradientUnits="userSpaceOnUse" x1="287.072" x2="318.357" xlink:href="#lg4" y1="172.848" y2="172.848"/><linearGradient id="lg6"><stop offset="0" stop-color="#d78878"/><stop offset="1" stop-color="#ca6e59"/></linearGradient><linearGradient id="SVGID_23_" gradientUnits="userSpaceOnUse" x1="287.669" x2="349.591" xlink:href="#lg6" y1="33.021" y2="94.942"/><linearGradient id="SVGID_24_" gradientUnits="userSpaceOnUse" x1="117.048" x2="308.564" xlink:href="#lg6" y1="76.231" y2="76.231"/><linearGradient id="lg7"><stop offset="0" stop-color="#60b7ff"/><stop offset="1" stop-color="#0268b4"/></linearGradient><linearGradient id="SVGID_25_" gradientUnits="userSpaceOnUse" x1="-18.844" x2="77.156" xlink:href="#lg7" y1="152.918" y2="188.918"/><linearGradient id="SVGID_26_" gradientUnits="userSpaceOnUse" x1="6.907" x2="102.907" xlink:href="#lg7" y1="84.247" y2="120.247"/><linearGradient id="SVGID_27_" gradientUnits="userSpaceOnUse" x1="-37.671" x2="58.329" xlink:href="#lg7" y1="203.123" y2="239.123"/><g><g><g><circle cx="420.754" cy="91.379" fill="url(#SVGID_1_)" r="89.246"/><circle cx="420.754" cy="91.379" fill="url(#SVGID_2_)" r="74.334"/><path d="m495.09 91.38c0 41.05-33.279 74.329-74.338 74.329-41.05 0-74.329-33.279-74.329-74.329 0-20.525 8.324-39.112 21.771-52.567l52.559 52.567v-74.338c41.058 0 74.337 33.279 74.337 74.338z" fill="url(#SVGID_3_)"/><g fill="#3e5959"><path d="m420.754 48.107c-3.875 0-7.017-3.142-7.017-7.017v-8.771c0-3.875 3.142-7.017 7.017-7.017 3.875 0 7.017 3.142 7.017 7.017v8.771c0 3.875-3.141 7.017-7.017 7.017z"/><path d="m420.754 157.458c-3.875 0-7.017-3.142-7.017-7.017v-8.771c0-3.875 3.142-7.017 7.017-7.017 3.875 0 7.017 3.142 7.017 7.017v8.771c0 3.875-3.141 7.017-7.017 7.017z"/></g><g><path d="m464.027 91.379c0-3.875 3.142-7.017 7.017-7.017h8.771c3.875 0 7.017 3.142 7.017 7.017 0 3.875-3.142 7.017-7.017 7.017h-8.771c-3.876.001-7.017-3.141-7.017-7.017z" fill="#3e5959"/><path d="m354.676 91.379c0-3.875 3.142-7.017 7.017-7.017h8.771c3.875 0 7.017 3.142 7.017 7.017 0 3.875-3.142 7.017-7.017 7.017h-8.771c-3.875.001-7.017-3.141-7.017-7.017z" fill="url(#SVGID_4_)"/></g></g><path d="m384.785 57.285 3.411 16.653c.384 1.873 2.696 2.567 4.047 1.215l1.681-1.681 20.051 20.051c.902.902 2.365.902 3.267 0l6.614-6.614c.902-.902.902-2.365 0-3.267l-20.051-20.051 1.681-1.681c1.352-1.352.657-3.664-1.215-4.047l-16.653-3.411c-1.687-.344-3.178 1.147-2.833 2.833z" fill="url(#SVGID_5_)"/><path d="m418.752 20.378-9.363 14.187c-1.053 1.595.091 3.721 2.003 3.721h2.377v49.95c0 1.276 1.034 2.31 2.31 2.31h9.354c1.276 0 2.31-1.034 2.31-2.31v-49.95h2.377c1.911 0 3.056-2.126 2.003-3.721l-9.363-14.187c-.952-1.437-3.06-1.437-4.008 0z" fill="url(#SVGID_6_)"/><circle cx="420.754" cy="91.379" fill="url(#SVGID_7_)" r="13.579"/></g><g><path d="m120.477 169.341c0-17.598 12.215-32.342 28.63-36.217 4.388-1.036 8.582 2.357 8.582 6.865v58.703c0 4.508-4.194 7.901-8.582 6.865-16.415-3.874-28.63-18.618-28.63-36.216z" fill="url(#SVGID_8_)"/><path d="m389.523 169.341c0-17.598-12.215-32.342-28.63-36.217-4.388-1.036-8.582 2.357-8.582 6.865v58.703c0 4.508 4.194 7.901 8.582 6.865 16.415-3.874 28.63-18.618 28.63-36.216z" fill="url(#SVGID_9_)"/></g><g><path d="m454.462 447.882h-398.924v-15.825c0-84.43 68.444-152.874 152.873-152.874h93.176c84.43 0 152.873 68.444 152.873 152.874v15.825z" fill="url(#SVGID_10_)"/><path d="m386 304.593v143.289h68.462v-15.825c0-53.224-27.205-100.087-68.462-127.464z" fill="url(#SVGID_11_)"/><g><path d="m179.057 270.808s-22.129 11.064-15.088 20.117c5.179 6.659 31.581 32.363 45.183 45.494 4.51 4.353 11.665 4.279 16.097-.153l29.75-29.75z" fill="url(#SVGID_12_)"/><path d="m330.943 270.808s22.129 11.064 15.088 20.117c-5.179 6.659-31.581 32.363-45.183 45.494-4.51 4.353-11.665 4.279-16.097-.153l-29.751-29.749z" fill="url(#SVGID_13_)"/></g><g><g><g><path d="m255 306.418c-59.447 0-107.638-48.191-107.638-107.637v-55.199c0-59.447 48.191-107.637 107.637-107.637 59.447 0 107.637 48.191 107.637 107.637v55.199c.002 59.446-48.189 107.637-107.636 107.637z" fill="url(#SVGID_14_)"/><path d="m260.946 225.853h-11.893c-9.911 0-17.415-8.956-15.679-18.714l6.817-38.324h29.616l6.817 38.324c1.737 9.757-5.767 18.714-15.678 18.714z" fill="url(#SVGID_15_)"/></g></g></g><g><path d="m461.522 507.866h-410.906c-5.806 0-10.513-4.707-10.513-10.513v-25.481h431.932v25.481c0 5.806-4.707 10.513-10.513 10.513z" fill="url(#SVGID_16_)"/><path d="m486.154 478.351h-462.308c-2.972 0-5.381-2.409-5.381-5.381v-19.708c0-2.972 2.409-5.381 5.381-5.381h462.308c2.972 0 5.381 2.409 5.381 5.381v19.708c0 2.972-2.409 5.381-5.381 5.381z" fill="url(#SVGID_17_)"/></g><g><path d="m393.527 250.45h-277.054c-6.069 0-10.988 4.92-10.988 10.988v171.626c0 8.184 6.634 14.818 14.818 14.818h269.394c8.184 0 14.818-6.634 14.818-14.818v-171.625c0-6.069-4.919-10.989-10.988-10.989z" fill="url(#SVGID_18_)"/><circle cx="255" cy="349.166" fill="url(#SVGID_19_)" r="26.436"/><path d="m105.485 385.8v47.264c0 8.184 6.634 14.818 14.818 14.818h269.394c8.184 0 14.818-6.634 14.818-14.818v-47.264z" fill="url(#SVGID_20_)"/></g><g><path d="m207.285 192.502c-8.639 0-15.643-7.003-15.643-15.643v-8.022c0-8.639 7.003-15.643 15.643-15.643 8.639 0 15.643 7.003 15.643 15.643v8.022c0 8.639-7.004 15.643-15.643 15.643z" fill="url(#SVGID_21_)"/><path d="m302.715 192.502c-8.639 0-15.643-7.003-15.643-15.643v-8.022c0-8.639 7.003-15.643 15.643-15.643 8.639 0 15.643 7.003 15.643 15.643v8.022c-.001 8.639-7.004 15.643-15.643 15.643z" fill="url(#SVGID_22_)"/></g></g><g><path d="m328.971 20.96c-25.597 0-46.347 22.183-46.347 49.546 0 12.88 3.122 24.969 8.603 35.463 11.655 22.299 33.948 37.367 59.525 37.367 16.255 0 29.447-14.055 29.501-31.432.056-17.923.116-36.847.116-36.847 0-29.877-22.656-54.098-50.604-54.098h-.794z" fill="url(#SVGID_23_)"/><path d="m277.513 20.586h-112.881c-10.959 0-21.69-3.341-30.935-9.63-7.212-4.906-16.649.632-16.649 9.771v56.37c0 36.584 27.742 66.24 61.963 66.24h45.78c26.601 0 50.315-13.259 65.647-33.939 11.353-15.28 18.126-34.612 18.126-55.618 0-18.333-13.902-33.194-31.051-33.194z" fill="url(#SVGID_24_)"/></g><g><path d="m61.636 171.541c0-7.88-6.388-14.268-14.268-14.268h-33.1c-7.88 0-14.268 6.388-14.268 14.268 0 7.88 6.388 14.268 14.268 14.268h33.101c7.879-.001 14.267-6.388 14.267-14.268z" fill="url(#SVGID_25_)"/><path d="m60.514 125.536c5.572 5.572 14.606 5.572 20.177 0 5.572-5.572 5.572-14.606 0-20.177l-23.405-23.406c-5.572-5.572-14.606-5.572-20.177 0-5.572 5.572-5.572 14.606 0 20.177z" fill="url(#SVGID_26_)"/><path d="m80.692 217.545c-5.572-5.572-14.606-5.572-20.177 0l-23.406 23.406c-5.572 5.572-5.572 14.606 0 20.177 5.572 5.572 14.606 5.572 20.177 0l23.406-23.406c5.572-5.571 5.572-14.605 0-20.177z" fill="url(#SVGID_27_)"/></g></g></svg>