<svg id="Layer_1" viewBox="0 0 512 512" xmlns="http://www.w3.org/2000/svg" xmlns:xlink="http://www.w3.org/1999/xlink"><linearGradient id="linear-gradient" gradientUnits="userSpaceOnUse" x1="256" x2="256" y1="498.46" y2="396.52"><stop offset="0" stop-color="#ccc"/><stop offset="1" stop-color="#999"/></linearGradient><linearGradient id="linear-gradient-2" gradientUnits="userSpaceOnUse" x1="256" x2="256" y1="498.46" y2="130.52"><stop offset="0" stop-color="#b3b3b3"/><stop offset="1" stop-color="#e6e6e6"/></linearGradient><linearGradient id="linear-gradient-3" gradientUnits="userSpaceOnUse" x1="256" x2="256" y1="343.59" y2="112.03"><stop offset="0" stop-color="#333"/><stop offset="1" stop-color="#666"/></linearGradient><linearGradient id="linear-gradient-4" x1="256" x2="256" xlink:href="#linear-gradient" y1="198.96" y2="87.26"/><linearGradient id="linear-gradient-5" gradientUnits="userSpaceOnUse" x1="256" x2="256" y1="164.29" y2="114.03"><stop offset="0" stop-color="#f9d6af"/><stop offset="1" stop-color="#ffc38a"/></linearGradient><linearGradient id="linear-gradient-6" x1="256" x2="256" xlink:href="#linear-gradient-3" y1="154.85" y2="13.55"/><linearGradient id="linear-gradient-7" gradientUnits="userSpaceOnUse" x1="256" x2="256" y1="381.22" y2="200.96"><stop offset="0" stop-color="#d33535"/><stop offset="1" stop-color="#f75c5c"/></linearGradient><linearGradient id="linear-gradient-8" gradientUnits="userSpaceOnUse" x1="256" x2="256" y1="346.38" y2="241.76"><stop offset="0" stop-color="#f75c5c"/><stop offset="1" stop-color="#f79797"/></linearGradient><g><rect fill="url(#linear-gradient)" height="101.94" rx="12.5" width="106.91" x="202.55" y="396.52"/><path d="m468.5 173.02v206c0 23.43-19.07 42.5-42.5 42.5h-340c-23.43 0-42.5-19.07-42.5-42.5v-206c0-23.43 19.07-42.5 42.5-42.5h340c23.43 0 42.5 19.07 42.5 42.5zm-89.1 312.94c0-6.9-5.6-12.5-12.5-12.5h-221.8c-6.9 0-12.5 5.6-12.5 12.5s5.6 12.5 12.5 12.5h221.8c6.9 0 12.5-5.6 12.5-12.5z" fill="url(#linear-gradient-2)"/></g><g><path d="m417.56 277.87-10.21-72.11c-2.2-15.51-11.85-28.99-25.83-36.06l-103.89-52.54c-13.54-6.85-29.72-6.85-43.26 0l-103.89 52.54c-13.98 7.07-23.63 20.55-25.83 36.06l-10.21 72.11c-2.79 19.69 7.07 39.31 24.54 48.82l20.33 11.07c7.01 3.82 14.94 5.83 22.92 5.83h187.54c7.98 0 15.91-2.02 22.92-5.83l20.33-11.07c17.47-9.51 27.33-29.13 24.54-48.82z" fill="url(#linear-gradient-3)"/><path d="m350.71 140.9c-1.64-17.66-13.99-32.62-34.79-42.1-16.58-7.56-38.24-11.63-60.9-11.53-44.47.24-90.7 17.05-93.73 54.06-.03.34-.04.71-.04 1.05 0 .18 0 .36.01.54.06 1.31.17 2.62.34 3.88 2.41 18.04 16.02 33.02 38.34 42.18 15.88 6.52 35.48 9.99 55.95 9.99 2.75 0 5.52-.06 8.29-.19 51.27-2.34 85.25-24.39 86.57-56.17 0-.17.01-.35.01-.52v-.03c0-.39-.02-.77-.05-1.15z" fill="url(#linear-gradient-4)"/><path d="m300.97 94.2c-26.89-9.25-63.04-9.25-89.93 0-5.35 1.84-8.8 7.05-8.4 12.7l.98 14.01c.64 8.97 4.91 17.48 11.73 23.36l8.49 7.31c9.32 8.02 20.74 12.03 32.16 12.03s22.85-4.01 32.17-12.03l8.49-7.31c6.82-5.87 11.09-14.38 11.73-23.36l.99-14.01c.4-5.65-3.05-10.86-8.4-12.7z" fill="url(#linear-gradient-5)"/><path d="m328.49 65.81c-14.73-22.23-35.39-39.42-59.72-49.67-8.11-3.44-17.42-3.44-25.48-.02-50.3 21.07-83.27 71.91-82.04 126.51.15 6.65 5.48 12.02 12.13 12.21h.38c6.48 0 11.92-4.98 12.45-11.48 1.63-19.96 36.74-30.92 68.95-31.1h.81c32.62 0 67.99 10.77 69.86 30.95.61 6.61 6.3 11.57 12.91 11.34 6.63-.24 11.91-5.62 12.04-12.26.51-27.26-7.19-53.71-22.27-76.48z" fill="url(#linear-gradient-6)"/></g><g><path d="m357.22 318.76-68.15-100.29c-7.45-10.96-19.81-17.51-33.07-17.51s-25.62 6.55-33.07 17.51-68.15 100.29-68.15 100.29c-8.34 12.28-9.21 28.06-2.26 41.18s20.49 21.27 35.34 21.27h136.29c14.85 0 28.39-8.15 35.34-21.27s6.08-28.9-2.26-41.18z" fill="url(#linear-gradient-7)"/><path d="m256 307.06c-6.9 0-12.5-5.6-12.5-12.5v-40.3c0-6.9 5.6-12.5 12.5-12.5s12.5 5.6 12.5 12.5v40.3c0 6.9-5.6 12.5-12.5 12.5zm0 7.58c-8.76 0-15.87 7.1-15.87 15.87s7.1 15.87 15.87 15.87 15.87-7.1 15.87-15.87-7.1-15.87-15.87-15.87z" fill="url(#linear-gradient-8)"/></g></svg>