<svg id="Layer_3" height="512" viewBox="0 0 64 64" width="512" xmlns="http://www.w3.org/2000/svg" data-name="Layer 3"><path d="m20 18h42v40h-42z" fill="#e2e7f6"/><path d="m59 51.781v-33.781h-39v35.781h37a2 2 0 0 0 2-2z" fill="#eff2f9"/><path d="m20 18v-16h32l10 10v6z" fill="#6bc13b"/><path d="m57.831 13.007v-5.176l-5.831-5.831h-32v13.007h35.831a2 2 0 0 0 2-2z" fill="#7bdf45"/><path d="m32.72 58-20.261 4-10.459-52.977 18-3.417v52.394z" fill="#559b2d"/><path d="m52 2v10h10" fill="#559b2d"/><g fill="#f2f2f2"><path d="m48 8v-2a1 1 0 0 0 -1-1h-5a1 1 0 0 0 -1 1v4a1 1 0 0 0 1 1h4v2h-3v-1h-2v2a1 1 0 0 0 1 1h5a1 1 0 0 0 1-1v-4a1 1 0 0 0 -1-1h-4v-2h3v1z"/><path d="m31 7a2 2 0 0 1 -4 0v-2h-2v2a3.975 3.975 0 0 0 1.382 3 3.975 3.975 0 0 0 -1.382 3v2h2v-2a2 2 0 0 1 4 0v2h2v-2a3.975 3.975 0 0 0 -1.382-3 3.975 3.975 0 0 0 1.382-3v-2h-2z"/><path d="m36 5h-2v9a1 1 0 0 0 1 1h5v-2h-4z"/></g><path d="m56 24h-30a1 1 0 0 0 -1 1v26a1 1 0 0 0 1 1h30a1 1 0 0 0 1-1v-26a1 1 0 0 0 -1-1zm-1 6h-4v-4h4zm-16 12v-2h4v2zm4 2v2h-4v-2zm0-8v2h-4v-2zm-4-2v-2h4v2zm-2 4h-4v-2h4zm0 2v2h-4v-2zm8 0h4v2h-4zm0-2v-2h4v2zm0-4v-2h4v2zm0-4v-4h4v4zm-2 0h-4v-4h4zm-6 0h-4v-4h4zm0 2v2h-4v-2zm-6 2h-4v-2h4zm0 2v2h-4v-2zm0 4v2h-4v-2zm0 4v2h-4v-2zm2 0h4v2h-4zm4 4v2h-4v-2zm2 0h4v2h-4zm6 0h4v2h-4zm0-2v-2h4v2zm6-2h4v2h-4zm0-2v-2h4v2zm0-4v-2h4v2zm0-4v-2h4v2zm-20-8v4h-4v-4zm-4 22h4v2h-4zm24 2v-2h4v2z" fill="#6bc13b"/></svg>