<svg id="Layer_1" enable-background="new 0 0 68 68" viewBox="0 0 68 68" xmlns="http://www.w3.org/2000/svg"><g><g><path d="m59.09 60.45h-50.18c-4.61 0-7.43-5.04-5.03-8.97l25.1-41.11c2.3-3.77 7.77-3.77 10.07 0l25.09 41.11c2.39 3.93-.44 8.97-5.05 8.97z" fill="#ffd542"/></g><g opacity=".1"><path d="m59.09 60.45h-50.18c-4.28 0-7.03-4.34-5.47-8.11.85 2.1 2.88 3.69 5.47 3.69h50.18c2.59 0 4.62-1.6 5.47-3.7 1.55 3.77-1.19 8.12-5.47 8.12z" fill="#070707"/></g><g><path d="m12.9 52.4c-.3 0-.53-.13-.67-.39-.15-.26-.14-.52.01-.78l21.53-35.26c.15-.25.37-.37.66-.37s.51.12.66.37l21.52 35.26c.16.26.16.52.01.78s-.37.39-.67.39z" fill="#fff"/></g><g opacity=".1"><path d="m56.62 52c-.15.26-.37.4-.67.4h-43.05c-.3 0-.53-.14-.67-.4-.15-.26-.14-.52.01-.78l.76-1.25h38.16c.3 0 .53-.13.67-.39.15-.26.14-.53-.01-.78l-19.05-31.21 1-1.63c.15-.24.37-.37.66-.37s.51.13.66.37l21.51 35.26c.16.26.17.52.02.78z" fill="#070707"/></g><g><g><path d="m36.77 30.27-1.07 8.69c-.11.86-.84 1.51-1.7 1.51-.87 0-1.6-.65-1.7-1.51l-1.07-8.69c-.13-1.02.67-1.92 1.7-1.92h2.13c1.04 0 1.83.9 1.71 1.92z" fill="#f34c6e"/></g><g><circle cx="34" cy="45.81" fill="#f34c6e" r="1.91"/></g></g></g></svg>