<svg id="Icons" viewBox="0 0 60 60" xmlns="http://www.w3.org/2000/svg"><path d="m8 20v-2.829a16.086 16.086 0 0 1 16-16.171 16.086 16.086 0 0 1 16 16.171v2.829l-1 2h-30z" fill="#593b2c"/><path d="m34 43h1a11.948 11.948 0 0 1 7.97 3.02l4.03 2.98v9a1 1 0 0 1 -1 1h-44a1 1 0 0 1 -1-1v-3a12 12 0 0 1 12-12z" fill="#4c4c4c"/><path d="m34 43s0 13-6 16h-8c-6-2-6-16-6-16z" fill="#fff"/><path d="m30 37.032v7.968h-12v-8z" fill="#8c593c"/><path d="m19.57 47.57 2.43 2.43h4l2.43-2.43.57-2.57h-10z" fill="#ec3a48"/><path d="m28 59-2-9h-4l-2 9z" fill="#d92936"/><path d="m40 20c0 2.43 0 3.83-.94 5.73a3.348 3.348 0 0 1 -2.17 1.8.968.968 0 0 0 -.68.88 12.291 12.291 0 0 1 -12.21 11.59 12.15 12.15 0 0 1 -8.65-3.62 12.411 12.411 0 0 1 -3.56-7.97.968.968 0 0 0 -.68-.88 3.348 3.348 0 0 1 -2.17-1.8c-.94-1.9-.94-3.3-.94-5.73a1.842 1.842 0 0 1 2.48-1.79c1.48.53 1.52 2.67 1.52 2.87v-4.89a1.9 1.9 0 0 1 1.8-1.91c3.39-.15 10.4-1.44 14.2-3.99a1.881 1.881 0 0 1 1.52-.22c2.02.5 6.48 2.88 6.48 8.08v2.93c0-.2.04-2.34 1.52-2.87a1.842 1.842 0 0 1 2.48 1.79z" fill="#a0694b"/><path d="m24 45a5.276 5.276 0 0 0 -5 4s-5-2-5-6c1-2 4-2 4-2s1 3 6 4z" fill="#f0f2f5"/><path d="m24 45a5.276 5.276 0 0 1 5 4s5-2 5-6c-1-2-4-2-4-2s-1 3-6 4z" fill="#f0f2f5"/><path d="m52.93 39.05a.842.842 0 0 1 .07.35v9.6h-10v-9.6a.842.842 0 0 1 .07-.35z" fill="#25a3da"/><path d="m52.93 39.05-4.42 2.8a.942.942 0 0 1 -1.02 0l-4.42-2.8a.953.953 0 0 1 .42-.51l4-2.4a.984.984 0 0 1 1.02 0l4 2.4a.953.953 0 0 1 .42.51z" fill="#2bb6e8"/><path d="m48 49 1 4-1 3.17-4.49 2.69a.984.984 0 0 1 -1.02 0l-4-2.4a.99.99 0 0 1 -.49-.86v-6.03a.922.922 0 0 1 .13-.49z" fill="#31b791"/><path d="m48 49-4.49 2.85a.942.942 0 0 1 -1.02 0l-4.36-2.77a.914.914 0 0 1 .36-.37l4.51-2.71z" fill="#37cba1"/><path d="m57.87 49.08a.922.922 0 0 1 .13.49v6.03a.99.99 0 0 1 -.49.86l-4 2.4a.984.984 0 0 1 -1.02 0l-4.49-2.69v-7.17z" fill="#866adc"/><path d="m57.87 49.08-4.36 2.77a.942.942 0 0 1 -1.02 0l-4.49-2.85 5-3 4.51 2.71a.914.914 0 0 1 .36.37z" fill="#9e82ec"/><path d="m43.51 51.85.49-.31v2.46a1 1 0 0 1 -2 0v-2.46l.49.31a.942.942 0 0 0 1.02 0z" fill="#299b78"/><path d="m54 51.54v2.46a1 1 0 0 1 -2 0v-2.46l.49.31a.942.942 0 0 0 1.02 0z" fill="#6d5bbc"/><path d="m49 41.54v2.46a1 1 0 0 1 -2 0v-2.46l.49.31a.942.942 0 0 0 1.02 0z" fill="#1c7da0"/></svg>