<svg id="Layer_1" enable-background="new 0 0 512 512" viewBox="0 0 512 512" xmlns="http://www.w3.org/2000/svg"><g><path d="m166.845 358.719v-319.992c-91.225 35.656-155.845 124.418-155.845 228.273 0 69.488 28.929 132.22 75.4 176.808 2.156 2.069 5.963-7.989 8.194-6 10.423 9.297 21.645 17.716 33.551 25.141 2.943 1.836 4.315 15.698 7.34 17.41 12.947 7.329 26.628 13.513 40.904 18.416 2.808.964 5.613-5.15 8.466-4.286 10.44 3.162 21.175 5.646 32.153 7.4 2.689.43 5.419 7.845 8.136 8.186 10.108 1.271 20.405 1.925 30.856 1.925 99.179 0 184.594-58.932 223.138-143.689.479-1.053-8.842-2.111-8.377-3.172.93-2.124 1.83-4.265 2.701-6.42z" fill="#49b6fc"/><path d="m490.021 294.051h-261.4l-.983-260.285c-5.018.558-9.991 1.268-14.913 2.124-1.282.223-1.578-9.797-2.853-9.554-19.413 3.699-38.014 9.688-55.51 17.676v324.299h324.776c7.958-17.5 13.918-36.1 17.589-55.51.388-2.052-8.751-4.114-8.415-6.184.675-4.155 1.246-8.344 1.709-12.566z" fill="#00a4fb"/><path d="m256 22c-13.88 0-27.49 1.154-40.739 3.372-1.803.302-11.365 1.883-13.154 2.224l7.766 8.851v276.354h286.854c2.805-14.838 4.273-30.148 4.273-45.801 0-135.31-109.69-245-245-245z" fill="#0055ca"/><path d="m155.141 359.957h-60.56c-4.518 0-8.181 3.663-8.181 8.181v75.67c14.722 14.125 31.204 26.43 49.085 36.551v-34.987c0-2.761 2.239-5 5-5h14.656c4.518 0 8.181-3.663 8.181-8.181v-64.053c0-4.518-3.663-8.181-8.181-8.181z" fill="#00429c"/><path d="m210.257 218.876c-9.623 4.997-13.459 16.684-8.568 26.103l34.532 66.496c4.891 9.419 16.658 13.002 26.281 8.005s13.46-16.683 8.568-26.103l-34.532-66.496c-4.891-9.419-16.658-13.003-26.281-8.005z" fill="#f6a96c"/><path d="m240.42 292.353c-6.538 8.65-4.976 20.851 3.49 27.25l76.824 58.07c8.467 6.4 20.631 4.574 27.169-4.075s4.977-20.85-3.49-27.25l-76.824-58.07c-8.466-6.4-20.631-4.575-27.169 4.075z" fill="#f6a96c"/><path d="m67.559 229.086c-10.843 0-19.634 8.603-19.634 19.216v63.738c0 10.614 8.791 19.216 19.634 19.216s19.634-8.603 19.634-19.216v-63.738c0-10.613-8.791-19.216-19.634-19.216z" fill="#f6a96c"/><path d="m93.006 153.846c-21.05-2.903-40.469 11.808-43.372 32.858l-10.626 77.039c-.617 4.476 2.511 8.605 6.986 9.222l42.239 5.826c4.476.617 8.605-2.511 9.222-6.986l13.078-94.822c1.55-11.23-6.298-21.589-17.527-23.137z" fill="#c5d3dd"/><path d="m218.204 153.846c21.05-2.903 40.469 11.808 43.372 32.858l10.625 77.039c.617 4.476-2.511 8.605-6.986 9.222l-42.239 5.826c-4.476.617-8.605-2.511-9.222-6.986l-13.078-94.822c-1.549-11.23 6.299-21.589 17.528-23.137z" fill="#c5d3dd"/><path d="m217.294 359.957h-72.774c-4.518 0-8.181 3.663-8.181 8.181v55.872c0 9.036 7.325 16.362 16.362 16.362h18.689c2.761 0 5 2.239 5 5v53.403c15.702 5.392 32.125 9.234 49.085 11.342v-141.979c0-4.518-3.663-8.181-8.181-8.181z" fill="#0055ca"/><path d="m225.475 368.311v-214.831l-30.601-5.739c-12.839-2.408-25.874-3.62-38.936-3.62h-.205c-2.944.003-8.254.17-8.254.17-3.445.138-6.885.361-10.317.667-3.779.337-6.671 3.521-6.671 7.315v211.127l5.848 4.911z" fill="#fff"/><path d="m136.339 145.034c-6.479.604-12.93 1.506-19.333 2.707l-30.606 5.739v214.831h49.938v-223.277z" fill="#d9e7ec"/><path d="m176.131 3.469c-6.313-2.246-13.11-3.469-20.193-3.469-33.263 0-60.229 26.965-60.229 60.229v18.872c0 26.386 16.975 48.794 40.595 56.938v20.476c0 10.844 8.79 19.634 19.634 19.634s19.634-8.79 19.634-19.634v-20.468c.185-.064.375-.12.559-.186 1.117-.398 1.117-131.995 0-132.392z" fill="#f6a96c"/><path d="m176.13 3.469c-23.222 8.182-39.827 29.931-39.827 55.478v21.435c0 25.547 16.605 47.296 39.827 55.478 23.331-8.301 40.036-30.579 40.036-56.759v-18.872c0-26.181-16.704-48.459-40.036-56.76z" fill="#ffbd86"/><path d="m322.66 380.546-17.55-13.266 39.207-60.99 96.902-119.684c3.86-4.767 10.804-5.615 15.697-1.916 4.893 3.699 5.972 10.611 2.438 15.624l-88.712 125.875z" fill="#ca6d36"/><path d="m304.652 388.615-2.393-1.809c-6.609-4.995-7.916-14.402-2.921-21.011l44.979-59.505 26.325 19.899-44.979 59.505c-4.996 6.608-14.403 7.916-21.011 2.921z" fill="#914d24"/><path d="m323.244 389.343c8.65 6.538 20.851 4.976 27.25-3.49l9.906-13.105c6.4-8.466 4.574-20.631-4.075-27.169-8.65-6.538-20.851-4.976-27.25 3.49l-9.906 13.105c-6.4 8.466-4.575 20.631 4.075 27.169z" fill="#ffbd86"/><path d="m215.197 202.86c0-2.007-2.627-2.763-3.694-1.063l-17.2 27.4-41.34-30.895c-1.319-.986-3.197-.044-3.197 1.602v122.875l42.069 24.497v4.5l2.468-3.063 5.26 3.063v-9.593l15.633-19.405v-119.918z" fill="#c5d3dd"/><g fill="#0077f0"><path d="m370 115h-82.5c-4.142 0-7.5-3.358-7.5-7.5 0-4.142 3.358-7.5 7.5-7.5h82.5c4.142 0 7.5 3.358 7.5 7.5 0 4.142-3.358 7.5-7.5 7.5z"/><path d="m326.25 187.5h-38.75c-4.142 0-7.5-3.358-7.5-7.5 0-4.142 3.358-7.5 7.5-7.5h38.75c4.142 0 7.5 3.358 7.5 7.5 0 4.142-3.358 7.5-7.5 7.5z"/><path d="m356.25 217.5h-68.75c-4.142 0-7.5-3.358-7.5-7.5 0-4.142 3.358-7.5 7.5-7.5h68.75c4.142 0 7.5 3.358 7.5 7.5 0 4.142-3.358 7.5-7.5 7.5z"/><path d="m396.25 187.5h-38.75c-4.142 0-7.5-3.358-7.5-7.5 0-4.142 3.358-7.5 7.5-7.5h38.75c4.142 0 7.5 3.358 7.5 7.5 0 4.142-3.358 7.5-7.5 7.5z"/><path d="m406.25 142.5h-118.75c-4.142 0-7.5-3.358-7.5-7.5 0-4.142 3.358-7.5 7.5-7.5h118.75c4.142 0 7.5 3.358 7.5 7.5 0 4.142-3.358 7.5-7.5 7.5z"/></g><path d="m250.811 211.426-55.811 27.571-65.688-27.82c-1.319-.558-2.78.41-2.78 1.842v109.759l68.468 28.997 58.696-28.997v-109.559c0-1.483-1.556-2.45-2.885-1.793z" fill="#9facba"/><path d="m268.8 230.074-73.8 8.923-73.8-8.923c-5.955-.72-11.2 3.929-11.2 9.928v92.632c0 5.059 3.778 9.32 8.8 9.928l76.2 9.214 76.2-9.214c5.022-.607 8.8-4.869 8.8-9.928v-92.632c0-5.999-5.245-10.648-11.2-9.928z" fill="#ff4343"/><path d="m200.938 358.719h-11.875c-5.523 0-10-4.477-10-10v-107.777c0-5.523 4.477-10 10-10h11.875c5.523 0 10 4.477 10 10v107.778c0 5.522-4.478 9.999-10 9.999z" fill="#ff5757"/><path d="m47.925 311.623c0-10.843 8.603-19.634 19.216-19.634h114.124c10.614 0 19.216 8.791 19.216 19.634s-8.603 19.634-19.216 19.634h-114.124c-10.613 0-19.216-8.792-19.216-19.634z" fill="#f6a96c"/><path d="m197.413 291.989h-2.868c.65-2.681-.071-5.627-2.165-7.72-3.195-3.195-8.375-3.195-11.569 0 0 0-12.102 12.142-12.332 12.449-4.107 3.601-6.709 8.943-6.709 14.906 0 10.843 8.603 19.634 19.216 19.634h16.427c10.613 0 19.216-8.791 19.216-19.634s-8.603-19.635-19.216-19.635z" fill="#ffbd86"/></g><g/><g/><g/><g/><g/><g/><g/><g/><g/><g/><g/><g/><g/><g/><g/></svg>