<svg id="_15_Exploration" enable-background="new 0 0 512 512" viewBox="0 0 512 512" xmlns="http://www.w3.org/2000/svg" xmlns:xlink="http://www.w3.org/1999/xlink"><linearGradient id="lg1"><stop offset="0" stop-color="#e5e1e5"/><stop offset=".198" stop-color="#e1dce1"/><stop offset=".4032" stop-color="#d5d0d5"/><stop offset=".6118" stop-color="#c2bbc1"/><stop offset=".8212" stop-color="#a79ea6"/><stop offset="1" stop-color="#8b8089"/></linearGradient><linearGradient id="SVGID_1_" gradientTransform="matrix(1 0 0 -1 0 514)" gradientUnits="userSpaceOnUse" x1="289.798" x2="410.016" xlink:href="#lg1" y1="495.78" y2="375.562"/><linearGradient id="SVGID_00000106837473927955599100000016029440763135292831_" gradientTransform="matrix(.871 -.492 -.492 -.871 119.555 -60.668)" gradientUnits="userSpaceOnUse" x1="127.711" x2="107.897" xlink:href="#lg1" y1="-194.057" y2="-144.108"/><linearGradient id="SVGID_00000062899441680687575390000015585144332408860330_" gradientTransform="matrix(.871 -.492 -.492 -.871 119.555 -60.668)" gradientUnits="userSpaceOnUse" x1="164.372" x2="149.727" xlink:href="#lg1" y1="-201.223" y2="-164.304"/><linearGradient id="SVGID_00000083777144617756022690000001792833404502419603_" gradientTransform="matrix(.871 -.492 -.492 -.871 119.555 -60.668)" gradientUnits="userSpaceOnUse" x1="93.585" x2="83.247" xlink:href="#lg1" y1="-204.061" y2="-178.001"/><linearGradient id="SVGID_00000133490337119793899510000010353321871517384326_" gradientTransform="matrix(.871 -.492 -.492 -.871 119.555 -60.668)" gradientUnits="userSpaceOnUse" x1="159.025" x2="135.082" xlink:href="#lg1" y1="-337.121" y2="-279.741"/><linearGradient id="SVGID_00000015317448576036328290000016159150129272184199_" gradientTransform="matrix(.871 -.492 -.492 -.871 119.557 -60.669)" gradientUnits="userSpaceOnUse" x1="190.087" x2="166.145" xlink:href="#lg1" y1="-324.159" y2="-266.78"/><linearGradient id="lg2"><stop offset="0" stop-color="#444" stop-opacity="0"/><stop offset=".2378" stop-color="#444" stop-opacity=".061"/><stop offset=".4841" stop-color="#444" stop-opacity=".244"/><stop offset=".7343" stop-color="#444" stop-opacity=".549"/><stop offset=".9859" stop-color="#444" stop-opacity=".973"/><stop offset="1" stop-color="#444"/></linearGradient><linearGradient id="SVGID_00000169524962178617719660000013638750037521551269_" gradientTransform="matrix(1 0 0 -1 0 514)" gradientUnits="userSpaceOnUse" x1="349.752" x2="349.752" xlink:href="#lg2" y1="420.171" y2="322.839"/><linearGradient id="SVGID_00000009588342149498533710000014507126035269186226_" gradientTransform="matrix(1 0 0 -1 0 514)" gradientUnits="userSpaceOnUse" x1="364.822" x2="467.741" xlink:href="#lg2" y1="432.758" y2="411.802"/><linearGradient id="SVGID_00000181076155784911663090000010182957334376148132_" gradientTransform="matrix(1 0 0 -1 0 514)" gradientUnits="userSpaceOnUse" x1="353.599" x2="435.583" xlink:href="#lg2" y1="431.979" y2="349.995"/><linearGradient id="SVGID_00000063602362922656052470000003596253999356777898_" gradientTransform="matrix(1 0 0 -1 0 514)" gradientUnits="userSpaceOnUse" x1="372.537" x2="413.837" y1="413.041" y2="371.741"><stop offset="0" stop-color="#e5e1e5" stop-opacity="0"/><stop offset=".1273" stop-color="#e5e1e5" stop-opacity=".018"/><stop offset=".2593" stop-color="#e5e1e5" stop-opacity=".073"/><stop offset=".3935" stop-color="#e5e1e5" stop-opacity=".163"/><stop offset=".5292" stop-color="#e5e1e5" stop-opacity=".29"/><stop offset=".6661" stop-color="#e5e1e5" stop-opacity=".454"/><stop offset=".804" stop-color="#e5e1e5" stop-opacity=".655"/><stop offset=".9402" stop-color="#e5e1e5" stop-opacity=".887"/><stop offset="1" stop-color="#e5e1e5"/></linearGradient><linearGradient id="SVGID_00000038373172012256137450000010721772720295967623_" gradientTransform="matrix(1 0 0 -1 0 514)" gradientUnits="userSpaceOnUse" x1="381.431" x2="327.35" xlink:href="#lg2" y1="474.507" y2="408.471"/><linearGradient id="SVGID_00000039103289909207571940000002394626265506457019_" gradientTransform="matrix(1 0 0 -1 0 514)" gradientUnits="userSpaceOnUse" x1="52.372" x2="349.656" y1="454.312" y2="157.028"><stop offset="0" stop-color="#d1f19e"/><stop offset=".1338" stop-color="#ccee9f"/><stop offset=".2724" stop-color="#c0e6a5"/><stop offset=".4134" stop-color="#abdaae"/><stop offset=".5559" stop-color="#8ec8bb"/><stop offset=".6997" stop-color="#69b1cc"/><stop offset=".8446" stop-color="#3b95e0"/><stop offset=".9878" stop-color="#0574f8"/><stop offset="1" stop-color="#0172fb"/></linearGradient><linearGradient id="lg3"><stop offset="0" stop-color="#017b4e" stop-opacity="0"/><stop offset=".1753" stop-color="#017b4e" stop-opacity=".034"/><stop offset=".3569" stop-color="#017b4e" stop-opacity=".135"/><stop offset=".5415" stop-color="#017b4e" stop-opacity=".304"/><stop offset=".7281" stop-color="#017b4e" stop-opacity=".54"/><stop offset=".9146" stop-color="#017b4e" stop-opacity=".841"/><stop offset="1" stop-color="#017b4e"/></linearGradient><linearGradient id="SVGID_00000057845422276088435810000012810973683414380677_" gradientTransform="matrix(1 0 0 -1 0 514)" gradientUnits="userSpaceOnUse" x1="48.179" x2="542.598" xlink:href="#lg3" y1="502.571" y2="33.769"/><linearGradient id="SVGID_00000160181410993448264250000001085722985763973528_" gradientTransform="matrix(1 0 0 -1 0 514)" gradientUnits="userSpaceOnUse" x1="-61.987" x2="432.432" xlink:href="#lg3" y1="386.385" y2="-82.416"/><linearGradient id="SVGID_00000121245547199258926600000000091141924281320324_" gradientTransform="matrix(1 0 0 -1 0 514)" gradientUnits="userSpaceOnUse" x1="10.178" x2="504.596" xlink:href="#lg3" y1="462.492" y2="-6.309"/><linearGradient id="SVGID_00000127763522895144593970000013863635691679001245_" gradientTransform="matrix(1 0 0 -1 0 514)" gradientUnits="userSpaceOnUse" x1="200.631" x2="200.631" xlink:href="#lg3" y1="267.341" y2="26.652"/><linearGradient id="SVGID_00000106137767893613064990000007719060776975528593_" gradientTransform="matrix(1 0 0 -1 0 514)" gradientUnits="userSpaceOnUse" x1="237.897" x2="492.403" xlink:href="#lg3" y1="298.468" y2="246.646"/><linearGradient id="SVGID_00000025412276891822351460000005193941371290481803_" gradientTransform="matrix(1 0 0 -1 0 514)" gradientUnits="userSpaceOnUse" x1="210.143" x2="412.879" xlink:href="#lg3" y1="296.542" y2="93.805"/><linearGradient id="lg4"><stop offset="0" stop-color="#fff" stop-opacity="0"/><stop offset=".1205" stop-color="#fff" stop-opacity=".016"/><stop offset=".2454" stop-color="#fff" stop-opacity=".065"/><stop offset=".3724" stop-color="#fff" stop-opacity=".147"/><stop offset=".5008" stop-color="#fff" stop-opacity=".261"/><stop offset=".6304" stop-color="#fff" stop-opacity=".408"/><stop offset=".761" stop-color="#fff" stop-opacity=".588"/><stop offset=".8898" stop-color="#fff" stop-opacity=".797"/><stop offset="1" stop-color="#fff"/></linearGradient><linearGradient id="SVGID_00000179647528848652985670000005582641286857757088_" gradientTransform="matrix(1 0 0 -1 0 514)" gradientUnits="userSpaceOnUse" x1="345.649" x2="185.112" xlink:href="#lg4" y1="223.065" y2="209.402"/><linearGradient id="SVGID_00000140005300697502285300000006755702238172703146_" gradientTransform="matrix(1 0 0 -1 0 514)" gradientUnits="userSpaceOnUse" x1="327.017" x2="242.48" xlink:href="#lg4" y1="125.954" y2="328.333"/><linearGradient id="SVGID_00000021119936946423984440000001654922843481217437_" gradientTransform="matrix(1 0 0 -1 0 514)" gradientUnits="userSpaceOnUse" x1="390.755" x2="368.642" y1="138.344" y2="116.231"><stop offset="0" stop-color="#fef48b"/><stop offset=".1646" stop-color="#fdf286"/><stop offset=".3352" stop-color="#fdee7a"/><stop offset=".5086" stop-color="#fce765"/><stop offset=".6839" stop-color="#fcde48"/><stop offset=".8589" stop-color="#fbd123"/><stop offset="1" stop-color="#fac600"/></linearGradient><linearGradient id="SVGID_00000144319487019151388360000005354472418373383093_" gradientTransform="matrix(1 0 0 -1 0 514)" gradientUnits="userSpaceOnUse" x1="385.591" x2="372.293" y1="121.094" y2="134.391"><stop offset="0" stop-color="#fe9738" stop-opacity="0"/><stop offset=".1207" stop-color="#fe9738" stop-opacity=".016"/><stop offset=".2459" stop-color="#fe9738" stop-opacity=".065"/><stop offset=".3731" stop-color="#fe9738" stop-opacity=".147"/><stop offset=".5018" stop-color="#fe9738" stop-opacity=".262"/><stop offset=".6317" stop-color="#fe9738" stop-opacity=".41"/><stop offset=".7625" stop-color="#fe9738" stop-opacity=".59"/><stop offset=".8916" stop-color="#fe9738" stop-opacity=".8"/><stop offset="1" stop-color="#fe9738"/></linearGradient><linearGradient id="lg5"><stop offset="0" stop-color="#9857bd"/><stop offset=".192" stop-color="#9356bd"/><stop offset=".391" stop-color="#8755be"/><stop offset=".5932" stop-color="#7253c1"/><stop offset=".7966" stop-color="#5550c4"/><stop offset="1" stop-color="#314dc9"/></linearGradient><linearGradient id="SVGID_00000173846774904456721330000014094272027707963538_" gradientTransform="matrix(1 0 0 -1 0 514)" gradientUnits="userSpaceOnUse" x1="195.974" x2="381.472" xlink:href="#lg5" y1="310.71" y2="125.212"/><linearGradient id="SVGID_00000134972317261207130700000006477578889806990773_" gradientTransform="matrix(1 0 0 -1 0 514)" gradientUnits="userSpaceOnUse" x1="370.5" x2="186.169" xlink:href="#lg5" y1="136.184" y2="320.515"/><linearGradient id="lg6"><stop offset="0" stop-color="#814aa0" stop-opacity="0"/><stop offset=".1738" stop-color="#7d489e" stop-opacity=".033"/><stop offset=".354" stop-color="#73459b" stop-opacity=".133"/><stop offset=".537" stop-color="#614095" stop-opacity=".299"/><stop offset=".7221" stop-color="#49398d" stop-opacity=".531"/><stop offset=".907" stop-color="#2a2f83" stop-opacity=".827"/><stop offset="1" stop-color="#192a7d"/></linearGradient><linearGradient id="SVGID_00000090272849417634777140000010181241769177792142_" gradientTransform="matrix(1 0 0 -1 0 514)" gradientUnits="userSpaceOnUse" x1="288.482" x2="288.482" xlink:href="#lg6" y1="194.046" y2="43.864"/><linearGradient id="SVGID_00000074399491890438221860000008516330261336911291_" gradientTransform="matrix(1 0 0 -1 0 514)" gradientUnits="userSpaceOnUse" x1="311.734" x2="470.542" xlink:href="#lg6" y1="213.47" y2="181.133"/><linearGradient id="SVGID_00000160162458686743656330000015027583804235359676_" gradientTransform="matrix(1.165 -.165 .165 -1.165 -99.822 613.822)" gradientUnits="userSpaceOnUse" x1="463.192" x2="425.512" y1="107.208" y2="69.527"><stop offset="0" stop-color="#7b7179"/><stop offset=".2651" stop-color="#766d74"/><stop offset=".5398" stop-color="#6a6369"/><stop offset=".8179" stop-color="#555255"/><stop offset="1" stop-color="#444"/></linearGradient><linearGradient id="lg7"><stop offset="0" stop-color="#444" stop-opacity="0"/><stop offset=".3899" stop-color="#3d3d3d" stop-opacity=".16"/><stop offset=".7931" stop-color="#292929" stop-opacity=".637"/><stop offset="1" stop-color="#1a1a1a"/></linearGradient><linearGradient id="SVGID_00000020399830153192058140000000846071337954051722_" gradientTransform="matrix(1 0 0 -1 0 514)" gradientUnits="userSpaceOnUse" x1="464.899" x2="485.677" xlink:href="#lg7" y1="41.786" y2="21.008"/><linearGradient id="SVGID_00000003065750469661309990000017312335984715271298_" gradientTransform="matrix(1 0 0 -1 0 514)" gradientUnits="userSpaceOnUse" x1="469.255" x2="356.52" xlink:href="#lg7" y1="167.581" y2="54.846"/><g><g><g><circle cx="349.8" cy="78.2" fill="url(#SVGID_1_)" r="78.2"/><g><g><path d="m306.5 22.8c9.6-5.4 20.6-4.2 24.5 2.7s-.7 16.9-10.3 22.3-20.6 4.2-24.5-2.7.7-16.8 10.3-22.3z" fill="url(#SVGID_00000106837473927955599100000016029440763135292831_)"/><path d="m347.1 17c7.1-4 15.2-3.1 18.1 2s-.5 12.5-7.6 16.5-15.2 3.1-18.1-2 .5-12.5 7.6-16.5z" fill="url(#SVGID_00000062899441680687575390000015585144332408860330_)"/><path d="m291.1 59.2c5-2.8 10.7-2.2 12.8 1.4 2 3.6-.4 8.8-5.4 11.7s-10.7 2.2-12.8-1.4c-2-3.7.4-8.9 5.4-11.7z" fill="url(#SVGID_00000083777144617756022690000001792833404502419603_)"/></g><g><path d="m379.2 114.5c7.5-4.2 16.1-3.3 19.1 2.1s-.6 13.2-8.1 17.5c-7.5 4.2-16.1 3.3-19.1-2.1s.6-13.2 8.1-17.5z" fill="url(#SVGID_00000133490337119793899510000010353321871517384326_)"/><path d="m399.3 89.2c5.2-2.9 11.2-2.3 13.3 1.5s-.4 9.2-5.6 12.1-11.2 2.3-13.3-1.5c-2.1-3.7.4-9.1 5.6-12.1z" fill="url(#SVGID_00000015317448576036328290000016159150129272184199_)"/></g></g><path d="m271.6 78.2c0 43.2 35 78.2 78.2 78.2s78.2-35 78.2-78.2c0-7.8-1.1-15.3-3.3-22.4h-149.9c-2.1 7.1-3.2 14.6-3.2 22.4z" fill="url(#SVGID_00000169524962178617719660000013638750037521551269_)"/><path d="m349.8 0c-8.9 0-17.5 1.5-25.5 4.2v147.8c8 2.8 16.6 4.2 25.5 4.2 43.2 0 78.2-35 78.2-78.2s-35.1-78-78.2-78z" fill="url(#SVGID_00000009588342149498533710000014507126035269186226_)"/><path d="m427.9 78.2c0-30.5-17.5-57-43-69.8l-105 105c12.9 25.5 39.3 43 69.8 43 43.2-.1 78.2-35.1 78.2-78.2z" fill="url(#SVGID_00000181076155784911663090000010182957334376148132_)"/><path d="m427.9 78.2c0-30.5-17.5-57-43-69.8l-105 105c12.9 25.5 39.3 43 69.8 43 43.2-.1 78.2-35.1 78.2-78.2z" fill="url(#SVGID_00000063602362922656052470000003596253999356777898_)"/></g><circle cx="349.8" cy="78.2" fill="url(#SVGID_00000038373172012256137450000010721772720295967623_)" r="78.2"/></g><g><circle cx="200.6" cy="207.9" fill="url(#SVGID_00000039103289909207571940000002394626265506457019_)" r="193.3"/><g><path d="m191.1 129.7c90.8-62.5 132.9-9.6 192.8 16.5-15.2-45-46.5-82.7-87-106-73.2-1.8-143.3 98.8-250.7 51.4-20.6 27.4-34.2 60.5-37.9 96.5 62.8 5.6 132.1-23.5 182.8-58.4z" fill="url(#SVGID_00000057845422276088435810000012810973683414380677_)"/><path d="m66.1 346.7c34.8 33.7 82.2 54.5 134.5 54.5 36.5 0 70.7-10.1 99.8-27.7-69-43-164.5-72-234.3-26.8z" fill="url(#SVGID_00000160181410993448264250000001085722985763973528_)"/><path d="m391.7 178.3c-98.7-37.4-219.7.4-302.8 50.5-27.8 16.8-52.4 26.2-74.7 30.2 5.3 19.6 13.7 37.9 24.5 54.5 71.7-30.4 149.4-76.9 255.5-27.6 25.5 11.8 45.2 25 60.4 38.9 24.7-32.5 39.4-73 39.4-116.9-.1-10-.8-20-2.3-29.6z" fill="url(#SVGID_00000121245547199258926600000000091141924281320324_)"/></g><path d="m7.3 207.9c0 106.8 86.6 193.3 193.3 193.3 106.8 0 193.3-86.6 193.3-193.3 0-19.3-2.8-37.9-8.1-55.5h-370.4c-5.2 17.7-8.1 36.3-8.1 55.5z" fill="url(#SVGID_00000127763522895144593970000013863635691679001245_)"/><path d="m200.6 14.6c-22.1 0-43.3 3.7-63 10.5v365.6c19.7 6.8 40.9 10.5 63 10.5 106.8 0 193.3-86.6 193.3-193.3s-86.5-193.3-193.3-193.3z" fill="url(#SVGID_00000106137767893613064990000007719060776975528593_)"/><path d="m393.9 207.9c0-75.5-43.3-140.9-106.4-172.7l-259.6 259.7c31.8 63.1 97.2 106.4 172.7 106.4 106.8 0 193.3-86.6 193.3-193.4z" fill="url(#SVGID_00000025412276891822351460000005193941371290481803_)"/></g><circle cx="288.5" cy="295.8" fill="url(#SVGID_00000179647528848652985670000005582641286857757088_)" r="91.1"/><circle cx="288.5" cy="295.8" fill="url(#SVGID_00000140005300697502285300000006755702238172703146_)" r="91.1"/><path d="m348.4 379.1 23.4-23.3 38.9 38.8-23.4 23.4z" fill="url(#SVGID_00000021119936946423984440000001654922843481217437_)"/><path d="m348.4 379.1 23.4-23.3 38.9 38.8-23.4 23.4z" fill="url(#SVGID_00000144319487019151388360000005354472418373383093_)"/><g><path d="m288.5 175.2c-66.6 0-120.6 54-120.6 120.6s54 120.6 120.6 120.6 120.6-54 120.6-120.6-54-120.6-120.6-120.6zm0 220.8c-55.3 0-100.2-44.8-100.2-100.2s44.8-100.2 100.2-100.2 100.2 44.8 100.2 100.2-44.9 100.2-100.2 100.2z" fill="url(#SVGID_00000173846774904456721330000014094272027707963538_)"/><path d="m288.5 188.5c-59.3 0-107.3 48-107.3 107.3s48 107.3 107.3 107.3 107.3-48.1 107.3-107.3-48-107.3-107.3-107.3zm0 198.4c-50.3 0-91.1-40.8-91.1-91.1s40.8-91.1 91.1-91.1 91.1 40.8 91.1 91.1c-.1 50.3-40.8 91.1-91.1 91.1z" fill="url(#SVGID_00000134972317261207130700000006477578889806990773_)"/><path d="m409.1 295.8c0 66.6-54 120.6-120.6 120.6s-120.6-54-120.6-120.6c0-12 1.8-23.6 5-34.6h31.3c-4.4 10.7-6.8 22.4-6.8 34.6 0 50.3 40.8 91.1 91.1 91.1s91.1-40.8 91.1-91.1c0-12.3-2.4-23.9-6.8-34.6h31.3c3.2 11 5 22.6 5 34.6z" fill="url(#SVGID_00000090272849417634777140000010181241769177792142_)"/><path d="m409.1 295.8c0 66.6-54 120.6-120.6 120.6-13.8 0-27-2.3-39.3-6.6v-31.8c11.9 5.7 25.2 8.9 39.3 8.9 50.3 0 91.1-40.8 91.1-91.1s-40.8-91.1-91.1-91.1c-14.1 0-27.4 3.2-39.3 8.9v-31.9c12.3-4.2 25.6-6.6 39.3-6.6 66.6.1 120.6 54.1 120.6 120.7z" fill="url(#SVGID_00000074399491890438221860000008516330261336911291_)"/></g><path d="m452.6 402.9c3 3 5.7 6.1 8.3 9.2l42.6 52.7c1.7 2.1 1.6 5.1-.3 7l-38.8 38.8c-1.9 1.9-4.9 2-7 .3l-52.7-42.6c-14.1-11.4-26.2-26.8-35.5-45.5-2.7-5.4-3-12.2-1-19.2 3.8-12.8 15-24.1 27.8-27.8 7-2.1 13.8-1.7 19.2 1 14.7 7 27.2 15.9 37.4 26.1z" fill="url(#SVGID_00000160162458686743656330000015027583804235359676_)"/><path d="m412.1 474.1 45.3 36.7c2.1 1.7 5.1 1.6 7-.3l38.8-38.8c1.9-1.9 2-4.9.3-7l-36.7-45.3z" fill="url(#SVGID_00000020399830153192058140000000846071337954051722_)"/><path d="m385 447.9 55.6-55.6c-6.4-5-13.4-9.5-21-13.6l-48.1 48.1c4 7.7 8.6 14.8 13.5 21.1z" fill="url(#SVGID_00000003065750469661309990000017312335984715271298_)"/></g></svg>