<svg id="Layer_1" enable-background="new 0 0 68 68" viewBox="0 0 68 68" xmlns="http://www.w3.org/2000/svg"><g><path d="m59.9536438 13.1202879-2.8589706 4.2044497c.5113945 1.7916012.7927742 3.8337688.7996483 6.1024494.0068703 2.9723015-.4529915 6.0887299-1.3007355 9.2154827l2.5946808 1.5067215.0137444.0068741c.3363495.1681747.4015388.703598.1613007 1.2905121l-2.7320213 6.5829659c-.1784782.4290237-.4839096.789402-.7996445.9747543-.1167259.0652122-.2334518.1098137-.3467407.1235542l-3.3806725.411869c-2.9173737 5.2203712-6.7579918 9.95681-11.0791664 13.4508133l-.6589584 4.479023c-.0823669.5662994-.4736862 1.1635208-.9301109 1.4277878l-5.1483078 2.9722977c-.2711601.1578674-.5182686.1647415-.6933136.0514755l-5.4641266-3.1747932c-2.4197216.1372986-4.5922508-.377533-6.4250774-1.4827118.0446625.027462.085804.0583611.1304665.085804l-1.6783943-.9747353-3.339529 3.0649567c-.089241.0823708-.1819172.147583-.2677212.1990738-.2574158.147583-.5045242.1681747-.6830063.058342.0034361.003437.0034361.0068703.0068712.0068703l-5.563591-3.2331505c-.0651913-.0377502-.1235962-.0960922-.1681747-.1716118l-2.3579645-3.9161377c-.1132059-.1887665-.1303835-.466774-.0651917-.7619591.0549688-.2471085.1647391-.5045242.3261266-.7447815l2.8589697-4.2044525c-.5148306-1.7881851-.79286-3.8337669-.7996473-6.1024475-.0068703-2.9723015.4529915-6.0853157 1.2973003-9.2154846l-2.63591-1.5307503c-.3088646-.1784821-.3638344-.7070312-.1304674-1.2733536l2.7321053-6.5829678c.1098547-.2677212.2710743-.5011101.4530745-.6898766.1097708-.1132679.2230597-.2127953.3432207-.2814426.116641-.0686493.2368021-.1098328.350008-.1235542l3.3807554-.4153042c2.9173737-5.2203712 6.7579918-9.95683 11.0791664-13.4473772l.6589565-4.4824586c.0514507-.3466558.2197094-.703598.4462051-.9919124.1406898-.1784601.3054295-.3329139.4804745-.4324613l5.1483059-2.97228c.264286-.1510179.5045242-.1681747.676136-.0652127l5.4778709 3.1850963c2.3647499-.1338611 4.4961357.3500705 6.3014793 1.3968887l1.6783943.9747558 3.3395309-3.0649567c.089241-.0823698.1784782-.1475825.2677193-.1990738.2539825-.1475821.497654-.1681747.672699-.0652127l5.5567207 3.2297168c.0720634.0411844.1339035.0960908.1784821.1750245l2.3579636 3.9161577c.2093197.3466558.096027.9816055-.2609333 1.5067434z" fill="#3293fc"/><g><path d="m59.1882668 34.1493912-2.6496506-1.2939263-5.563591-3.2331504 2.6633949 1.3008174z" fill="#1d80ed"/></g><g><path d="m33.6149902 65.9350586-5.5636749-3.2331505c-.1303844-.0755005-.2230606-.2162323-.2608509-.4187202l-.6830063-3.7067795 5.5636768 3.2331314.6829185 3.7102127c.0377923.1990738.1304704.3397827.2609368.4153061z" fill="#1d80ed"/></g><g><path d="m57.6850014 7.5257769c-.175045-.102962-.4187164-.0823698-.672699.0652127-.089241.0514913-.1784821.116704-.2677193.1990733l-3.4768677 3.191947-5.563591-3.2331314 3.4768677-3.1919465c.089241-.0823698.1784782-.1475825.2677193-.1990738.2539825-.1475821.497654-.1681747.672699-.0652127z" fill="#0f7ed1"/></g><g><path d="m21.8357086 61.3488426-5.5637093-3.2332726c-.5440569-.3161736-1.0583906-.6835938-1.5403471-1.1007767l5.5637083 3.2332764c.4819565.417183.9962903.7845994 1.5403481 1.1007729z" fill="#9532d1"/></g><g><path d="m46.1622925 6.6479406 5.5637016 3.2332783c-2.9010353-1.6859064-6.6472969-1.9144545-10.8370094-.4597597l-5.5637131-3.2332702c4.1897163-1.4546985 7.9359779-1.2261505 10.8370209.4597516z" fill="#1d80ed"/></g><g><path d="m16.4669724 53.9057999-5.5637121-3.2332726c-.5142651-1.7889023-.792223-3.8327751-.7986555-6.1015167-.0086231-3.0417786.4695625-6.2309303 1.3538513-9.4300804l5.5637035 3.2332764c-.884285 3.1991463-1.3624697 6.3883018-1.3538465 9.4300766.0064325 2.2687415.2843904 4.3126182.7986593 6.1015167z" fill="#1d80ed"/></g><g><path d="m21.4585438 27.689024-5.5637074-3.2332726c2.9176788-5.2180519 6.7585392-9.9551954 11.0792027-13.4459782l5.5637074 3.2332773c-4.3206635 3.490779-8.1615239 8.2279235-11.0792027 13.4459735z" fill="#0f7ed1"/></g><g><path d="m39.2729568 5.3631454c.4558182-.263166.8491478-.1169763.9338837.348618l.6821442 3.7096958c4.9753799-1.7274833 9.3253975-1.0812397 12.3772354 1.5604429l3.4787064-3.1913123c.0890198-.0816455.1792755-.1482582.268261-.1996441.348938-.2014928.6791267-.1692653.8443031.1071248l2.3553047 3.9164925c.2094955.3456478.0993538.9792414-.25914 1.5065308l-2.8590469 4.2030849c.5121346 1.7926521.7922859 3.8327389.7987175 6.1014805.008625 3.0417747-.4696198 6.2309647-1.3539085 9.4301147l2.6639977 1.3018761c.3340797.1652603.4014587.7039299.1594696 1.2875443l-2.7316017 6.586071c-.1772346.4275322-.4831467.7885704-.8005791.9718361-.1157951.0668564-.2332077.1100845-.3464165.1241913l-3.3812523.413662c-2.9176178 5.2180061-6.7584801 9.9551506-11.0791969 13.448494l-.6589203 4.4814301c-.0818176.5642776-.4730339 1.1634216-.9288483 1.4265862l-5.1496391 2.9731483c-.4536171.2618942-.8468857.1156693-.9316292-.3524399l-.6821976-3.7071381c-4.9753857 1.7249641-9.3254051 1.0787239-12.377243-1.5629692l-3.4787064 3.1913223c-.0889606.0816116-.1792755.1482658-.2682629.1996422-.348877.2014236-.6791248.1692657-.8443022-.107132l-2.3575048-3.9152222c-.2072945-.3469086-.0993528-.9792328.2613392-1.5077934l2.8590488-4.203083c-.5142689-1.7888985-.7922268-3.8327751-.7986593-6.1015167-.0086231-3.0417747.4695616-6.2309303 1.3538504-9.4300804l-2.6639385-1.3019104c-.3341303-.1627159-.4014578-.7039375-.1595287-1.2875099l2.7316036-6.5860691c.1768188-.4264221.4815426-.7866611.7980232-.9693813.1166878-.0673714.2349339-.1105995.3490353-.1241627l3.3811855-.4161453c2.9176788-5.21805 6.7585392-9.9551945 11.0792027-13.4459763l.6589737-4.4839907c.0818253-.561759.4729805-1.1608706.9266014-1.4227667z" fill="#3293fc"/></g><g><path d="m28.0772915 5.5353322c-.2264118.2867227-.394083.6459894-.4446964.9916821l-.6589565 4.4824586 5.5635929 3.2331314.6589546-4.4824591c.0506134-.3456926.2183685-.7049799.4447784-.9917021z" fill="#1d80ed"/><path d="m34.1229477 8.3357925 5.1516609-2.972301c.2609329-.1510177.5011711-.1681743.6727829-.0652127l-5.5636749-3.2331309c-.1716118-.102962-.41185-.0858052-.676136.0652127l-5.1483059 2.97228c-.1747952.1006579-.3397846.2525554-.4819832.4326916l5.563673 3.2331109c.1422005-.1801157.3071899-.3320131.4819832-.4326506z" fill="#0f7ed1"/></g><g><path d="m17.7272987 28.2288399c.116642-.0652142.2368031-.1098347.3500919-.1235542l3.3806725-.4153042-5.563591-3.2331314-3.3807554.4153042c-.1132059.0137215-.233367.0549049-.350008.1235542-.1185684.0682926-.2331152.1681957-.3423824.280983l5.56359 3.2331295c.1092682-.1127854.223814-.2126904.3423824-.2809811z" fill="#1d80ed"/><path d="m16.9310036 29.2001591c.1093521-.267952.2720795-.5026798.4539127-.6903381l-5.56359-3.2331295c-.1818333.1876564-.3445616.4223843-.4539127.6903362l-2.7321053 6.5829678c-.233367.5663223-.1783972 1.0948715.1304674 1.2733536l5.563591 3.2331314c-.3088655-.1784821-.3637505-.7070312-.1303835-1.2733536z" fill="#0f7ed1"/></g><g><path d="m13.608654 58.1096153 2.8589687-4.2044525-5.56359-3.2331314-2.8589697 4.2044525c-.1628957.2389183-.271493.4981117-.3257079.7432747l5.5635905 3.2331924c.0542155-.245182.1628123-.5043983.3257084-.7433357z" fill="#0f7ed1"/><path d="m15.7056837 63.5325165-2.3578806-3.9161606c-.1147146-.1899605-.1304674-.4661865-.0648575-.7634048l-5.5635905-3.2331924c-.0656943.2972373-.0499411.5735053.0647731.7634658l2.3579645 3.9161377c.0445786.0755196.1029835.1338615.1681747.1716118l5.563591 3.2331505c-.0651912-.0377694-.1235122-.0961113-.1681747-.171608z" fill="#1d80ed"/></g><path d="m54.1542397 26.3950748c.0302505 10.580862-7.4110069 23.4686489-16.6218224 28.7876415-4.7951508 2.7703018-9.1235046 2.9314766-12.1759052.9603691.1041164.0671616.208149.1376839.3156261.2014885l-1.4002361-.8159981c-2.9952583-1.7394142-4.8488503-5.4364929-4.8656559-10.6950417-.0067234-1.9509659.2451229-3.9791565.7119236-6.0241547 1.5915794-6.9845161 5.7252274-14.1570778 10.9804573-19.0630493 1.5546894-1.4539757 3.2101307-2.706501 4.9260769-3.6970787 4.6339798-2.6729307 8.8314095-2.9214153 11.8636398-1.1618557l1.3733482.7991924c3.0087853 1.7326891 4.8791008 5.4365103 4.8925477 10.7084867z" fill="#3c4043"/><path d="m32.4999313 20.5613651-1.4015484-.8147888c-5.2552319 4.9051514-9.3885517 12.0790863-10.9811153 19.0614948l1.4006462.8142738c1.5929737-6.9824485 5.7266216-14.1562175 10.9820175-19.0609798z" fill="#1d1e1e"/><g><path d="m37.4243088 16.8648205c9.2101402-5.3174753 16.6998405-1.0493269 16.7298393 9.5313778.029995 10.5807076-7.411068 23.4691391-16.6212082 28.7866135-9.2058907 5.3150253-16.6955948 1.046875-16.7255917-9.5338287s7.411068-23.4691373 16.6169606-28.7841626z" fill="#3c4043"/></g><g fill="#303335"><path d="m37.424942 16.8652287c4.633976-2.6762905 8.8347664-2.9247751 11.8670006-1.1618547l-1.4035988-.8159781c-3.0322304-1.7595596-7.22966-1.511075-11.8636398 1.1618557-1.7158623.9905777-3.3700752 2.2447433-4.926321 3.6973248l1.4015484.8147888c1.5559158-1.4520684 3.2096366-2.7058259 4.9250106-3.6961365z"/><path d="m20.1172676 38.8080711c-.4665546 2.0455704-.7165966 4.0748062-.7110214 6.0254631.0168056 5.2585487 1.8703976 8.9556274 4.8656559 10.6950417l1.4002361.8159981c-2.9952583-1.7394333-4.8488503-5.4398727-4.8656559-10.6950645-.0055752-1.95121.2446308-3.980999.7114315-6.0271645z"/></g><g><g><g><g><g><path d="m32.8361893 44.1439972c-.0654564 0-.1321297-.009697-.1975861-.0327263l-5.4584675-1.8291893c-.1830406-.0606079-.3272915-.2048569-.3903236-.3878975-.0618229-.1830406-.0351543-.3842621.0715179-.5454826l5.4305897-8.1155777c.1915245-.2836533.5757866-.3600197.8618622-.1709175.2848625.1915245.3612328.5769997.1709175.8618622l-4.9796543 7.4403915 4.6887302 1.5709915c.3248672.1078835.4994202.4606285.3903236.7854958-.0860633.259407-.3285026.4230499-.5879096.4230499z" fill="#1d1e1e"/></g></g><g><g><path d="m41.5942268 39.0879745c-.1187973 0-.2388-.0339394-.3454742-.104248-.2848625-.1903114-.3612328-.5757866-.1709175-.8618622l4.9711685-7.4367542-4.6802444-1.5746288c-.3248672-.1090965-.4994202-.4606285-.3903236-.7854958.1103096-.3236523.4618416-.4969959.7854958-.3903236l5.4499817 1.8328247c.1830406.061821.3272896.2048588.3903236.3878994.061821.1830387.0351562.3842621-.0715179.5454826l-5.4221039 8.1119404c-.1200067.1781921-.3163797.2751655-.5163881.2751655z" fill="#1d1e1e"/></g></g></g><g><g><path d="m34.5599174 47.191433c-.0497017 0-.1006126-.0060616-.1503105-.0181847-.3333511-.0836411-.5345764-.4206276-.4521446-.7527657l5.2754288-21.0956535c.082428-.3333511.4254761-.5333614.7527657-.4521446.3333511.0836391.5345726.4206276.4521446.7527657l-5.2754288 21.0956535c-.0703087.2824402-.3236542.4703293-.6024552.4703293z" fill="#1d1e1e"/></g></g></g><g><g><g><g><path d="m33.4036369 44.1439972c-.0654602 0-.1321297-.009697-.1975861-.0327263l-5.4584694-1.8291893c-.1830406-.0606079-.3272896-.2048569-.3903236-.3878975-.061821-.1830406-.0351524-.3842621.0715199-.5454826l5.4305859-8.1155777c.1915283-.2836533.5757904-.3600197.861866-.1709175.2848625.1915245.3612289.5769997.1709175.8618622l-4.9796563 7.4403915 4.6887321 1.5709915c.3248634.1078835.4994202.4606285.3903236.7854958-.0860671.259407-.3285025.4230499-.5879096.4230499z" fill="#fff"/></g></g><g><g><path d="m42.1616707 39.0879745c-.1187935 0-.2388-.0339394-.3454704-.104248-.2848625-.1903114-.3612328-.5757866-.1709175-.8618622l4.9711685-7.4367542-4.6802444-1.5746288c-.3248672-.1090965-.4994202-.4606285-.3903236-.7854958.1103096-.3236523.4618416-.4969959.7854958-.3903236l5.4499817 1.8328247c.1830406.061821.3272896.2048588.3903236.3878994.061821.1830387.0351524.3842621-.0715179.5454826l-5.4221039 8.1119404c-.1200067.1781921-.3163797.2751655-.5163919.2751655z" fill="#fff"/></g></g></g><g><g><path d="m35.1273651 47.191433c-.0497017 0-.1006126-.0060616-.1503143-.0181847-.3333511-.0836411-.5345726-.4206276-.4521446-.7527657l5.2754288-21.0956535c.082428-.3333511.4254761-.5333614.7527695-.4521446.3333511.0836391.5345726.4206276.4521446.7527657l-5.2754288 21.0956535c-.0703087.2824402-.3236542.4703293-.6024552.4703293z" fill="#fff"/></g></g></g></g><g fill="#fff" opacity=".15"><path d="m38.4652596 5.8282361-14.109747 56.559299c-.9919548-.2608528-1.9186325-.6624146-2.7698135-1.1909676l13.2963581-53.2987227z"/><path d="m53.2271767 10.9525156-11.29879 45.2776413c-.2985611.2608528-.6006393.5113945-.9060669.7585258l-.6590385 4.48246c-.0789375.5628853-.4701691 1.1635208-.9266815 1.4277878l-5.151741 2.9723015c-.4530754.260849-.8443108.116684-.9301147-.3535309l-.6830063-3.7067757c-1.1669159.4049988-2.2995605.6795692-3.3876266.8271751l13.4062117-53.7449073c4.2010154-1.0056338 7.8632354-.236823 10.5368538 2.0593224z"/></g></g></svg>