<?xml version="1.0" encoding="iso-8859-1"?>
<!-- Generator: Adobe Illustrator 19.0.0, SVG Export Plug-In . SVG Version: 6.00 Build 0)  -->
<svg version="1.1" id="Capa_1" xmlns="http://www.w3.org/2000/svg" xmlns:xlink="http://www.w3.org/1999/xlink" x="0px" y="0px"
	 viewBox="0 0 512 512" style="enable-background:new 0 0 512 512;" xml:space="preserve">
<circle style="fill:#006EF5;" cx="256" cy="256" r="256"/>
<path style="fill:#0043A3;" d="M508.966,295.492l-51.228-51.229c-26.554-27.251-100.71-92.542-201.74-92.542
	C128.329,151.722,43.557,256,43.557,256s5.618,6.903,16.116,17.147l235.82,235.82C405.252,491.969,491.969,405.252,508.966,295.492z
	"/>
<path style="fill:#FFFFFF;" d="M255.998,151.722C128.329,151.722,43.557,256,43.557,256s84.775,104.278,212.445,104.278
	S468.443,256,468.443,256S383.668,151.722,255.998,151.722z"/>
<path style="fill:#FFF4AA;" d="M468.442,256c0,0-84.769,104.28-212.442,104.28V151.72C383.673,151.72,468.442,256,468.442,256z"/>
<circle style="fill:#00D4D1;" cx="256" cy="256" r="86.23"/>
<path style="fill:#009CA0;" d="M342.231,256c0,47.62-38.611,86.231-86.231,86.231V169.769
	C303.62,169.769,342.231,208.38,342.231,256z"/>
<circle style="fill:#006EF5;" cx="256" cy="256" r="45.49"/>
<path style="fill:#0043A3;" d="M301.489,256c0,25.123-20.366,45.489-45.489,45.489v-90.977
	C281.123,210.511,301.489,230.877,301.489,256z"/>
<g>
</g>
<g>
</g>
<g>
</g>
<g>
</g>
<g>
</g>
<g>
</g>
<g>
</g>
<g>
</g>
<g>
</g>
<g>
</g>
<g>
</g>
<g>
</g>
<g>
</g>
<g>
</g>
<g>
</g>
</svg>
