<svg id="Layer_1" enable-background="new 0 0 53 53" height="512" viewBox="0 0 53 53" width="512" xmlns="http://www.w3.org/2000/svg"><g id="_x31_06"><g><g><g enable-background="new"><path d="m46.9960556 33.7867546-.0097618 2.5546951c-.0019531.2282677-.1521873.4565315-.452652.6301765l-22.8249893 13.264988c-.6048126.351181-1.5861568.351181-2.1948986 0l-15.0521064-7.9790992c-.306324-.177536-.4604621-.4097099-.458509-.64188l.0097647-3.263485z" fill="#5ec363"/><g><path d="m46.5379372 33.1458931c.609127.3516808.6123161.9198341.0071487 1.2715187l-22.8256321 13.2648087c-.6039314.3509636-1.5860348.351696-2.1951618.0000153l-15.051321-8.6898842c-.609128-.3516808-.6123295-.9212761-.0083976-1.2722435l22.8256316-13.2648068c.6051693-.3516846 1.5872822-.3509731 2.1964111.0007076z" fill="#78e75a"/></g></g></g><g><g enable-background="new"><g><path d="m45.0703773 33.4843483-22.8991069 13.2220612-13.3683977-7.7689553-.0390349-13.577158 3.1626206-1.8261528 5.7437934-8.3230619 3.1782208 1.8476229 4.225893-6.122304 4.3215161 2.5109635 2.2690391-1.3091393 13.3683968 7.7689657z" fill="#dedffb"/></g></g></g><g><g enable-background="new"><g><path d="m38.4567642 23.703373-13.3681717-7.7687321 6.5757618-3.7965174 13.3681698 7.768733z" fill="#f3f1fc"/></g><g><g enable-background="new"><g><path d="m38.4390945 3.937031-.0258598 14.7889824c-.0010338.3630447-.2410049.7260914-.7178078 1.0043221-.9619217.558527-2.5247841.5574989-3.4918518-.0010357-.487175-.2803001-.7302361-.6495533-.7291985-1.0187988l.025856-14.7879515z" fill="#febc1f"/></g><g><path d="m38.4341698 6.1651807.0051231 1.5228925c-.00103.3637581-.2400513.7269678-.7175446 1.0044556-.9618187.5589485-2.5244598.5581923-3.4919052-.0003633-.4868317-.2810726-.7303123-.6502209-.7292671-1.0188408l-.0051231-1.522891c-.0010452.368619.2424355.7377667.7292671 1.0188398.9674454.5585551 2.5300865.5593114 3.4919052.0003633.4774933-.2774883.7165146-.6406976.7175446-1.0044561z" fill="#df3260"/></g><g><path d="m38.4341698 12.5970268.0051231 1.522892c-.00103.363759-.2400513.7269678-.7175446 1.0044565-.9618187.5589476-2.5244598.5581913-3.4919052-.0003633-.4868317-.2810736-.7303123-.6502209-.7292671-1.0188417l-.0051231-1.522891c-.0010452.368619.2424355.7377672.7292671 1.0188398.9674454.5585556 2.5300865.5593119 3.4919052.0003633.4774933-.2774878.7165146-.6406975.7175446-1.0044556z" fill="#df3260"/></g><g><path d="m37.7103615 2.9187727c.9674454.5585551.9725456 1.4644551.0113831 2.0230212-.9618187.558948-2.5244598.5581918-3.4919052-.0003633-.9667931-.558177-.9738693-1.4636977-.0120506-2.0226455.9611625-.5585663 2.5257796-.5581896 3.4925727-.0000124z" fill="#ffd06c"/><path d="m37.9520264 3.9335511c.0009308.1836278-.0973816.3654044-.2791557.5258467-.0704842.0630693-.1539536.1224203-.2485428.1771407-.3821068.2225776-.8959007.3440752-1.446785.3440752s-1.0665359-.1224203-1.4523354-.3440752c-.0992393-.0574999-.185482-.1196356-.2587547-.184556-.1808395-.1613708-.2782249-.3422189-.2791519-.5258522 0-.2550411.1873398-.5045176.5276947-.7020533.3821106-.2225833.8958931-.3440754 1.4477158-.3440754.5518112 0 1.0674629.1224203 1.4514084.3440754.3468513.2003207.5379066.4516539.5379066.7094741z" fill="#febc1f"/><path d="m37.6728706 4.4593978c-.0704842.0630693-.1539536.1224203-.2485428.1771407-.3821068.2225776-.8959007.3440752-1.446785.3440752s-1.0665359-.1224203-1.4523354-.3440752c-.0992393-.0574999-.185482-.1196356-.2587547-.184556.070488-.0621414.1539459-.1214924.2485428-.1771407.3821106-.222578.8958931-.34407 1.4477158-.34407.5518112 0 1.0674629.1214919 1.4514084.34407.0992394.0574994.185482.1187124.2587509.184556z" fill="#1d2943"/></g></g></g><g><path d="m32.6975441 27.0284615-13.3681622-7.7687378 5.7450428-8.3226938 13.3681755 7.7687387c-.2228698 1.0380401-3.4752807 5.1844482-5.7450561 8.3226929z" fill="#e9e7fc"/></g><g><path d="m31.0523224 27.9783306-13.3681717-7.768734 1.6452312-.9498729 13.3681736 7.768732z" fill="#f3f1fc"/></g><g fill="#678aee"><path d="m37.4646759 18.921627-4.9700317 7.2099609c-.1011696-.0589218-5.921236-3.4488373-5.8200073-3.3900146l4.9700317-7.1999512c.101244.058796 5.9212799 3.4387513 5.8200073 3.3800049z"/><path d="m31.1346588 15.2415733-4.9699707 7.210022c-4.5671329-2.6672459-3.561039-2.0722599-5.8600464-3.4099731l4.9700317-7.2000122c.1012669.0587549 5.9612618 3.458702 5.8599854 3.3999633z"/></g><path d="m25.294836 31.3024178-13.3681602-7.7687397 5.7433071-8.3216915 13.3681698 7.7687302c-.1902771 1.1800841-3.5082398 5.2513885-5.7433167 8.321701z" fill="#e9e7fc"/><g><path d="m22.1323872 33.1282578-13.3681727-7.7687321 3.1624613-1.8258476 13.3681717 7.768732z" fill="#f3f1fc"/></g><g><path d="m22.1708794 46.7331581-13.3681727-7.768734-.0384922-13.5774421 13.3681727 7.7687339z" fill="#e9e7fc"/></g><g><path d="m38.4425964 18.7057629.0141678 4.9976101 6.5757599-3.7965165.0384941 13.6049004-22.9001388 13.2214012-.0384922-13.6049003 3.1624603-1.8258477 5.7433071-8.3216896.0141678 4.9976101 1.6452331-.9498749z" fill="#dedffb"/></g></g></g><g fill="#678aee"><path d="m30.0646515 23.2015953-4.9699707 7.2000122c-5.3250923-3.0889435-3.3419018-1.9407997-5.8200073-3.3800049l4.9699707-7.210022c.1011657.0589295 5.9211235 3.44903 5.8200073 3.3900147z"/><path d="m23.7346344 19.5216026-4.9699707 7.2000122c-4.5563917-2.6427288-3.5704584-2.0776405-5.8599854-3.4100342l4.9699707-7.2000122c.1011887.0588894 5.9610863 3.4690781 5.8599854 3.4100342z"/></g></g><g><g><path d="m11.7972889 40.7301445.3760576-.2110329.019434-7.0544738-.4123173-.2374649z" fill="#f3f1fc"/><path d="m18.7703114 44.7567596-6.5962-3.8090171z" fill="#343331"/><path d="m12.1733465 40.62286 6.5969649 3.8079376.021595-7.1560745-6.5991259-3.8100853z" fill="#fff"/><path d="m12.1733465 38.7303009 6.5969649 3.8079376.021595-5.2635154-6.5991259-3.8100853z" fill="#9ea9c9"/><path d="m12.1733465 37.7820244 6.5969649 3.8079376.004322-.7145271v-.202919l.002161-.5116082.0021611-.2050781.002161-.5116081v-.2050781l.0043087-.509449v-.2050782l.0064812-1.2498931-6.5991259-3.8100853-.0064821 1.2477188v.2050781l-.0021477.5116081-.002161.2050781-.0021601.511612v.2050781l-.002161.5116081-.0021611.2050782z" fill="#b0b8cf"/></g><g><g enable-background="new"><g><path d="m11.5198317 32.7536049v.9385605l7.502223 4.3322868.3915844-.223793v-.9385224l-7.502223-4.3322868z" fill="#e93565"/></g></g></g><g><path d="m11.5226212 32.7532845-.0026656.939991 7.5034056 4.3320922.0026646-.9399871z" fill="#e93565"/></g><g><g enable-background="new"><g><path d="m19.0233612 38.0253677.3892365-.2261963.0026645-.9399909-.3892364.2262001z" fill="#df3260"/></g><g><path d="m19.0260258 37.0853806.3892364-.2262001-7.5034055-4.3320923-.3892355.2261963z" fill="#f45170"/></g></g></g><path d="m11.7972889 40.7301445 6.9730225 4.0266151v-.4510536l-6.5969649-3.7858505z" fill="#fff"/><path d="m12.1733465 38.7296944v1.7895507l.0518198-.0302238 1.5024424-.8613167z" fill="#9ea9c9"/><g><g enable-background="new"><g fill="#e3e7f0"><path d="m12.1862984 34.7123566v.2050781l6.5991268 3.8122597v-.2050782z"/><path d="m12.1798296 36.1457329v.2050781l6.5969648 3.8100967.0021611-.2050781z"/><path d="m12.1755075 37.0674973 6.5991259 3.8079376v-.202919l-6.5969648-3.8100968z"/><path d="m12.1819897 35.6341209 6.5991268 3.8101006v-.2050781l-6.5969658-3.8101006z"/></g></g></g></g><g><g><g><path d="m42.884903 26.5701561-.0091401-2.946516.6346589-.3664418.0106544 3.5852585z" fill="#b0b8cf"/><path d="m24.0293102 37.4571304 18.8555928-10.8869743.6361732.2723007-19.4902534 11.2534142z" fill="#fff"/></g><path d="m24.020153 34.5094566.0080033 2.9483872 5.2949333-3.0565224 2.4915714-1.4389725 2.4169636-1.3963642 6.6433182-3.8346195 2.0092621-1.1618595-.0080033-2.9457035-4.300972 2.4835682-6.6433181 3.8346348-2.4169655 1.3936958-2.4915695 1.4389763z" fill="#423d9b"/></g><g opacity=".25"><g><path d="m31.9319115 29.9420052 2.2997131 1.6239795 6.6433182-3.8346195-2.2997132-1.6239948z" fill="#fff"/></g><path d="m27.0233765 32.7746773 2.2997131 1.6266441 2.4915714-1.4389725-2.299715-1.6266479z" fill="#fff"/></g></g><g><g><g><path d="m42.884903 32.2407608-.0091401-2.946516.6346589-.3664418.0106544 3.5852585z" fill="#b0b8cf"/><path d="m24.0293102 43.1277351 18.8555928-10.8869743.6361732.2723007-19.4902534 11.2534142z" fill="#fff"/></g><path d="m24.020153 40.1800613.0080033 2.9483872 5.2949333-3.0565186 2.4915714-1.4389763 2.4169636-1.3963661 6.6433182-3.8346176 2.0092621-1.1618614-.0080033-2.9457016-4.300972 2.4835682-6.6433181 3.8346348-2.4169655 1.3936958-2.4915695 1.4389763z" fill="#423d9b"/></g><g opacity=".25"><g><path d="m31.9319115 35.6126099 2.2997131 1.6239776 6.6433182-3.8346176-2.2997132-1.6239948z" fill="#fff"/></g><path d="m27.0233765 38.445282 2.2997131 1.6266479 2.4915714-1.4389763-2.299715-1.6266479z" fill="#fff"/></g></g></g></svg>