<svg id="Layer_1" enable-background="new 0 0 500 500" viewBox="0 0 500 500" xmlns="http://www.w3.org/2000/svg"><g><g><g><g><g><path d="m79.152 275.357c-1.338 0-2.429-1.091-2.429-2.428v-245.5c0-1.338 1.091-2.429 2.429-2.429s2.428 1.091 2.428 2.429v245.5c0 1.337-1.091 2.428-2.428 2.428z" fill="#5d7280"/></g></g><g><g><path d="m122.771 300.535c-1.338 0-2.428-1.091-2.428-2.428v-245.492c0-1.338 1.091-2.429 2.428-2.429s2.428 1.091 2.428 2.429v245.492c0 1.337-1.091 2.428-2.428 2.428z" fill="#5d7280"/></g></g><g><g><path d="m166.38 325.721c-1.338 0-2.429-1.091-2.429-2.428v-245.5c0-1.337 1.091-2.428 2.429-2.428 1.337 0 2.428 1.091 2.428 2.428v245.5c.001 1.337-1.09 2.428-2.428 2.428z" fill="#5d7280"/></g></g><g><g><path d="m209.999 350.898c-1.337 0-2.428-1.091-2.428-2.428v-245.491c0-1.337 1.091-2.428 2.428-2.428 1.338 0 2.429 1.091 2.429 2.428v245.491c-.001 1.337-1.092 2.428-2.429 2.428z" fill="#5d7280"/></g></g><g><g><path d="m253.618 376.085c-1.338 0-2.428-1.091-2.428-2.428v-245.502c0-1.337 1.091-2.428 2.428-2.428s2.428 1.091 2.428 2.428v245.501c0 1.338-1.091 2.429-2.428 2.429z" fill="#5d7280"/></g></g><g><g><path d="m297.227 401.262c-1.338 0-2.429-1.09-2.429-2.428v-245.5c0-1.338 1.091-2.428 2.429-2.428 1.337 0 2.428 1.091 2.428 2.428v245.5c.001 1.337-1.09 2.428-2.428 2.428z" fill="#5d7280"/></g></g><g><g><path d="m340.846 426.439c-1.338 0-2.429-1.091-2.429-2.428v-245.491c0-1.338 1.091-2.428 2.429-2.428 1.337 0 2.428 1.091 2.428 2.428v245.49c0 1.338-1.091 2.429-2.428 2.429z" fill="#5d7280"/></g></g><g><g><path d="m384.465 451.626c-1.338 0-2.428-1.091-2.428-2.428v-245.5c0-1.338 1.091-2.428 2.428-2.428s2.428 1.09 2.428 2.428v245.5c0 1.337-1.091 2.428-2.428 2.428z" fill="#5d7280"/></g></g></g><g><g><g><path d="m424.943 475c-.418 0-.835-.104-1.214-.322l-345.791-199.643c-1.158-.674-1.556-2.163-.892-3.321.683-1.176 2.172-1.546 3.32-.892l345.792 199.643c1.157.673 1.556 2.163.892 3.32-.456.779-1.272 1.215-2.107 1.215z" fill="#5d7280"/></g></g><g><g><path d="m424.943 423.565c-.418 0-.835-.104-1.214-.322l-345.791-199.644c-1.158-.673-1.556-2.163-.892-3.32.683-1.167 2.172-1.556 3.32-.892l345.792 199.643c1.157.673 1.556 2.163.892 3.321-.456.777-1.272 1.214-2.107 1.214z" fill="#5d7280"/></g></g><g><g><path d="m424.943 372.12c-.418 0-.835-.105-1.214-.323l-345.791-199.633c-1.158-.674-1.556-2.163-.892-3.32.683-1.177 2.172-1.556 3.32-.892l345.792 199.633c1.157.673 1.556 2.163.892 3.32-.456.778-1.272 1.215-2.107 1.215z" fill="#5d7280"/></g></g><g><g><path d="m424.943 320.683c-.418 0-.835-.104-1.214-.322l-345.791-199.642c-1.158-.674-1.556-2.163-.892-3.321.683-1.167 2.172-1.556 3.32-.892l345.792 199.643c1.157.674 1.556 2.163.892 3.32-.456.778-1.272 1.214-2.107 1.214z" fill="#5d7280"/></g></g><g><g><path d="m424.943 269.248c-.418 0-.835-.104-1.214-.322l-345.791-199.644c-1.158-.674-1.556-2.163-.892-3.32.683-1.176 2.172-1.556 3.32-.892l345.792 199.643c1.157.674 1.556 2.163.892 3.321-.456.777-1.272 1.214-2.107 1.214z" fill="#5d7280"/></g></g></g></g><g><g enable-background="new"><g><g><g><path d="m72.629 158.433 7.629-4.433 59.874-23.576-7.628 4.433z" fill="#ee484f"/></g></g></g><g><g><g><path d="m132.504 134.857 7.628-4.433 37.897 37.389-7.629 4.434z" fill="#ee484f"/></g></g></g><g><g><g><path d="m331.051 395.924 7.629-4.434 11.787-6.717-7.628 4.433z" fill="#ee484f"/></g></g></g><g><g><g><path d="m170.4 172.247 7.629-4.434 39.505-17.518-7.628 4.434z" fill="#ee484f"/></g></g></g><g><g><g><path d="m209.906 154.729 7.628-4.434 29.705 45.945-7.629 4.433z" fill="#ee484f"/></g></g></g><g><g><g><path d="m360.517 379.21 7.629-4.433-.095 33.67-7.629 4.434z" fill="#ee484f"/></g></g></g><g><g><g><path d="m348.385 386.046 7.629-4.434 12.132-6.835-7.629 4.433z" fill="#ee484f"/></g></g></g><g><g><g><path d="m209.906 154.729 29.704 45.944 23.309 6.457 85.466 178.916 12.132-6.836-.095 33.671-29.371-16.957 11.788-6.718-82.919-173.864-22.134-5.939-27.776-42.921-37.911 16.769-38.035-37.47-56.547 22.315-4.888-9.663 59.875-23.576 37.896 37.39z" fill="#e60000"/></g></g></g><g><g><g><path d="m262.919 207.13 7.629-4.432 85.466 178.914-7.629 4.434z" fill="#ee484f"/></g></g></g><g><g><g><path d="m239.61 200.673 7.629-4.433 23.309 6.458-7.629 4.432z" fill="#ee484f"/></g></g></g></g></g></g></svg>