<svg id="Capa_1" enable-background="new 0 0 512 512" height="512" viewBox="0 0 512 512" width="512" xmlns="http://www.w3.org/2000/svg"><g><path d="m267.616 177.257 32.868 17.28c8.42 4.427 18.261-2.723 16.653-12.099l-6.277-36.599c-1.388-8.095 1.295-16.354 7.177-22.087l26.591-25.919c6.812-6.64 3.053-18.209-6.361-19.577l-36.747-5.34c-8.128-1.181-15.154-6.286-18.788-13.651l-16.434-33.299c-4.21-8.53-16.374-8.53-20.584 0l-16.434 33.299c-3.635 7.365-10.661 12.47-18.788 13.651l-36.747 5.34c-9.414 1.368-13.173 12.937-6.361 19.577l26.591 25.919c5.881 5.733 8.565 13.992 7.177 22.087l-6.277 36.599c-1.608 9.376 8.233 16.526 16.653 12.099l32.868-17.28c7.266-3.822 15.951-3.822 23.22 0z" fill="#ffe177"/><path d="m344.631 97.828-26.599 25.919c-5.872 5.738-8.561 14-7.17 22.087l6.274 36.602c1.607 9.375-8.231 16.524-16.648 12.094l-14.371-7.551c.33-1.422.391-2.946.113-4.543l-6.274-36.602c-1.391-8.087 1.298-16.349 7.17-22.087l26.599-25.919c6.81-6.634 3.049-18.203-6.366-19.573l-36.747-5.336c-8.128-1.185-15.154-6.284-18.79-13.65l-11.27-22.839 5.161-10.467c4.213-8.53 16.37-8.53 20.583 0l16.431 33.306c3.637 7.366 10.662 12.465 18.79 13.65l36.747 5.336c9.416 1.37 13.177 12.939 6.367 19.573z" fill="#ffd15b"/><path d="m456.069 219.883 22.839 12.007c5.851 3.076 12.689-1.892 11.572-8.408l-4.362-25.432c-.965-5.625.9-11.364 4.987-15.348l18.477-18.011c4.734-4.614 2.122-12.653-4.42-13.604l-25.535-3.71c-5.648-.821-10.53-4.368-13.056-9.486l-11.42-23.139c-2.926-5.928-11.378-5.928-14.304 0l-11.42 23.139c-2.526 5.118-7.408 8.665-13.056 9.486l-25.535 3.71c-6.542.951-9.154 8.99-4.42 13.604l18.477 18.011c4.087 3.984 5.952 9.723 4.987 15.348l-4.362 25.432c-1.117 6.515 5.721 11.484 11.572 8.408l22.839-12.007c5.054-2.655 11.088-2.655 16.14 0z" fill="#ffe177"/><path d="m509.583 164.687-18.481 18.018c-4.079 3.987-5.944 9.725-4.986 15.35l4.368 25.425c1.113 6.521-5.728 11.486-11.579 8.406l-19.656-10.333-4.038-23.498c-.958-5.625.906-11.363 4.986-15.35l18.481-18.018c4.729-4.605 2.122-12.651-4.42-13.598l-25.538-3.709c-5.645-.824-10.528-4.368-13.053-9.488l-3.121-6.325 8.303-16.813c2.926-5.924 11.373-5.924 14.299 0l11.425 23.138c2.524 5.12 7.407 8.664 13.053 9.488l25.538 3.709c6.542.947 9.148 8.993 4.419 13.598z" fill="#ffd15b"/><path d="m55.931 219.883-22.839 12.007c-5.851 3.076-12.689-1.892-11.572-8.408l4.362-25.432c.965-5.625-.9-11.364-4.987-15.348l-18.478-18.01c-4.734-4.614-2.122-12.653 4.42-13.604l25.535-3.71c5.648-.821 10.53-4.368 13.056-9.486l11.42-23.139c2.925-5.928 11.378-5.928 14.304 0l11.42 23.139c2.526 5.118 7.408 8.665 13.056 9.486l25.535 3.71c6.542.951 9.154 8.99 4.42 13.604l-18.477 18.011c-4.087 3.984-5.952 9.723-4.987 15.348l4.362 25.432c1.117 6.515-5.721 11.484-11.572 8.408l-22.839-12.007c-5.053-2.656-11.087-2.656-16.139-.001z" fill="#ffe177"/><path d="m125.584 164.687-18.482 18.018c-4.079 3.987-5.944 9.725-4.986 15.35l4.368 25.425c1.113 6.521-5.728 11.486-11.579 8.406l-19.656-10.333-4.038-23.498c-.958-5.625.907-11.363 4.986-15.35l18.482-18.018c4.729-4.605 2.122-12.651-4.42-13.598l-25.538-3.709c-5.645-.824-10.529-4.368-13.052-9.488l-3.121-6.325 8.303-16.813c2.926-5.924 11.373-5.924 14.299 0l11.425 23.138c2.524 5.12 7.407 8.664 13.052 9.488l25.538 3.709c6.541.947 9.147 8.993 4.419 13.598z" fill="#ffd15b"/><g><path d="m273.895 349.195-17.894 150.963c-2.596 0-5.192-.608-7.582-1.823l-23.323-11.888-77.748-39.641c-5.862-2.988-9.581-9.169-9.581-15.937v-122.016c0-3.42.948-6.676 2.637-9.467l104.635 39.044z" fill="#bec6ed"/><path d="m273.895 349.195-17.894 150.963c-2.596 0-5.192-.608-7.582-1.823l-23.323-11.888v-143.886l19.944-4.131z" fill="#a2aee6"/><path d="m374.231 308.85v122.014c0 6.767-3.713 12.954-9.581 15.94l-101.066 51.526c-2.39 1.22-4.985 1.83-7.581 1.83v-141.838l44.804-35.937 70.789-22.995c1.69 2.785 2.635 6.048 2.635 9.46z" fill="#d5daf3"/><path d="m374.234 308.853v122.015c0 6.768-3.719 12.949-9.581 15.937l-101.071 51.53c-2.39 1.216-4.986 1.823-7.582 1.823v-13.712l77.748-39.641c5.862-2.988 9.581-9.169 9.581-15.937v-117.07l6.333-7.283 21.935-7.129c1.69 2.791 2.637 6.047 2.637 9.467z" fill="#bec6ed"/><path d="m371.597 299.389-131.049 51.052-100.144-51.052c1.601-2.63 3.863-4.834 6.625-6.313l101.066-54.294c.028-.012.05-.029.078-.04 4.941-2.624 10.804-2.613 15.734.04l101.066 54.294c2.761 1.48 5.029 3.684 6.624 6.313z" fill="#6c7fd8"/><path d="m371.597 299.386-115.597 58.937-15.453-7.881 93.36-47.597c3.911-1.994 4.104-7.631.243-9.719-.027-.015-.055-.03-.083-.044l-93.52-50.242 7.551-4.059c.021-.01.041-.031.072-.041 4.945-2.617 10.807-2.606 15.731.041l101.071 54.301c2.762 1.472 5.028 3.677 6.625 6.304z" fill="#4f66d0"/></g><g><path d="m390.461 33.689c0-4.267-3.459-7.726-7.726-7.726h-6.397v-6.397c0-4.267-3.459-7.726-7.726-7.726s-7.726 3.459-7.726 7.726v6.397h-6.398c-4.268 0-7.726 3.459-7.726 7.726s3.459 7.726 7.726 7.726h6.398v6.397c0 4.267 3.459 7.726 7.726 7.726s7.726-3.459 7.726-7.726v-6.397h6.397c4.267.001 7.726-3.459 7.726-7.726z" fill="#ffe177"/><path d="m170.791 219.141h-6.397v-6.398c0-4.267-3.459-7.726-7.726-7.726-4.268 0-7.726 3.459-7.726 7.726v6.398h-6.397c-4.268 0-7.726 3.459-7.726 7.726s3.459 7.726 7.726 7.726h6.397v6.397c0 4.267 3.459 7.726 7.726 7.726 4.268 0 7.726-3.459 7.726-7.726v-6.397h6.397c4.268 0 7.726-3.459 7.726-7.726s-3.458-7.726-7.726-7.726z" fill="#ffe177"/><circle cx="394.513" cy="62.462" fill="#ffd15b" r="7.726"/></g></g></svg>