<svg id="Layer_1" enable-background="new 0 0 68 68" viewBox="0 0 68 68" xmlns="http://www.w3.org/2000/svg"><g><g><g><g><path d="m61.2997055 43.0938034-2.6480026 1.5295258-5.0754929-2.9495659-27.0532436 15.6187706-2.2471085 7.1776886-2.6497307 1.529541-14.8405476-8.624691-.0858703-30.248745c-.0033727-1.0342808.3756423-2.184803.9820819-3.1904621.5592275-.929842 1.310513-1.7384052 2.141006-2.2168102l33.4088961-19.2893226c.8708763-.5019805 1.6591759-.5491518 2.2286034-.2189841l14.8068237 8.6061544c.0117607.0050583.0218773.0117931.0337219.0185375.5625992.3267956.9112625 1.020812.9129906 2.0096188z" fill="#ffd86a"/></g></g><g><path d="m41.529335 31.4366131 2.2815705 4.56254 14.8404655 8.624321-2.2816544-4.5625381z" fill="#f7b92f"/><g><path d="m58.0724907 11.0540218c1.7294273-.9984846 3.1364288-.1978912 3.142067 1.7905636l.0857544 30.2495079-2.6489601 1.5293808-2.281601-4.5625343-29.8462887 17.2317619-2.2472687 7.1772766-2.6500683 1.5300217-.0857582-30.2495117c-.0056362-1.9884529 1.392292-4.408474 3.1227703-5.4075661z" fill="#ffd86a"/></g><g><path d="m6.6999555 27.1261635.0857062 30.2495155 14.8404655 8.624321-.0857887-30.2495155c-.0028782-1.0343094.3760529-2.1840019.9819183-3.1911392l-14.840466-8.6243115c-.605864 1.0071373-.9847965 2.1568184-.9818353 3.1911297z" fill="#f2aa19"/><path d="m45.4607048 2.211314c-.5695076-.3309593-1.3582993-.2841377-2.2286835.2183878l-33.4093074 19.2889013c-.830328.4794025-1.5820246 1.2873688-2.140923 2.2164307l14.8404655 8.6243114c.5588989-.9290619 1.3105125-1.7370167 2.1408405-2.2164192l33.4093895-19.2889023c.8703842-.5025253 1.6591759-.5493469 2.2286835-.2183876z" fill="#f7b92f"/></g></g></g><g><g><path d="m57.8344765 21.4859295c.6625061-.3824959 1.2020073-.0750504 1.2041664.686224l.0106583 3.759407c.0021553.7612743-.5338478 1.6884251-1.1963501 2.0709209l-33.689024 19.4503689c-.6636105.3831367-1.2020016.0762863-1.2041588-.6849899l-.0106583-3.7594032c-.0021591-.7612762.532732-1.6890221 1.1963444-2.0721588z" fill="#f2aa19"/></g><g><path d="m57.8581467 29.8339901c.6625023-.3824959 1.2020035-.0750504 1.2041626.686224l.0106583 3.759407c.0021553.7612724-.533844 1.6884232-1.1963463 2.070919l-33.6890259 19.450367c-.6636124.3831367-1.2020016.0762863-1.2041607-.6849861l-.0106583-3.7594032c-.0021572-.7612762.532732-1.6890221 1.1963444-2.0721588z" fill="#f2aa19"/></g><g><path d="m57.8108139 13.1391096c.6625023-.3824968 1.2020035-.0762863 1.2041626.684988l.0106583 3.7594061c.0021553.7612743-.533844 1.6896629-1.1963463 2.0721588l-33.6890259 19.450367c-.6636105.3831367-1.2020054.0750504-1.2041626-.6862259l-.0106583-3.7594032c-.0021591-.7612762.5327358-1.6877861 1.1963463-2.0709229z" fill="#f2aa19"/></g></g><g><g><g><path d="m58.2319412 13.4479361c.6625023-.3824959 1.2020035-.0762863 1.2041626.684989l.0106583 3.7594051c.0021553.7612743-.533844 1.6896629-1.1963463 2.0721588l-33.689024 19.450367c-.6636105.3831367-1.2020054.0750504-1.2041626-.6862221l-.0106583-3.759407c-.0021591-.7612762.5327358-1.6877861 1.1963463-2.0709229z" fill="#423751"/></g><g><path d="m59.446743 17.8918438c.0017281.7614021-.5339775 1.6895695-1.1960182 2.0719547l-33.6901951 19.4510308c-.6619606.3823853-1.2010365.0758057-1.2026806-.6855965l-.0118446-3.7598267c-.0016441-.7613907.5340595-1.6878738 1.1976643-2.0719452l7.8565769-4.5363846c.9449844.4514484 2.0466614.7091827 3.2241745.7091827 3.503746 0 6.3455353-2.2875671 6.3455353-5.1091213 0-.3588009-.0454865-.7091827-.1347275-1.0460835l16.3969917-9.4669371c.6620407-.3823872 1.2010345-.0758057 1.2044067.685586z" fill="#312944"/></g></g></g><g><g><path d="m58.2319412 21.7950115c.6625023-.3824959 1.2020035-.0762863 1.2041626.684988l.0106583 3.7594051c.0021553.7612743-.533844 1.6896629-1.1963463 2.0721588l-33.689024 19.450369c-.6636105.3831367-1.2020054.0750504-1.2041626-.6862259l-.0106583-3.759407c-.0021591-.7612724.5327358-1.6877861 1.1963463-2.070919z" fill="#423751"/></g><g><path d="m59.446743 26.2389183c.0017281.7614021-.5339775 1.6895695-1.1960182 2.0719566l-33.6901951 19.451027c-.6619606.3823891-1.2010365.0758057-1.2026806-.6855965l-.0118446-3.7598267c-.0016441-.7613907.5340595-1.68787 1.1976643-2.0719452l7.8565769-4.5363808c.9449844.4514465 2.0466614.7091827 3.2241745.7091827 3.503746 0 6.3455353-2.2875671 6.3455353-5.1091232 0-.3588009-.0454865-.7091827-.1347275-1.0460835l16.3969917-9.466938c.6620407-.3823853 1.2010345-.0758038 1.2044067.6855869z" fill="#312944"/></g></g><g><g><path d="m58.2319412 30.142086c.6625023-.3824959 1.2020035-.0762863 1.2041626.684988l.0106583 3.7594051c.0021553.7612762-.533844 1.6896629-1.1963463 2.0721588l-33.689024 19.4503671c-.6636105.3831367-1.2020054.0750504-1.2041626-.6862221l-.0106583-3.759407c-.0021591-.7612762.5327358-1.6877861 1.1963463-2.0709229z" fill="#423751"/></g><g><path d="m59.446743 34.5859947c.0017281.7614021-.5339775 1.6895676-1.1960182 2.0719528l-33.6901951 19.4510308c-.6619606.3823891-1.2010365.0758057-1.2026806-.6855965l-.0118446-3.7598267c-.0016441-.7613907.5340595-1.6878738 1.1976643-2.0719452l7.8565769-4.5363846c.9449844.4514465 2.0466614.7091827 3.2241745.7091827 3.503746 0 6.3455353-2.2875671 6.3455353-5.1091194 0-.3588028-.0454865-.7091827-.1347275-1.0460854l16.3969917-9.4669361c.6620407-.3823872 1.2010345-.0758057 1.2044067.685585z" fill="#312944"/></g></g><g><g><g><g><path d="m26.6922493 33.7938766c.5058327-.2920456.9179859-.0572205.9196339.5240555.0016537.582798-.4078236 1.2919884-.9136581 1.5840302-.5059052.2920837-.9179878.0572243-.9196396-.5255737-.001648-.5812798.4077586-1.2904282.9136638-1.582512z" fill="#28223d"/></g><g><path d="m55.8475952 16.9610291c.5058327-.2920437.9192772-.0579662.9209251.5233116.0016518.582798-.4091148 1.2927322-.9149513 1.5847759-.5059052.2920837-.917984.0572224-.9196396-.5255756-.0016479-.5812779.4077607-1.2904282.9136658-1.5825119z" fill="#28223d"/></g></g><g><g><g><path d="m56.0932503 17.0031414c.5058365-.2920437.9192772-.0579643.9209251.5233116.0016556.582798-.4091148 1.2927322-.9149475 1.5847759-.5059052.2920837-.9179878.0572224-.9196396-.5255756-.0016479-.5812778.4077568-1.2904262.913662-1.5825119z" fill="#edeef2"/></g><g><path d="m57.014183 17.5263081c.0016441.5828438-.4093666 1.2937031-.9147186 1.5851307-.505352.2914162-.9180107.0572662-.919735-.525568 0-.1347675.0202332-.2745743.0606194-.4160786.0573273.0151653.1179466.0219002.180294.0219002.4312439 0 .7799072-.3486958.7799072-.778244 0-.1482372-.0421104-.2880535-.1144943-.4059715.0016441-.0016766.0050163-.0033627.0067444-.0050488.507-.2914162.919735-.0572777.9213829.52388z" fill="#e0e1ec"/></g></g></g></g><g><g><path d="m26.8144321 33.7941017c.5058346-.2920418.9192772-.0579643.9209251.5233116.0016537.582798-.4091148 1.2927322-.9149475 1.5847778-.5059052.2920837-.9179878.0572205-.9196396-.5255775-.0016479-.5812759.4077569-1.2904281.913662-1.5825119z" fill="#edeef2"/></g><g><path d="m27.735363 34.3172684c.0016441.5828438-.4093666 1.293705-.9147186 1.5851288-.505352.29142-.9180088.0572701-.919735-.5255661 0-.1347656.0202332-.2745743.0606194-.4160767.0573292.0151634.1179485.0219002.180294.0219002.4312439 0 .7799091-.3486977.7799091-.778244 0-.1482391-.0421124-.2880554-.1144943-.4059715.0016441-.0016785.0050163-.0033646.0067444-.0050507.5069981-.2914162.919735-.0572777.921381.52388z" fill="#e0e1ec"/></g></g></g><g><g><g><g><path d="m26.6922493 42.1408386c.5058327-.2920456.9179859-.0572205.9196339.5240555.0016537.582798-.4078236 1.2919884-.9136581 1.5840302-.5059052.2920837-.9179878.0572243-.9196396-.5255737-.001648-.5812798.4077586-1.2904282.9136638-1.582512z" fill="#28223d"/></g><g><path d="m55.8475952 25.307991c.5058327-.2920437.9192772-.0579662.9209251.5233116.0016518.582798-.4091148 1.2927322-.9149513 1.584774-.5059052.2920856-.917984.0572224-.9196396-.5255737-.0016479-.5812778.4077607-1.2904281.9136658-1.5825119z" fill="#28223d"/></g></g><g><g><g><path d="m56.0932503 25.3501034c.5058365-.2920437.9192772-.0579662.9209251.5233116.0016556.582798-.4091148 1.2927322-.9149475 1.5847759-.5059052.2920837-.9179878.0572224-.9196396-.5255756-.0016479-.5812779.4077568-1.2904282.913662-1.5825119z" fill="#edeef2"/></g><g><path d="m57.014183 25.87327c.0016441.5828438-.4093666 1.2937031-.9147186 1.5851288-.505352.2914181-.9180107.0572681-.919735-.5255661 0-.1347694.0202332-.2745762.0606194-.4160786.0573273.0151653.1179466.0219002.180294.0219002.4312439 0 .7799072-.3486958.7799072-.778244 0-.1482372-.0421104-.2880554-.1144943-.4059715.0016441-.0016766.0050163-.0033627.0067444-.0050488.507-.2914161.919735-.0572776.9213829.52388z" fill="#e0e1ec"/></g></g></g></g><g><g><path d="m26.8144321 42.1410637c.5058346-.2920418.9192772-.0579643.9209251.5233116.0016537.582798-.4091148 1.2927322-.9149475 1.584774-.5059052.2920876-.9179878.0572243-.9196396-.5255737-.0016479-.5812759.4077569-1.2904282.913662-1.5825119z" fill="#edeef2"/></g><g><path d="m27.735363 42.6642303c.0016441.5828438-.4093666 1.2937012-.9147186 1.5851288-.505352.2914162-.9180088.0572701-.919735-.5255661 0-.1347694.0202332-.2745743.0606194-.4160767.0573292.0151634.1179485.0218964.180294.0218964.4312439 0 .7799091-.3486938.7799091-.7782402 0-.1482391-.0421124-.2880554-.1144943-.4059753.0016441-.0016747.0050163-.0033607.0067444-.0050468.5069981-.2914162.919735-.0572777.921381.5238799z" fill="#e0e1ec"/></g></g></g><g><g><g><g><path d="m26.6922493 50.4879112c.5058327-.2920418.9179859-.0572205.9196339.5240593.0016537.5827942-.4078236 1.2919846-.9136581 1.5840302-.5059052.2920837-.9179878.0572205-.9196396-.5255775-.001648-.581276.4077586-1.2904244.9136638-1.582512z" fill="#28223d"/></g><g><path d="m55.8475952 33.6550636c.5058327-.2920418.9192772-.0579643.9209251.5233154.0016518.5827942-.4091148 1.2927284-.9149513 1.584774-.5059052.2920837-.917984.0572205-.9196396-.5255775-.0016479-.5812759.4077607-1.2904243.9136658-1.5825119z" fill="#28223d"/></g></g><g><g><g><path d="m56.0932503 33.6971779c.5058365-.2920418.9192772-.0579643.9209251.5233116.0016556.582798-.4091148 1.2927322-.9149475 1.584774-.5059052.2920876-.9179878.0572243-.9196396-.5255737-.0016479-.581276.4077568-1.2904282.913662-1.5825119z" fill="#edeef2"/></g><g><path d="m57.014183 34.2203445c.0016441.5828438-.4093666 1.2937012-.9147186 1.5851288-.505352.2914162-.9180107.0572701-.919735-.5255661 0-.1347694.0202332-.2745743.0606194-.4160767.0573273.0151634.1179466.0218964.180294.0218964.4312439 0 .7799072-.3486938.7799072-.7782402 0-.1482391-.0421104-.2880554-.1144943-.4059753.0016441-.0016747.0050163-.0033607.0067444-.0050468.507-.2914162.919735-.0572777.9213829.5238799z" fill="#e0e1ec"/></g></g></g></g><g><g><path d="m26.8144321 50.4881401c.5058346-.2920456.9192772-.0579681.9209251.5233116.0016537.582798-.4091148 1.2927322-.9149475 1.584774-.5059052.2920837-.9179878.0572243-.9196396-.5255737-.0016479-.5812797.4077569-1.2904282.913662-1.5825119z" fill="#edeef2"/></g><g><path d="m27.735363 51.0113068c.0016441.5828438-.4093666 1.2937012-.9147186 1.5851288-.505352.2914162-.9180088.0572662-.919735-.5255661 0-.1347694.0202332-.2745781.0606194-.4160805.0573292.0151672.1179485.0219002.180294.0219002.4312439 0 .7799091-.3486938.7799091-.778244 0-.1482353-.0421124-.2880554-.1144943-.4059715.0016441-.0016747.0050163-.0033607.0067444-.0050468.5069981-.2914201.919735-.0572778.921381.5238799z" fill="#e0e1ec"/></g></g></g></g></svg>