<svg id="Layer_10" enable-background="new 0 0 512 512" viewBox="0 0 512 512" xmlns="http://www.w3.org/2000/svg" xmlns:xlink="http://www.w3.org/1999/xlink"><radialGradient id="SVGID_1_" cx="261.892" cy="305.538" gradientTransform="matrix(.96 0 0 -.96 -52.59 505.27)" gradientUnits="userSpaceOnUse" r="264.56"><stop offset="0" stop-color="#94a3ad"/><stop offset="1" stop-color="#3e5959"/></radialGradient><radialGradient id="SVGID_00000131336941646789439870000018065939029122953919_" cx="216.762" cy="304.578" gradientTransform="matrix(.96 0 0 -.96 -52.59 505.27)" gradientUnits="userSpaceOnUse" r="358.51"><stop offset="0" stop-color="#433f43" stop-opacity="0"/><stop offset=".77" stop-color="#1a1a1a"/><stop offset=".86" stop-color="#1f1f1f" stop-opacity=".86"/><stop offset=".95" stop-color="#312f31" stop-opacity=".42"/><stop offset="1" stop-color="#433f43" stop-opacity="0"/></radialGradient><linearGradient id="lg1"><stop offset="0" stop-color="#433f43" stop-opacity="0"/><stop offset=".41" stop-color="#373537" stop-opacity=".27"/><stop offset="1" stop-color="#1a1a1a"/></linearGradient><linearGradient id="SVGID_00000152957771330009450870000014573099766825467279_" gradientTransform="matrix(1 0 0 -1 0 514)" gradientUnits="userSpaceOnUse" x1="302.981" x2="364.291" xlink:href="#lg1" y1="404.276" y2="394.656"/><linearGradient id="SVGID_00000049222207414960272870000009230121713434714754_" gradientTransform="matrix(1 0 0 -1 0 514)" gradientUnits="userSpaceOnUse" x1="355.255" x2="355.255" xlink:href="#lg1" y1="296.31" y2="351.66"/><radialGradient id="SVGID_00000078003879692072617760000011657966746018081440_" cx="283.922" cy="301.178" gradientTransform="matrix(.96 0 0 -.96 -64.79 515.14)" gradientUnits="userSpaceOnUse" r="203.33"><stop offset="0" stop-color="#b3dafe"/><stop offset="1" stop-color="#0182fc"/></radialGradient><radialGradient id="SVGID_00000075122404044091577180000008765656628760109188_" cx="249.232" cy="300.438" gradientTransform="matrix(.96 0 0 -.96 -64.79 515.14)" gradientUnits="userSpaceOnUse" r="275.53"><stop offset="0" stop-color="#0182fc" stop-opacity="0"/><stop offset=".77" stop-color="#024c67"/><stop offset=".81" stop-color="#014d6c" stop-opacity=".96"/><stop offset=".86" stop-color="#01537c" stop-opacity=".85"/><stop offset=".9" stop-color="#015e98" stop-opacity=".67"/><stop offset=".95" stop-color="#016cbf" stop-opacity=".41"/><stop offset=".99" stop-color="#017ef1" stop-opacity=".07"/><stop offset="1" stop-color="#0182fc" stop-opacity="0"/></radialGradient><linearGradient id="lg2"><stop offset="0" stop-color="#0182fc" stop-opacity="0"/><stop offset=".16" stop-color="#017ef2" stop-opacity=".07"/><stop offset=".4" stop-color="#0174d6" stop-opacity=".25"/><stop offset=".68" stop-color="#0163a8" stop-opacity=".56"/><stop offset=".99" stop-color="#014d69" stop-opacity=".98"/><stop offset="1" stop-color="#024c67"/></linearGradient><linearGradient id="SVGID_00000076590560401949345390000006407775796014237857_" gradientTransform="matrix(1 0 0 -1 0 514)" gradientUnits="userSpaceOnUse" x1="336.045" x2="304.395" xlink:href="#lg2" y1="267.835" y2="299.495"/><linearGradient id="SVGID_00000165229883719110743810000001017263720851482778_" gradientTransform="matrix(1 0 0 -1 0 514)" gradientUnits="userSpaceOnUse" x1="342.874" x2="346.084" xlink:href="#lg2" y1="341.01" y2="364.18"/><radialGradient id="SVGID_00000154420099084393059270000009519258738333667230_" cx="294.122" cy="285.248" gradientTransform="matrix(.96 0 0 -.96 -64.79 515.14)" gradientUnits="userSpaceOnUse" r="136.59"><stop offset="0" stop-color="#fe646f"/><stop offset="1" stop-color="#e41f2d"/></radialGradient><radialGradient id="SVGID_00000174568028591121998620000003467274999130793136_" cx="270.822" cy="284.748" gradientTransform="matrix(.96 0 0 -.96 -64.79 515.14)" gradientUnits="userSpaceOnUse" r="185.09"><stop offset="0" stop-color="#a72b2b" stop-opacity="0"/><stop offset=".77" stop-color="#a72b2b"/><stop offset=".8" stop-color="#a72b2b" stop-opacity=".98"/><stop offset=".84" stop-color="#a72b2b" stop-opacity=".91"/><stop offset=".88" stop-color="#a72b2b" stop-opacity=".79"/><stop offset=".91" stop-color="#a72b2b" stop-opacity=".63"/><stop offset=".95" stop-color="#a72b2b" stop-opacity=".43"/><stop offset=".98" stop-color="#a72b2b" stop-opacity=".18"/><stop offset="1" stop-color="#a72b2b" stop-opacity="0"/></radialGradient><linearGradient id="SVGID_00000132058257788362795740000003130689020796621226_" gradientTransform="matrix(1 0 0 -1 0 514)" gradientUnits="userSpaceOnUse" x1="317.385" x2="288.365" y1="243.845" y2="272.865"><stop offset="0" stop-color="#a72b2b" stop-opacity="0"/><stop offset=".12" stop-color="#a72b2b" stop-opacity=".04"/><stop offset=".29" stop-color="#a72b2b" stop-opacity=".15"/><stop offset=".48" stop-color="#a72b2b" stop-opacity=".33"/><stop offset=".7" stop-color="#a72b2b" stop-opacity=".59"/><stop offset=".94" stop-color="#a72b2b" stop-opacity=".91"/><stop offset="1" stop-color="#a72b2b"/></linearGradient><radialGradient id="SVGID_00000147183423697469136020000016122734705610187695_" cx="227.55" cy="257.85" gradientTransform="matrix(1 0 0 -1 0 514)" gradientUnits="userSpaceOnUse" r="72.27"><stop offset="0" stop-color="#fef0ae"/><stop offset=".12" stop-color="#fdeea7"/><stop offset=".28" stop-color="#fdea96"/><stop offset=".46" stop-color="#fce37a"/><stop offset=".66" stop-color="#fbda53"/><stop offset=".87" stop-color="#face22"/><stop offset="1" stop-color="#fac600"/></radialGradient><radialGradient id="SVGID_00000069380371012648854010000001996109637624139413_" cx="215.22" cy="257.58" gradientTransform="matrix(1 0 0 -1 0 514)" gradientUnits="userSpaceOnUse" r="97.93"><stop offset="0" stop-color="#fe9738" stop-opacity="0"/><stop offset=".22" stop-color="#fe9738" stop-opacity="0"/><stop offset=".33" stop-color="#fe9738" stop-opacity=".04"/><stop offset=".43" stop-color="#fe9738" stop-opacity=".09"/><stop offset=".5" stop-color="#fe9738" stop-opacity=".17"/><stop offset=".58" stop-color="#fe9738" stop-opacity=".27"/><stop offset=".64" stop-color="#fe9738" stop-opacity=".39"/><stop offset=".7" stop-color="#fe9738" stop-opacity=".53"/><stop offset=".76" stop-color="#fe9738" stop-opacity=".7"/><stop offset=".81" stop-color="#fe9738" stop-opacity=".88"/><stop offset=".84" stop-color="#fe9738"/><stop offset=".87" stop-color="#fe9738" stop-opacity=".99"/><stop offset=".89" stop-color="#fe9738" stop-opacity=".95"/><stop offset=".91" stop-color="#fe9738" stop-opacity=".88"/><stop offset=".92" stop-color="#fe9738" stop-opacity=".79"/><stop offset=".94" stop-color="#fe9738" stop-opacity=".66"/><stop offset=".96" stop-color="#fe9738" stop-opacity=".51"/><stop offset=".98" stop-color="#fe9738" stop-opacity=".34"/><stop offset=".99" stop-color="#fe9738" stop-opacity=".14"/><stop offset="1" stop-color="#fe9738" stop-opacity=".01"/></radialGradient><linearGradient id="SVGID_00000096034599871251391320000010600308101184282293_" gradientTransform="matrix(1 0 0 -1 0 514)" gradientUnits="userSpaceOnUse" x1="290.485" x2="263.005" y1="231.405" y2="258.885"><stop offset="0" stop-color="#fe9738" stop-opacity="0"/><stop offset=".1" stop-color="#fe9738" stop-opacity=".02"/><stop offset=".23" stop-color="#fe9738" stop-opacity=".08"/><stop offset=".36" stop-color="#fe9738" stop-opacity=".17"/><stop offset=".5" stop-color="#fe9738" stop-opacity=".31"/><stop offset=".65" stop-color="#fe9738" stop-opacity=".48"/><stop offset=".81" stop-color="#fe9738" stop-opacity=".69"/><stop offset=".96" stop-color="#fe9738" stop-opacity=".94"/><stop offset="1" stop-color="#fe9738"/></linearGradient><linearGradient id="lg3"><stop offset="0" stop-color="#c9f6b0"/><stop offset="1" stop-color="#0ab69f"/></linearGradient><linearGradient id="SVGID_00000052795456560193045000000011499396746358034864_" gradientTransform="matrix(-.707 .707 -.707 -.707 -3508.787 1967.389)" gradientUnits="userSpaceOnUse" x1="-4093.286" x2="-4093.286" xlink:href="#lg3" y1="-1392.566" y2="-1447.336"/><linearGradient id="SVGID_00000003098049678442398580000002643401227200156058_" gradientTransform="matrix(1 0 0 -1 0 514)" gradientUnits="userSpaceOnUse" x1="402.63" x2="376.26" xlink:href="#lg3" y1="485.71" y2="391.96"/><linearGradient id="SVGID_00000084511213423075179670000013453637532423241137_" gradientTransform="matrix(-.707 .707 .707 .707 -2903.479 2572.688)" gradientUnits="userSpaceOnUse" x1="-4093.276" x2="-4093.276" xlink:href="#lg3" y1="655.356" y2="600.586"/><linearGradient id="SVGID_00000027596106156453930950000011378412594089873060_" gradientTransform="matrix(1 0 0 -1 0 514)" gradientUnits="userSpaceOnUse" x1="430.808" x2="444.118" xlink:href="#lg3" y1="422.74" y2="347.89"/><linearGradient id="lg4"><stop offset="0" stop-color="#037e73" stop-opacity="0"/><stop offset=".15" stop-color="#037e73" stop-opacity=".04"/><stop offset=".34" stop-color="#037e73" stop-opacity=".16"/><stop offset=".55" stop-color="#037e73" stop-opacity=".36"/><stop offset=".77" stop-color="#037e73" stop-opacity=".64"/><stop offset="1" stop-color="#037e73"/></linearGradient><linearGradient id="SVGID_00000041274793768998943410000004114054794092645538_" gradientTransform="matrix(-.707 .707 -.707 -.707 -3508.787 1967.389)" gradientUnits="userSpaceOnUse" x1="-4080.64" x2="-4048.71" xlink:href="#lg4" y1="-1415.793" y2="-1415.793"/><linearGradient id="SVGID_00000131339125856726791800000017546171893692950402_" gradientTransform="matrix(-.707 .707 -.707 -.707 -3508.787 1967.389)" gradientUnits="userSpaceOnUse" x1="-4115.28" x2="-4075" xlink:href="#lg4" y1="-1415.793" y2="-1415.793"/><linearGradient id="SVGID_00000148659046827357949750000009268648191068255883_" gradientTransform="matrix(-.707 .707 -.707 -.707 -3508.787 1967.389)" gradientUnits="userSpaceOnUse" x1="-4143.06" x2="-4109.3" xlink:href="#lg4" y1="-1415.793" y2="-1415.793"/><linearGradient id="SVGID_00000072264122843318837100000014208200294430410898_" gradientTransform="matrix(1 0 0 -1 0 514)" gradientUnits="userSpaceOnUse" x1="389.953" x2="403.853" xlink:href="#lg4" y1="432.483" y2="417.163"/><linearGradient id="SVGID_00000030468747844078111140000002219606349044190370_" gradientTransform="matrix(-.707 .707 .707 .707 -2903.479 2572.688)" gradientUnits="userSpaceOnUse" x1="-4080.64" x2="-4048.71" xlink:href="#lg4" y1="632.123" y2="632.123"/><linearGradient id="SVGID_00000121281481009246511240000003694769692845106064_" gradientTransform="matrix(-.707 .707 .707 .707 -2903.479 2572.688)" gradientUnits="userSpaceOnUse" x1="-4115.28" x2="-4075" xlink:href="#lg4" y1="632.123" y2="632.123"/><linearGradient id="SVGID_00000146482006063059442410000005499232955321516476_" gradientTransform="matrix(-.707 .707 .707 .707 -2903.479 2572.688)" gradientUnits="userSpaceOnUse" x1="-4143.06" x2="-4109.3" xlink:href="#lg4" y1="632.123" y2="632.123"/><linearGradient id="SVGID_00000071532498498518422470000006447159927162935182_" gradientTransform="matrix(-.707 .707 .707 .707 -2903.479 2572.688)" gradientUnits="userSpaceOnUse" x1="-4090.225" x2="-4090.225" xlink:href="#lg4" y1="637.846" y2="597.386"/><linearGradient id="SVGID_00000142897796568290340480000006300809508402396827_" gradientTransform="matrix(-.707 .707 -.707 -.707 -3508.787 1967.389)" gradientUnits="userSpaceOnUse" x1="-4093.283" x2="-4093.283" xlink:href="#lg4" y1="-1507.146" y2="-1523.936"/><linearGradient id="SVGID_00000077324621192474604950000006729383465218666931_" gradientTransform="matrix(-.707 .707 -.707 -.707 -3508.787 1967.39)" gradientUnits="userSpaceOnUse" x1="-3992.636" x2="-3992.636" y1="-1447.306" y2="-1461.016"><stop offset="0" stop-color="#eaf6ff"/><stop offset="1" stop-color="#b4d2e2"/></linearGradient><g><g><g><path d="m240.7 512c-1.4 0-2.9 0-4.3 0-130.3-.3-236.1-106.1-236.4-236.5 0-1.4 0-2.9 0-4.3.3-130.3 106.1-236.1 236.5-236.4h4.3c130.4.3 236.2 106.1 236.5 236.5v4.3c-.4 130.3-106.2 236.1-236.6 236.4z" fill="url(#SVGID_1_)"/><path d="m240.7 512c-1.4 0-2.9 0-4.3 0-130.3-.3-236.1-106.1-236.4-236.5 0-1.4 0-2.9 0-4.3.3-130.3 106.1-236.1 236.5-236.4h4.3c130.4.3 236.2 106.1 236.5 236.5v4.3c-.4 130.3-106.2 236.1-236.6 236.4z" fill="url(#SVGID_00000131336941646789439870000018065939029122953919_)" opacity=".25"/><path d="m368.1 72.3c-36.8-23.7-80.5-37.4-127.4-37.5-1.4 0-2.9 0-4.3 0-2.7 0-5.4.1-8.1.2v131h139.7v-93.7z" fill="url(#SVGID_00000152957771330009450870000014573099766825467279_)"/><path d="m233.3 278.7 169 169c45.9-43.1 74.7-104.3 74.9-172.2 0-1.4 0-2.9 0-4.3-.2-65.2-26.7-124.2-69.5-167z" fill="url(#SVGID_00000049222207414960272870000009230121713434714754_)"/></g><g><path d="m240.2 456.8c-1.1 0-2.2 0-3.3 0-100.1-.3-181.4-81.6-181.7-181.8 0-1.1 0-2.2 0-3.3.3-100.1 81.6-181.4 181.8-181.7h3.3c100.2.2 181.5 81.5 181.7 181.7v3.3c-.3 100.2-81.6 181.5-181.8 181.8z" fill="url(#SVGID_00000078003879692072617760000011657966746018081440_)"/><path d="m240.2 456.8c-1.1 0-2.2 0-3.3 0-100.1-.3-181.4-81.6-181.7-181.8 0-1.1 0-2.2 0-3.3.3-100.1 81.6-181.4 181.8-181.7h3.3c100.2.2 181.5 81.5 181.7 181.7v3.3c-.3 100.2-81.6 181.5-181.8 181.8z" fill="url(#SVGID_00000075122404044091577180000008765656628760109188_)" opacity=".25"/><path d="m233.3 278.7 129.9 129.9c36-33.2 58.7-80.7 58.8-133.5 0-1.1 0-2.2 0-3.3-.1-50.1-20.5-95.5-53.4-128.4z" fill="url(#SVGID_00000076590560401949345390000006407775796014237857_)"/><path d="m233.3 278.7 129.9 129.9c36-33.2 58.7-80.7 58.8-133.5 0-1.1 0-2.2 0-3.3-.1-50.1-20.5-95.5-53.4-128.4z" fill="url(#SVGID_00000165229883719110743810000001017263720851482778_)"/></g><g><path d="m239.7 396.6c-.7 0-1.5 0-2.2 0-67.3-.2-121.9-54.8-122.1-122.1 0-.7 0-1.5 0-2.2.2-67.3 54.8-121.9 122.1-122.1h2.2c67.3.2 121.9 54.8 122.1 122.1v2.2c-.2 67.3-54.8 121.9-122.1 122.1z" fill="url(#SVGID_00000154420099084393059270000009519258738333667230_)"/><path d="m239.7 396.6c-.7 0-1.5 0-2.2 0-67.3-.2-121.9-54.8-122.1-122.1 0-.7 0-1.5 0-2.2.2-67.3 54.8-121.9 122.1-122.1h2.2c67.3.2 121.9 54.8 122.1 122.1v2.2c-.2 67.3-54.8 121.9-122.1 122.1z" fill="url(#SVGID_00000174568028591121998620000003467274999130793136_)" opacity=".25"/><path d="m320.5 365.8c25.3-22.4 41.2-55 41.3-91.3 0-.7 0-1.5 0-2.2-.1-33.6-13.8-64.1-35.9-86.2l-92.6 92.6z" fill="url(#SVGID_00000132058257788362795740000003130689020796621226_)"/></g><g><path d="m239.2 341.1c-.4 0-.8 0-1.2 0-37-.1-67-30.1-67.1-67.1 0-.4 0-.8 0-1.2.1-37 30.1-67 67.1-67.1h1.2c37 .1 67 30.1 67.1 67.1v1.2c-.1 37-30.1 67-67.1 67.1z" fill="url(#SVGID_00000147183423697469136020000016122734705610187695_)"/><path d="m239.2 341.1c-.4 0-.8 0-1.2 0-37-.1-67-30.1-67.1-67.1 0-.4 0-.8 0-1.2.1-37 30.1-67 67.1-67.1h1.2c37 .1 67 30.1 67.1 67.1v1.2c-.1 37-30.1 67-67.1 67.1z" fill="url(#SVGID_00000069380371012648854010000001996109637624139413_)"/><path d="m281 326.4c15.4-12.3 25.2-31.2 25.3-52.4 0-.4 0-.8 0-1.2 0-18.5-7.6-35.2-19.7-47.4l-53.3 53.3z" fill="url(#SVGID_00000096034599871251391320000010600308101184282293_)"/></g></g><g><g><g><path d="m361.6 150.4 79.7-79.7-24.7-67.4c-1.3-3.5-5.8-4.5-8.4-1.9l-63.2 63.2c-6.6 6.6-8.7 16.3-5.5 25z" fill="url(#SVGID_00000052795456560193045000000011499396746358034864_)"/><path d="m361.6 150.4 79.7-79.7-24.7-67.4c-1.3-3.5-5.8-4.5-8.4-1.9l-63.2 63.2c-6.6 6.6-8.7 16.3-5.5 25z" fill="url(#SVGID_00000003098049678442398580000002643401227200156058_)"/></g><g><path d="m361.6 150.4 79.7-79.7 67.3 24.7c3.5 1.3 4.5 5.8 1.9 8.4l-63.2 63.3c-6.6 6.6-16.3 8.7-25 5.5z" fill="url(#SVGID_00000084511213423075179670000013453637532423241137_)"/><path d="m361.6 150.4 79.7-79.7 67.3 24.7c3.5 1.3 4.5 5.8 1.9 8.4l-63.2 63.3c-6.6 6.6-16.3 8.7-25 5.5z" fill="url(#SVGID_00000027596106156453930950000011378412594089873060_)"/></g></g><path d="m363.1 46.6 45.1-45.1c2.6-2.6 7.1-1.6 8.4 1.8l24.7 67.3-61.5 61.5-22.2-60.6c-3.2-8.6-1.1-18.3 5.5-24.9z" fill="url(#SVGID_00000041274793768998943410000004114054794092645538_)"/><path d="m384.2 25.4 23.9-23.9c2.6-2.6 7.1-1.6 8.4 1.8l24.7 67.3-40.2 40.4-22.2-60.6c-3.3-8.6-1.1-18.4 5.4-25z" fill="url(#SVGID_00000131339125856726791800000017546171893692950402_)"/><path d="m405.4 4.2 2.8-2.8c2.6-2.6 7.1-1.6 8.4 1.8l24.7 67.3-19.2 19.2-22.2-60.6c-3.2-8.5-1-18.3 5.5-24.9z" fill="url(#SVGID_00000148659046827357949750000009268648191068255883_)"/><path d="m441.3 70.7-79.7 79.7-20.1-54.8 79.7-79.7z" fill="url(#SVGID_00000072264122843318837100000014208200294430410898_)"/><path d="m465.4 148.9 45.1-45.1c2.6-2.6 1.7-7.1-1.9-8.4l-67.3-24.7-61.5 61.5 60.6 22.2c8.7 3.2 18.4 1.1 25-5.5z" fill="url(#SVGID_00000030468747844078111140000002219606349044190370_)"/><path d="m486.6 127.8 23.9-23.9c2.6-2.6 1.7-7.1-1.9-8.4l-67.3-24.7-40.3 40.2 60.6 22.2c8.6 3.3 18.4 1.1 25-5.4z" fill="url(#SVGID_00000121281481009246511240000003694769692845106064_)"/><path d="m507.8 106.6 2.8-2.8c2.6-2.6 1.7-7.1-1.9-8.4l-67.3-24.7-19.2 19.2 60.6 22.2c8.6 3.2 18.4 1 25-5.5z" fill="url(#SVGID_00000146482006063059442410000005499232955321516476_)"/><path d="m441.3 70.7-79.7 79.7 54.8 20.1 79.7-79.7z" fill="url(#SVGID_00000071532498498518422470000006447159927162935182_)"/><path d="m361.6 150.4 79.7-79.7 67.3 24.7c3.5 1.3 4.5 5.8 1.9 8.4l-63.2 63.3c-6.6 6.6-16.3 8.7-25 5.5z" fill="url(#SVGID_00000142897796568290340480000006300809508402396827_)"/><path d="m449 76.4-202.4 202.3c-3.7 3.7-9.7 3.7-13.3 0-3.7-3.7-3.7-9.7 0-13.3l202.3-202.4c3.7-3.7 9.7-3.7 13.3 0 3.7 3.7 3.7 9.7.1 13.4z" fill="url(#SVGID_00000077324621192474604950000006729383465218666931_)"/></g></g></svg>