<svg id="Layer_1" enable-background="new 0 0 64 64" viewBox="0 0 64 64" xmlns="http://www.w3.org/2000/svg" xmlns:xlink="http://www.w3.org/1999/xlink"><linearGradient id="lg1"><stop offset="0" stop-color="#ffd49a"/><stop offset=".2067" stop-color="#fac23b"/><stop offset=".8603" stop-color="#bc7d00"/></linearGradient><linearGradient id="SVGID_1_" gradientUnits="userSpaceOnUse" x1="7.164" x2="26.472" xlink:href="#lg1" y1="10.046" y2="36.652"/><linearGradient id="SVGID_2_" gradientUnits="userSpaceOnUse" x1="25.955" x2="55.016" xlink:href="#lg1" y1="32.149" y2="56.927"/><linearGradient id="SVGID_3_" gradientUnits="userSpaceOnUse" x1="-15.03" x2="44.158" xlink:href="#lg1" y1="43.553" y2="-2.635"/><linearGradient id="SVGID_4_" gradientUnits="userSpaceOnUse" x1="-9.107" x2="49.925" xlink:href="#lg1" y1="50.271" y2="4.204"/><g><path d="m6.6 61.6c-.6 1.1-2 1.7-3.2 1.3-1.1-.4-1.8-1.3-1.8-2.5v-38.9c0-2.1 1.1-4 2.9-5.1l13.5-8c.8-.5 1.8-.5 2.7-.1l4.2 2c.2.1.5.1.7 0l16.5-9.4c.6-.3 1.3.1 1.3.7v40.7c0 1.1.7 2.1 1.8 2.5z" fill="url(#SVGID_1_)"/><path d="m39.8 44.9-32.8 15.4v-35.8l32.8-18.7z" fill="#ddd9d7"/><path d="m35.9 19.2-24.9 14.2v-2.9l24.9-14.1z" fill="#c4c4c4"/><path d="m35.9 28.3-24.9 15.1v-2.9l24.9-15.1z" fill="#c4c4c4"/><path d="m62.2 14.9-37.3 16.2c-1.4.6-2.5 1.6-3.2 2.9l-14.8 27.2-.4.7c-.3.6-.8 1-1.4 1.3l.9-.4 40.9-17.4c.5-.2 1-.6 1.3-1.2l15.2-28.1c.4-.7-.4-1.6-1.2-1.2z" fill="url(#SVGID_2_)"/><g><path d="m25.7 10.2 16.5-9.4c.3-.2.6-.1.8 0-.5-.3-1.3-.3-1.7-.1l-16.6 9.5.2.1c.3 0 .5 0 .8-.1z" fill="url(#SVGID_3_)"/><path d="m61.4 14.1-37.3 16.2c-1.4.6-2.5 1.6-3.2 2.9l-15.3 28.1c-.5.9-1.6 1.3-2.6 1-.9-.3-1.5-1.1-1.5-2v-38.8c0-2.1 1.1-4 2.9-5.1l13.5-8c.6-.3 1.2-.4 1.8-.4-.9-.1-2.2 0-2.8.4l-13.5 8c-1.8 1.1-2.9 3-2.9 5.1v5.2 33.7c0 1.3.9 2.5 2.2 3 .3.1.7.2 1 .2 1.2 0 2.3-.6 2.8-1.7l.4-.7 14.8-27.2c.7-1.3 1.9-2.3 3.2-2.9l37.3-16.2c.6-.3 1.2.1 1.3.7-.1-.8-1.5-1.8-2.1-1.5z" fill="url(#SVGID_4_)"/></g><g fill="#fcd780"><path d="m62.2 14.9c-5.8 2.6-11.6 5.2-17.5 7.8l-17.5 7.7-2.2.9c-.7.3-1.3.7-1.9 1.3-.6.5-1 1.1-1.3 1.8l-1.1 2.1-4.5 8.2c-3 5.5-6.1 11-9.2 16.4 2.9-5.6 5.8-11.1 8.8-16.6l4.4-8.3 1.1-2.1c.4-.7.8-1.4 1.4-2s1.3-1 2-1.4l2.2-1 17.6-7.6c5.9-2.3 11.8-4.8 17.7-7.2z"/><g><path d="m25.7 10.2c2.7-1.7 5.4-3.3 8.2-4.8 2.8-1.6 5.5-3.1 8.3-4.6-2.7 1.7-5.5 3.2-8.2 4.8-2.8 1.6-5.5 3.1-8.3 4.6z"/><path d="m1.6 60.4c-.1-10-.1-20.1-.2-30.2v-7.5c0-.6 0-1.3.1-1.9s.3-1.3.5-1.8c.6-1.2 1.5-2.1 2.7-2.8 4.4-2.6 8.9-5.2 13.3-7.8-4.4 2.7-8.8 5.3-13.2 8-1.1.6-2 1.6-2.5 2.7-.3.6-.4 1.2-.5 1.8s0 1.2 0 1.9v7.5c-.1 10-.1 20-.2 30.1z"/></g></g></g></svg>