<svg id="Layer_1" enable-background="new 0 0 53 53" height="512" viewBox="0 0 53 53" width="512" xmlns="http://www.w3.org/2000/svg"><g id="_x34_"><path d="m35.9726257 25.7406712-.0100098-2.7799683c0-1.0100098-.3699951-1.7700195-1.039978-2.1600342-.6799927-.3800049-1.5300293-.3200073-2.4000244.1900024l-6.0100098 3.4200439-.0099487-5.25 4.4400024-2.5500488c.5099487-.2999878.9400024-1.0700073.9400024-1.6399536-.0003262-.104332-.0304146-9.7811184-.0300293-9.6800537 0-.3147106-.0711594-.4438181-.4199829-.25-.1293278.0746574-9.6154594 5.5507903-9.7700195 5.6400151-.5280094.3057289-.9500122 1.1088085-.9500122 1.6500244.000473.1523418.0314178 10.1175365.0300293 9.6699829 0 .3640766.1338158.420969.4299927.2399902l4.2799683-2.4699707.0200195 5.2399902-5.8499756 3.3300171c-1.6300049.9400024-2.9000244 3.1499634-2.9000244 5.0299664l.0100098 2.6400146-4.289979 2.4699707c2.1420469 1.2448235 5.4868193 3.1885948 5.2999887 3.0800171l4.7199707-2.7199707-4.6799927-2.7200317c-.0100098-1.539978-.0200195-2.6199951-.0200195-2.75 0-1.4899883 1.0900269-3.380003 2.3800049-4.130003l12.8900146-7.3499756c.539978-.2999878 1.039978-.3699951 1.3699951-.1799927s.5200195.6399536.5200195 1.25v3.0899658l-3.9100342 2.2600098c.1013088.0586815 5.6429596 3.2686348 5.3000488 3.0700073l4.7199707-2.710022zm-12.0599975-11.0100098c0-1.3800049.9299927-2.9899902 2.1199951-3.6799927 1.3579445-.7612228 2.6384411-.1193485 2.6600342 1.5200195 0 1.3699951-.9300537 2.9699707-2.1300049 3.6599731-1.2820702.7834989-2.6500244.1225606-2.6500244-1.4999999z"/><path d="m42.2191467 29.6107273c0-.363348-.0996399-.3191166-.3235474-.2295532-.107975.1079731-5.1833 2.9939747-5.3119507 3.0681744-.4801025.2713623-.8870239.9810181-.8974609 1.5236816l.010437.010437c.0001755.1026878.011055 6.4492035.010376 6.0529175 0 .3376579.1025391.3623505.3757324.2086792l5.2702026-3.0473022c.4696045-.2713623.8870239-.9914551.8870239-1.5340576z"/><path d="m16.6194763 19.8739109 3.0786133 1.7949829c-.000351-.104332-.0333195-9.9389153-.031311-9.340271 0-.9765587.6753273-2.087533 1.4714966-2.5463867 13.0056343-7.5115614 8.5130939-4.9168406 9.4863281-5.4789433l-3.0785523-1.794983c-.020874-.010437-.0313721-.010437-.0626221-.010437-.0626221 0-.1565552.020874-.2817993.0939331l-9.7577515 5.6354375c-.5113525.2922363-.949646 1.0645142-.949646 1.6489258l.031311 9.6742554c.0000001.1878052.0417482.3026123.0939332.3234863z"/><path d="m23.5802917 39.493721c-.03125-.0209351-.1356812-.010437-.3026123.0834961l-5.2597656 3.0368652c-.4801025.2713623-.887085.9810181-.897522 1.5236816 0 1.0174255.0205135 5.9614372.020874 6.0633545 0 .309433.0664196.3826447.3756714.2087402l5.2702637-3.0473633c.4696045-.2713623.8870239-.9810181.8870239-1.5236206l-.020874-6.0633545c0-.1774901-.052185-.2713622-.0730591-.2817992z"/><path d="m10.7752981 41.3722.020813 5.1449585c0 .1878662.0522461.2713623.0626221.2817993l5.2284555 3.0368652c-.0002003-.102684-.0111122-5.7325745-.010437-5.3850098-.1012459-.058792-5.644146-3.2776183-5.3014536-3.0786132z"/><path d="m29.9985046 28.9324436c-.2922363.2713013-.5427246.6887207-.6261597 1.0853271.1012764.0587368 5.7778664 3.3509159 5.4163208 3.1412334.130291-.3907471.3800583-.8014717.6261597-1.0853271-.1012802-.0587348-5.7778682-3.3509158-5.4163208-3.1412334z"/><path d="m29.3410339 31.207468.020874 5.1449566c0 .1878662.0521851.2609253.0626221.2817993l5.2284546 3.0368652c-.0001984-.102684-.0111122-5.7325134-.010437-5.3849487-.1012459-.0587921-5.6442051-3.2776794-5.3015137-3.0786724z"/><path d="m11.4327688 39.0971146c-.2922363.2713623-.5427246.6992188-.6262207 1.0853271.1012774.0587387 5.7778654 3.3509827 5.4163218 3.1412964.1250381-.3751144.35709-.7644768.6262207-1.0748901-.1011944-.0588837-5.7775641-3.3619385-5.4163218-3.1517334z"/></g></svg>