<svg enable-background="new 0 0 64 64" height="512" viewBox="0 0 64 64" width="512" xmlns="http://www.w3.org/2000/svg"><g id="Layer_32"><path d="m56 28v4c0 1.1-.9 2-2 2h-48c-1.1 0-2-.9-2-2v-8c0-3.3 2.7-6 6-6h35c1.1 0 2 .9 2 2v2h3c3.3 0 6 2.7 6 6z" fill="#ea3838"/><path d="m56 28v4c0 1.1-.9 2-2 2h-4c1.1 0 2-.9 2-2v-4c0-3.3-2.7-6-6-6h2 2c3.3 0 6 2.7 6 6z" fill="#e20c0c"/><path d="m47 6v26c0 1.1-.9 2-2 2h-30c-1.1 0-2-.9-2-2v-26c0-1.1.9-2 2-2h30c1.1 0 2 .9 2 2z" fill="#ecc04b"/><path d="m45 4h-4c1.1 0 2 .9 2 2v26c0 1.1-.9 2-2 2h4c1.1 0 2-.9 2-2v-26c0-1.1-.9-2-2-2z" fill="#ec9345"/><path d="m40 25h-20v-4h20zm0-10h-20v4h20zm0-6h-20v4h20z" fill="#fff"/><path d="m56 30v24c0 3.3-2.7 6-6 6h-40c-3.3 0-6-2.7-6-6v-24z" fill="#9b99c9"/><path d="m52 30v20c0 3.3-2.7 6-6 6h-40c-.6 0-1.2-.1-1.7-.3.7 2.5 3 4.3 5.7 4.3h40c3.3 0 6-2.7 6-6v-24z" fill="#807dbb"/><path d="m21 53h-10v-4h10z" fill="#fff"/><path d="m60.2 42c0 1.7-.6 3.2-1.8 4.4l-2.5 2.5c-.4.4-.9.6-1.4.6s-1-.2-1.4-.6l-6-6c-.8-.8-.8-2 0-2.8l2.5-2.5c2.4-2.4 6.4-2.4 8.8 0 1.2 1.2 1.8 2.7 1.8 4.4z" fill="#ecc04b"/><path d="m60.2 42c0 1.7-.6 3.2-1.8 4.4l-2.5 2.5c-.4.4-.9.6-1.4.6s-1-.2-1.4-.6l-3-3c.4.4.9.6 1.4.6s1-.2 1.4-.6l2.5-2.5c1.2-1.2 1.8-2.7 1.8-4.4 0-.9-.2-1.8-.6-2.6.6.3 1.2.7 1.8 1.2 1.2 1.2 1.8 2.7 1.8 4.4z" fill="#ec9345"/><path d="m45.4 59.4c-.4.4-.9.6-1.4.6h-6c-1.1 0-2-.9-2-2v-6c0-.5.2-1 .6-1.4l11.9-11.9 8.8 8.8z" fill="#ea3838"/><path d="m54.3 44.5-11.9 11.9c-.4.4-.9.6-1.4.6h-5v1c0 1.1.9 2 2 2h6c.5 0 1-.2 1.4-.6l11.9-11.9z" fill="#e20c0c"/></g></svg>