<svg clip-rule="evenodd" fill-rule="evenodd" height="135" image-rendering="optimizeQuality" shape-rendering="geometricPrecision" text-rendering="geometricPrecision" viewBox="0 0 11942 13433" width="120" xmlns="http://www.w3.org/2000/svg"><g id="Layer_x0020_1"><g id="_461183632"><path d="m6562 163 4789 2765c376 217 591 590 591 1024v5529c0 434-215 807-591 1024l-4789 2765c-376 217-806 217-1182 0l-4789-2765c-376-217-591-590-591-1024v-5529c0-434 215-807 591-1024l4789-2765c376-217 806-217 1182 0z" fill="#00dcab"/><g><path d="m5971 13433h-22c-194-4-388-58-569-163l-4789-2765c-361-208-574-561-590-973v-4317c0-269 146-499 388-612l2397-1121h6370l2397 1121c242 113 388 343 388 612v4317c-16 412-229 765-590 973l-4789 2765c-181 105-375 159-569 163z" fill="#0e4275"/><path d="m5975 13433c3652-6685 3393-9727 3379-9863l-198-88-1202 3417-1983-1666-1983 1666-1202-3417-176 79s-371 3033 3365 9872z" fill="#c4ceda"/><path d="m5975 5238-796 668 407 856-451 5041 830 1592 10 19 10-19 831-1592-452-5041 407-856z" fill="#ff576b"/><path d="m5971 5233-741 780 356 749-3 32h784l-3-32 354-743z" fill="#f2384e"/><path d="m3265 2737-479 745 1202 3839 1983-2088 1983 2088 1202-3839-478-745c-162-251-414-395-712-395h-1995-1995c-298 0-550 144-711 395z" fill="#f5f5f5"/><path d="m5921 5285 50-52 7 7 7-7 50 52c1099-312 2296-1480 2473-2186 97-390-221-672-586-672h-1944-1944c-364 0-683 282-585 672 176 706 1374 1874 2472 2186z" fill="#fff"/><path d="m5971 2552h1943c292 0 562 271 426 590-270 704-1088 1552-2369 2091-1280-539-2099-1387-2368-2091-137-319 133-590 425-590z" fill="#c4ceda"/><g fill="#2a68a6"><path d="m2786 3482s-547 3112 3189 9951l-4974-6069s-194-354 16-644l782-754-424-390c-121-111-145-288-58-427l806-1302z"/><path d="m9156 3482s555 3112-3181 9951l4974-6069s194-354-16-644l-781-754 429-396c118-108 145-281 63-419l-752-1263z"/></g></g></g></g></svg>