<svg height="512" viewBox="0 0 64 64" width="512" xmlns="http://www.w3.org/2000/svg"><g id="diagram-infographic-hexagon-chart-element"><path d="m48.996 22.188-16.996-9.818-16.996 9.818-.004.002v19.62l.004.003 16.996 9.817 16.996-9.817.004-.003v-19.62z" fill="#2488ff"/><g fill="none"><path d="m32.41 51.393 16.59-9.578-.004-.002z"/><path d="m48.998 22.184h.002v.005h-.002z"/><path d="m48.996 22.188.004-.003-16.59-9.578z"/><path d="m15 41.815 16.59 9.578-16.586-9.58z"/><path d="m48.998 41.811h.002v.005h-.002z"/><path d="m31.59 12.607-16.59 9.578.004.003z"/><path d="m15 22.184h.002v.005h-.002z"/><path d="m15 41.811h.002v.005h-.002z"/></g><path d="m32 51.63v9.237l25-14.433-8-4.619z" fill="#ffcd00"/><path d="m15 41.815-8 4.619 25 14.433v-9.237z" fill="#ed1c24"/><path d="m57 17.566-8 4.619v.005 19.62.005l8 4.619z" fill="#7ed63e"/><path d="m32 12.37v-9.238l-25 14.434 8 4.619z" fill="#ffcd00"/><path d="m15 41.815v-.005-19.62-.005l-8-4.619v28.868z" fill="#7ed63e"/><path d="m49 22.185 8-4.619-25-14.434v9.238z" fill="#ed1c24"/><path d="m15 22.19v19.62.005l17 9.815 17-9.815v-.005-19.62-.005l-17-9.815-17 9.815z" fill="#2488ff"/><path d="m32 51.63v4.37l20.779-12.003-3.779-2.182z" fill="#ebbf00"/><path d="m15 41.815-3.779 2.182 20.779 12.003v-4.37z" fill="#d80027"/><path d="m49 22.19v19.62.005l3.779 2.182.006-.003v-23.988l-.006-.003-3.779 2.182z" fill="#5eac24"/><path d="m32 12.37v-4.37l-20.779 12.003 3.779 2.182z" fill="#ebbf00"/><path d="m15 41.81v-19.62-.005l-3.779-2.182-.006.003v23.988l.006.003 3.779-2.182z" fill="#5eac24"/><path d="m32 8v4.37l17 9.815 3.779-2.182z" fill="#d80027"/><path d="m32 12.37-.41.237z" fill="#2488ff"/><path d="m32.41 12.607-.41-.237z" fill="#2488ff"/><path d="m32 51.63.41-.237z" fill="#2488ff"/><path d="m31.59 51.393.41.237z" fill="#2488ff"/><path d="m24 24h16v4h-16z" fill="#f1f2f2"/><path d="m39 31h-14a1 1 0 0 0 0 2h14a1 1 0 0 0 0-2z" fill="#f1f2f2"/><path d="m39 35h-14a1 1 0 0 0 0 2h14a1 1 0 0 0 0-2z" fill="#f1f2f2"/><path d="m39 39h-14a1 1 0 0 0 0 2h14a1 1 0 0 0 0-2z" fill="#f1f2f2"/></g></svg>