<svg id="Layer_1" enable-background="new 0 0 68 68" height="512" viewBox="0 0 68 68" width="512" xmlns="http://www.w3.org/2000/svg"><g><g><g><g><path d="m58.4384003 47.5012856v5.5800781c0 .5598145-.4499512 1-1 1s-1-.4401855-1-1v-5.5800781c0-1.1999512-.9699707-2.1601563-2.1599121-2.1601563h-19.2802735v9.1801758c0 .5498047-.4499512 1-1 1-.5498047 0-1-.4501953-1-1v-9.1801758h-19.279787c-1.1899414 0-2.1601563.9602051-2.1601563 2.1601563v4.6599121c0 .5500488-.4499512 1-1 1-.5498047 0-1-.4499512-1-1v-4.6599121c0-2.3000488 1.8701172-4.1601563 4.1601563-4.1601563h19.2797871v-9.2099609c0-.5498047.4501953-1 1-1 .5500488 0 1 .4501953 1 1v9.2099609h19.2802734c2.2998046 0 4.1599121 1.8601074 4.1599121 4.1601563z" fill="#435e88"/></g></g><g><g><path d="m42.5615997 52.9399414v10.7102051c0 1.3000488-1.0500488 2.3498535-2.3498535 2.3498535h-12.4101543c-1.2998047 0-2.3598633-1.0498047-2.3598633-2.3498535v-10.7102051c0-1.2998047 1.0600586-2.3598633 2.3598633-2.3598633h12.4101543c1.2998047.0100098 2.3498535 1.0600586 2.3498535 2.3598633z" fill="#5cbeff"/></g><g><path d="m42.5591774 52.941227v10.7099609c0 1.3000526-1.0500488 2.3501015-2.3500977 2.3501015h-12.4099121c-1.3000488 0-2.3601074-1.0500488-2.3601074-2.3501015l14.7700195-13.0698242c1.3000489.0097656 2.3500977 1.0598144 2.3500977 2.3598633z" fill="#079cff"/></g></g><g><path d="m19.1216602 52.9399414v10.7102051c0 1.3000488-1.0500488 2.3498535-2.3498535 2.3498535h-12.4101567c-1.3000486 0-2.359863-1.0498047-2.359863-2.3498535v-10.7102051c0-1.2998047 1.0598145-2.3598633 2.359863-2.3598633h12.4101563c1.2998051.0100098 2.3498539 1.0600586 2.3498539 2.3598633z" fill="#c175ff"/></g><g><path d="m19.11833 52.941227v10.7099609c0 1.3000526-1.0500488 2.3501015-2.3500977 2.3501015h-12.4099116c-1.3000491 0-2.3601077-1.0500488-2.3601077-2.3501015l14.7700195-13.0698242c1.3000487.0097656 2.3500975 1.0598144 2.3500975 2.3598633z" fill="#b244f1"/></g><g><path d="m66.0017853 52.9399414v10.7102051c0 1.3000488-1.0500488 2.3498535-2.3500977 2.3498535h-12.4101562c-1.2998047 0-2.3598633-1.0498047-2.3598633-2.3498535v-10.7102051c0-1.2998047 1.0600586-2.3598633 2.3598633-2.3598633h12.4101563c1.3000488.0100098 2.3500976 1.0600586 2.3500976 2.3598633z" fill="#4cc66e"/></g><g><path d="m66.0000229 52.941227v10.7099609c0 1.3000526-1.0500488 2.3501015-2.3500977 2.3501015h-12.4099121c-1.3000488 0-2.3601074-1.0500488-2.3601074-2.3501015l14.7700195-13.0698242c1.3000489.0097656 2.3500977 1.0598144 2.3500977 2.3598633z" fill="#14a142"/></g></g><g><g><path d="m50.7460136 11.6625786c-6.6772423 3.9036131-16.7438927 9.7086487-16.7438927 9.7086487s-10.0666485-5.8050356-16.7553577-9.7086487l16.7553578-9.6638642z" fill="#ffd80c"/></g><g><path d="m17.2508602 11.6650362-.0314045.0182962v19.3755169l16.7796631 9.6878967v-19.3755187s-10.0693817-5.8096781-16.7482586-9.7061911z" fill="#ffbe00"/></g><g><path d="m33.9991188 21.3712273v19.3755188l16.7796631-9.6878967v-19.375517l-.0314064-.0180225c-6.678875 3.8962393-16.7482567 9.7059174-16.7482567 9.7059174z" fill="#ffa300"/></g></g><g><g><g><path d="m14.8500195 56.4372559h-8.5834957c-.4140625 0-.75-.3356934-.75-.75s.3359375-.75.75-.75h8.5834961c.4140625 0 .75.3356934.75.75s-.3359379.75-.7500004.75z" fill="#fff"/></g></g><g><g><path d="m14.8500195 61.6455078h-4.1367188c-.4140625 0-.75-.3356934-.75-.75s.3359375-.75.75-.75h4.1367188c.4140625 0 .75.3356934.75.75s-.3359375.75-.75.75z" fill="#fff"/></g></g><g><g><path d="m7.308516 61.6455078h-1.0419922c-.4140625 0-.75-.3356934-.75-.75s.3359375-.75.75-.75h1.0419922c.4140625 0 .7499995.3356934.7499995.75s-.335937.75-.7499995.75z" fill="#fff"/></g></g></g><g><g><g><path d="m38.2900848 56.4372559h-8.583498c-.4140625 0-.75-.3356934-.75-.75s.3359375-.75.75-.75h8.583498c.4140625 0 .75.3356934.75.75s-.3359375.75-.75.75z" fill="#fff"/></g></g><g><g><path d="m38.2900848 61.6455078h-4.1367188c-.4140625 0-.75-.3356934-.75-.75s.3359375-.75.75-.75h4.1367188c.4140625 0 .75.3356934.75.75s-.3359375.75-.75.75z" fill="#fff"/></g></g><g><g><path d="m30.748579 61.6455078h-1.0419922c-.4140625 0-.75-.3356934-.75-.75s.3359375-.75.75-.75h1.0419922c.4140625 0 .75.3356934.75.75s-.3359375.75-.75.75z" fill="#fff"/></g></g></g><g><g><g><path d="m61.7301483 56.4372559h-8.5834961c-.4140625 0-.75-.3356934-.75-.75s.3359375-.75.75-.75h8.5834961c.4140625 0 .75.3356934.75.75s-.3359375.75-.75.75z" fill="#fff"/></g></g><g><g><path d="m61.7301483 61.6455078h-4.1367188c-.4140625 0-.75-.3356934-.75-.75s.3359375-.75.75-.75h4.1367188c.4140625 0 .75.3356934.75.75s-.3359375.75-.75.75z" fill="#fff"/></g></g><g><g><path d="m54.1886444 61.6455078h-1.0419922c-.4140625 0-.75-.3356934-.75-.75s.3359375-.75.75-.75h1.0419922c.4140625 0 .75.3356934.75.75s-.3359375.75-.75.75z" fill="#fff"/></g></g></g></g></svg>