<svg id="Layer_1" enable-background="new 0 0 64 64" viewBox="0 0 64 64" xmlns="http://www.w3.org/2000/svg" xmlns:xlink="http://www.w3.org/1999/xlink"><clipPath id="SVGID_2_"><path id="SVGID_2283_" d="m13.7 63.7-9.7-5.3c-.8-.4-1.3-1.3-1.3-2.3l9.7 5.3c.1 1.1.6 1.9 1.3 2.3z"/></clipPath><clipPath id="SVGID_4_"><path id="SVGID_2285_" d="m37.9 34.7c.8.4 1.7.6 2.6.5l9.7 5.3c-1 .1-1.9 0-2.6-.5-2.9-1.6-6.8-3.7-9.7-5.3z"/></clipPath><clipPath id="SVGID_6_"><path id="SVGID_2287_" d="m45.5 29.1c0-1.9-.9-3.5-2.3-4.2l9.7 5.3c1.4.8 2.3 2.3 2.3 4.2 0 3-2.2 5.7-5 6.1l-9.7-5.3c2.8-.4 5-3.1 5-6.1z"/></clipPath><clipPath id="SVGID_8_"><path id="SVGID_2289_" d="m43.2 24.9 9.7 5.3c-.8-.4-1.7-.6-2.7-.5l-9.7-5.3c1-.1 2 .1 2.7.5z"/></clipPath><clipPath id="SVGID_10_"><path id="SVGID_2291_" d="m50.3.8 9.7 5.3c.8.4 1.3 1.3 1.3 2.3l-9.7-5.3c-.1-1-.6-1.9-1.3-2.3z"/></clipPath><clipPath id="SVGID_12_"><path id="SVGID_2293_" d="m47.7 40-9.7-5.3c-1.4-.8-2.3-2.3-2.3-4.2 0-3 2.2-5.7 5-6.1l9.7 5.3c-2.7.4-5 3.1-5 6.1-.1 1.9.9 3.5 2.3 4.2z"/></clipPath><clipPath id="SVGID_14_"><path id="SVGID_2295_" d="m24.5 36.6c.8.4 1.7.6 2.7.5l9.7 5.3c-1 .1-1.9 0-2.7-.5-2.9-1.6-6.8-3.7-9.7-5.3z"/></clipPath><clipPath id="SVGID_16_"><path id="SVGID_2297_" d="m32.1 31c0-1.9-.9-3.5-2.3-4.2l9.7 5.3c1.4.8 2.3 2.3 2.3 4.2 0 3-2.2 5.7-5 6l-9.7-5.3c2.8-.3 5-3 5-6z"/></clipPath><clipPath id="SVGID_18_"><path id="SVGID_2299_" d="m29.8 26.8 9.7 5.3c-.8-.4-1.7-.6-2.6-.5l-9.7-5.3c.9-.1 1.8.1 2.6.5z"/></clipPath><clipPath id="SVGID_20_"><path id="SVGID_2301_" d="m34.2 41.9-9.7-5.3c-1.4-.8-2.3-2.3-2.3-4.2 0-3 2.2-5.7 5-6.1l9.7 5.3c-2.7.4-5 3.1-5 6.1 0 1.9.9 3.5 2.3 4.2z"/></clipPath><clipPath id="SVGID_22_"><path id="SVGID_2303_" d="m11 38.5c.8.4 1.7.6 2.6.5l9.7 5.3c-1 .1-1.9 0-2.6-.5-2.9-1.6-6.8-3.7-9.7-5.3z"/></clipPath><clipPath id="SVGID_24_"><path id="SVGID_2305_" d="m18.6 32.9c0-1.9-.9-3.5-2.3-4.2l9.7 5.3c1.4.8 2.3 2.3 2.3 4.2 0 3-2.2 5.7-5 6.1l-9.6-5.3c2.7-.4 4.9-3.1 4.9-6.1z"/></clipPath><clipPath id="SVGID_26_"><path id="SVGID_2307_" d="m16.3 28.7 9.7 5.3c-.8-.4-1.7-.6-2.7-.5l-9.7-5.3c1.1-.1 2 .1 2.7.5z"/></clipPath><clipPath id="SVGID_28_"><path id="SVGID_2309_" d="m20.8 43.8-9.8-5.3c-1.4-.8-2.3-2.3-2.3-4.2 0-3 2.2-5.7 5-6.1l9.7 5.3c-2.7.4-5 3.1-5 6.1.1 1.9 1 3.4 2.4 4.2z"/></clipPath><clipPath id="SVGID_30_"><path id="SVGID_2311_" d="m50.3.8 9.7 5.3c-.4-.2-.9-.3-1.5-.3l-9.7-5.3c.5 0 1 .1 1.5.3z"/></clipPath><clipPath id="SVGID_32_"><path id="SVGID_2313_" d="m48 4.2c0-.5-.2-.9-.6-1.1l9.7 5.3c.4.2.6.6.6 1.1 0 .8-.6 1.5-1.4 1.6l-9.7-5.3c.8 0 1.4-.8 1.4-1.6z"/></clipPath><clipPath id="SVGID_34_"><path id="SVGID_2315_" d="m50.3.3 9.7 5.3c-.4-.2-.9-.3-1.5-.2l-9.7-5.4c.5-.1 1 0 1.5.3z"/></clipPath><clipPath id="SVGID_36_"><path id="SVGID_2317_" d="m47.3 3.1 9.7 5.3c-.2-.1-.5-.2-.7-.1l-9.7-5.3c.3-.1.5 0 .7.1z"/></clipPath><clipPath id="SVGID_38_"><path id="SVGID_2319_" d="m22.3 9.1c.2.1.5.2.7.1l9.7 5.3c-.3 0-.5 0-.7-.1-2.9-1.6-6.8-3.7-9.7-5.3z"/></clipPath><clipPath id="SVGID_40_"><path id="SVGID_2321_" d="m32 14.4-9.7-5.3c-.4-.2-.6-.6-.6-1.1 0-.8.6-1.5 1.4-1.6l9.7 5.3c-.7.1-1.4.8-1.4 1.6 0 .4.3.9.6 1.1z"/></clipPath><clipPath id="SVGID_42_"><path id="SVGID_2323_" d="m16.2 9.9c.2.1.5.2.7.1l9.7 5.3c-.3 0-.5 0-.7-.1-2.9-1.6-6.8-3.7-9.7-5.3z"/></clipPath><clipPath id="SVGID_44_"><path id="SVGID_2325_" d="m18.3 8.4c0-.5-.2-.9-.6-1.1l9.7 5.3c.4.2.6.6.6 1.1 0 .8-.6 1.5-1.4 1.6l-9.7-5.3c.8-.1 1.4-.8 1.4-1.6z"/></clipPath><clipPath id="SVGID_46_"><path id="SVGID_2327_" d="m17.7 7.2 9.7 5.3c-.2-.1-.5-.2-.7-.1l-9.7-5.3c.2 0 .5 0 .7.1z"/></clipPath><clipPath id="SVGID_48_"><path id="SVGID_2329_" d="m26 15.2-9.7-5.3c-.4-.2-.6-.6-.6-1.1 0-.8.6-1.5 1.4-1.6l9.7 5.3c-.7.1-1.4.8-1.4 1.6-.1.5.2.9.6 1.1z"/></clipPath><clipPath id="SVGID_50_"><path id="SVGID_2331_" d="m11.6 10.6c.2.1.5.2.7.1l9.7 5.3c-.3 0-.5 0-.7-.1-2.9-1.6-6.8-3.7-9.7-5.3z"/></clipPath><clipPath id="SVGID_52_"><path id="SVGID_2333_" d="m13.7 9c0-.5-.3-.9-.6-1.1l9.7 5.3c.4.2.6.6.6 1.1 0 .8-.6 1.5-1.4 1.6l-9.7-5.3c.8 0 1.4-.8 1.4-1.6z"/></clipPath><clipPath id="SVGID_54_"><path id="SVGID_2335_" d="m13 7.9 9.7 5.3c-.2-.1-.5-.2-.7-.1l-9.7-5.3c.3-.1.5 0 .7.1z"/></clipPath><clipPath id="SVGID_56_"><path id="SVGID_2337_" d="m21.3 15.9-9.7-5.3c-.4-.2-.6-.7-.6-1.2 0-.8.6-1.5 1.4-1.6l9.7 5.3c-.7.1-1.4.8-1.4 1.6 0 .5.3 1 .6 1.2z"/></clipPath><clipPath id="SVGID_58_"><path id="SVGID_2339_" d="m7 11.2c.2.1.5.2.7.1l9.7 5.3c-.3 0-.5 0-.7-.1-2.9-1.6-6.8-3.7-9.7-5.3z"/></clipPath><clipPath id="SVGID_60_"><path id="SVGID_2341_" d="m9 9.7c0-.5-.2-.9-.6-1.1l9.7 5.3c.4.2.6.6.6 1.1 0 .8-.6 1.5-1.4 1.6l-9.7-5.3c.8-.1 1.4-.8 1.4-1.6z"/></clipPath><clipPath id="SVGID_62_"><path id="SVGID_2343_" d="m8.4 8.6 9.7 5.3c-.2-.1-.5-.2-.7-.1l-9.7-5.4c.3 0 .5 0 .7.2z"/></clipPath><clipPath id="SVGID_64_"><path id="SVGID_2345_" d="m16.7 16.5-9.7-5.3c-.4-.2-.6-.6-.6-1.1 0-.8.6-1.5 1.4-1.6l9.7 5.3c-.7.1-1.4.8-1.4 1.6 0 .5.2.9.6 1.1z"/></clipPath><clipPath id="SVGID_66_"><path id="SVGID_2347_" d="m2.8 10c0-1.6 1.2-3.1 2.7-3.3 2.9 1.6 5.7 3.1 8.6 4.7l1.1.6c-1.5.2-2.7 1.7-2.7 3.3-2.9-1.6-6.8-3.7-9.7-5.3z"/></clipPath><clipPath id="SVGID_68_"><path id="SVGID_2349_" d="m12.6 14.7-9.8-5.3c0-1.6 1.2-3.1 2.7-3.3l9.7 5.3c-1.4.2-2.6 1.7-2.6 3.3z"/></clipPath><g><g enable-background="new"><g><path d="m56.4 54-9.8-5.3v-2.2l9.8 5.3z" fill="#3d6378"/></g><g><path d="m17.3 59.5-9.7-5.3 39-5.5 9.8 5.3z" fill="#5487a5"/></g><g><path d="m17.3 57.3-9.7-5.3 39-5.5 9.8 5.3z" fill="#447c99"/></g><g><path d="m48.7 49.6-9.7-5.3v-2.3l9.7 5.3z" fill="#3d6378"/></g><g><path d="m25 52.9-9.8-5.3 23.8-3.3 9.7 5.3z" fill="#5487a5"/></g><g><path d="m25 50.7-9.8-5.3 23.8-3.4 9.7 5.3z" fill="#447c99"/></g><g><path d="m48.7 47.3v2.3l-23.7 3.3v-2.2z" fill="#5299be"/></g><g><path d="m25 52.9-9.8-5.3v-2.2l9.8 5.3z" fill="#315a6f"/></g><g><path d="m17.3 59.5-9.7-5.3v-2.2l9.7 5.3z" fill="#315a6f"/></g><g enable-background="new"><g clip-path="url(#SVGID_2_)" enable-background="new"><path d="m13.7 63.7-9.7-5.3c-.8-.4-1.3-1.3-1.3-2.3l9.7 5.3c.1 1.1.6 1.9 1.3 2.3" fill="#3e647a"/></g></g><g><path d="m12.5 48.8 48.7-6.8v12.6c0 1.6-1.2 3.1-2.7 3.3l-43.3 6.1c-1.5.2-2.7-.9-2.7-2.6zm43.9 5.2v-2.2l-39 5.5v2.2zm-31.4-3.3v2.2l23.8-3.3v-2.2z" fill="#67a7cb"/></g><g><path d="m56.4 51.8v2.2l-39.1 5.5v-2.2z" fill="#5299be"/></g><g><path d="m12.5 48.8-9.7-5.3 48.7-6.8 9.7 5.3z" fill="#5487a5"/></g><g><path d="m12.5 61.4-9.8-5.3.1-12.6 9.7 5.3z" fill="#3d6378"/></g></g><g enable-background="new"><g enable-background="new"><g clip-path="url(#SVGID_4_)" enable-background="new"><path d="m47.7 40-9.7-5.3s.1.1.2.1l9.7 5.3c-.1 0-.2-.1-.2-.1" fill="#939292"/><path d="m47.8 40.1-9.7-5.3c.2.1.5.2.8.3l9.7 5.3c-.3-.1-.6-.2-.8-.3" fill="#969696"/><path d="m48.6 40.4-9.7-5.3c.5.1 1.1.2 1.7.1l9.7 5.3c-.6.1-1.2 0-1.7-.1" fill="#9b9b9b"/></g></g><g enable-background="new"><g clip-path="url(#SVGID_6_)" enable-background="new"><path d="m50.3 40.5-9.7-5.3c.5-.1 1-.2 1.5-.4l9.7 5.3c-.5.2-1 .3-1.5.4" fill="#9b9b9b"/><path d="m51.8 40-9.8-5.3c.3-.1.6-.3.8-.5l9.7 5.3c-.2.3-.5.4-.7.5" fill="#969696"/><path d="m52.6 39.6-9.7-5.3c.2-.1.4-.3.6-.5l9.7 5.3c-.2.2-.4.3-.6.5" fill="#939292"/><path d="m53.2 39.1-9.7-5.3c.2-.2.3-.3.5-.5l9.7 5.3c-.2.2-.4.3-.5.5" fill="#8e8d8d"/><path d="m53.7 38.6-9.7-5.3c.2-.2.3-.4.4-.6l9.7 5.3c-.1.2-.3.4-.4.6" fill="#888"/><path d="m54.1 38-9.7-5.3c.1-.2.3-.4.4-.7l9.7 5.3c-.1.3-.2.5-.4.7" fill="#848484"/><path d="m54.5 37.4-9.7-5.3c.1-.3.3-.5.4-.8l9.7 5.3c-.1.2-.2.5-.4.8" fill="#808080"/><path d="m54.9 36.5-9.7-5.3c.2-.7.4-1.4.4-2.1 0-1.9-.9-3.5-2.3-4.2l9.7 5.3c1.4.8 2.3 2.3 2.3 4.2 0 .8-.2 1.5-.4 2.1" fill="#7b7b7b"/></g></g><g enable-background="new"><g clip-path="url(#SVGID_8_)" enable-background="new"><path d="m50.3 29.8-9.7-5.3c.6-.1 1.2 0 1.7.1l9.7 5.3c-.5-.2-1.1-.2-1.7-.1" fill="#a78d49"/><path d="m52 29.9-9.7-5.3c.3.1.5.2.8.3l9.7 5.3c-.2-.2-.5-.3-.8-.3" fill="#a28947"/><path d="m52.8 30.1-9.7-5.3c.1 0 .1.1.2.1l9.7 5.3c-.1 0-.1 0-.2-.1" fill="#9c8545"/></g></g><g><path d="m55.3 26.3-9.7-5.3v-8.4l9.8 5.3z" fill="#797979"/></g><g enable-background="new"><g clip-path="url(#SVGID_10_)" enable-background="new"><path d="m61.3 8.4-9.7-5.3c0-1-.5-1.9-1.3-2.3l9.7 5.3c.8.4 1.3 1.3 1.3 2.3" fill="#626568"/></g></g><g enable-background="new"><g clip-path="url(#SVGID_12_)" enable-background="new"><path d="m47.7 40-9.7-5.3c-1.4-.8-2.3-2.3-2.3-4.2 0-.7.1-1.4.4-2.1l9.7 5.3c-.2.7-.4 1.4-.4 2.1-.1 1.9.9 3.5 2.3 4.2" fill="#836f3a"/><path d="m45.7 33.7-9.7-5.3c.1-.3.2-.6.4-.8l9.7 5.3c-.1.2-.3.5-.4.8" fill="#88743c"/><path d="m46.1 32.9-9.7-5.3c.1-.2.3-.4.4-.7l9.7 5.3c-.1.2-.3.4-.4.7" fill="#8d783e"/><path d="m46.5 32.2-9.7-5.3c.1-.2.3-.4.4-.6l9.7 5.3c-.1.2-.2.4-.4.6" fill="#927d40"/><path d="m47 31.6-9.7-5.3c.2-.2.3-.4.5-.5l9.7 5.3c-.2.2-.4.4-.5.5" fill="#988043"/><path d="m47.5 31.1-9.7-5.3c.2-.2.4-.3.6-.5l9.7 5.3c-.2.2-.4.4-.6.5" fill="#9c8545"/><path d="m48.1 30.7-9.7-5.3c.3-.2.5-.3.8-.5l9.7 5.3c-.3.1-.6.3-.8.5" fill="#a28947"/><path d="m48.9 30.2-9.7-5.3c.5-.2.9-.4 1.4-.4l9.7 5.3c-.5 0-1 .2-1.4.4" fill="#a78d49"/></g></g><g enable-background="new"><g clip-path="url(#SVGID_14_)" enable-background="new"><path d="m34.2 41.9-9.7-5.3s.1.1.2.1l9.7 5.3c-.1 0-.1-.1-.2-.1" fill="#939292"/><path d="m34.4 42-9.7-5.3c.2.1.5.2.8.3l9.7 5.3c-.3-.1-.6-.2-.8-.3" fill="#969696"/><path d="m35.1 42.3-9.7-5.3c.5.1 1.1.2 1.7.1l9.7 5.3c-.5 0-1.1 0-1.7-.1" fill="#9b9b9b"/></g></g><g enable-background="new"><g clip-path="url(#SVGID_16_)" enable-background="new"><path d="m36.9 42.4-9.7-5.3c.5-.1 1-.2 1.5-.4l9.7 5.3c-.5.1-1 .3-1.5.4" fill="#9b9b9b"/><path d="m38.3 41.9-9.7-5.3c.3-.1.5-.3.8-.5l9.7 5.3c-.2.2-.5.4-.8.5" fill="#969696"/><path d="m39.1 41.5-9.7-5.3c.2-.1.4-.3.6-.5l9.7 5.3c-.2.2-.4.3-.6.5" fill="#939292"/><path d="m39.7 41-9.7-5.3.5-.5 9.7 5.3c-.1.2-.3.3-.5.5" fill="#8e8d8d"/><path d="m40.2 40.5-9.7-5.3c.2-.2.3-.4.4-.6l9.7 5.3c-.1.2-.2.4-.4.6" fill="#888"/><path d="m40.7 39.9-9.7-5.3c.1-.2.3-.4.4-.7l9.7 5.3c-.1.3-.3.5-.4.7" fill="#848484"/><path d="m41.1 39.3-9.8-5.3c.1-.3.3-.5.4-.8l9.7 5.3c-.1.2-.2.5-.3.8" fill="#808080"/><path d="m41.4 38.4-9.7-5.3c.2-.7.4-1.4.4-2.1 0-1.9-.9-3.5-2.3-4.2l9.7 5.3c1.4.8 2.3 2.3 2.3 4.2 0 .7-.1 1.5-.4 2.1" fill="#7b7b7b"/></g></g><g enable-background="new"><g clip-path="url(#SVGID_18_)" enable-background="new"><path d="m36.9 31.7-9.7-5.3c.6-.1 1.2 0 1.7.1l9.7 5.3c-.5-.2-1.1-.2-1.7-.1" fill="#9b3d40"/><path d="m38.6 31.7-9.7-5.3c.3.1.5.2.8.3l9.7 5.3c-.3-.1-.5-.2-.8-.3" fill="#963c3e"/><path d="m39.4 32-9.7-5.3c.1 0 .1.1.2.1l9.7 5.3c-.1 0-.2 0-.2-.1" fill="#903a3d"/></g></g><g enable-background="new"><g clip-path="url(#SVGID_20_)" enable-background="new"><path d="m34.2 41.9-9.7-5.3c-1.4-.8-2.3-2.3-2.3-4.2 0-.7.1-1.4.4-2.1l9.7 5.3c-.2.7-.4 1.4-.4 2.1 0 1.9.9 3.5 2.3 4.2" fill="#7a3133"/><path d="m32.3 35.6-9.7-5.3c.1-.3.2-.6.4-.8l9.7 5.3c-.2.2-.3.5-.4.8" fill="#7f3335"/><path d="m32.7 34.8-9.7-5.3c.1-.2.3-.4.4-.7l9.7 5.3c-.2.2-.3.4-.4.7" fill="#833437"/><path d="m33.1 34.1-9.7-5.3c.1-.2.3-.4.4-.6l9.7 5.3c-.1.2-.3.4-.4.6" fill="#883639"/><path d="m33.5 33.5-9.7-5.3c.2-.2.3-.4.5-.5l9.7 5.3c-.2.2-.3.4-.5.5" fill="#8d383b"/><path d="m34 33-9.7-5.3c.2-.2.4-.3.6-.5l9.7 5.3c-.2.2-.4.4-.6.5" fill="#903a3d"/><path d="m34.6 32.6-9.7-5.3c.3-.2.5-.3.8-.5l9.7 5.3c-.2.1-.5.3-.8.5" fill="#963c3e"/><path d="m35.4 32.1-9.7-5.3c.5-.2.9-.4 1.4-.4l9.7 5.3c-.4 0-.9.2-1.4.4" fill="#9b3d40"/></g></g><g enable-background="new"><g clip-path="url(#SVGID_22_)" enable-background="new"><path d="m20.8 43.8-9.8-5.3s.1.1.2.1l9.7 5.3s-.1-.1-.1-.1" fill="#939292"/><path d="m20.9 43.9-9.7-5.3c.2.1.5.2.8.3l9.7 5.3c-.3-.1-.5-.2-.8-.3" fill="#969696"/><path d="m21.7 44.2-9.7-5.3c.5.1 1.1.2 1.7.1l9.7 5.3c-.6 0-1.2 0-1.7-.1" fill="#9b9b9b"/></g></g><g enable-background="new"><g clip-path="url(#SVGID_24_)" enable-background="new"><path d="m23.4 44.3-9.7-5.3c.5-.1 1-.2 1.5-.4l9.7 5.3c-.5.1-1 .3-1.5.4" fill="#9b9b9b"/><path d="m24.9 43.8-9.7-5.3c.3-.1.6-.3.8-.5l9.7 5.3c-.3.2-.6.4-.8.5" fill="#969696"/><path d="m25.7 43.4-9.7-5.3c.2-.1.4-.3.6-.5l9.7 5.3c-.2.1-.4.3-.6.5" fill="#939292"/><path d="m26.3 42.9-9.7-5.3c.2-.2.3-.3.5-.5l9.7 5.3c-.2.1-.3.3-.5.5" fill="#8e8d8d"/><path d="m26.8 42.4-9.8-5.3c.2-.2.3-.4.4-.6l9.7 5.3c0 .2-.2.4-.3.6" fill="#888"/><path d="m27.2 41.8-9.7-5.3c.1-.2.3-.4.4-.7l9.7 5.3c-.1.3-.2.5-.4.7" fill="#848484"/><path d="m27.6 41.1-9.7-5.3c.1-.3.3-.5.4-.8l9.7 5.3c-.1.3-.2.6-.4.8" fill="#808080"/><path d="m28 40.3-9.7-5.3c.2-.7.4-1.4.4-2.1 0-1.9-.9-3.5-2.3-4.2l9.7 5.3c1.4.8 2.3 2.3 2.3 4.2 0 .7-.1 1.4-.4 2.1" fill="#7b7b7b"/></g></g><g enable-background="new"><g clip-path="url(#SVGID_26_)" enable-background="new"><path d="m23.4 33.5-9.7-5.3c.6-.1 1.2 0 1.7.1l9.7 5.3c-.5-.1-1.1-.1-1.7-.1" fill="#9c7559"/><path d="m25.1 33.6-9.7-5.3c.3.1.5.2.8.3l9.7 5.3c-.2-.1-.5-.2-.8-.3" fill="#977256"/><path d="m25.9 33.9-9.7-5.3c.1 0 .1.1.2.1l9.7 5.3c-.1 0-.1-.1-.2-.1" fill="#926f53"/></g></g><g enable-background="new"><g clip-path="url(#SVGID_28_)" enable-background="new"><path d="m20.8 43.8-9.8-5.3c-1.4-.8-2.3-2.3-2.3-4.2 0-.7.1-1.4.4-2.1l9.7 5.3c-.2.7-.4 1.4-.4 2.1.1 1.9 1 3.4 2.4 4.2" fill="#7c5e46"/><path d="m18.8 37.5-9.7-5.3c.1-.3.2-.6.4-.8l9.7 5.3c-.1.2-.2.5-.4.8" fill="#806149"/><path d="m19.2 36.7-9.7-5.3c.1-.2.3-.4.4-.7l9.7 5.3c-.1.2-.3.4-.4.7" fill="#85654b"/><path d="m19.6 36-9.7-5.3c.1-.2.3-.4.4-.6l9.7 5.3c-.1.2-.2.4-.4.6" fill="#89674e"/><path d="m20.1 35.4-9.7-5.3c.2-.2.3-.4.5-.5l9.7 5.3c-.2.2-.4.3-.5.5" fill="#8f6c51"/><path d="m20.6 34.9-9.7-5.3c.2-.2.4-.3.6-.5l9.7 5.3c-.2.2-.4.3-.6.5" fill="#926f53"/><path d="m21.2 34.4-9.7-5.3c.3-.2.5-.3.8-.5l9.7 5.4c-.3.1-.6.3-.8.4" fill="#977256"/><path d="m22 34-9.7-5.3c.5-.2.9-.4 1.4-.4l9.7 5.3c-.5 0-1 .2-1.4.4" fill="#9c7559"/></g></g><g><path d="m23.4 33.5c2.7-.4 5 1.7 5 4.7s-2.2 5.7-5 6.1c-2.7.4-5-1.7-4.9-4.7 0-3 2.2-5.7 4.9-6.1z" fill="#cf9c74"/></g><g><path d="m18.4 31.5-9.7-5.3 36.9-5.2 9.7 5.3z" fill="#a7a6a6"/></g><g><path d="m18.4 31.5-9.7-5.3v-8.4l9.7 5.3z" fill="#1d5a58"/></g><g><path d="m18.4 23.1-9.7-5.3 36.9-5.2 9.8 5.3z" fill="#267d79"/></g><g><path d="m55.4 17.9-.1 8.4-36.9 5.2v-8.4z" fill="#2e9a95"/></g><g><path d="m12.6 20 48.7-6.8-.1 28.8-48.7 6.8zm42.7 6.3v-8.4l-36.9 5.2v8.4zm-31.9 18c2.7-.4 5-3.1 5-6.1s-2.2-5-5-4.7c-2.7.4-5 3.1-5 6.1.1 3 2.3 5 5 4.7m26.9-3.8c2.7-.4 5-3.1 5-6.1s-2.2-5-5-4.7c-2.7.4-5 3.1-5 6.1s2.3 5.1 5 4.7m-13.4 1.9c2.7-.4 5-3.1 5-6 0-3-2.2-5-4.9-4.7s-5 3.1-5 6.1c-.1 2.9 2.1 4.9 4.9 4.6" fill="#cececd"/></g><g><path d="m50.3 29.8c2.7-.4 5 1.7 5 4.7s-2.2 5.7-5 6.1c-2.7.4-5-1.7-4.9-4.7 0-3 2.2-5.8 4.9-6.1z" fill="#dcbb60"/></g><g enable-background="new"><g clip-path="url(#SVGID_30_)" enable-background="new"><path d="m58.5 5.9-9.7-5.3h.9l9.7 5.3c-.2-.1-.5-.1-.9 0" fill="#696f76"/><path d="m59.5 5.9-9.7-5.3c.2 0 .3.1.4.2l9.7 5.3c-.1-.1-.3-.1-.4-.2" fill="#656b72"/><path d="m59.9 6.1-9.7-5.3h.1z" fill="#62686f"/></g></g><g><path d="m12.6 20-9.8-5.4 48.7-6.8 9.8 5.3z" fill="#a7a6a6"/></g><g enable-background="new"><g clip-path="url(#SVGID_32_)" enable-background="new"><path d="m56.4 11.2-9.7-5.3c.1 0 .3-.1.4-.1l9.7 5.3c-.2 0-.3 0-.4.1" fill="#696f76"/><path d="m56.8 11-9.8-5.3c.1 0 .1-.1.2-.1l9.7 5.3c0 .1-.1.1-.1.1" fill="#656b72"/><path d="m57 10.9-9.7-5.3c.1 0 .1-.1.2-.1l9.7 5.3c-.1 0-.2.1-.2.1" fill="#62686f"/><path d="m57.1 10.8-9.7-5.3s.1-.1.1-.1l9.7 5.3s0 .1-.1.1" fill="#5f656b"/><path d="m57.3 10.7-9.7-5.3s.1-.1.1-.2l9.7 5.3c0 .1-.1.1-.1.2" fill="#5c6168"/><path d="m57.4 10.5-9.7-5.3c0-.1.1-.1.1-.2l9.7 5.3c0 .1-.1.1-.1.2" fill="#595e64"/><path d="m57.5 10.3-9.7-5.3c0-.1.1-.1.1-.2l9.7 5.3c0 .1 0 .2-.1.2" fill="#565b61"/><path d="m57.6 10.1-9.7-5.3c0-.2.1-.4.1-.6 0-.5-.2-.9-.6-1.1l9.7 5.3c.4.2.6.6.6 1.1 0 .2 0 .4-.1.6" fill="#53575d"/></g></g><g enable-background="new"><g clip-path="url(#SVGID_34_)" enable-background="new"><path d="m58.5 5.3-9.7-5.3h.9l9.7 5.3c-.2 0-.5 0-.9 0" fill="#7b8083"/><path d="m59.5 5.4-9.7-5.3c.2 0 .3.1.4.2l9.7 5.3c-.1-.1-.3-.2-.4-.2" fill="#787d80"/><path d="m59.9 5.5-9.7-5.3h.1l9.6 5.3c.1.1 0 0 0 0" fill="#74797c"/></g></g><g enable-background="new"><g clip-path="url(#SVGID_36_)" enable-background="new"><path d="m56.4 8.3-9.8-5.3h.5l9.7 5.3c-.1-.1-.3-.1-.4 0" fill="#2e3e48"/><path d="m56.8 8.3-9.7-5.3c.1 0 .1 0 .2.1l9.7 5.3c0-.1-.1-.1-.2-.1" fill="#2d3c46"/><path d="m57.1 8.4-9.7-5.3z" fill="#2b3a44"/></g></g><g><path d="m36.9 31.7c2.7-.4 5 1.7 4.9 4.7 0 3-2.2 5.7-5 6-2.7.4-5-1.7-5-4.7.1-2.9 2.3-5.7 5.1-6z" fill="#cc5155"/></g><g><path d="m32.8 14.5-9.8-5.3 23.6-3.3 9.8 5.3z" fill="#70767e"/></g><g enable-background="new"><g clip-path="url(#SVGID_38_)" enable-background="new"><path d="m32 14.4-9.7-5.3 9.7 5.3c.1 0 .1 0 0 0" fill="#62686f"/><path d="m32.1 14.4-9.7-5.3c.1 0 .1.1.2.1l9.7 5.3c-.1-.1-.2-.1-.2-.1" fill="#656b72"/><path d="m32.3 14.5-9.7-5.3h.5l9.7 5.3c-.2 0-.4 0-.5 0" fill="#696f76"/></g></g><g><path d="m32.8 11.6-9.8-5.3 23.6-3.3 9.8 5.3z" fill="#31424d"/></g><g enable-background="new"><g clip-path="url(#SVGID_40_)" enable-background="new"><path d="m32 14.4-9.7-5.3c-.4-.2-.6-.6-.6-1.1 0-.2 0-.4.1-.6l9.7 5.3c-.1.2-.1.4-.1.6 0 .4.3.9.6 1.1" fill="#243139"/><path d="m31.5 12.6-9.7-5.3c0-.1.1-.2.1-.2l9.7 5.3c0 .1-.1.2-.1.2" fill="#26333b"/><path d="m31.6 12.4-9.7-5.3c0-.1.1-.1.1-.2l9.7 5.3c0 .1-.1.2-.1.2" fill="#27353d"/><path d="m31.7 12.2-9.7-5.3c0-.1.1-.1.1-.2l9.7 5.3c0 .1 0 .2-.1.2" fill="#283640"/><path d="m31.8 12.1-9.7-5.3s.1-.1.1-.1l9.7 5.3s0 0-.1.1" fill="#2a3842"/><path d="m32 11.9-9.7-5.3c.1 0 .1-.1.2-.1l9.7 5.3c-.1.1-.2.1-.2.1" fill="#2b3a44"/><path d="m32.2 11.8-9.7-5.3c.1 0 .1-.1.2-.1l9.7 5.3c-.1 0-.2.1-.2.1" fill="#2d3c46"/><path d="m32.4 11.7-9.7-5.3c.1-.1.3-.1.4-.1l9.7 5.3c-.2 0-.3 0-.4.1" fill="#2e3e48"/></g></g><g><path d="m56.4 8.3c.7-.1 1.3.5 1.3 1.3s-.6 1.5-1.4 1.6l-23.6 3.3c-.7.1-1.3-.5-1.3-1.3s.6-1.5 1.4-1.6z" fill="#3c515f"/></g><g enable-background="new"><g clip-path="url(#SVGID_42_)" enable-background="new"><path d="m26 15.2-9.7-5.3z" fill="#62686f"/><path d="m26 15.2-9.7-5.3c.1 0 .1.1.2.1l9.7 5.3c-.1 0-.1 0-.2-.1" fill="#656b72"/><path d="m26.2 15.3-9.7-5.3h.5l9.7 5.3c-.2.1-.3.1-.5 0" fill="#696f76"/></g></g><g enable-background="new"><g clip-path="url(#SVGID_44_)" enable-background="new"><path d="m26.7 15.3-9.8-5.3c.1 0 .3-.1.4-.1l9.7 5.3c0 .1-.2.1-.3.1" fill="#696f76"/><path d="m27.1 15.2-9.7-5.3c.1 0 .1-.1.2-.1l9.7 5.3c-.1 0-.1.1-.2.1" fill="#656b72"/><path d="m27.3 15.1-9.7-5.3c.1 0 .1-.1.2-.1l9.7 5.3c-.1 0-.1.1-.2.1" fill="#62686f"/><path d="m27.5 15-9.7-5.3s.1-.1.1-.1l9.7 5.3s-.1 0-.1.1" fill="#5f656b"/><path d="m27.6 14.8-9.7-5.3s.1-.1.1-.2l9.7 5.3c0 .1-.1.2-.1.2" fill="#5c6168"/><path d="m27.7 14.7-9.7-5.3c0-.1.1-.1.1-.2l9.7 5.3c0 .1 0 .1-.1.2" fill="#595e64"/><path d="m27.8 14.5-9.7-5.3c0-.1.1-.1.1-.2l9.7 5.3s0 .1-.1.2" fill="#565b61"/><path d="m27.9 14.3-9.7-5.3c.1-.2.1-.4.1-.6 0-.5-.2-.9-.6-1.1l9.7 5.3c.4.2.6.6.6 1.1 0 .2 0 .4-.1.6" fill="#53575d"/></g></g><g enable-background="new"><g clip-path="url(#SVGID_46_)" enable-background="new"><path d="m26.7 12.4-9.7-5.3h.5l9.7 5.3c-.2 0-.3 0-.5 0" fill="#a78d49"/><path d="m27.2 12.5-9.7-5.3c.1 0 .1 0 .2.1l9.7 5.3c-.1-.1-.2-.1-.2-.1" fill="#a28947"/><path d="m27.4 12.5-9.7-5.3z" fill="#9c8545"/></g></g><g enable-background="new"><g clip-path="url(#SVGID_48_)" enable-background="new"><path d="m26 15.2-9.7-5.3c-.4-.2-.6-.6-.6-1.1 0-.2 0-.4.1-.6l9.7 5.3c-.1.2-.1.4-.1.6-.1.5.2.9.6 1.1" fill="#836f3a"/><path d="m25.4 13.5-9.7-5.3c0-.1.1-.2.1-.2l9.7 5.3s0 .1-.1.2" fill="#88743c"/><path d="m25.5 13.3-9.7-5.3c0-.1.1-.1.1-.2l9.7 5.3c0 .1 0 .1-.1.2" fill="#8d783e"/><path d="m25.7 13.1-9.7-5.3c0-.1 0-.1 0-.2l9.7 5.3z" fill="#927d40"/><path d="m25.8 12.9-9.8-5.3s.1-.1.1-.1l9.7 5.3c.1 0 0 .1 0 .1" fill="#988043"/><path d="m25.9 12.8-9.7-5.3c.1 0 .1-.1.2-.1l9.7 5.3c-.1 0-.1.1-.2.1" fill="#9c8545"/><path d="m26.1 12.7-9.7-5.3c.1 0 .1-.1.2-.1l9.7 5.3c-.1 0-.2 0-.2.1" fill="#a28947"/><path d="m26.3 12.5-9.7-5.3c.1-.1.3-.1.4-.1l9.7 5.3c-.1 0-.3.1-.4.1" fill="#a78d49"/></g></g><g><path d="m26.7 12.4c.7-.1 1.3.5 1.3 1.3s-.6 1.5-1.4 1.6c-.7.1-1.3-.5-1.3-1.3 0-.7.6-1.5 1.4-1.6z" fill="#dcbb60"/></g><g enable-background="new"><g clip-path="url(#SVGID_50_)" enable-background="new"><path d="m21.3 15.9-9.7-5.3 9.7 5.3c.1 0 .1 0 0 0" fill="#62686f"/><path d="m21.4 15.9-9.7-5.3c.1 0 .1.1.2.1l9.7 5.3c-.1-.1-.1-.1-.2-.1" fill="#656b72"/><path d="m21.6 16-9.7-5.3h.5l9.7 5.3c-.2 0-.4 0-.5 0" fill="#696f76"/></g></g><g enable-background="new"><g clip-path="url(#SVGID_52_)" enable-background="new"><path d="m22.1 16-9.7-5.3c.1 0 .3-.1.4-.1l9.7 5.3c-.2 0-.3.1-.4.1" fill="#696f76"/><path d="m22.5 15.9-9.7-5.3c.1 0 .1-.1.2-.1l9.7 5.3c-.1 0-.2 0-.2.1" fill="#656b72"/><path d="m22.7 15.7-9.7-5.3c.1 0 .1-.1.2-.1l9.7 5.3c-.1.1-.2.1-.2.1" fill="#62686f"/><path d="m22.8 15.6-9.7-5.3s.1-.1.1-.1l9.7 5.3s0 .1-.1.1" fill="#5f656b"/><path d="m23 15.5-9.7-5.3s.1-.1.1-.2l9.7 5.3c0 .1-.1.1-.1.2" fill="#5c6168"/><path d="m23.1 15.3-9.7-5.3c0-.1.1-.1.1-.2l9.7 5.3c0 .1-.1.2-.1.2" fill="#595e64"/><path d="m23.2 15.1-9.7-5.3c0-.1.1-.1.1-.2l9.7 5.3c0 .1 0 .2-.1.2" fill="#565b61"/><path d="m23.3 14.9-9.7-5.3c.1-.2.1-.4.1-.6 0-.5-.3-.9-.6-1.1l9.7 5.3c.4.2.6.6.6 1.1 0 .2 0 .4-.1.6" fill="#53575d"/></g></g><g enable-background="new"><g clip-path="url(#SVGID_54_)" enable-background="new"><path d="m22.1 13.1-9.7-5.3h.5l9.7 5.3c-.2 0-.4 0-.5 0" fill="#247571"/><path d="m22.5 13.1-9.7-5.3c.1 0 .1 0 .2.1l9.7 5.3c0-.1-.1-.1-.2-.1" fill="#23716e"/><path d="m22.7 13.2-9.7-5.3 9.7 5.3c.1 0 .1 0 0 0" fill="#226e6a"/></g></g><g enable-background="new"><g clip-path="url(#SVGID_56_)" enable-background="new"><path d="m21.3 15.9-9.7-5.3c-.4-.2-.6-.7-.6-1.2 0-.2 0-.4.1-.6l9.7 5.3c-.1.2-.1.4-.1.6 0 .5.3 1 .6 1.2" fill="#1d5c59"/><path d="m20.8 14.1-9.7-5.3c0-.1.1-.2.1-.2l9.7 5.3c0 .1 0 .2-.1.2" fill="#1e605d"/><path d="m20.9 13.9-9.7-5.3c0-.1.1-.1.1-.2l9.7 5.3c0 .1 0 .2-.1.2" fill="#1f6360"/><path d="m21 13.7-9.7-5.3c0-.1.1-.1.1-.2l9.7 5.3c0 .1 0 .2-.1.2" fill="#206764"/><path d="m21.2 13.6-9.7-5.3s.1-.1.1-.1l9.7 5.3c-.1 0-.1 0-.1.1" fill="#216967"/><path d="m21.3 13.5-9.7-5.3c.1 0 .1-.1.2-.1l9.7 5.3c-.1 0-.2 0-.2.1" fill="#226e6a"/><path d="m21.5 13.3-9.8-5.3c.1 0 .1-.1.2-.1l9.7 5.3s-.1.1-.1.1" fill="#23716e"/><path d="m21.7 13.2-9.7-5.3c.1-.1.3-.1.4-.1l9.7 5.3c-.2 0-.3 0-.4.1" fill="#247571"/></g></g><g><path d="m22.1 13.1c.7-.1 1.3.5 1.3 1.3s-.6 1.5-1.4 1.6c-.7.1-1.3-.5-1.3-1.3s.6-1.5 1.4-1.6z" fill="#2e9a95"/></g><g enable-background="new"><g clip-path="url(#SVGID_58_)" enable-background="new"><path d="m16.7 16.5-9.7-5.3z" fill="#62686f"/><path d="m16.8 16.5-9.8-5.3c.1 0 .1.1.2.1l9.7 5.3s-.1 0-.1-.1" fill="#656b72"/><path d="m17 16.6-9.7-5.3h.5l9.7 5.3c-.2.1-.4.1-.5 0" fill="#696f76"/></g></g><g enable-background="new"><g clip-path="url(#SVGID_60_)" enable-background="new"><path d="m17.4 16.6-9.7-5.3c.1 0 .3-.1.4-.1l9.7 5.3c-.1.1-.2.1-.4.1" fill="#696f76"/><path d="m17.8 16.5-9.7-5.3c.1 0 .1-.1.2-.1l9.7 5.3s-.1.1-.2.1" fill="#656b72"/><path d="m18 16.4-9.7-5.3c.1 0 .1-.1.2-.1l9.7 5.3s-.1.1-.2.1" fill="#62686f"/><path d="m18.2 16.3-9.7-5.3s.1-.1.1-.1l9.7 5.3s0 0-.1.1" fill="#5f656b"/><path d="m18.3 16.1-9.7-5.3s.1-.1.1-.2l9.7 5.3c0 .1 0 .2-.1.2" fill="#5c6168"/><path d="m18.5 16-9.7-5.3c0-.1.1-.1.1-.2l9.7 5.3c-.1.1-.1.1-.1.2" fill="#595e64"/><path d="m18.6 15.8-9.7-5.3c0-.1.1-.1.1-.2l9.7 5.3s-.1.1-.1.2" fill="#565b61"/><path d="m18.7 15.6-9.7-5.3c0-.2 0-.4 0-.6 0-.5-.2-.9-.6-1.1l9.7 5.3c.4.2.6.6.6 1.1.1.2 0 .4 0 .6" fill="#53575d"/></g></g><g enable-background="new"><g clip-path="url(#SVGID_62_)" enable-background="new"><path d="m17.4 13.7-9.7-5.3h.5l9.7 5.3c-.1 0-.3 0-.5 0" fill="#9b3d40"/><path d="m17.9 13.8-9.7-5.3c.1 0 .1 0 .2.1l9.7 5.3c0-.1-.1-.1-.2-.1" fill="#963c3e"/><path d="m18.1 13.8-9.7-5.3z" fill="#903a3d"/></g></g><g enable-background="new"><g clip-path="url(#SVGID_64_)" enable-background="new"><path d="m16.7 16.5-9.7-5.3c-.4-.2-.6-.6-.6-1.1 0-.2 0-.4.1-.6l9.7 5.3c-.1.2-.1.4-.1.6 0 .5.2.9.6 1.1" fill="#7a3133"/><path d="m16.2 14.8-9.8-5.3c0-.1.1-.2.1-.2l9.7 5.3c.1 0 0 .1 0 .2" fill="#7f3335"/><path d="m16.3 14.6-9.8-5.3c0-.1.1-.1.1-.2l9.7 5.3c.1.1 0 .1 0 .2" fill="#833437"/><path d="m16.4 14.4-9.7-5.3c0-.1 0-.1.1-.2l9.7 5.3c0 .1-.1.1-.1.2" fill="#883639"/><path d="m16.5 14.2-9.7-5.3s.1-.1.1-.1l9.7 5.3s0 .1-.1.1" fill="#8d383b"/><path d="m16.7 14.1-9.8-5.3c.1 0 .1-.1.2-.1l9.7 5.3s-.1.1-.1.1" fill="#903a3d"/><path d="m16.8 14-9.7-5.3c.1 0 .1-.1.2-.1l9.7 5.3s-.1 0-.2.1" fill="#963c3e"/><path d="m17 13.8-9.7-5.3c.1-.1.3-.1.4-.1l9.7 5.3c-.1 0-.2.1-.4.1" fill="#9b3d40"/></g></g><g><path d="m17.4 13.7c.7-.1 1.3.5 1.3 1.3s-.6 1.5-1.4 1.6c-.7.1-1.3-.5-1.3-1.3.1-.7.7-1.5 1.4-1.6z" fill="#cc5155"/></g><g><path d="m12.5 48.8-9.7-5.3v-28.9l9.8 5.4z" fill="#797979"/></g><g enable-background="new"><g clip-path="url(#SVGID_66_)" enable-background="new"><path d="m12.6 15.3-9.8-5.3c0-.4.1-.8.2-1.2l9.7 5.3c-.1.4-.1.8-.1 1.2" fill="#53575d"/><path d="m12.8 14.1-9.8-5.3c.1-.2.1-.3.2-.5l9.7 5.3c0 .2-.1.4-.1.5" fill="#565b61"/><path d="m13 13.7-9.8-5.3c.1-.2.2-.3.3-.4l9.7 5.3c-.1.1-.2.2-.2.4" fill="#595e64"/><path d="m13.2 13.3-9.7-5.3c.1-.1.2-.2.2-.3l9.7 5.3c0 .1-.1.2-.2.3" fill="#5c6168"/><path d="m13.4 13-9.7-5.3c.1-.1.2-.2.3-.3l9.7 5.3c-.1.1-.2.2-.3.3" fill="#5f656b"/><path d="m13.7 12.7-9.7-5.3.3-.3 9.7 5.3c-.1.1-.2.2-.3.3" fill="#62686f"/><path d="m14.1 12.4-9.8-5.3c.2-.1.3-.1.5-.2l9.7 5.3c-.2.1-.3.1-.4.2" fill="#656b72"/><path d="m14.5 12.2-9.7-5.3c.2-.1.5-.2.8-.3l9.7 5.3c-.3.1-.5.2-.8.3" fill="#696f76"/></g></g><g><path d="m15.3 11.9-9.7-5.3 43.2-6 9.7 5.3z" fill="#70767e"/></g><g><path d="m15.3 11.4-9.7-5.3 43.2-6.1 9.7 5.3z" fill="#84898c"/></g><g><path d="m12.6 20-9.8-5.4v-4.6l9.8 5.3z" fill="#51565b"/></g><g><path d="m12.6 15.3-9.8-5.3v-.6l9.8 5.3z" fill="#606466"/></g><g><path d="m58.5 5.9c1.5-.2 2.7.9 2.7 2.6v4.7l-48.6 6.8v-4.7c0-1.6 1.2-3.1 2.7-3.3zm-2.1 5.3c.7-.1 1.4-.8 1.4-1.6s-.6-1.4-1.3-1.3l-23.6 3.3c-.7.1-1.4.8-1.4 1.6s.6 1.4 1.3 1.3zm-29.7 4.1c.7-.1 1.4-.8 1.4-1.6s-.6-1.4-1.3-1.3-1.4.8-1.4 1.6c-.1.9.5 1.4 1.3 1.3m-9.3 1.3c.7-.1 1.4-.8 1.4-1.6s-.6-1.4-1.3-1.3-1.4.8-1.4 1.6c0 .9.6 1.4 1.3 1.3m4.7-.6c.7-.1 1.4-.8 1.4-1.6s-.6-1.4-1.3-1.3-1.4.8-1.4 1.6c-.1.8.5 1.4 1.3 1.3" fill="#89919a"/></g><g><path d="m58.5 5.3c1.5-.2 2.7.9 2.7 2.6v.5c0-1.6-1.2-2.8-2.7-2.6l-43.2 6.1c-1.5.2-2.7 1.7-2.7 3.3v-.5c0-1.6 1.2-3.1 2.7-3.3z" fill="#a2a8ad"/></g><g enable-background="new"><g clip-path="url(#SVGID_68_)" enable-background="new"><path d="m12.6 14.7-9.8-5.3c0-.4.1-.8.2-1.1l9.7 5.3c-.1.3-.1.7-.1 1.1" fill="#626568"/><path d="m12.8 13.6-9.8-5.3c.1-.2.2-.3.2-.5l9.7 5.3c0 .2-.1.3-.1.5" fill="#65696c"/><path d="m13 13.1-9.8-5.3c.1-.1.1-.2.2-.4l9.7 5.3c0 .2-.1.3-.1.4" fill="#696d70"/><path d="m13.2 12.8-9.7-5.3c.1-.1.2-.2.2-.3l9.7 5.3s-.1.1-.2.3" fill="#6d7174"/><path d="m13.4 12.4-9.7-5.3c.1-.1.2-.2.3-.2l9.7 5.3c-.1.1-.2.1-.3.2" fill="#707478"/><path d="m13.7 12.2-9.7-5.3.3-.3 9.7 5.3c-.1.1-.2.2-.3.3" fill="#74797c"/><path d="m14.1 11.9-9.8-5.3c.1-.1.3-.2.4-.3l9.7 5.3c0 .1-.2.2-.3.3" fill="#787d80"/><path d="m14.5 11.6-9.7-5.3c.2-.1.5-.2.8-.2l9.7 5.3c-.3 0-.5.1-.8.2" fill="#7b8083"/></g></g></g></g></svg>