<svg id="_x3C_Layer_x3E_" enable-background="new 0 0 500 500" viewBox="0 0 500 500" xmlns="http://www.w3.org/2000/svg"><g><path d="m466.068 125.258-216.07-124.755-216.064 124.748-.003 249.492 216.071 124.754 216.067-124.747z" fill="#1e1e1e"/><g><g><g><path d="m33.933 324.845 216.064-124.748 216.069 124.755-216.065 124.747z" fill="#ffa403"/><path d="m466.068 374.744-.002-49.892-216.065 124.747.001 49.893z" fill="#1e1e1e"/><path d="m250.002 499.492-216.07-124.754.001-49.893 216.068 124.754z" fill="#5e5e5e"/></g><g><path d="m33.933 225.051 216.064-124.748 216.069 124.754-216.065 124.748z" fill="#ffa403"/><path d="m466.068 274.95-.002-49.893-216.065 124.748.001 49.892z" fill="#1e1e1e"/><path d="m250.002 399.697-216.07-124.753.001-49.893 216.068 124.754z" fill="#5e5e5e"/></g><g><path d="m33.933 125.257 216.064-124.749 216.069 124.755-216.065 124.747z" fill="#939393"/><path d="m466.068 175.156-.002-49.893-216.065 124.747.001 49.893z" fill="#1e1e1e"/><path d="m250.002 299.903-216.07-124.754.001-49.892 216.068 124.753z" fill="#5e5e5e"/></g></g><path d="m249.998 150.2-43.214 24.948v.001h.002v.001l43.211 24.948h.001v-49.897z" fill="#d26e00"/><path d="m120.359 125.252v.001l.001-.001 43.212 24.949.001-.001v-.001l43.213-24.948v-.002l43.212-24.947v-49.897-.002l-43.214 24.949v.001l-43.212 24.948v.002l-43.213 24.948z" fill="#d26e00"/><path d="m293.211 175.149-43.213-24.948v49.897l.001.002h-.001l.001.001h.001l43.212-24.949v-.002z" fill="#ff9100"/><path d="m336.423 150.201 43.216-24.943-129.64-74.855-.001 49.899z" fill="#ff9100"/><path d="m293.212 175.149-43.213-24.949-43.215 24.948-43.211-24.949 86.425-49.897 86.425 49.899z" fill="#ffa403"/></g></g></svg>