<svg id="Icons" height="512" viewBox="0 0 60 60" width="512" xmlns="http://www.w3.org/2000/svg"><path d="m7 42v-35a2.006 2.006 0 0 1 2-2h42a2.006 2.006 0 0 1 2 2v35z" fill="#292d60"/><rect fill="#3b437f" height="28" rx="1" width="38" x="11" y="9"/><path d="m59 51v3a1 1 0 0 1 -1 1h-56a1 1 0 0 1 -1-1v-3l1-1h56z" fill="#c0dadc"/><path d="m59 51h-58l6-10h46z" fill="#d4e6e7"/><path d="m19 51 1.749-4.371a1 1 0 0 1 .928-.629h16.646a1 1 0 0 1 .928.629l1.749 4.371z" fill="#aac7c8"/><g fill="#5afeb7"><path d="m37 31a1 1 0 0 1 -.707-1.707l6.293-6.293-6.293-6.293a1 1 0 0 1 1.414-1.414l7 7a1 1 0 0 1 0 1.414l-7 7a1 1 0 0 1 -.707.293z"/><path d="m23 31a1 1 0 0 1 -.707-.293l-7-7a1 1 0 0 1 0-1.414l7-7a1 1 0 0 1 1.414 1.414l-6.293 6.293 6.293 6.293a1 1 0 0 1 -.707 1.707z"/><path d="m27 32a1.038 1.038 0 0 1 -.352-.063 1 1 0 0 1 -.585-1.289l6-16a1 1 0 0 1 1.874.7l-6 16a1 1 0 0 1 -.937.652z"/></g></svg>