<svg enable-background="new 0 0 64 64" height="512" viewBox="0 0 64 64" width="512" xmlns="http://www.w3.org/2000/svg"><g id="Layer_13"><path d="m53 22h-42c-1.1 0-2 .9-2 2v30c0 3.3 2.7 6 6 6h34c3.3 0 6-2.7 6-6v-30c0-1.1-.9-2-2-2z" fill="#e63950"/><path d="m53 22h-2v28c0 3.3-2.7 6-6 6h-34c-.6 0-1.2-.1-1.7-.3.7 2.5 3 4.3 5.7 4.3h34c3.3 0 6-2.7 6-6v-30c0-1.1-.9-2-2-2z" fill="#cd0000"/><path d="m35 22h-6c-1.1 0-2 .9-2 2v36h10v-36c0-1.1-.9-2-2-2z" fill="#ffda2d"/><path d="m27 56v4h10v-4z" fill="#ffaa17"/><path d="m41 4c-3.7 0-7 1.9-9 4.7-2-2.8-5.3-4.7-9-4.7-3.9 0-7 3.1-7 7s3.1 7 7 7h9 9c3.9 0 7-3.1 7-7s-3.1-7-7-7zm-18 10c-1.7 0-3-1.3-3-3s1.3-3 3-3c3.5 0 6.4 2.6 6.9 6zm18 0h-6.9c.5-3.4 3.4-6 6.9-6 1.7 0 3 1.3 3 3s-1.3 3-3 3z" fill="#ffda2d"/><path d="m60 20c0 3.3-2.7 6-6 6h-44c-3.3 0-6-2.7-6-6s2.7-6 6-6h44c3.3 0 6 2.7 6 6z" fill="#0e5098"/><path d="m55.7 14.3c.2.5.3 1.1.3 1.7 0 3.3-2.7 6-6 6h-44c-.6 0-1.2-.1-1.7-.3.7 2.5 3 4.3 5.7 4.3h44c3.3 0 6-2.7 6-6 0-2.7-1.8-5-4.3-5.7z" fill="#00204d"/></g></svg>