<svg id="Capa_1" enable-background="new 0 0 512 512" height="512" viewBox="0 0 512 512" width="512" xmlns="http://www.w3.org/2000/svg"><g><g><g><g><g><g><circle cx="256" cy="256" fill="#00429c" r="256"/></g></g></g></g></g><path d="m301.852 163.478 29.12 29.12.057 8.823-101.84-101.84-65.138 64.963 32.516 32.516v184.934l-32.505 32.505 97.432 97.432c138.847-2.926 250.506-116.383 250.506-255.931 0-4.277-.11-8.528-.317-12.753l-144.8-144.8z" fill="#00347b"/><g><path d="m266 234.386-54.412 20.746v-113.125h-30v239.986h30v-94.755l54.412-20.746 19.481-25.097z" fill="#fd5"/><path d="m320.412 213.64-54.412 20.746v32.106l84.412-32.183v-92.302h-30z" fill="#fc0"/><ellipse cx="335.412" cy="132.007" fill="#ff9e22" rx="45.984" ry="45.984" transform="matrix(.383 -.924 .924 .383 85.097 391.37)"/><g fill="#fc0"><ellipse cx="196.588" cy="381.993" rx="45.984" ry="45.984" transform="matrix(.383 -.924 .924 .383 -231.559 417.435)"/><ellipse cx="196.588" cy="132.007" rx="45.984" ry="45.984" transform="matrix(.383 -.924 .924 .383 -.601 263.114)"/></g></g></g></svg>