<svg enable-background="new 0 0 64 64" height="512" viewBox="0 0 64 64" width="512" xmlns="http://www.w3.org/2000/svg"><g id="Bachelor"><g><path d="m47.32 60.29c-.21 1.03-1.18 1.72-2.21 1.59-1.23-.16-2.46-.29-3.69-.41-2.13-.2-4.26-.33-6.4-.41-.01 0-.01 0-.02 0-.09 0-.18 0-.27-.01-1.23 0-2.71-.77-4.24-.77s-2.24.74-2.24.74c-3.8.09-7.59.38-11.36.86l-.12.02s0 0-.01 0c-.34.1-.62.1-.76.1-3.42 0-6-3.87-6-9 0-1.11.12-2.16.36-3.13.8-3.5 2.96-5.87 5.64-5.87.08 0 .17.01.25.02l.49.06c3.82.49 7.67.79 11.52.88 0 0 1.14.87 2.52.87 1.28 0 1.94-.79 3.59-.89.11-.01.22-.01.34-.01.09-.01.19-.01.29-.01h.04c2.13-.07 4.25-.21 6.37-.41 1.28-.12 2.56-.27 3.84-.43 1.07-.14 2.05.59 2.23 1.64.18 1.06-.51 2.07-1.56 2.3-.67.14-1.92 1.98-1.92 4.98 0 1.15.18 2.13.45 2.9.41 1.23 1.02 1.95 1.44 2.07 1.02.28 1.64 1.3 1.43 2.32z" fill="#fc753f"/><path d="m45.92 48.02c-.67.14-1.92 1.98-1.92 4.98 0 1.15.18 2.13.45 2.9l-.99 2.1s-17.44 0-24.46 0c-6.91 0-8.6-7.89-8.64-8.13.8-3.5 2.96-5.87 5.64-5.87.08 0 .17.01.25.02l.49.06c3.82.49 7.67.79 11.52.88 0 0 1.14.87 2.52.87 1.28 0 1.94-.79 3.59-.89.11-.01.22-.01.34-.01.09-.01.19-.01.29-.01h.04c2.13-.07 4.25-.21 6.37-.41 1.28-.12 2.56-.27 3.84-.43 1.07-.14 2.05.59 2.23 1.64.18 1.06-.51 2.07-1.56 2.3z" fill="#ffc242"/><path d="m31.12 58c-.69-1.39-1.12-3.13-1.12-5 0-4.18 2.13-7.81 4.71-8.07-2.15.07-4.3.08-6.45.03-1.41 2.12-2.26 4.92-2.26 8.04 0 1.8.28 3.49.8 5 .37 1.11.86 2.13 1.45 3.02 2.16-.05 4.32-.04 6.48.03-1.44-.13-2.74-1.31-3.61-3.05z" fill="#e51e82"/><path d="m30 53c0 1.87.43 3.61 1.12 5h-4.32c-.52-1.51-.8-3.2-.8-5 0-3.12.85-5.92 2.26-8.04 2.15.05 4.3.04 6.45-.03-2.58.26-4.71 3.89-4.71 8.07z" fill="#fe3d97"/><ellipse cx="46" cy="53" fill="#feac00" rx="4" ry="7"/><path d="m46 44c-3.42 0-6 3.87-6 9 0 1.88.35 3.6.96 5.01 1.05 2.44 2.88 3.99 5.04 3.99 2.99 0 5.34-2.96 5.88-7.14v-.01c.08-.6.12-1.21.12-1.85 0-5.13-2.58-9-6-9zm0 4c.58 0 2 1.75 2 5s-1.42 5-2 5-2-1.75-2-5 1.42-5 2-5z" fill="#ffc242"/><path d="m46 44c-3.42 0-6 3.87-6 9 0 1.88.35 3.6.96 5.01.36.27 7.63 5.71 10.92-3.15v-.01c.08-.6.12-1.21.12-1.85 0-5.13-2.58-9-6-9zm0 14c-.58 0-2-1.75-2-5s1.42-5 2-5 2 1.75 2 5-1.42 5-2 5z" fill="#fef156"/><path d="m50 55c-1.104 0-2-.896-2-2 0-3.248-1.42-5-2-5-1.104 0-2-.896-2-2s.896-2 2-2c3.421 0 6 3.869 6 9 0 1.104-.896 2-2 2z" fill="#fffbb3"/><path d="m61 40h-4c-.664 0-1.284-.329-1.656-.879-.372-.549-.447-1.248-.201-1.864l1.857-4.642v-14.615c0-1.104.896-2 2-2s2 .896 2 2v14.615l1.857 4.643c.246.616.171 1.314-.201 1.864-.372.549-.992.878-1.656.878z" fill="#ffc242"/><path d="m61 18c0 .74-.41 1.41-1.06 1.76l-8.71 4.67s0 0-.01 0l-19.28 10.33c-.29.16-.62.24-.94.24s-.65-.08-.94-.24l-28-15c-.65-.35-1.06-1.02-1.06-1.76s.41-1.41 1.06-1.76l2.31-1.24 25.69-13.76c.59-.32 1.29-.32 1.88 0l28 15c.65.35 1.06 1.02 1.06 1.76z" fill="#212335"/><ellipse cx="31" cy="36" fill="#111216" rx="14" ry="5"/><path d="m47 22v14c0 1.1-.9 2-2 2-.33 0-.64-.08-.91-.22.59-.56.91-1.16.91-1.78 0-2.76-6.27-5-14-5s-14 2.24-14 5c0 .63.33 1.23.92 1.78-.28.16-.59.24-.92.24-1.11 0-2-.92-2-2.02v-14c0-1.79 1.15-3.22 3-4.31 3.1-1.83 8.17-2.69 13-2.69 7.71 0 16 2.19 16 7z" fill="#2d3243"/><path d="m47 22v8.12c-3.68-2.96-10.17-4.12-16-4.12-2.685 0-5.511.245-8.135.799-2.504.528-4.865-1.343-4.865-3.902v-5.207c3.1-1.83 8.17-2.69 13-2.69 7.71 0 16 2.19 16 7z" fill="#384051"/><path d="m45 27.085c-1.104 0-2-.896-2-2v-3.085c-.055-.162-.818-1.069-3.471-1.882-1.057-.324-1.65-1.442-1.326-2.499s1.445-1.65 2.498-1.326c5.206 1.597 6.299 3.985 6.299 5.707v3.085c0 1.104-.896 2-2 2z" fill="#4d5460"/><path d="m34.115 19.124c-.054 0-.107-.002-.161-.006-.296-.023-.595-.044-.897-.061-1.103-.061-1.947-1.004-1.887-2.107s.979-1.943 2.107-1.887c.336.019.668.042.995.068 1.102.088 1.923 1.052 1.834 2.153-.083 1.046-.959 1.84-1.991 1.84z" fill="#4d5460"/><path d="m31 43c-7.706 0-16-2.19-16-7s8.294-7 16-7 16 2.19 16 7-8.294 7-16 7zm0-10c-7.688 0-11.755 2.2-12.004 3.036.249.764 4.316 2.964 12.004 2.964 7.58 0 11.641-2.139 11.991-3-.35-.861-4.411-3-11.991-3zm12.004 3.036h.01z" fill="#212335"/></g></g></svg>