<svg id="Capa_1" enable-background="new 0 0 510 510" height="512" viewBox="0 0 510 510" width="512" xmlns="http://www.w3.org/2000/svg" xmlns:xlink="http://www.w3.org/1999/xlink"><linearGradient id="lg1"><stop offset="0" stop-color="#5a5a5a"/><stop offset="1" stop-color="#444"/></linearGradient><linearGradient id="SVGID_1_" gradientTransform="matrix(0 1 1 0 1099.91 -1099.91)" gradientUnits="userSpaceOnUse" x1="1207.382" x2="1524.911" xlink:href="#lg1" y1="-992.438" y2="-674.908"/><linearGradient id="SVGID_00000070112198030500806350000004750174765404324027_" gradientTransform="matrix(0 1 1 0 1099.91 -1099.91)" gradientUnits="userSpaceOnUse" x1="1422.257" x2="1297.227" xlink:href="#lg1" y1="-675.381" y2="-990.11"/><linearGradient id="lg2"><stop offset="0" stop-color="#433f43" stop-opacity="0"/><stop offset="1" stop-color="#1a1a1a"/></linearGradient><linearGradient id="SVGID_00000160907143892186260590000017472379793728234429_" gradientUnits="userSpaceOnUse" x1="369.659" x2="369.659" xlink:href="#lg2" y1="248.5" y2="199.477"/><linearGradient id="SVGID_00000112593924844063347710000018303532446057122703_" gradientUnits="userSpaceOnUse" x1="181.421" x2="161.421" xlink:href="#lg2" y1="202.765" y2="152.765"/><linearGradient id="SVGID_00000169516566931010625340000009999822528681732509_" gradientUnits="userSpaceOnUse" x1="255" x2="255" xlink:href="#lg2" y1="427.689" y2="504.544"/><linearGradient id="SVGID_00000083770556617072009410000012507415806142306963_" gradientUnits="userSpaceOnUse" x1="225.861" x2="339.657" y1="176.87" y2="434.225"><stop offset="0" stop-color="#eaf9fa"/><stop offset="1" stop-color="#b3dafe"/></linearGradient><linearGradient id="lg3"><stop offset="0" stop-color="#7bacdf" stop-opacity="0"/><stop offset="1" stop-color="#7bacdf"/></linearGradient><linearGradient id="SVGID_00000080917782040656363250000000570731194717939368_" gradientUnits="userSpaceOnUse" x1="206.669" x2="-3.997" xlink:href="#lg3" y1="278.344" y2="141.677"/><linearGradient id="SVGID_00000164497366750385494490000009152264529219282308_" gradientUnits="userSpaceOnUse" x1="388.714" x2="346.214" xlink:href="#lg3" y1="254.83" y2="190.83"/><linearGradient id="SVGID_00000142152272338990638160000016186689097596640158_" gradientUnits="userSpaceOnUse" x1="292.819" x2="130.819" xlink:href="#lg3" y1="388.827" y2="337.494"/><linearGradient id="SVGID_00000178915738580299804530000002860386364867085962_" gradientUnits="userSpaceOnUse" x1="327.111" x2="424.127" y1="56.161" y2="153.177"><stop offset="0" stop-color="#fef0ae"/><stop offset="1" stop-color="#fbc56d"/></linearGradient><linearGradient id="SVGID_00000161608289364694342160000009011623976514309294_" gradientUnits="userSpaceOnUse" x1="431.096" x2="431.096" y1="169.492" y2="205.988"><stop offset="0" stop-color="#dc8758" stop-opacity="0"/><stop offset=".2153" stop-color="#dd8654" stop-opacity=".215"/><stop offset=".4291" stop-color="#e28448" stop-opacity=".429"/><stop offset=".6424" stop-color="#ea8034" stop-opacity=".642"/><stop offset=".8542" stop-color="#f47b18" stop-opacity=".854"/><stop offset="1" stop-color="#fe7701"/></linearGradient><linearGradient id="SVGID_00000075879340147108881510000011484167446097302165_" gradientUnits="userSpaceOnUse" x1="94.533" x2="143.533" y1="308.744" y2="397.744"><stop offset="0" stop-color="#fe860a"/><stop offset=".2435" stop-color="#fb7c0e"/><stop offset=".6648" stop-color="#f55f19"/><stop offset="1" stop-color="#ef4424"/></linearGradient><linearGradient id="SVGID_00000116223879107948380610000009390316209911640504_" gradientUnits="userSpaceOnUse" x1="30.555" x2="173.245" y1="29.09" y2="171.78"><stop offset="0" stop-color="#62dbfb"/><stop offset=".1912" stop-color="#57d5fa"/><stop offset=".5232" stop-color="#3bc5f7"/><stop offset=".954" stop-color="#0dabf2"/><stop offset="1" stop-color="#08a9f1"/></linearGradient><linearGradient id="SVGID_00000040551810908311494500000014348146055517161861_" gradientTransform="matrix(-1 0 0 1 1322.53 0)" gradientUnits="userSpaceOnUse" x1="1252.539" x2="1252.539" y1="152.008" y2="184.381"><stop offset="0" stop-color="#0593fc" stop-opacity="0"/><stop offset=".6831" stop-color="#0389fc" stop-opacity=".683"/><stop offset="1" stop-color="#0182fc"/></linearGradient><linearGradient id="SVGID_00000039855911619709338070000006018969278837024417_" gradientUnits="userSpaceOnUse" x1="323.327" x2="464.729" y1="283.045" y2="424.447"><stop offset="0" stop-color="#aeffd1"/><stop offset=".1201" stop-color="#a3f9cb"/><stop offset=".3288" stop-color="#87eab9"/><stop offset=".6012" stop-color="#59d19d"/><stop offset=".9235" stop-color="#19af77"/><stop offset="1" stop-color="#09a76d"/></linearGradient><g><g><g><path d="m423.985 486.992v-463.984c0-12.707-10.301-23.008-23.008-23.008h-291.954c-12.707 0-23.008 10.301-23.008 23.008v463.983c0 12.707 10.301 23.008 23.008 23.008h291.954c12.707.001 23.008-10.3 23.008-23.007z" fill="url(#SVGID_1_)"/><path d="m390.719 14.71h-271.438c-8.262 0-14.96 6.698-14.96 14.96v450.66c0 8.262 6.698 14.96 14.96 14.96h271.438c8.262 0 14.96-6.698 14.96-14.96v-450.66c0-8.262-6.698-14.96-14.96-14.96z" fill="url(#SVGID_00000070112198030500806350000004750174765404324027_)"/><path d="m423.985 173h-56.485l-52.167 52.167 108.652 108.652z" fill="url(#SVGID_00000160907143892186260590000017472379793728234429_)"/><path d="m423.985 486.992v-205.007l-246.652-246.652h-91.318v451.658c0 12.707 10.301 23.008 23.008 23.008h291.954c12.707.001 23.008-10.3 23.008-23.007z" fill="url(#SVGID_00000112593924844063347710000018303532446057122703_)"/><path d="m86.015 277.333v209.658c0 12.707 10.301 23.008 23.008 23.008h291.954c12.707 0 23.008-10.301 23.008-23.008v-209.658z" fill="url(#SVGID_00000169516566931010625340000009999822528681732509_)"/></g><path d="m388.06 45.55v394.45c0 7.478-6.062 13.54-13.54 13.54h-239.03c-7.483 0-13.55-6.067-13.55-13.55v-394.45c0-7.478 6.062-13.54 13.54-13.54h62.185c4.786 0 8.665 3.879 8.665 8.665 0 4.786 3.879 8.665 8.665 8.665h80.01c4.786 0 8.665-3.879 8.665-8.665 0-4.786 3.879-8.665 8.665-8.665h62.175c7.483 0 13.55 6.067 13.55 13.55z" fill="url(#SVGID_00000083770556617072009410000012507415806142306963_)"/><path d="m177.333 35.333h-50.727c-2.852 2.483-4.663 6.131-4.663 10.209v394.458c0 7.479 6.063 13.542 13.542 13.542h239.028c7.479 0 13.542-6.063 13.542-13.542v-193.944z" fill="url(#SVGID_00000080917782040656363250000000570731194717939368_)"/><path d="m388.056 173h-20.556l-52.167 52.167 72.723 72.723z" fill="url(#SVGID_00000164497366750385494490000009152264529219282308_)"/><path d="m197.333 243.333v48.667h-75.39v148c0 7.479 6.063 13.542 13.542 13.542h239.028c7.479 0 13.542-6.063 13.542-13.542v-5.944z" fill="url(#SVGID_00000142152272338990638160000016186689097596640158_)"/></g><g><path d="m435.723 14.71h-72.943c-41.022 0-74.277 33.255-74.277 74.277v36.471c0 21.635 9.257 41.104 24.018 54.679v38.861c0 7.264 8.783 10.902 13.92 5.766l25.788-25.788c3.448.491 6.968.759 10.552.759h72.943c41.022 0 74.277-33.255 74.277-74.277v-36.47c-.001-41.023-33.256-74.278-74.278-74.278z" fill="url(#SVGID_00000178915738580299804530000002860386364867085962_)"/><path d="m424.412 126.793-72.185 72.185c3.449.491 6.969.758 10.554.758h72.943c40.575 0 73.529-32.539 74.244-72.943z" fill="url(#SVGID_00000161608289364694342160000009011623976514309294_)"/></g><path d="m200.982 288.115v-38.861c0-7.264-8.783-10.902-13.92-5.766l-25.788 25.788c-3.448-.491-6.968-.759-10.552-.759h-72.942c-41.022 0-74.277 33.255-74.277 74.277v36.471c0 41.022 33.255 74.277 74.277 74.277h72.943c41.022 0 74.277-33.255 74.277-74.277v-36.471c0-21.636-9.257-41.104-24.018-54.679z" fill="url(#SVGID_00000075879340147108881510000011484167446097302165_)"/><g><path d="m65.887 14.71h64.703c36.388 0 65.887 29.499 65.887 65.887v32.352c0 19.192-8.211 36.461-21.305 48.503v34.471c0 6.444-7.791 9.671-12.347 5.114l-22.875-22.875c-3.059.435-6.181.674-9.36.674h-64.703c-36.388 0-65.887-29.498-65.887-65.887v-32.352c0-36.388 29.499-65.887 65.887-65.887z" fill="url(#SVGID_00000116223879107948380610000009390316209911640504_)"/><path d="m75.92 114.133 64.032 64.032c-3.059.435-6.182.672-9.362.672h-64.703c-35.992 0-65.223-28.863-65.857-64.704z" fill="url(#SVGID_00000040551810908311494500000014348146055517161861_)"/></g><g fill="#fff"><path d="m102.155 95.853h-48.641c-4.496 0-8.14 3.644-8.14 8.14s3.644 8.14 8.14 8.14h48.641c4.496 0 8.14-3.645 8.14-8.14s-3.645-8.14-8.14-8.14z"/><path d="m142.964 68.52h-48.641c-4.496 0-8.14 3.644-8.14 8.14s3.645 8.14 8.14 8.14h48.641c4.496 0 8.14-3.645 8.14-8.14 0-4.496-3.644-8.14-8.14-8.14z"/><path d="m69.316 68.52h-15.802c-4.496 0-8.14 3.644-8.14 8.14s3.645 8.14 8.14 8.14h15.803c4.496 0 8.14-3.645 8.14-8.14 0-4.496-3.645-8.14-8.141-8.14z"/></g><path d="m444.113 453.542h-64.703c-36.388 0-65.887-29.499-65.887-65.887v-32.352c0-19.192 8.211-36.461 21.305-48.503v-34.471c0-6.444 7.791-9.671 12.347-5.114l22.875 22.875c3.059-.435 6.181-.674 9.36-.674h64.703c36.388 0 65.887 29.499 65.887 65.887v32.352c0 36.389-29.499 65.887-65.887 65.887z" fill="url(#SVGID_00000039855911619709338070000006018969278837024417_)"/><g fill="#fff"><g><path d="m415.677 378.292h-48.641c-4.496 0-8.14 3.644-8.14 8.14s3.644 8.14 8.14 8.14h48.641c4.496 0 8.14-3.645 8.14-8.14.001-4.495-3.644-8.14-8.14-8.14z"/><path d="m456.486 350.959h-48.641c-4.496 0-8.14 3.644-8.14 8.14s3.645 8.14 8.14 8.14h48.641c4.496 0 8.14-3.645 8.14-8.14.001-4.496-3.644-8.14-8.14-8.14z"/><path d="m382.839 350.959h-15.803c-4.496 0-8.14 3.644-8.14 8.14s3.645 8.14 8.14 8.14h15.803c4.496 0 8.14-3.645 8.14-8.14 0-4.496-3.644-8.14-8.14-8.14z"/></g><g><path d="m415.59 68.52h-89.45c-4.496 0-8.14 3.645-8.14 8.14 0 4.496 3.644 8.14 8.14 8.14h89.45c4.496 0 8.14-3.644 8.14-8.14 0-4.495-3.645-8.14-8.14-8.14z"/><path d="m382.921 106.099c0-4.496-3.645-8.14-8.14-8.14h-48.641c-4.496 0-8.14 3.645-8.14 8.14 0 4.496 3.644 8.14 8.14 8.14h48.641c4.495.001 8.14-3.644 8.14-8.14z"/><path d="m415.59 125.293h-48.641c-4.496 0-8.14 3.645-8.14 8.14 0 4.496 3.645 8.14 8.14 8.14h48.641c4.496 0 8.14-3.644 8.14-8.14s-3.644-8.14-8.14-8.14z"/><path d="m341.942 125.293h-15.803c-4.496 0-8.14 3.645-8.14 8.14 0 4.496 3.645 8.14 8.14 8.14h15.803c4.496 0 8.14-3.644 8.14-8.14.001-4.496-3.644-8.14-8.14-8.14z"/><path d="m472.363 97.959h-31.915c-4.496 0-8.14 3.644-8.14 8.14s3.645 8.14 8.14 8.14h31.915c4.496 0 8.14-3.645 8.14-8.14.001-4.496-3.644-8.14-8.14-8.14z"/><path d="m415.442 114.24c4.496 0 8.14-3.645 8.14-8.14 0-4.496-3.644-8.14-8.14-8.14h-15.803c-4.496 0-8.14 3.644-8.14 8.14s3.645 8.14 8.14 8.14z"/></g><g><path d="m130.59 321.52h-89.45c-4.496 0-8.14 3.645-8.14 8.14 0 4.496 3.644 8.14 8.14 8.14h89.45c4.496 0 8.14-3.644 8.14-8.14 0-4.495-3.645-8.14-8.14-8.14z"/><path d="m97.921 359.099c0-4.496-3.645-8.14-8.14-8.14h-48.642c-4.496 0-8.14 3.645-8.14 8.14 0 4.496 3.644 8.14 8.14 8.14h48.641c4.496.001 8.141-3.644 8.141-8.14z"/><path d="m130.59 378.293h-48.641c-4.496 0-8.14 3.645-8.14 8.14 0 4.496 3.645 8.14 8.14 8.14h48.641c4.496 0 8.14-3.644 8.14-8.14s-3.644-8.14-8.14-8.14z"/><path d="m56.942 378.293h-15.803c-4.496 0-8.14 3.645-8.14 8.14 0 4.496 3.645 8.14 8.14 8.14h15.803c4.496 0 8.14-3.644 8.14-8.14.001-4.496-3.644-8.14-8.14-8.14z"/><path d="m187.363 350.959h-31.915c-4.496 0-8.14 3.644-8.14 8.14s3.645 8.14 8.14 8.14h31.915c4.496 0 8.14-3.645 8.14-8.14.001-4.496-3.644-8.14-8.14-8.14z"/><path d="m130.442 367.24c4.496 0 8.14-3.645 8.14-8.14 0-4.496-3.644-8.14-8.14-8.14h-15.803c-4.496 0-8.14 3.644-8.14 8.14s3.645 8.14 8.14 8.14z"/></g></g></g></svg>