<svg enable-background="new 0 0 512 512" height="512" viewBox="0 0 512 512" width="512" xmlns="http://www.w3.org/2000/svg" xmlns:xlink="http://www.w3.org/1999/xlink"><linearGradient id="lg1"><stop offset=".0168" stop-color="#ccc"/><stop offset="1" stop-color="#f2f2f2"/></linearGradient><linearGradient id="SVGID_1_" gradientUnits="userSpaceOnUse" x1="303.86" x2="303.86" xlink:href="#lg1" y1="451.333" y2="66.974"/><linearGradient id="SVGID_2_" gradientUnits="userSpaceOnUse" x1="251.376" x2="251.376" y1="455.961" y2="98.519"><stop offset="0" stop-color="#f79808"/><stop offset="1" stop-color="#ecbd0b"/></linearGradient><linearGradient id="SVGID_3_" gradientUnits="userSpaceOnUse" x1="146.218" x2="146.218" xlink:href="#lg1" y1="302.35" y2="56.039"/><g id="_x31_9_Renovation"><g><path d="m495.964 155.886c1.074 25.109-7.926 50.575-27.155 69.752-23.933 23.933-57.684 32.115-88.316 24.393l-46.434 46.485-63.463 63.411-77.373 77.424c-18.972 18.87-49.246 18.41-67.554 0-18.666-18.666-18.666-48.888 0-67.554l77.424-77.372 109.846-109.845c-7.006-28.126-.665-59.014 18.768-82.231 19.637-23.37 47.764-34.467 75.378-33.291 7.824.358 11.353 9.972 5.83 15.495l-30.99 31.041c-2.301 2.301-3.222 5.624-2.352 8.744l11.557 43.109c.869 3.171 3.273 5.575 6.444 6.444l43.11 11.557c3.119.87 6.444-.051 8.745-2.352l31.041-30.99c5.522-5.522 15.136-1.993 15.494 5.78z" fill="url(#SVGID_1_)"/><path d="m131.425 108.592 288.593 288.593c13.456 13.456 13.419 35.257-.036 48.712-13.382 13.382-35.22 13.455-48.675 0l-288.594-288.593c-5.147-5.147-8.308-11.544-9.485-18.235-1.985-10.735 1.25-22.205 9.485-30.44 6.765-6.765 15.551-10.11 24.374-10.11 2.059 0 4.117.147 6.139.551 6.692 1.177 13.052 4.376 18.199 9.522z" fill="url(#SVGID_2_)"/><path d="m265.5 144.106-147.236 147.236c-14.656 14.656-38.451 14.699-53.15.001l-38.156-38.156c-14.699-14.699-14.656-38.494 0-53.15l132.959-132.959c11.119-11.119 27.964-14.151 42.2-7.665l52.434 23.963c23.794 10.909 29.438 42.242 10.949 60.73z" fill="url(#SVGID_3_)"/></g></g></svg>