<svg id="Layer_1" enable-background="new 0 0 53 53" height="512" viewBox="0 0 53 53" width="512" xmlns="http://www.w3.org/2000/svg" xmlns:xlink="http://www.w3.org/1999/xlink"><linearGradient id="lg1"><stop offset=".0000004" stop-color="#efefef"/><stop offset=".9999996" stop-color="#96a1b2"/></linearGradient><linearGradient id="SVGID_1_" gradientTransform="matrix(-1 0 0 1 2672.432 96.64)" gradientUnits="userSpaceOnUse" x1="2634.682" x2="2669.816" xlink:href="#lg1" y1="-63.489" y2="-63.489"/><linearGradient id="SVGID_2_" gradientUnits="userSpaceOnUse" x1="20.211" x2="20.211" y1="20.819" y2="33.17"><stop offset=".5694899" stop-color="#55b4fb"/><stop offset=".9999998" stop-color="#0d81f3"/></linearGradient><linearGradient id="SVGID_3_" gradientUnits="userSpaceOnUse" x1="39.446" x2="7.369" xlink:href="#lg1" y1="20.933" y2="20.933"/><linearGradient id="SVGID_4_" gradientUnits="userSpaceOnUse" x1="1.557" x2="30.242" xlink:href="#lg1" y1="25.344" y2="25.344"/><linearGradient id="lg2"><stop offset="0" stop-color="#fef328"/><stop offset=".8864868" stop-color="#ff7f02"/></linearGradient><linearGradient id="XMLID_2_" gradientUnits="userSpaceOnUse" x1="20.377" x2="20.037" xlink:href="#lg2" y1="20.084" y2="15.742"/><linearGradient id="SVGID_5_" gradientUnits="userSpaceOnUse" x1="20.21" x2="20.21" xlink:href="#lg2" y1="15.339" y2="5.184"/><linearGradient id="lg3"><stop offset=".0000001" stop-color="#727272"/><stop offset=".9999996" stop-color="#262626"/></linearGradient><linearGradient id="SVGID_6_" gradientUnits="userSpaceOnUse" x1="20.118" x2="20.118" xlink:href="#lg3" y1="2.186" y2="9.193"/><linearGradient id="SVGID_7_" gradientUnits="userSpaceOnUse" x1="20.21" x2="20.21" xlink:href="#lg3" y1="19.039" y2="26.604"/><linearGradient id="SVGID_8_" gradientUnits="userSpaceOnUse" x1="41.731" x2="11.449" xlink:href="#lg1" y1="33.114" y2="33.114"/><linearGradient id="SVGID_9_" gradientUnits="userSpaceOnUse" x1="30.814" x2="36.664" y1="36.969" y2="36.969"><stop offset=".0000005" stop-color="#c36435"/><stop offset=".9963962" stop-color="#6b3017"/></linearGradient><linearGradient id="SVGID_10_" gradientUnits="userSpaceOnUse" x1="41.428" x2="43.618" y1="42.116" y2="37.876"><stop offset=".0000001" stop-color="#52cc52"/><stop offset=".8864866" stop-color="#82ea73"/></linearGradient><g id="_x33_7"><path d="m2.6683679 25.371603-.012656 3.6670341c.0000005 6.5198498 7.9015181 11.8174649 17.5667746 11.8176556 9.7358761.0001945 17.5667744-5.2971077 17.5667744-11.8169594l-.0369568-3.6670341z" fill="url(#SVGID_1_)"/><ellipse cx="20.211" cy="25.344" fill="url(#SVGID_2_)" rx="17.544" ry="11.791"/><g><path d="m20.2104206 19.4884949c8.1613998 0 15.0007458 3.7506924 16.9614048 8.8232861.3670387-.9497051.5826683-1.9403477.5826683-2.9675541 0-6.5116825-7.8546753-11.7905293-17.5440731-11.7908421-9.6892404-.0003128-17.543916 5.2785339-17.543916 11.7902164 0 1.0268936.2154727 2.0178509.5826669 2.967556 1.9606612-5.0725937 8.8001621-8.8229751 16.9612491-8.8226623z" fill="url(#SVGID_3_)"/></g><g><path d="m20.2104206 13.5533848c-9.6892404-.0003128-17.543916 5.2785339-17.543916 11.7902164s7.8546753 11.790844 17.5439167 11.790844c9.6893978.000309 17.5440731-5.2785358 17.5440731-11.7902184s-7.854676-11.7905292-17.5440738-11.790842zm.0000019 22.6277065c-8.9056749-.0003052-16.1251955-4.8522873-16.1251955-10.8374805s7.2195206-10.8368731 16.1251945-10.8368731c8.9058266.0003042 16.1253471 4.8522863 16.1253471 10.8374796s-7.2195195 10.836874-16.1253461 10.836874z" fill="url(#SVGID_4_)"/></g><g><g><g><g><g><g id="XMLID_13_"><g id="XMLID_14_"><g id="XMLID_15_"><path d="m26.2732468 30.464592-1.3189373-12.0624619h-9.5484534l-1.3353653 12.0624619z" fill="#ccd2db"/><path id="XMLID_18_" d="m16.861 15.266h6.623v4.393h-6.623z" fill="url(#XMLID_2_)"/><path d="m15.5973101 7.5265994v4.4631085c0 2.5468388 2.0653505 5.5147953 4.6130762 5.5147953s4.6130753-2.9679565 4.6130753-5.5147953v-4.4631085z" fill="url(#SVGID_5_)"/><g id="XMLID_16_"><path id="XMLID_17_" d="m15.0825081 11.8300781v.0427399s.0004806-.0161715 0-.0427399z" fill="#515151"/></g></g></g></g><path d="m25.2636395 7.6701517c-1.4850273-4.6419601-7.0584126-4.8213387-9.8289318-1.2931485-1.3878374 1.76722.072814 5.6338534.1760969 5.9979224v.0062504c.006094.012188.006094.024375.006094.024375-.085001-1.8153458.4250078-2.6894245.7406397-3.3634987.1942215-.4128208.5950108-.7040758 1.0503311-.7284508 2.5619221-.13344 1.7301884 1.7909698 5.621666.3887568.5525093-.2006283 1.2020531-.0243759 1.499403.4856339.0182819.0303135.030468.0543756.036562.072814.2245369.8134527.2487545 1.9547234.2428169 3.1447449.4431343-1.4631519.5767307-2.9384909.5767307-2.9384909.0120315-.6497003.0434379-1.2815868-.1214085-1.7969085z" fill="url(#SVGID_6_)"/><g><path d="m31.6090679 21.4000912c-.361412-1.0718937-1.156271-1.9390984-2.2042599-2.3850441-.0723438-.0356255-.1567211-.0599995-.240942-.0959377-.0120316 0-.0242176-.012188-.0360947-.012188l-5.6010399-1.879097-.1034393 4.370079-3.1984959 7.3298225-3.1491203-7.3595104-.1737537-4.3403912c-5.8013906 1.9536419-5.800252 1.919384-6.0826111 2.0837879-1.0962706.5421982-1.8911285 1.5778408-2.120039 2.8066139l-1.0239258 5.8463573c0 8.7123489 25.0701485 8.6989098 25.0701485 0-1.0142841-5.838909-.9922065-5.9599264-1.1364269-6.3644922z" fill="url(#SVGID_7_)"/><g><g><path d="m16.8689003 16.4152431c.7366276 1.2637196 2.1420193 2.6136379 3.3193855 3.2437344-2.1738472.927124-4.0641785 2.2187099-4.0681229 2.2608109l-.7400951-4.3813972z" fill="#fff"/></g><path d="m23.4832878 16.4152431c-.7366295 1.2637196-2.1340427 2.6136379-3.3114071 3.2437344 2.1738472.927124 4.0641766 2.2187099 4.068121 2.2608109l.7381153-4.4152851z" fill="#fff"/></g></g></g></g></g></g></g><g><path d="m37.7523041 25.3723526c-.0234375 6.496994-7.8765488 11.7592773-17.5481339 11.761467-9.6708021-.0025024-17.512352-5.2641602-17.5357914-11.7624054l-.0126565 3.6672401c0 6.5198059 7.9013953 11.8174057 17.5667286 11.8177185 9.73596 0 17.5667286-5.297287 17.5667286-11.8170929z" fill="url(#SVGID_8_)"/></g><g><g><g><path d="m34.0544739 40.056076-2.8927536-1.7322273c-.5601311-.3354187-.4283161-1.5881386.2896252-2.7871284.7231846-1.2077446 1.7599812-1.9066505 2.3201122-1.5712318l2.8927574 1.7322273z" fill="url(#SVGID_9_)"/></g></g><g><g><path d="m49.3826637 46.5842171c-1.0750771 1.8063202-2.6338882 2.8598747-3.4617195 2.3543587h-.0107612l-12.6472397-7.5714073c-.838459-.5049934-.6342583-2.3758812.4408188-4.1711769 1.0858421-1.8168182 2.6338921-2.8596153 3.4724808-2.3543587l12.6473694 7.5714073c.8384627.5052566.6448897 2.3758812-.4409486 4.1711769z" fill="url(#SVGID_10_)"/></g></g></g></g></svg>