<svg id="Layer_1" enable-background="new 0 0 53 53" viewBox="0 0 53 53" xmlns="http://www.w3.org/2000/svg"><g><g><g><path d="m6.8460259 33.8776627-.0099129 5.3446731 9.5487385 5.1944199.0099124-5.344677z" fill="#1f9dea"/><g fill="#1694d3"><path d="m6.8282833 43.4381332 9.5487385 5.1944161.0078297-4.2157936-9.5487385-5.1944199z"/><path d="m16.4117546 29.9337177-9.5487385-5.1944179-.0169902 9.1383629 9.548738 5.194416z"/></g></g><path d="m48.209568 27.832346-9.5484352-5.1941319c-.0740089-.0400906-.1439018-.0873775-.2097015-.1439114l-2.2182579-1.8821411 9.5484352 5.1941357 2.2182846 1.8821411c.065773.0565357.1366959.1048451.2096748.1439076z" fill="#71645e"/><path d="m31.123642 13.3679752 14.6580009 12.4383355-.034729 18.6985721-29.3698959 4.1276703.0347309-18.6988335z" fill="#32a8ff"/><path d="m18.2551575 30.6359196 13.0502453-14.6951475 12.6296749 10.7177553-.0297165 16.2427864-25.679924 3.6090584z" fill="#1f9dea"/><path d="m31.1306858 9.5755558c.3605766-.0506763.72089.0397253 1.0059528.2817421l17.8810196 15.1729622c.6062851.5151653.6466751 1.527729.0890617 2.261507-.2946472.3881588-.6976624.6209011-1.1015892.6776695-.3595657.0505333-.7198296-.0382748-1.0053596-.2808876l-2.2181282-1.8822384-14.6580009-12.4383354-14.7118931 16.5657444-1.8672199 2.1025162c-.2865467.3229752-.6474009.5131683-1.0069208.5636978-.4039812.0567741-.8062687-.0627518-1.0996571-.3683014-.5551662-.5781155-.5110006-1.6018391.0975142-2.2877312l17.5876961-19.803627c.2860908-.3222875.6469306-.5140399 1.0075244-.5647182z" fill="#7b6f69"/><g><path d="m2.986794 24.7495823c-.6085269.685627-.6527209 1.7094498-.0976484 2.2871456.0914874.0955963.1932514.1726913.3022056.2323132l9.5484619 5.1941319c-.1089668-.0596161-.2107306-.1367111-.3022184-.2312851-.5550842-.5787258-.5108786-1.602541.097661-2.2881699l3.7941589-4.2720222-9.5479851-5.1949081z" fill="#5e514c"/><path d="m30.1231346 10.1406326c.2857666-.322772.6465721-.5139656 1.0073757-.565362.2765083-.0390615.5530396.0051384.7956181.1377459l-9.5484371-5.1951656c-.2426033-.1315722-.5191097-.1757722-.7956161-.1367168-.3608055.050374-.721611.2425966-1.0073776.5643392l-4.4752121 5.0391126 9.5482845 5.1950779z" fill="#71645e"/><path d="m11.4404697 15.2306833-4.6590409 5.2461043 9.5479856 5.1949081 4.6591663-5.2460155z" fill="#71645e"/><path d="m25.6477699 15.1796637-9.5482845-5.1950779-4.6590157 5.2460975 9.548111 5.1949969z" fill="#5e514c"/></g><g><path d="m21.9579163 33.991188c-.002037 1.0796089.1590366 2.0950966.4572105 3.0235405l1.1762466.6461754c-.2995853-.9313431.817524-2.0235901.819561-3.1073532 0-.9414139-1.1453133-1.7922745-.9145126-2.6847591l-1.1684113-.6419849c-.2328376.8945236-.3679008 1.8206596-.3700942 2.7643813z" fill="#f9d12b"/><g><g fill="#eabe03"><path d="m26.1552353 41.6477165 1.1678314.6353493c-1.3666992-1.1792603-2.3093262-3.04953-3.7316895-4.6221619l-1.1762505-.6461754c.6610604 2.0574532 1.9977532 3.6865998 3.7401086 4.632988z"/><path d="m24.612812 26.7420864c-1.0585728 1.2945042-1.8536015 2.8292103-2.2848015 4.4847202l1.168396.641983c1.3115234-.961853 2.4865723-2.1979675 2.2810059-4.4868317z"/><path d="m30.8787079 23.8830261c.4301033-.1283646.8664761-.2246475 1.3092728-.2888107.4493752-.0641632.8857498-.0898609 1.3156967-.083437.8086586.0128479 1.5787735.1476002 2.3040733.3850574.4235268.1412144.8342018.3208942 1.2193375.5326958l-1.1680984-.6417885c-.3914032-.2053776-.7958107-.3850574-1.2193336-.5262718-.7253036-.2374573-1.5018425-.3722076-2.3105011-.3850555-.4235249-.006424-.8663197.0192318-1.3091164.0834351-.4429531.0641632-.879324.1604462-1.3092728.2888126-.2121544.0623207-.4214859.1331043-.6283131.2102337l1.1626148.6386929c.2085495-.0786172.4196053-.150692.6336403-.213564z"/></g><path d="m25.9498196 27.1625538c.763689-.8856697 2.7570934-.4972458 3.7326221-1.0876789.5330486-.3255558-.016489-1.7600594.5626259-1.9782848l-1.1626148-.6386929c-.5811501.2166977-1.1408348.4899979-1.6757622.8166103-.9755306.596859-1.867548 1.3605881-2.6249695 2.2526836-.059227.0690193-.111248.1444244-.1689091.2148952l1.1644955.6398678c.0589142-.0719584.1121864-.1489295.1725121-.2194003z" fill="#f9d12b"/><path d="m32.1907578 23.595583c.4452934-.062582.8828468-.0892105 1.3108597-.0823898.8086243.0129108 1.5828667.1459408 2.3069992.3855114.9750748.3225727 1.8595848.8378315 2.6183243 1.5123711 1.7258415 1.5342846 2.799057 3.8915901 2.7938881 6.6732445-.010006 5.3879089-4.0692558 10.3297386-9.0663261 11.032032-4.9969349.7022743-9.0347805-3.1015854-9.0247726-8.4894905.0051689-2.7833042 1.0871468-5.4444504 2.8200111-7.4650059.7614994-.8878174 1.6489468-1.6522026 2.6254501-2.2485714.7240028-.4421139 1.4969101-.7917652 2.3044701-1.031599.4281214-.1271345.8658064-.2235204 1.3110961-.2861024z" fill="#ffe03c"/><path d="m32.1879654 25.3569202c.3649368-.0512886.7235298-.0731125 1.0743065-.067524.6627007.010582 1.297226.119606 1.8906822.3159447.799118.2643623 1.5240135.6866379 2.1458321 1.2394524 1.414402 1.2574139 2.2939453 3.1893253 2.289711 5.4690151-.0082016 4.4156227-3.3349304 8.4656639-7.4302444 9.0412254-4.0952034.5755424-7.4043922-2.5418816-7.3961906-6.9575081.0042362-2.2810364.8909645-4.4619598 2.311121-6.1178913.6240807-.7276058 1.3513813-1.3540516 2.1516685-1.842802.5933514-.3623314 1.2267838-.6488857 1.8886127-.8454399.3508644-.1041908.7095661-.1831856 1.074501-.2344723z" fill="#f9d12b"/><g opacity=".2"><path d="m26.9243736 31.2124176c-.0503826 0-.1007633-.0111961-.1479473-.0351868-.161541-.0815697-.2263165-.278698-.1439457-.440239.3630657-.7189388.8125019-1.3918934 1.334713-2.0004711.1183567-.1383495.3246803-.1523438.4622307-.0355873.1367493.1179581.1527443.3246822.0351868.461832-.4878216.5689926-.9076691 1.1979637-1.2483444 1.8701172-.0575791.1139584-.1727372.179535-.2918931.179535z" fill="#fff"/></g><g opacity=".2"><path d="m26.1414585 33.3644333c-.0239906 0-.0487823-.0023994-.0735722-.0083961-.1759357-.0403862-.2862968-.2163239-.2455101-.3926582.0815697-.355072.1879311-.7177391.3158836-1.0780067.0607777-.1699371.2463112-.260704.4182472-.1991272.1703377.0603771.2599049.2479095.1991272.4182472-.1191559.3366776-.2183189.6749535-.2950916 1.006031-.0351867.1515464-.1695384.25391-.3190841.25391z" fill="#fff"/></g><path d="m39.5856438 32.3109207c-.007637 4.4176521-3.3343201 8.4690857-7.4238014 9.0413246-1.5717907.2212944-3.0290184-.0991936-4.2193165-.8392639 1.0451889.4654083 2.243124.6408806 3.5096073.4577713 4.0896683-.5722351 7.4163513-4.6236687 7.4239883-9.0413208.007637-2.273674-.8699036-4.2116776-2.2889442-5.4629803-.2671204-.2365227-.5493279-.4501343-.8469925-.6332417.5722351.259388 1.091011.5951004 1.5565109 1.0147324 1.4190445 1.2513028 2.2965851 3.1893082 2.2889481 5.4629784z" fill="#eabe03"/><g><g fill="#f3f2fd"><path d="m32.2709694 37.8949127-.0429268-.7297897-.3325462-.1556206.0428181.7297974c.0056305.0946503.0367374.1656036.0931568.2082176.0137749.0107727.0283394.0197601.0436897.0269318l.3325424.1555901c-.0153503-.0071449-.0298004-.0161362-.0436897-.0269012-.0564156-.0426141-.0875244-.1135675-.0930443-.2082254z"/><path d="m33.658062 34.1814766-.3325424-.1556206c.2200012.1029243.3383751.2850227.3535995.5451851.0419273.7114601-.3783798 1.1907463-1.2606125 1.4392967l.3325462.1556206c.8822289-.2485809 1.3025398-.7278404 1.2607231-1.4393044-.015335-.2601547-.1337127-.4422531-.3537139-.5451774z"/><path d="m33.3803902 32.989315c-.3066978-.0752602-.6886177-.1259956-1.1484375-.1500816l.3326569.1555862c.4598198.0241127.841629.0748558 1.1483269.150116.1056786.0264778.2060699.061882.3010674.1063347l-.3326569-.1556129c-.0949975-.0444527-.1952745-.0798646-.3009568-.1063424z"/><path d="m33.7980042 29.5707436c-.0297813-.0139217-.0629311-.0242481-.0996819-.0310459-.4898529-.1014137-1.0434341-.1034069-1.6606293-.0059643l.3325462.1556206c.6171951-.0974445 1.1707764-.0954494 1.6607437.0059566.0366364.0068054.0698967.0171242.0995636.0310535z"/><path d="m32.0373573 33.9222374-.3326569-.1556129.1388264 2.3603821c-.5611343.0860825-1.1034565.0571022-1.6270943-.0854073-.0576134-.0161057-.118824-.0175781-.18186-.0047798-.1122284.0227623-.2036934.0845795-.2701855.1845856-.0678215.1003113-.0969429.2081718-.0900345.325737.0051498.0885658.0339508.1677055.0890808.2353249.038847.0487556.0833168.0848618.1334114.1082878l.3326569.1556168c-.0500946-.0234299-.0945644-.059536-.133522-.108284-.0550194-.067627-.0838203-.1467667-.0890808-.2353249-.0069084-.1175652.0222111-.2254257.0901451-.3257446.0664921-.1000061.1579571-.1618233.2700729-.1845818.0631466-.0128288.1242485-.011322.1819725.004776.5235271.1425171 1.0658474.1714973 1.6270962.0854073z"/><path d="m30.769083 32.6065331.3325443.1556206c.2150364.100563.5073299.1657639.8789825.1951408l-.1328449-2.2580986-.3325462-.1556206.1327343 2.2581062c-.3715419-.0293846-.6639461-.0945816-.87887-.1951484z"/><path d="m30.3367119 33.4877663.3325443.1556206c-.1887226-.0883369-.3562622-.2101135-.5017757-.3644638-.2104473-.2245712-.3267956-.5377846-.3506699-.9423752-.0209084-.3557339.0397243-.7002354.1819019-1.0334511s.3672886-.632267.6725407-.8950768c.3052559-.2627811.6811295-.4595871 1.1246548-.5912991l-.0422821-.71912c-.0052605-.0885582.0170135-.1687794.066618-.2421627.0496941-.0719032.1152-.1160831.1979561-.1328793.0581627-.0118008.1107368-.006691.1578293.0153217l-.3325462-.1556206c-.0470924-.0220127-.0997753-.0271149-.1578274-.0153217-.082756.0167961-.1482639.060976-.197958.1328793-.0497131.0734177-.0718746.1536331-.0666161.2421646l.0422821.71912c-.4435234.1317387-.8194008.328516-1.1246548.5912971-.305254.2628098-.530365.561861-.6725407.8950768-.1421776.3332157-.2028103.6777191-.1819019 1.0334511.0237617.4045982.14011.7178116.3505573.942379.1456261.1543465.3130512.2761308.5018883.3644601z"/></g><g><path d="m30.0970249 36.3770294c.0664902-.1000137.1579361-.1618347.2701225-.1846008.0631084-.0128098.1242485-.0113068.1819382.0047951.5235195.1425018 1.0658875.1714859 1.6270466.0854111l-.1388016-2.360405c-.4350014-.0368614-.8018074-.0968399-1.1033535-.1808701-.3001022-.0843277-.5561638-.2393951-.7665291-.4624405-.2104549-.2245789-.3268051-.5377769-.3505974-.942379-.0209198-.3557358.0397434-.7002201.1819019-1.0334377.1422005-.3332176.3672485-.6322746.6725388-.8950806.3052464-.2627964.6810856-.4595757 1.1246185-.5913029l-.0422878-.7191105c-.0052071-.0885563.0170231-.1687737.0666389-.2421856.0497017-.0718918.1152039-.1160812.1979389-.1328735.081337-.0165043.1518669.0000801.2115326.0497761.0611992.0509224.0936356.1200466.0988426.2086029l.0416603.7084236c.6172333-.0974541 1.1707954-.0954609 1.6606789.0059719.1793365.0331287.2756538.1510849.2877731.3572044.0064659.1099243-.0228233.2147541-.0862656.318779-.0634956.1024971-.1520386.1652756-.2656288.1883278-.0378876.0076885-.0891762.0041866-.153904-.0104847-.4358902-.0768604-.9013596-.0766373-1.3919258.0028286l.1436501 2.442852c.459774.0241127.8416634.0748444 1.1483536.1501122.306778.0767937.5683098.2292023.7861595.4584579.2164955.2310715.3385048.5678482.3646317 1.0121346.0213661.3633766-.0491066.7098503-.2113457 1.0394211-.1621895.3311005-.4021721.617733-.7214851.8586617-.3207207.2412186-.6962357.4193916-1.1279449.5348206l.0429153.7297935c.0052071.0885544-.0171509.1672516-.0669937.236084-.0498886.0688286-.1196976.1123505-.2066612.1300011-.082737.0167885-.1516495.002964-.2081757-.0411835-.0564384-.0426178-.0875587-.1135559-.0931244-.2082214l-.0429153-.7297935c-.6815472.0904121-1.3262253.0590172-1.9327793-.0959892-.0776768-.0182228-.1441116-.0619049-.1992607-.1310539-.0550575-.0676193-.083849-.1467552-.089056-.2353096-.0069122-.1175615.0221958-.2254412.0900936-.3257372zm2.6540623-.2110748c.8822403-.2485657 1.3024864-.7278214 1.2606468-1.4393044-.0157089-.267189-.1401062-.4520645-.3717194-.5533791-.231575-.101326-.5707054-.1730995-1.0186615-.2135124zm-.9032841-5.4667606c-.3740196.1315269-.6681709.317915-.8839474.5579185-.2142868.2412453-.3128796.5192719-.2943859.8337879.0176868.3007736.1366062.5130272.3579865.6334114.220026.1222115.5368004.2000694.9531326.2329941z" fill="#fff"/></g></g></g></g></g><g opacity=".2"><g><path d="m18.5882797 13.9542942-2.4919071-1.3649435c-.175251-.095994-.2397099-.3160372-.1436119-.4914789.0961037-.1754494.3162346-.2396088.4914856-.1436138l2.4919052 1.3649435c.1752529.095994.2397118.3160372.1436081.4914865-.0960979.1754418-.3162289.2396002-.4914799.1436062z" fill="#fff"/></g><g><path d="m20.6439953 15.0803146-.8398113-.4600076c-.175251-.095994-.2397099-.3160372-.1436119-.4914789.0961018-.1754494.3162327-.2396088.4914856-.1436138l.8398113.4600067c.175251.0959949.2397099.3160381.1436081.4914875-.0960999.1754407-.3162308.2396001-.4914818.1436061z" fill="#fff"/></g></g><g opacity=".2"><g><path d="m9.4588661 24.8655396-2.4919061-1.3649445c-.1752515-.095993-.2397103-.3160362-.1436124-.491478.0961027-.1754494.3162336-.2396088.4914851-.1436138l2.4919062 1.3649426c.175252.0959949.2397108.3160381.1436081.4914875-.096098.1754417-.3162289.2395992-.4914809.1436062z" fill="#fff"/></g><g><path d="m11.5145826 25.99156-.8398113-.4600086c-.175252-.095993-.2397108-.3160362-.1436129-.491478.0961027-.1754494.3162336-.2396088.4914856-.1436138l.8398113.4600067c.175251.0959949.2397108.3160381.1436081.4914875-.0960979.1754417-.3162288.2395992-.4914808.1436062z" fill="#fff"/></g></g><g opacity=".2"><g><path d="m19.6464634 41.7065353-.0024662-3.2304878c-.0001736-.2271957.1839046-.4118042.4113464-.4119797.2274513-.0001717.4118099.1841583.4119835.4113503l.0024643 3.2304878c.0001736.2271957-.1839046.411808-.411356.4119797-.2274398.0001755-.4118003-.1841545-.411972-.4113503z" fill="#fff"/></g><g><path d="m19.6484966 44.3715477-.0008316-1.0887222c-.0001736-.2271957.1839046-.411808.4113464-.4119797.2274513-.0001755.4118099.1841545.4119835.4113503l.0008297 1.088726c.0001736.2271919-.1839046.4118042-.411356.4119797-.2274398.0001716-.4118003-.1841584-.411972-.4113541z" fill="#fff"/></g></g></g></svg>