<svg id="Layer_1" enable-background="new 0 0 512 512" viewBox="0 0 512 512" xmlns="http://www.w3.org/2000/svg"><g><path d="m484.681 260.914c.032-1.634 5.299-8.586 5.259-10.414-2.925-132.77-111.468-239.5-244.94-239.5s-242.015 106.73-244.939 239.5c-.04 1.828 7.918 10.414 7.918 10.414z" fill="#01c0fa"/><path d="m0 256c0 135.31 109.69 245 245 245s245-109.69 245-245c0-1.838-.02-3.672-.061-5.5h-489.878c-.041 1.828-.061 3.662-.061 5.5z" fill="#26a6fe"/><path d="m461.711 405.467h7.748c17.673 0 32-14.327 32-32v-279.196c0-8.837-7.163-16-16-16h-50.866c-4.418 0-8 3.582-8 8v284.079c.001 19.395 15.724 35.117 35.118 35.117z" fill="#fea713"/><path d="m205.726 251.403h298.274c4.418 0 8-3.582 8-8v-204.841c0-4.418-3.582-8-8-8h-298.274c-4.418 0-8 3.582-8 8v204.841c0 4.419 3.582 8 8 8z" fill="#4f66d0"/><path d="m172.746 289.038h298.274c4.418 0 8-3.582 8-8v-204.841c0-4.418-3.582-8-8-8h-298.274c-4.418 0-8 3.582-8 8v204.841c0 4.419 3.582 8 8 8z" fill="#fb8801"/><path d="m99.364 106.516v-30.175c0-4.418-3.582-8-8-8h-44.022c-4.418 0-8 3.582-8 8v30.175c0 4.418 3.582 8 8 8h44.022c4.418 0 8-3.582 8-8z" fill="#fed402"/><path d="m141.278 106.516v-30.175c0-4.418-3.582-8-8-8h-43.659c-4.418 0-8 3.582-8 8v30.175c0 4.418 3.582 8 8 8h43.659c4.418 0 8-3.582 8-8z" fill="#fee903"/><path d="m119.661 397.467v-284.308c0-4.418-3.582-8-8-8h-72.319v268.308c0 17.673 14.327 32 32 32h40.319c4.419 0 8-3.581 8-8z" fill="#fac600"/><path d="m433.522 373.467v-252.308c0-8.837-7.163-16-16-16h-333.962c-4.418 0-8 3.582-8 8v260.308c0 17.673 14.327 32 32 32h357.963c-17.674 0-32.001-14.326-32.001-32z" fill="#fed402"/><path d="m235.64 232.657h-37.172c-7.199 0-13.034-5.836-13.034-13.034v-1.035c0-7.199 5.836-13.034 13.034-13.034h37.172c7.199 0 13.034 5.836 13.034 13.034v1.035c0 7.198-5.836 13.034-13.034 13.034z" fill="#d8e8f0"/><path d="m235.64 467.554h-37.172c-7.199 0-13.034-5.836-13.034-13.034v-1.035c0-7.199 5.836-13.034 13.034-13.034h37.172c7.199 0 13.034 5.836 13.034 13.034v1.035c0 7.198-5.836 13.034-13.034 13.034z" fill="#c5d3dd"/><path d="m113.157 317.967v37.172c0 7.199-5.836 13.034-13.034 13.034h-1.035c-7.199 0-13.034-5.836-13.034-13.034v-37.172c0-7.199 5.836-13.034 13.034-13.034h1.035c7.198 0 13.034 5.836 13.034 13.034z" fill="#c5d3dd"/><path d="m348.053 317.967v37.172c0 7.199-5.836 13.034-13.034 13.034h-1.035c-7.199 0-13.034-5.836-13.034-13.034v-37.172c0-7.199 5.836-13.034 13.034-13.034h1.035c7.199 0 13.034 5.836 13.034 13.034z" fill="#d8e8f0"/><g fill="#c5d3dd"><path d="m156.73 249.945-26.285 26.285c-5.09 5.09-13.343 5.09-18.434 0l-.732-.732c-5.09-5.09-5.09-13.343 0-18.434l26.285-26.285c5.09-5.09 13.343-5.09 18.434 0l.732.732c5.09 5.091 5.09 13.344 0 18.434z"/><path d="m322.827 416.042-26.285 26.285c-5.09 5.09-13.343 5.09-18.434 0l-.732-.732c-5.09-5.09-5.09-13.343 0-18.434l26.285-26.285c5.09-5.09 13.343-5.09 18.434 0l.732.732c5.09 5.091 5.09 13.344 0 18.434z"/><path d="m130.445 396.877 26.285 26.285c5.09 5.09 5.09 13.343 0 18.434l-.732.732c-5.09 5.09-13.343 5.09-18.434 0l-26.285-26.285c-5.09-5.09-5.09-13.343 0-18.434l.732-.732c5.091-5.09 13.344-5.09 18.434 0z"/></g><path d="m296.542 230.78 26.285 26.285c5.09 5.09 5.09 13.343 0 18.434l-.732.732c-5.09 5.09-13.343 5.09-18.434 0l-26.285-26.285c-5.09-5.09-5.09-13.343 0-18.434l.732-.732c5.091-5.09 13.344-5.09 18.434 0z" fill="#d8e8f0"/><path d="m330.888 336.555c0 21.745-6.098 42.066-16.676 59.347-1.543 2.521-3.669 4.646-6.19 6.19-17.281 10.578-37.602 16.676-59.347 16.676-62.66.001-113.836-51.175-113.835-113.835 0-21.736 6.093-42.05 16.663-59.326 1.551-2.535 3.688-4.673 6.224-6.224 17.276-10.57 37.589-16.663 59.326-16.663 62.66-.001 113.835 51.175 113.835 113.835z" fill="#f2fbff"/><path d="m315.278 394.123c-19.774 33.665-56.36 56.265-98.225 56.265-62.869 0-113.834-50.965-113.834-113.834 0-41.865 22.6-78.451 56.265-98.225-9.921 16.89-15.61 36.565-15.61 57.569 0 62.869 50.965 113.834 113.834 113.834 21.005.001 40.68-5.688 57.57-15.609z" fill="#e5eef9"/><path d="m305.427 336.554c0 16.882-4.734 32.657-12.946 46.073-1.198 1.957-2.848 3.607-4.805 4.805-13.415 8.212-29.191 12.946-46.073 12.946-48.645 0-88.374-39.729-88.374-88.374 0-16.875 4.73-32.644 12.936-46.056 1.204-1.968 2.863-3.627 4.832-4.832 13.412-8.206 29.182-12.936 46.056-12.936 48.645 0 88.374 39.73 88.374 88.374z" fill="#4f66d0"/><path d="m293.308 381.247c-15.351 26.135-43.754 43.68-76.255 43.68-48.807 0-88.373-39.566-88.373-88.373 0-32.501 17.545-60.904 43.68-76.255-7.702 13.112-12.118 28.387-12.118 44.693 0 48.807 39.566 88.373 88.373 88.373 16.306 0 31.581-4.417 44.693-12.118z" fill="#314dc9"/><path d="m216.047 332.47h2.013c14.007 0 25.362-11.355 25.362-25.362v-10.802c0-14.007-11.355-25.362-25.362-25.362h-2.013c-14.007 0-25.362 11.355-25.362 25.362v10.802c0 14.007 11.355 25.362 25.362 25.362z" fill="#ffe5c2"/><path d="m177.561 396.988h78.986c2.761 0 5-2.239 5-5v-17.737c0-16.569-13.431-30-30-30h-28.987c-16.569 0-30 13.431-30 30v17.737c.001 2.761 2.239 5 5.001 5z" fill="#05e39c"/></g><g/><g/><g/><g/><g/><g/><g/><g/><g/><g/><g/><g/><g/><g/><g/></svg>