<svg enable-background="new 0 0 512 512" height="512" viewBox="0 0 512 512" width="512" xmlns="http://www.w3.org/2000/svg"><g id="&#x5F62;&#x72B6;_1_9_" enable-background="new"><g id="&#x5F62;&#x72B6;_1"><g><path clip-rule="evenodd" d="m93.063 116.909 29.656 332.633 133.081 36.944 133.449-36.997 29.689-332.58z" fill="#e44d26" fill-rule="evenodd"/></g></g></g><g id="&#x5F62;&#x72B6;_1_8_" enable-background="new"><g id="&#x5F62;&#x72B6;_1_1_"><g><path clip-rule="evenodd" d="m256 184.903h-102.298l.977 10.945 10.027 112.422h91.294v-40.795h-53.984l-3.729-41.775h57.713zm-45.614 176.303-2.905-32.536h-40.953l5.716 64.056 83.568 23.198.188-.052v-42.445l-.179.048z" fill="#ebebeb" fill-rule="evenodd"/></g></g></g><g id="&#x5F62;&#x72B6;_1_7_" enable-background="new"><g id="&#x5F62;&#x72B6;_1_2_"><g><path clip-rule="evenodd" d="m256 144.106v314.102l107.832-29.895 25.371-284.207z" fill="#f16529" fill-rule="evenodd"/></g></g></g><g id="&#x5F62;&#x72B6;_1_6_" enable-background="new"><g id="&#x5F62;&#x72B6;_1_3_"><g><path clip-rule="evenodd" d="m255.858 308.271h50.236l-4.736 52.91-45.5 12.281v42.442l83.634-23.179.614-6.892 9.587-107.403.995-10.955h-94.83zm0-123.368v40.797h98.542l.818-9.17 1.859-20.682.975-10.945z" fill="#fff" fill-rule="evenodd"/></g></g></g><g id="&#x5F62;&#x72B6;_1_5_" enable-background="new"><g id="&#x5F62;&#x72B6;_1_4_"><g><path clip-rule="evenodd" d="m163.079 46.997h-18.965v-20.483h-20.731v62.028h20.732v-20.771h18.964v20.771h20.732v-62.028h-20.733v20.483zm29.745.086h18.252v41.459h20.733v-41.459h18.26v-20.569h-57.245zm101.246 1.226-13.299-21.795h-21.617v62.028h20.285v-30.745l14.273 22.055h.357l14.263-22.055v30.745h20.646v-62.028h-21.626zm65.966 19.73v-41.525h-20.738v62.028h49.894v-20.503z" fill-rule="evenodd"/></g></g></g></svg>