<svg id="Layer_1" enable-background="new 0 0 512 512" height="512" viewBox="0 0 512 512" width="512" xmlns="http://www.w3.org/2000/svg"><g><path d="m150.428 456.886 51.171 29.545v-104.577l-51.171-29.544z" fill="#f5c314"/><path d="m226.385 413.032 51.172 29.544v-149.227l-51.172-29.544z" fill="#e23d0f"/><path d="m301.128 176.002 51.172 29.544 61.808-35.684-51.172-29.545z" fill="#ffd30a"/><path d="m301.128 369.879 51.172 29.545v-193.878l-51.172-29.544z" fill="#f5c314"/><path d="m150.428 352.31 51.171 29.544 61.807-35.684-51.171-29.544z" fill="#ffd30a"/><path d="m277.557 442.576 61.807-35.684v-149.227l-61.807 35.684z" fill="#d83305"/><path d="m352.3 399.424 61.808-35.685v-193.877l-61.808 35.684z" fill="#ebb90a"/><path d="m226.385 263.805 51.172 29.544 61.807-35.684-51.172-29.544z" fill="#ec4719"/><path d="m164.062 324.515 37.899 21.876 111.87-169.841.888-24.667-3.14-1.079z" fill="#68c000"/><path d="m95.418 366.754 37.899 21.876v-23.801l-37.899-21.876z" fill="#a2eb00"/><path d="m201.599 486.431 61.807-35.685v-104.576l-61.807 35.684z" fill="#ebb90a"/><path d="m133.317 388.63 68.644-42.239v-23.8l-68.644 42.238z" fill="#68c000"/><path d="m298.891 79.405 97.378 56.209v-23.801l-97.378-56.209z" fill="#a2eb00"/><path d="m396.269 135.614 20.313-86.244v-23.801l-20.313 86.244z" fill="#68c000"/><path d="m313.831 152.749v23.801l56.998-55.621v-23.801l-21.765-13.819z" fill="#68c000"/><path d="m95.418 342.953 37.899 21.876 68.644-42.238-37.899-21.877z" fill="#7cd400"/><path d="m164.062 300.714 37.899 21.877 111.87-169.842-37.899-21.876z" fill="#77cf00"/><g fill="#7cd400"><path d="m275.932 130.873 37.899 21.876 73.132-71.365-37.899-21.876z"/><path d="m396.269 111.813 20.313-86.244-117.691 30.035z"/></g></g></svg>