<?xml version="1.0" encoding="iso-8859-1"?>
<!-- Generator: Adobe Illustrator 19.0.0, SVG Export Plug-In . SVG Version: 6.00 Build 0)  -->
<svg version="1.1" id="Layer_1" xmlns="http://www.w3.org/2000/svg" xmlns:xlink="http://www.w3.org/1999/xlink" x="0px" y="0px"
	 viewBox="0 0 512.8 512.8" style="enable-background:new 0 0 512.8 512.8;" xml:space="preserve">
<g>
	<polygon style="fill:#F4432C;" points="408.886,280 392.886,280 392.886,264 120.886,264 120.886,280 104.886,280 104.886,248 
		408.886,248 	"/>
	<rect x="248.886" y="232" style="fill:#F4432C;" width="16" height="48"/>
	<rect x="248.886" y="296" style="fill:#F4432C;" width="16" height="16"/>
	<rect x="248.886" y="328" style="fill:#F4432C;" width="16" height="16"/>
	<rect x="248.886" y="360" style="fill:#F4432C;" width="16" height="16"/>
	<path style="fill:#F4432C;" d="M348.086,155.2c-3.2-5.6-8-9.6-12.8-12l-46.4-23.2h-64l-46.4,23.2c-4.8,2.4-9.6,6.4-12.8,12
		c-3.2,5.6-4.8,11.2-4.8,16.8v20l5.6,3.2c13.6,6.4,28,12,43.2,16s31.2,5.6,46.4,5.6c15.2,0,31.2-1.6,46.4-5.6
		c15.2-4,29.6-8.8,43.2-16l5.6-3.2v-20C352.886,166.4,351.286,160,348.086,155.2z"/>
</g>
<g>
	<path style="fill:#FFD129;" d="M285.686,116.8c-1.6-1.6-2.4-3.2-3.2-4.8c-0.8-2.4-1.6-4-1.6-6.4V88h-48v17.6c0,2.4,0,4-1.6,6.4
		c-0.8,2.4-2.4,4-3.2,4.8l-3.2,3.2c0,17.6,14.4,32,32,32s32-14.4,32-32L285.686,116.8z"/>
	<path style="fill:#FFD129;" d="M284.886,12c-8-8-18.4-12-28-12c-9.6,0-20.8,4-28,12c-8,8-12,18.4-12,28v16l0,0
		c0,21.6,13.6,48,40,48s40-26.4,40-48l0,0V40C296.886,29.6,292.886,19.2,284.886,12z"/>
</g>
<path style="fill:#F4432C;" d="M204.086,451.2c-3.2-5.6-8-9.6-12.8-12l-46.4-23.2h-64l-46.4,23.2c-4.8,2.4-9.6,6.4-12.8,12
	s-4.8,11.2-4.8,16.8v20l5.6,3.2c13.6,6.4,28,12,43.2,16s31.2,5.6,46.4,5.6s31.2-1.6,46.4-5.6c15.2-4,29.6-8.8,43.2-16l5.6-3.2v-20
	C208.886,462.4,207.286,456,204.086,451.2z"/>
<g>
	<path style="fill:#FFD129;" d="M141.686,412.8c-1.6-1.6-2.4-3.2-3.2-4.8c-0.8-2.4-1.6-4-1.6-6.4V384h-48v17.6c0,2.4,0,4-1.6,6.4
		c-0.8,2.4-2.4,4-3.2,4.8l-3.2,3.2c0,17.6,14.4,32,32,32s32-14.4,32-32L141.686,412.8z"/>
	<path style="fill:#FFD129;" d="M140.886,308c-8-8-18.4-12-28-12s-20.8,4-28,12c-8,8-12,18.4-12,28v16l0,0c0,21.6,13.6,48,40,48
		c26.4,0,40-26.4,40-48l0,0v-16C152.886,325.6,148.886,315.2,140.886,308z"/>
</g>
<path style="fill:#F4432C;" d="M492.086,451.2c-3.2-5.6-8-9.6-12.8-12l-46.4-23.2h-64l-46.4,23.2c-4.8,2.4-9.6,6.4-12.8,12
	c-3.2,5.6-4.8,11.2-4.8,16.8v20l5.6,3.2c13.6,6.4,28,12,43.2,16s31.2,5.6,46.4,5.6s31.2-1.6,46.4-5.6c15.2-4,29.6-8.8,43.2-16
	l5.6-3.2v-20C496.886,462.4,495.286,456,492.086,451.2z"/>
<g>
	<path style="fill:#FFD129;" d="M429.686,412.8c-1.6-1.6-2.4-3.2-3.2-4.8c-0.8-2.4-1.6-4-1.6-6.4V384h-48v17.6c0,2.4,0,4-1.6,6.4
		c-0.8,2.4-2.4,4-3.2,4.8l-3.2,3.2c0,17.6,14.4,32,32,32s32-14.4,32-32L429.686,412.8z"/>
	<path style="fill:#FFD129;" d="M428.886,308c-8-8-18.4-12-28-12s-20.8,4-28,12c-8,8-12,18.4-12,28v16l0,0c0,21.6,13.6,48,40,48
		s40-26.4,40-48l0,0v-16C440.886,325.6,436.886,315.2,428.886,308z"/>
</g>
<g>
</g>
<g>
</g>
<g>
</g>
<g>
</g>
<g>
</g>
<g>
</g>
<g>
</g>
<g>
</g>
<g>
</g>
<g>
</g>
<g>
</g>
<g>
</g>
<g>
</g>
<g>
</g>
<g>
</g>
</svg>
