<svg height="512" viewBox="0 0 64 64" width="512" xmlns="http://www.w3.org/2000/svg" xmlns:xlink="http://www.w3.org/1999/xlink"><linearGradient id="New_Gradient_Swatch_1" gradientUnits="userSpaceOnUse" x1="32" x2="32" y1="59.414" y2="9.547"><stop offset="0" stop-color="#1a125f"/><stop offset=".205" stop-color="#423795"/><stop offset=".681" stop-color="#ed1a58"/><stop offset="1" stop-color="#54c2ef"/></linearGradient><linearGradient id="New_Gradient_Swatch_1-2" x1="55" x2="55" xlink:href="#New_Gradient_Swatch_1" y1="59.414" y2="9.547"/><linearGradient id="New_Gradient_Swatch_1-3" x1="33.5" x2="33.5" xlink:href="#New_Gradient_Swatch_1" y1="59.414" y2="9.547"/><linearGradient id="New_Gradient_Swatch_1-5" x1="49" x2="49" xlink:href="#New_Gradient_Swatch_1" y1="59.414" y2="9.547"/><g id="file-folder-transfer-web_design-share" data-name="file-folder-transfer-web design-share"><path d="m61 57h-26.184a2.987 2.987 0 0 0 -1.816-1.816v-6.184h17.11a6.97 6.97 0 0 1 -2.11-5v-11h-4a1 1 0 0 1 -1-1v-10h-5v4h3a1.02 1.02 0 0 1 .89.54 1 1 0 0 1 -.07 1.03l-9 13a1 1 0 0 1 -1.64 0l-9-13a1 1 0 0 1 -.07-1.03 1.02 1.02 0 0 1 .89-.54h3v-4h-1a3.009 3.009 0 0 1 -3-3v-12a3.009 3.009 0 0 0 -3-3h-12a3.009 3.009 0 0 0 -3 3v39a3.009 3.009 0 0 0 3 3h24v6.184a2.987 2.987 0 0 0 -1.816 1.816h-26.184a1 1 0 0 0 0 2h26.184a2.982 2.982 0 0 0 5.632 0h26.184a1 1 0 0 0 0-2zm-47-10h-5a3 3 0 0 1 -3-3v-4a1 1 0 0 1 2 0v4a1 1 0 0 0 1 1h5a1 1 0 0 1 0 2z" fill="url(#New_Gradient_Swatch_1)"/><path d="m58.89 16.46a1.02 1.02 0 0 1 -.89.54h-3v15a1 1 0 0 1 -1 1h-4v11a5 5 0 0 0 10 0v-34h-4.94l3.76 5.43a1 1 0 0 1 .07 1.03z" fill="url(#New_Gradient_Swatch_1-2)"/><path d="m25 20h1v-7a1 1 0 0 1 1-1h10a1 1 0 0 1 1 1v7h5v-3h-3a1.02 1.02 0 0 1 -.89-.54 1 1 0 0 1 .07-1.03l3.76-5.43h-18.94v9a1 1 0 0 0 1 1z" fill="url(#New_Gradient_Swatch_1-3)"/><path d="m28 14v13a1 1 0 0 1 -1 1h-2.09l7.09 10.24 7.09-10.24h-2.09a1 1 0 0 1 -1-1v-13z" fill="url(#New_Gradient_Swatch_1)"/><path d="m44 15a1 1 0 0 1 1 1v15h8v-15a1 1 0 0 1 1-1h2.09l-7.09-10.24-7.09 10.24z" fill="url(#New_Gradient_Swatch_1-5)"/></g></svg>