<svg clip-rule="evenodd" fill-rule="evenodd" stroke-linejoin="round" stroke-miterlimit="2" viewBox="0 0 32 32" xmlns="http://www.w3.org/2000/svg" xmlns:xlink="http://www.w3.org/1999/xlink"><linearGradient id="_Linear1" gradientUnits="userSpaceOnUse" x1="290" x2="318" y1="64" y2="64"><stop offset="0" stop-color="#0058b4"/><stop offset="1" stop-color="#00a2ff"/></linearGradient><g transform="translate(-288 -48)"><path d="m304 78c-2.015 0-3.887-1.021-5.398-2.78-.391-.455-.757-.96-1.096-1.509-1.334-.119-2.671-.272-4.012-.462 2.565 2.912 6.323 4.751 10.506 4.751zm6.485-4.276c-.336.544-.7 1.044-1.087 1.496-1.511 1.759-3.383 2.78-5.398 2.78 4.179 0 7.932-1.835 10.498-4.742-1.333.193-2.671.348-4.013.466zm-8.324.254c1.229.033 2.454.034 3.676.005-.204.694-.431 1.295-.676 1.786-.211.42-.43.752-.665.976-.162.154-.322.255-.496.255s-.334-.101-.496-.255c-.235-.224-.454-.556-.665-.976-.245-.492-.473-1.094-.678-1.791zm-3.39-.166c.783.056 1.566.1 2.347.132.246.899.524 1.666.827 2.272.079.159.161.307.244.445-1.037-.395-1.993-1.12-2.828-2.093-.205-.238-.401-.49-.59-.756zm10.45.012c-.187.262-.381.51-.582.744-.835.973-1.791 1.698-2.828 2.093.083-.138.165-.286.244-.445.302-.604.58-1.368.825-2.265.781-.03 1.561-.072 2.341-.127zm-8.055-5.702c1.89.052 3.779.052 5.667 0-.152 1.824-.403 3.474-.729 4.854-1.399.039-2.802.037-4.209-.006-.326-1.379-.577-3.027-.729-4.848zm10.469-.243c-.355 1.835-.956 3.499-1.745 4.891-.917.074-1.837.131-2.759.17.314-1.401.557-3.046.705-4.85 1.267-.047 2.533-.117 3.799-.211zm-15.27-.001c1.266.094 2.533.164 3.799.212.148 1.8.39 3.442.703 4.842-.92-.041-1.841-.1-2.765-.176-.785-1.39-1.383-3.049-1.737-4.878zm16.301-.081c-.324 1.796-.87 3.445-1.588 4.866 1.451-.142 2.897-.329 4.337-.56 1.022-1.436 1.78-3.074 2.202-4.841-1.65.218-3.301.396-4.951.535zm-15.751 4.852c-.714-1.418-1.259-3.062-1.581-4.853-1.65-.138-3.301-.317-4.951-.535.422 1.766 1.178 3.402 2.199 4.838 1.449.226 2.893.409 4.333.55zm4.173-11.664c1.941-.05 3.883-.05 5.824 0 .058.969.088 1.978.088 3.015 0 1.074-.032 2.119-.094 3.12-1.937.055-3.875.055-5.812-.001-.062-1-.094-2.045-.094-3.119 0-1.037.03-2.046.088-3.015zm6.826.031c1.301.045 2.601.113 3.901.204.121.896.185 1.826.185 2.78 0 .983-.068 1.941-.196 2.862-1.299.1-2.598.175-3.896.224.06-.992.092-2.025.092-3.086 0-1.025-.03-2.023-.086-2.984zm-7.828-.001c-.056.961-.086 1.96-.086 2.985 0 1.061.032 2.093.092 3.086-1.299-.05-2.598-.125-3.896-.225-.129-.921-.196-1.879-.196-2.861 0-.954.064-1.885.185-2.781 1.3-.091 2.601-.159 3.901-.204zm12.747.28c.109.875.167 1.78.167 2.705 0 .952-.061 1.881-.177 2.779 1.667-.145 3.334-.33 5.001-.557.116-.725.176-1.466.176-2.222 0-.749-.059-1.484-.172-2.201-1.665-.205-3.33-.373-4.995-.504zm-17.665-.001c-1.666.131-3.331.3-4.996.505-.113.717-.172 1.452-.172 2.201 0 .756.06 1.497.176 2.221 1.667.227 3.334.412 5.001.557-.116-.898-.177-1.827-.177-2.778 0-.926.058-1.83.168-2.706zm15.903-5.971c.731 1.444 1.286 3.124 1.609 4.956 1.647.126 3.295.288 4.944.485-.422-1.778-1.183-3.425-2.211-4.87-1.437-.236-2.884-.426-4.342-.571zm-14.138-.009c-1.427.135-2.862.309-4.306.525-1.048 1.457-1.824 3.124-2.25 4.925 1.647-.198 3.295-.36 4.944-.486.323-1.835.879-3.517 1.612-4.964zm10.194-.272c.922.04 1.84.098 2.755.173.804 1.416 1.415 3.115 1.769 4.99-1.268-.085-2.537-.149-3.806-.193-.148-1.851-.396-3.538-.718-4.97zm-6.254.002c-.322 1.43-.57 3.117-.718 4.968-1.268.043-2.537.107-3.806.193.354-1.877.966-3.576 1.771-4.994.922-.073 1.839-.128 2.753-.167zm1.027-.037c1.409-.041 2.809-.041 4.199-.001.335 1.409.591 3.103.743 4.977-1.894-.048-3.789-.048-5.684 0 .152-1.874.407-3.567.742-4.976zm-4.373-.752c.333-.536.693-1.029 1.075-1.475 1.511-1.759 3.383-2.78 5.398-2.78s3.887 1.021 5.398 2.78c.384.447.744.942 1.078 1.481 1.347.12 2.686.278 4.016.474-2.565-2.903-6.316-4.735-10.492-4.735-4.156 0-7.892 1.815-10.457 4.695 1.336-.181 2.664-.327 3.984-.44zm8.284-2.916c1.037.395 1.993 1.12 2.828 2.093.197.229.387.471.57.727-.775-.055-1.553-.098-2.334-.128-.244-.888-.52-1.647-.82-2.247-.079-.159-.161-.307-.244-.445zm-3.622 0c-.083.138-.165.286-.244.445-.3.6-.576 1.359-.82 2.248-.775.03-1.552.072-2.333.126.183-.255.372-.497.569-.726.835-.973 1.791-1.698 2.828-2.093zm-.021 2.66c.203-.687.428-1.282.671-1.768.211-.42.43-.752.665-.976.162-.154.322-.255.496-.255s.334.101.496.255c.235.224.454.556.665.976.242.486.467 1.08.671 1.767-1.215-.03-2.436-.03-3.664.001z" fill="url(#_Linear1)"/></g></svg>