<svg height="512" viewBox="0 0 64 64" width="512" xmlns="http://www.w3.org/2000/svg"><g id="flat"><path d="m59 43h-54a1.0029 1.0029 0 0 0 -1 1v2a1.0029 1.0029 0 0 0 1 1h54a1.0029 1.0029 0 0 0 1-1v-2a1.0029 1.0029 0 0 0 -1-1z" fill="#c7ae71"/><path d="m59 43h-1v1a1.0029 1.0029 0 0 1 -1 1h-53v1a1.0029 1.0029 0 0 0 1 1h54a1.0029 1.0029 0 0 0 1-1v-2a1.0029 1.0029 0 0 0 -1-1z" opacity=".2"/><path d="m8 47h48v14h-48z" fill="#ffb531"/><path d="m53 60.972v-11h-45v-3h48v14z" opacity=".2"/><path d="m39.06 22h-20.06a2 2 0 0 0 -2 2v19h30v-19a2 2 0 0 0 -2-2z" fill="#d6d6d4"/><path d="m45 22h-1v12.18a5.82 5.82 0 0 1 -5.82 5.82h-21.18v3h30v-19a2 2 0 0 0 -2-2z" opacity=".2"/><circle cx="32" cy="33" fill="#44546c" r="4"/><path d="m32.7075 29.0713a3.9766 3.9766 0 0 1 -3.415 6.8574 3.9923 3.9923 0 1 0 3.415-6.8574z" opacity=".2"/><path d="m50 37h-2a2.7719 2.7719 0 0 0 -1 .18v5.64a2.7719 2.7719 0 0 0 1 .18h2a3 3 0 0 0 0-6z" fill="#feb784"/><path d="m50 37h-2a2.9155 2.9155 0 0 0 -.5263.0481 2.9869 2.9869 0 0 1 -.001 5.9035 2.9094 2.9094 0 0 0 .5273.0484h2a3 3 0 0 0 0-6z" opacity=".1"/><path d="m47 25.59v11.41h4a1.0029 1.0029 0 0 0 1-1v-3a8.03 8.03 0 0 0 -5-7.41z" fill="#348fd9"/><path d="m47 25.59v2.1552a7.9474 7.9474 0 0 1 2 5.2548v3a1.0029 1.0029 0 0 1 -1 1h3a1.0029 1.0029 0 0 0 1-1v-3a8.03 8.03 0 0 0 -5-7.41z" opacity=".2"/><path d="m41 12a2.1221 2.1221 0 0 0 -.5.05 12.139 12.139 0 0 1 .5 3.45 12.4876 12.4876 0 0 1 -.25 2.48 1.0554 1.0554 0 0 0 .25.02 3 3 0 0 0 0-6z" fill="#feb784"/><path d="m38 4a3.9837 3.9837 0 0 0 -3 1.36v-2.36h-14v2a5.9865 5.9865 0 0 0 6 6h8v-.36a3.9984 3.9984 0 1 0 3-6.64z" fill="#44546c"/><g opacity=".2"><path d="m38.4714 4.0475a3.9513 3.9513 0 0 1 -1.2314 5.2625 3.9856 3.9856 0 0 1 -5.24-.67v.36h-8a6.0088 6.0088 0 0 1 -1.6807-.2455 6.0517 6.0517 0 0 0 1.8207 1.5255 5.9778 5.9778 0 0 0 2.86.72h8v-.36a3.9928 3.9928 0 1 0 3.4714-6.5925z"/><path d="m32 3v.36a4.0457 4.0457 0 0 1 .389-.36z"/></g><path d="m40.5 12.05h-.01a6.437 6.437 0 0 0 -.25-.74 3.9856 3.9856 0 0 1 -5.24-.67v.36h-8a5.9778 5.9778 0 0 1 -2.86-.72l-.27.72a9.274 9.274 0 0 0 -.36 1.05h-.01a12.139 12.139 0 0 0 -.5 3.45 12.4876 12.4876 0 0 0 .25 2.48 11.1147 11.1147 0 0 0 1.69 4.02h14.12a11.1147 11.1147 0 0 0 1.69-4.02 12.4876 12.4876 0 0 0 .25-2.48 12.139 12.139 0 0 0 -.5-3.45z" fill="#feb784"/><path d="m40.5 12.05h-.01a6.437 6.437 0 0 0 -.25-.74 4.0087 4.0087 0 0 1 -2.24.69 3.9146 3.9146 0 0 1 -.5472-.06c.0109.0372.0268.0729.0372.11h.01a12.139 12.139 0 0 1 .5 3.45 12.4876 12.4876 0 0 1 -.25 2.48 11.1147 11.1147 0 0 1 -1.69 4.02h3a11.1147 11.1147 0 0 0 1.69-4.02 12.4876 12.4876 0 0 0 .25-2.48 12.139 12.139 0 0 0 -.5-3.45z" opacity=".1"/><path d="m23.5 12.05a2.1221 2.1221 0 0 0 -.5-.05 3 3 0 0 0 0 6 1.0554 1.0554 0 0 0 .25-.02 12.4876 12.4876 0 0 1 -.25-2.48 12.139 12.139 0 0 1 .5-3.45z" fill="#feb784"/><path d="m16 37h-2a3 3 0 0 0 0 6h2a2.7719 2.7719 0 0 0 1-.18v-5.64a2.7719 2.7719 0 0 0 -1-.18z" fill="#feb784"/><path d="m16 37h-1v3.82a2.7719 2.7719 0 0 1 -1 .18h-2a2.9469 2.9469 0 0 1 -.8582-.1418 2.9586 2.9586 0 0 0 2.8582 2.1418h2a2.7719 2.7719 0 0 0 1-.18v-5.64a2.7719 2.7719 0 0 0 -1-.18z" opacity=".1"/><path d="m12 33v3a1.0029 1.0029 0 0 0 1 1h4v-11.41a8.03 8.03 0 0 0 -5 7.41z" fill="#348fd9"/><path d="m15 26.7711v10.2289h2v-11.41a8.0154 8.0154 0 0 0 -2 1.1811z" opacity=".2"/><path d="m29 13.5a1 1 0 0 0 -1 1v2a1 1 0 0 0 2 0v-2a1 1 0 0 0 -1-1z"/><path d="m35 13.5a1 1 0 0 0 -1 1v2a1 1 0 0 0 2 0v-2a1 1 0 0 0 -1-1z"/></g></svg>