<svg id="_01_Doctor_with_Patient" enable-background="new 0 0 512 512" viewBox="0 0 512 512" xmlns="http://www.w3.org/2000/svg" xmlns:xlink="http://www.w3.org/1999/xlink"><linearGradient id="lg1"><stop offset="0" stop-color="#f5fbff"/><stop offset=".2414" stop-color="#f0f8fe"/><stop offset=".4916" stop-color="#e4f2fe"/><stop offset=".7457" stop-color="#cfe8fe"/><stop offset="1" stop-color="#b3dafe"/></linearGradient><linearGradient id="SVGID_1_" gradientTransform="matrix(1 0 0 -1 0 514)" gradientUnits="userSpaceOnUse" x1="343.277" x2="356.497" xlink:href="#lg1" y1="266.738" y2="139.204"/><linearGradient id="lg2"><stop offset="0" stop-color="#8ac9fe" stop-opacity="0"/><stop offset=".1291" stop-color="#89c8fd" stop-opacity=".019"/><stop offset=".2629" stop-color="#88c6fb" stop-opacity=".075"/><stop offset=".3989" stop-color="#87c4f8" stop-opacity=".168"/><stop offset=".5365" stop-color="#85c0f4" stop-opacity=".298"/><stop offset=".6753" stop-color="#83bbef" stop-opacity=".466"/><stop offset=".8151" stop-color="#7fb5e9" stop-opacity=".672"/><stop offset=".9532" stop-color="#7caee1" stop-opacity=".911"/><stop offset="1" stop-color="#7bacdf"/></linearGradient><linearGradient id="SVGID_00000133522965192034030920000013502335617702270391_" gradientTransform="matrix(1 0 0 -1 0 514)" gradientUnits="userSpaceOnUse" x1="405.061" x2="399.185" xlink:href="#lg2" y1="186.956" y2="233.961"/><linearGradient id="SVGID_00000134934031218198612770000001674903486340198049_" gradientTransform="matrix(1 0 0 -1 0 514)" gradientUnits="userSpaceOnUse" x1="358.053" x2="334.205" xlink:href="#lg2" y1="189.947" y2="177.85"/><linearGradient id="SVGID_00000130621537536750421230000017983573571370650507_" gradientTransform="matrix(1 0 0 -1 0 514)" gradientUnits="userSpaceOnUse" x1="385.118" x2="362.307" xlink:href="#lg2" y1="199.838" y2="191.543"/><linearGradient id="lg3"><stop offset="0" stop-color="#99e6fc"/><stop offset=".1814" stop-color="#94e3fc"/><stop offset=".3695" stop-color="#88dcfc"/><stop offset=".5605" stop-color="#73d1fc"/><stop offset=".7537" stop-color="#56c1fd"/><stop offset=".9467" stop-color="#31acfd"/><stop offset="1" stop-color="#26a6fe"/></linearGradient><linearGradient id="SVGID_00000177466056337320249620000005978583384675804084_" gradientTransform="matrix(1 0 0 -1 0 514)" gradientUnits="userSpaceOnUse" x1="340.739" x2="363.809" xlink:href="#lg3" y1="196.136" y2="195.358"/><linearGradient id="lg4"><stop offset="0" stop-color="#0172fb" stop-opacity="0"/><stop offset=".1214" stop-color="#0172fb" stop-opacity=".017"/><stop offset=".2474" stop-color="#0172fb" stop-opacity=".066"/><stop offset=".3754" stop-color="#0172fb" stop-opacity=".149"/><stop offset=".5049" stop-color="#0172fb" stop-opacity=".265"/><stop offset=".6355" stop-color="#0172fb" stop-opacity=".414"/><stop offset=".7672" stop-color="#0172fb" stop-opacity=".598"/><stop offset=".897" stop-color="#0172fb" stop-opacity=".81"/><stop offset="1" stop-color="#0172fb"/></linearGradient><linearGradient id="SVGID_00000075866291469716769910000016347885222400569783_" gradientTransform="matrix(1 0 0 -1 0 514)" gradientUnits="userSpaceOnUse" x1="346.334" x2="333.114" xlink:href="#lg4" y1="189.274" y2="177.35"/><linearGradient id="SVGID_00000101091205518533647880000002759731852396721288_" gradientTransform="matrix(1 0 0 -1 0 514)" gradientUnits="userSpaceOnUse" x1="353.466" x2="353.466" xlink:href="#lg4" y1="178.034" y2="203.243"/><linearGradient id="SVGID_00000160886912979698112210000003496563538317456037_" gradientTransform="matrix(1 0 0 -1 0 514)" gradientUnits="userSpaceOnUse" x1="344.488" x2="362.115" xlink:href="#lg3" y1="223.324" y2="202.587"/><linearGradient id="SVGID_00000010998711675903727830000016944867598739839910_" gradientTransform="matrix(1 0 0 -1 0 514)" gradientUnits="userSpaceOnUse" x1="264.159" x2="275.477" xlink:href="#lg1" y1="254.33" y2="145.144"/><linearGradient id="SVGID_00000037652721572500079330000012388586450870688174_" gradientTransform="matrix(1 0 0 -1 0 514)" gradientUnits="userSpaceOnUse" x1="257.657" x2="320.906" xlink:href="#lg2" y1="182.751" y2="210.401"/><linearGradient id="SVGID_00000106825466624092499990000007268713360198747057_" gradientTransform="matrix(1 0 0 -1 0 514)" gradientUnits="userSpaceOnUse" x1="293.139" x2="247.515" xlink:href="#lg2" y1="198.129" y2="207.396"/><linearGradient id="SVGID_00000176034805455227101280000015668866677626449280_" gradientTransform="matrix(1 0 0 -1 0 514)" gradientUnits="userSpaceOnUse" x1="274.2" x2="274.2" xlink:href="#lg2" y1="171.467" y2="149.762"/><linearGradient id="SVGID_00000067947654607837011210000004541832258832186762_" gradientTransform="matrix(1 0 0 -1 0 514)" gradientUnits="userSpaceOnUse" x1="272.142" x2="344.377" xlink:href="#lg1" y1="204.935" y2="210.465"/><linearGradient id="SVGID_00000127753562977693635110000013498532853714960260_" gradientTransform="matrix(1 0 0 -1 0 514)" gradientUnits="userSpaceOnUse" x1="310.745" x2="301.759" xlink:href="#lg2" y1="191.021" y2="164.754"/><linearGradient id="SVGID_00000130608068259829068300000018419297392784758173_" gradientTransform="matrix(1 0 0 -1 0 514)" gradientUnits="userSpaceOnUse" x1="412.013" x2="439.663" xlink:href="#lg1" y1="248.677" y2="136.004"/><linearGradient id="SVGID_00000141418028040272769670000018179604148754688664_" gradientTransform="matrix(1 0 0 -1 0 514)" gradientUnits="userSpaceOnUse" x1="458.271" x2="518.755" xlink:href="#lg2" y1="198.24" y2="189.254"/><linearGradient id="SVGID_00000093173600572900751880000003847610654249941386_" gradientTransform="matrix(1 0 0 -1 0 514)" gradientUnits="userSpaceOnUse" x1="439.419" x2="392.414" xlink:href="#lg2" y1="181.167" y2="208.816"/><linearGradient id="SVGID_00000101825387636008671590000001262787459785751730_" gradientTransform="matrix(1 0 0 -1 0 514)" gradientUnits="userSpaceOnUse" x1="432.732" x2="432.732" xlink:href="#lg2" y1="171.467" y2="149.762"/><linearGradient id="SVGID_00000173132029907865856230000005357191656921406128_" gradientTransform="matrix(1 0 0 -1 0 514)" gradientUnits="userSpaceOnUse" x1="384.283" x2="414.007" xlink:href="#lg1" y1="214.6" y2="183.494"/><linearGradient id="SVGID_00000168079711004936437040000017023080118053906615_" gradientTransform="matrix(1 0 0 -1 0 514)" gradientUnits="userSpaceOnUse" x1="437.089" x2="431.387" xlink:href="#lg2" y1="140.846" y2="163.787"/><linearGradient id="lg5"><stop offset="0" stop-color="#ffdfcf"/><stop offset=".2453" stop-color="#ffdbca"/><stop offset=".4994" stop-color="#ffd0be"/><stop offset=".7566" stop-color="#ffbea9"/><stop offset="1" stop-color="#ffa78f"/></linearGradient><linearGradient id="SVGID_00000019649014060558241370000013550195434666309789_" gradientTransform="matrix(1 0 0 -1 0 514)" gradientUnits="userSpaceOnUse" x1="342.396" x2="376.872" xlink:href="#lg5" y1="268.392" y2="235.213"/><linearGradient id="lg6"><stop offset="0" stop-color="#f89580" stop-opacity="0"/><stop offset=".1375" stop-color="#f6947f" stop-opacity=".021"/><stop offset=".2801" stop-color="#f3917c" stop-opacity=".084"/><stop offset=".4251" stop-color="#ee8e78" stop-opacity=".19"/><stop offset=".5717" stop-color="#e68873" stop-opacity=".337"/><stop offset=".7196" stop-color="#dd826b" stop-opacity=".528"/><stop offset=".8663" stop-color="#d17963" stop-opacity=".757"/><stop offset="1" stop-color="#c5715a"/></linearGradient><linearGradient id="SVGID_00000168839020600479381630000015097964034925424542_" gradientTransform="matrix(1 0 0 -1 0 514)" gradientUnits="userSpaceOnUse" x1="353.466" x2="353.466" xlink:href="#lg6" y1="221.64" y2="258.167"/><linearGradient id="SVGID_00000002357968106722420070000010621215883702635446_" gradientTransform="matrix(1 0 0 -1 0 514)" gradientUnits="userSpaceOnUse" x1="364.945" x2="339.023" xlink:href="#lg6" y1="254.397" y2="242.473"/><linearGradient id="SVGID_00000119119466935978139050000014123048474991737234_" gradientTransform="matrix(1 0 0 -1 0 514)" gradientUnits="userSpaceOnUse" x1="375.1" x2="411.96" xlink:href="#lg1" y1="264.311" y2="215.898"/><linearGradient id="SVGID_00000111149376866639892090000010173707237126730427_" gradientTransform="matrix(1 0 0 -1 0 514)" gradientUnits="userSpaceOnUse" x1="406.517" x2="422.746" xlink:href="#lg2" y1="234.27" y2="224.642"/><linearGradient id="SVGID_00000173160439801138429190000010403813552951691678_" gradientTransform="matrix(-1 0 0 -1 1590.941 514)" gradientUnits="userSpaceOnUse" x1="1259.109" x2="1295.969" xlink:href="#lg1" y1="264.311" y2="215.898"/><linearGradient id="SVGID_00000079460449260537732440000000963263886927636914_" gradientTransform="matrix(1 0 0 -1 0 514)" gradientUnits="userSpaceOnUse" x1="426.701" x2="469.432" xlink:href="#lg5" y1="353.819" y2="353.819"/><linearGradient id="SVGID_00000054980130991920721000000002768444678134385849_" gradientTransform="matrix(1 0 0 -1 0 514)" gradientUnits="userSpaceOnUse" x1="240.381" x2="264.384" xlink:href="#lg5" y1="358.755" y2="354.237"/><linearGradient id="SVGID_00000005982783663030251350000007963357499571414715_" gradientTransform="matrix(1 0 0 -1 0 514)" gradientUnits="userSpaceOnUse" x1="269.046" x2="439.044" xlink:href="#lg5" y1="410.836" y2="321.037"/><linearGradient id="SVGID_00000079466835442228882260000006025945853146355856_" gradientTransform="matrix(1 0 0 -1 0 514)" gradientUnits="userSpaceOnUse" x1="353.466" x2="353.466" xlink:href="#lg6" y1="318.937" y2="252.83"/><linearGradient id="SVGID_00000147211519203166103770000001468743619097459383_" gradientTransform="matrix(1 0 0 -1 0 514)" gradientUnits="userSpaceOnUse" x1="378.061" x2="444.294" xlink:href="#lg6" y1="366.242" y2="366.242"/><linearGradient id="SVGID_00000066489792178115747870000005322666483726988433_" gradientTransform="matrix(1 0 0 -1 0 514)" gradientUnits="userSpaceOnUse" x1="354.714" x2="375.611" xlink:href="#lg6" y1="331.498" y2="316.814"/><linearGradient id="SVGID_00000140016621452813529580000000692406518962214326_" gradientTransform="matrix(1 0 0 -1 0 514)" gradientUnits="userSpaceOnUse" x1="353.466" x2="353.466" xlink:href="#lg6" y1="316.355" y2="303.907"/><linearGradient id="SVGID_00000175288596893898146180000013369158142201263745_" gradientTransform="matrix(1 0 0 -1 0 514)" gradientUnits="userSpaceOnUse" x1="346.245" x2="324.972" y1="328.6" y2="318.81"><stop offset="0" stop-color="#fff" stop-opacity="0"/><stop offset=".1205" stop-color="#fff" stop-opacity=".016"/><stop offset=".2454" stop-color="#fff" stop-opacity=".065"/><stop offset=".3724" stop-color="#fff" stop-opacity=".147"/><stop offset=".5008" stop-color="#fff" stop-opacity=".261"/><stop offset=".6304" stop-color="#fff" stop-opacity=".408"/><stop offset=".761" stop-color="#fff" stop-opacity=".588"/><stop offset=".8898" stop-color="#fff" stop-opacity=".797"/><stop offset="1" stop-color="#fff"/></linearGradient><linearGradient id="lg7"><stop offset="0" stop-color="#766e6e"/><stop offset=".2493" stop-color="#716b6b"/><stop offset=".5076" stop-color="#656464"/><stop offset=".769" stop-color="#505757"/><stop offset="1" stop-color="#384949"/></linearGradient><linearGradient id="SVGID_00000056407864732317451450000004416952469780728230_" gradientTransform="matrix(1 0 0 -1 0 514)" gradientUnits="userSpaceOnUse" x1="297.69" x2="318.531" xlink:href="#lg7" y1="368.873" y2="348.032"/><linearGradient id="SVGID_00000075878336543095210000000001704336617724796042_" gradientTransform="matrix(1 0 0 -1 0 514)" gradientUnits="userSpaceOnUse" x1="378.85" x2="398.283" xlink:href="#lg7" y1="369.157" y2="349.724"/><linearGradient id="SVGID_00000031921701260010331400000016160481797639023761_" gradientTransform="matrix(1 0 0 -1 0 514)" gradientUnits="userSpaceOnUse" x1="424.801" x2="424.801" y1="169.739" y2="156.519"><stop offset="0" stop-color="#fef48b"/><stop offset=".1646" stop-color="#fdf286"/><stop offset=".3352" stop-color="#fdee7a"/><stop offset=".5086" stop-color="#fce765"/><stop offset=".6839" stop-color="#fcde48"/><stop offset=".8589" stop-color="#fbd123"/><stop offset="1" stop-color="#fac600"/></linearGradient><linearGradient id="SVGID_00000139992446225520165000000000828696565207919779_" gradientTransform="matrix(1 0 0 -1 0 514)" gradientUnits="userSpaceOnUse" x1="442.687" x2="447.526" y1="163.388" y2="163.388"><stop offset="0" stop-color="#fe9738" stop-opacity="0"/><stop offset=".1207" stop-color="#fe9738" stop-opacity=".016"/><stop offset=".2459" stop-color="#fe9738" stop-opacity=".065"/><stop offset=".3731" stop-color="#fe9738" stop-opacity=".147"/><stop offset=".5018" stop-color="#fe9738" stop-opacity=".262"/><stop offset=".6317" stop-color="#fe9738" stop-opacity=".41"/><stop offset=".7625" stop-color="#fe9738" stop-opacity=".59"/><stop offset=".8916" stop-color="#fe9738" stop-opacity=".8"/><stop offset="1" stop-color="#fe9738"/></linearGradient><linearGradient id="SVGID_00000115512976143234162270000003555300049686490798_" gradientTransform="matrix(1 0 0 -1 0 514)" gradientUnits="userSpaceOnUse" x1="456.029" x2="412.607" xlink:href="#lg7" y1="459.987" y2="407.879"/><linearGradient id="lg8"><stop offset="0" stop-color="#464646" stop-opacity="0"/><stop offset=".6727" stop-color="#252529" stop-opacity=".463"/><stop offset="1" stop-color="#000009"/></linearGradient><linearGradient id="SVGID_00000002351472899098946860000000351524549742365608_" gradientTransform="matrix(1 0 0 -1 0 514)" gradientUnits="userSpaceOnUse" x1="435.528" x2="470.266" xlink:href="#lg8" y1="418.596" y2="397.367"/><linearGradient id="SVGID_00000078027857808791332540000014877043841406271657_" gradientTransform="matrix(1 0 0 -1 0 514)" gradientUnits="userSpaceOnUse" x1="441.163" x2="406.039" xlink:href="#lg8" y1="419.17" y2="421.1"/><linearGradient id="SVGID_00000179623281927554947740000000822663439372551870_" gradientTransform="matrix(1 0 0 -1 0 514)" gradientUnits="userSpaceOnUse" x1="304.284" x2="348.865" xlink:href="#lg7" y1="501.58" y2="394.47"/><linearGradient id="SVGID_00000018202409691454242110000016449104141400298170_" gradientTransform="matrix(1 0 0 -1 0 514)" gradientUnits="userSpaceOnUse" x1="366.238" x2="417.188" xlink:href="#lg8" y1="445.398" y2="415.292"/><linearGradient id="lg9"><stop offset="0" stop-color="#fe9738"/><stop offset=".179" stop-color="#f99337"/><stop offset=".3646" stop-color="#ed8a36"/><stop offset=".5532" stop-color="#d87b34"/><stop offset=".7438" stop-color="#bb6532"/><stop offset=".9342" stop-color="#96492f"/><stop offset="1" stop-color="#883f2e"/></linearGradient><linearGradient id="SVGID_00000017502964998472200550000014907389947625670822_" gradientTransform="matrix(1 0 0 -1 0 514)" gradientUnits="userSpaceOnUse" x1="256" x2="256" xlink:href="#lg9" y1="39.079" y2="-2.267"/><linearGradient id="lg10"><stop offset="0" stop-color="#6d3326" stop-opacity="0"/><stop offset=".1865" stop-color="#6d3326" stop-opacity=".038"/><stop offset=".3798" stop-color="#6d3326" stop-opacity=".152"/><stop offset=".5761" stop-color="#6d3326" stop-opacity=".343"/><stop offset=".7747" stop-color="#6d3326" stop-opacity=".609"/><stop offset=".9732" stop-color="#6d3326" stop-opacity=".949"/><stop offset="1" stop-color="#6d3326"/></linearGradient><linearGradient id="SVGID_00000126303935786814046860000015918438900817255568_" gradientTransform="matrix(1 0 0 -1 0 514)" gradientUnits="userSpaceOnUse" x1="256" x2="256" xlink:href="#lg10" y1="54.049" y2="112.938"/><linearGradient id="SVGID_00000138563589099861949620000015337689937977236152_" gradientTransform="matrix(1 0 0 -1 0 514)" gradientUnits="userSpaceOnUse" x1="348.636" x2="264.082" xlink:href="#lg10" y1="95.525" y2="43.968"/><linearGradient id="SVGID_00000160901015492914367210000007055371678047132837_" gradientTransform="matrix(1 0 0 -1 0 514)" gradientUnits="userSpaceOnUse" x1="431.654" x2="497.985" xlink:href="#lg10" y1="68.86" y2="68.86"/><linearGradient id="SVGID_00000098209414350950964460000009713928919856008113_" gradientTransform="matrix(1 0 0 -1 0 514)" gradientUnits="userSpaceOnUse" x1="256" x2="256" xlink:href="#lg9" y1="156.703" y2="93.253"/><linearGradient id="SVGID_00000054976797213965902170000000819037577944611727_" gradientTransform="matrix(1 0 0 -1 0 514)" gradientUnits="userSpaceOnUse" x1="270.761" x2="227.038" xlink:href="#lg10" y1="130.246" y2="155.909"/><linearGradient id="SVGID_00000105425249010441162180000005107355782759159183_" gradientTransform="matrix(1 0 0 -1 0 514)" gradientUnits="userSpaceOnUse" x1="258.816" x2="245.984" xlink:href="#lg10" y1="115.695" y2="98.111"/><linearGradient id="SVGID_00000016780337252951201230000010798374782667955343_" gradientTransform="matrix(1 0 0 -1 0 514)" gradientUnits="userSpaceOnUse" x1="482.584" x2="509.489" xlink:href="#lg10" y1="130.791" y2="130.791"/><linearGradient id="SVGID_00000111183811825835313250000016201259274324290204_" gradientTransform="matrix(1 0 0 -1 0 514)" gradientUnits="userSpaceOnUse" x1="231.769" x2="274.5" xlink:href="#lg5" y1="205.269" y2="205.269"/><linearGradient id="SVGID_00000152236921133317834480000009505918573242216351_" gradientTransform="matrix(1 0 0 -1 0 514)" gradientUnits="userSpaceOnUse" x1="45.449" x2="69.452" xlink:href="#lg5" y1="210.205" y2="205.687"/><linearGradient id="SVGID_00000031178668373988165350000013325149479008956290_" gradientTransform="matrix(1 0 0 -1 0 514)" gradientUnits="userSpaceOnUse" x1="74.114" x2="244.112" xlink:href="#lg5" y1="262.286" y2="172.487"/><linearGradient id="SVGID_00000091711979488600302290000006960263539694419878_" gradientTransform="matrix(1 0 0 -1 0 514)" gradientUnits="userSpaceOnUse" x1="158.534" x2="158.534" xlink:href="#lg6" y1="170.387" y2="104.28"/><linearGradient id="SVGID_00000175295283131570831210000001018115914600895164_" gradientTransform="matrix(1 0 0 -1 0 514)" gradientUnits="userSpaceOnUse" x1="183.129" x2="249.362" xlink:href="#lg6" y1="217.692" y2="217.692"/><linearGradient id="SVGID_00000141451187329018076390000005754571854804365753_" gradientTransform="matrix(1 0 0 -1 0 514)" gradientUnits="userSpaceOnUse" x1="50.884" x2="208.428" xlink:href="#lg7" y1="378.752" y2="193.405"/><linearGradient id="SVGID_00000168095656801705561000000003949906727162719881_" gradientTransform="matrix(1 0 0 -1 0 514)" gradientUnits="userSpaceOnUse" x1="153.616" x2="153.616" xlink:href="#lg8" y1="192.347" y2="126.623"/><linearGradient id="SVGID_00000006669261025431387270000018215631734183240587_" gradientTransform="matrix(1 0 0 -1 0 514)" gradientUnits="userSpaceOnUse" x1="181.303" x2="266.135" xlink:href="#lg8" y1="241.137" y2="215.473"/><linearGradient id="SVGID_00000181774503033911057440000000057511743514791557_" gradientTransform="matrix(1 0 0 -1 0 514)" gradientUnits="userSpaceOnUse" x1="143.066" x2="160.888" y1="138.211" y2="2.052"><stop offset="0" stop-color="#d9b1ee"/><stop offset=".2261" stop-color="#d6acec"/><stop offset=".4603" stop-color="#cfa0e9"/><stop offset=".6982" stop-color="#c48be4"/><stop offset=".9374" stop-color="#b36edc"/><stop offset="1" stop-color="#af66da"/></linearGradient><linearGradient id="lg11"><stop offset="0" stop-color="#814aa0" stop-opacity="0"/><stop offset=".1531" stop-color="#814aa0" stop-opacity=".026"/><stop offset=".3118" stop-color="#814aa0" stop-opacity=".104"/><stop offset=".473" stop-color="#814aa0" stop-opacity=".234"/><stop offset=".6361" stop-color="#814aa0" stop-opacity=".415"/><stop offset=".8006" stop-color="#814aa0" stop-opacity=".649"/><stop offset=".964" stop-color="#814aa0" stop-opacity=".931"/><stop offset="1" stop-color="#814aa0"/></linearGradient><linearGradient id="SVGID_00000044165493259016722910000016293725367099402654_" gradientTransform="matrix(1 0 0 -1 0 514)" gradientUnits="userSpaceOnUse" x1="158.535" x2="158.535" xlink:href="#lg11" y1="27.436" y2="-.604"/><linearGradient id="SVGID_00000100377807098126645000000001770092328582118576_" gradientTransform="matrix(1 0 0 -1 0 514)" gradientUnits="userSpaceOnUse" x1="234.116" x2="310.156" xlink:href="#lg11" y1="68.263" y2="82.045"/><g><g><g><path d="m507.4 345.5c0 2.6-.1 5.2-.4 7.8-.6 5.7-5.6 10.1-11.5 10.1h-284.1c-5.9 0-10.9-4.4-11.5-10.1-.2-2.6-.4-5.2-.4-7.8 0-60.8 68.9-110.1 153.9-110.1s154 49.3 154 110.1z" fill="url(#SVGID_1_)"/><path d="m353.5 235.5c-17.9 0-35 2.2-51 6.2v70l51.8 51.8h141.2c5.9 0 10.9-4.4 11.5-10.1.2-2.6.4-5.2.4-7.8 0-60.9-68.9-110.1-153.9-110.1z" fill="url(#SVGID_00000133522965192034030920000013502335617702270391_)"/><path d="m353.5 235.5c-17.9 0-35 2.2-51 6.2v70l51.8 51.8h141.2c5.9 0 10.9-4.4 11.5-10.1.2-2.6.4-5.2.4-7.8 0-60.9-68.9-110.1-153.9-110.1z" fill="url(#SVGID_00000134934031218198612770000001674903486340198049_)"/><path d="m507.4 345.5c0 2.6-.1 5.2-.4 7.8-.6 5.7-5.6 10.1-11.5 10.1h-141.2l-.9-.9v-127c85.1 0 154 49.2 154 110z" fill="url(#SVGID_00000130621537536750421230000017983573571370650507_)"/><path d="m353.5 273.1-15.8 74.5 15.8 15.9 15.7-15.9z" fill="url(#SVGID_00000177466056337320249620000005978583384675804084_)"/><path d="m353.5 273.1-15.8 74.5 15.8 15.9 15.7-15.9z" fill="url(#SVGID_00000075866291469716769910000016347885222400569783_)"/><path d="m353.5 273.1-15.8 74.5 15.8 15.9 15.7-15.9z" fill="url(#SVGID_00000101091205518533647880000002759731852396721288_)"/><path d="m359.7 286.9 3 3c6.3 6.3 6.3 16.4 0 22.7l-3 3c-3.4 3.4-9 3.4-12.4 0l-3-3c-6.3-6.3-6.3-16.4 0-22.7l3-3c3.4-3.4 8.9-3.4 12.4 0z" fill="url(#SVGID_00000160886912979698112210000003496563538317456037_)"/><g><g><path d="m353.5 363.5h-146.4c-6.1 0-11.2-4.4-11.8-10.1-.3-2.6-.4-5.2-.4-7.8 0-42.5 34.5-79.3 84.9-97.7 14.3 18.1 57.3 74.7 73.7 115.6z" fill="url(#SVGID_00000010998711675903727830000016944867598739839910_)"/><path d="m353.5 363.5h-146.4c-6.1 0-11.2-4.4-11.8-10.1-.3-2.6-.4-5.2-.4-7.8 0-42.5 34.5-79.3 84.9-97.7 14.3 18.1 57.3 74.7 73.7 115.6z" fill="url(#SVGID_00000037652721572500079330000012388586450870688174_)"/><path d="m353.5 363.5h-146.4c-6.1 0-11.2-4.4-11.8-10.1-.3-2.6-.4-5.2-.4-7.8 0-42.5 34.5-79.3 84.9-97.7 14.3 18.1 57.3 74.7 73.7 115.6z" fill="url(#SVGID_00000106825466624092499990000007268713360198747057_)"/><path d="m353.5 363.5h-146.4c-6.1 0-11.2-4.4-11.8-10.1-.3-2.6-.4-5.2-.4-7.8 0-17.8 6.1-34.6 16.8-49.5h103.4c14.8 21.7 30 46.6 38.4 67.4z" fill="url(#SVGID_00000176034805455227101280000015668866677626449280_)"/><path d="m279.9 318.5c0 3.2 2.6 5.7 5.7 5.7h4.2c3.2 0 5.7 2.6 5.7 5.7v6c0 2.3 1.4 4.4 3.6 5.3l54.4 22.2c-16.4-40.8-59.4-97.5-73.6-115.6z" fill="url(#SVGID_00000067947654607837011210000004541832258832186762_)"/><path d="m279.9 318.5c0 3.2 2.6 5.7 5.7 5.7h4.2c3.2 0 5.7 2.6 5.7 5.7v6c0 2.3 1.4 4.4 3.6 5.3l54.4 22.2c-16.4-40.8-59.4-97.5-73.6-115.6z" fill="url(#SVGID_00000127753562977693635110000013498532853714960260_)"/></g><g><path d="m353.5 363.5h146.4c6.1 0 11.2-4.4 11.8-10.1.3-2.6.4-5.2.4-7.8 0-42.5-34.5-79.3-84.9-97.7-14.3 18.1-57.3 74.7-73.7 115.6z" fill="url(#SVGID_00000130608068259829068300000018419297392784758173_)"/><path d="m353.5 363.5h146.4c6.1 0 11.2-4.4 11.8-10.1.3-2.6.4-5.2.4-7.8 0-42.5-34.5-79.3-84.9-97.7-14.3 18.1-57.3 74.7-73.7 115.6z" fill="url(#SVGID_00000141418028040272769670000018179604148754688664_)"/><path d="m353.5 363.5h146.4c6.1 0 11.2-4.4 11.8-10.1.3-2.6.4-5.2.4-7.8 0-42.5-34.5-79.3-84.9-97.7-14.3 18.1-57.3 74.7-73.7 115.6z" fill="url(#SVGID_00000093173600572900751880000003847610654249941386_)"/><path d="m512 345.5c0 2.6-.1 5.2-.4 7.8-.6 5.7-5.7 10.1-11.8 10.1h-146.3c8.3-20.8 23.6-45.6 38.4-67.4h103.4c10.6 14.9 16.7 31.7 16.7 49.5z" fill="url(#SVGID_00000101825387636008671590000001262787459785751730_)"/><path d="m427.1 318.5c0 3.2-2.6 5.7-5.7 5.7h-4.2c-3.2 0-5.7 2.6-5.7 5.7v6c0 2.3-1.4 4.4-3.6 5.3l-54.4 22.2c16.4-40.8 59.4-97.5 73.6-115.6z" fill="url(#SVGID_00000173132029907865856230000005357191656921406128_)"/></g></g><path d="m447 346-44.1 9.7 7.8 7.8h53.8z" fill="url(#SVGID_00000168079711004936437040000017023080118053906615_)"/><g><path d="m353.5 244.3h-34.4l34.4 56.9 34.3-56.9z" fill="url(#SVGID_00000019649014060558241370000013550195434666309789_)"/><path d="m353.5 244.3h-34.4l34.4 56.9 34.3-56.9z" fill="url(#SVGID_00000168839020600479381630000015097964034925424542_)"/><path d="m353.5 244.3h-34.4l34.4 56.9 34.3-56.9z" fill="url(#SVGID_00000002357968106722420070000010621215883702635446_)"/></g><g><path d="m353.5 301.2 7.2-25.8c2.1-7.5 6.9-13.9 13.4-18.1l33.5-21.4c5.1-3.2 11.7-2.7 16.2 1.4l8.8 8c1.3 1.2 1.7 3.1.9 4.8l-28.5 60.8c-.8 1.7-3.1 2.1-4.5.8l-12.9-12.9c-7.5-7.5-19.2-8.4-27.7-2.2z" fill="url(#SVGID_00000119119466935978139050000014123048474991737234_)"/><path d="m353.5 301.2 7.2-25.8c2.1-7.5 6.9-13.9 13.4-18.1l33.5-21.4c5.1-3.2 11.7-2.7 16.2 1.4l8.8 8c1.3 1.2 1.7 3.1.9 4.8l-28.5 60.8c-.8 1.7-3.1 2.1-4.5.8l-12.9-12.9c-7.5-7.5-19.2-8.4-27.7-2.2z" fill="url(#SVGID_00000111149376866639892090000010173707237126730427_)"/><path d="m353.5 301.2-7.2-25.8c-2.1-7.5-6.9-13.9-13.4-18.1l-33.5-21.4c-5.1-3.2-11.7-2.7-16.2 1.4l-8.8 8c-1.3 1.2-1.7 3.1-.9 4.8l28.5 60.8c.8 1.7 3.1 2.1 4.5.8l12.9-12.9c7.5-7.5 19.2-8.4 27.7-2.2z" fill="url(#SVGID_00000173160439801138429190000010403813552951691678_)"/></g><g><g><path d="m469.4 160.2c0 16.7-13.5 30.2-30.2 30.2s-16.7-60.4 0-60.4 30.2 13.5 30.2 30.2z" fill="url(#SVGID_00000079460449260537732440000000963263886927636914_)"/><path d="m237.5 160.2c0 16.7 13.5 30.2 30.2 30.2s16.7-60.4 0-60.4-30.2 13.5-30.2 30.2z" fill="url(#SVGID_00000054980130991920721000000002768444678134385849_)"/></g><path d="m353.5 34.9c49.7 0 89.9 40.3 89.9 89.9v46c0 49.7-40.3 89.9-89.9 89.9-49.7 0-89.9-40.3-89.9-89.9v-46c-.1-49.7 40.2-89.9 89.9-89.9z" fill="url(#SVGID_00000005982783663030251350000007963357499571414715_)"/><path d="m263.5 157.3v13.4c0 49.7 40.3 89.9 89.9 89.9 49.7 0 89.9-40.3 89.9-89.9v-13.4z" fill="url(#SVGID_00000079466835442228882260000006025945853146355856_)"/><path d="m353.5 34.9c-2.8 0-5.5.1-8.2.4v225c2.7.2 5.4.4 8.2.4 49.7 0 89.9-40.3 89.9-89.9v-46c0-49.7-40.3-89.9-89.9-89.9z" fill="url(#SVGID_00000147211519203166103770000001468743619097459383_)"/><g><path d="m357.1 208.8h-7.2c-9.1 0-16.1-7.9-15.1-16.9l3.8-32.8h29.9l3.8 32.8c.9 9-6.2 16.9-15.2 16.9z" fill="url(#SVGID_00000066489792178115747870000005322666483726988433_)"/><path d="m357.1 208.8h-7.2c-9.1 0-16.1-7.9-15.1-16.9l3.8-32.8h29.9l3.8 32.8c.9 9-6.2 16.9-15.2 16.9z" fill="url(#SVGID_00000140016621452813529580000000692406518962214326_)"/><path d="m357.1 208.8h-7.2c-9.1 0-16.1-7.9-15.1-16.9l3.8-32.8h29.9l3.8 32.8c.9 9-6.2 16.9-15.2 16.9z" fill="url(#SVGID_00000175288596893898146180000013369158142201263745_)"/></g></g><g><path d="m312.7 139.6c9 0 16.4 7.3 16.4 16.4v8.4c0 9-7.3 16.4-16.4 16.4-9 0-16.4-7.3-16.4-16.4v-8.4c.1-9 7.4-16.4 16.4-16.4z" fill="url(#SVGID_00000056407864732317451450000004416952469780728230_)"/><path d="m394.2 139.6c9 0 16.4 7.3 16.4 16.4v8.4c0 9-7.3 16.4-16.4 16.4-9 0-16.4-7.3-16.4-16.4v-8.4c0-9 7.4-16.4 16.4-16.4z" fill="url(#SVGID_00000075878336543095210000000001704336617724796042_)"/></g><g><path d="m404.8 344.8h39.9c1.5 0 2.7 1.2 2.7 2.7v6.2c0 1.5-1.2 2.7-2.7 2.7h-39.9c-1.5 0-2.7-1.2-2.7-2.7v-6.2c0-1.5 1.2-2.7 2.7-2.7z" fill="url(#SVGID_00000031921701260010331400000016160481797639023761_)"/><path d="m444.8 344.8h-17.7v11.7h17.7c1.5 0 2.7-1.2 2.7-2.7v-6.2c0-1.6-1.2-2.8-2.7-2.8z" fill="url(#SVGID_00000139992446225520165000000000828696565207919779_)"/></g></g><g><g><path d="m372.3 85.2c25-4.1 50.6 16.2 58 46.7 0 .1 0 .1.1.2 4.1 16.9 15.3 19.3 25.6 5.3 9.5-12.9 13.2-31.4 8.6-50.4-7.4-30.5-33.8-50.3-58.9-44.2-18.2 4.5-30.8 21.6-33.4 42.4z" fill="url(#SVGID_00000115512976143234162270000003555300049686490798_)"/><path d="m372.3 85.2c25-4.1 50.6 16.2 58 46.7 0 .1 0 .1.1.2 4.1 16.9 15.3 19.3 25.6 5.3 9.5-12.9 13.2-31.4 8.6-50.4-7.4-30.5-33.8-50.3-58.9-44.2-18.2 4.5-30.8 21.6-33.4 42.4z" fill="url(#SVGID_00000002351472899098946860000000351524549742365608_)"/><path d="m372.3 85.2c25-4.1 50.6 16.2 58 46.7 0 .1 0 .1.1.2 4.1 16.9 15.3 19.3 25.6 5.3 9.5-12.9 13.2-31.4 8.6-50.4-7.4-30.5-33.8-50.3-58.9-44.2-18.2 4.5-30.8 21.6-33.4 42.4z" fill="url(#SVGID_00000078027857808791332540000014877043841406271657_)"/><path d="m291 15.7c14-9.7 32.5-15.7 52.9-15.7 43.3 0 78.4 26.9 78.4 60.1s-31 60.1-73.1 60.1c-9.1 0-27.7.9-46 11.5-30.6 17.6-68.1-8.4-62.3-43.2 4.3-26.1 18.2-52.5 50.1-72.8z" fill="url(#SVGID_00000179623281927554947740000000822663439372551870_)"/></g><path d="m343.9 0c-3.1 0-6.2.2-9.2.4v120.7c5.9-.8 10.9-1 14.5-1 42.1 0 73.1-26.9 73.1-60.1s-35.1-60-78.4-60z" fill="url(#SVGID_00000018202409691454242110000016449104141400298170_)"/></g></g><g><g><path d="m490.4 387.8v114.7c0 5.3-4.3 9.5-9.5 9.5h-179.7l-279.6-45.9v-78.3c0-5.3 4.3-9.5 9.5-9.5h449.8c5.2 0 9.5 4.2 9.5 9.5z" fill="url(#SVGID_00000017502964998472200550000014907389947625670822_)"/><path d="m490.4 387.8v114.7c0 5.3-4.3 9.5-9.5 9.5h-179.7l-279.6-45.9v-78.3c0-5.3 4.3-9.5 9.5-9.5h449.8c5.2 0 9.5 4.2 9.5 9.5z" fill="url(#SVGID_00000126303935786814046860000015918438900817255568_)"/><path d="m410.5 378.3v133.7h-109.3l-101.9-17.1v-116.6z" fill="url(#SVGID_00000138563589099861949620000015337689937977236152_)"/><path d="m480.9 378.3h-84.1v133.7h84.1c5.3 0 9.5-4.3 9.5-9.5v-114.7c0-5.3-4.3-9.5-9.5-9.5z" fill="url(#SVGID_00000160901015492914367210000007055371678047132837_)"/></g><g><path d="m9.5 356.4h493c5.3 0 9.5 4.3 9.5 9.5v34.5c0 5.3-4.3 9.5-9.5 9.5h-493c-5.3 0-9.5-4.3-9.5-9.5v-34.4c0-5.3 4.3-9.6 9.5-9.6z" fill="url(#SVGID_00000098209414350950964460000009713928919856008113_)"/><path d="m182.1 356.4h175.4v53.5h-175.4z" fill="url(#SVGID_00000054976797213965902170000000819037577944611727_)"/><path d="m182.1 356.4h175.4v53.5h-175.4z" fill="url(#SVGID_00000105425249010441162180000005107355782759159183_)"/><path d="m502.5 356.4h-84.1v53.6h84.1c5.3 0 9.5-4.3 9.5-9.5v-34.5c0-5.3-4.3-9.6-9.5-9.6z" fill="url(#SVGID_00000016780337252951201230000010798374782667955343_)"/></g></g><g><g><path d="m274.5 308.7c0 16.7-13.5 30.2-30.2 30.2s-16.7-60.4 0-60.4 30.2 13.5 30.2 30.2z" fill="url(#SVGID_00000111183811825835313250000016201259274324290204_)"/><path d="m42.6 308.7c0 16.7 13.5 30.2 30.2 30.2s16.7-60.4 0-60.4-30.2 13.5-30.2 30.2z" fill="url(#SVGID_00000152236921133317834480000009505918573242216351_)"/></g><path d="m158.5 183.4c49.7 0 89.9 40.3 89.9 89.9v46c0 49.7-40.3 89.9-89.9 89.9-49.7 0-89.9-40.3-89.9-89.9v-46c0-49.6 40.3-89.9 89.9-89.9z" fill="url(#SVGID_00000031178668373988165350000013325149479008956290_)"/><path d="m68.6 305.9v13.4c0 49.7 40.3 89.9 89.9 89.9 49.7 0 89.9-40.3 89.9-89.9v-13.4z" fill="url(#SVGID_00000091711979488600302290000006960263539694419878_)"/><path d="m158.5 183.4c-2.8 0-5.5.1-8.2.4v225c2.7.2 5.4.4 8.2.4 49.7 0 89.9-40.3 89.9-89.9v-46c.1-49.6-40.2-89.9-89.9-89.9z" fill="url(#SVGID_00000175295283131570831210000001018115914600895164_)"/></g><g><path d="m47.3 235.6c4.6-19 16.6-33.8 31-40.9 9.5-4.6 17.7-11.6 24.7-19.6 14.1-16.1 38-26.7 65.1-26.7 20.4 0 38.9 6 52.8 15.7 31.9 20.3 45.8 46.7 50.1 72.8 2.6 15.8-3.6 29.7-14 38.6-2.5 2.2-3.9 5.4-3.9 8.7v15c0 46.8-37.9 84.7-84.7 84.7h-19.8c-46.8 0-84.7-37.9-84.7-84.7 0-3.3-1.4-6.4-3.8-8.6-1.4-1.3-2.8-2.9-4.2-4.7-9.4-12.8-13.2-31.3-8.6-50.3z" fill="url(#SVGID_00000141451187329018076390000005754571854804365753_)"/><path d="m50 275.4c1.6 3.8 3.6 7.4 6 10.6 1.4 1.9 2.8 3.4 4.2 4.7 2.4 2.2 3.8 5.3 3.8 8.6 0 46.8 37.9 84.7 84.7 84.7h19.8c46.8 0 84.7-37.9 84.7-84.7v-15c0-3.3 1.4-6.6 3.9-8.7.1-.1.1-.1.2-.2z" fill="url(#SVGID_00000168095656801705561000000003949906727162719881_)"/><path d="m221 164.3c-13.9-9.8-32.5-15.7-52.8-15.7-22.6 0-43 7.3-57.3 19.1v207.5c11.4 5.7 24.2 8.9 37.8 8.9h19.8c46.8 0 84.7-37.9 84.7-84.7v-15c0-3.3 1.4-6.6 3.9-8.7 10.4-8.9 16.7-22.8 14-38.6-4.3-26.2-18.2-52.5-50.1-72.8z" fill="url(#SVGID_00000006669261025431387270000018215631734183240587_)"/></g><g><path d="m312.4 494.1c0 2.6-.1 5.2-.4 7.8-.6 5.7-5.6 10.1-11.5 10.1h-284c-5.9 0-10.9-4.4-11.5-10.1-.2-2.6-.4-5.2-.4-7.8 0-60.8 68.9-110.1 153.9-110.1s153.9 49.3 153.9 110.1z" fill="url(#SVGID_00000181774503033911057440000000057511743514791557_)"/><path d="m312.4 494.1c0 2.6-.1 5.2-.4 7.8-.6 5.7-5.6 10.1-11.5 10.1h-284c-5.9 0-10.9-4.4-11.5-10.1-.2-2.6-.4-5.2-.4-7.8 0-28.2 14.8-53.9 39.2-73.3h229.5c24.3 19.4 39.1 45.1 39.1 73.3z" fill="url(#SVGID_00000044165493259016722910000016293725367099402654_)"/><path d="m158.5 384c-8.6 0-17.1.5-25.3 1.5v126.5h167.4c5.9 0 10.9-4.4 11.5-10.1.2-2.6.4-5.2.4-7.8-.1-60.8-69-110.1-154-110.1z" fill="url(#SVGID_00000100377807098126645000000001770092328582118576_)"/></g></g></svg>