<svg id="Layer_1" enable-background="new 0 0 110 110" viewBox="0 0 110 110" xmlns="http://www.w3.org/2000/svg"><g id="_x31_39"><g><g><g><g><g><g><path d="m75.654541 49.2948532 24.2442322 14.0869408c.0668564-1.8128166-.14077-3.2913284-.7392578-4.0657349l-24.2406998-14.086937c.5983963.7744904.8025894 2.2493935.7357254 4.0657311z" fill="#dbe6fa"/></g></g><g><g><g enable-background="new"><g><g><g><g><path d="m96.982872 68.1098633-3.1778946-1.8467941.1405564.1101226 3.1779022 1.8467942z" fill="#1f3241"/></g></g></g></g><g><g><g><g><path d="m97.5929794 67.4067078-3.1779022-1.8467942-.1679459-.0641937 3.1778946 1.8467941z" fill="#1f3241"/></g></g></g></g><g><g><g><g><path d="m96.3001556 69.0823746-3.1779022-1.8467942.1118317.1553269 3.1779022 1.8467941z" fill="#3d4449"/></g></g></g></g><g><g><g><g><path d="m98.1166992 66.2835159-3.1778946-1.8467941-.1914139-.0175171 3.1779023 1.8467941z" fill="#1f3241"/></g></g></g></g><g><g><g><g><path d="m95.5411072 69.952858-3.1779022-1.8467942.0765533.1907502 3.1779022 1.8467941z" fill="#3d4449"/></g></g></g></g><g><g><g><g><path d="m98.5027466 65.144928-3.1779022-1.846798-.2043686.0321465 3.1779022 1.8467941z" fill="#4f575f"/></g></g></g></g><g><g><g><g><path d="m94.727951 70.694931-3.1779022-1.8467941.0386505.2261963 3.1779023 1.8467941z" fill="#3d4449"/></g></g></g></g><g><g><g><g><path d="m98.7499084 64.023262-3.1779022-1.8467903-.2160339.0810509 3.1779022 1.8467941z" fill="#4f575f"/></g></g></g></g><g><g><g><g><path d="m93.8842316 71.2904968-3.1779023-1.8467941.0007096.2496033 3.1779022 1.8467941z" fill="#3d4449"/></g></g></g></g><g><g><g><g><path d="m98.7841721 62.2383499-3.1779023-1.8467941-.2157821.1682587 3.1779022 1.8467941z" fill="#4f575f"/></g></g></g></g><g><g><g><g><path d="m93.0374222 71.7176514-3.1779022-1.8467942-.0372391.2700043 3.1779022 1.8467941z" fill="#3d4449"/></g></g></g></g><g><g><g><g><path d="m90.5931091 68.3418503c1.0593491.6156235 2.1187057 1.231102 3.1780624 1.8467026 2.0896988-1.2065811 3.7853165-4.0982513 3.8400497-6.5169487l-3.1778946-1.8467903c-.0547408 2.4187545-1.75045 5.3105087-3.8402175 6.5170364z" fill="#1f3241"/></g></g></g></g><g><g><g><g><path d="m93.7698593 69.7329636c1.8698578-1.0796509 3.3894272-3.6663513 3.443573-5.8316917l-3.1779022-1.8467903c-.0541458 2.16539-1.5737915 4.7521667-3.4437103 5.8317642.151184.0878524 3.0732803 1.7858428 3.1780395 1.8467178z" fill="#385165"/></g></g></g></g><g><g><g><g><path d="m93.2583466 63.927948c-.2847214.8150101-.7451401 1.6124878-1.3108063 2.2689133l3.1779022 1.8467941c.5656662-.6564255 1.0260849-1.4539032 1.3108063-2.2689133-.9533692-.554039-2.2245255-1.2927551-3.1779022-1.8467941z" fill="#c1c4c9"/></g></g></g></g><g><g><g><g><path d="m98.5680618 61.3706055-3.1779022-1.8467942-.2038727.2050553 3.1779022 1.8467941z" fill="#4f575f"/></g></g></g></g><g><g><g><g><path d="m96.7541199 64.1664505-3.1779022-1.8467903c-.0095367.3293152-.0583878.670784-.142601 1.0130997l3.1779022 1.8467979c.0842132-.3423157.1330642-.6837845.142601-1.0131073z" fill="#c1c4c9"/></g></g></g></g><g><g><g><g><path d="m92.2123795 71.9605408-3.1778946-1.8467942-.0752411.2798996 3.1779022 1.8467942z" fill="#3d4449"/></g></g></g></g><g><g><g><g><path d="m94.6968079 68.4959488-3.1778946-1.8467865c-.2914886.2797318-.6027679.5181885-.9285965.7063065l3.1779022 1.8467941c.3258209-.188118.6371078-.4265747.9285889-.7063141z" fill="#c1c4c9"/></g></g></g></g><g><g><g><g><path d="m93.3101501 59.4885674c.6659393.3869705 1.0886536 1.1932487 1.1231689 2.3362427l3.1779022 1.8467979c-.034523-1.1429977-.4572296-1.949276-1.1231689-2.3362465-.9533691-.5540352-2.224533-1.2927551-3.1779022-1.8467941z" fill="#1f3241"/></g></g></g></g><g><g><g><g><path d="m93.0290909 59.9714012c.5947113.3455925.9729691 1.06427 1.0064392 2.0830765l3.1779022 1.8467941c-.0334778-1.0188065-.4117279-1.737484-1.0064392-2.0830765-.9533691-.554039-2.2245254-1.2927551-3.1779022-1.8467941z" fill="#385165"/></g></g></g></g><g><g><g><g><path d="m93.4304504 61.4788246c.0846024.2441902.1344833.5247002.1457672.8408356l3.1779022 1.8467979c-.0112839-.3161392-.0611649-.5966492-.1457672-.8408394-1.0593185-.6155967-2.1185836-1.2311935-3.1779022-1.8467941z" fill="#c1c4c9"/></g></g></g></g><g><g><g><g><path d="m96.4362488 65.7747421-3.1779022-1.8467979-1.4919663.3237114 3.1779022 1.8467941z" fill="#1f3241"/></g></g></g></g><g><g><g><g><path d="m96.6115189 65.1795502-3.1779023-1.8467903-1.3868179-.0321885 3.1778946 1.846798z" fill="#c1c4c9"/></g></g></g></g><g><g><g><g><path d="m96.6062393 63.319561-3.1778946-1.8467941-1.3860321 1.6330909 3.1779022 1.8467942z" fill="#1f3241"/></g></g></g></g><g><g><g><g><path d="m93.4304504 61.4788246c.1335297.0776024 2.3818207 1.3805962 3.1757889 1.8407402l-3.1778946-1.8467941c.0007019.0020142.0014038.0040321.0021057.0060539z" fill="#c1c4c9"/></g></g></g></g><g><g><g><g><path d="m98.2094879 60.6438484-3.1778946-1.8467941-.1880646.2335815 3.1779023 1.8467942z" fill="#4f575f"/></g></g></g></g><g><g><g><g><path d="m94.6534348 66.6022339-3.1779023-1.8467941.4720078 1.4414138 3.1779022 1.8467942z" fill="#1f3241"/></g></g></g></g><g><g><g><g><path d="m94.9442825 66.0984497-3.1779022-1.8467941c-.0248718.0050354-.0494995.0149231-.0733566.0286942l3.1779022 1.8467941c.0238571-.0137711.0484848-.0236588.0733566-.0286942z" fill="#1f3241"/></g></g></g></g><g><g><g><g><path d="m91.4339828 72.0198746-3.1778945-1.8467942-.1079941.2792206 3.1779022 1.8467942z" fill="#3d4449"/></g></g></g></g><g><g><g><g><path d="m90.5931091 68.3418503c-1.0717163.6187592-2.0426407.6762619-2.7436676.2688751l3.1779022 1.8468018c.7010269.4073792 1.6719513.3498764 2.7436676-.2688828-1.0593185-.6156006-2.118576-1.2311935-3.1779022-1.8467941z" fill="#1f3241"/></g></g></g></g><g><g><g><g><path d="m90.5918198 67.8862457c-.9609528.5548096-1.8316116.606041-2.4605179.2406006l3.1779022 1.8467941c.6289063.3654404 1.4995651.314209 2.4605179-.2406006-.3457413-.2009124-2.9086609-1.6903228-3.1779022-1.8467941z" fill="#385165"/></g></g></g></g><g><g><g><g><path d="m93.768219 69.2022629-3.1779022-1.8467941c-.3245163.187355-.6361313.3085251-.9282455.3657379l3.1779022 1.8467941c.2921142-.0572128.6037292-.1783829.9282455-.3657379z" fill="#c1c4c9"/></g></g></g></g><g><g><g><g><path d="m94.6534348 66.6022339.4720078 1.4414139c.5656662-.6564178 1.0260773-1.4538879 1.3108063-2.2689056l-1.4919662.3237076c-.18071.0365905-.3490373.3294753-.2908479.5037841z" fill="#181e1e"/></g></g></g></g><g><g><g><g><path d="m94.8709259 66.1271439-3.1779022-1.8467941c-.1494217.0862579-.267662.3248062-.2174911.47509l3.1779022 1.8467941c-.0501709-.1502838.0680694-.3888321.2174911-.47509z" fill="#1f3241"/></g></g></g></g><g><g><g><g><path d="m93.9699707 67.3206406-3.1779022-1.8467942.7268371 1.1753083 3.1779023 1.8467941z" fill="#c1c4c9"/></g></g></g></g><g><g><g><g><path d="m93.9278717 67.2781982-3.1779022-1.8467941c.0162582.0094452.0305328.0234528.042099.0424423l3.1779022 1.8467941c-.0115662-.0189895-.0258408-.0329971-.042099-.0424423z" fill="#c1c4c9"/></g></g></g></g><g><g><g><g><path d="m91.9862976 63.2854233 3.1779022 1.8467941c.0167007.0097046.0367126.015213.0604935.015152l-3.1778946-1.8467979c-.0237884.0000648-.0438003-.0054436-.0605011-.0151482z" fill="#c1c4c9"/></g></g></g></g><g><g><g><g><path d="m91.984848 63.2848701 3.1779022 1.8467979c-.0124207-.007225-.0231705-.0166397-.032547-.0276489l-3.1778946-1.8467941c.009369.0110093.0201188.0204277.0325394.0276451z" fill="#1f3241"/></g></g></g></g><g><g><g><g><path d="m96.6062393 63.319561c-1.3843994 1.6475105-1.4127731 1.6244316-1.4760361 1.7844582.0223541.0262527.0525513.043457.0944901.0433502l1.3868256.0321808c.1571045-.6385804.2100753-1.2441368-.0052796-1.8599892z" fill="#181e1e"/></g></g></g></g><g><g><g><g><path d="m95.2202148 64.952652-3.1779022-1.8467941c-.0391922.0467262-.0691757.0986786-.090004.1513672l3.1779022 1.8467941c.0208207-.0526886.0508118-.1046372.090004-.1513672z" fill="#1f3241"/></g></g></g></g><g><g><g><g><path d="m93.9278717 67.2781982-3.1779022-1.8467941c-.0447922-.0260315-.1046295-.0174332-.1644058.0170746l3.1779022 1.8467941c.0597763-.0345077.119606-.0431061.1644058-.0170746z" fill="#1f3241"/></g></g></g></g><g><g><g><g><path d="m93.5577774 67.5586166-3.1778946-1.8467941-.7178116 2.0093765 3.1778946 1.8467942z" fill="#1f3241"/></g></g></g></g><g><g><g><g><path d="m93.7634659 67.2952728-3.1779022-1.8467941c-.0814667.0470352-.1627731.1421814-.2056808.2633438l3.1778946 1.8467941c.0429152-.1211624.1242217-.2163086.2056884-.2633438z" fill="#1f3241"/></g></g></g></g><g><g><g><g><path d="m96.4268875 62.9306221-3.1779022-1.8467941-1.4902268 1.3980598 3.1778946 1.8467941z" fill="#c1c4c9"/></g></g></g></g><g><g><g><g><path d="m95.1088104 62.17799-3.1779022-1.8467942-.4649277 1.9823609 3.1778946 1.8467903z" fill="#1f3241"/></g></g></g></g><g><g><g><g><path d="m91.7587585 62.4818878c-.0243912.0230408-.0485306.0411377-.0719376.0546532 1.0593185.6156006 2.1185837 1.2311935 3.1779022 1.8467979.0233994-.0135193.0475388-.0316162.0719299-.054657-1.0593489-.6155433-2.1186141-1.2311172-3.1778945-1.8467941z" fill="#c1c4c9"/></g></g></g></g><g><g><g><g><path d="m91.686821 62.536541-.0000153.0000114c1.0593185.6156006 2.1185837 1.2311974 3.1779022 1.8467941l.0000153-.0000153c-1.0593185-.6155967-2.1185837-1.2311896-3.1779022-1.8467902z" fill="#c1c4c9"/></g></g></g></g><g><g><g><g><path d="m92.8724899 67.6304626-3.1779022-1.8467941-.4649124 1.9823456 3.1779022 1.8467941z" fill="#c1c4c9"/></g></g></g></g><g><g><g><g><path d="m95.8816299 62.3788338-3.1778946-1.8467941c.218483.1269722.4031143.3124847.5452499.5517883l3.1779022 1.8467941c-.1421355-.2393036-.3267669-.4248161-.5452575-.5517883z" fill="#c1c4c9"/></g></g></g></g><g><g><g><g><path d="m91.6868057 62.5365524c-.0632401.0365105-.1210251.0394325-.163063.0150032l3.1779022 1.8467979c.042038.0244293.099823.0214996.1630554-.015007-1.0593109-.6155967-2.118576-1.2311935-3.1778946-1.8467941z" fill="#c1c4c9"/></g></g></g></g><g><g><g><g><path d="m89.6360855 65.5465622c.057373.0333328.0856247.1177368.0585022.2371063l3.1779022 1.8468018c.0271225-.1193771-.0011292-.2037811-.0585022-.237114-.9533691-.554039-2.224533-1.2927551-3.1779022-1.8467941z" fill="#c1c4c9"/></g></g></g></g><g><g><g><g><path d="m88.4541397 67.5651474 3.1779022 1.8467941c.2253876.1309814.4870071.1997757.7755356.2008667l-3.1779022-1.8467865c-.2885284-.0010986-.5501404-.0698929-.7755356-.2008743z" fill="#c1c4c9"/></g></g></g></g><g><g><g><g><path d="m91.523735 62.5515556 3.1779022 1.8467979c-.0575333-.0334396-.0855713-.1180954-.0577621-.2380066l-3.1778946-1.8467903c-.0278167.1199113.0002289.204567.0577545.237999z" fill="#1f3241"/></g></g></g></g><g><g><g><g><path d="m92.8139877 67.3933563-3.1778946-1.8467941c-.0417786-.0242767-.098999-.0214767-.1615143.0146103l3.1779022 1.8467941c.0625153-.036087.1197282-.038887.1615067-.0146103z" fill="#1f3241"/></g></g></g></g><g><g><g><g><path d="m92.6524811 67.4079666-3.1779022-1.8467941c-.023674.0136642-.0481033.0321045-.0727463.0556564l3.1779022 1.8467941c.0246429-.0235519.0490723-.0419921.0727463-.0556564z" fill="#1f3241"/></g></g></g></g><g><g><g><g><path d="m95.8816299 62.3788338-3.1779022-1.8467941c-.224884-.1306877-.4856262-.1993599-.7728195-.2008438l3.1779022 1.8467941c.2871933.0014839.5479355.0701561.7728195.2008438z" fill="#1f3241"/></g></g></g></g><g><g><g><g><path d="m95.1088104 62.17799-.4649353 1.982357c-.0556641.2399826.1123886.3387527.292778.168335l1.4902344-1.3980598c-.2884292-.4856149-.7518539-.7497064-1.3180771-.7526322z" fill="#181e1e"/></g></g></g></g><g><g><g><g><path d="m89.2069702 64.842247c-.0195236.0504303-.04953.1023941-.0900269.1498795l3.1779022 1.8467941c-4.0770035-2.3710709-4.3597336-2.5344772.0005188-.0006104.0402374-.0473175.0700684-.0990524.0895081-.1492691-.9533767-.5540313-2.224533-1.2927551-3.1779022-1.8467941z" fill="#c1c4c9"/></g></g></g></g><g><g><g><g><path d="m92.5797348 67.463623-3.1779022-1.8467941-1.4915467 1.398819 3.1779023 1.8467941z" fill="#1f3241"/></g></g></g></g><g><g><g><g><path d="m88.4541397 67.5651474 3.1779022 1.8467941c-.2179642-.1266708-.4020538-.3115005-.5438538-.5494995l-3.1779022-1.8467941c.1418.237999.3258896.4228287.5438538.5494995z" fill="#1f3241"/></g></g></g></g><g><g><g><g><path d="m92.5797348 67.463623-1.4915466 1.398819c.2884216.484108.7518311.7482147 1.3193817.7503738l.4649124-1.9823532c.0543976-.2393722-.1138077-.3378982-.2927475-.1668396z" fill="#181e1e"/></g></g></g></g><g><g><g><g><path d="m89.1738129 64.8122864c.0129395.0075226.0240326.0176086.0331573.0299606l3.1779022 1.8468018c-.0091324-.0123596-.0202179-.0224457-.0331573-.0299683-.9533692-.554039-2.2245331-1.2927551-3.1779022-1.8467941z" fill="#c1c4c9"/></g></g></g></g><g><g><g><g><path d="m90.4107208 62.6659622 3.1779022 1.8467941c.0446701.0259552.1041946.0174637.1636353-.0168533.081131-.0468445.162117-.1417923.2050323-.2629623l-3.1779022-1.8467903c-.0429077.1211624-.1239014.2161179-.2050323.2629585-.0594406.034317-.1189652.0428123-.1636353.0168533z" fill="#c1c4c9"/></g></g></g></g><g><g><g><g><path d="m92.3531265 66.6596146-3.1779022-1.8467865c-.0174179-.0101242-.0378952-.0158081-.0614548-.0161743l3.1779022 1.8467941c.023552.0003662.0440369.0060501.0614548.0161667z" fill="#1f3241"/></g></g></g></g><g><g><g><g><path d="m90.4107208 62.6659622 3.1779022 1.8467941c-.0162964-.0094681-.0306168-.0235214-.0422287-.0425797l-3.1779022-1.8467979c.011612.0190583.0259323.0331116.0422287.0425835z" fill="#1f3241"/></g></g></g></g><g><g><g><g><path d="m94.6764145 62.222805-3.1779022-1.8467941-.7191239 2.0101395 3.1779022 1.8467903z" fill="#c1c4c9"/></g></g></g></g><g><g><g><g><path d="m89.4650116 63.8193054c1.0593185.6156006 2.1185837 1.2311935 3.1779022 1.8467941 0 0 .0000076-.0000076.0000153-.0000153-1.0593109-.6156006-2.118576-1.2311935-3.1778946-1.8467903-.0000076.0000001-.0000229.0000077-.0000229.0000115z" fill="#c1c4c9"/></g></g></g></g><g><g><g><g><path d="m89.4650116 63.8193054c-.0234756.0135536-.0477142.0233803-.0721207.0285149.6423264.3732796 1.9980392 1.1610909 3.1779022 1.8467979.0244064-.0051422.0486374-.0149689.072113-.0285187-1.0593108-.6156005-2.118576-1.2311935-3.1778945-1.8467941z" fill="#c1c4c9"/></g></g></g></g><g><g><g><g><path d="m89.6837387 63.3425331c.0514221.1500587-.0684357.3899918-.2187042.476757 1.0593185.6156006 2.1185837 1.2311935 3.1779022 1.8467941.1502686-.0867691.2701263-.3266983.2187042-.4767532-.9533767-.5540389-2.2245331-1.2927589-3.1779022-1.8467979z" fill="#c1c4c9"/></g></g></g></g><g><g><g><g><path d="m92.294838 66.8389206-3.1778946-1.8467941-1.3847046 1.6323242 3.1779022 1.8467941z" fill="#c1c4c9"/></g></g></g></g><g><g><g><g><path d="m94.6764145 62.222805-3.1779022-1.8467941c-.2921295.0587196-.6037292.179882-.9295578.3679962l3.1779022 1.8467941c.3258285-.1881141.6374206-.3092765.9295578-.3679962z" fill="#1f3241"/></g></g></g></g><g><g><g><g><path d="m90.7622528 67.6258545-3.1779022-1.8467941c.0113907.3172379.0619888.6012955.1478882.8453903l3.1779022 1.8467941c-.0858994-.2440948-.1365051-.5281525-.1478882-.8453903z" fill="#1f3241"/></g></g></g></g><g><g><g><g><path d="m96.2080688 61.818409-3.1778946-1.8467941c-.6291428-.365612-1.5000916-.3141632-2.4614258.2408638l3.1779022 1.8467941c.9613343-.555027 1.8322831-.6064759 2.4614182-.2408638z" fill="#c1c4c9"/></g></g></g></g><g><g><g><g><path d="m92.2916718 66.6434479-3.1779023-1.8467942-1.3881149-.0314407 3.1778946 1.8467941z" fill="#1f3241"/></g></g></g></g><g><g><g><g><path d="m90.9035492 66.6120071-3.1778946-1.8467865c-.0829239.3430634-.131752.6830139-.141304 1.0138397l3.1779022 1.8467941c.009552-.3308257.0583801-.6707763.1412964-1.0138473z" fill="#1f3241"/></g></g></g></g><g><g><g><g><path d="m92.8182602 63.2956123-3.1779022-1.8467941.7281341 1.1745606 3.1779022 1.8467979z" fill="#1f3241"/></g></g></g></g><g><g><g><g><path d="m92.8182602 63.2956123.7281342 1.1745644c.043457.0712967.124733.0725632.205864.0257263.081131-.0468445.162117-.1417999.2050323-.2629623l.7191238-2.0101357c-.6810455.1368942-1.3512955.5889969-1.8581543 1.0728073z" fill="#181e1e"/></g></g></g></g><g><g><g><g><path d="m92.5707932 65.6946182-3.1779023-1.8467979-1.4906692.3229637 3.1779022 1.8467941z" fill="#c1c4c9"/></g></g></g></g><g><g><g><g><path d="m92.3909454 63.7471504-3.1779022-1.8467941.4706955 1.4421768 3.1779022 1.846798z" fill="#c1c4c9"/></g></g></g></g><g><g><g><g><path d="m92.3909454 63.7471504-3.1779022-1.8467941c-.5656891.6564331-1.0260849 1.4538956-1.3108215 2.2704277l3.1779022 1.8467941c.2847366-.8165359.7451324-1.6139908 1.3108215-2.2704277z" fill="#1f3241"/></g></g></g></g><g><g><g><g><path d="m97.713768 60.080616-3.1779022-1.8467941-.1657334.2568397 3.1779023 1.8467941z" fill="#4f575f"/></g></g></g></g><g><g><g><g><path d="m90.7258301 71.8865356-3.1778946-1.8467941-.139473.2717896 3.1779022 1.8467941z" fill="#3d4449"/></g></g></g></g><g><g><g><g><path d="m97.0992737 59.6989212-3.1778946-1.8467941-.139473.2733001 3.1778946 1.8467942z" fill="#3d4449"/></g></g></g></g><g><g><g><g><path d="m90.1102142 71.5657272-3.1778946-1.8467941-.1657409.2568436 3.1779022 1.8467941z" fill="#3d4449"/></g></g></g></g><g><g><g><g><path d="m96.9598007 59.9722214-3.1778946-1.8467942-.1692733-.0664367 3.1779022 1.8467941z" fill="#2a3134"/></g></g></g></g><g><g><g><g><path d="m89.968338 71.4533539-3.1779022-1.8467941.1418838.1123733 3.1778946 1.8467941z" fill="#2a3134"/></g></g></g></g><g><g><g><g><path d="m96.3843918 59.5062027-3.1778946-1.8467941-.1105881.2837372 3.1779022 1.8467941z" fill="#3d4449"/></g></g></g></g><g><g><g><g><path d="m89.6068115 71.0686798-3.1779022-1.8467941-.1906815.2381134 3.1778946 1.8467941z" fill="#3d4449"/></g></g></g></g><g><g><g><g><path d="m96.2738113 59.7899399-3.1779022-1.8467941-.1914291-.0174942 3.1779022 1.8467941z" fill="#2a3134"/></g></g></g></g><g><g><g><g><path d="m89.494957 70.9133682-3.1779023-1.8467941.1118546.1553116 3.1779022 1.8467941z" fill="#2a3134"/></g></g></g></g><g><g><g><g><path d="m95.5875397 59.5189629-3.1779022-1.8467942-.0752259.2783852 3.1779022 1.8467941z" fill="#3d4449"/></g></g></g></g><g><g><g><g><path d="m95.5123138 59.797348-3.1779022-1.8467941-.2096252.0336723 3.1779022 1.8467942z" fill="#2a3134"/></g></g></g></g><g><g><g><g><path d="m89.2287827 70.4134064-3.1779023-1.8467942-.2052002.2043152 3.1779023 1.8467942z" fill="#3d4449"/></g></g></g></g><g><g><g><g><path d="m89.1522064 70.2166367-3.1779022-1.8467942.0765762.1967697 3.1779023 1.8467942z" fill="#2a3134"/></g></g></g></g><g><g><g><g><path d="m88.1307068 68.1267014 3.1779022 1.8468018c-.5948105-.345665-.9735489-1.0638504-1.0082779-2.0809555l-3.1778946-1.8467941c.0347214 1.017105.4134598 1.7352904 1.0082703 2.0809478z" fill="#c1c4c9"/></g></g></g></g><g><g><g><g><path d="m93.7468567 62.5908012-3.1779022-1.8467941c-.3245239.1873703-.6371078.4265747-.9285965.7048111l3.1779022 1.8467979c.2914886-.2782402.6040649-.5174446.9285965-.7048149z" fill="#1f3241"/></g></g></g></g><g><g><g><g><path d="m96.4886398 61.335495-3.1779022-1.8467903c-.7012558-.4075279-1.6720276-.3503075-2.7432785.268177l3.1779022 1.8467941c1.0712509-.6184845 2.0420151-.6757049 2.7432785-.2681808z" fill="#385165"/></g></g></g></g><g><g><g><g><path d="m87.848381 68.6105194 3.1779022 1.8467941c-.6658554-.3869476-1.0886002-1.1928787-1.1237411-2.3350983l-3.1779022-1.8467941c.0351486 1.1422196.4578934 1.9481507 1.1237411 2.3350983z" fill="#385165"/></g></g></g></g><g><g><g><g><path d="m97.361496 59.8315544c-3.2075806-1.8577347-3.20504-1.877243-3.4401169-1.9794273l3.1778946 1.8467941c.0898895.0390701.1775055.0834007.2622223.1326332z" fill="#1f3241"/></g></g></g></g><g><g><g><g><path d="m94.7348557 59.7235909-3.1779023-1.8467942-.037239.2700157 3.1778945 1.8467942z" fill="#3d4449"/></g></g></g></g><g><g><g><g><path d="m94.6976089 59.9936066-3.1778945-1.8467942-.2186661.0810585 3.1779022 1.8467942z" fill="#2a3134"/></g></g></g></g><g><g><g><g><path d="m88.9879608 69.615654-3.1779022-1.8467941-.2157822.1682586 3.1779022 1.8467942z" fill="#3d4449"/></g></g></g></g><g><g><g><g><path d="m88.9466934 69.3864594-3.1779022-1.8467942.0412674.2291947 3.1779022 1.8467941z" fill="#2a3134"/></g></g></g></g><g><g><g><g><path d="m93.8532867 60.3741417-3.1779022-1.8467941-.2224426.1284256 3.1779022 1.8467941z" fill="#2a3134"/></g></g></g></g><g><g><g><g><path d="m93.7466507 62.0592728-3.1779022-1.8467941c-1.8712311 1.0803566-3.3895493 3.6648636-3.446312 5.8332748l3.1778946 1.8467941c.0567703-2.1684112 1.5750885-4.7529182 3.4463196-5.8332748z" fill="#c1c4c9"/></g></g></g></g><g><g><g><g><path d="m88.9824905 67.6865005-3.1779022-1.8467941-.0398331.2775269 3.1779023 1.8467941z" fill="#2a3134"/></g></g></g></g><g><g><g><g><path d="m93.7453613 61.6036758-3.1779022-1.8467941c-2.0897522 1.2065201-3.7854691 4.098278-3.8428192 6.5185394l3.1779022 1.8467941c.0573502-2.4202651 1.753067-5.3120193 3.8428192-6.5185394z" fill="#385165"/></g></g></g></g><g><g><g><g><path d="m93.0068283 60.9245949-3.1779022-1.8467941-.2197037.1720352 3.1778946 1.8467941z" fill="#2a3134"/></g></g></g></g><g><g><g><g><path d="m89.2180099 66.615242-3.1779022-1.8467941-.0752105.2843857 3.1779022 1.8467941z" fill="#2a3134"/></g></g></g></g><g><g><g><g><path d="m89.591095 65.5248032-3.1779023-1.8467942-.1106109.2837448 3.1779022 1.8467942z" fill="#2a3134"/></g></g></g></g><g><g><g><g><path d="m90.0900421 64.4490433-3.1779022-1.8467903-.1407776.2755622 3.1779022 1.8467942z" fill="#2a3134"/></g></g></g></g><g><g><g><g><path d="m88.7279205 68.0443268.2147369-.0802994.0398331-.2775269-.2160263.0810395c.0411682-.2767868.0993423-.5558624.1719437-.8372498l.2043915-.0306625.0752106-.2843857-.2056885.031395c.0778275-.2844009.172699-.5696106.2780609-.8533401l.1901016.0152512.110611-.2837448-.1914139-.0175095c.1158295-.2867584.2421722-.5690536.3816299-.8468704l.1679535.0641861.1407776-.2755661-.1666489-.0649338c.146019-.2755814.303833-.5489311.4695435-.813282l.1405563.1116257.1683426-.2613525-.140564-.1116333c.1709747-.259861.3524551-.5092239.5431137-.7548485l.1118546.1553116.1906738-.238102-.1092148-.1538239c.192009-.2343521.3918991-.459713.6010284-.6693077l.0765533.1907539.2078171-.2073364-.0752563-.1915016c.2078247-.2043304.4209366-.3936386.640625-.570179l.0386505.2261963.2197113-.1720352-.0386505-.2261887c.2184219-.1652641.4381943-.3117332.6619568-.4469414l.0007095.2511024.2224426-.1284256-.0007172-.2511024c.22509-.1239319.4449921-.2313118.6623306-.3176346l-.0359497.2692604.2186584-.0810585.0372467-.2700157c.221283-.0780525.4347763-.1350479.6430588-.1709595l-.0752258.278389.2096252-.0336723.0752258-.2783852c.208313-.0314178.4088287-.0372314.6028519-.025753l-.1080093.2792358.1914291.0174942.1105804-.2837372c.191452.025013.3737411.0643578.5456161.1262779l-.139473.273304.1692657.0664368.139473-.2733002c.1666718.0724487.3255234.1629715.4726181.2693214l-.167038.2575951.1431808.111618.1657333-.2568398c.1405792.1161346.2680893.2518654.3864899.4033928l-.1906815.2381134.1118551.1553079.1880569-.2335815c.1079407.1605797.2041168.3354874.2819977.5299911l-.2038727.2050629.0765762.1967583.2038727-.2050552c.0739594.1967697.1322327.4086151.1761322.6362915l-.2157898.1682625.0399857.2314491.2157822-.1682587c.0756378.5188217.0699692.9617043.0042801 1.5096436l-.2160339.0810509-.0385437.2752724.2160339-.0810547c-.0424652.2775497-.09935.5558777-.1719437.838768l-.2043762.0306396-.0752106.2844009.2043686-.0321426c-.0765228.2851486-.1713943.5703583-.2780762.8533478l-.1887665-.0160217-.110611.2837448.1914063.0175171c-.117157.287529-.2434845.569809-.3829422.8476257l-.1666489-.0649338-.1420822.2763062.1679535.0641937c-.1460037.2770691-.3038254.5489197-.4695435.8132782l-.140564-.1101227-.168335.2613602.1405563.1101151c-.1709595.2598572-.3524246.5107269-.5431061.7563629l-.1118317-.1553268-.1907043.238121.10923.1538086c-.1933212.2336121-.3932114.4604645-.6010208.6693039l-.0765533-.1907501-.209137.2065887.076561.1922607c-.2078094.2043076-.4209213.393631-.6419296.5694199l-.0386504-.2261965-.2184067.1727905.0373611.2269363c-.2171173.1630096-.4369125.3109894-.6619644.4454422l-.0007095-.2496033-.2224426.1284256.0007095.2496033c-.2237854.1246872-.4436722.2305527-.6623154.3191299l.0372391-.2700043-.2199631.080307-.0372467.2700119c-.2199631.078804-.4334564.135788-.6430664.1724701l.0752335-.2798996-.2083054.0344238-.0752258.2783813c-.2096329.0321732-.4101486.0364914-.6028519.0257492l.1079865-.2792206-.1913986-.0175095-.110611.2837524c-.1914291-.025032-.3737259-.0658722-.5456085-.1277924l.1394653-.2717896-.1692657-.0664368-.139473.2717972c-.1666565-.072464-.3255081-.1614838-.4726105-.2693253l.1657333-.2568436-.1418762-.1123734-.1670379.2575918c-.1405792-.1161346-.2681046-.2518539-.3851776-.4041519l.1906891-.2381134-.1118546-.1553116-.1893921.2343597c-.1066208-.1598434-.2027969-.3347473-.2819824-.5300064l.2052002-.2043152-.0765762-.1967697-.2038956.2050781c-.073967-.1982727-.1335297-.4093704-.1761322-.6378021l.2157822-.1682587-.0412674-.2291946-.2144928.167511c-.0785446-.5167465-.0688171-.9910431-.0042801-1.5096435zm1.1772309.0763855c.0695648 2.3469849 1.7760925 3.2744598 3.86586 2.0679321s3.7854691-4.0982819 3.84021-6.5170403c-.0708618-2.346241-1.7774048-3.2736969-3.86586-2.0679283-2.0897523 1.2065201-3.7854691 4.0982743-3.84021 6.5170365" fill="#181e1e"/></g></g></g></g><g><g><g><g><path d="m92.3909454 63.7471504c-.5656891.6564369-1.0260849 1.4538918-1.3108215 2.2704277l1.4906616-.3229675c.1805038-.0379791.3503799-.3315811.2908478-.5052795z" fill="#181e1e"/></g></g></g></g><g><g><g><g><path d="m97.2160416 63.899765c-.0567551 2.1669006-1.5764008 4.7536774-3.4463196 5.8332748s-3.3979263.252388-3.4693909-1.8404922c.0567703-2.1684113 1.5750885-4.7529182 3.4463196-5.8332748 1.8699341-1.079609 3.3979187-.2538834 3.4693909 1.8404922zm-2.1072312-1.721775-.4649277 1.982357c-.0556641.239975.112381.3387527.2927704.168335l1.4902344-1.3980598c-.2884292-.4856111-.7518539-.7497026-1.3180771-.7526322m-4.0286865 3.8395881 1.4906693-.3229599c.1804657-.0379791.3503876-.3315582.2908478-.5052872l-.4706955-1.4421806c-.5656892.6564369-1.026085 1.4538994-1.3108216 2.2704277m1.3274536 3.5952301.4649124-1.9823456c.0543823-.2393265-.1138077-.3379211-.2927551-.166832l-1.4915466 1.3988113c.2884216.4841081.751831.7482148 1.3193893.7503663m4.0286713-3.8380661-1.4919662.3237152c-.1805191.0365219-.3490906.3292999-.2908478.5037766l.4720078 1.4414215c.5656661-.6564255 1.0260848-1.4539032 1.3108062-2.2689133m-2.6680298 3.4275208c.3258209-.188118.6371078-.4265747.9285889-.7063141l-.7268372-1.1753082c-.0434494-.0713043-.1250381-.0723953-.2065048-.0253601-.081459.0470276-.1627731.1421738-.2056808.2633362l-.7178116 2.0093842c.2921142-.0572129.6037292-.178383.9282455-.365738m-.0213623-6.6114578c-.3245239.1873665-.6371078.4265709-.9285965.7048073l.7281342 1.1745567c.043457.0713043.124733.0725708.205864.0257339.081131-.0468445.162117-.1417923.2050323-.2629623l.7191238-2.0101357c-.2921372.0587235-.6037293.1798859-.9295578.3680001m-2.8367157 5.8804397c1.3298416-1.5825882 1.4119415-1.6200104 1.4747314-1.7822037-.0210648-.0285034-.0525589-.04496-.0932007-.0455933l-1.3881149-.0314331c-.1534729.6349564-.2101288 1.2434235.0065842 1.8592301m5.8439789-4.3047943c-.0113754-.3187485-.0619888-.6012802-.1478806-.8468857-1.4271469 1.6983795-1.4188843 1.6351318-1.4747162 1.783699.0210342.0270081.051239.0442123.0931702.0441055l1.3868256.0321808c.0842132-.342308.1330642-.6837768.142601-1.0130996" fill="#dbe6fa"/></g></g></g></g><g><g><g><g><path d="m97.6125412 63.670845c-.0560608 2.4195175-1.7517624 5.3112717-3.8415298 6.5177994s-3.7962952.2790527-3.8684692-2.0664291c.0573502-2.4202652 1.753067-5.3120193 3.8428192-6.5185394 2.0884551-1.2057686 3.7949981-.2783127 3.8671798 2.0671691zm-7.3108978 4.2209473c.0701523 2.0936356 1.5981598 2.920845 3.4680786 1.8412476s3.3895645-3.6663742 3.4437103-5.831768c-.0688629-2.0958824-1.5968475-2.921608-3.4667816-1.8419991-1.8712311 1.0803566-3.3895493 3.6648636-3.4450073 5.8325195" fill="#4f575f"/></g></g></g></g><g><g><g><g><path d="m93.9699707 67.3206406.7268448 1.1753159c-.4995193.4793777-1.1747742.9384689-1.856842 1.0720367l.7178116-2.0093765c.0772094-.2180176.3176421-.3930894.4121856-.2379761z" fill="#181e1e"/></g></g></g></g><g><g><g><g><path d="m86.9738922 70.1112671 3.1779022 1.8467941c-.0712814-.04142-.1405106-.0865173-.2073135-.1354904l-3.1779022-1.8467941c.066803.0489731.1360321.0940704.2073135.1354904z" fill="#1f3241"/></g></g></g></g><g><g><g><g><path d="m96.9300079 59.6324806-3.1779022-1.8467941c-.1718674-.0619202-.3541641-.101265-.5456085-.1262779l3.1779022 1.8467979c.1914444.0250092.3737335.064354.5456085.1262741z" fill="#4f575f"/></g></g></g></g><g><g><g><g><path d="m89.4161224 71.3067932-3.1778946-1.8467941c.1170654.152298.2445908.2880173.38517.4041519l3.1779022 1.8467941c-.1405792-.1161346-.2681045-.2518539-.3851776-.4041519z" fill="#4f575f"/></g></g></g></g><g><g><g><g><path d="m96.1903915 59.4932098-3.1779022-1.8467903c-.1940231-.0114822-.3945389-.0056686-.6028519.0257492l3.1779022 1.8467941c.2083131-.0314178.4088288-.0372314.6028519-.025753z" fill="#4f575f"/></g></g></g></g><g><g><g><g><path d="m89.0235825 70.6177216-3.1779022-1.8467941c.0791855.1952591.1753616.370163.2819824.5300064l3.1779022 1.8467941c-.1066208-.1598435-.202797-.3347473-.2819824-.5300064z" fill="#4f575f"/></g></g></g></g><g><g><g><g><path d="m90.9035492 66.6120071c-.1534653.6349716-.2101212 1.2434235.0065918 1.8592377 1.3544083-1.611824 1.4125977-1.6270065 1.4760208-1.7829514-.0223541-.0277557-.0538483-.0442123-.0944901-.0448456z" fill="#181e1e"/></g></g></g></g><g><g><g><g><path d="m95.3779144 59.5526314-3.1778946-1.8467903c-.2082901.0359077-.4217758.0929031-.6430664.1709557l3.1779022 1.8467979c.221283-.0780564.4347764-.1350518.6430588-.1709633z" fill="#4f575f"/></g></g></g></g><g><g><g><g><path d="m88.7721786 69.7839127-3.1779022-1.8467941c.0426025.2284317.1021652.4395294.1761322.6378021l3.1779022 1.8467941c-.0739669-.1982727-.1335296-.4093704-.1761322-.6378021z" fill="#4f575f"/></g></g></g></g><g><g><g><g><path d="m93.8525696 60.1230392-3.1779022-1.8467941.0007171.2511025 3.1779022 1.8467941z" fill="#3d4449"/></g></g></g></g><g><g><g><g><path d="m94.5149002 59.8054047-3.1779022-1.8467903c-.2173386.086319-.4372406.1936989-.6623306.3176308l3.1779022 1.8467941c.22509-.1239319.444992-.2313119.6623306-.3176346z" fill="#4f575f"/></g></g></g></g><g><g><g><g><path d="m88.9426575 67.9640274-3.1779023-1.8467941-.2147369.0802994 3.1779022 1.8467941z" fill="#3d4449"/></g></g></g></g><g><g><g><path d="m85.5500031 66.1975403 3.1779251 1.8467941c-.0643082.516655-.0745392.9909058.0042496 1.5096359l-3.1778717-1.8467865c-.0785371-.5166778-.0688019-.9910583-.004303-1.5096435z" fill="#4f575f"/></g></g></g><g><g><g><g><path d="m92.9681778 60.6984062-3.1779022-1.8467941.0386505.2261887 3.1779022 1.8467941z" fill="#3d4449"/></g></g></g></g><g><g><g><g><path d="m93.6301346 60.2514648-3.1779022-1.8467941c-.2237549.1352081-.4435349.2816772-.6619568.4469414l3.1779022 1.8467941c.2184219-.1652641.4381943-.3117332.6619568-.4469414z" fill="#4f575f"/></g></g></g></g><g><g><g><g><path d="m92.1830978 61.6321144-3.1778946-1.8467941-.207817.2073364 3.1778946 1.8467941z" fill="#2a3134"/></g></g></g></g><g><g><g><g><path d="m89.1427994 66.8996277-3.1779022-1.8467941-.2043839.0306625 3.1778946 1.8467941z" fill="#3d4449"/></g></g></g></g><g><g><g><g><path d="m88.9384079 66.9302902-3.1778946-1.8467941c-.0726089.2813873-.1307831.560463-.1719513.8372498l3.1779022 1.8468018c.0411682-.2767945.0993424-.5558701.1719437-.8372575z" fill="#4f575f"/></g></g></g></g><g><g><g><g><path d="m92.1078415 61.4406128-3.1779022-1.8467941.0752639.1915016 3.1778946 1.8467941z" fill="#3d4449"/></g></g></g></g><g><g><g><g><path d="m92.7484665 60.8704338-3.1778946-1.8467941c-.219696.1765404-.4328079.3658485-.6406326.570179l3.1779022 1.8467941c.2078247-.2043305.4209366-.3936386.640625-.570179z" fill="#4f575f"/></g></g></g></g><g><g><g><g><path d="m91.4069138 62.4718285-3.1778946-1.8467942-.1906815.238102 3.1779022 1.8467941z" fill="#2a3134"/></g></g></g></g><g><g><g><g><path d="m90.7018356 63.4211006-3.1779022-1.8467941-.1683426.2613525 3.1779022 1.8467942z" fill="#2a3134"/></g></g></g></g><g><g><g><g><path d="m89.2903824 65.7932968-3.1779022-1.8467941c-.1053619.2837296-.2002335.5689392-.2780533.8533401l3.1779022 1.8467941c.0778198-.2844009.1726913-.5696105.2780533-.8533401z" fill="#4f575f"/></g></g></g></g><g><g><g><g><path d="m89.480484 65.808548-3.1779022-1.8467942-.1901016-.0152511 3.1779022 1.8467941z" fill="#3d4449"/></g></g></g></g><g><g><g><g><path d="m91.297699 62.3180046-3.1779022-1.8467941.1092224.1538238 3.1778946 1.8467942z" fill="#3d4449"/></g></g></g></g><g><g><g><g><path d="m91.8987274 61.6486969-3.1778946-1.8467903c-.2091293.2095909-.4090271.4349518-.6010361.6693039l3.1779022 1.8467979c.192009-.2343559.3918992-.4597168.6010285-.6693115z" fill="#4f575f"/></g></g></g></g><g><g><g><g><path d="m89.781311 64.6604233-3.1779022-1.8467903c-.1394577.2778091-.2658005.5601044-.3816299.8468628l3.1779022 1.8467979c.1158295-.2867584.2421722-.5690536.3816299-.8468704z" fill="#4f575f"/></g></g></g></g><g><g><g><g><path d="m89.9492645 64.7246094-3.1779022-1.8467942-.1679535-.064186 3.1779022 1.8467941z" fill="#3d4449"/></g></g></g></g><g><g><g><g><path d="m91.1043854 62.5546188-3.1779022-1.8467903c-.1906586.2456207-.372139.4949837-.5431061.7548447l3.1779022 1.8467979c.1709671-.2598648.3524475-.5092277.5431061-.7548523z" fill="#4f575f"/></g></g></g></g><g><g><g><g><path d="m90.5612717 63.3094673-3.1778946-1.8467941.1405563.1116333 3.1779022 1.8467941z" fill="#3d4449"/></g></g></g></g><g><g><g><g><path d="m90.3929367 63.5708275-3.1779022-1.8467903c-.1657028.2643471-.3235245.5376968-.4695435.8132744l3.1779022 1.8467979c.146019-.2755814.3038331-.5489311.4695435-.813282z" fill="#4f575f"/></g></g></g></g></g></g></g><g><g enable-background="new"><g><g><path d="m90.8285294 49.9950066 12.1598129 7.0666694-3.8287964 2.2543755-8.3310165-4.8415108z" fill="#ebf2ff"/></g></g><g><g><path d="m99.8987732 63.381794 2.4217834-1.3974686c.3766785-.2182884.6794434-.7427788.6794434-1.1757469l-.0105743-3.7454338-.6124878.3590584-3.2174225 1.893856c.5984878.7744064.8061142 2.2529183.7392578 4.0657349z" fill="#cbdbf4"/></g></g><g><g><path d="m92.4345856 55.516819-22.3285675-12.9759445c-4.977951 2.8749237-8.5192146 9.3772964-8.2374763 14.1019478l22.3285637 12.9759445c-.0090103-.1511154-.1802216-3.0222855 1.6057739-6.7295647 1.4092559-2.9254303 3.8913421-5.7897377 6.6317062-7.3723831z" fill="#f04343"/></g></g><g><g><path d="m66.5691452 37.7348175 22.3279724 12.9786491c5.3610992-2.2774963 10.1590424-4.2135506 11.6691818-3.3405724l-22.3280563-12.9751243c-1.5101395-.876419-6.307991 1.059639-11.6690979 3.3370476z" fill="#ff6161"/></g></g><g><g><path d="m88.8978729 50.7117882-22.3285599-12.9759407-2.0451507 1.1885566 22.3285599 12.9759407z" fill="#ff6161"/></g></g><g><g><path d="m74.3428268 51.7920952-22.3285636-12.9759445.0499992 17.6359329 22.3285599 12.9759407z" fill="#ff6161"/></g></g><g><g><path d="m77.8696136 67.4207077-22.3285636-12.9759445-3.4767876 2.0073242 22.3285599 12.9759445z" fill="#ff6161"/></g></g><g><g><path d="m84.3795471 45.0532608c.5259018-.303627 1.0056763-.2236671 1.2251892.2005692l.400444.7000198-1.1529312.6656418c-.1664581.0961075-.2850876.353344-.230423.5081024l1.6492004 4.6491241c.0925369.2215004.3225937.2732239.5816956.1236267l2.0451508-1.1885567c6.5092697-2.7648087 12.1869507-5.0262756 12.1562119-2.3648071l.021553 7.6028519-.6135025.3542099c-2.0302353-2.6493034-5.1395416-2.454628-8.0288239-.7865028-2.5845108 1.4921684-5.1266251 4.2499886-6.6304321 7.3716583l-.2941132.1210327-7.6391525 4.4104691-3.4767914 2.0073242-.0499954-17.6359291c-.0014801-.5216217.363678-1.1541023.8153763-1.4148903zm-7.8327408 12.3315544c.0007248.2557068.1811142.3610878.4058304.2313499l7.6368866-4.4091606c.2741776-.1582947.466629-.5772362.3826218-.8287926l-1.5438919-4.6132355c-.0545044-.1625404-.2099075-.2021446-.3874435-.0996475l-6.1063919 3.525528c-.2247086.1297379-.403923.4401321-.4031906.6984253z" fill="#e22525"/></g></g><g><g><path d="m92.4345856 55.516819c-2.7566833 1.5920715-5.2285919 4.4596901-6.6317062 7.3723831-1.7859955 3.7072792-1.6147842 6.5784492-1.6057739 6.7295647l1.2810287-.7396011c.6084824-4.3640594 2.4226303-8.1700821 6.2393951-10.3736916 2.2508774-1.2995453 4.0678329-1.3217049 5.5308151-.3019485l3.2166672-1.8941193c-2.028244-2.6576767-5.14608-2.4578667-8.030426-.7925873z" fill="#f04343"/></g></g><g><g><path d="m74.3928223 69.4280319.0171356 6.3034363 3.4767914-2.0073242-.0171357-6.3034363z" fill="#2a3134"/></g></g><g><g><path d="m74.3928223 69.4280319-22.3285599-12.9759445.0171318 4.2840424 22.3285637 12.9759445z" fill="#3d4449"/></g></g><g><g><path d="m84.8544922 46.618206c-.1664429.096096-.2878418.3530617-.2326813.5093956.0358124.1009865 1.6095886 4.5373878 1.6492081 4.649128.0925293.2215004.3225861.2732201.5816956.1236229l1.9148331-1.105526-2.7623749-4.8409653z" fill="#2a3134"/></g></g><g><g><path d="m75.8186417 63.8628349-.015625-11.9716797c-.0009766-.5229492.3144531-1.0698242.7675781-1.3305664l6.1064453-3.5263672c.5673828-.324707 1.25-.0766602 1.4414063.5004883l3.5380859 9.5180664c.1962891.5883789-.1279297 1.3623047-.7060547 1.6967773l-9.6289063 5.9702187c-.7294692.4216004-1.5015716-.0553741-1.5029296-.8569374zm7.40625-16.5815429c-.3238907 0-.1255417.0053368-6.4550781 3.6259766-.3242188.1865234-.5673828.6088867-.5664063.9829102l.015625 11.9716797c.0009766.4897499.4550781.7690468.8974609.5146523l9.6279297-5.9702187c.4160156-.2407227.6679688-.8208008.5351563-1.2202148l-3.5380859-9.5185547c-.0791016-.2373049-.2812501-.3862306-.5166016-.3862306z" fill="#d30707"/></g><g><path d="m76.9344177 51.1908646c-.2247238.1297455-.403923.440136-.4031906.6984291l.0155792 5.4955368c.0007248.2556992.1811066.3610802.4058304.2313385l7.6368866-4.4091606c.2741623-.158287.4666214-.5772362.3826141-.8287811l-1.5438843-4.6132355c-.0545044-.1625519-.2099075-.2021523-.3874435-.0996513z" fill="#2a3134"/></g></g><g><g><path d="m52.0135002 38.8155098 22.3280525 12.9751282c0-.5209694.3661041-1.1510811.8166046-1.4150887l9.2227249-5.3224335c.3624954-.2111549.7040253-.235817.9539337-.0914383l-22.3280524-12.9751262c-.2499123-.1442928-.5913506-.1197147-.9574547.0915241l-9.2191238 5.3224335c-.4505807.2603988-.8166848.8940353-.8166848 1.4150009z" fill="#f04343"/></g></g></g><g enable-background="new"><g><g><path d="m96.9460602 58.0130005c.1029282.0598145.2041779.1245575.3037643.1941528l1.9847565 1.1534157c-.2579422-.1802635-2.3885651-1.4059753-2.2885208-1.3475685z" fill="#f04343"/></g></g><g><g><path d="m100.9197235 56.0883446c-1.7581024-.9806137-2.1448898-1.352623-3.0862045-1.6197357-1.5831451-.4535065-3.4893951-.0486641-5.3994141 1.0540848l1.9847641 1.1534157c2.0458603-1.1811791 4.4566345-1.775734 6.5008545-.5877648z" fill="#f04343"/></g></g><g><g><path d="m94.418869 56.6761093-1.9847641-1.1534157c-1.5475082.8934555-3.0976257 2.2452202-4.4800949 3.9695587-4.0579681 5.0615273-3.7706146 9.8767433-3.7554932 10.1301765l1.9847641 1.1534195c-.0151215-.2534332-.3024826-5.0686569 3.7554855-10.1301765 1.3824769-1.7243423 2.9325944-3.076107 4.4801026-3.9695625z" fill="#f04343"/></g></g><g><g><path d="m94.418869 56.6761093c-1.5475082.8934555-3.0976257 2.2452202-4.4801025 3.9695625-4.0579681 5.0615196-3.770607 9.8767433-3.7554855 10.1301689l1.2810898-.7396317c.6122894-4.3912201 2.4472961-8.1843224 6.2411575-10.3747101 2.2494812-1.2987366 4.0057983-1.3646698 5.466713-.3437195l3.2322922-1.9123573c-.7841187-1.0423965-1.6489868-1.5174332-2.5862503-1.7833939-1.5831453-.4535101-3.4894029-.0486639-5.3994142 1.0540811z" fill="#d30707"/></g></g></g></g><g><g enable-background="new"><g><g><path d="m78.5632095 57.6622009c-.1171799-.0460129-.2082672-.199646-.4368973-.067646l.162056.0941734c.1071244-.0618477.2044678-.0674247.2748413-.0265274z" fill="#3d4449"/></g></g><g><g><path d="m78.2883682 57.6887283-.1620559-.0941734-1.1107789.6413078.162056.0941735z" fill="#3d4449"/></g></g><g><g><path d="m76.7392654 59.149601.162056.0941772c-.2540054-.1476135-.0497742-.725502.276268-.9137421l-.162056-.0941734c-.3303451.1907273-.5242462.7696305-.276268.9137383z" fill="#3d4449"/></g></g><g><g><path d="m77.1775894 58.3300362c-.2153091.1243095-.3884659.4242134-.3877716.6688118.0006943.2445831.1749725.3410835.3902817.2167778l1.1107788-.6413078c.212883-.1229095.3860168-.4199905.3853226-.6645737-.0006943-.2445984-.1749496-.3439217-.3878326-.2210159z" fill="#4f575f"/></g></g></g></g><g><g><g><g><g><g><g><g><g><g><g><path d="m29.7982922 97.5056992.0106068 2.0309982c8.8755074-5.2850418-2.1868668 1.1947021 44.5937576-25.8442917l-1.6754837-.97155c-.8293076.4787903 6.7870636-3.9184952-42.9288807 24.7848435z" fill="#4f575f"/></g></g></g><g><g><g><g><path d="m62.0451546 77.1947021 1.781105-1.0278472.0070496 3.6224594-1.7811928 1.0270691z" fill="#2a3134"/></g><g><path d="m74.4029999 73.6926727.006958 2.0416794-42.9290466 24.7845688-.0070477-2.0416718c57.0622234-32.9438324 39.2879696-22.6822586 42.9291363-24.7845764z" fill="#2a3134"/></g></g><g><path d="m29.7987728 97.5045319.0101261 2.0321655 1.6694222.985199v-2.0427933z" fill="#3d4449"/></g></g></g><g><g enable-background="new"><g><g><g><path d="m62.0456276 77.1941833-1.6763763-.974205.0053405 3.631691 1.6763802.974205z" fill="#181e1e"/></g></g></g></g></g></g><g><g><g><g><path d="m7.0021806 82.2072296.0092902 3.3214493 21.2136803 12.3279037-.0090371-3.3318328z" fill="#3d4449"/></g></g></g><g><g><g><path d="m28.2119122 94.5291672.0132389 3.3383026 44.018692-25.4142075-.013237-3.3383026z" fill="#2a3134"/></g></g></g><g><g><g><path d="m72.2306061 69.1149597-21.2119103-12.3270149-44.0186958 25.4142036 21.2119122 12.3270188z" fill="#4f575f"/></g></g></g></g></g><g><g><path d="m52.3578606 83.6304321c.1682549.0977707.2830963.2888489.3146515.5603333l.9051056 7.6948624-3.7488785-2.1786041-.9050827-7.6948624c-.031601-.2714844-.1464195-.4625626-.3146515-.5603333z" fill="#4f575f"/></g></g><g><g><g enable-background="new"><g><g><g><g><path d="m51.1093102 94.5831604-3.1779023-1.8467941.1405602.1101227 3.1779022 1.8467941z" fill="#1f3241"/></g></g></g></g><g><g><g><g><path d="m51.7194138 93.8800049-3.1779023-1.8467941-.1679496-.0641938 3.1779022 1.8467942z" fill="#1f3241"/></g></g></g></g><g><g><g><g><path d="m50.4265862 95.5556717-3.1778985-1.8467941.1118317.1553268 3.1778984 1.8467941z" fill="#3d4449"/></g></g></g></g><g><g><g><g><path d="m52.2431374 92.756813-3.1779023-1.8467941-.1914062-.0175171 3.1778984 1.8467942z" fill="#1f3241"/></g></g></g></g><g><g><g><g><path d="m49.6675415 96.4261551-3.1779022-1.8467941.0765571.1907501 3.1778984 1.8467941z" fill="#3d4449"/></g></g></g></g><g><g><g><g><path d="m52.6291809 91.6182251-3.1779022-1.8467941-.2043648.0321426 3.1778984 1.8467941z" fill="#4f575f"/></g></g></g></g><g><g><g><g><path d="m48.8543854 97.1682281-3.1779022-1.8467941.0386505.2261963 3.1779022 1.8467941z" fill="#3d4449"/></g></g></g></g><g><g><g><g><path d="m52.8763428 90.4965591-3.1779022-1.8467941-.2160302.0810547 3.1779023 1.8467941z" fill="#4f575f"/></g></g></g></g><g><g><g><g><path d="m48.0106659 97.7637939-3.1779022-1.8467941.0007095.2496033 3.1779022 1.8467941z" fill="#3d4449"/></g></g></g></g><g><g><g><g><path d="m52.9106064 88.711647-3.1779022-1.8467941-.2157822.1682587 3.1778984 1.8467941z" fill="#4f575f"/></g></g></g></g><g><g><g><g><path d="m47.1638603 98.1909485-3.1779022-1.8467941-.0372429.2700042 3.1779022 1.8467942z" fill="#3d4449"/></g></g></g></g><g><g><g><g><path d="m44.7195473 94.8151474c1.0593491.6156235 2.1187019 1.231102 3.1780624 1.8467026 2.0896912-1.2065811 3.7853088-4.0982513 3.8400497-6.5169449l-3.1779022-1.8467941c-.0547409 2.4187545-1.7504425 5.3105087-3.8402099 6.5170364z" fill="#1f3241"/></g></g></g></g><g><g><g><g><path d="m47.8962975 96.2062607c1.8698578-1.0796509 3.3894234-3.6663513 3.4435654-5.8316879l-3.1778984-1.8467941c-.0541458 2.16539-1.5737877 4.7521667-3.4437103 5.8317642.1402892.08152 3.0774344 1.7882537 3.1780433 1.8467178z" fill="#385165"/></g></g></g></g><g><g><g><g><path d="m47.3847809 90.4012451c-.2847214.8150101-.7451401 1.6124878-1.3108063 2.2689133l3.1779022 1.8467941c.5656662-.6564255 1.0260849-1.4539032 1.3108063-2.2689133-.9533691-.554039-2.2245293-1.2927551-3.1779022-1.8467941z" fill="#c1c4c9"/></g></g></g></g><g><g><g><g><path d="m52.6945 87.8439026-3.1779023-1.8467941-.2038764.2050552 3.1778984 1.8467941z" fill="#4f575f"/></g></g></g></g><g><g><g><g><path d="m50.8805542 90.6397476-3.1778984-1.8467941c-.0095406.3293228-.0583878.6707916-.1426048 1.0130997l3.1778984 1.8468018c.0842209-.3423158.1330681-.6837846.1426048-1.0131074z" fill="#c1c4c9"/></g></g></g></g><g><g><g><g><path d="m46.3388176 98.4338379-3.1779022-1.8467941-.0752373.2798996 3.1779022 1.8467941z" fill="#3d4449"/></g></g></g></g><g><g><g><g><path d="m48.823246 94.9692459-3.1779022-1.8467865c-.2914848.2797318-.6027679.5181885-.9285927.7063065l3.1778984 1.8467941c.3258286-.188118.6371079-.4265747.9285965-.7063141z" fill="#c1c4c9"/></g></g></g></g><g><g><g><g><path d="m47.4365845 85.9618607c.6659431.3869705 1.0886536 1.1932526 1.1231728 2.3362503l3.1779022 1.8467941c-.034523-1.1429977-.4572334-1.9492798-1.1231728-2.3362503-.9533691-.5540314-2.2245293-1.2927475-3.1779022-1.8467941z" fill="#1f3241"/></g></g></g></g><g><g><g><g><path d="m47.155529 86.4446945c.5947113.3455963.9729614 1.0642776 1.0064354 2.0830841l3.1779022 1.8467941c-.033474-1.0188065-.4117241-1.7374878-1.0064392-2.0830841-.9533691-.5540313-2.2245292-1.2927551-3.1778984-1.8467941z" fill="#385165"/></g></g></g></g><g><g><g><g><path d="m47.5568848 87.9521255c.0846062.2441864.1344872.5246964.145771.8408279l3.1779022 1.8468018c-.0112839-.3161392-.0611687-.5966492-.145771-.8408356-1.0593186-.6156005-2.1185837-1.2311935-3.1779022-1.8467941z" fill="#c1c4c9"/></g></g></g></g><g><g><g><g><path d="m50.5626793 92.2480392-3.1778984-1.8467941-1.4919624.3237076 3.1778984 1.8467941z" fill="#1f3241"/></g></g></g></g><g><g><g><g><path d="m50.7379494 91.6528473-3.1778984-1.8467941-1.3868218-.0321808 3.1779022 1.8467941z" fill="#c1c4c9"/></g></g></g></g><g><g><g><g><path d="m50.7326775 89.7928543-3.1779023-1.8467941-1.3860283 1.6330948 3.1778985 1.8467941z" fill="#1f3241"/></g></g></g></g><g><g><g><g><path d="m47.5568848 87.9521255c.6132545.3563843 2.3817177 1.3807678 3.1757927 1.8407364l-3.1778984-1.8467941c.0007019.0020142.0014038.004036.0021057.0060577z" fill="#c1c4c9"/></g></g></g></g><g><g><g><g><path d="m52.3359261 87.1171417-3.1779023-1.8467941-.1880607.2335892 3.1779022 1.8467941z" fill="#4f575f"/></g></g></g></g><g><g><g><g><path d="m48.7798653 93.075531-3.1778984-1.8467941.4720077 1.4414139 3.1778984 1.8467941z" fill="#1f3241"/></g></g></g></g><g><g><g><g><path d="m49.0707169 92.5717468-3.1778984-1.8467941c-.0248756.0050354-.0495033.0149231-.0733604.0286942l3.1779022 1.8467941c.0238532-.0137711.0484847-.0236588.0733566-.0286942z" fill="#1f3241"/></g></g></g></g><g><g><g><g><path d="m45.560421 98.4931717-3.1779022-1.8467941-.1079865.2792205 3.1778984 1.8467942z" fill="#3d4449"/></g></g></g></g><g><g><g><g><path d="m44.7195473 94.8151474c-1.0717201.6187592-2.0426445.6762619-2.7436714.2688751l3.1779022 1.8468018c.7010269.4073792 1.6719513.3498764 2.7436676-.2688828-1.0593147-.6156006-2.1185799-1.2311935-3.1778984-1.8467941z" fill="#1f3241"/></g></g></g></g><g><g><g><g><path d="m44.7182541 94.3595428c-.9609528.5548096-1.8316078.606041-2.4605141.2406006l3.1779022 1.8467941c.6289024.3654404 1.4995613.314209 2.4605141-.2406006-.3457374-.2009124-2.9086609-1.6903228-3.1779022-1.8467941z" fill="#385165"/></g></g></g></g><g><g><g><g><path d="m47.8946495 95.67556-3.1778984-1.8467941c-.3245125.187355-.6361275.3085251-.9282455.3657379l3.1779022 1.8467941c.2921142-.0572128.603733-.1783829.9282417-.3657379z" fill="#c1c4c9"/></g></g></g></g><g><g><g><g><path d="m48.7798653 93.075531.4720078 1.4414139c.5656662-.6564178 1.0260849-1.4538879 1.3108063-2.2689056l-1.4919624.3237076c-.18071.0365905-.3490373.3294753-.2908517.5037841z" fill="#181e1e"/></g></g></g></g><g><g><g><g><path d="m48.9973602 92.600441-3.1779022-1.8467941c-.1494217.0862579-.2676582.3248062-.2174911.47509l3.1778984 1.8467941c-.0501671-.1502838.0680732-.3888321.2174949-.47509z" fill="#1f3241"/></g></g></g></g><g><g><g><g><path d="m48.0964088 93.7939377-3.1779022-1.8467941.7268372 1.1753082 3.1779022 1.8467941z" fill="#c1c4c9"/></g></g></g></g><g><g><g><g><path d="m48.054306 93.7514954-3.1779022-1.8467941c.0162582.0094452.0305328.0234528.0421028.0424423l3.1779022 1.8467941c-.0115737-.0189896-.0258483-.0329971-.0421028-.0424423z" fill="#c1c4c9"/></g></g></g></g><g><g><g><g><path d="m46.1127319 89.7587204 3.1779022 1.8467941c.0167007.0097046.0367126.015213.0604973.015152l-3.1779022-1.8467941c-.0237846.000061-.0437965-.0054474-.0604973-.015152z" fill="#c1c4c9"/></g></g></g></g><g><g><g><g><path d="m46.1112862 89.7581635 3.1779022 1.8468018c-.0124207-.007225-.0231743-.0166397-.032547-.0276489l-3.1778984-1.8467941c.0093689.0110091.0201225.0204237.0325432.0276412z" fill="#1f3241"/></g></g></g></g><g><g><g><g><path d="m50.7326775 89.7928543c-1.3844032 1.6475143-1.4127731 1.6244354-1.4760361 1.784462.0223503.0262527.0525513.043457.0944862.0433502l1.3868217.0321808c.1571084-.6385803.2100831-1.244133-.0052718-1.859993z" fill="#181e1e"/></g></g></g></g><g><g><g><g><path d="m49.3466454 91.4259491-3.1778984-1.8467941c-.0391922.04673-.0691795.0986786-.090004.1513672l3.1779022 1.8467941c.0208244-.0526886.0508118-.1046372.0900002-.1513672z" fill="#1f3241"/></g></g></g></g><g><g><g><g><path d="m48.0543022 93.7514954-3.1778984-1.8467941c-.044796-.0260315-.1046295-.0174332-.1644058.0170746l3.1779022 1.8467941c.0597725-.0345078.1196098-.0431061.164402-.0170746z" fill="#1f3241"/></g></g></g></g><g><g><g><g><path d="m47.6842155 94.0319138-3.1779022-1.8467942-.7178077 2.0093766 3.1778984 1.8467941z" fill="#1f3241"/></g></g></g></g><g><g><g><g><path d="m47.8899002 93.7685699-3.1779022-1.8467941c-.0814629.0470352-.1627731.1421814-.2056847.2633438l3.1779022 1.8467941c.0429078-.1211624.1242218-.2163085.2056847-.2633438z" fill="#1f3241"/></g></g></g></g><g><g><g><g><path d="m50.5533218 89.403923-3.1778984-1.8467941-1.4902343 1.398056 3.1779022 1.8467942z" fill="#c1c4c9"/></g></g></g></g><g><g><g><g><path d="m49.2352448 88.6512833-3.1779023-1.8467942-.4649315 1.9823609 3.1779023 1.8467941z" fill="#1f3241"/></g></g></g></g><g><g><g><g><path d="m45.8851891 88.9551849c-.0243912.0230408-.0485306.0411377-.0719337.0546494 1.0593224.6156006 2.1185837 1.2312012 3.1779022 1.8468018.0234032-.0135193.0475426-.0316162.0719337-.054657-1.0593491-.6155472-2.118618-1.2311173-3.1779022-1.8467942z" fill="#c1c4c9"/></g></g></g></g><g><g><g><g><path d="m45.8132553 89.0098343-.0000191.0000153c1.0593224.6156006 2.1185837 1.2311935 3.1779022 1.8467941l.0000191-.0000153c-1.0593185-.6155929-2.1185798-1.2311935-3.1779022-1.8467941z" fill="#c1c4c9"/></g></g></g></g><g><g><g><g><path d="m46.9989204 94.1037598-3.1778984-1.8467942-.4649124 1.9823456 3.1778984 1.8467941z" fill="#c1c4c9"/></g></g></g></g><g><g><g><g><path d="m50.0080643 88.8521347-3.1778984-1.8467941c.2184868.1269684.4031181.3124771.5452576.5517883l3.1779022 1.8467941c-.1421395-.2393112-.3267708-.4248199-.5452614-.5517883z" fill="#c1c4c9"/></g></g></g></g><g><g><g><g><path d="m45.8132362 89.0098495c-.0632362.0365067-.1210212.0394364-.1630592.0150071l3.1779022 1.8467941c.042038.0244293.099823.0214996.1630592-.015007-1.0593185-.6156006-2.1185798-1.2311936-3.1779022-1.8467942z" fill="#c1c4c9"/></g></g></g></g><g><g><g><g><path d="m43.7625198 92.0198593c.057373.0333328.0856285.1177368.0585022.2371063l3.1779022 1.8468018c.0271263-.1193771-.0011292-.2037811-.0585022-.237114-.9533691-.554039-2.2245292-1.2927551-3.1779022-1.8467941z" fill="#c1c4c9"/></g></g></g></g><g><g><g><g><path d="m42.5805779 94.0384445 3.1779022 1.8467941c.2253876.1309814.4869995.1997757.775528.2008667l-3.1778984-1.8467941c-.2885285-.001091-.5501443-.0698852-.7755318-.2008667z" fill="#c1c4c9"/></g></g></g></g><g><g><g><g><path d="m45.6501694 89.0248489 3.1779022 1.8468018c-.0575294-.0334396-.0855713-.1180954-.0577583-.2380066l-3.1779023-1.8467941c-.0278129.1199112.0002289.2045669.0577584.2379989z" fill="#1f3241"/></g></g></g></g><g><g><g><g><path d="m46.9404259 93.8666534-3.1778984-1.8467941c-.0417824-.0242767-.098999-.0214767-.1615143.0146103l3.1779022 1.8467941c.0625153-.036087.1197319-.038887.1615105-.0146103z" fill="#1f3241"/></g></g></g></g><g><g><g><g><path d="m46.7789154 93.8812637-3.1779022-1.8467941c-.023674.0136642-.0481033.0321045-.0727463.0556564l3.1779022 1.8467941c.024643-.0235519.0490685-.0419921.0727463-.0556564z" fill="#1f3241"/></g></g></g></g><g><g><g><g><path d="m50.0080605 88.8521271-3.1778946-1.8467941c-.224884-.1306839-.48563-.1993561-.7728233-.2008438l3.177906 1.8467941c.2871856.0014877.5479316.0701599.7728119.2008438z" fill="#1f3241"/></g></g></g></g><g><g><g><g><path d="m49.2352448 88.6512833-.4649315 1.9823608c-.0556641.2399826.1123848.3387527.2927742.168335l1.4902306-1.3980637c-.2884293-.485611-.751854-.7497024-1.3180733-.7526321z" fill="#181e1e"/></g></g></g></g><g><g><g><g><path d="m43.3334045 91.3155441c-.0195236.0504303-.0495262.1023941-.0900307.1498795l3.1779022 1.8467941c-4.0778656-2.3715744-4.3591118-2.5341187.0005226-.0006104.0402336-.0473175.0700684-.0990524.0895042-.1492691-.953369-.5540313-2.2245291-1.2927551-3.1778983-1.8467941z" fill="#c1c4c9"/></g></g></g></g><g><g><g><g><path d="m46.7061691 93.9369202-3.1779022-1.8467942-1.4915466 1.398819 3.1779022 1.8467941z" fill="#1f3241"/></g></g></g></g><g><g><g><g><path d="m42.580574 94.0384445 3.1779022 1.8467941c-.217968-.1266708-.4020576-.3115005-.5438538-.5494995l-3.1778984-1.8467941c.1417962.237999.3258859.4228287.54385.5494995z" fill="#1f3241"/></g></g></g></g><g><g><g><g><path d="m46.7061691 93.9369202-1.4915466 1.398819c.2884254.484108.7518311.7482147 1.3193817.7503738l.4649162-1.9823532c.0543938-.2393723-.1138076-.3378983-.2927513-.1668396z" fill="#181e1e"/></g></g></g></g><g><g><g><g><path d="m43.3002472 91.2855835c.0129433.0075226.0240288.0176086.0331573.0299606l3.1778984 1.8468018c-.0091248-.0123596-.0202103-.0224457-.0331535-.0299683-.9533691-.554039-2.2245293-1.2927551-3.1779022-1.8467941z" fill="#c1c4c9"/></g></g></g></g><g><g><g><g><path d="m44.537159 89.1392593 3.1779022 1.8467941c.0446663.0259552.1041908.0174637.1636314-.0168533.0811272-.0468445.1621208-.1417923.2050323-.2629623l-3.1779022-1.8467941c-.0429115.12117-.1239014.2161179-.2050285.2629623-.0594444.034317-.1189689.0428085-.1636352.0168533z" fill="#c1c4c9"/></g></g></g></g><g><g><g><g><path d="m46.479557 93.1329117-3.1778984-1.8467865c-.0174141-.0101242-.037899-.0158081-.0614548-.0161743l3.1779022 1.8467941c.0235558.0003662.0440408.0060501.061451.0161667z" fill="#1f3241"/></g></g></g></g><g><g><g><g><path d="m44.5371552 89.1392593 3.1779022 1.8467941c-.0162964-.0094681-.0306129-.0235214-.0422287-.0425797l-3.1779022-1.8467941c.0116157.0190583.0259323.0331117.0422287.0425797z" fill="#1f3241"/></g></g></g></g><g><g><g><g><path d="m48.8028488 88.6960983-3.1778984-1.8467941-.7191276 2.0101395 3.1779022 1.8467941z" fill="#c1c4c9"/></g></g></g></g><g><g><g><g><path d="m43.5914421 90.2926025c1.0593224.6156006 2.1185875 1.2311935 3.177906 1.8467941.0000076-.0000076.0000114-.0000076.0000191-.0000153-1.0593185-.6156006-2.1185799-1.2311935-3.1778984-1.8467941-.0000114.0000077-.0000152.0000077-.0000267.0000153z" fill="#c1c4c9"/></g></g></g></g><g><g><g><g><path d="m43.5914421 90.2926025c-.0234756.0135498-.0477104.0233765-.0721169.0285187.3760643.2185364 1.9754601 1.1479645 3.1779022 1.8467941.0244064-.0051422.0486412-.0149689.0721169-.0285187-1.0593147-.6156005-2.1185798-1.2311935-3.1779022-1.8467941z" fill="#c1c4c9"/></g></g></g></g><g><g><g><g><path d="m43.810173 89.815834c.0514259.1500549-.0684357.3899841-.2187042.4767532 1.0593185.6156006 2.1185799 1.2311935 3.1778984 1.8467941.1502724-.0867691.270134-.3266983.2187042-.4767532-.9533691-.5540389-2.2245292-1.2927627-3.1778984-1.8467941z" fill="#c1c4c9"/></g></g></g></g><g><g><g><g><path d="m46.4212761 93.3122177-3.1779022-1.8467941-1.384697 1.6323242 3.1779022 1.8467941z" fill="#c1c4c9"/></g></g></g></g><g><g><g><g><path d="m48.802845 88.696106-3.1778984-1.8467941c-.2921333.0587158-.6037292.1798782-.929554.3679962l3.1778984 1.8467941c.3258286-.188118.6374245-.3092804.929554-.3679962z" fill="#1f3241"/></g></g></g></g><g><g><g><g><path d="m44.8886871 94.0991516-3.1779022-1.8467941c.0113869.3172379.0619888.6012955.1478882.8453903l3.1779022 1.8467941c-.0858993-.2440948-.1365013-.5281524-.1478882-.8453903z" fill="#1f3241"/></g></g></g></g><g><g><g><g><path d="m50.334507 88.2917099-3.1778984-1.8467941c-.6291389-.3656158-1.5000916-.3141632-2.461422.24086l3.1778984 1.8467941c.9613304-.5550232 1.8322869-.6064758 2.461422-.24086z" fill="#c1c4c9"/></g></g></g></g><g><g><g><g><path d="m46.4181061 93.116745-3.1779022-1.8467941-1.3881188-.0314408 3.1779022 1.8467942z" fill="#1f3241"/></g></g></g></g><g><g><g><g><path d="m45.0299873 93.0853043-3.1778984-1.8467865c-.0829201.3430634-.131752.6830139-.141304 1.0138397l3.1779022 1.8467941c.0095482-.3308258.0583802-.6707764.1413002-1.0138473z" fill="#1f3241"/></g></g></g></g><g><g><g><g><path d="m46.9446945 89.7689056-3.1779022-1.8467941.7281342 1.1745682 3.1779022 1.8467941z" fill="#1f3241"/></g></g></g></g><g><g><g><g><path d="m46.9446945 89.7689056.7281342 1.1745682c.0434532.0712967.1247368.0725632.205864.0257263.0811272-.0468445.1621208-.1417999.2050285-.2629623l.7191238-2.0101318c-.6810417.1368942-1.3512917.5889968-1.8581505 1.0727996z" fill="#181e1e"/></g></g></g></g><g><g><g><g><path d="m46.6972237 92.1679153-3.1778984-1.8467941-1.4906655.3229599 3.1778984 1.8467941z" fill="#c1c4c9"/></g></g></g></g><g><g><g><g><path d="m46.5173798 90.2204514-3.1778984-1.8467942.4706916 1.4421768 3.1778984 1.8467942z" fill="#c1c4c9"/></g></g></g></g><g><g><g><g><path d="m46.5173759 90.2204514-3.1778984-1.8467941c-.5656853.6564331-1.0260849 1.4538879-1.3108215 2.2704239l3.1779022 1.8467941c.2847367-.816536.7451325-1.6139908 1.3108177-2.2704239z" fill="#1f3241"/></g></g></g></g><g><g><g><g><path d="m51.8402061 86.5539169-3.1779022-1.8467941-.1657371.2568359 3.1778984 1.8467942z" fill="#4f575f"/></g></g></g></g><g><g><g><g><path d="m44.8522682 98.3598328-3.1779022-1.8467942-.1394691.2717896 3.1778984 1.8467941z" fill="#3d4449"/></g></g></g></g><g><g><g><g><path d="m51.2257118 86.1722183-3.1779022-1.8467941-.1394691.2733002 3.1778984 1.8467941z" fill="#3d4449"/></g></g></g></g><g><g><g><g><path d="m44.2366524 98.0390244-3.1779022-1.8467942-.1657372.2568436 3.1778984 1.8467941z" fill="#3d4449"/></g></g></g></g><g><g><g><g><path d="m51.0862389 86.4455185-3.1778984-1.8467941-.1692734-.0664368 3.1779022 1.8467941z" fill="#2a3134"/></g></g></g></g><g><g><g><g><path d="m44.0947723 97.926651-3.1779022-1.8467941.1418801.1123733 3.1779022 1.8467942z" fill="#2a3134"/></g></g></g></g><g><g><g><g><path d="m50.5108299 85.9794998-3.1779022-1.8467941-.1105843.2837372 3.1778985 1.8467941z" fill="#3d4449"/></g></g></g></g><g><g><g><g><path d="m43.7332458 97.5419769-3.1779022-1.8467941-.1906852.2381134 3.1779022 1.8467941z" fill="#3d4449"/></g></g></g></g><g><g><g><g><path d="m50.4002419 86.263237-3.1778985-1.8467941-.1914291-.0174942 3.1779022 1.8467941z" fill="#2a3134"/></g></g></g></g><g><g><g><g><path d="m43.6213913 97.3866653-3.1779022-1.8467941.1118545.1553116 3.1779022 1.8467941z" fill="#2a3134"/></g></g></g></g><g><g><g><g><path d="m49.713974 85.9922562-3.1779022-1.8467942-.075222.278389 3.1778984 1.8467941z" fill="#3d4449"/></g></g></g></g><g><g><g><g><path d="m49.6387482 86.2706451-3.1778984-1.8467941-.2096291.0336685 3.1779022 1.8467942z" fill="#2a3134"/></g></g></g></g><g><g><g><g><path d="m43.3552132 96.8867035-3.1778984-1.8467941-.2052002.2043151 3.1779022 1.8467942z" fill="#3d4449"/></g></g></g></g><g><g><g><g><path d="m43.2786369 96.6899338-3.1778984-1.8467942.0765763.1967698 3.1778984 1.8467941z" fill="#2a3134"/></g></g></g></g><g><g><g><g><path d="m42.2571411 94.5999985 3.1778984 1.8468018c-.5948067-.345665-.9735413-1.0638504-1.0082703-2.0809555l-3.1779022-1.8467941c.034729 1.017105.4134636 1.7352828 1.0082741 2.0809478z" fill="#c1c4c9"/></g></g></g></g><g><g><g><g><path d="m47.873291 89.0641022-3.1778984-1.8467941c-.3245316.1873627-.6371078.4265747-.9286003.7048035l3.177906 1.8468018c.2914849-.2782365.604065-.5174486.9285927-.7048112z" fill="#1f3241"/></g></g></g></g><g><g><g><g><path d="m50.6150703 87.8087921-3.1778984-1.8467941c-.7012558-.4075241-1.6720276-.3503036-2.7432785.2681808l3.1779022 1.8467941c1.071251-.6184844 2.0420189-.6757049 2.7432747-.2681808z" fill="#385165"/></g></g></g></g><g><g><g><g><path d="m41.9748154 95.0838165 3.1778984 1.8467941c-.6658478-.3869476-1.0885925-1.1928787-1.1237411-2.3350983l-3.1778984-1.8467941c.0351485 1.1422196.4578933 1.9481507 1.1237411 2.3350983z" fill="#385165"/></g></g></g></g><g><g><g><g><path d="m51.4879303 86.3048553-3.1778984-1.8467941c-.0847206-.0492325-.1723328-.0935669-.2622223-.132637l3.1779022 1.8467941c.0898895.0390702.1775017.0834046.2622185.132637z" fill="#1f3241"/></g></g></g></g><g><g><g><g><path d="m48.86129 86.1968918-3.1779022-1.8467941-.0372429.2700119 3.1779022 1.8467941z" fill="#3d4449"/></g></g></g></g><g><g><g><g><path d="m48.8240471 86.4669037-3.1779022-1.8467941-.2186623.0810623 3.1779022 1.8467941z" fill="#2a3134"/></g></g></g></g><g><g><g><g><path d="m43.1143951 96.0889511-3.1778984-1.8467941-.2157859.1682586 3.1779022 1.8467942z" fill="#3d4449"/></g></g></g></g><g><g><g><g><path d="m43.0731277 95.8597565-3.1779022-1.8467942.0412712.2291947 3.1778984 1.8467941z" fill="#2a3134"/></g></g></g></g><g><g><g><g><path d="m47.9797173 86.8474426-3.1778985-1.8467941-.2224426.1284256 3.1779022 1.8467941z" fill="#2a3134"/></g></g></g></g><g><g><g><g><path d="m47.873085 88.5325699-3.1778984-1.8467941c-1.8712349 1.0803528-3.3895531 3.6648636-3.4463196 5.8332748l3.1779022 1.8467941c.0567666-2.1684112 1.5750847-4.752922 3.4463158-5.8332748z" fill="#c1c4c9"/></g></g></g></g><g><g><g><g><path d="m43.1089287 94.1597977-3.1779022-1.8467942-.0398331.2775269 3.1779022 1.8467941z" fill="#2a3134"/></g></g></g></g><g><g><g><g><path d="m47.8717957 88.076973-3.1779022-1.8467941c-2.0897522 1.2065201-3.7854691 4.0982742-3.8428192 6.5185394l3.1778984 1.8467941c.0573501-2.4202652 1.7530708-5.3120194 3.842823-6.5185394z" fill="#385165"/></g></g></g></g><g><g><g><g><path d="m47.1332626 87.3978958-3.1779022-1.8467941-.2197075.1720276 3.1779022 1.8467941z" fill="#2a3134"/></g></g></g></g><g><g><g><g><path d="m43.3444481 93.0885391-3.1779022-1.8467941-.0752106.2843857 3.1778984 1.8467941z" fill="#2a3134"/></g></g></g></g><g><g><g><g><path d="m43.7175293 91.9981003-3.1779022-1.8467941-.1106072.2837448 3.1778984 1.8467941z" fill="#2a3134"/></g></g></g></g><g><g><g><g><path d="m44.2164764 90.9223404-3.1779022-1.8467941-.1407776.2755661 3.1778984 1.8467941z" fill="#2a3134"/></g></g></g></g><g><g><g><g><path d="m42.8002319 95.3049316c.0045128-.2586441.0208054-.5195694.0541229-.7873077l.2147408-.0802994.0398331-.2775269-.2160339.0810394c.041172-.2767868.0993462-.5558624.1719513-.8372498l.2043877-.0306625.0752144-.2843857-.2056885.031395c.0778275-.2844009.1726952-.5696106.2780571-.8533401l.1901016.0152512.110611-.2837448-.1914101-.0175095c.1158257-.2867661.2421684-.5690536.3816261-.8468704l.1679497.0641861.1407814-.2755661-.1666527-.0649338c.1460228-.2755814.3038406-.5489349.4695473-.8132782l.1405563.1116257.1683426-.2613602-.1405602-.1116257c.1709709-.2598648.3524513-.5092316.5431099-.7548523l.1118507.1553116.1906815-.2381058-.1092148-.1538162c.192009-.2343597.3918991-.4597168.6010284-.6693115l.0765533.1907578.2078171-.2073441-.0752602-.1914978c.2078247-.2043304.4209404-.3936386.6406288-.5701828l.0386505.2261963.2197075-.1720276-.0386505-.2261963c.2184219-.1652603.4381981-.3117294.661953-.4469376l.0007133.2511063.2224388-.1284256-.0007095-.2511063c.2250824-.1239319.4449921-.2313156.6623268-.3176346l-.0359497.2692642.2186623-.0810623.0372429-.2700119c.2212868-.0780563.4347763-.1350479.6430626-.1709595l-.0752296.2783813.2096252-.0336685.0752258-.278389c.2083168-.0314102.4088287-.0372314.6028481-.0257492l-.1080055.2792358.1914253.0174942.1105881-.2837372c.1914482.0250168.3737411.0643539.5456123.1262741l-.139473.2733078.1692696.0664368.139473-.2733002c.1666718.0724487.3255234.1629715.4726143.2693253l-.167038.2575912.143177.111618.165741-.2568359c.1405754.1161346.2680855.2518616.3864899.403389l-.1906853.2381134.1118546.1553116.1880608-.2335892c.1079407.1605835.204113.335495.2819977.5299911l-.2038803.2050705.0765762.1967545.2038803-.205055c.0739555.1967697.1322289.4086151.1761246.6362915l-.2157822.1682663.039978.2314453.215786-.1682587c.0756416.5188217.069973.9617004.0042801 1.5096436l-.2160339.0810471-.0385399.2752762.2160301-.0810547c-.0424652.2775497-.09935.5558777-.1719475.838768l-.2043686.0306396-.0752144.2844009.2043686-.0321426c-.0765228.2851486-.1713943.5703583-.2780762.8533478l-.1887665-.0160217-.110611.2837448.1914101.0175171c-.117157.2875214-.2434845.569809-.382946.8476257l-.1666489-.0649338-.1420784.2763062.1679497.0641937c-.1460037.2770691-.3038254.5489197-.4695435.8132782l-.1405602-.1101227-.1683426.2613602.1405602.1101151c-.1709595.2598572-.3524284.5107269-.5431099.7563629l-.1118317-.1553268-.1907005.238121.1092339.1538086c-.193325.2336121-.3932114.4604645-.6010246.6693039l-.0765533-.1907501-.209137.2065887.076561.1922531c-.2078056.2043152-.4209213.3936386-.6419296.5694275l-.0386505-.2261963-.2184029.1727905.0373535.2269363c-.2171173.1630096-.4369087.3109894-.6619606.4454422l-.0007095-.2496033-.2224388.1284256.0007057.2496033c-.2237854.1246872-.443676.2305527-.6623154.3191299l.0372429-.2700043-.2199669.080307-.0372429.2700119c-.2199669.078804-.4334564.135788-.6430702.1724701l.0752373-.2798996-.2083092.0344238-.075222.2783813c-.2096329.0321732-.4101486.0364914-.6028557.0257492l.1079903-.2792206-.1914063-.0175171-.1106071.2837601c-.1914253-.025032-.3737259-.0658722-.5456123-.1277924l.139473-.2717896-.1692696-.0664444-.139473.2718048c-.1666603-.072464-.3255043-.1614838-.4726143-.2693253l.165741-.2568436-.14188-.1123734-.167038.2575912c-.1405754-.1161346-.2681046-.2518539-.3851738-.4041519l.1906853-.2381134-.1118546-.1553116-.1893959.2343597c-.106617-.1598434-.2027931-.3347473-.2819786-.5300064l.2051964-.2043152-.0765762-.1967697-.2038918.2050781c-.073967-.1982727-.1335297-.4093704-.1761322-.6378021l.2157822-.1682587-.0412674-.2291946-.2144966.167511c-.0347214-.2284541-.0524369-.469749-.0583993-.7223354zm1.2313538-.7109222c.069561 2.3469849 1.7760925 3.2744598 3.86586 2.0679321 2.0897713-1.2065277 3.7854729-4.0982819 3.8402138-6.5170364-.0708656-2.3462448-1.7774124-3.2736969-3.8658638-2.0679321-2.0897522 1.20652-3.7854729 4.0982742-3.84021 6.5170364" fill="#181e1e"/></g></g></g></g><g><g><g><g><path d="m46.5173759 90.2204514c-.5656853.6564331-1.0260811 1.4538879-1.3108177 2.2704239l1.4906654-.3229675c.1804962-.0379791.3503761-.3315811.2908478-.5052795z" fill="#181e1e"/></g></g></g></g><g><g><g><g><path d="m51.3424721 90.3730621c-.0567513 2.1669006-1.5763931 4.7536774-3.4463158 5.8332748-1.8699188 1.0795975-3.3979301.252388-3.4693871-1.8404922.0567665-2.1684113 1.5750847-4.7529221 3.4463158-5.8332748 1.8699379-1.0796051 3.3979225-.2538834 3.4693871 1.8404922zm-2.1072273-1.7217712-.4649277 1.9823532c-.0556641.239975.1123848.3387527.2927742.168335l1.4902306-1.398056c-.2884293-.485611-.751854-.7497025-1.3180771-.7526322m-4.0286866 3.8395843 1.4906654-.3229599c.1804695-.0379791.3503914-.3315582.2908478-.5052872l-.4706917-1.4421768c-.565689.6564332-1.0260848 1.4538956-1.3108215 2.2704239m1.3274498 3.5952301.4649124-1.9823456c.05439-.2393265-.1138-.3379211-.2927513-.166832l-1.4915428 1.3988113c.2884216.4841081.7518273.7482149 1.3193817.7503663m4.0286751-3.8380661-1.4919662.3237152c-.1805191.0365219-.3490906.3292999-.2908516.5037766l.4720116 1.4414215c.5656661-.6564255 1.0260848-1.4539032 1.3108062-2.2689133m-2.6680336 3.4275208c.3258286-.188118.6371078-.4265747.9285965-.7063141l-.7268372-1.1753082c-.0434532-.0713043-.125042-.0723953-.2065086-.0253601-.081459.0470276-.1627731.1421738-.2056808.2633362l-.7178154 2.0093842c.292118-.0572129.6037368-.178383.9282455-.365738m-.0213547-6.6114578c-.3245316.1873703-.6371078.4265747-.9286003.7048035l.728138 1.1745605c.0434532.0713043.124733.0725708.2058601.0257339.0811272-.0468445.1621208-.1417923.2050323-.2629623l.7191238-2.0101395c-.2921332.0587235-.6037291.1798859-.9295539.3680039m-2.8367157 5.8804397c1.3298416-1.5825882 1.4119415-1.6200104 1.4747238-1.7822037-.0210571-.0285034-.0525513-.04496-.0931969-.0455933l-1.3881187-.0314331c-.1534691.6349564-.2101249 1.2434236.0065918 1.8592301m5.8439751-4.3047943c-.0113754-.3187485-.0619926-.6012802-.1478767-.8468857-1.4271507 1.6983795-1.4188843 1.6351318-1.47472 1.783699.0210342.0270081.0512352.0442123.093174.0441055l1.3868179.0321808c.0842209-.342308.1330681-.6837768.1426048-1.0130996" fill="#dbe6fa"/></g></g></g></g><g><g><g><g><path d="m51.7389755 90.1441422c-.056057 2.4195175-1.7517586 5.3112717-3.8415298 6.5177994-2.0897675 1.2065277-3.796299.2790527-3.8684731-2.0664291.0573502-2.4202652 1.7530708-5.3120193 3.842823-6.5185394 2.0884514-1.2057649 3.7949982-.2783128 3.8671799 2.0671691zm-7.310894 4.2209472c.0701447 2.0936356 1.598156 2.920845 3.4680748 1.8412476 1.8699226-1.0795975 3.3895645-3.6663742 3.4437065-5.8317642-.0688553-2.0958862-1.5968399-2.921608-3.4667778-1.8420029-1.8712311 1.0803528-3.3895492 3.6648636-3.4450035 5.8325195" fill="#4f575f"/></g></g></g></g><g><g><g><g><path d="m48.0964088 93.7939377.726841 1.1753159c-.4995193.4793777-1.1747742.9384689-1.8568459 1.0720367l.7178154-2.0093765c.0772095-.2180176.3176423-.3930893.4121895-.2379761z" fill="#181e1e"/></g></g></g></g><g><g><g><g><path d="m41.1003265 96.5845642 3.1779022 1.8467941c-.0712814-.04142-.1405106-.0865173-.2073174-.1354904l-3.1778984-1.8467941c.0668069.0489731.1360322.0940704.2073136.1354904z" fill="#1f3241"/></g></g></g></g><g><g><g><g><path d="m51.0564423 86.1057739-3.1778984-1.8467865c-.171875-.0619278-.3541679-.101265-.5456161-.1262817l3.1779022 1.8468018c.1914481.0250091.3737411.0643463.5456123.1262664z" fill="#4f575f"/></g></g></g></g><g><g><g><g><path d="m43.5425606 97.7800903-3.1778984-1.8467941c.1170654.152298.2445946.2880173.38517.4041519l3.177906 1.8467941c-.1405792-.1161346-.2681084-.2518539-.3851776-.4041519z" fill="#4f575f"/></g></g></g></g><g><g><g><g><path d="m50.3168221 85.966507-3.1778984-1.8467941c-.1940193-.0114822-.3945351-.005661-.6028519.0257492l3.177906 1.8468018c.208313-.031418.4088249-.0372392.6028443-.0257569z" fill="#4f575f"/></g></g></g></g><g><g><g><g><path d="m43.1500168 97.0910187-3.1778984-1.8467941c.0791855.1952591.1753578.370163.2819786.5300064l3.1779022 1.8467941c-.1066208-.1598435-.2027969-.3347473-.2819824-.5300064z" fill="#4f575f"/></g></g></g></g><g><g><g><g><path d="m45.0299873 93.0853043c-.1534691.6349716-.210125 1.2434235.006588 1.8592377 1.3544083-1.611824 1.4125977-1.6270065 1.4760208-1.7829514-.0223541-.0277557-.0538483-.0442123-.0944901-.0448456z" fill="#181e1e"/></g></g></g></g><g><g><g><g><path d="m49.5043526 86.0259323-3.1778984-1.8467941c-.2082901.0359116-.4217796.0929031-.6430664.1709595l3.177906 1.8467941c.221283-.0780564.4347725-.1350479.6430588-.1709595z" fill="#4f575f"/></g></g></g></g><g><g><g><g><path d="m42.898613 96.2572098-3.1779022-1.8467941c.0426025.2284317.1021652.4395294.1761322.6378021l3.1779022 1.8467941c-.073967-.1982727-.1335297-.4093704-.1761322-.6378021z" fill="#4f575f"/></g></g></g></g><g><g><g><g><path d="m47.9790077 86.5963364-3.1779022-1.8467942.0007133.2511063 3.1778985 1.8467941z" fill="#3d4449"/></g></g></g></g><g><g><g><g><path d="m48.6413345 86.2787018-3.1778984-1.8467941c-.2173386.086319-.4372444.1937027-.6623306.3176346l3.1779022 1.8467941c.2250824-.1239319.4449921-.2313156.6623268-.3176346z" fill="#4f575f"/></g></g></g></g><g><g><g><g><path d="m43.0690956 94.4373245-3.1779022-1.8467941-.2147408.0802994 3.1779023 1.8467941z" fill="#3d4449"/></g></g></g></g><g><g><g><path d="m39.6764374 92.6708374 3.1779251 1.8467941c-.0333252.2677383-.049614.528656-.054142.7873001.0059547.2525864.0236931.4938812.0583954.7223358l-3.1778755-1.8467865c-.0347252-.2284622-.0524368-.4697571-.0583916-.7223434.0045013-.2586441.0207901-.5195618.0540886-.7873001z" fill="#4f575f"/></g></g></g><g><g><g><g><path d="m47.0946121 87.1716995-3.1779022-1.8467941.0386505.2261963 3.1779022 1.8467941z" fill="#3d4449"/></g></g></g></g><g><g><g><g><path d="m47.7565651 86.724762-3.1778984-1.8467941c-.2237587.1352081-.443531.2816772-.6619568.4469376l3.1779022 1.8467941c.218422-.1652604.4381981-.3117295.661953-.4469376z" fill="#4f575f"/></g></g></g></g><g><g><g><g><path d="m46.309536 88.1054077-3.1779022-1.8467941-.2078171.207344 3.1779022 1.8467942z" fill="#2a3134"/></g></g></g></g><g><g><g><g><path d="m43.2692337 93.3729248-3.1778984-1.8467941-.2043915.0306625 3.1779022 1.8467941z" fill="#3d4449"/></g></g></g></g><g><g><g><g><path d="m43.064846 93.4035873-3.1779022-1.8467941c-.0726051.2813873-.1307793.560463-.1719475.8372498l3.1778984 1.8468018c.0411721-.2767945.0993462-.5558701.1719513-.8372575z" fill="#4f575f"/></g></g></g></g><g><g><g><g><path d="m46.2342758 87.9139099-3.1779022-1.8467941.0752602.1914978 3.1779022 1.8467941z" fill="#3d4449"/></g></g></g></g><g><g><g><g><path d="m46.8749046 87.3437271-3.1778984-1.8467865c-.2196922.1765366-.4328079.3658447-.6406326.5701752l3.1779022 1.8467941c.2078247-.2043304.4209404-.3936386.6406288-.5701828z" fill="#4f575f"/></g></g></g></g><g><g><g><g><path d="m45.5333519 88.9451218-3.1778984-1.8467942-.1906815.2381058 3.1778984 1.8467941z" fill="#2a3134"/></g></g></g></g><g><g><g><g><path d="m44.82827 89.8943939-3.1779023-1.8467941-.1683387.2613602 3.1778984 1.8467941z" fill="#2a3134"/></g></g></g></g><g><g><g><g><path d="m43.4168167 92.2665939-3.1778984-1.8467941c-.1053658.2837296-.2002335.5689392-.2780609.8533401l3.1779022 1.8467941c.0778275-.2844009.1726952-.5696105.2780571-.8533401z" fill="#4f575f"/></g></g></g></g><g><g><g><g><path d="m43.6069183 92.2818451-3.1778984-1.8467941-.1901054-.0152512 3.1779022 1.8467941z" fill="#3d4449"/></g></g></g></g><g><g><g><g><path d="m45.4241371 88.7913055-3.1779022-1.8467941.1092186.1538162 3.1778984 1.8467942z" fill="#3d4449"/></g></g></g></g><g><g><g><g><path d="m46.0251656 88.121994-3.1778984-1.8467941c-.2091331.2095947-.4090233.4349518-.6010323.6693115l3.1779022 1.8467941c.192009-.2343597.3918991-.4597168.6010285-.6693115z" fill="#4f575f"/></g></g></g></g><g><g><g><g><path d="m43.9077454 91.1337204-3.1778984-1.8467941c-.1394615.2778168-.2658043.5601044-.3816299.8468628l3.1779022 1.8468018c.1158256-.2867661.2421684-.5690537.3816261-.8468705z" fill="#4f575f"/></g></g></g></g><g><g><g><g><path d="m44.075695 91.1979065-3.1778984-1.8467941-.1679496-.0641861 3.1778984 1.8467941z" fill="#3d4449"/></g></g></g></g><g><g><g><g><path d="m45.2308197 89.027916-3.1779022-1.8467865c-.1906586.2456131-.3721352.4949799-.5431099.7548447l3.1779022 1.8467941c.1709709-.2598649.3524513-.5092316.5431099-.7548523z" fill="#4f575f"/></g></g></g></g><g><g><g><g><path d="m44.6877098 89.7827682-3.1779022-1.8467941.1405601.1116257 3.1779023 1.8467941z" fill="#3d4449"/></g></g></g></g><g><g><g><g><path d="m44.519371 90.0441284-3.1779022-1.8467941c-.1657066.2643433-.3235245.5376968-.4695435.8132782l3.1779022 1.8467941c.1460191-.2755813.3038369-.5489349.4695435-.8132782z" fill="#4f575f"/></g></g></g></g></g></g></g><g><g enable-background="new"><g><g><path d="m39.3883896 87.4287415c.1047325-1.0624008.8451767-2.2455826 1.7225113-2.7521057l6.704937-3.8710938c.4799423-.2770996.9202118-.30513 1.2386322-.120079l3.7488976 2.1786041c-.3184624-.185051-.7587318-.1570206-1.2386513.120079l-6.7049599 3.8711014c-.8772926.5065155-1.6177559 1.6896973-1.7224693 2.7520981l-.8674011 8.8068008-3.7488785-2.1786041z" fill="#4f575f"/></g></g><g><g><g><path d="m44.8597603 86.8552475c-.8773117.5065155-1.6177673 1.6896973-1.7224884 2.7520905l-.8673897 8.8068085.6339378-.3660049.8585815-8.7131195c.0661125-.6779022.5390663-1.4330292 1.0994072-1.756546l6.7049446-3.8711014c.56036-.3235245 1.0360413-.1160812 1.1057625.4833908l.905098 7.6948547.633934-.3659973-.9144096-7.7780838c-.1103745-.9382095-.8551216-1.2639084-1.7324333-.7573929z" fill="#2a3134"/></g></g></g></g></g></g><g><g><g><path d="m33.380867 98.1008835c-.078022.0450439-.1422043.1547928-.1419449.2458649l.0020027.7072296c.0002556.0903625.0648537.1264725.1428757.0814209l1.3535538-.7814713c.0792618-.0457611.1422119-.1555099.1419525-.2458725l-.0020027-.7072296c-.0002594-.0910721-.0636215-.127182-.1428833-.0814209z" fill="#f04343"/></g></g></g></g></g></g></g></g></g><g><g><g><path d="m25.4640198 93.6465302-.0051956 1.8325576 1.1617965.6707611.0051956-1.83255z" fill="#ffb63c"/></g></g><g><g><path d="m24.3020267 92.9756546-.0051956 1.8325501 1.1619931.6708831.0051956-1.8325576z" fill="#ff6161"/></g></g><g><g><path d="m21.9711914 91.6299438-.0051956 1.8325577 1.1617966.6707611.0051956-1.83255z" fill="#ff6161"/></g></g><g><g><path d="m23.132988 92.3007126-.0051956 1.83255 1.1690387.6749421.0051956-1.8325501z" fill="#dbe6fa"/></g></g><g><g><path d="m10.9375467 85.2596664-.0051946 1.8325577 1.1617965.6707611.0051947-1.83255z" fill="#ff6161"/></g></g><g><g><path d="m12.0993433 85.9304352-.0051947 1.83255 1.1619921.6708756.0051956-1.8325501z" fill="#ffb63c"/></g></g><g><g><path d="m8.6067104 83.9139633-.0051956 1.8325501 1.1617975.6707611.0051947-1.8325501z" fill="#ff6161"/></g></g><g><g><path d="m9.768507 84.5847244-.0051947 1.8325501 1.1690398.6749496.0051946-1.8325577z" fill="#dbe6fa"/></g></g></g></g><g><g><g><path d="m98.5158691 51.0050583c-.0937881.0541496-.1709442.1860771-.1706314.2955551l.0024109.8501625c.0003052.1086235.0779572.1520309.1717453.0978813l1.6271057-.9394112c.0952835-.0550117.1709518-.1869392.1706467-.2955627l-.0024109-.8501587c-.0003052-.109478-.0764771-.1528893-.1717606-.0978775z" fill="#ffde9b"/></g></g></g></g></g><g><g><g enable-background="new"><g><g><path d="m51.7701797 32.2178116-.0517463 36.616745-1.6010018-3.4220963.0517464-36.6167392z" fill="#189453"/></g></g><g><g><path d="m57.6803284 33.1322861-.0517464 36.616745-5.9101486-.9144745.0517463-36.616745z" fill="#28af6e"/></g></g><g><g><path d="m61.9866829 30.6297054-.0517426 36.6167393-4.3063583 2.5025864.0517464-36.616745z" fill="#39c988"/></g></g><g><g><path d="m60.3886337 27.2093143 1.5980492 3.4203911-4.3063545 2.5025807-5.9101487-.9144745-1.6010017-3.4220905 4.3063583-2.5025807z" fill="#49e4a3"/></g></g></g></g><g><g enable-background="new"><g><g><path d="m41.0371017 45.0021629-.0517463 30.0697747-1.6009979-3.4220887.0517463-30.0697746z" fill="#29c3ed"/></g></g><g><g><path d="m46.9472504 45.9166374-.0517426 30.0697746-5.9101524-.9144744.0517463-30.0697747z" fill="#4dcdf3"/></g></g><g><g><path d="m51.2536087 43.4140549-.0517464 30.0697784-4.3063545 2.5025787.0517426-30.0697746z" fill="#71d8f8"/></g></g><g><g><path d="m49.6555557 39.9936676 1.598053 3.4203873-4.3063583 2.5025825-5.9101487-.9144745-1.6009979-3.4220886 4.3063545-2.5025825z" fill="#95e2fe"/></g></g></g></g><g><g enable-background="new"><g><g><path d="m30.3040257 57.7947426-.0517464 23.5145759-1.6009999-3.4220886.0517464-23.5145798z" fill="#ffa20d"/></g></g><g><g><path d="m36.2141762 58.7092171-.0517464 23.5145759-5.9101505-.9144745.0517464-23.5145759z" fill="#ffb63c"/></g></g><g><g><path d="m40.5205307 56.2066345-.0517464 23.5145798-4.3063545 2.5025787.0517464-23.5145759z" fill="#ffca6c"/></g></g><g><g><path d="m38.9224777 52.7862434 1.598053 3.4203911-4.3063545 2.5025826-5.9101505-.9144745-1.6009999-3.4220925 4.3063545-2.5025787z" fill="#ffde9b"/></g></g></g></g><g><g enable-background="new"><g><g><path d="m19.5709496 69.5859451-.0517464 17.9607621-1.6009998-3.4220963.0517463-17.960762z" fill="#d30707"/></g></g><g><g><path d="m25.4810982 70.500412-.0517445 17.960762-5.9101505-.9144668.0517464-17.9607621z" fill="#e22525"/></g></g><g><g><path d="m29.7874546 67.9978333-.0517464 17.960762-4.3063545 2.5025787.0517445-17.960762z" fill="#f04343"/></g></g><g><g><path d="m28.1894016 64.577446 1.598053 3.4203873-4.3063564 2.5025787-5.9101486-.9144669-1.6009999-3.4220962 4.3063565-2.5025788z" fill="#ff6161"/></g></g></g></g></g><g><g><g enable-background="new"><g><g><path d="m49.4654198 21.986557-5.0986595-2.9630165.5664062.1303158 5.0986595 2.9630165z" fill="#dbdfe6"/></g></g><g><g><path d="m16.7566071 61.2889748-5.0986605-2.9630165-.132597-.7095719 5.0986605 2.9630165z" fill="#dbdfe6"/></g></g><g><g><path d="m16.6240101 60.5794029-5.0986633-2.9630089c.241909-.1896896 24.2624798-19.65382 32.8414154-38.5928535l5.0986443 2.9630222c-8.5789204 18.9390278-32.5994912 38.4031582-32.8413964 38.5928402z" fill="#ebeef4"/></g></g><g><g><path d="m49.4654198 21.986557.5664063.1303158c-8.7397346 19.2892284-33.0270996 38.971756-33.275219 39.1721039l-.132597-.7095718c.2419052-.189684 24.262476-19.6538144 32.8414097-38.5928479z" fill="#ccd0d9"/></g></g></g></g><g><g enable-background="new"><g><g><path d="m53.3082428 9.4781027.547905.3163338-.814785 14.401803-.547905-.3163319z" fill="#ccd0d9"/></g></g><g><g><path d="m53.3082428 9.4781027-.814785 14.4018049-11.2450981-6.4923611z" fill="#ebeef4"/></g></g></g></g></g></g></svg>