<svg id="Layer_3" height="512" viewBox="0 0 64 64" width="512" xmlns="http://www.w3.org/2000/svg" data-name="Layer 3"><path d="m44 58h8v4h-8z" fill="#939393"/><path d="m44 60h4a2 2 0 0 0 2-2h-6z" fill="#a9a9a9"/><path d="m60 28h-56l2-8h52z" fill="#2763bb"/><path d="m47 24a5 5 0 0 0 4.9-4h-45.9l-1 4z" fill="#3079e6"/><path d="m5 34 4 24h46l4-24z" fill="#2763bb"/><path d="m5 34 2 12h40a5 5 0 0 0 5-5v-7z" fill="#3079e6"/><path d="m8 52 1 6h46l1-6z" fill="#f3a845"/><path d="m2 28h60v6h-60z" fill="#f3a845"/><path d="m2 31h53a3 3 0 0 0 3-3h-56z" fill="#eecc61"/><path d="m51 2a10.989 10.989 0 0 0 -7.509 19.023l-1.491 3.977 4.214-2.107a11 11 0 1 0 4.786-20.893z" fill="#f3a845"/><path d="m40 13a10.965 10.965 0 0 1 .425-3h-17.425a3 3 0 0 0 -3 3v7h4v-6h16.053c-.03-.33-.053-.662-.053-1z" fill="#a9a9a9"/><path d="m51 2a11 11 0 0 0 -11 11 10.89 10.89 0 0 0 1.8 6h13.2a3 3 0 0 0 3-3v-11.485a10.955 10.955 0 0 0 -7-2.515z" fill="#eecc61"/><path d="m12 58h8v4h-8z" fill="#939393"/><path d="m26 26h12v10h-12z" fill="#939393"/><path d="m28 36h8v4h-8z" fill="#686868"/><path d="m54 19.317a6.993 6.993 0 0 0 -1-13.023v6.706l-2 2-2-2v-6.706a6.993 6.993 0 0 0 -1 13.023v4.243a10.8 10.8 0 0 0 3 .44 10.965 10.965 0 0 0 3-.425z" fill="#686868"/><path d="m53 6.294v6.706l-2 2-2-2v-6.706a6.979 6.979 0 0 0 -1.562 12.706h7.124a6.979 6.979 0 0 0 -1.562-12.706z" fill="#868686"/><path d="m26 26h12v5h-12z" fill="#a9a9a9"/><path d="m12 60h4a2 2 0 0 0 2-2h-6z" fill="#a9a9a9"/><path d="m8.5 55h40.5a3 3 0 0 0 3-3h-44z" fill="#eecc61"/></svg>