<svg height="512pt" viewBox="-15 0 512 512" width="512pt" xmlns="http://www.w3.org/2000/svg" xmlns:xlink="http://www.w3.org/1999/xlink"><linearGradient id="lg1"><stop offset="0" stop-color="#f9f7fc"/><stop offset="1" stop-color="#f0ddfc"/></linearGradient><linearGradient id="linear0" gradientUnits="userSpaceOnUse" x1="143.9989505124" x2="340.7680545124" xlink:href="#lg1" y1="95.8634980512" y2="507.4723380512"/><linearGradient id="linear1" gradientUnits="userSpaceOnUse" x1="444.29464217" x2="426.9903053592" xlink:href="#lg1" y1="153.5779844948" y2="16.8737538072"/><linearGradient id="lg2"><stop offset="0" stop-color="#f0ddfc" stop-opacity="0"/><stop offset=".2889" stop-color="#c8b7e0" stop-opacity=".290196"/><stop offset=".5915" stop-color="#a595c8" stop-opacity=".592157"/><stop offset=".8395" stop-color="#8f81b8" stop-opacity=".839216"/><stop offset="1" stop-color="#8779b3"/></linearGradient><linearGradient id="linear2" gradientTransform="matrix(-1.003924 0 0 1.003924 497.248448 0)" gradientUnits="userSpaceOnUse" x1="302.6387" x2="302.6387" xlink:href="#lg2" y1="444.5652" y2="536.6968"/><linearGradient id="linear3" gradientUnits="userSpaceOnUse" x1="375.2378854448" x2="216.9852292364" xlink:href="#lg2" y1="227.4233209856" y2="69.1706647772"/><linearGradient id="linear4" gradientUnits="userSpaceOnUse" x1="223.5991809408" x2="23.173584948" xlink:href="#lg2" y1="243.5321850972" y2="43.1066894968"/><linearGradient id="lg3"><stop offset="0" stop-color="#ffc738"/><stop offset=".2344" stop-color="#fec33a"/><stop offset=".4454" stop-color="#fbb840"/><stop offset=".6474" stop-color="#f6a649"/><stop offset=".8426" stop-color="#f08d56"/><stop offset="1" stop-color="#e97264"/></linearGradient><linearGradient id="linear5" gradientUnits="userSpaceOnUse" x1="223.7295906684" x2="328.9153261988" xlink:href="#lg3" y1="128.502272" y2="128.502272"/><linearGradient id="lg4"><stop offset="0" stop-color="#fca17a" stop-opacity="0"/><stop offset=".152" stop-color="#f69373" stop-opacity=".152941"/><stop offset=".416" stop-color="#ef816b" stop-opacity=".415686"/><stop offset=".6926" stop-color="#ea7666" stop-opacity=".694118"/><stop offset="1" stop-color="#e97264"/></linearGradient><linearGradient id="linear6" gradientUnits="userSpaceOnUse" x1="271.3160902304" x2="314.5442545312" xlink:href="#lg4" y1="118.87464084" y2="202.0057723688"/><linearGradient id="lg5"><stop offset="0" stop-color="#e97264" stop-opacity="0"/><stop offset="1" stop-color="#b53759"/></linearGradient><linearGradient id="linear7" gradientUnits="userSpaceOnUse" x1="274.7043337304" x2="269.5985770512" xlink:href="#lg5" y1="144.9146223368" y2="196.7016403072"/><linearGradient id="linear8" gradientUnits="userSpaceOnUse" x1="265.9057430096" x2="250.1223510588" xlink:href="#lg5" y1="147.5539385328" y2="176.4208696212"/><radialGradient id="radial0" cx="275.3091" cy="350.4761" gradientTransform="matrix(1.003924 0 0 .897809 -14.751652 -225.764634)" gradientUnits="userSpaceOnUse" r="98.7734" xlink:href="#lg3"/><radialGradient id="radial1" cx="-2975.5417" cy="-4147.8242" gradientTransform="matrix(-1.003924 0 0 -.897809 -2707.275582 -3589.056763)" gradientUnits="userSpaceOnUse" r="72.8469" xlink:href="#lg3"/><radialGradient id="radial2" cx="282.7686" cy="362.6134" gradientTransform="matrix(1.003924 0 0 .897809 -14.751652 -225.764634)" gradientUnits="userSpaceOnUse" r="82.0124" xlink:href="#lg3"/><linearGradient id="linear9" gradientUnits="userSpaceOnUse" x1="305.7881297956" x2="251.0254810892" xlink:href="#lg5" y1="144.8276825184" y2="112.7657633"/><linearGradient id="lg6"><stop offset="0" stop-color="#ffc738"/><stop offset="1" stop-color="#e97264"/></linearGradient><linearGradient id="linear10" gradientUnits="userSpaceOnUse" x1="281.4705807056" x2="238.0920285896" xlink:href="#lg6" y1="117.1101440176" y2="140.4107180956"/><linearGradient id="linear11" gradientUnits="userSpaceOnUse" x1="55.9820220528" x2="161.1676571908" xlink:href="#lg3" y1="128.502272" y2="128.502272"/><linearGradient id="linear12" gradientUnits="userSpaceOnUse" x1="103.5685216148" x2="146.7965855232" xlink:href="#lg4" y1="118.8745404476" y2="202.0057723688"/><linearGradient id="linear13" gradientUnits="userSpaceOnUse" x1="106.9567651148" x2="101.8509080432" xlink:href="#lg5" y1="144.9146223368" y2="196.7016403072"/><linearGradient id="linear14" gradientUnits="userSpaceOnUse" x1="98.1580740016" x2="82.3747824432" xlink:href="#lg5" y1="147.5539385328" y2="176.4208696212"/><radialGradient id="radial3" cx="108.2171" cy="350.4761" gradientTransform="matrix(1.003924 0 0 .897809 -14.751652 -225.764634)" gradientUnits="userSpaceOnUse" r="98.7734" xlink:href="#lg3"/><radialGradient id="radial4" cx="-2808.4497" cy="-4147.8242" gradientTransform="matrix(-1.003924 0 0 -.897809 -2707.275582 -3589.056763)" gradientUnits="userSpaceOnUse" r="72.8469" xlink:href="#lg3"/><radialGradient id="radial5" cx="115.6766" cy="362.6134" gradientTransform="matrix(1.003924 0 0 .897809 -14.751652 -225.764634)" gradientUnits="userSpaceOnUse" r="82.0124" xlink:href="#lg3"/><linearGradient id="linear15" gradientUnits="userSpaceOnUse" x1="137.8616619232" x2="76.0371106236" xlink:href="#lg5" y1="144.5875438976" y2="104.0021091344"/><linearGradient id="linear16" gradientUnits="userSpaceOnUse" x1="120.5780059468" x2="73.4484925896" xlink:href="#lg6" y1="121.5538128188" y2="121.5538128188"/><linearGradient id="lg7"><stop offset="0" stop-color="#4f4a72"/><stop offset="1" stop-color="#3b395f"/></linearGradient><linearGradient id="linear17" gradientTransform="matrix(1.003924 0 0 -1.003924 -112.351291 616.643568)" gradientUnits="userSpaceOnUse" x1="226.364" x2="226.364" xlink:href="#lg7" y1="165.3312" y2="494.739"/><linearGradient id="linear18" gradientTransform="matrix(1.003924 0 0 -1.003924 -112.351291 616.643568)" gradientUnits="userSpaceOnUse" x1="318.5667" x2="318.5667" xlink:href="#lg7" y1="165.3312" y2="494.739"/><linearGradient id="linear19" gradientTransform="matrix(1.003924 0 0 -1.003924 -112.351291 616.643568)" gradientUnits="userSpaceOnUse" x1="226.364" x2="226.364" xlink:href="#lg7" y1="226.501" y2="555.9088"/><linearGradient id="linear20" gradientTransform="matrix(1.003924 0 0 -1.003924 -112.351291 616.643568)" gradientUnits="userSpaceOnUse" x1="258.0398" x2="258.0398" xlink:href="#lg7" y1="287.6708" y2="617.0786"/><linearGradient id="linear21" gradientTransform="matrix(1.003924 0 0 -1.003924 -112.351291 616.643568)" gradientUnits="userSpaceOnUse" x1="401.3573" x2="401.3573" xlink:href="#lg7" y1="287.6708" y2="617.0786"/><linearGradient id="linear22" gradientUnits="userSpaceOnUse" x1="192.448724322" x2="192.448724322" y1="123.1070840316" y2="145.8909384268"><stop offset="0" stop-color="#ffb5b0"/><stop offset="1" stop-color="#ff70ac"/></linearGradient><linearGradient id="linear23" gradientUnits="userSpaceOnUse" x1="442.828373846" x2="330.267411042" xlink:href="#lg2" y1="459.3367924536" y2="346.775930042"/><linearGradient id="linear24" gradientUnits="userSpaceOnUse" x1="328.8249730388" x2="415.1624370388" y1="248.6812109008" y2="429.3875309008"><stop offset="0" stop-color="#00e7b2"/><stop offset=".158" stop-color="#02e3b0"/><stop offset=".318" stop-color="#08d7ab"/><stop offset=".479" stop-color="#12c2a3"/><stop offset=".6406" stop-color="#21a698"/><stop offset=".8029" stop-color="#338189"/><stop offset=".9635" stop-color="#495577"/><stop offset="1" stop-color="#4f4a72"/></linearGradient><path d="m369.429688 512h-352.015626c-9.617187 0-17.414062-7.796875-17.414062-17.414062v-446.761719c0-26.410157 21.414062-47.824219 47.824219-47.824219h386.847656c-26.414063 0-47.828125 21.414062-47.828125 47.824219v446.761719c0 9.617187-7.796875 17.414062-17.414062 17.414062zm0 0" fill="url(#linear0)"/><path d="m386.84375 110.320312h78.238281c9.617188 0 17.414063-7.796874 17.414063-17.414062v-45.082031c0-26.410157-21.410156-47.824219-47.824219-47.824219s-47.828125 21.414062-47.828125 47.824219zm0 0" fill="url(#linear1)"/><path d="m386.84375 413.144531v81.441407c0 9.617187-7.796875 17.414062-17.414062 17.414062h-352.011719c-9.621094 0-17.417969-7.796875-17.417969-17.414062v-81.441407zm0 0" fill="url(#linear2)"/><path d="m386.84375 163.273438-68.007812-68.007813c-9.5625-11.726563-25.039063-19.355469-42.511719-19.355469-29.046875 0-52.59375 21.058594-52.59375 47.03125v11.121094c0 13.757812 6.609375 26.136719 17.140625 34.738281l145.976562 145.972657v-151.5zm0 0" fill="url(#linear3)"/><path d="m386.84375 331.023438-235.753906-235.757813c-9.566406-11.726563-25.039063-19.355469-42.515625-19.355469-29.046875 0-52.589844 21.058594-52.589844 47.03125v11.121094c0 13.757812 6.609375 26.136719 17.140625 34.738281l313.722656 313.722657v-151.5zm0 0" fill="url(#linear4)"/><path d="m328.914062 122.941406c0-25.972656-23.546874-47.03125-52.589843-47.03125-29.046875 0-52.59375 21.054688-52.59375 47.03125v11.121094c0 25.976562 23.546875 47.035156 52.59375 47.035156 29.042969 0 52.589843-21.058594 52.589843-47.035156 0-.035156 0-11.082031 0-11.121094zm0 0" fill="url(#linear5)"/><path d="m319.636719 96.265625c-9.488281-12.296875-25.347657-20.355469-43.316407-20.355469-17.964843 0-33.828124 8.058594-43.3125 20.355469v64.472656c9.484376 12.296875 25.347657 20.355469 43.3125 20.355469 17.96875 0 33.828126-8.058594 43.316407-20.355469zm0 0" fill="url(#linear6)"/><path d="m245.472656 172.15625c8.667969 5.621094 19.324219 8.9375 30.847656 8.9375 11.527344 0 22.183594-3.316406 30.847657-8.9375v-87.304688c-8.664063-5.625-19.320313-8.941406-30.847657-8.941406-11.523437 0-22.179687 3.316406-30.847656 8.941406zm0 0" fill="url(#linear7)"/><path d="m264.375 179.875c3.835938.796875 7.835938 1.21875 11.945312 1.21875 4.113282 0 8.109376-.421875 11.949219-1.21875v-102.746094c-3.839843-.796875-7.835937-1.21875-11.949219-1.21875-4.109374 0-8.109374.421875-11.945312 1.21875zm0 0" fill="url(#linear8)"/><path d="m328.914062 122.941406c0-25.972656-23.546874-47.03125-52.59375-47.03125-29.042968 0-52.589843 21.058594-52.589843 47.03125 0 25.976563 23.546875 47.035156 52.589843 47.035156 29.046876 0 52.59375-21.058593 52.59375-47.035156zm0 0" fill="url(#radial0)"/><path d="m323.050781 122.941406c0-23.078125-20.921875-41.789062-46.730469-41.789062-25.804687 0-46.726562 18.710937-46.726562 41.789062 0 23.082032 20.921875 41.789063 46.726562 41.789063 25.808594 0 46.730469-18.707031 46.730469-41.789063zm0 0" fill="url(#radial1)"/><path d="m318.625 122.941406c0-20.890625-18.941406-37.828125-42.304688-37.828125-23.359374 0-42.300781 16.9375-42.300781 37.828125 0 20.894532 18.941407 37.832032 42.300781 37.832032 23.363282 0 42.304688-16.9375 42.304688-37.832032zm0 0" fill="url(#radial2)"/><path d="m325.804688 138.90625-44.121094-43.707031c-.058594-.566407-.535156-1.007813-1.117188-1.007813h-4.101562c-.621094 0-1.121094.503906-1.121094 1.125v3.527344l-4.296875-3.644531c-.058594-.566407-.535156-1.007813-1.117187-1.007813h-4.101563c-.621094 0-1.121094.503906-1.121094 1.125v3.527344h-3.539062c-.621094 0-1.125.503906-1.125 1.125v3.632812c0 .578126.441406 1.058594 1.007812 1.117188l3.65625 3.910156v29.753906h-3.539062c-.621094 0-1.125.503907-1.125 1.121094v3.632813c0 .582031.441406 1.058593 1.007812 1.117187l24.800781 24.949219c18.542969-3.035156 33.6875-14.765625 39.953126-30.296875zm0 0" fill="url(#linear9)"/><path d="m290.984375 123.230469c-1.078125-1.550781-2.671875-2.742188-4.78125-3.570313 3.519531-1.574218 5.277344-4.929687 5.277344-10.066406 0-4.015625-1.136719-6.8125-3.414063-8.386719-1.703125-1.171875-3.828125-1.90625-6.378906-2.207031v-3.683594c0-.621094-.5-1.121094-1.121094-1.121094h-4.101562c-.621094 0-1.121094.5-1.121094 1.121094v3.53125h-4.292969v-3.53125c0-.621094-.5-1.121094-1.121093-1.121094h-4.101563c-.621094 0-1.121094.5-1.121094 1.121094v3.53125h-3.539062c-.621094 0-1.125.503906-1.125 1.121094v3.632812c0 .621094.503906 1.121094 1.125 1.121094h3.539062v33.660156h-3.539062c-.621094 0-1.125.503907-1.125 1.125v3.628907c0 .621093.503906 1.125 1.125 1.125h3.539062v3.53125c0 .617187.5 1.121093 1.121094 1.121093h4.101563c.621093 0 1.121093-.503906 1.121093-1.121093v-3.53125h4.292969v3.53125c0 .617187.5 1.121093 1.121094 1.121093h4.101562c.621094 0 1.121094-.503906 1.121094-1.121093v-3.585938c3.097656-.238281 5.617188-1.253906 7.558594-3.050781 2.234375-2.074219 3.355468-5.386719 3.355468-9.941406v-1.183594c0-2.980469-.539062-5.246094-1.617187-6.800781zm-19.753906-18.542969h7.269531c4.265625 0 6.398438 1.988281 6.398438 5.964844 0 4.265625-2.09375 6.398437-6.277344 6.398437h-7.390625zm14.785156 26.03125c0 5.136719-2.339844 7.703125-7.019531 7.703125h-7.765625v-16.152344h7.765625c2.316406 0 4.066406.578125 5.25 1.738281 1.179687 1.160157 1.769531 3.066407 1.769531 5.714844zm0 0" fill="url(#linear10)"/><path d="m161.167969 122.941406c0-25.972656-23.546875-47.03125-52.59375-47.03125-29.042969 0-52.589844 21.054688-52.589844 47.03125v11.121094c0 25.976562 23.546875 47.035156 52.589844 47.035156 29.046875 0 52.59375-21.058594 52.59375-47.035156 0-.035156 0-11.082031 0-11.121094zm0 0" fill="url(#linear11)"/><path d="m151.890625 96.265625c-9.488281-12.296875-25.347656-20.355469-43.316406-20.355469s-33.828125 8.058594-43.316407 20.355469v64.472656c9.488282 12.296875 25.347657 20.355469 43.316407 20.355469s33.828125-8.058594 43.316406-20.355469zm0 0" fill="url(#linear12)"/><path d="m77.726562 172.15625c8.667969 5.621094 19.324219 8.9375 30.847657 8.9375 11.523437 0 22.183593-3.316406 30.847656-8.9375v-87.304688c-8.664063-5.625-19.324219-8.941406-30.847656-8.941406-11.523438 0-22.179688 3.316406-30.847657 8.941406zm0 0" fill="url(#linear13)"/><path d="m96.625 179.875c3.839844.796875 7.839844 1.21875 11.949219 1.21875s8.109375-.421875 11.949219-1.21875v-102.746094c-3.839844-.796875-7.839844-1.21875-11.949219-1.21875s-8.109375.421875-11.949219 1.21875zm0 0" fill="url(#linear14)"/><path d="m161.167969 122.941406c0-25.972656-23.546875-47.03125-52.59375-47.03125s-52.59375 21.058594-52.59375 47.03125c0 25.976563 23.546875 47.035156 52.59375 47.035156s52.59375-21.058593 52.59375-47.035156zm0 0" fill="url(#radial3)"/><path d="m155.300781 122.941406c0-23.078125-20.917969-41.789062-46.726562-41.789062-25.808594 0-46.726563 18.710937-46.726563 41.789062 0 23.082032 20.917969 41.789063 46.726563 41.789063 25.808593 0 46.726562-18.707031 46.726562-41.789063zm0 0" fill="url(#radial4)"/><path d="m150.875 122.941406c0-20.890625-18.9375-37.828125-42.300781-37.828125s-42.300781 16.9375-42.300781 37.828125c0 20.894532 18.9375 37.832032 42.300781 37.832032s42.300781-16.9375 42.300781-37.832032zm0 0" fill="url(#radial5)"/><path d="m158.585938 137.527344-36.597657-36.597656c-.519531-.8125-1.527343-1.488282-3.023437-2.027344-1.613282-.578125-3.332032-.972656-5.15625-1.1875-.097656-.0625-.195313-.117188-.296875-.164063l-2.699219-2.890625c-.421875-.3125-.878906-.46875-1.367188-.46875-.535156 0-.992187.15625-1.371093.46875-.378907.3125-.566407.667969-.566407 1.070313v1.9375c-3.609374.398437-6.628906 1.601562-9.054687 3.605469-2.429687 2.007812-3.640625 4.945312-3.640625 8.8125 0 1.378906.15625 2.632812.46875 3.769531.308594 1.132812.824219 2.121093 1.535156 2.964843.710938.84375 1.390625 1.566407 2.039063 2.167969.003906.003907.007812.007813.011719.011719 0 0 8.402343 8.402344 8.40625 8.40625.082031.085938.15625.164062.234374.242188v11.179687c-1.972656-.136719-3.714843-.644531-5.214843-1.535156-1.503907-.890625-2.6875-1.722657-3.546875-2.5-.859375-.777344-1.554688-1.167969-2.082032-1.167969-.796874 0-1.507812.421875-2.125 1.265625-.621093.84375-.929687 1.691406-.929687 2.535156 0 1.347657.761719 2.679688 2.285156 3.992188l26.832031 26.832031c16.941407-4.222656 30.4375-15.839844 35.859376-30.722656zm0 0" fill="url(#linear15)"/><path d="m93.609375 137.425781c0-.84375.308594-1.6875.925781-2.535156.621094-.84375 1.328125-1.265625 2.125-1.265625.53125 0 1.222656.390625 2.085938 1.167969.859375.777343 2.039062 1.613281 3.542968 2.5 1.503907.890625 3.242188 1.402343 5.214844 1.535156v-15.667969c-1.335937-.492187-2.359375-.878906-3.070312-1.167968-.714844-.289063-1.660156-.710938-2.839844-1.265626-1.179688-.558593-2.09375-1.136718-2.742188-1.734374-.644531-.601563-1.324218-1.324219-2.035156-2.167969-.714844-.84375-1.226562-1.832031-1.539062-2.96875-.3125-1.132813-.46875-2.386719-.46875-3.765625 0-3.871094 1.214844-6.808594 3.644531-8.8125 2.425781-2.003906 5.445313-3.207032 9.050781-3.609375v-1.9375c0-.398438.191406-.753907.570313-1.066407.378906-.3125.835937-.46875 1.371093-.46875.488282 0 .945313.15625 1.367188.46875s.636719.667969.636719 1.066407v1.804687c2.714843.089844 5.222656.546875 7.515625 1.371094 2.292968.824219 3.441406 1.96875 3.441406 3.441406 0 .800782-.269531 1.636719-.808594 2.503906-.539062.871094-1.257812 1.304688-2.15625 1.304688-.355468 0-1.332031-.378906-2.929687-1.136719-1.59375-.757812-3.285157-1.203125-5.066407-1.335937v13.542968c1.773438.664063 3.246094 1.300782 4.417969 1.898438 1.175781.601562 2.414063 1.433594 3.722657 2.503906 1.308593 1.066406 2.292968 2.410156 2.957031 4.03125.664062 1.625.996093 3.523438.996093 5.703125 0 3.980469-1.085937 7.140625-3.257812 9.488281-2.167969 2.347657-5.113281 3.789063-8.835938 4.324219v2.234375c0 .390625-.210937.742188-.632812 1.050782-.425781.304687-.882812.457031-1.371094.457031-.535156 0-.992187-.152344-1.371094-.457031-.378906-.308594-.566406-.65625-.566406-1.050782v-2.03125c-3.875-.046875-7.160156-.933594-9.855468-2.664062-2.695313-1.730469-4.039063-3.492188-4.039063-5.289063zm7.816406-28.003906c0 1.734375.539063 3.054687 1.621094 3.964844 1.078125.914062 2.699219 1.769531 4.859375 2.570312v-12.148437c-4.320312.53125-6.480469 2.40625-6.480469 5.613281zm9.621094 29.269531c3.917969-.710937 5.878906-2.910156 5.878906-6.601562 0-1.953125-.511719-3.488282-1.535156-4.597656-1.027344-1.113282-2.472656-2.066407-4.34375-2.867188zm0 0" fill="url(#linear16)"/><path d="m169.050781 359.160156h-108.300781c-2.632812 0-4.769531 2.136719-4.769531 4.769532v11.605468c0 2.632813 2.136719 4.765625 4.769531 4.765625h108.300781c2.636719 0 4.769531-2.132812 4.769531-4.765625v-11.605468c0-2.632813-2.136718-4.769532-4.769531-4.769532zm0 0" fill="url(#linear17)"/><path d="m226.714844 359.160156h-38.5c-2.632813 0-4.765625 2.136719-4.765625 4.769532v11.605468c0 2.632813 2.132812 4.765625 4.765625 4.765625h38.5c2.632812 0 4.765625-2.132812 4.765625-4.765625v-11.605468c0-2.632813-2.132813-4.769532-4.765625-4.769532zm0 0" fill="url(#linear18)"/><path d="m169.050781 297.753906h-108.300781c-2.632812 0-4.769531 2.132813-4.769531 4.765625v11.605469c0 2.632812 2.136719 4.769531 4.769531 4.769531h108.300781c2.636719 0 4.769531-2.136719 4.769531-4.769531v-11.605469c0-2.632812-2.136718-4.765625-4.769531-4.765625zm0 0" fill="url(#linear19)"/><path d="m232.652344 236.34375h-171.902344c-2.632812 0-4.769531 2.132812-4.769531 4.765625v11.605469c0 2.632812 2.136719 4.769531 4.769531 4.769531h171.902344c2.632812 0 4.765625-2.136719 4.765625-4.769531v-11.605469c0-2.632813-2.132813-4.765625-4.765625-4.765625zm0 0" fill="url(#linear20)"/><path d="m324.148438 236.34375h-67.136719c-2.632813 0-4.765625 2.132812-4.765625 4.765625v11.605469c0 2.632812 2.132812 4.769531 4.765625 4.769531h67.136719c2.632812 0 4.765624-2.136719 4.765624-4.769531v-11.605469c0-2.632813-2.132812-4.765625-4.765624-4.765625zm0 0" fill="url(#linear21)"/><path d="m180.941406 141.902344c0-1.609375 1.304688-2.914063 2.914063-2.914063h17.1875c1.609375 0 2.914062 1.304688 2.914062 2.914063 0 2.597656 3.140625 3.898437 4.976563 2.0625l13.398437-13.402344c1.140625-1.136719 1.140625-2.984375 0-4.121094l-13.398437-13.402344c-1.835938-1.835937-4.976563-.535156-4.976563 2.0625 0 1.609376-1.304687 2.914063-2.914062 2.914063h-17.1875c-1.609375 0-2.914063-1.304687-2.914063-2.914063 0-2.597656-3.140625-3.898437-4.976562-2.0625l-13.402344 13.402344c-1.136719 1.136719-1.136719 2.984375 0 4.121094l13.402344 13.402344c1.835937 1.835937 4.976562.535156 4.976562-2.0625zm0 0" fill="url(#linear22)"/><path d="m323.046875 354.097656c-2.804687 2.808594-7.359375 2.808594-10.167969 0l-25.421875-25.425781c-12.199219-12.195313-31.976562-12.195313-44.171875 0-12.199218 12.199219-12.199218 31.976563 0 44.171875l136.050782 136.054688c4.535156-3.144532 7.507812-8.378907 7.507812-14.316407v-204.28125zm0 0" fill="url(#linear23)"/><path d="m312.878906 354.097656-25.421875-25.425781c-12.195312-12.195313-31.972656-12.195313-44.171875 0-12.199218 12.199219-12.199218 31.976563 0 44.175781l38.003906 38.003906c20.253907 20.253907 53.097657 20.253907 73.351563 0l118.707031-118.710937c12.199219-12.195313 12.199219-31.972656 0-44.171875-12.199218-12.199219-31.976562-12.199219-44.171875 0l-106.128906 106.128906c-2.804687 2.804688-7.359375 2.804688-10.167969 0zm0 0" fill="url(#linear24)"/></svg>