<svg height="512" viewBox="0 0 24 24" width="512" xmlns="http://www.w3.org/2000/svg"><g id="Layer_2" data-name="Layer 2"><path d="m3.5 1.25a2.25 2.25 0 0 0 -2.25 2.25v4.5a.76.76 0 0 0 .75.75h3a.76.76 0 0 0 .75-.75v-4.5a2.25 2.25 0 0 0 -2.25-2.25z" fill="#faa701"/><path d="m3.5 1.25h2.5v2h-2.5z" fill="#faa701"/><path d="m19.75 6v16a.76.76 0 0 1 -.75.75h-10.5a3.26 3.26 0 0 1 -3.25-3.25v-16.63a1.61 1.61 0 0 0 -1.4-1.6h.15 11a4.75 4.75 0 0 1 4.75 4.73z" fill="#f9cd16"/><g fill="#fff"><path d="m15.5 6.75h-6a.75.75 0 0 1 0-1.5h6a.75.75 0 0 1 0 1.5z"/><path d="m12.5 13.75h-3a.75.75 0 0 1 0-1.5h3a.75.75 0 0 1 0 1.5z"/><path d="m15.5 10.25h-6a.75.75 0 0 1 0-1.5h6a.75.75 0 0 1 0 1.5z"/></g><path d="m22.75 17.5v2a3.26 3.26 0 0 1 -3.25 3.25h-10.59a1.81 1.81 0 0 0 1.34-1.75v-3.5a1.25 1.25 0 0 1 1.25-1.25h10a1.25 1.25 0 0 1 1.25 1.25z" fill="#faa701"/></g></svg>