<svg id="Layer_1" enable-background="new 0 0 512 512" viewBox="0 0 512 512" xmlns="http://www.w3.org/2000/svg"><g id="Layer_2_1_"><g id="Layer_1-2"><g id="JS"><path d="m359.9 141c-13.3 0-24.1-10.8-24.1-24.1v-116.9h-165.3c-34.1 0-61.7 27.6-61.7 61.7v388.6c0 34.1 27.6 61.7 61.7 61.7h243.5c34.1 0 61.7-27.6 61.7-61.7v-309.3z" fill="#1d0142"/><path d="m359.9 141h115.9l-140-141v116.9c0 13.3 10.8 24.1 24.1 24.1z" fill="#cc8dfc"/><path d="m78.7 216h298.1c23.4 0 42.4 19 42.4 42.4v87.1c0 23.4-19 42.4-42.4 42.4h-298.1c-23.4 0-42.4-19-42.4-42.4v-87.1c0-23.4 18.9-42.4 42.4-42.4z" fill="#cc8dfc"/><g fill="#1d0142"><path d="m178 354.5 2.1-14.3c2 .5 4.1.7 6.1.8 7.5 0 10.8-3.6 10.8-12.8v-78.8h15.9v81.6c0 15-9.8 24.9-24.8 24.9-3.3.1-6.8-.4-10.1-1.4z"/><path d="m226.2 330.2v-3.8l15.3-1.6v3.9c0 7.6 3.9 12.3 10.2 12.3s10.2-3.9 10.2-10c0-6.6-2.7-11.4-14.6-22.6-15.8-14.9-20.3-23-20.3-34.5 0-15.6 9-25.8 24.1-25.8s24.1 10.2 24.1 25.9v2.7l-15.3 1.6v-3c0-8.1-3.1-12.3-8.7-12.3s-8.7 3.5-8.7 10 3.3 11.4 14.6 22.6c15.3 15.3 20.3 23 20.3 34.5 0 15-10.5 25.8-25.6 25.8s-25.6-10.7-25.6-25.7z"/></g></g></g></g></svg>