<svg id="Icons" height="512" viewBox="0 0 60 60" width="512" xmlns="http://www.w3.org/2000/svg"><path d="m51 24v-3a16 16 0 0 0 -16-16h-10a16 16 0 0 0 -16 16v3l-4 .35v-3.35a19.994 19.994 0 0 1 20-20h10a19.994 19.994 0 0 1 20 20v3.35z" fill="#2980ba"/><path d="m55 45.65v1.35a10 10 0 0 1 -10 10h-8v-4h8a6 6 0 0 0 6-6v-1z" fill="#3f5c6c"/><path d="m7 24h2a2 2 0 0 1 2 2v18a2 2 0 0 1 -2 2h-2a6 6 0 0 1 -6-6v-10a6 6 0 0 1 6-6z" fill="#3b97d3"/><path d="m55 24h2a2 2 0 0 1 2 2v18a2 2 0 0 1 -2 2h-2a6 6 0 0 1 -6-6v-10a6 6 0 0 1 6-6z" fill="#3b97d3" transform="matrix(-1 0 0 -1 108 70)"/><rect fill="#547580" height="8" rx="2" width="7" x="30" y="51"/><path d="m44 32.59v10.41a2.006 2.006 0 0 1 -2 2h-24a2.006 2.006 0 0 1 -2-2v-10.41z" fill="#a56a43"/><path d="m37 25h-2v-1c-.005-.4-.191-4-5-4s-5 3.6-5 4.007l-.013.993-1.987-.007v-.993c0-2.075 1.463-6 7-6s7 3.925 7 6z" fill="#805333"/><path d="m32 35c6.348 0 10.209-1.493 11.933-2.372a1.98 1.98 0 0 0 1.067-1.77v-4.858a2 2 0 0 0 -2-2h-26a2 2 0 0 0 -2 2v4.858a1.98 1.98 0 0 0 1.067 1.77c1.724.879 5.585 2.372 11.933 2.372z" fill="#cb8252"/><rect fill="#d1d4d1" height="5" rx="2" width="4" x="28" y="33"/></svg>