<?xml version="1.0" encoding="iso-8859-1"?>
<!-- Generator: Adobe Illustrator 19.0.0, SVG Export Plug-In . SVG Version: 6.00 Build 0)  -->
<svg version="1.1" id="Capa_1" xmlns="http://www.w3.org/2000/svg" xmlns:xlink="http://www.w3.org/1999/xlink" x="0px" y="0px"
	 viewBox="0 0 511.997 511.997" style="enable-background:new 0 0 511.997 511.997;" xml:space="preserve">
<path style="fill:#FFD15C;" d="M335.07,338.13c0,0,6.4,1.067,6.4-8.533c0-7.467,0-7.467,1.067-8.533c0,0,1.067,2.133,2.133,2.133
	c0,0-1.067,5.333,0,5.333c0,0-2.133,4.267-2.133,5.333l-3.2,4.267c0,0-4.267,1.067-5.333,2.133l1.067,3.2c0,0,6.4-1.067,7.467-2.133
	s6.4-6.4,6.4-6.4l3.2-12.8c0,0-2.133-13.867-4.267-17.067c-2.133-3.2-2.133-3.2-2.133-3.2l-11.733,1.067L335.07,338.13z"/>
<path style="fill:#425A6B;" d="M335.07,308.263c0,0,13.867-3.2,17.067-1.067c0,0,0-17.067,0-20.267c0-3.2-1.067-3.2-3.2-8.533
	c-2.133-5.333-5.333-34.133-6.4-40.533c-1.067-6.4-5.333-26.667-5.333-26.667l-11.733,61.867L335.07,308.263z"/>
<path style="fill:#F5B54C;" d="M273.204,73.597c0,0,1.067,13.867,0,17.067c-1.067,3.2,32,37.333,32,37.333l6.4-5.333
	c0,0,3.2-23.467,3.2-27.733s0-4.267,0-4.267L273.204,73.597z"/>
<g>
	<path style="fill:#F05640;" d="M328.67,34.13c0,0-2.133-28.8-22.4-33.067s-33.067,5.333-37.333,10.667s-11.733,24.533-5.333,38.4
		L328.67,34.13z"/>
	<path style="fill:#F05640;" d="M266.804,57.597c0,0-8.533-8.533,4.267-13.867s27.733-9.6,43.733-9.6s22.4-2.133,24.533,0
		c0,0-10.667,10.667-12.8,12.8L266.804,57.597z"/>
</g>
<path style="fill:#FFD15C;" d="M312.67,33.063c5.333,0,10.667,3.2,12.8,7.467c1.067,2.133,2.133,4.267,2.133,6.4
	c0,6.4,0,12.8,1.067,14.933c1.067,2.133,1.067,20.267-4.267,26.667c-5.333,6.4-9.6,12.8-14.933,12.8s-29.867-13.867-32-18.133
	c-3.2-4.267-8.533-25.6-7.467-30.933C270.004,46.93,291.337,31.997,312.67,33.063z"/>
<g>
	<path style="fill:#425A6B;" d="M313.737,33.063c0,0,12.8,6.4,13.867,14.933c0,0,0-1.067,1.067-3.2
		c1.067-4.267-2.133-10.667-5.333-12.8C323.337,31.997,313.737,33.063,313.737,33.063z"/>
	<path style="fill:#425A6B;" d="M283.87,41.597c0,0,0,4.267-3.2,7.467c-4.267,3.2-2.133,12.8-2.133,12.8l-3.2,1.067
		c0-2.133-2.133-7.467-5.333-7.467s1.067,16,1.067,17.067c0-1.067-4.267-13.867-5.333-16c-1.067-3.2,0-8.533,3.2-11.733
		c3.2-4.267,27.733-8.533,29.867-9.6C291.337,36.263,283.87,41.597,283.87,41.597z"/>
</g>
<ellipse transform="matrix(-0.2091 -0.9779 0.9779 -0.2091 265.2306 342.495)" style="fill:#FFD15C;" cx="271.117" cy="63.991" rx="9.6" ry="5.333"/>
<path style="fill:#F26F5A;" d="M339.337,34.13c-2.133-2.133-8.533,0-24.533,0s-30.933,4.267-43.733,9.6
	c-13.867,5.333-4.267,13.867-4.267,13.867l0,0l-1.067,2.133c0,0-8.533-1.067-7.467-7.467c1.067-5.333,7.467-8.533,12.8-11.733
	c4.267-2.133,23.467-10.667,40.533-11.733C328.67,28.797,339.337,29.863,339.337,34.13z"/>
<path style="fill:#344A5E;" d="M274.27,78.93c0,0,6.4,8.533,10.667,10.667c3.2,2.133,21.333,18.133,22.4,19.2c0,0,0,2.133,0,4.267
	c0,3.2,2.133,6.4,5.333,7.467l0,0l3.2-21.333c0,0,4.267-3.2,7.467-8.533l14.933,11.733l-18.133,16l5.333,6.4
	c0,0,12.8,13.867,13.867,24.533c1.067,11.733,3.2,40.533,2.133,48s-3.2,65.067-3.2,65.067s-1.067,61.867-1.067,69.333
	c0,7.467-10.667,97.067-14.933,115.2s-5.333,35.2-6.4,42.667c-1.067,7.467-9.6,18.133-9.6,22.4h-86.4
	c0,0,11.733-104.533,10.667-130.133c-1.067-25.6-3.2-50.133-3.2-58.667s-6.4-149.333-6.4-149.333s-4.267-28.8,2.133-41.6
	c6.4-12.8,42.667-30.933,42.667-30.933C268.937,97.063,272.137,88.53,274.27,78.93z"/>
<path style="fill:#FFD15C;" d="M271.07,349.863l3.2,1.067c0,0,1.067,6.4,0,10.667c-1.067,3.2-5.333,3.2-5.333,3.2
	S265.737,351.997,271.07,349.863z"/>
<path style="fill:#425A6B;" d="M306.27,113.063c0-2.133,0-4.267,0-4.267c-1.067-1.067-18.133-17.067-22.4-19.2
	c-3.2-2.133-10.667-10.667-10.667-10.667c-2.133,7.467-4.267,14.933-7.467,20.267l1.067,1.067c0,0,33.067,14.933,41.6,24.533
	c3.2,4.267,7.467,10.667,8.533,12.8c-1.067-4.267-4.267-12.8-6.4-17.067C308.404,119.463,306.27,116.263,306.27,113.063z"/>
<path style="fill:#4B6575;" d="M336.137,103.463L321.204,91.73c-3.2,4.267-7.467,8.533-7.467,8.533l-3.2,21.333l0,0l6.4,17.067
	c0,0-1.067-13.867,0-17.067L336.137,103.463z"/>
<path style="fill:#2E4351;" d="M325.47,316.797c0,0-10.667,44.8-12.8,53.333c-2.133,7.467-9.6,22.4-9.6,22.4
	s-24.533,93.867-25.6,103.467c-1.067,6.4-3.2,12.8-4.267,16h8.533c0,0,20.267-82.133,25.6-97.067
	C311.604,401.063,324.404,332.797,325.47,316.797z"/>
<g>
	<path style="fill:#EA4939;" d="M289.204,471.463l34.133,9.6l5.333-7.467c2.133-3.2,3.2-6.4,3.2-9.6l5.333-62.933l-22.4,3.2
		L289.204,471.463z"/>
	<path style="fill:#EA4939;" d="M330.804,379.73l11.733,2.133c0,0,3.2,12.8,0,20.267l-10.667,12.8l-8.533-18.133L330.804,379.73z"/>
</g>
<path style="fill:#F05640;" d="M171.87,402.13l-3.2,6.4l3.2,53.333c0,5.333,4.267,9.6,9.6,10.667l20.267,2.133
	c0,0,85.333,6.4,87.467,6.4s34.133,0,34.133,0l4.267-65.067l-1.067-27.733L171.87,402.13z"/>
<path style="fill:#F26F5A;" d="M164.404,379.73c-3.2,2.133-5.333,6.4-4.267,10.667c0,6.4,2.133,17.067,8.533,18.133
	c9.6,1.067,35.2,2.133,35.2,2.133l0,0c0,4.267,3.2,7.467,6.4,7.467l66.133,3.2c4.267,0,7.467-2.133,7.467-6.4l0,0
	c0,0,42.667,5.333,48,1.067c2.133-2.133,2.133-7.467,2.133-12.8c-1.067-7.467,2.133-14.933,8.533-20.267l0,0c0,0,0-5.333-19.2-6.4
	c-19.2-1.067-136.533-6.4-136.533-6.4S171.87,373.33,164.404,379.73z"/>
<path style="fill:#67C5B8;" d="M278.537,361.597v21.333c-3.2,0-5.333,0-8.533,0v-21.333l-37.333-1.067v21.333
	c-3.2,0-5.333,0-8.533,0v-20.267c0-2.133,1.067-4.267,2.133-6.4c2.133-2.133,4.267-2.133,6.4-2.133l37.333,1.067
	C275.337,353.063,278.537,357.33,278.537,361.597z"/>
<path style="fill:#FFD15C;" d="M268.937,354.13c0,0-1.067,5.333-1.067,8.533c1.067,3.2,1.067,5.333,1.067,6.4
	c-1.067,1.067-3.2,4.267-5.333,4.267c-2.133,0-4.267-3.2-4.267-3.2s-2.133,2.133-4.267,2.133c-2.133,0-4.267-2.133-4.267-2.133
	s-2.133,2.133-4.267,2.133s-4.267-3.2-4.267-3.2s-3.2,1.067-6.4,0c-1.067-1.067-1.067-6.4-1.067-8.533s1.067-16,1.067-16l29.867-6.4
	l8.533,12.8L268.937,354.13z"/>
<path style="fill:#425A6B;" d="M239.07,125.863c0,0,27.733,3.2,33.067,27.733c3.2,16-4.267,28.8-6.4,37.333
	c-2.133,8.533-5.333,41.6-5.333,52.267s4.267,60.8,3.2,68.267c-1.067,6.4-2.133,8.533-2.133,8.533l4.267,19.2
	c0,0-21.333,7.467-33.067,6.4l1.067-18.133c0,0-12.8-34.133-13.867-48c-1.067-14.933-6.4-42.667-6.4-62.933s1.067-57.6,5.333-67.2
	C224.137,139.73,225.204,126.93,239.07,125.863z"/>
<g>
	<path style="fill:#F5B54C;" d="M259.337,370.13L259.337,370.13c0-1.067,0-1.067-1.067-2.133v-1.067v-1.067c0,0,0,0,0,1.067v1.067
		C259.337,369.063,259.337,369.063,259.337,370.13L259.337,370.13z"/>
	<path style="fill:#F5B54C;" d="M251.87,370.13C251.87,370.13,250.804,370.13,251.87,370.13c0-1.067-1.067-1.067-1.067-1.067v-1.067
		l0,0l0,0c0,0,0,1.067,1.067,1.067C250.804,369.063,250.804,369.063,251.87,370.13C250.804,370.13,251.87,370.13,251.87,370.13z"/>
	<path style="fill:#F5B54C;" d="M243.337,369.063L243.337,369.063c0-1.067-1.067-2.133-1.067-2.133c0-1.067,0-1.067,0-2.133v-1.067
		c0,0,0,0,0,1.067c0,0,0,1.067,1.067,2.133C243.337,366.93,243.337,367.997,243.337,369.063L243.337,369.063z"/>
</g>
<g>
	<path style="fill:#F05640;" d="M239.07,380.797C239.07,381.863,239.07,381.863,239.07,380.797
		C239.07,381.863,239.07,381.863,239.07,380.797h-18.133l0,0c0-3.2,4.267-3.2,8.533-3.2
		C233.737,377.597,239.07,377.597,239.07,380.797z"/>
	<path style="fill:#F05640;" d="M282.804,383.997L282.804,383.997L282.804,383.997H264.67l0,0c0-3.2,4.267-3.2,8.533-3.2
		C278.537,379.73,282.804,380.797,282.804,383.997z"/>
</g>
<g>
</g>
<g>
</g>
<g>
</g>
<g>
</g>
<g>
</g>
<g>
</g>
<g>
</g>
<g>
</g>
<g>
</g>
<g>
</g>
<g>
</g>
<g>
</g>
<g>
</g>
<g>
</g>
<g>
</g>
</svg>
