<svg id="Capa_1" enable-background="new 0 0 512 512" height="512" viewBox="0 0 512 512" width="512" xmlns="http://www.w3.org/2000/svg" xmlns:xlink="http://www.w3.org/1999/xlink"><linearGradient id="lg1"><stop offset="0" stop-color="#7b7da1"/><stop offset=".3104" stop-color="#6d6f93"/><stop offset=".8987" stop-color="#494c6d"/><stop offset="1" stop-color="#424566"/></linearGradient><linearGradient id="SVGID_1_" gradientTransform="matrix(1 0 0 -1 0 510.8)" gradientUnits="userSpaceOnUse" x1="255.95" x2="255.95" xlink:href="#lg1" y1="220.392" y2="33.371"/><linearGradient id="SVGID_2_" gradientTransform="matrix(1 0 0 -1 0 510.8)" gradientUnits="userSpaceOnUse" x1="255.95" x2="255.95" y1="30.009" y2="83.641"><stop offset="0" stop-color="#282b4a"/><stop offset="1" stop-color="#282b4a" stop-opacity="0"/></linearGradient><linearGradient id="lg2"><stop offset="0" stop-color="#a1a4c7"/><stop offset="1" stop-color="#a1a4c7" stop-opacity="0"/></linearGradient><linearGradient id="SVGID_3_" gradientTransform="matrix(1 0 0 -1 0 510.8)" gradientUnits="userSpaceOnUse" x1="3.751" x2="47.441" xlink:href="#lg2" y1="138.3" y2="138.3"/><linearGradient id="SVGID_4_" gradientTransform="matrix(-1 0 0 -1 2114.729 510.8)" gradientUnits="userSpaceOnUse" x1="1606.472" x2="1650.19" xlink:href="#lg2" y1="138.3" y2="138.3"/><linearGradient id="SVGID_5_" gradientTransform="matrix(1 0 0 -1 0 510.8)" gradientUnits="userSpaceOnUse" x1="255.75" x2="255.75" xlink:href="#lg2" y1="230.69" y2="187.529"/><linearGradient id="SVGID_6_" gradientTransform="matrix(1 0 0 -1 0 510.8)" gradientUnits="userSpaceOnUse" x1="256" x2="256" xlink:href="#lg1" y1="408.818" y2="200.336"/><linearGradient id="lg3"><stop offset="0" stop-color="#32365c"/><stop offset=".1057" stop-color="#32365c" stop-opacity=".894"/><stop offset="1" stop-color="#32365c" stop-opacity="0"/></linearGradient><linearGradient id="SVGID_7_" gradientUnits="userSpaceOnUse" x1="256" x2="256" xlink:href="#lg3" y1="298.763" y2="254.837"/><linearGradient id="SVGID_8_" gradientTransform="matrix(-1 0 0 -1 2094.814 510.8)" gradientUnits="userSpaceOnUse" x1="1578.133" x2="1622.138" xlink:href="#lg3" y1="312.85" y2="312.85"/><linearGradient id="SVGID_9_" gradientTransform="matrix(1 0 0 -1 0 510.8)" gradientUnits="userSpaceOnUse" x1="256" x2="256" xlink:href="#lg2" y1="413.669" y2="369.742"/><linearGradient id="SVGID_10_" gradientTransform="matrix(1 0 0 -1 0 510.8)" gradientUnits="userSpaceOnUse" x1="-4.681" x2="39.324" xlink:href="#lg2" y1="312.85" y2="312.85"/><linearGradient id="lg4"><stop offset="0" stop-color="#ffed81"/><stop offset=".2348" stop-color="#ffd968"/><stop offset=".7302" stop-color="#ffa629"/><stop offset="1" stop-color="#ff8804"/></linearGradient><linearGradient id="SVGID_11_" gradientTransform="matrix(1 0 0 -1 0 510.8)" gradientUnits="userSpaceOnUse" x1="256" x2="256" xlink:href="#lg4" y1="468.818" y2="400.747"/><linearGradient id="SVGID_12_" gradientTransform="matrix(1 0 0 -1 0 510.8)" gradientUnits="userSpaceOnUse" x1="253.689" x2="373.362" y1="220.378" y2="100.705"><stop offset="0" stop-color="#32365c"/><stop offset=".4996" stop-color="#3e4163" stop-opacity=".5"/><stop offset="1" stop-color="#424566" stop-opacity="0"/></linearGradient><linearGradient id="SVGID_13_" gradientTransform="matrix(1 0 0 -1 0 510.8)" gradientUnits="userSpaceOnUse" x1="199.044" x2="326.629" xlink:href="#lg4" y1="275.057" y2="147.471"/><radialGradient id="SVGID_14_" cx="367.633" cy="316.177" gradientTransform="matrix(.707 .707 .725 -.725 -238.276 255.886)" gradientUnits="userSpaceOnUse" r="89.676"><stop offset=".7889" stop-color="#ff6b06" stop-opacity="0"/><stop offset="1" stop-color="#ff6b06"/></radialGradient><radialGradient id="SVGID_15_" cx="260.3" cy="214.151" gradientTransform="matrix(1 0 0 -1 0 510.8)" gradientUnits="userSpaceOnUse" r="86.418"><stop offset=".7745" stop-color="#fffcf0" stop-opacity="0"/><stop offset="1" stop-color="#fffcf0"/></radialGradient><linearGradient id="SVGID_16_" gradientTransform="matrix(1 0 0 -1 0 510.8)" gradientUnits="userSpaceOnUse" x1="220.801" x2="288.98" y1="253.399" y2="185.22"><stop offset="0" stop-color="#ff5c5c"/><stop offset=".2027" stop-color="#f84f55"/><stop offset=".5761" stop-color="#e62e42"/><stop offset="1" stop-color="#ce0028"/></linearGradient><g><g><g><path d="m498.1 278.6v142.8c0 24.9-20.2 45-45.1 45h-394.1c-24.9 0-45.1-20.2-45.1-45v-142.8c8.7 8.7 20.6 14.1 33.9 14.1h416.5c13.3 0 25.3-5.4 33.9-14.1z" fill="url(#SVGID_1_)"/><g><path d="m14.2 426.7c2.6 22.4 21.7 39.7 44.7 39.7h394.1c23.1 0 42.1-17.4 44.7-39.7z" fill="url(#SVGID_2_)"/><path d="m64.5 292.7h-16.8c-13.2 0-25.2-5.4-33.9-14.1v142.8c0 24.9 20.2 45 45 45h5.6v-173.7z" fill="url(#SVGID_3_)"/><path d="m447.5 292.7h16.8c13.2 0 25.2-5.4 33.9-14.1v142.8c0 24.9-20.2 45-45.1 45h-5.6z" fill="url(#SVGID_4_)"/><path d="m463.9 292.7h-416.2c-13.2 0-25.2-5.4-33.9-14.1v50.9h483.9v-50.9c-8.5 8.7-20.5 14.1-33.8 14.1z" fill="url(#SVGID_5_)"/></g></g><g><path d="m464.2 292.7c26.4 0 47.8-21.4 47.8-47.8v-91.9c0-27.5-21.3-49.7-47.6-49.7h-416.8c-26.3-.1-47.6 22.2-47.6 49.7v91.9c0 26.4 21.4 47.8 47.8 47.8z" fill="url(#SVGID_6_)"/><g><path d="m511.8 247.2c-2.1 25.5-22.5 45.5-47.4 45.5h-416.8c-24.9 0-45.4-20-47.4-45.5z" fill="url(#SVGID_7_)"/><path d="m465.1 103.3c26 .4 46.9 22.5 46.9 49.7v91.9c0 26.1-20.9 47.3-46.9 47.7z" fill="url(#SVGID_8_)"/><path d="m511.8 148.7c-2.1-25.5-22.5-45.5-47.4-45.5h-416.8c-24.9 0-45.4 20-47.4 45.5z" fill="url(#SVGID_9_)"/><path d="m46.9 103.3c-26 .4-46.9 22.5-46.9 49.7v91.9c0 26.1 20.9 47.3 46.9 47.7z" fill="url(#SVGID_10_)"/></g></g><path d="m198.5 103.2v-28.1c0-3 2.4-5.4 5.4-5.4h104.2c3 0 5.4 2.4 5.4 5.4v28.1h24.3v-30.1c0-15.3-12.4-27.7-27.7-27.7h-108.2c-15.3 0-27.7 12.4-27.7 27.7v30.1z" fill="url(#SVGID_11_)"/><path d="m315.1 238.9c-14.6-16.1-35.7-26.1-59.1-26.1-44.1 0-79.9 35.8-79.9 79.9 0 23.4 10.1 44.5 26.1 59.1.9 1 60.4 60.6 114.6 114.8h136.2c24.7 0 44.8-19.9 45-44.6-22.1-22.3-182.3-182.5-182.9-183.1z" fill="url(#SVGID_12_)"/><g><g><circle cx="256" cy="292.7" fill="url(#SVGID_13_)" r="79.9"/><g><circle cx="256" cy="292.7" fill="url(#SVGID_14_)" r="79.9"/><circle cx="256" cy="292.7" fill="url(#SVGID_15_)" r="79.9"/></g></g><path d="m224.8 328.9c-1.3 0-2.6-.5-3.6-1.5-2-2-2-5.2 0-7.2l62.4-62.4c2-2 5.2-2 7.2 0s2 5.2 0 7.2l-62.4 62.4c-1 1-2.3 1.5-3.6 1.5zm24.5-57.7c0-8.1-6.6-14.8-14.8-14.8s-14.8 6.6-14.8 14.8c0 8.1 6.6 14.8 14.8 14.8s14.8-6.7 14.8-14.8zm-10.2 0c0 2.6-2.1 4.6-4.6 4.6-2.6 0-4.6-2.1-4.6-4.6s2.1-4.6 4.6-4.6c2.6-.1 4.6 2 4.6 4.6zm53.1 42.9c0-8.1-6.6-14.8-14.8-14.8-8.1 0-14.8 6.6-14.8 14.8 0 8.1 6.6 14.8 14.8 14.8s14.8-6.6 14.8-14.8zm-10.1 0c0 2.6-2.1 4.6-4.6 4.6-2.6 0-4.6-2.1-4.6-4.6s2.1-4.6 4.6-4.6 4.6 2.1 4.6 4.6z" fill="url(#SVGID_16_)"/></g></g></g></svg>