<svg height="512" viewBox="0 0 176 176" width="512" xmlns="http://www.w3.org/2000/svg" xmlns:xlink="http://www.w3.org/1999/xlink"><linearGradient id="linear-gradient" gradientUnits="userSpaceOnUse" x1="5.86" x2="170.14" y1="5.86" y2="170.14"><stop offset="0" stop-color="#f44e42"/><stop offset="1" stop-color="#b71c1c"/></linearGradient><linearGradient id="linear-gradient-2" gradientUnits="userSpaceOnUse" x1="15.51" x2="160.49" y1="15.51" y2="160.49"><stop offset="0" stop-color="#b71c1c"/><stop offset="1" stop-color="#f44e42"/></linearGradient><linearGradient id="linear-gradient-3" gradientUnits="userSpaceOnUse" x1="65.92" x2="100.45" y1="65.27" y2="99.8"><stop offset="0" stop-color="#b71c1c"/><stop offset="1" stop-color="#b71c1c" stop-opacity="0"/></linearGradient><linearGradient id="linear-gradient-4" x1="83.72" x2="160.82" xlink:href="#linear-gradient-3" y1="83.05" y2="160.15"/><g id="Layer_2" data-name="Layer 2"><g id="Color"><g id="_32.Quora" data-name="32.Quora"><g id="Background"><rect fill="url(#linear-gradient)" height="176" rx="20" width="176"/><rect fill="url(#linear-gradient-2)" height="152" rx="12" width="152" x="12" y="12"/></g><g id="Shadow"><path d="m63.79 82.85c0-16.08 8.82-29.11 19.71-29.11s19.7 13 19.7 29.11a38.89 38.89 0 0 1 -3.76 17.15c-2.67-3.82-5.88-7.06-10.46-8.1a21.85 21.85 0 0 0 -17.36 3.66l2.09 4.3s2.11-1.21 7.34 0c3.3.77 5.87 5.34 8.8 10.59a13.94 13.94 0 0 1 -6.35 1.55c-10.89 0-19.71-13.08-19.71-29.15z" fill="url(#linear-gradient-3)"/><path d="m164 114.84v37.16a12 12 0 0 1 -12 12h-35.82l-54.8-54.81a33.06 33.06 0 0 0 22.12 8.5 32.67 32.67 0 0 0 9.74-1.47c3.91 6.2 8.86 11.78 16.62 11.78 15.79 0 16.44-17.22 16.44-17.22h-6s-.39 5.74-5.61 5.74c-4 0-6.78-3.08-9.36-7.07a35.58 35.58 0 0 0 2.67-50.64z" fill="url(#linear-gradient-4)"/></g><path id="Icon" d="m120.3 110.78s-.39 5.74-5.61 5.74c-4 0-6.78-3.08-9.36-7.07a35.22 35.22 0 0 0 12-26.6c-.03-19.25-15.16-34.85-33.83-34.85s-33.8 15.6-33.8 34.85 15.13 34.84 33.8 34.84a32.67 32.67 0 0 0 9.74-1.47c3.91 6.2 8.86 11.78 16.62 11.78 15.79 0 16.44-17.22 16.44-17.22zm-36.8 1.22c-10.89 0-19.71-13-19.71-29.1s8.82-29.16 19.71-29.16 19.7 13 19.7 29.11a38.89 38.89 0 0 1 -3.76 17.15c-2.67-3.82-5.88-7.06-10.46-8.1a21.85 21.85 0 0 0 -17.36 3.66l2.09 4.3s2.11-1.21 7.34 0c3.3.77 5.87 5.34 8.8 10.59a13.94 13.94 0 0 1 -6.35 1.55z" fill="#fff"/></g></g></g></svg>