<?xml version="1.0" encoding="iso-8859-1"?>
<!-- Generator: Adobe Illustrator 19.0.0, SVG Export Plug-In . SVG Version: 6.00 Build 0)  -->
<svg version="1.1" id="Capa_1" xmlns="http://www.w3.org/2000/svg" xmlns:xlink="http://www.w3.org/1999/xlink" x="0px" y="0px"
	 viewBox="0 0 512 512" style="enable-background:new 0 0 512 512;" xml:space="preserve">
<path style="fill:#FEE051;" d="M499.113,79.416l-4.522-4.522c5.857-7.637,9.033-16.933,9.033-26.715
	c0-11.754-4.582-22.8-12.887-31.105c-4.147-4.147-8.993-7.374-14.263-9.559c-5.26-2.185-10.965-3.328-16.842-3.328
	c-11.754,0-22.8,4.582-31.105,12.887L193.356,252.247c-19.361-11.956-40.29-19.897-61.198-23.154
	c-39.055-6.079-75.784,4.754-100.759,29.739C6.413,283.817-4.43,320.536,1.659,359.592c3.328,21.404,11.572,42.828,23.994,62.574
	c-9.539,16.781-7.162,38.56,7.131,52.863c8.315,8.305,19.361,12.887,31.105,12.887c7.758,0,15.214-2.003,21.778-5.746
	c19.735,12.422,41.159,20.656,62.553,23.984c7.04,1.103,14.121,1.659,21.05,1.659c31.155,0,59.468-11.147,79.709-31.398
	c24.975-24.975,35.819-61.704,29.739-100.759c-3.257-20.909-11.198-41.837-23.154-61.198l123.974-123.974l4.259,4.259
	c8.305,8.305,19.351,12.877,31.105,12.877c11.744,0,22.79-4.572,31.105-12.887c11.218-11.218,15.102-27.038,11.643-41.443
	c3.348,0.809,6.818,1.224,10.358,1.224c11.754,0,22.8-4.572,31.105-12.887c8.305-8.305,12.887-19.351,12.887-31.105
	C512,98.777,507.418,87.721,499.113,79.416z M134.079,373.733c-11.056-11.046-26.533-15.143-40.896-11.825
	c-2.246-5.371-3.793-10.722-4.592-15.851c-0.809-5.199-1.942-18.056,5.017-25.015c3.733-3.733,9.549-5.634,17.267-5.634
	c2.499,0,5.108,0.212,7.748,0.617c16.003,2.499,33.219,11.956,47.208,25.956c14,13.99,23.458,31.206,25.956,47.208
	c0.809,5.209,1.942,18.056-5.017,25.015c-6.969,6.959-19.816,5.826-25.015,5.017c-5.129-0.799-10.48-2.347-15.851-4.592
	C149.212,400.266,145.125,384.789,134.079,373.733z"/>
<path style="fill:#FCBF29;" d="M191.788,389.189c0.809,5.209,1.942,18.056-5.017,25.015c-6.969,6.959-19.816,5.826-25.015,5.017
	c-5.129-0.799-10.48-2.347-15.851-4.592c3.308-14.364-0.779-29.84-11.825-40.896L32.784,475.028
	c8.315,8.305,19.361,12.887,31.105,12.887c7.758,0,15.214-2.003,21.778-5.746c19.735,12.422,41.159,20.656,62.553,23.984
	c7.04,1.103,14.121,1.659,21.05,1.659c31.155,0,59.468-11.147,79.709-31.398c24.975-24.975,35.819-61.704,29.739-100.759
	c-3.257-20.909-11.198-41.837-23.154-61.198l123.974-123.974l4.259,4.259c8.305,8.305,19.351,12.877,31.105,12.877
	c11.744,0,22.79-4.572,31.105-12.887c11.218-11.218,15.102-27.038,11.643-41.443c3.348,0.809,6.818,1.224,10.358,1.224
	c11.754,0,22.8-4.572,31.105-12.887c8.305-8.305,12.887-19.351,12.887-31.105c0-11.744-4.582-22.8-12.887-31.105l-4.522-4.522
	c5.857-7.637,9.033-16.933,9.033-26.715c0-11.754-4.582-22.8-12.887-31.105L165.832,341.981
	C179.831,355.97,189.289,373.187,191.788,389.189z"/>
<g>
</g>
<g>
</g>
<g>
</g>
<g>
</g>
<g>
</g>
<g>
</g>
<g>
</g>
<g>
</g>
<g>
</g>
<g>
</g>
<g>
</g>
<g>
</g>
<g>
</g>
<g>
</g>
<g>
</g>
</svg>
