<svg viewBox="0 0 24 24" xmlns="http://www.w3.org/2000/svg"><g id="_10._Blockchain" data-name="10. Blockchain"><path d="m19.76 4.24-7.76-3.32-7.84 3.24-3.24 7.84 3.32 7.75 7.76 3.34 7.76-3.33 3.33-7.76zm-6.76-.72 4.25 1.82-4.25 4.25zm-2 6.07-4.31-4.31 4.31-1.78zm-5.66 7.66-1.82-4.25h6.07zm5.66-2.84v6.07l-4.25-1.82zm2 0 4.25 4.25-4.25 1.82zm1.41-1.41h6.07l-1.82 4.25zm0-2 4.25-4.25 1.82 4.25zm-9.13-4.31 4.31 4.31h-6.09z" fill="#468ff1"/><circle cx="12" cy="12" fill="#6dedd4" r="6"/><path d="m8 10v4l4 2v-6z" fill="#468ff1"/><path d="m16 10v4l-4 2v-6z" fill="#3870cf"/><g fill="#61c5fa"><circle cx="12" cy="2" r="2"/><circle cx="4.93" cy="4.93" r="2"/><circle cx="2" cy="12" r="2"/><circle cx="4.93" cy="19.07" r="2"/><circle cx="12" cy="22" r="2"/><circle cx="19.07" cy="19.07" r="2"/><circle cx="22" cy="12" r="2"/><circle cx="19.07" cy="4.93" r="2"/><path d="m16 10-4 2-4-2 4-2z"/></g></g></svg>