<svg id="Layer_1" enable-background="new 0 0 68 68" viewBox="0 0 68 68" xmlns="http://www.w3.org/2000/svg"><g><g><g enable-background="new"><g><path d="m53.2538109 6.2694716-.0960007 41.7062402-31.0153713 18.0234871-7.39608-4.2688522.0959215-41.7062378 31.0154505-18.023485z" fill="#d3d3dd"/></g></g></g><g><path d="m53.2536049 6.2699108-.0954514 41.7054043-31.016262 18.0246849.0954532-41.7054024z" fill="#e0e1ec"/></g><g><path d="m22.2373447 24.2945976-.0954532 41.7054024-7.3957024-4.2699127.0954533-41.7054005z" fill="#d3d3dd"/></g><g><path d="m53.2536049 6.2699108-31.0162602 18.0246868-7.3957023-4.2699108 31.0162601-18.0246868z" fill="#edeef2"/></g><g><path d="m48.6657562 15.1224842-.0593223 36.5183392-19.622963 11.4027328-.8804149-.5078735.0608825-36.516819 19.6228886-11.402731z" fill="#382e49"/></g><g><path d="m48.6662712 15.1231995-.0603866 36.5168724-19.6227246 11.4034843.0603905-36.5168724z" fill="#382e49"/></g><g><path d="m48.6657562 15.1224842-.0593224 36.5183411-19.622963 11.4027328.0410576-26.1267891c.8728409.3877525 1.8307686.6021461 2.8343582.6021461 4.0933533 0 7.4127655-3.5566063 7.4127655-7.9449615 0-2.9240475-1.4749794-5.4801216-3.6691132-6.8592777z" fill="#312944"/></g><g><path d="m29.0435505 26.5266838-.0603905 36.5168724-.8793945-.5077209.0603905-36.5168705z" fill="#28223d"/></g><g><path d="m48.6662712 15.1231995-19.6227207 11.4034843-.8793945-.507719 19.6227207-11.4034844z" fill="#423751"/></g><g><path d="m39.3771973 57.0045319-1.0017815.5805626-.1024322-36.4209996 1.0001144-.5821914z" fill="#1d1a30"/></g><g><g><path d="m50.6343307 29.212492c.0940895-.0543232.1882782-.0557899.2434616.018177l.9515038 1.2723675c.1136284.1519146-.0217743.5062523-.2417908.6332798l-1.8922157 1.0924702c-.2200203.1270294-.356987-.0700569-.2445641-.3524818l.940712-2.3648396c.0548134-.1374722.1488037-.2446518.2428932-.2989731z" fill="#bdbdc6"/></g><g><path d="m24.9542408 44.1361313c.0940895-.0543251.1882782-.0557899.2434635.018177l.9515038 1.2723656c.1136284.1519165-.0217743.5062523-.2417927.6332817l-1.8922157 1.0924721c-.2200203.1270256-.3569851-.0700607-.2445621-.3524857l.940712-2.3648376c.0548133-.1374741.1488017-.2446518.2428912-.2989731z" fill="#bdbdc6"/></g><g><path d="m25.9095745 46.8216209c.2200184-.1270256.3569832.0695267.244585.3519402l-.9411907 2.3651123c-.0545845.1373444-.1484756.2444649-.2425632.2987862-.0940895.0543213-.1883793.0558472-.2437916-.0179901l-.951025-1.2726402c-.1136532-.1519012.0217495-.5057068.2417698-.6327362z" fill="#bdbdc6"/></g><g><g><path d="m51.5896645 31.8979836c.2200165-.1270275.3569832.0695267.2445831.3519402l-.9411888 2.3651123c-.0545845.1373405-.1484756.2444611-.2425652.2987862-.0940895.0543213-.1883774.0558472-.2437897-.0179901l-.9510269-1.2726402c-.1136513-.1519012.0217514-.5057068.2417717-.6327362z" fill="#bdbdc6"/></g><g><g><g><path d="m50.8146133 29.2426968c.0940895-.0543213.1882782-.055788.2434616.018177l.9515038 1.2723675c.1136284.1519146-.0217743.5062523-.2417946.6332817l-1.8922157 1.0924721c-.2200165.1270256-.3569832-.0700607-.2445602-.3524857l.940712-2.3648376c.0548133-.1374741.1488036-.2446518.2428931-.298975z" fill="#ff3d47"/></g><g><path d="m51.7672462 31.1673145-1.8913651 1.0919704c-.2199059.1262131-.3576355-.0707588-.2448349-.3518829l.3767776-.9466152c.4914474-.0133896.8815804-.4398575.8815804-.9600182 0-.2390461-.0821724-.4589748-.2199059-.627264.0439796-.0554543.09375-.1013508.1453896-.1300411.0936584-.0554543.1874084-.0573673.2427826.0172176l.9524536 1.2717342c.1127969.1529885-.022972.5067731-.2428779.6348992z" fill="#f72d40"/></g><g><path d="m51.7699432 31.9281902c.2200203-.1270294.3569832.0695248.2445869.3519382l-.9411888 2.3651123c-.0545883.1373444-.1484756.2444649-.2425652.2987862s-.1883812.0558472-.2437897-.0179901l-.9510269-1.2726402c-.1136551-.1519012.0217514-.5057068.2417679-.6327362z" fill="#ff3d47"/></g><g><path d="m52.0138588 32.2803192-.940876 2.3656082c-.0535049.1357803-.1471634.2428741-.2427826.2983284-.09375.0535545-.1875.0554657-.2429657-.0191193l-.5794106-.7745094c.4092751-.0153008.7362823-.3518829.7362823-.7668648 0-.275383-.1453896-.5182571-.3633308-.6540298l1.38834-.8012848c.2199021-.1281376.3576355.068842.2447434.3518715z" fill="#f72d40"/></g></g><g><g><path d="m25.1345234 44.1663361c.0940895-.0543251.1882782-.0557899.2434616.018177l.9515038 1.2723656c.1136284.1519165-.0217743.5062523-.2417927.6332817l-1.8922157 1.0924721c-.2200184.1270256-.3569832-.0700607-.2445621-.3524857l.9407139-2.3648376c.0548114-.1374741.1488017-.2446519.2428912-.2989731z" fill="#ff3d47"/></g><g><path d="m26.0871582 46.0909538-1.891367 1.0919685c-.2199039.1262131-.3576355-.070755-.2448349-.3518829l.3767776-.9466171c.4914474-.0133858.8815804-.4398537.8815804-.9600143 0-.239048-.0821724-.4589767-.2199039-.6272659.0439796-.0554543.09375-.1013489.1453876-.1300392.0936584-.0554543.1874104-.0573692.2427826.0172157l.9524536 1.2717361c.1127987.1529884-.0229721.5067711-.242876.6348991z" fill="#f72d40"/></g><g><path d="m26.0898552 46.8518257c.2200203-.1270256.3569832.0695267.244585.3519402l-.9411888 2.3651123c-.0545864.1373444-.1484756.2444649-.2425652.2987862s-.1883793.0558472-.2437897-.0179863l-.951025-1.272644c-.1136551-.1519012.0217495-.5057068.2417679-.6327362z" fill="#ff3d47"/></g><g><path d="m26.3337688 47.2039566-.9408741 2.3656082c-.0535049.1357841-.1471634.2428741-.2427826.2983284-.09375.0535545-.1875019.0554695-.2429676-.0191193l-.5794106-.7745094c.4092751-.0153008.7362843-.3518829.7362843-.7668648 0-.275383-.1453896-.5182571-.3633327-.6540298l1.38834-.8012848c.2199039-.1281357.3576374.0688439.2447433.3518715z" fill="#f72d40"/></g></g></g></g></g></g></svg>