<svg id="Capa_1" viewBox="0 0 1200 1200" xmlns="http://www.w3.org/2000/svg" xmlns:xlink="http://www.w3.org/1999/xlink" data-name="Capa 1"><linearGradient id="Degradado_sin_nombre_76" gradientUnits="userSpaceOnUse" x1="598.54" x2="601.5" y1="945.16" y2="1214.87" data-name="Degradado sin nombre 76"><stop offset="0" stop-color="#0ff"/><stop offset="1" stop-color="#00a99d"/></linearGradient><linearGradient id="Degradado_sin_nombre_10" gradientUnits="userSpaceOnUse" x1="600" x2="600" y1="0" y2="1048.14" data-name="Degradado sin nombre 10"><stop offset="0" stop-color="#f00"/><stop offset="1" stop-color="#6f211e"/></linearGradient><radialGradient id="Degradado_sin_nombre_65" cx="514.14" cy="312.1" gradientUnits="userSpaceOnUse" r="442.3" data-name="Degradado sin nombre 65"><stop offset="0" stop-color="#f2f2f2"/><stop offset=".29" stop-color="#e2e2e2"/><stop offset=".69" stop-color="#d1d1d1"/><stop offset="1" stop-color="#ccc"/></radialGradient><ellipse cx="600" cy="1078.38" fill="url(#Degradado_sin_nombre_76)" rx="511.07" ry="121.62"/><path d="m920.85 587.17c-56.97 102.96-125.04 201.8-194.22 296.41-29.73 40.67-60.18 80.83-91.31 120.43-5.87 7.46-35.32 34.2-35.32 44.13 0-9.92-29.44-36.67-35.3-44.13-31.15-39.6-61.58-79.76-91.31-120.43-69.18-94.61-137.27-193.45-194.22-296.41-62.49-112.95-93.62-237.47-36.27-358.54 47.24-99.7 138.15-178.81 243.47-211.67 15.93-4.96 32.18-8.87 48.65-11.62 21.47-3.56 43.22-5.35 64.98-5.35s43.53 1.78 65 5.35c16.46 2.74 32.72 6.66 48.63 11.62 105.34 32.86 196.23 111.98 243.47 211.67 57.35 121.06 26.24 245.58-36.25 358.54z" fill="url(#Degradado_sin_nombre_10)"/><circle cx="600" cy="392.69" fill="url(#Degradado_sin_nombre_65)" r="209.73"/></svg>