<svg height="512" viewBox="0 0 512 512" width="512" xmlns="http://www.w3.org/2000/svg"><g id="Layer_1" data-name="Layer 1"><path d="m283.706 281.017-15.693-15.693a92.525 92.525 0 0 0 -130.85 0l-65.349 65.349a92.525 92.525 0 0 0 0 130.85l15.693 15.693a92.525 92.525 0 0 0 130.85 0l65.349-65.349a92.525 92.525 0 0 0 0-130.85zm-35.6 95.246-65.348 65.349a42.221 42.221 0 0 1 -59.643 0l-15.693-15.693a42.222 42.222 0 0 1 0-59.642l65.349-65.349a42.221 42.221 0 0 1 59.642 0l15.687 15.692a42.221 42.221 0 0 1 0 59.643z" fill="#ffdf40"/><path d="m87.243 476.951-15.429-15.428a92.525 92.525 0 0 1 0-130.85l65.349-65.349a92.525 92.525 0 0 1 130.85 0l15.429 15.429a92.525 92.525 0 0 0 -130.85 0l-65.349 65.347a92.525 92.525 0 0 0 0 130.851z" fill="#ffbe40"/><path d="m374.761 7.684h-22.193a92.525 92.525 0 0 0 -92.525 92.525v92.417a92.525 92.525 0 0 0 92.525 92.525h22.193a92.525 92.525 0 0 0 92.525-92.525v-92.417a92.525 92.525 0 0 0 -92.525-92.525zm42.174 184.942a42.222 42.222 0 0 1 -42.174 42.174h-22.193a42.221 42.221 0 0 1 -42.168-42.174v-92.417a42.221 42.221 0 0 1 42.173-42.174h22.193a42.222 42.222 0 0 1 42.174 42.174z" fill="#ffdf40"/><path d="m375.343 285.144c-.194 0-.388.007-.582.007h-22.193a92.525 92.525 0 0 1 -92.525-92.525v-92.417a92.525 92.525 0 0 1 92.525-92.525h22.193c.194 0 .388.007.582.008a92.521 92.521 0 0 0 -91.943 92.517v92.417a92.521 92.521 0 0 0 91.943 92.518z" fill="#ffbe40"/><path d="m363.666 220.967-119.118 119.119a25.176 25.176 0 0 1 -35.6-35.6l119.115-119.122a25.175 25.175 0 1 1 35.6 35.6z" fill="#68544f"/><path d="m208.944 340.086a25.177 25.177 0 0 1 0-35.6l119.119-119.122a25.174 25.174 0 0 1 35.6 0z" fill="#53433f"/></g></svg>