<svg id="Layer_3" height="512" viewBox="0 0 64 64" width="512" xmlns="http://www.w3.org/2000/svg" data-name="Layer 3"><path d="m14 2h38v60h-38z" fill="#e2e7f6"/><path d="m14 62a5 5 0 0 1 -5-5v-29a2 2 0 0 1 2-2h3z" fill="#d5883e"/><path d="m14 62h36a5 5 0 0 0 5-5v-23a2 2 0 0 0 -2-2h-32a2 2 0 0 0 -2 2v23a5 5 0 0 1 -5 5z" fill="#f0ae42"/><path d="m52 53v-21h-31a2 2 0 0 0 -2 2v23a4.988 4.988 0 0 1 -.1 1h28.1a5 5 0 0 0 5-5z" fill="#f6b940"/><rect fill="#5e87ca" height="16" rx="2" width="32" x="23" y="12"/><g fill="#c0dafc"><path d="m28 15h-2v9a1 1 0 0 0 1 1h4v-2h-3z"/><path d="m37 15h-4a1 1 0 0 0 -1 1v8a1 1 0 0 0 1 1h4a1 1 0 0 0 1-1v-8a1 1 0 0 0 -1-1zm-1 8h-2v-6h2z"/><path d="m43 17v1h2v-2a1 1 0 0 0 -1-1h-4a1 1 0 0 0 -1 1v8a1 1 0 0 0 1 1h4a1 1 0 0 0 1-1v-4a1 1 0 0 0 -1-1h-2v2h1v2h-2v-6z"/><path d="m52 18v-2a1 1 0 0 0 -1-1h-4a1 1 0 0 0 -1 1v4a1 1 0 0 0 1 1h3v2h-2v-1h-2v2a1 1 0 0 0 1 1h4a1 1 0 0 0 1-1v-4a1 1 0 0 0 -1-1h-3v-2h2v1z"/></g><path d="m25 36h24v6h-24z" fill="#f9d266"/><path d="m46 38v-2h-21v3h20a1 1 0 0 0 1-1z" fill="#fce797"/></svg>