<svg fill="none" height="65" viewBox="0 0 65 65" width="65" xmlns="http://www.w3.org/2000/svg"><path d="m6.63513 21.3921c-.55228 0-1 .4477-1 1v34c0 .5523.44772 1 1 1h51.99997c.5523 0 1-.4477 1-1v-34c0-.5523-.4477-1-1-1z" fill="#ccc8aa"/><path d="m22.6351 21.3921c-.5523 0-1 .4477-1 1v34c0 .5523.4477 1 1 1h20c.5523 0 1-.4477 1-1v-34c0-.5523-.4477-1-1-1z" fill="#7d7c7c"/><path clip-rule="evenodd" d="m27.6351 49.3921c0-2.7614 2.2386-5 5-5 2.7615 0 5 2.2386 5 5v8h-10z" fill="#ccc8aa" fill-rule="evenodd"/><path d="m16.2606 2.39212c-1.0482 0-2.0204.54709-2.5644 1.44307l-7.91586 13.03791c-.18745.3088-.19384.6947-.01669 1.0094.17714.3148.51027.5096.87148.5096h51.99997c.3612 0 .6944-.1948.8715-.5096.1772-.3147.1708-.7006-.0167-1.0094l-7.9159-13.03791c-.544-.89598-1.5162-1.44307-2.5643-1.44307z" fill="#ccc8aa"/><g fill="#f1efef"><path d="m5.63513 55.3921c-1.65685 0-3 1.3432-3 3v1c0 1.6569 1.34315 3 3 3h53.99997c1.6569 0 3-1.3431 3-3v-1c0-1.6568-1.3431-3-3-3z"/><path d="m5.63513 16.3921c-1.65685 0-3 1.3432-3 3v1c0 1.6569 1.34315 3 3 3h53.99997c1.6569 0 3-1.3431 3-3v-1c0-1.6568-1.3431-3-3-3z"/><path d="m11.6351 39.3921c-.5523 0-1 .4477-1 1v11c0 .5523.4477 1 1 1h6c.5523 0 1-.4477 1-1v-11c0-.5523-.4477-1-1-1z"/><path d="m47.6351 39.3921c-.5523 0-1 .4477-1 1v11c0 .5523.4477 1 1 1h6c.5523 0 1-.4477 1-1v-11c0-.5523-.4477-1-1-1z"/><path d="m11.6351 27.3921c-.5523 0-1 .4477-1 1v6c0 .5523.4477 1 1 1h6c.5523 0 1-.4477 1-1v-6c0-.5523-.4477-1-1-1z"/><path d="m28.6351 26.3921c-.5523 0-1 .4477-1 1v11c0 .5523.4477 1 1 1h8c.5523 0 1-.4477 1-1v-11c0-.5523-.4477-1-1-1z"/><path clip-rule="evenodd" d="m47.6351 27.3921c-.5523 0-1 .4477-1 1v6c0 .5523.4477 1 1 1h6c.5523 0 1-.4477 1-1v-6c0-.5523-.4477-1-1-1z" fill-rule="evenodd"/></g><path clip-rule="evenodd" d="m33.6335 26.3905.0211 13.0601-2 .0033-.0211-13.0602z" fill="#7d7c7c" fill-rule="evenodd"/></svg>