<svg id="Layer_1" enable-background="new 0 0 512 512" viewBox="0 0 512 512" xmlns="http://www.w3.org/2000/svg" xmlns:xlink="http://www.w3.org/1999/xlink"><linearGradient id="lg1"><stop offset="0" stop-color="#eaf9fa"/><stop offset="1" stop-color="#b3dafe"/></linearGradient><linearGradient id="SVGID_1_" gradientUnits="userSpaceOnUse" x1="196.153" x2="334.939" xlink:href="#lg1" y1="177.555" y2="538.95"/><linearGradient id="lg2"><stop offset="0" stop-color="#7bacdf" stop-opacity="0"/><stop offset="1" stop-color="#7bacdf"/></linearGradient><linearGradient id="SVGID_00000165231160103727984050000003016970848012689054_" gradientUnits="userSpaceOnUse" x1="188.245" x2="99.139" xlink:href="#lg2" y1="337.707" y2="326.428"/><linearGradient id="SVGID_00000157292499893017201520000004635380887710756993_" gradientUnits="userSpaceOnUse" x1="258.113" x2="264.881" xlink:href="#lg2" y1="437.038" y2="520.504"/><linearGradient id="SVGID_00000073723253606650002590000004274084474194416534_" gradientUnits="userSpaceOnUse" x1="457.456" x2="504.829" xlink:href="#lg2" y1="321.476" y2="318.092"/><linearGradient id="SVGID_00000078737760488822131050000009958486766383238063_" gradientUnits="userSpaceOnUse" x1="367.271" x2="346.36" xlink:href="#lg2" y1="170.112" y2="158.231"/><linearGradient id="SVGID_00000121982545168137906690000017933222937674918815_" gradientUnits="userSpaceOnUse" x1="295.013" x2="446.483" y1="274.977" y2="274.977"><stop offset="0" stop-color="#bbec6c"/><stop offset="1" stop-color="#81b823"/></linearGradient><linearGradient id="lg3"><stop offset="0" stop-color="#026841" stop-opacity="0"/><stop offset=".2391" stop-color="#0a6644" stop-opacity=".239"/><stop offset=".6113" stop-color="#20604d" stop-opacity=".611"/><stop offset="1" stop-color="#3e5959"/></linearGradient><linearGradient id="SVGID_00000151518439430057084600000017750174404361050517_" gradientUnits="userSpaceOnUse" x1="347.675" x2="305.378" xlink:href="#lg3" y1="213.346" y2="187.682"/><linearGradient id="SVGID_00000085214046048323998650000006355951153836435380_" gradientUnits="userSpaceOnUse" x1="434.614" x2="478.099" xlink:href="#lg3" y1="275.09" y2="272.952"/><linearGradient id="SVGID_00000057826605437689756560000017591353781328535941_" gradientUnits="userSpaceOnUse" x1="175.67" x2="448.018" y1="348.428" y2="348.428"><stop offset="0" stop-color="#62dbfb"/><stop offset=".1912" stop-color="#57d5fa"/><stop offset=".5232" stop-color="#3bc5f7"/><stop offset=".954" stop-color="#0dabf2"/><stop offset="1" stop-color="#08a9f1"/></linearGradient><linearGradient id="lg4"><stop offset="0" stop-color="#0593fc" stop-opacity="0"/><stop offset=".6831" stop-color="#0389fc" stop-opacity=".683"/><stop offset="1" stop-color="#0182fc"/></linearGradient><linearGradient id="SVGID_00000127731814264444664280000002249192560780771482_" gradientUnits="userSpaceOnUse" x1="181.753" x2="100.473" xlink:href="#lg4" y1="348.428" y2="348.428"/><linearGradient id="SVGID_00000118378686776875271160000018091088856913243570_" gradientUnits="userSpaceOnUse" x1="258.111" x2="261.676" xlink:href="#lg4" y1="434.778" y2="492.52"/><linearGradient id="SVGID_00000088105381919467845230000007856155612926958998_" gradientUnits="userSpaceOnUse" x1="416.586" x2="468.625" xlink:href="#lg4" y1="385.502" y2="379.799"/><linearGradient id="SVGID_00000001643652029660754090000005081769013214850460_" gradientUnits="userSpaceOnUse" x1="239.495" x2="441.419" y1="310.908" y2="310.908"><stop offset="0" stop-color="#fef0ae"/><stop offset="1" stop-color="#fbc56d"/></linearGradient><linearGradient id="lg5"><stop offset="0" stop-color="#dc8758" stop-opacity="0"/><stop offset=".2153" stop-color="#dd8654" stop-opacity=".215"/><stop offset=".4291" stop-color="#e28448" stop-opacity=".429"/><stop offset=".6424" stop-color="#ea8034" stop-opacity=".642"/><stop offset=".8543" stop-color="#f47b18" stop-opacity=".854"/><stop offset="1" stop-color="#fe7701"/></linearGradient><linearGradient id="SVGID_00000150788384728197599820000009583847497969817515_" gradientUnits="userSpaceOnUse" x1="315.342" x2="265.916" xlink:href="#lg5" y1="273.131" y2="227.032"/><linearGradient id="SVGID_00000110472865145730537180000007910413861467338391_" gradientUnits="userSpaceOnUse" x1="35.342" x2="87.232" xlink:href="#lg1" y1="278.058" y2="278.058"/><linearGradient id="SVGID_00000117644177491009703900000010701964590580383676_" gradientUnits="userSpaceOnUse" x1="64.668" x2="135.387" xlink:href="#lg2" y1="278.058" y2="278.058"/><linearGradient id="SVGID_00000142144273264585687380000000749726064781222060_" gradientUnits="userSpaceOnUse" x1="27.528" x2="118.765" xlink:href="#lg2" y1="398.6" y2="505.377"/><linearGradient id="SVGID_00000021815553791944591620000014440181590086526904_" gradientUnits="userSpaceOnUse" x1="70.571" x2="15.428" xlink:href="#lg2" y1="448.269" y2="388.113"/><linearGradient id="SVGID_00000178186889768640468830000008716046366929829536_" gradientUnits="userSpaceOnUse" x1="41.733" x2="114.862" xlink:href="#lg1" y1="423.077" y2="423.077"/><linearGradient id="SVGID_00000059276029030909910270000002091651370577904015_" gradientUnits="userSpaceOnUse" x1="82.854" x2="82.854" xlink:href="#lg2" y1="440.354" y2="364.619"/><linearGradient id="SVGID_00000166647797587186576310000017873068582856882823_" gradientUnits="userSpaceOnUse" x1="443.614" x2="475.413" xlink:href="#lg5" y1="349.929" y2="349.929"/><linearGradient id="lg6"><stop offset="0" stop-color="#fd4755"/><stop offset=".3362" stop-color="#e43f48"/><stop offset="1" stop-color="#a72b2b"/></linearGradient><linearGradient id="SVGID_00000139290574962651717290000008698831972384560272_" gradientUnits="userSpaceOnUse" x1="157.854" x2="323.328" xlink:href="#lg6" y1="131.113" y2="131.113"/><linearGradient id="SVGID_00000134220725252495734360000004581734662011754638_" gradientUnits="userSpaceOnUse" x1="310.862" x2="215.673" xlink:href="#lg6" y1="152.598" y2="57.409"/><linearGradient id="lg7"><stop offset="0" stop-color="#a72b2b" stop-opacity="0"/><stop offset="1" stop-color="#481f05"/></linearGradient><linearGradient id="SVGID_00000003810094023640307070000005227014700645335222_" gradientUnits="userSpaceOnUse" x1="287.116" x2="327.26" xlink:href="#lg7" y1="155.841" y2="188.401"/><linearGradient id="SVGID_00000119096260543584976480000009911867061307861387_" gradientUnits="userSpaceOnUse" x1="301.02" x2="353.652" xlink:href="#lg7" y1="136.831" y2="144.86"/><linearGradient id="SVGID_00000008137409032117682970000014683507170475497623_" gradientUnits="userSpaceOnUse" x1="325.459" x2="367.947" xlink:href="#lg7" y1="130.074" y2="129.4"/><g><g><g><g><path d="m483.617 508.815c-143.229-53.725-296.372 37.062-439.929-11.857-22.715-7.741-36.997-30.253-34.664-54.138 7.497-76.768 14.995-153.537 22.492-230.305 1.343-13.756 14.492-23.047 27.965-19.965 136.121 31.144 262.325-82.603 398.313-53.402 16.573 3.559 28.778 17.69 30.075 34.591 8.022 104.54 16.044 209.081 24.066 313.621 1.176 15.324-13.928 26.853-28.318 21.455z" fill="url(#SVGID_1_)"/><path d="m265.399 164.44c-67.804 21.58-135.535 44.214-205.918 28.11-13.473-3.083-26.622 6.209-27.965 19.965-7.497 76.768-14.994 153.537-22.492 230.305-2.333 23.885 11.949 46.397 34.664 54.138 72.302 24.638 147.036 13.838 221.711 3.911z" fill="url(#SVGID_00000165231160103727984050000003016970848012689054_)"/><path d="m9.024 442.82c-2.333 23.885 11.949 46.397 34.664 54.138 143.556 48.919 296.7-41.868 439.929 11.857 14.39 5.398 29.494-6.131 28.318-21.455-3.815-49.714-7.63-99.427-11.444-149.141h-481.251c-3.405 34.868-6.811 69.734-10.216 104.601z" fill="url(#SVGID_00000157292499893017201520000004635380887710756993_)"/><path d="m487.87 173.739c-1.297-16.901-13.503-31.032-30.075-34.591-38.225-8.208-75.678-5.121-112.794 2.867v350.229c46.788-2.963 93.201-.465 138.617 16.57 14.39 5.398 29.494-6.131 28.318-21.455-8.023-104.539-16.044-209.079-24.066-313.62z" fill="url(#SVGID_00000073723253606650002590000004274084474194416534_)"/><path d="m487.87 173.739c-1.297-16.901-13.503-31.032-30.075-34.591-47.134-10.121-93.092-3.065-138.695 9.174v78.835h172.87c-1.367-17.805-2.734-35.611-4.1-53.418z" fill="url(#SVGID_00000078737760488822131050000009958486766383238063_)"/></g></g><g><path d="m468.449 390.647-63.109-63.109c-24.26-24.26-56.52-37.62-90.82-37.62-45.256 0-83.813-29.208-97.809-69.768l8.228-16.952c14.365-4.205 28.586-8.734 42.671-13.22 49.48-15.77 96.22-30.67 143.39-30.67 14.53 0 28.12 1.4 41.54 4.28 5.68 1.22 9.95 6.18 10.4 12.06l15.688 204.459z" fill="url(#SVGID_00000121982545168137906690000017933222937674918815_)"/></g><g><path d="m468.449 390.647-63.109-63.109c-24.26-24.26-56.52-37.62-90.82-37.62-45.256 0-83.813-29.208-97.809-69.768l8.228-16.952c14.365-4.205 28.586-8.734 42.671-13.22 49.48-15.77 96.22-30.67 143.39-30.67 14.53 0 28.12 1.4 41.54 4.28 5.68 1.22 9.95 6.18 10.4 12.06l15.688 204.459z" fill="url(#SVGID_00000151518439430057084600000017750174404361050517_)"/></g><g><path d="m478.63 380.108-10.18 10.54-63.11-63.11c-16.9-16.9-37.69-28.51-60.34-33.99v-125.96c22.13-5.05 44.02-8.28 66-8.28 14.53 0 28.12 1.4 41.54 4.28 5.68 1.22 9.95 6.18 10.4 12.06z" fill="url(#SVGID_00000085214046048323998650000006355951153836435380_)"/></g><g><g><path d="m485.31 467.134c.584 7.607-6.6 13.434-13.932 11.328-28.745-8.256-59.862-12.295-94.457-12.295-40.39 0-80.97 5.41-120.22 10.64-39.35 5.24-76.52 10.19-113.59 10.19-.01 0-.02 0-.02 0-34.4 0-64.27-4.48-91.34-13.7-11.73-4-19.07-15.53-17.84-28.05l22.25-227.82c16.96 3.7 34.73 5.57 52.87 5.57 31.132 0 62.01-5.515 91.78-13.14l15.9 10.287c14.044 40.707 52.826 69.98 98.292 69.771 34.025-.156 66.587 13.869 90.647 37.929l62.801 62.801 13.141 28.05z" fill="url(#SVGID_00000057826605437689756560000017591353781328535941_)"/></g><g><path d="m485.31 467.134c.584 7.607-6.6 13.434-13.932 11.328-28.745-8.256-59.862-12.295-94.457-12.295-40.39 0-80.97 5.41-120.22 10.64-39.35 5.24-76.52 10.19-113.59 10.19-.01 0-.02 0-.02 0-34.4 0-64.27-4.48-91.34-13.7-11.73-4-19.07-15.53-17.84-28.05l22.25-227.82c16.96 3.7 34.73 5.57 52.87 5.57 31.132 0 62.01-5.515 91.78-13.14l15.9 10.287c14.044 40.707 52.826 69.98 98.292 69.771 34.025-.156 66.587 13.869 90.647 37.929l62.801 62.801 13.141 28.05z" fill="url(#SVGID_00000127731814264444664280000002249192560780771482_)"/></g><path d="m33.91 445.248c-1.23 12.52 6.11 24.05 17.84 28.05 27.07 9.22 56.94 13.7 91.34 13.7h.02c37.07 0 74.24-4.95 113.59-10.19 39.25-5.23 79.83-10.64 120.22-10.64 34.595 0 65.712 4.039 94.457 12.295 7.333 2.106 14.517-3.721 13.932-11.328l-3.719-48.437-13.141-28.05-52.427-52.427h-371.659z" fill="url(#SVGID_00000118378686776875271160000018091088856913243570_)"/><g><path d="m485.31 467.134c.584 7.607-6.599 13.434-13.932 11.328-28.745-8.256-59.862-12.295-94.457-12.295-10.64 0-21.29.37-31.92 1.03v-173.65c22.65 5.48 43.44 17.09 60.34 33.99l63.11 63.11 13.14 28.05z" fill="url(#SVGID_00000088105381919467845230000007856155612926958998_)"/></g></g><g><path d="m481.59 418.618-83.67-83.67c-19.54-19.53-45.51-30.29-73.14-30.29-59.18 0-109.15-40.24-123.97-94.8 4.09-1.05 8.17-2.14 12.24-3.27 3.97-1.1 7.93-2.23 11.87-3.39 11.89 44 52.15 76.46 99.86 76.46 34.31 0 66.56 13.36 90.82 37.62l63.05 63.05z" fill="url(#SVGID_00000001643652029660754090000005081769013214850460_)"/></g><path d="m397.92 334.948 83.67 83.67-2.94-38.29-63.05-63.05c-24.26-24.26-56.51-37.62-90.82-37.62-28.964 0-55.169-11.978-73.961-31.224v11.261l40.548 40.548c10.659 2.875 21.859 4.415 33.412 4.415 27.631 0 53.601 10.76 73.141 30.29z" fill="url(#SVGID_00000150788384728197599820000009583847497969817515_)"/><g><path d="m61.685 55.856c-34.068 0-61.685 27.617-61.685 61.685v321.034c0 34.068 27.617 61.685 61.685 61.685s61.685-27.617 61.685-61.685v-321.034c0-34.068-27.617-61.685-61.685-61.685z" fill="url(#SVGID_00000110472865145730537180000007910413861467338391_)"/><path d="m61.685 55.856c-9.426 0-18.353 2.122-26.343 5.902v432.6c7.99 3.78 16.917 5.902 26.343 5.902 34.068 0 61.685-27.617 61.685-61.685v-321.034c0-34.068-27.617-61.685-61.685-61.685z" fill="url(#SVGID_00000117644177491009703900000010701964590580383676_)"/><circle cx="61.685" cy="438.574" fill="url(#SVGID_00000142144273264585687380000000749726064781222060_)" r="61.685"/><circle cx="61.685" cy="438.574" fill="url(#SVGID_00000021815553791944591620000014440181590086526904_)" r="61.685"/><path d="m120.193 418.987c3.609 10.793.687 22.635-7.317 30.725-11.906 12.035-28.847 19.556-47.645 19.556-4.594 0-9.079-.451-13.406-1.305-4.576-.904-7.839-4.979-7.839-9.643v-78.848c5.601-1.688 11.55-2.584 17.7-2.584 27.223-.002 50.325 17.631 58.507 42.099z" fill="url(#SVGID_00000178186889768640468830000008716046366929829536_)"/><path d="m120.193 418.987c3.609 10.793.687 22.635-7.317 30.725-11.906 12.035-28.847 19.556-47.645 19.556-4.594 0-9.079-.451-13.406-1.305-4.576-.904-7.839-4.979-7.839-9.643v-78.848c5.601-1.688 11.55-2.584 17.7-2.584 27.223-.002 50.325 17.631 58.507 42.099z" fill="url(#SVGID_00000059276029030909910270000002091651370577904015_)"/></g><path d="m415.6 317.278c-19.425-19.425-43.974-31.853-70.6-36.039v25.383c19.922 3.927 38.236 13.649 52.92 28.325l83.67 83.67-2.94-38.29z" fill="url(#SVGID_00000166647797587186576310000017873068582856882823_)"/></g><g><path d="m261.112.003c-56.737-.4-102.851 45.475-102.851 102.118 0 23.044 7.633 44.299 20.497 61.386l66.06 90.787c7.69 10.574 23.445 10.574 31.134 0l66.06-90.787c12.708-16.881 20.316-37.829 20.497-60.542.452-56.211-45.185-102.574-101.397-102.962zm-.726 158.305c-31.028 0-56.18-25.153-56.18-56.187 0-31.028 25.153-56.18 56.18-56.18s56.181 25.153 56.181 56.18c0 31.034-25.153 56.187-56.181 56.187z" fill="url(#SVGID_00000139290574962651717290000008698831972384560272_)"/><path d="m260.386 30.004c-39.831 0-72.123 32.286-72.123 72.117s32.292 72.123 72.123 72.123 72.123-32.292 72.123-72.123-32.292-72.117-72.123-72.117zm0 122.773c-27.975 0-50.649-22.681-50.649-50.656 0-27.974 22.675-50.649 50.649-50.649s50.649 22.675 50.649 50.649c.001 27.975-22.674 50.656-50.649 50.656z" fill="url(#SVGID_00000134220725252495734360000004581734662011754638_)"/><path d="m311.036 102.121c0 27.975-22.675 50.656-50.649 50.656s-50.649-22.681-50.649-50.656c0-7.27 1.543-14.175 4.3-20.424h-53.73c-1.34 6.6-2.045 13.429-2.045 20.424 0 23.044 7.633 44.299 20.497 61.386l66.06 90.787c7.69 10.574 23.445 10.574 31.134 0l66.06-90.787c12.708-16.881 20.316-37.829 20.497-60.542.058-7.282-.663-14.396-2.074-21.269h-53.701c2.757 6.25 4.3 13.155 4.3 20.425z" fill="url(#SVGID_00000003810094023640307070000005227014700645335222_)"/><path d="m261.112.003c-6.007-.042-11.893.439-17.619 1.392v52.973c5.285-1.87 10.968-2.897 16.894-2.897 27.975 0 50.649 22.675 50.649 50.649 0 27.975-22.675 50.656-50.649 50.656-5.926 0-11.609-1.027-16.894-2.897v102.592l1.326 1.823c7.69 10.574 23.445 10.574 31.134 0l66.06-90.787c12.708-16.881 20.316-37.829 20.497-60.542.451-56.211-45.186-102.574-101.398-102.962z" fill="url(#SVGID_00000119096260543584976480000009911867061307861387_)"/><path d="m261.112.003c-6.007-.042-11.893.439-17.619 1.392v52.973c5.285-1.87 10.968-2.897 16.894-2.897 27.975 0 50.649 22.675 50.649 50.649 0 27.975-22.675 50.656-50.649 50.656-5.926 0-11.609-1.027-16.894-2.897v102.592l1.326 1.823c7.69 10.574 23.445 10.574 31.134 0l66.06-90.787c12.708-16.881 20.316-37.829 20.497-60.542.451-56.211-45.186-102.574-101.398-102.962z" fill="url(#SVGID_00000008137409032117682970000014683507170475497623_)"/></g></g><g/><g/><g/><g/><g/><g/><g/><g/><g/><g/><g/><g/><g/><g/><g/></svg>