<svg id="Layer_1" enable-background="new 0 0 53 53" height="512" viewBox="0 0 53 53" width="512" xmlns="http://www.w3.org/2000/svg"><g><g><g><g><g enable-background="new"><g><path d="m44.1 26.6v6.1l-35.5-.1v-6.2z" fill="#ffd651"/></g><g><path d="m24.8 31.1v3.1c-.1-.9 0-2.2 0-3.1z" fill="#434240"/></g><g><path d="m27 16.7 17.1 9.9-35.5-.2 16.7-9.7c.4-.2 1.2-.2 1.7 0z" fill="#81d672"/></g><g><path d="m7.7 27.8v6.1h-1.4v-6.2z" fill="#434240"/></g><g><path d="m12.7 27.8v6.1h-2.5v-6.1z" fill="#434240"/></g><g><path d="m7.8 33.9h-.1v-6.1h.1c.1 2 0 4.1 0 6.1z" fill="#434240"/></g><g><path d="m17.7 27.8v6.1h-2.5v-6.1z" fill="#434240"/></g><g><path d="m22.6 27.8v6.2h-2.5l.1-6.2z" fill="#434240"/></g><g><path d="m27.6 27.8v6.2h-2.5v-6.2z" fill="#434240"/></g><g><path d="m17.8 34s-.1 0-.2 0v-6.1h.2z" fill="#434240"/></g><g><path d="m12.9 34c-.1 0-.1 0-.2 0v-6.1h.2z" fill="#434240"/></g><g><path d="m22.8 34h-.1v-6.1h.1z" fill="#434240"/></g><g><path d="m32.6 27.9v6.1h-2.5v-6.1z" fill="#434240"/></g><g><path d="m7.8 33.9c0-2 0-4.1 0-6.1h.1v6.1s0 0-.1 0z" fill="#434240"/></g><g><path d="m37.6 27.9-.1 6.1h-2.4v-6.1z" fill="#434240"/></g><g><path d="m42.5 27.9v6.2h-2.5l.1-6.2z" fill="#434240"/></g><g><path d="m46.4 27.9v6.2h-1.4v-6.2z" fill="#434240"/></g><g><path d="m42.6 34.1h-.1v-6.1h.1z" fill="#434240"/></g><g><path d="m8.1 34.1c0-.1-.1-.1-.1-.1 0-2 0-4.1 0-6.1.1 0 .1.1.1.2v3.1z" fill="#434240"/></g><g><path d="m12.7 28.2v6.1h-2.5v-6.1z" fill="#fff"/></g><g><path d="m10.2 33.9c-.2 0-.4.1-.4.2 0-1.8 0-4.3 0-6.1v6.1c0-2 0-4.1 0-6.1 0-.1.2-.2.4-.2z" fill="#434240"/></g><g><path d="m9.8 28v1.5c0-.5 0-1 0-1.5z" fill="#434240"/></g><g><path d="m9.8 34.1v-6.1c0 1.8.1 4.3 0 6.1z" fill="#434240"/></g><g><path d="m12.9 34c0-2 0-4.1 0-6.1h.1c.1 0 .1.1.1.2v6.1c-.1-.1-.1-.2-.2-.2z" fill="#434240"/></g><g><path d="m15.2 27.8v6.1c-.2 0-.4.1-.4.2v-6.1c0-.1.2-.2.4-.2z" fill="#434240"/></g><g><path d="m17.8 34c0-2 0-4.1 0-6.1h.1c.1 0 .1.1.1.1v6.1s0-.1-.2-.1c.1 0 .1 0 0 0z" fill="#434240"/></g><g><path d="m22.6 28.2v6.2h-2.5l.1-6.2z" fill="#fff"/></g><g><path d="m20.1 34c-.2 0-.4.1-.4.2v-6.1c0-.1.2-.2.4-.2.1 1.8 0 4.2 0 6.1z" fill="#434240"/></g><g><path d="m22.8 34c0-2 0-4.1 0-6.1h.1v6.1c0-2 0-4.1 0-6.1.1 0 .1.1.1.1v6.1c0-.1 0-.1-.1-.2 0 .1-.1.1-.1.1z" fill="#434240"/></g><g><path d="m27.6 28.3v6.1h-2.5v-6.1z" fill="#fff"/></g><g><path d="m24.7 34.2c0-2 0-4.1 0-6.1 0-.1.2-.2.4-.2v6.1c-.2 0-.4.1-.4.2z" fill="#434240"/></g><g><path d="m24.8 32.7c0-.5 0-1.1 0-1.6v-3.1z" fill="#434240"/></g><g><path d="m27.9 34.1c-.1 0-.2-.1-.3-.1 0-2 0-4.1 0-6.1.1 0 .2 0 .3.1v6.1c0-2.1 0-4.1 0-6.1.1 0 .1.1.1.2v6.1c0-.2-.1-.2-.1-.2z" fill="#434240"/></g><g><path d="m32.6 28.3v6.1h-2.5v-6.1z" fill="#fff"/></g><g><path d="m30.1 34c-.2 0-.4.1-.4.2v-6.1c0-.1.2-.2.4-.2z" fill="#434240"/></g><g><path d="m32.8 34.1c-.1 0-.2-.1-.3-.1v-6.1c.1 0 .2 0 .3.1v6.1c0-2.1 0-4.1 0-6.1.1 0 .1.1.1.2v6.1c0-.1 0-.2-.1-.2z" fill="#434240"/></g><g><path d="m32.9 34.2v-6.1z" fill="#434240"/></g><g><path d="m37.6 28.3-.1 6.2h-2.4v-6.2z" fill="#fff"/></g><g><path d="m34.7 34.2c0-2 0-4.1 0-6.1 0-.1.2-.2.4-.2v6.1c-.2 0-.4.1-.4.2z" fill="#434240"/></g><g><path d="m34.7 34.2v-6.1z" fill="#434240"/></g><g><path d="m37.8 34.1c-.1 0-.2-.1-.3-.1v-6.1c.1 0 .2 0 .3.1.1 0 .1.1.1.2v6.1c0-.1 0-.2-.1-.2z" fill="#434240"/></g><g><path d="m40.1 27.9v6.1c-.2 0-.4.1-.4.2v-6.1c0-.1.1-.2.4-.2z" fill="#434240"/></g><g><path d="m42.6 34.1c0-2 0-4.1 0-6.1.1 0 .1 0 .1.1.1 0 .1.1.1.2v6.1c0-.1 0-.1-.1-.2 0-.1 0-.1-.1-.1z" fill="#434240"/></g><g><path d="m45 27.9v6.1c-.2 0-.4.1-.4.2v-6.1c.1-.1.2-.2.4-.2z" fill="#434240"/></g><g><path d="m7.7 28.2v6.1h-2.1v-6.1z" fill="#fff"/></g><g><path d="m8 27.8c.1 0 .1.1.1.2s-.2.2-.4.2h-2.1l.7-.4h1.4z" fill="#fff"/></g><g><path d="m8.1 28v6.1c0 .1-.2.2-.4.2v-6.1c.2 0 .4-.1.4-.2z" fill="#fff"/></g><g><path d="m9.8 34.1v-6.1c0 .1 0 .1.1.1s.2.1.3.1v6.1c-.1 0-.2 0-.3-.1 0 0-.1 0-.1-.1z" fill="#fff"/></g><g><path d="m13.1 28v6.1c0 .1-.2.2-.4.2v-6.1c.2 0 .4-.1.4-.2z" fill="#fff"/></g><g><path d="m13 27.8c.1 0 .1.1.1.2s-.2.2-.4.2h-2.5c-.1 0-.2 0-.3-.1-.1 0-.1-.1-.1-.2s.2-.2.4-.2h2.5c.1.1.2.1.3.1z" fill="#fff"/></g><g><path d="m15.2 28.2v6.1c-.1 0-.2 0-.3-.1-.1 0-.1-.1-.1-.2v-6.1c0 .1 0 .1.1.2s.2.1.3.1z" fill="#fff"/></g><g><path d="m17.7 28.2v6.2h-2.5v-6.2z" fill="#fff"/></g><g><path d="m18 28v6.1c0 .1-.2.2-.4.2v-6.1c.3 0 .4-.1.4-.2z" fill="#fff"/></g><g><path d="m17.9 27.9c.1 0 .1.1.1.1 0 .1-.2.2-.4.2h-2.5c-.1 0-.2 0-.3-.1-.1 0-.1-.1-.1-.2s.2-.2.4-.2h2.5c.2.1.3.1.3.2z" fill="#fff"/></g><g><path d="m20.2 28.2v6.1c-.1 0-.2 0-.3-.1-.1 0-.1-.1-.1-.2v-6.1c0 .1 0 .1.1.2s.2.1.3.1z" fill="#fff"/></g><g><path d="m23 28v6.1c0 .1-.2.2-.4.2v-6.1c.2 0 .4 0 .4-.2z" fill="#fff"/></g><g><path d="m22.9 27.9c.1 0 .1.1.1.1 0 .1-.2.2-.4.2h-2.5c-.1 0-.2 0-.3-.1-.1 0-.1-.1-.1-.2s.2-.2.4-.2h2.5c.1.1.2.1.3.2z" fill="#fff"/></g><g><path d="m25.1 28.3v6.1c-.1 0-.2 0-.3-.1-.1 0-.1-.1-.1-.2v-6.1c0 .1 0 .1.1.2.1 0 .2.1.3.1z" fill="#fff"/></g><g><path d="m27.9 27.9c.1 0 .1.1.1.2s-.2.2-.4.2h-2.5c-.1 0-.2 0-.3-.1-.1 0-.1-.1-.1-.2s.2-.2.4-.2h2.5c.1 0 .2.1.3.1z" fill="#fff"/></g><g><path d="m28 28.1v6.1c0 .1-.2.2-.4.2v-6.1c.2 0 .4-.1.4-.2z" fill="#fff"/></g><g><path d="m30.1 28.3v6.1c-.1 0-.2 0-.3-.1-.1 0-.1-.1-.1-.2v-6.1c0 .1 0 .1.1.2s.2.1.3.1z" fill="#fff"/></g><g><path d="m32.8 27.9c.1 0 .1.1.1.2s-.2.2-.4.2h-2.5c-.1 0-.2 0-.3-.1-.1 0-.1-.1-.1-.2s.2-.2.4-.2h2.5c.2.1.3.1.3.1z" fill="#fff"/></g><g><path d="m33 28.1v6.1c0 .1-.2.2-.4.2v-6.1c.2 0 .4-.1.4-.2z" fill="#fff"/></g><g><path d="m34.7 34.2v-6.1c0 .1 0 .1.1.1s.2.1.3.1v6.1c-.1 0-.2 0-.3-.1-.1.1-.1 0-.1-.1z" fill="#fff"/></g><g><path d="m37.8 28c.1 0 .1.1.1.2s-.2.2-.4.2h-2.5c-.1 0-.2 0-.3-.1-.1 0-.1-.1-.1-.2s.2-.2.4-.2h2.5c.2 0 .3 0 .3.1z" fill="#fff"/></g><g><path d="m37.9 28.1v6.1c0 .1-.2.2-.4.2v-6.1c.3 0 .4-.1.4-.2z" fill="#fff"/></g><g><path d="m40 28.3v6.1c-.1 0-.2 0-.3-.1-.1 0-.1-.1-.1-.2v-6.1c0 .1 0 .1.1.2.2.1.2.1.3.1z" fill="#fff"/></g><g><path d="m42.5 28.3v6.2h-2.5v-6.2z" fill="#fff"/></g><g><path d="m42.9 28.1v6.1c0 .1-.2.2-.4.2v-6.1c.2 0 .4 0 .4-.2z" fill="#fff"/></g><g><path d="m42.8 28c.1 0 .1.1.1.2s-.2.2-.4.2h-2.5c-.1 0-.2 0-.3-.1-.1 0-.1-.1-.1-.2s.2-.2.4-.2h2.5c.1 0 .2 0 .3.1z" fill="#fff"/></g><g><path d="m45 28.4v6.1c-.1 0-.2 0-.3-.1-.1 0-.1-.1-.1-.2v-6.1c0 .1 0 .1.1.2.1 0 .2.1.3.1z" fill="#fff"/></g><g><path d="m46.4 27.9.7.4h-2.1c-.1 0-.2 0-.3-.1-.1 0-.1-.1-.1-.2s.2-.2.4-.2z" fill="#fff"/></g><g><path d="m47.1 28.4v6.1h-2.1v-6.1z" fill="#fff"/></g><g><path d="m33.6 29v1.5c0-.5 0-1 0-1.5z" fill="#434240"/></g><g><path d="m33.6 35.1c-.2 0-.4.1-.4.2v-6.1c0-.1.2-.2.4-.2v6.1c0-2 0-4.1 0-6.1.1 0 .2 0 .3.1v6.1c-.1-.1-.2-.1-.3-.1z" fill="#434240"/></g><g><path d="m34 29.2v6.1.8-6.2z" fill="#fff"/></g><g><path d="m34 35.3c0-.1 0-.1-.1-.2 0-2 0-4.1 0-6.1.1 0 .1.1.1.2z" fill="#434240"/></g><g><path d="m31 29.6-.1 6.2-27.6-.2v-6.1z" fill="#434240"/></g><g><path d="m49.5 29.7v6.2l-13.2-.1v-6.2z" fill="#434240"/></g><g><path d="m33.3 29.2-.1 6.1v.8l.1-6.2z" fill="#434240"/></g><g><path d="m33.9 29c.1 0 .1.1.1.2v.8c0 .1-.2.2-.4.2-.1 0-.2 0-.3-.1-.1 0-.1-.1-.1-.2v-.8c0-.1.2-.2.4-.2.1.1.2.1.3.1z" fill="#fff"/></g><g><path d="m34 29.9v6.1c0 .1-.2.2-.4.2-.1 0-.2 0-.3-.1-.1 0-.1-.1-.1-.2v-6.1c0 .1 0 .1.1.2.1 0 .2.1.3.1.2.1.4 0 .4-.2z" fill="#fff"/></g><g><path d="m2.5 36.4v-6.1c0 .2.1.4.4.5v6.1c-.3-.1-.4-.3-.4-.5z" fill="#b2b0af"/></g><g><path d="m50.5 30.6v6.1c0 .2-.1.4-.4.5v-6.1c.3-.1.4-.3.4-.5z" fill="#0074d1"/></g><g><path d="m33.6 37.4c-.2 0-.4.1-.4.2v-6.1c0-.1.2-.2.4-.2.1 0 .2 0 .3.1v6.1c-.1-.1-.2-.1-.3-.1z" fill="#434240"/></g><g><path d="m33.8 37.5c0-2 0-4.1 0-6.1v6.1c0-2.1 0-4.1 0-6.1.1 0 .1.1.1.2v6.1c0-.1 0-.2-.1-.2z" fill="#434240"/></g><g><path d="m34 31.5-.1 6.1z" fill="#fff"/></g><g><path d="m33.2 31.5v6.1 1.6-6.2z" fill="#434240"/></g><g><path d="m33.2 39.2v-6.2z" fill="#434240"/></g><g><path d="m34 31.5-.1 6.1v1.6-6.2z" fill="#fff"/></g><g><path d="m33.2 39.2v-6.1c0 .1 0 .1.1.1s.2.1.3.1c.2 0 .4-.1.4-.2v6.1c0 .1-.2.2-.4.2-.1 0-.2 0-.3-.1-.1 0-.1-.1-.1-.1z" fill="#fff"/></g><g><path d="m34 31.5v1.5c0 .1-.2.2-.4.2-.1 0-.2 0-.3-.1-.1 0-.1-.1-.1-.2v-1.5c0-.1.2-.2.4-.2.1 0 .2 0 .3.1 0 .1.1.1.1.2z" fill="#fff"/></g><g><path d="m33.5 34.4v1.5c0-.5 0-1 0-1.5z" fill="#434240"/></g><g><path d="m33.8 40.6c0-2 0-4.1 0-6.1z" fill="#434240"/></g><g><path d="m33.5 40.5c-.2 0-.4.1-.4.2v-6.1c0-.1.2-.2.4-.2v6.1c0-2 0-4.1 0-6.1.1 0 .2 0 .3.1v6.1c-.1-.1-.2-.1-.3-.1z" fill="#434240"/></g><g><path d="m33.9 34.6v6.1 1.6-6.2z" fill="#fff"/></g><g><path d="m33.9 40.7c0-.1 0-.1-.1-.2 0-2 0-4.1 0-6.1.1 0 .1.1.1.2z" fill="#434240"/></g><g><path d="m33.2 34.6v6.1l-.1 1.6v-6.2z" fill="#434240"/></g><g><path d="m33.9 36.1v6.1c0 .1-.2.2-.4.2-.1 0-.2 0-.3-.1-.1 0-.1-.1-.1-.2v-6.1c0 .1 0 .1.1.2.1 0 .2.1.3.1.2.1.4 0 .4-.2z" fill="#fff"/></g><g><path d="m33.1 42.3v-6.1z" fill="#434240"/></g><g><path d="m33.9 34.6v1.5c0 .1-.2.2-.4.2-.1 0-.2 0-.3-.1-.1 0-.1-.1-.1-.2v-1.5c0-.1.2-.2.4-.2.1 0 .2 0 .3.1s.1.1.1.2z" fill="#fff"/></g><g><path d="m33.5 37.5v1.5c0-.5 0-1 0-1.5z" fill="#434240"/></g><g><path d="m33.5 43.6c0-2 0-4.1 0-6.1.1 0 .2 0 .3.1v6.1c-.1-.1-.2-.1-.3-.1z" fill="#434240"/></g><g><path d="m33.5 43.6c-.2 0-.4.1-.4.2v-6.1c0-.1.2-.2.4-.2z" fill="#434240"/></g><g><path d="m33.9 37.7-.1 6.1v1.6-6.2z" fill="#fff"/></g><g><path d="m33.8 43.8c0-.1 0-.1-.1-.2 0-2 0-4.1 0-6.1v6.1c0-2 0-4.1 0-6.1.1 0 .1.1.1.2z" fill="#434240"/></g><g><path d="m33.1 37.7v6.1 1.6-6.2z" fill="#434240"/></g><g><path d="m36.3 29.6v6.2l-.2 9.6v-6.1z" fill="#434240"/></g><g><path d="m50.1 31.1v6.1l-14 8.2v-6.1z" fill="#0074d1"/></g><g><path d="m50.1 30.1c.5.3.5.7 0 1l-14 8.1.2-9.6 13.2.1z" fill="#3f9ae0"/></g><g><path d="m33.8 39.2v6.1c0 .1-.2.2-.4.2-.1 0-.2 0-.3-.1-.1 0-.1-.1-.1-.2v-6.1c0 .1 0 .1.1.2.1 0 .2.1.3.1.3 0 .4 0 .4-.2z" fill="#fff"/></g><g><path d="m33.9 37.7v1.5c0 .1-.2.2-.4.2-.1 0-.2 0-.3-.1-.1 0-.1-.1-.1-.2v-1.5c0-.1.2-.2.4-.2.1 0 .2 0 .3.1 0 .1.1.1.1.2z" fill="#fff"/></g><g><path d="m36.1 39.3v6.1l-2.4 1.4v-6.2z" fill="#2d2c2b"/></g><g><path d="m33.1 40.8-.1 6.1v.3l.1-6.2z" fill="#434240"/></g><g><path d="m33.1 41-.1 6.2-2.3 1.3v-6.1z" fill="#2d2c2b"/></g><g><path d="m31 29.6-.1 6.2-.2 12.7v-6.1z" fill="#ffd651"/></g><g><path d="m33.7 40.6c-.1-.1-.2-.1-.3-.1-.2 0-.4.1-.4.2v.3l-2.3 1.4.3-12.8-27.7-.1 2.3-1.3h2.1c.2 0 .4-.1.4-.2s0-.1-.1-.2c-.1 0-.2-.1-.3-.1h-1.4l2.3-1.3 35.5.2 2.3 1.3h-1.4c-.2 0-.4.1-.4.2s0 .1.1.2c.1 0 .2.1.3.1h2.1l2.3 1.3-13.2-.1-.2 9.6zm-.1-7.3c.2 0 .4-.1.4-.2v-1.5c0-.1 0-.1-.1-.2-.1 0-.2-.1-.3-.1-.2 0-.4.1-.4.2v1.5c0 .1 0 .1.1.2.1 0 .2.1.3.1m-.1 3c.2 0 .4-.1.4-.2v-1.5c0-.1 0-.1-.1-.2-.1 0-.2-.1-.3-.1-.2 0-.4.1-.4.2v1.5c0 .1 0 .1.1.2s.2.1.3.1m0 3.1c.2 0 .4-.1.4-.2v-1.5c0-.1 0-.1-.1-.2-.1 0-.2-.1-.3-.1-.2 0-.4.1-.4.2v1.5c0 .1 0 .1.1.2s.2.1.3.1m-.9-11.1c.2 0 .4-.1.4-.2s0-.1-.1-.2c-.1 0-.2-.1-.3-.1h-2.5c-.2 0-.4.1-.4.2s0 .1.1.2c.1 0 .2.1.3.1zm7.5-.4c-.2 0-.4.1-.4.2s0 .1.1.2c.1 0 .2.1.3.1h2.5c.2 0 .4-.1.4-.2s0-.1-.1-.2c-.1 0-.2-.1-.3-.1zm-2.5.4c.2 0 .4-.1.4-.2s0-.1-.1-.2c-.1 0-.2-.1-.3-.1h-2.5c-.2 0-.4.1-.4.2s0 .1.1.2c.1 0 .2.1.3.1zm-24.9-.1c.2 0 .4-.1.4-.2s0-.1-.1-.2c-.1 0-.2-.1-.3-.1h-2.5c-.2 0-.4.1-.4.2s0 .1.1.2c.1 0 .2.1.3.1zm9.9 0c.2 0 .4-.1.4-.2s0-.1-.1-.2c-.1 0-.2-.1-.3-.1h-2.5c-.2 0-.4.1-.4.2s0 .1.1.2c.1 0 .2.1.3.1zm-4.9 0c.2 0 .4-.1.4-.2s0-.1-.1-.2c-.1 0-.2-.1-.3-.1h-2.5c-.2 0-.4.1-.4.2s0 .1.1.2c.1 0 .2.1.3.1zm9.9.1c.2 0 .4-.1.4-.2s0-.1-.1-.2c-.1 0-.2-.1-.3-.1h-2.5c-.2 0-.4.1-.4.2s0 .1.1.2c.1 0 .2.1.3.1zm6 1.9c.2 0 .4-.1.4-.2v-.8c0-.1 0-.1-.1-.2-.1 0-.2-.1-.3-.1-.2 0-.4.1-.4.2v.8c0 .1 0 .1.1.2.1 0 .2.1.3.1" fill="#434240"/></g><g><path d="m33 47.2.1-6.2.6-.4v6.2" fill="#fff"/></g><g><path d="m33.4 46.7c-.2 0-.4.1-.4.2v-6.1c0-.1.2-.2.4-.2.1 0 .2 0 .3.1v6.1c-.1-.1-.2-.1-.3-.1z" fill="#2d2c2b"/></g><g><path d="m33.7 40.6-.6.4v-.3c0-.1.2-.2.4-.2 0 .1.1.1.2.1z" fill="#fff"/></g><g><path d="m30.7 42.4v6.1l-3 1.8v-6.2z" fill="#d6d4d2"/></g><g><path d="m26 44.1v6.2l-23.1-13.4v-6.1z" fill="#c4c2c0"/></g><g><path d="m3.3 29.5 27.7.1-.2 12.8-3 1.7c-.5.3-1.3.3-1.7 0l-23.2-13.3c-.5-.3-.5-.7 0-1z" fill="#e9e8e6"/></g><g><path d="m27.7 44.1v6.1c-.5.3-1.3.3-1.7 0v-6.1c.5.3 1.3.3 1.7 0z" fill="#d6d4d2"/></g></g></g><path d="m36.1 45.4-5.4 3.1v-6.1l5.3-3.1z" fill="#2d2c2b"/></g><g><g><path d="m20.5 34c.9.5.9 1.3 0 1.8s-2.2.5-3.1 0-.9-1.3 0-1.8 2.3-.5 3.1 0z" fill="#0074d1"/></g><g><path d="m22.6 32.8c2 1.1 2 3 0 4.1s-5.2 1.1-7.2 0-2-3 0-4.1 5.2-1.1 7.2 0zm-6.5 3.8c1.6.9 4.2.9 5.8 0s1.6-2.4 0-3.3-4.2-.9-5.8 0-1.6 2.4 0 3.3" fill="#0074d1"/></g></g><g><g enable-background="new"><g><path d="m19 35.2-3.6-2-4.4-9.1 3.6 2.1z" fill="#f25a5a"/></g><g><path d="m10.1 23.1 3.6 2.1c.4.2.6.6.8 1l-3.5-2.1c-.2-.4-.5-.8-.9-1z" fill="#f25a5a"/></g><g><path d="m18.1 8.3 3.6 2.1c.7.4 1.1 1.2 1.1 2.5 0 2.4-1.7 5.4-3.8 6.6l-3.6-2.1c2.1-1.2 3.8-4.2 3.8-6.6 0-1.3-.5-2.1-1.1-2.5z" fill="#f25a5a"/></g><g><path d="m16.2 19.7-3.6-2.1c.7.4 1.7.3 2.7-.3l3.6 2.1c-1 .6-2 .7-2.7.3z" fill="#f25a5a"/></g><g><path d="m21.1 3.1 3.6 2.1c-1.5-.9-3.5-.7-5.8.6l-3.6-2.1c2.3-1.4 4.3-1.5 5.8-.6z" fill="#f25a5a"/></g><g><path d="m13.2 24.9-3.6-2.1c-1.6-.9-2.5-2.9-2.3-5.8.2-4.9 3.6-10.6 7.7-13.1.1-.1.3-.2.4-.2l3.6 2.1c-.1.1-.3.2-.4.2-4.1 2.6-7.4 8.3-7.7 13.1-.2 2.9.7 4.9 2.3 5.8z" fill="#dd4a4a"/></g><g><path d="m13.2 24.9-3.6-2.1c-1.6-.9-2.5-2.9-2.3-5.8l3.6 2.1c-.2 2.9.7 4.9 2.3 5.8z" fill="#f25a5a"/></g><g><path d="m18.9 5.7c4.5-2.6 8.1-.5 8.1 4.6 0 2.8-1 5.9-2.7 8.5-.4.7-.8 1.5-1 2.2l-4.3 14.2-4.4-9c-.2-.5-.5-.9-1-1.1-1.8-.8-2.9-2.9-2.7-6 .2-4.9 3.6-10.6 7.7-13.1.1-.1.2-.2.3-.3zm0 13.7c2.1-1.2 3.8-4.2 3.8-6.6s-1.7-3.4-3.8-2.2-3.8 4.2-3.8 6.6c0 2.5 1.7 3.4 3.8 2.2" fill="#cc4848"/></g></g></g><path d="m13.8 13.8c-.5.2-1 .5-1.4.8-.4.4-.6.8-.9 1.3 0 .2-.3.2-.3 0-.4-1-1.2-1.9-2.2-2.2-.2-.1-.2-.3 0-.4.5-.2 1-.5 1.4-.9s.7-.8.8-1.4c0-.2.3-.2.3 0 .2.5.5 1 .9 1.4s.8.7 1.4.9c.2.2.2.4 0 .5z" fill="#fff"/></g></g></svg>