<svg id="gold_x5F_metal_x5F_red" enable-background="new 0 0 256 256" height="256" viewBox="0 0 256 256" width="256" xmlns="http://www.w3.org/2000/svg" xmlns:xlink="http://www.w3.org/1999/xlink"><linearGradient id="lg1"><stop offset="0" stop-color="#f15454"/><stop offset="1" stop-color="#d93b3b"/></linearGradient><linearGradient id="SVGID_1_" gradientUnits="userSpaceOnUse" x1="129.611" x2="129.611" xlink:href="#lg1" y1="-1.599" y2="43.376"/><linearGradient id="SVGID_2_" gradientUnits="userSpaceOnUse" x1="207.966" x2="142.519" xlink:href="#lg1" y1="11.297" y2="113.102"/><linearGradient id="SVGID_3_" gradientUnits="userSpaceOnUse" x1="27.798" x2="163.262" xlink:href="#lg1" y1="62.163" y2="62.163"/><linearGradient id="lg2"><stop offset="0" stop-color="#f9aa2d"/><stop offset="1" stop-color="#e09115"/></linearGradient><linearGradient id="SVGID_4_" gradientUnits="userSpaceOnUse" x1="128.981" x2="128.981" xlink:href="#lg2" y1="115.221" y2="253.237"/><linearGradient id="SVGID_5_" gradientUnits="userSpaceOnUse" x1="128.981" x2="128.981" xlink:href="#lg2" y1="227.665" y2="134.863"/><path d="m56.491 1h146.24v40.517h-146.24z" fill="url(#SVGID_1_)"/><path d="m103.22 118.07 53.005 5.255 65.376-77.543c3.897-4.627 6.848-11.227 6.584-14.741-.267-3.515-4.02-9.757-8.39-13.942l-16.797-16.099z" fill="url(#SVGID_2_)"/><path d="m34.645 41.885 73.298 81.44h55.318l-106.741-122.325-19.992 17.611c-4.538 3.999-8.438 9.005-8.713 11.186-.273 2.179 2.785 7.59 6.83 12.088z" fill="url(#SVGID_3_)"/><path d="m200.662 183.317c0 39.592-32.089 71.683-71.681 71.683-39.589 0-71.681-32.091-71.681-71.683 0-39.589 32.092-71.68 71.681-71.68 39.592.001 71.681 32.092 71.681 71.68z" fill="url(#SVGID_4_)"/><path d="m128.981 250.55c-38.844 0-70.447-30.897-71.624-69.458-.023.742-.058 1.481-.058 2.226.001 39.591 32.093 71.682 71.682 71.682 39.592 0 71.681-32.091 71.681-71.683 0-.744-.034-1.483-.058-2.226-1.176 38.561-32.779 69.459-71.623 69.459z" fill="#2c2c2c" opacity=".1"/><path d="m171.03 183.317c0 23.229-18.821 42.051-42.049 42.051s-42.049-18.821-42.049-42.051c0-23.227 18.821-42.048 42.049-42.048s42.049 18.822 42.049 42.048z" fill="url(#SVGID_5_)"/></svg>