<svg id="Layer_1" enable-background="new 0 0 53 53" viewBox="0 0 53 53" xmlns="http://www.w3.org/2000/svg"><g><g><g><g><g><path d="m2.5281644 37.121357c-.0041411 2.0685425.9970016 3.7440567 2.5029583 4.5631943l2.6394134 1.4355812c1.8525991-.3585854 3.6137905-1.0421486 5.1610575-1.9138832l-10.3005002-5.6021348z" fill="#2f4ba5"/></g></g><g><g><path d="m17.9600258 36.4175911-15.4139838-8.3832588-.0149486 7.5697823 10.3004999 5.6021347c2.3454945-1.3214493 4.1970837-3.0755959 5.1284325-4.7886582z" fill="#3851ba"/></g></g><g><g><path d="m5.21313 15.4099026-2.6395142-1.4355574-.0127266 6.4902334 7.7708769 4.2264004z" fill="#3851ba"/></g></g><g><g><path d="m13.5058899 30.4461613-3.1741238-5.7551823-7.7708769-4.2264004-.0148472 7.5697537 15.4139843 8.3832588c1.4991889-2.757309.6123824-5.4073525-4.4541364-5.9714298z" fill="#2f4ba5"/></g></g></g><g><g><g><path d="m47.9794655 4.5023742-2.6491089-1.4582072c-.8274193-.4509537-1.8077545-.6412687-2.8628311-.4964557 0 0-.0040398 0-.0082855 0-.0040398 0-.0040398.0041411-.0082817.0041411l-2.8899003.4061084 7.5564461 4.1594343c.6143036-.4772899.9971047-1.4025795.8619614-2.6150209z" fill="#f9d12b"/></g></g><g><g><path d="m2.6604784 12.9648952c-.0124233.0744648-.0247457.1489286-.0330279.2275343-.0124235.0992861-.0248468.1985722-.0331292.302v.0041409c-.0041411.0579253-.0124233.1199913-.0124233.1820326-.0041411.0331039-.0082822.0703239-.0082822.1075687v.1861734l2.6395142 1.4355575c.9274106.2325602 3.5335941-.2421293 2.7012277-.5424623-5.9735265-2.1553555 1.7782607-1.4098768 5.1828742-1.6305437l-8.0877238-4.4519149c-1.1982002 1.0273028-2.0679381 2.5157862-2.3490297 4.1799135z" fill="#f9d12b"/></g></g><g><g><path d="m7.9766765 7.3963661h-.0207057l-.074439.0124235c.0041409 0 .0041409.0041409.0082822.0041409-1.0634619.1676402-2.0500604.6601314-2.8803059 1.3720512l8.0877237 4.4519148c.2431145-.0157566.4656239-.0360584.6578331-.063076l10.4400854-2.1100569-8.6059703-4.7371468z" fill="#eabe03"/></g></g><g><g><path d="m27.575119 4.6422887-11.985939 1.6843281 8.6059704 4.7371468 11.0049991-2.2242393z" fill="#f9d12b"/></g></g><g><g><path d="m44.7150459 6.9164748c.8407478.7088652 1.7515945.7063909 2.4024582.2009206l-7.5564461-4.1594346-11.985939 1.6843279 7.6250305 4.1972356z" fill="#eabe03"/></g></g></g><g><g enable-background="new"><g><g><g><path d="m15.2124386 47.8995018c2.1311665-1.0171776-.2940197 1.4970169-1.6962461 2.5432549l-2.6435547-1.4355545c-.1820078-.0992889-.2978582-.3185654-.2441244-.6040268l1.1625462-5.9573898c.0579758-.2937431-.0620165-.5543785-.2730122-.6702042h4.3479824c.2109966.1158485.3351288.3764877.2772541.6702042z" fill="#2f4ba5"/></g></g></g><g><g><g><path d="m50.4718475 9.0484371-.0429955 23.1495686c-.0059662 3.2120323-2.4234695 6.1550751-5.4026642 6.5737724l-22.9227828 3.2215881c-.1491642.0209656-.2917557.1017952-.4080124.221859l-7.5192137 8.0798798c-.1107693.1192589-.2373524.1826668-.3604021.1999626-.3268738.0459366-.6291332-.2332687-.5464878-.6553802l1.1639662-5.9566154c.0836735-.4265556-.2105608-.7821426-.6049261-.7267189l-3.2774935.4606209c-2.975955.4182434-5.3870225-1.8461876-5.3810563-5.0582199l.0429983-23.1495686 18.9823723 10.0894012c.8504143.5706367 1.8613968.7736301 2.8725395.6315231 1.0111752-.1421108 2.0226784-.6293392 2.8739319-1.4391308 7.7359295-6.8930092 15.3741894-13.6023426 20.526762-15.6420507" fill="#4559cc"/></g></g></g></g></g><g><g><g><path d="m45.0908012 3.9902475c2.9759674-.4182448 5.3836212 1.8466456 5.377655 5.0586948l-19.7843398 18.7757151c-.851265.8097954-1.8627129 1.2970104-2.8738804 1.4391212s-2.0221424-.060873-2.872551-.6315136l-19.7249036-13.2230519c.0001135-.0609827.001215-.1219835.0030355-.182745.1512837-3.2072029 2.5113235-5.9850998 5.3963151-6.3905592z" fill="#ffe03c"/></g></g></g></g><g opacity=".3"><g><g><g><path d="m11.2709236 11.6882105c.1196957-.2527323.3626108-.441246.6603622-.4771528l6.381876-.8209152c.463541-.0577145.8855305.2735233.9430294.7371712.0568295.4669952-.2699795.8886433-.7357597.9452906l-6.381876.8209162c-.463541.0577135-.8855305-.2735243-.9430294-.7371721-.0196676-.1670086.0088206-.3275654.0753975-.4681379z" fill="#fff"/></g></g></g><g><g><g><path d="m20.0928612 10.5980253c.1196957-.2527323.3626099-.441246.6603622-.4771528l1.2410603-.1527681c.463541-.0577145.8855305.2735233.9430294.7371721.0568275.4669952-.2714729.8879318-.7357616.9452906l-1.2410583.1527681c-.463541.0577145-.8855305-.2735233-.9430294-.7371721-.0196687-.1670084.0088195-.3275643.0753974-.4681378z" fill="#fff"/></g></g></g></g><g opacity=".2"><g><g><g><path d="m33.1135445 36.0472565c.1196938-.2527313.3626099-.441246.6603622-.47715l6.3818741-.8209152c.4635429-.0577164.8855324.2735214.9430313.7371712.0568275.4669952-.2699814.8886414-.7357597.9452896l-6.3818779.8209152c-.4635391.0577164-.8855286-.2735214-.9430275-.7371712-.0196686-.1670074.0088196-.3275642.0753975-.4681396z" fill="#fff"/></g></g></g><g><g><g><path d="m41.935482 34.9570732c.1196938-.2527313.3626099-.441246.6603622-.4771538l1.2410583-.1527672c.4635429-.0577126.8855324.2735252.9430313.7371712.0568275.4669952-.2714729.8879318-.7357597.9452934l-1.2410621.1527672c-.4635391.0577126-.8855286-.2735252-.9430275-.7371712-.0196685-.1670112.0088196-.327568.0753975-.4681396z" fill="#fff"/></g></g></g></g></g></svg>