<svg viewBox="0 0 512 512" xmlns="http://www.w3.org/2000/svg" xmlns:xlink="http://www.w3.org/1999/xlink"><linearGradient id="linear-gradient" gradientUnits="userSpaceOnUse" x1="387.99" x2="124.02" y1="357.78" y2="93.8"><stop offset="0" stop-color="#13b601"/><stop offset=".57" stop-color="#13b601"/><stop offset="1" stop-color="#cbf4b4"/></linearGradient><linearGradient id="linear-gradient-2" gradientUnits="userSpaceOnUse" x1="298.49" x2="185.5" y1="274.9" y2="161.9"><stop offset="0" stop-color="#cbf4b4"/><stop offset=".57" stop-color="#fff"/><stop offset="1" stop-color="#fff"/></linearGradient><g id="BASIC_UI_GRADIENT_FILL" data-name="BASIC UI GRADIENT FILL"><path d="m496.53 129.86c-13.44-49.47-64.89-100.93-114.37-114.37-30.34-7.56-70.98-15.35-126.16-15.49-55.16.14-95.8 7.93-126.14 15.49-49.47 13.44-100.93 64.89-114.37 114.37-7.56 30.33-15.35 70.98-15.49 126.14.13 55.17 7.92 95.81 15.48 126.15 13.44 49.48 64.9 100.93 114.37 114.37 30.34 7.56 71 15.35 126.15 15.48 55.16-.13 95.81-7.92 126.15-15.48 49.48-13.44 100.93-64.89 114.37-114.37 7.56-30.34 15.35-71 15.49-126.15-.13-55.16-7.92-95.8-15.48-126.14z" fill="#e5f4d9"/><path d="m374.9 95.7c-55.46-5.93-182.33-5.93-237.79 0-22.6 2.62-44.28 24.3-46.9 46.9a780.25 780.25 0 0 0 0 166.38c2.62 22.61 24.3 44.28 46.9 46.91 18.38 2 44.61 3.27 73.47 3.93 9.92 17 20.46 34.48 30.56 52 6.86 11.9 22.88 11.9 29.74 0 10.1-17.53 20.64-35 30.56-52 28.86-.66 55.08-2 73.46-3.93 22.6-2.63 44.28-24.3 46.9-46.91a780.25 780.25 0 0 0 0-166.38c-2.62-22.6-24.3-44.28-46.9-46.9z" fill="url(#linear-gradient)"/><path d="m282.41 284.36h-108.87a16 16 0 1 1 0-31.92h108.87a16 16 0 0 1 0 31.92zm56.07-72h-164.94a16 16 0 1 1 0-31.92h164.94a16 16 0 0 1 0 31.92z" fill="url(#linear-gradient-2)"/></g></svg>