<svg id="Layer_1" enable-background="new 0 0 65 65" height="512" viewBox="0 0 65 65" width="512" xmlns="http://www.w3.org/2000/svg"><g><g><g><g><g><g><g><path d="m4.3631172 39.2826004 3.675354 2.2530518-.0401611-13.7938824-3.6723023-2.2510986z" fill="#8d9799"/><path d="m4.4002266 53.0745926 3.6784668 2.2549438-.0402222-13.7938842-3.675354-2.2530518z" fill="#6d797a"/><path d="m4.4211617 60.8645096c.0100098.6500244.2299805 1.0999756.5999756 1.3200073l3.6799927 2.1799927c-.3699951-.2200317-.5999756-.6699829-.5999756-1.3200073l-.0224609-7.7149658-3.6784668-2.2549438z" fill="#a0a8aa"/><path d="m10.0211372 14.8745213 6.1838989-3.5695801-3.6114501-2.2138062-6.2424316 3.6033936c-1.1400146.6599731-2.0599976 2.25-2.0499878 3.5599976l.0248413 9.236145 3.6723022 2.2510986-.0271607-9.3172608c0-1.2999877.919983-2.8900146 2.0499878-3.5499877z" fill="#7e8a8c"/><path d="m30.6711617 2.9545383c.5800171-.3300171 1.0899658-.3600464 1.4699707-.1400146l-3.539978-2.1700439c-.3699951-.2199707-1.0300293-.1999511-1.5999756.1300049l-4.8321533 2.7893066 3.6114502 2.2138672z" fill="#a0a8aa"/><path d="m25.7804756 5.7776585-3.6114502-2.2138672-9.5754394 5.5273437 3.6114502 2.2138062z" fill="#8d9799"/></g><g><g><path d="m30.6744976 2.9548893c1.1364002-.6561012 2.0599804-.1297684 2.0636806 1.1761217l.1264763 44.6122704c.0037041 1.3058395-.9138737 2.8970566-2.0502739 3.5531578l-20.6506567 11.9226618c-1.134697.6551208-2.0599737.1278687-2.0636749-1.1779671l-.1264767-44.6122704c-.0037022-1.3058891.9155717-2.8961935 2.0502687-3.5513115z" fill="#494846"/></g></g><g><g><g><path d="m20.4827061 54.5662956c.6722984-.3881531 1.2174797-.0757637 1.2196693.6967392.0021915.7725449-.5394402 1.7123642-1.2117405 2.1005135-.672308.3881607-1.2189503.0766563-1.2211399-.6958885-.0021896-.7725029.5409012-1.7132073 1.2132111-2.1013642z" fill="#d9dddd"/></g></g><g><g><path d="m31.7994728 45.2652893c0 .6345711-.4448109 1.4091034-.9985046 1.726368l-6.4575768 3.7296104-7.698698 4.4450188-6.4917879 3.7482491c-.55058.3172874-1.0015993.0622139-1.0015993-.5723381l-.0155678-5.760807v-.0031128l-.0964279-33.0530778c0-.634552.4448118-1.4090843.9985046-1.7263699l20.6480637-11.9228773c.5505791-.3172669 1.0015984-.0621967 1.0015984.5723557l.0964279 33.0530777z" fill="#fff"/></g></g><g><g><path d="m24.3721085 8.0970926c.1163425-.0671701.2127552-.0140781.2131329.1195173.0003853.1356974-.0954113.2996569-.2117558.366828l-6.8132915 3.9336567c-.1163445.0671711-.2127552.014183-.2131405-.1215143-.0003796-.1335955.0954189-.2976599.2117615-.364831z" fill="#d9dddd"/></g></g><g><g><path d="m16.3767796 12.6724539c.13657-.0788488.2465286-.0142059.2469749.142724.0004444.15693-.1087952.3461275-.2453651.4249763-.1365719.0788488-.2482052.0171728-.2486515-.1397562-.0004445-.1569299.1104717-.3490953.2470417-.4279441z" fill="#d9dddd"/></g></g></g></g></g><g><g><g><path d="m16.6446934 55.1662865-6.4917879 3.7482491c-.55058.3172874-1.0015993.0622139-1.0015993-.5723381l-.0155678-5.760807v-.0031128l7.4902935-4.3237228z" fill="#eaefef"/></g></g><g><g><path d="m31.7994728 45.2652893c0 .6345711-.4448109 1.4091034-.9985046 1.726368l-6.4575768 3.7296104-.0186634-6.9117317 7.459177-4.3081512z" fill="#eaefef"/></g></g><g><g><path d="m24.3433914 50.7212677-7.698698 4.4450188-.0186615-6.9117318 7.6986961-4.4450187z" fill="#d9dddd"/></g></g></g><g><g><path d="m28.2717113 2.0540707c-.531538-.3017188-1.4079342-.3017188-1.9394722 0-.4740161.2729588-.5315361.6895433-.1723861.9912622.0431404-.0431404.1005745-.0861928.1723862-.1293333.531538-.3016312 1.4079342-.3016312 1.9394722 0 .0574322.0431404.1148643.0861928.1723862.1293333.3447704-.3017189.2873382-.7183034-.1723863-.9912622z" fill="#fff"/></g><g><path d="m26.3322392 2.9159997c-.0718117.0431404-.1292458.0861928-.1723862.1293333.0431404.0430527.1005745.0861928.1723862.1292455.5459175.3160989 1.4079342.3160989 1.9394722 0 .0574322-.0286725.1148643-.0718129.1723862-.1148655v-.01438c-.0575218-.0431404-.114954-.0861928-.1723862-.1293333-.5315381-.3016313-1.4079342-.3016313-1.9394722 0z" fill="#262e3f"/></g></g><g><g><g><path d="m15.790184 27.3402767c.0893755-.0541687.1787348-.1110306.2653999-.1760406l-.2599783 2.023037-.2681255-1.7170086c.0866642-.0352078.1733284-.0785313.2627039-.1299878z" fill="#efc348"/></g><g><path d="m14.1219378 24.409996-.9695425-.9803696 1.3432589.3358154c-.1408149.2031156-.2653991.4224797-.3737164.6445542z" fill="#efc348"/></g><g><path d="m17.4042797 23.992939c.0026951 1.0264034-.7203903 2.2775917-1.6140957 2.7948685-.8937044.5172596-1.6222115.1029129-1.6249228-.926218-.0027113-1.0264034.7203751-2.2775936 1.6140966-2.7948685.8937036-.5172615 1.6222116-.1028977 1.6249219.926218z" fill="#efc348"/></g><g><path d="m17.4394894 22.4925823c-.1083355-.0974922-.23563-.1679077-.3764458-.2112312l1.335144-1.882206z" fill="#efc348"/></g><g><path d="m17.4448929 25.4472427.9695435.9803696-1.3405647-.3358154c.1408309-.2058258.2653979-.4224797.3710212-.6445542z" fill="#efc348"/></g><g><path d="m17.8673725 24.0281467c.0108433-.1056252.0162487-.2112484.0162487-.311451 0-.1056232-.0054054-.2004051-.018959-.2951851l1.627634-.6337261z" fill="#efc348"/></g><g><path d="m14.1300535 27.3592358c.1083345.1002026.2356119.1706181.3764439.2139416l-1.3351431 1.882206z" fill="#efc348"/></g><g><path d="m17.1307487 27.0152874c.0595722.1354103-.0108433.3710232-.15979.5281048-.0352097.0379181-.0731106.0677052-.1083183.0893745-.1164684.0649948-.2247868.0487461-.2708206-.0541668-.0623016-.1354103.0081158-.3737335.1570625-.5281048.03792-.0379181.0731277-.0677052.1110458-.0893745.113741-.0649948.2247696-.0487461.2708206.0541668z" fill="#efc348"/></g><g><path d="m18.3710957 21.7938766c.1137562-.0649929.2220745-.0514565.2681255.0460358.0649948.1326981-.0027103.3710232-.1489639.5281029-.0379028.0406132-.0758209.0731106-.1164513.09478-.1110287.0649948-.2193642.0514565-.2681103-.0487442-.0622826-.1327.0054226-.3683128.151659-.5281048.03792-.0379181.0758381-.0704155.113741-.0920697z" fill="#efc348"/></g><g><path d="m13.7048635 26.433033-1.6303453.6364231 1.627634-1.2430744c-.0108271.1056252-.018959.2112484-.018959.3141613.0027103.1029129.008132.2004051.0216703.29249z" fill="#efc348"/></g><g><path d="m18.6798344 24.5643654c-.0433235.1570816-.1543694.3006077-.2708206.3683128-.0352077.0216694-.0704155.0352077-.1056232.0379181-.1489487.018959-.2220592-.1354103-.1651974-.3412361.046051-.1570816.1543694-.3006077.2708206-.3656006.0352077-.0216713.0731277-.0352097.1083355-.03792.1489467-.018959.2220745.1327.1624851.3385258z" fill="#efc348"/></g><g><path d="m15.7766466 22.516964c-.0893755.0514565-.1760397.1083336-.2627048.1733284l.2572832-2.023037.2708206 1.7170086c-.0866652.0352077-.1760397.0812435-.265399.1327z" fill="#efc348"/></g><g><path d="m15.0941734 28.4750137c-.0433235.1597919-.1543694.3087406-.273531.3764458-.0324974.0216541-.0677052.0324974-.1002026.0379009-.151659.0243816-.2274799-.1245651-.1733294-.3276806.0433407-.1625023.1543703-.311451.2735319-.3791561.0324974-.018959.0649939-.0324974.1002026-.0379181.1489641-.0216541.2274963.1245823.1733285.3304081z" fill="#efc348"/></g><g><path d="m13.1957188 28.0254593c-.11374.0649948-.2193632.0514412-.2681093-.046051-.0649939-.1354103.0027113-.3710232.151659-.5281029.0352077-.0406132.0758371-.0731106.11374-.09478.1137562-.0649948.2220745-.0514584.2681265.0487442.0649939.1327-.0027113.3683128-.1489649.5253925-.0379019.0406304-.0785323.0731278-.1164513.0947972z" fill="#efc348"/></g><g><path d="m16.4726582 21.344305c.0433235-.1597748.1543694-.3087387.2735138-.3764439.0325146-.0189419.0677052-.0324974.1002197-.0379028.151659-.0243797.2301903.124567.1733112.3303928-.0406132.1597919-.151659.3087406-.2708206.3764458-.0352077.018959-.0677052.0324974-.1002007.0379181-.151659.0216542-.2301921-.1245822-.1760234-.33041z" fill="#efc348"/></g><g><path d="m12.8869801 25.2549553c.046051-.1597748.1543694-.303318.2708206-.3683128.0352077-.0216694.0731268-.0352077.1083345-.0379181.1489477-.018959.2220745.1354103.1624861.3412361-.0460348.1570797-.1543531.2978954-.2708206.3656006-.0351915.0216713-.0703993.0352077-.105608.03792-.151659.018959-.2247858-.1354103-.1652126-.3385258z" fill="#efc348"/></g><g><path d="m14.4387922 22.8040333c-.0622997-.1354103.0081167-.3737354.1570807-.5281048.0351915-.0379181.0731106-.0677052.1110296-.0866642.11374-.0677052.2220745-.0514565.2708206.0514565.0595722.1354103-.0108271.3737335-.1597919.5281029-.0352077.03792-.0731096.0677052-.1083183.0893764-.1164504.0649948-.2247859.0487461-.2708207-.0541668z" fill="#efc348"/></g></g></g><g><g><g><path d="m17.3290272 33.8947144-1.3717604 3.6207237-.6750097.3888244-3.3003264 1.9067688 3.3003264-9.2042083z" fill="#3db542"/></g></g><g><g><path d="m28.8568535 30.068697-2.6999855 1.5583877-.6376667-.933176-1.4091034-2.0654125 1.4091034-3.9317837z" fill="#0074d1"/></g></g><g><g><path d="m26.156868 31.6270847-3.9380112 2.2738362-1.1882267.6843338-2.407608 1.3904419-2.6657553 1.5397415 1.3717604-3.6207237 3.7016029-9.7734528 3.0794678 4.5072346z" fill="#cc4848"/></g></g></g><g><g><path d="m31.7669735 33.5304451.0169849 5.9911804-22.6312351 13.0661507-.0169849-5.9911804z" fill="#ffd651"/></g></g><g><g><path d="m10.6899567 26.2170391c-.2266054 0-.4108896-.1834812-.4114256-.4103546l-.0144634-4.9871902c-.000536-.1473198.0782137-.283659.2057123-.3573189l4.2412148-2.4492645c.1976767-.1141071.4489241-.0458031.5619593.1505337.1135702.1966057.0460711.4483891-.1505346.5619602l-4.0349665 2.3300705.0139284 4.7490673c.000536.2271404-.1832123.4119606-.4103537.4124966-.0005351-.0000001-.0005351-.0000001-.001071-.0000001z" fill="#6d797a"/></g><g><path d="m10.7392416 43.6981964c-.070713 0-.141427-.0182114-.2051764-.0549088-.1274996-.0731239-.2057123-.2086601-.2062483-.355175l-.0150003-5.0147781c-.000535-.2274094.1832132-.4119644.4103537-.4127655h.0010719c.2266054 0 .4108896.1834793.4114246.4100838l.0128574 4.304966 3.8265753-2.2081947c.1971407-.114109.448925-.0463409.5619593.1505318.1135702.1968727.0460711.448391-.1505346.5619621l-4.4415693 2.5631027c-.0637503.0366935-.1344633.0551757-.2057133.0551757z" fill="#6d797a"/></g><g><path d="m30.1137218 15.0571318c-.2266045 0-.4108887-.1834803-.4114246-.4103537l-.0123215-4.3328209-3.762289 2.1728392c-.1971416.1141062-.448925.0458031-.5619602-.1505346-.1135712-.1966057-.0460701-.4483891.1505356-.5619593l4.3772831-2.5280151c.1269646-.0728559.282856-.0736599.4108906-.000268.1274986.0731249.2057114.2086592.2062473.355444l.0144653 5.0431719c.000536.2271414-.1832142.4119606-.4103546.4124966-.000536-.0000001-.000536-.0000001-.001072-.0000001z" fill="#6d797a"/></g><g><path d="m26.0042934 34.8865738c-.1424999 0-.2807121-.073658-.3567829-.2057114-.1135712-.1968727-.046072-.4483871.1505337-.5619583l3.9530029-2.2823925-.0144634-4.5575504c-.000536-.2271423.1826763-.4119625.4103527-.4127655h.0010719c.2266045 0 .4108887.1834812.4114246.4100857l.0149994 4.7959423c.000536.1475868-.0782127.2839279-.2057114.3575859l-4.1592522 2.4015884c-.0648192.0374985-.1355341.0551758-.2051753.0551758z" fill="#6d797a"/></g></g><g><path d="m15.2822571 30.606823v7.2974395l-3.3003264 1.9067688z" fill="#81d672"/></g><g><path d="m21.0306301 24.1212616v10.4639931l-2.407608 1.3904419-2.6657553 1.5397415 1.3717604-3.6207237z" fill="#f25a5a"/></g><g><path d="m25.5192013 24.6967125v5.9971962l-1.4091034-2.0654125z" fill="#3f9ae0"/></g><g><g><g><path d="m12.3307199 54.9122162 1.3709517-1.7281914-1.3762465-.1393852z" fill="#3048b5"/></g><g><path d="m14.2183695 52.8857841c0 .8449249-.5877819 1.8678818-1.3224964 2.2917595s-1.3309822.0847893-1.3338108-.7601357c0-.8392868.5906105-1.8650742 1.3225136-2.2889519.737543-.4238776 1.330965-.0819434 1.3337936.7573281z" fill="#dd4a4a"/></g><g><g><path d="m12.4378233 53.1827087 1.1288872.1143341-1.1245442 1.4175759z" fill="#fff"/></g></g></g></g><g><g><g><path d="m30.0891647 42.6733932c.0160885.0139008.0258522.0380287.0259418.0701141l.0066509 2.3455582c.0002136.0756569-.053236.1682358-.1190777.2062492l-3.3793507 1.9510689c-.066.038105-.1198006.0074463-.1200142-.0682106l-.0066509-2.3455582c-.0000896-.0320854.0096626-.067482.0257797-.0999756l1.7878838.5940437z" fill="#ffd06c"/></g></g><g><g><path d="m29.9952507 42.6752052c.0379181-.0218925.0717697-.0209846.093914-.001812l-1.7788372 2.6532898-1.7878838-.5940437c.0218029-.0445442.0555382-.0844727.0934582-.1063652z" fill="#efc348"/></g></g></g><g><g><g><ellipse cx="20.485" cy="49.488" fill="#3f9ae0" rx="2.055" ry="1.19" transform="matrix(.502 -.865 .865 .502 -32.595 42.334)"/></g></g><g><g><path d="m20.8668289 49.6099739.3601418.2041664-.1447792.2507858-.3601456-.205265c-.1033859.1459465-.2272224.2642975-.3576832.3396187-.1656075.0956116-.3212624.1109543-.4391403.0437622-.1169567-.0655823-.1822281-.2067947-.1827679-.3971062-.0005379-.1902809.063715-.407341.1799202-.6075401.1203384-.2089729.2788219-.3702354.4374905-.4618416s.3175468-.113575.4386749-.0440102c.2172127.1237641.2414417.4995118.0682888.87743zm-.2111625.0462875c.1604652-.2789879.1596088-.5809097-.0028381-.6734962-.0798206-.0454865-.1863575-.0318985-.291832.0289955-.1064014.0614319-.2117405.1701736-.2928982.3085976-.0774593.1352539-.1206036.2794342-.1202412.4069901.0003586.1265182.044178.2204933.1221466.2649384.0779705.0454865.1835861.0345688.2936897-.0289993.1110211-.0640985.2145119-.1728403.2919732-.3070261" fill="#fff"/></g></g></g></g><g><g><g><path d="m51.8299217 49.7398529c.001255.4113579-.2691765.8227158-.8125839 1.1363182l-19.1290646 11.0392647c-.2272549.1307793-.4837227.2348862-.757967.3097916.2259827-.0634804.4418297-.1460037.6386127-.24757v-19.4697877c.0254021-.0126915.0508041-.0279274.0761909-.0419006l19.1303387-11.040535c.540863-.3123302.8125648-.7224197.8125648-1.1325073z" fill="#a0a8aa"/></g><g><path d="m31.7694778 42.5054207c-1.0847359.5819435-2.7747135.5699158-3.8233986-.0394516-.5319824-.3097878-.7973309-.7135315-.7986031-1.1198044l.0419083 19.4507294c.001255.4050102.2678757.8100243.7998581 1.1198158 1.0349693.6013756 2.6931763.6208191 3.7802353.0607605z" fill="#8d9799"/></g></g><path d="m51.8299217 36.154808c.001255.4113579-.2691765.8227196-.8125839 1.136322l-19.1290646 11.0392647c-.2272549.1307755-.4837227.2348862-.757967.3097878.2259827-.0634804.4418297-.1460037.6386127-.24757v-5.8847427c.0254021-.0126915.0508041-.0279274.0761909-.0419006l19.1303387-11.040535c.540863-.3123302.8125648-.7224197.8125648-1.1325073z" fill="#c4c2c0"/><path d="m31.7694778 42.5054207c-1.0847359.5819435-2.7747135.5699158-3.8233986-.0394516-.5319824-.3097878-.7973309-.7135315-.7986031-1.1198044l.0419083 5.8656845c.001255.405014.2678757.8100243.7998581 1.1198158 1.0349693.6013756 2.6931763.6208191 3.7802353.0607605z" fill="#d6d4d2"/><g><path d="m27.9617348 40.2085648c-1.0805569.6238594-1.0870495 1.6343002-.015131 2.2572289 1.0727253.6234016 2.8179588.6234093 3.8985157-.0004501l19.1300545-11.0397378c1.0781174-.6224518 1.0838165-1.6333618.0110893-2.2567616-.535553-.3112316-1.23843-.467083-1.944603-.4670868-.707798-.0000038-1.4108124.1558456-1.9498711.4670715z" fill="#e9e8e6"/></g><g enable-background="new"><g><path d="m46.5630722 30.9377193c-.569767.3289566-.5727768.8631783-.0067101 1.1921406.5668373.3294106 1.4906731.3303108 2.0604362.0013542.570549-.3294029.57201-.8645248.0051727-1.1939335-.5660666-.3289642-1.4883536-.3289661-2.0588988.0004387z" fill="#b2b0af"/></g><g><path d="m46.7561378 31.0219593v1.0211926c.2410164.1264992.541893.1930618.8474274.1912193v-1.0226212c-.3053703.0022488-.6060409-.0638218-.8474274-.1897907z" fill="#2d2c2b"/><path d="m46.7015152 31.0009041c-.2417564-.14044-.3627357-.3244648-.363266-.5087757l.002903 1.022295c.0005302.1843109.1215096.3682938.363224.5087776.0152512.0088692.0359383.0116501.0517616.0199509v-1.0211926c-.0167236-.008749-.038517-.011692-.0546226-.0210552z" fill="#383736"/><path d="m47.6035652 31.21175v1.0226212c.3061905-.0018387.609314-.0695457.8473892-.2005806v-1.0234013c-.237709.1315689-.5410347.199112-.8473892.2013607z" fill="#21201f"/><path d="m48.8414497 30.4861183c.0004883.1867218-.1224098.3736916-.368866.5159721-.0063782.0036793-.0151291.0047016-.0216293.0082989v1.0234013c.0073586-.0040474.017292-.0052338.0245323-.0094032.2464561-.1423244.3693542-.3292503.368824-.515974z" fill="#383736"/></g><g><path d="m46.7072639 29.976202c-.4897537.2827587-.4923439.7419605-.0057678 1.0247269.487236.2831497 1.2813339.2839241 1.7710876.0011654.4904251-.2831459.4916801-.7431202.0044441-1.0262718-.4865722-.2827664-1.2793426-.2827683-1.7697639.0003795z" fill="#494846"/></g><g><path d="m47.1917114 30.2575474c-.2209282.127552-.2220955.3346958-.0026016.4622517.2197914.1277294.5780067.1280785.7989349.0005264.2212296-.1277275.2217941-.3352203.0020065-.4629498-.2194938-.1275558-.5771102-.1275558-.7983398.0001717z" fill="#c4c2c0"/></g></g><g enable-background="new"><g><path d="m33.5062294 38.3802338.0027199.5267181c.0003738.1333961.0880013.2665863.2630539.3683167.352375.2047768.9266205.205143 1.2812996.0003662.1783257-.1029549.2673073-.2382278.266922-.3733177l-.0027161-.5267181c.0003815.1350899-.0886002.2703629-.266922.3733177-.3546791.2047768-.9289246.2044106-1.2812996-.0003662-.1750526-.1017304-.26268-.2349206-.2630577-.3683167z" fill="#cc4848"/></g><g><path d="m33.773468 38.0067368c-.3546829.2047729-.3565521.5370369-.0041809.7418137.352375.2047768.9266205.205143 1.2812996.0003662.3546829-.2047729.3559227-.5373955.0035477-.7421722-.3523712-.2047769-.9259873-.2047845-1.2806664-.0000077z" fill="#dd4a4a"/></g></g><g enable-background="new"><g><path d="m30.1287212 39.8400688c-.7573071.4372292-.7612915 1.1463699-.0089073 1.5836067s1.9792156.4387398 2.7365208.0015068c.7573051-.4372292.7587357-1.1478653.0063515-1.5851059-.7523842-.4372367-1.9766579-.4372406-2.733965-.0000076z" fill="#b2b0af"/></g><g><path d="m30.343626 40.1886292c-.3128204-.1817932-.469389-.4197273-.4700623-.6580162l.0031528 1.105938c.0006733.2382889.1572418.476223.4700623.6580162.0809059.0470047.168684.0875626.2609959.1225281v-1.1050186c-.0934467-.0352098-.1823921-.0759126-.2641487-.1234475z" fill="#3db542"/><path d="m30.6077747 40.3120766v1.1050186c.2679024.1014481.5765781.1524925.8856773.1523514v-1.1061134c-.3090286.0004577-.6175613-.0501939-.8856773-.1512566z" fill="#2c9a2c"/><path d="m33.1102257 39.5232086c.0006714.2412987-.1580582.4828835-.4764748.6666946-.0792427.0457649-.1646461.0857582-.2546196.1200485v1.1068954c.0911064-.0345383.1776466-.0747452.2577705-.121006.3183823-.1838455.4771118-.4253922.4764404-.6666946z" fill="#6dcb60"/><path d="m31.4934521 40.4633331v1.1061134c.308712-.0001068.6174564-.0509377.8856792-.1525993v-1.1068954c-.2680435.1020889-.5768623.1529198-.8856792.1533813z" fill="#3db542"/></g><g><path d="m30.3510818 38.8633575c-.6337738.3659096-.6371078.9593735-.0074539 1.3252869.6296539.3659172 1.6563625.3671722 2.2901344.0012627.6337738-.3659096.6349716-.9606247.0053177-1.3265419-.6296577-.3659134-1.6542243-.3659172-2.2879982-.0000077z" fill="#81d672"/></g><g><path d="m32.2591324 39.970665c-.4243393.2439919-1.113842.2439919-1.5381489 0-.4189968-.2439575-.4189968-.6417503.0053101-.8910522.4243069-.2439575 1.1138096-.2439575 1.5328388 0 .4243049.2493018.4243049.6470947 0 .8910522z" fill="#fff"/></g></g><g><path d="m41.9326973 40.1076164c-3.1697426 1.8300514-5.73592 6.302906-5.7255936 9.9452286.0103645 3.656189 2.5934372 5.142189 5.7631798 3.3121376 3.1940384-1.8440819 5.7602577-6.3030205 5.7498932-9.9592094-.0103264-3.6423264-2.5934372-5.1422348-5.7874794-3.2981568z" fill="#7e8a8c"/></g><g><path d="m37.5267868 49.6258888c0 1.4519463.5196877 2.4911842 1.3449364 2.9802666l7.5923271 4.4045906c-.8252449-.4737816-1.3449364-1.5130196-1.3602371-2.9802704 0-.3077888.0277367-.6240425.0717659-.9435234l-7.5825157-4.398922c-.0418702.317318-.0678711.6316605-.0662766.9378586z" fill="#2d2c2b"/><path d="m49.704113 46.0373726c1.2991333-.7335739 2.4606514-.810051 3.3012352-.3209686l-7.5923271-4.4046211c-.8406563-.4890518-2.0022087-.4279823-3.2859344.3208923-.1461563.0840263-.290184.176796-.4328346.2742119l7.5876541 4.4018936c.1392478-.0960999.2797012-.1881295.4222068-.2714081z" fill="#383736"/><path d="m39.3434143 44.3252754c-.913063 1.330307-1.555809 2.8877449-1.750351 4.3627548l7.5825157 4.398922c.2024765-1.4697685.8494415-3.0249748 1.7626076-4.3556709z" fill="#383736"/><path d="m49.2819061 46.3087807-7.5876541-4.4018936c-.8803635.6013031-1.6855278 1.4490433-2.3508377 2.4183884l7.5947723 4.4060059c.6651345-.9692765 1.4679604-1.8181154 2.3437195-2.4225007z" fill="#2d2c2b"/></g><path d="m37.5267982 49.6259003c0 1.4519272.5196724 2.4911766 1.3449326 2.9802551l1.7952728 1.0415039c-.825264-.4737778-1.3449364-1.5130272-1.3602333-2.9802551 0-2.9190636 2.0632935-6.510685 4.6002769-7.9931145 1.2991333-.7335663 2.4606743-.8100586 3.3012352-.3209839l-1.795269-1.0415039c-.8406563-.4890747-2.0021973-.4279747-3.2859383.3208885-2.5522803 1.467228-4.6155776 5.0587578-4.6002769 7.9932099z" fill="#21201f"/><path d="m44.0730019 53.4236031c0 1.4519272.5196724 2.4911766 1.3449364 2.9802551l1.0461235.6068954c-.825264-.4737778-1.3449364-1.513031-1.3602333-2.9802551 0-2.9190636 2.0632935-6.510685 4.6002769-7.9931145 1.2991333-.7335701 2.4606743-.8100586 3.3012352-.3209839l-1.0461235-.6068954c-.8406525-.4890747-2.0021973-.4279747-3.2859383.3208885-2.5522766 1.467228-4.6155739 5.0587578-4.6002769 7.9932099z" fill="#494846"/><g><path d="m46.0564423 43.9212074c1.2991333-.7335701 2.4606514-.810051 3.3012352-.3209648l-1.0461464-.6069031c-.8406525-.4890823-2.0021706-.4279785-3.2859306.3208961-.146122.0840263-.290184.176796-.4327965.2742119l1.0414314.6041718c.1392479-.0961036.2796974-.1881332.4222069-.2714119z" fill="#f25a5a"/><path d="m40.4253349 51.3074493c0 1.4519119.5196533 2.4911842 1.3449364 2.9802322l1.0461082.6068993c-.8252487-.4737816-1.3449364-1.5130157-1.3602371-2.9802322 0-.3131027.0283012-.634922.0738182-.9600677l-1.0363655-.6012306c-.0433235.3229827-.069889.642887-.0682602.954399z" fill="#c44141"/><path d="m42.2371788 46.0137444c-.9071083 1.3237877-1.5467377 2.8717346-1.7435837 4.3393059l1.0363655.6012306c.2047119-1.4623642.8485565-3.0080032 1.7557716-4.3322182z" fill="#c44141"/><path d="m45.6342354 44.1926193-1.0414314-.6041718c-.8824921.602684-1.6893883 1.4530106-2.3556252 2.4252968l1.0485535.6083183c.6660576-.972145 1.4706535-1.8236045 2.3485031-2.4294433z" fill="#dd4a4a"/></g><path d="m49.7065849 46.0351219c-2.5467949 1.4703941-4.6086769 5.0642166-4.6003799 7.9907188.0083275 2.9376411 2.0837822 4.1315765 4.6305771 2.6611824 2.5662842-1.4816437 4.6281967-5.0642891 4.6198692-8.0019302-.008297-2.9265022-2.0837822-4.1316147-4.6500664-2.649971z" fill="#21201f"/><path d="m48.942997 55.8261261c2.429985-1.4061241 4.4015846-4.8142624 4.3862877-7.6111259 0-.9016609-.2139893-1.6352272-.6113701-2.1243019.7489586.3972855 1.1768417 1.3296356 1.1768417 2.5980797.0153008 2.7815666-1.9562073 6.2050018-4.3862877 7.595829-.6418724.3820801-1.2838364.5807724-1.8340111.5807724-.6112747 0-1.1309433-.2445869-1.4977264-.703064.2750854.1528893.5807686.2292862.9322548.2292862.5501747 0 1.1921387-.1986885 1.8340111-.5654755z" fill="#494846"/><path d="m45.565361 54.0227127c0 .9169617.2292862 1.650528.6113701 2.1396027.2750854.1528893.5807686.2292862.9322548.2292862.2903862 0 .6113663-.0611916.9475555-.1528893.2903862-.1068993.5807686-.2444916.8864555-.4125862.1069908-.0611916.2292862-.1375885.3361855-.2139854.5807724-.3820839 1.1310387-.8864555 1.6200218-1.451931.9476471-1.0850487 1.6965141-2.445282 2.0938911-3.8208122.2291946-.7182693.3361893-1.4366302.3361893-2.1243973 0-.9016609-.2139893-1.6352272-.6113701-2.1243019-.2750854-.1528893-.5807686-.2292862-.9322548-.2292862-.1069946 0-.2139893 0-.3208885.0152969-.4738693.0611-1.0087471.2444916-1.5283279.5501747-.4738693.2750893-.9323463.626667-1.3602295 1.0392532-.5501747.5349693-1.0545502 1.146244-1.4825249 1.8340073-.3361893.5196724-.6265755 1.0851479-.8558617 1.6659164-.44318 1.0239525-.6724662 2.0785027-.6724662 3.0566521z" fill="#3498db"/><g fill="#fff"><path d="m46.2378273 50.9660606 1.8187141 5.2726517c.2903862-.1068993.5807686-.2444916.8864555-.4125862.1069908-.0611916.2292862-.1375885.3361855-.2139854l-2.1854935-6.3119965c-.3361892.5196724-.6265754 1.0851479-.8558616 1.6659164z" opacity=".3"/><path d="m48.5762138 47.4661369 2.3229904 6.6940727c.9476471-1.0850487 1.6965141-2.445282 2.0938911-3.8208122l-1.5283241-4.4626884c-.4738693.0611-1.0087471.2444916-1.5283279.5501747-.4738693.2750893-.9323463.626667-1.3602295 1.0392532z" opacity=".3"/></g><path d="m38.7298851 38.508316-3.8843803-2.2573547 1.3482666-2.8724327 3.8843803 2.2573547z" fill="#b2b0af"/><path d="m40.0781517 35.6358833-3.8843803-2.2573547 4.4440918-2.5657959 4.0076484 2.3289909z" fill="#d6d4d2"/><path d="m43.3530388 33.1240349-.4888039.2666206-.1307754.0710983-2.0237847 1.1058503-.1295013.0711021-.4926338.2691574-2.6268578-1.5273666.478653-.2767792.1256904-.0723686 1.9704705-1.1375847.1256904-.0723705.4761124-.275507z" fill="#b2b0af"/><path d="m40.7096748 34.5676041-.1295013.0711021-2.6408386-1.5349884.1256904-.0723686z" fill="#fff"/><path d="m42.8642349 33.3906555-.1307754.0710983-2.6979637-1.5679893.1256904-.0723705z" fill="#fff"/><path d="m44.6455116 33.1417236 1.2283135 1.2510529-7.14394 4.1155395 1.3482666-2.8724327z" fill="#c4c2c0"/><path d="m39.7240601 32.8745346c-.306366.1768799-.3079872.4641342-.0036087.6410217.3047943.177124.8015442.1776085 1.107914.0007286.3067856-.177124.3075714-.4648628.0027809-.6419907-.3043786-.1768836-.8003007-.1768836-1.1070862.0002404z" fill="#494846"/><g><path d="m36.2164383 54.4500122c-.3148651-.182827-.7503395-.1574326-1.2302666.1206169-.9560356.5510216-1.7266922 1.8879395-1.7241669 2.9861717.0012703.5446701.1942596.9293709.504055 1.1096573l-.2970886-.1739388c-.3110695-.180294-.5027695-.5637169-.5053101-1.1083908-.0025406-1.0982285.7693863-2.4351501 1.7241516-2.9861679.4811783-.2780495.9166718-.3034439 1.2302818-.1206169z" fill="#5b5e71"/></g><g><path d="m34.9858894 54.5704842c.9550934-.5514221 1.731945-.1087189 1.7350578.9892769.0031128 1.0974731-.7686958 2.4342957-1.7237892 2.9857216-.9555473.5516815-1.7319489.1087227-1.7350578-.9887543-.0031128-1.0979958.7682419-2.4345589 1.7237892-2.9862442z" fill="#525566"/></g><path d="m37.3921776 42.4211922c.0058098.1857224-.0638313.3946457-.168293.580368-.1102715.1857224-.2553635.3482056-.4178848.4410858l-3.6214943 2.0893135c-.3308144.1915283-.5977592.0406303-.5977592-.3365898 0-.1857224.0638313-.39468.1741028-.580368.1044617-.1857224.2553635-.3482437.4178467-.4410858l3.6214942-2.0893479c.3250427-.1914978.5919876-.0406303.5919876.3366242z" fill="#a5aaaa"/><g><path d="m49.9978027 36.7857971-3.755001 2.1647988-.0058098-3.0411263 3.7491951-2.1647987z" fill="#494846"/><path d="m46.5855522 36.1104965 3.0545883-1.764061.0084992 2.2387276-3.0585518 1.7634926z" fill="#3f9ae0"/></g></g></g><g><g enable-background="new"><g><path d="m31.6433029 24.6974964-1.6774311-.9748173-.0219059-6.4112396 1.677433.9748173z" fill="#c44141"/></g><g><path d="m31.6213989 18.2862568-1.677433-.9748173 29.0556107-16.7752655 1.677433.9748173z" fill="#f25a5a"/></g><g><path d="m31.6213989 18.2862568-1.677433-.9748173 23.2383537-13.4166715 1.6774331.9748175z" fill="#cc4848"/></g><g><path d="m31.6213989 18.2862568-1.677433-.9748173 5.3293533-3.0769033 1.6774331.9748172z" fill="#f25a5a"/></g><g><path d="m60.6770096 1.5109913.021904 6.4112409-29.0556107 16.7752642-.021904-6.4112396z" fill="#dd4a4a"/></g></g></g><g><g><g enable-background="new"><g><path d="m33.6173897 20.610014-.2889023-.1678925c.1607666-.0928211.2840385-.2027168.3698006-.3340092l.2889061.1678925c-.0857621.1312923-.209034.241188-.3698044.3340092z" fill="#b2b0af"/></g><g><path d="m33.7183723 19.4316044.2889023.1678982c.06847.0397835.1056786.1230545.1060677.259428.0004234.1503696-.0441246.2879829-.1261482.4170742l-.2889061-.1678925c.0820236-.1290913.1265755-.2667046.1261482-.4170742-.0003853-.1363735-.0375939-.2196445-.1060639-.2594337z" fill="#b2b0af"/></g><g><path d="m33.1799545 20.8625679-.2889061-.1678925.437439-.2525539.2889023.1678925z" fill="#b2b0af"/></g><g><path d="m34.1473122 18.8556347.2889061.1678944c-.0699158-.0406322-.1546669-.0593739-.2542572-.0562382l-.2889023-.1678925c.0995903-.0031357.1843414.0156059.2542534.0562363z" fill="#b2b0af"/></g><g><path d="m33.6432419 19.1621265-.2889061-.1678925c.2056351-.1187248.3852158-.1836796.538723-.1948357l.2889023.1678925c-.1535035.0111562-.3330841.0761109-.5387192.1948357z" fill="#b2b0af"/></g><g><path d="m32.6375237 19.7427788-.2889061-.1678925 1.0057182-.5806522.2889061.1678924z" fill="#b2b0af"/></g><g><path d="m32.6450996 22.4149857-.2889061-.1678925-.0075759-2.6722069.2889061.1678925z" fill="#b2b0af"/></g><g><path d="m34.5306129 19.1016312c.0826683.0986042.1242828.2467003.1248436.4443092.0005608.197628-.040081.3932133-.1219177.5867767-.0818405.1935616-.1974258.3721657-.3467522.5358295-.1530685.1658249-.332428.3081455-.5380669.4268684l-.4673424.2698212.0020943.7389183-.538372.3108311-.007576-2.6722069 1.0057182-.5806522c.2056351-.1187248.3852158-.1836796.5387192-.1948357.1497803-.0047168.2659951.0400563.3486519.1343404zm-.5434188 1.1743736c.0820236-.1290913.1265717-.2667046.1261482-.4170742-.0004272-.1503506-.0456123-.2361546-.1280975-.2703075-.0862274-.0319538-.2097168.000618-.3704834.0934391l-.437439.2525539.0026321.9279518.4374352-.2525539c.1607704-.0928212.2840423-.2027169.3698044-.3340092" fill="#fff"/></g></g><g enable-background="new"><g><path d="m36.638092 20.1096382-.2889022-.1678924-.0031052-1.0955067.2889023.1678924z" fill="#b2b0af"/></g><g><path d="m36.633503 18.4899921-.2889061-.1678924-.0029831-1.0525627.2889061.1678924z" fill="#b2b0af"/></g><g><path d="m36.6305199 17.4374294-.2889061-.1678924.5383835-.3108368.2889061.1678924z" fill="#b2b0af"/></g><g><path d="m35.575428 19.1008701-.2889023-.1678924 1.0580712-.610878.2889061.1678924z" fill="#b2b0af"/></g><g><path d="m35.0340614 18.3591442-.2889023-.1678924.5383835-.3108368.2889023.1678924z" fill="#b2b0af"/></g><g><path d="m35.0416374 21.031353-.2889023-.1678925-.007576-2.6722087.2889023.1678924z" fill="#b2b0af"/></g><g><path d="m37.1689034 17.1265926.0075759 2.6722107-.5383873.3108349-.0031051-1.0955067-1.0580712.610878.0031052 1.0955086-.5383835.3108349-.007576-2.6722088.5383835-.3108368.0029831 1.0525627 1.058075-.610878-.0029831-1.0525627z" fill="#fff"/></g></g><g enable-background="new"><g><path d="m46.8956032 13.5893345-.2889061-.1678925-.0022164-.7818975.2889061.1678924z" fill="#b2b0af"/></g><g><path d="m46.8933868 12.8074369-.2889061-.1678924.4897805-.2827749.2889023.1678924z" fill="#b2b0af"/></g><g><path d="m46.0843124 14.0663414-.2889061-.1678925c.1161003.0018139.2470665-.0350742.3928795-.1192598.1532898-.088501.2915115-.2070313.4184113-.3577471l.2888985.1679001c-.1268921.1507082-.2651176.2692385-.4184074.3577394-.1458131.0841857-.2767793.1210738-.3928758.1192599z" fill="#b2b0af"/></g><g><path d="m46.7711716 12.0088081.2888985.1678982c.0063248.0036659.0125923.007514.0188026.0115395l-.2889099-.1678896c-.0062065-.0040283-.0124703-.0078764-.0187912-.0115481z" fill="#b2b0af"/></g><g><path d="m45.9306107 14.0205488-.2889137-.1678915c.0451241.0262184.0965233.0415764.1537094.0457916l.2889061.1678925c-.0571862-.0042152-.1085854-.0195732-.1537018-.0457926z" fill="#b2b0af"/></g><g><path d="m47.0850754 11.4200439.2889023.1678944c-.1033745-.0600777-.2276421-.0825939-.3681488-.0675354-.1684761.0154991-.3517876.0826082-.5574188.2013302l-.2889061-.1678925c.2056351-.1187229.3889427-.1858311.5574188-.2013302.1405105-.0150585.2647743.0074578.3681526.0675335z" fill="#b2b0af"/></g><g><path d="m45.7908859 12.2777939-.2889061-.1678925c.1978264-.2303915.414505-.4157534.6575241-.5560608l.2889061.1678925c-.2430191.1403074-.4596977.3256693-.6575241.5560608z" fill="#b2b0af"/></g><g><path d="m46.44841 11.7217331c.2056313-.118722.3889427-.1858311.5574188-.2013302.1647263-.0176535.3071251.0163364.4197159.1019449l-.3466721.5658979c-.1650772-.1069288-.3672523-.0891914-.6027946.0467997-.145813.0841846-.2765694.1941147-.3922653.3340721-.1157074.1356459-.2051468.2905607-.2683411.4561501-.0631943.1655607-.0964165.3353539-.0959396.5029097.0004616.1632433.0345383.2941818.0984612.3863802.0639267.0921974.1539497.1435003.2663193.1517839.1160965.0018139.2470627-.0350742.3928757-.1192598.1532898-.088501.2915154-.2070313.4184151-.3577471l-.0022163-.7818975.4897766-.2827749.0030708 1.0826302c-.1268005.1850662-.2723694.3551702-.436718.5059996-.1680756.1573-.3324966.2823458-.5007401.3794813-.2430229.1403084-.460041.2053709-.6510582.1951599-.1947479-.0037394-.3485107-.0827942-.4575195-.2264128-.1090202-.1479015-.1657867-.3561201-.1665268-.6181908-.0007553-.2663527.0546532-.5350161.1624832-.8081455.1078262-.2730999.2606544-.5248451.454731-.75739.1978263-.2303916.4145049-.4157535.657524-.5560609z" fill="#fff"/></g><g><path d="m45.5072021 14.6112041-.2889061-.1678839c-.0638962-.0371437-.1196671-.0873318-.1669998-.1496925-.109024-.1479015-.1657867-.3561211-.1665306-.6181908-.0007553-.2663527.054657-.5350161.162487-.8081455.1078262-.2730999.2606544-.5248451.4547272-.75739l.2889061.1678925c-.1940765.2325449-.3469048.4842901-.454731.75739-.10783.2731295-.1632385.5417929-.1624832.8081455.0007401.2620707.0575066.4702892.1665268.6181908.0473328.0623608.1031037.1125498.1670036.1496839z" fill="#b2b0af"/></g></g><g enable-background="new"><g><path d="m44.0167847 15.2600279-.2889023-.1678925c.1119499-.1378021.1976547-.2905636.2608414-.4561558l.2889023.1678925c-.0631867.1655922-.1488877.3183537-.2608414.4561558z" fill="#b2b0af"/></g><g><path d="m43.2727547 15.6895933-.2889023-.1678925c.1123734.0039625.2358437-.0285997.3704491-.1063128.1383438-.0798721.2615967-.1897583.3735809-.3232527l.2889023.1678925c-.1119843.1334944-.2352371.2433805-.3735809.3232527-.1346017.0777131-.2580758.1102753-.3704491.1063128z" fill="#b2b0af"/></g><g><path d="m43.1260452 15.6456947-.2889061-.1678925c.0429459.0249557.0917053.0398397.1467133.0438986l.2889023.1678925c-.055008-.0040588-.1037674-.0189428-.1467095-.0438986z" fill="#b2b0af"/></g><g><path d="m43.8729019 13.6408415.2888947.1678991c.0436935.0253811.0813103.0618258.1133194.1101389.0639191.0921888.0942574.2209654.0947304.3885279.0004654.1632452-.0290337.3308916-.0922203.4964647l-.2889023-.1678925c.0631866-.1655731.0926819-.3332195.0922203-.4964647-.0004768-.1675625-.0308113-.296339-.0947304-.3885279-.032013-.0483131-.0696259-.0847578-.1133118-.1101455z" fill="#b2b0af"/></g><g><path d="m42.7033005 16.2280655-.2889099-.1678925c-.0639687-.037178-.1197968-.0876465-.1671791-.1519384-.1090164-.1479073-.1657753-.3518152-.1665192-.6138744-.0007401-.2620792.0546761-.5307331.1624985-.8038321.1078262-.2730989.2606506-.5248642.4547234-.7574139.1940918-.2325201.410759-.4178848.6500397-.5560341.2430229-.1403093.4600334-.2053289.654808-.19732.1071548.0057325.2025833.0317783.2849655.0796537l.2889023.1678944c-.0823822-.0478773-.1778107-.0739231-.2849655-.0796556-.1947746-.008009-.4117813.0570107-.6548042.19732-.2392845.1381493-.4559517.323514-.6500435.5560341-.1940727.2325497-.3468971.4843149-.4547195.7574139s-.1632423.5417528-.1624985.8038321c.0007401.2620592.0574989.4659672.1665154.6138735.0473822.0642928.1032141.1147613.1671866.1519393z" fill="#b2b0af"/></g><g><path d="m44.7454453 13.3805428c.1127586.1457472.1695175.3496351.1702576.6117144.0007439.2620592-.0546761.5307331-.1662369.8059921-.1078224.273119-.2606468.5248642-.4509811.7552547-.1940918.2325602-.410759.4178839-.6537819.5581923-.2392807.1381512-.4562912.2032108-.6510658.1951618-.1947556-.0080605-.3485069-.0828037-.4575233-.230732-.1090164-.1479063-.1657753-.3518143-.1665154-.6138735-.0007439-.2620792.0546761-.5307331.1624985-.8038321s.2606468-.5248642.4547195-.7574139c.1940918-.2325201.410759-.4178848.6500435-.5560341.2430229-.1403093.4600296-.2053289.6548042-.19732.1910133.0102187.3447646.084984.4537811.2328903zm-.4678193 1.4233293c.0631866-.1655731.0926857-.3332195.0922203-.4964647-.000473-.1675625-.0308113-.296339-.0947304-.3885279-.0639267-.0964861-.1502037-.1456318-.2625694-.1539221-.1123848-.0082808-.2358475.0285587-.3741913.1084309-.1346016.077713-.2578659.183322-.3698387.3211346-.1119537.1378021-.1976662.2862453-.2608414.4561157-.0631866.1655722-.0926971.3289003-.0922203.4964638.0004616.1632442.0308113.296339.0947304.3885279.0639153.0922089.1502037.1456728.2625694.1539631.1123734.0039625.2358475-.0285997.3704491-.1063128.1383438-.0798721.2615967-.1897583.3735809-.3232527.1119538-.1378021.1976548-.2905636.2608414-.4561558" fill="#fff"/></g></g><g enable-background="new"><g><path d="m40.9825516 17.6013641-.2889023-.1678924-.0061531-2.1695414.2889061.1678925z" fill="#b2b0af"/></g><g><path d="m40.2323837 15.8613806-.2889023-.1678925-.0014267-.5026674.2889061.1678925z" fill="#b2b0af"/></g><g><path d="m40.2309608 15.3587132-.2889061-.1678925 2.0264168-1.1699514.2889061.1678924z" fill="#b2b0af"/></g><g><path d="m42.2573776 14.1887617.0014229.5026665-.7440147.4295587.0061493 2.1695424-.5383835.3108348-.0061493-2.1695413-.7440186.4295578-.0014229-.5026674z" fill="#fff"/></g></g><g enable-background="new"><g><path d="m38.4796524 18.456892-.2889023-.1678925c.1123543.003973.2358475-.0285988.3741722-.1084614.1383438-.0798721.2616158-.1897697.3698387-.3210926.1119537-.1378021.1976547-.2905655.2608604-.4561672l.2889023.1678925c-.0632019.1656017-.1489067.3183651-.2608604.4561672-.108223.1313229-.2314949.2412205-.3698387.3210926-.1383247.0798626-.2618141.1124344-.3741722.1084614z" fill="#b2b0af"/></g><g><path d="m38.3389015 18.4127178-.2889061-.1678867c.04179.0242805.088707.0391617.1407547.0441685l.2889023.1678925c-.0520439-.0050069-.0989647-.019888-.1407509-.0441743z" fill="#b2b0af"/></g><g><path d="m39.0797958 16.4081554.2888985.1679001c.0436897.0253792.0813026.0618191.1133232.1101227.0639153.0921898.0979767.2188168.0984497.3863792.0004654.1632442-.0327568.3330402-.0959435.4986134l-.2889023-.1678925c.0631866-.1655731.096405-.3353691.0959435-.4986134-.0004768-.1675625-.0345345-.2941895-.0984535-.3863792-.0320167-.0483036-.0696335-.0847434-.1133156-.1101303z" fill="#b2b0af"/></g><g><path d="m37.9173279 18.9969559-.2889099-.1678867c-.0652237-.0379124-.1219749-.0897427-.1705856-.1556854-.1127548-.1457481-.1657753-.3518143-.1665192-.6138744-.0007401-.2620792.0509377-.528574.1624985-.8038311.1078415-.2731094.2569275-.5227165.4510002-.7552662.1940727-.2325077.410759-.4178829.6537628-.5581827.2392845-.1381493.4600525-.2053385.6510658-.1951599.1093292.0045242.2045593.0307503.287014.0786686l.2888985.1678934c-.0824509-.0479193-.177681-.0741453-.2870102-.0786695-.1910133-.0101786-.4117813.0570107-.651062.1951609-.2430077.1402988-.4596939.3256741-.6537666.5581818-.1940727.2325516-.3431549.4821568-.4509964.7552662-.1115646.2752571-.1632423.5417519-.1624985.8038311.0007401.2620602.0537605.4681263.1665154.6138744.0486106.0659425.1053619.1177728.1705932.1556795z" fill="#b2b0af"/></g><g><path d="m39.9560852 16.1456814c.1090164.1479073.1657562.3518047.1665001.613884.0007439.2620602-.0546608.5307236-.1624832.8038235-.1115799.2752876-.2606621.5248737-.4547386.7574234-.1903305.2303905-.410759.4178848-.6500397.5560341-.2430038.1402988-.4600334.2053699-.654789.1973095-.1947556-.0080585-.3447647-.0849628-.4538002-.2328796-.1127548-.1457481-.1657753-.3518143-.1665154-.6138744-.0007439-.2620792.0509338-.528574.1624985-.8038311.1078415-.2731094.2569237-.5227146.4509964-.7552662.1940727-.2325077.410759-.4178829.6537666-.5581818.2392807-.1381502.4600487-.2053394.651062-.1951609.1947556.0080594.3447648.0849837.4575425.2307195zm-.4715614 1.4254894c.0631866-.1655731.0964088-.3353691.0959435-.4986134-.000473-.1675625-.0345345-.2941895-.0984497-.3863792-.0639496-.0964756-.1502228-.1456203-.2625923-.1539116-.1086273-.0104504-.2321053.0263996-.3704491.1062717-.1383247.0798626-.2616081.1854801-.3735619.3232822-.1082115.135643-.1939278.2840862-.2571182.453968-.0631866.1655712-.0964203.331049-.0959435.4986134.0004616.1632442.0345345.2941895.0984535.3863773.0639343.0921993.150219.1456623.2588463.1561127.1123581.003973.2358475-.0285988.3741722-.1084614.1383438-.0798721.2616158-.1897697.3698387-.3210926.1119538-.137802.1976586-.2905654.2608605-.4561671" fill="#fff"/></g></g><g enable-background="new"><g><path d="m53.8478813 8.9299326-.2889023-.1678925c.1607666-.0928192.2840385-.2027159.3660622-.3318481l.2889023.1678925c-.0820236.1291322-.2052918.2390289-.3660622.3318481z" fill="#b2b0af"/></g><g><path d="m53.9499626 7.7554278.2888947.1678977c.067997.039506.1008568.1238956.1012344.2576838.0004272.1503716-.0403824.2858248-.1261482.4170752l-.2889023-.1678925c.085762-.1312504.1265717-.2667036.1261482-.4170752-.0003814-.1337881-.0332374-.2181778-.1012268-.257689z" fill="#b2b0af"/></g><g><path d="m53.4067039 9.1846466-.2889022-.1678924.4411773-.2547141.2889023.1678925z" fill="#b2b0af"/></g><g><path d="m54.3787575 7.1762676.2888985.1678948c-.0703926-.0409126-.1563377-.0593886-.2589417-.0547915-.149765.0089965-.3293457.0739512-.5349655.1926651l-.2889023-.1678925c.205616-.1187139.3851967-.1836686.5349617-.1926651.1026077-.004597.188549.013879.2589493.0547892z" fill="#b2b0af"/></g><g><path d="m52.8680305 8.0626879-.2889022-.167893 1.0057182-.5806512.2889023.1678924z" fill="#b2b0af"/></g><g><path d="m52.8756065 10.7348957-.2889022-.1678924-.007576-2.6722084.2889022.167893z" fill="#b2b0af"/></g><g><path d="m54.7611046 7.4215512c.0826683.0986037.1242828.2466993.1248436.4443083.0005608.1976285-.040081.3932147-.1219177.5867763-.0818405.1935625-.1974258.3721657-.3504944.5379906-.1493263.1636648-.3286896.3059855-.5343056.4246988l-.4710999.2719898.0020943.7389193-.5346184.3086615-.007576-2.6722078 1.0057182-.5806518c.2056198-.1187139.3852005-.1836686.5349655-.1926651.1535188-.006878.2697335.0378951.3523904.1321801zm-.5471611 1.1765332c.0857658-.1312504.1265755-.2667036.1261482-.4170752-.0004272-.1503496-.0418701-.2383142-.1280975-.2703075-.0824852-.0341125-.2059746-.0015402-.366745.091279l-.4411736.254714.0026283.9279518.4411774-.254714c.1607704-.0928191.2840386-.2027158.3660622-.3318481" fill="#fff"/></g></g><g enable-background="new"><g><path d="m52.0680275 11.2011528-.2889061-.1678925-.2109947-.4505128.2889023.1678924z" fill="#b2b0af"/></g><g><path d="m50.9509125 10.8004522-.2889061-.1678924.7365494-.4252463.2889022.1678925z" fill="#b2b0af"/></g><g><path d="m51.687458 10.375206-.2889022-.1678925-.3730431-.8087654.2889023.1678925z" fill="#b2b0af"/></g><g><path d="m51.0509911 9.1117563-.2889023-.1678924.5308952-.3065129.2889023.1678925z" fill="#b2b0af"/></g><g><path d="m50.0229263 12.3818922-.2889023-.1678925 1.0280648-3.2701358.2889023.1678924z" fill="#b2b0af"/></g><g><path d="m51.5818863 8.8052435 1.0506973 2.0699615-.5645561.3259478-.2109985-.4505129-1.0767479.6216621-.2040176.6901207-.5533371.3194695 1.0280647-3.2701359zm-.6309738 1.9952087.7365456-.4252462-.3730431-.8087654z" fill="#fff"/></g></g><g enable-background="new"><g><path d="m49.3686333 12.7596483-.2889061-.1678924-.4507637-.4842043.2889023.1678924z" fill="#b2b0af"/></g><g><path d="m48.8603973 11.8137856-.2889061-.1678934c.1607704-.0928192.2840271-.2070341.3660507-.3361664l.2889023.1678925c-.0820198.1291322-.2052803.2433471-.3660469.3361673z" fill="#b2b0af"/></g><g><path d="m48.9624367 10.6349516.2888947.1678991c.0680008.039506.1008644.1238995.1012459.2577028.0004234.1503706-.0403748.290102-.126133.4170647l-.2889023-.1678925c.0857582-.1269627.1265564-.2666941.1261292-.4170647-.0003777-.1338033-.0332452-.2181968-.1012345-.2577094z" fill="#b2b0af"/></g><g><path d="m48.41922 12.0684986-.2889061-.1678924.4411773-.2547141.2889061.1678935z" fill="#b2b0af"/></g><g><path d="m49.3912582 10.0558014.2888985.1678953c-.0703926-.0409126-.1563339-.0593891-.2589417-.0547924-.1497841.0090065-.3293457.0739517-.5349808.1926756l-.2889061-.1678925c.2056389-.1187239.3852005-.1836691.5349846-.1926756.102604-.0045967.1885491.0138798.2589455.0547896z" fill="#b2b0af"/></g><g><path d="m47.880497 10.9422417-.2889023-.1678925 1.0057335-.5806618.2889061.1678925z" fill="#b2b0af"/></g><g><path d="m47.888073 13.6144505-.2889023-.1678925-.007576-2.6722088.2889023.1678925z" fill="#b2b0af"/></g><g><path d="m49.422287 11.868042.5258675.5570202-.5795212.3345861-.4507675-.4842043-.026165.0151072-.4710808.2719793.0021057.7432375-.5346527.3086824-.007576-2.6722088 1.0057373-.5806618c.2056351-.1187239.3851967-.1836691.5349808-.1926756.1535187-.0068779.2697372.0378952.3523903.1321802.0826683.0986042.1242828.2467003.1248436.4443083.0005722.2019072-.0400658.3975334-.1219177.5867767-.0855828.1957218-.2011796.3700477-.3542443.5358726zm-.1958428-.3904238c.0857582-.1269627.1265564-.2666941.126133-.4170647-.0004272-.1503506-.0418701-.2383146-.1280785-.270318-.0824852-.0341129-.2059784-.0015402-.366745.091279l-.4411774.254714.0026436.9322701.4411774-.2547131c.1607666-.0928201.2840271-.207035.3660469-.3361673" fill="#fff"/></g></g><g enable-background="new"><g><path d="m58.5361023 7.4668169-.2889023-.1678925-.0027046-.9537363.2889061.1678925z" fill="#b2b0af"/></g><g><path d="m58.823513 5.8119764-.2889023-.1678924.6172753-1.5440631.2889023.1678924z" fill="#b2b0af"/></g><g><path d="m59.4407883 4.2679133-.2889023-.1678924.5309067-.3065193.2889022.1678925z" fill="#b2b0af"/></g><g><path d="m57.6274834 5.314826-.2889061-.1678924.5720329-.3302632.2889061.1678925z" fill="#b2b0af"/></g><g><path d="m58.5334015 6.5130806-.2889061-.1678925-.9059181-1.1982545.2889061.1678924z" fill="#b2b0af"/></g><g><path d="m59.9716949 3.9613941-.8998985 2.2451336.0026894.9494534-.5383835.3108358-.0027008-.9537363-.9059181-1.1982546.5720329-.3302631.6239967.8274135.6172753-1.5440631z" fill="#fff"/></g></g><g enable-background="new"><g><path d="m56.8686104 8.4295444-.2889061-.1678924-.0031052-1.0955072.2889061.1678925z" fill="#b2b0af"/></g><g><path d="m56.8640175 6.8098979-.2889023-.1678925-.0029869-1.0525627.2889061.167893z" fill="#b2b0af"/></g><g><path d="m56.8610344 5.7573357-.2889061-.167893.5383873-.3108358.2889023.1678924z" fill="#b2b0af"/></g><g><path d="m55.8059425 7.4207768-.2889022-.1678924 1.0580749-.610879.2889023.1678925z" fill="#b2b0af"/></g><g><path d="m55.264576 6.6790504-.2889023-.1678924.5383835-.3108358.2889022.1678924z" fill="#b2b0af"/></g><g><path d="m55.2721519 9.3512602-.2889022-.1678925-.007576-2.6722097.2889023.1678924z" fill="#b2b0af"/></g><g><path d="m57.3994179 5.4464993.007576 2.6722093-.5383835.3108358-.0031052-1.0955071-1.0580749.6108794.0031051 1.0955076-.5383835.3108359-.0075759-2.6722098.5383834-.3108358.0029831 1.0525622 1.058075-.6108789-.0029831-1.0525622z" fill="#fff"/></g></g></g></g></g></g></svg>