<svg id="Layer_1" enable-background="new 0 0 68 68" viewBox="0 0 68 68" xmlns="http://www.w3.org/2000/svg"><g><path d="m45.8485985 66h-34.166668c-3.3597317 0-6.083333-2.7236023-6.083333-6.0833321v-51.8333349c0-3.3597317 2.7236014-6.083333 6.083333-6.083333h34.1666679c3.3597298 0 6.0833321 2.7236013 6.0833321 6.083333v51.8333359c0 3.3597288-2.7236023 6.0833311-6.083332 6.0833311z" fill="#3a3a3a"/><path d="m42.4735985 66h-34.166668c-3.3597322 0-6.083333-2.7236023-6.083333-6.0833321v-51.8333349c0-3.3597317 2.7236009-6.083333 6.083333-6.083333h34.1666679c3.3597298 0 6.0833321 2.7236013 6.0833321 6.083333v51.8333359c0 3.3597288-2.7236023 6.0833311-6.083332 6.0833311z" fill="#51504f"/><path d="m45.5536766 8.0768232v51.8398438c0 1.7010803-1.3789978 3.0800781-3.0800781 3.0800781h-34.1699228c-1.7010803 0-3.0800781-1.3789978-3.0800781-3.0800781v-51.8300781c0-1.6994143 1.3904295-3.0898442 3.0898438-3.0898442h9.34097c1.0532627 0 2.0540447.4597902 2.7401638 1.2589154l2.2534676 2.6246195c1.4396591 1.676775 4.0341873 1.6788616 5.4765415.0044031l2.2683945-2.6334257c.6860809-.796484 1.6851425-1.2545123 2.7363777-1.2545123h9.3442421c1.7010802-.0000001 3.080078 1.3789982 3.080078 3.0800785z" fill="#fff"/><path d="m45.5536766 40.5016289v19.4199219c0 1.7001953-1.380127 3.0800781-3.0800781 3.0800781h-34.1699228c-1.7001953 0-3.0800781-1.3798828-3.0800781-3.0800781v-8.2299805c4.5400391 4 10.1000977 6.3500977 16.0800781 6.3500977 10.3898916-.0000001 19.4499521-7.0600587 24.2500009-17.5400391z" fill="#d1dafe"/><g><g><g><g><g fill="#8a9bea"><path d="m16.2763786 33.3165512c.6746559-.30159 1.3493099-.4597435 2.0239658-.5670815.674654-.1158867 1.3493099-.1591072 2.0239639-.1619568.674654.0004768 1.3493099.0441704 2.0239639.1600571.6746559.1068611 1.3493099.2654915 2.0239658.5689812-.6746559.3039627-1.3493099.4625931-2.0239658.5694542-.674654.1154099-1.3493099.1591072-2.0239639.1600571-.674654-.0028496-1.3493099-.0460701-2.0239639-.1624298-.6746558-.107338-1.3493099-.2650185-2.0239658-.5670815z"/><path d="m16.2763786 36.3343315c.4269733-.302063.8539467-.4597435 1.2806816-.5670815.4269714-.1163597.8539448-.1595802 1.2806797-.1624298.4269733.0009499.8539467.0446434 1.2806816.1600571.4269714.1068611.8539448.2654915 1.2806797.5694542-.4267349.3034859-.8537083.4621162-1.2806797.5689812-.4267349.1158829-.8537083.1595802-1.2806816.1600533-.4267349-.0028496-.8537083-.0460701-1.2806797-.161953-.4267349-.107338-.8537082-.2654953-1.2806816-.5670815z"/></g></g><g><circle cx="12.456" cy="34.138" fill="#617f4d" r="2.999"/><circle cx="30.092" cy="34.138" fill="#617f4d" r="2.999"/><g fill="#8a9bea"><path d="m33.9119186 33.3165512c.6746559-.30159 1.3493118-.4597435 2.0239639-.5670815.6746559-.1158867 1.3493118-.1591072 2.0239677-.1619568.6746521.0004768 1.349308.0441704 2.0239639.1600571.6746559.1068611 1.349308.2654915 2.0239639.5689812-.6746559.3039627-1.349308.4625931-2.0239639.5694542-.6746559.1154099-1.3493118.1591072-2.0239639.1600571-.6746559-.0028496-1.3493118-.0460701-2.0239677-.1624298-.674652-.107338-1.3493079-.2650185-2.0239639-.5670815z"/><path d="m33.9119186 36.3343315c.4269753-.302063.8539467-.4597435 1.2806816-.5670815.4269714-.1163597.8539467-.1595802 1.2806816-.1624298.4269714.0009499.8539429.0446434 1.2806778.1600571.4269753.1068611.8539467.2654915 1.2806816.5694542-.4267349.3034859-.8537064.4621162-1.2806816.5689812-.4267349.1158829-.8537064.1595802-1.2806778.1600533-.4267349-.0028496-.8537102-.0460701-1.2806816-.161953-.4267349-.107338-.8537063-.2654953-1.2806816-.5670815z"/></g></g></g><g><path d="m40.1699905 42.2069855-.0275459-.0009499-7.5382767-.1652794-7.5382786-.1101875c-5.0253582-.0783653-10.0509558-.0664902-15.0763149-.0930862h-.0104494c-.5340719.0028496-.9646063.4378967-.9617567.9722061.0242214 5.3630409.0254087 10.7260857.107337 16.0896034l.0002375.0218468c.0073614.4706688.3932514.8477707.8646317.8430214 5.1265221-.0508194 10.2516193-.1781006 15.2957382-.3353081l14.857132-.5295601-13.8227081-.4787407c.3234348-1.1868782.5131741-2.3747101.6399841-3.5620651.1078129-1.020649.1638546-2.0412979.1890278-3.0624237 1.818552-.0270729 3.637104-.0707664 5.4554195-.1828537 2.4093781-.1367836 4.8185234-.3410072 7.2279015-.7147865l.3103752 8.0008698.3174973-7.9134789c.1225357-2.6834221.2203751-5.4228859.2859154-8.1761246v-.0009499c.0071257-.3253364-.2507707-.5946274-.5758669-.6017532zm-14.1910247 1.4685211c-.2605057 1.0581703-.4210358 2.1163406-.5343094 3.174511-.107811 1.0121002-.1633797 2.0237274-.1899776 3.0353546-.0629292-.0004768-.1258583-.0023766-.1887894-.0028496-2.3307762.0175705-4.6613159.0636406-6.9923306.1928253-.0223217-1.0752678-.080265-2.1500626-.1949635-3.2253304-.1106606-1.0315742-.2643051-2.0631485-.5129375-3.0951958 2.566824-.0099754 5.1334095-.026123 7.7002316-.0660172zm-9.6156731 11.1829796c.1173115 1.0985413.28829 2.1970825.5685062 3.2960968-2.0280018-.0465431-4.0493546-.0807381-6.0697565-.1049614.0322962-2.3542862.054143-4.7080994.0662546-7.0619087 1.7465982.2479172 3.4927216.4155731 5.2390823.5347824.0182858 1.1123123.0783654 2.2241516.1959134 3.3359909zm-.1952-4.6724777c-1.7458868.1192131-3.4917727.2868652-5.2381334.5347862.0116358-2.3143921.0182848-4.6287842.0277834-6.9426994 1.9736214-.0090256 3.9474792-.0142479 5.9211006-.0213737-.2486324 1.0310974-.4020386 2.0621986-.5124626 3.0932961-.1187363 1.1123122-.1783409 2.2241515-.198288 3.3359908zm9.2737141 4.6724777c.1263351 1.1845055.3155994 2.3694839.637846 3.5539894l-1.2329483-.0427437c-2.5290661-.0793152-5.0372334-.1505547-7.5354271-.2089729.2811661-1.100441.4526196-2.201355.5701675-3.3022728.1137486-1.074791.1721668-2.1500626.1930637-3.2248535 2.3305397.1291847 4.6610794.174778 6.9913807.1928253.0624561-.000473.1251488-.0023727.187603-.0028496.0256463 1.0116272.0814534 2.0232544.1883145 3.0348778zm7.1623611-4.7631912c-1.8187904-.1116104-3.6375809-.1557808-5.4563694-.1823769-.0263596-1.0211258-.0821648-2.0417747-.1909275-3.0629005-.1135101-1.0605431-.2745171-2.1206131-.5359726-3.18116l6.1832695-.0902405 6.9540977-.1529312c.0650673 2.4074821.1541176 4.8273087.2669182 7.2974815l.0033226.0859642c-2.4079551-.3723526-4.8161468-.5775261-7.2243385-.7138366z" fill="#fbad3e"/></g></g><circle cx="11.769" cy="34.825" fill="#aec46e" r="2.999"/><circle cx="29.404" cy="34.825" fill="#aec46e" r="2.999"/><g><g><circle cx="25.228" cy="21.328" fill="#4269c4" r="9.036"/><path d="m34.261673 21.3280811c0 4.9881001-4.0426655 9.039238-9.0307655 9.039238-2.6804276 0-5.0920906-1.1712036-6.7489319-3.0188675 1.1188927.390543 2.3161469.5985203 3.5652885.5985203 5.9250641 0 10.7310257-4.7102299 10.7310257-10.5226212 0-.390543-.0173683-.7721901-.0607834-1.1449432.9714851 1.4397564 1.5441666 3.1836433 1.5441666 5.0486736z" fill="#255299"/><g><g><path d="m31.5576649 23.8002548c.1785564.2993183.1452694.6903572-.0788746.9572544-1.4937363 1.7786503-3.7392445 2.9065113-6.2468815 2.9065113-2.514698 0-4.7608814-1.1278286-6.2545338-2.906435-.224165-.2669315-.2574558-.6580582-.0787792-.9573517 1.2860031-2.1541157 3.6432438-3.5942135 6.333313-3.5942135 2.6902561.0000001 5.0407181 1.4401093 6.3257561 3.5942345z" fill="#8a9bea"/></g><path d="m28.2778511 18.0368042v1.5261726c0 1.6836681-1.3609943 3.0523434-3.0446625 3.0523434-1.6834755 0-3.0523434-1.3686752-3.0523434-3.0523434v-1.5261726c0-1.6836681 1.3688679-3.0446615 3.0523434-3.0446615.841835 0 1.6049213.3384237 2.1555805.8888903.5506573.5508518.889082 1.3137454.889082 2.1557712z" fill="#d1dafe"/></g></g></g></g><g><g><g><g><g><path d="m65.7764053 52.8955841v7.2690468c0 3.154377-5.1291313 5.7110634-11.4540138 5.7110634-6.3325691 0-11.4540138-2.5566864-11.4540138-5.7110634v-7.2690468c0 3.1466942 5.1214447 5.6957016 11.4540138 5.6957016 6.3248825 0 11.4540138-2.5490074 11.4540138-5.6957016z" fill="#aec46e"/><g fill="#617f4d"><path d="m63.7468948 61.0101624c-.084362 1.2508163-8.4716682 3.5270233-8.6512604 1.9345169-.0921325-.817627 8.7192956-2.9432755 8.6512604-1.9345169z"/><circle cx="47.03" cy="60.508" r="1.303"/><circle cx="50.634" cy="61.811" r="1.303"/><ellipse cx="54.32" cy="52.892" rx="11.456" ry="5.703"/></g></g></g><circle cx="46.531" cy="60.508" fill="#fff" r="1.303"/><circle cx="50.135" cy="61.811" fill="#b53016" r="1.303"/></g><g><g><g><path d="m65.7764053 42.6238899v7.2690506c0 3.1543732-5.1291313 5.7110634-11.4540138 5.7110634-6.3325691 0-11.4540138-2.5566902-11.4540138-5.7110634v-7.2690506c0 3.1466942 5.1214447 5.6957016 11.4540138 5.6957016 6.3248825 0 11.4540138-2.5490074 11.4540138-5.6957016z" fill="#aec46e"/><g fill="#617f4d"><path d="m63.7468948 50.738472c-.084362 1.2508125-8.4716682 3.5270195-8.6512604 1.9345131-.0921325-.817627 8.7192956-2.9432755 8.6512604-1.9345131z"/><circle cx="47.03" cy="50.237" r="1.303"/><circle cx="50.634" cy="51.539" r="1.303"/><ellipse cx="54.32" cy="42.62" rx="11.456" ry="5.703"/></g></g></g><circle cx="46.531" cy="50.237" fill="#fff" r="1.303"/><circle cx="50.135" cy="51.539" fill="#b53016" r="1.303"/></g></g></g></g></svg>