<svg id="Layer_1" enable-background="new 0 0 53 53" height="512" viewBox="0 0 53 53" width="512" xmlns="http://www.w3.org/2000/svg"><g id="_x31_13"><g><g><path d="m48.0605469 38.2685852-21.1699829 12.2299805-1.25-.7299805-20.7000122-11.9500122.0599975-23.0499878 21.1099854-12.2700195 20.6400146 11.9199829.3999634.2300415.8500366.5z" fill="#111d33"/></g></g><g><g><g><g><g><path d="m26.1191177 3.7871101-.0653534 23.0522187-18.8947401 10.9804229.065353-23.0522184z" fill="#1d2943"/></g></g><g><g><path d="m46.2401161 15.4065275-.2651253 22.9343271-19.9212265-11.5015258.0653534-23.0522187z" fill="#111d33"/></g></g><g><g><path d="m47.1465454 14.6457787-.0653534 23.0522193-1.1062012.6428566.2651253-22.9343271z" fill="#525566"/></g></g><g><g><path d="m47.1496429 14.6525335-.9095268.753994-20.1209984-11.6194174-18.8947405 10.9804232 19.6661086 11.3524561-1.1821728.6006927-20.7034865-11.9531631 21.1070796-12.2660944z" fill="#4c5c75"/></g></g><g><g><g enable-background="new"><g><g><path d="m45.9686623 31.4328499-.0095292 3.3614616-19.5066623 11.3360367.0095291-3.3614654z" fill="#57b3fe"/></g></g><g><g><path d="m26.4619999 42.7688828-.0095291 3.3614654-19.6474476-11.3434601.0095296-3.3614635z" fill="#e5bd13"/></g></g><g><g><path d="m45.9686623 31.4328499-19.5066624 11.3360329-19.6474471-11.3434582 19.5066638-11.3360348z" fill="#f1c40f"/></g></g></g></g><g><g enable-background="new"><g><g><path d="m45.9686623 28.0851841-.0095292 3.3614635-19.5066623 11.3360329.0095291-3.3614616z" fill="#ffde9b"/></g></g><g><g><path d="m26.4619999 39.4212189-.0095291 3.3614616-19.6474476-11.3434582.0095296-3.3614635z" fill="#84dbff"/></g></g><g><g><path d="m45.9686623 28.0851841-19.5066624 11.3360348-19.6474471-11.3434601 19.5066638-11.3360329z" fill="#f1c40f"/></g></g></g></g><g><g enable-background="new"><g><g><path d="m45.9686623 24.7375183-.0095292 3.3614636-19.5066623 11.3360347.0095291-3.3614616z" fill="#f45170"/></g></g><g><g><path d="m26.4619999 36.073555-.0095291 3.3614616-19.6474476-11.3434601.0095296-3.3614635z" fill="#eca8cd"/></g></g><g><g><path d="m45.9686623 24.7375183-19.5066624 11.3360367-19.6474471-11.343462 19.5066638-11.3360338z" fill="#ffc3e5"/></g></g></g></g><g><g enable-background="new"><g><g><path d="m45.9686623 21.3898525-.0095292 3.3614636-19.5066623 11.3360328.0095291-3.3614616z" fill="#78e75a"/></g></g><g><g><path d="m26.4619999 32.7258873-.0095291 3.3614616-19.6474476-11.3434581.0095296-3.3614636z" fill="#2ebf69"/></g></g><g><g><path d="m45.9686623 21.3898525-19.5066624 11.3360348-19.6474471-11.3434601 19.5066638-11.3360338z" fill="#2ecc71"/></g></g></g></g><g><g enable-background="new"><g><g><path d="m45.9686623 18.0452366-.0095292 3.3614616-19.5066623 11.3360348.0095291-3.3614635z" fill="#dedffb"/></g></g><g><g><path d="m26.4619999 29.3812695-.0095291 3.3614635-19.6474476-11.3434601.0095296-3.3614616z" fill="#3293c9"/></g></g><g><g><path d="m45.9686623 18.0452366-19.5066624 11.3360329-19.6474471-11.3434582 19.5066638-11.3360353z" fill="#fff"/></g></g></g></g></g><g><path d="m7.2243772 14.7675333 19.6661086 11.3524561-1.1821728.6006927-20.7034865-11.9531631z" fill="#4c5c75"/></g><g><g><path d="m26.8904858 26.1199894-.1413899 23.0100956-1.1061363.6428184.0653534-23.0522213z" fill="#525566"/></g></g></g><g><g enable-background="new"><g><g><path d="m30.9469948 44.5841942-1.2536259-.7285309 13.0436077-7.5466652 1.2536278.7285309z" fill="#4c5c75"/></g></g><g><g><path d="m48.003891 15.1505852-.6871414.3972902c-1.8628578 1.0736837-3.3660088 3.6773539-3.3606339 5.8193464l.0322075 15.6708412-1.2514992-.7296448-.0322113-15.6708374c-.0053711-2.1419945 1.4978104-4.745697 3.3552628-5.8193798l.6925468-.3972578z" fill="#4c5c75"/></g></g><g><g><path d="m29.930397 26.7493401c-.6120071-.3543015-1.4601936-.3060036-2.3996658.2362118l-.6871738.3972588-1.2568417-.7242699.6925125-.3972569c.9341011-.5422153 1.787693-.5958862 2.3997002-.2362118z" fill="#4c5c75"/></g></g><g><path d="m48.005127 15.1504211-.6889648.3977661c-1.861145 1.0745239-3.3643188 3.6781616-3.3582764 5.8167725l.0327148 15.6725464-13.0435791 7.5466919-.0327759-15.6725464c-.0060425-2.1386108-1.519043-3.0008545-3.383667-1.9243164l-.6889648.3977661-1.1333008-.6586304v-.0057983l-20.7034912-11.953125-.0653687 23.0521851 20.7023926 11.9525757v.0006104l1.2536011.7285156 21.1635132-12.2346802z" fill="#1d2943"/></g><g><g><path d="m48.0051193 15.1504116.0538292 23.1163387-21.1634769 12.2346726-.0538311-23.1163368.6889343-.3977566c1.8645992-1.0765266 3.3776302-.2142925 3.3836937 1.924324l.0327263 15.6725407 13.0436096-7.5466652-.0327263-15.6725426c-.0060616-2.1386147 1.4971428-4.7422752 3.3583069-5.8168192z" fill="#1d2943"/></g></g></g></g></g><g><path d="m29.4729061 34.7177582c-.7095699 0-1.3669777.3144302-1.8261166.8084831-.4591408.505291-.7513504 1.1789703-.7513504 1.9649734 0-1.52705-1.1582642-2.7734566-2.5774021-2.7734566.709568 0 1.3565311-.3143616 1.8261166-.8084145.4486942-.4940529.7512856-1.2014503.7512856-1.9649773 0 .7635269.2922096 1.4709244.7513504 1.9649773.4591388.494053 1.1165466.8084146 1.8261165.8084146z" fill="#fff"/></g></g></g></svg>