<svg enable-background="new 0 0 512 512" height="512" viewBox="0 0 512 512" width="512" xmlns="http://www.w3.org/2000/svg" xmlns:xlink="http://www.w3.org/1999/xlink"><pattern id="New_Pattern_Swatch_1" height="24.92" overflow="visible" patternUnits="userSpaceOnUse" viewBox="0 -24.92 24.91 24.92" width="24.91" x="1232.5" y="1687.036"><g><path d="m0-24.92h24.91v24.92h-24.91z" fill="none"/><g><path d="m0-24.92h24.91v24.92h-24.91z" fill="#fed480"/></g></g></pattern><pattern id="New_Pattern_Swatch_3" height="24.92" overflow="visible" patternUnits="userSpaceOnUse" viewBox="0 -24.92 24.91 24.92" width="24.91" x="1232.5" y="1687.036"><g><path d="m0-24.92h24.91v24.92h-24.91z" fill="none"/><g><path d="m0-24.92h24.91v24.92h-24.91z" fill="#92e6fd"/></g></g></pattern><pattern id="New_Pattern_Swatch_4" height="24.92" overflow="visible" patternUnits="userSpaceOnUse" viewBox="0 -24.92 24.91 24.92" width="24.91" x="1232.5" y="1687.036"><g><path d="m0-24.92h24.91v24.92h-24.91z" fill="none"/><g><path d="m0-24.92h24.91v24.92h-24.91z" fill="#45a7cd"/></g></g></pattern><pattern id="New_Pattern_Swatch_5" height="24.92" overflow="visible" patternUnits="userSpaceOnUse" viewBox="0 -24.92 24.91 24.92" width="24.91" x="1232.5" y="1687.036"><g><path d="m0-24.92h24.91v24.92h-24.91z" fill="none"/><g><path d="m0-24.92h24.91v24.92h-24.91z" fill="#021938"/></g></g></pattern><linearGradient id="SVGID_1_" gradientUnits="userSpaceOnUse" x1="256" x2="256" y1="511" y2="1"><stop offset="0" stop-color="#cadfef"/><stop offset="1" stop-color="#eff4f9"/></linearGradient><pattern id="SVGID_2_" patternTransform="translate(11.099 16.68)" xlink:href="#New_Pattern_Swatch_3"/><pattern id="SVGID_3_" patternTransform="translate(11.099 16.68)" xlink:href="#New_Pattern_Swatch_4"/><pattern id="SVGID_4_" patternTransform="translate(11.099 16.68)" xlink:href="#New_Pattern_Swatch_4"/><pattern id="SVGID_5_" patternTransform="translate(11.099 16.68)" xlink:href="#New_Pattern_Swatch_3"/><pattern id="SVGID_6_" patternTransform="translate(11.099 16.68)" xlink:href="#New_Pattern_Swatch_3"/><pattern id="SVGID_7_" patternTransform="translate(11.099 16.68)" xlink:href="#New_Pattern_Swatch_1"/><pattern id="SVGID_8_" patternTransform="translate(11.099 16.68)" xlink:href="#New_Pattern_Swatch_1"/><pattern id="SVGID_9_" patternTransform="translate(11.099 16.68)" xlink:href="#New_Pattern_Swatch_1"/><pattern id="SVGID_10_" patternTransform="translate(11.099 16.68)" xlink:href="#New_Pattern_Swatch_1"/><pattern id="SVGID_11_" patternTransform="translate(11.099 16.68)" xlink:href="#New_Pattern_Swatch_1"/><pattern id="SVGID_12_" patternTransform="matrix(1.252 -2.684 -1.803 -.672 -16796.33 -45910.875)" xlink:href="#New_Pattern_Swatch_5"/><g id="_x30_6_Butter"><g><circle cx="256" cy="256" fill="url(#SVGID_1_)" r="255"/><g><path d="m429.736 129.131v182.347c0 4.123-3.042 7.614-7.127 8.178l-14.394 1.987v-14.684h-.112l-83.373-23.15c-1.444-.401-2.969-.401-4.413-.001l-83.54 23.151-.112-.056v33.346l12.161 3.363-85.355 11.769v-189.541z" fill="url(#SVGID_2_)"/><path d="m82.265 129.131v189.541l81.206 36.718v-189.541z" fill="url(#SVGID_3_)"/><path d="m429.736 129.131-101.312-28.301c-1.035-.289-2.117-.373-3.184-.248l-242.974 28.55 81.206 36.718z" fill="url(#SVGID_4_)"/><path d="m82.265 129.131 34.744 74.314 46.462-37.596z" fill="url(#SVGID_5_)"/><path d="m163.471 355.39-46.947-65.832-34.259 29.114z" fill="url(#SVGID_6_)"/><path d="m408.103 354.428-60.079 16.644h-.056l-25.555 7.062-25.501-7.062-60.135-16.644 25.5-7.062 60.136 16.646 60.247-16.702z" fill="url(#SVGID_7_)"/><path d="m408.206 354.397v27.036c0 3.711-2.476 6.965-6.052 7.956l-79.731 22.086-79.685-22.086c-3.575-.991-6.05-4.245-6.05-7.956v-27.037l60.214 16.681 25.522 7.081 25.568-7.081h.048z" fill="url(#SVGID_8_)"/><path d="m408.215 306.931-85.8 23.729-85.718-23.729 83.597-23.121c1.441-.398 2.963-.398 4.403.001z" fill="url(#SVGID_9_)"/><path d="m408.206 306.918v33.315l-85.783 23.763-85.736-23.763v-33.315l60.215 16.681 25.521 7.082 25.568-7.082h.048z" fill="url(#SVGID_10_)"/><path d="m408.216 306.902v.056h-.113z" fill="url(#SVGID_11_)"/><path d="m430.866 125.083-101.32-28.304c-1.574-.435-3.185-.564-4.797-.372l-242.975 28.547c-2.61.675-3.713 2.403-3.713 4.176v189.542c0 .142.047.274.06.415.005.059-.027.112-.019.171.008.061.057.105.068.166.112.612.337 1.181.692 1.679.053.074.116.129.173.199.403.496.89.928 1.496 1.202l81.206 36.719c.051.023.107.014.159.034.394.16.813.231 1.239.267.112.008.22.071.332.071h.001.001c.048 0 .094-.019.143-.021.144-.005.288-.01.432-.029l76.694-10.575-4.71 1.304c-2.178.348-3.544 2.586-3.544 4.124v27.037c0 5.58 3.755 10.516 9.132 12.005l79.685 22.086c.74.204 1.504.204 2.244 0l79.731-22.086c5.377-1.489 9.132-6.425 9.132-12.008v-27.034c0-1.35-1.089-3.734-3.555-4.125l-10.523-2.944 10.997-3.046c1.82-.504 3.081-2.162 3.081-4.05v-14.926l10.776-1.487c6.13-.848 10.755-6.152 10.755-12.342v-182.348c.001-2.003-1.278-3.248-3.073-4.047zm-312.324 71.716-27.657-59.157 64.639 29.229zm-6.205 6.574c-.001.026-.015.047-.015.073v84.169l-25.855 21.97v-161.541zm3.422 92.351 35.238 49.413-59.06-26.704-1.893-.856zm4.969-7.513v-82.368l38.538-31.187v167.599zm205.004-183.455c.517-.055 1.048-.022 1.563.12l81.81 22.854-245.021 33.781-66.289-29.973zm66.632 202.193c-76.631 21.195-69.469 19.215-69.948 19.347-7.146-1.978 25.882 7.166-69.875-19.345l68.876-19.089c.709-.196 1.461-.194 2.16-.003 94.266 26.161 61.753 17.138 68.787 19.09zm-68.829 61.112 59.12-16.389 9.778 2.737c-95.955 26.536-62.86 17.384-70.019 19.364l-69.883-19.347 9.747-2.698 59.013 16.334c1.873.238 1.391.074 2.244-.001zm-5.315-34.184v24.592l-77.329-21.431v-24.585c101.837 28.214 69.159 19.16 77.329 21.424zm-77.328 47.558v-21.506c105.971 29.364 69.422 19.236 77.329 21.427v24.594l-74.359-20.609c-1.75-.486-2.97-2.092-2.97-3.906zm163.11-.003c0 1.817-1.22 3.423-2.969 3.908l-74.406 20.61v-24.594c7.914-2.192-28.663 7.939 77.375-21.43zm-77.375-22.964v-24.592c9.556-2.645-10.468 2.915 77.375-21.422v24.582zm95.409-42.978-9.616 1.327c-.003-2.489-.009-7.468-.012-9.957-.035-1.953-1.584-3.57-3.07-3.98-8.536-2.364 30.922 8.564-83.48-23.121-2.178-.608-4.48-.61-6.663-.003h-.001c-.005.002-.012.001-.018.003-10.328 2.857-72.838 20.145-83.298 23.037-.563.217-3.417.88-3.417 4.106v33.345c0 .468.077.922.222 1.346l-65.009 8.965v-181.045l257.86-35.559v177.524c-.001 2.012-1.503 3.738-3.498 4.012z" fill="url(#SVGID_12_)"/></g></g></g></svg>