<svg id="Capa_1" enable-background="new 0 0 512 512" height="512" viewBox="0 0 512 512" width="512" xmlns="http://www.w3.org/2000/svg" xmlns:xlink="http://www.w3.org/1999/xlink"><linearGradient id="SVGID_1_" gradientUnits="userSpaceOnUse" x1="74.98" x2="437.018" y1="437.019" y2="74.981"><stop offset="0" stop-color="#00aa45"/><stop offset="1" stop-color="#d3ff33"/></linearGradient><radialGradient id="SVGID_2_" cx="256" cy="256" gradientUnits="userSpaceOnUse" r="256"><stop offset="0" stop-color="#00aa45"/><stop offset=".1015" stop-color="#0faf49" stop-opacity=".899"/><stop offset=".2954" stop-color="#35bd52" stop-opacity=".705"/><stop offset=".5614" stop-color="#73d462" stop-opacity=".439"/><stop offset=".8863" stop-color="#c7f377" stop-opacity=".114"/><stop offset="1" stop-color="#e6fe7f" stop-opacity="0"/></radialGradient><linearGradient id="lg1"><stop offset="0" stop-color="#00aa45"/><stop offset=".1212" stop-color="#12b143"/><stop offset=".3647" stop-color="#41c43f"/><stop offset=".7046" stop-color="#8ce339"/><stop offset="1" stop-color="#d3ff33"/></linearGradient><linearGradient id="SVGID_3_" gradientUnits="userSpaceOnUse" x1="-13.066" x2="670.332" xlink:href="#lg1" y1="374.615" y2="-308.783"/><linearGradient id="SVGID_4_" gradientUnits="userSpaceOnUse" x1="-168.941" x2="843.827" xlink:href="#lg1" y1="690.486" y2="-322.282"/><linearGradient id="lg2"><stop offset="0" stop-color="#5ccd38"/><stop offset=".5" stop-color="#e6fe7f"/><stop offset="1" stop-color="#f9fcca"/></linearGradient><linearGradient id="SVGID_5_" gradientUnits="userSpaceOnUse" x1="163.802" x2="576.07" xlink:href="#lg2" y1="514.87" y2="102.602"/><linearGradient id="SVGID_6_" gradientUnits="userSpaceOnUse" x1="231.795" x2="426.288" xlink:href="#lg2" y1="412.377" y2="217.885"/><linearGradient id="SVGID_7_" gradientUnits="userSpaceOnUse" x1="256" x2="256" y1="475.925" y2="370.647"><stop offset="0" stop-color="#e6fe7f" stop-opacity="0"/><stop offset=".1688" stop-color="#e2fd7d" stop-opacity=".169"/><stop offset=".3395" stop-color="#d6f877" stop-opacity=".34"/><stop offset=".5111" stop-color="#c2f16c" stop-opacity=".511"/><stop offset=".6834" stop-color="#a5e75e" stop-opacity=".683"/><stop offset=".8546" stop-color="#81da4b" stop-opacity=".855"/><stop offset="1" stop-color="#5ccd38"/></linearGradient><linearGradient id="SVGID_8_" gradientUnits="userSpaceOnUse" x1="21.162" x2="274.591" xlink:href="#lg2" y1="449.991" y2="196.562"/><linearGradient id="SVGID_9_" gradientUnits="userSpaceOnUse" x1="59.455" x2="343.943" xlink:href="#lg2" y1="575.223" y2="290.736"/><linearGradient id="SVGID_10_" gradientUnits="userSpaceOnUse" x1="248.594" x2="360.98" xlink:href="#lg2" y1="537.037" y2="424.651"/><linearGradient id="SVGID_11_" gradientUnits="userSpaceOnUse" x1="76.73" x2="456.856" xlink:href="#lg2" y1="525.843" y2="145.717"/><linearGradient id="SVGID_12_" gradientUnits="userSpaceOnUse" x1="100.328" x2="491.797" xlink:href="#lg2" y1="601.804" y2="210.336"/><linearGradient id="SVGID_13_" gradientUnits="userSpaceOnUse" x1="-108.601" x2="286.392" xlink:href="#lg1" y1="456.765" y2="61.772"/><linearGradient id="SVGID_14_" gradientUnits="userSpaceOnUse" x1="-777.036" x2="397.639" xlink:href="#lg1" y1="1320.751" y2="146.077"/><linearGradient id="SVGID_15_" gradientUnits="userSpaceOnUse" x1="-333.204" x2="423.1" xlink:href="#lg1" y1="843.014" y2="86.71"/><linearGradient id="lg3"><stop offset="0" stop-color="#00753b"/><stop offset=".1234" stop-color="#12873a"/><stop offset=".3699" stop-color="#41b339"/><stop offset=".5" stop-color="#5ccd38"/><stop offset=".7787" stop-color="#9de835"/><stop offset="1" stop-color="#d3ff33"/></linearGradient><linearGradient id="SVGID_16_" gradientUnits="userSpaceOnUse" x1="154.549" x2="464.266" xlink:href="#lg3" y1="279.833" y2="-29.884"/><linearGradient id="SVGID_17_" gradientUnits="userSpaceOnUse" x1="119.661" x2="450.774" xlink:href="#lg3" y1="278.144" y2="-52.969"/><linearGradient id="SVGID_18_" gradientUnits="userSpaceOnUse" x1="79.053" x2="427.67" xlink:href="#lg3" y1="273.214" y2="-75.403"/><linearGradient id="SVGID_19_" gradientUnits="userSpaceOnUse" x1="213.031" x2="578.989" xlink:href="#lg3" y1="297.043" y2="-68.914"/><linearGradient id="SVGID_20_" gradientUnits="userSpaceOnUse" x1="154.355" x2="542.145" xlink:href="#lg3" y1="283.012" y2="-104.778"/><linearGradient id="SVGID_21_" gradientUnits="userSpaceOnUse" x1="89.814" x2="461.713" xlink:href="#lg3" y1="246.331" y2="-125.568"/><g><circle cx="256" cy="256" fill="url(#SVGID_1_)" r="256"/><circle cx="256" cy="256" fill="url(#SVGID_2_)" r="256"/><path d="m94.537 132.34c-8.436.227-15.426 7.141-15.581 15.418-1.119 60.667-1.054 121.333.197 182 25.586 5.692 51.134 11.342 76.636 16.881-.956-71.864-1-143.728-.13-215.592-20.374.33-40.748.761-61.122 1.293z" fill="url(#SVGID_3_)"/><path d="m417.463 132.34c-87.268-2.277-174.537-2.708-261.805-1.293-8.435.14-15.376 7.083-15.477 15.481-.732 61.534-.689 123.068.129 184.603 97.512 1.732 195.025 1.274 292.538-1.374 1.251-60.667 1.316-121.333.197-182-.156-8.277-7.145-15.191-15.582-15.417z" fill="url(#SVGID_4_)"/><path d="m308.078 403.016c-2.656-8.31-5.333-16.628-8.026-24.954-14.608-10.086-29.3-20.278-44.052-30.528-14.752 10.25-29.444 20.442-44.052 30.528-2.693 8.326-5.37 16.644-8.026 24.954-3.997 12.476-15.382 20.727-28.333 20.401.046 2.549.093 5.098.141 7.648 53.513 1.376 107.026 1.376 160.539 0 .048-2.549.095-5.098.141-7.648-12.952.326-24.336-7.925-28.332-20.401z" fill="url(#SVGID_5_)"/><path d="m304.982 393.354c-1.637-5.094-3.28-10.192-4.93-15.292-14.608-10.086-29.3-20.278-44.052-30.528-14.752 10.25-29.444 20.442-44.052 30.528-1.65 5.1-3.293 10.198-4.93 15.292 32.654.406 65.31.406 97.964 0z" fill="url(#SVGID_6_)"/><path d="m308.078 403.016c-2.656-8.31-5.333-16.628-8.026-24.954-14.608-10.086-29.3-20.278-44.052-30.528-14.752 10.25-29.444 20.442-44.052 30.528-2.693 8.326-5.37 16.644-8.026 24.954-3.997 12.476-15.382 20.727-28.333 20.401.046 2.549.093 5.098.141 7.648 53.513 1.376 107.026 1.376 160.539 0 .048-2.549.095-5.098.141-7.648-12.952.326-24.336-7.925-28.332-20.401z" fill="url(#SVGID_7_)"/><path d="m140.31 331.131c-20.386-.362-40.772-.82-61.158-1.374.206 10 .444 20 .715 30 .229 8.278 7.236 15.269 15.62 15.583 20.254.743 40.508 1.345 60.762 1.806-5.321-15.369-10.64-30.71-15.939-46.015z" fill="url(#SVGID_8_)"/><path d="m140.31 331.131c.135 10.143.291 20.286.468 30.429.149 8.397 7.088 15.392 15.472 15.587 86.754 1.977 173.509 1.375 260.263-1.806 8.386-.314 15.392-7.306 15.62-15.583.271-10 .509-20 .715-30-97.513 2.647-195.026 3.105-292.538 1.373z" fill="url(#SVGID_9_)"/><path d="m368.904 422.453c-10.036.348-20.072.649-30.108.904-.095 5.097-.194 10.194-.296 15.29 10-.275 20-.601 30-.977 4.14-.156 7.6-3.694 7.719-7.889.121-4.195-3.158-7.471-7.315-7.328z" fill="url(#SVGID_10_)"/><path d="m143.096 422.453c-4.158-.142-7.436 3.133-7.315 7.328s3.58 7.733 7.719 7.889c20 .751 40 1.302 60 1.653-.065-5.114-.128-10.227-.188-15.341-20.072-.324-40.144-.834-60.216-1.529z" fill="url(#SVGID_11_)"/><path d="m338.796 423.357c-45.161 1.147-90.323 1.356-135.485.626-4.159-.067-7.483 3.302-7.421 7.535.061 4.232 3.469 7.733 7.61 7.806 45 .789 90 .563 135-.676 4.14-.115 7.574-3.636 7.665-7.853.09-4.217-3.21-7.543-7.369-7.438z" fill="url(#SVGID_12_)"/><path d="m93.572 147.417c-.942 55.887-.969 111.774-.081 167.661 15.314.321 30.628.597 45.942.828 9.878-29.243 20.02-58.671 30.288-88.219-10.233-27.183-20.35-54.252-30.23-81.148-15.306.245-30.613.537-45.919.878z" fill="url(#SVGID_13_)"/><path d="m253.58 145.609c20.062 72.191 86.306 125.247 164.755 124.298.287-40.835.088-81.67-.597-122.505-54.719-1.214-109.439-1.811-164.158-1.793z" fill="url(#SVGID_14_)"/><path d="m253.58 145.609c-37.799.013-75.6.319-113.399.919-.672 56.463-.691 112.925-.058 169.388 92.565 1.385 185.13 1.111 277.695-.824.239-15.062.41-30.124.517-45.186-78.447.951-144.693-52.106-164.755-124.297z" fill="url(#SVGID_15_)"/><path d="m174.302 140.566c-1.286 7.946-1.999 16.069-2.054 24.338-.419 56.27 29.326 105.965 73.661 134.57 2.004 1.289 4.291 1.933 6.58 1.934 16.284-37.433 32.72-74.917 48.952-112.245-42.525-16.445-84.963-32.849-127.139-48.597z" fill="url(#SVGID_16_)"/><path d="m184.865 103.793c-4.899 11.664-8.492 23.982-10.563 36.772 7.044 48.57 36.859 90.093 78.178 113.906 16.33-40.842 32.718-81.707 48.741-122.369-38.927-9.819-77.732-19.357-116.356-28.309z" fill="url(#SVGID_17_)"/><path d="m252.485 180.953c8.161-25.553 16.288-51.102 24.299-76.61-8.17-25.577-16.27-51.153-24.218-76.695-2.24.003-4.476.651-6.439 1.944-26.787 17.667-48.438 43.73-61.261 74.201 13.105 32.473 37.144 59.61 67.619 77.16z" fill="url(#SVGID_18_)"/><path d="m328.222 128.19c-24.938 33.628-50.338 67.706-75.742 101.775 0 23.814.002 47.628.009 71.442 2.288.001 4.576-.642 6.579-1.93 44.319-28.571 74.048-78.31 73.663-134.635-.079-12.595-1.648-24.859-4.509-36.652z" fill="url(#SVGID_19_)"/><path d="m307.33 79.075c-18.103 17.462-36.409 35.126-54.829 52.866-.014 32.675-.021 65.35-.021 98.024 37.856-21.792 65.958-58.451 75.742-101.775-4.271-17.615-11.448-34.171-20.892-49.115z" fill="url(#SVGID_20_)"/><path d="m307.338 79.089c-12.558-19.859-29.111-36.871-48.337-49.512-1.959-1.289-4.199-1.932-6.436-1.929-.029 34.764-.051 69.528-.065 104.293 22.429-12.98 41.312-31.164 54.838-52.852z" fill="url(#SVGID_21_)"/></g></svg>