<svg id="Layer_1" enable-background="new 0 0 38 38" height="512" viewBox="0 0 38 38" width="512" xmlns="http://www.w3.org/2000/svg"><g id="_x33_6"><path d="m33.6249619 27.8782406c-2.3901672 3.5936241-6.3519859 6.1610432-10.6203575 6.8852482-6.1610432 1.0665245-12.6461535-1.5298004-16.2603188-7.0952072-5.6465781-8.6946049-1.6205931-20.0950237 7.6079283-23.7663057.6878109-.2745049 2.9561243-1.0420074 3.6453485-.8748243 1.0475082.2563519.4039459 2.155107.1597481 2.8732195-.5013084 1.4506826-.6032524 3.0071149-.7074604 4.5331082-.0722733 1.0596819.2449493 1.8409395.4937038 2.861825.1179066.4860897.0319443.9904547.1551895 1.4742603.1932163.818532.722681 1.4415636.8162479 2.2966089.0616131.5705376.0775948 1.1813946.363615 1.695631.2761402.4975109.7774601.7995129.9828491 1.3525562.3621025.9714375 1.0178394 1.1425972 1.743557 1.7808399.5491199.4845085.9008808 1.1381931 1.5762119 1.4613438.6526928.3111305 1.3692913.4320812 2.0387154.6960487 1.6618786.655468.9751549 1.6248493 5.0595284 1.843977 1.5876256.1490975 3.9093228.5325013 2.9454938 1.9816705z" fill="#8fabfe"/><path d="m30.6787071 25.8965702c-5.7342739.4906673-11.5438766-2.1163101-14.8917913-7.2716885-2.9924011-4.6081591-3.2809887-10.3907433-1.4347019-14.7229061.3278646-.1308503.6610584-.2502787.9988127-.3583038.6800861-.2244172 1.3730965-.3993764 2.0706692-.5142453 1.8203983-.3278642 1.015564 2.0478528.7356148 2.8709443-.5013084 1.4506826-.6032524 3.0071149-.7074604 4.5331082-.0722733 1.0596819.2449493 1.8409395.4937038 2.861825.1179066.4860897.0319443.9904547.1551895 1.4742603.1932163.818532.722681 1.4415636.8162479 2.2966089.0616131.5705376.0775948 1.1813946.363615 1.695631.2761402.4975109.7774601.7995129.9828491 1.3525562.3621025.9714375 1.0178394 1.1425972 1.743557 1.7808399.5287037.464798.9045029 1.1403141 1.5762119 1.4613438.6526928.3111305 1.3692913.4320812 2.0387154.6960487.7348557.2898369 1.2156239.865696 1.8911495 1.2399712.8657036.4804672 2.1943341.5114655 3.1676178.6040062z" fill="#fff" opacity=".3"/><path d="m33.6252823 27.8782406c-.4883957.7340927-1.0421867 1.425581-1.6515236 2.0676231-7.2407055 7.6311321-19.5889359 6.4077435-25.2291718-2.2775822-5.3794069-8.2832432-2.0076661-19.1727409 6.609571-23.3249321-2.2904959 4.9822292-1.7735739 10.8589411 1.1558313 15.3708744 4.0308809 6.2057934 11.6412458 8.7191772 18.3507652 6.5870514.8147293.2883149 1.3038612.7660389.7645279 1.5769654z" fill="#6f93f1"/><path d="m33.8509026 27.2323933c.0060806.1871319-.0631371.401659-.2259407.6458473-2.3901672 3.5936241-6.3519859 6.1610432-10.6203575 6.8852482-6.1610432 1.0665245-12.6461535-1.5298004-16.2603188-7.0952072-2.7903132-4.296526-3.3813915-9.8162918-1.485682-14.5996695 1.3274469-3.3479147 3.7769513-6.2211432 6.8570924-8.0613213-3.3048725 5.4989457-2.8570747 12.1161747.304286 16.9845238 4.6210603 7.1153822 14.0103292 9.4436884 21.4309206 5.2405787z" fill="#678aee"/><path d="m31.9737587 29.9458637c-7.2407055 7.6311321-19.5889359 6.4077435-25.2291718-2.2775822-4.1043367-6.3198833-3.3614356-14.8697385 2.454835-20.4351334-3.1449714 5.5348535-2.7297502 12.2337627.5363083 17.261425 3.7533741 5.7799244 10.4879923 8.4751377 16.8856277 7.3675404 1.8744059-.3179832 3.6917601-.9775195 5.3524008-1.9162498z" fill="#656fea"/><path d="m25.504631 34.1191635c-6.7738476 2.3613205-14.6315804-.0935173-18.7600441-6.450882-2.8931839-4.4549408-3.4496069-10.2690048-1.2057343-15.2614985-1.7230253 4.8412027-1.0528293 10.3267298 1.742043 14.6308622 3.7533741 5.7806835 10.4880018 8.4759083 16.8863869 7.3683109.4495788-.0760725.8953663-.1719244 1.3373485-.2867926z" fill="#5564d7"/><g><path d="m8.7486887 23.9427452c-.70755.1522598-1.5051446-.5117531-1.8612385-1.6005058-.3271952-1.0002441-.2136517-2.4087162.6534986-2.8190079.7535009-.3565273 1.6826363.3273983 2.0752172 1.5277176.3637887 1.1122265.1585609 2.6711788-.8674773 2.8917961z" fill="#5564d7"/><path d="m8.7486887 23.9427452c1.0386238-1.3359146.0383348-4.2387619-1.4775629-4.2368298.0818191-.0747681.1719246-.136364.2698231-.1826839.7535009-.3565273 1.6826363.3273983 2.0752172 1.5277176.3637886 1.1122265.1585608 2.6711788-.8674774 2.8917961z" fill="#4455b7"/></g><g fill="#fff"><path d="m15.7093925 29.6808567c-.0627241.2077332-.5947886.257122-1.1617842.0131474-.5679445-.2422791-.9014587-.6690102-.7830353-.8543758.234006-.3712293 2.0747071.4144363 1.9448195.8412284z"/><path d="m11.7218361 27.9592304c-.6934929-.739151-.8929672-1.6616001-.6168318-1.8513374.2783918-.1965008.8659668.316555 1.4636297.9573803.5923967.6475391 1.0193224 1.2476082.8362703 1.5400486-.1773214.2874145-.9907893.0951443-1.6830682-.6460915z"/></g><g><path d="m15.2025261 9.4274101.2490683.5822563-.3470392-.5309896c-.0203733-.0311728-.057497-.0451803-.0942459-.0391922-.0029974.0004883-.0060053.0009394-.0090237.0013533-.1006222.0137882-.0541592.0544157-.5066261 1.1308641l.2388945-1.1337576c.0069027-.0327616-.0052376-.0660572-.0303059-.0883904-.0021477-.0019131-.0042725-.0038519-.0063734-.0058136-.0274687-.0256491-.0664577-.0347052-.1010027-.0200462l-.5825691.2472115c.478157-.3333578.5885601-.3273945.5703964-.4385538-.0004826-.0029535-.0009298-.0059175-.0013428-.0088911-.0139484-.1006002-.0582838-.0557518-1.1346121-.508503l1.1364679.2411556c.0329638.0069952.066371-.0051622.0887146-.0302629.0017862-.0020075.0035954-.0039949.0054264-.0059624.0255823-.0274925.0345335-.0664368.0197611-.1010237l-.2486897-.5822487c.3280649.4678097.3294086.5881815.4408503.5703125.0029583-.000474.0059271-.0009127.0089054-.001317.1006403-.0136557.054285-.0546103.5067549-1.1310573l-.2388954 1.1337552c-.0069027.0327606.0052366.0660553.030303.0883875.0021486.001914.0042734.0038528.0063753.0058155.0274677.02565.0664558.0347118.1010056.0200615l.5829954-.2472019c-.478282.3331785-.5889883.3273706-.5708237.438529.0004826.0029573.0009308.0059261.0013437.0089045.0139465.1006002.0587769.0559654 1.1350098.5089417l-1.1368542-.2415848c-.0329723-.0070057-.06639.0051517-.0887413.0302582-.0017729.0019913-.0035677.0039635-.0053844.0059156-.0255938.0275097-.0345421.0664778-.019743.1010742z" fill="#fff"/></g><path d="m22.5489368 22.4657383c-6.7643776-3.9193268-8.9438848-12.8248444-4.5513744-19.4385872 1.0475082.2563519.4039459 2.155107.1597481 2.8732195-.5013084 1.4506826-.6032524 3.0071149-.7074604 4.5331082-.0722733 1.0596819.2449493 1.8409395.4937038 2.861825.1179066.4860897.0319443.9904547.1551895 1.4742603.1932163.818532.722681 1.4415636.8162479 2.2966089.0616131.5705376.0775948 1.1813946.363615 1.695631.2761402.4975109.7774601.7995129.9828491 1.3525562.3621025.9714375 1.0178394 1.1425972 1.743557 1.7808399.193987.1711623.3681947.3704707.5439244.5705382z" fill="#fff" opacity=".3"/><g><path d="m7.963768 15.1961069c-.6406541-.0124922-1.1931214-.7466927-1.2788634-1.7572441-.0788145-.9284105.3050861-2.1190996 1.1356802-2.2965536.7217374-.1542034 1.3835158.6238728 1.4780431 1.737977.0876054 1.0323429-.4058667 2.3340874-1.3348599 2.3158207z" fill="#5564d7"/><path d="m7.963768 15.1961069c1.1663513-.9402828.8939104-3.6449623-.4128051-3.9511681.8838973-.4931974 1.6522374.5106316 1.7476649 1.6353474.0876055 1.0323429-.4058666 2.3340874-1.3348598 2.3158207z" fill="#4455b7"/></g><g><path d="m12.051115 13.0280399c-.481782-.0093937-.8972464-.5615244-.9617262-1.3214769-.061883-.7289667.2195539-1.4090433.6512909-1.6498671.6647043-.3708916 1.2425089.3840036 1.3142719 1.2298088.0710955.8377848-.3052177 1.7552729-1.0038366 1.7415352z" fill="#656fea"/><path d="m12.051115 13.0280399c.8771162-.7071075.6722355-2.7410717-.3104353-2.971344.6647043-.3708916 1.2425089.3840036 1.3142719 1.2298088.0658818.7763386-.3052177 1.7552729-1.0038366 1.7415352z" fill="#5564d7"/></g><g><path d="m16.0755806 6.9351888c-.4697075.1004963-.7870703-.4538326-.8315201-.9777169-.0443392-.5223031.1716347-1.1921587.6389084-1.2919898.4060345-.0867519.7783356.3509765.8315144.977747.0531864.6267408-.2328625 1.2051782-.6389027 1.2919597z" fill="#8fabfe"/><path d="m15.963521 6.9460588c.6561632-.5289822.5028944-2.0505753-.232235-2.2228398.4972601-.2774615.9295111.2872701.9831972.9200101.0492859.5807733-.2283306 1.3131064-.7509622 1.3028297z" fill="#678aee"/></g><g><path d="m15.4187193 25.9555264c-.3359947.3348465-1.0111008.251709-1.5934868-.2221107-.5586634-.4544792-.8480053-1.1187267-.7234612-1.5891705.1916647-.7243786 1.1213722-.6176243 1.7695513-.0902748.6420412.5223388 1.0346957 1.4160842.5473967 1.901556z" fill="#5564d7"/><path d="m15.4187193 25.9555264c.0987101-1.1046715-1.4820929-2.3499393-2.3169479-1.8112812.1916647-.7243786 1.1213722-.6176243 1.7695513-.0902748.5949516.4840297 1.0346956 1.4160842.5473966 1.901556z" fill="#4455b7"/></g><g><path d="m24.7538548 32.1184082c-.0082798.0842056-.0258522.1647301-.0519753.2413864-.2548981.7483826-1.3250713 1.1224976-2.5450878.8443756-1.17029-.2667274-2.0929832-1.0457191-2.2541485-1.8406334-.0240746-.1186562-.0311527-.2376747-.0195408-.3554115.0893536-.9061947 1.2520885-1.3923512 2.5971203-1.0857296 1.3449745.3065872 2.3629284 1.2897854 2.2736321 2.1960125z" fill="#5564d7"/><path d="m24.7538548 32.1184082c-.0082798.0842056-.0258522.1647301-.0519753.2413864-.667944-1.7235622-3.9493465-2.4174423-4.7992363-.9962578-.0240746-.1186562-.0311527-.2376747-.0195408-.3554115.0893536-.9061947 1.2520885-1.3923512 2.5971203-1.0857296 1.3449745.3065872 2.3629284 1.2897854 2.2736321 2.1960125z" fill="#4455b7"/></g><g><g fill="#4455b7"><path d="m6.4084353 17.8086338c-.0258617.3849182-.1757207.6321507-.3445973.563694-.1688862-.0684681-.2867918-.4419823-.2677736-.824625.0251002-.3856792.1818027-.6344337.3468819-.5538025.1688766.0684738.2867917.4419804.265489.8147335z"/><path d="m15.8740377 32.2059593c-.2031145-.0631371-.3119011-.1681252-.2419119-.2335358.1503067-.1648331.8794003.0560837.7272396.2190781-.0631351.0692253-.2822227.0737877-.4853277.0144577z"/><path d="m10.9118843 21.0675411c.1331253.4244862.0745487.7523499-.1354103.7485523-.209197-.003046-.4914198-.3552589-.6306372-.7744141-.1323633-.4237156-.0677042-.756918.1430159-.7386627.2099581.0038071.4914293.355259.6230316.7645245z"/><path d="m9.4977055 9.2916431c.1293173.1118317.1034651.453393-.0494394.7485514-.1612806.304287-.3864498.4541454-.51653.3423223-.1293182-.1118231-.1034651-.4541454.0509624-.7584324.1605195-.3035249.3932933-.4533834.515007-.3324413z"/><path d="m28.5445309 31.8834152c-.617981.1391144-.5569153-.3143311.0540161-.4564304.2593975-.0585766.5742435.304472-.0540161.4564304z"/><path d="m5.8455033 24.0602074c-.1087775-.0015221-.2548385-.1840973-.3263502-.4008999-.0692186-.2198467-.0357518-.3917694.0737963-.3826427.2597384.0036372.5098276.7871436.2525539.7835426z"/><path d="m27.583744 32.3109398c-.0045681.1726837-.2951584.4016571-.6397552.5134811-.3499374.1064949-.6222706.0509644-.6062984-.1217232.0038071-.1726723.2943974-.4016495.6321602-.5073891.3491668-.1065024.6177024-.0562934.6138934.1156312z"/><path d="m9.5311718 17.4876041c-.0403109.3719997-.1962519.6047745-.3567715.5309887-.1605101-.0730362-.2586365-.4396973-.2251692-.8094044.0410814-.3719921.2031059-.6062889.3598175-.5210896.1605101.0730268.2594071.4396878.2221232.7995053z"/><path d="m16.2901478 32.8814774c-.8260384-.256115-.4168348-.6742783.4077435-.4260101.3484039.1080245.4402618.6741103-.4077435.4260101z"/><path d="m19.2181454 29.7899208c-.1719227.1201916-.6062889 0-.9645844-.2586441-.3560181-.2654896-.4982719-.5735836-.3164692-.6823616.1719227-.1201992.6062984 0 .9524193.2548389.35602.2662507.500557.5659771.3286343.6861668z"/><path d="m6.6183939 17.3803501c-.0988874-.0403214-.1673632-.2571239-.1567025-.4800167.0152106-.2244091.106493-.3696995.2023439-.3225441.2355032.0967598.1870089.8981571-.0456414.8025608z"/><path d="m9.4087067 26.4366856c.1323643.4244766.0745487.7515793-.1354094.7485428-.209959-.0038071-.4921818-.3552589-.6306372-.7744141-.1331253-.4244766-.0684566-.7569084.1422539-.7386532.2099581.003046.4921904.3552494.6237927.7645245z"/></g><path d="m15.9615126 13.4390717c.309617.3248272.4024229.6473703.211482.7379007-.1917028.0905304-.6040049-.1019335-.9166679-.4191551-.3096075-.3248281-.3993759-.6549768-.2000589-.7333326.1909398-.0905209.6032428.1026954.9052448.414587z" fill="#8fabfe"/><path d="m21.7908955 23.8433952c-1.0695267-.664629-.3785248-.8865108.7348442-.209959.4541454.2822247.3366794.8713703-.7348442.209959z" fill="#8fabfe"/><path d="m15.2266674 12.6783552c-.429328-.4510422-.0146589-.6257973.410779-.1856108.1802988.1894178.2343073.3773127.1224842.4298067-.111062.0524855-.3514604-.0593376-.5332632-.2441959z" fill="#8fabfe"/><path d="m13.6626291 6.2160702c-.1049166.7489495-.5290813.4916306-.4313202-.2479944.0441179-.3149376.1703997-.5096765.2898283-.4442558.1186667.0654206.1802893.3788351.1414919.6922502z" fill="#678aee"/><g fill="#5564d7"><path d="m11.8118086 6.2533445c.263587.0770931-.0208664.4996424-.2753792.4374123-.2600002-.053071.0030479-.4929957.2753792-.4374123z"/><path d="m12.3458242 18.0901031c.0395584.4084969-.060091.6747475-.2190781.5910702-.1605196-.0707512-.3248272-.464035-.3643856-.8588428-.0387974-.408514.0547686-.6724796.2152882-.6017303.1605015.0707511.3240662.4640369.3681755.8695029z"/><path d="m18.8788681 25.0400009c-.1095467.1308422-.4746857.1285667-.8101654.002285-.3347168-.1331253-.5112076-.3430843-.3925323-.4670715.109539-.1300888.4746876-.1285667.8002758-.002285.3347167.1331253.5111999.3369922.4024219.4670715z"/><path d="m23.0042343 28.0189705c-.2084351.1711617-.7782116.0608616-1.2635593-.2350578-.4838047-.3058109-.6968098-.6861687-.4746857-.8444042.2091961-.1711597.7782211-.0608521 1.2483482.2320232.4838047.305809.6990929.6762771.4898968.8474388z"/><path d="m11.39569 7.0452533c-.1413412-.0282769.0013103-.268918.149868-.2373433.143238.0411811-.0112086.2710819-.149868.2373433z"/><path d="m28.7544899 28.2456722c-1.2389317.2740974-.8525047-.3852043.3773212-.664875.5218411-.1156216.8944951.3664818-.3773212.664875z"/><path d="m17.5681553 24.2724419c-.1947479-.0775852-.2982044-.2000694-.2282143-.2723331.1502972-.1810913.849514.090498.6998558.2708187-.0639076.0760707-.2769031.0745487-.4716415.0015144z"/></g></g></g></svg>