<svg height="512pt" viewBox="-33 0 512 512" width="512pt" xmlns="http://www.w3.org/2000/svg"><g fill="#f3c957"><path d="m222.988281 499.519531c-4.273437 0-7.734375-3.464843-7.734375-7.734375v-88.597656c0-4.269531 3.460938-7.734375 7.734375-7.734375 4.269531 0 7.734375 3.464844 7.734375 7.734375v88.597656c0 4.269532-3.464844 7.734375-7.734375 7.734375zm0 0"/><path d="m346.160156 193.535156c-2.714844 0-5.351562-1.429687-6.765625-3.96875-2.078125-3.730468-.738281-8.441406 2.992188-10.519531l80.996093-45.132813c3.726563-2.078124 8.441407-.738281 10.519532 2.992188s.738281 8.441406-2.992188 10.519531l-80.996094 45.132813c-1.1875.664062-2.480468.976562-3.753906.976562zm0 0"/><path d="m425.765625 381.910156c-1.335937 0-2.6875-.347656-3.921875-1.074218l-77.394531-45.621094c-3.679688-2.171875-4.90625-6.910156-2.734375-10.589844 2.167968-3.679688 6.910156-4.902344 10.589844-2.734375l77.394531 45.621094c3.679687 2.167969 4.90625 6.910156 2.734375 10.589843-1.441406 2.445313-4.019532 3.808594-6.667969 3.808594zm0 0"/><path d="m224.019531 131.839844c-4.253906 0-7.714843-3.4375-7.734375-7.695313l-.515625-105.273437c-.023437-4.269532 3.425781-7.75 7.695313-7.769532h.039062c4.253906 0 7.710938 3.4375 7.734375 7.695313l.515625 105.269531c.019532 4.273438-3.425781 7.75-7.695312 7.773438-.015625 0-.027344 0-.039063 0zm0 0"/><path d="m20.34375 380.578125c-2.683594 0-5.289062-1.398437-6.71875-3.890625-2.121094-3.703125-.839844-8.429688 2.867188-10.554688l71.78125-41.148437c3.703124-2.125 8.429687-.839844 10.554687 2.863281 2.125 3.707032.839844 8.433594-2.863281 10.554688l-71.78125 41.148437c-1.214844.695313-2.535156 1.027344-3.839844 1.027344zm0 0"/><path d="m95.28125 191.210938c-1.300781 0-2.625-.332032-3.835938-1.027344l-76.460937-43.828125c-3.707031-2.125-4.988281-6.851563-2.863281-10.554688 2.125-3.707031 6.847656-4.988281 10.554687-2.863281l76.460938 43.828125c3.703125 2.125 4.988281 6.847656 2.863281 10.554687-1.429688 2.492188-4.035156 3.890626-6.71875 3.890626zm0 0"/><path d="m428.703125 382.710938c-4.273437 0-7.734375-3.460938-7.734375-7.734376v-237.214843c0-4.269531 3.460938-7.730469 7.734375-7.730469s7.734375 3.460938 7.734375 7.730469v237.214843c0 4.273438-3.460938 7.734376-7.734375 7.734376zm0 0"/><path d="m239.21875 491.390625c-2.671875 0-5.269531-1.386719-6.703125-3.871094-2.136719-3.695312-.871094-8.425781 2.828125-10.5625l172.367188-99.515625c3.699218-2.136718 8.425781-.871094 10.5625 2.832032 2.136718 3.695312.871093 8.425781-2.828126 10.5625l-172.367187 99.515624c-1.214844.703126-2.546875 1.039063-3.859375 1.039063zm0 0"/><path d="m207.015625 490.941406c-1.3125 0-2.644531-.332031-3.863281-1.035156l-172.347656-99.507812c-3.699219-2.136719-4.96875-6.867188-2.832032-10.566407 2.136719-3.699219 6.863282-4.964843 10.566406-2.828125l172.347657 99.503906c3.699219 2.136719 4.96875 6.867188 2.832031 10.566407-1.433594 2.480469-4.03125 3.867187-6.703125 3.867187zm0 0"/><path d="m18.304688 382.476562c-4.273438 0-7.734376-3.460937-7.734376-7.734374v-231.179688c0-4.269531 3.460938-7.730469 7.734376-7.730469 4.269531 0 7.730468 3.460938 7.730468 7.730469v231.179688c0 4.273437-3.460937 7.734374-7.730468 7.734374zm0 0"/><path d="m33.945312 136.015625c-2.671874 0-5.273437-1.386719-6.707031-3.867187-2.132812-3.699219-.867187-8.429688 2.832031-10.566407l172.882813-99.8125c3.699219-2.136719 8.429687-.871093 10.566406 2.828125 2.132813 3.699219.867188 8.429688-2.832031 10.566406l-172.882812 99.8125c-1.21875.703126-2.546876 1.039063-3.859376 1.039063zm0 0"/><path d="m412.339844 135.597656c-1.3125 0-2.640625-.332031-3.859375-1.035156l-172.9375-99.847656c-3.699219-2.132813-4.964844-6.863282-2.828125-10.5625 2.132812-3.699219 6.859375-4.96875 10.5625-2.832032l172.9375 99.847657c3.699218 2.132812 4.964844 6.863281 2.832031 10.5625-1.433594 2.480469-4.035156 3.867187-6.707031 3.867187zm0 0"/></g><path d="m427.144531 120.644531c10.40625 0 18.832031 8.4375 18.832031 18.839844 0 10.394531-8.425781 18.828125-18.832031 18.828125-10.390625 0-18.828125-8.433594-18.828125-18.828125 0-10.402344 8.4375-18.839844 18.828125-18.839844zm0 0" fill="#75dbad"/><path d="m427.144531 354.71875c10.40625 0 18.832031 8.433594 18.832031 18.839844 0 10.390625-8.425781 18.828125-18.832031 18.828125-10.390625 0-18.828125-8.4375-18.828125-18.828125 0-10.40625 8.4375-18.839844 18.828125-18.839844zm0 0" fill="#75dbad"/><path d="m222.976562 474.332031c10.40625 0 18.828126 8.433594 18.828126 18.839844 0 10.394531-8.421876 18.828125-18.828126 18.828125-10.394531 0-18.828124-8.433594-18.828124-18.828125 0-10.40625 8.433593-18.839844 18.828124-18.839844zm0 0" fill="#75dbad"/><path d="m18.828125 354.71875c10.394531 0 18.828125 8.433594 18.828125 18.839844 0 10.390625-8.433594 18.828125-18.828125 18.828125-10.402344 0-18.828125-8.4375-18.828125-18.828125 0-10.40625 8.425781-18.839844 18.828125-18.839844zm0 0" fill="#75dbad"/><path d="m18.828125 120.644531c10.394531 0 18.828125 8.4375 18.828125 18.839844 0 10.394531-8.433594 18.828125-18.828125 18.828125-10.402344 0-18.828125-8.433594-18.828125-18.828125 0-10.402344 8.425781-18.839844 18.828125-18.839844zm0 0" fill="#75dbad"/><path d="m222.976562 0c10.40625 0 18.828126 8.433594 18.828126 18.839844 0 10.394531-8.421876 18.828125-18.828126 18.828125-10.394531 0-18.828124-8.433594-18.828124-18.828125 0-10.40625 8.433593-18.839844 18.828124-18.839844zm0 0" fill="#75dbad"/><path d="m384.878906 257.191406c0 88.839844-72.019531 160.859375-160.859375 160.859375-88.839843 0-160.859375-72.019531-160.859375-160.859375s72.019532-160.859375 160.859375-160.859375c88.839844 0 160.859375 72.019531 160.859375 160.859375zm0 0" fill="#76b1cb"/><path d="m160.523438 257.191406c0-71.875 47.136718-132.726562 112.179687-153.355468-15.359375-4.871094-31.714844-7.503907-48.683594-7.503907-88.84375 0-160.859375 72.015625-160.859375 160.859375s72.015625 160.859375 160.859375 160.859375c16.96875 0 33.324219-2.636719 48.683594-7.507812-65.042969-20.625-112.179687-81.476563-112.179687-153.351563zm0 0" fill="#5ba1ba"/><path d="m384.878906 257.191406h-72.179687c0-29.851562-4.476563-57.808594-12.304688-81.761718 18.171875-4.804688 34.691407-11.28125 48.949219-19.066407l.011719-.007812c5.074219 6.289062 9.671875 12.96875 13.765625 19.992187 13.828125 23.75 21.757812 51.371094 21.757812 80.84375zm0 0" fill="#418ba5"/><path d="m349.34375 358.015625.011719.011719c-29.253907 36.328125-73.996094 59.671875-124.191407 60.015625 32.046876-.746094 59.992188-32.296875 75.230469-79.089844 18.171875 4.804687 34.691407 11.277344 48.949219 19.0625zm0 0" fill="#418ba5"/><path d="m258.625 405.332031c-10.300781 7.929688-21.597656 12.433594-33.460938 12.710938 16.554688-.113281 32.515626-2.742188 47.523438-7.503907-4.789062-1.515624-9.480469-3.261718-14.0625-5.207031zm0 0" fill="#2a7f96"/><path d="m222.988281 257.191406h89.710938c0 29.851563-4.476563 57.804688-12.304688 81.761719-23.1875-6.148437-49.070312-9.582031-76.375-9.582031-.339843 0-.691406 0-1.03125.011718zm0 0" fill="#418ba5"/><path d="m222.988281 96.339844c.339844-.007813.691407-.007813 1.03125-.007813.378907 0 .761719 0 1.144531.007813 32.046876.742187 59.992188 32.296875 75.230469 79.089844-23.1875 6.148437-49.070312 9.582031-76.375 9.582031-.339843 0-.691406 0-1.03125-.011719zm0 0" fill="#418ba5"/><path d="m222.988281 96.339844v33.59375c10.855469-8.40625 22.820313-15.449219 35.636719-20.882813-10.300781-7.929687-21.597656-12.433593-33.460938-12.710937-.382812-.007813-.765624-.007813-1.144531-.007813-.339843 0-.691406 0-1.03125.007813zm0 0" fill="#2a7f96"/><path d="m222.988281 329.382812v88.660157c-.042969 0-.074219 0-.113281 0-32.050781-.746094-59.992188-32.296875-75.234375-79.089844 22.890625-6.074219 48.421875-9.5 75.347656-9.570313zm0 0" fill="#418ba5"/><path d="m179.234375 332.542969c-10.96875 1.585937-21.535156 3.742187-31.59375 6.410156 15.242187 46.792969 43.183594 78.34375 75.234375 79.089844h.113281v-33.597657c-18.015625-13.949218-32.988281-31.636718-43.753906-51.902343zm0 0" fill="#2a7f96"/><path d="m222.988281 185v72.191406h-87.648437c0-29.851562 4.476562-57.808594 12.300781-81.761718 22.890625 6.074218 48.421875 9.496093 75.347656 9.570312zm0 0" fill="#418ba5"/><path d="m135.339844 257.191406h25.183594c0-27.230468 6.769531-52.875 18.710937-75.351562-10.96875-1.585938-21.535156-3.742188-31.59375-6.410156-7.824219 23.953124-12.300781 51.910156-12.300781 81.761718zm0 0" fill="#2a7f96"/><path d="m222.875 96.339844c-32.050781.742187-59.992188 32.296875-75.234375 79.089844-18.167969-4.804688-34.6875-11.28125-48.949219-19.066407l-.007812-.007812c29.253906-36.328125 73.992187-59.675781 124.191406-60.015625zm0 0" fill="#2a7f96"/><path d="m83.96875 336.363281c-13.253906-23.367187-20.808594-50.394531-20.808594-79.171875h72.179688c0 29.851563 4.476562 57.804688 12.300781 81.761719-18.167969 4.804687-34.6875 11.277344-48.949219 19.0625l-.007812.011719c-5.476563-6.785156-10.40625-14.035156-14.714844-21.664063zm0 0" fill="#2a7f96"/></svg>