<svg id="Layer_1" enable-background="new 0 0 512 512" viewBox="0 0 512 512" xmlns="http://www.w3.org/2000/svg"><path d="m57.3 362.1c0 6.2 9.4 6.2 9.4 0h379.2c0 6.2 9.4 6.2 9.4 0v-246.3c0-2.6-2.1-4.7-4.7-4.7h-388.6c-2.6 0-4.7 2.1-4.7 4.7z" fill="#313d40"/><path d="m76 362.1c0 6.2 9.4 6.2 9.4 0h341.7c0 6.2 9.4 6.2 9.4 0v-227.5c0-2.6-2.1-4.7-4.7-4.7h-351.1c-2.6 0-4.7 2.1-4.7 4.7z" fill="#2e3537"/><path d="m308.2 362.1c0 6.2 9.4 6.2 9.4 0h84.1c0 6.2 9.4 6.2 9.4 0v-46.7c0-2.6-2.1-4.7-4.7-4.7h-93.4c-2.6 0-4.7 2.1-4.7 4.7z" fill="#ffd23b"/><path d="m160.6 162.3c0-6.2-9.4-6.2-9.4 0v74.4c0 6.2 9.4 6.2 9.4 0z" fill="#ffd23b"/><path d="m168.7 241.5c6.2 0 6.2-9.4 0-9.4h-25.7c-6.2 0-6.2 9.4 0 9.4z" fill="#ffd23b"/><path d="m159.2 165.7c4.4-4.4-2.3-11-6.6-6.6l-18.2 18.2c-4.4 4.4 2.3 11 6.6 6.6z" fill="#ffd23b"/><path d="m467.6 402.4h-422.6c-2.6 0-4.7-2.1-4.7-4.7v-35.6c0-2.6 2.1-4.7 4.7-4.7h422.6c2.6 0 4.7 2.1 4.7 4.7v35.6c0 2.6-2.1 4.7-4.7 4.7z" fill="#2e3537"/><g fill="#ffd23b"><path d="m241.5 157.7c-6.2 0-6.2 9.4 0 9.4h32.5v27.8h-32.5c-6.2 0-6.2 9.4 0 9.4h37.2c2.6 0 4.7-2.1 4.7-4.7v-37.2c0-2.6-2.1-4.7-4.7-4.7z"/><path d="m278.7 241.4c6.2 0 6.2-9.4 0-9.4h-32.5v-32.5c0-6.2-9.4-6.2-9.4 0v37.2c0 2.6 2.1 4.7 4.7 4.7z"/><path d="m360.3 157.7c-6.2 0-6.2 9.4 0 9.4h32.5v27.8h-32.5c-6.2 0-6.2 9.4 0 9.4h37.2c2.6 0 4.7-2.1 4.7-4.7v-37.2c0-2.6-2.1-4.7-4.7-4.7z"/><path d="m360.3 232c-6.2 0-6.2 9.4 0 9.4h37.2c2.6 0 4.7-2.1 4.7-4.7v-37.2c0-6.2-9.4-6.2-9.4 0v32.5z"/><path d="m235.4 273.9c-6.2 0-6.2 9.4 0 9.4h46.5c6.2 0 6.2-9.4 0-9.4z"/><path d="m115 301.8c-6.2 0-6.2 9.4 0 9.4h166.8c6.2 0 6.2-9.4 0-9.4z"/><path d="m115 329.7c-6.2 0-6.2 9.4 0 9.4h166.8c6.2 0 6.2-9.4 0-9.4z"/><path d="m115 273.9c-6.2 0-6.2 9.4 0 9.4h83.4c6.2 0 6.2-9.4 0-9.4z"/></g></svg>