<svg height="512" viewBox="0 0 512 512" width="512" xmlns="http://www.w3.org/2000/svg"><g id="flat"><path d="m224 208h-136l11.357-37.856a59.136 59.136 0 0 1 56.643-42.144 59.136 59.136 0 0 1 56.643 42.144z" fill="#a3612d"/><path d="m176 184h-40a8 8 0 0 1 0-16h40a8 8 0 0 1 0 16z" fill="#7a4922"/><circle cx="160" cy="456" fill="#cb2527" r="24"/><circle cx="376" cy="456" fill="#cb2527" r="24"/><path d="m408 112h-96l24-40h96z" fill="#eae9e4"/><path d="m416.22 448h-288.44a36 36 0 0 1 -35.722-31.535l-20.058-160.465h400l-20.058 160.465a36 36 0 0 1 -35.722 31.535z" fill="#cb2527"/><path d="m56 208h432v48h-432z" fill="#ea2b2d"/><g fill="#b22122"><rect height="128" rx="16" width="32" x="256" y="288"/><rect height="128" rx="16" width="32" x="192" y="288"/><rect height="128" rx="16" width="32" x="320" y="288"/><rect height="128" rx="16" width="32" x="384" y="288"/><rect height="128" rx="16" width="32" x="128" y="288"/></g><path d="m312 112h96v96h-96z" fill="#dcdbd6"/><path d="m408 112 24-40 24 40v96h-48z" fill="#cdccc8"/><path d="m336 40h96v32h-96z" fill="#dcdbd6"/><path d="m312 208h-96v-55.147a60 60 0 0 1 17.574-42.427l6.426-6.426v-16h48v16l6.426 6.426a60 60 0 0 1 17.574 42.427z" fill="#faa6b2"/><path d="m311.99 152h-31.99a8 8 0 0 1 0-16h29.58a59.7 59.7 0 0 1 2.41 16z" fill="#ec9da8"/><path d="m312 168v16h-32a8 8 0 0 1 0-16z" fill="#ec9da8"/><path d="m232 56h64v32h-64z" fill="#dcdbd6"/><path d="m268.841 231.159a17.992 17.992 0 0 1 -9.98-3.021l-170.461-113.638c-14.381-9.588-9.328-31.864 7.783-34.309a18.831 18.831 0 0 1 13.236 3.06l169.523 115.031c14.667 9.952 7.623 32.877-10.101 32.877z" fill="#b22122"/><path d="m408 144-96 64h96z" fill="#92d1f7"/><path d="m408 144h48v64h-48z" fill="#5ebef7"/><path d="m96 304h-56a8 8 0 0 1 0-16h56a8 8 0 0 1 0 16z" fill="#ee9d0d"/><path d="m96 344h-32a8 8 0 0 1 0-16h32a8 8 0 0 1 0 16z" fill="#ee9d0d"/><path d="m96 376h-64a8 8 0 0 1 0-16h64a8 8 0 0 1 0 16z" fill="#ee9d0d"/><path d="m104 408h-40a8 8 0 0 1 0-16h40a8 8 0 0 1 0 16z" fill="#ee9d0d"/><path d="m32 344h-8a8 8 0 0 1 0-16h8a8 8 0 0 1 0 16z" fill="#ee9d0d"/><path d="m160 488a32 32 0 1 1 32-32 32.036 32.036 0 0 1 -32 32zm0-48a16 16 0 1 0 16 16 16.019 16.019 0 0 0 -16-16z" fill="#b22122"/><path d="m376 488a32 32 0 1 1 32-32 32.036 32.036 0 0 1 -32 32zm0-48a16 16 0 1 0 16 16 16.019 16.019 0 0 0 -16-16z" fill="#b22122"/><path d="m240 88h48v8h-48z" fill="#ec9da8"/></g></svg>