<svg id="Capa_1" enable-background="new 0 0 512 512" height="512" viewBox="0 0 512 512" width="512" xmlns="http://www.w3.org/2000/svg"><g><path d="m380.492 98.06-165.989-95.836c-5.136-2.965-11.463-2.965-16.599 0l-165.99 95.836c-2.54 1.467-4.598 3.548-6.029 5.995l180.318 124.214 180.32-124.212c-1.432-2.448-3.49-4.531-6.031-5.997z" fill="#98db7c"/><path d="m25.885 104.055c-1.463 2.501-2.271 5.382-2.271 8.38v191.668c0 5.93 3.164 11.41 8.299 14.375l165.99 95.834c2.568 1.482 5.433 2.224 8.299 2.224l13.72-102.075-13.72-106.192z" fill="#b8eb7c"/><path d="m386.523 104.057-180.32 104.211v208.267c2.866 0 5.732-.742 8.299-2.224l10.034-5.793 164.256-159.775v-136.308c0-2.998-.806-5.877-2.269-8.378z" fill="#77cc7d"/><path d="m363.893 246.417c-77.922 0-141.091 63.169-141.091 141.091 0 7.16.705 14.138 1.733 21.011l155.956-90.041c5.135-2.965 8.299-8.445 8.299-14.375v-55.359c-8.094-1.445-16.386-2.327-24.897-2.327z" fill="#52bd7e"/><path d="m447.058 470.673c-68.041 68.041-171.194 4.864-171.194 4.864-48.617-48.617-48.617-127.441 0-176.059s127.441-48.617 176.059 0c0 0 63.927 102.403-4.865 171.195z" fill="#615260"/><g><path d="m322.396 429.005c-2.124 0-4.247-.811-5.868-2.432l-33.198-33.198c-3.242-3.242-3.242-8.494 0-11.736l33.198-33.198c3.242-3.242 8.494-3.242 11.736 0s3.242 8.494 0 11.736l-27.33 27.33 27.33 27.33c3.242 3.242 3.242 8.494 0 11.736-1.621 1.622-3.745 2.432-5.868 2.432z" fill="#fff"/></g><g><path d="m405.391 429.005c-2.123 0-4.247-.811-5.868-2.432-3.242-3.242-3.242-8.494 0-11.736l27.33-27.33-27.33-27.33c-3.242-3.242-3.242-8.494 0-11.736s8.494-3.242 11.736 0l33.198 33.198c3.242 3.242 3.242 8.494 0 11.736l-33.198 33.198c-1.621 1.622-3.745 2.432-5.868 2.432z" fill="#fff"/></g><g><path d="m347.302 453.908c-.762 0-1.524-.105-2.286-.324-4.409-1.26-6.962-5.852-5.706-10.261l33.198-116.193c1.264-4.413 5.884-6.946 10.261-5.698 4.409 1.26 6.962 5.852 5.706 10.261l-33.198 116.193c-1.045 3.643-4.368 6.022-7.975 6.022z" fill="#b8eb7c"/></g><path d="m471.787 387.508c0 37.694-19.207 72.442-52.976 93.069-8.857 5.41-18.6 9.378-28.703 11.751-32.794 7.702-65.3.672-90.594-18.212-7.207-5.381-17.137-5.091-23.497 1.269l-.153.153c26.019 26.019 63.501 40.574 104.22 35.44 55.486-6.996 100.29-51.804 107.28-107.29 5.129-40.715-9.425-78.192-35.441-104.208l-.162.162c-6.099 6.099-7.064 15.851-1.843 22.716 14.187 18.653 21.869 41.312 21.869 65.15z" fill="#4e3d4d"/></g></svg>