<svg id="Layer_1" enable-background="new 0 0 53 53" viewBox="0 0 53 53" xmlns="http://www.w3.org/2000/svg"><g><g><g><g><path d="m25.5091724 40.5427017 8.015852 4.3632011c.2490883-.5732498.1123047-1.1236076-.8135719-1.4970016l-.9234467-4.8067398-6.2684193-3.4120903z" fill="#f9234c"/></g><g><path d="m25.5195866 35.1900711 6.2684193 3.4120903-.4212799-2.1935158c.0020828-1.0518723.454607-2.0517387 1.1598625-2.7628098l-6.9965858-3.8084183z" fill="#f4164b"/></g><g><path d="m25.5056133 42.3862534c-.0035572 1.187355.5688229 2.1471672 1.4326458 2.6164207l4.0526657 2.2040558c.7392788-.4021645 2.1343422-1.3810043 2.5340996-2.300827l-8.015852-4.3632011z" fill="#f4164b"/></g><g><path d="m39.2705307 31.9584599-11.1095715-6.0472546c-1.4866295.4543018-2.6272259 1.9942856-2.6304359 3.6666451l-.0005207.2595673 6.9965858 3.8084183c.5318527-.536171 1.207077-.9086075 1.9435806-1.012516z" fill="#f9234c"/></g><g><path d="m47.442173 30.8096409c1.8836937 1.4328403.4947014-3.2866135-.1341782-4.34235l-4.0491104-2.2040348c-.4799461-.2595253-1.0451241-.3697262-1.6530037-.2844124l-5.6835403.7987957 11.1716309 6.0809517z" fill="#f9234c"/></g><g><path d="m47.0939713 30.8585911-11.1716309-6.0809517-7.2919331 1.0248833c-.1600418.0226288-.3159161.0617714-.4694481.1086826l11.1095715 6.0472546z" fill="#f4164b"/></g></g><g><path d="m32.6824875 28.006012 12.9738426-1.8233547c1.7085571-.2401218 3.092598 1.0617886 3.0891724 2.90592l-.0237885 12.8074646c-.0034256 1.8441315-1.3930206 3.5327797-3.1015778 3.7728996l-12.9738426 1.8233566c-1.7114906.2405357-3.0926018-1.0587158-3.0891762-2.9028473l.0237885-12.8074646c.0034256-1.8441314 1.390091-3.5354404 3.1015816-3.7759742z" fill="#ff3654"/></g><g><path d="m32.2419891 46.0990486c-.325985 0-.6155167-.1173401-.8370056-.3393478-.2756443-.2759933-.4270058-.6906776-.4259644-1.167675l.0239525-12.8074493c.0020828-1.1421585.8620014-2.2277298 1.8774452-2.3704128l12.9737396-1.8234615c.0694313-.0097198.1381683-.0145798.2051697-.0145798.3249435 0 .6144753.1175137.8366585.3402176.2766876.2770348.4283943.6924114.4277 1.1697578l-.0239525 12.8072739c-.0020828 1.1405983-.8619995 2.224781-1.8774452 2.3674622l-12.9737396 1.8234596c-.0697784.0097235-.1395568.0147551-.2065582.0147551z" fill="#f9234c"/></g><g><path d="m47.3224716 29.0872688-.0213509 12.8048439c-.0036469 1.1411171-.8639107 2.2253876-1.8805695 2.3675728l-12.9720039 1.8236771c-.0709915.0106735-.1385155.0142097-.2062111.0142097-.3270264 0-.6148224-.1172943-.8389149-.3376999-.273735-.2772942-.426487-.6896553-.4230137-1.1695824l.0036449-1.8556595c1.5179577 1.0415878 3.3521824 1.6494904 5.3323879 1.6494904 5.2185173 0 9.4453697-4.2303696 9.4453697-9.4489975 0-2.7266197-1.1553497-5.1866436-3.0039787-6.9107742l3.0963249-.433712c.071167-.0106525.1386909-.0142117.2062111-.0142117.323555 0 .6149979.1173191.8354416.3412819.2772104.2772713.430134.6896553.4266626 1.1695614z" fill="#f4164b"/></g><g><g><path d="m25.495182 19.0922775 8.0158539 4.3632011c.2490845-.5732498.1123047-1.1236076-.8135719-1.4970016l-.9234486-4.8067417-6.2684174-3.4120893z" fill="#1f9dea"/></g><g><path d="m25.5055981 13.739646 6.2684174 3.4120893-.421278-2.193512c.0020828-1.0518751.4546051-2.0517406 1.1598625-2.7628126l-6.9965878-3.8084173z" fill="#1694d3"/></g><g><path d="m25.4916248 20.9358292c-.0035591 1.187355.5688229 2.1471672 1.4326439 2.6164188l4.0526657 2.2040577c.7392788-.4021626 2.1343441-1.3810043 2.5341015-2.300827l-8.0158539-4.3632011z" fill="#1694d3"/></g><g><path d="m39.2565422 10.5080366-11.1095734-6.0472555c-1.4866276.4543028-2.627224 1.9942856-2.6304359 3.6666451l-.0005207.2595673 6.9965878 3.8084173c.5318489-.5361681 1.207077-.9086065 1.9435806-1.012516z" fill="#1f9dea"/></g><g><path d="m47.4281807 9.3592167c1.8836937 1.4328403.4947052-3.2866125-.1341782-4.3423495l-4.0491066-2.2040358c-.47995-.2595243-1.0451279-.3697262-1.6530037-.2844114l-5.6835403.7987947 11.171627 6.0809522z" fill="#1f9dea"/></g><g><path d="m47.0799789 9.4081669-11.171627-6.0809522-7.291935 1.0248833c-.1600418.0226307-.3159161.0617728-.4694481.1086831l11.1095734 6.0472555z" fill="#1694d3"/></g></g><g><path d="m32.668499 6.5555882 12.9738426-1.8233547c1.7085533-.2401218 3.0925941 1.0617886 3.0891685 2.90592l-.0237885 12.8074665c-.0034256 1.8441315-1.3930206 3.5327778-3.1015739 3.7728996l-12.9738426 1.8233547c-1.7114925.2405338-3.0926037-1.0587139-3.0891781-2.9028454l.0237885-12.8074665c.0034256-1.8441318 1.390091-3.5354398 3.1015835-3.7759742z" fill="#32a8ff"/></g><g><path d="m32.2274094 24.6485176c-.325985 0-.6151695-.1171665-.8366585-.3390026-.2752991-.2759933-.4266605-.6906757-.4256191-1.1678486l.0236073-12.8074493c.0020828-1.1421576.8619995-2.2277288 1.8777924-2.3705854l12.9737395-1.8232876c.0694313-.0097208.1385155-.0147548.2051697-.0147548.3249435 0 .6144753.1176877.8366585.3403912.2763405.2770343.4283943.6924119.4273529 1.1695843l-.0236053 12.8074493c-.0020828 1.1404209-.8619995 2.2246037-1.8774452 2.3674603l-12.9740868 1.823288c-.0701257.0097198-.139557.0147552-.2069054.0147552z" fill="#1f9dea"/></g><g><path d="m47.308239 7.6368666-.0213509 12.8048239c-.0034714 1.1411381-.8639107 2.2253857-1.8770981 2.3675919l-12.9754753 1.8236771c-.0709953.0106544-.1385155.0142117-.2060394.0142117-.327198 0-.614994-.1173172-.8390865-.3377209-.273737-.2772732-.426487-.6896572-.4230156-1.1660042l.0036449-2.1934052c1.6316566 1.3508892 3.7290268 2.1578426 6.011261 2.1578426 5.218689 0 9.4455452-4.2303467 9.4455452-9.4489956 0-2.8545933-1.2655754-5.4141436-3.2669563-7.1418314l2.6802559-.376821c.071167-.010675.1386871-.0142117.2062111-.0142117.323555 0 .6151695.1172967.8354416.3412585.2773818.2772946.4301338.6896563.4266624 1.1695843z" fill="#1694d3"/></g><g><g><path d="m4.2580671 43.5217285 8.015851 4.3632011c.2490883-.5732498.1123066-1.1236076-.813571-1.4969978l-.9234467-4.8067436-6.2684188-3.4120903z" fill="#89a523"/></g><g><path d="m4.2684817 38.1690979 6.2684188 3.4120903-.4212799-2.193512c.0020838-1.0518761.454607-2.0517426 1.1598644-2.7628136l-6.9965882-3.8084183z" fill="#7b9319"/></g><g><path d="m4.2545085 45.3652802c-.0035582 1.187355.5688229 2.1471672 1.4326453 2.6164207l4.0526657 2.2040596c.7392788-.4021645 2.1343431-1.3810081 2.5340986-2.3008308l-8.015851-4.3632011z" fill="#7b9319"/></g><g><path d="m18.0194263 34.9374886-11.1095728-6.0472546c-1.4866285.4543018-2.6272249 1.9942856-2.6304359 3.6666431l-.0005207.2595673 6.9965882 3.8084183c.5318499-.5361671 1.207077-.9086075 1.9435778-1.012516z" fill="#89a523"/></g><g><path d="m26.1910667 33.7886696c1.8836937 1.4328384.4947033-3.2866135-.1341782-4.34235l-4.0491085-2.2040367c-.479948-.2595234-1.045126-.3697262-1.6530037-.2844105l-5.6835403.7987957 11.171627 6.0809517z" fill="#89a523"/></g><g><path d="m25.8428631 33.8376198-11.171627-6.0809517-7.291935 1.0248814c-.1600409.0226307-.3159161.0617733-.4694476.1086845l11.1095734 6.0472546z" fill="#7b9319"/></g></g><g><path d="m11.4313831 30.9850407 12.9738407-1.8233547c1.7085571-.2401218 3.092598 1.0617886 3.0891724 2.9059181l-.0237885 12.8074684c-.0034256 1.8441315-1.3930206 3.5327759-3.1015778 3.7728996l-12.9738407 1.8233528c-1.7114916.2405357-3.0926027-1.058712-3.0891771-2.9028435l.0237885-12.8074684c.0034256-1.8441314 1.3900909-3.5354385 3.1015825-3.7759723z" fill="#92b62b"/></g><g><path d="m10.9905529 49.0780334c-.325984 0-.6151686-.1173401-.8366575-.3391762-.2756453-.2759895-.4270077-.6906738-.4259663-1.1678467l.0239544-12.8074493c.0020828-1.1421585.8619995-2.2275543 1.8774443-2.3704109l12.9737396-1.8234615c.0694313-.0097218.1381683-.0145817.2051716-.0145817.3249416 0 .6144733.1175137.8366566.3402176.2766876.2770348.4283962.692585.427702 1.1699295l-.0239544 12.8072777c-.0020828 1.1404228-.8619995 2.2246056-1.8774433 2.3672867l-12.9737397 1.8234634c-.0701266.0097199-.1395588.0147514-.2069073.0147514z" fill="#89a523"/></g><g><path d="m26.0710354 32.0662956-.0212631 12.8048477c-.0035591 1.1411171-.8638229 2.2253838-1.8770103 2.367569l-12.9754753 1.8236771c-.0710812.0106773-.1386909.0142136-.206213.0142136-.3270254 0-.614995-.1172981-.8389139-.3376999-.273736-.2772942-.4266605-.6896591-.4230156-1.1695862l.0034723-2.072506c1.5606603 1.1375618 3.4767265 1.8058891 5.5528335 1.8058891 5.218605 0 9.4454594-4.2303467 9.4454594-9.4489746 0-2.7159691-1.1446762-5.1617584-2.9790726-6.8823509l2.8510571-.4017086c.0710812-.0106525.1386909-.0142117.206213-.0142117.3234673 0 .614994.1173191.8353558.34128.277294.2772732.4302176.6896572.4265727 1.1695614z" fill="#7b9319"/></g><g><path d="m4.2972093 21.9587383 8.015852 4.3632011c.2490883-.5732479.1123066-1.1236076-.813571-1.4969997l-.9234467-4.8067417-6.2684188-3.4120903z" fill="#f9d12b"/></g><g><path d="m4.3076243 16.6061077 6.2684188 3.4120903-.4212799-2.1935139c.0020828-1.0518742.454607-2.0517397 1.1598635-2.7628117l-6.9965878-3.8084173z" fill="#eabe03"/></g><g><path d="m4.2936511 23.8022919c-.0035586 1.1873531.5688224 2.1471653 1.4326448 2.6164188l4.0526662 2.2040577c.7392788-.4021645 2.1343431-1.3810043 2.5340986-2.3008289l-8.015852-4.3632011z" fill="#eabe03"/></g><g><path d="m18.058569 13.3744984-11.1095734-6.0472555c-1.4866285.4543028-2.6272244 1.9942856-2.6304359 3.6666451l-.0005207.2595673 6.9965878 3.8084173c.5318499-.5361681 1.207078-.9086065 1.9435787-1.012516z" fill="#f9d12b"/></g><g><path d="m26.2302094 12.2256784c1.8836918 1.4328403.4947033-3.2866125-.1341782-4.3423495l-4.0491085-2.2040358c-.479948-.2595243-1.045126-.3697262-1.6530037-.2844114l-5.6835403.7987947 11.171627 6.0809522z" fill="#f9d12b"/></g><g><path d="m25.8820057 12.2746286-11.171627-6.0809522-7.291935 1.0248833c-.1600414.0226307-.3159161.0617729-.4694481.1086832l11.1095734 6.0472555z" fill="#eabe03"/></g><g><path d="m11.4705257 9.4220495 12.9738407-1.8233542c1.7085571-.2401218 3.092598 1.061789 3.0891724 2.9059196l-.0237885 12.8074675c-.0034256 1.8441296-1.3930206 3.5327759-3.1015778 3.7728977l-12.9738407 1.8233547c-1.7114916.2405357-3.0926027-1.0587139-3.0891781-2.9028454l.0237894-12.8074656c.0034248-1.8441315 1.3900911-3.5354395 3.1015826-3.7759743z" fill="#ffe03c"/></g><g><path d="m11.0294342 27.5150223c-.325983 0-.6151686-.1171665-.8366566-.3390026-.2752981-.2759933-.4266605-.6906757-.4256191-1.1678486l.0236073-12.807622c.0020828-1.1419849.8619995-2.2275562 1.8777914-2.3704128l12.9737387-1.823287c.0694313-.0097208.1385174-.0147543.2051716-.0147543.3249435 0 .6144753.1176872.8366566.3403902.2763405.2770348.4283962.6924124.4273548 1.1695843l-.0236053 12.8074493c-.0020847 1.1404228-.8620014 2.2246056-1.8774452 2.3674622l-12.974086 1.823286c-.0701265.0097218-.1395588.0147553-.2069082.0147553z" fill="#f9d12b"/></g><g><path d="m26.110178 10.5021343-.0213509 12.808382c-.0035591 1.1411381-.8638229 2.2253857-1.8770103 2.3675919l-12.9754744 1.8236561c-.0710812.0071163-.1386042.0142345-.2061272.0142345-.3271112 0-.614995-.1173191-.8389997-.3412819-.273736-.273735-.4265738-.6896553-.4230156-1.1660023l.0035582-1.6743774c1.5250769 1.0629177 3.3771791 1.6814709 5.375001 1.6814709 5.2186928 0 9.4454594-4.2303467 9.4454594-9.4489727 0-2.8297281-1.2442245-5.3715076-3.2172241-7.1027546l3.2670422-.4585772c.0710812-.0071163.1386032-.0142117.2061253-.0142117.323555 0 .614996.1172972.8354416.341259.2772959.2772943.4301317.6932145.4265745 1.1695834z" fill="#eabe03"/></g><g><path d="m22.3339386 16.6402588c-.1174278-.0638542-.2522984-.0860519-.4036617-.0647659l-3.2718143.4598141.4263992.2319469 3.2718163-.4598141c.1513615-.021265.2863197.0009098.4036598.0647659z" fill="#d2cced"/></g><g><path d="m17.101881 18.9114933-.0065956 3.5286274c-.0004349.2318382.0717754.4184361.2187099.5621605.0430489.0428963.0898285.0780888.1402531.1055374l.4264011.2319469c-.0504265-.0274487-.0972061-.0626411-.1402531-.1055164-.1470222-.1437454-.2191448-.3303223-.2187119-.5621605l.0065956-3.5286484z" fill="#d2cced"/></g><g><path d="m13.4229336 19.3038712.4263124.2319469c-.0459118-.0249958-.0890465-.0564137-.1293173-.0942974-.1470222-.1356544-.2191448-.319561-.2187109-.548687.0004339-.2453136.0733376-.454977.2208815-.6347198.1477165-.1770725.3326664-.2839108.5574532-.3155022l3.2517662-.457016.0065956-3.5286484c.0004349-.2426004.0733376-.4549761.2208805-.6320276.145113-.1793957.3326683-.2839127.5573673-.3154821.1553535-.0218287.2958679.0002604.4197178.0675869l-.426487-.231946c-.123764-.0673494-.2642765-.0894375-.419632-.0675879-.224699.0315695-.4121647.1360865-.5573654.3154821-.147543.1770515-.2204475.3894053-.2208805.6320276l-.0065956 3.5286484-3.2516804.4569931c-.2247868.0315914-.4098234.1384315-.5575399.3155041-.1475439.1797428-.2204475.3894272-.2208815.6347179-.0004339.2291489.0716887.4130344.2187119.548687.0402699.0378857.0834046.0693036.1294041.0943204z" fill="#d2cced"/></g><g><g><path d="m18.3161488 13.0094423c.2123299-.0298405.397007.0223541.549015.159997.1521492.1349258.2267056.3265724.2262535.5691824l-.0065536 3.5286417 3.2718029-.4598217c.2121944-.0298214.3919888.0257607.5365486.1617527.1469936.1383476.2191162.3276348.2186604.5729427-.0004253.2291374-.0732784.4334126-.2208576.6104622-.1451454.1793995-.3252373.2828655-.5374317.3126869l-3.271801.4598217-.0065556 3.5286465c-.0004292.2318287-.0757275.4391441-.2284718.6250038-.152607.1858406-.3375854.2953835-.5499153.3252239-.2246609.0315742-.4119034-.0256577-.556448-.169735-.1469841-.143734-.2191124-.3303299-.2186813-.5621605l.0065536-3.5286465-3.2517471.4570045c-.2247963.0315933-.4094744-.020607-.5566034-.1589298-.1469994-.1356506-.2191315-.3195496-.2187061-.548687.0004559-.2453079.0733194-.4549713.2209044-.6347179.1477146-.1770706.3326883-.2839165.5574837-.3155098l3.251749-.4570045.0065536-3.5286417c.0004501-.24261.0733185-.4549751.2208996-.6320257.1451453-.1794042.3326873-.2839116.5573482-.3154859z" fill="#fff"/></g></g><g><g><path d="m42.0587807 13.3402624-6.3255386.888999c-.3772774.0530224-.7002182.238637-.9691162.5659113-.268898.3272753-.4037857.694499-.4045143 1.1062231-.0007286.4071732.1328468.7321892.4007263.9704628.0718155.0651131.1475601.1193008.2272377.162672l.616806.3354721c-.0798225-.0434074-.155571-.097559-.2275276-.1627083-.2677345-.2382717-.40131-.5632534-.4005814-.9704628.0007286-.4116879.1356125-.7789478.4045143-1.1062222.268898-.3272753.5918388-.5128536.9691124-.5659122l6.3255424-.8889627c.2667122-.037509.5026932-.002039.7077904.1095047l-.6166611-.3354731c-.2050972-.1115436-.4410743-.1469764-.7077903-.1095037z" fill="#d2cced"/></g><g><g><path d="m36.3499222 14.5647144 6.32547-.8889866c.3813858-.0536003.6997414.0418797.9548225.2955141.2550812.2536278.3845215.583724.3837547.9954395-.0007553.4071903-.1314774.7693214-.3876114 1.081233-.2561417.3164349-.5750122.4969406-.9563942.5505409l-6.32547.8889866c-.3772888.0530262-.6997452-.0373497-.9675827-.2801437-.2678413-.2382717-.4013824-.5632629-.4006271-.9704533.0007668-.4117155.1355896-.7789516.4044838-1.1062183.2688942-.3272752.5918656-.5128879.9691544-.5659122z" fill="#fff"/></g></g></g><g><g><path d="m22.5480328 40.5868187-9.7303915 1.3675079c-.2247868.0315895-.4098234.1384506-.5573664.3155022-.145113.1793976-.2204466.3894081-.2208805.6347198-.0004339.229126.0741186.4153786.2186241.5594711.043829.0436554.0910425.079174.1416416.1066856l.4263134.231945c-.0505123-.0275116-.0977259-.0630302-.141468-.1066856-.1445923-.1440697-.2191458-.3303223-.2187119-.5594482.0004339-.2453117.0756817-.4553223.2208815-.6347389.1476297-.1770515.3325796-.2838936.5573664-.3154831l9.7304783-1.3675308c.1557007-.0218925.296648.0018234.4205837.0692787l-.4263134-.231945c-.1241093-.0674591-.2649689-.0911751-.4207573-.0692787z" fill="#d2cced"/></g><g><path d="m22.5570583 35.7669487-9.7304773 1.3675079c-.2247868.0315933-.4097366.1357384-.5573664.3155022-.145113.1793976-.2204475.3894081-.2208815.6320076-.0004339.2318382.0741186.4180908.2187119.5621605.0436554.0427246.0906086.0778313.14112.1052551l.4263134.2319679c-.0503378-.0274239-.0973787-.0625305-.1411209-.1052551-.1445055-.1440697-.219058-.3303223-.2186241-.5621605.0004339-.2426224.0757675-.4526329.2208805-.6320267.1475439-.1797409.3325806-.2838898.5573664-.3154831l9.7303915-1.3675308c.1553535-.0218277.2959538.0002594.4197178.0675888l-.4264011-.2319679c-.1237622-.0673294-.2642766-.0894165-.4196302-.0675659z" fill="#d2cced"/></g><g><g><path d="m13.2440243 42.1862907 9.7304478-1.367527c.212328-.0298386.3970013.0250626.5490093.1600075.1521435.137619.229147.3262253.2286911.5715332-.0004253.2291298-.0781651.4367867-.2309074.6226501-.1526108.1885338-.3375835.2953758-.5499134.3252182l-9.7304468 1.367527c-.2247972.0315933-.4094715-.023304-.5564528-.1697311-.1445456-.1440811-.2191124-.3303337-.2186871-.5594635.0004559-.2453079.0757589-.4553185.2209053-.6347198.1475821-.1770516.3325567-.2839012.557354-.3154946z" fill="#fff"/></g></g><g><g><path d="m22.9803047 37.6783028-9.7304468 1.367527c-.2247982.0315933-.4094667-.0260048-.5564528-.1697388-.1445456-.1440735-.2191133-.3303261-.2186823-.5621567.0004501-.2426147.0757532-.4526253.2208996-.6320267.1475878-.1797447.3325567-.2838936.5573549-.3154869l9.7304459-1.367527c.2123299-.0298386.3970089.0223579.5490112.1599998.1521435.137619.229147.3262253.2286949.56884-.0004292.2318306-.0781689.4394875-.2309132.6253433-.152603.1858369-.3375834.2953836-.5499114.325226z" fill="#fff"/></g></g></g><g><g><g><path d="m39.3364067 38.0590057-.3742371-.2035217 2.6901474 2.5304337c.0400963.0376434.0834923.0689316.1293182.0939064l.3742371.2035217c-.0459976-.0249748-.0893936-.056263-.1294899-.0939064z" fill="#d2cced"/></g><g><path d="m42.5821877 32.0871506c-.1192513-.0649414-.2558594-.0865936-.3929863-.0673256-.1881638.0264473-.377018.1303139-.5219574.3053246l-2.7009087 3.2880669.3742371.2035255 2.700737-3.2880669c.1451149-.1750145.3337936-.2788582.5221291-.3053284.1369553-.019268.2735634.002388.3929863.0673256z" fill="#d2cced"/></g><g><path d="m38.299614 37.0866966-2.6925774-2.5329056c-.2860603-.2690926-.2850189-.7714539.0020828-1.121109.1449394-.1750374.333622-.2788811.5221291-.3053741.1369553-.0192223.2735634.0024109.3928108.0673294l-.3740654-.2035255c-.1192474-.0649185-.256031-.0865479-.3928108-.0673256-.1885109.0264931-.3771896.1303368-.5221291.3053703-.2872772.3496552-.2881432.8520203-.0020828 1.1211128l2.6925774 2.5329056-2.7035141 3.2855911c-.2871017.349659-.2881432.8520432-.0020828 1.1211357.0399246.0375557.0833168.068779.1291428.0937309l.3742409.2035027c-.045826-.024929-.089222-.0561523-.1291466-.0937119-.2860603-.2690926-.2851906-.7714767.0020828-1.1211319z" fill="#d2cced"/></g></g><g><g><path d="m36.1312981 33.1273117c.188324-.0264664.3762169.0244522.5191689.159008l2.690052 2.5304298 2.7008553-3.2880707c.1449547-.1750183.3337059-.2788734.5220299-.3053398.1884689-.0264854.3762207.0244522.5193138.158989.2860489.2690887.2851143.7714691-.0020828 1.1211243l-2.7008591 3.2909088 2.690052 2.5275917c.2860489.2690887.2851181.7714691-.0020828 1.1211281-.1449547.1764336-.3344269.2825165-.5211792.3087616-.1866112.026226-.3757858-.026638-.5201645-.1624107l-2.6900482-2.5304298-2.7008553 3.2880707c-.1448174.1764183-.3344269.2825203-.5184708.3083839-.1893234.0266075-.3784981-.0262604-.5228729-.1620331-.2860489-.2690926-.2851181-.7714691.002079-1.1211243l2.7034225-3.2855949-2.6926155-2.5329056c-.2860451-.2690926-.2851143-.7714729.0020828-1.1211281.1449547-.1750183.3337097-.2788696.5221749-.3053589z" fill="#fff"/></g></g></g></g><g opacity=".2"><g><g><path d="m38.0269623 9.5467129c-.2207031 0-.4130859-.1625977-.4443359-.3876953-.0351563-.2460938.1367188-.4736328.3828125-.5083008l.7832031-.1098633c.234375-.0366211.4726563.1362305.5078125.3833008.0351563.2460938-.1367188.4736328-.3828125.5083008l-.7832031.1098633c-.0214844.0029296-.0419922.0043945-.0634766.0043945z" fill="#fff"/></g></g><g><g><path d="m33.4625092 10.1883144c-.2207031 0-.4130859-.1625977-.4443359-.3876953-.0351563-.2460938.1367188-.4736328.3828125-.5083008l2.9550781-.4150391c.2382813-.0375977.4736328.1362305.5078125.3833008.0351563.2460938-.1367188.4736328-.3828125.5083008l-2.9550781.4150391c-.0214845.0029297-.0419923.0043945-.0634766.0043945z" fill="#fff"/></g></g></g><g opacity=".2"><g><g><path d="m16.2888355 33.7683029c-.2207031 0-.4130859-.1625977-.4443359-.3876953-.0351563-.2460938.1367188-.4736328.3828125-.5083008l.7832031-.1098633c.234375-.0366211.4726563.1362305.5078125.3833008.0351563.2460938-.1367188.4736328-.3828125.5083008l-.7832031.1098633c-.0214844.0029297-.0419922.0043945-.0634766.0043945z" fill="#fff"/></g></g><g><g><path d="m11.7243824 34.4099045c-.2207031 0-.4130859-.1625977-.4443359-.3876953-.0351563-.2460938.1367188-.4736328.3828125-.5083008l2.9550781-.4150391c.2382813-.0375977.4736328.1362305.5078125.3833008.0351563.2460938-.1367188.4736328-.3828125.5083008l-2.9550781.4150391c-.0214844.0029296-.0419922.0043945-.0634766.0043945z" fill="#fff"/></g></g></g><g opacity=".2"><g><g><path d="m11.5150127 19.7122669c-.0227594.1672955-.1658487.2963543-.3396978.2968311-.1901665.0012703-.3449192-.1524773-.3458195-.3425941l-.002511-.6050034c-.0035906-.1814346.1520052-.3442287.3429117-.3453999.1901665-.0012703.3449192.1524773.3458204.3425922l.002511.6050053c.0000048.0165864-.0009994.0322839-.0032148.0485688z" fill="#fff"/></g></g><g><g><path d="m11.530654 23.238327c-.0227594.1672935-.1658487.2963543-.3396978.2968292-.1901665.0012722-.3449192-.1524754-.3458195-.3425922l-.0098677-2.2827759c-.0039272-.1844959.1521063-.3449688.3429117-.3453979.1901674-.0012722.3449192.1524754.3458204.3425922l.0098677 2.2827759c.0000048.0165863-.0009995.0322819-.0032148.0485687z" fill="#fff"/></g></g></g><g opacity=".2"><g><g><path d="m32.8612061 37.9355202c-.0227585.1672974-.1658478.2963562-.339695.296833-.1901703.0012703-.3449211-.1524773-.3458214-.3425941l-.0025101-.6050034c-.0035896-.1814346.1520042-.3442307.3429108-.3454018.1901665-.0012703.3449173.1524773.3458214.3425941l.0025101.6050034c.0000038.0165902-.0009995.0322838-.0032158.0485688z" fill="#fff"/></g></g><g><g><path d="m32.8768463 41.4615822c-.0227585.1672935-.1658478.2963562-.339695.2968292-.1901665.0012703-.3449211-.1524773-.3458214-.3425941l-.0098686-2.2827721c-.0039253-.1844978.1521072-.3449707.3429146-.3454018.1901665-.0012703.3449173.1524773.3458176.3425941l.0098686 2.2827759c.0000076.0165864-.0009994.0322838-.0032158.0485688z" fill="#fff"/></g></g></g></g></svg>