<svg id="Capa_1" enable-background="new 0 0 512 512" height="512" viewBox="0 0 512 512" width="512" xmlns="http://www.w3.org/2000/svg" xmlns:xlink="http://www.w3.org/1999/xlink"><linearGradient id="SVGID_1_" gradientUnits="userSpaceOnUse" x1="74.98" x2="437.019" y1="437.019" y2="74.981"><stop offset="0" stop-color="#008547"/><stop offset="1" stop-color="#d3ff33"/></linearGradient><radialGradient id="SVGID_00000171684975729493182570000012004207244541195442_" cx="256" cy="256" gradientUnits="userSpaceOnUse" r="256"><stop offset="0" stop-color="#008547" stop-opacity=".7"/><stop offset="1" stop-color="#d3ff33" stop-opacity="0"/></radialGradient><linearGradient id="lg1"><stop offset="0" stop-color="#006342"/><stop offset=".2513" stop-color="#008547"/><stop offset=".3421" stop-color="#128f45"/><stop offset=".5244" stop-color="#41aa41"/><stop offset=".7788" stop-color="#8cd63a"/><stop offset="1" stop-color="#d3ff33"/></linearGradient><linearGradient id="SVGID_00000108307168308190405360000007213894100787642017_" gradientUnits="userSpaceOnUse" x1="-5.229" x2="1072.474" xlink:href="#lg1" y1="459.803" y2="-617.899"/><linearGradient id="SVGID_00000024705044327373198570000016945224400729341872_" gradientUnits="userSpaceOnUse" x1="-70.05" x2="985.722" xlink:href="#lg1" y1="699.479" y2="-356.293"/><linearGradient id="SVGID_00000052818863112278513500000016684825078041143472_" gradientUnits="userSpaceOnUse" x1="-47.263" x2="1020.065" xlink:href="#lg1" y1="599.236" y2="-468.092"/><linearGradient id="lg2"><stop offset="0" stop-color="#006946"/><stop offset=".2513" stop-color="#008547"/><stop offset=".3421" stop-color="#128f45"/><stop offset=".5244" stop-color="#41aa41"/><stop offset=".7788" stop-color="#8cd63a"/><stop offset="1" stop-color="#d3ff33"/></linearGradient><linearGradient id="SVGID_00000029751614833415774950000003216548015123743885_" gradientUnits="userSpaceOnUse" x1="206.887" x2="872.574" xlink:href="#lg2" y1="252.4" y2="-413.288"/><linearGradient id="SVGID_00000036930292887764635600000002484263145692099485_" gradientUnits="userSpaceOnUse" x1="193.785" x2="807.206" xlink:href="#lg2" y1="356.498" y2="-256.923"/><linearGradient id="lg3"><stop offset="0" stop-color="#95e12e"/><stop offset=".2458" stop-color="#d3ff33"/><stop offset="1" stop-color="#fff"/></linearGradient><linearGradient id="SVGID_00000125569437704712115010000004529246522483915916_" gradientUnits="userSpaceOnUse" x1="-119.187" x2="515.191" xlink:href="#lg3" y1="651.029" y2="16.651"/><linearGradient id="SVGID_00000136370733116653308030000011090037215682903683_" gradientUnits="userSpaceOnUse" x1="-65.926" x2="404.325" xlink:href="#lg3" y1="597.768" y2="127.518"/><linearGradient id="lg4"><stop offset="0" stop-color="#00aa45"/><stop offset=".6944" stop-color="#d3ff33"/><stop offset="1" stop-color="#f9fcca"/></linearGradient><linearGradient id="SVGID_00000003105185356993213950000011892731094994874777_" gradientUnits="userSpaceOnUse" x1="14.85" x2="370.722" xlink:href="#lg4" y1="409.089" y2="53.217"/><linearGradient id="SVGID_00000016766295210060107030000013499720902910136975_" gradientUnits="userSpaceOnUse" x1="-91.344" x2="619.801" xlink:href="#lg4" y1="578.36" y2="-132.785"/><linearGradient id="SVGID_00000108270421640368625040000005469304902879885498_" gradientUnits="userSpaceOnUse" x1="-20.142" x2="416.862" xlink:href="#lg4" y1="544.567" y2="107.564"/><linearGradient id="SVGID_00000138537580953981950620000005684701240554958997_" gradientUnits="userSpaceOnUse" x1="-57.784" x2="295.865" xlink:href="#lg4" y1="448.714" y2="95.065"/><linearGradient id="SVGID_00000160169781494174108900000001140469212129127298_" gradientUnits="userSpaceOnUse" x1="-261.342" x2="418.081" xlink:href="#lg4" y1="715.701" y2="36.278"/><g><path d="m512 256c0 141.385-114.615 256-256 256s-256-114.615-256-256 114.615-256 256-256 256 114.615 256 256z" fill="url(#SVGID_1_)"/><path d="m512 256c0 141.385-114.615 256-256 256s-256-114.615-256-256 114.615-256 256-256 256 114.615 256 256z" fill="url(#SVGID_00000171684975729493182570000012004207244541195442_)"/><path d="m182.304 112c-8.276.147-15.179 7.139-15.39 15.578-1.796 74.398-2.117 148.796-.964 223.193.135 8.439 7.07 15.383 15.46 15.485 24.276.283 48.552.413 72.828.388.107-85.073.082-170.145-.076-255.218-23.952-.034-47.905.157-71.858.574z" fill="url(#SVGID_00000108307168308190405360000007213894100787642017_)"/><path d="m401.304 114.499c-10-.402-20-.766-30-1.089 3.435 83.963 3.988 167.927 1.658 251.891 10.135-.219 20.27-.466 30.405-.739 8.39-.231 15.461-7.153 15.735-15.43 2.383-73 1.719-146-1.992-219-.429-8.277-7.53-15.294-15.806-15.633z" fill="url(#SVGID_00000024705044327373198570000016945224400729341872_)"/><path d="m388.602 349.83c.201-7.561.376-15.122.524-22.684-19.837-28.927-40.317-58.348-60.927-87.983 20.365-29.503 40.412-58.741 59.626-87.435-.26-7.561-.547-15.121-.86-22.682-.352-8.345-7.386-15.362-15.661-15.637-39.047-1.263-78.094-1.924-117.142-1.982-8.276-.013-15.014 6.891-15.045 15.381-.221 79.944-.248 159.888-.081 239.832 44.642.073 89.284-.373 133.926-1.34 8.39-.186 15.414-7.124 15.64-15.47z" fill="url(#SVGID_00000052818863112278513500000016684825078041143472_)"/><path d="m204.407 142.373c-4.178.039-7.613 3.509-7.668 7.745-.748 59.315-.909 118.63-.483 177.945.031 4.235 3.482 7.691 7.703 7.715 11.674.063 23.348.101 35.022.114 15.243-32.267 30.745-64.601 46.049-96.83-15.426-32.274-30.896-64.625-45.953-96.88-11.556.022-23.113.086-34.67.191z" fill="url(#SVGID_00000029751614833415774950000003216548015123743885_)"/><path d="m299.78 142.444c-20.234-.214-40.469-.302-60.703-.262-.158 64.57-.19 129.14-.096 193.71 47.447.054 94.895-.298 142.342-1.059 4.22-.07 7.72-3.514 7.802-7.687.623-31.761.779-63.522.47-95.283-29.972-29.454-60.16-59.455-89.815-89.419z" fill="url(#SVGID_00000036930292887764635600000002484263145692099485_)"/><path d="m389.596 231.863c-.113-11.589-.288-23.178-.525-34.767-18.212-17.924-36.431-36.021-54.491-54.158-11.6-.207-23.2-.371-34.799-.494-6.734-.073-10.032 8.171-5.202 13.044 4.512 4.549 9.034 9.098 13.565 13.646 3.01 3.022 3.071 7.87.124 10.838-10.518 10.59-21.119 21.238-31.767 31.917-2.985 2.994-2.974 7.859.03 10.865 10.879 10.885 21.778 21.766 32.66 32.614 3.005 2.994 7.872 2.998 10.871.01 10.697-10.655 21.362-21.268 31.96-31.81 2.97-2.954 7.826-2.915 10.853.079 4.556 4.505 9.109 9 13.658 13.484 4.87 4.799 13.128 1.461 13.063-5.268z" fill="url(#SVGID_00000125569437704712115010000004529246522483915916_)"/><path d="m389.071 197.096c-.309-15.105-.723-30.21-1.243-45.316-.146-4.203-3.683-7.708-7.889-7.824-15.12-.41-30.239-.75-45.359-1.018.641 29.59 24.856 53.716 54.491 54.158z" fill="url(#SVGID_00000136370733116653308030000011090037215682903683_)"/><path d="m114.937 265.189c-12.126-.004-24.252-.01-36.378-.016-1.326 2.242-2.054 4.82-2.044 7.499.096 27.599.628 55.199 1.596 82.798.188 5.357 3.28 10.395 8.081 13.22 10.346 6.084 20.668 12.19 30.957 18.305-1.455-40.601-2.192-81.203-2.212-121.806z" fill="url(#SVGID_00000003105185356993213950000011892731094994874777_)"/><path d="m109.364 282.657c-1.314 2.256-2.028 4.85-2.006 7.552.229 27.824.815 55.648 1.76 83.473.184 5.4 3.257 10.476 8.031 13.315 14.304 8.499 28.544 17.013 42.691 25.504 2.333 1.399 4.906 2.135 7.464 2.208 17.084-43.56 35.478-87.592 54.142-131.752-37.36-.034-74.721-.133-112.082-.3z" fill="url(#SVGID_00000016766295210060107030000013499720902910136975_)"/><path d="m252.184 265.217c-28.97-.001-57.939-.005-86.909-.012.015 49.834.692 99.668 2.03 149.502 2.622.072 5.229-.552 7.546-1.892 23.581-13.621 47.538-27.594 71.732-41.731 4.696-2.745 7.603-7.823 7.61-13.318.032-28.287.049-56.575.051-84.863 0-2.745-.733-5.386-2.06-7.686z" fill="url(#SVGID_00000108270421640368625040000005469304902879885498_)"/><path d="m173.226 217.368c-4.725-2.707-10.56-2.664-15.34.098-24.568 14.219-49.179 28.35-73.696 42.207-2.38 1.347-4.309 3.259-5.629 5.499 10.254 5.782 20.525 11.614 30.805 17.483 31.394-15.624 62.964-31.643 94.478-47.704-10.225-5.886-20.434-11.752-30.618-17.583z" fill="url(#SVGID_00000138537580953981950620000005684701240554958997_)"/><path d="m246.556 259.59c-.011-.017-42.732-24.665-42.712-24.639-4.745-2.734-10.599-2.714-15.362.038-24.528 14.172-49.08 28.284-73.517 42.146-2.372 1.344-4.29 3.267-5.599 5.52 18.74 10.701 37.506 21.524 56.237 32.385 28.704-16.406 57.641-33.118 86.579-49.825-1.327-2.296-3.248-4.253-5.626-5.625z" fill="url(#SVGID_00000160169781494174108900000001140469212129127298_)"/></g></svg>