<svg id="Capa_1" enable-background="new 0 0 512 512" height="512" viewBox="0 0 512 512" width="512" xmlns="http://www.w3.org/2000/svg"><g><g><g><path d="m506.868 161.193h-26.138c-2.315 0-4.321-1.556-4.949-3.784-1.925-6.829-4.632-13.327-8.027-19.391-1.132-2.021-.815-4.541.823-6.178l18.479-18.479c2.004-2.004 2.004-5.254 0-7.258l-21.924-21.923c-2.004-2.004-5.254-2.004-7.258 0l-18.479 18.479c-1.638 1.638-4.157 1.955-6.178.823-6.064-3.396-12.562-6.103-19.391-8.027-2.228-.628-3.783-2.634-3.783-4.949v-26.138c0-2.834-2.298-5.132-5.132-5.132h-31.004c-2.834 0-5.132 2.298-5.132 5.132v26.138c0 2.315-1.556 4.321-3.784 4.949-6.829 1.925-13.327 4.632-19.391 8.027-.992.555-2.103.757-3.172.63v94.568h42.938c1.88 0 3.566.97 4.513 2.594.945 1.625.956 3.57.028 5.204l-32.171 56.704h19.308c2.879 0 5.222 2.342 5.222 5.222v19.909c0 2.879-2.343 5.222-5.222 5.222h-8.269v.157l8.596 10.729h27.54c2.834 0 5.132-2.298 5.132-5.132v-26.138c0-2.315 1.556-4.321 3.783-4.949 6.829-1.925 13.327-4.632 19.391-8.027 2.021-1.132 4.541-.815 6.178.823l18.479 18.479c2.004 2.004 5.254 2.004 7.258 0l21.923-21.923c2.004-2.004 2.004-5.254 0-7.258l-18.479-18.479c-1.638-1.638-1.955-4.158-.823-6.178 3.396-6.064 6.103-12.562 8.027-19.391.628-2.228 2.634-3.784 4.949-3.784h26.138c2.834 0 5.132-2.298 5.132-5.132v-31.004c.001-2.838-2.297-5.135-5.131-5.135z" fill="#cbc4cc"/><path d="m342.428 198.68h42.938c1.88 0 3.566.97 4.513 2.594.945 1.625.956 3.57.028 5.204l-16.364 28.843c5.031 1.49 10.353 2.302 15.866 2.302 30.815 0 55.796-24.981 55.796-55.796s-24.981-55.796-55.796-55.796c-19.733 0-37.061 10.253-46.981 25.713z" fill="#7a6d79"/><g fill="#685e68"><path d="m342.428 198.68h37.397c-1.683-5.318-2.596-10.978-2.596-16.853 0-23.076 14.01-42.879 33.988-51.37-6.7-2.848-14.069-4.425-21.808-4.425-19.733 0-37.061 10.253-46.981 25.714z"/><path d="m389.408 237.623c7.739 0 15.109-1.578 21.808-4.425-10.145-4.312-18.746-11.546-24.76-20.64l-12.915 22.763c5.032 1.489 10.354 2.302 15.867 2.302z"/></g><g><path d="m342.428 170.669c5.051-21.266 24.191-37.138 46.98-37.138 26.631 0 48.296 21.666 48.296 48.296s-21.665 48.296-48.296 48.296c-4.16 0-8.199-.529-12.053-1.523l-7.594 13.385c6.189 2.027 12.79 3.137 19.648 3.137 34.901 0 63.296-28.395 63.296-63.296s-28.395-63.296-63.296-63.296c-18.622 0-35.388 8.087-46.98 20.929v31.21z" fill="#b5adb6"/></g><path d="m385.365 198.68c1.88 0 3.566.97 4.513 2.594.945 1.625.956 3.57.028 5.204l-1.761 3.103c.419.019.839.032 1.263.032 15.346 0 27.786-12.44 27.786-27.786s-12.44-27.786-27.786-27.786-27.786 12.44-27.786 27.786c0 6.338 2.127 12.178 5.699 16.853z" fill="#fff"/><path d="m385.365 198.68c1.88 0 3.566.97 4.513 2.594.945 1.625.956 3.57.028 5.204l-1.761 3.103c.419.019.839.032 1.263.032 4.746 0 9.212-1.192 13.12-3.29-8.729-4.685-14.666-13.896-14.666-24.496s5.937-19.811 14.666-24.496c-3.908-2.098-8.374-3.29-13.12-3.29-15.346 0-27.786 12.44-27.786 27.786 0 6.338 2.126 12.178 5.699 16.853z" fill="#f3f0f3"/></g><path d="m225.646 445.156c-7.819-10.889-7.451-25.819.896-36.31l91.772-115.313h-7.673c-2.879 0-5.221-2.342-5.221-5.222v-19.909c0-2.879 2.342-5.221 5.221-5.221h18.579l-31.566-56.742c-.909-1.634-.886-3.573.062-5.186.947-1.612 2.63-2.574 4.5-2.574h41.21v-178.761c0-2.845-2.306-5.151-5.151-5.151h-333.124c-2.845 0-5.151 2.306-5.151 5.151v451.39c0 2.845 2.306 5.151 5.151 5.151h242.973z" fill="#eaf6ff"/><g><path d="m163.572 268.043v-51.19c0-4.142-3.357-7.5-7.5-7.5s-7.5 3.358-7.5 7.5v51.19z" fill="#47a920"/><g fill="#fe7701"><path d="m73.946 268.043v-26.466c0-4.142-3.357-7.5-7.5-7.5s-7.5 3.358-7.5 7.5v26.466z"/><path d="m103.822 268.043v-26.466c0-4.142-3.357-7.5-7.5-7.5s-7.5 3.358-7.5 7.5v26.466z"/><path d="m133.697 268.043v-26.466c0-4.142-3.357-7.5-7.5-7.5s-7.5 3.358-7.5 7.5v26.466z"/></g><path d="m283.073 268.043v-34.708c0-4.142-3.357-7.5-7.5-7.5s-7.5 3.358-7.5 7.5v34.708z" fill="#47a920"/><path d="m223.323 268.043v-42.949c0-4.142-3.357-7.5-7.5-7.5s-7.5 3.358-7.5 7.5v42.949z" fill="#47a920"/><path d="m253.198 268.043v-18.225c0-4.142-3.357-7.5-7.5-7.5s-7.5 3.358-7.5 7.5v18.225z" fill="#fe646f"/><path d="m193.447 268.043v-26.466c0-4.142-3.357-7.5-7.5-7.5s-7.5 3.358-7.5 7.5v26.466z" fill="#fe7701"/></g><g><path d="m43.405 471.308v-451.39c0-2.845 2.306-5.151 5.151-5.151h-43.405c-2.845 0-5.151 2.306-5.151 5.151v451.39c0 2.845 2.306 5.151 5.151 5.151h43.405c-2.845 0-5.151-2.306-5.151-5.151z" fill="#d8ecfe"/></g><g><g><path d="m297.389 100.658h-90.834c-4.143 0-7.5-3.358-7.5-7.5s3.357-7.5 7.5-7.5h90.834c4.143 0 7.5 3.358 7.5 7.5s-3.358 7.5-7.5 7.5z" fill="#60b7ff"/></g><g><path d="m297.389 135.499h-90.834c-4.143 0-7.5-3.358-7.5-7.5s3.357-7.5 7.5-7.5h90.834c4.143 0 7.5 3.358 7.5 7.5s-3.358 7.5-7.5 7.5z" fill="#60b7ff"/></g><g><path d="m297.389 170.339h-90.834c-4.143 0-7.5-3.358-7.5-7.5s3.357-7.5 7.5-7.5h90.834c4.143 0 7.5 3.358 7.5 7.5s-3.358 7.5-7.5 7.5z" fill="#60b7ff"/></g></g></g><g><g><g><path d="m48.898 97.459v61.903l59.768 30.951 59.769-30.951v-61.903l-59.769-30.952z" fill="#fd4755"/></g><g><path d="m48.898 97.459v61.903l59.768 30.951v-123.806z" fill="#fe646f"/></g><g><path d="m48.898 97.459 59.768 30.951 59.769-30.951-59.769-30.952z" fill="#fb2b3a"/></g></g></g><g fill="#0593fc"><path d="m303.804 311.767c-1.373-1.523-3.354-2.486-5.567-2.486h-158.647c-4.143 0-7.5 3.358-7.5 7.5s3.357 7.5 7.5 7.5h154.255z"/><path d="m277.907 344.307h-138.317c-4.143 0-7.5 3.358-7.5 7.5s3.357 7.5 7.5 7.5h126.38z"/><path d="m250.031 379.333h-110.441c-4.143 0-7.5 3.358-7.5 7.5s3.357 7.5 7.5 7.5h98.504z"/><path d="m223.092 414.359h-83.502c-4.143 0-7.5 3.358-7.5 7.5s3.357 7.5 7.5 7.5h80.488c-.297-5.127.724-10.303 3.014-15z"/></g><path d="m305.422 268.403c0-.473.084-.923.202-1.359h-260.829c-4.143 0-7.5 3.358-7.5 7.5s3.357 7.5 7.5 7.5h260.627z" fill="#60b7ff"/><g fill="#fac600"><path d="m328.077 263.181h30.808l31.891-56.21c2.353-4.148-.643-9.292-5.411-9.292h-83.147c-4.745 0-7.744 5.099-5.437 9.246z"/><path d="m461.814 408.21-91.884-114.677h-52.893l-91.276 114.691c-8.667 10.89-9.045 26.211-.927 37.516l35.115 48.9c1.169 1.628 3.05 2.593 5.054 2.593h157.681c2.004 0 3.885-.965 5.054-2.593l35.068-48.835c8.139-11.335 7.734-26.704-.992-37.595z"/></g><g fill="#e8b800"><path d="m294.895 494.64-35.115-48.9c-8.118-11.305-7.739-26.626.927-37.516l91.276-114.691h-34.946l-91.276 114.691c-8.667 10.89-9.045 26.211-.927 37.516l35.115 48.9c1.169 1.628 3.05 2.593 5.053 2.593h34.946c-2.003 0-3.884-.965-5.053-2.593z"/><path d="m328.077 263.181h30.808l2.089-3.683-29.247-52.573c-2.307-4.147.691-9.246 5.437-9.246h-34.946c-4.745 0-7.744 5.099-5.437 9.246z"/></g><g><path d="m377.043 294.533h-66.4c-3.436 0-6.222-2.785-6.222-6.222v-19.909c0-3.436 2.785-6.222 6.222-6.222h66.4c3.436 0 6.221 2.785 6.221 6.222v19.909c0 3.436-2.785 6.222-6.221 6.222z" fill="#4fc123"/></g><g><path d="m339.445 288.311v-19.909c0-3.436 2.785-6.221 6.222-6.221h-35.023c-3.436 0-6.222 2.785-6.222 6.221v19.909c0 3.436 2.785 6.222 6.222 6.222h35.023c-3.437 0-6.222-2.786-6.222-6.222z" fill="#47a920"/></g><path d="m359.777 386.455h-31.838c-5.381 0-9.758-4.377-9.759-9.757v-.527c0-2.606 1.015-5.057 2.857-6.9 1.844-1.843 4.295-2.858 6.901-2.858h38.278c4.143 0 7.5-3.358 7.5-7.5s-3.357-7.5-7.5-7.5h-14.875v-5.652c0-4.142-3.357-7.5-7.5-7.5s-7.5 3.358-7.5 7.5v5.652h-8.403c-6.613 0-12.831 2.576-17.508 7.252-4.677 4.677-7.252 10.895-7.251 17.508v.527c.001 13.65 11.108 24.756 24.759 24.756h31.838c5.364 0 9.728 4.364 9.728 9.728s-4.363 9.728-9.728 9.728h-38.604c-4.143 0-7.5 3.358-7.5 7.5s3.357 7.5 7.5 7.5h15.17v5.652c0 4.142 3.357 7.5 7.5 7.5s7.5-3.358 7.5-7.5v-5.652h8.435c13.635 0 24.728-11.093 24.728-24.728 0-13.636-11.093-24.729-24.728-24.729z" fill="#47a920"/><g><path d="m111.757 324.281h-66.962c-4.143 0-7.5-3.358-7.5-7.5s3.357-7.5 7.5-7.5h66.962c4.143 0 7.5 3.358 7.5 7.5s-3.358 7.5-7.5 7.5z" fill="#60b7ff"/></g><g><path d="m111.757 359.307h-66.962c-4.143 0-7.5-3.358-7.5-7.5s3.357-7.5 7.5-7.5h66.962c4.143 0 7.5 3.358 7.5 7.5s-3.358 7.5-7.5 7.5z" fill="#60b7ff"/></g><g><path d="m111.757 394.333h-66.962c-4.143 0-7.5-3.358-7.5-7.5s3.357-7.5 7.5-7.5h66.962c4.143 0 7.5 3.358 7.5 7.5s-3.358 7.5-7.5 7.5z" fill="#60b7ff"/></g><g><path d="m111.757 429.359h-66.962c-4.143 0-7.5-3.358-7.5-7.5s3.357-7.5 7.5-7.5h66.962c4.143 0 7.5 3.358 7.5 7.5s-3.358 7.5-7.5 7.5z" fill="#60b7ff"/></g></g></svg>