<svg id="Layer_1" enable-background="new 0 0 100 100" viewBox="0 0 100 100" xmlns="http://www.w3.org/2000/svg"><g><g><path d="m50.1578 53.69002c-.55273 0-1-.44727-1-1v-12.18262c0-.55273.44727-1 1-1s1 .44727 1 1v12.18262c0 .55274-.44726 1-1 1z" fill="#474646"/></g><g><path d="m79.8941 8.42406v33.69977c0 1.96037-1.59513 3.55555-3.55555 3.55555h-52.35724c-1.96042 0-3.5556-1.59518-3.5556-3.55555v-25.61215c0-.93176.36524-1.82625 1.0212-2.48963l8.43799-8.17712c.65596-.62611 1.53553-.97648 2.4449-.97648h44.00874c1.96043.00001 3.55556 1.59519 3.55556 3.55561z" fill="#e4e3ff"/></g><g><path d="m32.64291 4.86846v9.78717c0 1.13303-.91688 2.04986-2.04245 2.04986h-10.17475v-.19381c0-.93176.36524-1.82625 1.0212-2.48963l8.43799-8.17712c.65596-.62611 1.53553-.97648 2.4449-.97648h.31311z" fill="#474646"/></g><g><path d="m32.63966 4.86846v9.79118c0 1.12726-.91301 2.04954-2.04022 2.04954h-10.17316v-.19566c0-.93161.36334-1.82591 1.0248-2.48737l.22358-.21425h5.98089c1.12726 0 2.04954-.92234 2.04954-2.04954v-5.74799l.17701-.16774c.66146-.62416 1.53717-.97817 2.45012-.97817z" fill="#2d2c2c"/></g><g><path d="m79.89064 8.41787v33.70546c0 1.95731-1.60143 3.55874-3.55874 3.55874h-52.34689c-1.95731 0-3.55874-1.60143-3.55874-3.55874v-3.47487h36.36085c8.50985 0 15.40845-6.8986 15.40845-15.40845v-18.37155h4.14565c1.96029 0 3.54942 1.58913 3.54942 3.54941z" fill="#d0d0f7"/></g><g><path d="m67.62972 12.10336v6.55177c0 .81831-.66337 1.48169-1.48168 1.48169h-22.60591c-.81831 0-1.48169-.66337-1.48169-1.48169v-6.55177c0-.81831.66337-1.48168 1.48169-1.48168h22.60591c.81831-.00001 1.48168.66336 1.48168 1.48168z" fill="#f9b938"/></g><g><path d="m67.63074 12.10705v6.54915c0 .81809-.66319 1.48128-1.48128 1.48128h-22.61001c-.81809 0-1.48128-.66319-1.48128-1.48128v-1.36943h18.56657c1.99648 0 3.61494-1.61846 3.61494-3.61494v-3.04606h1.90978c.81809 0 1.48128.66319 1.48128 1.48128z" fill="#ecb021"/></g><g><path d="m62.64413 59.35506c-.55276 0-1-.44727-1-1v-1.28223c0-1.86523-1.51758-3.38281-3.38281-3.38281h-16.20313c-1.86523 0-3.38281 1.51758-3.38281 3.38281v1.28223c0 .55273-.44727 1-1 1s-1-.44727-1-1v-1.28223c0-2.96777 2.41504-5.38281 5.38281-5.38281h16.20313c2.96777 0 5.38281 2.41504 5.38281 5.38281v1.28223c0 .55273-.44726 1-1 1z" fill="#474646"/></g><g><path d="m53.96151 15.37752h-4.06641c-.55273 0-1-.44727-1-1s.44727-1 1-1h4.06641c.55273 0 1 .44727 1 1s-.44726 1-1 1z" fill="#fff"/></g><g><path d="m46.68808 15.37752h-.49219c-.55273 0-1-.44727-1-1s.44727-1 1-1h.49219c.55273 0 1 .44727 1 1s-.44727 1-1 1z" fill="#fff"/></g><g><path d="m73.09726 28.25154h-7.34961c-.55273 0-1-.44727-1-1s.44727-1 1-1h7.34961c.55273 0 1 .44727 1 1s-.44727 1-1 1z" fill="#5bc658"/></g><g><path d="m39.77011 28.25154h-11.41992c-.55273 0-1-.44727-1-1s.44727-1 1-1h11.41992c.55273 0 1 .44727 1 1s-.44727 1-1 1z" fill="#fc6559"/></g><g><path d="m73.09726 34.00838h-44.74707c-.55273 0-1-.44727-1-1s.44727-1 1-1h44.74707c.55273 0 1 .44727 1 1s-.44727 1-1 1z" fill="#474646"/></g><g><path d="m60.85116 39.76424h-32.50097c-.55273 0-1-.44727-1-1s.44727-1 1-1h32.50098c.55273 0 1 .44727 1 1s-.44727 1-1.00001 1z" fill="#474646"/></g><g><path d="m46.35486 73.4854c0 5.27366-1.89759 10.10598-5.00875 13.85712-3.97187 4.76606-9.92942 7.78901-16.6153 7.78901-6.70783 0-12.66551-3.02295-16.63725-7.78901-3.13325-3.75114-5.00889-8.58347-5.00889-13.85712 0-11.9594 9.66465-21.64614 21.64614-21.64614 11.9594.00001 21.62405 9.68674 21.62405 21.64614z" fill="#e4e3ff"/></g><g><path d="m46.35593 73.48811c0 5.26996-1.90002 10.09998-5.01001 13.84998-3.96997 4.77002-9.92999 7.79004-16.62 7.79004-6.70001 0-12.65997-3.02002-16.63-7.79004-.16998-.20996-.33997-.40997-.5-.63 3.65002 2.79999 8.19 4.45001 13.16003 4.45001 6.68994 0 12.64996-3.02002 16.62-7.78998 3.10999-3.75 5.00995-8.58002 5.00995-13.86005 0-4.96997-1.66998-9.53998-4.47998-13.18995 5.14001 3.94996 8.45001 10.16999 8.45001 17.16999z" fill="#d0d0f7"/></g><g><path d="m33.2593 71.0095c0 2.08155-.74899 3.9889-1.97699 5.46951-1.56773 1.8812-3.91921 3.07438-6.55818 3.07438-2.64763 0-4.99917-1.19318-6.56684-3.07438-1.23672-1.48061-1.97704-3.38795-1.97704-5.46951 0-4.72047 3.81471-8.54389 8.54389-8.54389 4.72045 0 8.53516 3.82342 8.53516 8.54389z" fill="#fc6559"/></g><g><path d="m33.25595 71.00807c0 2.08002-.75 3.99005-1.97003 5.47003-1.57001 1.88-3.91998 3.08002-6.56 3.08002-2.65002 0-5-1.20001-6.57001-3.08002-.33002-.40002-.63-.82001-.88-1.28003 1.23004.69 2.66003 1.09003 4.17999 1.09003 2.64001 0 4.98999-1.20001 6.56-3.08002 1.23004-1.47998 1.97003-3.38995 1.97003-5.46997 0-1.52002-.40002-2.96002-1.10004-4.19001 2.61005 1.45997 4.37006 4.25001 4.37006 7.45997z" fill="#f05543"/></g><g><path d="m41.34611 87.34253c-3.97187 4.76606-9.92942 7.78901-16.6153 7.78901-6.70783 0-12.66551-3.02295-16.63725-7.78901 3.97174-4.7662 9.92942-7.78915 16.63725-7.78915 6.68588 0 12.64342 3.02295 16.6153 7.78915z" fill="#fc6559"/></g><g><path d="m41.34592 87.33809c-3.96997 4.77002-9.92999 7.79004-16.62 7.79004-6.70001 0-12.65997-3.02002-16.63-7.79004.04999-.04999.09003-.10999.14001-.15997 3.52997 2.51001 7.83002 3.97998 12.52002 3.97998 6.60999 0 12.5-2.95001 16.46997-7.62 1.53003 1.08002 2.91999 2.35999 4.12 3.79999z" fill="#f05543"/></g><g><path d="m96.91425 73.4854c0 5.27366-1.89759 10.10598-5.00875 13.85712-3.97188 4.76606-9.92942 7.78901-16.6153 7.78901-6.70783 0-12.66551-3.02295-16.63725-7.78901-3.13325-3.75114-5.00888-8.58347-5.00888-13.85712 0-11.9594 9.66465-21.64614 21.64614-21.64614 11.95939.00001 21.62404 9.68674 21.62404 21.64614z" fill="#e4e3ff"/></g><g><path d="m96.91533 73.48811c0 5.26996-1.90002 10.09998-5.01001 13.84998-3.96997 4.77002-9.92999 7.79004-16.62 7.79004-6.70001 0-12.65998-3.02002-16.63001-7.79004-.16998-.20996-.33997-.40997-.5-.63 3.65002 2.79999 8.19001 4.45001 13.16004 4.45001 6.68994 0 12.64996-3.02002 16.62-7.78998 3.10999-3.75 5.00995-8.58002 5.00995-13.86005 0-4.96997-1.66998-9.53998-4.47998-13.18995 5.14001 3.94996 8.45001 10.16999 8.45001 17.16999z" fill="#d0d0f7"/></g><g><path d="m83.81869 71.0095c0 2.08155-.74899 3.9889-1.97699 5.46951-1.56773 1.8812-3.91921 3.07438-6.55817 3.07438-2.64763 0-4.99917-1.19318-6.56685-3.07438-1.23671-1.48061-1.97704-3.38795-1.97704-5.46951 0-4.72047 3.81471-8.54389 8.54389-8.54389 4.72045 0 8.53516 3.82342 8.53516 8.54389z" fill="#5bc658"/></g><g><path d="m83.81535 71.00807c0 2.08002-.75 3.99005-1.97003 5.47003-1.57001 1.88-3.91998 3.08002-6.56 3.08002-2.65002 0-5-1.20001-6.57001-3.08002-.33002-.40002-.63-.82001-.88-1.28003 1.23004.69 2.66003 1.09003 4.17999 1.09003 2.64001 0 4.98999-1.20001 6.56-3.08002 1.23004-1.47998 1.97003-3.38995 1.97003-5.46997 0-1.52002-.40002-2.96002-1.10004-4.19001 2.61005 1.45997 4.37006 4.25001 4.37006 7.45997z" fill="#49a247"/></g><g><path d="m91.9055 87.34253c-3.97188 4.76606-9.92942 7.78901-16.6153 7.78901-6.70783 0-12.66551-3.02295-16.63725-7.78901 3.97174-4.7662 9.92942-7.78915 16.63725-7.78915 6.68588 0 12.64342 3.02295 16.6153 7.78915z" fill="#5bc658"/></g><g><path d="m91.90532 87.33809c-3.96997 4.77002-9.92999 7.79004-16.62 7.79004-6.70001 0-12.65998-3.02002-16.63001-7.79004.04999-.04999.09003-.10999.14001-.15997 3.52997 2.51001 7.83002 3.97998 12.52002 3.97998 6.60999 0 12.5-2.95001 16.46997-7.62 1.53004 1.08002 2.92 2.35999 4.12001 3.79999z" fill="#49a247"/></g></g></svg>