<svg id="Capa_1" enable-background="new 0 0 511.753 511.753" height="512" viewBox="0 0 511.753 511.753" width="512" xmlns="http://www.w3.org/2000/svg" xmlns:xlink="http://www.w3.org/1999/xlink"><radialGradient id="SVGID_1_" cx="272.456" cy="515.71" gradientTransform="matrix(.931 0 0 .113 -.429 428.413)" gradientUnits="userSpaceOnUse" r="211.111"><stop offset="0" stop-color="#fff8be"/><stop offset=".5119" stop-color="#fffbe5"/><stop offset=".9755" stop-color="#fff"/></radialGradient><linearGradient id="lg1"><stop offset="0" stop-color="#f9f7f8"/><stop offset=".4303" stop-color="#e2dee2"/><stop offset="1" stop-color="#b5adb6"/></linearGradient><radialGradient id="SVGID_2_" cx="144.377" cy="19.094" gradientUnits="userSpaceOnUse" r="142.341" xlink:href="#lg1"/><radialGradient id="SVGID_3_" cx="312.218" cy="132.812" gradientUnits="userSpaceOnUse" r="93.877"><stop offset=".0014" stop-color="#b5adb6"/><stop offset=".4303" stop-color="#a79ba7"/><stop offset="1" stop-color="#7a6d79"/></radialGradient><radialGradient id="SVGID_4_" cx="356.259" cy="65.289" gradientTransform="matrix(-1 0 0 -.599 712.518 104.364)" gradientUnits="userSpaceOnUse" r="240.203" xlink:href="#lg1"/><radialGradient id="SVGID_5_" cx="80.524" cy="420.035" gradientTransform="matrix(1 0 0 .712 0 120.825)" gradientUnits="userSpaceOnUse" r="121.389"><stop offset="0" stop-color="#fff6ab"/><stop offset=".518" stop-color="#fff485"/><stop offset=".833" stop-color="#ffed26"/><stop offset=".9755" stop-color="#ffea00"/></radialGradient><radialGradient id="SVGID_6_" cx="37.324" cy="201.424" gradientUnits="userSpaceOnUse" r="255.617"><stop offset="0" stop-color="#fff9e2"/><stop offset=".5145" stop-color="#fffacd"/><stop offset=".9755" stop-color="#fff6ab"/></radialGradient><radialGradient id="SVGID_7_" cx="356.877" cy="372.953" gradientTransform="matrix(1 0 0 .834 0 61.833)" gradientUnits="userSpaceOnUse" r="315.284"><stop offset="0" stop-color="#fff044"/><stop offset=".5119" stop-color="#ffea00"/><stop offset=".6858" stop-color="#fbd113"/><stop offset=".9755" stop-color="#f6ab31"/></radialGradient><radialGradient id="SVGID_8_" cx="274.044" cy="315.163" gradientUnits="userSpaceOnUse" r="117.38"><stop offset="0" stop-color="#685e68"/><stop offset=".5038" stop-color="#433d41"/><stop offset=".9826" stop-color="#433d41"/></radialGradient><linearGradient id="lg2"><stop offset="0" stop-color="#feda00"/><stop offset=".5119" stop-color="#dabb00"/><stop offset=".5138" stop-color="#dabb00"/><stop offset=".9893" stop-color="#eca026"/></linearGradient><radialGradient id="SVGID_9_" cx="306.9" cy="321.494" gradientUnits="userSpaceOnUse" r="78.927" xlink:href="#lg2"/><radialGradient id="SVGID_10_" cx="336.688" cy="381" gradientUnits="userSpaceOnUse" r="75.958" xlink:href="#lg2"/><g><path d="m255.877 511.753c113.107 0 204.798-11.351 204.798-25.353h-409.597c0 14.002 91.692 25.353 204.799 25.353z" fill="url(#SVGID_1_)"/><path d="m89.477 192v-60.359c0-72.703 58.937-131.641 131.641-131.641h60.359c-72.703 0-131.641 192-131.641 192z" fill="url(#SVGID_2_)"/><path d="m307.076 192v-54.841c0-47.474-38.485-85.959-85.959-85.959l64-25.6c47.474 0 102.4 42.126 102.4 89.6l-20.082 76.8z" fill="url(#SVGID_3_)"/><path d="m281.477 0c-72.704 0-131.641 58.938-131.641 131.641v60.359h45.682v-54.841c0-47.474 38.485-85.959 85.959-85.959 47.474 0 85.959 38.485 85.959 85.959v54.841h45.682v-60.359c0-72.703-58.938-131.641-131.641-131.641z" fill="url(#SVGID_4_)"/><path d="m31.877 422.4v3.282c0 33.533 27.184 60.718 60.718 60.718h80.082l12.8-89.6z" fill="url(#SVGID_5_)"/><path d="m108.677 166.4h-76.8v256h127.999z" fill="url(#SVGID_6_)"/><path d="m479.877 425.682c0 33.533-27.184 60.718-60.718 60.718h-249.765c-33.533 0-60.718-27.184-60.718-60.718v-259.282h371.2v259.282z" fill="url(#SVGID_7_)"/><path d="m307.077 256c-6.79 0-19.671-11.478-25.6-9.078-18.764 7.595-32 25.991-32 47.478 0 18.948 10.301 35.479 25.6 44.333v83.667h12.8l25.6-89.6c15.299-8.854 21.877-76.8-6.4-76.8z" fill="url(#SVGID_8_)"/><path d="m326.277 338.733c15.299-8.854 25.6-25.385 25.6-44.333 0-28.277-22.923-51.2-51.2-51.2-6.792 0-13.269 1.334-19.2 3.736 18.761 7.597 32 25.979 32 47.464 0 18.948-10.301 35.479-25.6 44.333l25.6 6.866z" fill="url(#SVGID_9_)"/><path d="m287.877 338.733h38.4v83.667h-38.4z" fill="url(#SVGID_10_)"/></g></svg>