<svg id="Layer_1" enable-background="new 0 0 512 512" height="512" viewBox="0 0 512 512" width="512" xmlns="http://www.w3.org/2000/svg" xmlns:xlink="http://www.w3.org/1999/xlink"><linearGradient id="SVGID_1_" gradientUnits="userSpaceOnUse" x1="61.162" x2="460.761" y1="61.162" y2="460.761"><stop offset="0" stop-color="#8385ab"/><stop offset="1" stop-color="#424566"/></linearGradient><linearGradient id="SVGID_2_" gradientTransform="matrix(.707 -.707 .707 .707 -162.596 -4798.652)" gradientUnits="userSpaceOnUse" x1="-3292.914" x2="-3292.914" y1="3779.3" y2="3965.118"><stop offset="0" stop-color="#fafbff"/><stop offset="1" stop-color="#c4cbff"/></linearGradient><g><path d="m512 256c-1.5 85.6-16.6 154.5-59.7 196.3-41.8 43.1-110.7 58.2-196.3 59.7-85.6-1.5-154.5-16.6-196.3-59.7-43.1-41.8-58.2-110.7-59.7-196.3 1.5-85.6 16.6-154.5 59.7-196.3 41.8-43.1 110.7-58.2 196.3-59.7 85.6 1.5 154.5 16.6 196.3 59.7 43.1 41.8 58.2 110.7 59.7 196.3z" fill="url(#SVGID_1_)"/><path d="m386.1 171.6-35.7 35.7c-1.2 1.2-2.7 1.8-4.3 2l-42.9 2.9c-2 .1-3.6-1.5-3.5-3.5l2.9-42.9c.1-1.6.8-3.2 2-4.3l35.7-35.7c1.6-1.6 1.1-4.4-1.1-5.3-33.9-13.6-74.1-6.7-101.5 20.8-24.7 24.7-32.8 59.8-24.2 91.2 1.1 4.1-.1 8.5-3.1 11.5l-84.4 84.4c-15.8 15.8-16.4 41.5-.8 57.5 15.8 16.3 41.8 16.4 57.8.4l84.9-84.9c3-3 7.4-4.2 11.5-3.1 31.5 8.5 66.6.5 91.2-24.1 27.4-27.4 34.4-67.6 20.8-101.5-.9-2.1-3.7-2.7-5.3-1.1zm-219.9 196.8c-6.3 6.3-16.4 6.3-22.7 0s-6.3-16.4 0-22.7 16.4-6.3 22.6 0c6.3 6.3 6.3 16.5.1 22.7z" fill="url(#SVGID_2_)"/></g></svg>