<svg clip-rule="evenodd" fill-rule="evenodd" height="1.707in" image-rendering="optimizeQuality" shape-rendering="geometricPrecision" text-rendering="geometricPrecision" viewBox="0 0 1707 1707" width="1.707in" xmlns="http://www.w3.org/2000/svg"><g id="Layer_x0020_1"><path d="m1210 1707h-1004c-64 0-115-52-115-115v-1284c0-64 51-115 115-115h1004c63 0 114 51 114 114v1285c0 63-51 115-114 115z" fill="#a17861"/><path d="m1210 1657c35 0 64-29 64-65 0-428 0-856 0-1285 0-35-29-64-64-64-335 0-670 0-1004 0-36 0-65 29-65 65v1284c0 36 29 65 65 65z" fill="#cdd1da"/><path d="m847 324h-279c-66 0-120-54-120-121 0-66 54-120 120-120h59c8 0 94 2 148 7 2-4 6-7 12-7h60c66 0 120 54 120 120 0 67-54 121-120 121z" fill="#4d4d4d"/><path d="m798 169h-182c-6 0-12-3-16-8-3-4-5-11-3-17l30-128c2-10 10-16 20-16h121c9 0 17 6 19 15l30 129c2 6 0 12-3 17-4 5-10 8-16 8z" fill="#a17861"/><g fill="#4d4d4d"><path d="m1043 572h-671c-11 0-20-9-20-20s9-20 20-20h671c11 0 20 9 20 20s-9 20-20 20z"/><path d="m1043 771h-671c-11 0-20-9-20-20s9-20 20-20h671c11 0 20 9 20 20s-9 20-20 20z"/><path d="m1043 970h-671c-11 0-20-9-20-20s9-20 20-20h671c11 0 20 9 20 20s-9 20-20 20z"/><path d="m903 1169h-531c-11 0-20-9-20-20s9-20 20-20h531c11 0 20 9 20 20s-9 20-20 20z"/><path d="m1043 1367h-671c-11 0-20-9-20-20 0-10 9-20 20-20h671c11 0 20 10 20 20 0 11-9 20-20 20z"/></g><path d="m864 1162 584-587c39-38 101-38 139 0 38 38 38 101 0 139l-586 584z" fill="#ffc344"/><path d="m945 1243-25-26c1-3 2-5 4-7l529-529c8-8 17-5 25 3s11 17 3 25l-529 529c-2 2-4 4-7 5z" fill="#ff802d"/><path d="m1384 640 64-65c39-38 101-38 139 0 38 38 38 101 0 139l-65 64z" fill="#ff415b"/><path d="m815 1367c-6 0-11-2-14-5-6-6-8-14-5-22l68-178 137 136-179 68c-3 1-5 1-7 1z" fill="#dda27a"/></g></svg>