<svg id="Layer_1" enable-background="new 0 0 63 63" height="512" viewBox="0 0 63 63" width="512" xmlns="http://www.w3.org/2000/svg" xmlns:xlink="http://www.w3.org/1999/xlink"><linearGradient id="SVGID_1_" gradientUnits="userSpaceOnUse" x1="18.525" x2="42.185" y1="52.42" y2="11.439"><stop offset="0" stop-color="#006bfc"/><stop offset="1" stop-color="#97e6ff"/></linearGradient><path d="m24 21h-3.7c-1.3 0-2.3 1-2.3 2.3 0 12 9.7 21.7 21.7 21.7 1.3 0 2.3-1 2.3-2.3v-3.7c0-2.2 1.8-4 4-4h10.3c3.9 0 6.8 3.7 5.8 7.5l-3.6 14.2c-.9 3.7-4.3 6.3-8.1 6.3-27.9 0-50.4-22.5-50.4-50.4 0-3.8 2.6-7.2 6.3-8.1l14.2-3.6c3.8-1 7.5 1.9 7.5 5.8v10.3c0 2.2-1.8 4-4 4z" fill="url(#SVGID_1_)"/></svg>