<svg id="Capa_1" enable-background="new 0 0 512 512" height="512" viewBox="0 0 512 512" width="512" xmlns="http://www.w3.org/2000/svg" xmlns:xlink="http://www.w3.org/1999/xlink"><radialGradient id="SVGID_1_" cx="257.348" cy="237.683" gradientUnits="userSpaceOnUse" r="155.377"><stop offset="0" stop-color="#e7f6ec"/><stop offset=".5145" stop-color="#daefc8"/><stop offset="1" stop-color="#cbe7af"/></radialGradient><radialGradient id="SVGID_2_" cx="417.056" cy="265.349" gradientTransform="matrix(-1 0 0 -.987 834.112 527.105)" gradientUnits="userSpaceOnUse" r="364.949"><stop offset="0" stop-color="#aad880"/><stop offset=".1958" stop-color="#a2d474"/><stop offset=".5462" stop-color="#8dc955"/><stop offset=".5793" stop-color="#8bc852"/><stop offset="1" stop-color="#528e61"/></radialGradient><radialGradient id="SVGID_3_" cx="59.56" cy="370.595" gradientTransform="matrix(.884 -.467 .177 .335 -58.698 274.162)" gradientUnits="userSpaceOnUse" r="225.142"><stop offset="0" stop-color="#f9efaf"/><stop offset=".0713" stop-color="#f8eca7"/><stop offset=".1829" stop-color="#f6e591"/><stop offset=".3208" stop-color="#f2d86c"/><stop offset=".4783" stop-color="#edc73a"/><stop offset=".5133" stop-color="#ecc32e"/><stop offset="1" stop-color="#e49824"/></radialGradient><radialGradient id="SVGID_4_" cx="22.845" cy="163.792" gradientTransform="matrix(.952 .307 -.303 .939 50.651 2.997)" gradientUnits="userSpaceOnUse" r="225.517"><stop offset="0" stop-color="#bed8fb"/><stop offset=".361" stop-color="#93bffb"/><stop offset=".509" stop-color="#80b4fb"/><stop offset=".8063" stop-color="#6faafa"/><stop offset="1" stop-color="#61a2f9"/></radialGradient><radialGradient id="SVGID_5_" cx="180.738" cy="275.619" gradientTransform="matrix(-1 0 0 -.987 361.477 547.506)" gradientUnits="userSpaceOnUse" r="302.597"><stop offset="0" stop-color="#fbe2dd"/><stop offset=".3207" stop-color="#f0c3c5"/><stop offset=".5581" stop-color="#eab1b7"/><stop offset=".9367" stop-color="#e59ca1"/><stop offset="1" stop-color="#e4989d"/></radialGradient><radialGradient id="SVGID_6_" cx="232.169" cy="252.828" gradientTransform="matrix(-1 0 0 -.987 464.337 502.233)" gradientUnits="userSpaceOnUse" r="342.617"><stop offset="0" stop-color="#f4fbff"/><stop offset=".5145" stop-color="#cbe2ff"/><stop offset="1" stop-color="#bed8fb"/></radialGradient><radialGradient id="SVGID_7_" cx="207.734" cy="337.04" gradientTransform="matrix(-1 0 0 -.987 415.467 669.515)" gradientUnits="userSpaceOnUse" r="255.071"><stop offset="0" stop-color="#f6e781"/><stop offset=".4756" stop-color="#f5e056"/><stop offset=".65" stop-color="#f4dd45"/><stop offset=".9873" stop-color="#f1d334"/><stop offset="1" stop-color="#f1d333"/></radialGradient><radialGradient id="SVGID_8_" cx="417.371" cy="252.828" gradientTransform="matrix(-1 0 0 -.987 834.742 502.233)" gradientUnits="userSpaceOnUse" r="364.949"><stop offset="0" stop-color="#80b4fb"/><stop offset=".1461" stop-color="#7aaffb"/><stop offset=".3416" stop-color="#69a1fa"/><stop offset=".5158" stop-color="#5490f9"/><stop offset="1" stop-color="#407093"/></radialGradient><radialGradient id="SVGID_9_" cx="877.576" cy="275.619" gradientTransform="matrix(-1 0 0 -.987 1755.153 547.507)" gradientUnits="userSpaceOnUse" r="834.925"><stop offset=".0988" stop-color="#dd636e"/><stop offset=".6173" stop-color="#d82e3d"/><stop offset=".726" stop-color="#d32e3b"/><stop offset=".8594" stop-color="#c42f37"/><stop offset="1" stop-color="#ac3030"/></radialGradient><radialGradient id="SVGID_10_" cx="407.255" cy="201.846" gradientTransform="matrix(-1 0 0 -.987 814.509 400.958)" gradientUnits="userSpaceOnUse" r="499.734"><stop offset="0" stop-color="#f4dd45"/><stop offset=".2362" stop-color="#f2d740"/><stop offset=".5521" stop-color="#edc631"/><stop offset=".5974" stop-color="#ecc32e"/><stop offset="1" stop-color="#e49824"/></radialGradient><radialGradient id="SVGID_11_" cx="352.071" cy="1489.173" gradientTransform="matrix(.931 0 0 .112 -75.044 316.019)" gradientUnits="userSpaceOnUse" r="231.216"><stop offset="0" stop-color="#c6c1c8"/><stop offset=".2432" stop-color="#dddbdf"/><stop offset=".4962" stop-color="#f1f1f4"/><stop offset=".888" stop-color="#fff"/></radialGradient><g><path d="m222.452 451.759v-218.434h70.798l20.434 109.088-20.434 109.346z" fill="url(#SVGID_1_)"/><path d="m293.25 233.325v218.434c120.638 0 218.434-97.796 218.434-218.434z" fill="url(#SVGID_2_)"/><path d="m29.234 372.947 189.2-109.493h65.015l-182.656 120.08z" fill="url(#SVGID_3_)"/><path d="m228.551 220.804-211.043-56.549 67.73-9.308 208.328 65.857z" fill="url(#SVGID_4_)"/><path d="m94.758 243.595c0-19.557-22.351-56.549-22.351-56.549h-65.015c-4.821 18.037-7.392 36.993-7.392 56.549 0 39.794 10.642 77.102 29.234 109.235h65.015c-14.255-32.133.509-69.441.509-109.235z" fill="url(#SVGID_5_)"/><path d="m293.566 2.37h-65.015c-101.082 0-186.126 68.66-211.043 161.886h92.666c18.147-93.227 82.31-161.886 183.392-161.886z" fill="url(#SVGID_6_)"/><path d="m116.418 372.947h-87.184c37.771 65.28 108.356 109.199 189.2 109.199h65.015c-80.844 0-138.072-43.919-167.031-109.199z" fill="url(#SVGID_7_)"/><path d="m293.566 2.37c-101.082 0-186.126 68.66-211.043 161.886l211.043 56.549h218.434c0-120.639-97.796-218.435-218.434-218.435z" fill="url(#SVGID_8_)"/><path d="m283.449 243.337-211.043-56.29c-4.821 18.037-7.392 36.992-7.392 56.549 0 39.794 10.642 77.102 29.234 109.235z" fill="url(#SVGID_9_)"/><path d="m94.249 372.947c37.771 65.28 108.356 109.199 189.2 109.199v-218.692z" fill="url(#SVGID_10_)"/><path d="m255.695 509.63c123.894 0 224.33-12.305 224.33-27.484h-448.66c0 15.179 100.436 27.484 224.33 27.484z" fill="url(#SVGID_11_)"/></g></svg>