<?xml version="1.0" encoding="utf-8"?>
<!-- Generator: Adobe Illustrator 27.5.0, SVG Export Plug-In . SVG Version: 6.00 Build 0)  -->
<svg version="1.1" id="Layer_1" xmlns="http://www.w3.org/2000/svg" xmlns:xlink="http://www.w3.org/1999/xlink" x="0px" y="0px"
	 viewBox="0 0 1099.883 1297.922" style="enable-background:new 0 0 1099.883 1297.922;" xml:space="preserve">
<g>
	<g>
		<rect x="0" y="0" style="fill:#FFFFFF;" width="1099.883" height="1297.922"/>
	</g>
	<g>
		<g>
			<ellipse style="fill:#C6EAED;" cx="558.526" cy="1224.335" rx="503.028" ry="42.894"/>
		</g>
		<g>
			<g>
				<g>
					<path style="fill:#FFC586;" d="M412.146,487.224c10.595-8.101,22.455-7.24,24.682-7.038c9.073,0.822,15.456,4.936,18.251,6.996
						c-2.747,7.577-5.494,15.154-8.241,22.732c-3.179-0.585-8.435-1.442-14.98-1.957c-19.945-1.57-29.021,1.834-31.291-2.194
						C398.08,501.35,405.972,491.944,412.146,487.224z"/>
				</g>
				<g>
					<path style="fill:#A7E6EA;" d="M441.127,508.94c19.348,16.901,51.039,40.708,95.206,57.702
						c10.7,4.117,109.647,42.187,134.766,8.981c9.318-12.318,8.512-34.488-1.545-44.384c-8.902-8.759-23.477-6.35-33.051-5.552
						c-69.036,5.755-158.474-33.426-181.889-42.959c-2.817-1.147-5.993,0.448-6.833,3.335
						C445.563,493.688,443.345,501.314,441.127,508.94z"/>
				</g>
				<g>
					<path style="fill:#A7E6EA;" d="M646.314,573.106l-15.134-9.693c-8.951-5.733-13.706-17.613-11.951-29.858l17.5-122.082
						c4.555-31.775,29.805-54.443,56.397-50.631l0,0c11.763,1.686,20.196,13.488,19.805,27.642
						c-0.782,28.302-3.867,62.33-11.792,100.058c-5.387,25.646-12.08,48.572-19.024,68.523
						C676.241,573.944,659.347,581.454,646.314,573.106z"/>
				</g>
			</g>
			<g>
				<g>
					<path style="fill:#0071C2;" d="M822.213,693.738c0.647,52.6-11.619,87.256-24.129,136.598
						c-5.533,21.823-12.285,51.141-18.525,86.886c-3.702,21.203-31.665,26.649-42.982,8.34c-0.011-0.018-0.023-0.037-0.035-0.057
						c-0.028-0.046-0.055-0.091-0.083-0.138c-9.524-15.736-14.15-33.954-13.307-52.328c3.501-76.271,7.001-152.543,10.502-228.815
						c0.325-7.071,4.46-13.413,10.814-16.532c14.941-7.333,42.674-17.227,61.019-1.408
						C808.774,629.12,821.568,641.237,822.213,693.738z"/>
				</g>
				<g>
					<path style="fill:#0071C2;" d="M749.622,1162.203l-25.243,1.229c5.445-39.858,9.352-85.397,9.711-135.648
						c0.326-45.62-2.327-87.375-6.458-124.51c-0.989-8.886,0.691-17.926,5.181-25.658c3.768-6.488,8.929-11.237,15.141-12.923
						c7.294-1.98,14.358,0.765,28.514,6.357c4.574,1.807,8.265,3.519,10.75,4.728c4.267,30.01,6.803,65.868,4.514,106.137
						C787.394,1058.199,767.471,1119.923,749.622,1162.203z"/>
				</g>
				<g>
					<polygon style="fill:#005FB5;" points="751.287,1180.642 708.224,1175.514 727.989,1153.287 752.442,1156.199 					"/>
				</g>
				<g>
					<path style="fill:#002751;" d="M750.811,1198.758c-2.821,0.264-7.056,0.452-12.114-0.171
						c-9.162-1.127-9.818-3.533-17.346-4.921c-11.944-2.202-18.464,2.347-30.306,0.112c-3.868-0.73-7.589-1.979-7.589-1.979
						c-1.487-0.39-3.235-1.001-5.093-1.982c-1.191-0.628-2.26-1.321-3.215-2.034c-2.675-1.999-2.398-6.34,0.513-7.977
						c1.098-0.617,2.273-1.218,3.523-1.783c7.597-3.433,14.516-4,19.021-3.939c4.091-3.307,10.13-6.987,17.012-6.278
						c4.598,0.474,7.188,2.661,10.883,4.476c5.336,2.62,13.637,4.785,26.292,2.122c5.453,4.302,7.596,11.349,5.543,16.957
						C756.164,1196.202,751.889,1198.274,750.811,1198.758z"/>
				</g>
			</g>
			<g>
				<g>
					<path style="fill:#0084F2;" d="M883.379,687.848c9.683,51.705,3.559,87.954-0.278,138.713
						c-1.697,22.449-3.307,52.492-3.307,88.777c0,21.524-26.611,31.697-40.907,15.607c-0.014-0.016-0.029-0.033-0.044-0.05
						c-0.035-0.04-0.07-0.081-0.106-0.121c-12.088-13.864-19.778-31.015-22.107-49.26c-9.668-75.737-19.336-151.474-29.004-227.212
						c-0.896-7.021,2.087-13.98,7.81-18.145c13.457-9.794,39.075-24.309,59.867-11.88
						C859.027,626.503,873.714,636.24,883.379,687.848z"/>
				</g>
				<g>
					<g>
						<path style="fill:#005FB5;" d="M841.638,1186.479c11.404-2.281,22.809-4.562,34.213-6.843
							c-1.618-4.155-3.156-9.021-4.277-14.541c-2.451-12.075-1.953-22.596-0.904-30.189c-7.624-1.45-15.248-2.899-22.872-4.349
							C845.745,1149.199,843.692,1167.839,841.638,1186.479z"/>
					</g>
					<g>
						<path style="fill:#0084F2;" d="M874.141,1150.555c-5.598,1.275-11.594,2.443-17.962,3.421
							c-4.842,0.744-9.506,1.318-13.968,1.754c0.456-7.635,0.976-18.559,1.138-31.69c0.224-18.262-0.253-40.223-2.566-67.571
							c-5.704-67.434-11.731-127.13-11.731-127.13c-0.444-4.396-0.787-17.827,5.203-32.56c4.16-10.231,12.422-18.437,21.839-20.67
							c13.798-3.271,28.565,23.913,30.628,44.128c2.183,21.382,2.128,38.434,2.059,46.32c-0.219,25.138-1.346,43.983-1.458,46.234
							c-3.992,80.188-7.95,108.192-11.472,128.356C875.134,1145.255,874.515,1148.576,874.141,1150.555z"/>
					</g>
					<g>
						<path style="fill:#002751;" d="M849.347,1205.447l21.915-3.786c4.749-0.82,8.634-5.605,8.866-10.719l0,0
							c0.386-8.497-5.482-15.063-13.647-14.639l-9.011,0.468c-9.597,0.498-18.374,9.23-18.839,19.463l0,0
							C838.351,1202.393,843.279,1206.495,849.347,1205.447z"/>
					</g>
				</g>
			</g>
			<g>
				<path style="fill:#C6EAED;" d="M885.349,642.729c-15.735,12.792-40.546,29.928-74.414,42.396
					c-30.314,11.16-57.298,14.682-76.45,15.684c-11.679-91.592-20.569-128.419-26.907-143.877l-12.594-30.573l0,0
					c-7.629-16.899-13.701-27.822-16.878-33.894c-12.17-23.266-28.662-52.947-24.959-83.877c2.961-24.731,19.724-50.504,45.3-63.266
					c17.403-8.684,33.969-8.785,42.677-8.181c15.456,2.419,26.06,8.187,32.244,12.333c20.094,13.473,28.56,33.327,35.057,49.113
					c4.875,11.847,7.456,20.948,9.921,34.389c10.965,59.784,16.447,89.675,22.141,105.125c3.908,10.604,10.117,26.063,23.353,56.698
					C872.489,614.818,880.019,631.286,885.349,642.729z"/>
			</g>
			<g>
				<polygon style="fill:#FFFFFF;" points="694.65,396.567 678.977,349.498 726.046,333.825 				"/>
			</g>
			<g>
				
					<ellipse transform="matrix(0.9701 -0.2428 0.2428 0.9701 -47.6395 172.481)" style="fill:#001E49;" cx="675.947" cy="279.517" rx="18.016" ry="26.349"/>
			</g>
			<g>
				<path style="fill:#FFB876;" d="M645.289,318.665c4.675-3.32,9.881-7.484,15.203-12.65c6.139-5.959,10.969-11.831,14.71-17.002
					c17.467,15.998,34.935,31.997,52.402,47.995c-15.396,20.597-36.985,25.315-36.985,25.315
					c-4.215-7.219-10.863-16.814-20.959-26.234C660.83,327.849,652.117,322.314,645.289,318.665z"/>
			</g>
			<g>
				<path style="fill:#F8A867;" d="M681.554,296.83c0.611,5.624,0.731,11.325-1.009,16.662c-3.094,9.486-10.19,15.007-15.39,18.009
					c-5.836-6.341-14.46-10.427-24.074-10.883c11.061-9.086,23.268-20.038,34.328-29.124
					C677.275,293.152,679.341,294.943,681.554,296.83z"/>
			</g>
			<g>
				<path style="fill:#001E49;" d="M632.82,230.72c11.184,2.385,18.314,8.03,19.974,9.391c7.982,6.542,11.69,14.18,13.251,18.021
					c-3.043-0.992-6.335,0.291-9.167,1.783c-5.969,3.147-11.388,7.335-15.937,12.319c-0.572,0.627-1.157,1.286-1.935,1.624
					c-0.969,0.421-2.078,0.28-3.126,0.14c-3.692-0.491-7.541-0.842-11.061,0.375c-3.625,1.252-6.176,4.274-6.702,8.028
					c-4.286,0.214-8.113,0.263-10.937-1.842c-1.832-1.366-2.606-3.126-2.936-3.827c-13.651-28.959-15.459-31.306-13.815-35.446
					C595.17,229.349,618.608,227.688,632.82,230.72z"/>
			</g>
			<g>
				<path style="fill:#FFC586;" d="M625.777,307.681c2.208,0.064,4.595,2.151,4.65,4.086c0.051,1.825-2.034,2.705-1.519,3.993
					c0.323,0.807,1.168,0.662,2.518,2.106c0.845,0.904,0.708,1.17,1.359,1.727c1.224,1.048,2.372,0.68,3.476,1.137
					c2.347,0.972,1.794,4.559,3.249,6.407c2.67,3.391,12.062,0.884,17.923-1.743c3.489-1.564,16.174-7.012,20.613-20.625
					c2.145-6.579,1.466-13.713,0.518-20.567c-1.606-11.611-4.532-24.17-13.792-31.358c-8.093-6.284-19.539-6.911-29.298-3.791
					c-11.133,3.56-21.834,13.551-20.018,26.159c0.563,3.911,2.124,5.747,2.831,9.053c0.206,0.962,0.203,2.192,0.334,4.627
					c0.283,5.248,0.425,7.871,0.163,9.448c-0.738,4.448-2.544,5.487-1.628,7.592c0.735,1.689,2.748,2.975,4.579,2.994
					C623.606,308.945,623.987,307.63,625.777,307.681z"/>
			</g>
			<g>
				<path style="fill:#001E49;" d="M645.507,258.145c5.208,5.406,8.151,12.374,11.015,19.219
					c4.995,7.786,14.658,10.571,22.036,7.047c5.858-2.798,9.565-9.232,9.356-16.266c-0.24-3.885,0.556-7.888,0.745-11.829
					c0.424-8.88-2.65-17.861-10.157-22.649c-5.963-3.803-14.155-4.573-21.971-3.075c-7.816,1.498-15.296,5.099-22.087,9.456
					c-3.772,2.42-10.251,6.439-11.339,10.475C632.352,251.568,638.977,251.367,645.507,258.145z"/>
			</g>
			<g>
				<path style="fill:#FFC586;" d="M671.502,274.398c1.796,3.52,0.399,7.831-3.122,9.627c-3.52,1.796-7.831,0.399-9.627-3.122
					c-1.796-3.521-0.399-7.831,3.122-9.627C665.396,269.479,669.706,270.877,671.502,274.398z"/>
			</g>
			<g>
				
					<rect x="793.331" y="449.967" transform="matrix(0.6499 -0.7601 0.7601 0.6499 -108.806 835.0605)" style="fill:#0084F2;" width="117.18" height="171.308"/>
			</g>
			<g>
				<g>
					<path style="fill:#FFC586;" d="M793.315,689.984c-5.751-12.033-2.471-23.463-1.816-25.601
						c2.669-8.71,8.007-14.112,10.597-16.424c6.851,4.245,13.702,8.491,20.553,12.736c-1.226,2.991-3.145,7.959-4.994,14.259
						c-5.635,19.197-4.169,28.779-8.577,30.172C804.25,706.653,796.666,696.996,793.315,689.984z"/>
				</g>
				<g>
					<path style="fill:#D5EEF2;" d="M820.523,666.084c20.516-15.462,50.328-41.584,76.035-81.316
						c6.228-9.625,63.82-98.637,36.484-130.044c-10.14-11.65-32.003-15.418-43.754-7.609c-10.402,6.912-11.039,21.671-12.225,31.205
						c-8.555,68.746-65.279,148.223-79.421,169.18c-1.701,2.521-0.793,5.957,1.859,7.372
						C806.509,658.608,813.516,662.346,820.523,666.084z"/>
				</g>
				<g>
					<path style="fill:#D5EEF2;" d="M922.226,480.34l-14.97,9.945c-8.854,5.882-21.643,5.446-32.142-1.095l-104.678-65.214
						c-27.245-16.974-37.816-49.217-23.611-72.019l0,0c6.283-10.086,20.483-13.047,33.279-6.986
						c25.587,12.121,55.486,28.657,86.822,51.114c21.3,15.265,39.585,30.63,55.046,45.024
						C935.052,453.288,935.117,471.776,922.226,480.34z"/>
				</g>
			</g>
		</g>
		<g>
			<g>
				<rect x="916.821" y="777.191" style="fill:#00496F;" width="15.828" height="467.573"/>
			</g>
			<g>
				<rect x="255.114" y="789.443" style="fill:#00496F;" width="15.828" height="416.632"/>
			</g>
			<g>
				<path style="fill:#005081;" d="M961.753,801.188c0,6.767-2.744,12.891-7.178,17.331c-4.44,4.434-10.564,7.178-17.331,7.178
					H250.522c-13.54,0-24.509-10.976-24.509-24.509c0-0.109,0-0.219,0.007-0.321c0.084-6.638,2.808-12.64,7.171-17.01
					c4.434-4.434,10.558-7.178,17.331-7.178h686.722c13.424,0,24.335,10.802,24.502,24.188
					C961.753,800.97,961.753,801.079,961.753,801.188z"/>
			</g>
			<g>
				<path style="fill:#006293;" d="M961.746,800.867H226.019c0.084-6.638,2.808-12.64,7.171-17.01
					c4.434-4.434,10.558-7.178,17.331-7.178h686.722C950.668,776.679,961.579,787.482,961.746,800.867z"/>
			</g>
		</g>
		<g>
			<g>
				<path style="fill:#005081;" d="M324.334,778.925l221.087,1.735c1.841,0.014,3.334-1.443,3.334-3.256v-6.203
					c0-1.813-1.493-3.294-3.334-3.308l-221.087-1.735c-1.841-0.014-3.334,1.443-3.334,3.256v6.203
					C321,777.429,322.492,778.911,324.334,778.925z"/>
			</g>
			<g>
				<path style="fill:#004064;" d="M535.94,780.686h149.491c0.939,0,1.7-0.761,1.7-1.7v-9.367c0-0.939-0.761-1.7-1.7-1.7H535.94
					V780.686z"/>
			</g>
			<g>
				<path style="fill:#005081;" d="M430.407,765.57h251.568c2.847,0,5.61-2.306,6.171-5.15l25.588-129.725
					c0.561-2.844-1.292-5.15-4.14-5.15H458.027c-2.847,0-5.611,2.306-6.172,5.15L426.267,760.42
					C425.706,763.264,427.56,765.57,430.407,765.57z"/>
			</g>
			<g>
				<polygon style="fill:#FFFFFF;" points="434.159,759.215 682.126,759.215 707.032,632.952 459.064,632.952 				"/>
			</g>
			<g style="opacity:0.39;">
				<polygon style="fill:#F8E7DB;" points="681.483,760.146 706.388,633.883 458.421,633.883 				"/>
			</g>
			<g>
				<polygon style="fill:#00C6D9;" points="687.818,646.59 462.907,646.59 464.097,641.086 689.007,641.086 				"/>
				<polygon style="fill:#00C6D9;" points="686.532,655.747 461.622,655.747 462.811,650.244 687.722,650.244 				"/>
				<polygon style="fill:#00C6D9;" points="685.247,664.904 460.337,664.904 461.526,659.401 686.437,659.401 				"/>
				<polygon style="fill:#00C6D9;" points="683.962,674.061 459.052,674.061 460.241,668.558 685.152,668.558 				"/>
				<polygon style="fill:#00C6D9;" points="682.677,683.218 457.766,683.218 458.956,677.715 683.866,677.715 				"/>
			</g>
			<g>
				<polygon style="fill:#00C6D9;" points="597.112,735.911 446.199,735.911 446.351,730.35 597.264,730.35 				"/>
				<polygon style="fill:#00C6D9;" points="599.212,726.333 448.299,726.333 448.451,720.772 599.364,720.772 				"/>
				<polygon style="fill:#00C6D9;" points="601.312,716.755 450.399,716.755 450.551,711.194 601.464,711.194 				"/>
				<polygon style="fill:#00C6D9;" points="603.411,707.177 452.499,707.177 452.651,701.616 603.563,701.616 				"/>
				<polygon style="fill:#00C6D9;" points="605.511,697.599 454.598,697.599 454.75,692.038 605.663,692.038 				"/>
			</g>
		</g>
		<g>
			<g>
				<g>
					<path style="fill:#FFC586;" d="M504.897,702.622c-10.049-7.841-21.347-7.277-23.021-7.168
						c-8.57,0.56-14.684,4.288-17.367,6.164c2.431,7.176,4.863,14.352,7.294,21.528c7.079-1.98,12.659-1.815,16.558-1.239
						c7.492,1.106,11.235,4.092,18.214,2.896c2.457-0.421,7.275-1.247,8.777-4.509C517.811,714.953,509.821,706.465,504.897,702.622
						z"/>
				</g>
				<g>
					<path style="fill:#F17E00;" d="M479.009,722.651c-18.552,15.435-48.853,37.076-90.717,52.037
						c-10.142,3.624-103.928,37.14-126.767,5.387c-8.472-11.779-7.214-32.582,2.454-41.648c8.558-8.025,22.144-4.173,31.165-4.466
						c78.725-2.558,171.792-36.232,171.792-36.232S476.918,707.736,479.009,722.651z"/>
				</g>
				<g>
					<path style="fill:#FF941A;" d="M288.909,784.667l14.333-8.922c8.477-5.277,13.088-16.379,11.587-27.902l-14.965-114.887
						c-3.895-29.902-27.339-51.5-52.365-48.241l0,0c-11.069,1.442-19.133,12.426-18.937,25.726
						c0.393,26.594,2.88,58.595,9.868,94.13c4.751,24.155,10.761,45.771,17.042,64.596
						C260.787,785.092,276.566,792.351,288.909,784.667z"/>
				</g>
			</g>
			<g>
				<g>
					<path style="fill:#007171;" d="M270.072,932.613c53.704,13.207,92.113,8.912,145.62,7.872
						c23.664-0.46,55.294-0.382,93.382,1.753c22.593,1.267,34.838-26.067,18.79-42.02c-0.016-0.016-0.033-0.032-0.05-0.049
						c-0.04-0.039-0.081-0.079-0.121-0.118c-13.841-13.505-31.391-22.586-50.406-26.104
						c-78.93-14.606-157.861-29.211-236.791-43.817c-7.317-1.354-14.797,1.367-19.506,7.13
						c-11.072,13.549-27.816,39.586-15.994,62.142C207.114,903.442,216.47,919.431,270.072,932.613z"/>
				</g>
				<g>
					<path style="fill:#007171;" d="M472.786,1190.946l26.307,3.732c-1.839-42.252-1.517-90.304,2.975-142.944
						c4.078-47.788,10.9-91.243,18.822-129.718c1.896-9.207,1.013-18.833-2.938-27.362c-3.316-7.157-8.259-12.628-14.598-14.995
						c-7.444-2.779-15.105-0.59-30.466,3.893c-4.964,1.448-8.993,2.883-11.712,3.908c-7.374,31.003-13.502,68.295-15.007,110.672
						C443.319,1078.411,458.196,1144.957,472.786,1190.946z"/>
				</g>
				<g>
					<polygon style="fill:#005FB5;" points="469.256,1210.088 514.834,1208.891 496.296,1183.708 470.415,1184.388 					"/>
				</g>
				<g>
					<path style="fill:#002751;" d="M468,1229.099c2.928,0.549,7.342,1.156,12.698,0.995c9.701-0.292,10.62-2.747,18.636-3.471
						c12.717-1.148,19.102,4.246,31.714,3.053c4.12-0.39,8.136-1.336,8.136-1.336c1.595-0.264,3.484-0.734,5.524-1.581
						c1.307-0.543,2.494-1.164,3.562-1.818c2.994-1.833,3.124-6.405,0.236-8.4c-1.09-0.753-2.261-1.495-3.516-2.208
						c-7.62-4.33-14.808-5.593-19.531-5.966c-3.963-3.858-9.927-8.296-17.2-8.22c-4.86,0.05-7.782,2.089-11.827,3.631
						c-5.84,2.226-14.739,3.688-27.729-0.325c-6.125,3.975-9.051,11.145-7.445,17.215
						C462.644,1225.905,466.918,1228.488,468,1229.099z"/>
				</g>
			</g>
			<g>
				<g>
					<path style="fill:#008C92;" d="M275.93,922.961c83.948,0.298,125.922,0.447,153.257,3.386
						c51.725,5.562,69.723,0.427,93.382,1.753c22.593,1.267,34.838-26.067,18.79-42.02c-0.016-0.016-0.033-0.032-0.05-0.049
						c-0.04-0.039-0.081-0.079-0.121-0.118c-13.841-13.505-31.391-22.586-50.406-26.104
						c-40.644-7.521-102.234-31.703-236.791-43.817c-7.462-0.672-23.055-1.862-36.536,7.367
						c-14.77,10.111-24.26,30.85-20.563,50.766c3.447,18.572,17.03,29.252,22.491,33.415
						C239.543,922.909,263.139,922.916,275.93,922.961z"/>
				</g>
				<g>
					<path style="fill:#008C92;" d="M502.988,1190.946l26.307,3.732c-1.84-42.252-1.517-90.304,2.975-142.944
						c4.078-47.788,10.9-91.243,18.822-129.718c1.896-9.207,1.013-18.833-2.938-27.362c-3.316-7.157-8.259-12.628-14.598-14.995
						c-7.444-2.779-15.105-0.59-30.466,3.893c-4.964,1.448-8.993,2.883-11.712,3.908c-7.374,31.003-13.502,68.295-15.007,110.672
						C473.521,1078.411,488.398,1144.957,502.988,1190.946z"/>
				</g>
				<g>
					<polygon style="fill:#005FB5;" points="499.458,1210.088 545.036,1208.891 526.498,1183.708 500.617,1184.388 					"/>
				</g>
				<g>
					<path style="fill:#002751;" d="M498.202,1229.099c2.928,0.549,7.343,1.156,12.698,0.995c9.7-0.292,10.62-2.747,18.636-3.471
						c12.717-1.148,19.102,4.246,31.714,3.053c4.12-0.39,8.136-1.336,8.136-1.336c1.595-0.264,3.484-0.734,5.524-1.581
						c1.307-0.543,2.494-1.164,3.562-1.818c2.994-1.833,3.125-6.405,0.236-8.4c-1.09-0.753-2.261-1.495-3.516-2.208
						c-7.62-4.33-14.808-5.593-19.531-5.966c-3.963-3.858-9.927-8.296-17.2-8.22c-4.86,0.05-7.782,2.089-11.827,3.631
						c-5.84,2.226-14.739,3.688-27.729-0.325c-6.125,3.975-9.051,11.145-7.445,17.215
						C492.846,1225.905,497.121,1228.488,498.202,1229.099z"/>
				</g>
			</g>
			<g>
				<path style="fill:#FFC586;" d="M331.566,523.451c-3.561,15.247-5.445,22.972-10.492,27.92
					c-0.881,0.863-10.829,10.339-23.109,8.752c-16.627-2.149-29.395-23.529-26.654-41.993c3.473-23.398,31.007-36.434,48.511-32.51
					c2.171,0.487,9.198,2.062,13.189,7.922C334.367,495.533,336.961,500.352,331.566,523.451z"/>
			</g>
			<g>
				<path style="fill:#FF941A;" d="M274.645,863.199c-14.255,16.814-40.268,29.976-61.047,24.419
					c-56.383-15.078-54.224-162.628-53.946-175c1.079-48.039,2.697-120.005,44.218-137.108c25.7-10.586,65.022,0.533,83.628,22.294
					c8.964,10.484,14.137,24.419,14.137,24.419c5.152,13.879,5.491,26.125,5.141,33.415c-3.88,9.323-9.223,22.317-15.423,37.913
					c-20.23,50.892-21.17,58.012-20.431,65.917c2.262,24.193,17.388,25.129,19.789,51.036
					C291.061,814.301,293.151,841.37,274.645,863.199z"/>
			</g>
			<g>
				<path style="fill:#FFB16D;" d="M220.666,574.029c-0.435-4.158,10.193-6.797,22.039-16.382
					c14.068-11.382,21.593-25.876,25.863-37.293c7.517,4.794,15.034,9.588,22.55,14.382c5.766,3.677,7.695,11.193,4.413,17.192
					c-8.033,10.794-16.067,21.589-24.1,32.383C230.832,582.172,221.068,577.872,220.666,574.029z"/>
			</g>
			<g>
				<path style="fill:#008C92;" d="M279.143,545.754c-6.868-2.726-13.736-5.452-20.603-8.177c0.357-3.614,0.78-9.287,0.683-16.242
					c-0.243-17.253-3.42-23.063-1.928-32.13c1.011-6.147,4.343-14.853,15.422-24.419c5.801-2.465,19.115-7.197,36.163-4.957
					c18.652,2.451,31.031,11.836,35.808,15.881c1.128,16.734-2.654,22.729-6.426,25.061c-4.559,2.819-9.375,0.454-15.422,5.141
					c-4.415,3.422-4.496,6.735-8.354,7.711c-4.946,1.251-7.959-3.397-10.924-1.928c-3.613,1.791-1.007,9.619-3.213,16.708
					C298.609,533.995,293.44,540.527,279.143,545.754z"/>
			</g>
			<g>
				<g>
					<path style="fill:#FFC586;" d="M529.737,725.341c-9.374-8.637-20.681-8.998-22.357-9.026
						c-8.587-0.143-14.985,3.073-17.813,4.724c1.837,7.351,3.673,14.701,5.509,22.052c7.218-1.395,12.765-0.774,16.604,0.119
						c7.376,1.715,10.863,4.997,17.917,4.376c2.483-0.219,7.353-0.648,9.116-3.776C541.6,738.687,534.331,729.574,529.737,725.341z"
						/>
				</g>
				<g>
					<path style="fill:#FF941A;" d="M502.299,743.186c-19.752,13.866-51.721,32.958-94.668,44.446
						c-10.404,2.783-106.617,28.519-126.784-4.995c-7.481-12.432-4.526-33.063,5.851-41.308c9.185-7.298,22.411-2.349,31.426-1.903
						c78.671,3.887,174.179-22.065,174.179-22.065S501.434,728.15,502.299,743.186z"/>
				</g>
				<g>
					<path style="fill:#FF941A;" d="M309.472,788.523l14.333-8.922c8.477-5.277,13.087-16.379,11.587-27.902l-14.964-114.887
						c-3.895-29.902-27.339-51.501-52.365-48.241l0,0c-11.069,1.442-19.133,12.426-18.937,25.726
						c0.393,26.594,2.879,58.595,9.868,94.13c4.751,24.155,10.761,45.771,17.042,64.596
						C281.35,788.948,297.129,796.206,309.472,788.523z"/>
				</g>
			</g>
		</g>
		<g>
			<g>
				<path style="fill:#00496F;" d="M222.601,1234.537h-41.785c-11.028,0-20-8.972-20-20V934.578c0-11.028,8.972-20,20-20h41.785
					c11.028,0,20,8.972,20,20v279.959C242.601,1225.566,233.629,1234.537,222.601,1234.537z M180.816,930.578c-2.169,0-4,1.832-4,4
					v279.959c0,2.168,1.831,4,4,4h41.785c2.168,0,4-1.832,4-4V934.578c0-2.168-1.832-4-4-4H180.816z"/>
			</g>
			<g>
				<path style="fill:#00496F;" d="M412.036,1252.763h-41.785c-11.028,0-20-8.972-20-20V952.804c0-11.028,8.972-20,20-20h41.785
					c11.028,0,20,8.972,20,20v279.959C432.036,1243.791,423.064,1252.763,412.036,1252.763z M370.251,948.804c-2.169,0-4,1.832-4,4
					v279.959c0,2.168,1.831,4,4,4h41.785c2.168,0,4-1.832,4-4V952.804c0-2.168-1.832-4-4-4H370.251z"/>
			</g>
			<g>
				<g>
					<path style="fill:#005081;" d="M161.456,963.601h262.949c11.189,0,20.26-9.071,20.26-20.26v-15.329
						c0-11.189-9.071-20.26-20.26-20.26H161.456c-11.189,0-20.26,9.071-20.26,20.26v15.329
						C141.196,954.531,150.267,963.601,161.456,963.601z"/>
				</g>
			</g>
			<g>
				<g>
					<path style="fill:#006293;" d="M149.958,935.576l284.658,0c5.194,0,9.405-4.211,9.405-9.405v-7.116
						c0-5.194-4.211-9.405-9.405-9.405l-284.658,0c-5.194,0-9.405,4.211-9.405,9.405v7.116
						C140.553,931.366,144.764,935.576,149.958,935.576z"/>
				</g>
			</g>
			<g>
				<g>
					<path style="fill:#005081;" d="M332.479,727.61v0.193c0,9.575-4.098,18.25-10.721,24.522
						c-6.63,6.278-15.777,10.16-25.894,10.16H168.93c-20.221,0-36.615-15.525-36.615-34.681v-0.193
						c0.054-9.498,4.146-18.096,10.728-24.329c6.623-6.272,15.777-10.153,25.887-10.153h126.933
						C316.023,693.128,332.37,708.551,332.479,727.61z"/>
				</g>
				<g>
					<rect x="143.582" y="703.244" style="fill:#005081;" width="14.159" height="246.486"/>
				</g>
				<g>
					<rect x="182.881" y="703.099" style="fill:#005081;" width="14.159" height="246.486"/>
				</g>
				<g>
					<rect x="222.18" y="702.955" style="fill:#005081;" width="14.159" height="246.486"/>
				</g>
				<g>
					<rect x="261.479" y="702.811" style="fill:#005081;" width="14.159" height="246.486"/>
				</g>
				<g>
					<rect x="300.778" y="702.666" style="fill:#005081;" width="14.159" height="246.486"/>
				</g>
				<g>
					<path style="fill:#006293;" d="M332.479,727.61H132.315c0.054-9.498,4.146-18.096,10.728-24.329
						c6.623-6.272,15.777-10.153,25.887-10.153h126.933C316.023,693.128,332.37,708.551,332.479,727.61z"/>
				</g>
			</g>
		</g>
		<g>
			<g>
				<path style="fill:#B3DEE5;" d="M388.17,373.047H106.071c-0.812,0-1.476-0.664-1.476-1.476V165.099
					c0-0.812,0.664-1.476,1.476-1.476H388.17c0.812,0,1.476,0.664,1.476,1.476v206.472
					C389.646,372.383,388.982,373.047,388.17,373.047z"/>
			</g>
			<g>
				<polygon style="fill:#B3DEE5;" points="328.564,402.134 378.011,361.413 328.564,361.413 				"/>
			</g>
		</g>
		<g>
			<g>
				<path style="fill:#B3DEE5;" d="M536.576,254.257l-60.21-49.596H344.755c-11.31,0-20.512-9.202-20.512-20.511V68.047
					c0-11.309,9.203-20.512,20.512-20.512h188.296c11.31,0,20.511,9.203,20.511,20.512V184.15c0,10.109-7.35,18.531-16.986,20.209
					V254.257z M344.755,60.275c-4.286,0-7.772,3.486-7.772,7.772V184.15c0,4.286,3.486,7.772,7.772,7.772h136.181l42.9,35.338
					v-35.338h9.215c4.286,0,7.772-3.486,7.772-7.772V68.047c0-4.286-3.486-7.772-7.772-7.772H344.755z"/>
			</g>
		</g>
	</g>
</g>
</svg>
