<svg clip-rule="evenodd" fill-rule="evenodd" height="1.707in" image-rendering="optimizeQuality" shape-rendering="geometricPrecision" text-rendering="geometricPrecision" viewBox="0 0 1707 1707" width="1.707in" xmlns="http://www.w3.org/2000/svg" xmlns:xlink="http://www.w3.org/1999/xlink"><linearGradient id="id0" gradientUnits="userSpaceOnUse" x1=".472" x2="1706.19" y1="1323.09" y2="1323.09"><stop offset="0" stop-color="#1d1d2c"/><stop offset=".490196" stop-color="#4a4a59"/><stop offset="1" stop-color="#777786"/></linearGradient><linearGradient id="id1" gradientUnits="userSpaceOnUse" x1="113.413" x2="1593.67" y1="720.075" y2="720.075"><stop offset="0" stop-color="#03001c"/><stop offset=".478431" stop-color="#302c49"/><stop offset="1" stop-color="#5d5976"/></linearGradient><linearGradient id="id2" gradientUnits="userSpaceOnUse" x1="661.134" x2="823.071" y1="830.331" y2="830.331"><stop offset="0" stop-color="#008100"/><stop offset="1" stop-color="#3bdb4f"/></linearGradient><linearGradient id="id3" gradientUnits="userSpaceOnUse" x1="1030.76" x2="1246.45" y1="559.02" y2="559.02"><stop offset="0" stop-color="#d2d2d2"/><stop offset="1" stop-color="#fff"/></linearGradient><linearGradient id="id4" gradientUnits="userSpaceOnUse" x1="478.232" x2="640.157" y1="888.295" y2="888.295"><stop offset="0" stop-color="#d26c06"/><stop offset="1" stop-color="#ffc660"/></linearGradient><linearGradient id="id5" gradientUnits="userSpaceOnUse" x1="603.165" x2="1103.92" y1="1388.55" y2="1388.55"><stop offset="0" stop-color="#d2d2d2"/><stop offset=".478431" stop-color="#e8e8e8"/><stop offset="1" stop-color="#fff"/></linearGradient><linearGradient id="id6" gradientUnits="userSpaceOnUse" x1="200.37" x2="1506.7" y1="763.496" y2="763.496"><stop offset="0" stop-color="#06b0d2"/><stop offset=".490196" stop-color="#33d7e8"/><stop offset="1" stop-color="#60ffff"/></linearGradient><linearGradient id="id7" gradientUnits="userSpaceOnUse" x1="857.047" x2="1418.76" y1="866.795" y2="866.795"><stop offset="0" stop-color="#b8001b"/><stop offset=".529412" stop-color="#db1648"/><stop offset="1" stop-color="#ff2d75"/></linearGradient><linearGradient id="id8" gradientUnits="userSpaceOnUse" x1="288.331" x2="451.256" y1="929.78" y2="929.78"><stop offset="0" stop-color="#b8001b"/><stop offset="1" stop-color="#ff2d75"/></linearGradient><linearGradient id="id9" gradientUnits="userSpaceOnUse" x1="135.402" x2="1691.63" y1="1355.58" y2="1355.58"><stop offset="0" stop-color="#252536"/><stop offset="1" stop-color="#7f7f90"/></linearGradient><g id="Layer_x0020_1"><g id="_602579736"><g id="_387060664"><g><path d="m159 1198c-8 23-46 20-46-8v-778c0-102 82-185 184-185h1113c101 0 184 83 184 185v778c0 28-40 31-47 7-42 1-121 2-222 3-41 1-89 2-141 2-89 1-191 1-295 1-103 0-209-1-304-2-28-1-56-1-82-1-162-1-293-1-344-2z" fill="url(#id1)"/><path d="m248 1190c0 31-48 31-48 0v-778c0-54 43-98 97-98h1113c53 0 97 44 97 98v778c0 31-48 31-48 0v-6h-1211z" fill="url(#id6)"/><path d="m1705 1198-103 265c-3 10-12 17-23 17h-1451c-10 0-19-5-22-15-12-31-106-265-106-275 0-14 11-24 24-24h1659c16 0 28 16 22 32z" fill="url(#id0)"/><path d="m1692 1231-90 232c-3 10-12 17-23 17h-1358c-31-78-86-216-86-225 0-13 11-24 24-24z" fill="url(#id9)"/><path d="m1104 1480h-501v-159c0-13 10-24 24-24h453c13 0 24 11 24 24z" fill="url(#id5)"/></g><path d="m427 1128h-115c-13 0-24-10-24-24v-349c0-13 11-24 24-24h115c13 0 24 11 24 24v349c0 14-11 24-24 24z" fill="url(#id8)"/><path d="m616 1128h-114c-13 0-24-10-24-24v-432c0-13 11-24 24-24h114c14 0 24 11 24 24v432c0 14-10 24-24 24z" fill="url(#id4)"/><path d="m799 1128h-114c-14 0-24-10-24-24v-548c0-13 10-24 24-24h114c13 0 24 11 24 24v548c0 14-11 24-24 24z" fill="url(#id2)"/><path d="m1148 1128c-161 5-291-124-291-283v-178c0-55 67-83 107-44 11 11 18 27 18 44v185c3 85 75 154 163 152v-1c83-3 150-72 150-156v-180c0-55 67-83 106-44 11 11 18 27 18 44v180c0 153-124 278-271 281z" fill="url(#id7)"/><path d="m1109 412c15-27 57-4 42 24l-56 97h127c22 0 33 26 17 41l-137 137c-22 22-56-12-34-34l96-96h-110c-18 0-29-20-20-36z" fill="url(#id3)"/></g></g></g></svg>