<svg height="512" viewBox="0 0 128 128" width="512" xmlns="http://www.w3.org/2000/svg"><g id="Flat"><g id="Color"><path d="m113.5 10.5v100a9 9 0 0 1 -9 9h-81a9 9 0 0 1 -9-9v-79.272a9 9 0 0 1 2.636-6.364l20.728-20.728a9 9 0 0 1 6.364-2.636h60.272a9 9 0 0 1 9 9z" fill="#03a9f4"/><path d="m113.316 8.684a8.978 8.978 0 0 1 .184 1.816v100a9 9 0 0 1 -9 9h-81a8.978 8.978 0 0 1 -1.816-.184 9 9 0 0 0 8.816 7.184h81a9 9 0 0 0 9-9v-100a9 9 0 0 0 -7.184-8.816z" fill="#0288d1"/><path d="m34.5 27.5a6 6 0 0 0 6-6v-19.181a8.991 8.991 0 0 0 -2.636 1.817l-20.728 20.728a8.991 8.991 0 0 0 -1.817 2.636z" fill="#81d4fa"/><path d="m116.939 28.475 8.48 8.963a3 3 0 0 1 0 4.124l-8.48 8.963a3 3 0 0 1 -5.179-2.061v-2.964h-47.76v-12h47.76v-2.964a3 3 0 0 1 5.179-2.061z" fill="#e91e63"/><path d="m11.321 95.525-8.48-8.963a3 3 0 0 1 0-4.124l8.48-8.963a3 3 0 0 1 5.179 2.061v2.964h47.5v12h-47.5v2.964a3 3 0 0 1 -5.179 2.061z" fill="#8bc34a"/><circle cx="64" cy="62" fill="#ffb300" r="28.5"/><circle cx="64" cy="62" fill="#ffa000" r="20.5"/><g fill="#0288d1"><path d="m83.5 11h21a1.5 1.5 0 0 0 0-3h-21a1.5 1.5 0 0 0 0 3z"/><path d="m104.5 16h-13a1.5 1.5 0 0 0 0 3h13a1.5 1.5 0 0 0 0-3z"/><path d="m44.5 110h-21a1.5 1.5 0 0 0 0 3h21a1.5 1.5 0 0 0 0-3z"/><path d="m23.5 105h13a1.5 1.5 0 0 0 0-3h-13a1.5 1.5 0 0 0 0 3z"/></g><path d="m64.786 68.357h-2.357a1.645 1.645 0 0 1 -1.643-1.643 1.5 1.5 0 0 0 -3 0 4.651 4.651 0 0 0 4.714 4.643v1.643a1.5 1.5 0 0 0 3 0v-1.695a5.426 5.426 0 0 0 -.714-10.805h-1.572a2.429 2.429 0 0 1 0-4.857h2.357a1.645 1.645 0 0 1 1.643 1.643 1.5 1.5 0 0 0 3 0 4.65 4.65 0 0 0 -4.714-4.643v-1.643a1.5 1.5 0 0 0 -3 0v1.7a5.426 5.426 0 0 0 .714 10.8h1.572a2.429 2.429 0 0 1 0 4.857z" fill="#ffb300"/></g></g></svg>