<svg id="Layer_1" enable-background="new 0 0 53 53" viewBox="0 0 53 53" xmlns="http://www.w3.org/2000/svg"><g><g><g><g><g><g><g><g><g enable-background="new"><g><path d="m46.7 22.1v10.3l-23.6 13.8v-10.3c0-3-2.1-6.6-4.7-8.1l-15.8-9.1 23.6-13.7 15.8 9.1c2.6 1.5 4.7 5.1 4.7 8z" fill="#494948"/><path d="m46.7 22.1v10.3l-23.6 13.8v-10.3c0-3-2.1-6.6-4.7-8.1l-8.3-4.8 23.6-13.7 8.3 4.8c2.6 1.5 4.7 5.1 4.7 8z" fill="#383736"/><path d="m46.7 22.1v10.3l-23.6 13.8v-10.3c0-3-2.1-6.6-4.7-8.1l23.6-13.7c2.6 1.5 4.7 5.1 4.7 8z" fill="#21201f"/><path d="m46.7 22.1v10.4l-23.6 13.7v-10.4z" fill="#383736"/><path d="m45.3 22.2v11l-1.5.9-.3.2-15.4 9-.3.2-2.8 1.6v-9.6c0-3.4-2.3-7.4-5.3-9.1l-13.9-8 20.3-11.9 15.2 8.8c2.1 1.2 4 4.4 4 6.9z" fill="#e9e8e6"/></g><g><path d="m18.4 27.8c2.6 1.5 4.7 5.1 4.7 8.1v10.3l-20.5-11.8v-15.7z" fill="#434240"/><path d="m5.6 32.6v-8.8l11.3 6.5c1.7 1 3.2 3.6 3.2 5.5v5.1z" fill="#383736"/></g></g></g><g><path d="m25.7 8.5-16.4 9.6 2.1 1.2 16.4-9.6z" fill="#b6b9ba"/><path d="m37.9 15.6-10.1-5.9-16.4 9.6 10.1 5.8z" fill="#a2a4a5"/><path d="m26.9 12.7-2.1-1.2-12.3 7.2 2 1.1z" fill="#434240"/><path d="m13.9 19.1 11.7-6.8 7.5 4.3-11.7 6.8z" fill="#fff"/></g><path d="m25.7 8.5v2.5l12.2 4.6z" fill="#434240"/><g><g><path d="m35.3 21c.7-.4 1.7 0 2.2.9s.3 1.9-.4 2.4c-.7.4-1.7 0-2.2-.9s-.3-2 .4-2.4z" fill="#b6b9ba"/></g><g enable-background="new"><g><path d="m35.5 21.1.6-.3s0 0-.1 0z" fill="#f25a5a"/></g><g><path d="m37.5 23.7-.6.3c-.6.3-1.4 0-1.8-.8s-.3-1.7.4-2l.6-.3c-.6.4-.8 1.3-.4 2s1.2 1.1 1.8.8z" fill="#cc4848"/></g><g><path d="m37.5 23.7-.6.3c-.6.3-1.4 0-1.8-.8l.6-.3c.4.7 1.2 1.1 1.8.8z" fill="#c44141"/></g><g><path d="m36.1 20.8c.6-.4 1.5 0 1.9.7.4.8.3 1.7-.4 2-.6.4-1.5 0-1.9-.7s-.3-1.6.4-2z" fill="#f25a5a"/></g></g><g><path d="m39.3 18.7c.7-.4 1.7 0 2.2.9s.3 1.9-.4 2.4c-.7.4-1.7 0-2.2-.9-.5-1-.3-2 .4-2.4z" fill="#b6b9ba"/></g><g enable-background="new"><g><path d="m39.5 18.8.6-.3s0 0-.1 0z" fill="#81d672"/></g><g><path d="m41.5 21.4-.6.3c-.6.3-1.4 0-1.8-.8s-.3-1.7.4-2l.6-.3c-.6.4-.8 1.3-.4 2s1.2 1.1 1.8.8z" fill="#ddb040"/></g><g><path d="m41.5 21.4-.6.3c-.6.3-1.4 0-1.8-.8l.6-.3c.4.7 1.2 1.1 1.8.8z" fill="#cea03a"/></g><g><path d="m40.1 18.5c.6-.4 1.5 0 1.9.7.4.8.3 1.7-.4 2-.6.4-1.5 0-1.9-.7s-.3-1.6.4-2z" fill="#ffd651"/></g></g></g></g></g></g><g><g enable-background="new"><g><path d="m26.9 15.9c0 .5-.4 1-1 1.4s-1.5.6-2.4.6c0-1.1 1.5-2 3.4-2z" fill="#dcb846"/></g><g><path d="m22.5 16.5c.6.4 1 .8 1 1.4-.9 0-1.8-.2-2.4-.6s-1-.8-1-1.4c.9 0 1.8.2 2.4.6z" fill="#81d672"/></g><g><path d="m25.9 18.4c.6.4 1 .8 1 1.4-.9 0-1.8-.2-2.4-.6s-1-.8-1-1.4c.9 0 1.8.3 2.4.6z" fill="#f25a5a"/></g><g><path d="m23.5 17.8c0 .5-.4 1-1 1.4s-1.5.6-2.4.6c0-1.1 1.5-2 3.4-2z" fill="#0074d1"/></g></g></g><g><path d="m43.4 29.4-4.2 2.5 4.2 2.4z" fill="#21201f"/><path d="m39.2 31.9-11.2 6.4v5l15.4-9z" fill="#434240"/></g></g><g><g enable-background="new"><g><path d="m36 46.9v1.1l-8.1-4.6-.2-.2v-1.2l.3.2z" fill="#a2a4a5"/></g><g><path d="m36 46.8v1.2l14.4-8.3v-1.2z" fill="#909293"/></g><g><path d="m50.4 38.5-14.4 8.4-8-4.7-.3-.2v-7l8.3-4.8 3 1.7z" fill="#b6b9ba"/></g></g></g><path d="m28 38v-3.2c0-.8.6-1.8 1.3-2.2l13-7.6c.3-.2.6-.2.8-.1s.3.4.3.7v3.4zm15.7-12.3c0-.5-.2-.8-.5-1s-.7-.1-1.1.1l-13 7.5c-.8.5-1.4 1.6-1.4 2.5v.2 7 1.2.3l.2-.1h.1v-1.1-3.9l9.6-5.5 5.8-3.4v4.9l.3-.2z" fill="#a0a2a3"/><path d="m28 38v-3.2c0-.8.6-1.8 1.3-2.2l13-7.6c.3-.2.6-.2.8-.1s.3.4.3.7v3.4z" fill="#e9e8e6"/></g><path d="m18 26.7c.2.1.2.3 0 .4-.6.2-1.1.5-1.6 1-.4.4-.8 1-1 1.6-.1.2-.3.2-.4 0-.4-1.2-1.4-2.2-2.6-2.6-.2-.1-.2-.3 0-.4.6-.2 1.1-.5 1.6-1 .4-.4.8-1 1-1.6.1-.2.3-.2.4 0 .2.6.5 1.1 1 1.6.4.4 1 .8 1.6 1z" fill="#fff"/></g></g></svg>