<svg id="Capa_1" enable-background="new 0 0 510 510" height="512" viewBox="0 0 510 510" width="512" xmlns="http://www.w3.org/2000/svg" xmlns:xlink="http://www.w3.org/1999/xlink"><linearGradient id="lg1"><stop offset="0" stop-color="#eaf6ff"/><stop offset="1" stop-color="#b3dafe"/></linearGradient><linearGradient id="SVGID_1_" gradientUnits="userSpaceOnUse" x1="114.712" x2="194.982" xlink:href="#lg1" y1="193.414" y2="318.927"/><linearGradient id="SVGID_00000165198081736895912610000012825733473532341415_" gradientUnits="userSpaceOnUse" x1="232.049" x2="371.049" xlink:href="#lg1" y1="122.88" y2="187.88"/><linearGradient id="SVGID_00000141429061182397837080000000961909045188772768_" gradientUnits="userSpaceOnUse" x1="253.938" x2="428.765" xlink:href="#lg1" y1="120.992" y2="295.82"/><linearGradient id="SVGID_00000165194434924664651110000016516005186344069805_" gradientUnits="userSpaceOnUse" x1="162.496" x2="288.467" xlink:href="#lg1" y1="241.057" y2="367.027"/><linearGradient id="lg2"><stop offset="0" stop-color="#d8ecfe" stop-opacity="0"/><stop offset="1" stop-color="#678d98"/></linearGradient><linearGradient id="SVGID_00000116203529136101148920000007544465176762415765_" gradientUnits="userSpaceOnUse" x1="337.854" x2="238.854" xlink:href="#lg2" y1="358.88" y2="154.88"/><linearGradient id="SVGID_00000070120035113792283850000001605487520379595962_" gradientUnits="userSpaceOnUse" x1="432.606" x2="343.606" xlink:href="#lg2" y1="363.164" y2="304.664"/><linearGradient id="lg3"><stop offset="0" stop-color="#5a5a5a"/><stop offset="1" stop-color="#444"/></linearGradient><linearGradient id="SVGID_00000177479579011713812120000003912290448775807885_" gradientUnits="userSpaceOnUse" x1="171.941" x2="233.81" xlink:href="#lg3" y1="170.059" y2="231.928"/><linearGradient id="lg4"><stop offset="0" stop-color="#fd0"/><stop offset="1" stop-color="#ffb000"/></linearGradient><linearGradient id="SVGID_00000112628480794322731140000005047273331791314849_" gradientUnits="userSpaceOnUse" x1="197.732" x2="316.567" xlink:href="#lg4" y1="331.988" y2="450.823"/><linearGradient id="SVGID_00000049208626168112658750000014743390250995192467_" gradientUnits="userSpaceOnUse" x1="255" x2="255" y1="456.674" y2="517.137"><stop offset="0" stop-color="#fea613" stop-opacity="0"/><stop offset="1" stop-color="#e94444"/></linearGradient><linearGradient id="SVGID_00000146465608582334892880000008254792047595839384_" gradientUnits="userSpaceOnUse" x1="293.343" x2="218.579" xlink:href="#lg4" y1="422.657" y2="347.893"/><linearGradient id="SVGID_00000130645802078020926310000007262758184839629698_" gradientUnits="userSpaceOnUse" x1="221.312" x2="255.495" xlink:href="#lg3" y1="350.633" y2="384.816"/><linearGradient id="SVGID_00000014617820099671646830000011464854070881011339_" gradientUnits="userSpaceOnUse" x1="341.43" x2="341.43" xlink:href="#lg4" y1="373.449" y2="352.686"/><linearGradient id="SVGID_00000006705891277934306320000012655336432280774037_" gradientUnits="userSpaceOnUse" x1="341.43" x2="341.43" xlink:href="#lg4" y1="404.08" y2="383.317"/><linearGradient id="SVGID_00000089539658964608895160000004456719415906834056_" gradientUnits="userSpaceOnUse" x1="341.43" x2="341.43" xlink:href="#lg4" y1="434.712" y2="413.949"/><linearGradient id="SVGID_00000043416018450156675260000014200177724435399061_" gradientUnits="userSpaceOnUse" x1="168.57" x2="168.57" xlink:href="#lg4" y1="373.449" y2="352.686"/><linearGradient id="SVGID_00000080906734637018895640000008870657079997208488_" gradientUnits="userSpaceOnUse" x1="168.57" x2="168.57" xlink:href="#lg4" y1="404.08" y2="383.317"/><linearGradient id="SVGID_00000020363236552768710740000009168791819236602502_" gradientUnits="userSpaceOnUse" x1="168.57" x2="168.57" xlink:href="#lg4" y1="434.712" y2="413.949"/><g><g><circle cx="126.708" cy="212.171" fill="url(#SVGID_1_)" r="103.884"/><circle cx="243.858" cy="128.402" fill="url(#SVGID_00000165198081736895912610000012825733473532341415_)" r="128.402"/><circle cx="358.884" cy="225.939" fill="url(#SVGID_00000141429061182397837080000000961909045188772768_)" r="128.292"/><circle cx="219.34" cy="297.901" fill="url(#SVGID_00000165194434924664651110000016516005186344069805_)" r="71.962"/></g><path d="m463.105 300.757-141.728-141.729c-21.735-10.762-45.661-16.362-69.915-16.362h-11.328c-30.081 0-54.466 24.385-54.466 54.466v164.366c10.049 5.332 21.505 8.364 33.674 8.364 28.227 0 52.643-16.26 64.432-39.917 21.115 15.275 47.059 24.286 75.112 24.286 42.93 0 80.931-21.092 104.219-53.474z" fill="url(#SVGID_00000116203529136101148920000007544465176762415765_)"/><path d="m364.914 283.262v70.814c19.985-.925 38.771-6.421 55.344-15.47z" fill="url(#SVGID_00000070120035113792283850000001605487520379595962_)"/><path d="m181.525 335.5c-6.903 0-12.5-5.596-12.5-12.5v-109.389c0-47.406 38.568-85.974 85.975-85.974s85.975 38.568 85.975 85.974v21.386c0 6.903-5.597 12.5-12.5 12.5s-12.5-5.597-12.5-12.5v-21.386c0-33.621-27.354-60.974-60.975-60.974s-60.975 27.353-60.975 60.974v109.389c0 6.904-5.596 12.5-12.5 12.5z" fill="url(#SVGID_00000177479579011713812120000003912290448775807885_)"/><g><path d="m332.315 510h-154.63c-23.985 0-43.429-19.444-43.429-43.429v-154.63c0-23.985 19.444-43.429 43.429-43.429h154.63c23.985 0 43.429 19.444 43.429 43.429v154.63c0 23.985-19.444 43.429-43.429 43.429z" fill="url(#SVGID_00000112628480794322731140000005047273331791314849_)"/><path d="m134.256 410.474v56.097c0 23.985 19.444 43.429 43.429 43.429h154.63c23.985 0 43.429-19.444 43.429-43.429v-56.097z" fill="url(#SVGID_00000049208626168112658750000014743390250995192467_)"/></g><path d="m254.49 458.893c-14.882-.272-26.99-12.792-26.99-27.91v-17.458c-15.891-10.176-24.799-28.036-23.323-46.98 1.943-24.942 22.235-45.064 47.2-46.804 1.203-.083 2.422-.126 3.623-.126 28.11 0 50.98 22.87 50.98 50.981 0 17.323-8.95 33.601-23.48 42.93v17.873c0 7.346-2.86 14.251-8.054 19.445s-12.1 8.054-19.444 8.054c-.001-.001-.512-.005-.512-.005z" fill="url(#SVGID_00000146465608582334892880000008254792047595839384_)"/><path d="m290.981 370.595c0-20.725-17.522-37.357-38.561-35.891-17.611 1.228-31.917 15.405-33.289 33.006-1.115 14.303 6.142 27.015 17.386 33.759 3.683 2.209 5.982 6.143 5.982 10.438v19.075c0 6.882 5.384 12.786 12.265 12.912 7.011.129 12.735-5.516 12.735-12.498v-19.489c0-4.212 2.156-8.177 5.782-10.32 10.594-6.26 17.7-17.795 17.7-30.992z" fill="url(#SVGID_00000130645802078020926310000007262758184839629698_)"/><g><g><path d="m358.43 351.124h-34c-4.143 0-7.5 3.358-7.5 7.5s3.357 7.5 7.5 7.5h34c4.143 0 7.5-3.358 7.5-7.5s-3.358-7.5-7.5-7.5z" fill="url(#SVGID_00000014617820099671646830000011464854070881011339_)"/><path d="m358.43 381.756h-34c-4.143 0-7.5 3.358-7.5 7.5s3.357 7.5 7.5 7.5h34c4.143 0 7.5-3.358 7.5-7.5s-3.358-7.5-7.5-7.5z" fill="url(#SVGID_00000006705891277934306320000012655336432280774037_)"/><path d="m358.43 412.388h-34c-4.143 0-7.5 3.358-7.5 7.5s3.357 7.5 7.5 7.5h34c4.143 0 7.5-3.358 7.5-7.5s-3.358-7.5-7.5-7.5z" fill="url(#SVGID_00000089539658964608895160000004456719415906834056_)"/></g><g><path d="m185.57 351.124h-34c-4.143 0-7.5 3.358-7.5 7.5s3.357 7.5 7.5 7.5h34c4.143 0 7.5-3.358 7.5-7.5s-3.357-7.5-7.5-7.5z" fill="url(#SVGID_00000043416018450156675260000014200177724435399061_)"/><path d="m185.57 381.756h-34c-4.143 0-7.5 3.358-7.5 7.5s3.357 7.5 7.5 7.5h34c4.143 0 7.5-3.358 7.5-7.5s-3.357-7.5-7.5-7.5z" fill="url(#SVGID_00000080906734637018895640000008870657079997208488_)"/><path d="m185.57 412.388h-34c-4.143 0-7.5 3.358-7.5 7.5s3.357 7.5 7.5 7.5h34c4.143 0 7.5-3.358 7.5-7.5s-3.357-7.5-7.5-7.5z" fill="url(#SVGID_00000020363236552768710740000009168791819236602502_)"/></g></g></g></svg>