<svg id="Capa_1" enable-background="new 0 0 512 512" viewBox="0 0 512 512" xmlns="http://www.w3.org/2000/svg"><g><path d="m75.914 146.129s-75.914 193.328-75.914 263.436c0 19.949 16.167 36.116 36.116 36.116h219.884l23.65-143.352-23.65-156.2z" fill="#e7f2ff"/><path d="m512 182.246c0-19.949-16.167-36.116-36.116-36.116h-219.884v299.552h184.208c0-.001 71.792-179.454 71.792-263.436z" fill="#d1d5f7"/><g><path d="m256 127.944 9.354 50.796-9.354 64.619-93.127-46.564v-115.779l64.495 24.122z" fill="#00cb71"/><path d="m256 127.944v115.415l93.128-46.564v-115.779l-54.291 17.112z" fill="#00aa5e"/><path d="m162.873 81.016 93.127 46.928 5.571-50.075-5.571-43.417z" fill="#92e200"/><path d="m256 34.452v93.492l93.128-46.928z" fill="#00cb71"/></g><path d="m512 182.246v259.187c0 19.949-16.167 36.116-36.116 36.116h-45.676v-259.187h45.676c12.317-.036 23.074-6.028 29.753-15.636.011 0 .011-.011.011-.011 4.005-5.811 6.352-12.864 6.352-20.469z" fill="#969eee"/><path d="m81.793 114.262v259.187h-45.677c-19.938-.063-36.195 16.346-36.116 36.116v-259.187c0-19.949 16.167-36.116 36.116-36.116z" fill="#d1d5f7"/><path d="m157.406 293.905v30h98.594l7.134-14.204-7.134-15.796z" fill="#54469c"/><path d="m256 293.905h98.595v30h-98.595z" fill="#392e6e"/><path d="m157.406 383.905h98.594l5.305-15-5.305-15h-98.594z" fill="#54469c"/><path d="m256 353.905h98.595v30h-98.595z" fill="#392e6e"/></g><g/><g/><g/><g/><g/><g/><g/><g/><g/><g/><g/><g/><g/><g/><g/></svg>