<svg id="Layer_1" enable-background="new 0 0 110 110" viewBox="0 0 110 110" xmlns="http://www.w3.org/2000/svg"><g id="_x35_"><g><g><g><g><g enable-background="new"><g><g><path d="m96.866745 78.3799896-.0035477 2.0173874-39.1262855 22.602623.0035476-2.0173874z" fill="#3d4349"/></g></g><g><g><path d="m57.7404594 100.9826126-.0035476 2.0173874-44.5820856-25.9882736.0035448-2.0173798z" fill="#2a2f33"/></g></g><g><g><path d="m96.866745 78.3799896-39.1262856 22.602623-44.5820884-25.988266 38.684803-22.3632126z" fill="#4f575f"/></g></g></g></g><g><g enable-background="new"><g><g><path d="m14.7700949 77.6295242-1.6216765-.9424133-.0407161-12.6431274 1.6216754.9424209z" fill="#2a2f33"/></g></g><g><g><path d="m14.7293777 64.9864044-1.6216754-.9424209 39.2276439-22.6480866 1.6216736.9424133z" fill="#444b52"/></g></g><g><g><path d="m53.9570198 42.3383102.0407181 11.1868821-39.227643 22.6480865-.0407172-11.1868744z" fill="#202427"/></g></g></g></g><g><g enable-background="new"><g><g><path d="m95.2706223 75.6053314 1.6216735-.9424209-.0257721 3.7230682-1.6216735.942421z" fill="#3d4349"/></g></g><g><g><path d="m88.7633972 64.3343811 1.6216812-.9424133 6.5072174 11.2709427-1.6216735.9424209z" fill="#4e565e"/></g></g><g><g><path d="m52.3170853 43.2920952 1.6216774-.9424172 36.4463157 21.0422898-1.6216812.9424133z" fill="#444b52"/></g></g><g><g><path d="m88.7633972 64.3343811 6.5072251 11.2709503-.0257721 3.7230683-42.9748078-24.8115197.0470429-11.2247848z" fill="#2a2f33"/></g></g></g></g></g><g><g enable-background="new"><g><g><path d="m93.0322037 75.1369553-.0070877 4.0347747-32.3021508 18.7719574.0070916-4.0347747z" fill="#f3b2a1"/></g></g><g><g><path d="m60.7300568 93.9089127-.0070916 4.0347747-40.7621612-23.5340499.0070896-4.0347672z" fill="#e99b8a"/></g></g><g><g><path d="m93.0322037 75.1369553-32.3021469 18.7719574-40.7621632-23.5340424 32.3021488-18.7719574z" fill="#fdc8b8"/></g></g></g></g><g><g enable-background="new"><g><g><path d="m57.7644615 97.2595444 1.6216774-.9424134-.0257759 3.7230683-1.6216774.9424133z" fill="#3d4349"/></g></g><g><g><path d="m51.2572403 85.9886017 1.6216736-.9424133 6.507225 11.2709426-1.6216774.9424134z" fill="#4e565e"/></g></g><g><g><path d="m14.7293777 64.9864044 1.6216755-.9424209 36.5278607 21.0022049-1.6216736.9424133z" fill="#444b52"/></g></g><g><g><path d="m51.2572403 85.9886017 6.5072212 11.2709427-.0257759 3.7230682-42.9748039-24.8115158-.034504-11.1846924z" fill="#2a2f33"/></g></g></g></g></g><g><g enable-background="new"><g><g><path d="m23.3125782 64.1353073 1.6092033-.9351692-.0163803 5.7775536-1.6092014.9351654z" fill="#4f575f"/></g></g><g><g><path d="m19.3411465 61.8423996 1.6092014-.9351692 3.9714336 2.2929077-1.6092033.9351692z" fill="#a1b2ce"/></g></g><g><g><path d="m23.3125782 64.1353073-.0163784 5.7775498-3.9714336-2.2929078.0163803-5.7775497z" fill="#2a2f33"/></g></g></g></g><g><g enable-background="new"><g><g><path d="m45.6998291 77.0605927 1.6092033-.9351655-.0163803 5.7775498-1.6091995.9351654z" fill="#4f575f"/></g></g><g><g><path d="m41.7283974 74.7676849 1.6092033-.9351654 3.9714317 2.2929077-1.6092033.9351655z" fill="#a1b2ce"/></g></g><g><g><path d="m45.6998291 77.0605927-.0163765 5.7775497-3.9714355-2.2929077.0163803-5.7775498z" fill="#2a2f33"/></g></g></g></g><g><g><g><g enable-background="new"><g><g><path d="m96.866745 61.1820412-.0035477 2.0173874-39.1262855 22.6026268.0035476-2.0173874z" fill="#3d4349"/></g></g><g><g><path d="m57.7404594 83.784668-.0035476 2.0173874-44.5820856-25.9882737.0035448-2.0173874z" fill="#2a2f33"/></g></g><g><g><path d="m96.866745 61.1820412-39.1262856 22.6026268-44.5820884-25.9882737 38.684803-22.3632087z" fill="#4f575f"/></g></g></g></g><g><g enable-background="new"><g><g><path d="m14.7700949 60.4315758-1.6216765-.9424172-.0407161-12.6431198 1.6216754.9424133z" fill="#2a2f33"/></g></g><g><g><path d="m14.7293777 47.7884521-1.6216754-.9424133 39.2276439-22.6480903 1.6216736.9424152z" fill="#444b52"/></g></g><g><g><path d="m53.9570198 25.1403637.0407181 11.1868801-39.227643 22.6480904-.0407172-11.1868821z" fill="#202427"/></g></g></g></g><g><g enable-background="new"><g><g><path d="m95.2706223 58.4073792 1.6216735-.9424134-.0257721 3.7230683-1.6216735.9424133z" fill="#3d4349"/></g></g><g><g><path d="m88.7633972 47.1364365 1.6216812-.9424172 6.5072174 11.2709465-1.6216735.9424134z" fill="#4e565e"/></g></g><g><g><path d="m52.3170853 26.0941467 1.6216774-.9424152 36.4463157 21.0422878-1.6216812.9424172z" fill="#444b52"/></g></g><g><g><path d="m88.7633972 47.1364365 6.5072251 11.2709427-.0257721 3.7230682-42.9748078-24.8115158.0470429-11.2247849z" fill="#2a2f33"/></g></g></g></g></g><g><g enable-background="new"><g><g><path d="m93.0322037 57.9390068-.0070877 4.034771-32.3021508 18.7719574.0070916-4.0347672z" fill="#ffca6c"/></g></g><g><g><path d="m60.7300568 76.710968-.0070916 4.0347672-40.7621612-23.5340424.0070896-4.034771z" fill="#ffb63c"/></g></g><g><g><path d="m93.0322037 57.9390068-32.3021469 18.7719612-40.7621632-23.5340462 32.3021488-18.7719574z" fill="#ffde9b"/></g></g></g></g><g><g enable-background="new"><g><g><path d="m57.7644615 80.0615997 1.6216774-.9424209-.0257759 3.7230758-1.6216774.9424134z" fill="#3d4349"/></g></g><g><g><path d="m51.2572403 68.790657 1.6216736-.9424209 6.507225 11.2709427-1.6216774.9424209z" fill="#4e565e"/></g></g><g><g><path d="m14.7293777 47.7884521 1.6216755-.9424133 36.5278607 21.0021973-1.6216736.9424209z" fill="#444b52"/></g></g><g><g><path d="m51.2572403 68.790657 6.5072212 11.2709427-.0257759 3.7230683-42.9748039-24.8115158-.034504-11.1847001z" fill="#2a2f33"/></g></g></g></g></g><g><g enable-background="new"><g><g><path d="m23.3125782 46.8842545 1.6092033-.9351654-.0163803 5.7775535-1.6092014.9351654z" fill="#4f575f"/></g></g><g><g><path d="m19.3411465 44.5913467 1.6092014-.9351654 3.9714336 2.2929078-1.6092033.9351654z" fill="#a1b2ce"/></g></g><g><g><path d="m23.3125782 46.8842545-.0163784 5.7775535-3.9714336-2.2929077.0163803-5.7775536z" fill="#2a2f33"/></g></g></g></g><g><g enable-background="new"><g><g><path d="m45.6998291 59.8095436 1.6092033-.9351692-.0163803 5.7775574-1.6091995.9351654z" fill="#4f575f"/></g></g><g><g><path d="m41.7283974 57.5166359 1.6092033-.9351692 3.9714317 2.2929077-1.6092033.9351692z" fill="#a1b2ce"/></g></g><g><g><path d="m45.6998291 59.8095436-.0163765 5.7775536-3.9714355-2.2929116.0163803-5.7775497z" fill="#2a2f33"/></g></g></g></g><g><g><g><g enable-background="new"><g><g><path d="m96.866745 43.9840927-.0035477 2.0173874-39.1262855 22.602623.0035476-2.0173874z" fill="#3d4349"/></g></g><g><g><path d="m57.7404594 66.5867157-.0035476 2.0173874-44.5820856-25.9882698.0035448-2.0173836z" fill="#2a2f33"/></g></g><g><g><path d="m96.866745 43.9840927-39.1262856 22.602623-44.5820884-25.988266 38.684803-22.3632126z" fill="#4f575f"/></g></g></g></g><g><g enable-background="new"><g><g><path d="m14.7700949 43.2336273-1.6216765-.9424171-.0407161-12.6431198 1.6216754.9424152z" fill="#2a2f33"/></g></g><g><g><path d="m14.7293777 30.5905056-1.6216754-.9424152 39.2276439-22.6480904 1.6216736.9424152z" fill="#444b52"/></g></g><g><g><path d="m53.9570198 7.9424152.0407181 11.1868801-39.227643 22.6480904-.0407172-11.1868801z" fill="#202427"/></g></g></g></g><g><g enable-background="new"><g><g><path d="m95.2706223 41.2094307 1.6216735-.9424133-.0257721 3.7230682-1.6216735.9424133z" fill="#3d4349"/></g></g><g><g><path d="m88.7633972 29.938488 1.6216812-.9424152 6.5072174 11.2709446-1.6216735.9424133z" fill="#4e565e"/></g></g><g><g><path d="m52.3170853 8.8961973 1.6216774-.9424152 36.4463157 21.0422907-1.6216812.9424152z" fill="#444b52"/></g></g><g><g><path d="m88.7633972 29.938488 6.5072251 11.2709427-.0257721 3.7230682-42.9748078-24.8115139.0470429-11.2247877z" fill="#2a2f33"/></g></g></g></g></g><g><g enable-background="new"><g><g><path d="m93.0322037 37.2961578-.0070877 7.4796753-32.3021508 18.7719536.0070916-7.4796715z" fill="#cbdbf4"/></g></g><g><g><path d="m60.7300568 56.0681152-.0070916 7.4796715-40.7621612-23.5340423.0070896-7.4796753z" fill="#bbcfef"/></g></g><g><g><path d="m93.0322037 37.2961578-32.3021469 18.7719574-40.7621632-23.5340461 32.3021488-18.7719555z" fill="#ebf2ff"/></g></g></g></g><g><g enable-background="new"><g><g><path d="m57.7644615 62.8636475 1.6216774-.9424134-.0257759 3.7230683-1.6216774.9424133z" fill="#3d4349"/></g></g><g><g><path d="m51.2572403 51.5927048 1.6216736-.9424134 6.507225 11.2709427-1.6216774.9424134z" fill="#4e565e"/></g></g><g><g><path d="m14.7293777 30.5905056 1.6216755-.9424152 36.5278607 21.002201-1.6216736.9424134z" fill="#444b52"/></g></g><g><g><path d="m51.2572403 51.5927048 6.5072212 11.2709427-.0257759 3.7230682-42.9748039-24.811512-.034504-11.1846981z" fill="#2a2f33"/></g></g></g></g></g></g><g><g><g><path d="m77.4868164 52.3431625-13.5819473 7.9018708-1.4860497-.8608437z" fill="#fff"/></g></g></g><g><g><g><path d="m70.5168381 91.6262741-8.8215828 5.1323242-.9651985-.5591202z" fill="#e99b8a"/></g></g></g><g><g><g><path d="m89.7789917 79.4817886-8.8215866 5.1323166-.9651947-.5591202z" fill="#e99b8a"/></g></g></g><g><g><g><path d="m71.4646225 73.3367996-8.4847336 4.936348-.9283447-.5377731z" fill="#ffb63c"/></g></g></g><g><g><g><path d="m88.1560364 63.41259-12.1993408 7.0974732-1.3347702-.7732086z" fill="#ffb63c"/></g></g></g><g><g><g><path d="m91.4222412 41.4464951-9.7800293 5.6899414-1.0700683-.6198731z" fill="#fff"/></g></g></g></g></svg>