<?xml version="1.0" encoding="iso-8859-1"?>
<!-- Generator: Adobe Illustrator 19.0.0, SVG Export Plug-In . SVG Version: 6.00 Build 0)  -->
<svg version="1.1" id="Capa_1" xmlns="http://www.w3.org/2000/svg" xmlns:xlink="http://www.w3.org/1999/xlink" x="0px" y="0px"
	 viewBox="0 0 477.322 477.322" style="enable-background:new 0 0 477.322 477.322;" xml:space="preserve">
<circle style="fill:#3CA5AF;" cx="235.471" cy="130.96" r="111.9"/>
<g>
	<rect x="229.891" y="32.223" style="fill:#FFFFFF;" width="11.166" height="34.792"/>
	<rect x="299.411" y="125.38" style="fill:#FFFFFF;" width="34.793" height="11.164"/>
	<rect x="136.731" y="125.38" style="fill:#FFFFFF;" width="34.792" height="11.164"/>
	
		<rect x="287.389" y="56.056" transform="matrix(-0.707 -0.7072 0.7072 -0.707 448.1572 332.5746)" style="fill:#FFFFFF;" width="11.163" height="34.794"/>
	
		<rect x="160.557" y="67.864" transform="matrix(-0.7071 -0.7071 0.7071 -0.7071 251.8512 251.2114)" style="fill:#FFFFFF;" width="34.793" height="11.164"/>
</g>
<ellipse style="fill:#304E75;" cx="235.471" cy="214.419" rx="23.358" ry="14.1"/>
<ellipse style="fill:#72EEF7;" cx="235.471" cy="205.71" rx="23.358" ry="14.1"/>
<ellipse style="fill:#304E75;" cx="235.471" cy="196.999" rx="23.358" ry="14.1"/>
<path style="fill:#FFDC13;" d="M237.062,83.875h-3.176c-25.641,0.324-46.165,21.373-45.844,47.011
	c0.102,8.028,2.235,15.553,5.902,22.093c1.997,6.366,17.413,23.04,22.921,38.674c0.499,1.408,0.92,2.812,1.239,4.197
	c0,0.017,0.004,0.032,0.004,0.047c2.712,3.851,9.455,6.584,17.363,6.584c7.91,0,14.653-2.734,17.367-6.584
	c0-0.016,0.002-0.031,0.002-0.047c0.32-1.385,0.742-2.789,1.24-4.197c5.508-15.634,20.924-32.308,22.922-38.674
	c3.665-6.541,5.801-14.065,5.9-22.093C283.225,105.248,262.701,84.199,237.062,83.875z"/>
<g>
	<path style="fill:#FFFFFF;" d="M206.081,118.76l-7.383-3.014c4.76-11.656,14.905-20.287,27.139-23.091l1.782,7.773
		C217.911,102.652,209.86,109.507,206.081,118.76z"/>
	<path style="fill:#FFFFFF;" d="M251.02,190.742c0,4.332-6.959,7.841-15.548,7.841c-8.585,0-15.545-3.509-15.545-7.841
		c0-4.331,6.96-7.841,15.545-7.841C244.061,182.9,251.02,186.411,251.02,190.742z"/>
</g>
<path style="fill:#3CA5AF;" d="M246.681,146.934c0-6.188-5.016-11.207-11.207-11.207c-6.19,0-11.208,5.018-11.208,11.207
	c0,5.081,3.384,9.366,8.019,10.74v33.068c0,1.762,1.428,3.19,3.189,3.19c1.764,0,3.19-1.428,3.19-3.19v-33.068
	C243.299,156.299,246.681,152.014,246.681,146.934z"/>
<polygon style="fill:#72EEF7;" points="276.292,304.396 276.544,382.486 410.36,458.263 477.322,419.22 476.969,342.049 
	342.943,265.501 "/>
<polygon style="fill:#3CA5AF;" points="276.292,304.396 410.003,380.948 410.36,458.263 276.544,382.486 "/>
<polygon style="fill:#304E75;" points="476.969,342.049 410.003,380.948 410.36,458.263 477.322,419.22 "/>
<polygon style="fill:#FFFFFF;" points="309.798,323.531 376.449,284.635 443.463,322.91 376.811,361.808 "/>
<polygon style="fill:#E0904A;" points="350.659,274.846 350.917,321.606 379.372,337.826 379.118,291.466 "/>
<polygon style="fill:#BF6A3F;" points="379.118,291.466 407.769,274.538 407.653,321.294 379.372,337.826 "/>
<polygon style="fill:#FFD97D;" points="305.285,194.27 305.423,279.558 379.357,322.081 453.15,279.312 453.013,194.023 
	379.078,151.503 "/>
<polygon style="fill:#E0904A;" points="453.013,194.023 379.218,236.79 379.357,322.081 453.15,279.312 "/>
<path style="fill:#24170C;" d="M297.971,189.773l-0.031,29.551c0,0,23.187,14.383,51.186,0.052c0,0,6.492,22.74,30.071,41.305
	l25.997-15.527l-0.064,61.949l53.063-30.56l0.087-86.609l-78.967-47.096L297.971,189.773z"/>
<polygon style="fill:#3B2F25;" points="297.971,189.773 379.218,236.79 458.279,189.934 379.312,142.837 "/>
<polygon style="fill:#D6D6D6;" points="309.798,323.531 343.662,420.004 376.811,361.808 "/>
<polygon style="fill:#2DB357;" points="198.744,305.124 198.744,381.621 66.557,458.263 0,419.867 0,343.373 132.496,266.875 "/>
<polygon style="fill:#0E834C;" points="198.744,305.124 66.557,381.621 66.557,458.263 198.744,381.621 "/>
<polygon style="fill:#045D32;" points="0,343.373 66.557,381.621 66.557,458.263 0,419.867 "/>
<polygon style="fill:#FFFFFF;" points="165.621,324.25 99.373,286.001 33.124,324.247 99.371,362.498 "/>
<polygon style="fill:#D6D6D6;" points="165.621,324.25 132.495,420.031 99.371,362.498 "/>
<polygon style="fill:#9E2D00;" points="95.108,154.303 95.108,274.116 155.351,308.897 155.351,189.083 "/>
<polygon style="fill:#EB6B24;" points="155.351,308.897 160.442,305.944 160.442,209.339 155.351,206.294 "/>
<polygon style="fill:#E0904A;" points="125.229,276.143 125.229,322.491 97.11,338.722 97.11,292.767 "/>
<polygon style="fill:#BF6A3F;" points="97.11,292.767 68.99,276.143 68.99,322.491 97.11,338.722 "/>
<polygon style="fill:#FFD97D;" points="170.328,196.299 170.328,280.843 97.11,323.114 23.892,280.843 23.892,195.04 97.11,154.027 
	"/>
<polygon style="fill:#E0904A;" points="23.892,195.04 23.892,280.843 97.11,323.114 97.11,238.57 "/>
<polygon style="fill:#9E2D00;" points="177.692,192.046 177.692,214.902 97.11,262.254 71.351,246.834 71.351,354.268 
	18.789,323.92 18.789,192.046 97.11,145.441 "/>
<polygon style="fill:#FFA511;" points="177.692,192.046 97.11,238.57 18.789,192.046 97.11,145.441 "/>
<g>
	<polygon style="fill:#EB6B24;" points="71.351,354.268 76.44,351.315 76.44,249.88 71.351,246.834 	"/>
	<polygon style="fill:#EB6B24;" points="97.11,238.57 97.11,262.254 177.692,214.902 177.692,192.046 	"/>
</g>
<g>
</g>
<g>
</g>
<g>
</g>
<g>
</g>
<g>
</g>
<g>
</g>
<g>
</g>
<g>
</g>
<g>
</g>
<g>
</g>
<g>
</g>
<g>
</g>
<g>
</g>
<g>
</g>
<g>
</g>
</svg>
