<svg id="Capa_1" enable-background="new 0 0 512 512" height="512" viewBox="0 0 512 512" width="512" xmlns="http://www.w3.org/2000/svg" xmlns:xlink="http://www.w3.org/1999/xlink"><linearGradient id="SVGID_1_" gradientUnits="userSpaceOnUse" x1="144.277" x2="316.201" y1="268.569" y2="-29.211"><stop offset=".0319" stop-color="#b096ed"/><stop offset=".0645" stop-color="#b9a3ee"/><stop offset=".1414" stop-color="#cbbbf1"/><stop offset=".2286" stop-color="#d9cef3"/><stop offset=".3305" stop-color="#e3dbf5"/><stop offset=".4611" stop-color="#e8e3f6"/><stop offset=".719" stop-color="#eae5f6"/><stop offset=".7626" stop-color="#e0daf0"/><stop offset=".8254" stop-color="#dbd3ed"/><stop offset="1" stop-color="#d9d1ec"/></linearGradient><linearGradient id="lg1"><stop offset="0" stop-color="#e1daef"/><stop offset="1" stop-color="#fff"/></linearGradient><linearGradient id="SVGID_00000096017118623480669900000012970967147682062482_" gradientUnits="userSpaceOnUse" x1="260.364" x2="260.364" xlink:href="#lg1" y1="533.282" y2="141.611"/><linearGradient id="SVGID_00000041277768854395306840000002040046050887220105_" gradientUnits="userSpaceOnUse" x1="260.364" x2="260.364" y1="553.709" y2="166.478"><stop offset="0" stop-color="#ffc538"/><stop offset="1" stop-color="#f7e041"/></linearGradient><linearGradient id="lg2"><stop offset="0" stop-color="#43386b"/><stop offset=".0815" stop-color="#453a6e"/><stop offset="1" stop-color="#594a8e"/></linearGradient><linearGradient id="SVGID_00000123432652418122842170000017674354003425740177_" gradientUnits="userSpaceOnUse" x1="189.559" x2="189.559" xlink:href="#lg2" y1="475.931" y2="71.618"/><linearGradient id="SVGID_00000120532981656928621270000010405504444346394530_" gradientUnits="userSpaceOnUse" x1="329.253" x2="329.253" xlink:href="#lg2" y1="475.931" y2="71.618"/><linearGradient id="SVGID_00000005252359394128795330000006820033808728413092_" gradientUnits="userSpaceOnUse" x1="339.496" x2="339.496" y1="555.06" y2="176.793"><stop offset="0" stop-color="#1e1b28"/><stop offset="1" stop-color="#1e1b28" stop-opacity="0"/></linearGradient><linearGradient id="SVGID_00000077286260134040938770000003014520939367027104_" gradientUnits="userSpaceOnUse" x1="334.278" x2="360.49" y1="417.079" y2="417.079"><stop offset="0" stop-color="#ff7b2a"/><stop offset="1" stop-color="#ffc51e"/></linearGradient><linearGradient id="SVGID_00000080895407497926110020000014347525947326532285_" gradientUnits="userSpaceOnUse" x1="331.394" x2="427.524" y1="323.106" y2="378.607"><stop offset="0" stop-color="#ffc51e"/><stop offset="1" stop-color="#fff2b0"/></linearGradient><linearGradient id="lg3"><stop offset=".0319" stop-color="#7e62c0"/><stop offset="1" stop-color="#7e62c0" stop-opacity="0"/></linearGradient><linearGradient id="SVGID_00000121973051199929040430000010653541252494903198_" gradientUnits="userSpaceOnUse" x1="341.164" x2="293.279" xlink:href="#lg3" y1="377.738" y2="377.738"/><linearGradient id="SVGID_00000070807297151340626250000007074399639057877639_" gradientUnits="userSpaceOnUse" x1="436.691" x2="375.394" xlink:href="#lg3" y1="325.858" y2="325.858"/><linearGradient id="SVGID_00000058560003311345804210000013503479519617146022_" gradientUnits="userSpaceOnUse" x1="382.81" x2="382.81" xlink:href="#lg1" y1="366.295" y2="217.921"/><linearGradient id="SVGID_00000079445059881357546170000003592953417517180066_" gradientUnits="userSpaceOnUse" x1="414.661" x2="414.661" xlink:href="#lg3" y1="234.437" y2="308.085"/><g><g><path d="m417.144 28.894-43.378-25.044c-3.684-2.223-6.064-4.263-10.185-3.778l-138.09 16.237c-3.626.426-7.409 1.777-11.192 3.961s-7.566 5.202-11.193 8.963l-138.089 143.215c-8.967 9.3-14.985 24.029-14.985 36.676v103.712c0 75.278 24.778 131.233 66.311 155.203l-.005.01.41.237c.063.036.126.073.189.109l36.268 20.939z" fill="url(#SVGID_1_)"/><path d="m409.646 27.382-138.09 16.236c-7.252.853-15.133 5.403-22.385 12.924l-138.089 143.216c-8.967 9.3-14.985 24.029-14.985 36.676v103.713c0 96.762 40.927 161.622 105.772 167.627l44.876 4.155c8.568.793 18.668-5.038 27.237-15.725l44.876-55.974c64.845-80.882 105.772-193.001 105.772-289.762v-103.713c.001-12.648-6.017-20.427-14.984-19.373z" fill="url(#SVGID_00000096017118623480669900000012970967147682062482_)"/><path d="m260.364 77.79c1.298-.75 2.579-1.203 3.806-1.347l137.803-16.203v103.309c0 41.873-8.713 87.874-25.197 133.032s-40.03 87.527-68.091 122.528l-44.876 55.974c-1.064 1.327-2.255 2.392-3.446 3.079-1.19.687-2.382.998-3.446.9l-44.876-4.155c-28.061-2.599-51.607-17.78-68.091-43.904s-25.197-62.064-25.197-103.937v-103.31l137.805-142.918c1.227-1.273 2.507-2.299 3.806-3.048z" fill="url(#SVGID_00000041277768854395306840000002040046050887220105_)"/></g><path d="m260.364 77.79c-1.299.75-2.579 1.775-3.806 3.048l-137.804 142.918v103.309c0 16.115 1.296 31.346 3.823 45.482l137.786-79.551v-215.206z" fill="url(#SVGID_00000123432652418122842170000017674354003425740177_)"/><path d="m260.364 292.996v185.165c1.19-.687 2.382-1.752 3.446-3.079l44.876-55.974c28.061-35.001 51.607-77.37 68.091-122.528 10.14-27.778 17.326-55.872 21.366-83.131z" fill="url(#SVGID_00000120532981656928621270000010405504444346394530_)"/><path d="m386.54 224.568c-13.178-7.608-28.912-7.608-42.091.001-31.399 18.128-50.905 51.913-50.905 88.169v25.019c-3.891 2.895-7.669 5.845-11.3 8.866l-5.638 4.69-3.127 2.602c-.222.185-.426.375-.612.57-.474.498-.818 1.028-1.06 1.575-.233.526-.372 1.068-.396 1.62-.005.124.008.249.013.374l-.017.005v106.526l.011-.003c.008 2.191 1.62 4.486 4.697 6.262l11.396 6.579 1.045.603 30.304-37.797c40.022-49.92 70.927-111.739 88.728-174.502v-4.707c-.002-15.217-7.869-28.844-21.048-36.452zm-3.115 65.679-11.554 4.629c-3.69 1.479-7.314 3.003-10.895 4.557h-.001c-5.561 2.412-10.99 4.912-16.283 7.499-.336.164-.668.33-1.003.495-2.197 1.082-4.37 2.179-6.519 3.29-.457.236-.916.47-1.371.707-2.462 1.288-4.9 2.589-7.298 3.915-.002.001-.004.002-.005.003-3.675 2.032-7.273 4.11-10.793 6.231v-8.836c0-27.653 14.877-53.42 38.824-67.246.544-.314 1.102-.581 1.668-.824 8.42-3.619 15.288-.067 17.973 1.964 4.585 3.469 7.256 9.038 7.256 14.893v28.723z" fill="url(#SVGID_00000005252359394128795330000006820033808728413092_)"/><g><path d="m461.968 328.967-158.317 47.561v106.527l.011-.003c.008 2.191 1.62 4.486 4.697 6.262l11.396 6.579 11.395 6.579c5.076 2.93 12.596 3.576 17.723 1.522l12.63-5.061c35.059-14.048 65.296-31.505 89.627-51.746l8.766-7.292c1.395-1.16 2.061-2.533 2.062-3.949l.01-.003z" fill="url(#SVGID_00000077286260134040938770000003014520939367027104_)"/><path d="m404.116 313.346 12.63-5.061c5.127-2.054 12.647-1.409 17.723 1.521l11.396 6.579 11.396 6.579c5.076 2.93 6.194 7.272 2.635 10.232l-8.766 7.292c-24.331 20.241-54.568 37.698-89.627 51.746l-12.63 5.061c-5.127 2.054-12.647 1.409-17.723-1.522l-11.396-6.579-11.396-6.579c-5.076-2.93-6.194-7.272-2.635-10.232l8.766-7.292c24.332-20.239 54.568-37.697 89.627-51.745z" fill="url(#SVGID_00000080895407497926110020000014347525947326532285_)"/><path d="m305.724 372.385c-3.558 2.96-2.44 7.302 2.635 10.232l5.329 3.076h25.355v-15.91h-30.191z" fill="url(#SVGID_00000121973051199929040430000010653541252494903198_)"/><path d="m360.742 333.813h67.573v-15.91h-35.094c-11.389 4.939-22.235 10.245-32.479 15.91z" fill="url(#SVGID_00000070807297151340626250000007074399639057877639_)"/><path d="m439.831 279.491c0-15.217-7.867-28.844-21.046-36.452-13.178-7.608-28.913-7.608-42.091 0-31.399 18.128-50.905 51.913-50.905 88.169v46.561l.023.002c.014 1.923 1.415 3.947 4.157 5.53 5.039 2.909 12.661 3.225 17.024.706 1.998-1.153 2.954-2.702 2.934-4.32l.023.002v-48.479c0-27.652 14.877-53.42 38.824-67.246 5.615-3.241 12.316-3.242 17.932 0 5.613 3.241 8.965 9.046 8.965 15.529v46.47l.027.002c.055 1.897 1.452 3.884 4.153 5.444 5.039 2.909 12.661 3.225 17.024.706 1.892-1.092 2.857-2.538 2.937-4.063l.02.002v-48.563z" fill="url(#SVGID_00000058560003311345804210000013503479519617146022_)"/><path d="m425.263 326.019v-42.254c0-18.141-19.638-29.478-35.348-20.408 5.214-2.546 11.201-2.429 16.343.354 5.909 3.199 9.411 9.564 9.411 16.283v45.965l.027.002c.055 1.897 1.452 3.884 4.153 5.444 5.039 2.909 12.661 3.225 17.024.706 1.244-.718 2.079-1.59 2.534-2.536-9.339 1.211-14.144-3.556-14.144-3.556z" fill="url(#SVGID_00000079445059881357546170000003592953417517180066_)"/></g></g></svg>