<svg id="Capa_1" enable-background="new 0 0 512 512" height="512" viewBox="0 0 512 512" width="512" xmlns="http://www.w3.org/2000/svg"><g><g><g><g><g><g><g><path d="m92.334 452.858c-56.42-46.959-92.334-117.715-92.334-196.858 0-141.385 114.615-256 256-256s256 114.615 256 256c0 79.143-35.914 149.899-92.334 196.858z" fill="#7584f2"/></g></g></g></g></g></g><path d="m419.652 452.869c56.428-46.959 92.348-117.719 92.348-196.869 0-1.027-.006-2.053-.018-3.078l-81.928-81.928-5.95 9.602-123.796-123.796-218.361 226.266 203.067 203.067z" fill="#4253ce"/><path d="m353.308 348.923h-194.616c-27.306 0-50.725 19.482-55.695 46.332l-10.663 57.602c44.371 36.93 101.425 59.143 163.666 59.143s119.295-22.213 163.665-59.143l-10.663-57.602c-4.969-26.85-28.388-46.332-55.694-46.332z" fill="#fdba12"/><path d="m353.308 348.923h-97.664v163.076c.119 0 .237.001.356.001 62.205 0 119.228-22.187 163.588-59.078.026-.021.052-.043.078-.065l-10.663-57.602c-4.97-26.85-28.389-46.332-55.695-46.332z" fill="#ffa300"/><g><g><path d="m81.947 170.994h77.668v112.072h-77.668z" fill="#fdba12"/></g><g><path d="m352.386 170.994h77.668v112.072h-77.668z" fill="#ffa300"/></g></g><g><path d="m211.692 56.8h88.615v62.552h-88.615z" fill="#fdba12"/></g><g><path d="m255.644 56.8h44.664v62.552h-44.664z" fill="#ffa300"/></g><g><ellipse cx="256" cy="225.075" fill="#ffce00" rx="135.696" ry="135.696" transform="matrix(.707 -.707 .707 .707 -84.172 246.942)"/></g><g><path d="m256 89.379c-.119 0-.237.004-.356.005v271.384c.119 0 .237.005.356.005 74.943 0 135.696-60.753 135.696-135.696 0-74.945-60.753-135.698-135.696-135.698z" fill="#fdba12"/></g><g><ellipse cx="256" cy="225.075" fill="#fdba12" rx="100.332" ry="100.332" transform="matrix(.707 -.707 .707 .707 -84.172 246.942)"/></g><g><path d="m256 124.743c-.119 0-.237.004-.356.004v200.655c.119 0 .237.005.356.005 55.412 0 100.332-44.92 100.332-100.332s-44.92-100.332-100.332-100.332z" fill="#ffa300"/></g><g><path d="m295.388 225.076-39.388 67.75c-37.417 0-67.75-30.333-67.75-67.75s30.333-67.75 67.75-67.75z" fill="#a0f6fa"/></g><g><path d="m256 157.325c-.119 0-.237.008-.356.009v135.483c.119 0 .237.009.356.009 37.417 0 67.75-30.333 67.75-67.75 0-37.418-30.333-67.751-67.75-67.751z" fill="#53edf5"/></g><g><g><ellipse cx="256" cy="140.533" fill="#ffa300" rx="9.321" ry="9.321" transform="matrix(.936 -.352 .352 .936 -33.078 99.066)"/></g><g><path d="m256 131.212c-.12 0-.237.013-.356.018v18.606c.119.005.236.018.356.018 5.148 0 9.321-4.173 9.321-9.321s-4.173-9.321-9.321-9.321z" fill="#fe8205"/></g><g><ellipse cx="256" cy="309.618" fill="#ffa300" rx="9.321" ry="9.321" transform="matrix(.154 -.988 .988 .154 -89.235 515.075)"/></g><g><path d="m256 300.297c-.12 0-.237.014-.356.018v18.606c.119.004.236.018.356.018 5.148 0 9.321-4.173 9.321-9.321s-4.173-9.321-9.321-9.321z" fill="#fe8205"/></g></g><g><g><circle cx="340.543" cy="225.076" fill="#fe8205" r="9.321"/></g><g><ellipse cx="171.457" cy="225.076" fill="#ffa300" rx="9.321" ry="9.321" transform="matrix(.231 -.973 .973 .231 -87.099 339.99)"/></g></g><g><g><path d="m322.372 171.885c-3.64 3.64-9.542 3.64-13.182 0s-3.64-9.542 0-13.182 9.542-3.64 13.182 0c3.64 3.641 3.64 9.542 0 13.182z" fill="#fe8205"/></g><g><circle cx="196.219" cy="284.854" fill="#ffa300" r="9.321"/></g></g><g><g><path d="m202.81 158.704c3.64 3.64 3.64 9.542 0 13.182s-9.542 3.64-13.182 0-3.64-9.542 0-13.182 9.542-3.64 13.182 0z" fill="#ffa300"/></g><g><ellipse cx="315.781" cy="284.855" fill="#fe8205" rx="9.321" ry="9.321" transform="matrix(.994 -.114 .114 .994 -30.389 37.82)"/></g></g></g></svg>