<svg id="Capa_1" enable-background="new 0 0 512 512" viewBox="0 0 512 512" xmlns="http://www.w3.org/2000/svg"><g><g><g><g><path d="m512 256c0 17.38-1.73 34.35-5.03 50.75l-.01-.03-119.42 144.75-239.35 36.78v.01c-68.94-32.05-121.22-93.9-140.31-169l.07.19 40.06-169.13 168.63-147.3h-.05c12.85-1.99 26.01-3.02 39.41-3.02 66.96 0 127.9 25.7 173.51 67.77v.03c-12.93 83.73 77.44 137.46 77.44 137.46l.01-.05c3.31 16.41 5.04 33.4 5.04 50.79z" fill="#fe255f"/><g fill="#e01152"><circle cx="256" cy="256" r="139.175"/><path d="m455.63 95.77-46.81 37.65c-6.14-7.66-12.85-14.84-20.06-21.48-12.55-11.57-12.99-31.23-.92-43.3l.05-.05c11.4-11.41 29.76-11.73 41.62-.79 9.38 8.66 18.12 18.01 26.12 27.97z"/><path d="m477.76 240.83h-.51c-14.1 0-26.33-9.89-29.13-23.72-2.3-11.37-5.58-22.39-9.77-32.96l55.92-21.85v-.03c5.43 13.78 9.7 28.15 12.68 42.99 3.7 18.4-10.42 35.57-29.19 35.57z"/></g><g><path d="m411.561 93.458c-.142.141-.284.283-.426.424-10.725 10.672-11.814 27.758-2.332 39.549 12.236 15.214 22.252 32.284 29.546 50.719 4.465 11.284 15.451 18.629 27.586 18.629h.591c20.901 0 35.402-21.034 27.748-40.483-9.521-24.193-22.62-46.585-38.645-66.526-11.031-13.727-31.586-14.734-44.068-2.312z" fill="#c40047"/></g><g><g fill="#e01152"><path d="m173.93 433.96c15.11 7 31.26 12.13 48.14 15.09l-10.56 59.09c-22.22-3.89-43.46-10.65-63.32-19.89-18.69-8.69-22.81-33.46-8.2-47.99.15-.14.29-.29.44-.43 8.83-8.78 22.19-11.1 33.5-5.87z"/><path d="m402.24 466.13c-26.02 18.15-55.57 31.59-87.42 39.08l-14.26-58.32v-.01c24.71-5.76 47.63-16.21 67.78-30.35z"/><path d="m506.96 306.72c-5.54 27.56-15.5 53.52-29.12 77.1v-.01l-51.93-30.19c10.37-17.96 17.96-37.71 22.2-58.66 2.8-13.85 15.01-23.79 29.14-23.79h.52c18.76 0 32.88 17.16 29.19 35.55z"/></g><g fill="#c40047"><path d="m186.867 478.608c0 14.507 10.357 27.03 24.646 29.536 14.448 2.534 29.313 3.856 44.487 3.856 20.243 0 39.936-2.351 58.822-6.793 19.564-4.602 28.885-27.035 18.513-44.25l-.315-.523c-6.701-11.121-19.819-16.504-32.463-13.551-14.319 3.345-29.234 5.117-44.557 5.117-11.571 0-22.908-1.012-33.932-2.949-18.37-3.228-35.201 10.904-35.201 29.557z"/><path d="m425.914 353.617c-14.383 24.939-34.099 46.432-57.577 62.912-12.858 9.025-16.682 26.364-8.547 39.802l.424.701c8.798 14.534 28.086 18.811 42.022 9.093 30.842-21.507 56.728-49.63 75.599-82.313 9.15-15.848 2.271-36.118-14.696-42.975-13.86-5.601-29.756-.17-37.225 12.78z"/></g><path d="m66.05 304.39c4.86 19.02-9.27 37.57-28.9 37.57h-.22c-13.67 0-25.6-9.26-28.98-22.51-3.82-14.91-6.32-30.35-7.37-46.18l59.87-4.02c.8 12.04 2.7 23.79 5.6 35.14z" fill="#ff4881"/><path d="m68.4 81.84 44.09 40.8c-16.69 17.94-30.05 38.99-39.12 62.19l-55.82-22.14-.02.01c11.83-30.2 29.22-57.6 50.93-80.94z" fill="#ff4881"/><path d="m251.4 32.65c0 14.86-10.89 27.4-25.58 29.67-11.19 1.74-22.06 4.42-32.54 7.97l-19.03-56.93h-.02c13.66-4.61 27.83-8.09 42.41-10.34 1.58-.24 3.14-.36 4.69-.36 16.29 0 30.07 13.12 30.07 29.99z" fill="#ff4881"/><g fill="#fc709b"><path d="m30.794 301.026c17.224 0 30.819-14.586 29.654-31.771-.297-4.38-.448-8.8-.448-13.255 0-25.093 4.744-49.096 13.378-71.166 4.966-12.695.847-27.133-10.205-35.112-.163-.118-.327-.236-.49-.354-15.78-11.399-38.028-4.801-45.13 13.324-11.329 28.909-17.553 60.379-17.553 93.308 0 5.804.194 11.561.577 17.267 1.046 15.621 14.019 27.759 29.674 27.759z"/><path d="m112.498 122.646c21.943-23.594 49.619-41.789 80.787-52.343 12.247-4.147 20.552-15.549 20.552-28.479 0-20.519-20.136-35.008-39.582-28.46-40.88 13.764-77.143 37.567-105.858 68.476-12.104 13.029-9.876 33.755 4.528 44.187.169.123.339.245.508.368 12.102 8.76 28.891 7.191 39.065-3.749z"/></g></g></g></g></g><g><g><g><g><path d="m380.13 189.58c-4.51 22.38-15.27 42.29-30.79 58.08 0 0-130.54-1.34-160.59 108.08l-12.93-.19c-7.93-.12-14.33-6.53-14.41-14.46-.05-4.24-.13-17.64-.2-21.39-.56-28.9-1.08-56.18 20.59-80.25 17.3-19.22 43.01-29.73 90.57-44.65 16.63-5.57 20.74-17.61 21.73-22.55 1.02-5.03 1.39-14.61-7.46-22.3-10.36-9-23.13-12.51-39.01-10.72-18.33 2.06-35.64 10.79-46.05 19.02-5.2 4.11-12.48 4.35-17.83.43l-48.14-35.25c-7.13-5.22-8.11-15.59-1.93-21.91 12.76-13.07 29.24-24.45 47.47-33.08 0 0 82.84 50.17 187.2 44.77h.01c12.81 22.72 17.19 49.5 11.77 76.37z" fill="#ffc751"/></g></g><g><circle cx="205.055" cy="417.105" fill="#ffc751" r="43.878"/><circle cx="195.993" cy="408.044" fill="#ffe059" r="31.062"/></g></g><g><path d="m225.12 53.96 12.8 66.08c-9.5 1.07-19.1 3.98-27.81 8.22-11.51 5.58-25.23 3.82-35.1-4.31-.18-.14-.35-.29-.53-.44-18.55-15.28-15.05-44.79 6.67-55.07 13.93-6.59 28.88-11.58 43.98-14.49z" fill="#ffe059"/><path d="m337.35 165.52c-12.26 0-23.87-6.15-30.23-16.63-7.27-11.98-19.66-20.64-33.76-25.37l22.68-66.6c17.59 5.35 33.8 14.32 48.14 26.77 9.91 8.61 18.02 18.6 24.17 29.52 13.18 23.39-4.16 52.31-31 52.31z" fill="#ffe059"/><path d="m312.181 111.445c.504-.697 1.009-1.394 1.514-2.09 13.72-18.894 4.681-45.635-17.656-52.44-18.103-5.515-37.678-7.199-58.208-4.895-4.235.476-8.477 1.126-12.708 1.94-21.777 4.191-33.516 27.98-23.516 47.774.1.198.2.396.3.594 6.352 12.589 19.993 19.931 33.957 17.975.687-.096 1.374-.183 2.061-.26 11.748-1.578 24.144-.312 35.439 3.479 14.266 4.79 29.999.12 38.817-12.077z" fill="#fff370"/><path d="m259.69 230.54 18.62 54.61c-8.5 2.89-15.36 5.43-20.58 7.61-5.41 2.27-8.97 7.54-8.94 13.42.01 1.15.04 4.33.08 8.37l-60.12-.04v-22.25c0-22.4 14.25-42.33 35.44-49.58z" fill="#ffaf40"/><path d="m349.41 247.58c-.01.03-.04.06-.07.08-10.54 10.73-23.28 19.56-37.74 25.95l-29.29-52.97c6.1-4.12 11.26-9.28 15.25-15.25 6.24-9.32 16.7-14.94 27.92-14.94 29.8 0 44.73 35.83 23.93 57.13z" fill="#ffaf40"/><g fill="#ff993a"><path d="m188.754 314.507v41.232l45.575.647c8.212.118 14.917-6.541 14.847-14.741-.019-2.104.007-14.46.023-27.097.02-15.736-12.037-28.856-27.719-30.159-17.618-1.465-32.726 12.439-32.726 30.118z"/><path d="m318.359 222.373c-10.333-8.436-24.996-9.196-36.053-1.735-4.506 3.04-9.523 5.505-14.962 7.293l-.276.088-7.381 2.525c-17.924 6.131-25.174 27.581-14.645 43.329 7.261 10.861 20.903 15.487 33.27 11.277 6.055-2.061 12.935-4.3 20.634-6.713l.578-.184c4.146-1.362 8.176-2.913 12.081-4.64 20.65-9.138 24.247-36.959 6.754-51.24z"/></g></g></g></g><g/><g/><g/><g/><g/><g/><g/><g/><g/><g/><g/><g/><g/><g/><g/></svg>