<svg id="Layer_1" enable-background="new 0 0 512 512" height="512" viewBox="0 0 512 512" width="512" xmlns="http://www.w3.org/2000/svg" xmlns:xlink="http://www.w3.org/1999/xlink"><linearGradient id="lg1"><stop offset="0" stop-color="#fdae3e"/><stop offset="1" stop-color="#ff0749"/></linearGradient><linearGradient id="SVGID_1_" gradientTransform="matrix(1 0 0 -1 0 512)" gradientUnits="userSpaceOnUse" x1="254.934" x2="254.934" xlink:href="#lg1" y1="-3.06" y2="506.78"/><linearGradient id="SVGID_00000099655490188534354720000004073962994488867713_" gradientTransform="matrix(1 0 0 -1 0 512)" gradientUnits="userSpaceOnUse" x1="254.934" x2="254.934" xlink:href="#lg1" y1="503.64" y2="7.61"/><linearGradient id="SVGID_00000076565844169163047130000002986624552093897872_" gradientTransform="matrix(1 0 0 -1 0 512)" gradientUnits="userSpaceOnUse" x1="257.065" x2="257.065" xlink:href="#lg1" y1="-3.06" y2="506.78"/><linearGradient id="SVGID_00000058546858047406351200000000703811552041180600_" gradientTransform="matrix(1 0 0 -1 0 512)" gradientUnits="userSpaceOnUse" x1="257.082" x2="257.082" xlink:href="#lg1" y1="503.64" y2="7.61"/><g id="Layer_2_00000183250991207865415330000006040779741890715521_"><g id="circular_arrow"><path d="m63.5 264.9c-15.9 0-31-7.2-41-19.6-10-12.2-13.8-28.3-10.5-43.7 29.3-137.6 164.7-225.4 302.3-196 37.9 8.1 73.5 24.8 104 48.7l29.9-21.8c5.2-3.8 11.5-5.9 18-5.9 18.4.2 33.1 15.3 32.9 33.6l-1.3 116.1-.3 27.2c.1 16.8-13.5 30.5-30.3 30.6-.1 0-.1 0-.2 0-3.2 0-6.3-.5-9.4-1.4l-137-42c-12.1-3.7-21.1-13.9-23.1-26.4-2.1-11.6 2.6-23.5 12.1-30.5l17.9-13.1c-74-36.7-163.7-6.5-200.4 67.4-5.5 11.1-9.6 22.8-12.2 35-5.2 24.2-26.6 41.6-51.4 41.8z" fill="url(#SVGID_1_)"/><path d="m63.5 254.9c20.2 0 37.5-14.2 41.7-33.9 6.4-30 21.4-57.4 43.1-79.1 53.6-53.6 136.1-61 197.8-22.3l-30.5 22.3c-14.4 10.5-9.6 33.9 8 39.3l137 42c10.8 3.5 22.4-2.4 25.9-13.2.7-2.1 1-4.3 1-6.5l.3-27.2.1-13.5 1.2-102.6c.2-18.4-20.6-30.1-35-19.6l-36 26.4c-96.2-80.6-239.7-75.7-330.1 14.7-33.5 33.4-56.5 75.8-66.3 122-5.6 26.4 14.8 51.2 41.8 51.2z" fill="url(#SVGID_00000099655490188534354720000004073962994488867713_)"/><path d="m250.9 512c-57 0-112.4-19.1-157.2-54.3l-29.9 21.8c-5.2 3.8-11.5 5.9-18 5.9-18.4-.2-33.1-15.3-32.9-33.6l1.3-116.1.3-27.2c0-16.9 13.5-30.5 30.4-30.6h.2c3.2 0 6.3.5 9.4 1.4l137 42c12.1 3.7 21.1 13.9 23.1 26.4 2.1 11.6-2.6 23.5-12.1 30.5l-17.9 13.1c74 36.7 163.7 6.5 200.4-67.4 5.5-11.1 9.6-22.8 12.2-34.9 6-28.5 33.9-46.7 62.4-40.7 11.9 2.5 22.5 9 30.1 18.4 10 12.2 13.8 28.3 10.5 43.7-25.2 117.6-129.1 201.6-249.3 201.6z" fill="url(#SVGID_00000076565844169163047130000002986624552093897872_)"/><path d="m448.5 257.1c-20.2 0-37.5 14.2-41.7 33.9-6.4 30-21.3 57.5-43 79.1-53.6 53.6-136.2 61-197.8 22.3l30.5-22.3c14.4-10.5 9.6-33.9-8-39.3l-137-42c-10.8-3.5-22.4 2.4-25.9 13.2-.7 2.1-1 4.3-1 6.5l-.3 27.2-.2 13.5-1.2 102.6c-.2 18.4 20.6 30.1 35 19.6l36.1-26.3c96.2 80.5 239.6 75.6 330-14.8 33.5-33.4 56.5-75.8 66.3-122 5.6-26.4-14.7-51.2-41.8-51.2z" fill="url(#SVGID_00000058546858047406351200000000703811552041180600_)"/></g></g></svg>