<svg id="Layer_19" enable-background="new 0 0 512 512" viewBox="0 0 512 512" xmlns="http://www.w3.org/2000/svg" xmlns:xlink="http://www.w3.org/1999/xlink"><linearGradient id="lg1"><stop offset="0" stop-color="#b3dafe"/><stop offset="1" stop-color="#0182fc"/></linearGradient><linearGradient id="SVGID_1_" gradientTransform="matrix(.5 .866 .866 -.5 -1814.072 -106.621)" gradientUnits="userSpaceOnUse" x1="1286.398" x2="1303.808" xlink:href="#lg1" y1="1695.965" y2="1695.965"/><linearGradient id="lg2"><stop offset="0" stop-color="#0182fc" stop-opacity="0"/><stop offset=".16" stop-color="#017ef2" stop-opacity=".07"/><stop offset=".4" stop-color="#0174d6" stop-opacity=".25"/><stop offset=".68" stop-color="#0163a8" stop-opacity=".56"/><stop offset=".99" stop-color="#014d69" stop-opacity=".98"/><stop offset="1" stop-color="#024c67"/></linearGradient><linearGradient id="SVGID_00000111180779774720492250000017020123146039819664_" gradientTransform="matrix(1 0 0 -1 -.004 514.007)" gradientUnits="userSpaceOnUse" x1="273.701" x2="244.241" xlink:href="#lg2" y1="349.655" y2="352.035"/><linearGradient id="SVGID_00000089555057337166794910000008821131149641009057_" gradientTransform="matrix(1 0 0 -1 -.001 513.997)" gradientUnits="userSpaceOnUse" x1="305.916" x2="295.226" xlink:href="#lg1" y1="175.367" y2="156.837"/><linearGradient id="SVGID_00000034079211675316411760000009895088010407903396_" gradientTransform="matrix(1 0 0 -1 -.001 513.997)" gradientUnits="userSpaceOnUse" x1="314.553" x2="277.013" xlink:href="#lg2" y1="173.554" y2="158.814"/><linearGradient id="lg3"><stop offset="0" stop-color="#eaf6ff"/><stop offset="1" stop-color="#b4d2e2"/></linearGradient><radialGradient id="SVGID_00000057110882624808489880000005998556675995970486_" cx="109.82" cy="221.88" gradientTransform="matrix(1 0 0 -1 0 514)" gradientUnits="userSpaceOnUse" r="146.16" xlink:href="#lg3"/><linearGradient id="lg4"><stop offset="0" stop-color="#3692bc" stop-opacity="0"/><stop offset=".77" stop-color="#3692bc"/><stop offset=".8" stop-color="#3692bc" stop-opacity=".98"/><stop offset=".84" stop-color="#3692bc" stop-opacity=".92"/><stop offset=".87" stop-color="#3692bc" stop-opacity=".82"/><stop offset=".9" stop-color="#3692bc" stop-opacity=".67"/><stop offset=".94" stop-color="#3692bc" stop-opacity=".49"/><stop offset=".97" stop-color="#3692bc" stop-opacity=".27"/><stop offset="1" stop-color="#3692bc" stop-opacity="0"/></linearGradient><radialGradient id="SVGID_00000180326974712454677320000009049338829149637030_" cx="51.79" cy="236.41" gradientTransform="matrix(1 0 0 -1 0 514)" gradientUnits="userSpaceOnUse" r="280.52" xlink:href="#lg4"/><linearGradient id="lg5"><stop offset="0" stop-color="#3692bc" stop-opacity="0"/><stop offset=".12" stop-color="#3692bc" stop-opacity=".03"/><stop offset=".27" stop-color="#3692bc" stop-opacity=".1"/><stop offset=".43" stop-color="#3692bc" stop-opacity=".23"/><stop offset=".6" stop-color="#3692bc" stop-opacity=".41"/><stop offset=".77" stop-color="#3692bc" stop-opacity=".64"/><stop offset=".95" stop-color="#3692bc" stop-opacity=".92"/><stop offset="1" stop-color="#3692bc"/></linearGradient><linearGradient id="SVGID_00000134249938008979860140000006723547304932823980_" gradientTransform="matrix(1 0 0 -1 0 514)" gradientUnits="userSpaceOnUse" x1="191.181" x2="176.151" xlink:href="#lg5" y1="197.26" y2="273.15"/><linearGradient id="SVGID_00000170958700030820776670000014456737447894862227_" gradientTransform="matrix(1 0 0 -1 0 514)" gradientUnits="userSpaceOnUse" x1="198.48" x2="135.06" xlink:href="#lg5" y1="163.029" y2="167.779"/><linearGradient id="SVGID_00000070082140627506638540000013653749332881663110_" gradientTransform="matrix(1 0 0 -1 0 514)" gradientUnits="userSpaceOnUse" x1="126.28" x2="163.62" y1="178.705" y2="178.705"><stop offset="0" stop-color="#94a3ad"/><stop offset="1" stop-color="#3e5959"/></linearGradient><linearGradient id="lg6"><stop offset="0" stop-color="#433f43" stop-opacity="0"/><stop offset=".41" stop-color="#373537" stop-opacity=".27"/><stop offset="1" stop-color="#1a1a1a"/></linearGradient><linearGradient id="SVGID_00000151526189989332286000000007930155634611845763_" gradientTransform="matrix(1 0 0 -1 0 514)" gradientUnits="userSpaceOnUse" x1="161.28" x2="180.84" xlink:href="#lg6" y1="135.761" y2="117.391"/><linearGradient id="SVGID_00000110438033593159190360000001896629086449217690_" gradientTransform="matrix(1 0 0 -1 0 514)" gradientUnits="userSpaceOnUse" x1="130.463" x2="118.603" xlink:href="#lg6" y1="122.534" y2="101.194"/><linearGradient id="SVGID_00000100383919273047349460000015865405287462186385_" gradientTransform="matrix(1 0 0 -1 0 514)" gradientUnits="userSpaceOnUse" x1="173.58" x2="130.91" xlink:href="#lg6" y1="209.56" y2="252.23"/><radialGradient id="SVGID_00000171698694037153692940000010847883071436456887_" cx="127.79" cy="375.58" gradientTransform="matrix(1 0 0 -1 0 514)" gradientUnits="userSpaceOnUse" r="111.5" xlink:href="#lg3"/><radialGradient id="SVGID_00000001633067052343603410000017701079666542776709_" cx="108.77" cy="375.18" gradientTransform="matrix(1 0 0 -1 0 514)" gradientUnits="userSpaceOnUse" r="151.09" xlink:href="#lg4"/><linearGradient id="lg7"><stop offset="0" stop-color="#fbc9cf"/><stop offset="1" stop-color="#f28cc4"/></linearGradient><radialGradient id="SVGID_00000099635548146823153590000017186084280983113663_" cx="449.722" cy="333.368" gradientTransform="matrix(.96 0 0 -.96 -29.31 458.7)" gradientUnits="userSpaceOnUse" r="91.26" xlink:href="#lg7"/><linearGradient id="lg8"><stop offset="0" stop-color="#af66da" stop-opacity="0"/><stop offset=".77" stop-color="#814aa0"/><stop offset=".81" stop-color="#824aa1" stop-opacity=".98"/><stop offset=".84" stop-color="#854ca5" stop-opacity=".9"/><stop offset=".88" stop-color="#8a50ac" stop-opacity=".79"/><stop offset=".91" stop-color="#9254b6" stop-opacity=".62"/><stop offset=".95" stop-color="#9c5ac2" stop-opacity=".4"/><stop offset=".98" stop-color="#a862d1" stop-opacity=".14"/><stop offset="1" stop-color="#af66da" stop-opacity="0"/></linearGradient><radialGradient id="SVGID_00000173130814674678876660000005513672825046644148_" cx="413.492" cy="342.438" gradientTransform="matrix(.96 0 0 -.96 -29.31 458.7)" gradientUnits="userSpaceOnUse" r="175.16" xlink:href="#lg8"/><linearGradient id="SVGID_00000024000608190614923440000008965535289396673937_" gradientTransform="matrix(1 0 0 -1 0 514)" gradientUnits="userSpaceOnUse" x1="453.289" x2="447.699" y1="352.681" y2="404.781"><stop offset="0" stop-color="#af66da" stop-opacity="0"/><stop offset=".12" stop-color="#ad64d7" stop-opacity=".04"/><stop offset=".29" stop-color="#a761d0" stop-opacity=".16"/><stop offset=".5" stop-color="#9e5cc5" stop-opacity=".35"/><stop offset=".72" stop-color="#9254b6" stop-opacity=".61"/><stop offset=".97" stop-color="#834ba2" stop-opacity=".95"/><stop offset="1" stop-color="#814aa0"/></linearGradient><radialGradient id="SVGID_00000058568149262284382720000009680119017556597181_" cx="458.9" cy="435.13" gradientTransform="matrix(1 0 0 -1 0 514)" gradientUnits="userSpaceOnUse" r="69.62" xlink:href="#lg7"/><radialGradient id="SVGID_00000014620353130727060690000011346255649343586991_" cx="447.03" cy="434.88" gradientTransform="matrix(1 0 0 -1 0 514)" gradientUnits="userSpaceOnUse" r="94.34" xlink:href="#lg8"/><linearGradient id="lg9"><stop offset="0" stop-color="#fef0ae"/><stop offset=".12" stop-color="#fdeea7"/><stop offset=".28" stop-color="#fdea96"/><stop offset=".46" stop-color="#fce37a"/><stop offset=".66" stop-color="#fbda53"/><stop offset=".87" stop-color="#face22"/><stop offset="1" stop-color="#fac600"/></linearGradient><radialGradient id="SVGID_00000155834925208677938010000005012738106481343913_" cx="403.84" cy="97.78" gradientTransform="matrix(1 0 0 -1 0 514)" gradientUnits="userSpaceOnUse" r="87.9" xlink:href="#lg9"/><linearGradient id="lg10"><stop offset="0" stop-color="#fe9738" stop-opacity="0"/><stop offset=".22" stop-color="#fe9738" stop-opacity="0"/><stop offset=".33" stop-color="#fe9738" stop-opacity=".04"/><stop offset=".43" stop-color="#fe9738" stop-opacity=".09"/><stop offset=".5" stop-color="#fe9738" stop-opacity=".17"/><stop offset=".58" stop-color="#fe9738" stop-opacity=".27"/><stop offset=".64" stop-color="#fe9738" stop-opacity=".39"/><stop offset=".7" stop-color="#fe9738" stop-opacity=".53"/><stop offset=".76" stop-color="#fe9738" stop-opacity=".7"/><stop offset=".81" stop-color="#fe9738" stop-opacity=".88"/><stop offset=".84" stop-color="#fe9738"/><stop offset=".87" stop-color="#fe9738" stop-opacity=".99"/><stop offset=".89" stop-color="#fe9738" stop-opacity=".95"/><stop offset=".91" stop-color="#fe9738" stop-opacity=".88"/><stop offset=".92" stop-color="#fe9738" stop-opacity=".79"/><stop offset=".94" stop-color="#fe9738" stop-opacity=".66"/><stop offset=".96" stop-color="#fe9738" stop-opacity=".51"/><stop offset=".98" stop-color="#fe9738" stop-opacity=".34"/><stop offset=".99" stop-color="#fe9738" stop-opacity=".14"/><stop offset="1" stop-color="#fe9738" stop-opacity=".01"/></linearGradient><radialGradient id="SVGID_00000107565185679743487910000004699997619608713150_" cx="368.94" cy="106.52" gradientTransform="matrix(1 0 0 -1 0 514)" gradientUnits="userSpaceOnUse" r="168.71" xlink:href="#lg10"/><linearGradient id="SVGID_00000070101263700431274580000007289091070828286592_" gradientTransform="matrix(1 0 0 -1 0 514)" gradientUnits="userSpaceOnUse" x1="454.046" x2="443.356" y1="77.941" y2="125.701"><stop offset="0" stop-color="#fe9738" stop-opacity="0"/><stop offset=".1" stop-color="#fe9738" stop-opacity=".02"/><stop offset=".23" stop-color="#fe9738" stop-opacity=".08"/><stop offset=".36" stop-color="#fe9738" stop-opacity=".17"/><stop offset=".5" stop-color="#fe9738" stop-opacity=".31"/><stop offset=".65" stop-color="#fe9738" stop-opacity=".48"/><stop offset=".81" stop-color="#fe9738" stop-opacity=".69"/><stop offset=".96" stop-color="#fe9738" stop-opacity=".94"/><stop offset="1" stop-color="#fe9738"/></linearGradient><radialGradient id="SVGID_00000090260980429831312890000014697202589740747435_" cx="414.65" cy="190.21" gradientTransform="matrix(1 0 0 -1 0 514)" gradientUnits="userSpaceOnUse" r="67.05" xlink:href="#lg9"/><radialGradient id="SVGID_00000031918367617314304980000010956915834257096346_" cx="403.21" cy="189.97" gradientTransform="matrix(1 0 0 -1 0 514)" gradientUnits="userSpaceOnUse" r="90.86" xlink:href="#lg10"/><g><g><path d="m420 98.5c3.3 5.7 1.3 13-4.4 16.3l-215.3 124.3c-5.7 3.3-13 1.3-16.3-4.4s-1.3-13 4.4-16.3l215.3-124.2c5.7-3.3 13-1.4 16.3 4.3z" fill="url(#SVGID_1_)"/><path d="m420 98.5c3.3 5.7 1.3 13-4.4 16.3l-215.3 124.3c-5.7 3.3-13 1.3-16.3-4.4s-1.3-13 4.4-16.3l215.3-124.2c5.7-3.3 13-1.4 16.3 4.3z" fill="url(#SVGID_00000111180779774720492250000017020123146039819664_)"/><path d="m184 277.2c3.3-5.7 10.6-7.7 16.3-4.4l215.3 124.3c5.7 3.3 7.7 10.6 4.4 16.3s-10.6 7.7-16.3 4.4l-215.3-124.3c-5.7-3.3-7.7-10.6-4.4-16.3z" fill="url(#SVGID_00000089555057337166794910000008821131149641009057_)"/><path d="m184 277.2c3.3-5.7 10.6-7.7 16.3-4.4l215.3 124.3c5.7 3.3 7.7 10.6 4.4 16.3s-10.6 7.7-16.3 4.4l-215.3-124.3c-5.7-3.3-7.7-10.6-4.4-16.3z" fill="url(#SVGID_00000034079211675316411760000009895088010407903396_)"/></g><g><g><g><path d="m0 392c0-.9 0-1.7 0-2.6.2-79.1 64.4-143.3 143.5-143.5h2.6c79.1.2 143.3 64.4 143.5 143.5v2.6c-.1 79.2-289.4 79.2-289.6 0z" fill="url(#SVGID_00000057110882624808489880000005998556675995970486_)"/><path d="m0 392c0-.9 0-1.7 0-2.6.2-79.1 64.4-143.3 143.5-143.5h2.6c79.1.2 143.3 64.4 143.5 143.5v2.6c-.1 79.2-289.4 79.2-289.6 0z" fill="url(#SVGID_00000180326974712454677320000009049338829149637030_)" opacity=".25"/><path d="m146.1 245.9c-.9 0-1.7 0-2.6 0-18.1 0-35.4 3.4-51.3 9.6l172 172c15.8-9.2 25.5-21 25.5-35.4 0-.9 0-1.7 0-2.6-.2-79.2-64.4-143.4-143.6-143.6z" fill="url(#SVGID_00000134249938008979860140000006723547304932823980_)"/><path d="m289.7 392c0-.9 0-1.7 0-2.6-.2-79.1-64.4-143.3-143.5-143.5-.9 0-1.7 0-2.6 0-2.9 0-5.9.1-8.8.3v167.6l36.7 36.7c62.4-4.3 118.1-23.8 118.2-58.5z" fill="url(#SVGID_00000170958700030820776670000014456737447894862227_)"/><path d="m154.3 252.8h-19l-27.5 121.5c-1.6 7 .6 14.3 5.8 19.3l21.1 20.2c5.6 5.4 14.5 5.4 20.1 0l21.1-20.2c5.2-5 7.4-12.3 5.8-19.3z" fill="url(#SVGID_00000070082140627506638540000013653749332881663110_)"/><path d="m107.9 374.2c-1.6 7 .6 14.3 5.8 19.3l21.1 20.2c5.6 5.4 14.5 5.4 20.1 0l21.1-20.2c5.2-5 7.4-12.3 5.8-19.3l-10.7-47.2h-52.6z" fill="url(#SVGID_00000151526189989332286000000007930155634611845763_)"/><path d="m107.9 374.2c-1.6 7 .6 14.3 5.8 19.3l21.1 20.2c5.6 5.4 14.5 5.4 20.1 0l21.1-20.2c5.2-5 7.4-12.3 5.8-19.3l-10.7-47.2h-52.6z" fill="url(#SVGID_00000110438033593159190360000001896629086449217690_)"/><path d="m135.4 252.8-8.5 37.4 46.4 46.3-19-83.7h-9.5z" fill="url(#SVGID_00000100383919273047349460000015865405287462186385_)"/></g><g><path d="m145.8 269.4c-.6 0-1.2 0-1.9 0-57-.1-103.3-46.4-103.5-103.4 0-.6 0-1.2 0-1.9.1-57 46.4-103.3 103.5-103.5h1.9c57 .1 103.3 46.4 103.5 103.5v1.9c-.2 57-46.5 103.3-103.5 103.4z" fill="url(#SVGID_00000171698694037153692940000010847883071436456887_)"/><path d="m145.8 269.4c-.6 0-1.2 0-1.9 0-57-.1-103.3-46.4-103.5-103.4 0-.6 0-1.2 0-1.9.1-57 46.4-103.3 103.5-103.5h1.9c57 .1 103.3 46.4 103.5 103.5v1.9c-.2 57-46.5 103.3-103.5 103.4z" fill="url(#SVGID_00000001633067052343603410000017701079666542776709_)" opacity=".25"/></g></g><g><g><path d="m337.8 199.3c0-.5 0-1 0-1.6.1-47.6 38.7-86.2 86.3-86.3h1.6c47.6.1 86.2 38.7 86.3 86.3v1.6c-.1 47.6-174.1 47.6-174.2 0z" fill="url(#SVGID_00000099635548146823153590000017186084280983113663_)"/><path d="m337.8 199.3c0-.5 0-1 0-1.6.1-47.6 38.7-86.2 86.3-86.3h1.6c47.6.1 86.2 38.7 86.3 86.3v1.6c-.1 47.6-174.1 47.6-174.2 0z" fill="url(#SVGID_00000173130814674678876660000005513672825046644148_)" opacity=".25"/><path d="m425.7 111.4c-.5 0-1 0-1.6 0-10.9 0-21.3 2.1-30.9 5.8l103.4 103.4c9.5-5.5 15.3-12.6 15.3-21.3 0-.5 0-1 0-1.6 0-47.5-38.6-86.2-86.2-86.3z" fill="url(#SVGID_00000024000608190614923440000008965535289396673937_)"/></g><path d="m425.5 125.6c-.4 0-.8 0-1.1 0-34.3-.1-62.1-27.9-62.2-62.2 0-.4 0-.8 0-1.1 0-34.4 27.8-62.2 62.1-62.3h1.1c34.3.1 62.1 27.9 62.2 62.2v1.1c0 34.3-27.8 62.2-62.1 62.3z" fill="url(#SVGID_00000058568149262284382720000009680119017556597181_)"/><path d="m425.5 125.6c-.4 0-.8 0-1.1 0-34.3-.1-62.1-27.9-62.2-62.2 0-.4 0-.8 0-1.1 0-34.4 27.8-62.2 62.1-62.3h1.1c34.3.1 62.1 27.9 62.2 62.2v1.1c0 34.3-27.8 62.2-62.1 62.3z" fill="url(#SVGID_00000014620353130727060690000011346255649343586991_)" opacity=".25"/></g><g><g><path d="m337.8 476.3c0-.5 0-1 0-1.6.1-47.6 38.7-86.2 86.3-86.3h1.6c47.6.1 86.2 38.7 86.3 86.3v1.6c-.1 47.6-174.1 47.6-174.2 0z" fill="url(#SVGID_00000155834925208677938010000005012738106481343913_)"/><path d="m337.8 476.3c0-.5 0-1 0-1.6.1-47.6 38.7-86.2 86.3-86.3h1.6c47.6.1 86.2 38.7 86.3 86.3v1.6c-.1 47.6-174.1 47.6-174.2 0z" fill="url(#SVGID_00000107565185679743487910000004699997619608713150_)"/><path d="m425.7 388.4c-.5 0-1 0-1.6 0-10.9 0-21.3 2.1-30.9 5.8l103.4 103.4c9.5-5.5 15.3-12.6 15.3-21.3 0-.5 0-1 0-1.6 0-47.5-38.6-86.2-86.2-86.3z" fill="url(#SVGID_00000070101263700431274580000007289091070828286592_)"/></g><path d="m425.5 402.6c-.4 0-.8 0-1.1 0-34.3-.1-62.1-27.9-62.2-62.2 0-.4 0-.8 0-1.1.1-34.3 27.9-62.1 62.2-62.2h1.1c34.3.1 62.1 27.9 62.2 62.2v1.1c-.1 34.2-27.9 62.1-62.2 62.2z" fill="url(#SVGID_00000090260980429831312890000014697202589740747435_)"/><path d="m425.5 402.6c-.4 0-.8 0-1.1 0-34.3-.1-62.1-27.9-62.2-62.2 0-.4 0-.8 0-1.1.1-34.3 27.9-62.1 62.2-62.2h1.1c34.3.1 62.1 27.9 62.2 62.2v1.1c-.1 34.2-27.9 62.1-62.2 62.2z" fill="url(#SVGID_00000031918367617314304980000010956915834257096346_)"/></g></g></g></svg>