<svg id="Layer_1" enable-background="new 0 0 500 500" viewBox="0 0 500 500" xmlns="http://www.w3.org/2000/svg"><g><path clip-rule="evenodd" d="m325.4 108.9-56-21.5-29.1 29.1-30 53.4 42-32.1 39.8 9.6zm40.8 40 20.7 56-29.1 29.1-53.3 30 32.1-42-9.6-39.8z" fill="#b92025" fill-rule="evenodd"/><path clip-rule="evenodd" d="m272 166.8 11.8-19.4c26.2-27 51.4-53.7 77.3-79.6 11.5-11.5 49.4-30.7 60.9-19.2l3.7 3.7c11.5 11.5-7.7 49.5-19.2 60.9-25.9 25.9-52.6 51.1-79.6 77.3l-19.4 11.8z" fill="#991b1e" fill-rule="evenodd"/><path clip-rule="evenodd" d="m285.8 145.3c25.5-26.3 50.1-52.4 75.3-77.6 11.5-11.5 49.4-30.7 60.9-19.2l3.7 3.7c5.9 5.9 3.7 18.8-1.4 31.5-11.9 15.1-27.7 28.9-46.7 39.9-30.8 18-63.8 25-91.8 21.7z" fill="#ed2024" fill-rule="evenodd"/><path d="m440.8 23.5c2.7-2.7 7.2-2.7 9.9 0s2.7 7.2 0 9.9l-19.7 19.7c-2.7 2.7-7.2 2.7-9.9 0s-2.7-7.2 0-9.9z"/><g clip-rule="evenodd" fill-rule="evenodd"><path d="m258.5 187.5 28.3 28.3c5 5 13.2 5 18.2 0 5-5 5-13.2 0-18.2l-28.3-28.3c-5-5-13.2-5-18.2 0-5 5-5 13.2 0 18.2z" fill="#faa21b"/><path d="m101.1 302.8 125.5 34.1v141.6l-125.5-54z" fill="#bb572e"/><path d="m352.2 302.8-125.6-34.1-125.5 34.1 125.5 34.1z" fill="#80311a"/><path d="m413.4 241.2 10.5 16.3 18.8 5-12.2 15.1 1 19.4-18.1-7-18.2 7 1.1-19.4-12.3-15.1 18.8-5z" fill="#fdb614"/><path d="m129.1 147.6 14.1 21.8 25.2 6.7-16.4 20.1 1.4 26-24.3-9.4-24.2 9.4 1.4-26-16.4-20.1 25.1-6.7z" fill="#fdb614"/><path d="m101.1 302.8 125.5 34.1-57.8 62.5-121.6-35.2z" fill="#dd6e42"/><path d="m352.2 302.8-125.6 34.1v141.6l125.6-54z" fill="#80311a"/><path d="m352.2 302.8-125.6 34.1 57.9 62.5 121.6-35.2z" fill="#ab4225"/><path d="m243.5 205.1c-22.5 29-27.8 66-26.4 105.8 11.3-34.2 28.1-64.3 54.9-81.7z" fill="#f7ec13"/><path d="m352.2 302.8-109 29.6c3.6 1.5 7.3 2.9 11 4.4 53.4 20.2 105.8 27.2 147.3 22.2z" fill="#dd6e42"/><path d="m101.1 302.8 125.5 34.1-49 52.9c-41.8-24.2-65.9-51.8-81.9-80.9z" fill="#f79868"/><path d="m158.5 318.4 68.2 18.5 68.2-18.5c-17.9-7.6-41.9-12.2-68.2-12.2-26.4 0-50.3 4.7-68.2 12.2z" fill="#fdb614"/></g></g></svg>