<svg id="Layer_1" enable-background="new 0 0 512 512" viewBox="0 0 512 512" xmlns="http://www.w3.org/2000/svg"><g clip-rule="evenodd" fill-rule="evenodd"><path d="m256 33.36 192.81 111.32v222.64l-192.81 111.32-192.81-111.32v-222.64z" fill="#c89f81"/><path d="m256 33.36 192.81 111.32-192.81 111.32-192.81-111.32z" fill="#937661"/><path d="m448.81 144.68v222.64l-192.81 111.32v-222.64z" fill="#d5a889"/><g fill="#efc7a4"><path d="m381.74 370.26c-2.86 1.66-6.52.68-8.18-2.18s-.68-6.52 2.18-8.18l33.09-19.11c2.86-1.66 6.52-.68 8.18 2.18s.68 6.52-2.18 8.18zm-.02-36.31c-2.86 1.64-6.51.66-8.16-2.2-1.64-2.86-.66-6.51 2.2-8.16l33.09-19.1c2.86-1.64 6.51-.66 8.16 2.2 1.64 2.86.66 6.51-2.2 8.16z"/><path d="m448.81 144.68 25.82 41.94-192.82 111.31-25.81-41.93z"/><path d="m63.19 144.68-25.82 41.94 192.81 111.31 25.82-41.93z"/><path d="m135.05 408.81 49.09 28.34v-49.09l-49.09-28.34z"/></g><path d="m16 70.35c10.74-15.92 28.94-26.38 49.58-26.38 17.27 0 32.82 7.32 43.73 19.03 4.29 4.61 9.72 6.97 16.02 6.97h261.33c6.3 0 11.73-2.36 16.02-6.97 10.91-11.7 26.46-19.03 43.73-19.03 20.64 0 38.84 10.46 49.58 26.38h-44.91l-19.27 33.39 19.27 33.39h44.92c-10.74 15.92-28.94 26.38-49.58 26.38-17.27 0-32.82-7.32-43.73-19.03-4.29-4.61-9.72-6.97-16.02-6.97h-261.34c-6.3 0-11.73 2.36-16.02 6.97-10.91 11.7-26.46 19.03-43.73 19.03-20.64 0-38.84-10.47-49.58-26.38h44.91l19.27-33.39-19.27-33.39z" fill="#fcc72d"/></g></svg>