<svg clip-rule="evenodd" fill-rule="evenodd" stroke-linejoin="round" stroke-miterlimit="2" viewBox="0 0 64 64" xmlns="http://www.w3.org/2000/svg"><g transform="translate(-1768 -248)"><g transform="translate(80)"><path d="m1747 261c0-.552-.45-1-1-1h-52c-.55 0-1 .448-1 1v47c0 .552.45 1 1 1h52c.55 0 1-.448 1-1z" fill="#eb4040"/></g><g transform="translate(1760)"><path d="m67 304v-43c0-.552-.448-1-1-1-6.723 0-45.277 0-52 0-.552 0-1 .448-1 1v47c0 .265.105.52.293.707.187.188.442.293.707.293h6v-1c0-2.209 1.791-4 4-4z" fill="#d42f2f"/></g><g transform="matrix(-1 0 0 1 3520 0)"><path d="m1747 305v-47c0-3.866-3.13-7-7-7h-42c-.55 0-1 .448-1 1v47c0 .552.45 1 1 1h42c2.76 0 5 2.239 5 5 0 .552.45 1 1 1s1-.448 1-1z" fill="#f7e8ce"/></g><path d="m1780 251v41c0 2.209 1.79 4 4 4h39v3c0 .552-.45 1-1 1h-42c-2.76 0-5 2.239-5 5 0 .552-.45 1-1 1s-1-.448-1-1v-47c0-3.866 3.13-7 7-7z" fill="#ead0a2"/><path d="m1788 291h16c.55 0 1-.448 1-1s-.45-1-1-1h-16c-.55 0-1 .448-1 1s.45 1 1 1zm0-6h24c.55 0 1-.448 1-1s-.45-1-1-1h-24c-.55 0-1 .448-1 1s.45 1 1 1zm0-6h24c.55 0 1-.448 1-1s-.45-1-1-1h-24c-.55 0-1 .448-1 1s.45 1 1 1zm0-6h24c.55 0 1-.448 1-1s-.45-1-1-1h-24c-.55 0-1 .448-1 1s.45 1 1 1zm0-6h24c.55 0 1-.448 1-1s-.45-1-1-1h-24c-.55 0-1 .448-1 1s.45 1 1 1zm0-6h24c.55 0 1-.448 1-1s-.45-1-1-1h-24c-.55 0-1 .448-1 1s.45 1 1 1z" fill="#bfa576"/><path d="m1782.71 263.293s-.24-.293-.71-.293c-2.76 0-5 2.238-5 4.998 0 .295.09.501.29.709 20 20 20 20 20 20 .11.11.25.193.39.242l6 2c.36.119.76.026 1.03-.242s.36-.664.24-1.023l-2-6c-.05-.148-.13-.281-.24-.391z" fill="#f6ca56"/><path d="m1778.46 264.464c-.9.904-1.46 2.154-1.46 3.534 0 .295.09.501.29.709 20 20 20 20 20 20 .11.11.25.193.39.242l6 2c.36.119.76.026 1.03-.242 0 0-26.25-26.243-26.25-26.243z" fill="#f1b70b"/><path d="m1780.29 271.707 5.42-5.414-3-3s-.24-.293-.71-.293c-2.76 0-5 2.238-5 4.998 0 .295.09.501.29.709z" fill="#eb4040"/><path d="m1783 269-4.54-4.536c-.9.904-1.46 2.154-1.46 3.534 0 .295.09.501.29.709l3 3z" fill="#d42f2f"/></g></svg>