<svg id="Layer_1" enable-background="new 0 0 48 48" viewBox="0 0 48 48" xmlns="http://www.w3.org/2000/svg" xmlns:xlink="http://www.w3.org/1999/xlink"><linearGradient id="lg1"><stop offset="0" stop-color="#126ec4"/><stop offset="1" stop-color="#08bcf7"/></linearGradient><linearGradient id="SVGID_1_" gradientUnits="userSpaceOnUse" x1="13.654" x2="47.5" xlink:href="#lg1" y1="24" y2="24"/><linearGradient id="SVGID_2_" gradientUnits="userSpaceOnUse" x1="35.408" x2="47.5" xlink:href="#lg1" y1="6.546" y2="6.546"/><linearGradient id="SVGID_3_" gradientUnits="userSpaceOnUse" x1="24.75" x2="29.44" y1="37.401" y2="37.401"><stop offset="0" stop-color="#4656a1"/><stop offset="1" stop-color="#84c8d3"/></linearGradient><linearGradient id="lg2"><stop offset="0" stop-color="#ff913c"/><stop offset="1" stop-color="#ffcb2c"/></linearGradient><linearGradient id="SVGID_4_" gradientUnits="userSpaceOnUse" x1=".5" x2="16.099" xlink:href="#lg2" y1="18.605" y2="18.605"/><linearGradient id="SVGID_5_" gradientUnits="userSpaceOnUse" x1="3.303" x2="28.067" y1="25.991" y2="25.991"><stop offset="0" stop-color="#b3d"/><stop offset="1" stop-color="#ff5160"/></linearGradient><linearGradient id="SVGID_6_" gradientUnits="userSpaceOnUse" x1="15.27" x2="28.986" xlink:href="#lg2" y1="32.434" y2="32.434"/><g><path d="m13.65 36.65v7.72c0 1.73 1.4 3.13 3.13 3.13h27.6c1.73 0 3.13-1.4 3.13-3.13v-31.78l-12.1-12.09h-18.63c-1.73 0-3.13 1.4-3.13 3.13v7.91" fill="url(#SVGID_1_)"/><path d="m35.41.5v8.97c0 1.73 1.4 3.13 3.13 3.13h8.97" fill="url(#SVGID_2_)"/><path d="m29.44 39.75-.45-4.69-4.24 4.23z" fill="url(#SVGID_3_)"/><path d="m14.03 11.54c-.98-.98-2.56-.98-3.53 0l-9.27 9.26c-.98.98-.98 2.56 0 3.53l2.07 2.07 12.8-12.8z" fill="url(#SVGID_4_)"/><path d="m16.1 13.61-12.8 12.79 11.97 11.97 12.8-12.79z" fill="url(#SVGID_5_)"/><path d="m28.07 25.58-12.8 12.79 9.48.92 4.24-4.23z" fill="url(#SVGID_6_)"/><g><path d="m33.42 38.7h10.26v2.09h-10.26z" fill="#fff"/></g><g><path d="m32.32 33.06h11.36v2.09h-11.36z" fill="#fff"/></g><g><path d="m31.66 27.42h12.02v2.09h-12.02z" fill="#fff"/></g><g><path d="m30.57 21.77h13.12v2.09h-13.12z" fill="#fff"/></g></g></svg>