<svg id="Layer_2" height="512" viewBox="0 0 512 512" width="512" xmlns="http://www.w3.org/2000/svg" xmlns:xlink="http://www.w3.org/1999/xlink" data-name="Layer 2"><linearGradient id="linear-gradient" gradientUnits="userSpaceOnUse" x1="188.36" x2="468.35" y1="187.77" y2="467.75"><stop offset="0" stop-opacity=".35"/><stop offset="1" stop-opacity="0"/></linearGradient><g id="Icon"><g id="_85" data-name="85"><path id="BG" d="m362 512h-212c-82.8 0-150-67.2-150-150v-212c0-82.8 67.2-150 150-150h212c82.8 0 150 67.2 150 150v212c0 82.8-67.2 150-150 150z" fill="#007bea"/><path d="m347 166.11-124.49-5.74-86.65 79.91 83.03 83.03-42.27 33.03 155.67 155.67h29.71c82.8 0 150-67.2 150-150v-30.9z" fill="url(#linear-gradient)"/><path d="m210.7 210.7c25.71-25.71 67.8-24.98 92.58 2.18 22.12 24.25 22.12 61.89 0 86.14-21.92 24.03-57.39 27.37-83.08 10.02-5.97-4.03-13.92-3.42-19.02 1.67l-24.47 24.47c-6.41 6.41-5.72 17.01 1.48 22.52 50.19 38.45 122.28 34.72 168.21-11.21 50.05-50.05 50.05-130.95 0-181-50-50-131-50-181 0l-8.29-8.29c-9.45-9.45-25.61-2.76-25.61 10.61v61.89c0 8.28 6.72 15 15 15h61.96c13.35 0 20.05-16.14 10.62-25.59z" fill="#fff"/></g></g></svg>