<svg id="Layer_1" enable-background="new 0 0 66 66" viewBox="0 0 66 66" xmlns="http://www.w3.org/2000/svg"><g><path d="m41.9992485 53.7580681c-.4487267 1.5202446-1.574543 2.9319-2.7578354 4.1583138-.290638.301815-.5844688.5924377-.8735046.8703079-.1580925.1532936-.4183846.1165695-.5269737-.0750618-.274662-.4918442-.5397491-.9900742-.7952499-1.4946861-1.5026779-2.9350891-2.7274933-6.0745811-3.5722427-9.2300339l8.2048302-5.9675827c.0143661.1964149.0287399.3912315.0415192.5876541.1628761 2.278759.3257637 4.5575256.4886475 6.8346977.1006048 1.4451828.2012022 2.9271049-.2091906 4.316391z" fill="#f1363e"/><path d="m36.1929436 54.5453453c.20121.9150162.5030212 1.8012886.8527412 2.6715965-1.5026779-2.9350891-2.7274933-6.0745811-3.5722427-9.2300339l8.2048302-5.9675827c.0143661.1964149.0287399.3912315.0415192.5876541-1.3350105 2.3602028-3.9219666 3.8660698-5.0940895 6.3173027-.8255883 1.7278405-.8463479 3.7510987-.4327584 5.6210633z" fill="#ce0d24"/><path d="m62.9440727 2.0618985c-.4950333 3.904402-1.4356041 7.8008118-2.7306786 11.5918407-1.4643593 4.294034-3.3854141 8.4587297-5.6274567 12.3567476-.689846 1.19767-1.4084473 2.3713818-2.1542053 3.5147514-5.6130676 8.6088486-13.2158775 16.0184212-21.9317036 21.4654236-.7697029.482254-1.4994831.9086304-2.2101021 1.2998619-1.9370308 1.0587425-3.7415161 1.8364258-5.8653793 2.6524467l-8.8388014-8.1984482c.2618923-1.1401825.5557251-2.2723732.8862829-3.3933945.2650795-.9134178.5541162-1.8204498.8639135-2.7195015 2.3378515-6.7756195 5.8925352-13.1312466 10.4372816-18.6724625 1.6974964-2.0727615 3.5339222-4.0321503 5.4980965-5.8557987 4.4872704-4.1694813 9.6244698-7.7034035 15.1577034-10.4005556 4.7858772-2.3362532 9.8655891-4.0433307 15.0778465-5.0014658.2251587-.041511.4423447-.0191619.6371574.0511017.5158045.1868435.8766939.7122174.8000452 1.3094532z" fill="#d2dcde"/><path d="m28.2899265 52.2905235c-1.9370308 1.0587425-3.7415161 1.8364258-5.8653793 2.6524467l-8.8388014-8.1984482c.0590944-.2586937.1197672-.5173912.1836462-.7744865.0063839-.0255585.0127783-.0527.0191622-.0798454.0558968-.2315521.1149817-.4615059.1740656-.6914558.0463066-.1836472.0942106-.3656845.143714-.5477333.0031977-.0111809.0063944-.0223579.0095816-.0335388.0351362-.1341324.0718622-.2666779.1085873-.3992233l.1245623-.4455299c.0415211-.1405258.0814428-.2810516.1229639-.4215813.2650795-.9134178.5541162-1.8204498.8639135-2.7195015 3.3806181-.2267647 6.8458738 1.0204086 9.282733 3.380619.8303852.8048286 1.5378075 1.7342186 2.1015034 2.7450562.9437693 1.6895141 1.4915026 3.6025848 1.5697477 5.5332221z" fill="#f1363e"/><path d="m28.2899265 52.2905235c-1.9370308 1.0587425-3.7415161 1.8364258-5.8653793 2.6524467l-8.8388014-8.1984482c.0590944-.2586937.1197672-.5173912.1836462-.7744865.0063839-.0255585.0127783-.0527.0191622-.0798454.0558968-.2315521.1149817-.4615059.1740656-.6914558.0463066-.1836472.0942106-.3656845.143714-.5477333.0031977-.0111809.0063944-.0223579.0095816-.0335388.0351362-.1341324.0718622-.2666779.1085873-.3992233l.1245623-.4455299c.0415211-.1405258.0814428-.2810516.1229639-.4215813 3.3199348-.3577003 6.8969746 2.1350441 10.1338673 3.0324974.6946545.1932259 1.4020767.3145905 2.1142826.3736763.9437693 1.6895141 1.4915026 3.6025848 1.5697477 5.5332221z" fill="#ce0d24"/><path d="m54.5859375 26.0104866c-.689846 1.19767-1.4084473 2.3713818-2.1542053 3.5147514-5.6130676 8.6088486-13.2158775 16.0184212-21.9317036 21.4654236-.7697029.482254-1.4994831.9086304-2.2101021 1.2998619-.0782452-1.9306374-.6259785-3.843708-1.5697479-5.5332222 2.5246964.2123871 5.1196442-.3609009 7.4495029-1.39888 2.9877892-1.3302116 5.5955048-3.3806152 8.0467415-5.5475998 4.6517449-4.1103973 8.7589455-8.7685375 12.3695145-13.8003349z" fill="#b4c1c7"/><path d="m23.6158314 24.7521362c-.3513184 3.8165646-2.6061287 7.1045685-5.8621922 9.924675-3.0708199-.482254-5.5460024-.8734932-8.6168308-1.357357-.7521305-.1181679-1.5234313-.2555008-2.2500153-.4886475-.2283545-.073452-.4535213-.1564941-.6722946-.2507133-.7776856-.3369446-1.0715179-1.2823009-.6147995-1.9961166.9980574-1.5617542 2.1637859-3.0340939 3.8373251-3.7574806 1.3302135-.573288 2.9462671-.7776852 4.3866663-.9277935 3.4333172-.3561134 6.1959381-.4838619 9.717083-1.1322002.0239563-.0047857.0495033-.0095807.075058-.0143663z" fill="#f1363e"/><path d="m23.6158314 24.7521362c-.3513184 3.8165646-2.6061287 7.1045685-5.8621922 9.924675-3.0708199-.482254-5.5460024-.8734932-8.6168308-1.357357-.7521305-.1181679-1.5234313-.2555008-2.2500153-.4886475 1.6527786.2586937 3.5754328.383255 5.2457848.3129921 2.7434587-.1149788 5.4390125-1.1513615 7.5564938-2.8999596 1.7406139-1.4387913 3.0803986-3.3550606 3.8517017-5.4773369.0239563-.0047855.0495033-.0095805.075058-.0143661z" fill="#ce0d24"/><path d="m22.4247818 54.9433327c-.9491005 1.0236549-3.6971951.0180817-6.1386127-2.2467155-2.4402599-2.2636795-3.6501122-4.92939-2.6998615-5.9519348.3842897-.4147491 1.0638075-.4960976 1.8975534-.2956734 1.2262125.2926178 2.7877054 1.1945877 4.241065 2.5423813 1.4832382 1.376606 2.5129356 2.9015732 2.8773861 4.1157341.2345848.7828635.1934605 1.4352531-.1775303 1.8362083z" fill="#b5001f"/><path d="m22.6023121 53.1071243c-.9410896.4746437-2.9508076-.3581276-4.7534599-2.0315514-1.8267422-1.6944351-2.8104048-3.6652107-2.3649912-4.626564 1.2262125.2926178 2.7877054 1.1945877 4.241065 2.5423813 1.4832382 1.376606 2.5129356 2.9015732 2.8773861 4.1157341z" fill="#a30023"/><path d="m57.125 23.1712093c-1.149765 1.7565804-2.8073387 2.9223099-4.5000381 3.3438911-1.4148445.3529167-2.8552437.185236-4.0417328-.5908508-2.6045303-1.7054806-3.005352-5.704092-.8942566-8.9298153.1405182-.2139893.2874374-.4199848.4439316-.6163979 2.1717682-2.7594337 5.6657677-3.7287483 8.0978394-2.1350441 2.6061286 1.7054797 3.0069427 5.7024938.8942565 8.928217z" fill="#b4c1c7"/><path d="m50.89328 24.9744835c-.1006012-.0659218-.1967583-.1364403-.2873802-.212698-1.6087723-1.3246212-1.7648544-4.0480366-.302639-6.2827435 1.1875877-1.8140736 3.099987-2.7785931 4.771862-2.5709457.502552.0608149.9845085.2304134 1.4166069.5138645 1.8723717 1.2260494 2.1357155 4.1327229.5900116 6.4954472-1.5468483 2.3616218-4.3172493 3.2820091-6.1884613 2.0570755z" fill="#6d7c89"/><path d="m55.3796005 22.1923141c-1.1880913 1.8156643-3.1027603 2.7801933-4.7731133 2.5694027-1.1609344-.9549484-1.5665512-2.6396656-1.1513519-4.3435478.1580887-.657917.4407349-1.3174343.84795-1.9386272 1.1880875-1.8140678 3.0995598-2.7785864 4.7715111-2.5709925.6116028.5014162 1.0140228 1.2072496 1.1960716 2.0120802.3002167 1.3110504.0175629 2.8855839-.8910675 4.2716846z" fill="#4aa8f2"/><path d="m55.3796005 22.1923141c-1.1880913 1.8156643-3.1027603 2.7801933-4.7731133 2.5694027-1.1609344-.9549484-1.5665512-2.6396656-1.1513519-4.3435478-.0223579.439146.0638695.884676.255497 1.2807102.2730713.5668945.7569275 1.0283985 1.3349991 1.2759151.6243896.2666779 1.3397942.2826443 1.9961166.1101856 1.2136421-.3193779 2.2117004-1.2647438 2.737072-2.4033298.3960266-.8575287.5413513-1.8140659.491848-2.7610207.3002167 1.3110505.0175629 2.885584-.8910675 4.2716847z" fill="#0373ff"/><path d="m62.9440727 2.0618985c-.0606804.4822645-.1293488.964519-.2028084 1.4467835-.5301666 3.4189503-1.3924828 6.8219261-2.5278702 10.1450567-.9262047-2.333066-2.5358658-4.3978453-4.6022453-5.8286543-2.3346519-1.6160536-5.2234344-2.4033298-8.0547218-2.2388453-.3768616.0223589-.7537384.0606828-1.1274033.11657 4.7858772-2.3362532 9.8655891-4.0433307 15.0778465-5.0014658.8176079-.1501077 1.542595.5365634 1.4372025 1.3605552z" fill="#f1363e"/><path d="m40.966053 30.8410854c-.0511017.3129845-.1964149.6020203-.3465233.8830757-1.6176529 3.0324955-3.9491081 5.6801434-6.7516632 7.6698742-.6786766.4806557-1.3924828.9293823-2.1829472 1.1896782-.6004314.1996117-2.104702.584465-2.3154926-.29702-.2107906-.8830757.4311638-1.9705582.8735046-2.681179.1756554-.2826538.3577023-.5589104.5477333-.8319817 2.0408211-2.9382782 4.8705177-5.3256321 8.116993-6.8314991.2986183-.1389294.6084137-.2714729.9373741-.301815.3289604-.0303402.6850739.0590839.9070435.3050022.0654678.0750599.1165695.1596889.1532936.2507133.0814438.1996118.0974083.4295636.0606842.6451512z" fill="#f1363e"/><path d="m5.2702794 55.9935112c.856863-.8903351 2.0107126-1.4298401 3.2512107-1.4074631.1043386.0018806.1620674.1198463.0999002.2036629-.8412995 1.1342926-1.4484 2.441761-1.770792 3.8167686-.2598324 1.1081924-.3445253 2.2798805-.8696961 3.2897301-.5684566 1.0930862-1.6306405 1.8906822-2.8320537 2.1340866-.1163063.0235672-.1414979.1766434-.0384018.235405 1.6107442.9181671 3.5462415 1.2578964 5.3725767.9338684 1.8451395-.3273544 3.5934429-1.4405861 4.794982-2.8914948.0717983-.0867004.2161846-.0414276.2247086.0708199.0637035.8387909-.2438679 1.7090569-.838131 2.2956047-.0890217.0878677-.0144606.2388.1087208.2170868 2.3837767-.4202576 4.5530014-1.9658051 5.7080517-4.0962524 1.2273903-2.2638779 1.2764263-5.127037.1272774-7.4316177-.9098377-1.824646-2.6577759-3.2686157-4.6638985-3.6327744-2.0473137-.3716354-4.2059507.3365784-5.8231869 1.6458359-1.4304309 1.1580276-2.3942423 2.7609177-3.0588722 4.4797516-.0496376.1283721.1121637.2361488.2076041.1369819z" fill="#fed821"/><path d="m17.6665554 52.3799057c.8298264 1.0381927 1.0009708 2.5601616.4224415 3.7567215-.5407104 1.1183357-1.7109108 1.8999481-2.9466734 1.9927673-.1042986.0078354-.1697626-.1066132-.1153421-.1959343.2665215-.437439.3694859-.9986382.2637444-1.498909-.0265341-.1255341-.1979771-.1393089-.2433825-.0193024-.3742647.989193-1.0549278 1.9068489-1.9461966 2.4544792-.8926096.5484505-1.9679785.7912712-3.0098877.6875763-.1154079-.0114861-.1566124-.1637306-.0611439-.2295837.7447929-.5137558 1.2224855-1.3877487 1.4099741-2.2813759.2115669-1.0083885.2128696-2.0565033.484643-3.0503578.2676592-.9788132.8826361-1.9515648 1.8437328-2.264328.0136023-.004425.0135679-.0238991-.0001211-.0280495-.553484-.167881-1.1045704-.075386-1.6029596.2265282-.3086271.1869545-.5765371.4302711-.8160343.701355-.0963373.1090469-.2737007-.0003128-.2137136-.1328773.5282269-1.1673241 1.7153893-2.0112915 3.0130148-2.0218315 1.5061864-.01223 2.553894.6970558 3.5179042 1.9031219z" fill="#f1363e"/><path d="m40.966053 30.8410854c-.0511017.3129845-.1964149.6020203-.3465233.8830757-1.6176529 3.0324955-3.9491081 5.6801434-6.7516632 7.6698742-.6786766.4806557-1.3924828.9293823-2.1829472 1.1896782-.6004314.1996117-2.104702.584465-2.3154926-.29702-.2107906-.8830757.4311638-1.9705582.8735046-2.681179.1756554-.2826538.3577023-.5589104.5477333-.8319817-.0830421.5860558.2459183 1.2040596.7473431 1.5346107.5525188.3608971 1.2663364.4104004 1.908289.2571068.6419449-.1549034 1.2232132-.4934464 1.7693481-.8639259 2.6428528-1.7965012 4.6661224-4.4808769 5.689724-7.5053902.0814438.1996118.0974083.4295636.0606842.6451512z" fill="#ce0d24"/><path d="m52.6249619 26.5151005c-1.4148445.3529167-2.8552437.185236-4.0417328-.5908508-2.6045303-1.7054806-3.005352-5.704092-.8942566-8.9298153.1405182-.2139893.2874374-.4199848.4439316-.6163979-.3800621 1.3557587-.6930542 2.7418594-.6690979 4.1487217.0255547 1.517046.4822655 3.0772133 1.5266266 4.1790619.9501533 1.0028534 2.2627944 1.5202446 3.6345291 1.8092804z" fill="#8090a0"/><g fill="#fff"><path d="m62.1440277.7524455c-.1421242.2315512-.3369408.4407437-.5253716.6371582-1.622448 1.6863172-3.2464828 3.3742328-4.8705215 5.0621486-3.8229561 3.9730668-7.6475143 7.9477324-11.4704742 11.9208012-1.7453995 1.8156643-3.658474 3.722353-6.1336555 4.1854458-2.2276649.4167957-4.4696999-.4199734-6.7021599-.8032322-2.2069054-.3800602-4.4888592-.3050003-6.6686211.2043972 1.6974964-2.0727615 3.5339222-4.0321503 5.4980965-5.8557987 4.4872704-4.1694813 9.6244698-7.7034035 15.1577034-10.4005556 4.7858772-2.3362532 9.8655891-4.0433307 15.0778465-5.0014658.2251587-.0415115.4423446-.0191624.6371574.0511013z" opacity=".3"/><g opacity=".5"><path d="m31.4794655 20.2023678c-.344368.8076286-.133234 1.4865723.3425007 1.4812412.4704227-.0014362.9866581-.5508366 1.2699795-1.2104664.2675095-.6479149.2432785-1.2660885-.1608391-1.4165497-.4125977-.1506519-1.1178952.3460122-1.4516411 1.1457749z"/><path d="m37.9529572 15.3191309c2.4824448-1.7755384 4.4081764-2.2742348 4.5190735-3.0278063.2128754-.6404257-2.1637497-1.3493805-5.6569519 1.0816841-3.566227 2.7985191-3.6673622 5.1577168-3.1062317 5.2035236.684822.224598 1.6601409-1.2737483 4.2441101-3.2574014z"/></g><g><path d="m19.6029339 31.2622414c-.362524-.4512291-.6965103-.8669357-1.0304966-1.2826424.0215416-.0228806.0430832-.0457592.0646248-.0686398.445694.2944698.8323956.6710491 1.3011837 1.012394.1533642-1.4310493.3034554-2.8315334.4535446-4.2320175.0354824-.0000286.0709629-.0000553.1064453-.000082.1495914 1.3978786.299181 2.7957573.4532204 4.2351952.4558201-.3435688.8591366-.7073536 1.2952843-1.0244865.0235996.0257511.0472012.0515041.0708046.0772572-.3335075.41539-.6670151.8307781-1.0324268 1.2859058 1.4336681.1530342 2.8295784.3020382 4.2254906.4510422.0006618.0341396.0013218.0682774.0019836.1024151-1.3890171.1761284-2.7856503.2926273-4.2263584.4621754.3594112.4467812.6933804.8619308 1.0356522 1.2874031-.1408119.0297394-.140995.0299683-.6875591-.40728-.2151222-.1720924-.4292164-.3454781-.6817532-.5488548-.154459 1.4405937-.3045788 2.8407097-.4546986 4.2408257-.0355816-.0002327-.0711594-.0004692-.106739-.0007057-.1493626-1.398941-.2987232-2.7978783-.452776-4.2407494-.446291.3589706-.8671989.6975212-1.288105 1.0360718-.0254173-.0268021-.0508327-.0536079-.0762501-.08041.333622-.4183769.667244-.8367538 1.0281353-1.2893295-1.436552-.1529427-2.8291073-.3012028-4.2216616-.449461-.0010223-.0338573-.0020456-.0677147-.0030689-.101572 1.3878755-.1794017 2.7842779-.2921641 4.2255239-.4644549z"/><path d="m52.877327 11.1894503c.071373.6641102.1427498 1.3282194.2189102 2.0368586.2222595-.1746607.4162636-.3271189.6102715-.479578.0150642.0146532.0301285.0293064.0451927.0439587-.1528625.1923628-.3057289.3847256-.4839134.6089516.7149391.077117 1.3837433.1492577 2.0525475.2213984.0007668.0209846.0015297.0419683.0022964.062953-.6694679.0732288-1.338932.1464577-2.0531502.2245817.1752777.2211084.3288651.4148569.4824524.6086044-.0144501.0153046-.0288963.0306091-.0433426.0459137-.1925812-.1516695-.3851624-.30334-.6116295-.481698-.0771332.7131844-.1495361 1.3826323-.2219391 2.0520802-.0207977.0010185-.0415993.0020351-.062397.0030537-.0729904-.6699886-.1459808-1.3399773-.2236519-2.0529461-.2162743.1691751-.4126625.3227959-.6090546.4764166-.0143051-.0116358-.0286102-.0232706-.0429115-.0349064.1488838-.1937714.2977715-.3875418.4737511-.6165752-.7028046-.0768042-1.3760757-.1503792-2.0493469-.2239552-.0005302-.0206747-.0010567-.0413494-.0015869-.0620241.6681557-.0721884 1.3363113-.1443768 2.0574646-.222291-.1719551-.2164984-.3258629-.4102774-.4797707-.6040564.0144806-.0170288.0289612-.0340567.0434418-.0510855.191021.1523762.3820381.3047533.6065331.4838324.0777817-.7123775.1512413-1.3851824.2247009-2.0579872.0217094.0061671.0434226.0123336.0651321.0185001z"/></g></g></g></svg>