<svg height="512pt" viewBox="0 -1 512.00002 512" width="512pt" xmlns="http://www.w3.org/2000/svg"><path d="m383.390625 245.894531-19.578125-22.628906-251.859375 217.882813c-2.269531-10.128907-7.320313-19.753907-15.1875-27.621094-10.707031-10.710938-24.949219-16.609375-40.09375-16.609375-1.097656 0-2.1875.039062-3.273437.101562l154.015624-333.425781-27.164062-12.546875-173.757812 376.167969c-11.246094 21.398437-7.882813 48.527344 10.085937 66.5 11.054687 11.050781 25.574219 16.578125 40.09375 16.578125 13.8125 0 27.617187-5.011719 38.441406-15.011719zm-345.652344 226.660157c-10.441406-10.441407-10.441406-27.429688 0-37.871094 5.058594-5.058594 11.78125-7.839844 18.933594-7.839844s13.878906 2.78125 18.933594 7.839844c10.441406 10.441406 10.441406 27.429687 0 37.871094-.144531.144531-.296875.285156-.445313.425781l-2.019531 1.746093c-10.496094 8.203126-25.75 7.480469-35.402344-2.171874zm0 0" fill="#fee378"/><path d="m111.953125 441.148438c-2.210937-9.875-7.074219-19.265626-14.609375-27.023438l-21.160156 21.164062c9.851562 10.484376 9.664062 27.023438-.578125 37.265626-.144531.144531-.296875.285156-.445313.425781l-2.019531 1.746093c-10.28125 8.035157-25.109375 7.488282-34.785156-1.609374l-21.171875 21.171874c10.976562 10.660157 25.226562 16.003907 39.488281 16.003907 13.808594 0 27.613281-5.011719 38.441406-15.007813l288.277344-249.390625-19.578125-22.628906zm0 0" fill="#fabe2c"/><path d="m479.761719 32.238281c-42.984375-42.984375-112.925781-42.984375-155.90625 0l-90.214844 90.214844 12.1875 10.519531c.789063.679688 19.535156 16.742188 44.03125 27.746094 22.25 9.992188 40.222656 11.9375 54.550781 9.613281-.257812 2.304688-.453125 4.699219-.570312 7.179688-1.054688 22.3125 4.269531 55.890625 35.628906 89.148437l10.570312 11.210938 89.722657-89.726563c42.984375-42.980469 42.984375-112.921875 0-155.90625zm-46.128907 118.125c-10.160156 10.160157-23.507812 15.242188-36.851562 15.242188-13.347656 0-26.691406-5.082031-36.851562-15.242188-20.320313-20.320312-20.320313-53.382812 0-73.703125 20.320312-20.320312 53.382812-20.320312 73.703124 0 20.320313 20.320313 20.320313 53.382813 0 73.703125zm0 0" fill="#fc4b4e"/><path d="m479.496094 31.976562-45.289063 45.289063c19.730469 20.367187 19.546875 52.976563-.574219 73.097656-10.160156 10.160157-23.507812 15.242188-36.851562 15.242188-13.085938 0-26.164062-4.898438-36.246094-14.664063l-19.878906 19.875c1.273438-.132812 2.53125-.285156 3.753906-.484375-.257812 2.304688-.453125 4.699219-.570312 7.179688-1.054688 22.3125 4.269531 55.890625 35.628906 89.148437l10.570312 11.210938 89.722657-89.726563c42.984375-42.980469 42.984375-112.921875 0-155.90625-.085938-.089843-.179688-.171875-.265625-.261719zm0 0" fill="#fc2043"/></svg>