<svg id="Layer_2" height="512" viewBox="0 0 512 512" width="512" xmlns="http://www.w3.org/2000/svg"><g><g><g><g><g><path d="m13.268 365.953c0 33.265 26.964 60.23 60.228 60.23h364.856c33.267 0 60.229-26.966 60.229-60.23v-246.899c0-33.264-26.963-60.231-60.229-60.231h-364.857c-33.264 0-60.228 26.968-60.228 60.231v246.899z" fill="#0678b7"/><path d="m13.268 365.953c0 33.265 26.964 60.23 60.228 60.23h364.856c33.267 0 60.229-26.966 60.229-60.23z" fill="#0aeaea"/><path d="m141.829 466.603h228.191v29.793h-228.191z" fill="#0aeaea"/><path d="m185.686 426.184h142.079v40.419h-142.079z" fill="#0678b7"/></g></g></g></g><g><path d="m316.027 254.912s16.503 17.133-4.969 30.625c-19.817-18.362-31.366-29.205-31.366-29.205s29.5 27.53 34.046 32.646c7.621 8.578-5.635 27.776-15.318 18.483s-36.095-33.483-36.095-33.483 31.042 28.082 36.095 33.483-8.833 26.723-20.649 15.487c-13.808-13.129-32.812-28.972-32.812-28.972l35.027 30.87s-4.609 22.775-22.712 12.076c-19.367-12.804-75.467-55.848-83.888-85.183-7.579-31.862-16.841-51.651-16.841-51.651l46.312-50.475 18.624 15.167z" fill="#fff"/><g fill="#e6e7e8"><path d="m303.96 146.253s-10.585 7.954-37.53 11.04c-22.17 2.54-39.154-1.049-54.311 15.401-15.157 16.449-31.156 33.29-31.156 33.29s15.999 25.051 37.471 9.684c14.315-10.946 14.785-11.893 14.785-11.893s13.973 9.493 32.498 3.178c35.682 35.05 50.31 47.959 50.31 47.959s14.819-9.316 19.029-27.035c3.807-16.021 18.515-29.37 18.515-29.37z"/><path d="m239.235 321.294c6.648-8.073 10.355-16.16 3.197-22.896-7.157-6.736-13.801-8.736-25.425 7.315-9.94 13.315 10.439 29.895 22.228 15.581z"/><path d="m183.43 259.663c7.312-7.477 11.694-15.22 5.137-22.541s-13.006-9.881-25.956 5.121c-11.039 12.42 7.852 30.678 20.819 17.42z"/><path d="m216.646 305.411c10.779-10.376 14.853-18.261 8.247-25.538s-15.931-8.42-29.182 8.26c-10.956 12.493 7.576 30.138 20.935 17.278z"/><path d="m197.911 284.245c10.778-10.377 14.853-18.261 8.247-25.538-6.607-7.277-15.931-8.42-29.182 8.26-10.956 12.492 7.575 30.137 20.935 17.278z"/></g><path d="m97 58.822 112.351 86.115-69.39 72.708-126.693-80.52s0-3.826 0-21.809c0-23.212 21-56.494 61.728-56.494z" fill="#0aeaea"/><path d="m414.849 58.822-112.351 86.115 69.39 72.708 126.694-80.521s0-3.826 0-21.809c0-23.212-21-56.494-61.728-56.494-26.672.001-22.005.001-22.005.001z" fill="#0aeaea"/></g></g><path d="m141.272 75.853c0 3.781 13.321 16.145 113.839 16.145h3.828c100.518 0 113.84-12.537 113.84-16.145 0-3.61-231.507-3.784-231.507 0z" fill="#30bce2"/><circle cx="256" cy="58.822" fill="#0aeaea" r="45.717"/><circle cx="256" cy="58.822" fill="#fff" r="23.717"/><path d="m47.052 383.354c0 2.978 24.164 12.714 206.501 12.714h6.944c182.337 0 206.502-9.873 206.502-12.714s-419.947-2.979-419.947 0z" fill="#a6fffa"/></svg>