<svg id="Layer_2" height="512" viewBox="0 0 64 64" width="512" xmlns="http://www.w3.org/2000/svg" data-name="Layer 2"><path d="m60.3809 26.0752-16.4609-6.7778-1.9278-15.4214a1 1 0 0 0 -.9922-.876h-29a1 1 0 0 0 -.9941.89l-.9766 8.79-6.8936 11.8161a1.003 1.003 0 0 0 -.1357.5039v19a1.0007 1.0007 0 0 0 .7129.958l20 6a1.01 1.01 0 0 0 .2871.042.991.991 0 0 0 .19-.0186l36-7a1 1 0 0 0 .81-.9814v-16a1 1 0 0 0 -.6191-.9248z" fill="#dd291b"/><path d="m25.5454 3h-13.5454a1 1 0 0 0 -.9941.89l-.9766 8.79-6.8936 11.8161a1.003 1.003 0 0 0 -.1357.5039v19a1.0007 1.0007 0 0 0 .7129.958l19.6571 5.8972z" fill="#b7170f"/><path d="m43.92 19.2974-1.9278-15.4214a1 1 0 0 0 -.9922-.876h-29a.9907.9907 0 0 0 -.835.4708l13.835 11.5292h10l9.0361 4.3452z" fill="#ee5a4c"/><path d="m60.9542 43.26-22.9542-6.26h-14l-21 6.3v.7a1.0007 1.0007 0 0 0 .7129.958l20 6a1.01 1.01 0 0 0 .2871.042.991.991 0 0 0 .19-.0186l36-7a.99.99 0 0 0 .7642-.7214z" fill="#990a07"/><path d="m22.999 46a1 1 0 0 1 -.1953-1.98l1.9229-.3847a1 1 0 1 1 .3925 1.9609l-1.9228.3848a1.0141 1.0141 0 0 1 -.1973.019z" fill="#5e0505"/><path d="m31 8h-3a1 1 0 0 1 0-2h3a1 1 0 0 1 0 2z" fill="#dd291b"/><path d="m53.001 36a1 1 0 0 1 -.4483-1.8945l2-1a1 1 0 1 1 .8946 1.789l-2 1a.9945.9945 0 0 1 -.4463.1055z" fill="#b7170f"/><path d="m8 37a1 1 0 0 1 -1-1v-3a1 1 0 0 1 2 0v3a1 1 0 0 1 -1 1z" fill="#990a07"/><path d="m14.999 20a.9945.9945 0 0 1 -.4463-.1055l-2-1a1 1 0 0 1 .8946-1.789l2 1a1 1 0 0 1 -.4483 1.8945z" fill="#990a07"/><path d="m41.001 44a.9931.9931 0 0 1 -.2432-.03l-2.1172-.5293a1 1 0 0 1 .4844-1.94l2.1172.5293a1 1 0 0 1 -.2412 1.97z" fill="#5e0505"/><path d="m34 39h-4a1 1 0 0 0 -1 1v18a3 3 0 0 0 6 0v-18a1 1 0 0 0 -1-1z" fill="#fcb322"/><circle cx="32" cy="25" fill="#132d3f" r="16"/><circle cx="32" cy="25" fill="#bbe8ff" r="11"/><g fill="#ee5a4c"><path d="m35.001 24a1 1 0 0 1 -.4483-1.8945l2-1a1 1 0 1 1 .8946 1.789l-2 1a.9945.9945 0 0 1 -.4463.1055z"/><path d="m31.999 28a.9945.9945 0 0 1 -.4463-.1055l-2-1a1 1 0 1 1 .8946-1.789l2 1a1 1 0 0 1 -.4483 1.8945z"/></g></svg>