<svg id="Capa_1" enable-background="new 0 0 512 512" height="512" viewBox="0 0 512 512" width="512" xmlns="http://www.w3.org/2000/svg"><path d="m439.326 108.645h-216.607c-7.897 0-14.801-5.322-16.812-12.958l-8.003-30.398c-2.059-7.819-9.128-13.268-17.214-13.268h-57.505c-8.085 0-15.155 5.449-17.214 13.269l-8.003 30.398c-2.01 7.636-8.915 12.959-16.812 12.959h-8.483c-26.308 0-47.635 21.327-47.635 47.635v141.909c0 38.087 30.876 68.963 68.963 68.963h323.997c38.087 0 68.963-30.876 68.963-68.963v-141.911c0-26.308-21.327-47.635-47.635-47.635z" fill="#efd176"/><path d="m404.978 263.741h-187.34c-19.725 0-35.715-15.99-35.715-35.715v-192.311c.001-19.725 15.991-35.715 35.716-35.715h187.34c19.725 0 35.715 15.99 35.715 35.715v192.311c-.001 19.725-15.991 35.715-35.716 35.715z" fill="#fcf2d0"/><path d="m266.227 0h-48.588c-19.725 0-35.715 15.99-35.715 35.715v192.311c0 19.725 15.99 35.715 35.715 35.715h84.538c-39.517-71.961-47.99-218.028-35.95-263.741z" fill="#f6e3a3"/><path d="m386.751 110.52h-34.11c-4.143 0-7.5-3.357-7.5-7.5s3.357-7.5 7.5-7.5h34.11c4.143 0 7.5 3.357 7.5 7.5 0 4.142-3.357 7.5-7.5 7.5z" fill="#9aa3b1"/><path d="m326.409 110.52h-90.543c-4.143 0-7.5-3.357-7.5-7.5s3.357-7.5 7.5-7.5h90.543c4.143 0 7.5 3.357 7.5 7.5 0 4.142-3.357 7.5-7.5 7.5z" fill="#c6c6c6"/><path d="m386.751 148.121h-73.337c-4.143 0-7.5-3.357-7.5-7.5s3.357-7.5 7.5-7.5h73.337c4.143 0 7.5 3.357 7.5 7.5s-3.357 7.5-7.5 7.5z" fill="#c6c6c6"/><path d="m287.183 148.121h-51.316c-4.143 0-7.5-3.357-7.5-7.5s3.357-7.5 7.5-7.5h51.316c4.143 0 7.5 3.357 7.5 7.5s-3.358 7.5-7.5 7.5z" fill="#9aa3b1"/><path d="m338.862 58.951h-55.108c-4.143 0-7.5-3.357-7.5-7.5s3.357-7.5 7.5-7.5h55.108c4.143 0 7.5 3.357 7.5 7.5s-3.357 7.5-7.5 7.5z" fill="#4e5660"/><path d="m398.532 512h-285.064c-30.683 0-57.223-21.374-63.763-51.352l-48.677-223.115c-5.981-27.417 14.9-53.345 42.962-53.345h424.02c28.061 0 48.943 25.929 42.962 53.345l-48.677 223.115c-6.541 29.978-33.08 51.352-63.763 51.352z" fill="#f7ef87"/><path d="m350.075 374.868c0 2.609-1.291 5.218-3.873 6.709l-75.816 43.773c-8.902 5.139-19.869 5.139-28.77 0l-75.816-43.773c-2.582-1.491-3.873-4.099-3.873-6.708v-104.177h188.15v104.176z" fill="#8eafe2"/><path d="m256 429.204c4.967 0 9.934-1.285 14.385-3.854l75.816-43.773c2.582-1.491 3.873-4.1 3.873-6.709v-104.176h-94.074z" fill="#7acefa"/><path d="m165.798 263.983 75.816-43.773c8.902-5.139 19.869-5.139 28.77 0l75.816 43.773c5.164 2.982 5.164 10.436 0 13.418l-75.816 43.773c-8.902 5.139-19.869 5.139-28.77 0l-75.816-43.773c-5.164-2.982-5.164-10.436 0-13.418z" fill="#a3defe"/><ellipse cx="210.733" cy="279.577" fill="#fff" rx="16.703" ry="13.301"/><ellipse cx="301.267" cy="279.577" fill="#fff" rx="16.703" ry="13.301"/><g fill="#4e5660"><path d="m220.467 273.808c-4.143 0-7.5-3.357-7.5-7.5v-5.897c0-4.143 3.357-7.5 7.5-7.5s7.5 3.357 7.5 7.5v5.897c0 4.142-3.358 7.5-7.5 7.5z"/><path d="m291.533 273.808c-4.143 0-7.5-3.357-7.5-7.5v-5.897c0-4.143 3.357-7.5 7.5-7.5s7.5 3.357 7.5 7.5v5.897c0 4.142-3.357 7.5-7.5 7.5z"/><path d="m256 278.337c-5.759 0-11.234-2.493-15.023-6.84-2.722-3.123-2.395-7.86.727-10.582 3.122-2.721 7.859-2.396 10.582.727.552.633 1.768 1.695 3.714 1.695s3.162-1.063 3.714-1.695c2.722-3.123 7.457-3.448 10.582-.727 3.122 2.722 3.448 7.459.727 10.582-3.789 4.347-9.264 6.84-15.023 6.84z"/><path d="m324.832 468.873h-137.664c-4.143 0-7.5-3.357-7.5-7.5 0-4.142 3.357-7.5 7.5-7.5h137.664c4.143 0 7.5 3.358 7.5 7.5 0 4.143-3.357 7.5-7.5 7.5z"/></g></svg>