<svg id="Layer_1" enable-background="new 0 0 512 512" viewBox="0 0 512 512" xmlns="http://www.w3.org/2000/svg" xmlns:xlink="http://www.w3.org/1999/xlink"><linearGradient id="SVGID_1_" gradientUnits="userSpaceOnUse" x1="207.257" x2="297.295" y1="256" y2="256"><stop offset="0" stop-color="#eaf9fa"/><stop offset="1" stop-color="#b3dafe"/></linearGradient><linearGradient id="lg1"><stop offset="0" stop-color="#ffdfcf"/><stop offset="1" stop-color="#ffa78f"/></linearGradient><linearGradient id="SVGID_00000116219856369786066220000008507392533657663421_" gradientUnits="userSpaceOnUse" x1="263.939" x2="270.501" xlink:href="#lg1" y1="262.081" y2="268.642"/><linearGradient id="SVGID_00000098203366639857944880000011259205681330861217_" gradientUnits="userSpaceOnUse" x1="241.531" x2="248.093" xlink:href="#lg1" y1="281.659" y2="288.221"/><linearGradient id="SVGID_00000054956242814208858040000017631507424244132258_" gradientUnits="userSpaceOnUse" x1="252.296" x2="256.83" xlink:href="#lg1" y1="269.512" y2="274.045"/><linearGradient id="SVGID_00000143592738729672466690000006563931551050383029_" gradientUnits="userSpaceOnUse" x1="246.089" x2="249.126" xlink:href="#lg1" y1="260.356" y2="263.393"/><linearGradient id="SVGID_00000156554837618838928850000001760953294617133442_" gradientUnits="userSpaceOnUse" x1="266.114" x2="269.151" xlink:href="#lg1" y1="282.209" y2="285.246"/><linearGradient id="SVGID_00000039098213826979792860000000593514137407676558_" gradientUnits="userSpaceOnUse" x1="254.967" x2="258.004" xlink:href="#lg1" y1="295.262" y2="298.299"/><linearGradient id="SVGID_00000111888055060731095670000015863660277975489718_" gradientUnits="userSpaceOnUse" x1="213.241" x2="296.809" xlink:href="#lg1" y1="216.866" y2="216.866"/><linearGradient id="lg2"><stop offset="0" stop-color="#f89580" stop-opacity="0"/><stop offset=".2699" stop-color="#f08f7a" stop-opacity=".271"/><stop offset=".6945" stop-color="#d97f69" stop-opacity=".696"/><stop offset=".9972" stop-color="#c5715a"/></linearGradient><linearGradient id="SVGID_00000156574560896692477060000007835625728344327869_" gradientUnits="userSpaceOnUse" x1="256" x2="256" xlink:href="#lg2" y1="197.693" y2="254.25"/><linearGradient id="SVGID_00000130646509044190826590000000164316304805735554_" gradientUnits="userSpaceOnUse" x1="263.29" x2="289.904" xlink:href="#lg2" y1="201.804" y2="236.497"/><linearGradient id="SVGID_00000072238971760738364460000004922124325211963565_" gradientUnits="userSpaceOnUse" x1="183.381" x2="305.759" xlink:href="#lg2" y1="155.41" y2="305.912"/><linearGradient id="SVGID_00000110435739727502316980000012185134486425744807_" gradientUnits="userSpaceOnUse" x1="197.659" x2="320.037" xlink:href="#lg2" y1="150.894" y2="301.396"/><linearGradient id="SVGID_00000021115811809008140790000018134649017290699653_" gradientUnits="userSpaceOnUse" x1="190.951" x2="313.329" xlink:href="#lg2" y1="156.348" y2="306.85"/><linearGradient id="SVGID_00000029011290618562421370000015158551299352090276_" gradientUnits="userSpaceOnUse" x1="193.658" x2="316.036" xlink:href="#lg2" y1="85.894" y2="236.396"/><linearGradient id="SVGID_00000108277221988796025320000000933944091176897956_" gradientUnits="userSpaceOnUse" x1="214.743" x2="301.847" xlink:href="#lg1" y1="391.78" y2="391.78"/><linearGradient id="SVGID_00000170273758647044017250000017437132790250069127_" gradientUnits="userSpaceOnUse" x1="274.913" x2="311.507" xlink:href="#lg2" y1="405.24" y2="393.359"/><linearGradient id="SVGID_00000000223953404386324080000016920300160899949743_" gradientUnits="userSpaceOnUse" x1="256" x2="256" xlink:href="#lg2" y1="404.901" y2="453.854"/><linearGradient id="SVGID_00000142173640170393983350000015713863802735743635_" gradientUnits="userSpaceOnUse" x1="231.456" x2="353.834" xlink:href="#lg2" y1="295.673" y2="446.175"/><linearGradient id="SVGID_00000034779249737512274690000006237401559818899628_" gradientUnits="userSpaceOnUse" x1="177.489" x2="299.867" xlink:href="#lg2" y1="339.556" y2="490.058"/><linearGradient id="SVGID_00000011026784666617213550000014500302713255986830_" gradientUnits="userSpaceOnUse" x1="223.873" x2="346.251" xlink:href="#lg2" y1="301.839" y2="452.341"/><linearGradient id="SVGID_00000163764014975342490280000005408114482302830470_" gradientUnits="userSpaceOnUse" x1="171.696" x2="294.074" xlink:href="#lg2" y1="344.266" y2="494.768"/><linearGradient id="SVGID_00000034080612485253165410000004124827308061035923_" gradientUnits="userSpaceOnUse" x1="217.166" x2="339.544" xlink:href="#lg2" y1="307.293" y2="457.795"/><linearGradient id="SVGID_00000049181414682713251750000004646379811082722738_" gradientUnits="userSpaceOnUse" x1="209.939" x2="332.317" xlink:href="#lg2" y1="313.17" y2="463.672"/><linearGradient id="lg3"><stop offset="0" stop-color="#b3dafe" stop-opacity="0"/><stop offset="1" stop-color="#7bacdf"/></linearGradient><linearGradient id="SVGID_00000083801839393695760870000015087470276685072809_" gradientUnits="userSpaceOnUse" x1="283.178" x2="359.219" xlink:href="#lg3" y1="256" y2="256"/><linearGradient id="SVGID_00000091719377045516238040000014338400822953158041_" gradientUnits="userSpaceOnUse" x1="256" x2="256" xlink:href="#lg3" y1="88.861" y2="56.147"/><linearGradient id="SVGID_00000063594223505903916690000006778453869102519972_" gradientUnits="userSpaceOnUse" x1="256" x2="256" xlink:href="#lg3" y1="400.03" y2="455.726"/><linearGradient id="lg4"><stop offset="0" stop-color="#fef0ae"/><stop offset="1" stop-color="#fac600"/></linearGradient><linearGradient id="SVGID_00000001638105932119157730000005798556854532588466_" gradientUnits="userSpaceOnUse" x1="74.977" x2="112.241" xlink:href="#lg4" y1="149.285" y2="149.285"/><linearGradient id="lg5"><stop offset="0" stop-color="#754c24" stop-opacity="0"/><stop offset=".988" stop-color="#754c24" stop-opacity=".988"/><stop offset="1" stop-color="#754c24"/></linearGradient><linearGradient id="SVGID_00000067221239832789513450000006375775936834565798_" gradientUnits="userSpaceOnUse" x1="86.858" x2="114.537" xlink:href="#lg5" y1="149.285" y2="149.285"/><linearGradient id="SVGID_00000109740996224875226020000009956806077905786038_" gradientUnits="userSpaceOnUse" x1="90.871" x2="90.871" xlink:href="#lg5" y1="109.772" y2="85.535"/><linearGradient id="SVGID_00000014629523818511344820000015554743511737984910_" gradientUnits="userSpaceOnUse" x1="90.871" x2="90.871" xlink:href="#lg5" y1="190.564" y2="221.75"/><linearGradient id="SVGID_00000046328922490957770270000008981455342809693082_" gradientUnits="userSpaceOnUse" x1="90.871" x2="90.871" xlink:href="#lg4" y1="57.02" y2="92.692"/><linearGradient id="SVGID_00000080916430378128917730000010742132132238480798_" gradientUnits="userSpaceOnUse" x1="77.339" x2="120.112" xlink:href="#lg5" y1="59.615" y2="82.902"/><linearGradient id="SVGID_00000065764030494005655520000005413829824402182300_" gradientUnits="userSpaceOnUse" x1="90.871" x2="90.871" xlink:href="#lg5" y1="75.079" y2="57.437"/><linearGradient id="SVGID_00000085972090410122576800000017874630488886305686_" gradientTransform="matrix(1 0 0 -1 0 280.917)" gradientUnits="userSpaceOnUse" x1="74.977" x2="112.241" xlink:href="#lg4" y1="-81.798" y2="-81.798"/><linearGradient id="SVGID_00000134230460013770189140000008435331067345779090_" gradientTransform="matrix(1 0 0 -1 0 280.917)" gradientUnits="userSpaceOnUse" x1="86.858" x2="114.537" xlink:href="#lg5" y1="-81.798" y2="-81.798"/><linearGradient id="SVGID_00000003819893786722059970000012699316600194390974_" gradientTransform="matrix(1 0 0 -1 0 280.917)" gradientUnits="userSpaceOnUse" x1="90.871" x2="90.871" xlink:href="#lg5" y1="-121.311" y2="-145.548"/><linearGradient id="SVGID_00000038408243462688474490000009544128453369683380_" gradientTransform="matrix(1 0 0 -1 0 280.917)" gradientUnits="userSpaceOnUse" x1="90.871" x2="90.871" xlink:href="#lg5" y1="-40.519" y2="-9.333"/><linearGradient id="SVGID_00000035492826477142379670000016227430030833901188_" gradientUnits="userSpaceOnUse" x1="90.871" x2="90.871" xlink:href="#lg4" y1="427.713" y2="453.139"/><linearGradient id="SVGID_00000023261897594128972290000018137688000453064112_" gradientTransform="matrix(1 0 0 -1 0 280.917)" gradientUnits="userSpaceOnUse" x1="77.339" x2="120.112" xlink:href="#lg5" y1="-171.468" y2="-148.181"/><linearGradient id="SVGID_00000033329906949262630270000003491706174935382418_" gradientUnits="userSpaceOnUse" x1="74.656" x2="113.259" xlink:href="#lg4" y1="239.785" y2="278.388"/><linearGradient id="SVGID_00000008840070798309812970000014713583262870982843_" gradientUnits="userSpaceOnUse" x1="112.464" x2="67.32" xlink:href="#lg4" y1="277.592" y2="232.449"/><linearGradient id="SVGID_00000009590364986501588580000003165403299777585309_" gradientUnits="userSpaceOnUse" x1="90.871" x2="90.871" xlink:href="#lg5" y1="256.598" y2="294.507"/><linearGradient id="SVGID_00000131330567388715939680000008478545481554280090_" gradientUnits="userSpaceOnUse" x1="97.66" x2="120.101" xlink:href="#lg5" y1="262.789" y2="285.23"/><linearGradient id="lg6"><stop offset="0" stop-color="#a274bf"/><stop offset=".1435" stop-color="#976fbb"/><stop offset=".3928" stop-color="#7b61b3"/><stop offset=".7158" stop-color="#4d4ba4"/><stop offset="1" stop-color="#1f3596"/></linearGradient><linearGradient id="SVGID_00000181774879248640638410000007741644721008124306_" gradientUnits="userSpaceOnUse" x1="80.889" x2="104.745" xlink:href="#lg6" y1="239.4" y2="279.071"/><linearGradient id="lg7"><stop offset="0" stop-color="#1f3596" stop-opacity="0"/><stop offset=".3681" stop-color="#1f3393" stop-opacity=".368"/><stop offset=".6036" stop-color="#1e2e8b" stop-opacity=".604"/><stop offset=".8017" stop-color="#1d247c" stop-opacity=".802"/><stop offset=".9785" stop-color="#1b1667" stop-opacity=".979"/><stop offset="1" stop-color="#1b1464"/></linearGradient><linearGradient id="SVGID_00000166646466784234046750000004209537982774892453_" gradientUnits="userSpaceOnUse" x1="90.871" x2="90.871" xlink:href="#lg7" y1="266.816" y2="274.385"/><linearGradient id="SVGID_00000018940890820668850880000005756086273749952445_" gradientUnits="userSpaceOnUse" x1="90.871" x2="90.871" xlink:href="#lg7" y1="275.602" y2="266.988"/><linearGradient id="SVGID_00000062914754257804225770000011251516885847427261_" gradientUnits="userSpaceOnUse" x1="93.093" x2="99.243" xlink:href="#lg7" y1="277.314" y2="281.004"/><linearGradient id="SVGID_00000116200092445786788560000002205538054617567892_" gradientUnits="userSpaceOnUse" x1="111.961" x2="105.987" xlink:href="#lg7" y1="265.995" y2="262.041"/><linearGradient id="SVGID_00000093884561722260248710000010236225800604718010_" gradientUnits="userSpaceOnUse" x1="111.494" x2="104.728" xlink:href="#lg7" y1="245.302" y2="252.067"/><linearGradient id="SVGID_00000176750658347110415180000002369069595829008529_" gradientUnits="userSpaceOnUse" x1="67.409" x2="77.249" xlink:href="#lg7" y1="266.465" y2="261.808"/><linearGradient id="SVGID_00000149369264451839136170000005587926539184695202_" gradientUnits="userSpaceOnUse" x1="69.644" x2="79.484" xlink:href="#lg7" y1="244.954" y2="254.091"/><linearGradient id="SVGID_00000145757515833326851450000002668685355256127146_" gradientUnits="userSpaceOnUse" x1="90.56" x2="91.614" xlink:href="#lg7" y1="237.606" y2="247.71"/><linearGradient id="SVGID_00000145047098388256591350000008593888533339511943_" gradientUnits="userSpaceOnUse" x1="405.234" x2="442.498" xlink:href="#lg4" y1="149.285" y2="149.285"/><linearGradient id="SVGID_00000058579934747570640870000006609612735085629605_" gradientUnits="userSpaceOnUse" x1="417.116" x2="444.794" xlink:href="#lg5" y1="149.285" y2="149.285"/><linearGradient id="SVGID_00000018204771551634485020000015935952313630853772_" gradientUnits="userSpaceOnUse" x1="421.129" x2="421.129" xlink:href="#lg5" y1="109.772" y2="85.535"/><linearGradient id="SVGID_00000077321371251714602130000004762273452895849370_" gradientUnits="userSpaceOnUse" x1="421.129" x2="421.129" xlink:href="#lg5" y1="190.564" y2="221.75"/><linearGradient id="SVGID_00000117678542972684006080000007943943709381534338_" gradientUnits="userSpaceOnUse" x1="421.129" x2="421.129" xlink:href="#lg4" y1="57.02" y2="92.692"/><linearGradient id="SVGID_00000002373415399252081050000002914531438037457817_" gradientUnits="userSpaceOnUse" x1="407.597" x2="450.369" xlink:href="#lg5" y1="59.615" y2="82.902"/><linearGradient id="SVGID_00000137092045315114728340000012108451790677553338_" gradientUnits="userSpaceOnUse" x1="421.129" x2="421.129" xlink:href="#lg5" y1="75.079" y2="57.437"/><linearGradient id="SVGID_00000136405768308076745100000006988470966406084241_" gradientTransform="matrix(1 0 0 -1 0 280.917)" gradientUnits="userSpaceOnUse" x1="405.234" x2="442.498" xlink:href="#lg4" y1="-81.798" y2="-81.798"/><linearGradient id="SVGID_00000116215387559770731680000013112261863511043485_" gradientTransform="matrix(1 0 0 -1 0 280.917)" gradientUnits="userSpaceOnUse" x1="417.116" x2="444.794" xlink:href="#lg5" y1="-81.798" y2="-81.798"/><linearGradient id="SVGID_00000129920583751782462290000009588511357708785853_" gradientTransform="matrix(1 0 0 -1 0 280.917)" gradientUnits="userSpaceOnUse" x1="421.129" x2="421.129" xlink:href="#lg5" y1="-121.311" y2="-145.548"/><linearGradient id="SVGID_00000058559864555759112380000012011796968976227991_" gradientTransform="matrix(1 0 0 -1 0 280.917)" gradientUnits="userSpaceOnUse" x1="421.129" x2="421.129" xlink:href="#lg5" y1="-40.519" y2="-9.333"/><linearGradient id="SVGID_00000006677008339394855990000015726044228908350096_" gradientUnits="userSpaceOnUse" x1="421.129" x2="421.129" xlink:href="#lg4" y1="427.713" y2="453.139"/><linearGradient id="SVGID_00000034073439683093205520000007229536555569734804_" gradientTransform="matrix(1 0 0 -1 0 280.917)" gradientUnits="userSpaceOnUse" x1="407.597" x2="450.369" xlink:href="#lg5" y1="-171.468" y2="-148.181"/><linearGradient id="SVGID_00000065769297210903098740000010496787994636639382_" gradientUnits="userSpaceOnUse" x1="404.914" x2="443.517" xlink:href="#lg4" y1="239.785" y2="278.388"/><linearGradient id="SVGID_00000098190790566963868380000013505878721767588225_" gradientUnits="userSpaceOnUse" x1="442.721" x2="397.577" xlink:href="#lg4" y1="277.592" y2="232.449"/><linearGradient id="SVGID_00000000191595120604619070000017619719556174768289_" gradientUnits="userSpaceOnUse" x1="421.129" x2="421.129" xlink:href="#lg5" y1="256.598" y2="294.507"/><linearGradient id="SVGID_00000176008992866098397240000003086299975126235068_" gradientUnits="userSpaceOnUse" x1="427.918" x2="450.358" xlink:href="#lg5" y1="262.789" y2="285.23"/><linearGradient id="SVGID_00000126305742031727943680000007979265514510451869_" gradientUnits="userSpaceOnUse" x1="411.147" x2="435.002" xlink:href="#lg6" y1="239.4" y2="279.071"/><linearGradient id="SVGID_00000120554718828474936220000012803918485238622633_" gradientUnits="userSpaceOnUse" x1="421.129" x2="421.129" xlink:href="#lg7" y1="266.816" y2="274.385"/><linearGradient id="SVGID_00000023273020648880997600000017323069577406156695_" gradientUnits="userSpaceOnUse" x1="421.129" x2="421.129" xlink:href="#lg7" y1="275.602" y2="266.988"/><linearGradient id="SVGID_00000098943509060283747690000005401645014406838411_" gradientUnits="userSpaceOnUse" x1="423.35" x2="429.501" xlink:href="#lg7" y1="277.314" y2="281.004"/><linearGradient id="SVGID_00000023261016615416724500000011505423947962527135_" gradientUnits="userSpaceOnUse" x1="442.219" x2="436.244" xlink:href="#lg7" y1="265.995" y2="262.041"/><linearGradient id="SVGID_00000169538254353330006370000015959254636489278649_" gradientUnits="userSpaceOnUse" x1="441.751" x2="434.986" xlink:href="#lg7" y1="245.302" y2="252.067"/><linearGradient id="SVGID_00000178896088139341572450000013458749289275811762_" gradientUnits="userSpaceOnUse" x1="397.666" x2="407.507" xlink:href="#lg7" y1="266.465" y2="261.808"/><linearGradient id="SVGID_00000139981605456940138290000013611615287841863090_" gradientUnits="userSpaceOnUse" x1="399.901" x2="409.742" xlink:href="#lg7" y1="244.954" y2="254.091"/><linearGradient id="SVGID_00000140009957185721530710000015012974674848513704_" gradientUnits="userSpaceOnUse" x1="420.817" x2="421.872" xlink:href="#lg7" y1="237.606" y2="247.71"/><linearGradient id="SVGID_00000048481204020073518830000007930455751822914442_" gradientUnits="userSpaceOnUse" x1="256" x2="256" xlink:href="#lg4" y1="16.016" y2="62.086"/><linearGradient id="SVGID_00000058584814404044425340000017110967466110040470_" gradientUnits="userSpaceOnUse" x1="412.478" x2="492.068" xlink:href="#lg5" y1="29.091" y2="29.091"/><linearGradient id="SVGID_00000026879735809780437310000018088642677521231260_" gradientUnits="userSpaceOnUse" x1="256" x2="256" xlink:href="#lg5" y1="25.237" y2="58.098"/><linearGradient id="SVGID_00000041267270478202849020000017289511728230992317_" gradientUnits="userSpaceOnUse" x1="256" x2="256" xlink:href="#lg4" y1="469.835" y2="515.905"/><linearGradient id="SVGID_00000175288422022628421160000002530408240537717154_" gradientUnits="userSpaceOnUse" x1="412.478" x2="492.068" xlink:href="#lg5" y1="482.909" y2="482.909"/><linearGradient id="SVGID_00000157990576620277323080000002082242774272327055_" gradientUnits="userSpaceOnUse" x1="256" x2="256" xlink:href="#lg5" y1="479.055" y2="511.916"/><g><g><path d="m358.262 326.441c-10.144-30.937-33.6-54.716-62.724-66.139-3.9-1.529-3.9-7.075 0-8.605 29.124-11.423 52.581-35.202 62.724-66.139 3.345-10.201 5.787-20 7.177-28.33l22.659-135.776c.472-2.828-1.709-5.403-4.576-5.403h-255.044c-2.867 0-5.048 2.575-4.576 5.403l22.659 135.776c1.39 8.33 3.833 18.129 7.177 28.33 10.144 30.937 33.6 54.716 62.724 66.139 3.9 1.529 3.9 7.075 0 8.605-29.124 11.423-52.581 35.202-62.724 66.139-3.345 10.201-5.787 20-7.177 28.33l-22.659 135.776c-.472 2.828 1.709 5.403 4.576 5.403h255.044c2.867 0 5.048-2.575 4.576-5.403l-22.659-135.776c-1.39-8.33-3.833-18.129-7.177-28.33z" fill="url(#SVGID_1_)"/><g><circle cx="267.987" cy="266.129" fill="url(#SVGID_00000116219856369786066220000008507392533657663421_)" r="6.18"/><circle cx="245.579" cy="285.707" fill="url(#SVGID_00000098203366639857944880000011259205681330861217_)" r="6.18"/><circle cx="255.093" cy="272.309" fill="url(#SVGID_00000054956242814208858040000017631507424244132258_)" r="4.27"/><circle cx="247.963" cy="262.23" fill="url(#SVGID_00000143592738729672466690000006563931551050383029_)" r="2.86"/><circle cx="267.987" cy="284.083" fill="url(#SVGID_00000156554837618838928850000001760953294617133442_)" r="2.86"/><circle cx="256.84" cy="297.135" fill="url(#SVGID_00000039098213826979792860000000593514137407676558_)" r="2.86"/></g><g><path d="m323.352 183.917-12.317 1.962c-17.368 2.767-35.147 1.338-51.85-4.168-16.455-5.424-33.958-6.893-51.087-4.287l-22.33 3.397c-6.346.965-9.817 7.949-6.737 13.581 10.444 19.099 27.712 33.928 48.524 41.217 10.185 3.567 18.879 10.448 24.823 19.454l.068.103c2.097 3.178 6.759 3.178 8.857 0l.062-.094c5.917-8.965 14.541-15.875 24.685-19.408 19.627-6.837 36.113-20.378 46.712-37.882 4.065-6.711-1.661-15.11-9.41-13.875z" fill="url(#SVGID_00000111888055060731095670000015863660277975489718_)"/><path d="m323.352 183.917-12.317 1.962c-17.368 2.767-35.147 1.338-51.85-4.168-16.455-5.424-33.958-6.893-51.087-4.287l-22.33 3.397c-6.346.965-9.817 7.949-6.737 13.581 10.444 19.099 27.712 33.928 48.524 41.217 10.185 3.567 18.879 10.448 24.823 19.454l.068.103c2.097 3.178 6.759 3.178 8.857 0l.062-.094c5.917-8.965 14.541-15.875 24.685-19.408 19.627-6.837 36.113-20.378 46.712-37.882 4.065-6.711-1.661-15.11-9.41-13.875z" fill="url(#SVGID_00000156574560896692477060000007835625728344327869_)"/><path d="m323.352 183.917-12.317 1.962c-17.368 2.767-35.147 1.338-51.85-4.168-16.455-5.424-33.958-6.893-51.087-4.287l-22.33 3.397c-6.346.965-9.817 7.949-6.737 13.581 10.444 19.099 27.712 33.928 48.524 41.217 10.185 3.567 18.879 10.448 24.823 19.454l.068.103c2.097 3.178 6.759 3.178 8.857 0l.062-.094c5.917-8.965 14.541-15.875 24.685-19.408 19.627-6.837 36.113-20.378 46.712-37.882 4.065-6.711-1.661-15.11-9.41-13.875z" fill="url(#SVGID_00000130646509044190826590000000164316304805735554_)"/><g><circle cx="215.352" cy="194.728" fill="url(#SVGID_00000072238971760738364460000004922124325211963565_)" r="6.587"/><circle cx="257.511" cy="224.501" fill="url(#SVGID_00000110435739727502316980000012185134486425744807_)" r="11.932"/><circle cx="235.593" cy="211.249" fill="url(#SVGID_00000021115811809008140790000018134649017290699653_)" r="4.967"/><circle cx="291.549" cy="206.282" fill="url(#SVGID_00000029011290618562421370000015158551299352090276_)" r="4.967"/></g></g><g><g><path d="m234.099 319.635-103.01 156.076h249.821l-103.01-156.076c-10.371-15.715-33.429-15.715-43.801 0z" fill="url(#SVGID_00000108277221988796025320000000933944091176897956_)"/><path d="m244.683 310.4v165.311h136.228l-103.01-156.076c-7.594-11.505-21.982-14.576-33.218-9.235z" fill="url(#SVGID_00000170273758647044017250000017437132790250069127_)"/><path d="m131.089 475.711h249.822l-60.883-92.246h-128.056z" fill="url(#SVGID_00000000223953404386324080000016920300160899949743_)"/></g><g><circle cx="263.428" cy="334.992" fill="url(#SVGID_00000142173640170393983350000015713863802735743635_)" r="6.587"/><circle cx="247.012" cy="425.056" fill="url(#SVGID_00000034779249737512274690000006237401559818899628_)" r="6.587"/><circle cx="283.726" cy="375.446" fill="url(#SVGID_00000011026784666617213550000014500302713255986830_)" r="11.932"/><circle cx="211.135" cy="392.768" fill="url(#SVGID_00000163764014975342490280000005408114482302830470_)" r="11.932"/><circle cx="261.807" cy="362.194" fill="url(#SVGID_00000034080612485253165410000004124827308061035923_)" r="4.967"/><circle cx="307.83" cy="433.558" fill="url(#SVGID_00000049181414682713251750000004646379811082722738_)" r="4.967"/></g></g><path d="m295.537 251.698c29.124-11.423 52.581-35.202 62.724-66.139 3.345-10.201 5.787-20 7.177-28.33l22.659-135.776c.472-2.828-1.709-5.403-4.576-5.403h-131.611v479.9h131.612c2.867 0 5.048-2.575 4.576-5.403l-22.659-135.776c-1.39-8.33-3.832-18.129-7.177-28.33-10.144-30.937-33.6-54.716-62.724-66.139-3.9-1.529-3.9-7.075-.001-8.604z" fill="url(#SVGID_00000083801839393695760870000015087470276685072809_)"/><path d="m383.522 16.05h-255.044c-2.867 0-5.048 2.575-4.576 5.403l22.474 134.667h219.248l22.474-134.667c.472-2.828-1.709-5.403-4.576-5.403z" fill="url(#SVGID_00000091719377045516238040000014338400822953158041_)"/><path d="m146.561 354.771-22.659 135.776c-.472 2.828 1.709 5.403 4.576 5.403h255.044c2.867 0 5.048-2.575 4.576-5.403l-22.659-135.776c-.377-2.258-.838-4.631-1.366-7.084h-216.146c-.528 2.453-.989 4.827-1.366 7.084z" fill="url(#SVGID_00000063594223505903916690000006778453869102519972_)"/></g><g><g><g><g><path d="m60.381 149.285c0 25.642 3.022 48.997 7.975 66.544 2.019 7.151 8.538 12.088 15.968 12.088h13.094c7.43 0 13.949-4.937 15.968-12.088 4.953-17.547 7.975-40.902 7.975-66.544 0-32.096-4.734-60.608-12.065-78.632h-36.85c-7.33 18.023-12.065 46.536-12.065 78.632z" fill="url(#SVGID_00000001638105932119157730000005798556854532588466_)"/><path d="m109.296 70.652h-29.87v156.514c1.558.482 3.202.751 4.898.751h13.094c7.43 0 13.949-4.937 15.968-12.088 4.953-17.547 7.975-40.902 7.975-66.544 0-32.096-4.734-60.609-12.065-78.633z" fill="url(#SVGID_00000067221239832789513450000006375775936834565798_)"/><path d="m120.685 128.535c-1.552-23.476-5.684-43.857-11.389-57.883h-36.85c-5.705 14.027-9.836 34.407-11.389 57.883z" fill="url(#SVGID_00000109740996224875226020000009956806077905786038_)"/><path d="m61.308 173.455c1.249 16.045 3.706 30.535 7.049 42.373 2.019 7.151 8.538 12.088 15.968 12.088h13.094c7.43 0 13.949-4.937 15.968-12.088 3.342-11.839 5.8-26.328 7.048-42.373z" fill="url(#SVGID_00000014629523818511344820000015554743511737984910_)"/><path d="m104.153 90.711h-26.563c-13.271 0-24.029-10.758-24.029-24.029v-13.682h74.621v13.683c0 13.27-10.759 24.028-24.029 24.028z" fill="url(#SVGID_00000046328922490957770270000008981455342809693082_)"/><path d="m104.153 90.711h-26.563c-13.271 0-24.029-10.758-24.029-24.029v-13.682h74.621v13.683c0 13.27-10.759 24.028-24.029 24.028z" fill="url(#SVGID_00000080916430378128917730000010742132132238480798_)"/><path d="m104.153 90.711h-26.563c-13.271 0-24.029-10.758-24.029-24.029v-13.682h74.621v13.683c0 13.27-10.759 24.028-24.029 24.028z" fill="url(#SVGID_00000065764030494005655520000005413829824402182300_)"/></g><g><path d="m60.381 362.715c0-25.642 3.022-48.997 7.975-66.544 2.019-7.151 8.538-12.088 15.968-12.088h13.094c7.43 0 13.949 4.937 15.968 12.088 4.953 17.547 7.975 40.902 7.975 66.544 0 32.096-4.734 60.608-12.065 78.632h-36.85c-7.33-18.023-12.065-46.536-12.065-78.632z" fill="url(#SVGID_00000085972090410122576800000017874630488886305686_)"/><path d="m109.296 441.348h-29.87v-156.514c1.558-.482 3.202-.751 4.898-.751h13.094c7.43 0 13.949 4.937 15.968 12.088 4.953 17.547 7.975 40.902 7.975 66.544 0 32.096-4.734 60.609-12.065 78.633z" fill="url(#SVGID_00000134230460013770189140000008435331067345779090_)"/><path d="m120.685 383.465c-1.552 23.476-5.684 43.857-11.389 57.883h-36.85c-5.705-14.027-9.836-34.407-11.389-57.883z" fill="url(#SVGID_00000003819893786722059970000012699316600194390974_)"/><path d="m61.308 338.545c1.249-16.045 3.706-30.535 7.049-42.373 2.019-7.151 8.538-12.088 15.968-12.088h13.094c7.43 0 13.949 4.937 15.968 12.088 3.342 11.839 5.8 26.328 7.048 42.373z" fill="url(#SVGID_00000038408243462688474490000009544128453369683380_)"/><path d="m104.153 421.289h-26.563c-13.271 0-24.029 10.758-24.029 24.029v13.682h74.621v-13.683c0-13.27-10.759-24.028-24.029-24.028z" fill="url(#SVGID_00000035492826477142379670000016227430030833901188_)"/><path d="m104.153 421.289h-26.563c-13.271 0-24.029 10.758-24.029 24.029v13.682h74.621v-13.683c0-13.27-10.759-24.028-24.029-24.028z" fill="url(#SVGID_00000023261897594128972290000018137688000453064112_)"/></g><g><circle cx="90.871" cy="256" fill="url(#SVGID_00000033329906949262630270000003491706174935382418_)" r="41.135"/><circle cx="90.871" cy="256" fill="url(#SVGID_00000008840070798309812970000014713583262870982843_)" r="29.563"/><path d="m49.736 256c0 22.718 18.417 41.135 41.135 41.135s41.135-18.417 41.135-41.135c0-4.92-.867-9.637-2.451-14.011h-77.368c-1.584 4.374-2.451 9.091-2.451 14.011z" fill="url(#SVGID_00000009590364986501588580000003165403299777585309_)"/><path d="m61.784 285.087c16.064 16.064 42.11 16.064 58.174 0s16.064-42.11 0-58.174c-3.479-3.479-7.427-6.202-11.64-8.174l-54.708 54.708c1.973 4.213 4.695 8.161 8.174 11.64z" fill="url(#SVGID_00000131330567388715939680000008478545481554280090_)"/></g><g><path d="m113.774 256 7.907-11.549c1.121-1.637-.051-3.86-2.035-3.86h-16.421l-10.319-15.071c-.98-1.431-3.091-1.431-4.07 0l-10.319 15.072h-16.421c-1.984 0-3.156 2.223-2.035 3.86l7.907 11.548-7.907 11.549c-1.121 1.637.051 3.86 2.035 3.86h16.421l10.319 15.072c.98 1.431 3.091 1.431 4.07 0l10.319-15.072h16.421c1.984 0 3.156-2.223 2.035-3.86z" fill="url(#SVGID_00000181774879248640638410000007741644721008124306_)"/><path d="m121.681 267.549-7.907-11.549h-45.806l-7.907 11.549c-1.121 1.637.051 3.86 2.035 3.86h16.421 24.708 16.421c1.984-.001 3.156-2.223 2.035-3.86z" fill="url(#SVGID_00000166646466784234046750000004209537982774892453_)"/><path d="m88.836 286.48c.98 1.431 3.091 1.431 4.07 0l10.319-15.072h-24.708z" fill="url(#SVGID_00000018940890820668850880000005756086273749952445_)"/><path d="m88.836 286.48c.98 1.431 3.091 1.431 4.07 0l10.319-15.072h-24.708z" fill="url(#SVGID_00000062914754257804225770000011251516885847427261_)"/><path d="m121.681 267.549-7.907-11.549-10.549 15.408h16.421c1.984 0 3.156-2.222 2.035-3.859z" fill="url(#SVGID_00000116200092445786788560000002205538054617567892_)"/><path d="m121.681 244.451c1.121-1.637-.051-3.86-2.035-3.86h-16.421l10.549 15.409z" fill="url(#SVGID_00000093884561722260248710000010236225800604718010_)"/><path d="m60.061 267.549c-1.121 1.637.051 3.86 2.035 3.86h16.421l-10.549-15.409z" fill="url(#SVGID_00000176750658347110415180000002369069595829008529_)"/><path d="m62.096 240.592c-1.984 0-3.156 2.223-2.035 3.86l7.907 11.548 10.549-15.408z" fill="url(#SVGID_00000149369264451839136170000005587926539184695202_)"/><path d="m103.225 240.592-10.319-15.072c-.98-1.431-3.091-1.431-4.07 0l-10.319 15.072z" fill="url(#SVGID_00000145757515833326851450000002668685355256127146_)"/></g></g><g><g><path d="m390.639 149.285c0 25.642 3.022 48.997 7.975 66.544 2.019 7.151 8.538 12.088 15.968 12.088h13.094c7.43 0 13.949-4.937 15.968-12.088 4.953-17.547 7.975-40.902 7.975-66.544 0-32.096-4.734-60.608-12.065-78.632h-36.85c-7.331 18.023-12.065 46.536-12.065 78.632z" fill="url(#SVGID_00000145047098388256591350000008593888533339511943_)"/><path d="m439.554 70.652h-29.87v156.514c1.558.482 3.202.751 4.898.751h13.094c7.43 0 13.949-4.937 15.968-12.088 4.953-17.547 7.975-40.902 7.975-66.544 0-32.096-4.735-60.609-12.065-78.633z" fill="url(#SVGID_00000058579934747570640870000006609612735085629605_)"/><path d="m450.943 128.535c-1.552-23.476-5.684-43.857-11.389-57.883h-36.85c-5.705 14.027-9.836 34.407-11.389 57.883z" fill="url(#SVGID_00000018204771551634485020000015935952313630853772_)"/><path d="m391.566 173.455c1.249 16.045 3.706 30.535 7.049 42.373 2.019 7.151 8.538 12.088 15.968 12.088h13.094c7.43 0 13.949-4.937 15.968-12.088 3.342-11.839 5.8-26.328 7.048-42.373z" fill="url(#SVGID_00000077321371251714602130000004762273452895849370_)"/><path d="m434.41 90.711h-26.563c-13.271 0-24.029-10.758-24.029-24.029v-13.682h74.621v13.683c0 13.27-10.758 24.028-24.029 24.028z" fill="url(#SVGID_00000117678542972684006080000007943943709381534338_)"/><path d="m434.41 90.711h-26.563c-13.271 0-24.029-10.758-24.029-24.029v-13.682h74.621v13.683c0 13.27-10.758 24.028-24.029 24.028z" fill="url(#SVGID_00000002373415399252081050000002914531438037457817_)"/><path d="m434.41 90.711h-26.563c-13.271 0-24.029-10.758-24.029-24.029v-13.682h74.621v13.683c0 13.27-10.758 24.028-24.029 24.028z" fill="url(#SVGID_00000137092045315114728340000012108451790677553338_)"/></g><g><path d="m390.639 362.715c0-25.642 3.022-48.997 7.975-66.544 2.019-7.151 8.538-12.088 15.968-12.088h13.094c7.43 0 13.949 4.937 15.968 12.088 4.953 17.547 7.975 40.902 7.975 66.544 0 32.096-4.734 60.608-12.065 78.632h-36.85c-7.331-18.023-12.065-46.536-12.065-78.632z" fill="url(#SVGID_00000136405768308076745100000006988470966406084241_)"/><path d="m439.554 441.348h-29.87v-156.514c1.558-.482 3.202-.751 4.898-.751h13.094c7.43 0 13.949 4.937 15.968 12.088 4.953 17.547 7.975 40.902 7.975 66.544 0 32.096-4.735 60.609-12.065 78.633z" fill="url(#SVGID_00000116215387559770731680000013112261863511043485_)"/><path d="m450.943 383.465c-1.552 23.476-5.684 43.857-11.389 57.883h-36.85c-5.705-14.027-9.836-34.407-11.389-57.883z" fill="url(#SVGID_00000129920583751782462290000009588511357708785853_)"/><path d="m391.566 338.545c1.249-16.045 3.706-30.535 7.049-42.373 2.019-7.151 8.538-12.088 15.968-12.088h13.094c7.43 0 13.949 4.937 15.968 12.088 3.342 11.839 5.8 26.328 7.048 42.373z" fill="url(#SVGID_00000058559864555759112380000012011796968976227991_)"/><path d="m434.41 421.289h-26.563c-13.271 0-24.029 10.758-24.029 24.029v13.682h74.621v-13.683c0-13.27-10.758-24.028-24.029-24.028z" fill="url(#SVGID_00000006677008339394855990000015726044228908350096_)"/><path d="m434.41 421.289h-26.563c-13.271 0-24.029 10.758-24.029 24.029v13.682h74.621v-13.683c0-13.27-10.758-24.028-24.029-24.028z" fill="url(#SVGID_00000034073439683093205520000007229536555569734804_)"/></g><g><circle cx="421.129" cy="256" fill="url(#SVGID_00000065769297210903098740000010496787994636639382_)" r="41.135"/><circle cx="421.129" cy="256" fill="url(#SVGID_00000098190790566963868380000013505878721767588225_)" r="29.563"/><path d="m379.993 256c0 22.718 18.417 41.135 41.135 41.135s41.135-18.417 41.135-41.135c0-4.92-.867-9.637-2.451-14.011h-77.368c-1.584 4.374-2.451 9.091-2.451 14.011z" fill="url(#SVGID_00000000191595120604619070000017619719556174768289_)"/><path d="m392.042 285.087c16.064 16.064 42.11 16.064 58.174 0s16.064-42.11 0-58.174c-3.479-3.479-7.427-6.202-11.64-8.174l-54.708 54.708c1.972 4.213 4.695 8.161 8.174 11.64z" fill="url(#SVGID_00000176008992866098397240000003086299975126235068_)"/></g><g><path d="m444.032 256 7.907-11.549c1.121-1.637-.051-3.86-2.035-3.86h-16.421l-10.319-15.072c-.98-1.431-3.091-1.431-4.07 0l-10.319 15.072h-16.421c-1.984 0-3.156 2.223-2.035 3.86l7.907 11.549-7.907 11.549c-1.121 1.637.051 3.86 2.035 3.86h16.421l10.319 15.072c.98 1.431 3.091 1.431 4.07 0l10.319-15.072h16.421c1.984 0 3.156-2.223 2.035-3.86z" fill="url(#SVGID_00000126305742031727943680000007979265514510451869_)"/><path d="m451.939 267.549-7.907-11.549h-45.806l-7.907 11.549c-1.121 1.637.051 3.86 2.035 3.86h16.421 24.707 16.421c1.984-.001 3.156-2.223 2.036-3.86z" fill="url(#SVGID_00000120554718828474936220000012803918485238622633_)"/><path d="m419.094 286.48c.98 1.431 3.091 1.431 4.07 0l10.319-15.072h-24.707z" fill="url(#SVGID_00000023273020648880997600000017323069577406156695_)"/><path d="m419.094 286.48c.98 1.431 3.091 1.431 4.07 0l10.319-15.072h-24.707z" fill="url(#SVGID_00000098943509060283747690000005401645014406838411_)"/><path d="m451.939 267.549-7.907-11.549-10.549 15.408h16.421c1.983 0 3.155-2.222 2.035-3.859z" fill="url(#SVGID_00000023261016615416724500000011505423947962527135_)"/><path d="m451.939 244.451c1.121-1.637-.051-3.86-2.035-3.86h-16.421l10.549 15.409z" fill="url(#SVGID_00000169538254353330006370000015959254636489278649_)"/><path d="m390.319 267.549c-1.121 1.637.051 3.86 2.035 3.86h16.421l-10.549-15.409z" fill="url(#SVGID_00000178896088139341572450000013458749289275811762_)"/><path d="m392.354 240.592c-1.984 0-3.156 2.223-2.035 3.86l7.907 11.548 10.549-15.408z" fill="url(#SVGID_00000139981605456940138290000013611615287841863090_)"/><path d="m433.483 240.592-10.319-15.072c-.98-1.431-3.091-1.431-4.07 0l-10.319 15.072z" fill="url(#SVGID_00000140009957185721530710000015012974674848513704_)"/></g></g></g><g><g><path d="m466.981 58.182h-421.962c-16.066 0-29.091-13.024-29.091-29.091 0-16.067 13.024-29.091 29.091-29.091h421.962c16.066 0 29.091 13.024 29.091 29.091 0 16.066-13.024 29.091-29.091 29.091z" fill="url(#SVGID_00000048481204020073518830000007930455751822914442_)"/><path d="m466.981 0h-138.622v58.182h138.622c16.066 0 29.091-13.024 29.091-29.091 0-16.067-13.024-29.091-29.091-29.091z" fill="url(#SVGID_00000058584814404044425340000017110967466110040470_)"/><path d="m15.928 29.091c0 16.067 13.024 29.091 29.091 29.091h421.963c16.066 0 29.091-13.024 29.091-29.091 0-5.598-1.584-10.823-4.324-15.26h-471.497c-2.74 4.436-4.324 9.662-4.324 15.26z" fill="url(#SVGID_00000026879735809780437310000018088642677521231260_)"/></g><g><path d="m466.981 512h-421.962c-16.066 0-29.091-13.024-29.091-29.091 0-16.066 13.024-29.091 29.091-29.091h421.962c16.066 0 29.091 13.024 29.091 29.091 0 16.067-13.024 29.091-29.091 29.091z" fill="url(#SVGID_00000041267270478202849020000017289511728230992317_)"/><path d="m466.981 453.818h-138.622v58.182h138.622c16.066 0 29.091-13.024 29.091-29.091 0-16.066-13.024-29.091-29.091-29.091z" fill="url(#SVGID_00000175288422022628421160000002530408240537717154_)"/><path d="m15.928 482.909c0 16.067 13.024 29.091 29.091 29.091h421.963c16.066 0 29.091-13.024 29.091-29.091 0-5.598-1.584-10.823-4.324-15.26h-471.497c-2.74 4.437-4.324 9.663-4.324 15.26z" fill="url(#SVGID_00000157990576620277323080000002082242774272327055_)"/></g></g></g></g><g/><g/><g/><g/><g/><g/><g/><g/><g/><g/><g/><g/><g/><g/><g/></svg>