<svg id="Layer_1" enable-background="new 0 0 512 512" viewBox="0 0 512 512" xmlns="http://www.w3.org/2000/svg" xmlns:xlink="http://www.w3.org/1999/xlink"><linearGradient id="SVGID_1_" gradientTransform="matrix(1 0 0 -1 0 514.83)" gradientUnits="userSpaceOnUse" x1="66.496" x2="445.517" y1="448.341" y2="69.319"><stop offset="0" stop-color="#f8da30"/><stop offset="1" stop-color="#fdab22"/></linearGradient><linearGradient id="SVGID_00000176728857459570000750000009470103289248617892_" gradientTransform="matrix(1 0 0 -1 0 514.83)" gradientUnits="userSpaceOnUse" x1="125.62" x2="445.401" y1="388.985" y2="69.204"><stop offset="0" stop-color="#dd7c1b"/><stop offset="1" stop-color="#dd7c1b" stop-opacity="0"/></linearGradient><g id="Layer_2_00000143579055877637506580000017375552762762289854_"><g id="_Group_"><g id="Myanmar"><path d="m420.7 444.9c-109.4 14.2-220.1 14.2-329.5 0-35.9-5-73.3-38.9-80.6-74.7-14.2-75.5-14.2-153 0-228.5 7.4-35.7 44.7-69.6 80.7-74.6 109.4-14.2 220.1-14.2 329.5 0 36 5 73.3 38.9 80.6 74.7 14.2 75.5 14.2 153 0 228.5-7.3 35.7-44.7 69.6-80.7 74.6z" fill="url(#SVGID_1_)"/><path d="m501.3 370.2c-7.3 35.8-44.6 69.7-80.6 74.7-75.7 9.8-152.2 12.9-228.5 9.1l-115.2-115.2-4.5-14.9v-136.4l2-10.6 13.3-8.1 17.3-.5 14.2 1.8 6.5 6.3 47.6 47.6 12.1-47.6 12.4-7.7 8.3-.4h14.2l12.5 4 42.9 42.9-2.7-27.7 5.9-15.2 15.9-3.9 25 1.8 54.5 54.5 11.7-48.2 6.5-6.3 14.2-1.8h10.8l15.9 3.9 78.4 78.4c.4 40.1-3.2 80.1-10.6 119.5z" fill="url(#SVGID_00000176728857459570000750000009470103289248617892_)"/><g fill="#fff"><path d="m132.3 314.7-27.6-109.8v119c0 6.6-1.5 11.5-4.4 14.8-3 3.3-7.3 5.1-11.7 4.9-4.4.1-8.6-1.6-11.5-4.9-3-3.2-4.5-8.2-4.5-14.9v-136.3c0-7.5 2-12.6 5.9-15.2s9.2-3.9 15.9-3.9h10.8c6.5 0 11.2.6 14.2 1.8 2.9 1.2 5.3 3.4 6.5 6.3 2 4.9 3.6 9.9 4.8 15l25.1 94.4 25.1-94.4c1.2-5.1 2.8-10.1 4.8-15 1.2-2.9 3.6-5.2 6.5-6.3 2.9-1.2 7.7-1.8 14.2-1.8h10.8c6.7 0 12 1.3 15.9 3.9s5.9 7.7 5.9 15.2v136.4c0 6.6-1.5 11.5-4.4 14.8s-6.9 4.9-11.8 4.9c-4.3.1-8.5-1.7-11.4-4.9-3-3.3-4.5-8.2-4.5-14.8v-119l-27.6 109.8c-1.8 7.1-3.3 12.4-4.4 15.7-1.3 3.5-3.4 6.7-6.3 9.1-3.1 2.7-7.3 4.1-12.7 4.1-7 .3-13.5-3.3-16.9-9.4-1.6-2.9-2.9-5.9-3.7-9.1-1.1-3.3-2.1-6.8-3-10.4z"/><path d="m332.9 314.7-27.6-109.8v119c0 6.6-1.5 11.5-4.4 14.8-6.2 6.4-16.5 6.6-22.9.4-.1-.1-.2-.2-.3-.3-3-3.2-4.5-8.2-4.5-14.9v-136.4c0-7.5 2-12.6 5.9-15.2s9.2-3.9 15.9-3.9h10.8c6.5 0 11.2.6 14.2 1.8 2.9 1.2 5.3 3.4 6.5 6.3 2 4.9 3.6 9.9 4.8 15l25 94.4 25-94.4c1.2-5.1 2.8-10.1 4.8-15 1.2-2.9 3.6-5.2 6.5-6.3 2.9-1.2 7.7-1.8 14.2-1.8h10.8c6.7 0 12 1.3 15.9 3.9s5.9 7.7 5.9 15.2v136.4c0 6.6-1.5 11.5-4.4 14.8s-6.9 4.9-11.8 4.9c-4.3.1-8.5-1.7-11.4-4.9-3-3.3-4.5-8.2-4.5-14.8v-119l-27.6 109.8c-1.8 7.1-3.3 12.3-4.4 15.7-1.3 3.5-3.4 6.7-6.3 9.1-3.1 2.7-7.3 4.1-12.7 4.1-7 .3-13.5-3.3-16.9-9.4-1.6-2.9-2.9-5.9-3.7-9.1-.9-3.3-1.8-6.8-2.8-10.4z"/></g></g></g></g></svg>