<svg id="Layer_1" enable-background="new 0 0 68 68" viewBox="0 0 68 68" xmlns="http://www.w3.org/2000/svg"><g><g><g><path d="m2 17.0854511 8.9473696 12.8200226 7.3881654-4.2935161-8.9954948-12.8410187z" fill="#efa003"/><path d="m24.3277855 3.960829-14.9877453 8.8101099 8.9954948 12.8410187 15.037592-8.7389031z" fill="#f9ac00"/></g><path d="m55.9511223 29.9091568-.0802918 21.0935402-22.418148 13.0345039-22.5792217-13.0345039.0704708-21.0935402 4.3750992-2.544508 18.053112-10.4899368 19.9138451 11.4956837z" fill="#ffc239"/><path d="m33.373127 16.8730545-22.4257574 13.0324192 22.573822 13.0329723 22.4257574-13.0324192zm.142662 22.5787926-.1375046-.0793724-16.4111652-9.4752254 16.4111652-9.5374107 16.5486679 9.5545979z" fill="#ffc239"/><path d="m16.9671192 29.8972492 16.4111653 9.4752255v-19.0126362z" fill="#efa003"/><path d="m33.3782845 20.3598385v19.0126362l.1375045.0793724 16.4111634-9.5374108z" fill="#e59303"/><g><path d="m43.7444038 7.1155753-10.3712768 9.7574792 13.4621811 7.7723198 10.0962715-9.8181286z" fill="#f9ac00"/><path d="m66 20.1301937-9.0684204-5.302948-10.0962715 9.8181286 9.1116409 5.2606525z" fill="#efa003"/></g></g><g><g><g><g><g><path d="m45.950573 35.5971413.0042877-2.1181183.006649-3.1131954h-.0014458c0 .0019512-.0001259.0038033-.0001259.0057755l-25.703226-.1310597c-.0005779-.0030708-.000536-.0058537-.0005779-.0085983h-.000248l-.0067711 3.5244217-.0033855 1.7672119c-.0008659.1166878.0042686.2325325.0135288.3483658 10.9615459 7.4249267 19.2770042 6.5551681 25.6913147-.2748032z" fill="#f0f0f7"/><g><path d="m45.9597321 30.3658276c-.0331116 1.8713627-1.2761803 3.735014-3.7334137 5.1630192-5.002533 2.9071579-13.1403122 2.9074936-18.1760788.0000839-2.5323353-1.4620438-3.797739-3.3808479-3.7939816-5.2969856h-.000082l-.0105705 5.2916489c-.0054073 1.9174118 1.2600365 3.8377914 3.7940636 5.3008041 5.0357685 2.9074097 13.1735497 2.9070778 18.1760826-.0000839 2.4854736-1.4443893 3.7296524-3.3344803 3.7350197-5.2274323l.0104065-5.2310543z" fill="#252728"/></g><g><g enable-background="new"><g><path d="m45.9597321 30.3658276c-.0331116 1.8713627-1.2761383 3.735014-3.7334137 5.1630192-.7844505.4558754-1.6461105.8401222-2.5606995 1.153038v5.2920265c.9107094-.3122635 1.768692-.6954651 2.5501328-1.149601 2.4854736-1.4443932 3.7296524-3.3344841 3.7350197-5.2274284l.0104065-5.2310543z" fill="#1d1e1e"/></g><g><path d="m28.1096954 37.1136589c-1.4732838-.362709-2.8555698-.8896523-4.0594559-1.5847282-2.534029-1.4630127-3.7995148-3.3833923-3.7940636-5.3008041l-.0105705 5.2954636c-.0054073 1.9174156 1.2600365 3.8377914 3.7940636 5.3008118 1.2067757.6967354 2.5927792 1.2246017 4.0700264 1.5873795z" fill="#1d1e1e"/></g></g></g><g><g><g><path d="m40.3629417 39.4008064c.0006256.2285461-.077858.4822121-.2065735.7076149-.1324768.2329445-.3176956.4370041-.5223999.5556717-.2052994.1186676-.3911629.1287155-.5242653.0489731l-.1944237-.1137466c-.1287193-.0772285-.2090874-.2385941-.2097015-.4671402 0-.0841331.0106697-.1714096.0301361-.2593117.0866394-.3848877.3497162-.7842178.6655388-.9832535.0112991-.0069046.0226135-.013813.0332794-.020092.2052994-.1184921.3001213-.178299.5723839-.0210876l.1387825.0814629c.001255.0006294.0018845.0012589.0025139.0012589l.0006294.0006294c.1318436.0759734.2134705.2385901.2140999.4690207z" fill="#3293fc"/><path d="m39.6290245 38.9828072c.4038391-.2331581.7326546-.0457726.7339706.4182663.0006485.22855-.0782051.481678-.2066154.7076073-.1324348.2329941-.3175583.4370499-.5225906.5554237-.2050858.1184082-.3907318.1284599-.5240135.0489082-.1292801-.0771523-.2093086-.2385979-.2099533-.4671745-.0013161-.4640389.3251914-1.0297776.7292022-1.263031z" fill="#3293fc"/><g><path d="m39.6290436 38.9827309c.203289-.1172829.3874359-.128067.520359-.0506859l-.2452278-.1441803c-.1331863-.0773811-.3173332-.0663261-.5206223.0509567-.0112419.0064888-.0223923.0133286-.0335159.0203247l.245121.1441231c.0112419-.0070763.0225258-.0139809.033886-.0205383z" fill="#0f7ed1"/><path d="m38.6844978 39.8424072c-.0197754.0880318-.0304375.1753235-.0302391.2592735.0008011.2286339.080883.3901291.2100258.4672394l.245491.1441803c-.129406-.0771103-.2092133-.2386055-.2100296-.4672356-.0002365-.0839195.010376-.1711845.0301094-.2592049z" fill="#0f7ed1"/><path d="m39.5951576 39.0032692-.245121-.1441231c-.3160057.1989021-.5790863.5982628-.6655388.9832611l.2453575.1442528c.0862694-.3849487.3492318-.7843857.6653023-.9833908z" fill="#1d80ed"/></g></g><g><path d="m42.4956093 38.1695061c.0006294.22855-.0778542.4822121-.2065735.7076187-.132473.2329445-.3176918.4370041-.5223961.5556717-.2052994.1186676-.3911629.1287155-.5242653.0489731l-.1944237-.1137505c-.1287193-.0772247-.2090874-.2385902-.2097015-.4671364 0-.0841331.0106697-.1714096.0301361-.2593155.0866394-.3848877.3497162-.784214.6655388-.9832497.0112991-.0069084.0226097-.0138168.0332794-.020092.2052994-.1184921.3001213-.178299.5723839-.0210915l.1387825.0814667c.001255.0006294.0018845.0012589.0025139.0012589l.0006256.0006256c.1318474.0759735.2134743.2385941.2140999.4690209z" fill="#3293fc"/><path d="m41.7616959 37.7515068c.4038391-.2331543.7326546-.0457687.7339706.4182701.0006447.2285461-.0782051.481678-.2066154.7076073-.1324348.2329941-.3175583.4370461-.5225906.5554237-.2050858.1184044-.3907318.1284561-.5240135.0489082-.1292801-.0771561-.2093086-.2386017-.2099571-.4671783-.0013162-.4640388.3251952-1.0297737.729206-1.263031z" fill="#3293fc"/><g><path d="m41.7617149 37.7514305c.2032852-.1172791.3874359-.1280632.520359-.0506859l-.2452278-.1441803c-.1331863-.0773773-.3173332-.0663223-.5206223.0509567-.0112419.0064926-.0223923.0133324-.0335159.0203285l.245121.1441193c.011242-.0070724.0225221-.0139808.033886-.0205383z" fill="#0f7ed1"/><path d="m40.8171654 38.6111069c-.0197716.0880356-.0304337.1753273-.0302391.2592773.0008049.2286301.0808868.3901291.2100296.4672394l.245491.1441803c-.1294098-.0771103-.2092133-.2386093-.2100296-.4672394-.0002365-.0839195.010376-.1711845.0301094-.259201z" fill="#0f7ed1"/><path d="m41.727829 37.7719688-.245121-.1441193c-.3160057.1989021-.5790901.5982628-.6655426.9832573l.2453613.1442566c.0862656-.3849525.3492317-.7843894.6653023-.9833946z" fill="#1d80ed"/></g></g><g><path d="m44.6282806 36.9382095c.0006294.2285461-.0778542.4822121-.2065735.7076187-.132473.2329407-.3176918.4370003-.5223961.5556717-.2052994.1186638-.3911667.1287117-.5242653.0489693l-.1944237-.1137466c-.1287193-.0772285-.2090874-.2385902-.2097015-.4671402 0-.0841331.0106697-.1714096.0301361-.2593117.0866394-.3848877.3497162-.7842178.6655388-.9832535.0112991-.0069046.0226097-.013813.0332794-.020092.2052994-.1184883.3001213-.178299.5723839-.0210876l.1387787.0814667c.0012589.0006256.0018883.001255.0025139.001255l.0006294.0006294c.1318436.0759735.2134705.2385902.2140999.4690208z" fill="#3293fc"/><path d="m43.8943672 36.5202103c.4038391-.2331581.7326508-.0457726.7339668.4182663.0006485.22855-.0782013.4816818-.2066154.7076111-.132431.2329903-.3175583.4370461-.5225868.5554199-.2050858.1184082-.3907318.1284599-.5240135.048912-.1292839-.0771561-.2093086-.2386017-.2099571-.4671783-.0013161-.4640389.3251952-1.0297776.729206-1.263031z" fill="#3293fc"/><g><path d="m43.8943825 36.520134c.203289-.1172791.3874359-.128067.520359-.0506859l-.245224-.1441803c-.1331863-.0773811-.3173332-.0663261-.5206223.0509567-.0112457.0064888-.0223961.0133286-.0335197.0203247l.245121.1441231c.0112457-.0070724.0225258-.0139809.033886-.0205383z" fill="#0f7ed1"/><path d="m42.9498367 37.3798103c-.0197716.0880318-.0304337.1753235-.0302391.2592735.0008049.2286339.080883.3901329.2100296.4672394l.245491.1441803c-.1294098-.0771103-.2092133-.2386055-.2100296-.4672356-.0002365-.0839195.0103722-.1711845.0301094-.259201z" fill="#0f7ed1"/><path d="m43.8604965 36.5406723-.245121-.1441231c-.3160019.1989021-.5790863.5982666-.6655388.9832611l.2453613.1442566c.0862656-.3849525.3492318-.7843895.6652985-.9833946z" fill="#1d80ed"/></g></g></g></g><g><ellipse cx="33.109" cy="30.265" fill="#f0f0f7" rx="7.445" ry="12.853" transform="matrix(.003 -1 1 .003 2.75 63.287)"/></g><g><ellipse cx="33.109" cy="30.265" fill="#d7d7e2" rx="4.131" ry="7.131" transform="matrix(.003 -1 1 .003 2.75 63.287)"/></g></g></g></g><g><g><g><path d="m45.950573 28.4751606.0042877-2.1181183.006649-3.1131954h-.0014458c0 .0019512-.0001259.0038033-.0001259.0057755l-25.703226-.1310597c-.0005779-.0030708-.000536-.0058537-.0005779-.0085983h-.000248l-.0067711 3.5244236-.0033855 1.76721c-.0008659.1166878.0042686.2325306.0135288.3483677 10.9615459 7.4249267 19.2770042 6.5551681 25.6913147-.2748051z" fill="#f0f0f7"/><g><path d="m45.9597321 23.2438469c-.0331116 1.8713627-1.2761803 3.735014-3.7334137 5.1630211-5.002533 2.9071579-13.1403122 2.9074936-18.1760788.000082-2.5323353-1.4620438-3.797739-3.3808479-3.7939816-5.2969856h-.000082l-.0105705 5.2916489c-.0054073 1.9174118 1.2600365 3.8377934 3.7940636 5.300806 5.0357685 2.9074097 13.1735497 2.907074 18.1760826-.0000839 2.4854736-1.4443932 3.7296524-3.3344822 3.7350197-5.2274323l.0104065-5.2310562z" fill="#252728"/></g><g><g enable-background="new"><g><path d="m45.9597321 23.2438469c-.0331116 1.8713627-1.2761383 3.735014-3.7334137 5.1630211-.7844505.4558735-1.6461105.8401222-2.5606995 1.1530361v5.2920246c.9107094-.3122635 1.768692-.6954613 2.5501328-1.1495972 2.4854736-1.4443932 3.7296524-3.3344841 3.7350197-5.2274284l.0104065-5.2310562z" fill="#1d1e1e"/></g><g><path d="m28.1096954 29.9916763c-1.4732838-.3627052-2.8555698-.8896503-4.0594559-1.5847263-2.534029-1.4630127-3.7995148-3.3833923-3.7940636-5.3008041l-.0105705 5.2954636c-.0054073 1.9174175 1.2600365 3.8377934 3.7940636 5.3008099 1.2067757.6967392 2.5927792 1.2246017 4.0700264 1.5873795z" fill="#1d1e1e"/></g></g></g><g><g><g><path d="m40.3629417 32.2788239c.0006256.22855-.077858.4822121-.2065735.7076187-.1324768.2329445-.3176956.4370041-.5223999.5556717-.2052994.1186638-.3911629.1287155-.5242653.0489731l-.1944237-.1137505c-.1287193-.0772247-.2090874-.2385902-.2097015-.4671402 0-.0841331.0106697-.1714058.0301361-.2593117.0866394-.3848877.3497162-.7842159.6655388-.9832516.0112991-.0069046.0226135-.0138149.0332794-.020092.2052994-.1184902.3001213-.178299.5723839-.0210876l.1387825.0814648c.001255.0006275.0018845.0012569.0025139.0012569l.0006294.0006275c.1318436.0759754.2134705.2385941.2140999.4690209z" fill="#3293fc"/><path d="m39.6290245 31.8608265c.4038391-.2331581.7326546-.0457726.7339706.4182644.0006485.22855-.0782051.4816818-.2066154.7076111-.1324348.2329941-.3175583.4370461-.5225906.5554199-.2050858.1184082-.3907318.1284599-.5240135.048912-.1292801-.0771561-.2093086-.2386017-.2099533-.4671783-.0013161-.4640389.3251914-1.0297737.7292022-1.2630291z" fill="#3293fc"/><g><path d="m39.6290436 31.8607502c.203289-.117281.3874359-.128067.520359-.0506859l-.2452278-.1441822c-.1331863-.0773773-.3173332-.0663223-.5206223.0509567-.0112419.0064907-.0223923.0133324-.0335159.0203266l.245121.1441231c.0112419-.0070743.0225258-.0139808.033886-.0205383z" fill="#0f7ed1"/><path d="m38.6844978 32.7204247c-.0197754.0880356-.0304375.1753273-.0302391.2592773.0008011.2286301.080883.3901291.2100258.4672356l.245491.1441841c-.129406-.0771103-.2092133-.2386093-.2100296-.4672394-.0002365-.0839195.010376-.1711845.0301094-.259201z" fill="#0f7ed1"/><path d="m39.5951576 31.8812885-.245121-.1441231c-.3160057.198904-.5790863.5982647-.6655388.9832592l.2453575.1442566c.0862694-.3849525.3492318-.7843895.6653023-.9833927z" fill="#1d80ed"/></g></g><g><path d="m42.4956093 31.0475273c.0006294.228548-.0778542.4822121-.2065735.7076168-.132473.2329426-.3176918.4370022-.5223961.5556736-.2052994.1186638-.3911629.1287117-.5242653.0489693l-.1944237-.1137466c-.1287193-.0772285-.2090874-.2385941-.2097015-.4671402 0-.0841331.0106697-.1714077.0301361-.2593117.0866394-.3848896.3497162-.7842178.6655388-.9832516.0112991-.0069065.0226097-.0138168.0332794-.0200939.2052994-.1184902.3001213-.178299.5723839-.0210876l.1387825.0814648c.001255.0006294.0018845.0012569.0025139.0012569l.0006256.0006294c.1318474.0759735.2134743.2385921.2140999.4690208z" fill="#3293fc"/><path d="m41.7616959 30.629528c.4038391-.2331581.7326546-.0457706.7339706.4182663.0006447.228548-.0782051.4816799-.2066154.7076092-.1324348.2329922-.3175583.437048-.5225906.5554218-.2050858.1184082-.3907318.1284599-.5240135.048912-.1292801-.0771561-.2093086-.2386017-.2099571-.4671783-.0013162-.4640388.3251952-1.0297756.729206-1.263031z" fill="#3293fc"/><g><path d="m41.7617149 30.6294518c.2032852-.117281.3874359-.1280651.520359-.0506859l-.2452278-.1441822c-.1331863-.0773773-.3173332-.0663223-.5206223.0509586-.0112419.0064888-.0223923.0133305-.0335159.0203247l.245121.1441231c.011242-.0070744.0225221-.0139809.033886-.0205383z" fill="#0f7ed1"/><path d="m40.8171654 31.4891262c-.0197716.0880337-.0304337.1753254-.0302391.2592773.0008049.228632.0808868.390131.2100296.4672375l.245491.1441803c-.1294098-.0771103-.2092133-.2386055-.2100296-.4672356-.0002365-.0839214.010376-.1711864.0301094-.259203z" fill="#0f7ed1"/><path d="m41.727829 30.6499901-.245121-.1441231c-.3160057.198904-.5790901.5982647-.6655426.9832592l.2453613.1442566c.0862656-.3849506.3492317-.7843876.6653023-.9833927z" fill="#1d80ed"/></g></g><g><path d="m44.6282806 29.8162289c.0006294.228548-.0778542.4822121-.2065735.7076168-.132473.2329445-.3176918.4370041-.5223961.5556717-.2052994.1186657-.3911667.1287155-.5242653.0489731l-.1944237-.1137486c-.1287193-.0772266-.2090874-.2385921-.2097015-.4671402 0-.0841331.0106697-.1714077.0301361-.2593117.0866394-.3848877.3497162-.7842159.6655388-.9832516.0112991-.0069065.0226097-.0138149.0332794-.020092.2052994-.1184921.3001213-.178299.5723839-.0210896l.1387787.0814648c.0012589.0006294.0018883.0012569.0025139.0012569l.0006294.0006294c.1318436.0759736.2134705.2385923.2140999.469021z" fill="#3293fc"/><path d="m43.8943672 29.3982296c.4038391-.2331581.7326508-.0457706.7339668.4182663.0006485.22855-.0782013.4816799-.2066154.7076092-.132431.2329941-.3175583.437048-.5225868.5554218-.2050858.1184082-.3907318.1284599-.5240135.0489101-.1292839-.0771542-.2093086-.2385998-.2099571-.4671764-.0013161-.4640388.3251952-1.0297756.729206-1.263031z" fill="#3293fc"/><g><path d="m43.8943825 29.3981533c.203289-.117281.3874359-.1280651.520359-.0506859l-.245224-.1441803c-.1331863-.0773792-.3173332-.0663242-.5206223.0509567-.0112457.0064907-.0223961.0133305-.0335197.0203266l.245121.1441212c.0112457-.0070743.0225258-.0139808.033886-.0205383z" fill="#0f7ed1"/><path d="m42.9498367 30.2578297c-.0197716.0880337-.0304337.1753254-.0302391.2592754.0008049.228632.080883.3901291.2100296.4672375l.245491.1441822c-.1294098-.0771103-.2092133-.2386074-.2100296-.4672375-.0002365-.0839195.0103722-.1711845.0301094-.259203z" fill="#0f7ed1"/><path d="m43.8604965 29.4186916-.245121-.1441212c-.3160019.1989021-.5790863.5982628-.6655388.9832592l.2453613.1442547c.0862656-.3849506.3492318-.7843875.6652985-.9833927z" fill="#1d80ed"/></g></g></g></g><g><ellipse cx="33.109" cy="23.143" fill="#f0f0f7" rx="7.445" ry="12.853" transform="matrix(.003 -1 1 .003 9.872 56.186)"/></g><g><ellipse cx="33.109" cy="23.143" fill="#d7d7e2" rx="4.131" ry="7.131" transform="matrix(.003 -1 1 .003 9.872 56.186)"/></g></g></g></g><g><g><g><path d="m45.950573 21.3531799.0042877-2.1181183.006649-3.1131954h-.0014458c0 .0019512-.0001259.0038052-.0001259.0057755l-25.703226-.1310597c-.0005779-.0030708-.000536-.0058527-.0005779-.0085983h-.000248l-.0067711 3.5244236-.0033855 1.76721c-.0008659.1166878.0042686.2325306.0135288.3483677 10.9615459 7.4249249 19.2770042 6.5551682 25.6913147-.2748051z" fill="#f0f0f7"/><g><path d="m45.9597321 16.1218662c-.0331116 1.8713627-1.2761803 3.735014-3.7334137 5.1630211-5.002533 2.9071579-13.1403122 2.9074936-18.1760788.000082-2.5323353-1.4620419-3.797739-3.3808479-3.7939816-5.2969856h-.000082l-.0105705 5.2916489c-.0054073 1.9174118 1.2600365 3.8377914 3.7940636 5.300806 5.0357685 2.9074097 13.1735497 2.907074 18.1760826-.0000839 2.4854736-1.4443932 3.7296524-3.3344822 3.7350197-5.2274323l.0104065-5.2310562z" fill="#252728"/></g><g><g enable-background="new"><g><path d="m45.9597321 16.1218662c-.0331116 1.8713627-1.2761383 3.735014-3.7334137 5.1630211-.7844505.4558735-1.6461105.8401222-2.5606995 1.1530361v5.2920246c.9107094-.3122635 1.768692-.6954632 2.5501328-1.1495972 2.4854736-1.4443932 3.7296524-3.3344841 3.7350197-5.2274284l.0104065-5.2310562z" fill="#1d1e1e"/></g><g><path d="m28.1096954 22.8696957c-1.4732838-.3627052-2.8555698-.8896503-4.0594559-1.5847263-2.534029-1.4630127-3.7995148-3.3833923-3.7940636-5.3008041l-.0105705 5.2954636c-.0054073 1.9174175 1.2600365 3.8377914 3.7940636 5.3008099 1.2067757.6967392 2.5927792 1.2246017 4.0700264 1.5873795z" fill="#1d1e1e"/></g></g></g><g><g><g><path d="m40.3629417 25.1568451c.0006256.228548-.077858.4822121-.2065735.7076168-.1324768.2329426-.3176956.4370022-.5223999.5556717-.2052994.1186657-.3911629.1287136-.5242653.0489731l-.1944237-.1137486c-.1287193-.0772285-.2090874-.2385921-.2097015-.4671402 0-.0841331.0106697-.1714077.0301361-.2593136.0866394-.3848877.3497162-.7842159.6655388-.9832516.0112991-.0069046.0226135-.0138149.0332794-.020092.2052994-.1184902.3001213-.178299.5723839-.0210876l.1387825.0814648c.001255.0006294.0018845.0012569.0025139.0012569l.0006294.0006294c.1318436.0759736.2134705.2385903.2140999.4690209z" fill="#3293fc"/><path d="m39.6290245 24.7388458c.4038391-.2331581.7326546-.0457706.7339706.4182663.0006485.228548-.0782051.4816799-.2066154.7076092-.1324348.2329922-.3175583.437048-.5225906.5554218-.2050858.1184063-.3907318.128458-.5240135.0489101-.1292801-.0771542-.2093086-.2386017-.2099533-.4671764-.0013161-.4640388.3251914-1.0297756.7292022-1.263031z" fill="#3293fc"/><g><path d="m39.6290436 24.7387695c.203289-.117281.3874359-.128067.520359-.0506859l-.2452278-.1441822c-.1331863-.0773773-.3173332-.0663223-.5206223.0509567-.0112419.0064907-.0223923.0133324-.0335159.0203266l.245121.1441231c.0112419-.0070743.0225258-.0139808.033886-.0205383z" fill="#0f7ed1"/><path d="m38.6844978 25.598444c-.0197754.0880337-.0304375.1753254-.0302391.2592773.0008011.228632.080883.3901291.2100258.4672375l.245491.1441822c-.129406-.0771103-.2092133-.2386074-.2100296-.4672394-.0002365-.0839195.010376-.1711845.0301094-.259201z" fill="#0f7ed1"/><path d="m39.5951576 24.7593079-.245121-.1441231c-.3160057.198904-.5790863.5982647-.6655388.9832592l.2453575.1442566c.0862694-.3849507.3492318-.7843876.6653023-.9833927z" fill="#1d80ed"/></g></g><g><path d="m42.4956093 23.9255466c.0006294.228548-.0778542.4822121-.2065735.7076168-.132473.2329426-.3176918.4370022-.5223961.5556717-.2052994.1186657-.3911629.1287136-.5242653.0489731l-.1944237-.1137486c-.1287193-.0772266-.2090874-.2385921-.2097015-.4671402 0-.0841331.0106697-.1714077.0301361-.2593117.0866394-.3848896.3497162-.7842159.6655388-.9832516.0112991-.0069065.0226097-.0138149.0332794-.0200939.2052994-.1184902.3001213-.178299.5723839-.0210876l.1387825.0814648c.001255.0006294.0018845.0012569.0025139.0012569l.0006256.0006294c.1318474.0759736.2134743.2385923.2140999.4690209z" fill="#3293fc"/><path d="m41.7616959 23.5075474c.4038391-.2331581.7326546-.0457706.7339706.4182663.0006447.228548-.0782051.4816799-.2066154.7076092-.1324348.2329922-.3175583.437048-.5225906.5554218-.2050858.1184063-.3907318.1284599-.5240135.0489101-.1292801-.0771542-.2093086-.2385998-.2099571-.4671764-.0013162-.4640389.3251952-1.0297756.729206-1.263031z" fill="#3293fc"/><g><path d="m41.7617149 23.5074711c.2032852-.117281.3874359-.1280651.520359-.0506859l-.2452278-.1441803c-.1331863-.0773792-.3173332-.0663242-.5206223.0509567-.0112419.0064888-.0223923.0133305-.0335159.0203247l.245121.1441231c.011242-.0070743.0225221-.0139809.033886-.0205383z" fill="#0f7ed1"/><path d="m40.8171654 24.3671474c-.0197716.0880337-.0304337.1753254-.0302391.2592754.0008049.228632.0808868.3901291.2100296.4672375l.245491.1441822c-.1294098-.0771103-.2092133-.2386074-.2100296-.4672375-.0002365-.0839195.010376-.1711864.0301094-.259203z" fill="#0f7ed1"/><path d="m41.727829 23.5280094-.245121-.1441231c-.3160057.198904-.5790901.5982647-.6655426.9832611l.2453613.1442547c.0862656-.3849506.3492317-.7843876.6653023-.9833927z" fill="#1d80ed"/></g></g><g><path d="m44.6282806 22.6942482c.0006294.228548-.0778542.4822121-.2065735.7076168-.132473.2329445-.3176918.4370041-.5223961.5556736-.2052994.1186657-.3911667.1287136-.5242653.0489712l-.1944237-.1137486c-.1287193-.0772266-.2090874-.2385921-.2097015-.4671383 0-.0841331.0106697-.1714096.0301361-.2593136.0866394-.3848877.3497162-.7842159.6655388-.9832516.0112991-.0069065.0226097-.0138149.0332794-.020092.2052994-.1184902.3001213-.178299.5723839-.0210896l.1387787.0814648c.0012589.0006294.0018883.0012569.0025139.0012569l.0006294.0006294c.1318436.0759737.2134705.2385923.2140999.469021z" fill="#3293fc"/><path d="m43.8943672 22.2762489c.4038391-.2331562.7326508-.0457706.7339668.4182663.0006485.22855-.0782013.4816799-.2066154.7076092-.132431.2329941-.3175583.437048-.5225868.5554218-.2050858.1184082-.3907318.1284599-.5240135.0489101-.1292839-.0771542-.2093086-.2385998-.2099571-.4671764-.0013161-.4640388.3251952-1.0297756.729206-1.263031z" fill="#3293fc"/><g><path d="m43.8943825 22.2761726c.203289-.117281.3874359-.1280651.520359-.0506859l-.245224-.1441803c-.1331863-.0773792-.3173332-.0663242-.5206223.0509567-.0112457.0064907-.0223961.0133305-.0335197.0203266l.245121.1441212c.0112457-.0070743.0225258-.0139808.033886-.0205383z" fill="#0f7ed1"/><path d="m42.9498367 23.135849c-.0197716.0880337-.0304337.1753254-.0302391.2592754.0008049.228632.080883.3901291.2100296.4672394l.245491.1441803c-.1294098-.0771103-.2092133-.2386074-.2100296-.4672375-.0002365-.0839195.0103722-.1711845.0301094-.259203z" fill="#0f7ed1"/><path d="m43.8604965 22.296711-.245121-.1441212c-.3160019.1989021-.5790863.5982628-.6655388.9832592l.2453613.1442547c.0862656-.3849507.3492318-.7843876.6652985-.9833927z" fill="#1d80ed"/></g></g></g></g><g><ellipse cx="33.109" cy="16.021" fill="#f0f0f7" rx="7.445" ry="12.853" transform="matrix(.003 -1 1 .003 16.994 49.084)"/></g><g><ellipse cx="33.109" cy="16.021" fill="#d7d7e2" rx="4.131" ry="7.131" transform="matrix(.003 -1 1 .003 16.994 49.084)"/></g></g></g></g></g></g><path d="m55.947094 29.9060421-.0713577 21.1006908-22.4257546 13.0324364c-3.3764725-8.4169769-3.2820759-15.2849503.0712051-21.6588326 6.389576-6.5552368 13.830349-10.4115295 22.4259072-12.4742946z" fill="#f9ac00"/><g><path d="m33.5211868 41.4185638-.0712318 22.6206055-22.5738163-13.0329971.0713701-21.1006794c8.2095976 2.7388477 15.9867296 4.9719791 22.573678 11.513071z" fill="#e59303"/></g><path d="m53.2872162 28.3703957h-6.0344811l2.6742173 1.5440406-16.4111634 9.5374108-.1375045-.0793724-16.4111653-9.4752255-1.6475973-2.5326004-4.3721523 2.5408249 22.573821 13.0329723 22.4257584-13.0324192z" fill="#ffc239"/><path d="m46.7250595 35.2652054 8.1454239 12.2459411-12.9038162 7.5713425-8.4454766-12.144043z" fill="#e59303"/><path d="m64.0675735 42.1147079-9.1970901 5.3964386-8.1454239-12.2459411 9.2218895-5.3591786z" fill="#efa003"/><g><path d="m10.9473696 29.9054737-8.215158 12.8018551 7.537457 4.3834457 8.64044-12.588047z" fill="#e59303"/><path d="m33.5211906 42.938446-14.611082-8.4357185-8.64044 12.588047 14.5808792 8.4797325z" fill="#efa003"/></g></g></svg>