<svg id="Capa_1" enable-background="new 0 0 501 501" height="512" viewBox="0 0 501 501" width="512" xmlns="http://www.w3.org/2000/svg"><path d="m5.5 256c0-135.31 109.69-245 245-245s245 109.69 245 245c0 108.78-70.894 201.002-169 232.984-.534.174-50.062-10.984-76-10.984s-75.465 11.158-75.998 10.984c-98.107-31.98-169.002-124.203-169.002-232.984z" fill="#e12929"/><path d="m445.5 256c0 107.696-87.304 195-195 195s-195-87.304-195-195 87.304-195 195-195 195 87.304 195 195z" fill="#f52c2c"/><path d="m414.5 160c0 55.228-44.772 100-100 100s-100-44.772-100-100 44.772-100 100-100 100 44.772 100 100z" fill="#fd4343"/><path d="m306.5 440v10c0 5.523-4.477 10-10 10h-92c-5.523 0-10-4.477-10-10v-10c0-5.523 4.477-10 10-10h20v-110h52v110h20c5.523 0 10 4.477 10 10z" fill="#f57e00"/><path d="m244.5 394v-58c0-8.836 7.163-16 16-16s16 7.164 16 16v58c0 8.836-7.163 16-16 16s-16-7.164-16-16zm62 56v-10c0-5.523-4.477-10-10-10h-62c-5.523 0-10 4.477-10 10v10h-30c-11.046 0-20 8.954-20 20v18.983c23.926 7.8 49.471 12.017 76 12.017s52.074-4.217 76-12.017v-18.983c0-11.045-8.954-20-20-20z" fill="#fd9d01"/><path d="m326.5 470v18.983c-23.926 7.8-49.471 12.017-76 12.017-15.291 0-30.255-1.401-44.771-4.082-.795-2.156-1.229-4.486-1.229-6.918v-20c0-11.046 8.954-20 20-20h82c11.046 0 20 8.954 20 20z" fill="#fde803"/><path d="m426.012 155.568c-17.3 0-32.783-10.527-39.366-26.526-.081-.196-.162-.393-.244-.589-6.676-16.027-3.259-34.473 9.017-46.75 3.704-3.704 3.704-9.709 0-13.413l-28.21-28.21c-3.704-3.704-9.709-3.704-13.413 0-12.277 12.277-30.723 15.694-46.75 9.017-.196-.082-.392-.163-.589-.244-15.999-6.583-26.526-22.066-26.526-39.366 0-5.24-4.248-9.488-9.488-9.488h-39.888c-5.24 0-9.488 4.248-9.488 9.488 0 17.3-10.527 32.783-26.526 39.366-.196.081-.393.162-.589.244-16.027 6.676-34.473 3.259-46.75-9.017-3.704-3.704-9.709-3.704-13.413 0l-28.21 28.21c-3.704 3.704-3.704 9.709 0 13.413 12.277 12.277 15.694 30.723 9.017 46.75-.082.196-.163.392-.244.589-6.583 15.999-22.066 26.526-39.366 26.526-5.24 0-9.488 4.248-9.488 9.488v39.888c0 5.24 4.248 9.488 9.488 9.488 17.3 0 32.783 10.527 39.366 26.526.081.196.162.393.244.589 6.676 16.027 3.259 34.473-9.017 46.75-3.704 3.704-3.704 9.709 0 13.413l28.21 28.21c3.704 3.704 9.709 3.704 13.413 0 12.277-12.277 30.723-15.694 46.75-9.017.196.082.393.163.589.244 15.999 6.583 26.526 22.066 26.526 39.366v.004c0 5.238 4.246 9.484 9.484 9.484h39.895c5.238 0 9.484-4.246 9.484-9.484v-.004c0-17.3 10.527-32.783 26.526-39.366.196-.081.393-.162.589-.244 16.027-6.676 34.474-3.259 46.75 9.017 3.704 3.704 9.709 3.704 13.413 0l28.21-28.21c3.704-3.704 3.704-9.709 0-13.413-12.277-12.277-15.694-30.723-9.017-46.75.082-.196.163-.392.244-.589 6.583-15.999 22.066-26.526 39.366-26.526 5.24 0 9.488-4.248 9.488-9.488v-39.888c.001-5.24-4.247-9.488-9.487-9.488zm-175.512 92.5c-34.832 0-63.068-28.237-63.068-63.068s28.237-63.068 63.068-63.068 63.068 28.237 63.068 63.068-28.236 63.068-63.068 63.068zm-9 231.932v20.837c-6.74-.244-13.41-.759-20-1.537v-19.3c0-5.523 4.477-10 10-10s10 4.477 10 10zm25-10c-5.523 0-10 4.477-10 10v20.928c6.738-.162 13.408-.596 20-1.292v-19.636c0-5.523-4.477-10-10-10zm35 0c-5.523 0-10 4.477-10 10v17.584c6.765-1.14 13.436-2.557 20-4.239v-13.345c0-5.523-4.477-10-10-10z" fill="#e8ce00"/><path d="m426.012 155.568c-17.3 0-32.783-10.527-39.366-26.526-.081-.196-.162-.393-.244-.589-6.676-16.027-3.259-34.473 9.017-46.75 3.704-3.704 3.704-9.709 0-13.413l-28.21-28.21c-3.704-3.704-9.709-3.704-13.413 0-12.277 12.277-30.723 15.694-46.75 9.017-.196-.082-.392-.163-.589-.244-15.999-6.583-26.526-22.066-26.526-39.366 0-5.24-4.248-9.488-9.488-9.488h-39.888c-5.24 0-9.488 4.248-9.488 9.488 0 17.3-10.527 32.783-26.526 39.366-.196.081-.393.162-.589.244-11.457 4.773-24.151 4.387-34.943-.706-6.12 19.5-9.42 40.248-9.42 61.767 0 113.783 92.929 181.498 204.909 201.674 9.25 1.667 19.346 3.747 28.214 2.582l12.705-12.705c3.704-3.704 3.704-9.709 0-13.413-12.277-12.277-15.694-30.723-9.017-46.75.082-.196.163-.392.244-.589 6.583-15.999 22.066-26.526 39.366-26.526 5.24 0 9.488-4.248 9.488-9.488v-39.888c.002-5.239-4.246-9.487-9.486-9.487zm-175.512 92.5c-34.832 0-63.068-28.237-63.068-63.068s28.237-63.068 63.068-63.068 63.068 28.237 63.068 63.068-28.236 63.068-63.068 63.068z" fill="#fde803"/><path d="m250.5 88.295c-53.408 0-96.705 43.296-96.705 96.705s43.296 96.705 96.705 96.705 96.705-43.296 96.705-96.705-43.297-96.705-96.705-96.705zm0 159.773c-34.832 0-63.068-28.237-63.068-63.068s28.237-63.068 63.068-63.068 63.068 28.237 63.068 63.068-28.236 63.068-63.068 63.068z" fill="#fd9d01"/><path d="m454.5 315c0 5.523-4.477 10-10 10h-5v5c0 5.523-4.477 10-10 10s-10-4.477-10-10v-5h-5c-5.523 0-10-4.477-10-10s4.477-10 10-10h5v-5c0-5.523 4.477-10 10-10s10 4.477 10 10v5h5c5.523 0 10 4.477 10 10z" fill="#fd9d01"/><path d="m84.5 295c0 5.523-4.477 10-10 10h-5v5c0 5.523-4.477 10-10 10s-10-4.477-10-10v-5h-5c-5.523 0-10-4.477-10-10s4.477-10 10-10h5v-5c0-5.523 4.477-10 10-10s10 4.477 10 10v5h5c5.523 0 10 4.477 10 10z" fill="#fd4343"/><path d="m414.5 145c0 5.523-4.477 10-10 10h-5v5c0 5.523-4.477 10-10 10s-10-4.477-10-10v-5h-5c-5.523 0-10-4.477-10-10s4.477-10 10-10h5v-5c0-5.523 4.477-10 10-10s10 4.477 10 10v5h5c5.523 0 10 4.477 10 10z" fill="#fff5f5"/><path d="m134.5 225c0 5.523-4.477 10-10 10h-5v5c0 5.523-4.477 10-10 10s-10-4.477-10-10v-5h-5c-5.523 0-10-4.477-10-10s4.477-10 10-10h5v-5c0-5.523 4.477-10 10-10s10 4.477 10 10v5h5c5.523 0 10 4.477 10 10zm196.276-100.107-70.987 80.909c-2.821 3.216-6.881 5.074-11.158 5.107-.039 0-.078 0-.117 0-4.235 0-8.274-1.791-11.12-4.933l-39.013-43.091c-5.56-6.141-5.089-15.627 1.053-21.187 6.144-5.56 15.629-5.088 21.188 1.052l27.717 30.615 59.888-68.258c5.464-6.228 14.942-6.845 21.168-1.383 6.225 5.464 6.845 14.942 1.381 21.169z" fill="#fdf7bd"/><path d="m266.627 198.007-6.839 7.794c-2.821 3.216-6.881 5.074-11.158 5.107-.039 0-.078 0-.117 0-4.235 0-8.274-1.791-11.12-4.933l-39.013-43.091c-5.56-6.141-5.089-15.627 1.053-21.187 1.964-1.778 4.271-2.939 6.681-3.495-1.067 4.621.07 9.672 3.494 13.455l39.013 43.091c2.846 3.142 6.885 4.933 11.12 4.933h.117c2.382-.018 4.697-.603 6.769-1.674z" fill="#fcf498"/></svg>