<svg id="Capa_1" enable-background="new 0 0 512 512" height="512" viewBox="0 0 512 512" width="512" xmlns="http://www.w3.org/2000/svg"><g><g><path d="m13.254 300.785 41.485 6.914c4.936 19.203 12.565 37.335 22.443 53.983l-24.498 34.296c-4.507 6.31-3.792 14.953 1.691 20.436l41.209 41.209c5.483 5.483 14.126 6.198 20.435 1.691l34.296-24.497c16.649 9.877 34.78 17.507 53.983 22.442l6.914 41.486c1.275 7.648 7.892 13.254 15.646 13.254h29.142l37.568-173.189-37.568-115.173-256 32.363v29.139c0 7.754 5.606 14.372 13.254 15.646z" fill="#ffd15b"/></g><g><path d="m52.17 396.773c-3.912 6.226-3.052 14.384 2.206 19.642l41.209 41.209c5.483 5.483 14.126 6.198 20.435 1.691l34.296-24.497c16.649 9.877 34.78 17.507 53.983 22.442l6.914 41.486c1.275 7.648 7.892 13.254 15.646 13.254h29.141l22.363-45.079-22.363-43.451c-22.892 6.893-47.158 10.614-72.296 10.614-48.252 0-93.308-13.663-131.534-37.311z" fill="#ffc344"/></g><g><path d="m498.746 211.215-41.485-6.914c-4.936-19.204-12.565-37.335-22.443-53.983l24.498-34.296c4.507-6.31 3.792-14.953-1.691-20.436l-41.209-41.209c-5.483-5.483-14.126-6.198-20.435-1.691l-34.296 24.497c-16.649-9.877-34.78-17.507-53.983-22.442l-6.914-41.486c-1.277-7.649-7.895-13.255-15.649-13.255h-29.139l-52.509 256 180.509 58.315 128-58.315v-29.139c0-7.754-5.606-14.372-13.254-15.646z" fill="#6cf5c2"/></g><g><path d="m13.254 211.215 41.485-6.914c4.936-19.204 12.565-37.335 22.443-53.983l-24.498-34.296c-4.507-6.31-3.792-14.953 1.691-20.436l41.209-41.209c5.483-5.483 14.126-6.198 20.435-1.691l34.296 24.497c16.649-9.877 34.78-17.507 53.983-22.442l6.914-41.486c1.277-7.649 7.895-13.255 15.649-13.255h29.139v256h-256v-29.139c0-7.754 5.606-14.372 13.254-15.646z" fill="#fe76a8"/></g><g><path d="m498.746 300.785-41.485 6.914c-4.936 19.203-12.565 37.335-22.443 53.983l24.498 34.296c4.507 6.31 3.792 14.953-1.691 20.436l-41.209 41.209c-5.483 5.483-14.126 6.198-20.435 1.691l-34.296-24.497c-16.649 9.877-34.78 17.507-53.983 22.442l-6.914 41.486c-1.275 7.648-7.892 13.254-15.646 13.254h-29.142v-255.999h256v29.139c0 7.754-5.606 14.372-13.254 15.646z" fill="#60b7ff"/></g><g><path d="m498.746 211.215-41.485-6.914c-4.936-19.204-12.565-37.335-22.443-53.983l24.498-34.296c4.507-6.31 3.792-14.953-1.691-20.436l-41.209-41.209c-5.258-5.258-13.416-6.118-19.642-2.206 23.649 38.226 37.312 83.281 37.312 131.534 0 25.138-3.721 49.404-10.614 72.296l47.184 18.836 41.344-18.837v-29.139c0-7.754-5.606-14.372-13.254-15.646z" fill="#00f2a6"/></g><g><path d="m300.785 498.746 6.914-41.486c19.203-4.936 37.335-12.565 53.983-22.442l34.296 24.497c6.31 4.507 14.953 3.791 20.435-1.691l41.209-41.209c5.483-5.483 6.198-14.126 1.691-20.436l-24.498-34.296c9.877-16.649 17.507-34.78 22.443-53.983l41.485-6.914c7.648-1.275 13.254-7.892 13.254-15.646v-29.14h-88.53c-24.128 80.139-87.328 143.338-167.467 167.47v88.53h29.139c7.754 0 14.372-5.606 15.646-13.254z" fill="#26a6fe"/></g><g><circle cx="256" cy="256" fill="#e8edf2" r="150.02"/></g><g><path d="m341.956 133.118c17.091 24.36 27.139 54.006 27.139 85.957 0 82.721-67.299 150.02-150.02 150.02-31.951 0-61.597-10.047-85.957-27.139 27.158 38.708 72.112 64.064 122.882 64.064 82.721 0 150.02-67.299 150.02-150.02 0-50.77-25.356-95.724-64.064-122.882z" fill="#d9e7ec"/></g><g fill="#685e68"><path d="m265.067 220.986c-.026-.069-.053-.138-.082-.207-1.396-3.391-4.665-5.581-8.332-5.581-.003 0-.006 0-.01 0-3.67.004-6.939 2.201-8.329 5.598-.023.056-.046.113-.067.17l-25.009 65.664c-1.474 3.871.468 8.204 4.339 9.678 3.872 1.477 8.204-.469 9.678-4.339l4.389-11.523h29.828l4.34 11.501c1.134 3.003 3.987 4.854 7.019 4.854.88 0 1.775-.156 2.646-.485 3.875-1.462 5.832-5.79 4.369-9.665zm-17.708 44.461 9.27-24.339 9.185 24.339z"/><path d="m191.829 249.488-2.953-1.087c-7.851-2.888-11.792-4.337-15.432-6.319-2.141-1.166-2.255-3.317-2.134-4.495.249-2.407 1.981-5.42 6.099-6.66 9.825-2.963 18.854 4.2 19.089 4.389 3.17 2.634 7.877 2.215 10.533-.944 2.665-3.17 2.255-7.901-.916-10.567-.615-.517-15.261-12.595-33.033-7.24-9.203 2.772-15.755 10.418-16.692 19.479-.835 8.076 2.951 15.438 9.881 19.212 4.604 2.507 9.159 4.183 17.427 7.224l2.94 1.083c3.115 1.149 10.252 4.422 9.259 9.986-.724 4.057-5.578 8.253-12.447 8.253-6.849 0-13.448-2.77-17.651-7.409-2.781-3.069-7.524-3.304-10.594-.521-3.069 2.781-3.303 7.524-.521 10.594 7 7.725 17.754 12.336 28.767 12.336 13.636 0 25.081-8.67 27.213-20.616 1.599-8.959-2.509-20.676-18.835-26.698z"/><path d="m332.596 215.199h-18.544c-4.142 0-7.5 3.358-7.5 7.5v66.602c0 4.142 3.358 7.5 7.5 7.5s7.5-3.358 7.5-7.5v-21.471c3.953-.021 8.505-.041 11.044-.041 14.702 0 26.663-11.796 26.663-26.295s-11.961-26.295-26.663-26.295zm0 37.59c-2.541 0-7.085.02-11.044.041v-22.63h11.044c6.322 0 11.663 5.172 11.663 11.295s-5.341 11.294-11.663 11.294z"/></g></g></svg>