<svg id="Layer_1" enable-background="new 0 0 511 511" height="511" viewBox="0 0 511 511" width="511" xmlns="http://www.w3.org/2000/svg"><path d="m511 431c0 44.183-35.817 80-80 80h-351c-44.183 0-80-35.817-80-80v-327l104-104h327c44.183 0 80 35.817 80 80z" fill="#01c26e"/><path d="m0 104h69.334c19.066 0 34.666-15.334 34.666-34.4v-69.6z" fill="#01ff91"/><path d="m0 159.733v-55.733h55.467z" fill="#5d5d5d" opacity=".2"/><path d="m79 304h322v66h-322z" fill="#f3c40f"/><g fill="#e6b90e"><path d="m79 304h29v66h-29z"/><path d="m138 304h29v66h-29z"/><path d="m196 304h29v66h-29z"/><path d="m255 304h29v66h-29z"/><path d="m313 304h29v66h-29z"/><path d="m372 304h29v66h-29z"/></g><path d="m94 370h322v66h-322z" fill="#f3c40f"/><path d="m94 370h29v66h-29z" fill="#e6b90e"/><path d="m153 370h29v66h-29z" fill="#e6b90e"/><path d="m211 370h29v66h-29z" fill="#e6b90e"/><path d="m270 370h29v66h-29z" fill="#e6b90e"/><path d="m328 370h29v66h-29z" fill="#e6b90e"/><path d="m387 370h29v66h-29z" fill="#e6b90e"/><path d="m401 337-322-33h322z" fill="#5d5d5d" opacity=".2"/><path d="m416 403-322-33h322z" fill="#5d5d5d" opacity=".2"/><path d="m109 172h322v66h-322z" fill="#f3c40f"/><path d="m109 172h29v66h-29z" fill="#e6b90e"/><path d="m168 172h29v66h-29z" fill="#e6b90e"/><path d="m226 172h29v66h-29z" fill="#e6b90e"/><path d="m285 172h29v66h-29z" fill="#e6b90e"/><path d="m343 172h29v66h-29z" fill="#e6b90e"/><path d="m402 172h29v66h-29z" fill="#e6b90e"/><path d="m94 238h322v66h-322z" fill="#f3c40f"/><path d="m94 238h29v66h-29z" fill="#e6b90e"/><path d="m153 238h29v66h-29z" fill="#e6b90e"/><path d="m211 238h29v66h-29z" fill="#e6b90e"/><path d="m270 238h29v66h-29z" fill="#e6b90e"/><path d="m328 238h29v66h-29z" fill="#e6b90e"/><path d="m387 238h29v66h-29z" fill="#e6b90e"/><path d="m431 205-322-33h322z" fill="#5d5d5d" opacity=".2"/><path d="m89 106h322v66h-322z" fill="#f3c40f"/><path d="m89 106h29v66h-29z" fill="#e6b90e"/><path d="m148 106h29v66h-29z" fill="#e6b90e"/><path d="m206 106h29v66h-29z" fill="#e6b90e"/><path d="m265 106h29v66h-29z" fill="#e6b90e"/><path d="m323 106h29v66h-29z" fill="#e6b90e"/><path d="m382 106h29v66h-29z" fill="#e6b90e"/><path d="m411 139-322-33h322z" fill="#5d5d5d" opacity=".2"/><path d="m416 271-322-33h322z" fill="#5d5d5d" opacity=".2"/><path d="m436 510h-322l-20-74h322z" fill="#5d5d5d" opacity=".2"/><g/><g/><g/><g/><g/><g/><g/><g/><g/><g/><g/><g/><g/><g/><g/></svg>