<svg height="512" viewBox="0 0 512 512" width="512" xmlns="http://www.w3.org/2000/svg"><g id="BULINE"><circle cx="256" cy="256" fill="#f7bb38" r="256"/></g><g id="Icons"><path d="m405.17 120.86v315.14a13.55 13.55 0 0 1 -13.55 13.55h-249.92a13.56 13.56 0 0 1 -13.55-13.55v-361a13.56 13.56 0 0 1 13.55-13.52h204.08z" fill="#fff"/><path d="m405.17 120.86v315.14a13.55 13.55 0 0 1 -13.55 13.55h-19.35a13.55 13.55 0 0 0 13.55-13.55v-315.14l-59.39-59.38h19.35z" fill="#e5e5e5"/><path d="m405.17 120.86h-45.83a13.56 13.56 0 0 1 -13.56-13.55v-45.83z" fill="#cecece"/><path d="m128.15 181.81h113.06a0 0 0 0 1 0 0v6.3a10 10 0 0 1 -10 10h-103a0 0 0 0 1 0 0v-16.3a0 0 0 0 1 -.06 0z" fill="#e2e1de"/><path d="m112.89 119.2h128.56a7.52 7.52 0 0 1 7.52 7.52v47.57a7.52 7.52 0 0 1 -7.52 7.52h-136.08a0 0 0 0 1 0 0v-55.09a7.52 7.52 0 0 1 7.52-7.52z" fill="#4acc97"/><path d="m249 173.34v.95a7.53 7.53 0 0 1 -7.53 7.52h-136.11v-55.09a7.53 7.53 0 0 1 7.53-7.52h3.87v19.58a34.56 34.56 0 0 0 34.56 34.56z" fill="#38c487"/><path d="m105.37 181.81 22.78 25.99v-25.99z" fill="#00b564"/><g fill="#fff"><path d="m115.25 158.43 8.67-.71q.15 7.92 6 7.92a5.34 5.34 0 0 0 4.26-1.91 7.15 7.15 0 0 0 1.65-4.85 7.23 7.23 0 0 0 -1.61-4.8 6 6 0 0 0 -4.85-1.92q-.78 0-2 .06v-7.57c2.57 0 4.43-.57 5.6-1.73a5.72 5.72 0 0 0 1.74-4.22 5 5 0 0 0 -1.33-3.6 4.55 4.55 0 0 0 -3.47-1.41q-4.8 0-4.8 5.95l-8.41-.65q.26-6.11 4.09-9.34a14.52 14.52 0 0 1 9.72-3.24q6.63 0 10.3 3.17a10.84 10.84 0 0 1 3.67 8.67q0 7.14-6.73 10.22 8.34 2.72 8.35 10.74a12.28 12.28 0 0 1 -4.31 10 16.48 16.48 0 0 1 -10.93 3.59q-14.51-.04-15.61-14.37z"/><path d="m151 172.17v-7.6h6.83v-29.78h-6.83v-7.6h21.3a57.18 57.18 0 0 1 10.83.82 19.27 19.27 0 0 1 7.86 3.66 20.08 20.08 0 0 1 6 7.58 24.36 24.36 0 0 1 2.26 10.54 25.37 25.37 0 0 1 -1.59 9 20.92 20.92 0 0 1 -3.93 6.85 17.28 17.28 0 0 1 -5.61 4.14 22.75 22.75 0 0 1 -6 2 57.16 57.16 0 0 1 -8.45.45zm18.5-7.6h2.82a20.47 20.47 0 0 0 8.1-1.32 10.2 10.2 0 0 0 4.8-4.67 18.35 18.35 0 0 0 1.81-8.75 19.1 19.1 0 0 0 -1.83-8.74 10 10 0 0 0 -4.94-4.94 19.94 19.94 0 0 0 -7.94-1.36h-2.82z"/><path d="m205.67 172.17v-15.33h7.63c.09 2.81.82 4.87 2.2 6.2a6.67 6.67 0 0 0 4.73 2 4.72 4.72 0 0 0 3.49-1.44 4.65 4.65 0 0 0 1.42-3.38 4.75 4.75 0 0 0 -1.39-3.48 19.65 19.65 0 0 0 -5.08-3.2q-7.81-3.76-10.6-6.64a10.73 10.73 0 0 1 -2.79-7.78q0-5.9 3.69-9.13a12.35 12.35 0 0 1 8.38-3.24 9.56 9.56 0 0 1 8.31 4.18v-3.73h7.6v13.68h-7.6a7.72 7.72 0 0 0 -2.18-4.9 6 6 0 0 0 -4.26-1.73 5 5 0 0 0 -3.17 1 3.16 3.16 0 0 0 -1.29 2.62 4 4 0 0 0 1.07 2.64c.71.83 2.79 2 6.24 3.53a53.11 53.11 0 0 1 7.66 4 13 13 0 0 1 4.21 4.66 13.74 13.74 0 0 1 1.55 6.62q0 6.68-3.88 10a13.58 13.58 0 0 1 -9.18 3.36 10.64 10.64 0 0 1 -9.13-4.38v3.83z"/></g><path d="m262.74 255.03-56.1-26.1 56.1-26.1 56.1 26.1z" fill="#38c487"/><path d="m262.71 318.9-56.07-28.07v-61.87l56.07 26.07z" fill="#00b564"/><path d="m262.6 318.9 56.07-28.07v-61.87l-56.07 26.07z" fill="#4acc97"/><path d="m206.64 343.03-56.09-26.1 56.09-26.1 56.1 26.1z" fill="#38c487"/><path d="m206.61 406.9-56.06-28.07v-61.87l56.06 26.07z" fill="#00b564"/><path d="m206.5 406.9 56.07-28.07v-61.87l-56.07 26.07z" fill="#4acc97"/><path d="m318.84 343.03-56.1-26.1 56.1-26.1 56.09 26.1z" fill="#38c487"/><path d="m318.81 406.9-56.07-28.07v-61.87l56.07 26.07z" fill="#00b564"/><path d="m318.7 406.9 56.06-28.07v-61.87l-56.06 26.07z" fill="#4acc97"/></g></svg>