<svg clip-rule="evenodd" fill-rule="evenodd" height="43.349mm" image-rendering="optimizeQuality" shape-rendering="geometricPrecision" text-rendering="geometricPrecision" viewBox="0 0 4335 4335" width="43.349mm" xmlns="http://www.w3.org/2000/svg" xmlns:xlink="http://www.w3.org/1999/xlink"><linearGradient id="id0" gradientUnits="userSpaceOnUse" x1="3597.98" x2="2764.65" y1="2290.55" y2="2290.55"><stop offset="0" stop-color="#dbb81c"/><stop offset="1" stop-color="#ff0"/></linearGradient><linearGradient id="id1" gradientUnits="userSpaceOnUse" x1="1943.96" x2="2380.66" y1="3726.23" y2="607"><stop offset="0" stop-color="#207985"/><stop offset="1" stop-color="#2db2c4"/></linearGradient><linearGradient id="id2" gradientUnits="userSpaceOnUse" x1="3309.72" x2="986.05" y1="579.17" y2="3793.72"><stop offset="0" stop-color="#ffed00"/><stop offset="1" stop-color="#ef7f1a"/></linearGradient><g id="Layer_x0020_1"><g id="_541877440"><path d="m604 76h3088c312 0 567 255 567 567v3088c0 312-255 567-567 567h-3088c-312 0-567-255-567-567v-3088c0-312 255-567 567-567z" fill="#2db2c4"/><path d="m2148 431c969 0 1755 786 1755 1755s-786 1755-1755 1755-1755-786-1755-1755 786-1755 1755-1755z" fill="#2494a3"/><g><path d="m2162 650c837 0 1516 679 1516 1516s-679 1516-1516 1516-1516-679-1516-1516 679-1516 1516-1516z" fill="url(#id1)"/><g><path d="m2148 643c853 0 1544 691 1544 1544s-691 1544-1544 1544-1544-691-1544-1544 691-1544 1544-1544zm0 93c802 0 1452 650 1452 1452s-650 1452-1452 1452-1452-650-1452-1452 650-1452 1452-1452z" fill="url(#id2)"/><path d="m2540 3186v-1222h-833v777z" fill="#00ab72"/><path d="m2765 1184c0-10 0-15 0 0 0 539 0 4489 0 0zm-1063 1727v-847c2-26 4-46 7-57h-1c0 123 338 135 417 135 230 0 417-56 417-126v1254c0 69-186 126-417 126-230 0-417-56-417-126 0-62-3-198-6-360zm422-1082c230 0 417 61 417 134 0 75-186 135-417 135-230 0-417-61-417-135 0-75 186-134 417-134zm415 178h1v9c0-3-1-7-1-9z" fill="#0fa"/><path d="m721 2438s30 157 61 239c31 81 726 126 726 126v-371z" fill="#3da5bf"/><path d="m1091 2297c230 0 417 61 417 135 0 75-186 135-417 135-153 0-286-27-359-66-9-41-15-82-20-124 66-47 211-79 379-79zm227 1079c-280-193-487-483-573-822 75 34 202 56 346 56 230 0 417-56 417-126v787c0 44-76 83-190 106zm189-902h1v10c0-3-1-7-1-10z" fill="#87e7ff"/><path d="m3598 2380v-1248h-833v1087z" fill="#d4ae04"/><g fill="#ff0"><path d="m3181 998c230 0 417 61 417 135 0 75-186 134-417 134-230 0-417-61-417-134 0-75 186-135 417-135zm417 1413h-67c-58 397-280 742-595 961-104-23-172-60-172-102 0-38-1-95-2-165v-1915c1-6 2-11 3-16h-1c0 123 338 135 417 135 230 0 417-56 417-126v1227zm-1-1236h1v10c0-3-1-7-1-10z"/><path d="m3598 2380s-32 273-163 479-162 253-222 314-170 156-170 156l-73 54s-206-40-206-113 583-1123 583-1123l250 233z"/></g></g></g><path d="m3598 1198v1183s-16 270-213 567c-57 85-108 157-161 215-139 152-253 221-253 221-62-16-206-35-206-113 0-72 0-218 0-218s45 144 122 178c78 33 222-44 317-211 94-167 89-339 89-494 0-156 0-1220 0-1220s205-7 305-107z" fill="url(#id0)"/><path d="m2540 2017v1254s-7 126-417 126-417-126-417-126v-81s74 128 307 128 261-211 261-405 0-778 0-778 172 1 265-117z" fill="#33dea5"/><path d="m1508 2486v785s-15 60-103 83c-87 23-87 23-87 23s-133-72-247-216c-114-143-114-143-114-143s185 150 263 72 66-187 66-246 0-249 0-249 223-49 223-109z" fill="#6bc9e0"/><path d="m1142 2320c172 0 311 51 311 113 0 63-139 113-311 113-9 0-17 0-26 0 160-5 286-53 286-113 0-59-126-108-286-113z" fill="#6bc9e0"/><path d="m2176 1849c172 0 311 51 311 113 0 63-139 113-311 113-9 0-17 0-26 0 160-5 286-53 286-113 0-59-126-108-286-113z" fill="#33dea5"/><path d="m3240 1019c172 0 311 51 311 113 0 63-139 113-311 113-9 0-17 0-26 0 160-5 286-53 286-113 0-59-126-108-286-113z" fill="#ffd726"/><path d="m604 76h3088c312 0 567 255 567 567v78c0-312-255-567-567-567h-3088c-312 0-567 255-567 567v-78c0-312 255-567 567-567z" fill="#41dcf0"/><path d="m604 4297h3088c312 0 567-255 567-567v-78c0 312-255 567-567 567h-3088c-312 0-567-255-567-567v78c0 312 255 567 567 567z" fill="#21808d"/></g></g></svg>