<svg id="Capa_1" enable-background="new 0 0 512 512" height="512" viewBox="0 0 512 512" width="512" xmlns="http://www.w3.org/2000/svg" xmlns:xlink="http://www.w3.org/1999/xlink"><linearGradient id="lg1"><stop offset="0" stop-color="#fbe2dd"/><stop offset=".5145" stop-color="#eab1b7"/><stop offset="1" stop-color="#e4989d"/></linearGradient><radialGradient id="SVGID_1_" cx="107.848" cy="310.418" gradientUnits="userSpaceOnUse" r="50.086" xlink:href="#lg1"/><linearGradient id="lg2"><stop offset="0" stop-color="#fffbe4"/><stop offset=".5544" stop-color="#f9efaf"/><stop offset=".6285" stop-color="#f8eea7"/><stop offset="1" stop-color="#f6e781"/></linearGradient><radialGradient id="SVGID_2_" cx="319.645" cy="287.912" gradientTransform="matrix(0 1 -.717 0 525.973 -31.734)" gradientUnits="userSpaceOnUse" r="146.466" xlink:href="#lg2"/><radialGradient id="SVGID_3_" cx="381.145" cy="208.415" gradientTransform="matrix(-1 0 0 -1.882 762.291 600.541)" gradientUnits="userSpaceOnUse" r="29.102" xlink:href="#lg2"/><linearGradient id="lg3"><stop offset="0" stop-color="#f4fbff"/><stop offset=".5145" stop-color="#cbe2ff"/><stop offset="1" stop-color="#bed8fb"/></linearGradient><radialGradient id="SVGID_4_" cx="282.003" cy="1.799" gradientUnits="userSpaceOnUse" r="46.928" xlink:href="#lg3"/><linearGradient id="lg4"><stop offset="0" stop-color="#e7f6ec"/><stop offset=".5145" stop-color="#daefc8"/><stop offset="1" stop-color="#cbe7af"/></linearGradient><radialGradient id="SVGID_5_" cx="193.253" cy="102.145" gradientUnits="userSpaceOnUse" r="42.456" xlink:href="#lg4"/><radialGradient id="SVGID_6_" cx="440.339" cy="314.741" gradientTransform="matrix(-1 0 0 -1.882 880.678 906.916)" gradientUnits="userSpaceOnUse" r="172.317"><stop offset="0" stop-color="#f4dd45"/><stop offset=".2362" stop-color="#f2d740"/><stop offset=".5521" stop-color="#edc631"/><stop offset=".5974" stop-color="#ecc32e"/><stop offset="1" stop-color="#e49824"/></radialGradient><radialGradient id="SVGID_7_" cx="232.986" cy="121.496" gradientTransform="matrix(0 1 -.717 0 320.054 -111.49)" gradientUnits="userSpaceOnUse" r="264.116" xlink:href="#lg3"/><radialGradient id="SVGID_8_" cx="353.68" cy="184.106" gradientTransform="matrix(-1 0 0 -1.882 707.359 530.497)" gradientUnits="userSpaceOnUse" r="304.568"><stop offset="0" stop-color="#80b4fb"/><stop offset=".1461" stop-color="#7aaffb"/><stop offset=".3416" stop-color="#69a1fa"/><stop offset=".5158" stop-color="#5490f9"/><stop offset="1" stop-color="#407093"/></radialGradient><radialGradient id="SVGID_9_" cx="146.326" cy="204.704" gradientTransform="matrix(0 1 -.717 0 293.024 58.378)" gradientUnits="userSpaceOnUse" r="204.983" xlink:href="#lg4"/><radialGradient id="SVGID_10_" cx="267.02" cy="249.423" gradientTransform="matrix(-1 0 0 -1.882 534.04 718.707)" gradientUnits="userSpaceOnUse" r="238.439"><stop offset="0" stop-color="#aad880"/><stop offset=".1646" stop-color="#a6d67a"/><stop offset=".3846" stop-color="#9bd069"/><stop offset=".5974" stop-color="#8bc852"/><stop offset="1" stop-color="#528e61"/></radialGradient><radialGradient id="SVGID_11_" cx="59.666" cy="371.12" gradientTransform="matrix(0 1 -.717 0 325.624 311.453)" gradientUnits="userSpaceOnUse" r="89.778" xlink:href="#lg1"/><radialGradient id="SVGID_12_" cx="180.36" cy="380.058" gradientTransform="matrix(-1 0 0 -1.882 360.721 1095.126)" gradientUnits="userSpaceOnUse" r="106.215"><stop offset=".0988" stop-color="#dd636e"/><stop offset=".6173" stop-color="#d82e3d"/><stop offset=".726" stop-color="#d32e3b"/><stop offset=".8594" stop-color="#c42f37"/><stop offset="1" stop-color="#ac3030"/></radialGradient><radialGradient id="SVGID_13_" cx="274.117" cy="1493.557" gradientTransform="matrix(.931 0 0 .112 -2.094 318.238)" gradientUnits="userSpaceOnUse" r="228.341"><stop offset="0" stop-color="#c6c1c8"/><stop offset=".2432" stop-color="#dddbdf"/><stop offset=".4962" stop-color="#f1f1f4"/><stop offset=".888" stop-color="#fff"/></radialGradient><g><path d="m67.18 340.92 43.33-25.016h31.002l-43.33 40.896z" fill="url(#SVGID_1_)"/><path d="m327.159 235.619v249.239h31.002l12.692-71.969-12.692-177.27z" fill="url(#SVGID_2_)"/><path d="m327.159 235.619 43.329-25.017h31.002l-43.329 45.918z" fill="url(#SVGID_3_)"/><path d="m240.499 25.016 43.33-25.016h31.002l-43.33 45.961z" fill="url(#SVGID_4_)"/><path d="m153.839 130.318 43.33-25.017h31.002l-43.33 48.132z" fill="url(#SVGID_5_)"/><path d="m444.82 484.858h-86.659v-249.239l43.329-25.017 43.33 25.017z" fill="url(#SVGID_6_)"/><path d="m240.499 25.016v459.842h31.002l12.693-71.969-12.693-387.873z" fill="url(#SVGID_7_)"/><path d="m358.161 484.858h-86.66v-459.842l43.33-25.016 43.33 25.016z" fill="url(#SVGID_8_)"/><path d="m153.839 130.318v354.54h31.002l12.693-71.969-12.693-282.571z" fill="url(#SVGID_9_)"/><path d="m271.501 484.858h-86.66v-354.54l43.33-25.017 43.33 25.017z" fill="url(#SVGID_10_)"/><path d="m67.18 340.92v143.938h31.002l12.692-71.969-12.692-71.969z" fill="url(#SVGID_11_)"/><path d="m184.841 484.858h-86.659v-143.938l43.33-25.016 43.329 25.016z" fill="url(#SVGID_12_)"/><path d="m256 512c122.354 0 221.541-12.152 221.541-27.142h-443.082c0 14.99 99.187 27.142 221.541 27.142z" fill="url(#SVGID_13_)"/></g></svg>