<svg id="Layer_1" enable-background="new 0 0 512 512" height="512" viewBox="0 0 512 512" width="512" xmlns="http://www.w3.org/2000/svg" xmlns:xlink="http://www.w3.org/1999/xlink"><linearGradient id="background-2_00000105398358796041525550000005071036445665528732_" gradientTransform="matrix(1 0 0 -1 0 512)" gradientUnits="userSpaceOnUse" x1="94.421" x2="429.83" y1="411.955" y2="76.546"><stop offset="0" stop-color="#fdf33f"/><stop offset=".15" stop-color="#fde639"/><stop offset=".42" stop-color="#fdc42a"/><stop offset=".78" stop-color="#fe8e11"/><stop offset="1" stop-color="#fe6900"/></linearGradient><radialGradient id="SVGID_1_" cx="184.971" cy="408.809" gradientTransform="matrix(.997 .076 .076 -.997 -32.059 497.926)" gradientUnits="userSpaceOnUse" r="63.759"><stop offset="0" stop-color="#fefcf5"/><stop offset=".26" stop-color="#fefdf5" stop-opacity=".72"/><stop offset=".78" stop-color="#fffef6" stop-opacity=".21"/><stop offset="1" stop-color="#fffef6" stop-opacity="0"/></radialGradient><g id="Layer_2_00000085244609824309855230000016950927769417342901_"><g id="face_hearts"><g id="background"><circle id="background-2" cx="262.1" cy="267.8" fill="url(#background-2_00000105398358796041525550000005071036445665528732_)" r="237.2"/><path d="m159 53.5c35-16.8 74.4-7.7 87.8 20.3s-4 64.4-39.1 81.2-74.4 7.7-87.8-20.3 4.1-64.3 39.1-81.2z" fill="url(#SVGID_1_)"/></g><g fill="#6a371a"><path d="m361.6 322.9c10 39.9-34 70-69.5 71.9-9.5.7-20.3.9-29.9.9-29.6.6-62-2.2-83.9-24.8-12.4-12.1-20.8-30.8-15.5-48 1.3-4.3 5.9-6.7 10.2-5.4 2.1.6 3.8 2.1 4.8 4 9.9 21.6 36.7 27.2 58.3 25.9 15.8-.8 32-.9 47.8-.3 20.8 1.5 45.4-1.5 58.9-19.1 1.4-2.1 2.7-4.2 3.8-6.5 2.1-4 7.1-5.5 11.1-3.4 1.9 1.1 3.3 2.8 3.9 4.8z"/><path d="m400 238.7c-9.5 0-17.1-7.7-17.1-17.1 0-8.8-14.3-19-32.8-19s-32.8 10.2-32.8 19c0 9.5-7.7 17.1-17.1 17.1-9.5 0-17.1-7.7-17.1-17.1 0-15.3 7.7-29.3 21.7-39.4 12.3-8.9 28.4-13.9 45.4-13.9s33 4.9 45.3 13.9c14 10.1 21.7 24.1 21.7 39.4 0 9.5-7.7 17.1-17.2 17.1z"/><path d="m224 238.7c-9.5 0-17.1-7.7-17.1-17.1 0-8.8-14.3-19-32.8-19s-32.8 10.2-32.8 19c0 9.5-7.7 17.1-17.1 17.1s-17.1-7.7-17.1-17.1c0-15.3 7.7-29.3 21.7-39.4 12.3-8.9 28.4-13.9 45.3-13.9s33 4.9 45.3 13.9c14 10.1 21.7 24.1 21.7 39.4.1 9.5-7.6 17.1-17.1 17.1z"/></g><path d="m466.4 68c-3.8 23.9-24.2 40.1-44 51.6-15.6 9-31.5 17.4-46.2 27.8-1.2.8-2.2 1.8-3.4 2.7-3.7 2.8-9.6 2-12-2.1-3.2-4.8-6.4-9.6-9.7-14.3-21.7-29.3-58.9-58.3-48.9-99 3.8-13.7 12.4-25.8 25.9-31.2 15.3-6.3 34.1-4.1 46.8 6.8 5.1 4.4 9.6 9.5 13.3 15.2.4.6.8.7 1.4.2 10.2-7.3 22.8-13.4 35.7-12 28.5 2.7 46.2 26 41.2 54.2z" fill="#ff3437"/><path d="m157.8 284.3c14.8 20.3 11.6 47 5.6 69.9-4.8 18-10.4 35.8-13.4 54.1-.3 1.5-.3 3-.5 4.4-.7 4.7-5.6 8.4-10.2 7.2-5.9-1.1-11.7-2.3-17.6-3.4-37.4-5.4-85.7.6-108.2-36.5-7.3-12.7-9.9-27.9-4-41.7 6.6-15.8 22-27.9 39.2-29.2 7-.5 14-.1 20.9 1.4.8.2 1.1-.1 1.2-.8 2.2-12.8 6.9-26.5 17.3-34.8 22.8-19.1 52.7-14.9 69.7 9.4z" fill="#ff3437"/><path d="m496.8 474.7c-13.3 20.5-38.7 27-61.7 29.4-18 1.9-36.1 3-53.9 6.6-1.4.3-2.8.8-4.2 1.1-4.5 1-9.6-2.1-10.1-6.8-1-5.7-2-11.4-3-17.1-8-35.9-30.2-77.9-4.3-111.2 9-11.1 22-18.7 36.6-18.1 16.7.5 33.1 10.3 40.3 25.5 2.9 6.2 4.9 12.7 6 19.5.1.8.5 1 1.2.8 12.4-2.5 26.5-3 37.8 3.7 24.9 14.1 31.6 42.7 15.3 66.6z" fill="#ff3437"/></g></g></svg>