<svg id="Layer_1" enable-background="new 0 0 67 67" height="512" viewBox="0 0 67 67" width="512" xmlns="http://www.w3.org/2000/svg"><g><g><g><g><g><g><g><g><g enable-background="new"><g><path d="m41.5636177 3.0106153 4.1641922 2.4199657c-.5956345-.3461452-1.420517-.2973809-2.330925.2282414l-4.1641922-2.4199654c.9104042-.5256223 1.7352905-.5743866 2.330925-.2282417z" fill="#434240"/></g><g><path d="m6.6997719 64.0333786-4.1641951-2.41996c-.5880345-.341732-.9526353-1.068428-.9555633-2.1012383l4.1641946 2.4199677c.002928 1.0328064.3675292 1.7595062.9555638 2.1012306z" fill="#b2b0af"/></g><g><path d="m5.7442083 61.932148-4.1641945-2.4199677-.0752136-29.0315246 4.1641947 2.4199638z" fill="#d6d4d2"/></g><g><path d="m5.7442083 61.932148-4.1641945-2.4199677-.0438022-17.9520263 4.1641945 2.4199676z" fill="#c4c2c0"/></g><g><path d="m46.6878014 9.2184.0752144 29.0315285c.0058937 2.0788116-1.455677 4.6106834-3.2647934 5.6551743l-34.4678727 19.9000348c-1.8091207 1.0444946-3.2802482.2058258-3.2861414-1.8729897l-.0752134-29.0315284z" fill="#e9e8e6"/></g><g><path d="m5.6689949 32.9006195-4.1641947-2.4199638-.0047824-1.6869107 4.1641944 2.4199658z" fill="#494948"/></g><g><path d="m8.9290123 25.5588589-4.1641941-2.4199639 34.4678745-19.900038 4.1641922 2.4199655z" fill="#494948"/></g><g><path d="m8.9290123 25.5588589-4.1641941-2.4199639 17.2653599-9.9681606 4.1641941 2.4199648z" fill="#383736"/></g><g><path d="m43.3968849 5.6588225c1.8091164-1.0444922 3.280529-.2059784 3.2864189 1.8725028l.0047836 1.6869097-41.0190925 23.6823845-.0047827-1.6869087c-.0058923-2.0784817 1.4559727-4.6105232 3.2648001-5.6548519z" fill="#2d2c2b"/></g><g><path d="m5.6642122 31.2137108-4.1641944-2.4199658c-.0058925-2.0784817 1.4559726-4.6105232 3.2648005-5.65485l4.1641941 2.4199638c-1.8088275 1.0443288-3.2706924 3.5763703-3.2648002 5.654852z" fill="#494948"/></g></g></g><g><g enable-background="new"><g><path d="m24.5577774 18.3346233.6594067.3832073c-.1667099-.0968819-.3976212-.0831795-.6524811.0639648l-.6594067-.3832054c.25486-.1471442.4857712-.1608466.6524811-.0639667z" fill="#e9e8e6"/></g><g><path d="m10.3267574 27.0020771-.6594076-.3832054 14.2379465-8.2202816.6594067.3832054z" fill="#e9e8e6"/></g><g><path d="m10.3267574 27.0020771-.6594076-.3832054 8.3075075-4.796341.6594067.3832055z" fill="#d6d4d2"/></g><g><path d="m9.6805315 29.172308-.6594076-.3832054c-.1645002-.0955982-.2664738-.2989197-.267293-.5879536-.0016499-.5818062.4071941-1.2899513.9135189-1.5822773l.6594076.3832054c-.5063248.292326-.9151688 1.000473-.9135199 1.5822773.0008193.2890339.1027938.4923553.267294.5879536z" fill="#e9e8e6"/></g><g><path d="m24.564703 18.7817955c.5063248-.292326.9181271-.0579815.9197769.5238247.0016479.5818043-.4074802 1.2901134-.9138069 1.5824413l-14.2379446 8.2202816c-.5063248.292326-.917841.0578175-.9194908-.5239887-.0016489-.5818043.4071951-1.2899513.9135199-1.5822773z" fill="#c4c2c0"/></g></g><g enable-background="new"><g><path d="m34.2178307 12.589982.6594086.3832064c-.2041779-.1186543-.4869576-.1018801-.7991447.0783606l-.6594048-.3832054c.3121833-.1802407.5949668-.1970149.7991409-.0783616z" fill="#ffd651"/></g><g><path d="m33.2870369 15.7103996-.6594086-.3832054c-.2016602-.1171932-.3267288-.3663883-.3277321-.7203712-.0020218-.7128754.49897-1.5806246 1.1187935-1.9384794l.6594048.3832054c-.6198235.3578548-1.1208153 1.225605-1.1187935 1.9384794.0010033.3539829.1260757.603179.3277359.7203712z" fill="#efc348"/></g><g><path d="m33.288353 15.7095652-.6627808-.3876848c-.2001381-.1125116-.3251686-.362648-.3251686-.7128544l.6627808.3752432c0 .362648.1251068.6127843.3251686.725296z" fill="#ddb040"/></g><g><path d="m34.0780945 13.051549c.620388-.35818 1.1246529-.070816 1.1266747.6420584.002018.7122211-.49897 1.5806227-1.1193581 1.9388037-.6198235.3578548-1.1240883.0698385-1.1261101-.6423826-.0020218-.7128745.49897-1.5806247 1.1187935-1.9384795z" fill="#cea03a"/></g></g><g enable-background="new"><g><path d="m38.0038872 10.4041042.6594048.3832064c-.204174-.1186552-.4869576-.1018801-.7991486.0783634l-.6594086-.3832064c.312191-.1802425.5949745-.1970176.7991524-.0783634z" fill="#0074d1"/></g><g><path d="m37.0730934 13.5245218-.6594086-.3832054c-.2016602-.1171932-.3267326-.3663893-.3277359-.7203732-.0020218-.7128754.49897-1.5806246 1.1187859-1.9384756l.6594086.3832064c-.6198158.3578501-1.1208076 1.2255993-1.1187859 1.9384747.0010033.3539839.1260719.6031799.3277359.7203731z" fill="#006cb5"/></g><g><path d="m37.0777245 13.5210056-.6628571-.3751669c-.2000618-.1250296-.3251686-.3751659-.3251686-.7253723l.650341.3876848c.012516.3502064.1375466.6003428.3376847.7128544z" fill="#00649b"/></g><g><path d="m37.8641434 10.865674c.6203918-.3581848 1.1246605-.0708218 1.1266785.6420536.0020218.7122211-.49897 1.5806227-1.1193619 1.9388075-.6198158.357851-1.1240845.0698347-1.1261024-.6423864-.0020219-.7128754.4989699-1.5806246 1.1187858-1.9384747z" fill="#005e87"/></g></g><g enable-background="new"><g><path d="m41.7899323 8.2182245.6594086.3832064c-.204174-.1186543-.4869537-.1018791-.7991447.0783634l-.6594048-.3832064c.3121871-.1802415.5949668-.1970167.7991409-.0783634z" fill="#a0a8aa"/></g><g><path d="m40.8591461 11.3386412-.6594048-.3832045c-.201664-.1171932-.3267326-.3663893-.3277359-.7203732-.0020218-.7128754.49897-1.5806246 1.1187859-1.9384756l.6594048.3832064c-.6198158.3578501-1.1208076 1.2255993-1.1187859 1.9384747.0010033.3539838.1260758.6031799.3277359.7203722z" fill="#7e8a8c"/></g><g><path d="m40.8545036 11.3324461-.6502647-.3751669c-.2001381-.1250296-.3251686-.362648-.3376884-.7253723l.6628609.3876848c-.0000001.3502064.1250266.6003428.3250922.7128544z" fill="#a0a8aa"/></g><g><path d="m41.6501961 8.6797943c.6203957-.3581848 1.1246529-.070817 1.1266747.6420574.002018.7122211-.4989624 1.5806189-1.1193581 1.9388037-.6198158.357851-1.1240807.0698338-1.1261024-.6423864-.0020219-.7128754.4989699-1.5806246 1.1187858-1.9384747z" fill="#6d797a"/></g></g></g></g></g></g></g><g><g enable-background="new"><g><path d="m40.0298996 25.8615456-.9957008-.5786381 4.4813728 2.1951065.9957008.5786381z" fill="#f25a5a"/></g><g><path d="m43.5505943 27.4960308.9956894.5786457c-.0112877-.0065765-.0229645-.0125866-.0350113-.0180244l-.9957085-.5786266c.0120545.0054263.0237313.0114383.0350304.0180053z" fill="#f25a5a"/></g><g><path d="m38.9204292 36.0669632-.9957008-.5786362 3.8009186-6.2709484.9957008.5786381z" fill="#f25a5a"/></g><g><path d="m38.9009476 37.4571877-.9957123-.5786362c-.0063248-.003685-.0125809-.0075531-.0187531-.0116158-.3137589-.20644-.2974586-.824894.0382462-1.3786087l.9957008.5786362c-.3357048.5537148-.352005 1.1721725-.0382462 1.3786087.0061723.0040627.0124284.0079346.0187646.0116158z" fill="#f25a5a"/></g><g><path d="m31.8099899 45.0937843-.9957085-.5786285c-.225441-.1310272-.309164-.4796448-.1906586-.9149895l.9956989.5786362c-.1185034.4353485-.0347804.7839622.1906682.9149818z" fill="#f25a5a"/></g><g><path d="m27.4836655 38.5934982-.9957009-.57864 3.8239575 1.8687249.9956989.5786361z" fill="#f25a5a"/></g><g><path d="m30.3373146 39.8971329.9956951.57864c-.0082493-.0047989-.0167141-.0093193-.0253887-.0135536l-.9956989-.5786362c.0086746.0042343.0171375.0087547.0253925.0135498z" fill="#f25a5a"/></g><g><path d="m39.460495 25.9336147-.9957008-.5786381c.2037354-.1176281.408329-.150671.5694046-.0720692l.995697.57864c-.1610756-.0786037-.3656655-.0455608-.5694008.0720673z" fill="#f25a5a"/></g><g><path d="m38.8770599 27.9162674-.9957085-.5786343c-.3181267-.184885-.3308296-.763237-.0256424-1.3258801.1630325-.2969055.3855286-.5277061.6090851-.6567764l.9957008.5786381c-.2235603.1290703-.4460526.3598709-.6090889.6567764-.3051833.5626431-.2924804 1.1409951.0256539 1.3258763z" fill="#f25a5a"/></g><g><path d="m39.460495 25.9336147c.2037354-.1176281.4083252-.150671.5694046-.0720692l4.4813728 2.1951065c.1749268.0789547.2718506.2790737.2725983.5416451.0007629.2694778-.0947151.5806847-.2686195.8610325l-4.4543037 7.3541203c-.1601067.264061-.3642159.4669647-.5679512.5845909-.2235565.1290703-.4466705.1555176-.6108131.0475311-.3137589-.2064362-.2974586-.824894.0382462-1.3786087l3.8009186-6.2709465-3.8239975-1.8687057c-.3377571-.1718063-.3574867-.7625484-.0459442-1.3369198.1630361-.2969056.3855284-.5277062.6090887-.6567765z" fill="#dd4a4a"/></g><g><path d="m37.5491104 22.6232224.9956894.5786419c-.0805283-.0468102-.1792831-.0657368-.2933807-.0508709-.0975876.0136929-.1982498.0515156-.2974243.1087761l-.9957008-.5786381c.0991783-.0572605.1998405-.0950832.2974243-.1087761.1140975-.0148659.2128524.0040607.2933921.0508671z" fill="#f25a5a"/></g><g><path d="m31.6193218 44.1788025-.9956989-.5786362 5.5512352-19.8500919.995697.5786381z" fill="#f25a5a"/></g><g><path d="m37.1705551 24.3287125-.995697-.5786381c.1288757-.4590034.447979-.8752651.7834358-1.068943l.9957008.5786381c-.3354606.1936759-.65456.6099395-.7834396 1.068943z" fill="#f25a5a"/></g><g><path d="m37.9539948 23.2597694c.0991745-.0572605.1998367-.0950832.2974243-.1087761.4334717-.0564766.645504.3747883.4785728.9694767l-5.5512543 19.8570271c-.1237984.4494743-.4401588.8667488-.7741508 1.0595779-.1001968.0578499-.2020416.0955162-.3006935.1077423-.4334717.0564766-.6455059-.3747864-.4845715-.9660149l5.5512333-19.85009c.1288796-.4590034.447979-.875267.7834397-1.068943z" fill="#dd4a4a"/></g><g><path d="m30.3083057 30.3467999.9956894.57864c-.1621475-.0942383-.3768845-.065073-.5919952.0591202l-.9957008-.5786381c.2151107-.1241933.4298477-.1533585.5920066-.0591221z" fill="#f25a5a"/></g><g><path d="m30.1440468 31.5691452-.9957008-.5786381c.1601067-.2640591.3641739-.4669323.5679531-.5845852l.9957008.5786381c-.2037792.1176529-.4078465.3205242-.5679531.5845852z" fill="#f25a5a"/></g><g><path d="m25.6837101 38.9267502-.9957008-.5786362 4.4603366-7.3576069.9957009.5786381z" fill="#f25a5a"/></g><g><path d="m25.663126 40.3163223-.9957104-.5786247c-.1536846-.0893326-.2412834-.2828102-.2420101-.5389404-.0007439-.2625732.0947323-.5737762.2626038-.8506432l.9957008.5786362c-.1678734.2768707-.2633476.5880699-.2626038.8506432.0007267.2561302.0883236.4496078.2420197.5389289z" fill="#f25a5a"/></g><g><path d="m30.7119999 30.98456c.2235165-.1290474.4466286-.1554928.6107712-.0475082.3138199.213316.2974987.8248711-.0382252 1.3855152l-3.8008804 6.2709312 3.8239555 1.868721c.3377819.1648788.3575306.7625198.0459251 1.3300133-.1629944.2968826-.3855286.5277061-.6090851.6567764-.2036972.1176071-.408329.1506653-.5693665.0720406l-4.4874077-2.1916199c-.1688919-.0824356-.2658176-.2825584-.2665806-.5520363-.0007439-.2625732.0947304-.5737724.2626038-.8506432l4.4603367-7.357605c.1601067-.2640609.364174-.4669322.5679532-.5845851z" fill="#dd4a4a"/></g></g></g><g enable-background="new"><g><path d="m23.1438293 28.4841957.4871197.2830849c-.0247421-.0143795-.0589275-.0123463-.0965862.0093956l-.4871178-.283083c.0376568-.0217419.0718422-.0237751.0965843-.0093975z" fill="#cfd2d3"/></g><g><path d="m9.2027206 38.949791-.4871196-.2830811c-.0244083-.0141869-.0396137-.0441589-.0397339-.0867653l.4871187.2830811c.0001211.0426101.0153265.0725822.0397348.0867653z" fill="#c4c2c0"/></g><g><path d="m9.1629858 38.8630257-.4871187-.2830811-.0046215-1.6301956.4871187.283081z" fill="#c4c2c0"/></g><g><path d="m9.2947149 36.9966621-.4871187-.283081 14.2396488-8.2199879.4871178.283083z" fill="#cfd2d3"/></g><g><path d="m9.1583643 37.23283-.4871187-.283081c-.000247-.0870476.0613337-.1928596.1363506-.2361679l.4871187.2830811c-.0750169.043312-.1365976.1491241-.1363506.2361678z" fill="#c4c2c0"/></g><g><path d="m23.5343628 28.7766762c.0750179-.0433121.1362591-.0084114.1365051.0786343l.0046215 1.6301956c.000246.0861988-.0605984.1915855-.1356144.2348976l-14.2396497 8.2199878c-.075016.0433083-.1369953.0088348-.1372395-.0773659l-.0046215-1.6301956c-.000247-.0870438.0613337-.1928558.1363506-.2361679z" fill="#b2b0af"/></g></g><g enable-background="new"><g><path d="m21.3878098 35.9021378.4871197.2830811c-.0247421-.0143776-.0589275-.0123444-.0965862.0093956l-.4871197-.2830811c.0376586-.0217438.071844-.0237732.0965862-.0093956z" fill="#cfd2d3"/></g><g><path d="m9.2027206 45.3136902-.4871196-.2830811c-.0244083-.0141869-.0396137-.0441551-.0397339-.0867653l.4871187.2830811c.0001211.0426102.0153265.0725822.0397348.0867653z" fill="#c4c2c0"/></g><g><path d="m9.1629858 45.2269249-.4871187-.2830811-.0046215-1.6301956.4871187.2830811z" fill="#c4c2c0"/></g><g><path d="m9.2947149 43.3605614-.4871187-.2830811 12.4836273-7.1659469.4871197.283081z" fill="#cfd2d3"/></g><g><path d="m9.1583643 43.5967293-.4871187-.2830811c-.000247-.0870476.0613337-.1928596.1363506-.2361679l.4871187.2830811c-.0750169.043312-.1365976.1491241-.1363506.2361679z" fill="#c4c2c0"/></g><g><path d="m21.7783432 36.1946144c.0750179-.0433083.1362591-.0084076.1365051.0786362l.0046215 1.6301956c.0002441.0862007-.0605984.1915855-.1356163.2348976l-12.4836283 7.165947c-.075016.0433083-.1369953.0088348-.1372395-.0773659l-.0046215-1.6301956c-.000247-.0870438.0613337-.1928558.1363506-.2361679z" fill="#b2b0af"/></g></g><g enable-background="new"><g><path d="m19.5094833 43.322834.4871178.2830849c-.0247402-.0143776-.0589275-.0123482-.0965843.0093956l-.4871197-.2830849c.0376568-.0217399.0718441-.0237732.0965862-.0093956z" fill="#cfd2d3"/></g><g><path d="m9.2027206 51.6775894-.4871196-.283081c-.0244083-.0141869-.0396137-.0441551-.0397339-.0867653l.4871187.2830811c.0001211.0426101.0153265.0725822.0397348.0867652z" fill="#c4c2c0"/></g><g><path d="m9.1629858 51.5908241-.4871187-.283081-.0046215-1.6301956.4871187.283081z" fill="#c4c2c0"/></g><g><path d="m9.2947149 49.7244606-.4871187-.2830811 10.6053009-6.1091499.4871197.2830849z" fill="#cfd2d3"/></g><g><path d="m9.1583643 49.9606285-.4871187-.2830811c-.000247-.0870476.0613337-.1928596.1363506-.2361679l.4871187.2830811c-.0750169.0433121-.1365976.1491241-.1363506.2361679z" fill="#c4c2c0"/></g><g><path d="m19.9000168 43.6153145c.075016-.0433121.1362572-.0084114.1365051.0786362l.0046215 1.6301918c.0002441.0862007-.0606003.1915894-.1356163.2349014l-10.6053018 6.1091461c-.075016.0433083-.1369953.0088348-.1372395-.0773659l-.0046215-1.6301956c-.000247-.0870438.0613337-.1928558.1363506-.2361679z" fill="#b2b0af"/></g></g><g enable-background="new"><g><path d="m23.1438293 47.5758934.4871197.2830849c-.0247421-.0143776-.0589275-.0123482-.0965862.0093956l-.4871178-.2830849c.0376568-.02174.0718422-.0237732.0965843-.0093956z" fill="#cfd2d3"/></g><g><path d="m9.2027206 58.0414886-.4871196-.283081c-.0244083-.0141869-.0396137-.0441551-.0397339-.0867653l.4871187.2830811c.0001211.0426101.0153265.0725822.0397348.0867652z" fill="#c4c2c0"/></g><g><path d="m9.1629858 57.9547234-.4871187-.2830811-.0046215-1.6301956.4871187.283081z" fill="#c4c2c0"/></g><g><path d="m9.2947149 56.0883598-.4871187-.283081 14.2396488-8.2199898.4871178.2830849z" fill="#cfd2d3"/></g><g><path d="m9.1583643 56.3245277-.4871187-.2830811c-.000247-.0870476.0613337-.1928596.1363506-.2361679l.4871187.2830811c-.0750169.0433121-.1365976.1491242-.1363506.2361679z" fill="#c4c2c0"/></g><g><path d="m23.5343628 47.8683739c.0750179-.0433121.1362591-.0084114.1365051.0786362l.0046215 1.6301918c.000246.0862007-.0605984.1915894-.1356144.2348976l-14.2396497 8.2199897c-.075016.0433083-.1369953.0088348-.1372395-.0773659l-.0046215-1.6301956c-.000247-.0870438.0613337-.1928558.1363506-.2361679z" fill="#b2b0af"/></g></g></g><g><g enable-background="new"><g><path d="m58.5346413 39.3046379-1.9297524-1.1214485 2.1930847-.7883263 1.9297524 1.1214485z" fill="#ddb040"/></g><g><path d="m47.6833458 61.1100693-1.9297524-1.1214485-.4800987-2.5849305 1.9297524 1.1214486z" fill="#ddb040"/></g><g><path d="m45.3720779 54.0608711-1.92976-1.1214485c1.0396194.6041565 2.4795876.5185547 4.0696068-.3994446l1.9297523 1.1214485c-1.5900191.9179993-3.0299872 1.0036011-4.0695991.3994446z" fill="#cea03a"/></g><g><path d="m51.5451164 38.9931374 1.9297485 1.1214523c1.027256.5969734 1.6638565 1.8671989 1.6689758 3.6728249.0102921 3.630806-2.5402145 8.0484581-5.7021637 9.874012l-1.9297523-1.1214485c3.1619492-1.8255539 5.7124557-6.243206 5.7021637-9.874012-.0051193-1.805626-.6417198-3.0758553-1.668972-3.6728287z" fill="#cea03a"/></g><g><path d="m56.1319695 32.5632019-1.9297524-1.1214485 2.5211449 1.4367065 1.9297523 1.1214524z" fill="#ffd651"/></g><g><path d="m40.1886101 60.1782074-1.9297524-1.1214485 1.504921-3.419117 1.9297523 1.1214485z" fill="#ddb040"/></g><g><path d="m54.2023849 35.1938133-1.9297523-1.1214523 1.9295845-2.6306076 1.9297524 1.1214485z" fill="#ddb040"/></g><g><path d="m50.4323654 40.9078407 1.9297485 1.1214485c-.7541008-.4382362-1.7985497-.3760414-2.9525757.2902374l-1.9297523-1.1214485c1.1540261-.6662788 2.1984749-.7284774 2.9525795-.2902374z" fill="#ffd651"/></g><g><path d="m41.693531 56.7590904-1.9297562-1.1214485c-.4021492-.5701218-.712719-1.258503-.9163399-2.0539055l1.9297485 1.1214561c.2036249.7953988.5141946 1.4837762.9163476 2.0538979z" fill="#cea03a"/></g><g><path d="m46.4839783 52.1481667-1.9297562-1.1214485c-.7451859-.4330597-1.206852-1.3541641-1.2105598-2.6620712-.007473-2.6364784 1.8416862-5.841877 4.1361237-7.1665688l1.9297523 1.1214485c-2.2944374 1.3246956-4.1435966 4.5300941-4.1361237 7.1665726.0037079 1.3079032.465374 2.2290077 1.2105637 2.6620674z" fill="#ddb040"/></g><g><path d="m51.6184235 35.5287437-1.9297523-1.1214485c.9206238-.295105 1.789257-.4042587 2.5839615-.3349342l1.9297485 1.1214523c-.7947007-.0693283-1.663334.0398255-2.5839577.3349304z" fill="#cea03a"/></g><g><path d="m60.7392998 42.5990791-2.1903801 1.742485c-.2328606 1.2435684-.6166954 2.5038986-1.1297455 3.7407265l1.2778625 1.4100723-2.5047722 4.3384361-1.9381714-.3975716c-.7917137.98526-1.658123 1.8778152-2.5774117 2.6449852l-.4424248 2.981739-3.5509109 2.0501175-.4800987-2.5849304c-.8376732.217041-1.6320343.273262-2.3524208.1710815l-2.1410866 2.9187164-2.5211296-1.4367294 1.504921-3.419117c-.402153-.5701218-.7127228-1.2584991-.9163437-2.0539017l-2.6610031.9553528-.0115738-4.0827637 2.6577148-2.1154099c.198452-1.0275383.5041084-2.0716972.9017296-3.1010513l-1.5193672-1.67556 2.5047569-4.3384132 2.1506119.4409065c.717453-.9323196 1.5095367-1.7920456 2.3456993-2.5413971l.4638977-3.1299477 3.5509109-2.0501175.457859 2.461956c.9206238-.295105 1.789257-.4042587 2.5839615-.3349304l1.9295845-2.6306114 2.5211449 1.4367104-1.2656937 2.8811111c.518364.6388397.9080811 1.4525452 1.1472206 2.4236145l2.1930847-.7883263zm-11.2976227 11.0623474c3.1619492-1.8255539 5.7124557-6.243206 5.7021637-9.874012-.0103035-3.6333199-2.5774879-5.0987892-5.7394333-3.2732391-3.1597633 1.8242874-5.710247 6.2444458-5.6999474 9.8777695.0102921 3.630806 2.5774575 5.0937691 5.737217 3.2694816" fill="#efc348"/></g><g><path d="m49.4095383 42.3195267c2.294426-1.324688 4.1556892-.2615013 4.1631622 2.3749771.0074615 2.6314583-1.8416901 5.8393669-4.1361198 7.1640549-2.2944374 1.3246918-4.1557045.2589951-4.163166-2.3724594-.0074731-2.6364785 1.8416862-5.841877 4.1361236-7.1665726z" fill="#efc348"/></g><g><path d="m40.7623253 49.462368-1.92976-1.1214447c.1984596-1.0275421.5041161-2.071701.9017372-3.1010551l1.9297485 1.1214485c-.3976173 1.0293541-.7032737 2.073513-.9017257 3.1010513z" fill="#cea03a"/></g><g><path d="m44.8000565 40.78825-1.9297562-1.1214485c.7174568-.9323196 1.5095406-1.7920456 2.3457031-2.5413971l1.9297523 1.1214523c-.8361625.7493477-1.6282462 1.6090736-2.3456992 2.5413933z" fill="#cea03a"/></g><g><path d="m38.1046104 51.5777779-1.9297523-1.1214524 2.6577148-2.115406 1.9297524 1.1214485z" fill="#ddb040"/></g><g><path d="m38.1161842 55.6605415-1.9297523-1.1214485-.0115738-4.0827675 1.9297523 1.1214524z" fill="#ffd651"/></g><g><path d="m47.1457558 38.2468529-1.9297524-1.1214485.4638977-3.1299477 1.9297524 1.1214485z" fill="#ddb040"/></g><g><path d="m47.6096535 35.1169052-1.9297524-1.1214485 3.550911-2.0501194 1.9297523 1.1214504z" fill="#ffd651"/></g><g><path d="m41.6640549 46.3613167-1.9297524-1.1214485-1.5193672-1.6755638 1.9297524 1.1214523z" fill="#ddb040"/></g><g><path d="m40.1446877 44.6857567-1.9297524-1.1214523 2.5047569-4.3384095 1.9297524 1.1214485z" fill="#ffd651"/></g><g><path d="m42.6494446 40.3473434-1.9297524-1.1214485 2.1506119.4409027 1.9297524 1.1214524z" fill="#ffd651"/></g></g></g><g><g><g><g enable-background="new"><g><path d="m42.2758904 23.0003853-1.6823388-.9776688-.0166359-5.8686962 1.6823388.9776669z" fill="#0074d1"/></g><g><path d="m46.0499229 14.9431419-1.6823387-.9776678 19.4334412-11.2199013 1.6823349.9776683z" fill="#3f9ae0"/></g><g><path d="m46.0499229 14.9431419-1.6823387-.9776678 13.9283104-8.0415134 1.6823387.9776678z" fill="#0074d1"/></g><g><path d="m42.2592545 17.1316872-1.6823388-.9776669 12.213852-7.051672 1.6823387.9776678z" fill="#82c6e0"/></g><g><path d="m65.4833603 3.7232411.0166397 5.8686979-23.2241096 13.4084463-.0166359-5.8686981z" fill="#006cb5"/></g></g></g></g><g><g><path d="m44.174942 19.0496731-.2227249-.1294346c.1239319-.0715523.2189598-.156271.2850952-.2574825l.2227249.1294346c-.0661354.1012115-.1611633.1859302-.2850952.2574825z" fill="#b2b0af"/></g><g><path d="m43.8376923 19.2443829-.222725-.1294327.3372498-.1947117.2227249.1294346z" fill="#b2b0af"/></g><g><path d="m43.4195251 18.3811035-.2227249-.1294346.7753334-.4476394.222725.1294346z" fill="#b2b0af"/></g><g><path d="m43.4253654 20.4411926-.2227249-.1294327-.0058403-2.060091.2227249.1294346z" fill="#b2b0af"/></g><g><g><path d="m44.2527847 18.1412029.2227211.1294384c.0527878.0306702.0814629.0948658.0817604.2000217.0003281.1159134-.0340004.2219944-.097229.3215275l-.2227249-.1294346c.0632286-.0995312.0975571-.2056141.097229-.3215275-.0002975-.1051559-.0289726-.1693515-.0817566-.2000255z" fill="#b2b0af"/></g><g><path d="m44.5834618 17.697176.2227211.1294403c-.053894-.0313282-.1192322-.0457764-.196003-.0433578l-.2227249-.1294346c.0767708-.0024167.1421089.0120296.1960068.0433521z" fill="#b2b0af"/></g><g><path d="m44.1948586 17.9334641-.2227249-.1294346c.1585312-.0915279.2969704-.1416016.4153214-.1502056l.2227249.1294346c-.1183473.008604-.2567903.0586776-.4153214.1502056z" fill="#b2b0af"/></g><g><path d="m44.8789673 17.8868332c.0637245.0759926.0958023.190176.0962372.342535.0004311.1523571-.030899.303133-.0939865.4523563-.0630875.14921-.1522026.2869244-.2673187.4130955-.1180115.1278458-.2562828.2375317-.414814.3290596l-.3602943.2080154.0016174.5696735-.4150429.239624-.0058403-2.0600891.7753334-.4476395c.1585312-.0915279.2969742-.1416016.4153214-.1502056.115467-.0036372.2050704.0308782.2687873.1035749zm-.4189301.9053574c.0632286-.0995331.0975571-.2056141.097229-.3215275-.0003281-.1159286-.0351448-.1820736-.098732-.2084064-.066494-.0246353-.1616859.0004692-.2856178.0720215l-.3372498.1947117.0020256.7153931.3372498-.1947098c.1239319-.0715524.2189598-.1562711.2850952-.2574826" fill="#fff"/></g><g><path d="m50.5273476 15.2759619-.2227249-.1294346.3804664-.2196617.2227249.1294336z" fill="#b2b0af"/></g><g><path d="m50.5290565 15.8787537-.2227249-.1294346-.0017089-.6027918.2227249.1294346z" fill="#b2b0af"/></g><g><path d="m50.4410172 14.6618299.2227249.1294356.0094833.0056963-.2227249-.1294289z" fill="#b2b0af"/></g><g><path d="m49.7798119 16.2062244-.2227249-.1294289c.0364342.0211678.0786514.0327625.1266556.0352936.0866394.0063763.1876068-.0220566.3000031-.0869484.1210747-.0699024.2276192-.1612768.3225861-.2758217l.2227249.1294374c-.0949669.1145411-.2015114.2059164-.3225861.2758188-.1123962.0648918-.2133636.0933247-.2999992.0869484-.0480043-.0025309-.0902254-.0141276-.1266595-.0352992z" fill="#b2b0af"/></g><g><path d="m49.4652557 16.6667385-.2227287-.129427c-.0506592-.0294456-.0949783-.0697269-.1324501-.1205521l.2227249.1294346c.0374718.0508252.0817948.0911046.1324539.1205445z" fill="#b2b0af"/></g><g><path d="m50.6752853 14.203167.2227249.1294365c-.0791359-.0459929-.1731987-.0623522-.2839851-.0521545-.1269913.0136032-.2711983.0669994-.4268532.156867l-.2227249-.1294346c.1556549-.0898666.2998581-.1432638.4268494-.156867.1107864-.0101977.204853.0061626.2839889.0521526z" fill="#b2b0af"/></g><g><path d="m49.3328018 16.5461941-.2227249-.1294346c-.0869064-.1090641-.1278-.2712326-.1283722-.4732656-.0005798-.2053518.0392685-.4108171.1252632-.6230211.0831451-.2105618.2009506-.4046383.3505745-.5839128.1496353-.1759615.3195648-.3205175.5069046-.4286785l.2227249.1294346c-.1873398.108161-.3572693.2527161-.5069046.4286776-.1496239.1792746-.2674294.3733521-.3505745.5839138-.0859947.212204-.125843.4176693-.1252632.6230202.0005722.2020338.0414658.3642023.1283722.4732664z" fill="#b2b0af"/></g><g><path d="m50.1871719 14.4373159c.1556549-.0898676.2998619-.1432638.4268532-.156867.1298714-.0119553.2367668.0125875.3235703.078577l-.26437.4379358c-.1301537-.0807705-.2831306-.0687513-.4647255.0360918-.1152878.0665627-.2160988.1513004-.3052979.2558784-.0891914.1078911-.1581535.2240076-.2068672.3549767-.0487213.127655-.0743332.2585478-.073967.387722.0003586.1258564.0266266.2268028.0759125.2978668.0492859.0710697.118679.1073074.2081909.1120262.0866356.0063763.187603-.0220566.2999992-.0869484.1210747-.0699024.2276192-.1612778.3225861-.2758217l-.001709-.6027918.3804665-.2196627.0023689.8346367c-.0977669.1426964-.2100029.2705307-.3395691.3917809-.1266899.1195869-.2563477.2143497-.3860435.2892303-.1844673.1065025-.3517761.1599693-.5019264.1537704-.1472511-.0045567-.2657776-.0655041-.3498421-.1795235-.0869064-.1090641-.1278-.2712326-.1283722-.4732666-.0005798-.2053509.0392685-.4108162.1252632-.6230202.0831451-.2105618.2009506-.4046392.3505745-.5839138.1496353-.1759612.3195649-.3205163.5069046-.4286773z" fill="#fff"/></g><g><path d="m47.6219521 17.4585094-.2227325-.1294327c.0340462.0197792.0729103.0311852.1169891.0344353.0837402.0080452.1789513-.0170689.2855911-.0786362.1066513-.0615768.2016907-.1463032.2880058-.2525311.0834236-.1045723.1495094-.2190228.1982117-.3466568l.2227249.1294346c-.0486984.127634-.1147881.2420845-.1982079.3466568-.086319.1062279-.1813583.1909542-.2880096.2525291-.1066399.0615692-.2018471.0866814-.2855911.0786381-.044075-.00325-.082943-.0146559-.1169815-.0344371z" fill="#b2b0af"/></g><g><path d="m48.1971359 15.9171133.2227249.1294355c.0341415.0198402.0637932.0483074.0889473.0862827.0492935.0710735.0755501.1686974.0759163.2978725.0003586.125864-.0252533.2567539-.0739822.3844185l-.2227249-.1294346c.0487289-.1276646.0743408-.2585545.0739822-.3844166-.0003662-.1291752-.0266266-.2268009-.0759163-.2978745-.0251541-.0379751-.0548057-.0664423-.0889473-.0862835z" fill="#b2b0af"/></g><g><path d="m47.3026047 17.9118652-.2227325-.1294308c-.0502892-.029232-.0943108-.0685215-.1315575-.1175842-.0869255-.1123734-.1278038-.2712345-.1283798-.4732685-.0005722-.2020359.0392761-.4075031.1252785-.6197014.0831375-.210556.2009468-.404644.3476715-.5822392.1496353-.1792889.3166809-.3221741.5040207-.4303341.1873665-.1081753.35466-.1583223.5019417-.1504564.0842819.0034819.1577034.023694.2212715.0606375l.2227249.1294346c-.0635681-.0369444-.1369896-.0571566-.2212715-.0606375-.1472778-.0078669-.3145752.0422802-.5019417.1504564-.187336.10816-.3543816.2510443-.5040169.4303341-.1467285.1775932-.2645378.3716812-.3476715.5822392-.0860062.2121983-.1258545.4176655-.1252785.6196995.0005722.2020359.0414505.3608952.128376.4732685.0372467.0490627.0812721.0883541.1315651.1175823z" fill="#b2b0af"/></g><g><path d="m48.8742867 15.716156c.086937.1123505.1278038.2712183.128376.4732533.0005722.202034-.0392609.4074955-.1252785.6197147-.0860023.2088795-.2009468.4046307-.3505554.583889-.1467514.1776237-.3137932.3171902-.5011597.4253654-.1873398.10816-.3546371.1616268-.5047989.1554241-.1472511-.0078659-.2657852-.0688171-.3498306-.1795197-.0869255-.1123734-.1278038-.2712326-.128376-.4732685-.000576-.202034.0392723-.4075012.1252785-.6196995.0831337-.2105579.200943-.4046459.3476715-.5822392.1496353-.1792898.3166809-.3221741.5040169-.4303341.1873665-.1081762.3546638-.1583233.5019417-.1504564.1501311.0062019.2658004.0654899.3527145.1778709zm-.3635445 1.0989666c.0487289-.1276646.0743408-.2585545.0739822-.3844185-.0003662-.1291752-.0266228-.226799-.0759163-.2978725-.0492744-.0743866-.1157913-.1122932-.1995316-.1203365-.0866394-.0063744-.181839.0220528-.2884903.0836277-.1066399.0615673-.2016869.1429825-.2851105.2475395-.0863152.1062279-.1523895.220686-.2010956.3516407-.0487289.1276646-.0743484.2552414-.0739822.3844166.0003586.125864.0266266.2268009.0759163.2978745.0492783.0710659.1157837.1089649.2024193.1153526.083744.0080433.1789513-.0170689.2855911-.0786381.1066513-.0615749.2016907-.1463013.2880096-.2525291.0834199-.1045724.1495096-.2190228.198208-.3466569" fill="#fff"/></g><g><path d="m46.4172363 18.7138348-.2227249-.1294327-.3475189-.3766022.2227287.1294327z" fill="#b2b0af"/></g><g><path d="m46.0254059 17.9846401-.2227287-.1294327c.1239586-.0715675.2189751-.1596127.2822037-.2591457l.2227287.1294346c-.0632286.0995312-.1582489.1875763-.2822037.2591438z" fill="#b2b0af"/></g><g><path d="m46.1040878 17.0758553.2227211.1294327c.0524178.0304604.0777473.0955124.0780411.1986732.0003281.1159115-.0311317.2203388-.0972404.3215351l-.2227287-.1294346c.0661125-.1011963.0975723-.2056217.0972443-.3215351-.0002938-.1031609-.0256234-.1682129-.0780374-.1986713z" fill="#b2b0af"/></g><g><path d="m45.6852837 18.1810074-.222725-.1294327.3401185-.1963673.2227287.1294327z" fill="#b2b0af"/></g><g><path d="m46.4346695 16.6293583.2227211.1294403c-.0542679-.0315456-.1205215-.0457897-.1996269-.042244-.1154556.0069332-.2538948.0570068-.412426.1485348l-.2227249-.1294346c.1585312-.0915279.2969704-.1416016.412426-.1485329.0791053-.0035476.145359.0106965.1996307.0422364z" fill="#b2b0af"/></g><g><path d="m45.2671089 17.3144016-.2227249-.1294346.7782288-.4493122.2227249.1294346z" fill="#b2b0af"/></g><g><path d="m45.2729492 19.3744907-.2227249-.1294345-.0058403-2.0600892.2227249.1294346z" fill="#b2b0af"/></g><g><path d="m46.4586029 18.0264626.4025078.4311008-.4438744.2562714-.3475151-.3766022-.0201759.0116482-.3631897.2096882.0016327.5762978-.4150391.239624-.0058403-2.0600891.7782288-.4493122c.1585312-.0915279.2969704-.1416016.412426-.1485348.1183586-.0053062.2079506.0292168.2716789.1019039.0637283.0759945.0958061.190176.0962372.342535.0004425.1556549-.0308952.303133-.0939827.4523582-.065979.1475601-.1551094.2852669-.2730942.4131108zm-.1509933-.3009663c.0661087-.1011963.0975685-.2056236.0972404-.3215351-.0003281-.1159286-.0322762-.1837311-.0987434-.2083988-.0635872-.0263157-.158783-.0012093-.2827415.0703583l-.3401184.1963673.002037.7187195.3401222-.1963673c.1239548-.0715676.2189751-.1596127.2822037-.2591439" fill="#fff"/></g><g><path d="m56.7706451 12.7363005-.2227249-.1294337-.0064048-1.2370319.2227249.1294336z" fill="#b2b0af"/></g><g><path d="m56.1515999 12.3107834-.2227287-.1294336.6564483-1.6595383.2227249.1294336z" fill="#b2b0af"/></g><g><path d="m56.8080444 10.6512451-.2227249-.1294336.3429909-.1980286.2227287.1294346z" fill="#b2b0af"/></g><g><path d="m56.0523109 12.9320745-.2227249-.1294336-.5274048-.6907396.222725.1294336z" fill="#b2b0af"/></g><g><path d="m55.1333961 11.618103-.2227249-.1294346.3429947-.1980276.2227249.1294346z" fill="#b2b0af"/></g><g><path d="m55.1392365 13.678195-.222725-.1294346-.0058403-2.060092.2227249.1294346z" fill="#b2b0af"/></g><g><path d="m57.1510391 10.4532175.0087128 2.0584326-.3891068.2246504-.0064048-1.237032-.5245705 1.3246346-.1873589.1081714-.5274047-.6907396.003437 1.2122088-.3891067.2246513-.0058404-2.060092.3429947-.1980276.6752091.890708.6564445-1.6595383z" fill="#fff"/></g><g><path d="m54.5166397 14.0376425-.2227249-.1294337-.15979-.3522834.2227249.1294346z" fill="#b2b0af"/></g><g><path d="m53.6554146 13.7287264-.2227249-.1294336.5707168-.3295031.2227249.1294336z" fill="#b2b0af"/></g><g><path d="m54.2261314 13.3992233-.2227249-.1294336-.2876091-.6235094.2227288.1294336z" fill="#b2b0af"/></g><g><path d="m53.7354507 12.4252005-.2227249-.1294337.4092751-.2362966.2227287.1294346z" fill="#b2b0af"/></g><g><path d="m52.9428749 14.9462576-.2227287-.1294346.7925796-2.5210562.2227249.1294337z" fill="#b2b0af"/></g><g><path d="m54.1447296 12.1889048.8071404 1.5974588-.4352303.2512789-.15979-.3522825-.833004.4809351-.1572723.5353384-.4236984.2446241.7925758-2.5210571zm-.489315 1.5398216.5707169-.3295031-.2876053-.6235094z" fill="#fff"/></g><g><path d="m52.4355774 15.2391453-.2227249-.1294346-.3475189-.3766022.2227287.1294337z" fill="#b2b0af"/></g><g><path d="m52.0437584 14.5099421-.2227249-.1294336c.126812-.0732164.2189598-.159605.2850838-.2608089l.2227249.1294336c-.066124.1012038-.1582718.1875934-.2850838.2608089z" fill="#b2b0af"/></g><g><path d="m52.1216125 13.5981541.2227211.1294403c.052784.0306673.0814552.0948601.0817528.2000036.0003281.1159134-.0340004.2219954-.0972443.3215351l-.2227249-.1294336c.0632439-.0995398.0975723-.2056227.0972443-.3215351-.0003013-.1051436-.0289688-.1693373-.081749-.2000103z" fill="#b2b0af"/></g><g><path d="m51.7065201 14.7046461-.2227249-.1294346.3372383-.1947031.2227249.1294337z" fill="#b2b0af"/></g><g><path d="m52.4577942 13.1548157.2227211.1294365c-.0553818-.0321903-.1231575-.0465269-.2015152-.0440588l-.2227249-.1294346c.0783577-.0024672.1461334.0118694.201519.0440569z" fill="#b2b0af"/></g><g><path d="m52.0636787 13.390399-.2227249-.1294346c.1585312-.091527.2969704-.1416006.4153214-.1502056l.2227249.1294346c-.118351.008604-.2567902.0586776-.4153214.1502056z" fill="#b2b0af"/></g><g><path d="m51.2941589 15.8981438-.2227249-.1294346-.0058403-2.0600891.2227249.1294336z" fill="#b2b0af"/></g><g><path d="m52.4798126 14.5501156.4025345.4310856-.4467697.2579441-.3475151-.3766031-.0201759.0116482-.3602943.2080154.0016327.5762987-.4150658.2396393-.0058403-2.0600901.7753601-.4476547c.1585312-.0915279.2969704-.1416016.4153214-.1502056.1154633-.0036364.2079506.0292149.2716789.1019039.0637283.0759926.0958061.190176.0962372.3425341.0004425.155654-.0337906.3048048-.0968781.4540291-.063099.1458978-.1551095.2852678-.2702256.4114551zm-.1509704-.3009825c.0632439-.0995398.0975723-.2056217.0972443-.3215351-.0003281-.1159277-.0351448-.1820745-.0987434-.2083979-.0664825-.0246439-.1588097-.001195-.2856216.0720215l-.3372383.1947031.002037.7187214.3372383-.1947041c.1268119-.0732154.2189597-.159605.2850837-.2608089" fill="#fff"/></g><g><path d="m51.2883186 13.8380537-.2227249-.1294336.7753601-.4476557.2227249.1294346z" fill="#b2b0af"/></g><g><path d="m59.2177582 11.3234596-.2227249-.1294336-.0064049-1.2370319.2227249.1294336z" fill="#b2b0af"/></g><g><path d="m58.5987091 10.8979425-.2227249-.1294336.6564445-1.6595383.222725.1294337z" fill="#b2b0af"/></g><g><path d="m59.2551537 9.2384043-.222725-.1294337.3401223-.1963691.2227249.1294336z" fill="#b2b0af"/></g><g><path d="m58.499424 11.5192337-.2227249-.1294336-.5274048-.6907397.2227249.1294337z" fill="#b2b0af"/></g><g><path d="m57.5805092 10.2052622-.2227249-.1294346.3429947-.1980276.2227249.1294346z" fill="#b2b0af"/></g><g><path d="m57.5863495 12.2653542-.2227249-.1294346-.0058403-2.060092.2227249.1294346z" fill="#b2b0af"/></g><g><path d="m59.5952759 9.0420351.011589 2.0567741-.3891067.2246504-.0064049-1.2370319-.5245705 1.3246345-.1873588.1081715-.5274048-.6907396.003437 1.2122087-.3891067.2246514-.0058403-2.060092.3429947-.1980276.6752052.8907079.6564446-1.6595382z" fill="#fff"/></g><g><path d="m60.0334625 10.8525133-.2227249-.1294346-.0058403-2.0600919.2227249.1294345z" fill="#b2b0af"/></g><g><path d="m60.0276222 8.7924213-.2227249-.1294345.4121704-.2379675.2227249.1294345z" fill="#b2b0af"/></g><g><path d="m60.4397926 8.5544538.0058403 2.0600911-.4121704.2379684-.0058403-2.060092z" fill="#fff"/></g><g><path d="m62.1035728 8.8445549-.2227249-.1294346-.00354-1.248641.2227249.1294341z" fill="#b2b0af"/></g><g><path d="m62.1000328 7.5959134-.2227249-.1294341.4121704-.2379675.2227249.1294341z" fill="#b2b0af"/></g><g><path d="m62.1750526 9.616066-.2227287-.1294346-.8970871-.7360678.2227249.1294337z" fill="#b2b0af"/></g><g><path d="m60.8663902 8.308157-.2227249-.1294337.3429947-.1980281.2227249.1294342z" fill="#b2b0af"/></g><g><path d="m60.8722305 10.3682489-.2227249-.1294336-.0058403-2.060092.2227249.1294337z" fill="#b2b0af"/></g><g><path d="m62.5122032 7.3579459.0058441 2.0600915-.3429947.1980286-.8970909-.7360687.0035477 1.251954-.4092789.2362976-.0058403-2.0600919.3429947-.1980276.8941879.7344255-.00354-1.2486415z" fill="#fff"/></g><g><path d="m64.1510391 8.0140972-.2227249-.1294341-.001709-.6027913.2227249.1294341z" fill="#b2b0af"/></g><g><path d="m64.1493301 7.4113059-.2227249-.1294341.3804703-.2196627.2227249.1294341z" fill="#b2b0af"/></g><g><path d="m64.0579834 6.7939658.2227249.1294365c.0048752.00283.0097122.0057988.0145035.0089035l-.2227325-.1294327c-.0047913-.0031061-.0096207-.0060749-.0144959-.0089073z" fill="#b2b0af"/></g><g><path d="m63.4060669 8.3410587-.2227287-.1294317c.0357094.0207472.0766449.0324392.1223907.0358057.0895081.0047188.187603-.0220556.3028908-.0886183.1181831-.0682325.2247467-.1596179.3196945-.2741513l.2227249.1294408c-.0949478.1145267-.2015114.2059126-.3196907.2741451-.1152916.0665617-.2133865.0933361-.3028946.0886183-.0457458-.0033674-.0866813-.0150595-.1223869-.0358086z" fill="#b2b0af"/></g><g><path d="m64.305809 6.34131.2227173.1294374c-.0823898-.047884-.1782837-.0656414-.28965-.0566139l-.2227249-.1294341c.1113663-.0090274.2072602.00873.2896576.0566106z" fill="#b2b0af"/></g><g><path d="m63.8091545 6.5726595-.2227249-.1294336c.1585274-.091526.2998619-.1432643.4297218-.1585264l.2227249.1294341c-.1298599.0152621-.2711944.0669999-.4297218.1585259z" fill="#b2b0af"/></g><g><path d="m63.0872307 8.8020763-.2227287-.1294317c-.0506554-.0294409-.0949707-.0697193-.1324425-.1205406-.084034-.1107235-.1278-.2712336-.1283722-.4732666-.0005798-.2053514.042141-.4124751.1252632-.6230202.0831451-.2105618.2009506-.4046392.3505745-.5839133.1496353-.1759615.3195648-.3205175.5069046-.428678l.2227249.1294336c-.1873398.108161-.3572693.2527165-.5069046.428678-.1496239.1792746-.2674294.3733516-.3505707.5839138-.0831261.2105446-.1258469.4176688-.1252632.6230206.0005722.202033.0443344.3625422.1283684.4732656.0374718.0508224.0817871.0910999.1324463.1205388z" fill="#b2b0af"/></g><g><path d="m63.8091545 6.5726595c.1585274-.091526.2998619-.1432638.4297218-.1585259.1270065-.0102954.2338943.0142465.3235779.078577l-.2672424.4395952c-.1272659-.0824409-.2831345-.0687513-.4647293.0360918-.1123962.0648918-.216095.1513-.3024025.2542076-.0892105.1079025-.1581726.2240195-.2068672.3549767-.0516167.1293259-.0743332.2585483-.073967.387723.0003548.1258559.0237312.2284722.0759125.2978663.0492668.0710812.11866.1073189.2052956.1136961.0895081.0047178.187603-.0220566.3028946-.0886183.1181793-.0682325.2247429-.1596184.3196907-.2741518l-.001709-.6027913.3804703-.2196627.0023651.8346362c-.0977631.1426964-.2100067.2705307-.3366928.3901224-.1295624.1212454-.2563324.2143393-.3860474.2892303-.1873398.10816-.3546486.1616278-.5047798.1554174-.1472664-.0045452-.2657967-.0654926-.3498611-.179512-.084034-.1107235-.1277962-.2712326-.1283684-.4732656-.0005836-.2053518.0421371-.4124761.1252632-.6230206.0831413-.2105622.2009468-.4046392.3505707-.5839138.1496352-.1759615.3195647-.320517.5069045-.428678z" fill="#fff"/></g></g></g></g></g></g></svg>