<svg id="Icons" enable-background="new 0 0 64 64" height="64" viewBox="0 0 64 64" width="64" xmlns="http://www.w3.org/2000/svg" xmlns:xlink="http://www.w3.org/1999/xlink"><linearGradient id="SVGID_1_" gradientUnits="userSpaceOnUse" x1="36.644" x2="10.492" y1="38.491" y2="23.393"><stop offset="0" stop-color="#0f272d" stop-opacity="0"/><stop offset="1" stop-color="#0f272d" stop-opacity=".4"/></linearGradient><linearGradient id="SVGID_2_" gradientUnits="userSpaceOnUse" x1="49" x2="34" y1="39" y2="39"><stop offset="0" stop-color="#0f272d" stop-opacity="0"/><stop offset="1" stop-color="#0f272d" stop-opacity=".6"/></linearGradient><g id="keyword_search"><g><path d="m36 24c0-6.628-5.372-12-12-12s-12 5.372-12 12c0 4.439 2.417 8.307 6 10.382v19.618l5 5 7-9-3-3v-6l3-3v-3.618c3.583-2.075 6-5.943 6-10.382zm-12-9c2.209 0 4 1.793 4 4s-1.791 4-4 4-4-1.793-4-4 1.791-4 4-4z" fill="#efc75e"/><path d="m24 12c-6.628 0-12 5.372-12 12 0 4.841 2.872 9.002 7 10.898v-1.112c-3.556-1.825-6-5.521-6-9.786 0-6.065 4.935-11 11-11s11 4.935 11 11c0 3.852-1.994 7.242-5 9.208v1.174c3.583-2.075 6-5.942 6-10.382 0-6.628-5.372-12-12-12z" fill="#d7b354"/><path d="m29 19c0-2.757-2.243-5-5-5s-5 2.243-5 5 2.243 5 5 5 5-2.243 5-5zm-9 0c0-2.207 1.791-4 4-4s4 1.793 4 4-1.791 4-4 4-4-1.793-4-4z" fill="#f7dda4"/><path d="m24 23c-2.209 0-4-1.793-4-4s1.791-4 4-4v-1c-2.757 0-5 2.243-5 5s2.243 5 5 5z" fill="#d7b354"/><path d="m24 13v-1c-6.628 0-12 5.372-12 12 0 4.438 2.417 8.299 6 10.373v19.627l1 1v-21.214c-3.556-1.825-6-5.521-6-9.786 0-6.065 4.935-11 11-11z" fill="#f7dda4"/><path d="m23 33.5c-.829 0-1.5.672-1.5 1.5v22.5l1.5 1.5 1.5-1.929v-22.071c0-.828-.671-1.5-1.5-1.5z" fill="#cca54e"/></g><path d="m36 24c0-6.628-5.372-12-12-12s-12 5.372-12 12c0 4.439 2.417 8.307 6 10.382v10.618l8.938 8.938 3.062-3.938-3-3v-6l3-3v-3.618c3.583-2.075 6-5.943 6-10.382zm-12-1c-2.209 0-4-1.793-4-4s1.791-4 4-4 4 1.793 4 4-1.791 4-4 4z" fill="url(#SVGID_1_)"/><g><path d="m40.672 32.893h5.657v21.213h-5.657z" fill="#4e6b78" transform="matrix(-.707 .707 -.707 -.707 105.018 43.5)"/><path d="m52 58c1.166 1.166 2.834 1.166 4 0l2-2c1.166-1.166 1.166-2.834 0-4l-14-14c-1.166-1.166-2.834-1.166-4 0l-2 2c-1.166 1.166-1.166 2.834 0 4z" fill="#cb4e44"/><path d="m43.757 38.101h8.485v19.799h-8.485z" fill="#e2574c" transform="matrix(-.707 .707 -.707 -.707 115.882 48)"/><path d="m44 38c-.791-.791-1.811-1.032-2.75-.75l-2.25-2.25h-2l-3 3 3.25 3.25c-.174.578-.124 1.183.105 1.75h11.645z" fill="url(#SVGID_2_)"/><circle cx="24" cy="24" fill="#c8ecf8" opacity=".3" r="15"/><path d="m24 5c-10.495 0-19 8.505-19 19s8.505 19 19 19 19-8.505 19-19-8.505-19-19-19zm0 34c-8.284 0-15-6.716-15-15s6.716-15 15-15 15 6.716 15 15-6.716 15-15 15z" fill="#4e6b78"/><path d="m39 24c0 8.284-6.716 15-15 15s-15-6.716-15-15h-4c0 10.495 8.505 19 19 19s19-8.505 19-19z" fill="#324d5b"/><path d="m24 7c-9.39 0-17 7.61-17 17s7.61 17 17 17 17-7.61 17-17-7.61-17-17-17zm0 32c-8.284 0-15-6.716-15-15s6.716-15 15-15 15 6.716 15 15-6.716 15-15 15z" fill="#4e6b78"/><path d="m24 7c-9.39 0-17 7.61-17 17h2c0-8.284 6.716-15 15-15s15 6.716 15 15h2c0-9.39-7.61-17-17-17z" fill="#324d5b"/><path d="m32.847 13.153c1.969 2.411 3.153 5.491 3.153 8.847 0 7.731-6.269 14-14 14-3.356 0-6.435-1.184-8.847-3.153 2.568 3.143 6.472 5.153 10.847 5.153 7.731 0 14-6.269 14-14 0-4.375-2.01-8.279-5.153-10.847z" fill="#91d8f0" opacity=".3"/><circle cx="17" cy="17" fill="#fff" opacity=".5" r="4"/></g></g></svg>