<svg id="Layer_1" enable-background="new 0 0 68 68" viewBox="0 0 68 68" xmlns="http://www.w3.org/2000/svg"><g><g><g><path d="m54.7650909 7.5595703v52.8701172c0 3.0800781-2.4899902 5.5703125-5.5598144 5.5703125h-35.7001944c-3.0800781 0-5.5698237-2.4902344-5.5698237-5.5703125v-52.8701172c0-3.0698242 2.4897456-5.5595703 5.5698237-5.5595703h35.7001953c3.0698233 0 5.5598135 2.4897461 5.5598135 5.5595703z" fill="#51504f"/></g><g><path d="m51.7626877 7.5563831v49.8696289c0 1.4204102-1.1499023 2.5703125-2.5600586 2.5703125h-35.6999521c-1.420166 0-2.5700684-1.1499023-2.5700684-2.5703125v-49.8696289c0-1.4101563 1.1499023-2.5600586 2.5700684-2.5600586h35.6999512c1.4101571 0 2.5600595 1.1499024 2.5600595 2.5600586z" fill="#fff"/></g><g><path d="m26.2226486 63.0827484c1.048584-.4165039 2.097168-.6240234 3.145752-.7832031 1.048584-.1469727 2.0974121-.215332 3.1459961-.2163086 1.048584-.0014648 2.097168.0668945 3.145752.2133789 1.048584.1582031 2.097168.3671875 3.145752.7861328-1.048584.4189453-2.097168.6279297-3.145752.7866211-1.048584.1464844-2.097168.2148438-3.145752.2133789s-2.0974121-.0693359-3.1459961-.2163086c-1.048584-.1596679-2.097168-.3666992-3.145752-.7836914z" fill="#3a3a3a"/></g><g><g><g><path d="m29.1295795 8.5137472c3.1931095-.4018345 6.3862171-.4921513 9.5796528-.5093727 1.5965538.0091848 3.1931076.0306158 4.7896614.1117477 1.5965538.0746269 3.1931076.1856089 4.7896614.397625-1.5965538.2120152-3.1931076.322998-4.7896614.397625-1.5965538.0807495-3.1931076.1025629-4.7896614.1113653-3.1934356-.0172214-6.3865432-.1071558-9.5796528-.5089903z" fill="#d1dafe"/></g><g><path d="m29.1295795 11.8803539c3.1931095-.4018345 6.3862171-.4921513 9.5796528-.5093727 1.5965538.0091848 3.1931076.0306158 4.7896614.1117477 1.5965538.0746269 3.1931076.1856098 4.7896614.397625-1.5965538.2120152-3.1931076.322998-4.7896614.397625-1.5965538.0807495-3.1931076.1025629-4.7896614.1113653-3.1934356-.0172214-6.3865432-.1071558-9.5796528-.5089903z" fill="#d1dafe"/></g><g><path d="m29.1295795 15.2469606c3.1931095-.4018345 6.3862171-.4921513 9.5796528-.5093727 1.5965538.0091848 3.1931076.0306158 4.7896614.1117487 1.5965538.074626 3.1931076.1856089 4.7896614.397624-1.5965538.2120161-3.1931076.322999-4.7896614.397625-1.5965538.0807495-3.1931076.1025639-4.7896614.1113653-3.1934356-.0172214-6.3865432-.1071558-9.5796528-.5089903z" fill="#d1dafe"/></g><g><path d="m29.1295795 19.2427254c1.9503918-.4018345 3.9011135-.4921513 5.8515072-.5089893.9755249.0088024 1.9507179.0302334 2.9259148.1113644.9751968.0746269 1.9507217.1856098 2.9259186.397625-.9751968.2120152-1.9507217.322998-2.9259186.397625-.9751968.0807495-1.9503899.1025639-2.9259148.1113663-1.9503936-.0168402-3.9011154-.1071569-5.8515072-.5089914z" fill="#d1dafe"/></g></g><g><path d="m26.8488541 10.0246725v7.7137194c0 1.1146164-.9071064 2.0213737-2.0283489 2.0213737h-8.3852444c-1.1214151 0-2.0285215-.9067574-2.0285215-2.0213737v-7.7137194c0-1.1212416.9071064-2.028348 2.0285215-2.028348h8.3852444c1.1212425 0 2.0283489.9071064 2.0283489 2.028348z" fill="#d1dafe"/></g><g><g><g><g><path d="m22.0192661 12.8063288c.6117668-.0023985 1.0846024-.5377474 1.0114098-1.1451235l-.0428905-.5317011c-.1774063-1.1779385-1.1918755-2.047514-2.3833199-2.0428429-1.1912441.0046701-2.198864.8821735-2.3672256 2.0614681l-.0386887.532156c-.0683422.6078854.4086609 1.1394205 1.0203705 1.137022z" fill="#51504f"/></g><g><path d="m19.6345444 14.8161554.9961166.9438076.9886856-.9515895-.0045452-1.1592913-1.9848022.007782z" fill="#fea9ad"/></g><g><path d="m22.4054775 11.8413506.0041866 1.0679512c.0038757.9886713-.7944584 1.7932901-1.7831306 1.7971659h-.0000019c-.9886723.0038767-1.7932911-.7944574-1.7971668-1.7831287l-.0041885-1.0679512c-.0001411-.0362635.0208302-.0682888.0525074-.0859442.3405724-.1898289 2.1789665-.5179949 2.8735542-.8578196.0585632-.0286512.1274242.008275.1365147.0728331.0289078.2053022.1276073.5870094.4645462.7713633.0318126.0174073.0530357.0492667.0531787.0855302z" fill="#ffcecf"/></g><g><path d="m24.6998177 16.9645958c-.9885178.9887333-2.3238964 1.6188354-3.8082294 1.6982327-.1984482.0079556-.3969231.0087337-.6027851.0023632-1.4409428-.0679283-2.7516747-.658226-3.7330284-1.595089l.0145569-.0733929c.1445637-.7288857.6347675-1.3418379 1.3140488-1.6430864l1.7497482-.5377207.9960976.9443436.9886608-.9521255 1.7541065.5240688c.6815147.295866 1.1764679.9048119 1.3268242 1.6324043v.0000019z" fill="#4269c4"/></g><g><path d="m22.9040813 12.4070578c.000536.1366053-.0547638.2612762-.1438141.3517475-.0897713.0897589-.2132893.1460352-.3506184.146574l-.0038891-.9920435c.2739392-.0010738.4972478.2197781.4983216.493722z" fill="#fea9ad"/></g><g><path d="m18.3310223 12.4249878c.000536.1366053.0568104.2608376.1465702.3506088.0904713.0890522.214426.1443586.351757.1438198l-.003891-.9920435c-.2739391.0010748-.4955101.22367-.4944362.4976149z" fill="#fea9ad"/></g></g></g></g></g><g><g><g><path d="m29.1295795 22.7503052c3.1931095-.4018345 6.3862171-.4921513 9.5796528-.5093727 1.5965538.0091858 3.1931076.0306168 4.7896614.1117477 1.5965538.0746269 3.1931076.1856098 4.7896614.397625-1.5965538.2120152-3.1931076.322998-4.7896614.397625-1.5965538.0807495-3.1931076.1025639-4.7896614.1113663-3.1934356-.0172215-6.3865432-.1071568-9.5796528-.5089913z" fill="#d1dafe"/></g><g><path d="m29.1295795 26.1169128c3.1931095-.4018345 6.3862171-.4921513 9.5796528-.5093727 1.5965538.0091839 3.1931076.0306149 4.7896614.1117477 1.5965538.0746269 3.1931076.1856098 4.7896614.397625-1.5965538.2120152-3.1931076.322998-4.7896614.397625-1.5965538.0807495-3.1931076.1025639-4.7896614.1113644-3.1934356-.0172215-6.3865432-.1071549-9.5796528-.5089894z" fill="#d1dafe"/></g><g><path d="m29.1295795 29.4835205c3.1931095-.4018345 6.3862171-.4921532 9.5796528-.5093746 1.5965538.0091858 3.1931076.0306168 4.7896614.1117496 1.5965538.074625 3.1931076.1856079 4.7896614.397625-1.5965538.2120152-3.1931076.322998-4.7896614.3976231-1.5965538.0807495-3.1931076.1025639-4.7896614.1113663-3.1934356-.0172215-6.3865432-.1071568-9.5796528-.5089894z" fill="#d1dafe"/></g><g><path d="m29.1295795 33.4792862c1.9503918-.4018364 3.9011135-.4921532 5.8515072-.5089912.9755249.0088005 1.9507179.0302315 2.9259148.1113663.9751968.0746231 1.9507217.1856079 2.9259186.397625-.9751968.2120132-1.9507217.322998-2.9259186.3976212-.9751968.0807495-1.9503899.1025658-2.9259148.1113663-1.9503936-.0168383-3.9011154-.107155-5.8515072-.5089876z" fill="#d1dafe"/></g></g><g><path d="m26.8488541 24.2612305v7.7137203c0 1.1146145-.9071064 2.0213718-2.0283489 2.0213718h-8.3852444c-1.1214151 0-2.0285215-.9067574-2.0285215-2.0213718v-7.7137203c0-1.1212406.9071064-2.028347 2.0285215-2.028347h8.3852444c1.1212425 0 2.0283489.9071064 2.0283489 2.028347z" fill="#d1dafe"/></g><g><g><g><g><path d="m22.0192661 27.0428867c.6117668-.0023975 1.0846024-.5377464 1.0114098-1.1451225l-.0428905-.531702c-.1774063-1.1779385-1.1918755-2.047514-2.3833199-2.0428429-1.1912441.0046711-2.198864.8821735-2.3672256 2.0614681l-.0386887.532156c-.0683422.6078873.4086609 1.1394215 1.0203705 1.1370239z" fill="#51504f"/></g><g><path d="m19.6345444 29.0527134.9961166.9438076.9886856-.9515877-.0045452-1.1592922-1.9848022.007782z" fill="#fea9ad"/></g><g><path d="m22.4054775 26.0779095.0041866 1.0679512c.0038757.9886703-.7944584 1.7932892-1.7831306 1.7971668h-.0000019c-.9886723.0038757-1.7932911-.7944584-1.7971668-1.7831306l-.0041885-1.0679493c-.0001411-.0362644.0208302-.0682888.0525074-.0859451.3405724-.1898289 2.1789665-.5179958 2.8735542-.8578205.0585632-.0286503.1274242.008276.1365147.072834.0289078.2053032.1276073.5870094.4645462.7713642.0318126.0174064.0530357.0492649.0531787.0855293z" fill="#ffcecf"/></g><g><path d="m24.6998177 31.2011528c-.9885178.9887352-2.3238964 1.6188393-3.8082294 1.6982346-.1984482.0079575-.3969231.0087357-.6027851.0023613-1.4409428-.0679245-2.7516747-.6582222-3.7330284-1.5950871l.0145569-.0733929c.1445637-.7288857.6347675-1.3418388 1.3140488-1.6430874l1.7497482-.5377197.9960976.9443436.9886608-.9521255 1.7541065.5240688c.6815146.295866 1.1764678.9048118 1.3268241 1.6324043z" fill="#fbad3e"/></g><g><path d="m22.9040813 26.6436176c.000536.1366043-.0547638.2612743-.1438141.3517475-.0897713.0897579-.2132893.1460342-.3506184.1465721l-.0038891-.9920425c.2739392-.0010738.4972478.2197781.4983216.4937229z" fill="#fea9ad"/></g><g><path d="m18.3310223 26.6615467c.000536.1366043.0568104.2608376.1465702.3506088.0904713.0890522.214426.1443577.351757.1438198l-.003891-.9920425c-.2739391.0010738-.4955101.2236691-.4944362.4976139z" fill="#fea9ad"/></g></g></g></g></g><g><g><g><path d="m29.1295795 36.986866c3.1931095-.4018364 6.3862171-.4921532 9.5796528-.5093727 1.5965538.009182 3.1931076.0306129 4.7896614.1117477 1.5965538.0746269 3.1931076.1856079 4.7896614.397625-1.5965538.2120132-3.1931076.322998-4.7896614.397625-1.5965538.0807495-3.1931076.102562-4.7896614.1113625-3.1934356-.0172196-6.3865432-.1071549-9.5796528-.5089875z" fill="#d1dafe"/></g><g><path d="m29.1295795 40.3534698c3.1931095-.4018326 6.3862171-.4921494 9.5796528-.5093727 1.5965538.0091858 3.1931076.0306168 4.7896614.1117477 1.5965538.0746269 3.1931076.1856117 4.7896614.397625-1.5965538.2120171-3.1931076.322998-4.7896614.397625-1.5965538.0807495-3.1931076.1025658-4.7896614.1113663-3.1934356-.0172196-6.3865432-.1071549-9.5796528-.5089913z" fill="#d1dafe"/></g><g><path d="m29.1295795 43.7200775c3.1931095-.4018326 6.3862171-.4921494 9.5796528-.5093727 1.5965538.0091858 3.1931076.0306168 4.7896614.1117477 1.5965538.0746269 3.1931076.1856117 4.7896614.397625-1.5965538.2120171-3.1931076.322998-4.7896614.397625-1.5965538.0807495-3.1931076.1025658-4.7896614.1113663-3.1934356-.0172234-6.3865432-.1071549-9.5796528-.5089913z" fill="#d1dafe"/></g><g><path d="m29.1295795 47.7158432c1.9503918-.4018326 3.9011135-.4921532 5.8515072-.5089912.9755249.0088043 1.9507179.0302353 2.9259148.1113663.9751968.0746269 1.9507217.1856079 2.9259186.397625-.9751968.2120171-1.9507217.322998-2.9259186.397625-.9751968.0807495-1.9503899.102562-2.9259148.1113663-1.9503936-.0168382-3.9011154-.1071588-5.8515072-.5089914z" fill="#d1dafe"/></g></g><g><path d="m26.8488541 38.4977913v7.7137184c0 1.1146164-.9071064 2.0213737-2.0283489 2.0213737h-8.3852444c-1.1214151 0-2.0285215-.9067574-2.0285215-2.0213737v-7.7137184c0-1.1212425.9071064-2.0283508 2.0285215-2.0283508h8.3852444c1.1212425 0 2.0283489.9071083 2.0283489 2.0283508z" fill="#d1dafe"/></g><g><g><g><g><path d="m22.0192661 41.2794456c.6117668-.0023994 1.0846024-.5377464 1.0114098-1.1451225l-.0428905-.5317001c-.1774063-1.1779404-1.1918755-2.0475159-2.3833199-2.0428429-1.1912441.0046692-2.198864.8821716-2.3672256 2.0614662l-.0386887.5321579c-.0683422.6078835.4086609 1.1394196 1.0203705 1.1370201z" fill="#51504f"/></g><g><path d="m19.6345444 43.2892723.9961166.9438095.9886856-.9515915-.0045452-1.1592903-1.9848022.007782z" fill="#fea9ad"/></g><g><path d="m22.4054775 40.3144684.0041866 1.0679512c.0038757.9886703-.7944584 1.7932892-1.7831306 1.7971649h-.0000019c-.9886723.0038757-1.7932911-.7944565-1.7971668-1.7831268l-.0041885-1.0679512c-.0001411-.0362663.0208302-.0682907.0525074-.0859451.3405724-.1898308 2.1789665-.5179939 2.8735542-.8578186.0585632-.0286522.1274242.0082741.1365147.0728302.0289078.2053032.1276073.5870094.4645462.7713661.0318126.0174064.0530357.0492668.0531787.0855293z" fill="#ffcecf"/></g><g><path d="m24.6998177 45.4377136c-.9885178.9887314-2.3238964 1.6188354-3.8082294 1.6982307-.1984482.0079575-.3969231.0087357-.6027851.0023651-1.4409428-.0679283-2.7516747-.658226-3.7330284-1.595089l.0145569-.0733948c.1445637-.7288857.6347675-1.341835 1.3140488-1.6430855l1.7497482-.5377197.9960976.9443436.9886608-.9521255 1.7541065.5240707c.6815147.2958641 1.1764679.904808 1.3268242 1.6324005v.0000039z" fill="#b53016"/></g><g><path d="m22.9040813 40.8801765c.000536.1366043-.0547638.2612762-.1438141.3517456-.0897713.0897598-.2132893.1460342-.3506184.1465759l-.0038891-.9920425c.2739392-.0010757.4972478.2197762.4983216.493721z" fill="#fea9ad"/></g><g><path d="m18.3310223 40.8981056c.000536.1366043.0568104.2608376.1465702.3506088.0904713.0890503.214426.1443596.351757.1438179l-.003891-.9920425c-.2739391.0010758-.4955101.223671-.4944362.4976158z" fill="#fea9ad"/></g></g></g></g></g><g><g><g><path d="m16.5752945 60.0307732c.4146461.0314331.7725544.3266258.8605747.7349815.2889023 1.4320946.2950363 2.8704758 0 4.3087006-.0815792.41465-.4585018.7098389-.879282.7286987-5.697093.2511826-7.7772217.2606125-13.4614325.0094299-.4520626-.0188599-.8415601-.3580551-.8979912-.8102722-.1699069-1.3880844-.1699069-2.7761688.0061338-4.1581192.0502973-.4459267.4269137-.7851295.8731492-.810276 5.696785-.37677 7.7894879-.3799134 13.498848-.0031433z" fill="#aec46e"/></g><g><path d="m16.2308807 61.2685776c.3523884.4940796.4701576 1.0729561.4815044 1.6446304-.0073605.5716705-.1242104 1.1525421-.4787445 1.6458588-.1352501-.5888481-.1395435-1.1120644-.1490517-1.6447868.0088941-.5325699.011654-1.0573159.1462918-1.6457024z" fill="#617f4d"/></g><g><path d="m14.818265 61.2296906c.3526945.4940796.4704638 1.0729599.4818115 1.6446304-.0073605.5716743-.1242104 1.1525497-.4787445 1.6458588-.135251-.5888481-.1395445-1.1120605-.1490517-1.644783.008894-.53257.0113468-1.0573197.1459847-1.6457062z" fill="#617f4d"/></g><g><path d="m13.3662367 61.2717209c.3523874.4940796.4704638 1.0729561.4818115 1.6446304-.0076675.5716705-.1245165 1.1525421-.4787455 1.6458588-.1352501-.5888481-.1395435-1.1120644-.1490517-1.6447868.0085879-.5325699.0113479-1.0573159.1459857-1.6457024z" fill="#617f4d"/></g><g><path d="m10.6583433 62.9321442c0 .3876266-.0108023.7776031-.0322104 1.1657867-.0147047.2666397-.2287846.4839783-.4948721.5065918-2.1076641.1791611-4.2191234.181572-6.2923532.0074463-.2709777-.0227585-.4844472-.2478561-.4933002-.5196457-.012553-.385376-.0189013-.7711716-.0189013-1.1528168 0-.4039993.0070801-.8101044.0211625-1.2140808.0091555-.2626457.2102909-.4834137.4710009-.5165215 2.1044402-.2672462 4.2288198-.2663155 6.3332481.0023804.2562771.0327225.4571724.2462921.4717054.5042381.0228025.4047127.0345203.8132935.0345203 1.2166215z" fill="#d1dafe"/></g><g><path d="m7.44802 61.0137939c.9044313.0125732 1.8024235.0817337 2.7071619.1947479.2511797.0377235.4520617.2511787.471077.5088005.0187082.4019165.0312824.810276.0312824 1.2121964 0 .3893433-.0125742.7788429-.0312824 1.1683388-.0125742.2637558-.2263384.4836502-.4962263.5086441-.2889023.0251541-.5778055.044014-.8731489.0628738.0187082-.1444473.0251484-.2889023.0251484-.4396439-.0000001-1.3002128-.7161237-2.4621123-1.8340121-3.2159576z" fill="#8a9bea"/></g></g></g><g><g><g><path d="m16.5752945 53.789547c.4146461.0314369.7725544.3266258.8605747.7349854.2889023 1.4320946.2950363 2.8704758 0 4.3087006-.0815792.4146461-.4585018.7098389-.879282.7286987-5.697093.2511826-7.7772217.2606125-13.4614325.0094299-.4520626-.0188599-.8415601-.3580589-.8979912-.810276-.1699069-1.3880844-.1699069-2.776165.0061338-4.1581154.0502973-.4459305.4269137-.7851295.8731492-.8102798 5.696785-.3767701 7.7894879-.3799135 13.498848-.0031434z" fill="#fbad3e"/></g><g><path d="m16.2308807 55.0273514c.3523884.4940796.4701576 1.0729599.4815044 1.6446304-.0073605.5716743-.1242104 1.1525459-.4787445 1.6458588-.1352501-.5888481-.1395435-1.1120605-.1490517-1.644783.0088941-.5325699.011654-1.0573197.1462918-1.6457062z" fill="#fa990e"/></g><g><path d="m14.818265 54.9884682c.3526945.4940796.4704638 1.0729599.4818115 1.6446304-.0073605.5716705-.1242104 1.1525459-.4787445 1.6458588-.135251-.5888481-.1395445-1.1120644-.1490517-1.6447868.008894-.5325661.0113468-1.0573159.1459847-1.6457024z" fill="#fa990e"/></g><g><path d="m13.3662367 55.0304947c.3523874.4940796.4704638 1.0729599.4818115 1.6446304-.0076675.5716743-.1245165 1.1525459-.4787455 1.6458588-.1352501-.5888481-.1395435-1.1120605-.1490517-1.644783.0085879-.5325699.0113479-1.0573197.1459857-1.6457062z" fill="#fa990e"/></g><g><path d="m10.6583433 56.6909218c0 .3876266-.0108023.7775993-.0322104 1.1657867-.0147047.2666397-.2287846.4839745-.4948721.5065918-2.1076641.1791611-4.2191234.1815758-6.2923532.0074425-.2709777-.0227585-.4844472-.2478561-.4933002-.5196457-.012553-.385376-.0189013-.7711678-.0189013-1.1528168 0-.4039993.0070801-.8101044.0211625-1.214077.0091555-.2626457.2102909-.4834175.4710009-.5165253 2.1044402-.2672424 4.2288198-.2663116 6.3332481.0023804.2562771.0327225.4571724.2462921.4717054.5042419.0228025.4047089.0345203.8132897.0345203 1.2166215z" fill="#d1dafe"/></g><g><path d="m7.44802 54.7725677c.9044313.0125771 1.8024235.0817337 2.7071619.1947517.2511797.0377197.4520617.2511787.471077.5088005.0187082.4019165.0312824.810276.0312824 1.2121964 0 .3893433-.0125742.7788391-.0312824 1.1683388-.0125742.263752-.2263384.4836502-.4962263.5086441-.2889023.0251503-.5778055.0440102-.8731489.0628738.0187082-.1444511.0251484-.2889023.0251484-.4396439-.0000001-1.3002128-.7161237-2.4621123-1.8340121-3.2159614z" fill="#8a9bea"/></g></g></g><g><g><g><path d="m14.1058416 13.0694046c-.0547361.5947285-.503129 1.0706005-1.0889206 1.1894569-.2560329.0549603-.503129.1009836-.7593851.1376238v1.1072407c0 .4848089-.5857916.7412882-.9334249.3932085l-1.1074638-1.0795374c-.1096964-.1009827-.2560329-.1554966-.4115286-.1465597-1.9950891.1188564-4.0082746-.0455761-6.0214601-.448616-.5308323-.1005363-.9425845-.530385-1.0250244-1.0612173-.4209123-2.5437937-.4025924-5.0241385-.00916-7.4580131.0915999-.5491519.5308322-.9883842 1.0708243-1.0799842 3.0013463-.5031285 6.0670366-.5125122 9.187686-.0093832.5947285.0915995 1.0522814.5857921 1.1072407 1.1805205.2012965 2.3793617.2012965 4.8042989-.0093835 7.2752605z" fill="#7f1b11"/></g><g><path d="m15.2406464 13.1774807c-.0547361.5947294-.503129 1.0706015-1.0889206 1.1894579-.2560329.0549593-.503129.1009827-.7593851.1376228v1.1072407c0 .4848089-.5857916.7412882-.9334249.3932085l-1.1074638-1.0795364c-.1096964-.1009836-.2560329-.1554966-.4115286-.1465597-1.9950895.1188564-4.0082746-.045577-6.0214601-.448616-.5308323-.1005363-.9425845-.530385-1.0250244-1.0612173-.4209123-2.5437946-.4025924-5.0241385-.00916-7.4580135.0915999-.5491519.5308323-.9883842 1.0708241-1.0799842 3.0013466-.5031285 6.0670366-.5125122 9.187686-.0093832.5947285.0915999 1.0522814.5857921 1.1072407 1.1805205.2012967 2.3793611.2012967 4.8042993-.0093833 7.2752599z" fill="#b53016"/></g><g><path d="m15.3963661 9.5814056c0 1.1894579-.0458002 2.3789148-.1557198 3.5960751-.0547361.5947294-.503129 1.0706015-1.0889206 1.1894579-.2560329.0549593-.503129.1009827-.7593851.1376228v1.1072407c0 .4848089-.5857916.7412882-.9334249.3932085l-1.1074638-1.0795364c-.1096964-.1009836-.2560329-.1554966-.4115286-.1465597-1.9950895.1188564-4.0082746-.045577-6.0214601-.448616-.5308323-.1005363-.9425845-.530385-1.0250244-1.0612173-.0638964-.4119759-.1280162-.8235054-.1646562-1.2265444 1.2446404.5585356 2.6995139.8695288 4.264307.8695288 3.2486659-.0000001 6.0672599-1.3543378 7.4032765-3.33066z" fill="#912010"/></g><g><g><path d="m5.6705666 6.88693c.6369057-.1951075 1.2738113-.2971091 1.910717-.3662863.6369057-.075006 1.2738113-.1029224 1.910717-.104763.6369057.0004601 1.2738113.0286832 1.910717.103229.6369066.0690236 1.2738123.171639 1.910718.3678203-.6369057.1960273-1.2738113.2986426-1.910718.3676667-.6369057.0746989-1.2738113.1027684-1.910717.1033821-.6369057-.0018406-1.2738113-.029757-1.910717-.1047626-.6369057-.0693306-1.2738114-.1713323-1.910717-.3662862z" fill="#fff"/></g><g><path d="m5.6705666 9.3109856c.6369057-.1951065 1.2738113-.2971087 1.910717-.3662863.6369057-.0750055 1.2738113-.1029215 1.910717-.1047621.6369057.0004597 1.2738113.0286827 1.910717.1032286.6369066.0690241 1.2738123.1716394 1.910718.3678198-.6369057.1960278-1.2738113.2986431-1.910718.3676672-.6369057.0746994-1.2738113.1027689-1.910717.1033821-.6369057-.0018406-1.2738113-.0297565-1.910717-.104763-.6369057-.0693303-1.2738114-.1713324-1.910717-.3662863z" fill="#fff"/></g><g><path d="m5.6705666 11.7350426c.6369057-.1951075 1.2738113-.2971096 1.910717-.3662863.6369057-.0750065 1.2738113-.1029224 1.910717-.104763.6369057.0004597 1.2738113.0286827 1.910717.1032286.6369066.0690241 1.2738123.1716394 1.910718.3678207-.6369057.1960268-1.2738113.2986422-1.910718.3676662-.6369057.0746994-1.2738113.1027689-1.910717.1033821-.6369057-.0018406-1.2738113-.0297565-1.910717-.1047621-.6369057-.0693311-1.2738114-.1713323-1.910717-.3662862z" fill="#fff"/></g></g></g></g><g><path d="m40.8351593 54.7998047c0 .75-.3000488 1.4296875-.7900391 1.9199219s-1.1699219.7900391-1.9199219.7900391h-10.7199687c-1.4899902 0-2.7102051-1.2099609-2.7102051-2.7099609 0-.75.3100586-1.4199219.8000488-1.9101563.4899902-.5 1.170166-.7998047 1.9101563-.7998047h10.7199688c1.5 0 2.7099609 1.2197265 2.7099609 2.7099609z" fill="#aec46e"/></g><g><g><g><g><g><path d="m52.6329231 65.8438568c-1.8834152.0470505-4.8174553-.7395096-8.0588951-4.7823715l3.9188461-1.3722496s1.0628166 2.5309792 4.5527306 4.710743c.6567078.4101791.3613586 1.4245376-.4126816 1.4438781z" fill="#4269c4"/></g></g><g><path d="m49.5314674 59.9231224s-4.2876701 2.8802528-5.7277946 2.3454208c-1.8089523-.6705894-4.0873146-4.9247284-3.5843735-6.7663918.4350662-1.5407143 5.4930916-3.3840103 5.4930916-3.3840103z" fill="#8a9bea"/></g><g><circle cx="62.159" cy="49.097" fill="#4269c4" r="3.267"/></g><g><path d="m64.2361374 59.1527634h-.0335236l-14.6711464.770359-3.8190765-7.8049812 9.7137032-10.852066.1341171-.1341171c.8709488-.9715347 2.4124794-.737648 2.9816628.4350624l7.2014503 15.0064354c.5695953 1.1383628-.2342911 2.4795379-1.5071869 2.5793075z" fill="#4269c4"/></g><g><path d="m64.2361374 59.1527634h-.0335236l-8.7765198-17.8866882.1341171-.1341171c.8709488-.9715347 2.4124794-.737648 2.9816628.4350624l7.2014503 15.0064354c.5695954 1.1383628-.234291 2.4795379-1.5071868 2.5793075z" fill="#8a9bea"/></g></g></g></g></g><g><path d="m53.5666733 26.0812683 5.6331253 11.5921288c.6610451 1.3740959 2.3719406 1.8866081 3.6841011 1.0990868s1.6643867-2.5382576.7629662-3.7680893l-7.5800934-10.4236146z" fill="#b53016"/></g><g><path d="m44.5007248 8.8777437c-4.9967041 2.9988766-6.6156769 9.4782324-3.6167984 14.4749346 2.9940033 4.9885826 9.4733582 6.6075554 14.4700584 3.6086788 4.9885826-2.9940033 6.6075554-9.4733582 3.6135521-14.4619417-2.9988746-4.9967022-9.4782295-6.615675-14.4668121-3.6216717zm9.3818397 15.6501723c-3.6397705 2.1844864-8.3757515 1.0012913-10.5603561-2.6386776-2.1892929-3.6477795-1.0010948-8.3758707 2.6386795-10.560358 3.647583-2.1891747 8.3710632-1.0091019 10.5603561 2.6386786 2.1846047 3.6399678 1.0089074 8.3711823-2.6386795 10.560357z" fill="#fbad3e"/></g></g></svg>