<svg fill="none" height="64" viewBox="0 0 64 64" width="64" xmlns="http://www.w3.org/2000/svg" xmlns:xlink="http://www.w3.org/1999/xlink"><linearGradient id="lg1"><stop offset=".0481924" stop-color="#6395ff"/><stop offset=".327214" stop-color="#1d65ff"/><stop offset="1" stop-color="#05359a"/></linearGradient><linearGradient id="paint0_linear_6867_2743" gradientUnits="userSpaceOnUse" x1="31.778" x2="31.778" xlink:href="#lg1" y1="17.667" y2="46.849"/><linearGradient id="lg2"><stop offset=".0417522" stop-color="#60b3ff"/><stop offset=".413591" stop-color="#369dfa"/><stop offset="1" stop-color="#044aab"/></linearGradient><linearGradient id="paint1_linear_6867_2743" gradientUnits="userSpaceOnUse" x1="18.111" x2="18.111" xlink:href="#lg2" y1="17.814" y2="48.929"/><linearGradient id="lg3"><stop offset="0" stop-color="#1140b8"/><stop offset="1" stop-color="#0b38ab"/></linearGradient><linearGradient id="paint2_linear_6867_2743" gradientUnits="userSpaceOnUse" x1="31.778" x2="31.778" xlink:href="#lg3" y1="17.437" y2="26.315"/><linearGradient id="paint3_linear_6867_2743" gradientUnits="userSpaceOnUse" x1="32" x2="32" y1="14.764" y2="26.799"><stop offset="0" stop-color="#51b1f8"/><stop offset="1" stop-color="#2ba0f7"/></linearGradient><linearGradient id="paint4_linear_6867_2743" gradientUnits="userSpaceOnUse" x1="55.104" x2="51.746" xlink:href="#lg2" y1="27.51" y2="13.031"/><linearGradient id="paint5_linear_6867_2743" gradientUnits="userSpaceOnUse" x1="31.979" x2="31.979" xlink:href="#lg2" y1="10.313" y2="22.574"/><linearGradient id="paint6_linear_6867_2743" gradientUnits="userSpaceOnUse" x1="46.11" x2="46.11" xlink:href="#lg1" y1="10.272" y2="21.234"/><linearGradient id="paint7_linear_6867_2743" gradientUnits="userSpaceOnUse" x1="32" x2="32" xlink:href="#lg3" y1="13.676" y2="15.27"/><linearGradient id="paint8_linear_6867_2743" gradientUnits="userSpaceOnUse" x1="41.554" x2="41.554" xlink:href="#lg3" y1="13.652" y2="20.279"/><linearGradient id="paint9_linear_6867_2743" gradientUnits="userSpaceOnUse" x1="53.565" x2="53.565" y1="-4" y2="54"><stop offset=".0873392" stop-color="#ffbb37"/><stop offset=".505133" stop-color="#fe7511"/><stop offset="1" stop-color="#fe7511"/></linearGradient><linearGradient id="paint10_linear_6867_2743" gradientUnits="userSpaceOnUse" x1="54.997" x2="53.259" y1="43.092" y2="44.91"><stop offset="0" stop-color="#ad0c0d"/><stop offset="1" stop-color="#e83e3f"/></linearGradient><linearGradient id="paint11_linear_6867_2743" gradientUnits="userSpaceOnUse" x1="53.565" x2="52.047" y1="43" y2="43.455"><stop offset="0" stop-color="#a7111c"/><stop offset="1" stop-color="#e12533"/></linearGradient><path d="m14 21.2768c0-1.9939 1.6164-3.6103 3.6103-3.6103h28.3349c1.994 0 3.6104 1.6164 3.6104 3.6103v17.0693c0 1.5516-.8916 2.9793-2.3339 3.5515-9.9176 3.9347-20.9702 3.9347-30.8879 0-1.4422-.5722-2.3338-1.9999-2.3338-3.5515z" fill="url(#paint0_linear_6867_2743)"/><path d="m34.2222 39.8783v-22.2118h-16.6119c-1.9939 0-3.6103 1.6164-3.6103 3.6103v17.0693c0 1.5516.8916 2.9793 2.3338 3.5515 5.3702 2.1306 11.0731 3.1075 16.7484 2.9308.7462-1.3711 1.14-3.0159 1.14-4.9501z" fill="url(#paint1_linear_6867_2743)"/><path d="m14.3131 26.1606c-.1922-.0986-.3131-.2965-.3131-.5125v-1.0242c0-1.0735.7577-1.9978 1.8104-2.2083l15.7689-3.1537c.1309-.0262.2658-.0259.3967.0009l15.8138 3.2374c1.0278.2105 1.7658 1.1148 1.7658 2.164 0 .8213-.4537 1.5797-1.1939 1.9356-10.769 6.1771-23.3708 6.0364-34.0486-.4392z" fill="url(#paint2_linear_6867_2743)" opacity=".5"/><path d="m60 16.8052c0-.997-.8082-1.8052-1.8052-1.8052h-54.1948v3.3732c0 .8994.59906 1.6816 1.45324 1.9238.09194.0261.18435.0514.27366.0854l22.8863 8.7138c.0893.034.1811.0611.2749.0797 1.909.378 3.8734.3809 5.7836.0086.0923-.018.1828-.0442.2709-.0772l23.3262-8.7305c.0881-.0329.1791-.0574.2697-.0827.8583-.2394 1.4615-1.0236 1.4615-1.9261z" fill="url(#paint3_linear_6867_2743)"/><path d="m32 29.3083c0 .0836.0684.1512.152.1492.7833-.0183 1.5656-.098 2.3395-.239.2126-.0388.4204-.0997.6228-.1755l22.9828-8.6019c.2024-.0757.4136-.1274.6155-.2042.7647-.2911 1.2874-1.0288 1.2874-1.8689v-2.368h-23.8519c-2.2909 0-4.1481 1.8572-4.1481 4.1481z" fill="url(#paint4_linear_6867_2743)"/><path d="m31.4197 4.28435c.236-.04115.4776-.03954.7131.00475l27.6486 11.1998c.5474.1029.5419.8887-.0069.984l-25.8748 8.4096c-1.2332.4008-2.563.3913-3.7904-.0271l-25.93436-8.8399c-.54545-.1051-.5385-.8881.00873-.9835z" fill="url(#paint5_linear_6867_2743)"/><path d="m32.3464 25.2344 27.4291-8.7616c.4138-.0718.5187-.5365.3104-.8048-.147-.1892-.4154-.2245-.6376-.3145l-27.3136-11.06407c-.0007-.00028-.0014-.00049-.0021-.00063-.0134-.0025-.0153.01582-.0026.02057 10.0447 3.75767 5.5353 17.75553.2164 20.92503z" fill="url(#paint6_linear_6867_2743)" opacity=".4"/><ellipse cx="32" cy="15" fill="url(#paint7_linear_6867_2743)" opacity=".5" rx="3" ry="1"/><path d="m47.7632 16h-11.2241l8.3007 1.1727c2.9458.1254 5.83 2.9849 6.6367 5.7462l1.4848-.5558c-.0091-.033-.0193-.07-.0303-.11-.096-.3474-.2539-.9196-.2998-1.0404-1.0334-2.7212-2.5316-4.4259-4.868-5.2127z" fill="url(#paint8_linear_6867_2743)" opacity=".5"/><path d="m30.7328 15.53c-.4097-.0175-.7328-.3547-.7328-.7647 0-.4227.3426-.7653.7653-.7653l15.0748.5c4.0708.1732 6.6422 1.6388 8.1184 5.2345.361.8794.4769 1.8358.4818 2.7864l.1242 23.9789c.6072.4561 1 1.1823 1 2.0002v4.1667c0 .1841-.1493.3333-.3334.3333-.0593 0-.1666 0-.1666 0h-2.8927s-.1073 0-.1666 0c-.1841 0-.3334-.1492-.3334-.3333v-4.1667c0-.8179.3928-1.5441 1-2.0002l-.0007-23.8329c0-3.4823-3.3518-6.346-6.831-6.4941z" fill="url(#paint9_linear_6867_2743)"/><path d="m52.0645 42.4545c0-.251.2928-.4545.5-.4545.6353.2888 1.3646.2888 2 0 .2071 0 .5.2035.5.4545v3.6364c0 .251-.1679.4546-.375.4546-.7217.2915-1.5284.2915-2.25 0-.2072 0-.375-.2036-.375-.4546z" fill="url(#paint10_linear_6867_2743)"/><g fill="url(#paint11_linear_6867_2743)"><path d="m52.3311 43.048c-.0736-.0795-.1781-.058-.2333.048-.0552.1061-.0403.2565.0333.336.8494.9173 2.0173.9173 2.8667 0 .0736-.0795.0885-.2299.0333-.336-.0552-.106-.1597-.1275-.2333-.048-.7309.7893-1.7358.7893-2.4667 0z"/><path d="m52.3311 44.008c-.0736-.0795-.1781-.058-.2333.048s-.0403.2565.0333.336c.8494.9173 2.0173.9173 2.8667 0 .0736-.0795.0885-.23.0333-.336s-.1597-.1275-.2333-.048c-.7309.7893-1.7358.7893-2.4667 0z"/><path d="m52.0978 45.976c.0552-.106.1597-.1275.2333-.048.7309.7893 1.7358.7893 2.4667 0 .0736-.0795.1781-.058.2333.048s.0403.2565-.0333.336c-.8494.9173-2.0173.9173-2.8667 0-.0736-.0795-.0885-.23-.0333-.336z"/><path d="m52.3311 44.968c-.0736-.0795-.1781-.058-.2333.048s-.0403.2565.0333.336c.8494.9173 2.0173.9173 2.8667 0 .0736-.0795.0885-.23.0333-.336s-.1597-.1275-.2333-.048c-.7309.7893-1.7358.7893-2.4667 0z"/></g></svg>