<svg id="Layer_1" enable-background="new 0 0 64 64" viewBox="0 0 64 64" xmlns="http://www.w3.org/2000/svg"><g><g><path d="m5.7 28.5 26.3-8-6-9.4c-.4-.7-1.3-1-2.1-.8l-22.5 6.5c-1.2.3-1.7 1.8-1.1 2.8z" fill="#f8b517"/><path d="m58.3 28.5-26.3-8 6-9.4c.4-.7 1.3-1 2.1-.8l22.5 6.4c1.2.3 1.7 1.8 1.1 2.8z" fill="#fbd303"/></g><g><path d="m5.7 28.5 26.3 7.5v-15.4z" fill="#fbd303"/><path d="m32 20.6v15.4l26.3-7.5z" fill="#f8b517"/></g><path d="m50.8 25.8-2.3-1.3c-.2-.1-.3-.4-.3-.6.2-.8.3-1.6.3-2.4 0-.2.2-.5.4-.5l2.6-.7c.3-.1.5-.3.4-.6l-.5-3.4c0-.3-.3-.5-.6-.5h-2.7c-.2 0-.5-.2-.5-.4-.3-.8-.6-1.5-.9-2.2-.1-.2-.1-.5.1-.7l1.9-1.9c.2-.2.2-.5.1-.8l-2.1-2.8c-.2-.2-.5-.3-.7-.1l-2.3 1.4c-.2.1-.5.1-.7-.1-.6-.5-1.2-1-1.9-1.5-.2-.1-.3-.4-.2-.6l.7-2.6c.1-.3-.1-.6-.3-.7l-3.2-1.3c-.3-.1-.6 0-.7.3l-1.3 2.3c-.1.2-.4.3-.6.3-.8-.2-1.6-.3-2.4-.3-.2 0-.5-.2-.5-.4l-.7-2.6c-.1-.3-.3-.5-.6-.4l-3.4.5c-.3 0-.5.3-.5.6v2.7c0 .2-.2.5-.4.5-.8.3-1.5.6-2.2.9-.2.1-.5.1-.7-.1l-2.1-2c-.2-.2-.5-.2-.8-.1l-2.8 2.1c-.2.2-.3.5-.1.7l1.4 2.3c.1.2.1.5-.1.7-.5.6-1 1.2-1.5 1.9-.1.2-.4.3-.6.2l-2.5-.5c-.3-.1-.6.1-.7.3l-1.3 3.2c-.1.3 0 .6.3.7l2.3 1.3c.2.1.3.4.3.6-.2.8-.3 1.6-.3 2.4 0 .2-.2.5-.4.5l-2.6.7c-.3.1-.5.3-.4.6l.5 3.4c0 .3.3.5.6.5h2.7c.2 0 .5.2.5.4.3.8.6 1.5.9 2.2.1.2.1.5-.1.7l-1.9 1.9c-.2.2-.2.5-.1.8l2.1 2.8c.2.2.5.3.7.1l2.3-1.4c.2-.1.5-.1.7.1.6.5 1.2 1 1.9 1.5.2.1.3.4.2.6l-.7 2.6c-.1.3.1.6.3.7l3.2 1.3c.3.1.6 0 .7-.3l1.3-2.3c.1-.2.4-.3.6-.3.8.2 1.6.3 2.4.3.2 0 .5.2.5.4l.7 2.6c.1.3.3.5.6.4l3.4-.5c.3 0 .5-.3.5-.6v-2.7c0-.2.2-.5.4-.5.8-.3 1.5-.6 2.2-.9.2-.1.5-.1.7.1l1.9 1.9c.2.2.5.2.8.1l2.8-2.1c.2-.2.3-.5.1-.7l-1.4-2.3c-.1-.2-.1-.5.1-.7.5-.6 1-1.2 1.5-1.9.1-.2.4-.3.6-.2l2.6.6c.3.1.6-.1.7-.3l1.3-3.2c.1-.3 0-.6-.2-.7zm-21.7 4.6c-6.3-1.9-9.2-8.9-6.1-14.7 2.3-4.3 7.3-6.4 12-5 6.3 1.9 9.2 8.9 6.1 14.7-2.3 4.3-7.4 6.4-12 5z" fill="#d44231"/><g><path d="m32 61.3v-25.3l-26.3-7.5v26.4c0 .8.6 1.6 1.4 1.8l22.5 6.4c1.6.3 3 .3 4.8 0" fill="#fbd303"/><path d="m34.4 63.1 22.5-6.4c.8-.2 1.4-1 1.4-1.8v-26.4l-26.3 7.5v25.3c0 1.3 1.2 2.2 2.4 1.8z" fill="#f8b517"/></g><g><path d="m5.7 28.5 26.3 7.5-6 9.4c-.4.7-1.3 1-2.1.8l-22.5-6.4c-1.2-.3-1.8-1.8-1.1-2.8z" fill="#f8b517"/><path d="m58.3 28.5-26.3 7.5 6 9.4c.4.7 1.3 1 2.1.8l22.5-6.4c1.2-.3 1.7-1.8 1.1-2.8z" fill="#fbd303"/></g></g></svg>