<svg id="Layer_1" enable-background="new 0 0 55 55" height="512" viewBox="0 0 55 55" width="512" xmlns="http://www.w3.org/2000/svg"><g id="_x33_6"><g><g><path d="m42.0605316 12.8924341-.0700073 30.0300284-14.75 8.5800171-14.2999878-8.2600098.0700073-31.170043 14.7600098-8.5699465 13.2999878 7.6699831z" fill="#9ea9c9"/></g></g><g><g><g><g><path d="m27.3062 21.4637794 14.7527256-8.573347-.0669288 30.033739-14.7527218 8.573349z" fill="#9ea9c9"/></g><g><path d="m41.2667847 14.2635984-.9034691.5250178-.0607643 27.2034912.901062.4773483z" fill="#c9cee2"/></g><g><path d="m40.3025513 41.9921074v.0000954l-12.2686615 7.1302948-.0023117 1.0022697 13.1720352-7.6553116z" fill="#e3e7f0"/></g><g><path d="m40.3680344 14.7890558-.0630722 27.2003546-12.2749253 7.1314507.0631714-27.2003556z" fill="#1d2943"/></g><g><path d="m26.3196049 19.7496223 14.7527256-8.573347.9865951 1.7141571-14.7527256 8.573347z" fill="#b0b8cf"/></g><g><path d="m13.0143499 12.0708666 14.7527247-8.5733469 13.3052559 7.6787556-14.7527256 8.573347z" fill="#e3e7f0"/><path d="m17.0048847 12.0648441 10.765625-6.2563471 9.3110371 5.3735346-10.7651386 6.2563477z" fill="#b0b8cf"/></g><g><path d="m26.3196049 19.7496223.9865951 1.7141571-.066925 30.033741-14.2998066-8.2559967.0748815-31.1706571z" fill="#c9cee2"/><path d="m14.1411152 42.5497093.0678711-28.4038105 11.2314453 6.4814453.6650391 1.1557618-.0615235 27.6386737z" fill="#9ea9c9"/></g></g><g><g><g><g><g><g><path d="m39.3083115 20.9011192.0013809.8244267-10.2105656 5.8950729-.0013809-.8244266z" fill="#cad0dd"/></g></g><g><g><path d="m36.219883 20.2715282.0031471 1.1096783-.9600678.5542965-.0031471-1.1096783z" fill="#78e75a"/></g></g><g><g><path d="m36.2154503 18.7075939.003128 1.1031647-.9600677.5542946-.0031281-1.1031647z" fill="#78e75a"/></g></g><g><g><path d="m37.761631 19.3814011.0031433 1.1096782-.9657058.5575524-.0031472-1.1096783z" fill="#78e75a"/></g></g><g><g><path d="m37.7571945 17.8174667.0031281 1.1031647-.9657059.5575504-.0031281-1.1031646z" fill="#78e75a"/></g></g><g><g><path d="m39.3033829 18.4912701.0031433 1.1096782-.9657059.5575524-.0031471-1.1096783z" fill="#78e75a"/></g></g><g><g><path d="m39.2989464 16.9273357.003128 1.1031647-.9657058.5575523-.0031281-1.1031646z" fill="#78e75a"/></g></g></g></g><g><g><path d="m34.6793442 19.5944653.003128 2.6658344-5.5909633 3.2279434-.0031262-2.6658344z" fill="#78e75a"/></g></g></g><g><g><g><g><g><path d="m39.3083115 27.3551064.0013809.8244266-10.2105656 5.8950748-.0013809-.8244285z" fill="#cad0dd"/></g></g><g><g><path d="m36.219883 26.7255154.0031471 1.1096782-.9600678.5542965-.0031471-1.1096782z" fill="#ffd06c"/></g></g><g><g><path d="m36.2154503 25.161581.003128 1.1031647-.9600677.5542965-.0031281-1.1031647z" fill="#ffd06c"/></g></g><g><g><path d="m37.761631 25.8353882.0031433 1.1096783-.9657058.5575523-.0031472-1.1096783z" fill="#ffd06c"/></g></g><g><g><path d="m37.7571945 24.2714539.0031281 1.1031646-.9657059.5575524-.0031281-1.1031647z" fill="#ffd06c"/></g></g><g><g><path d="m39.3033829 24.9452591.0031433 1.1096764-.9657059.5575523-.0031471-1.1096783z" fill="#ffd06c"/></g></g><g><g><path d="m39.2989464 23.3813229.003128 1.1031646-.9657058.5575524-.0031281-1.1031647z" fill="#ffd06c"/></g></g></g></g><g><g><path d="m34.6793442 26.0484524.003128 2.6658344-5.5909633 3.2279434-.0031262-2.6658344z" fill="#ffd06c"/></g></g></g><g><g><g><g><g><path d="m39.3083115 33.8090935.0013809.8244285-10.2105656 5.895073-.0013809-.8244286z" fill="#cad0dd"/></g></g><g><g><path d="m36.219883 33.1795044.0031471 1.1096764-.9600678.5542984-.0031471-1.1096802z" fill="#f45170"/></g></g><g><g><path d="m36.2154503 31.6155682.003128 1.1031665-.9600677.5542946-.0031281-1.1031646z" fill="#f45170"/></g></g><g><g><path d="m37.761631 32.2893753.0031433 1.1096802-.9657058.5575523-.0031472-1.1096802z" fill="#f45170"/></g></g><g><g><path d="m37.7571945 30.725441.0031281 1.1031647-.9657059.5575523-.0031281-1.1031647z" fill="#f45170"/></g></g><g><g><path d="m39.3033829 31.3992462.0031433 1.1096764-.9657059.5575523-.0031471-1.1096783z" fill="#f45170"/></g></g><g><g><path d="m39.2989464 29.83531.003128 1.1031647-.9657058.5575523-.0031281-1.1031647z" fill="#f45170"/></g></g></g></g><g><g><path d="m34.6793442 32.5024414.003128 2.6658325-5.5909633 3.2279434-.0031262-2.6658325z" fill="#f45170"/></g></g></g><g><g><g><g><g><path d="m39.3083115 40.2630806.0013809.8244286-10.2105656 5.8950729-.0013809-.8244286z" fill="#cad0dd"/></g></g><g><g><path d="m36.219883 39.6334915.0031471 1.1096764-.9600678.5542984-.0031471-1.1096802z" fill="#57b3fe"/></g></g><g><g><path d="m36.2154503 38.0695572.003128 1.1031647-.9600677.5542945-.0031281-1.1031646z" fill="#57b3fe"/></g></g><g><g><path d="m37.761631 38.7433624.0031433 1.1096802-.9657058.5575523-.0031472-1.1096801z" fill="#57b3fe"/></g></g><g><g><path d="m37.7571945 37.1794281.0031281 1.1031647-.9657059.5575523-.0031281-1.1031647z" fill="#57b3fe"/></g></g><g><g><path d="m39.3033829 37.8532333.0031433 1.1096764-.9657059.5575523-.0031471-1.1096763z" fill="#57b3fe"/></g></g><g><g><path d="m39.2989464 36.289299.003128 1.1031647-.9657058.5575523-.0031281-1.1031647z" fill="#57b3fe"/></g></g></g></g><g><g><path d="m34.6793442 38.9564285.003128 2.6658325-5.5909633 3.2279435-.0031262-2.6658326z" fill="#57b3fe"/></g></g></g></g></g><g><path d="m24.7796478 16.3272381c-.9942188 0-1.9019871.432251-2.5359821 1.1095142-.633997.7060223-1.037487 1.6425495-1.037487 2.7232189 0-2.1180687-1.599369-3.8327332-3.5733833-3.8327332.9797955 0 1.8875637-.4466724 2.5359821-1.1239367.6195736-.6915998 1.0374012-1.6713953 1.0374012-2.723218 0 1.0518227.4034901 2.0316181 1.037487 2.723218.6339951.6772643 1.5417633 1.1239368 2.5359821 1.1239368z" fill="#fff"/></g></g></g></svg>