<svg id="Layer_2" height="512" viewBox="0 0 512 512" width="512" xmlns="http://www.w3.org/2000/svg" xmlns:xlink="http://www.w3.org/1999/xlink" data-name="Layer 2"><linearGradient id="linear-gradient" gradientUnits="userSpaceOnUse" x1="43.93" x2="468.07" y1="43.93" y2="468.07"><stop offset="0" stop-color="#64b5f6"/><stop offset="1" stop-color="#1976d2"/></linearGradient><linearGradient id="linear-gradient-2" gradientUnits="userSpaceOnUse" x1="116.87" x2="467.39" y1="118.21" y2="468.73"><stop offset="0" stop-opacity=".35"/><stop offset="1" stop-opacity="0"/></linearGradient><g id="Icon"><g id="Brace"><rect id="Background" fill="url(#linear-gradient)" height="512" rx="150" width="512"/><path d="m512 216.49v145.51c0 82.84-67.16 150-150 150h-148.19l-106.99-106.99 14.42-82.57-71.04-71.04 55.31-6.42 16.85-132.26 71.24-37.78 38.92-6.27 136.09 136.1.51-46.46-89.64-89.64 57.29 13.8 69.91 28.71z" fill="url(#linear-gradient-2)"/><path d="m232.52 68.67c-14.36 4.79-27.14 10.73-38.35 17.84-4.79 3.15-9.47 6.63-14.05 10.46s-8.65 8.1-12.2 12.82c-3.56 4.72-6.43 9.88-8.61 15.48-2.19 5.61-3.28 11.69-3.28 18.25 0 4.38.44 8.75 1.33 13.12.89 4.38 1.91 8.79 3.08 13.23 1.16 4.44 2.19 8.96 3.08 13.54s1.33 9.33 1.33 14.25c0 5.61-.79 10.7-2.36 15.28s-4.14 8.96-7.69 13.12c-3.56 4.17-8.24 8.27-14.05 12.3s-12.89 8.38-21.23 13.02c8.34 3.83 15.31 7.73 20.92 11.69 5.6 3.97 10.12 8.24 13.54 12.82s5.81 9.5 7.18 14.77c1.37 5.26 2.05 11.11 2.05 17.53 0 3.83-.38 7.97-1.13 12.41s-1.57 9.2-2.46 14.25c-.89 5.06-1.71 10.36-2.46 15.89-.75 5.54-1.13 11.25-1.13 17.12 0 7.25.99 13.88 2.97 19.89 1.98 6.02 4.61 11.45 7.9 16.3 3.28 4.85 7.04 9.23 11.28 13.12 4.24 3.9 8.54 7.28 12.92 10.15 10.25 6.83 21.94 12.17 35.07 16-2.19 0-5.88-.1-11.07-.31-5.2-.21-11.31-.75-18.35-1.64s-14.7-2.19-22.97-3.9-16.54-4.07-24.81-7.08-16.27-6.8-23.99-11.38c-7.73-4.58-14.6-10.12-20.61-16.61-6.02-6.49-10.8-14.05-14.36-22.66s-5.33-18.59-5.33-29.94c0-5.74.89-11.31 2.67-16.71s3.76-10.66 5.95-15.79 4.17-10.12 5.95-14.97 2.67-9.47 2.67-13.84c0-3.69-.79-7.25-2.36-10.66-1.57-3.42-4.34-6.67-8.31-9.74-3.97-3.08-9.26-6.01-15.89-8.82-6.63-2.8-15.01-5.43-25.12-7.9 9.84-2.46 18.01-4.95 24.51-7.49 6.49-2.53 11.65-5.16 15.48-7.9 3.83-2.73 6.53-5.57 8.1-8.51s2.36-5.98 2.36-9.13c0-3.83-.86-7.9-2.56-12.2-1.71-4.31-3.59-8.82-5.64-13.54s-3.93-9.64-5.64-14.77-2.56-10.56-2.56-16.3c0-12.85 2.8-24.1 8.41-33.74 5.6-9.64 12.88-17.91 21.84-24.81 8.95-6.9 18.97-12.61 30.04-17.12s22.11-8.1 33.12-10.77c11-2.67 21.36-4.44 31.07-5.33s17.64-1.26 23.79-1.13zm46.96 0c6.15-.13 14.08.24 23.79 1.13s20.06 2.67 31.07 5.33c11 2.67 22.05 6.25 33.12 10.77s21.09 10.22 30.04 17.12c8.95 6.91 16.23 15.18 21.84 24.81 5.6 9.64 8.41 20.89 8.41 33.74 0 5.74-.89 11.18-2.67 16.3-1.78 5.13-3.69 10.05-5.74 14.77s-3.97 9.23-5.74 13.54c-1.78 4.31-2.67 8.38-2.67 12.2 0 3.15.79 6.19 2.36 9.13s4.31 5.78 8.2 8.51c3.9 2.74 9.13 5.37 15.69 7.9s14.77 5.02 24.61 7.49c-10.12 2.46-18.49 5.09-25.12 7.9-6.63 2.8-11.93 5.74-15.89 8.82-3.97 3.08-6.74 6.33-8.31 9.74-1.57 3.42-2.36 6.97-2.36 10.66 0 4.38.89 8.99 2.67 13.84s3.69 9.84 5.74 14.97 3.96 10.39 5.74 15.79 2.67 10.97 2.67 16.71c0 11.76-2.09 22.18-6.25 31.27-4.17 9.09-9.81 17.09-16.92 23.99s-15.38 12.75-24.81 17.53-19.38 8.68-29.84 11.69-21.12 5.23-31.99 6.67-21.3 2.22-31.27 2.36c12.99-3.83 24.68-9.16 35.07-16 4.37-2.87 8.65-6.25 12.82-10.15s7.9-8.27 11.18-13.12 5.95-10.29 8-16.3 3.08-12.64 3.08-19.89c0-5.88-.38-11.59-1.13-17.12-.75-5.54-1.57-10.83-2.46-15.89s-1.71-9.81-2.46-14.25-1.13-8.58-1.13-12.41c0-6.42.68-12.27 2.05-17.53s3.76-10.18 7.18-14.77c3.42-4.58 7.9-8.85 13.43-12.82 5.54-3.96 12.54-7.86 21.02-11.69-8.48-4.65-15.66-8.99-21.53-13.02-5.88-4.03-10.6-8.13-14.15-12.3-3.56-4.17-6.12-8.54-7.69-13.12s-2.36-9.67-2.36-15.28c0-4.51.44-8.95 1.33-13.33.89-4.37 1.91-8.78 3.08-13.23 1.16-4.44 2.19-8.95 3.08-13.54.89-4.58 1.33-9.26 1.33-14.05 0-6.56-1.1-12.64-3.28-18.25-2.19-5.6-5.06-10.77-8.61-15.48-3.56-4.72-7.62-8.99-12.2-12.82s-9.26-7.31-14.05-10.46c-11.21-7.11-23.86-13.05-37.94-17.84z" fill="#fff"/></g></g></svg>