<svg id="Capa_1" enable-background="new 0 0 512 512" height="512" viewBox="0 0 512 512" width="512" xmlns="http://www.w3.org/2000/svg"><g><g><g><path d="m215.602 0-7.635 37.024c-26.232 5.75-50.766 16.09-72.694 30.159l-31.727-20.769-57.131 57.131 20.796 31.684c-14.066 21.912-24.409 46.426-30.166 72.639l-37.045 7.734v80.796l37.034 7.683c5.752 26.214 16.088 50.731 30.149 72.646l-20.769 31.727 57.131 57.131 31.684-20.796c21.912 14.066 46.426 24.408 72.638 30.166l7.735 37.045h40.398l51.077-238.064-51.077-273.936z" fill="#445373"/><path d="m474.976 207.967c-5.753-26.249-16.104-50.798-30.188-72.737l20.796-31.684-57.131-57.131-31.643 20.823c-21.936-14.089-46.482-24.445-72.729-30.204l-7.683-37.034h-40.398v512h40.398l7.684-37.035c26.231-5.755 50.762-16.102 72.688-30.177l31.684 20.796 57.131-57.131-20.823-31.643c14.089-21.936 24.445-46.482 30.204-72.729l37.034-7.683v-80.796z" fill="#363c5a"/></g><g><path d="m96.917 256c0 87.719 71.365 159.083 159.083 159.083l51.077-148.618-51.077-169.548c-87.719 0-159.083 71.364-159.083 159.083z" fill="#e6ffff"/><path d="m256 96.917v318.167c87.719 0 159.083-71.365 159.083-159.083s-71.364-159.084-159.083-159.084z" fill="#d9f2ff"/></g></g><g><g><path d="m256 157.133-85.621 49.433 85.621 68.241 16.842-64.588z" fill="#9ffcfe"/></g><path d="m341.621 206.566-85.621-49.433v117.674z" fill="#7be2f6"/><path d="m170.379 206.566v98.868l85.621 49.433 18.517-47.457-18.517-51.41z" fill="#7be2f6"/><path d="m256 256v98.867l85.621-49.433v-98.868z" fill="#29cce8"/></g></g></svg>