<svg clip-rule="evenodd" fill-rule="evenodd" height="128" image-rendering="optimizeQuality" shape-rendering="geometricPrecision" text-rendering="geometricPrecision" viewBox="0 0 188107 211585" width="114" xmlns="http://www.w3.org/2000/svg"><g id="Layer_x0020_1"><g id="_329339896"><path d="m103366 2564 75430 43551c5921 3420 9311 9291 9311 16129v87097c0 6838-3390 12709-9311 16128l-75430 43551c-5922 3420-12702 3420-18625 0l-75430-43551c-5921-3419-9311-9290-9311-16128v-87097c0-6838 3390-12709 9311-16129l75430-43551c5923-3419 12703-3419 18625 0z" fill="#154e5e"/><path d="m80888 62476 29460 26514 54498-65299-17129-4921 40390-18770-6935 42471-9270-13504-62039 85926-28488-25655-80403 73034z" fill="#53b4ed"/><g fill="#e5e9ec"><path d="m28186 43909h59903v1559h-59903z"/><path d="m28186 52503h46525v1559h-46525z"/><path d="m28186 61096h30163v1559h-30163z"/></g><path d="m19150 43277h3464v2824h-3464z" fill="#63ceac"/><path d="m19150 51870h3464v2824h-3464z" fill="#fac94b"/><path d="m19150 60464h3464v2824h-3464z" fill="#53b4ed"/><g><path d="m116996 140402h12801v53358l-12801 7391z" fill="#ff576b"/><path d="m136049 164969h12801v17791l-12801 7390z" fill="#53b4ed"/><path d="m155101 122864h12801v48896l-12801 7390z" fill="#ffc42e"/><path d="m174153 86596h12801v69356c-1459 3953-4260 7266-8158 9518l-4643 2680z" fill="#72cf7b"/></g><path d="m28185 69690h39088v1559h-39088z" fill="#e5e9ec"/><path d="m22614 69057h-3464v2824h3464z" fill="#ff576b"/><g><g><path d="m54096 134152h44674v12635h-44674z" fill="#f0b00e"/><path d="m52900 134153h47066v4721h-47066z" fill="#ffc42e"/><path d="m54096 142065h44674v12635h-44674z" fill="#f0b00e"/><path d="m52900 142065h47066v4722h-47066z" fill="#ffc42e"/><path d="m54096 149979h44674v12634h-44674z" fill="#f0b00e"/><path d="m52900 149979h47066v4720h-47066z" fill="#ffc42e"/><path d="m54096 157891h44674v12635h-44674z" fill="#f0b00e"/><path d="m52900 157892h47066v4721h-47066z" fill="#ffc42e"/><path d="m54096 165805h44674v12634h-44674z" fill="#f0b00e"/><path d="m52900 165805h47066v4721h-47066z" fill="#ffc42e"/><path d="m54096 173717h44674v12634h-44674z" fill="#f0b00e"/><path d="m52900 173718h47066v4720h-47066z" fill="#ffc42e"/><path d="m54096 181630h44674v12635h-39585l-5089-2938z" fill="#f0b00e"/><path d="m52900 181630h47066v4721h-47066z" fill="#ffc42e"/><path d="m54096 189544h44674v12634h-25879l-18795-10851z" fill="#f0b00e"/><path d="m52900 189544h47066v4721h-40781l-6285-3629z" fill="#ffc42e"/><path d="m64713 197456h34057v12634h-11891c-723-309-1436-665-2138-1070z" fill="#f0b00e"/><path d="m64714 197457h35252v4720h-27077z" fill="#ffc42e"/><path d="m78418 205370h20352v5579c-1555 423-3135 636-4716 636h-1c-3175 0-6350-856-9312-2565z" fill="#f0b00e"/><path d="m78418 205370h21548v4720h-13087c-723-309-1436-665-2138-1070z" fill="#ffc42e"/></g><g><path d="m133 86674h44673v12634h-44673z" fill="#f0b00e"/><path d="m0 86674h46002v4721h-46002z" fill="#ffc42e"/><path d="m133 94587h44673v12635h-44673z" fill="#f0b00e"/><path d="m0 94588h46002v4720h-46002z" fill="#ffc42e"/><path d="m133 102500h44673v12635h-44673z" fill="#f0b00e"/><path d="m0 102500h46002v4722h-46002z" fill="#ffc42e"/><path d="m133 110413h44673v12635h-44673z" fill="#f0b00e"/><path d="m0 110414h46002v4720h-46002z" fill="#ffc42e"/><path d="m133 118326h44673v12635h-44673z" fill="#f0b00e"/><path d="m0 118326h46002v4722h-46002z" fill="#ffc42e"/><path d="m133 126239h44673v12635h-44673z" fill="#f0b00e"/><path d="m0 126239h46002v4722h-46002z" fill="#ffc42e"/><path d="m133 134152h44673v12635h-44673z" fill="#f0b00e"/><path d="m0 134153h46002v4721h-46002z" fill="#ffc42e"/><path d="m133 142065h44673v12635h-44063c-284-984-489-2003-610-3050z" fill="#f0b00e"/><path d="m0 142065h46002v4722h-46002z" fill="#ffc42e"/><path d="m133 149979h44673v12634h-39300c-3011-2913-4879-6701-5373-10963z" fill="#f0b00e"/><path d="m10 149979h45992v4720h-45260c-433-1500-681-3080-732-4720z" fill="#ffc42e"/><path d="m2003 157891h42803v12635h-26738l-8756-5056c-3243-1872-5726-4480-7309-7579z" fill="#f0b00e"/><path d="m2003 157892h43999v4721h-40496c-1436-1390-2612-2978-3503-4721z" fill="#ffc42e"/><path d="m9891 165805h34915v12634h-13031z" fill="#f0b00e"/><path d="m9891 165805h36111v4721h-27934z" fill="#ffc42e"/><path d="m23596 173717h21210v12246z" fill="#f0b00e"/><path d="m23597 173718h22405v4720h-14229z" fill="#ffc42e"/><path d="m37302 181630h7504v4333z" fill="#f0b00e"/><path d="m37302 181630h8700v4721h-524z" fill="#ffc42e"/></g></g></g></g></svg>