<svg id="Layer_1" enable-background="new 0 0 66 66" viewBox="0 0 66 66" xmlns="http://www.w3.org/2000/svg"><g><path d="m55.3576736 34.5210571c-.7635765.4262123-1.7192497.6603279-2.5368538.9736824-4.4241867 1.6964378-8.8483772 3.3940811-13.2737656 5.0905113-.0768394.1044579-.1512756.2113075-.2257118.3205643-.5078468.7539673-.937664 1.5967865-1.257019 2.4384041-1.4227066 3.7542534-2.8454056 7.5085106-4.2705116 11.2627716l.4562263 1.9461555-1.485817.6821251c-.0941544.0432243-.1824493.097435-.2714539.1504669-.0690994.0411758-.1440697.0686569-.2249107.0774612-.0360184.0024033-.0744362.0024033-.1128578-.0012016-.4922409-.0516243-.8200073-.9988937-.9844875-1.3710747-.559473-1.255825-.9652748-2.5788727-1.4935398-3.8479042-1.5043392-3.612587-2.6593094-7.0414848-3.9199333-10.514801-.1092587-.3025513-.3085537-.5726852-.5558758-.8091965-.3865948-.3697853-.8896446-.6579247-1.3494663-.8644295-.7527752-.337368-1.6484203-.6207047-2.4155941-.9244614-4.1408539-1.6412086-8.1916561-2.8910217-12.0191488-4.4998207-.2389174-.1008453-.4658318-.2797394-.5462694-.5258598-.0276108-.0816422-.0336123-.1668854-.0228109-.2521248.0240135-.1824913.1284637-.3577805.2653332-.4850426.2016993-.1848907 2.0986357-1.0024948 2.0986357-1.0024948l.0444212.0792389 11.9963388-4.5490456c.6699257-.2545261 1.4851341-.551075 1.9989834-1.0589237.1728859-.1692886.3121586-.3637848.3997993-.588295 1.9017372-4.8575974 3.448103-9.1605282 5.1529465-14.0877628.1524773-.4418173.2377148-.8043985.4334126-1.199399.1884937-.3853855.5462761-.619503.8716316-.720356l1.8225021-.8812313.3769875 1.9557638-1.1333618.1032572c-.0000458.0000763-.0000572.0000925-.0001068.0001698 1.8685074 5.0477858 3.8675842 10.0520582 5.7365494 15.0996923.0600281.1608829.1524696.300148.2677307.4226112.2941437.3133526.7359619.5138512 1.1477661.6627293 4.6907196 1.7048378 9.3814392 3.4096832 14.0721626 5.1145287.2965431.1080551.5978928.2185059.8488197.4105988.2281075.1740875.3997917.4526253.4370117.7239609.0348205.2605286-.0516282.5150528-.3277627.6687317z" fill="#d18b00"/><path d="m41.1618538 26.0304565-6.9118156 6.9118195v-23.5976696c.0192032.0047998.0372162.0108013.0564232.0168104.3457718.120059.5786858.5030489.7407722.8740282.0456238.1020546.0852356.2041025.12006.2989464 1.8657188 5.0388956 3.8611031 10.034565 5.7268257 15.0734539.060028.160881.1524772.300148.2677345.4226112z" fill="#ffb905"/><path d="m34.2500381 9.3446064v23.5976696l-7.0162716-7.0162716c.1728859-.169281.312151-.3637753.3997993-.5882931 1.9017372-4.8575974 3.448103-9.1605282 5.1529484-14.0877628.1524773-.4418182.2377129-.8043995.4334106-1.1993923.2173082-.4430189.630314-.8008013 1.0301133-.7059498z" fill="#fed821"/><path d="m34.2500381 32.942276h-23.4199838c.0240126-.1824951.1284637-.3577766.2653332-.4850388.2016993-.1848946.4634275-.2869415.7191544-.382988 4.4734144-1.6964417 8.9468279-3.3928795 13.4202337-5.0893192.6699333-.2545261 1.4851341-.5510769 1.998991-1.0589256z" fill="#fed821"/><path d="m34.2500229 32.9422607c-1.3027039-1.0360374-2.503027-2.1744843-3.679285-3.3369675-1.1632519-1.1754894-2.3017864-2.3756962-3.3369675-3.679287 1.3035622 1.035181 2.5037975 2.1737156 3.679287 3.3369961 1.1624812 1.1762601 2.300928 2.3765546 3.3369655 3.6792584z" fill="#fff"/><path d="m34.2500381 32.942276-7.0666943 7.0666924c-.3865948-.3697777-.8896446-.6579247-1.3494663-.8644295-.7527752-.337368-1.6484203-.6207047-2.4156017-.9244499-2.2643185-.8968506-4.5010242-1.6772346-6.6885033-2.463623-1.8140945-.6519203-3.5957794-1.3074455-5.3306379-2.0362091-.2389174-.1008453-.4658318-.2797318-.5462694-.5258598-.0276108-.0816383-.0336199-.1668777-.0228109-.252121h23.4199838z" fill="#e8a000"/><path d="m34.2500381 32.942276v23.6108704c-.0360184.0024033-.0744362.0024033-.1128578-.001194-.4922409-.0516243-.8200073-.9988937-.9844894-1.3710823-.5594711-1.2558174-.9652748-2.5788727-1.4935379-3.8479004-1.5043392-3.6125832-2.6593113-7.0414772-3.9199333-10.514801-.1092587-.3025475-.3085537-.5726814-.5558758-.8092003z" fill="#ffb905"/><path d="m41.303524 39.9957619c-.5078468.7539787-.937664 1.5967903-1.2570229 2.4384079-1.66642 4.3965721-3.3328438 8.7931442-5.0004692 13.1897202-.1272621.3349686-.3745842.8848381-.7959938.9292564v-23.6108704z" fill="#e8a000"/><path d="m57.3398552 33.6110077c-.7635765.4262085-1.7192497.6603241-2.5368538.9736786-4.4241943 1.6964378-8.8483772 3.3940811-13.2737656 5.090519-.0768394.104454-.1512756.2113075-.2257118.3205566l-7.0534859-7.0534859h23.4175797c.0348129.2605248-.0516281.5150528-.3277626.6687317z" fill="#e8a000"/><path d="m41.3035278 39.9957657c-1.3089104-1.0422478-2.5154457-2.1869011-3.6979103-3.3555946-1.1694603-1.1816978-2.3142052-2.3881111-3.3555946-3.6979103 1.3097992 1.0413895 2.5162163 2.1861305 3.6979141 3.3556213 1.1686897 1.1824379 2.3133469 2.3889694 3.3555908 3.6978836z" fill="#fff"/><path d="m57.6676178 32.942276h-23.4175797l6.9118156-6.9118195c.2941475.3133526.7359657.5138569 1.1477699.6627293 4.6907196 1.7048454 9.3814392 3.4096813 14.072155 5.1145267.2965508.108057.5979004.2185097.8488197.4106064.2281152.1740837.3997995.4526215.4370195.7239571z" fill="#fed821"/><path d="m62.7861786 16.0031261c-.3999748.2232571-.9005775.345892-1.3288536.5100327-2.3174744.888628-4.6349525 1.7778873-6.9530602 2.6665115-.0402489.054718-.0792389.1106853-.1182289.1679173-.2660217.3949432-.491169.8364296-.6584511 1.2772846-.7452431 1.9665508-1.4904823 3.9331055-2.2369804 5.8996601l.2389793 1.0194359-.7782974.3573093c-.0493202.0226421-.0955734.0510387-.1421928.0788193-.0361977.0215683-.07547.035965-.1178169.040575-.0188637.0012589-.03899.0012589-.0591164-.0006294-.257843-.0270424-.4295349-.523241-.5156937-.7181969-.2930603-.6578255-.5056305-1.3508644-.7823448-2.0156059-.788002-1.8923454-1.3929977-3.6884689-2.0533371-5.5078602-.0572319-.1584835-.1616287-.299984-.2911797-.4238739-.202507-.1937008-.466011-.3446331-.7068748-.4528065-.3943214-.1767178-.8634758-.3251362-1.2653389-.4842491-2.1690598-.8596973-4.2909508-1.5143757-6.2958641-2.3570957-.1251526-.052824-.2440147-.146533-.2861481-.2754564-.0144615-.0427637-.0176086-.0874166-.0119476-.1320658.0125771-.0955935.0672913-.1874132.1389847-.254076.1056557-.0968485 1.099308-.5251255 1.099308-.5251255l.0232697.0415058 6.2839165-2.3828793c.3509216-.1333256.7779427-.2886648 1.0471077-.5546856.0905609-.0886765.1635132-.1905565.2094231-.3081598.9961662-2.5445051 1.8061829-4.7984653 2.6992149-7.3794475.0798721-.2314329.1245193-.4213603.2270279-.6282692.0987396-.2018726.2861519-.324508.4565811-.3773367l.9546585-.4616065.1974754 1.0244679-.5936775.0540879c-.0000229.0000403-.0000305.0000489-.0000534.0000892.9787598 2.6441293 2.0259132 5.2654657 3.0049133 7.9095163.0314445.0842733.0798683.1572237.1402435.2213717.1540794.1641407.3855133.269165.601223.3471518 2.4570923.8930273 4.9141846 1.7860584 7.3712769 2.6790895.1553345.0566015.3131866.114459.4446297.2150803.1194878.0911903.2094193.2370949.2289124.3792257.0182418.1364689-.0270425.2697945-.1716882.3502941z" fill="#d18b00"/><path d="m55.3506851 11.5555344-3.6209946 3.6209946v-12.3613158c.0096054.0024035.0192108.0060015.030014.008405.2305107.0804379.364975.3853934.450222.6147034.5894966 1.5919886 1.2041969 3.1767735 1.8128929 4.761559.401001 1.0433159.7995987 2.0866251 1.1873894 3.1347485.0312158.0840425.0792428.1572771.1404763.2209053z" fill="#ffb905"/><path d="m51.7296906 2.8152132v12.3613157l-.5462723-.5462685-3.128746-3.1299486c.0900459-.0876484.1632805-.1896963.2089043-.3073521.9964905-2.5452604 1.8068924-4.7987771 2.6989326-7.3800535.0804443-.2305119.1248665-.4214096.2269135-.627908.1140555-.2317137.330162-.419006.5402679-.369785z" fill="#fed821"/><path d="m51.7296906 15.1765289h-12.2676659c.012001-.0960464.0672302-.1872921.1392632-.2545252.1056519-.0972481.2425232-.150074.3757858-.2005043 2.3435631-.8884354 4.6871223-1.7768774 7.0306778-2.6665144.3505783-.1332636.7779884-.2881451 1.0469208-.5546732l3.128746 3.1299486z" fill="#fed821"/><path d="m51.7295952 15.1761284c-.6831055-.541995-1.3006058-1.1495628-1.9231644-1.7521048-.6027184-.6223793-1.210701-1.2394667-1.7521019-1.9231615.6836624.5414038 1.3007813 1.1493855 1.9231606 1.7521048.6025123.6225567 1.2100792 1.2400875 1.7521057 1.9231615z" fill="#fff"/><path d="m51.7296906 15.1765289-3.7014351 3.7014332c-.2028999-.1933022-.4658318-.3445778-.7071419-.4526272-.3937988-.1764908-.8632278-.3253632-1.2654305-.4850445-.0360184-.0144062-.0720329-.0288124-.1080513-.042017-2.1322556-.8392143-4.2164841-1.4863358-6.1878624-2.3147411-.1248627-.0528269-.2437172-.1464767-.2857437-.2749414-.0144081-.0432196-.0180054-.0876408-.012001-.132062z" fill="#e8a000"/><path d="m51.7295837 15.1761284v12.3678398c-.0188675.0012589-.03899.0012589-.0591164-.0006256-.2578468-.0270405-.4295349-.523241-.5156937-.7182007-.2930641-.6578197-.5056305-1.3508644-.7823448-2.0156059-.788002-1.8923416-1.3930016-3.6884651-2.0533409-5.5078602-.0572319-.1584778-.1616249-.2999802-.2911758-.4238739z" fill="#ffb905"/><path d="m55.4243393 18.8708839c-.2660217.394949-.4911652.8364296-.6584549 1.2772865-.8729019 2.3030109-1.7458076 4.6060219-2.6193428 6.9090347-.0666618.1754646-.1962166.4634953-.4169579.486763v-12.3678397z" fill="#e8a000"/><path d="m63.8244858 15.5264235c-.3999748.2232571-.9005775.345892-1.3288536.5100336-2.3174782.888628-4.6349564 1.7778854-6.9530602 2.6665134-.0402489.0547142-.0792427.1106873-.1182327.1679134l-3.6947556-3.6947556h12.2665901c.0182381.1364699-.0270423.2697946-.171688.3502952z" fill="#e8a000"/><path d="m55.4243431 18.8708763c-.6863251-.5452461-1.3071098-1.1560669-1.9329185-1.7618313-.6059418-.6256313-1.2171745-1.2459993-1.7618294-1.9329166.6869164.5446558 1.3072548 1.1558895 1.932888 1.7618599.605793.6257801 1.2166138 1.2465629 1.7618599 1.932888z" fill="#fff"/><path d="m63.9961739 15.1761284h-12.2665902l3.6205482-3.6205463c.1540794.1641407.3855133.2691689.601223.3471508 2.4570923.8930311 4.9141808 1.7860584 7.3712692 2.6790895.1553421.0566025.3131943.114459.4446297.215085.1194917.0911865.2094231.2370901.2289201.379221z" fill="#fed821"/><path d="m26.3654003 51.1742783c-.3999767.2232552-.9005775.34589-1.3288555.5100327-2.3174744.8886299-4.6349545 1.7778854-6.9530582 2.6665115-.0402508.054718-.0792427.1106834-.1182327.1679153-.2660217.3949432-.4911671.8364296-.6584511 1.2772865-.7452431 1.9665489-1.4904814 3.9331055-2.2369785 5.8996582l.2389793 1.0194359-.7782984.3573112c-.0493212.0226402-.0955725.0510368-.1421938.0788193-.0361958.0215683-.0754681.035965-.1178141.0405731-.0188656.0012589-.038991.0012589-.0591164-.0006294-.2578449-.0270424-.4295359-.5232391-.5156937-.7181969-.2930632-.6578255-.5056305-1.3508644-.7823458-2.0156059-.788003-1.8923454-1.3929987-3.6884689-2.0533381-5.5078583-.0572319-.1584854-.1616268-.299984-.2911787-.4238739-.2025061-.1937027-.466013-.344635-.7068768-.4528084-.3943186-.1767159-.8634748-.3251343-1.265336-.4842491-2.1690607-.8596954-4.2909508-1.5143738-6.295867-2.3570938-.1251495-.0528259-.2440116-.146534-.2861464-.2754555-.0144634-.0427666-.0176071-.0874176-.0119491-.1320686.0125785-.0955925.0672922-.1874123.1389871-.2540741.1056538-.0968475 1.0993066-.5251274 1.0993066-.5251274l.0232687.0415077 6.2839183-2.3828811c.3509207-.1333237.7779427-.288662 1.0471067-.5546837.0905619-.0886765.1635151-.1905594.2094231-.3081627.9961672-2.5445023 1.8061838-4.7984619 2.6992149-7.3794441.0798712-.2314339.1245203-.42136.2270298-.6282692.0987377-.2018738.2861509-.3245087.4565783-.3773384l.9546614-.4616051.1974745 1.0244675-.5936766.0540886c-.0000257.0000381-.0000315.0000458-.0000563.0000877.9787607 2.6441307 2.0259151 5.2654648 3.0049171 7.9095154.0314445.0842743.0798664.1572227.1402416.2213745.1540794.1641388.3855133.269165.601223.3471489 2.4570923.8930283 4.9141827 1.7860603 7.3712749 2.6790886.1553364.0566025.3131886.11446.4446297.2150841.1194878.0911903.2094193.2370911.2289143.3792229.0182401.1364707-.0270423.2697944-.1716861.350296z" fill="#d18b00"/><path d="m18.9297581 46.7269135-3.6209946 3.6197853v-12.3601151c.0096064.0024033.0192137.0060081.030015.0084038.2305193.0804482.3649855.3853951.450222.6147041.7875891 2.1274567 1.6208029 4.2404976 2.4252005 6.3631477.1932945.5102539.3853931 1.020504.5750904 1.5319595.031208.0852433.0792351.1572762.1404667.2221147z" fill="#ffb905"/><path d="m15.3087635 37.9865837v12.3601151l-3.6750154-3.6750145c.090044-.0888443.1632786-.1896973.2089024-.307354.9964905-2.5452614 1.8068914-4.7987747 2.6989393-7.3800545.0804377-.2317123.1248589-.421402.2281084-.6279068.1128559-.2317123.3301629-.420208.5390653-.3697853z" fill="#fed821"/><path d="m15.3087635 50.3466988h-12.2676659c.0120103-.0948448.0672328-.187294.1392729-.2533226.1056528-.0972481.2425151-.150074.3757865-.2005005 2.343554-.8884392 4.6871157-1.7780762 7.0306768-2.6665192.3505707-.1332626.7779818-.288147 1.0469141-.5546722z" fill="#fed821"/><path d="m15.308816 50.347271c-.6831036-.541996-1.3006048-1.1495628-1.9231615-1.7521057-.6027193-.6223488-1.210701-1.2394676-1.7521048-1.9231339.6836653.5414047 1.3007822 1.1493874 1.9231615 1.7520752.6025124.6225586 1.2100801 1.2400894 1.7521048 1.9231644z" fill="#fff"/><path d="m15.3087635 50.3466988-3.7014256 3.7026329c-.2028999-.1944962-.4658308-.3445702-.7071514-.4526253-.3937979-.1776848-.8632269-.3253632-1.2654228-.4850388-.2245178-.0888405-.4478264-.1752892-.6711349-.2605324-1.9365587-.7359581-3.8274937-1.3410606-5.6247787-2.0962334-.1248662-.0528259-.2437239-.1464767-.2857418-.2761345-.0144064-.0420265-.0180118-.0864449-.0120103-.1320686h12.2676655z" fill="#e8a000"/><path d="m15.3088036 50.3472786v12.3678398c-.0188665.0012589-.0389919.0012589-.0591164-.0006256-.2578459-.0270386-.4295359-.5232391-.5156946-.7182007-.2930632-.6578178-.5056295-1.3508644-.7823448-2.0156059-.788003-1.8923416-1.3929996-3.6884651-2.053339-5.5078583-.0572319-.1584778-.1616259-.2999802-.2911787-.4238739z" fill="#ffb905"/><path d="m19.0035591 54.0420341c-.2660217.3949509-.4911671.8364296-.6584549 1.2772865-.8729019 2.3030128-1.7458076 4.6060219-2.6193438 6.9090347-.0666628.1754646-.1962147.4634972-.4169569.486763v-12.3678397z" fill="#e8a000"/><path d="m27.4037056 50.6975746c-.3999767.2232552-.9005775.3458939-1.3288555.5100327-2.3174782.8886299-4.6349545 1.7778854-6.9530582 2.6665154-.0402508.0547142-.0792408.1106873-.1182327.1679115l-3.6947556-3.6947556h12.2665882c.018238.1364708-.0270405.2697945-.1716862.350296z" fill="#e8a000"/><path d="m19.0035648 54.0420494c-.686327-.5452766-1.3071098-1.1560669-1.9329185-1.7618637-.6059418-.6256294-1.2171745-1.2459679-1.7618303-1.9329147.6869173.5446548 1.3072557 1.1558876 1.9328871 1.7618599.6057948.6258087 1.2166137 1.2465629 1.7618617 1.9329185z" fill="#fff"/><path d="m27.5753918 50.3472786h-12.2665882l3.6205463-3.6205444c.1540794.1641388.3855133.2691689.601223.3471489 2.4570923.8930321 4.9141846 1.7860603 7.3712711 2.6790924.1553402.0565987.3131924.1144562.4446297.2150841.1194916.0911865.2094231.237091.2289181.379219z" fill="#fed821"/><g fill="#fff"><path d="m34.2500381 20.1235332c-.5534744 2.2835312-1.4071007 4.4746151-2.6509151 6.4820118-.4646282.7491684-.9832859 1.4635162-1.5487614 2.1370544-1.3902893 1.6592216-3.0663204 3.0771236-4.9224339 4.1996765-2.5488663 1.5427589-5.4374943 2.52845-8.3981552 2.8141899-1.8140945-.6519203-3.5957794-1.3074455-5.3306379-2.0362091-.2389174-.1008453-.4658318-.2797318-.5462694-.5258598-.0276108-.0816383-.0336199-.1668777-.0228109-.252121.0240126-.1824951.1284637-.3577766.2653332-.4850388.2016993-.1848946.4634275-.2869415.7191544-.382988 4.4734144-1.6964417 8.9468279-3.3928795 13.4202337-5.0893192.6699333-.2545261 1.4851341-.5510769 1.998991-1.0589256.1728859-.169281.312151-.3637753.3997993-.5882931 1.9017372-4.8575974 3.448103-9.1605282 5.1529484-14.0877628.1524773-.4418182.2377129-.8043995.4334106-1.1993923.217308-.4430189.6303139-.8008013 1.0301132-.7059498.0192032.0047998.0372162.0108013.0564232.0168104.3457718.120059.5786858.5030489.7407722.8740282.1620751 3.312441-.0228118 6.6909066-.7971954 9.8880883z" opacity=".2"/><path d="m54.0228195 8.1998806c-.4478188 2.0145922-1.1453629 3.9931688-2.293129 5.688406-.1632805.2425222-.3361664.4778414-.5186577.7071514-.0096092.0120106-.019207.0228119-.0276146.0348225-.1512756.1872921-.3085518.3697777-.4730339.5462685-1.2738266 1.3674774-2.9534569 2.3939838-4.7627525 2.7217445-2.1322556-.8392143-4.2164841-1.4863358-6.1878624-2.3147411-.1248627-.0528269-.2437172-.1464767-.2857437-.2749414-.0144081-.0432196-.0180054-.0876408-.012001-.132062.012001-.0960464.0672302-.1872921.1392632-.2545252.1056519-.0972481.2425232-.150074.3757858-.2005043 2.3435631-.8884354 4.6871223-1.7768774 7.0306778-2.6665144.3505783-.1332636.7779884-.2881451 1.0469208-.5546732.0900459-.0876484.1632805-.1896963.2089043-.3073521.9964905-2.5452604 1.8068924-4.7987771 2.6989326-7.3800535.0804443-.2305119.1248665-.4214096.2269135-.627908.1140556-.2317138.330162-.4190061.5402679-.3697851.0096054.0024035.0192108.0060015.030014.008405.2305107.0804379.364975.3853934.450222.6147034.5894966 1.5919886 1.2041969 3.1767735 1.8128929 4.761559z" opacity=".2"/><path d="m18.214201 44.9728394c-.3385677 1.1933899-.8776321 2.3303566-1.6063938 3.3352547-.3865871.5342636-.8224039 1.0289078-1.2990437 1.4803314-.0948439.0912399-.1920919.1800919-.2905416.2677307-.1140575.0984497-.228116.1956978-.3457718.2905426-1.6268024 1.3242569-3.6269884 2.1970825-5.7088213 2.5044365-1.9365587-.7359581-3.8274937-1.3410606-5.6247787-2.0962334-.1248662-.0528259-.2437239-.1464767-.2857418-.2761345-.0144064-.0420265-.0180118-.0864449-.0120103-.1320686.0120103-.0948448.0672328-.187294.1392729-.2533226.1056528-.0972481.2425151-.150074.3757865-.2005005 2.343554-.8884392 4.6871157-1.7780762 7.0306768-2.6665192.3505707-.1332626.7779818-.288147 1.0469141-.5546722.090044-.0888443.1632786-.1896973.2089024-.307354.9964905-2.5452614 1.8068914-4.7987747 2.6989393-7.3800545.0804377-.2317123.1248589-.421402.2281084-.6279068.1128559-.2317123.330163-.420208.5390654-.3697853.0096064.0024033.0192137.0060081.030015.0084038.2305193.0804482.3649855.3853951.450222.6147041.7875888 2.1274567 1.6208026 4.2404976 2.4252002 6.3631478z" opacity=".2"/><g><path d="m26.5905266 32.271553c-.347723-.432806-.6680737-.8315411-.9884262-1.230278.0206623-.021944.0413246-.04389.0619888-.065836.4274979.2824478.7984104.643652 1.2480602.9710617.1471024-1.3726254.2910652-2.7159328.4350281-4.0592403.0340328-.0000267.0680656-.0000534.1021004-.0000801.1434822 1.3408089.2869663 2.6816177.4347153 4.0622902.437212-.3295422.8240643-.6784763 1.242403-.9826622.0226383.0247021.0452766.0494022.067915.0741043-.3198929.3984299-.6397839.7968597-.9902782 1.2334061 1.3751392.1467896 2.7140598.2897072 4.0529823.4326286.0006332.0327454.0012665.0654907.0018997.0982361-1.3323059.1689339-2.6719208.2806778-4.0538101.443306.344738.4285393.6650715.8267403.9933701 1.2348404-.1350632.0285263-.1352386.0287476-.6594887-.3906479-.2063389-.1650696-.4116936-.3313751-.6539192-.5264511-.1481533 1.3817787-.2921448 2.7247353-.4361362 4.0676918-.0341282-.0002251-.0682545-.0004539-.1023808-.000679-.1432648-1.3418274-.2865276-2.683651-.4342918-4.0676155-.4280701.3443146-.8317928.6690445-1.2355156.9937744-.0243797-.0257111-.0487576-.0514183-.0731373-.0771294.3200016-.4012947.6400032-.8025932.9861603-1.2366905-1.377903-.146698-2.713604-.2889061-4.0493069-.4311104-.0009823-.0324745-.0019627-.064949-.0029449-.0974236 1.3312147-.1720771 2.6706084-.2802391 4.0530127-.4454956z"/><path d="m47.5332756 12.8128471c.0684586.6369972.1369209 1.2739935.2099724 1.953702.2131844-.1675301.3992691-.3137646.5853539-.4599991.0144501.0140553.0289001.0281096.0433502.0421648-.1466217.1845093-.2932472.3690186-.4641571.5840902.6857491.0739679 1.3272514.1431637 1.96875.2123594.0007362.0201273.0014687.0402546.0022011.0603828-.6421318.0702391-1.2842674.1404781-1.969326.2154121.1681213.2120819.3154373.3979206.4627533.5837574-.013855.0146809-.0277138.0293598-.0415726.0440407-.1847191-.1454782-.3694382-.2909565-.5866585-.4620323-.0739822.6840668-.1434288 1.3261833-.2128754 1.9682999-.0199509.0009766-.0399017.0019531-.0598526.0029297-.0700073-.6426353-.1400185-1.2852707-.2145195-1.9691315-.2074471.1622677-.3958168.309617-.5841904.4569664-.0137177-.0111618-.0274391-.0223217-.0411606-.0334816.142807-.1858606.2856178-.3717203.4544144-.591403-.674118-.0736685-1.3199005-.1442404-1.965683-.2148123-.0005074-.0198307-.0010147-.0396614-.0015221-.0594921.6408768-.0692415 1.2817535-.1384821 1.973465-.2132149-.1649323-.2076607-.3125572-.393528-.4601822-.5793953.0138893-.0163336.0277786-.0326672.0416679-.0489998.1832237.1461554.3664436.2923107.5817719.4640789.074604-.6832933.1450653-1.3286304.2155266-1.9739676.0208244.0059159.0416489.0118305.0624733.0177452z"/></g></g></g></svg>