<svg id="Capa_1" enable-background="new 0 0 510 510" height="512" viewBox="0 0 510 510" width="512" xmlns="http://www.w3.org/2000/svg" xmlns:xlink="http://www.w3.org/1999/xlink"><linearGradient id="lg1"><stop offset="0" stop-color="#fee45a"/><stop offset="1" stop-color="#fea613"/></linearGradient><linearGradient id="SVGID_1_" gradientUnits="userSpaceOnUse" x1="155.865" x2="381.542" xlink:href="#lg1" y1="27.219" y2="252.897"/><linearGradient id="lg2"><stop offset="0" stop-color="#fea613" stop-opacity="0"/><stop offset="1" stop-color="#e94444"/></linearGradient><linearGradient id="SVGID_2_" gradientUnits="userSpaceOnUse" x1="371.902" x2="80.917" xlink:href="#lg2" y1="126.139" y2="-80.599"/><linearGradient id="SVGID_3_" gradientUnits="userSpaceOnUse" x1="410.321" x2="358.988" xlink:href="#lg2" y1="58.704" y2="108.037"/><linearGradient id="SVGID_4_" gradientUnits="userSpaceOnUse" x1="249.717" x2="249.717" xlink:href="#lg2" y1="79.333" y2="125.411"/><linearGradient id="lg3"><stop offset="0" stop-color="#fedbbd"/><stop offset="1" stop-color="#fd3581"/></linearGradient><linearGradient id="SVGID_5_" gradientUnits="userSpaceOnUse" x1="157.19" x2="245.666" xlink:href="#lg3" y1="-16.899" y2="71.578"/><linearGradient id="SVGID_6_" gradientUnits="userSpaceOnUse" x1="284.304" x2="469.764" xlink:href="#lg1" y1="65.239" y2="250.699"/><linearGradient id="SVGID_7_" gradientUnits="userSpaceOnUse" x1="361.431" x2="361.431" xlink:href="#lg2" y1="74" y2="126.734"/><linearGradient id="SVGID_8_" gradientUnits="userSpaceOnUse" x1="461.842" x2="222.712" xlink:href="#lg2" y1="146.531" y2="-23.366"/><linearGradient id="SVGID_9_" gradientUnits="userSpaceOnUse" x1="492.729" x2="433.396" xlink:href="#lg2" y1="100.765" y2="147.432"/><linearGradient id="SVGID_10_" gradientUnits="userSpaceOnUse" x1="361.431" x2="361.431" xlink:href="#lg2" y1="207.77" y2="249.763"/><linearGradient id="SVGID_11_" gradientUnits="userSpaceOnUse" x1="285.393" x2="358.102" xlink:href="#lg3" y1="28.983" y2="101.693"/><linearGradient id="lg4"><stop offset="0" stop-color="#5a5a5a"/><stop offset="1" stop-color="#444"/></linearGradient><linearGradient id="SVGID_12_" gradientUnits="userSpaceOnUse" x1="223.738" x2="223.738" xlink:href="#lg4" y1="409" y2="476.186"/><linearGradient id="SVGID_13_" gradientUnits="userSpaceOnUse" x1="15.601" x2="52.817" xlink:href="#lg4" y1="29.027" y2="66.243"/><linearGradient id="SVGID_14_" gradientUnits="userSpaceOnUse" x1="153.969" x2="199.71" xlink:href="#lg4" y1="432.31" y2="478.051"/><linearGradient id="SVGID_15_" gradientTransform="matrix(-1 0 0 -1 -3837 -3349)" gradientUnits="userSpaceOnUse" x1="-4033.213" x2="-3995.6" xlink:href="#lg4" y1="-3823.554" y2="-3785.94"/><linearGradient id="lg5"><stop offset="0" stop-color="#433f43" stop-opacity="0"/><stop offset="1" stop-color="#1a1a1a"/></linearGradient><linearGradient id="SVGID_16_" gradientUnits="userSpaceOnUse" x1="234.479" x2="167.137" xlink:href="#lg5" y1="512.819" y2="445.478"/><linearGradient id="lg6"><stop offset="0" stop-color="#eaf6ff"/><stop offset="1" stop-color="#b3dafe"/></linearGradient><linearGradient id="SVGID_17_" gradientUnits="userSpaceOnUse" x1="165.56" x2="193.911" xlink:href="#lg6" y1="443.901" y2="472.252"/><linearGradient id="lg7"><stop offset="0" stop-color="#d8ecfe" stop-opacity="0"/><stop offset="1" stop-color="#678d98"/></linearGradient><linearGradient id="SVGID_18_" gradientUnits="userSpaceOnUse" x1="177.15" x2="177.15" xlink:href="#lg7" y1="461.333" y2="484.355"/><linearGradient id="SVGID_19_" gradientUnits="userSpaceOnUse" x1="338.672" x2="384.413" xlink:href="#lg4" y1="432.31" y2="478.051"/><linearGradient id="SVGID_20_" gradientTransform="matrix(-1 0 0 -1 -3837 -3349)" gradientUnits="userSpaceOnUse" x1="-4217.916" x2="-4180.302" xlink:href="#lg4" y1="-3823.554" y2="-3785.94"/><linearGradient id="SVGID_21_" gradientUnits="userSpaceOnUse" x1="419.181" x2="351.84" xlink:href="#lg5" y1="512.819" y2="445.478"/><linearGradient id="SVGID_22_" gradientUnits="userSpaceOnUse" x1="350.262" x2="378.614" xlink:href="#lg6" y1="443.901" y2="472.252"/><linearGradient id="SVGID_23_" gradientUnits="userSpaceOnUse" x1="361.855" x2="361.855" xlink:href="#lg7" y1="461.333" y2="484.355"/><linearGradient id="lg8"><stop offset="0" stop-color="#8ac9fe"/><stop offset="1" stop-color="#814aa0"/></linearGradient><linearGradient id="SVGID_24_" gradientUnits="userSpaceOnUse" x1="267.825" x2="358.641" xlink:href="#lg8" y1="139.075" y2="476.756"/><linearGradient id="SVGID_25_" gradientTransform="matrix(-1 0 0 1 -3746 0)" gradientUnits="userSpaceOnUse" x1="-4181.365" x2="-4109.757" xlink:href="#lg8" y1="275.049" y2="275.049"/><linearGradient id="SVGID_26_" gradientTransform="matrix(-1 0 0 1 -3746 0)" gradientUnits="userSpaceOnUse" x1="-3925.99" x2="-3854.382" xlink:href="#lg8" y1="275.05" y2="275.05"/><linearGradient id="SVGID_27_" gradientTransform="matrix(-1 0 0 1 -3746 0)" gradientUnits="userSpaceOnUse" x1="-4082.244" x2="-4030.065" xlink:href="#lg8" y1="275.049" y2="275.049"/><linearGradient id="SVGID_28_" gradientTransform="matrix(-1 0 0 1 -3746 0)" gradientUnits="userSpaceOnUse" x1="-4005.682" x2="-3953.503" xlink:href="#lg8" y1="275.049" y2="275.049"/><linearGradient id="lg9"><stop offset="0" stop-color="#5b3374" stop-opacity="0"/><stop offset="1" stop-color="#5b3374"/></linearGradient><linearGradient id="SVGID_29_" gradientUnits="userSpaceOnUse" x1="271.874" x2="271.874" xlink:href="#lg9" y1="331.333" y2="386.016"/><linearGradient id="SVGID_30_" gradientUnits="userSpaceOnUse" x1="271.874" x2="271.874" xlink:href="#lg9" y1="279.644" y2="121.951"/><linearGradient id="SVGID_31_" gradientUnits="userSpaceOnUse" x1="271.874" x2="271.874" xlink:href="#lg8" y1="117.162" y2="170.418"/><g><g><g><g><path d="m380.419 240.565h-261.405c-5.872 0-10.633-4.76-10.633-10.633v-217.721c0-5.872 4.76-10.633 10.633-10.633h261.405c5.872 0 10.633 4.76 10.633 10.633v217.721c0 5.872-4.76 10.633-10.633 10.633z" fill="url(#SVGID_1_)"/><path d="m391.052 12.21v217.723c0 5.87-4.761 10.631-10.631 10.631h-34.696l-171.248-171.249v-67.735h205.945c5.869 0 10.63 4.761 10.63 10.63z" fill="url(#SVGID_2_)"/><path d="m380.419 1.579h-74.27c5.872 0 10.633 4.76 10.633 10.633v217.721c0 5.872-4.76 10.633-10.633 10.633h74.27c5.872 0 10.633-4.761 10.633-10.633v-217.722c0-5.872-4.76-10.632-10.633-10.632z" fill="url(#SVGID_3_)"/><path d="m108.382 66.203v163.729c0 5.872 4.76 10.633 10.633 10.633h261.405c5.872 0 10.633-4.761 10.633-10.633v-163.729z" fill="url(#SVGID_4_)"/></g><path d="m185.39 71.136.209.127c4.779 2.902 10.788 2.853 15.52-.126 4.836-2.92 10.891-2.92 15.726 0 4.836 2.92 10.891 2.92 15.726 0h.001c2.241-1.297 4.721-1.326 7.218-.857 2.848.535 5.494-1.601 5.494-4.499v-62.04c0-2.066-1.675-3.741-3.741-3.741h-65.126c-2.066 0-3.741 1.675-3.741 3.741v61.952c0 2.881 2.62 5.037 5.451 4.507 2.522-.473 5.024-.423 7.263.936z" fill="url(#SVGID_5_)"/></g></g><g><g><g><path d="m468.842 240.565h-214.821c-4.826 0-8.738-3.912-8.738-8.738v-178.922c0-4.826 3.912-8.738 8.738-8.738h214.821c4.826 0 8.738 3.912 8.738 8.738v178.922c0 4.825-3.912 8.738-8.738 8.738z" fill="url(#SVGID_6_)"/><path d="m468.842 240.565h-214.821c-4.826 0-8.738-3.912-8.738-8.738v-178.922c0-4.826 3.912-8.738 8.738-8.738h214.821c4.826 0 8.738 3.912 8.738 8.738v178.922c0 4.825-3.912 8.738-8.738 8.738z" fill="url(#SVGID_7_)"/><path d="m477.58 52.904v178.923c0 4.824-3.913 8.736-8.736 8.736h-28.514l-140.731-140.73v-55.665h169.244c4.824 0 8.737 3.913 8.737 8.736z" fill="url(#SVGID_8_)"/><path d="m468.842 44.167h-61.035c4.826 0 8.738 3.912 8.738 8.738v178.922c0 4.826-3.912 8.738-8.738 8.738h61.035c4.826 0 8.738-3.912 8.738-8.738v-178.922c0-4.826-3.912-8.738-8.738-8.738z" fill="url(#SVGID_9_)"/><path d="m245.283 193.194v38.633c0 4.826 3.912 8.738 8.738 8.738h214.821c4.826 0 8.738-3.912 8.738-8.738v-38.633z" fill="url(#SVGID_10_)"/></g><path d="m308.568 101.329.172.104c3.928 2.385 8.866 2.344 12.754-.104 3.974-2.399 8.95-2.399 12.924 0 3.974 2.399 8.95 2.399 12.924 0h.001c1.842-1.066 3.879-1.09 5.932-.704 2.341.439 4.515-1.316 4.515-3.697v-50.984c0-1.698-1.376-3.074-3.074-3.074h-53.52c-1.698 0-3.074 1.376-3.074 3.074v50.912c0 2.367 2.153 4.14 4.48 3.703 2.069-.388 4.126-.346 5.966.77z" fill="url(#SVGID_11_)"/></g></g><g><path d="m365.988 453.614h-251.297c-26.945 0-48.867-21.922-48.867-48.868 0-26.945 21.922-48.867 48.867-48.867h25.747c8.65 0 15.663 7.012 15.663 15.663 0 8.65-7.013 15.663-15.663 15.663h-25.747c-9.672 0-17.541 7.868-17.541 17.541 0 9.672 7.868 17.541 17.541 17.541h251.297c8.651 0 15.663 7.012 15.663 15.663.001 8.651-7.012 15.664-15.663 15.664z" fill="url(#SVGID_12_)"/><path d="m79.116 147.862c-8.65 0-15.663-7.013-15.663-15.663v-53.083c0-26.351-21.438-47.789-47.789-47.789-8.652 0-15.664-7.013-15.664-15.664 0-8.65 7.012-15.663 15.663-15.663 43.625 0 79.116 35.491 79.116 79.116v53.083c0 8.65-7.012 15.663-15.663 15.663z" fill="url(#SVGID_13_)"/><g><g><circle cx="177.151" cy="455.491" fill="url(#SVGID_14_)" r="54.509"/><circle cx="177.151" cy="455.491" fill="url(#SVGID_15_)" r="44.823"/><path d="m154.967 477.675 31.513 31.513c22.624-3.904 40.464-21.744 44.368-44.368l-31.513-31.513z" fill="url(#SVGID_16_)"/><circle cx="177.151" cy="455.491" fill="url(#SVGID_17_)" r="31.373"/><path d="m208.52 455.49c0 8.03-3.06 16.06-9.19 22.19-12.25 12.25-32.11 12.25-44.36 0-6.13-6.13-9.19-14.16-9.19-22.19z" fill="url(#SVGID_18_)"/></g><g><circle cx="361.853" cy="455.491" fill="url(#SVGID_19_)" r="54.509"/><circle cx="361.853" cy="455.491" fill="url(#SVGID_20_)" r="44.823"/><path d="m339.669 477.675 31.513 31.513c22.624-3.904 40.464-21.744 44.368-44.368l-31.513-31.513z" fill="url(#SVGID_21_)"/><circle cx="361.853" cy="455.491" fill="url(#SVGID_22_)" r="31.373"/><path d="m393.23 455.49c0 8.03-3.07 16.06-9.19 22.19-12.25 12.25-32.12 12.25-44.37 0-6.13-6.13-9.19-14.16-9.19-22.19z" fill="url(#SVGID_23_)"/></g></g><g><g><path d="m399.039 395.97h-254.331c-17.823 0-33.523-11.724-38.585-28.814l-63.093-213.028h457.686l-63.093 213.029c-5.061 17.089-20.761 28.813-38.584 28.813z" fill="url(#SVGID_24_)"/><g><path d="m385.714 367.781c10.274 0 19.446-7.255 21.496-17.717l27.743-141.597c2.329-11.885-5.418-23.407-17.303-25.736-11.882-2.332-23.407 5.418-25.736 17.303l-27.743 141.597c-2.329 11.885 5.418 23.407 17.303 25.736 1.423.279 2.842.414 4.24.414z" fill="url(#SVGID_25_)"/><path d="m158.033 367.781c1.398 0 2.816-.135 4.24-.414 11.885-2.329 19.632-13.85 17.303-25.736l-27.743-141.597c-2.329-11.884-13.85-19.631-25.736-17.303-11.885 2.329-19.632 13.85-17.303 25.736l27.743 141.597c2.05 10.461 11.223 17.717 21.496 17.717z" fill="url(#SVGID_26_)"/><path d="m306.015 367.777c11.523 0 21.186-8.991 21.871-20.643l8.32-141.597c.71-12.089-8.514-22.466-20.605-23.177-12.076-.71-22.466 8.514-23.177 20.605l-8.321 141.597c-.71 12.089 8.515 22.466 20.605 23.177.438.025.874.038 1.307.038z" fill="url(#SVGID_27_)"/><path d="m237.732 367.777c.433 0 .868-.013 1.306-.039 12.09-.71 21.315-11.087 20.605-23.177l-8.321-141.597c-.71-12.09-11.079-21.324-23.177-20.605-12.09.71-21.315 11.087-20.605 23.177l8.32 141.597c.686 11.653 10.35 20.644 21.872 20.644z" fill="url(#SVGID_28_)"/></g><path d="m78.844 275.049 27.28 92.108c5.061 17.089 20.761 28.814 38.585 28.814h254.332c17.823 0 33.523-11.724 38.585-28.814l27.28-92.108z" fill="url(#SVGID_29_)"/></g><path d="m500.722 154.128-63.092 213.034c-5.062 17.079-20.763 28.808-38.594 28.808h-117.05l-237.733-237.732-.013.012-1.216-4.123h457.698z" fill="url(#SVGID_30_)"/><path d="m484.939 162.899h-426.131c-13.841 0-25.061-11.22-25.061-25.061 0-13.841 11.22-25.061 25.061-25.061h426.131c13.841 0 25.061 11.22 25.061 25.061 0 13.84-11.22 25.061-25.061 25.061z" fill="url(#SVGID_31_)"/></g></g></g></svg>