<svg id="Layer_1" enable-background="new 0 0 368 512" height="512" viewBox="0 0 368 512" width="512" xmlns="http://www.w3.org/2000/svg" xmlns:xlink="http://www.w3.org/1999/xlink"><linearGradient id="lg1"><stop offset="0" stop-color="#7b7da1"/><stop offset=".3104" stop-color="#6d6f93"/><stop offset=".8987" stop-color="#494c6d"/><stop offset="1" stop-color="#424566"/></linearGradient><linearGradient id="SVGID_1_" gradientUnits="userSpaceOnUse" x1="21.191" x2="279.368" xlink:href="#lg1" y1="3.009" y2="510.377"/><linearGradient id="lg2"><stop offset="0" stop-color="#a1a4c7"/><stop offset="1" stop-color="#a1a4c7" stop-opacity="0"/></linearGradient><linearGradient id="SVGID_2_" gradientUnits="userSpaceOnUse" x1="15.151" x2="28.47" xlink:href="#lg2" y1="13.62" y2="25.7"/><linearGradient id="lg3"><stop offset="0" stop-color="#32365c"/><stop offset="1" stop-color="#32365c" stop-opacity="0"/></linearGradient><linearGradient id="SVGID_3_" gradientTransform="matrix(-1 0 0 1 -11370.505 0)" gradientUnits="userSpaceOnUse" x1="-11673.414" x2="-11644.651" xlink:href="#lg3" y1="11.204" y2="27.105"/><linearGradient id="SVGID_4_" gradientTransform="matrix(-1 0 0 -1 -11370.505 -12184.479)" gradientUnits="userSpaceOnUse" x1="-11659.354" x2="-11637.594" y1="-12692.409" y2="-12667.778"><stop offset="0" stop-color="#2a2d4d"/><stop offset="1" stop-color="#2a2d4d" stop-opacity="0"/></linearGradient><linearGradient id="SVGID_5_" gradientTransform="matrix(-1 0 0 -1 -11370.505 -12393.233)" gradientUnits="userSpaceOnUse" x1="-11520.432" x2="-11520.432" y1="-12904.835" y2="-12889.292"><stop offset="0" stop-color="#292c4d"/><stop offset="1" stop-color="#292c4d" stop-opacity="0"/></linearGradient><linearGradient id="SVGID_6_" gradientUnits="userSpaceOnUse" x1="-5.11" x2="32.651" xlink:href="#lg2" y1="520.65" y2="482.889"/><linearGradient id="SVGID_7_" gradientTransform="matrix(-1 0 0 1 -11370.505 0)" gradientUnits="userSpaceOnUse" x1="-11669.264" x2="-11651.427" xlink:href="#lg3" y1="256" y2="256"/><linearGradient id="SVGID_8_" gradientUnits="userSpaceOnUse" x1="149.927" x2="149.927" xlink:href="#lg2" y1="-2.637" y2="16.054"/><linearGradient id="SVGID_9_" gradientUnits="userSpaceOnUse" x1="1.096" x2="19.691" xlink:href="#lg2" y1="256" y2="256"/><linearGradient id="SVGID_10_" gradientUnits="userSpaceOnUse" x1="30.36" x2="270.149" y1="21.028" y2="492.259"><stop offset="0" stop-color="#a1ddff"/><stop offset="1" stop-color="#1c83ff"/></linearGradient><linearGradient id="lg4"><stop offset=".00000211276" stop-color="#004ef7"/><stop offset="1" stop-color="#004ef7" stop-opacity="0"/></linearGradient><linearGradient id="SVGID_11_" gradientUnits="userSpaceOnUse" x1="277.11" x2="259.188" xlink:href="#lg4" y1="256" y2="256"/><linearGradient id="SVGID_12_" gradientUnits="userSpaceOnUse" x1="149.927" x2="149.927" xlink:href="#lg4" y1="492.032" y2="473.554"/><linearGradient id="lg5"><stop offset=".00000187801" stop-color="#d6f1ff"/><stop offset="1" stop-color="#d6f1ff" stop-opacity="0"/></linearGradient><linearGradient id="SVGID_13_" gradientUnits="userSpaceOnUse" x1="20.09" x2="40.429" xlink:href="#lg5" y1="256" y2="256"/><linearGradient id="SVGID_14_" gradientUnits="userSpaceOnUse" x1="149.927" x2="149.927" xlink:href="#lg5" y1="20.413" y2="36.444"/><linearGradient id="SVGID_15_" gradientUnits="userSpaceOnUse" x1="149.927" x2="149.927" xlink:href="#lg1" y1="464.18" y2="476.722"/><linearGradient id="lg6"><stop offset="0" stop-color="#9093bd"/><stop offset=".1833" stop-color="#898cb5"/><stop offset=".4669" stop-color="#75789f"/><stop offset=".8134" stop-color="#56597c"/><stop offset="1" stop-color="#424566"/></linearGradient><linearGradient id="SVGID_16_" gradientUnits="userSpaceOnUse" x1="149.927" x2="149.927" xlink:href="#lg6" y1="464.891" y2="475.136"/><linearGradient id="SVGID_17_" gradientUnits="userSpaceOnUse" x1="149.927" x2="149.927" xlink:href="#lg1" y1="31.258" y2="57.954"/><linearGradient id="SVGID_18_" gradientUnits="userSpaceOnUse" x1="149.927" x2="149.927" xlink:href="#lg6" y1="34.05" y2="53.865"/><linearGradient id="SVGID_19_" gradientUnits="userSpaceOnUse" x1="157.235" x2="157.235" y1="38.265" y2="47.018"><stop offset="0" stop-color="#7b7da1"/><stop offset=".6492" stop-color="#575a7c"/><stop offset="1" stop-color="#424566"/></linearGradient><linearGradient id="SVGID_20_" gradientUnits="userSpaceOnUse" x1="117.094" x2="117.094" xlink:href="#lg1" y1="35.6" y2="49.558"/><linearGradient id="SVGID_21_" gradientUnits="userSpaceOnUse" x1="117.094" x2="117.094" xlink:href="#lg6" y1="38.115" y2="49.856"/><linearGradient id="SVGID_22_" gradientUnits="userSpaceOnUse" x1="116.715" x2="118.582" y1="41.402" y2="44.801"><stop offset="0" stop-color="#b8bad9"/><stop offset=".1478" stop-color="#b0b2d1"/><stop offset=".3764" stop-color="#9a9dbc"/><stop offset=".6572" stop-color="#777999"/><stop offset=".977" stop-color="#46496a"/><stop offset="1" stop-color="#424566"/></linearGradient><linearGradient id="lg7"><stop offset="0" stop-color="#9093bd"/><stop offset="1" stop-color="#424566"/></linearGradient><linearGradient id="SVGID_23_" gradientUnits="userSpaceOnUse" x1="293.455" x2="299.764" xlink:href="#lg7" y1="169.87" y2="169.87"/><linearGradient id="SVGID_24_" gradientUnits="userSpaceOnUse" x1="-1.434" x2="3.773" xlink:href="#lg7" y1="164.811" y2="164.811"/><linearGradient id="SVGID_25_" gradientUnits="userSpaceOnUse" x1="166.515" x2="301.26" y1="184.371" y2="319.116"><stop offset=".00000211276" stop-color="#0047e0"/><stop offset="1" stop-color="#0047e0" stop-opacity="0"/></linearGradient><linearGradient id="SVGID_26_" gradientUnits="userSpaceOnUse" x1="95.902" x2="229.152" y1="174.94" y2="308.19"><stop offset="0" stop-color="#d1d8e5"/><stop offset=".3031" stop-color="#b6c1d4"/><stop offset="1" stop-color="#7c8eb0"/></linearGradient><linearGradient id="SVGID_27_" gradientUnits="userSpaceOnUse" x1="188.252" x2="188.252" y1="301.42" y2="287.356"><stop offset=".00000187801" stop-color="#6a7996"/><stop offset="1" stop-color="#6a7996" stop-opacity="0"/></linearGradient><linearGradient id="lg8"><stop offset=".8167" stop-color="#e2e9f7" stop-opacity="0"/><stop offset="1" stop-color="#e2e9f7"/></linearGradient><radialGradient id="SVGID_28_" cx="135.058" cy="235.928" gradientTransform="matrix(.704 .71 -.662 .656 219.609 -17.141)" gradientUnits="userSpaceOnUse" r="83.239" xlink:href="#lg8"/><linearGradient id="SVGID_29_" gradientUnits="userSpaceOnUse" x1="198.745" x2="341.949" y1="131.577" y2="274.781"><stop offset="0" stop-color="#d1d8e5"/><stop offset="1" stop-color="#7c8eb0"/></linearGradient><radialGradient id="SVGID_30_" cx="242.065" cy="200.083" gradientTransform="matrix(1 .005 -.005 1 24.587 -3.081)" gradientUnits="userSpaceOnUse" r="105.522"><stop offset=".7889" stop-color="#6a7996" stop-opacity="0"/><stop offset="1" stop-color="#6a7996"/></radialGradient><radialGradient id="SVGID_31_" cx="252.065" cy="210.084" gradientTransform="matrix(1 .005 -.005 1 24.587 -3.081)" gradientUnits="userSpaceOnUse" r="105.522" xlink:href="#lg8"/><linearGradient id="SVGID_32_" gradientUnits="userSpaceOnUse" x1="212.213" x2="248.54" y1="314.047" y2="401.687"><stop offset="0" stop-color="#e0eeff"/><stop offset=".2217" stop-color="#d3e7ff"/><stop offset=".6271" stop-color="#b2d4ff"/><stop offset="1" stop-color="#8ebfff"/></linearGradient><g><g><g><path d="m51.5 512c-26.6 0-48.2-21.6-48.2-48.2v-415.6c0-26.6 21.6-48.2 48.2-48.2h196.9c26.6 0 48.2 21.6 48.2 48.2v415.7c0 26.6-21.6 48.2-48.2 48.2h-196.9z" fill="url(#SVGID_1_)"/><g><path d="m70.1 66.4v-66.4h-18.6c-26.6 0-48.2 21.6-48.2 48.2v18.3h66.8z" fill="url(#SVGID_2_)"/><path d="m229.7 66.4v-66.4h18.6c26.6 0 48.2 21.6 48.2 48.2v18.3h-66.8z" fill="url(#SVGID_3_)"/><path d="m229.7 445.6v66.4h18.6c26.6 0 48.2-21.6 48.2-48.2v-18.3h-66.8z" fill="url(#SVGID_4_)"/><path d="m3.3 461.5v2.3c0 26.6 21.6 48.2 48.2 48.2h196.9c26.6 0 48.2-21.6 48.2-48.2v-2.3z" fill="url(#SVGID_5_)"/><path d="m70.1 445.6v66.4h-18.6c-26.6 0-48.2-21.6-48.2-48.2v-18.3h66.8z" fill="url(#SVGID_6_)"/><path d="m269.9 5.1c15.7 7.9 26.6 24.2 26.6 43v415.7c0 18.8-10.8 35.1-26.6 43z" fill="url(#SVGID_7_)"/><path d="m296.5 50.5v-2.3c0-26.6-21.6-48.2-48.2-48.2h-196.8c-26.6 0-48.2 21.6-48.2 48.2v2.3z" fill="url(#SVGID_8_)"/><path d="m29.9 5.1c-15.7 7.9-26.6 24.3-26.6 43.1v415.7c0 18.8 10.8 35.1 26.6 43z" fill="url(#SVGID_9_)"/></g></g><g><path d="m276.7 463.8c0 15.7-12.7 28.3-28.3 28.3h-196.9c-15.7 0-28.3-12.7-28.3-28.3v-415.6c0-15.7 12.7-28.3 28.3-28.3h196.9c15.7 0 28.3 12.7 28.3 28.3z" fill="url(#SVGID_10_)"/><g><path d="m248.4 19.8h-14.4v472.4h14.3c15.7 0 28.3-12.7 28.3-28.3v-415.7c.1-15.7-12.6-28.4-28.2-28.4z" fill="url(#SVGID_11_)"/><path d="m23.2 455.4v8.5c0 15.7 12.7 28.3 28.3 28.3h196.9c15.7 0 28.3-12.7 28.3-28.3v-8.5z" fill="url(#SVGID_12_)"/><path d="m51.5 492.2h14.3v-472.4h-14.3c-15.7 0-28.3 12.7-28.3 28.3v415.7c0 15.7 12.6 28.4 28.3 28.4z" fill="url(#SVGID_13_)"/><path d="m276.7 64.4v-16.2c0-15.7-12.7-28.3-28.3-28.3h-196.9c-15.7 0-28.3 12.7-28.3 28.3v16.2z" fill="url(#SVGID_14_)"/></g></g><g><g><path d="m197.4 476.5h-94.9c-3.5 0-6.3-2.8-6.3-6.3s2.8-6.3 6.3-6.3h94.9c3.5 0 6.3 2.8 6.3 6.3s-2.8 6.3-6.3 6.3z" fill="url(#SVGID_15_)"/><path d="m102.5 473.5c-1.9 0-3.4-1.5-3.4-3.4s1.5-3.4 3.4-3.4h94.9c1.9 0 3.4 1.5 3.4 3.4s-1.5 3.4-3.4 3.4z" fill="url(#SVGID_16_)"/></g><g><path d="m183.2 53.6h-66.5c-6.4 0-11.5-5.2-11.5-11.5 0-6.4 5.2-11.5 11.5-11.5h66.5c6.4 0 11.5 5.2 11.5 11.5 0 6.4-5.2 11.5-11.5 11.5z" fill="url(#SVGID_17_)"/><path d="m116.7 50.7c-4.7 0-8.6-3.8-8.6-8.6 0-4.7 3.8-8.6 8.6-8.6h66.5c4.7 0 8.6 3.8 8.6 8.6 0 4.7-3.8 8.6-8.6 8.6z" fill="url(#SVGID_18_)"/><path d="m131.3 44.7c-1.4 0-2.6-1.1-2.6-2.6s1.1-2.6 2.6-2.6h51.8c1.4 0 2.6 1.1 2.6 2.6s-1.1 2.6-2.6 2.6z" fill="url(#SVGID_19_)"/><g><circle cx="117.1" cy="42.1" fill="url(#SVGID_20_)" r="6.1"/><circle cx="117.1" cy="42.1" fill="url(#SVGID_21_)" r="3.8"/><circle cx="117.1" cy="42.1" fill="url(#SVGID_22_)" r=".6"/></g></g></g><path d="m296.6 140-.1 59.7h.1c1.8 0 3.3-1.5 3.3-3.3v-53.1c0-1.8-1.5-3.3-3.3-3.3z" fill="url(#SVGID_23_)"/><path d="m3.3 162.8v-32.9c-1.8 0-3.3 1.5-3.3 3.3v26.2c0 1.9 1.5 3.4 3.3 3.4zm0 36.9v-32.9c-1.8 0-3.3 1.5-3.3 3.3v26.2c0 1.9 1.5 3.4 3.3 3.4z" fill="url(#SVGID_24_)"/></g><path d="m270.9 105.8c-39-.2-72.8 22.6-88.5 55.6-9.3-4.4-19.7-6.8-30.6-6.9-40.2-.2-73 32.3-73.2 72.5-.1 21.4 9.1 40.7 23.7 54.1 1.4 1.5 66.6 66.7 66.8 66.9l17.1 43.7c.8 2 2.4 3.5 4.3 4.1 0 0 49.4 50 82.2 82.7 2.6-4.3 4.1-9.3 4.1-14.7v-357.8c-2-.2-4-.2-5.9-.2z" fill="url(#SVGID_25_)"/><g><g><g><path d="m172.9 202.8c.1-14.8 3.4-28.9 9.4-41.4-9.3-4.4-19.7-6.8-30.6-6.9-40.2-.2-73 32.3-73.2 72.5s32.3 73 72.5 73.2l118.9.6c-53.8-.3-97.2-44.1-97-98z" fill="url(#SVGID_26_)"/><path d="m106.5 284.8c12.3 9.6 27.7 15.4 44.5 15.5l118.9.6c-19.3-.1-37.2-5.8-52.3-15.5z" fill="url(#SVGID_27_)"/><g><circle cx="151.4" cy="227.4" fill="url(#SVGID_28_)" r="72.9"/></g></g><g><circle cx="270.4" cy="203.3" fill="url(#SVGID_29_)" r="97.5"/><circle cx="270.4" cy="203.3" fill="url(#SVGID_30_)" r="97.5"/><circle cx="270.4" cy="203.3" fill="url(#SVGID_31_)" r="97.5"/></g></g><path d="m192.7 396.2c-2.8 0-5.5-1.7-6.6-4.5l-24.7-63.3c-1.4-3.7.4-7.8 4-9.2 3.7-1.4 7.8.4 9.2 4l24.7 63.3c1.4 3.7-.4 7.8-4 9.2-.8.4-1.7.5-2.6.5zm88.3-36.2c3.7-1.4 5.5-5.6 4-9.2l-10.8-27.6c-1.4-3.7-5.6-5.5-9.2-4-3.7 1.4-5.5 5.6-4 9.2l10.8 27.6c1.1 2.8 3.8 4.5 6.6 4.5.9 0 1.8-.1 2.6-.5zm-35.5 45.7c3.7-1.4 5.5-5.6 4-9.2l-28.6-73.3c-1.4-3.7-5.6-5.5-9.2-4-3.7 1.4-5.5 5.6-4 9.2l28.6 73.3c1.1 2.8 3.8 4.5 6.6 4.5.8 0 1.7-.1 2.6-.5z" fill="url(#SVGID_32_)"/></g></g></svg>