<svg id="Layer_1" enable-background="new 0 0 32 32" viewBox="0 0 32 32" xmlns="http://www.w3.org/2000/svg"><g fill="#dcf5f9"><path d="m11.222 23.956c.094.037.183.087.261.151l3.517 2.812v-9.187l-7.957 4.594z"/><path d="m11.222 8.044-4.179 1.63 7.957 4.594v-9.187l-3.517 2.813c-.078.063-.167.114-.261.15z"/><path d="m20.777 8.044c-.095-.037-.183-.087-.262-.151l-3.515-2.812v9.187l7.957-4.594z"/><path d="m6.04 20.596 7.96-4.596-7.96-4.596.679 4.445c.015.1.015.202 0 .302z"/><path d="m25.96 11.405-7.96 4.595 7.96 4.595-.679-4.445c-.016-.1-.016-.202 0-.302z"/><path d="m17 26.919 3.516-2.813c.079-.063.167-.114.262-.151l4.18-1.63-7.958-4.593z"/></g><path d="m27.626 8.568-5.979-2.332-5.022-4.018c-.365-.292-.884-.292-1.249 0l-5.022 4.018-5.98 2.332c-.436.17-.696.62-.625 1.083l.969 6.349-.97 6.349c-.07.462.189.913.625 1.083l5.979 2.332 5.022 4.018c.184.145.405.218.626.218s.442-.073.625-.219l5.022-4.018 5.979-2.332c.437-.17.696-.62.625-1.083l-.97-6.348.97-6.349c.071-.463-.188-.913-.625-1.083zm-21.586 2.836 7.96 4.596-7.96 4.596.679-4.445c.015-.1.015-.202 0-.302zm8.96 15.515-3.517-2.813c-.079-.063-.167-.114-.261-.151l-4.179-1.63 7.957-4.593zm0-12.651-7.957-4.594 4.179-1.63c.094-.037.183-.087.261-.151l3.517-2.812zm2-9.187 3.516 2.813c.079.063.167.114.262.151l4.18 1.63-7.958 4.593zm3.777 18.875c-.095.037-.183.087-.262.151l-3.515 2.812v-9.187l7.957 4.594zm5.183-3.361-7.96-4.595 7.96-4.595-.679 4.445c-.016.1-.016.202 0 .302z" fill="#342eaa"/><path d="m22.5 28.237c-.212 0-.423-.067-.6-.199l-5.9-4.416-5.901 4.416c-.32.24-.752.266-1.1.065-.347-.201-.54-.589-.492-.986l.887-7.305-6.786-2.892c-.369-.157-.608-.519-.608-.92s.239-.763.608-.92l6.786-2.892-.887-7.304c-.048-.398.145-.786.492-.987.347-.2.779-.175 1.1.065l5.901 4.416 5.9-4.416c.321-.24.755-.265 1.101-.065.347.201.54.589.492.986l-.888 7.305 6.786 2.892c.37.157.609.519.609.92s-.239.763-.608.92l-6.786 2.892.888 7.305c.048.397-.146.786-.492.986-.156.089-.329.134-.502.134zm-16.949-12.237 5.318 2.266c.409.174.654.599.601 1.041l-.695 5.727 4.626-3.462c.355-.266.843-.266 1.198 0l4.626 3.462-.696-5.727c-.053-.442.191-.866.602-1.041l5.318-2.266-5.318-2.266c-.41-.174-.654-.599-.602-1.041l.696-5.727-4.626 3.462c-.355.266-.843.266-1.198 0l-4.626-3.462.695 5.727c.054.442-.191.866-.601 1.041z" fill="#6eb2ea"/></svg>