<svg id="Layer_1" enable-background="new 0 0 53 53" viewBox="0 0 53 53" xmlns="http://www.w3.org/2000/svg"><g><g><g><path d="m7.6065745 37.1695824c.1140356.2576408.1134539.5725899-.0124674.8610229l-1.9368601 4.4143715 7.6358151 4.1538239c2.0795708-1.2838593 3.4726009-2.4014816 2.1881208-2.4290771l2.3403063-6.3124161c.1260052-.2884331.1265869-.6033821.0125523-.8610229-.0380688-.0842361-.0787125-.1677284-.1211014-.250721l-11.8858871-6.465807c.2269912 2.4944057.8396416 4.8133296 1.7795215 6.8898258z" fill="#89a523"/></g><g><path d="m3.295496 47.8276558c-.2301493.5231743-.0413089 1.0286865.3288913 1.2300568l2.4831009 1.3508072c.7370758-.250721 4.5237737-2.1663857 7.1855741-3.8097191l-7.6358151-4.1538239z" fill="#7b9319"/></g><g><path d="m5.7323008 27.5603142c-.0202804.927309.0142131 1.8338375.0947528 2.7194424l11.8858871 6.465807c-1.3730812-2.6890831-4.8885708-4.7548981-4.8134336-8.1881008.0511999-2.3063545.3751869-4.3548393.9394636-6.1768951l-6.3741922-3.4675102c-1.0536662 2.7383917-1.6661506 5.6635473-1.7324777 8.6472567z" fill="#7b9319"/></g><g><path d="m40.1560974 5.9517274-2.483181-1.3508277c-3.2099533-1.7461703-7.0181789-2.4832461-11.1040955-1.9089954-.1899204.0266805-.3805065.0562074-.5715084.0885813-.7428112.1260252-1.475399.29685-2.1977615.5033109l13.3676853 7.2718706c.9890824-.5886099 1.8368683-2.0178158 2.9888611-4.6039397z" fill="#89a523"/></g><g><path d="m31.6552925 9.6606283c.191-.0323744.4001198-.1744823.5715065-.0885811 2.3644943 1.1851349 3.7542 1.6895266 4.9404373.9836197l-13.3676853-7.2718704c-3.9713001 1.1351202-7.6020718 3.4450271-10.5501251 6.5184412l7.1327133 3.8801413c3.0371532-2.0089848 6.8713112-3.2749293 11.2731533-4.0217507z" fill="#7b9319"/></g><g><path d="m20.3821392 13.6823788-7.1327133-3.8801413c-2.4771996 2.5825291-4.4729061 5.7017603-5.7846479 9.1108198l6.3741922 3.4675102c1.1871509-3.8330574 3.4503269-6.6523418 6.543169-8.6981887z" fill="#89a523"/></g></g><g><g><path d="m29.05196 4.0427089c11.7311974-1.6487124 21.1728363 7.5119996 20.7385635 20.3290291-.39505 11.6084671-9.0276031 22.2853394-19.7298374 24.3809166-.3682976.072216-.7346535.1338005-1.0987701.1849747-4.4547005.6260643-8.5808678-.3066177-11.9592152-2.4106903-.1591225-.0985794-.3466091-.13657-.5359917-.1099548-.0733852.0103149-.1469364.0302773-.2191753.0601234l-9.4270897 3.9497604c-.0794926.03302-.1577797.0542831-.2335324.06493-.6495223.0912857-1.1245394-.5943298-.80829-1.3133392l4.2985992-9.7970467c.125968-.2884293.1265535-.6033783.0125446-.8610268-1.27351-2.8137207-1.9517221-6.0701103-1.8742971-9.6092587.2648764-11.9226933 9.2496042-22.9109573 20.2649994-24.779829.1910219-.032373.3815927-.0619002.5714922-.0885887z" fill="#92b62b"/></g><g opacity=".2"><g><g><path d="m47.5142937 24.5408955c-.00597.00037-.0119438.0007381-.018261.0009632-.2912979.0079994-.5339813-.2215042-.5419807-.512804-.0855141-3.0722198-.828331-5.9950829-2.1476479-8.4526348-.1377754-.2568026-.0416183-.5766888.2153511-.7144756.2562561-.1385765.5766907-.0416183.7144775.2153502 1.3968239 2.6014948 2.1826515 5.6867495 2.272583 8.9222479.0079652.2853068-.2117996.5238894-.494522.5413531z" fill="#fff"/></g></g><g><g><path d="m44.0569344 13.8777752c-.1728859.0106792-.3473778-.063982-.4578896-.2137127-.586853-.7969971-1.2489586-1.5342178-1.9674072-2.1913452-.2149963-.1965723-.2299576-.5304127-.0333862-.7454119.1965714-.2150002.530735-.2301455.7454147-.0333872.7692642.7032881 1.4775162 1.4919529 2.1054115 2.3440409.172718.2346592.122509.5650301-.1119766.7379026-.0847397.0625277-.1822777.0958672-.2801666.1019135z" fill="#fff"/></g></g></g></g><g><g><ellipse cx="29.328" cy="27.175" fill="#fff" rx="17.605" ry="15.049" transform="matrix(.478 -.878 .878 .478 -8.559 39.952)"/></g></g><g><g><path d="m44.9956741 24.9721527c-.0169563 9.3417969-7.0404549 17.9005775-15.6978531 19.1159706-4.7764473.6706657-9.0490437-1.0349464-11.9155598-4.2657814 2.178812.9872971 4.6028175 1.535408 7.1595592 1.535408 9.4337883 0 17.0801582-7.4727631 17.0801582-16.6919861 0-6.1688538-3.421566-11.551281-8.5146027-14.4416723 6.8429682.847724 11.9054186 6.8020964 11.8882982 14.7480612z" fill="#f3f2fd"/></g></g><g><g><g><path d="m39.0238838 20.4978313c.4288139-.0602646.8079224.2613258.8069916.7617092l-.0149193 8.0333767c-.000927.4994602-.3801231.9272194-.80793.9873447-.0912628.012825-.1846275.0089493-.2771225-.0145149l-4.8288841-1.2071743.0109673-5.9041901 4.8358879-2.5654697c.0918045-.0486392.1845169-.0783634.2750091-.0910816z" fill="#7b6f69"/></g></g><g><g><path d="m39.8294601 21.2584267-.0133018 8.0332108c0 .5016632-.3787842.9269009-.8073692.9900246-.0929489.0099773-.1860657.0066509-.2790146-.0166073l-4.8273277-1.2059803v-.9667665c.3023758.0697536.6146469.1029892.9369774.1029892 2.4185295 0 4.3753853-1.9601383 4.3753853-4.3754253 0-1.1129475-.4152832-2.1262302-1.0996857-2.8969975l.6346016-.3355503c.0897064-.0465164.1826591-.0764046.2756119-.0897064.428585-.0597992.8073653.2624703.8041228.760809z" fill="#71645e"/></g></g><g><g><g><path d="m20.5417252 21.7159233 11.8077698-1.6594734c.9392891-.1320095 1.6958313.5820007 1.6939545 1.5935421l-.0027962 1.5043411-.0109673 5.9041901-.0027962 1.5066986c-.0018806 1.0115414-.7614708 1.9386311-1.7007599 2.0706387l-11.8077698 1.6594734c-.937273.1317253-1.6959496-.5819855-1.6940708-1.5935249l.0165596-8.9152317c.0018788-1.0115395.7636032-1.9389287 1.7008763-2.070654z" fill="#ff3654"/></g></g><g><g><path d="m34.0434151 21.6504002-.0032463 1.5049706-.0100555 5.9036541-.0032463 1.5049915c-.0034065 1.0132847-.7608109 1.9401875-1.7010345 2.0730839l-11.8073063 1.6578026c-.9368172.1328964-1.6976261-.5813942-1.6943016-1.594677l.0066509-4.1461906c1.269043 1.863802 3.4850426 3.0996704 6.0099087 3.0996704 3.9402294 0 7.1362782-3.0199184 7.1362782-6.7342186 0-1.7541389-.7110081-3.3521423-1.8737984-4.5481472l2.2459297-.3156185c.9400633-.1328984 1.6976279.5813941 1.6942214 1.5946788z" fill="#f9234c"/></g></g></g></g></g></svg>