<svg id="Layer_1" enable-background="new 0 0 64 64" viewBox="0 0 64 64" xmlns="http://www.w3.org/2000/svg"><g><g><path d="m27.58 18.81c1.23 1.97 2.08 4.83 2.07 6.58l.08 2.06c.99.81 1.92 1.51 2.56 2.47.75 1.22-.17 1.77-1.78 1.95-.28.62-.44 1.39-.08 2.09-.75-.05-1.8-.07-2.93-.15.91.5 2.11.89 2.79 1.44.11.16.05.78-.52.7.34.6.59 1.25.76 1.94.41 1.67-.57 2.43-4.97 2.26-.74.1-1.19.54-1.08 1.53.37 1.72-.39 2.1-1.16 2.46-1.19-3.47-4.81-5.67-9.99-6.09l.43-1.76 2.09-.21-.9-4.12.38-7.84 5.22.69.6 4.6 1.12-3.18 1.02-2.11 2.06-4.97z" fill="#fbd984"/><path d="m11.68 37.95v.78c4.98 3.44 11.54 8.74 13.51 8.65-1.3-3.53-3.72-9.68-13.51-9.43z" fill="#f1f3f7"/><path d="m11.22 38.81-.61 3.11c4.19-.6 11.2 4.83 14.1 5.46-3.46-5.32-8.08-9.25-13.49-8.57z" fill="#6691ad"/><path d="m4.3 64h27.18c.26-2.85-2.38-10.78-3.96-13.5-.64-1.11-1.37-2.36-2.34-3.12 0 0 0-.01-.01-.01-.21-.14-.45-.26-.71-.36-.19-.08-.42-.17-.64-.22-2.21-1.82-4.37-3.14-6.47-3.98-2.32-.92-4.58-1.21-6.75-.88v2.42c-1.35-.18-2.16.47-2.1 2.43-1.6 1.24-2.59 2.99-2.49 5.67-1.12 1.83-1.62 5.94-1.71 11.55z" fill="#7da4c3"/><path d="m25.48 19.35c2.73-.02 3.91-.77 3.64-2.62h-1.47l1.69-.8c.24-4.81-14.31-5.13-18.86.99-1.27 1.71-1.92 4.16-2.04 7.26-.83 2.44-.5 5.42.56 7.11 1.01 1.6 1.7 2.78 2.01 3.88.51 2.43 1.34 3.22 2.41 2.14.27-.28.66-.43 1.05-.39 2.56.28 2.74-1.26 1.82-4.31-.76-3.17.22-7.57 1.63-7.44 1.79-.27 2.6 1.73 2.96 4.8 1.04.03 2.08-1.39 2.1-3.23 1.73-2.4 2.69-4.86 2.5-7.39z" fill="#3c3d46"/><g><path d="m20.87 28.92c-.04-1.06-.37-2.11-1.06-2.92-.95-1.12-1.94-1.35-2.7-.9-1.41.9-1.18 3.45.15 4.86 1.1 1.11 2.18 1.39 3.48 1.67.05-1.08.16-1.71.13-2.71z" fill="#fbd984"/><g fill="#e5c06e"><path d="m19.17 27.32s.28-2.52-1.92-1.51c.62.22 1.03.57 1.04 1.18-.06.3-.01.51.22.73.22.21.64.11.66-.4z"/><path d="m20.36 30.12s-.4-1.24-1.2-1.3c0 0-.29.02-.06.49 0 0 .68.61 1.17 1.25 0 0 .18-.04.09-.44z"/></g></g></g><g><path d="m35.66 19.45c7.44.98 13.8.98 21.24 0 1.28-.17 2.29-1.18 2.43-2.46.49-4.58.49-9.2 0-13.79-.14-1.28-1.15-2.3-2.43-2.46-7.44-.98-13.8-.98-21.24 0-1.28.17-2.29 1.18-2.43 2.46-.49 4.58-.49 9.2 0 13.79.14 1.28 1.16 2.29 2.43 2.46z" fill="#5ac8ae"/><path d="m38.12 18.83v6.74l5.7-6.74z" fill="#5ac8ae"/><g fill="#48a087"><path d="m37.44 5.48h17.68v1.38h-17.68z" transform="matrix(-1 0 0 -1 92.57 12.339)"/><path d="m37.44 9.4h17.68v1.38h-17.68z" transform="matrix(-1 0 0 -1 92.57 20.182)"/><path d="m37.44 13.32h17.68v1.38h-17.68z" transform="matrix(-1 0 0 -1 92.57 28.025)"/></g></g></g></svg>