<svg id="Layer_1" enable-background="new 0 0 102 102" viewBox="0 0 102 102" xmlns="http://www.w3.org/2000/svg"><g><g><g><g><g><g><path d="m14.6821289 21.6467648c-.1103516 0-.2001953-.0898438-.2001953-.2001953v-5c0-.1103516.0898438-.2001953.2001953-.2001953s.2001953.0898438.2001953.2001953v5c0 .1103515-.0898437.2001953-.2001953.2001953z" fill="#364f66"/></g></g><g><g><path d="m12.8901367 22.3030148c-.1103516 0-.2001953-.0898438-.2001953-.2001953v-10.656251c0-.1103516.0898438-.2001953.2001953-.2001953s.2001953.0898438.2001953.2001953v10.656251c0 .1103515-.0898437.2001953-.2001953.2001953z" fill="#364f66"/></g></g><g><g><path d="m11.003418 23.1467648c-.1103516 0-.2001953-.0898438-.2001953-.2001953v-8.625001c0-.1103516.0898438-.2001953.2001953-.2001953s.2001953.0898438.2001953.2001953v8.625001c0 .1103515-.0898438.2001953-.2001953.2001953z" fill="#364f66"/></g></g><g><g><path d="m8.987793 23.8547726c-.1103516 0-.2001953-.0898438-.2001953-.2001953v-4.7080078c0-.1103516.0898438-.2001953.2001953-.2001953s.2001953.0898438.2001953.2001953v4.7080078c0 .1103515-.0898438.2001953-.2001953.2001953z" fill="#364f66"/></g></g></g><g><g><path d="m32.1948242 12.3987169c-.0273438 0-.0537109-.0009766-.0800781-.0019531-1.3457031-.0732422-2.2773438-1.9775391-2.3164063-2.0585938-.3134766-.3945313-.6826172-.6113281-1.0751953-.6113281-.0117188 0-.0234375 0-.0361328 0-.9365234.0322266-1.7578125 1.2275391-1.7666016 1.2392578-.0615234.0908203-.1884766.1142578-.2773438.0527344-.0917969-.0615234-.1152344-.1855469-.0527344-.2773438.0380859-.0556641.9453125-1.3759766 2.0839844-1.4140625.0166016-.0009766.0341797-.0009766.0507813-.0009766.5214844 0 .9960938.2695313 1.4111328.8017578.03125.0537109.890625 1.8095703 2.0009766 1.8691406.5380859.0175781 1.1152344-.390625 1.6494141-1.2490234.0585938-.0957031.1806641-.1240234.2753906-.0644531.09375.0585938.1230469.1816406.0644531.2753906-.59375.9560548-1.2441406 1.4394532-1.9316406 1.4394532z" fill="#364f66"/></g></g><g><g><path d="m71.1831055 90.6028214c-.1044922 0-.1923828-.0810547-.1992188-.1875-.0048828-.0673828-.0996094-1.6660156.7744141-2.3964844.4160156-.3466797.9677734-.4345703 1.6464844-.2675781.0585938.0244141 1.8164063.8789063 2.7265625.2451172.4609375-.3212891.640625-.9941406.5332031-1.9990234-.0117188-.1103516.0683594-.2089844.1777344-.2207031.1220703.0019531.2089844.0683594.2207031.1777344.1230469 1.1621094-.1132813 1.9599609-.7041016 2.3701172-1.1044922.7714844-3.0107422-.1601563-3.0917969-.2001953-.5068359-.1191406-.9414063-.0585938-1.2519531.2021484-.7197266.6005859-.6337891 2.0488281-.6328125 2.0634766.0078125.109375-.0761719.2050781-.1865234.2119141-.0039063.0009764-.0087891.0009764-.0126953.0009764z" fill="#364f66"/></g></g><g><g><path d="m91.480957 30.5090694c-.9541016 0-1.7304688-.7763672-1.7304688-1.7314453 0-.9541016.7763672-1.7304688 1.7304688-1.7304688.9550781 0 1.7314453.7763672 1.7314453 1.7304688 0 .9550782-.7763671 1.7314453-1.7314453 1.7314453zm0-3.0615234c-.7333984 0-1.3300781.5966797-1.3300781 1.3300781 0 .734375.5966797 1.3310547 1.3300781 1.3310547.734375 0 1.3310547-.5966797 1.3310547-1.3310547 0-.7333984-.5966797-1.3300781-1.3310547-1.3300781z" fill="#364f66"/></g></g><g><g><g><path d="m85.6030273 74.3918839c-.1103516 0-.2001953-.0898438-.2001953-.2001953v-3.0126953c-.6679688.0078125-2.7509766.0332031-3.1640625-.0039063-.1103516-.0097656-.1914063-.1074219-.1816406-.2167969.0097656-.1103516.1162109-.1962891.2167969-.1816406.4648438.0410156 3.2978516 0 3.3261719-.0009766h.0029297c.0527344 0 .1025391.0205078.140625.0576172.0380859.0380859.0595703.0888672.0595703.1425781v3.2158203c0 .1103516-.0898438.2001954-.2001954.2001954z" fill="#364f66"/></g></g></g></g><g><g><g><path d="m90.3618164 12.7834826c-.1103516 0-.2001953-.0898438-.2001953-.2001953v-3.0126954c-.6689453.0087891-2.75.0351563-3.1650391-.0039063-.109375-.0097656-.1904297-.1074219-.1806641-.2177734.0107422-.109375.0908203-.1933594.2177734-.1806641.4609375.0419922 3.2958984 0 3.3251953-.0009766h.0029297c.0527344 0 .1025391.0205078.140625.0576172.0380859.0380859.0595703.0888672.0595703.1425781v3.2158203c.0000001.1103517-.0898436.2001955-.2001952.2001955z" fill="#364f66"/></g></g></g></g><g><g><g><g><path d="m12.8344727 58.6506691c-.1103516 0-.1992188-.0898438-.2001953-.1992188l-.0214844-7.3818359c-.0058594-.0185547-.0097656-.0380859-.0097656-.0595703l-.0205078-8.9697266c-.0097656-3.8603516 2.7138672-8.5771484 6.0712891-10.5126934l38.517578-22.2382822c.0957031-.0546875.2167969-.0224609.2724609.0732422s.0224609.2177734-.0732422.2724609l-38.5175781 22.2382823c-3.2460938 1.873045-5.8798828 6.4335918-5.8701172 10.1660137l.0205078 8.9111328c.0058594.0185547.0097656.0380859.0097656.0585938l.0214844 7.4404297c0 .1113281-.0888672.2001953-.1992188.2011719-.0009764-.0000001-.0009764-.0000001-.0009764-.0000001z" fill="#364f66"/></g></g><g><g><path d="m21.3608398 98.7414932c-.0214844 0-.0439453-.0039063-.0654297-.0107422l-5.2421875-1.8066406c-1.9716797-.6796875-3.3056641-2.4746094-3.3203125-4.4667969v-.0576172l-.0888671-30.6992225c0-.1113281.0888672-.2001953.1992188-.2011719h.0009766c.1103516 0 .1992188.0898438.2001953.1992188l.0888672 30.7578163c.0126953 1.8212891 1.2382813 3.4648438 3.0507813 4.0888672l4.3720703 1.5068359c-.5195313-.7783203-.6435547-1.9794922-.6435547-3.5517578l5.9677734-51.4541054-3.6298828-.2265625c-.1103516-.0068359-.1933594-.1015625-.1865234-.2119141.1953125-3.1621094 1.2470703-4.8525391 4.0185547-6.4599609l44.1962891-23.9130859c.0800781-.0449219.1816406-.0263672.2431641.0419922.6621094.7373047 1.2060547 1.0195313 1.6230469.8427734 1.2265625-.5195313 1.5058594-4.8300781 1.3154297-7.7900386l-2.6376953-1.5361331c-1.0732422-.6191406-2.5166016-.4707031-4.0595703.4199221l-7.2080078 4.1611323c-.09375.0566406-.2167969.0234375-.2724609-.0732422-.0556641-.0957031-.0224609-.2177734.0732422-.2724609l7.2070313-4.1611328c1.671875-.96875 3.2568359-1.1162109 4.4599609-.4199219l2.7304688 1.589844c.0576172.0332031.0947266.0927734.0986328.1591797.0058594.0742188.4873047 7.4277339-1.5507813 8.2910156-.5654297.2421875-1.2255859-.0400391-1.9697266-.8271484l-44.0537113 23.8359373c-2.5703125 1.4912109-3.5830078 3.0605469-3.8017578 5.9365234l3.6396484.2275391c.0546875.0029297.1054688.0283203.140625.0712891.0351563.0419922.0517578.0966797.0449219.1513672l-5.9902344 51.6406288c.0019531 1.9023438.1972656 3.296875 1.1494141 3.84375.0898438.0517578.125.1630859.0820313.2568359-.0332032.0732422-.1054688.1171875-.1816407.1171875z" fill="#364f66"/></g></g><g><g><g><path d="m20.7054634 98.5415421-2.7287388-1.5879288c-1.0774326-.6267395-1.7427673-1.9541473-1.7463779-3.8448944l-.1512909-50.3624725 13.3161831.8250771-5.9856205 51.6406517c.0036106 1.890747-3.777977 2.7028502-2.704155 3.3295669z" fill="#1c323d"/></g></g></g><g><g><g><path d="m18.8325291 53.3028831-2.7297097-1.5863304 59.8892003-34.5770492 2.7297058 1.5863342z" fill="#fbd46c"/></g></g></g><g><g><g><path d="m18.8325291 53.3028831 59.8891983-34.5770454.1259613 41.3936005c.0107803 3.802372-2.6623077 8.4324036-5.9713898 10.3429031l-47.9095821 27.6606064c-3.3067627 1.9091644-5.9974499.3759079-6.0082302-3.4264603z" fill="#324566"/></g></g></g><g><g><g><path d="m78.8470917 60.1186371c.0104904 3.8026237-2.6618576 8.4326859-5.9715195 10.3445663l-47.9097214 27.6605835c-3.3060513 1.908371-5.9961071.3767395-6.0067654-3.4258804l-.1196575-38.6494904c2.7885666-1.2675552 5.8623524-1.961174 8.918602-2.3308678 4.5349464-.5492706 9.122673-.4471703 13.6753273-.8203888 3.0069084-.2464714 6.6404686-1.2605095 7.2918777-4.2040176.2993164-1.3520584-.1583366-2.7569122-.038681-4.1335983.2217789-2.5104408 2.3732071-4.4997864 4.7357521-5.380024 2.3589363-.8767166 4.9398193-.8907928 7.4572678-1.0351639.6584587-.038723 1.3485527-.0985756 1.904892-.4506683 1.0315285-.654892 1.2498665-2.0703239 1.1372604-3.2885818-.1901474-2.0773506-1.0280914-4.1124706-1.7499886-6.1264458l16.5484772-9.5523472z" fill="#26404f"/></g></g><g><g><path d="m82.690918 57.8313332c-.1103516 0-.1992188-.0888672-.2001953-.1992188l-.0898438-25.8437481c0-.1103516.0888672-.2001953.1992188-.2011719h.0009766c.1103516 0 .1992188.0888672.2001953.1992188l.0898438 25.8437481c0 .1103516-.0888672.2001953-.1992188.2011719-.0009766 0-.0009766 0-.0009766 0z" fill="#364f66"/></g></g><g><g><path d="m82.590332 28.8147335c-.1103516 0-.1992188-.0888672-.2001953-.1992188l-.0263672-7.4013672c0-.1103516.0888672-.2001953.1992188-.2011719h.0009766c.1103516 0 .1992188.0888672.2001953.1992188l.0263672 7.4013672c0 .1103516-.0888672.2001953-.1992188.2011719-.0009766 0-.0009766 0-.0009766 0z" fill="#364f66"/></g></g></g><g><g><g><path d="m76.9492493 5.9170837c.2087173 3.0542717.0182266 10.8714161-3.2780228 7.1979952l-44.1879654 23.9131422c-3.3060513 1.9083519-3.9717312 3.9469948-3.961071 7.7460976l-6.6898117 8.5277367-2.7287388-1.5844269-.0245838-8.9713821c-.0140972-3.7991028 2.6618614-8.4291649 5.9679127-10.337513l47.9097194-27.6606088c1.6654053-.9612134 3.1722946-1.0492373 4.2638245-.4189944z" fill="#d89a1e"/></g></g></g><g><g><g><path d="m72.6858826 6.3345828c3.309082-1.9104981 5.999649-.3771744 6.0104218 3.4226146l.0254211 8.9686403-59.8891964 34.5770454-.0254269-8.9686394c-.0107727-3.7997894 2.6624413-8.4298897 5.9692039-10.3390503z" fill="#fbd46c"/></g></g></g><g><g><g><path d="m78.7202148 18.7263126-59.8878364 34.5757428-.0245838-8.9678574c-.0070496-2.4470673 1.0984058-5.2391777 2.7744694-7.4256973 2.8238106-.9083939 5.8518658-1.2288094 8.7918949-1.77808 3.8237095-.711216 7.816412-1.982296 10.2740307-5.0032597.99646-1.2217827 1.6831131-2.6724129 2.6582527-3.9117947 1.5386963-1.9470768 3.792244-3.3202572 6.2321548-3.7885284 2.9716644-.5704136 6.4785194.0211258 8.6545296-2.0844193 1.271019-1.2323341 1.763916-3.1688576 3.2075424-4.2004948 2.087986-1.489356 5.323719-.4964447 7.267292-2.1688976 1.6724548-1.4365549 1.4259186-3.8660212 1.5034561-6.1863174l2.5140076-1.4506311c3.3096619-1.9118748 5.9997177-.3802686 6.0102081 3.4223566z" fill="#f9c539"/></g></g></g><g><g><g><g><g><path d="m24.5004807 40.2823143c1.0961075-.6328392 1.9942856-.138649 1.9978561 1.1207733.0035706 1.259449-.8888245 2.8051987-1.9849319 3.4380379-1.0883598.6283646-1.9788418.1119576-1.9824123-1.1474915-.0035706-1.2594223.8811282-2.7829551 1.9694881-3.4113197z" fill="#d89a1e"/></g></g></g><g><g><g><path d="m25.336832 40.4179382c1.0961075-.6328392 1.9942856-.138649 1.9978561 1.1207733.0035706 1.259449-.8888245 2.8052025-1.9849319 3.4380379-1.0883598.6283646-1.9788418.1119614-1.9824123-1.1474915-.0035706-1.2594222.8811283-2.7829551 1.9694881-3.4113197z" fill="#fff"/></g></g></g></g><g><g><g><g><path d="m30.8712521 36.5963745c1.0961075-.6328354 1.9942837-.138649 1.9978542 1.1207733.0035706 1.2594528-.8888226 2.8052025-1.98493 3.4380379-1.0883617.6283646-1.9788418.1119614-1.9824123-1.1474915-.0035706-1.2594223.8811263-2.7829551 1.9694881-3.4113197z" fill="#d89a1e"/></g></g></g><g><g><g><path d="m31.7076035 36.7319984c1.0961075-.6328354 1.9942856-.138649 1.9978561 1.1207733.0035706 1.2594528-.8888245 2.8052025-1.9849319 3.4380379-1.0883598.6283684-1.9788418.1119614-1.9824123-1.1474915-.0035706-1.2594184.8811282-2.7829513 1.9694881-3.4113197z" fill="#fff"/></g></g></g></g><g><g><g><g><path d="m37.2420235 32.9104347c1.0961075-.6328354 1.9942856-.1386452 1.9978561 1.1207733.0035706 1.2594528-.8888245 2.8052025-1.9849319 3.4380417-1.0883636.6283646-1.9788437.1119576-1.9824142-1.1474953-.0035706-1.2594184.8811263-2.7829513 1.96949-3.4113197z" fill="#d89a1e"/></g></g></g><g><g><g><path d="m38.078373 33.0460625c1.0961075-.6328392 1.9942856-.138649 1.9978561 1.1207695.0035706 1.2594528-.8888245 2.8052025-1.9849319 3.4380417-1.0883598.6283646-1.9788399.1119576-1.9824104-1.1474915-.0035706-1.2594223.8811263-2.7829552 1.9694862-3.4113197z" fill="#fff"/></g></g></g></g></g></g></g><g><g><g><g><path d="m66.3627472 43.7885246c-4.0051117-2.3257637-5.4085083 20.2386131-11.5288658 23.7708702-12.1687622 7.0285873-11.6692047-.700798-11.6280861 13.2844849.0205574 6.9464569-12.0097847 14.3523865-8.0560722 16.6524506l-2.4938431-1.48555c-3.9537125-2.3000946-6.4079227-7.1877365-6.4284801-14.1341934-.0411167-13.9801407 9.7967854-31.0150795 21.9655437-38.0385246 6.1256256-3.5373993 11.6708527-3.8659897 15.6809731-1.5351219z" fill="#eaad24"/></g></g></g><g><g><g><ellipse cx="50.757" cy="70.644" fill="#fbd46c" rx="31.061" ry="17.992" transform="matrix(.503 -.865 .865 .503 -35.826 79.027)"/></g></g></g><g><g><g><path d="m72.7910767 57.9203262c.044075 13.985939-9.7924919 31.0182877-21.9644699 38.0431137-12.1669502 7.0248566-22.0674782 1.3833923-22.1067657-12.597641-.0196419-7.2995682 2.6542587-15.4379883 6.9470673-22.5413208 4.2338791.2943268 8.4287071.5739517 11.8873901-1.6434021 2.4482422-1.5698051 4.2781944-4.2875099 7.1236191-4.8811035 2.6983337-.5641289 6.2504425.6917114 7.7663383-1.6041183.4072418-.6181145.534687-1.3686867.8144836-2.0505486.833889-2.0603676 2.9632835-3.3652802 5.141552-3.796978.3679504-.0735664.7653732-.1373405 1.1774063-.1912956 2.0261459 2.6588402 3.1987609 6.47052 3.2133789 11.2632942z" fill="#f9c539"/></g></g></g><g><g><g><g><path d="m49.5973434 51.1097374c9.1764526-5.298027 16.6668625-1.0294075 16.6967545 9.5149765.0298843 10.5427589-7.4118805 23.430851-16.5883331 28.728878-9.1749191 5.297142-16.6640205 1.0293961-16.6939125-9.5133667-.029892-10.5443802 7.410572-23.4333458 16.5854911-28.7304878z" fill="#d89a1e"/></g></g></g></g><g><g><g><g><path d="m50.7013626 51.5220985c9.1764526-5.298027 16.6668625-1.0294075 16.6967545 9.5149765.0298843 10.5427589-7.4118805 23.430851-16.5883331 28.728878-9.1749191 5.297142-16.6640205 1.0293961-16.6939125-9.5133667-.029892-10.5443801 7.410572-23.4333457 16.5854911-28.7304878z" fill="#fff"/></g></g></g></g><g><g><g><g><path d="m67.3972168 61.0378075c.0308685 10.5423927-7.410675 23.4297523-16.5870972 28.727459-9.174366 5.2977295-16.6645775 1.0299377-16.6932831-9.5124588-.0110092-3.7042084.9017563-7.7001495 2.486412-11.5524292.8000984.0663147 1.6001968.1016693 2.4024544.0817719 3.1538811-.0795593 6.5840302-1.3106155 7.9985008-4.1285477.7624359-1.5205841.888485-3.394783 2.0553932-4.6324577 2.4068756-2.5527267 7.2647705-.5923157 9.835144-2.9770737 1.9007454-1.7614784 1.4675674-4.8424187 2.1483078-7.3443069 3.8544809 1.2863081 6.338627 5.273403 6.3541681 11.3380431z" fill="#dbe7fe"/></g></g></g></g><g><g><g><g><g><path d="m41.7250786 69.4853973c.8959846-.5172958 1.708416-.8323441 2.4350891-.9412155.2294006-.0384674.3433228.0811234.34412.3626022.0004311.1511612-.0445328.3128738-.1326637.4864502-.0904083.1749039-.2081909.3029404-.3556137.3880539-.0476227.0274963-.1134491.0472336-.1952095.055275-.6358185.1138611-1.2939758.3685379-1.9698715.7587662-.644146.3719025-1.1677284.8151703-1.5706825 1.3297577-.4029617.5119858-.6036606 1.0220642-.6022224 1.530304.0009537.3362045.0969772.5548782.2903481.6546936.1911507.1010971.4320107.1265106.7226982.0761566.2884102-.0490341.683403-.1543884 1.1805038-.3082352.6447105-.1947021 1.1646385-.3173676 1.5620728-.3666992.3951492-.050621.736187.0291977 1.0185013.2421417.2823105.2129364.4244003.637352.4262047 1.2732925.0014915.5264969-.1287804 1.0742188-.3884277 1.6392212-.2596321.5701981-.6261673 1.1055374-1.0973053 1.6125031-.4734154.5082855-1.0197067.9411545-1.6389313 1.2986603-1.0365181.5984344-2.0079575.9347839-2.9142647 1.0064087-.0976563.0093918-.1795197-.019043-.2456017-.0905533-.0638618-.0701523-.0981522-.1652222-.0984993-.2877274-.0004501-.158989.0467796-.3246155.1394196-.4955673.0949135-.172287.2149773-.2990417.3601265-.382843.081707-.0471725.1588554-.0734406.2337799-.0801392.7518692-.0477295 1.5553589-.3210449 2.4104881-.8147507 1.4289474-.8250046 2.1396866-1.7731323 2.1366272-2.8521576-.0008011-.2814865-.0922203-.4636536-.2764778-.5452423-.1842575-.0815811-.4114647-.0966034-.6794281-.0515442-.2702293.048996-.6539154.1425858-1.1510696.2782135-.6629105.1869431-1.196476.3044052-1.6052361.3576584-.4088249.0532913-.7589073-.0213013-1.0547867-.2159653-.2936058-.1959763-.4424744-.5982056-.4442024-1.2080917-.0015144-.5342941.1196175-1.089798.363327-1.6664734.2437744-.5767136.6034126-1.1315689 1.0789795-1.6645813.475624-.5330505 1.0490798-.9920501 1.7182082-1.3783722z" fill="#8fb0d8"/></g></g></g><g><g><g><path d="m54.0936852 64.7852707c.3560066.5593796.5444641 1.3225174.5631104 2.2880936-.0127716 1.1064224-.2391014 2.1951981-.6813927 3.2729111-.4422112 1.0776596-1.0552063 2.0293732-1.8366814 2.8564987l1.0812721.7410889c.0978241.055748.1458168.1637955.1462669.3228073.0095596.1537094-.0399437.3232346-.1439171.5059814-.1063156.1840973-.23312.3173447-.3805351.4024506-.1542664.0890656-.2860527.0894394-.3907967.0011215l-1.3388748-1.0570526c-.2040672.1543808-.4489784.3140564-.7347755.4790649-.8550529.49366-1.6064415.710762-2.2518539.6526642-.6453743-.0581284-1.1460609-.3668976-1.4975395-.923645-.3536911-.5554733-.5399017-1.3225555-.558567-2.2959595.0130882-.9943771.1943512-1.970932.5437469-2.932373.347168-.9627075.8444786-1.8450851 1.4874153-2.6470108.6429672-.8045959 1.3931351-1.4517746 2.248188-1.9454346.8574333-.4950409 1.606514-.713459 2.2474213-.6501083.6408157.0607528 1.1415061.3695296 1.4975128.9289016zm-.92379 5.1175537c.252388-.7278824.3774986-1.4579926.3754311-2.1877518-.0020752-.7324066-.1309052-1.3132629-.3865891-1.7478104-.2534218-.4358521-.6221886-.6823883-1.1040077-.7435913-.4818115-.058609-1.0493317.0993347-1.7025948.4764938-.659996.3810501-1.2288513.8791962-1.7042007 1.4904175-.4753838.6138458-.8392525 1.283371-1.0916786 2.0112762-.2501259.7265778-.375248 1.4540558-.3731728 2.1864548.0020714.7297592.130909 1.3132553.3843307 1.7491074.255722.4345245.6221924.6824417 1.0994949.7462463.4772568.0611954 1.0470734-.0980759 1.7070694-.479126.6532631-.3771591 1.2198219-.8739777 1.6997261-1.4877853.4798966-.6164474.8460656-1.2873534 1.0961915-2.0139312" fill="#8fb0d8"/></g></g></g><g><g><g><path d="m57.053791 60.7058411c.1542549-.0890579.2882576-.1037674.3974571-.0415039.1115417.0635147.1664238.1832352.166935.3630829l.0225525 7.9545441 4.0011024-2.3100357c.1541901-.0890198.285923-.099823.3974609-.0389023.1092072.0648575.1663628.1832809.1668663.3605118.0005112.1798325-.0557976.361145-.1642952.5464935-.110836.1866837-.2422142.3225861-.3964043.4116135l-4.3436356 2.5077972c-.2131958.123085-.3948898.1418228-.5450859.0536346-.152462-.0842743-.2279358-.2495575-.2286301-.4945374l-.0236664-8.3481064c-.0005112-.1798439.0535126-.362442.157505-.550396.1062129-.186634.2353709-.3238563.3918383-.4141959z" fill="#8fb0d8"/></g></g></g></g><g><g><g><g><path d="m42.1313286 69.5234222c.8959846-.5172958 1.708416-.8323517 2.4350891-.9412155.2294006-.038475.3433228.0811157.34412.3625946.0004311.1511612-.0445328.3128815-.1326637.4864502-.0904083.1749039-.2081909.3029404-.3556137.3880615-.0476227.0274887-.1134491.047226-.1952095.0552673-.6358185.1138687-1.2939758.3685455-1.9698715.7587738-.644146.3718948-1.1677284.8151627-1.5706825 1.3297501-.4029617.5119934-.6036606 1.0220718-.6022224 1.530304.0009537.3362045.0969772.5548782.2903481.6547012.1911507.1010971.4320107.1265106.7226982.076149.2884102-.0490265.683403-.1543884 1.1805038-.3082352.6447105-.1947021 1.1646385-.3173599 1.5620728-.3666992.3951492-.0506134.736187.0292053 1.0185013.2421417.2823105.2129364.4244003.637352.4262047 1.2732925.0014915.5264969-.1287804 1.0742188-.3884277 1.6392212-.2596321.5701981-.6261673 1.105545-1.0973053 1.6125107-.4734154.5082779-1.0197067.9411469-1.6389313 1.2986603-1.0365181.5984268-2.0079575.9347839-2.9142647 1.0064011-.0976563.0093994-.1795197-.019043-.2456017-.0905533-.0638618-.0701447-.0981522-.1652145-.0984993-.2877274-.0004501-.158989.0467796-.3246155.1394196-.4955673.0949135-.172287.2149773-.2990341.3601265-.3828354.081707-.0471802.1588554-.0734482.2337799-.0801468.7518692-.0477295 1.5553589-.3210373 2.4104881-.8147507 1.4289474-.8250046 2.1396866-1.7731323 2.1366272-2.8521576-.0008011-.2814789-.0922203-.4636536-.2764778-.5452347-.1842575-.0815887-.4114647-.096611-.6794281-.0515442-.2702293.048996-.6539154.1425858-1.1510696.2782059-.6629105.1869431-1.196476.3044128-1.6052361.357666-.4088249.0532913-.7589073-.0213089-1.0547867-.2159729-.2936058-.1959686-.4424744-.5981979-.4442024-1.2080917-.0015144-.5342865.1196175-1.089798.363327-1.6664734.2437744-.5767136.6034126-1.1315689 1.0789795-1.6645813.475624-.5330504 1.0490798-.9920501 1.7182082-1.3783645z" fill="#324566"/></g></g></g><g><g><g><path d="m54.4999352 64.8232956c.3560066.5593719.5444641 1.3225174.5631104 2.2880859-.0127716 1.1064301-.2391014 2.1952057-.6813927 3.2729111-.4422112 1.0776672-1.0552063 2.0293808-1.8366814 2.8564987l1.0812721.7410889c.0978241.055748.1458168.1637955.1462669.3228073.0095596.1537094-.0399437.3232422-.1439171.5059814-.1063156.1840973-.23312.3173447-.3805351.4024582-.1542664.0890656-.2860527.0894318-.3907967.0011139l-1.3388748-1.0570526c-.2040672.1543808-.4489784.3140564-.7347755.4790649-.8550529.4936676-1.6064415.7107697-2.2518539.6526642-.6453743-.0581207-1.1460609-.3668976-1.4975395-.923645-.3536911-.5554657-.5399017-1.3225555-.558567-2.2959518.0130882-.9943848.1943512-1.9709396.5437469-2.9323807.347168-.9627075.8444786-1.8450775 1.4874153-2.6470108.6429672-.8045959 1.3931351-1.451767 2.248188-1.9454346.8574333-.4950409 1.606514-.7134552 2.2474213-.6501083.6408157.0607567 1.1415061.3695297 1.4975128.9289093zm-.92379 5.1175461c.252388-.7278748.3774986-1.4579926.3754311-2.1877518-.0020752-.732399-.1309052-1.3132553-.3865891-1.7478027-.2534218-.4358521-.6221886-.6823959-1.1040077-.7435989-.4818115-.058609-1.0493317.0993347-1.7025948.4765015-.659996.3810425-1.2288513.8791885-1.7042007 1.4904175-.4753838.6138382-.8392525 1.283371-1.0916786 2.0112686-.2501259.7265778-.375248 1.4540558-.3731728 2.1864548.0020714.7297592.130909 1.3132553.3843307 1.7491074.255722.4345245.6221924.6824417 1.0994949.746254.4772568.0611877 1.0470734-.0980835 1.7070694-.4791336.6532631-.3771591 1.2198219-.8739777 1.6997261-1.4877853.4798966-.6164477.8460656-1.2873538 1.0961915-2.0139315" fill="#324566"/></g></g></g><g><g><g><path d="m57.460041 60.7438622c.1542549-.0890579.2882576-.1037674.3974571-.0415039.1115417.0635147.1664238.1832352.166935.3630829l.0225525 7.9545479 4.0011024-2.3100433c.1541901-.0890198.285923-.0998154.3974609-.0389023.1092072.0648651.1663628.1832886.1668663.3605194.0005112.1798248-.0557976.361145-.1642952.5464935-.110836.186676-.2422142.3225861-.3964043.4116058l-4.3436356 2.5077972c-.2131958.1230927-.3948898.1418228-.5450859.0536423-.152462-.0842743-.2279358-.2495575-.2286301-.4945374l-.0236664-8.3481102c-.0005112-.1798477.0535126-.3624458.157505-.550396.1062129-.186634.2353709-.3238601.3918383-.4141959z" fill="#324566"/></g></g></g></g></g></g></g></svg>