<svg clip-rule="evenodd" fill-rule="evenodd" height="512" image-rendering="optimizeQuality" shape-rendering="geometricPrecision" text-rendering="geometricPrecision" viewBox="0 0 512 512" width="512" xmlns="http://www.w3.org/2000/svg"><g id="Layer_x0020_1"><g id="_471511104"><path d="m505 101c-1 0-1 0-2 0l-245 109-249-110c-4 1-7-1-9-5-1-4 1-8 5-9l251-78h4l247 79c4 1 6 5 5 9-1 3-4 5-7 5z" fill="#ffd300"/><path d="m258 386c-1 0-2 0-3 0l-251-103c-2-1-4-3-4-6v-66c0-2 1-4 3-6 2-1 5-1 7 0l247 100 245-99c3-1 5-1 7 0 2 2 3 4 3 6v52c0 3-2 5-4 6l-247 115c-1 1-2 1-3 1z" fill="#e33e42"/><path d="m258 268c-1 0-2 0-3 0l-251-102c-2-2-4-4-4-7v-66c0-2 1-4 3-6 2-1 5-1 7 0l247 100 245-99c3-1 5-1 7 0 2 2 3 4 3 6v52c0 3-2 5-4 6l-247 115c-1 1-2 1-3 1z" fill="#ffbe00"/><path d="m258 504c-1 0-2 0-3 0l-251-102c-2-2-4-4-4-7v-66c0-2 1-5 3-6s5-1 7-1l247 101 245-99c3-1 5-1 7 0 2 2 3 4 3 6v52c0 3-2 5-4 6l-247 115c-1 1-2 1-3 1z" fill="#5eac24"/></g></g></svg>