<?xml version="1.0" encoding="iso-8859-1"?>
<!-- Generator: Adobe Illustrator 19.0.0, SVG Export Plug-In . SVG Version: 6.00 Build 0)  -->
<svg version="1.1" id="Capa_1" xmlns="http://www.w3.org/2000/svg" xmlns:xlink="http://www.w3.org/1999/xlink" x="0px" y="0px"
	 viewBox="0 0 512 512" style="enable-background:new 0 0 512 512;" xml:space="preserve">
<path style="fill:#F9BE00;" d="M285.061,472.138c-15.985-5.683-42.14-5.683-58.125,0L119.56,510.321
	c-15.985,5.684-28.681-3.54-28.215-20.498l3.134-113.919c0.466-16.958-7.617-41.833-17.962-55.278L7.024,230.303
	c-10.345-13.447-5.495-28.371,10.777-33.167l109.311-32.224c16.272-4.795,37.433-20.17,47.024-34.163l64.426-94.006
	c9.591-13.993,25.283-13.993,34.874,0l64.426,94.006c9.592,13.993,30.751,29.368,47.024,34.163l109.311,32.224
	c16.272,4.797,21.122,19.721,10.777,33.167l-69.496,90.321c-10.345,13.446-18.428,38.32-17.962,55.278l3.134,113.919
	c0.466,16.959-12.23,26.183-28.215,20.498L285.061,472.138z"/>
<g style="opacity:0.1;">
	<path d="M399.531,278.419c-18.789,18.789-16.88,46.749-16.413,63.707l8.899,109.313c0.466,16.959-12.23,26.183-28.215,20.499
		l-101.086-57.36c-15.985-5.683-47.829-4.251-73.382,21.302c-14.604,14.604-88.721,71.861-88.721,71.861
		c-0.639,0.227-1.311,0.314-2.002,0.295c5.148,4.148,12.599,5.256,20.952,2.285l107.376-38.184c15.985-5.683,42.14-5.683,58.125,0
		l107.376,38.184c15.985,5.684,28.681-3.54,28.215-20.498l-3.134-113.919c-0.466-16.958,7.617-41.833,17.962-55.278l69.496-90.321
		c6.139-7.98,6.927-16.482,3.151-23.077C494.461,215.624,410.618,267.332,399.531,278.419z"/>
	<path d="M308.297,119.964c13.576,34.44,50.39,40.647,76.59,44.947c-16.272-4.795-37.433-20.17-47.024-34.163l-64.426-94.006
		c-2.007-2.929-4.285-5.237-6.717-6.94C266.72,29.801,291.332,76.929,308.297,119.964z"/>
	<path d="M94.48,375.902l-0.741,26.954l0,0c0.466-16.958,28.991-60.058,11.376-91.703c-17.614-31.646-83.974-66.744-101.254-85.916
		l0,0c0.824,1.696,1.875,3.393,3.162,5.066l69.496,90.321C86.863,334.069,94.947,358.944,94.48,375.902z"/>
</g>
<path style="opacity:0.15;enable-background:new    ;" d="M238.562,36.741l-64.426,94.006c-5.017,7.321-13.209,15.006-22.204,21.37
	l103.896,107.969V26.253C249.564,26.316,243.313,29.808,238.562,36.741z"/>
<path style="opacity:0.1;enable-background:new    ;" d="M3.056,208.865c-2.788,6.331-1.677,14.103,3.966,21.439l69.496,90.321
	c5.346,6.949,10.077,16.954,13.346,27.337l165.962-87.874L3.056,208.865z"/>
<path style="opacity:0.15;enable-background:new    ;" d="M89.864,347.961c3.057,9.709,4.84,19.748,4.615,27.941l-3.134,113.919
	c-0.222,8.056,2.532,14.363,7.194,18.159l157.287-247.894L89.864,347.961z"/>
<path style="opacity:0.1;enable-background:new    ;" d="M508.914,208.801l-253.086,51.287l166.258,88.03
	c3.272-10.441,8.021-20.51,13.394-27.494l69.496-90.321C510.636,222.943,511.737,215.143,508.914,208.801z"/>
<path style="opacity:0.05;enable-background:new    ;" d="M494.197,197.136l-109.311-32.224c-7.793-2.298-16.7-7.033-24.928-12.868
	L255.827,260.087l253.087-51.287C506.577,203.556,501.562,199.306,494.197,197.136z"/>
<path style="opacity:0.15;enable-background:new    ;" d="M255.828,260.087l-0.141,207.793c10.639-0.028,21.303,1.389,29.376,4.258
	l107.376,38.184c8.267,2.94,15.65,1.884,20.792-2.161L255.828,260.087z"/>
<g>
	<path style="fill:#FAED72;" d="M390.501,90.3c-10.97,27.39-32.823,49.243-60.213,60.212c-1.338,0.537-1.339,2.522-0.002,3.057
		c27.389,10.97,49.241,32.821,60.212,60.209c0.537,1.339,2.522,1.352,3.055,0.017c10.968-27.396,32.824-49.252,60.217-60.223
		c1.337-0.536,1.337-2.522-0.001-3.06c-27.392-10.97-49.245-32.824-60.214-60.216C393.022,88.96,391.036,88.963,390.501,90.3z"/>
	<path style="fill:#FAED72;" d="M351.858,0.714c-7.807,19.491-23.356,35.039-42.846,42.846c-0.953,0.382-0.954,1.793-0.001,2.175
		c19.489,7.805,35.038,23.354,42.844,42.841c0.382,0.953,1.793,0.962,2.174,0.013c7.804-19.494,23.357-35.047,42.849-42.853
		c0.953-0.381,0.953-1.794,0-2.176c-19.49-7.808-35.04-23.357-42.846-42.849C353.65-0.239,352.239-0.237,351.858,0.714z"/>
	<path style="fill:#FAED72;" d="M82.974,108.11c-7.807,19.491-23.356,35.04-42.846,42.846c-0.952,0.381-0.953,1.793-0.001,2.175
		c19.49,7.805,35.039,23.354,42.845,42.842c0.382,0.952,1.794,0.962,2.174,0.013c7.803-19.494,23.356-35.047,42.848-42.854
		c0.952-0.381,0.952-1.795,0-2.176c-19.491-7.807-35.04-23.357-42.846-42.849C84.768,107.156,83.354,107.158,82.974,108.11z"/>
</g>
<g>
</g>
<g>
</g>
<g>
</g>
<g>
</g>
<g>
</g>
<g>
</g>
<g>
</g>
<g>
</g>
<g>
</g>
<g>
</g>
<g>
</g>
<g>
</g>
<g>
</g>
<g>
</g>
<g>
</g>
</svg>
