<svg version="1.1" id="Layer_1" xmlns="http://www.w3.org/2000/svg" xmlns:xlink="http://www.w3.org/1999/xlink" x="0px" y="0px"
	 width="100%" viewBox="0 0 540 559" enable-background="new 0 0 540 559" xml:space="preserve">
<path fill="#FEFEFE" opacity="1.000000" stroke="none" 
	d="
M340.000000,0.999999 
	C406.986877,1.000000 473.973755,1.000000 540.980347,1.000000 
	C540.980347,187.283737 540.980347,373.567474 540.980347,559.925598 
	C361.084869,559.925598 181.169708,559.925598 1.127271,559.925598 
	C1.127271,373.788086 1.127271,187.576035 1.127271,1.000000 
	C109.357140,1.000000 217.714691,1.000000 326.356689,1.322969 
	C301.072815,7.870309 291.502747,37.031139 308.678040,56.866688 
	C310.981506,59.526913 310.980591,61.371532 309.519287,64.269615 
	C305.789459,71.666824 302.403503,79.237419 298.605591,86.964661 
	C296.867889,90.448547 295.404602,93.706429 293.971985,96.978470 
	C294.002594,96.992622 293.958130,96.941658 293.685181,97.154785 
	C289.912628,104.828842 286.413025,112.289757 282.652130,119.940804 
	C282.222504,120.744415 282.054138,121.357895 281.925781,121.969650 
	C281.965759,121.967918 281.930084,121.896240 281.682617,122.074158 
	C281.257935,122.823112 281.080719,123.394157 280.944763,123.974472 
	C280.986084,123.983749 280.932739,123.918045 280.678925,124.086945 
	C280.259430,124.831024 280.093781,125.406204 279.962463,125.983429 
	C279.996857,125.985466 279.956909,125.929390 279.711517,126.114777 
	C279.285736,126.876480 279.105347,127.452797 278.848114,128.106369 
	C278.771271,128.183624 278.851196,128.386368 278.551727,128.610367 
	C275.111389,135.519226 271.970520,142.204071 268.870422,148.933990 
	C268.911255,148.979050 268.883759,148.860596 268.595398,149.053711 
	C267.163177,151.804062 266.019287,154.361313 264.914917,156.958649 
	C264.954437,156.998734 264.913971,156.893661 264.659302,157.063919 
	C264.251648,157.816223 264.098663,158.398254 263.974487,158.985382 
	C264.003326,158.990479 263.962372,158.948593 263.725281,159.130798 
	C263.294312,159.867264 263.100372,160.421509 262.663239,161.133881 
	C262.216858,161.829605 262.013702,162.367188 261.521545,163.100174 
	C256.681549,173.062912 252.130554,182.830246 247.590393,192.621979 
	C247.601212,192.646378 247.613571,192.698303 247.349396,192.909836 
	C243.774475,200.083481 240.463745,207.045593 237.022034,214.147888 
	C236.891068,214.288071 236.881714,214.671646 236.581604,214.877380 
	C234.806763,218.357986 233.332031,221.632843 231.882629,224.917496 
	C231.907974,224.927307 231.875137,224.880508 231.568649,225.060516 
	C230.537247,226.709641 229.607300,228.115005 229.127029,229.660156 
	C227.841965,233.794617 225.685791,235.441422 220.914093,234.973831 
	C212.662430,234.165222 205.164536,237.076096 198.952423,242.553146 
	C196.553146,244.668533 194.912521,244.801270 192.111115,243.283936 
	C175.797607,234.447968 159.350266,225.859100 142.663010,216.947906 
	C141.671616,215.275497 140.509247,213.889801 140.352554,212.398453 
	C140.009216,209.131195 140.515717,205.764343 140.076523,202.519196 
	C137.898392,186.425766 123.571869,174.115646 107.234001,174.084625 
	C90.819893,174.053467 76.171333,186.399155 73.959526,202.128128 
	C71.500633,219.614212 81.308823,235.543610 97.590126,239.956619 
	C110.510147,243.458542 121.889496,240.218994 131.463913,231.052170 
	C137.670532,234.151184 143.686111,237.154800 149.915985,240.434448 
	C153.769821,242.668304 157.392975,244.657425 161.052246,246.577698 
	C169.642609,251.085678 178.250259,255.560730 186.973053,260.437317 
	C187.123886,261.900055 187.152573,262.974579 187.081848,264.495911 
	C186.974319,267.097107 186.900375,269.253632 186.968399,271.405670 
	C187.604263,291.523926 210.081284,306.881042 229.219025,300.338379 
	C229.220749,300.388306 229.318405,300.409424 229.679001,300.380981 
	C232.384857,299.257446 234.730118,298.162384 237.041824,297.036865 
	C237.008270,297.006378 237.045273,297.089142 237.323380,297.060638 
	C237.835510,296.764923 238.069519,296.497681 238.251801,296.256104 
	C238.200058,296.281738 238.299301,296.340820 238.628510,296.257599 
	C241.391617,293.852875 243.825531,291.531372 246.213470,289.171326 
	C246.167511,289.132812 246.139999,289.249573 246.413803,289.158325 
	C246.849121,288.727448 247.010651,288.387817 247.467148,287.879944 
	C256.393768,274.537567 256.000214,259.060272 246.737839,247.429276 
	C242.590866,242.221848 242.562073,240.257614 246.447540,234.374374 
	C246.891830,233.701645 247.100189,232.873123 247.653595,231.886230 
	C253.994537,218.816833 260.099854,205.978043 266.163452,193.097275 
	C266.121735,193.055313 266.136993,193.172653 266.428772,192.976334 
	C267.960785,189.998322 269.200989,187.216629 270.436127,184.392883 
	C270.431030,184.350830 270.425659,184.266296 270.686951,184.068436 
	C271.921814,181.578461 272.895355,179.286346 273.952759,176.795334 
	C274.036652,176.596451 274.061371,176.165436 274.367584,175.992920 
	C276.849396,171.243256 279.024963,166.666107 281.153748,162.072235 
	C281.106934,162.055527 281.135651,162.150696 281.420105,161.948212 
	C283.821960,157.174515 285.939362,152.603317 288.026001,148.022110 
	C287.995239,148.012085 288.039276,148.059631 288.280792,147.873779 
	C288.692719,147.119034 288.863129,146.550125 289.134460,145.890442 
	C289.235321,145.799683 289.132324,145.548584 289.421021,145.329758 
	C290.465485,143.405075 291.221283,141.699219 291.992126,139.991577 
	C292.007172,139.989792 291.986633,139.966888 292.221436,139.746429 
	C292.958893,138.349899 293.461517,137.173828 294.077942,135.906464 
	C294.191681,135.815140 294.131317,135.529694 294.408173,135.284164 
	C295.850098,132.395538 297.015167,129.752457 298.135101,127.078728 
	C298.089966,127.048096 298.117157,127.153740 298.383606,126.989029 
	C298.823273,126.232613 298.996521,125.640900 299.125000,125.051125 
	C299.080200,125.053062 299.113281,125.136391 299.390656,124.935989 
	C300.468475,122.836807 301.268951,120.938034 302.034241,119.026375 
	C301.999054,119.013496 302.045074,119.072594 302.282745,118.887833 
	C302.700134,118.141495 302.879852,117.579910 303.029846,117.011475 
	C303.000092,117.004623 303.036194,117.053833 303.304688,116.853363 
	C303.785553,115.794853 303.997955,114.936806 304.502106,113.894264 
	C305.485016,111.806969 306.176178,109.904167 306.949219,107.803177 
	C307.031067,107.604988 307.064880,107.177467 307.394409,107.067238 
	C309.216949,104.016403 310.709961,101.075798 312.162476,98.092438 
	C312.121979,98.049690 312.135529,98.166695 312.416138,97.957581 
	C315.905060,90.885986 319.113403,84.023506 322.249023,77.136406 
	C322.176331,77.111786 322.187531,77.264915 322.438721,77.150352 
	C322.786682,76.689316 322.883423,76.342842 323.089752,75.906815 
	C323.199341,75.817253 323.125000,75.544136 323.412994,75.301071 
	C325.366852,69.487259 328.620605,67.018639 334.849030,67.803833 
	C338.240906,68.231430 342.269012,67.356964 345.332184,65.765129 
	C349.865997,63.409054 353.414215,63.427898 356.893188,67.138260 
	C356.917664,67.099792 356.827454,67.086685 356.904572,67.355347 
	C357.297272,67.802277 357.612823,67.980537 357.934326,68.109955 
	C357.940247,68.061119 357.842957,68.075798 357.926392,68.338318 
	C358.323547,68.770813 358.637238,68.940781 358.959717,69.071342 
	C358.968475,69.031937 358.890198,69.051773 358.973999,69.306328 
	C359.357788,69.735100 359.657776,69.909309 359.970673,70.042450 
	C359.983582,70.001389 359.924774,70.064278 360.058472,70.369629 
	C362.737091,72.857224 365.282013,75.039474 367.860046,77.177681 
	C367.893097,77.133644 367.785828,77.108627 367.873840,77.383087 
	C368.282501,77.855400 368.603180,78.053246 368.980835,78.460594 
	C369.206543,78.938339 369.449280,79.077454 369.906891,79.383224 
	C371.366852,80.779022 372.685883,81.879044 374.002686,82.991562 
	C374.000427,83.004059 374.024078,82.994019 374.139709,83.257248 
	C374.853149,83.969681 375.450958,84.418892 376.049500,84.915787 
	C376.050232,84.963478 376.143524,84.943558 376.257690,85.208511 
	C376.850311,85.764244 377.328735,86.055016 377.800201,86.273727 
	C377.793243,86.201675 377.680206,86.292152 377.801483,86.582382 
	C378.911255,87.632271 379.899750,88.391937 380.916473,89.114487 
	C380.944702,89.077377 380.851532,89.073723 380.929260,89.338699 
	C381.317444,89.780823 381.627869,89.957970 381.943176,90.093819 
	C381.948059,90.052521 381.865936,90.065613 381.945801,90.326630 
	C382.336456,90.754501 382.647247,90.921341 382.971680,91.051605 
	C382.985321,91.015038 382.912628,91.043503 382.994751,91.296783 
	C383.374451,91.724327 383.671967,91.898582 384.052856,92.305664 
	C384.339874,92.828835 384.618469,92.988182 385.090759,93.306595 
	C386.474243,94.635307 387.738953,95.673958 389.076721,96.873062 
	C389.149750,97.033501 389.493591,97.111565 389.647125,97.388397 
	C390.170990,97.845490 390.541351,98.025742 390.908203,98.142967 
	C390.904694,98.079948 390.786072,98.123138 390.864380,98.395767 
	C391.261993,98.844078 391.581238,99.019768 391.899078,99.144226 
	C391.897644,99.093010 391.818390,99.157990 391.934814,99.449127 
	C393.008270,100.529305 393.965240,101.318352 394.949280,102.071152 
	C394.976318,102.034889 394.887238,102.050591 394.968170,102.307182 
	C395.356934,102.726112 395.664795,102.888451 395.984924,103.024872 
	C395.997253,102.998955 395.948517,103.029251 396.037415,103.270264 
	C396.414215,103.675980 396.702087,103.840683 396.994995,104.002975 
	C397.000000,104.000572 396.995972,104.010757 397.131531,104.315308 
	C403.480408,110.163559 409.693726,115.707260 416.031281,121.562271 
	C416.001923,123.246307 415.849762,124.619186 415.694550,125.991722 
	C415.067688,131.534897 413.372742,137.202515 414.002655,142.598831 
	C416.350830,162.715729 435.014160,175.321320 454.939148,170.906357 
	C473.583588,166.775131 484.956757,146.314072 478.919617,127.763893 
	C472.819489,109.020126 451.937500,99.487427 433.666016,107.545792 
	C429.723694,109.284515 427.581177,108.734062 424.633331,106.005089 
	C405.457916,88.253387 386.169373,70.622261 366.757446,53.129688 
	C364.146271,50.776691 364.084808,48.888790 365.149048,45.863213 
	C369.990417,32.099678 366.445496,17.908463 355.203766,8.902614 
	C350.831543,5.399988 345.108002,3.584177 340.000000,0.999999 
M219.305405,368.844788 
	C219.077255,369.123322 218.849121,369.401855 218.703156,369.605194 
	C218.703156,369.605194 218.595901,369.575134 217.989899,369.734833 
	C216.984009,370.478455 215.978119,371.222046 215.000000,372.000000 
	C215.000000,372.000000 214.971985,371.965881 214.421722,372.035309 
	C214.208878,372.316376 213.996033,372.597443 213.801773,372.840118 
	C213.801773,372.840118 213.759598,372.826782 213.090302,372.970428 
	C204.371078,378.907440 195.651855,384.844452 186.354904,390.901550 
	C185.929291,391.283661 185.503677,391.665802 185.021805,391.999817 
	C185.021805,391.999817 185.033859,392.072876 184.492340,392.124268 
	C184.280182,392.398590 184.068008,392.672943 183.965103,392.964630 
	C183.965103,392.964630 183.967178,392.854004 183.375793,392.914246 
	C182.946487,393.293488 182.517166,393.672729 182.028030,393.996521 
	C182.028030,393.996521 182.049179,394.075287 181.280731,394.468475 
	C181.184311,395.621735 181.003967,396.774963 181.003555,397.928253 
	C180.986374,445.205231 180.982681,492.482239 180.998840,539.759216 
	C180.999222,540.871094 181.245560,541.982849 181.365097,542.992615 
	C207.446320,542.992615 233.231430,542.992615 259.572815,542.916077 
	C259.602783,542.580566 259.632751,542.245056 259.749420,540.988342 
	C259.752258,513.989136 259.777069,486.989868 259.744812,459.990692 
	C259.734894,451.667419 259.569336,443.344330 259.728973,434.112885 
	C259.747131,420.333527 259.813934,406.554016 259.769501,392.774841 
	C259.726685,379.504852 259.568848,366.235229 259.700684,352.397491 
	C259.691162,351.988007 259.681641,351.578522 259.880890,350.523285 
	C259.809296,350.309082 259.737701,350.094849 259.737732,349.152130 
	C259.641602,348.435730 259.545471,347.719360 259.702209,346.354706 
	C259.613403,345.908203 259.524597,345.461700 259.683685,344.463196 
	C259.664886,344.061890 259.646118,343.660553 259.762451,342.655273 
	C259.139465,342.756042 258.516510,342.856781 257.315582,343.195892 
	C256.707611,343.753174 256.099609,344.310455 254.835922,344.960571 
	C247.576050,349.931519 240.316162,354.902466 232.467911,359.972778 
	C232.229294,360.268646 231.990677,360.564545 231.879196,360.848755 
	C231.879196,360.848755 231.815292,360.738251 231.172592,360.808502 
	C230.383240,361.480255 229.593903,362.151978 228.973923,362.857605 
	C228.973923,362.857605 228.822845,362.773865 228.156754,362.839661 
	C226.754868,363.878418 225.352966,364.917175 223.992096,366.003143 
	C223.992096,366.003143 223.971024,365.944702 223.371155,366.019073 
	C223.109360,366.310150 222.847549,366.601257 222.059723,366.915344 
	C221.693329,367.253540 221.326935,367.591736 220.410400,368.013580 
	C220.195786,368.295654 219.981171,368.577728 219.893997,368.879791 
	C219.893997,368.879791 219.864578,368.754181 219.305405,368.844788 
M319.223969,143.872589 
	C318.793884,144.224167 318.363800,144.575760 317.329437,145.049973 
	C316.530701,145.675446 315.731995,146.300919 314.279541,147.075531 
	C312.508453,148.371368 310.737335,149.667191 308.460266,151.051056 
	C308.235291,151.297791 308.010345,151.544510 307.180634,151.910370 
	C306.388824,152.536224 305.597015,153.162079 304.204224,153.929947 
	C303.402832,154.550125 302.601440,155.170303 301.194580,155.910431 
	C300.394165,156.532639 299.593719,157.154846 298.298706,157.893143 
	C298.068451,158.131241 297.838196,158.369339 297.068695,158.760925 
	C296.650635,159.110123 296.232574,159.459320 295.066803,160.158035 
	C294.751678,162.406403 294.162659,164.654587 294.161072,166.903183 
	C294.109161,241.142593 294.111053,315.382050 294.123566,389.621490 
	C294.123871,391.439148 294.333313,393.256744 294.275452,395.986359 
	C294.261566,413.931610 294.217621,431.876923 294.241180,449.822144 
	C294.272400,473.578796 294.356415,497.335419 294.163330,521.827332 
	C294.244965,522.850586 294.326599,523.873901 294.250763,525.832886 
	C294.318573,531.240356 294.386414,536.647766 294.269165,542.466248 
	C294.269165,542.466248 294.517120,542.842163 294.517120,542.842163 
	C294.517120,542.842163 294.967773,542.840515 295.853424,543.186768 
	C321.442139,543.186768 347.030884,543.186768 372.728729,543.186768 
	C372.728729,398.055878 372.728729,253.409576 372.728729,107.984581 
	C370.047211,109.886429 367.925934,111.390915 365.143768,112.980385 
	C363.376099,114.264488 361.608429,115.548592 359.172516,117.004501 
	C354.406769,120.292969 349.641022,123.581436 344.207520,127.026115 
	C341.431488,128.974930 338.655487,130.923752 335.277557,132.998535 
	C334.485352,133.630981 333.693146,134.263428 332.293549,135.009033 
	C331.496948,135.639008 330.700348,136.268997 329.297363,137.017822 
	C328.502777,137.645706 327.708221,138.273590 326.308655,139.027527 
	C325.507416,139.652374 324.706207,140.277222 323.332428,141.011368 
	C322.727142,141.492538 322.121857,141.973694 321.001312,142.665726 
	C320.596497,143.031372 320.191650,143.397018 319.223969,143.872589 
M411.934052,261.928528 
	C411.934052,261.928528 411.905609,261.842468 411.145447,261.928040 
	C407.088257,263.475189 407.429321,266.707001 407.802063,270.948120 
	C407.802063,361.635956 407.802063,452.323792 407.802063,542.965210 
	C434.282227,542.965210 460.026489,542.965210 486.267029,542.965210 
	C486.267029,541.053162 486.267181,539.429199 486.266968,537.805237 
	C486.253571,434.537689 486.241394,331.270172 486.215790,228.002625 
	C486.215393,226.345856 486.050598,224.689102 486.199860,222.296738 
	C485.845154,221.435684 485.490448,220.574631 485.244446,218.952850 
	C485.565186,216.834274 485.885925,214.715683 486.371124,211.510712 
	C477.697510,217.326599 469.992676,222.451111 462.330780,227.639023 
	C445.885651,238.774078 429.462677,249.941833 412.488800,261.123993 
	C412.273682,261.391876 412.058563,261.659760 411.934052,261.928528 
M70.442314,332.063782 
	C70.199005,332.344299 69.955696,332.624786 69.296776,332.935699 
	C69.296776,332.935699 69.049591,333.271179 68.297607,333.657166 
	C68.120399,335.288635 67.788948,336.920044 67.788193,338.551575 
	C67.757492,405.009430 67.755066,471.467255 67.760857,537.925110 
	C67.761002,539.542969 67.894905,541.160767 67.972664,542.919861 
	C94.167488,542.919861 120.032784,542.919861 145.858353,542.919861 
	C145.858353,455.784515 145.858353,368.986053 145.858353,281.336609 
	C144.378036,282.559753 143.557861,283.237457 142.069443,284.026154 
	C138.054565,286.692078 134.020187,289.329163 130.028137,292.028839 
	C110.349892,305.336456 90.682861,318.660614 70.442314,332.063782 
z"/>
<path fill="#1E81C3" opacity="1.000000" stroke="none" 
	d="
M384.971954,93.016525 
	C384.618469,92.988182 384.339874,92.828835 383.949005,92.069214 
	C383.478760,91.414467 383.195679,91.228989 382.912628,91.043503 
	C382.912628,91.043503 382.985321,91.015038 382.867065,90.809166 
	C382.454529,90.424072 382.160217,90.244843 381.865936,90.065613 
	C381.865936,90.065613 381.948059,90.052521 381.846954,89.841316 
	C381.447754,89.444649 381.149628,89.259186 380.851532,89.073723 
	C380.851532,89.073723 380.944702,89.077377 380.919922,88.745285 
	C379.823517,87.706177 378.751862,86.999168 377.680206,86.292160 
	C377.680206,86.292152 377.793243,86.201675 377.746582,85.970688 
	C377.181122,85.474319 376.662323,85.208939 376.143524,84.943558 
	C376.143524,84.943558 376.050232,84.963478 375.987854,84.610748 
	C375.291687,83.836693 374.657867,83.415352 374.024078,82.994019 
	C374.024078,82.994019 374.000427,83.004059 373.997803,82.639397 
	C373.918182,79.443901 372.769775,78.034737 369.765991,79.087448 
	C369.449280,79.077454 369.206543,78.938339 368.889771,78.186127 
	C368.423096,77.504318 368.104462,77.306473 367.785828,77.108627 
	C367.785828,77.108627 367.893097,77.133644 367.889404,76.813232 
	C365.232086,74.349976 362.578430,72.207123 359.924774,70.064278 
	C359.924774,70.064278 359.983582,70.001389 359.868286,69.802185 
	C359.465363,69.419250 359.177795,69.235504 358.890198,69.051773 
	C358.890198,69.051773 358.968475,69.031937 358.856384,68.823166 
	C358.443848,68.434860 358.143402,68.255325 357.842957,68.075798 
	C357.842957,68.075798 357.940247,68.061119 357.840698,67.851410 
	C357.436554,67.456696 357.132019,67.271690 356.827454,67.086685 
	C356.827454,67.086685 356.917664,67.099792 356.905212,66.766388 
	C353.883545,60.895699 351.627747,59.576511 347.907013,62.175198 
	C343.266724,65.416092 338.318787,66.164734 332.891449,66.046806 
	C324.587708,65.866364 323.719543,66.844635 323.125000,75.544136 
	C323.125000,75.544136 323.199341,75.817253 322.865326,76.050362 
	C322.416718,76.610619 322.302124,76.937767 322.187531,77.264915 
	C322.187531,77.264915 322.176331,77.111786 321.889374,77.207733 
	C313.949463,82.217300 313.788452,90.530479 312.135529,98.166695 
	C312.135529,98.166695 312.121979,98.049690 311.766357,98.082672 
	C305.932922,99.203941 308.837708,104.312347 307.064880,107.177467 
	C307.064880,107.177467 307.031067,107.604988 306.597900,107.848991 
	C305.109497,110.061073 304.054321,112.029144 302.997772,114.379158 
	C303.009674,115.525345 303.022919,116.289589 303.036194,117.053833 
	C303.036194,117.053833 303.000092,117.004623 302.766968,117.172028 
	C302.370911,117.917152 302.208008,118.494873 302.045074,119.072594 
	C302.045074,119.072594 301.999054,119.013496 301.650757,119.011902 
	C300.535370,119.006973 299.768280,119.003639 298.956726,118.690590 
	C298.366547,118.222176 297.820892,118.063469 297.275238,117.904770 
	C297.850159,118.603088 298.425079,119.301392 298.999573,120.399460 
	C298.987244,121.864937 298.975372,122.930649 298.547607,123.997498 
	C292.295532,122.349586 295.336212,129.853073 292.076721,130.447708 
	C290.139343,126.974251 288.450134,123.945679 286.185272,119.885017 
	C289.250671,120.395119 290.665131,120.630493 292.358490,120.912277 
	C293.268921,118.188599 294.135681,115.595520 295.358917,112.994995 
	C296.419220,112.512985 297.123047,112.038437 297.826874,111.563889 
	C297.444580,111.166313 297.062256,110.768738 296.679962,110.371170 
	C296.119171,111.246635 295.558350,112.122093 294.598175,112.998260 
	C293.133759,113.000427 292.068695,113.001892 291.001831,113.001678 
	C291.000000,113.000000 290.996338,112.996712 290.998169,112.625793 
	C291.986053,107.150475 292.972107,102.046066 293.958130,96.941658 
	C293.958130,96.941658 294.002594,96.992622 294.337524,96.952301 
	C297.326599,94.038536 301.448700,91.772217 298.879974,86.738655 
	C302.403503,79.237419 305.789459,71.666824 309.519287,64.269615 
	C310.980591,61.371532 310.981506,59.526913 308.678040,56.866688 
	C291.502747,37.031139 301.072815,7.870309 326.820557,1.322969 
	C331.024536,1.000000 335.049103,1.000000 339.536804,0.999999 
	C345.108002,3.584177 350.831543,5.399988 355.203766,8.902614 
	C366.445496,17.908463 369.990417,32.099678 365.149048,45.863213 
	C364.084808,48.888790 364.146271,50.776691 366.757446,53.129688 
	C386.169373,70.622261 405.457916,88.253387 424.633331,106.005089 
	C427.581177,108.734062 429.723694,109.284515 433.666016,107.545792 
	C451.937500,99.487427 472.819489,109.020126 478.919617,127.763893 
	C484.956757,146.314072 473.583588,166.775131 454.939148,170.906357 
	C435.014160,175.321320 416.350830,162.715729 414.002655,142.598831 
	C413.372742,137.202515 415.067688,131.534897 415.694550,125.991722 
	C415.849762,124.619186 416.001923,123.246307 416.032898,121.199394 
	C412.001740,116.207680 408.293915,111.679787 404.092102,107.669518 
	C402.245148,105.906738 399.392181,105.198051 396.995972,104.010757 
	C396.995972,104.010757 397.000000,104.000572 396.883545,103.781425 
	C396.557434,103.287498 396.284607,103.109825 395.948517,103.029251 
	C395.948517,103.029251 395.997253,102.998955 395.875458,102.790436 
	C395.464844,102.404800 395.176056,102.227692 394.887238,102.050583 
	C394.887238,102.050591 394.976318,102.034889 394.966278,101.682266 
	C393.910278,100.605759 392.864349,99.881874 391.818390,99.157990 
	C391.818390,99.157990 391.897644,99.093010 391.813538,98.876656 
	C391.414948,98.481247 391.100525,98.302193 390.786072,98.123138 
	C390.786072,98.123138 390.904694,98.079948 390.774658,97.849617 
	C390.260956,97.450043 389.877289,97.280800 389.493591,97.111557 
	C389.493591,97.111565 389.149750,97.033501 389.066040,96.516785 
	C387.645508,95.005562 386.308746,94.011047 384.971954,93.016525 
z"/>
<path fill="#EC2225" opacity="1.000000" stroke="none" 
	d="
M413.030640,261.096191 
	C429.462677,249.941833 445.885651,238.774078 462.330780,227.639023 
	C469.992676,222.451111 477.697510,217.326599 486.371124,211.510712 
	C485.885925,214.715683 485.565186,216.834274 485.067688,219.629807 
	C484.925140,221.206116 484.959320,222.105453 484.993530,223.473175 
	C484.978607,273.292847 484.963623,322.644135 484.573212,372.006927 
	C483.528900,372.399994 482.329773,372.714172 482.271423,373.173401 
	C481.482697,379.378204 477.311493,380.115570 472.139984,380.053986 
	C458.673584,379.893555 445.203949,380.014893 431.735657,379.994202 
	C424.049713,379.982391 416.291168,380.460480 409.043518,376.525330 
	C409.010315,340.705566 408.992767,305.353790 408.988525,269.617523 
	C409.969727,266.769501 410.937653,264.306000 411.905609,261.842468 
	C411.905609,261.842468 411.934052,261.928528 412.134399,261.867310 
	C412.566742,261.569458 412.798706,261.332825 413.030640,261.096191 
z"/>
<path fill="#EB2325" opacity="1.000000" stroke="none" 
	d="
M69.049591,333.271179 
	C69.049591,333.271179 69.296776,332.935699 69.758720,332.939789 
	C70.484406,332.622223 70.748138,332.300568 71.011871,331.978912 
	C90.682861,318.660614 110.349892,305.336456 130.028137,292.028839 
	C134.020187,289.329163 138.054565,286.692078 142.820465,284.061188 
	C144.048904,285.709930 144.938889,287.322723 144.942535,288.937500 
	C145.008698,318.288422 144.968262,347.639648 144.486908,376.993408 
	C126.700172,376.997375 109.377045,376.992523 92.053947,377.006561 
	C89.391792,377.008698 86.727592,377.185242 84.068192,377.121185 
	C81.580421,377.061218 79.097763,376.788788 76.151306,376.576660 
	C75.752701,377.420776 74.886551,379.255035 74.031311,381.066162 
	C72.015930,379.822693 70.533653,378.908142 69.037903,377.525513 
	C69.032814,362.462006 69.041199,347.866608 69.049591,333.271179 
z"/>
<path fill="#1667B1" opacity="1.000000" stroke="none" 
	d="
M149.701691,240.158432 
	C143.686111,237.154800 137.670532,234.151184 131.463913,231.052170 
	C121.889496,240.218994 110.510147,243.458542 97.590126,239.956619 
	C81.308823,235.543610 71.500633,219.614212 73.959526,202.128128 
	C76.171333,186.399155 90.819893,174.053467 107.234001,174.084625 
	C123.571869,174.115646 137.898392,186.425766 140.076523,202.519196 
	C140.515717,205.764343 140.009216,209.131195 140.352554,212.398453 
	C140.509247,213.889801 141.671616,215.275497 142.417831,217.207367 
	C140.720413,218.181259 138.494629,218.162491 137.377594,219.266052 
	C136.164291,220.464645 135.957626,222.699600 135.402649,224.510437 
	C135.363068,224.639557 136.066849,224.996490 136.463745,225.274658 
	C136.950821,223.873856 137.386383,222.621216 137.623505,221.939240 
	C140.539978,225.444855 144.981125,228.542923 145.784698,232.399033 
	C146.540421,236.025604 148.700134,237.085968 150.538620,239.100204 
	C150.587479,239.153732 149.995056,239.792557 149.701691,240.158432 
M133.122711,226.985123 
	C133.011871,227.857880 132.901047,228.730621 132.790207,229.603378 
	C134.117767,229.357330 135.445312,229.111282 136.772873,228.865234 
	C136.749496,228.468140 136.726120,228.071045 136.702759,227.673950 
	C135.693512,227.323303 134.684265,226.972656 133.122711,226.985123 
z"/>
<path fill="#BC2024" opacity="1.000000" stroke="none" 
	d="
M68.673599,333.464172 
	C69.041199,347.866608 69.032814,362.462006 69.018372,377.994446 
	C69.024040,391.615845 69.035744,404.300232 69.031006,417.454773 
	C69.027428,431.942902 69.040298,445.960846 69.040588,460.408691 
	C69.521919,473.718079 70.015823,486.597595 70.470009,498.441254 
	C73.532059,499.768585 76.050087,500.860107 78.590584,501.961365 
	C79.045280,501.331085 79.856155,500.207062 80.447517,499.387360 
	C83.019005,500.752167 85.107300,502.804474 87.225700,502.835999 
	C104.692314,503.096130 122.164589,503.005341 139.634964,502.957062 
	C142.589935,502.948883 144.011688,501.519958 144.054337,498.282990 
	C144.235748,484.513763 144.633698,470.747406 144.964005,456.513428 
	C144.965607,443.025085 144.955795,430.003265 144.957184,416.514099 
	C144.962448,403.028107 144.956497,390.009430 144.950531,376.990784 
	C144.968262,347.639648 145.008698,318.288422 144.942535,288.937500 
	C144.938889,287.322723 144.048904,285.709930 143.154587,284.005676 
	C143.557861,283.237457 144.378036,282.559753 145.858353,281.336609 
	C145.858353,368.986053 145.858353,455.784515 145.858353,542.919861 
	C120.032784,542.919861 94.167488,542.919861 67.972664,542.919861 
	C67.894905,541.160767 67.761002,539.542969 67.760857,537.925110 
	C67.755066,471.467255 67.757492,405.009430 67.788193,338.551575 
	C67.788948,336.920044 68.120399,335.288635 68.673599,333.464172 
z"/>
<path fill="#E02124" opacity="1.000000" stroke="none" 
	d="
M186.932632,390.781494 
	C195.651855,384.844452 204.371078,378.907440 213.469330,373.250885 
	C214.117004,374.806061 214.197830,376.159882 214.694260,377.338684 
	C215.663712,379.640656 216.865509,381.844849 218.358627,384.876282 
	C217.299545,384.744385 217.650803,384.885956 217.938309,384.803955 
	C218.571472,384.623383 219.231491,384.421295 219.777481,384.068512 
	C225.832169,380.156158 232.383041,378.570831 239.633240,378.912720 
	C246.000732,379.212952 252.774567,380.468842 258.000305,375.468628 
	C257.999176,387.289886 257.994080,398.642517 257.629700,410.058289 
	C254.406342,411.080963 251.565811,412.775574 248.674026,412.868073 
	C238.205460,413.203064 227.719666,413.000000 217.240372,413.000000 
	C208.472778,413.000000 199.705185,413.000000 190.190811,413.000000 
	C189.941269,413.355438 189.110840,414.538361 188.533600,415.360596 
	C186.102875,414.850677 184.064102,414.422974 182.018478,413.527222 
	C182.024124,406.731201 182.036652,400.403229 182.049179,394.075287 
	C182.049179,394.075287 182.028030,393.996521 182.356323,393.979553 
	C183.112137,393.593079 183.539658,393.223541 183.967178,392.854004 
	C183.967178,392.854004 183.965103,392.964630 184.158844,392.888977 
	C184.579681,392.566528 184.806763,392.319702 185.033844,392.072876 
	C185.033859,392.072876 185.021805,391.999817 185.351654,391.974243 
	C186.098541,391.559631 186.515594,391.170563 186.932632,390.781494 
z"/>
<path fill="#B92225" opacity="1.000000" stroke="none" 
	d="
M484.948669,371.995453 
	C484.963623,322.644135 484.978607,273.292847 485.235931,223.475403 
	C485.478302,223.009293 485.962494,223.032349 485.962494,223.032349 
	C486.050598,224.689102 486.215393,226.345856 486.215790,228.002625 
	C486.241394,331.270172 486.253571,434.537689 486.266968,537.805237 
	C486.267181,539.429199 486.267029,541.053162 486.267029,542.965210 
	C460.026489,542.965210 434.282227,542.965210 407.802063,542.965210 
	C407.802063,452.323792 407.802063,361.635956 408.154114,270.480469 
	C408.506195,270.012817 408.975281,270.002014 408.975281,270.002014 
	C408.992767,305.353790 409.010315,340.705566 409.021667,376.994324 
	C409.028748,389.948975 409.041962,401.966614 409.035950,414.454285 
	C409.024933,425.612305 409.033142,436.300293 409.030426,447.457520 
	C409.024200,459.280182 409.028931,470.633545 409.024872,482.453430 
	C409.469849,496.451691 409.923615,509.983490 410.370758,523.317627 
	C414.762207,523.557434 418.813599,523.949524 422.866821,523.969604 
	C438.158752,524.045288 453.452362,523.895874 468.742859,524.061035 
	C473.564880,524.113098 478.379089,524.886658 484.002441,525.404053 
	C484.002441,511.390259 484.002441,496.195740 484.002441,480.538422 
	C484.317841,469.712402 484.633240,459.349152 484.961731,448.518829 
	C484.964752,437.361603 484.954712,426.671478 484.956512,415.514038 
	C484.961792,400.696289 484.955231,386.345886 484.948669,371.995453 
z"/>
<path fill="#1A72B8" opacity="1.000000" stroke="none" 
	d="
M247.417938,232.116852 
	C247.100189,232.873123 246.891830,233.701645 246.447540,234.374374 
	C242.562073,240.257614 242.590866,242.221848 246.737839,247.429276 
	C256.000214,259.060272 256.393768,274.537567 247.206238,287.990936 
	C246.480225,288.596619 246.310104,288.923096 246.139984,289.249573 
	C246.139999,289.249573 246.167511,289.132812 245.824783,289.109314 
	C243.087814,291.504181 240.693558,293.922485 238.299301,296.340820 
	C238.299301,296.340820 238.200058,296.281738 237.972824,296.278076 
	C237.512161,296.545990 237.278717,296.817566 237.045288,297.089142 
	C237.045273,297.089142 237.008270,297.006378 236.629211,297.016968 
	C233.828308,297.926788 230.110367,296.169434 229.318405,300.409424 
	C229.318405,300.409424 229.220749,300.388306 228.844376,300.218536 
	C222.251541,299.759705 215.676407,301.026917 210.562958,295.920105 
	C212.299759,295.076324 214.043427,294.234650 215.787094,293.392975 
	C215.543518,292.766022 215.299927,292.139069 215.056351,291.512115 
	C212.925110,292.220520 210.390915,292.424408 208.744232,293.739563 
	C205.003616,296.726959 201.304443,295.550232 199.660553,289.977325 
	C201.661819,291.005646 203.369598,291.883148 206.086090,293.278931 
	C207.087082,288.243805 211.998810,285.392456 210.446396,279.007416 
	C209.384964,274.641815 204.273788,273.750031 204.045914,270.995239 
	C203.574539,265.297028 199.270157,263.304443 196.316895,259.944916 
	C195.216309,258.692932 194.019485,257.525574 192.632339,256.074615 
	C195.496445,255.024231 197.646194,254.235825 200.846954,253.061981 
	C195.733582,250.939117 191.785095,249.299881 187.181000,247.388458 
	C180.320908,251.890594 180.889145,249.847183 180.278046,246.003677 
	C186.638977,239.957916 191.882217,247.140411 197.625122,247.694168 
	C202.208496,241.906433 207.788086,238.103775 215.157166,237.307495 
	C221.166916,240.521881 223.794357,246.163788 226.596878,251.484177 
	C229.853317,257.666290 232.244415,264.322479 235.746017,270.345642 
	C236.759674,272.089264 238.020447,275.557495 242.146103,274.517792 
	C244.207352,273.998383 245.773666,279.024414 243.995697,280.787079 
	C242.992615,281.781525 241.396378,282.177673 239.469254,283.142853 
	C244.123795,285.646942 244.424637,285.742615 248.206985,282.009705 
	C249.162979,281.066193 249.716354,278.315491 249.056946,277.364990 
	C245.221481,271.836365 247.947983,268.017395 251.964310,264.588623 
	C251.240128,262.958160 250.285355,261.655762 250.115219,260.257843 
	C249.697769,256.828033 249.040009,254.393967 245.687210,251.864777 
	C243.532043,250.239044 239.200241,246.203339 241.632492,241.027191 
	C242.099670,240.032990 240.217819,237.973892 239.510010,236.366302 
	C239.279709,235.843277 239.336990,235.193619 239.191635,234.035126 
	C240.931030,234.581512 242.156845,234.966568 242.522415,235.081406 
	C243.406509,232.909683 244.201828,230.956055 245.008026,229.386551 
	C245.818604,230.552719 246.618271,231.334793 247.417938,232.116852 
M251.013275,270.041412 
	C250.864731,271.501770 250.716171,272.962128 250.567627,274.422516 
	C251.039993,274.399689 251.512360,274.376892 251.984726,274.354095 
	C251.692047,272.699921 251.399353,271.045776 251.013275,270.041412 
z"/>
<path fill="#BA2428" opacity="1.000000" stroke="none" 
	d="
M294.417664,521.092041 
	C294.356415,497.335419 294.272400,473.578796 294.241180,449.822144 
	C294.217621,431.876923 294.261566,413.931610 294.609894,395.532104 
	C295.271332,395.013397 295.601196,394.971436 295.952545,395.425781 
	C295.982056,404.933044 295.992950,413.966522 295.998688,423.468628 
	C295.998932,435.956635 296.004364,447.975983 296.005585,460.464478 
	C296.004517,471.286407 296.007629,481.639252 296.007629,492.461212 
	C296.004333,504.263397 296.028229,515.596497 295.988281,526.929443 
	C295.977173,530.083496 296.663269,532.697510 300.866669,534.265381 
	C300.353302,531.267639 299.954376,528.938110 299.693817,527.416626 
	C304.454620,528.295593 309.054749,529.767090 313.688751,529.882751 
	C327.013458,530.215393 340.351807,529.990723 353.684814,530.005310 
	C358.016174,530.010010 362.567261,529.247070 366.624207,530.321594 
	C371.917969,531.723511 372.102600,529.527832 372.047791,525.485291 
	C371.887329,513.654358 371.981628,501.820007 371.981384,489.519836 
	C371.981628,476.699036 371.976624,464.345459 371.976990,451.523743 
	C371.980804,439.701691 371.979248,428.347717 371.983521,416.525543 
	C371.986176,405.037323 371.982941,394.017334 371.987671,382.528931 
	C371.995605,291.834625 371.995605,201.608749 371.995605,110.890923 
	C369.425720,111.857399 367.886841,112.436150 366.220184,112.948372 
	C366.092407,112.881844 365.804657,112.895401 365.804657,112.895401 
	C367.925934,111.390915 370.047211,109.886429 372.728729,107.984581 
	C372.728729,253.409576 372.728729,398.055878 372.728729,543.186768 
	C347.030884,543.186768 321.442139,543.186768 295.392151,542.845093 
	C294.857697,542.263000 294.698822,542.113586 294.454254,542.055237 
	C294.386414,536.647766 294.318573,531.240356 294.529663,525.146484 
	C294.678253,523.337402 294.547974,522.214722 294.417664,521.092041 
z"/>
<path fill="#196DB4" opacity="1.000000" stroke="none" 
	d="
M215.005157,237.004929 
	C207.788086,238.103775 202.208496,241.906433 197.625122,247.694168 
	C191.882217,247.140411 186.638977,239.957916 180.278046,246.003677 
	C180.889145,249.847183 180.320908,251.890594 187.181000,247.388458 
	C191.785095,249.299881 195.733582,250.939117 200.846954,253.061981 
	C197.646194,254.235825 195.496445,255.024231 192.632339,256.074615 
	C194.019485,257.525574 195.216309,258.692932 196.316895,259.944916 
	C199.270157,263.304443 203.574539,265.297028 204.045914,270.995239 
	C204.273788,273.750031 209.384964,274.641815 210.446396,279.007416 
	C211.998810,285.392456 207.087082,288.243805 206.086090,293.278931 
	C203.369598,291.883148 201.661819,291.005646 199.660553,289.977325 
	C201.304443,295.550232 205.003616,296.726959 208.744232,293.739563 
	C210.390915,292.424408 212.925110,292.220520 215.056351,291.512115 
	C215.299927,292.139069 215.543518,292.766022 215.787094,293.392975 
	C214.043427,294.234650 212.299759,295.076324 210.562958,295.920105 
	C215.676407,301.026917 222.251541,299.759705 228.842651,300.168610 
	C210.081284,306.881042 187.604263,291.523926 186.968399,271.405670 
	C186.900375,269.253632 186.974319,267.097107 187.325073,264.757568 
	C188.301544,266.583160 188.935349,268.593842 189.834061,271.444824 
	C192.589493,265.736145 189.852356,262.848022 186.850906,260.049103 
	C178.250259,255.560730 169.642609,251.085678 161.052246,246.577698 
	C157.392975,244.657425 153.769821,242.668304 149.915985,240.434448 
	C149.995056,239.792557 150.587479,239.153732 150.538620,239.100204 
	C148.700134,237.085968 146.540421,236.025604 145.784698,232.399033 
	C144.981125,228.542923 140.539978,225.444855 137.623505,221.939240 
	C137.386383,222.621216 136.950821,223.873856 136.463745,225.274658 
	C136.066849,224.996490 135.363068,224.639557 135.402649,224.510437 
	C135.957626,222.699600 136.164291,220.464645 137.377594,219.266052 
	C138.494629,218.162491 140.720413,218.181259 142.702972,217.446167 
	C159.350266,225.859100 175.797607,234.447968 192.111115,243.283936 
	C194.912521,244.801270 196.553146,244.668533 198.952423,242.553146 
	C205.164536,237.076096 212.662430,234.165222 220.914093,234.973831 
	C225.685791,235.441422 227.841965,233.794617 229.127029,229.660156 
	C229.607300,228.115005 230.537247,226.709641 231.607452,225.482544 
	C230.620590,229.315842 229.413757,232.964050 227.832901,236.442276 
	C227.569519,237.021805 225.680939,236.995438 224.538879,237.017395 
	C221.362228,237.078476 218.183228,237.017624 215.005157,237.004929 
M188.890869,258.837830 
	C188.764252,258.364258 188.637619,257.890717 188.511002,257.417145 
	C188.147263,257.601379 187.783524,257.785614 187.419785,257.969849 
	C187.730026,258.276306 188.040268,258.582733 188.890869,258.837830 
z"/>
<path fill="#B82226" opacity="1.000000" stroke="none" 
	d="
M181.664948,394.271881 
	C182.036652,400.403229 182.024124,406.731201 182.008118,413.996277 
	C182.012756,427.952057 182.020874,440.970703 182.019409,454.459167 
	C182.015472,465.948639 182.021133,476.968292 182.019928,488.457306 
	C182.011581,498.081238 181.796249,507.243256 182.115234,516.386658 
	C182.240479,519.976746 183.561584,523.525146 184.338089,527.092529 
	C184.872116,527.123047 185.406143,527.153625 185.940170,527.184143 
	C187.199768,525.201233 188.459381,523.218262 189.699097,521.266663 
	C192.773880,523.288757 195.547562,526.665466 198.409378,526.741882 
	C216.538864,527.226013 234.688080,527.026184 252.830231,526.936523 
	C256.566772,526.918091 258.220306,525.097534 258.098541,520.948181 
	C257.786163,510.304718 257.989868,499.646088 257.990021,488.525513 
	C257.992340,475.370728 257.991913,462.683899 257.993958,449.531189 
	C258.000519,444.378876 258.004547,439.692474 258.253021,435.008362 
	C258.497498,435.010651 258.986145,435.026031 258.986145,435.026031 
	C258.986145,435.026031 259.475037,435.021179 259.475037,435.021179 
	C259.569336,443.344330 259.734894,451.667419 259.744812,459.990692 
	C259.777069,486.989868 259.752258,513.989136 259.513306,541.565979 
	C259.082123,542.393433 258.995270,542.676392 259.016541,542.992615 
	C233.231430,542.992615 207.446320,542.992615 181.365097,542.992615 
	C181.245560,541.982849 180.999222,540.871094 180.998840,539.759216 
	C180.982681,492.482239 180.986374,445.205231 181.003555,397.928253 
	C181.003967,396.774963 181.184311,395.621735 181.664948,394.271881 
z"/>
<path fill="#1875BC" opacity="1.000000" stroke="none" 
	d="
M215.157166,237.307495 
	C218.183228,237.017624 221.362228,237.078476 224.538879,237.017395 
	C225.680939,236.995438 227.569519,237.021805 227.832901,236.442276 
	C229.413757,232.964050 230.620590,229.315842 231.913940,225.302536 
	C231.875137,224.880508 231.907974,224.927307 232.197083,224.929031 
	C232.993958,224.622314 233.501724,224.313873 234.332397,223.958878 
	C234.776443,222.941299 234.897568,221.970261 235.182220,220.754364 
	C235.896225,220.340454 236.446686,220.171402 237.212723,220.237473 
	C240.418350,218.700714 239.469254,217.279480 236.996628,215.660645 
	C236.936478,215.110794 236.909103,214.891220 236.881714,214.671646 
	C236.881714,214.671646 236.891068,214.288071 237.391144,214.135284 
	C242.667557,207.589188 246.705139,200.858429 247.613571,192.698303 
	C247.613571,192.698303 247.601212,192.646378 248.009369,192.746796 
	C249.278763,192.896927 250.139999,192.946625 251.000610,192.998169 
	C251.000000,193.000000 251.003662,192.998840 251.044098,193.319473 
	C251.722855,194.091980 252.361176,194.543854 253.000183,195.329834 
	C253.001785,196.109406 253.002731,196.554886 253.007721,197.353973 
	C253.674118,198.469910 254.336441,199.232208 255.047485,200.332245 
	C256.399078,201.446487 257.701965,202.223007 258.857910,203.334595 
	C257.914520,205.932358 257.118073,208.195038 256.424896,210.164337 
	C254.895279,209.553024 253.907211,209.158157 252.919159,208.763290 
	C252.804657,209.819580 252.328888,210.996841 252.635437,211.912109 
	C254.364471,217.074463 250.752274,223.089966 245.551544,223.762421 
	C245.362839,225.546066 245.179993,227.274261 244.997147,229.002441 
	C244.201828,230.956055 243.406509,232.909683 242.522415,235.081406 
	C242.156845,234.966568 240.931030,234.581512 239.191635,234.035126 
	C239.336990,235.193619 239.279709,235.843277 239.510010,236.366302 
	C240.217819,237.973892 242.099670,240.032990 241.632492,241.027191 
	C239.200241,246.203339 243.532043,250.239044 245.687210,251.864777 
	C249.040009,254.393967 249.697769,256.828033 250.115219,260.257843 
	C250.285355,261.655762 251.240128,262.958160 251.964310,264.588623 
	C247.947983,268.017395 245.221481,271.836365 249.056946,277.364990 
	C249.716354,278.315491 249.162979,281.066193 248.206985,282.009705 
	C244.424637,285.742615 244.123795,285.646942 239.469254,283.142853 
	C241.396378,282.177673 242.992615,281.781525 243.995697,280.787079 
	C245.773666,279.024414 244.207352,273.998383 242.146103,274.517792 
	C238.020447,275.557495 236.759674,272.089264 235.746017,270.345642 
	C232.244415,264.322479 229.853317,257.666290 226.596878,251.484177 
	C223.794357,246.163788 221.166916,240.521881 215.157166,237.307495 
M245.032974,218.325226 
	C245.697388,216.533508 246.361816,214.741791 247.026230,212.950073 
	C246.551620,212.776443 246.077011,212.602798 245.602402,212.429169 
	C244.790680,214.320908 243.957825,216.204803 243.241409,218.131973 
	C243.211517,218.212387 244.268585,218.696869 245.032974,218.325226 
M237.718719,230.535919 
	C240.366379,227.466339 238.043900,226.486954 234.920807,225.905014 
	C235.673950,227.316574 236.427094,228.728134 237.718719,230.535919 
M233.295822,239.432877 
	C233.010742,239.704971 232.725662,239.977066 232.440567,240.249161 
	C232.553391,240.367142 232.758072,240.593903 232.765747,240.587418 
	C233.066422,240.333466 233.349152,240.058273 233.295822,239.432877 
z"/>
<path fill="#1E7CBE" opacity="1.000000" stroke="none" 
	d="
M253.003662,197.000351 
	C253.002731,196.554886 253.001785,196.109406 252.958527,195.009979 
	C252.278687,193.903641 251.641174,193.451233 251.003662,192.998840 
	C251.003662,192.998840 251.000000,193.000000 251.006546,192.619598 
	C252.205597,190.665894 253.398087,189.092575 254.832687,187.199844 
	C254.432617,186.331467 253.851151,185.069412 252.951965,183.117691 
	C255.259338,183.769714 256.854584,184.220505 259.994781,185.107880 
	C258.294312,182.483185 256.536194,181.026443 256.627533,179.696732 
	C257.062744,173.359955 259.273956,180.672729 260.944641,178.846146 
	C260.796967,174.768692 259.192657,169.916275 262.858978,165.883224 
	C263.195007,165.513580 262.191864,163.926514 261.810547,162.904770 
	C262.013702,162.367188 262.216858,161.829605 262.929688,160.979645 
	C263.613708,160.094376 263.788025,159.521484 263.962372,158.948593 
	C263.962372,158.948593 264.003326,158.990479 264.237061,158.819580 
	C264.618500,158.063690 264.766235,157.478668 264.913971,156.893661 
	C264.913971,156.893661 264.954437,156.998734 265.283051,156.931900 
	C266.702362,154.196915 267.793060,151.528763 268.883759,148.860596 
	C268.883759,148.860596 268.911255,148.979050 269.236847,148.923584 
	C271.654236,145.037613 273.933563,141.294556 275.774872,137.347183 
	C277.102448,134.501175 277.846771,131.383102 278.851196,128.386368 
	C278.851196,128.386368 278.771271,128.183624 279.109253,127.933487 
	C279.617126,127.098694 279.787018,126.514046 279.956909,125.929390 
	C279.956909,125.929390 279.996857,125.985466 280.226746,125.821693 
	C280.615326,125.077957 280.774017,124.498001 280.932739,123.918045 
	C280.932739,123.918045 280.986084,123.983749 281.215454,123.817650 
	C281.606567,123.066444 281.768341,122.481346 281.930084,121.896240 
	C281.930084,121.896240 281.965759,121.967918 282.208252,121.796410 
	C282.604950,121.000160 282.759186,120.375420 282.913391,119.750671 
	C286.413025,112.289757 289.912628,104.828842 293.685211,97.154785 
	C292.972107,102.046066 291.986053,107.150475 290.624695,112.636635 
	C289.526520,114.034859 288.803711,115.051331 288.080872,116.067795 
	C288.715027,116.300728 289.349182,116.533653 289.983337,116.766586 
	C290.323456,115.512177 290.663544,114.257767 291.003662,113.003357 
	C292.068695,113.001892 293.133759,113.000427 294.599396,112.999481 
	C295.000000,113.000000 295.002441,113.002441 295.002441,113.002441 
	C294.135681,115.595520 293.268921,118.188599 292.358490,120.912277 
	C290.665131,120.630493 289.250671,120.395119 286.185272,119.885017 
	C288.450134,123.945679 290.139343,126.974251 292.076721,130.447708 
	C295.336212,129.853073 292.295532,122.349586 298.580872,124.283096 
	C299.057770,124.757179 299.085541,124.946785 299.113281,125.136391 
	C299.113281,125.136391 299.080200,125.053062 298.836853,125.199692 
	C298.434753,125.948792 298.275940,126.551262 298.117157,127.153740 
	C298.117157,127.153740 298.089966,127.048096 297.762390,127.092361 
	C296.333618,129.934311 295.232452,132.732010 294.131317,135.529694 
	C294.131317,135.529694 294.191681,135.815140 293.724182,135.973190 
	C292.833344,137.409790 292.409973,138.688339 291.986633,139.966888 
	C291.986633,139.966888 292.007172,139.989792 291.626953,140.057159 
	C290.541962,141.932556 289.837128,143.740570 289.132324,145.548584 
	C289.132324,145.548584 289.235321,145.799683 288.880493,146.063995 
	C288.363525,146.905426 288.201416,147.482529 288.039307,148.059631 
	C288.039276,148.059631 287.995239,148.012085 287.672699,148.064758 
	C282.957123,151.767120 281.695251,156.803406 281.135651,162.150696 
	C281.135651,162.150696 281.106934,162.055527 280.801056,162.166794 
	C276.386871,165.997437 274.252441,170.631271 274.061371,176.165436 
	C274.061371,176.165436 274.036652,176.596451 273.630127,176.851044 
	C271.259766,179.089600 268.335052,180.698090 270.425659,184.266296 
	C270.425659,184.266296 270.431030,184.350830 270.051086,184.287369 
	C265.490234,186.020889 265.865753,189.617371 266.136993,193.172653 
	C266.136993,193.172653 266.121735,193.055313 265.763428,193.053070 
	C264.603851,193.033463 263.802521,193.016113 262.995422,192.656281 
	C262.664764,191.702988 262.339966,191.092194 262.015137,190.481384 
	C261.733704,190.778061 261.452271,191.074738 261.170837,191.371429 
	C261.780151,191.914703 262.389465,192.457962 262.954987,193.367371 
	C261.609070,196.822189 260.306946,199.910858 259.004822,202.999527 
	C257.701965,202.223007 256.399078,201.446487 255.042694,199.979233 
	C254.327347,198.525772 253.665512,197.763062 253.003662,197.000351 
M255.545166,193.837906 
	C256.291901,193.845963 257.038605,193.854019 257.785339,193.862076 
	C257.389801,193.069595 256.994293,192.277100 256.598785,191.484604 
	C256.141846,192.069656 255.684891,192.654709 255.545166,193.837906 
z"/>
<path fill="#E82427" opacity="1.000000" stroke="none" 
	d="
M257.996338,375.000000 
	C252.774567,380.468842 246.000732,379.212952 239.633240,378.912720 
	C232.383041,378.570831 225.832169,380.156158 219.777481,384.068512 
	C219.231491,384.421295 218.571472,384.623383 217.938309,384.803955 
	C217.650803,384.885956 217.299545,384.744385 218.358627,384.876282 
	C216.865509,381.844849 215.663712,379.640656 214.694260,377.338684 
	C214.197830,376.159882 214.117004,374.806061 213.803986,373.179077 
	C213.759598,372.826782 213.801773,372.840118 214.053772,372.801270 
	C214.527847,372.496887 214.749908,372.231384 214.971985,371.965881 
	C214.971985,371.965881 215.000000,372.000000 215.383286,371.992065 
	C216.709686,371.181122 217.652786,370.378113 218.595886,369.575134 
	C218.595901,369.575134 218.703156,369.605194 218.960785,369.642761 
	C219.433807,369.371613 219.649200,369.062897 219.864594,368.754181 
	C219.864578,368.754181 219.893997,368.879791 220.096741,368.814575 
	C220.519852,368.476196 220.740189,368.203064 220.960541,367.929932 
	C221.326935,367.591736 221.693329,367.253540 222.614990,366.847107 
	C223.437164,366.500793 223.704086,366.222748 223.971024,365.944702 
	C223.971024,365.944702 223.992096,366.003143 224.388062,365.992554 
	C227.006561,366.015747 229.482239,366.368256 228.822845,362.773865 
	C228.822845,362.773865 228.973923,362.857605 229.272980,362.891815 
	C230.319794,362.196777 231.067535,361.467499 231.815292,360.738251 
	C231.815292,360.738251 231.879196,360.848755 232.098602,360.791473 
	C232.564117,360.447266 232.810196,360.160339 233.056274,359.873413 
	C240.316162,354.902466 247.576050,349.931519 255.560303,344.946777 
	C257.335083,344.960388 258.385437,344.987793 259.435822,345.015198 
	C259.524597,345.461700 259.613403,345.908203 259.287689,346.778992 
	C258.839844,348.481140 258.806519,349.759003 258.994446,351.093445 
	C259.215729,351.150024 259.672119,351.169037 259.672119,351.169037 
	C259.681641,351.578522 259.691162,351.988007 259.240356,352.845398 
	C258.518799,360.528900 258.257568,367.764435 257.996338,375.000000 
M218.560272,375.640320 
	C219.443130,376.026703 220.326004,376.413116 221.208862,376.799530 
	C221.304733,376.380371 221.400589,375.961243 221.496460,375.542084 
	C220.678467,375.432983 219.860458,375.323883 218.560272,375.640320 
z"/>
<path fill="#D14446" opacity="1.000000" stroke="none" 
	d="
M295.933929,394.951965 
	C295.601196,394.971436 295.271332,395.013397 294.694763,395.076111 
	C294.333313,393.256744 294.123871,391.439148 294.123566,389.621490 
	C294.111053,315.382050 294.109161,241.142593 294.161072,166.903183 
	C294.162659,164.654587 294.751678,162.406403 295.538818,160.082153 
	C296.010834,160.006287 296.208618,160.202545 296.128754,160.646423 
	C296.023987,235.056183 295.999115,309.022064 295.967896,383.449585 
	C295.952362,387.591461 295.943146,391.271729 295.933929,394.951965 
z"/>
<path fill="#C72A2B" opacity="1.000000" stroke="none" 
	d="
M258.000305,375.468628 
	C258.257568,367.764435 258.518799,360.528900 259.120789,353.129395 
	C259.568848,366.235229 259.726685,379.504852 259.769501,392.774841 
	C259.813934,406.554016 259.747131,420.333527 259.601990,434.567017 
	C259.475037,435.021179 258.986145,435.026031 258.986145,435.026031 
	C258.986145,435.026031 258.497498,435.010651 258.249115,434.539001 
	C257.996796,426.043304 257.992889,418.019196 257.988983,409.995117 
	C257.994080,398.642517 257.999176,387.289886 258.000305,375.468628 
z"/>
<path fill="#1F79BA" opacity="1.000000" stroke="none" 
	d="
M263.001221,192.998779 
	C263.802521,193.016113 264.603851,193.033463 265.805145,193.095032 
	C260.099854,205.978043 253.994537,218.816833 247.653595,231.886230 
	C246.618271,231.334793 245.818604,230.552719 245.008041,229.386551 
	C245.179993,227.274261 245.362839,225.546066 245.551544,223.762421 
	C250.752274,223.089966 254.364471,217.074463 252.635437,211.912109 
	C252.328888,210.996841 252.804657,209.819580 252.919159,208.763290 
	C253.907211,209.158157 254.895279,209.553024 256.424896,210.164337 
	C257.118073,208.195038 257.914520,205.932358 258.857910,203.334595 
	C260.306946,199.910858 261.609070,196.822189 262.955597,193.366760 
	C263.000000,193.000000 263.001221,192.998779 263.001221,192.998779 
z"/>
<path fill="#1F79BA" opacity="1.000000" stroke="none" 
	d="
M261.521545,163.100174 
	C262.191864,163.926514 263.195007,165.513580 262.858978,165.883224 
	C259.192657,169.916275 260.796967,174.768692 260.944641,178.846146 
	C259.273956,180.672729 257.062744,173.359955 256.627533,179.696732 
	C256.536194,181.026443 258.294312,182.483185 259.994781,185.107880 
	C256.854584,184.220505 255.259338,183.769714 252.951965,183.117691 
	C253.851151,185.069412 254.432617,186.331467 254.832687,187.199844 
	C253.398087,189.092575 252.205597,190.665894 251.007156,192.617767 
	C250.139999,192.946625 249.278763,192.896927 247.998550,192.722412 
	C252.130554,182.830246 256.681549,173.062912 261.521545,163.100174 
z"/>
<path fill="#1E7CBE" opacity="1.000000" stroke="none" 
	d="
M323.412994,75.301071 
	C323.719543,66.844635 324.587708,65.866364 332.891449,66.046806 
	C338.318787,66.164734 343.266724,65.416092 347.907013,62.175198 
	C351.627747,59.576511 353.883545,60.895699 356.880737,66.804855 
	C353.414215,63.427898 349.865997,63.409054 345.332184,65.765129 
	C342.269012,67.356964 338.240906,68.231430 334.849030,67.803833 
	C328.620605,67.018639 325.366852,69.487259 323.412994,75.301071 
z"/>
<path fill="#1E7CBE" opacity="1.000000" stroke="none" 
	d="
M312.416138,97.957581 
	C313.788452,90.530479 313.949463,82.217300 321.962097,77.232361 
	C319.113403,84.023506 315.905060,90.885986 312.416138,97.957581 
z"/>
<path fill="#1E7CBE" opacity="1.000000" stroke="none" 
	d="
M397.131531,104.315308 
	C399.392181,105.198051 402.245148,105.906738 404.092102,107.669518 
	C408.293915,111.679787 412.001740,116.207680 415.908691,120.888084 
	C409.693726,115.707260 403.480408,110.163559 397.131531,104.315308 
z"/>
<path fill="#1F79BA" opacity="1.000000" stroke="none" 
	d="
M247.349396,192.909836 
	C246.705139,200.858429 242.667557,207.589188 237.522110,213.995087 
	C240.463745,207.045593 243.774475,200.083481 247.349396,192.909836 
z"/>
<path fill="#1F79BA" opacity="1.000000" stroke="none" 
	d="
M278.551758,128.610367 
	C277.846771,131.383102 277.102448,134.501175 275.774872,137.347183 
	C273.933563,141.294556 271.654236,145.037613 269.196045,148.878525 
	C271.970520,142.204071 275.111389,135.519226 278.551758,128.610367 
z"/>
<path fill="#D14446" opacity="1.000000" stroke="none" 
	d="
M344.875305,126.869911 
	C349.641022,123.581436 354.406769,120.292969 359.598572,117.013748 
	C360.024628,117.022987 360.208984,117.212837 360.085022,117.525970 
	C355.051880,120.972153 350.142670,124.105186 345.143829,127.146233 
	C345.054199,127.054245 344.875305,126.869919 344.875305,126.869911 
z"/>
<path fill="#1F79BA" opacity="1.000000" stroke="none" 
	d="
M274.367584,175.992920 
	C274.252441,170.631271 276.386871,165.997437 280.847870,162.183502 
	C279.024963,166.666107 276.849396,171.243256 274.367584,175.992920 
z"/>
<path fill="#1F79BA" opacity="1.000000" stroke="none" 
	d="
M281.420105,161.948212 
	C281.695251,156.803406 282.957123,151.767120 287.703491,148.074768 
	C285.939362,152.603317 283.821960,157.174515 281.420105,161.948212 
z"/>
<path fill="#1F75BB" opacity="1.000000" stroke="none" 
	d="
M186.973053,260.437317 
	C189.852356,262.848022 192.589493,265.736145 189.834061,271.444824 
	C188.935349,268.593842 188.301544,266.583160 187.424500,264.310822 
	C187.152573,262.974579 187.123886,261.900055 186.973053,260.437317 
z"/>
<path fill="#1E7CBE" opacity="1.000000" stroke="none" 
	d="
M307.394409,107.067238 
	C308.837708,104.312347 305.932922,99.203941 311.806885,98.125420 
	C310.709961,101.075798 309.216949,104.016403 307.394409,107.067238 
z"/>
<path fill="#1E7CBE" opacity="1.000000" stroke="none" 
	d="
M298.605591,86.964661 
	C301.448700,91.772217 297.326599,94.038536 294.306885,96.938148 
	C295.404602,93.706429 296.867889,90.448547 298.605591,86.964661 
z"/>
<path fill="#196DB4" opacity="1.000000" stroke="none" 
	d="
M238.628510,296.257599 
	C240.693558,293.922485 243.087814,291.504181 245.870758,289.147858 
	C243.825531,291.531372 241.391617,293.852875 238.628510,296.257599 
z"/>
<path fill="#1E7CBE" opacity="1.000000" stroke="none" 
	d="
M360.058472,70.369629 
	C362.578430,72.207123 365.232086,74.349976 367.856354,76.857269 
	C365.282013,75.039474 362.737091,72.857224 360.058472,70.369629 
z"/>
<path fill="#D14446" opacity="1.000000" stroke="none" 
	d="
M335.879456,132.872574 
	C338.655487,130.923752 341.431488,128.974930 344.541412,126.948013 
	C344.875305,126.869919 345.054199,127.054245 345.011597,127.456062 
	C342.061432,129.659195 339.153931,131.460495 336.154663,133.164490 
	C336.062958,133.067184 335.879456,132.872574 335.879456,132.872574 
z"/>
<path fill="#1F79BA" opacity="1.000000" stroke="none" 
	d="
M266.428772,192.976334 
	C265.865753,189.617371 265.490234,186.020889 270.056183,184.329422 
	C269.200989,187.216629 267.960785,189.998322 266.428772,192.976334 
z"/>
<path fill="#196DB4" opacity="1.000000" stroke="none" 
	d="
M236.997131,220.002350 
	C236.446686,220.171402 235.896225,220.340454 235.050995,221.048111 
	C234.507324,222.392960 234.258408,223.199188 234.009491,224.005417 
	C233.501724,224.313873 232.993958,224.622314 232.171753,224.919220 
	C233.332031,221.632843 234.806763,218.357986 236.581604,214.877380 
	C236.909103,214.891220 236.936478,215.110794 236.986328,216.061859 
	C237.004913,217.863022 237.001022,218.932678 236.997131,220.002350 
z"/>
<path fill="#1F79BA" opacity="1.000000" stroke="none" 
	d="
M294.408173,135.284164 
	C295.232452,132.732010 296.333618,129.934311 297.807495,127.122993 
	C297.015167,129.752457 295.850098,132.395538 294.408173,135.284164 
z"/>
<path fill="#1F79BA" opacity="1.000000" stroke="none" 
	d="
M270.686951,184.068436 
	C268.335052,180.698090 271.259766,179.089600 273.546265,177.049927 
	C272.895355,179.286346 271.921814,181.578461 270.686951,184.068436 
z"/>
<path fill="#1E7CBE" opacity="1.000000" stroke="none" 
	d="
M302.999146,113.997223 
	C304.054321,112.029144 305.109497,110.061073 306.516022,108.047180 
	C306.176178,109.904167 305.485016,111.806969 304.199677,113.867340 
	C303.403412,114.015686 303.201294,114.006454 302.999146,113.997223 
z"/>
<path fill="#D72125" opacity="1.000000" stroke="none" 
	d="
M408.988525,269.617523 
	C408.975281,270.002014 408.506195,270.012817 408.271973,270.027039 
	C407.429321,266.707001 407.088257,263.475189 411.525513,261.885254 
	C410.937653,264.306000 409.969727,266.769501 408.988525,269.617523 
z"/>
<path fill="#196DB4" opacity="1.000000" stroke="none" 
	d="
M229.679001,300.380981 
	C230.110367,296.169434 233.828308,297.926788 236.662766,297.047424 
	C234.730118,298.162384 232.384857,299.257446 229.679001,300.380981 
z"/>
<path fill="#1F79BA" opacity="1.000000" stroke="none" 
	d="
M268.595398,149.053711 
	C267.793060,151.528763 266.702362,154.196915 265.243530,156.891815 
	C266.019287,154.361313 267.163177,151.804062 268.595398,149.053711 
z"/>
<path fill="#D14446" opacity="1.000000" stroke="none" 
	d="
M308.966248,150.963013 
	C310.737335,149.667191 312.508453,148.371368 314.689514,147.089569 
	C315.099518,147.103622 315.266205,147.280457 315.124878,147.586441 
	C313.060486,149.023148 311.137390,150.153854 309.152893,151.203735 
	C309.091431,151.122894 308.966248,150.963013 308.966248,150.963013 
z"/>
<path fill="#1F79BA" opacity="1.000000" stroke="none" 
	d="
M299.390656,124.935989 
	C299.085541,124.946785 299.057770,124.757179 298.996765,124.281967 
	C298.975372,122.930649 298.987244,121.864937 298.999939,120.149612 
	C299.000793,119.500000 299.001221,119.000305 299.001221,119.000305 
	C299.768280,119.003639 300.535370,119.006973 301.685913,119.024780 
	C301.268951,120.938034 300.468475,122.836807 299.390656,124.935989 
z"/>
<path fill="#D14446" opacity="1.000000" stroke="none" 
	d="
M359.932678,116.927841 
	C361.608429,115.548592 363.376099,114.264488 365.474213,112.937897 
	C365.804657,112.895401 366.092407,112.881844 366.088501,113.307167 
	C364.126038,114.892609 362.167511,116.052734 360.208984,117.212845 
	C360.208984,117.212837 360.024628,117.022987 359.932678,116.927841 
z"/>
<path fill="#1E7CBE" opacity="1.000000" stroke="none" 
	d="
M369.906891,79.383224 
	C372.769775,78.034737 373.918182,79.443901 374.000061,82.626907 
	C372.685883,81.879044 371.366852,80.779022 369.906891,79.383224 
z"/>
<path fill="#E02124" opacity="1.000000" stroke="none" 
	d="
M228.489807,362.806763 
	C229.482239,366.368256 227.006561,366.015747 224.367554,365.968933 
	C225.352966,364.917175 226.754868,363.878418 228.489807,362.806763 
z"/>
<path fill="#1F79BA" opacity="1.000000" stroke="none" 
	d="
M289.421021,145.329758 
	C289.837128,143.740570 290.541962,141.932556 291.611908,140.058945 
	C291.221283,141.699219 290.465485,143.405075 289.421021,145.329758 
z"/>
<path fill="#1E7CBE" opacity="1.000000" stroke="none" 
	d="
M385.090759,93.306595 
	C386.308746,94.011047 387.645508,95.005562 388.992981,96.356346 
	C387.738953,95.673958 386.474243,94.635307 385.090759,93.306595 
z"/>
<path fill="#E02124" opacity="1.000000" stroke="none" 
	d="
M259.559753,344.739197 
	C258.385437,344.987793 257.335083,344.960388 255.888153,344.900330 
	C256.099609,344.310455 256.707611,343.753174 257.888062,343.160217 
	C258.849457,343.169464 259.238403,343.214355 259.627350,343.259247 
	C259.646118,343.660553 259.664886,344.061890 259.559753,344.739197 
z"/>
<path fill="#E02124" opacity="1.000000" stroke="none" 
	d="
M258.773163,351.036896 
	C258.806519,349.759003 258.839844,348.481140 259.161255,347.103088 
	C259.545471,347.719360 259.641602,348.435730 259.493958,349.655029 
	C259.091156,350.450928 258.932159,350.743927 258.773163,351.036896 
z"/>
<path fill="#1E7CBE" opacity="1.000000" stroke="none" 
	d="
M377.801483,86.582382 
	C378.751862,86.999168 379.823517,87.706177 380.891724,88.782394 
	C379.899750,88.391937 378.911255,87.632271 377.801483,86.582382 
z"/>
<path fill="#1E7CBE" opacity="1.000000" stroke="none" 
	d="
M391.934814,99.449120 
	C392.864349,99.881874 393.910278,100.605759 394.939240,101.718521 
	C393.965240,101.318352 393.008270,100.529305 391.934814,99.449120 
z"/>
<path fill="#E02124" opacity="1.000000" stroke="none" 
	d="
M218.292892,369.654968 
	C217.652786,370.378113 216.709686,371.181122 215.369400,371.974884 
	C215.978119,371.222046 216.984009,370.478455 218.292892,369.654968 
z"/>
<path fill="#1F79BA" opacity="1.000000" stroke="none" 
	d="
M292.221436,139.746429 
	C292.409973,138.688339 292.833344,137.409790 293.610413,136.064514 
	C293.461517,137.173828 292.958893,138.349899 292.221436,139.746429 
z"/>
<path fill="#E02124" opacity="1.000000" stroke="none" 
	d="
M231.493942,360.773376 
	C231.067535,361.467499 230.319794,362.196777 229.188293,362.874878 
	C229.593903,362.151978 230.383240,361.480255 231.493942,360.773376 
z"/>
<path fill="#D14446" opacity="1.000000" stroke="none" 
	d="
M332.900970,134.895874 
	C333.693146,134.263428 334.485352,133.630981 335.578491,132.935547 
	C335.879456,132.872574 336.062958,133.067184 336.012604,133.451782 
	C335.056061,134.310791 334.149902,134.785202 333.158081,135.168640 
	C333.072418,135.077667 332.900970,134.895874 332.900970,134.895874 
z"/>
<path fill="#D14446" opacity="1.000000" stroke="none" 
	d="
M298.793304,157.777054 
	C299.593719,157.154846 300.394165,156.532639 301.590088,155.947845 
	C301.985565,155.985260 302.170837,156.180328 302.047180,156.483444 
	C300.994843,157.250198 300.066132,157.713821 299.052246,158.076599 
	C298.967102,157.975769 298.793304,157.777054 298.793304,157.777054 
z"/>
<path fill="#D14446" opacity="1.000000" stroke="none" 
	d="
M329.903748,136.898987 
	C330.700348,136.268997 331.496948,135.639008 332.597260,134.952454 
	C332.900970,134.895874 333.072418,135.077667 333.014648,135.454727 
	C332.053284,136.308655 331.149658,136.785507 330.160522,137.171478 
	C330.074982,137.080597 329.903748,136.898987 329.903748,136.898987 
z"/>
<path fill="#D14446" opacity="1.000000" stroke="none" 
	d="
M304.805237,153.787933 
	C305.597015,153.162079 306.388824,152.536224 307.582214,151.944336 
	C307.983795,151.978317 308.187561,152.159515 308.067535,152.466217 
	C307.024597,153.244675 306.101654,153.716431 305.085022,154.088440 
	C304.991333,153.988678 304.805237,153.787949 304.805237,153.787933 
z"/>
<path fill="#D14446" opacity="1.000000" stroke="none" 
	d="
M315.016418,147.015015 
	C315.731995,146.300919 316.530701,145.675446 317.712891,145.074066 
	C318.096313,145.098160 318.259796,145.268143 318.116547,145.554871 
	C317.070923,146.321198 316.168549,146.800827 315.266205,147.280457 
	C315.266205,147.280457 315.099518,147.103622 315.016418,147.015015 
z"/>
<path fill="#D14446" opacity="1.000000" stroke="none" 
	d="
M301.892792,155.887878 
	C302.601440,155.170303 303.402832,154.550125 304.504730,153.858948 
	C304.805237,153.787949 304.991333,153.988678 304.962402,154.390488 
	C304.012573,155.254974 303.091705,155.717651 302.170837,156.180328 
	C302.170837,156.180328 301.985565,155.985260 301.892792,155.887878 
z"/>
<path fill="#D72125" opacity="1.000000" stroke="none" 
	d="
M486.081177,222.664551 
	C485.962494,223.032349 485.478302,223.009293 485.235901,223.007050 
	C484.959320,222.105453 484.925140,221.206116 485.013367,220.010162 
	C485.490448,220.574631 485.845154,221.435684 486.081177,222.664551 
z"/>
<path fill="#D14446" opacity="1.000000" stroke="none" 
	d="
M326.913635,138.901489 
	C327.708221,138.273590 328.502777,137.645706 329.600555,136.958405 
	C329.903748,136.898987 330.074982,137.080597 330.013397,137.459641 
	C329.029877,138.309189 328.107971,138.779694 327.118408,139.162689 
	C327.050751,139.075150 326.913635,138.901489 326.913635,138.901489 
z"/>
<path fill="#D14446" opacity="1.000000" stroke="none" 
	d="
M323.904999,140.902069 
	C324.706207,140.277222 325.507416,139.652374 326.611145,138.964508 
	C326.913635,138.901489 327.050751,139.075150 326.911987,139.383118 
	C325.931122,140.212402 325.089081,140.733688 324.161530,141.166748 
	C324.076019,141.078537 323.904999,140.902084 323.904999,140.902069 
z"/>
<path fill="#D14446" opacity="1.000000" stroke="none" 
	d="
M294.290497,521.459717 
	C294.547974,522.214722 294.678253,523.337402 294.608398,524.678589 
	C294.326599,523.873901 294.244965,522.850586 294.290497,521.459717 
z"/>
<path fill="#D14446" opacity="1.000000" stroke="none" 
	d="
M321.516571,142.454865 
	C322.121857,141.973694 322.727142,141.492538 323.618713,140.956726 
	C323.904999,140.902084 324.076019,141.078537 324.028931,141.441589 
	C323.332184,142.218063 322.682495,142.631470 321.905701,142.895721 
	C321.778534,142.746536 321.516571,142.454865 321.516571,142.454865 
z"/>
<path fill="#1E7CBE" opacity="1.000000" stroke="none" 
	d="
M374.139709,83.257248 
	C374.657867,83.415352 375.291687,83.836693 375.987122,84.563065 
	C375.450958,84.418892 374.853149,83.969681 374.139709,83.257248 
z"/>
<path fill="#1F79BA" opacity="1.000000" stroke="none" 
	d="
M302.997772,114.379166 
	C303.201294,114.006454 303.403412,114.015686 303.907928,114.051834 
	C303.997955,114.936806 303.785553,115.794853 303.304688,116.853363 
	C303.022919,116.289589 303.009674,115.525345 302.997772,114.379166 
z"/>
<path fill="#1F79BA" opacity="1.000000" stroke="none" 
	d="
M280.678925,124.086945 
	C280.774017,124.498001 280.615326,125.077957 280.192383,125.819656 
	C280.093781,125.406204 280.259430,124.831024 280.678925,124.086945 
z"/>
<path fill="#B82226" opacity="1.000000" stroke="none" 
	d="
M186.643768,390.841522 
	C186.515594,391.170563 186.098541,391.559631 185.379776,391.998322 
	C185.503677,391.665802 185.929291,391.283661 186.643768,390.841522 
z"/>
<path fill="#1F79BA" opacity="1.000000" stroke="none" 
	d="
M281.682617,122.074158 
	C281.768341,122.481346 281.606567,123.066444 281.174133,123.808372 
	C281.080719,123.394157 281.257935,122.823112 281.682617,122.074158 
z"/>
<path fill="#1F79BA" opacity="1.000000" stroke="none" 
	d="
M288.280823,147.873779 
	C288.201416,147.482529 288.363525,146.905426 288.779602,146.154770 
	C288.863129,146.550125 288.692719,147.119034 288.280823,147.873779 
z"/>
<path fill="#D14446" opacity="1.000000" stroke="none" 
	d="
M295.912689,159.907394 
	C296.232574,159.459320 296.650635,159.110123 297.452820,158.799789 
	C297.836914,158.838654 298.064667,159.071075 297.887817,159.287781 
	C297.210205,159.737183 296.709412,159.969879 296.208618,160.202545 
	C296.208618,160.202545 296.010834,160.006287 295.912689,159.907394 
z"/>
<path fill="#1F79BA" opacity="1.000000" stroke="none" 
	d="
M263.725281,159.130798 
	C263.788025,159.521484 263.613708,160.094376 263.172913,160.821503 
	C263.100372,160.421509 263.294312,159.867264 263.725281,159.130798 
z"/>
<path fill="#1E7CBE" opacity="1.000000" stroke="none" 
	d="
M376.257690,85.208511 
	C376.662323,85.208939 377.181122,85.474319 377.753540,86.042740 
	C377.328735,86.055016 376.850311,85.764244 376.257690,85.208511 
z"/>
<path fill="#1F79BA" opacity="1.000000" stroke="none" 
	d="
M264.659302,157.063919 
	C264.766235,157.478668 264.618500,158.063690 264.208221,158.814499 
	C264.098663,158.398254 264.251648,157.816223 264.659302,157.063919 
z"/>
<path fill="#B82226" opacity="1.000000" stroke="none" 
	d="
M183.671478,392.884125 
	C183.539658,393.223541 183.112137,393.593079 182.386230,394.007324 
	C182.517166,393.672729 182.946487,393.293488 183.671478,392.884125 
z"/>
<path fill="#D27174" opacity="1.000000" stroke="none" 
	d="
M259.694885,342.957275 
	C259.238403,343.214355 258.849457,343.169464 258.177002,343.041077 
	C258.516510,342.856781 259.139465,342.756042 259.694885,342.957275 
z"/>
<path fill="#E12124" opacity="1.000000" stroke="none" 
	d="
M70.727097,332.021362 
	C70.748138,332.300568 70.484406,332.622223 69.966522,332.924591 
	C69.955696,332.624786 70.199005,332.344299 70.727097,332.021362 
z"/>
<path fill="#D14446" opacity="1.000000" stroke="none" 
	d="
M318.015015,145.012756 
	C318.363800,144.575760 318.793884,144.224167 319.593018,143.920990 
	C319.962067,143.969391 320.132690,144.180008 319.934906,144.370850 
	C319.244659,144.797180 318.752228,145.032654 318.259796,145.268127 
	C318.259796,145.268143 318.096313,145.098160 318.015015,145.012756 
z"/>
<path fill="#1F79BA" opacity="1.000000" stroke="none" 
	d="
M298.383606,126.989029 
	C298.275940,126.551262 298.434753,125.948792 298.881653,125.197754 
	C298.996521,125.640900 298.823273,126.232613 298.383606,126.989029 
z"/>
<path fill="#1F79BA" opacity="1.000000" stroke="none" 
	d="
M282.652130,119.940804 
	C282.759186,120.375420 282.604950,121.000160 282.168243,121.798141 
	C282.054138,121.357895 282.222504,120.744415 282.652130,119.940804 
z"/>
<path fill="#1F79BA" opacity="1.000000" stroke="none" 
	d="
M279.711517,126.114777 
	C279.787018,126.514046 279.617126,127.098694 279.186096,127.856232 
	C279.105347,127.452797 279.285736,126.876480 279.711517,126.114777 
z"/>
<path fill="#D14446" opacity="1.000000" stroke="none" 
	d="
M319.874451,143.866028 
	C320.191650,143.397018 320.596497,143.031372 321.258942,142.560303 
	C321.516571,142.454865 321.778534,142.746536 321.729797,143.120316 
	C321.164917,143.722733 320.648804,143.951370 320.132690,144.180008 
	C320.132690,144.180008 319.962067,143.969391 319.874451,143.866028 
z"/>
<path fill="#1F79BA" opacity="1.000000" stroke="none" 
	d="
M302.282745,118.887833 
	C302.208008,118.494873 302.370911,117.917152 302.796692,117.178879 
	C302.879852,117.579910 302.700134,118.141495 302.282745,118.887833 
z"/>
<path fill="#1E7CBE" opacity="1.000000" stroke="none" 
	d="
M322.438721,77.150352 
	C322.302124,76.937767 322.416718,76.610619 322.755737,76.139923 
	C322.883423,76.342842 322.786682,76.689316 322.438721,77.150352 
z"/>
<path fill="#1E7CBE" opacity="1.000000" stroke="none" 
	d="
M367.873840,77.383087 
	C368.104462,77.306473 368.423096,77.504318 368.832794,77.976624 
	C368.603180,78.053246 368.282501,77.855400 367.873840,77.383087 
z"/>
<path fill="#1E7CBE" opacity="1.000000" stroke="none" 
	d="
M358.973999,69.306320 
	C359.177795,69.235504 359.465363,69.419250 359.855347,69.843254 
	C359.657776,69.909309 359.357788,69.735100 358.973999,69.306320 
z"/>
<path fill="#D27174" opacity="1.000000" stroke="none" 
	d="
M259.294678,542.954346 
	C258.995270,542.676392 259.082123,542.393433 259.469910,542.026611 
	C259.632751,542.245056 259.602783,542.580566 259.294678,542.954346 
z"/>
<path fill="#1E7CBE" opacity="1.000000" stroke="none" 
	d="
M357.926392,68.338318 
	C358.143402,68.255325 358.443848,68.434860 358.847626,68.862572 
	C358.637238,68.940781 358.323547,68.770813 357.926392,68.338318 
z"/>
<path fill="#1E7CBE" opacity="1.000000" stroke="none" 
	d="
M356.904572,67.355347 
	C357.132019,67.271690 357.436554,67.456696 357.834778,67.900253 
	C357.612823,67.980537 357.297272,67.802277 356.904572,67.355347 
z"/>
<path fill="#B82226" opacity="1.000000" stroke="none" 
	d="
M184.763092,392.098572 
	C184.806763,392.319702 184.579681,392.566528 184.104218,392.880310 
	C184.068008,392.672943 184.280182,392.398590 184.763092,392.098572 
z"/>
<path fill="#D14446" opacity="1.000000" stroke="none" 
	d="
M294.361694,542.260742 
	C294.698822,542.113586 294.857697,542.263000 294.949341,542.671997 
	C294.967773,542.840515 294.517120,542.842163 294.517120,542.842163 
	C294.517120,542.842163 294.269165,542.466248 294.361694,542.260742 
z"/>
<path fill="#1E7CBE" opacity="1.000000" stroke="none" 
	d="
M389.647125,97.388397 
	C389.877289,97.280800 390.260956,97.450043 390.778168,97.912636 
	C390.541351,98.025742 390.170990,97.845490 389.647125,97.388397 
z"/>
<path fill="#D14446" opacity="1.000000" stroke="none" 
	d="
M307.884583,151.884766 
	C308.010345,151.544510 308.235291,151.297791 308.713257,151.007034 
	C308.966248,150.963013 309.091431,151.122894 308.989868,151.358765 
	C308.671570,151.803848 308.437988,151.992126 308.187561,152.159515 
	C308.187561,152.159515 307.983795,151.978317 307.884583,151.884766 
z"/>
<path fill="#D14446" opacity="1.000000" stroke="none" 
	d="
M297.722412,158.723038 
	C297.838196,158.369339 298.068451,158.131241 298.546021,157.835098 
	C298.793304,157.777054 298.967102,157.975769 298.897430,158.252914 
	C298.609924,158.761917 298.355560,158.942245 298.064667,159.071075 
	C298.064667,159.071075 297.836914,158.838654 297.722412,158.723038 
z"/>
<path fill="#1E7CBE" opacity="1.000000" stroke="none" 
	d="
M396.037415,103.270264 
	C396.284607,103.109825 396.557434,103.287498 396.878540,103.783829 
	C396.702087,103.840683 396.414215,103.675980 396.037415,103.270264 
z"/>
<path fill="#1E7CBE" opacity="1.000000" stroke="none" 
	d="
M394.968170,102.307175 
	C395.176056,102.227692 395.464844,102.404800 395.863159,102.816353 
	C395.664795,102.888451 395.356934,102.726112 394.968170,102.307175 
z"/>
<path fill="#D72125" opacity="1.000000" stroke="none" 
	d="
M412.759705,261.110107 
	C412.798706,261.332825 412.566742,261.569458 412.089111,261.866882 
	C412.058563,261.659760 412.273682,261.391876 412.759705,261.110107 
z"/>
<path fill="#1E7CBE" opacity="1.000000" stroke="none" 
	d="
M390.864380,98.395767 
	C391.100525,98.302193 391.414948,98.481247 391.814941,98.927872 
	C391.581238,99.019768 391.261993,98.844078 390.864380,98.395767 
z"/>
<path fill="#196DB4" opacity="1.000000" stroke="none" 
	d="
M246.413788,289.158325 
	C246.310104,288.923096 246.480225,288.596619 246.911255,288.159149 
	C247.010651,288.387817 246.849121,288.727448 246.413788,289.158325 
z"/>
<path fill="#196DB4" opacity="1.000000" stroke="none" 
	d="
M237.323395,297.060638 
	C237.278717,296.817566 237.512161,296.545990 238.024567,296.252441 
	C238.069519,296.497681 237.835510,296.764923 237.323395,297.060638 
z"/>
<path fill="#1E7CBE" opacity="1.000000" stroke="none" 
	d="
M380.929260,89.338699 
	C381.149628,89.259186 381.447754,89.444649 381.842072,89.882614 
	C381.627869,89.957970 381.317444,89.780823 380.929260,89.338699 
z"/>
<path fill="#D27174" opacity="1.000000" stroke="none" 
	d="
M258.994446,351.093445 
	C258.932159,350.743927 259.091156,350.450928 259.458130,350.019287 
	C259.737701,350.094849 259.809296,350.309082 259.776489,350.846161 
	C259.672119,351.169037 259.215729,351.150024 258.994446,351.093445 
z"/>
<path fill="#E02124" opacity="1.000000" stroke="none" 
	d="
M232.762100,359.923096 
	C232.810196,360.160339 232.564117,360.447266 232.035049,360.797302 
	C231.990677,360.564545 232.229294,360.268646 232.762100,359.923096 
z"/>
<path fill="#E02124" opacity="1.000000" stroke="none" 
	d="
M223.671082,365.981873 
	C223.704086,366.222748 223.437164,366.500793 222.877991,366.835571 
	C222.847549,366.601257 223.109360,366.310150 223.671082,365.981873 
z"/>
<path fill="#E02124" opacity="1.000000" stroke="none" 
	d="
M220.685471,367.971741 
	C220.740189,368.203064 220.519852,368.476196 220.033035,368.804565 
	C219.981171,368.577728 220.195786,368.295654 220.685471,367.971741 
z"/>
<path fill="#E02124" opacity="1.000000" stroke="none" 
	d="
M219.584991,368.799500 
	C219.649200,369.062897 219.433807,369.371613 218.919708,369.680359 
	C218.849121,369.401855 219.077255,369.123322 219.584991,368.799500 
z"/>
<path fill="#E02124" opacity="1.000000" stroke="none" 
	d="
M214.696838,372.000610 
	C214.749908,372.231384 214.527847,372.496887 214.044479,372.820435 
	C213.996033,372.597443 214.208878,372.316376 214.696838,372.000610 
z"/>
<path fill="#1E7CBE" opacity="1.000000" stroke="none" 
	d="
M382.994751,91.296783 
	C383.195679,91.228989 383.478760,91.414467 383.865662,91.836395 
	C383.671967,91.898582 383.374451,91.724327 382.994751,91.296783 
z"/>
<path fill="#1E7CBE" opacity="1.000000" stroke="none" 
	d="
M381.945801,90.326630 
	C382.160217,90.244843 382.454529,90.424072 382.853455,90.845734 
	C382.647247,90.921341 382.336456,90.754501 381.945801,90.326630 
z"/>
<path fill="#1E7CBE" opacity="1.000000" stroke="none" 
	d="
M294.998779,112.998779 
	C295.558350,112.122093 296.119171,111.246635 296.679962,110.371170 
	C297.062256,110.768738 297.444580,111.166313 297.826874,111.563889 
	C297.123047,112.038437 296.419220,112.512985 295.358917,112.994995 
	C295.002441,113.002441 295.000000,113.000000 294.998779,112.998779 
z"/>
<path fill="#1E7CBE" opacity="1.000000" stroke="none" 
	d="
M298.956726,118.690598 
	C299.001221,119.000305 299.000793,119.500000 299.000397,119.749847 
	C298.425079,119.301392 297.850159,118.603088 297.275238,117.904770 
	C297.820892,118.063469 298.366547,118.222176 298.956726,118.690598 
z"/>
<path fill="#E22023" opacity="1.000000" stroke="none" 
	d="
M409.055176,413.984253 
	C409.041962,401.966614 409.028748,389.948975 409.037354,377.462311 
	C416.291168,380.460480 424.049713,379.982391 431.735657,379.994202 
	C445.203949,380.014893 458.673584,379.893555 472.139984,380.053986 
	C477.311493,380.115570 481.482697,379.378204 482.271423,373.173401 
	C482.329773,372.714172 483.528900,372.399994 484.573212,372.006927 
	C484.955231,386.345886 484.961792,400.696289 484.552521,415.518921 
	C480.890198,415.993622 477.643738,415.998230 474.397247,415.998352 
	C457.756866,415.998871 441.116394,415.969666 424.476166,416.020325 
	C420.818634,416.031464 417.161957,416.324677 412.570251,416.529724 
	C412.125763,416.207855 410.590454,415.096039 409.055176,413.984253 
z"/>
<path fill="#E12124" opacity="1.000000" stroke="none" 
	d="
M144.486908,376.993408 
	C144.956497,390.009430 144.962448,403.028107 144.494598,416.520142 
	C123.291916,416.995728 102.562630,416.938080 81.834625,417.074707 
	C79.207558,417.092041 76.587189,418.127167 73.428391,418.805725 
	C72.482674,418.412598 70.765060,417.698608 69.047447,416.984589 
	C69.035744,404.300232 69.024040,391.615845 69.031853,378.462524 
	C70.533653,378.908142 72.015930,379.822693 74.031311,381.066162 
	C74.886551,379.255035 75.752701,377.420776 76.151306,376.576660 
	C79.097763,376.788788 81.580421,377.061218 84.068192,377.121185 
	C86.727592,377.185242 89.391792,377.008698 92.053947,377.006561 
	C109.377045,376.992523 126.700172,376.997375 144.486908,376.993408 
z"/>
<path fill="#196DB4" opacity="1.000000" stroke="none" 
	d="
M133.398865,226.803574 
	C134.684265,226.972656 135.693512,227.323303 136.702759,227.673950 
	C136.726120,228.071045 136.749496,228.468140 136.772873,228.865234 
	C135.445312,229.111282 134.117767,229.357330 132.790207,229.603378 
	C132.901047,228.730621 133.011871,227.857880 133.398865,226.803574 
z"/>
<path fill="#CA2022" opacity="1.000000" stroke="none" 
	d="
M144.952576,456.979980 
	C144.633698,470.747406 144.235748,484.513763 144.054337,498.282990 
	C144.011688,501.519958 142.589935,502.948883 139.634964,502.957062 
	C122.164589,503.005341 104.692314,503.096130 87.225700,502.835999 
	C85.107300,502.804474 83.019005,500.752167 80.447517,499.387360 
	C79.856155,500.207062 79.045280,501.331085 78.590584,501.961365 
	C76.050087,500.860107 73.532059,499.768585 70.470009,498.441254 
	C70.015823,486.597595 69.521919,473.718079 69.411484,460.409302 
	C71.609581,458.448639 73.424210,456.917236 75.455917,455.202667 
	C76.282356,457.529083 77.022881,459.613617 77.763405,461.698181 
	C77.821182,461.164978 77.878952,460.631805 77.936729,460.098633 
	C81.343285,459.399078 84.730354,458.240448 88.160416,458.094879 
	C95.472191,457.784607 102.808739,458.121063 110.130661,457.972260 
	C121.739891,457.736298 133.345459,457.319977 144.952576,456.979980 
z"/>
<path fill="#D52024" opacity="1.000000" stroke="none" 
	d="
M144.963989,456.513428 
	C133.345459,457.319977 121.739891,457.736298 110.130661,457.972260 
	C102.808739,458.121063 95.472191,457.784607 88.160416,458.094879 
	C84.730354,458.240448 81.343285,459.399078 77.936729,460.098633 
	C77.878952,460.631805 77.821182,461.164978 77.763405,461.698181 
	C77.022881,459.613617 76.282356,457.529083 75.455917,455.202667 
	C73.424210,456.917236 71.609581,458.448639 69.424057,459.979431 
	C69.040298,445.960846 69.027428,431.942902 69.031006,417.454773 
	C70.765060,417.698608 72.482674,418.412598 73.428391,418.805725 
	C76.587189,418.127167 79.207558,417.092041 81.834625,417.074707 
	C102.562630,416.938080 123.291916,416.995728 144.483398,416.987488 
	C144.955795,430.003265 144.965607,443.025085 144.963989,456.513428 
z"/>
<path fill="#D62023" opacity="1.000000" stroke="none" 
	d="
M257.629700,410.058289 
	C257.992889,418.019196 257.996796,426.043304 258.004639,434.536743 
	C258.004547,439.692474 258.000519,444.378876 257.621948,449.579102 
	C254.651184,452.771698 251.461075,453.110535 247.868088,453.071106 
	C232.600327,452.903625 217.326340,453.180725 202.061905,452.900421 
	C196.826965,452.804260 191.613205,451.554413 186.476456,450.843628 
	C185.106400,451.812683 183.567703,452.901001 182.028992,453.989319 
	C182.020874,440.970703 182.012756,427.952057 182.014984,414.464355 
	C184.064102,414.422974 186.102875,414.850677 188.533600,415.360596 
	C189.110840,414.538361 189.941269,413.355438 190.190811,413.000000 
	C199.705185,413.000000 208.472778,413.000000 217.240372,413.000000 
	C227.719666,413.000000 238.205460,413.203064 248.674026,412.868073 
	C251.565811,412.775574 254.406342,411.080963 257.629700,410.058289 
z"/>
<path fill="#C31E22" opacity="1.000000" stroke="none" 
	d="
M484.002441,481.001221 
	C484.002441,496.195740 484.002441,511.390259 484.002441,525.404053 
	C478.379089,524.886658 473.564880,524.113098 468.742859,524.061035 
	C453.452362,523.895874 438.158752,524.045288 422.866821,523.969604 
	C418.813599,523.949524 414.762207,523.557434 410.370758,523.317627 
	C409.923615,509.983490 409.469849,496.451691 409.383942,482.501709 
	C412.689575,486.428497 417.112823,486.066193 421.583771,486.038788 
	C437.684448,485.940094 453.786194,485.978027 469.887390,486.013397 
	C474.723999,486.024017 479.898956,487.139832 482.593689,481.326355 
	C482.718109,481.057983 483.517426,481.102448 484.002441,481.001221 
z"/>
<path fill="#CD2022" opacity="1.000000" stroke="none" 
	d="
M484.002441,480.538422 
	C483.517426,481.102448 482.718109,481.057983 482.593689,481.326355 
	C479.898956,487.139832 474.723999,486.024017 469.887390,486.013397 
	C453.786194,485.978027 437.684448,485.940094 421.583771,486.038788 
	C417.112823,486.066193 412.689575,486.428497 409.392731,482.035217 
	C409.028931,470.633545 409.024200,459.280182 409.398834,447.469177 
	C411.569641,447.936432 413.385193,449.700592 415.148682,449.649963 
	C426.680878,449.319031 438.197723,448.230743 449.727539,448.101746 
	C461.463165,447.970428 473.207916,448.657318 484.948669,448.985962 
	C484.633240,459.349152 484.317841,469.712402 484.002441,480.538422 
z"/>
<path fill="#D72125" opacity="1.000000" stroke="none" 
	d="
M484.961731,448.518860 
	C473.207916,448.657318 461.463165,447.970428 449.727539,448.101746 
	C438.197723,448.230743 426.680878,449.319031 415.148682,449.649963 
	C413.385193,449.700592 411.569641,447.936432 409.409760,446.999939 
	C409.033142,436.300293 409.024933,425.612305 409.035950,414.454285 
	C410.590454,415.096039 412.125763,416.207855 412.570251,416.529724 
	C417.161957,416.324677 420.818634,416.031464 424.476166,416.020325 
	C441.116394,415.969666 457.756866,415.998871 474.397247,415.998352 
	C477.643738,415.998230 480.890198,415.993622 484.540680,415.986237 
	C484.954712,426.671478 484.964752,437.361603 484.961731,448.518860 
z"/>
<path fill="#1875BC" opacity="1.000000" stroke="none" 
	d="
M251.059967,269.716492 
	C251.399353,271.045776 251.692047,272.699921 251.984726,274.354095 
	C251.512360,274.376892 251.039993,274.399689 250.567627,274.422516 
	C250.716171,272.962128 250.864731,271.501770 251.059967,269.716492 
z"/>
<path fill="#EC2225" opacity="1.000000" stroke="none" 
	d="
M297.887817,159.287781 
	C298.355560,158.942245 298.609924,158.761917 298.982605,158.353760 
	C300.066132,157.713821 300.994843,157.250198 302.047180,156.483444 
	C303.091705,155.717651 304.012573,155.254974 305.056091,154.490234 
	C306.101654,153.716431 307.024597,153.244675 308.067535,152.466217 
	C308.437988,151.992126 308.671570,151.803848 309.051300,151.439606 
	C311.137390,150.153854 313.060486,149.023148 315.124878,147.586426 
	C316.168549,146.800827 317.070923,146.321198 318.116547,145.554855 
	C318.752228,145.032654 319.244659,144.797180 319.934906,144.370850 
	C320.648804,143.951370 321.164917,143.722733 321.856934,143.269501 
	C322.682495,142.631470 323.332184,142.218063 324.114441,141.529816 
	C325.089081,140.733688 325.931122,140.212402 326.979614,139.470657 
	C328.107971,138.779694 329.029877,138.309189 330.098938,137.550537 
	C331.149658,136.785507 332.053284,136.308655 333.100311,135.545700 
	C334.149902,134.785202 335.056061,134.310791 336.104309,133.549103 
	C339.153931,131.460495 342.061432,129.659195 345.101196,127.548050 
	C350.142670,124.105186 355.051880,120.972153 360.085022,117.525986 
	C362.167511,116.052734 364.126038,114.892609 366.216248,113.373695 
	C367.886841,112.436150 369.425720,111.857399 371.995605,110.890923 
	C371.995605,201.608749 371.995605,291.834625 371.600708,382.483643 
	C367.313507,382.271179 363.427673,381.137909 359.527710,381.087036 
	C343.549866,380.878510 327.567352,381.061188 311.587463,380.956573 
	C307.634186,380.930695 303.864746,380.726654 302.914032,385.280609 
	C300.388367,384.446228 298.181305,383.717102 295.974243,382.987976 
	C295.999115,309.022064 296.023987,235.056183 296.128754,160.646423 
	C296.709412,159.969879 297.210205,159.737183 297.887817,159.287781 
z"/>
<path fill="#E12023" opacity="1.000000" stroke="none" 
	d="
M295.967926,383.449585 
	C298.181305,383.717102 300.388367,384.446228 302.914032,385.280609 
	C303.864746,380.726654 307.634186,380.930695 311.587463,380.956573 
	C327.567352,381.061188 343.549866,380.878510 359.527710,381.087036 
	C363.427673,381.137909 367.313507,382.271179 371.592773,382.952057 
	C371.982941,394.017334 371.986176,405.037323 371.621582,416.567200 
	C366.257050,421.708862 360.077271,421.102448 353.996429,421.011261 
	C350.011414,420.951477 346.024750,421.000061 342.038818,420.999969 
	C331.575745,420.999695 321.112701,420.991699 310.649628,421.003845 
	C307.715607,421.007233 304.781616,421.069855 301.847626,421.105286 
	C301.817474,421.576447 301.787323,422.047607 301.757202,422.518738 
	C301.092255,421.744110 300.427338,420.969482 299.891022,420.344696 
	C298.362488,421.388824 297.183167,422.194397 296.003845,423.000000 
	C295.992950,413.966522 295.982056,404.933044 295.952545,395.425781 
	C295.943146,391.271729 295.952362,387.591461 295.967926,383.449585 
z"/>
<path fill="#C11E22" opacity="1.000000" stroke="none" 
	d="
M371.976105,489.987000 
	C371.981628,501.820007 371.887329,513.654358 372.047791,525.485291 
	C372.102600,529.527832 371.917969,531.723511 366.624207,530.321594 
	C362.567261,529.247070 358.016174,530.010010 353.684814,530.005310 
	C340.351807,529.990723 327.013458,530.215393 313.688751,529.882751 
	C309.054749,529.767090 304.454620,528.295593 299.693817,527.416626 
	C299.954376,528.938110 300.353302,531.267639 300.866669,534.265381 
	C296.663269,532.697510 295.977173,530.083496 295.988281,526.929443 
	C296.028229,515.596497 296.004333,504.263397 296.378784,492.422211 
	C298.724274,492.437622 300.695526,492.961212 302.666779,493.484772 
	C304.856934,493.803955 307.352020,493.150269 309.868469,493.053833 
	C314.694580,492.868744 319.556244,493.308105 324.361816,492.943481 
	C340.221100,491.740173 356.429199,496.096741 371.976105,489.987000 
z"/>
<path fill="#D62023" opacity="1.000000" stroke="none" 
	d="
M295.998688,423.468628 
	C297.183167,422.194397 298.362488,421.388824 299.891022,420.344696 
	C300.427338,420.969482 301.092255,421.744110 301.757202,422.518738 
	C301.787323,422.047607 301.817474,421.576447 301.847626,421.105286 
	C304.781616,421.069855 307.715607,421.007233 310.649628,421.003845 
	C321.112701,420.991699 331.575745,420.999695 342.038818,420.999969 
	C346.024750,421.000061 350.011414,420.951477 353.996429,421.011261 
	C360.077271,421.102448 366.257050,421.708862 371.615723,417.035400 
	C371.979248,428.347717 371.980804,439.701691 371.635590,451.580444 
	C368.238007,456.590454 363.882629,457.193634 358.783264,457.098907 
	C343.825958,456.821106 328.857635,456.852203 313.899414,457.104126 
	C310.169556,457.166931 306.461395,458.519318 302.743256,459.278992 
	C302.659637,459.797028 302.576019,460.315063 302.492432,460.833099 
	C301.646027,459.292603 300.799622,457.752106 299.762878,455.865173 
	C298.288940,457.487122 297.149323,458.741180 296.009705,459.995300 
	C296.004364,447.975983 295.998932,435.956635 295.998688,423.468628 
z"/>
<path fill="#CB1F22" opacity="1.000000" stroke="none" 
	d="
M296.005554,460.464417 
	C297.149323,458.741180 298.288940,457.487122 299.762878,455.865173 
	C300.799622,457.752106 301.646027,459.292603 302.492432,460.833099 
	C302.576019,460.315063 302.659637,459.797028 302.743256,459.278992 
	C306.461395,458.519318 310.169556,457.166931 313.899414,457.104126 
	C328.857635,456.852203 343.825958,456.821106 358.783264,457.098907 
	C363.882629,457.193634 368.238007,456.590454 371.630249,452.048553 
	C371.976624,464.345459 371.981628,476.699036 371.981384,489.519836 
	C356.429199,496.096741 340.221100,491.740173 324.361816,492.943481 
	C319.556244,493.308105 314.694580,492.868744 309.868469,493.053833 
	C307.352020,493.150269 304.856934,493.803955 302.666779,493.484772 
	C300.695526,492.961212 298.724274,492.437622 296.381897,491.953064 
	C296.007629,481.639252 296.004517,471.286407 296.005554,460.464417 
z"/>
<path fill="#1F75BB" opacity="1.000000" stroke="none" 
	d="
M188.620697,258.863525 
	C188.040268,258.582733 187.730026,258.276306 187.419785,257.969849 
	C187.783524,257.785614 188.147263,257.601379 188.511002,257.417145 
	C188.637619,257.890717 188.764252,258.364258 188.620697,258.863525 
z"/>
<path fill="#C21E22" opacity="1.000000" stroke="none" 
	d="
M257.987274,488.993530 
	C257.989868,499.646088 257.786163,510.304718 258.098541,520.948181 
	C258.220306,525.097534 256.566772,526.918091 252.830231,526.936523 
	C234.688080,527.026184 216.538864,527.226013 198.409378,526.741882 
	C195.547562,526.665466 192.773880,523.288757 189.699097,521.266663 
	C188.459381,523.218262 187.199768,525.201233 185.940170,527.184143 
	C185.406143,527.153625 184.872116,527.123047 184.338089,527.092529 
	C183.561584,523.525146 182.240479,519.976746 182.115234,516.386658 
	C181.796249,507.243256 182.011581,498.081238 182.424789,488.461548 
	C185.234955,486.622498 187.633408,485.248596 190.545197,483.580597 
	C189.626236,492.353333 195.977783,489.163116 200.755676,489.003906 
	C201.584198,488.976288 202.414429,489.000061 203.243881,488.999969 
	C221.491684,488.997833 239.739471,488.995697 257.987274,488.993530 
z"/>
<path fill="#CC1F22" opacity="1.000000" stroke="none" 
	d="
M257.990021,488.525513 
	C239.739471,488.995697 221.491684,488.997833 203.243881,488.999969 
	C202.414429,489.000061 201.584198,488.976288 200.755676,489.003906 
	C195.977783,489.163116 189.626236,492.353333 190.545197,483.580597 
	C187.633408,485.248596 185.234955,486.622498 182.431641,487.992188 
	C182.021133,476.968292 182.015472,465.948639 182.019409,454.459167 
	C183.567703,452.901001 185.106400,451.812683 186.476456,450.843628 
	C191.613205,451.554413 196.826965,452.804260 202.061905,452.900421 
	C217.326340,453.180725 232.600327,452.903625 247.868088,453.071106 
	C251.461075,453.110535 254.651184,452.771698 257.619446,450.045044 
	C257.991913,462.683899 257.992340,475.370728 257.990021,488.525513 
z"/>
<path fill="#1F79BA" opacity="1.000000" stroke="none" 
	d="
M244.926117,218.659164 
	C244.268585,218.696869 243.211517,218.212387 243.241409,218.131973 
	C243.957825,216.204803 244.790680,214.320908 245.602402,212.429169 
	C246.077011,212.602798 246.551620,212.776443 247.026230,212.950073 
	C246.361816,214.741791 245.697388,216.533508 244.926117,218.659164 
z"/>
<path fill="#1A72B8" opacity="1.000000" stroke="none" 
	d="
M237.449463,230.337799 
	C236.427094,228.728134 235.673950,227.316574 234.920807,225.905014 
	C238.043900,226.486954 240.366379,227.466339 237.449463,230.337799 
z"/>
<path fill="#1F79BA" opacity="1.000000" stroke="none" 
	d="
M237.212708,220.237457 
	C237.001022,218.932678 237.004913,217.863022 237.019104,216.392151 
	C239.469254,217.279480 240.418350,218.700714 237.212708,220.237457 
z"/>
<path fill="#1F79BA" opacity="1.000000" stroke="none" 
	d="
M253.007721,197.353973 
	C253.665512,197.763062 254.327347,198.525772 254.993988,199.641495 
	C254.336441,199.232208 253.674118,198.469910 253.007721,197.353973 
z"/>
<path fill="#1A72B8" opacity="1.000000" stroke="none" 
	d="
M234.332397,223.958878 
	C234.258408,223.199188 234.507324,222.392960 234.887466,221.292969 
	C234.897568,221.970261 234.776443,222.941299 234.332397,223.958878 
z"/>
<path fill="#1A72B8" opacity="1.000000" stroke="none" 
	d="
M233.465027,239.609375 
	C233.349152,240.058273 233.066422,240.333466 232.765747,240.587418 
	C232.758072,240.593903 232.553391,240.367142 232.440567,240.249161 
	C232.725662,239.977066 233.010742,239.704971 233.465027,239.609375 
z"/>
<path fill="#1F79BA" opacity="1.000000" stroke="none" 
	d="
M251.044098,193.319473 
	C251.641174,193.451233 252.278687,193.903641 252.957855,194.675873 
	C252.361176,194.543854 251.722855,194.091980 251.044098,193.319473 
z"/>
<path fill="#1E81C3" opacity="1.000000" stroke="none" 
	d="
M291.001831,113.001678 
	C290.663544,114.257767 290.323456,115.512177 289.983337,116.766586 
	C289.349182,116.533653 288.715027,116.300728 288.080872,116.067795 
	C288.803711,115.051331 289.526520,114.034859 290.622864,113.007553 
	C290.996338,112.996712 291.000000,113.000000 291.001831,113.001678 
z"/>
<path fill="#1F79BA" opacity="1.000000" stroke="none" 
	d="
M255.386551,193.538834 
	C255.684891,192.654709 256.141846,192.069656 256.598785,191.484604 
	C256.994293,192.277100 257.389801,193.069595 257.785339,193.862076 
	C257.038605,193.854019 256.291901,193.845963 255.386551,193.538834 
z"/>
<path fill="#1F79BA" opacity="1.000000" stroke="none" 
	d="
M262.999390,193.000610 
	C262.389465,192.457962 261.780151,191.914703 261.170837,191.371429 
	C261.452271,191.074738 261.733704,190.778061 262.015137,190.481384 
	C262.339966,191.092194 262.664764,191.702988 262.995422,192.656281 
	C263.001221,192.998779 263.000000,193.000000 262.999390,193.000610 
z"/>
<path fill="#E02124" opacity="1.000000" stroke="none" 
	d="
M218.801361,375.427551 
	C219.860458,375.323883 220.678467,375.432983 221.496460,375.542084 
	C221.400589,375.961243 221.304733,376.380371 221.208862,376.799530 
	C220.326004,376.413116 219.443130,376.026703 218.801361,375.427551 
z"/>
</svg>