<svg id="Capa_1" enable-background="new 0 0 512 512" viewBox="0 0 512 512" xmlns="http://www.w3.org/2000/svg"><g><g><path d="m297.251 167.361 86.749-19.56v110.852l32 89.022-32 53.473-64 36.951z" fill="#feb237"/></g><g><path d="m256 401.148v-73.9l-20.913-175.882 20.913-3.565 64-8.795v299.093z" fill="#ffd15b"/></g><g><path d="m178.417 66.059 77.583-29.109v290.298l-64 36.95z" fill="#0593fc"/></g><g><path d="m128 36.95v21.652l-30.693 60.16 30.693 208.486 64 36.95v-312.749z" fill="#60b7ff"/></g><g><path d="m429.942 279.22 82.058-20.567v216.396l-64 36.95z" fill="#fd5426"/></g><g><path d="m128 58.602v194.745l-64 36.95-9.113-210.529z" fill="#008b81"/></g><g><path d="m0 253.347v-194.745l64 13.755v217.94z" fill="#0ab69f"/></g><g><path d="m384 475.049v-216.396l64 10.862v242.484z" fill="#fe7d43"/></g><g><path d="m0 58.602 64-36.951 64 36.951-64 36.95z" fill="#5de1c4"/></g><g><path d="m128 36.95 64-36.95 64 36.95-64 36.951z" fill="#b3dafe"/></g><g><path d="m256 147.801 64-36.95 64 36.95-64 36.951z" fill="#fff0ad"/></g><g><path d="m384 258.653 64-36.951 64 36.951-64 36.95z" fill="#fead8a"/></g><g><path d="m336.16 394.136-54.956-3.069-65.864 72.83 23.579 40.5 64-36.953-.001-.001c20.546-11.862 33.242-37.218 33.242-73.307z" fill="#fd5426"/></g><g><path d="m336.16 394.136c0-72.475-51.201-160.789-114.361-197.254-31.71-18.308-60.405-20.066-81.12-8.106l-64 36.953 138.66 238.168z" fill="#5de1c4"/></g><g><path d="m272.16 431.089c0-72.477-51.201-160.792-114.361-197.257-31.452-18.159-59.937-20.035-80.612-8.393l76.017 147.584z" fill="#0ab69f"/></g><g><path d="m77.186 225.438c-20.844 11.737-33.748 37.213-33.748 73.599 0 72.477 51.201 160.792 114.361 197.257l27.652-69.231-27.652-62.001z" fill="#ffd15b"/></g><g><path d="m157.799 365.063v131.231c63.16 36.465 114.361 7.272 114.361-65.205-41.463-23.938-114.361-66.026-114.361-66.026z" fill="#fe7d43"/></g></g><g/><g/><g/><g/><g/><g/><g/><g/><g/><g/><g/><g/><g/><g/><g/></svg>