<svg id="Business_x5F_Growth_1_" enable-background="new 0 0 512 512" height="512" viewBox="0 0 512 512" width="512" xmlns="http://www.w3.org/2000/svg"><g id="Business_x5F_Growth"><g><path d="m54.848 321.424v-191.388l42.965 27.34v189.437z" fill="#639deb"/><path d="m54.848 130.036 35.153-19.529 44.916 25.388-37.104 21.481z" fill="#82d3ff"/><path d="m97.813 157.376v189.437l37.104-21.483v-189.435z" fill="#1f5c9c"/></g><g><path d="m123.201 7-19.53 9.765 68.353 50.776 19.53-9.764z" fill="#1f5c9c"/><g><path d="m304.824 303.847-157.712-221.293 15.148-9.155 9.764-5.858-68.353-50.776v89.836l25.389-13.672 171.857 244.119h134.754l-7.813-33.201z" fill="#ffd900"/><path d="m435.671 337.048 21.481-13.672-7.811-31.246-21.483 11.717z" fill="#1f5c9c"/></g></g><g><path d="m328.259 477.659v-105.46l46.87 29.294v103.507z" fill="#0ec478"/><path d="m328.259 372.199 35.153-19.529 48.824 29.294-37.107 19.529z" fill="#089970"/><path d="m375.129 401.493v103.507l37.107-23.436v-99.6z" fill="#107054"/></g><g><path d="m226.707 421.022v-50.774l42.964 25.388v50.775z" fill="#ff5d42"/><path d="m226.707 370.248 35.151-19.53 44.918 27.341-37.105 17.577z" fill="#c73d2c"/><path d="m269.671 395.636v50.775l37.105-21.48v-46.872z" fill="#912621"/></g><g><path d="m140.776 370.248v-124.99l41.013 25.389v123.036z" fill="#ffd900"/><path d="m140.776 245.258 33.2-17.575 42.966 25.388-35.153 17.576z" fill="#e8ae00"/><path d="m181.789 270.647v123.036l35.153-19.53v-121.082z" fill="#c77e00"/></g><g><g><g><path d="m421.225 103.559c-25.718-41.141-68.289-74.545-106.346-74.545-8.291 0-15.283 1.66-20.595 4.317l-8.535 6.094-19.95 14.247 4.069 20.345s1.093.816 2.696 2.093c-.035 1.111-.06 2.221-.06 3.341 0 31.274 16.337 66.492 39.918 94.577l82.235-55.71z" fill="#e8ae00"/><path d="m383.701 223.623c8.46 6.985 16.366 13.134 16.366 13.134l21.971-15.691c14.133-7.37 22.783-22.923 22.783-45.324 0-23.464-9.134-49.046-23.597-72.184l-26.566 14.759-82.235 55.71c20.311 24.192 45.996 43.097 71.278 49.596z" fill="#c77e00"/></g><g><path d="m421.843 190.643c0 31.78-14.068 50.435-42.382 50.435-59.485-.004-129.933-81.599-129.933-146.727 0-32.675 18.731-49.986 44.488-49.986 56.172-.001 127.827 80.046 127.827 146.278z" fill="#ffd900"/></g><g><path d="m403.046 190.271c0 25.785-13.3 33.326-27.979 33.326-47.789 0-110.354-73.6-110.354-125.892 0-33.61 26.138-33.707 29.783-33.707 46.283 0 108.55 73.27 108.55 126.273z" fill="#e8ae00"/></g></g><path d="m361.459 130.036v-15.624l-19.529-11.341v-12.094l-11.719-5.859v12.106l-23.435-12.106v48.823l41.013 19.53v19.529l-41.013-21.481v15.622l23.435 13.672v12.09l11.719 5.86v-14.044l17.575 9.764v-48.823l-37.105-19.156v-19.529z" fill="#fffbdb"/></g><g fill="#1f5c9c"><path d="m318.494 292.13-13.67 11.717h123.034l21.483-11.717z"/><path d="m162.26 73.399-15.148 9.155 157.712 221.293 13.67-11.717z"/></g></g></svg>