<svg height="24" viewBox="0 0 24 24" width="24" xmlns="http://www.w3.org/2000/svg"><g id="Page-1" fill="none" fill-rule="evenodd"><g id="flat" fill="#fac14c" fill-rule="nonzero" transform="translate(-168 -120)"><g id="quote-right-saying-speech" transform="translate(168 123)"><path id="Combined-Shape" d="m17.5 0c3.0375661 0 5.5 2.46243388 5.5 5.5 0 2.24359353-1.167947 4.41441778-2.9111308 4.8333002-.672403.1615766-1.2078979 1.02447-1.0928361 2.0095374.1540066 1.3184824 1.3463276 2.6505542 3.7071167 3.7002924.5256439.2337306.3055464 1.024461-.2652638.9529968-6.1525687-.7702882-10.4173542-4.7813592-10.4378142-10.45628872-.0000737-3.90279086 2.3057181-6.53983808 5.4999282-6.53983808z"/><path id="Combined-Shape" d="m5.5 0c3.03756612 0 5.5 2.46243388 5.5 5.5 0 2.24359353-1.16794703 4.41441778-2.91113083 4.8333002-.67240301.1615766-1.20789791 1.02447-1.09283612 2.0095374.15400669 1.3184824 1.3463276 2.6505542 3.70711675 3.7002924.5256439.2337306.3055464 1.024461-.2652638.9529968-6.15256873-.7702882-10.41735423-4.7813592-10.43781423-10.45628872-.00007369-3.90279086 2.30571812-6.53983808 5.49992823-6.53983808z"/></g></g></g></svg>