<svg height="512" viewBox="0 0 512 512" width="512" xmlns="http://www.w3.org/2000/svg"><g id="Layer_2" data-name="Layer 2"><g id="sun"><circle cx="256" cy="256" fill="#ffbd2b" r="147.89"/><path d="m397 211.28c-31.31 6.6-90.84 20.65-149.6 42.69-64.62 24.23-108.74-30.68-126.3-58.65a147.94 147.94 0 0 1 275.9 16z" fill="#ffe232"/><ellipse cx="295" cy="166.48" fill="#fdec74" rx="25.81" ry="36.81" transform="matrix(.362 -.932 .932 .362 33.11 381.32)"/><path d="m248.37 402.08q-.45.8-.93 1.56a147.54 147.54 0 0 1 -102.16-49.59 86.32 86.32 0 0 1 4.48-8.91c19.23-33.3 56.89-47.56 84.12-31.83s33.72 55.47 14.49 88.77z" fill="#fec52d"/><rect fill="#ffbd2b" height="82.83" rx="21.11" width="42.22" x="234.89"/><path d="m277.12 21.11v40.61a21.13 21.13 0 0 1 -26.49 20.41 21.11 21.11 0 0 0 15.74-20.41v-40.61a21.13 21.13 0 0 0 -15.74-20.42 21.13 21.13 0 0 1 26.49 20.42z" fill="#ebae2a"/><rect fill="#ffbd2b" height="82.83" rx="21.11" transform="matrix(.866 -.5 .5 .866 -15.16 83.75)" width="42.22" x="127.6" y="28.75"/><path d="m156.84 42 20.31 35.17a21.12 21.12 0 0 1 -7.74 28.83 21.37 21.37 0 0 1 -5 2.08 21.12 21.12 0 0 0 3.42-25.55l-20.3-35.17a21.13 21.13 0 0 0 -23.84-9.81 21.12 21.12 0 0 1 33.15 4.45z" fill="#ebae2a"/><rect fill="#ffbd2b" height="82.83" rx="21.11" transform="matrix(.5 -.866 .866 .5 -93.7 135.12)" width="42.22" x="49.05" y="107.29"/><path d="m63.13 120.27 35.17 20.3a21.12 21.12 0 0 1 7.7 28.84 20.75 20.75 0 0 1 -3.29 4.3 21.11 21.11 0 0 0 -9.81-23.83l-35.14-20.31a21.16 21.16 0 0 0 -25.55 3.43 21.15 21.15 0 0 1 14.91-14.82 20.94 20.94 0 0 1 16.01 2.09z" fill="#ebae2a"/><rect fill="#ffbd2b" height="82.83" rx="21.11" transform="matrix(0 -1 1 0 -214.59 297.41)" width="42.22" x="20.3" y="214.59"/><path d="m21.11 234.88h40.61a21.13 21.13 0 0 1 20.41 26.49 21.11 21.11 0 0 0 -20.41-15.74h-40.61a21.13 21.13 0 0 0 -20.42 15.74 21.13 21.13 0 0 1 20.42-26.49z" fill="#ebae2a"/><rect fill="#ffbd2b" height="82.83" rx="21.11" transform="matrix(-.5 -.866 .866 -.5 -209.38 605.7)" width="42.22" x="49.05" y="321.88"/><path d="m42 355.16 35.17-20.31a21.12 21.12 0 0 1 28.83 7.74 21.37 21.37 0 0 1 2.08 5 21.12 21.12 0 0 0 -25.55-3.42l-35.17 20.3a21.13 21.13 0 0 0 -9.81 23.84 21.12 21.12 0 0 1 4.45-33.15z" fill="#ebae2a"/><rect fill="#ffbd2b" height="82.83" rx="21.11" transform="matrix(-.866 -.5 .5 -.866 56.57 898.83)" width="42.22" x="127.6" y="400.42"/><path d="m120.27 448.87 20.3-35.17a21.12 21.12 0 0 1 28.84-7.7 20.75 20.75 0 0 1 4.3 3.29 21.11 21.11 0 0 0 -23.83 9.81l-20.31 35.17a21.16 21.16 0 0 0 3.43 25.52 21.15 21.15 0 0 1 -14.82-14.91 20.94 20.94 0 0 1 2.09-16.01z" fill="#ebae2a"/><rect fill="#ffbd2b" height="82.83" rx="21.11" transform="matrix(-1 0 0 -1 512 941.17)" width="42.22" x="234.89" y="429.17"/><path d="m234.88 490.89v-40.61a21.13 21.13 0 0 1 26.49-20.41 21.11 21.11 0 0 0 -15.74 20.41v40.61a21.13 21.13 0 0 0 15.74 20.42 21.13 21.13 0 0 1 -26.49-20.42z" fill="#ebae2a"/><rect fill="#ffbd2b" height="82.83" rx="21.11" transform="matrix(-.866 .5 -.5 -.866 898.83 642.83)" width="42.22" x="342.18" y="400.42"/><path d="m355.16 470-20.31-35.17a21.12 21.12 0 0 1 7.74-28.83 21.37 21.37 0 0 1 5-2.08 21.12 21.12 0 0 0 -3.42 25.55l20.3 35.17a21.13 21.13 0 0 0 23.84 9.81 21.12 21.12 0 0 1 -33.15-4.45z" fill="#ebae2a"/><rect fill="#ffbd2b" height="82.83" rx="21.11" transform="matrix(-.5 .866 -.866 -.5 977.38 162.3)" width="42.22" x="420.73" y="321.88"/><path d="m448.87 391.73-35.17-20.3a21.12 21.12 0 0 1 -7.7-28.84 20.75 20.75 0 0 1 3.29-4.3 21.11 21.11 0 0 0 9.81 23.83l35.17 20.31a21.16 21.16 0 0 0 25.52-3.43 21.15 21.15 0 0 1 -14.91 14.82 20.94 20.94 0 0 1 -16.01-2.09z" fill="#ebae2a"/><rect fill="#ffbd2b" height="82.83" rx="21.11" transform="matrix(0 1 -1 0 726.59 -214.59)" width="42.22" x="449.48" y="214.59"/><path d="m490.89 277.12h-40.61a21.13 21.13 0 0 1 -20.41-26.49 21.11 21.11 0 0 0 20.41 15.74h40.61a21.13 21.13 0 0 0 20.42-15.74 21.13 21.13 0 0 1 -20.42 26.49z" fill="#ebae2a"/><rect fill="#ffbd2b" height="82.83" rx="21.11" transform="matrix(.5 .866 -.866 .5 349.7 -308.29)" width="42.22" x="420.73" y="107.29"/><path d="m470 156.84-35.17 20.31a21.12 21.12 0 0 1 -28.83-7.74 21.37 21.37 0 0 1 -2.08-5 21.12 21.12 0 0 0 25.55 3.42l35.17-20.3a21.13 21.13 0 0 0 9.81-23.84 21.12 21.12 0 0 1 -4.45 33.15z" fill="#ebae2a"/><rect fill="#ffbd2b" height="82.83" rx="21.11" transform="matrix(.866 .5 -.5 .866 83.75 -172.25)" width="42.22" x="342.18" y="28.75"/><path d="m391.73 63.13-20.3 35.17a21.12 21.12 0 0 1 -28.84 7.7 20.75 20.75 0 0 1 -4.3-3.29 21.11 21.11 0 0 0 23.83-9.81l20.31-35.17a21.16 21.16 0 0 0 -3.43-25.52 21.15 21.15 0 0 1 14.82 14.91 20.94 20.94 0 0 1 -2.09 16.01z" fill="#ebae2a"/></g></g></svg>