<svg id="flat" height="512" viewBox="0 0 64 64" width="512" xmlns="http://www.w3.org/2000/svg"><path d="m53 15h-7.25v12c0 2.76-6.16 5-13.75 5-2.38 0-4.61-.22-6.55-.6-4.29-.85-7.2-2.5-7.2-4.4v-12h-7.25c-1.1 0-2 .9-2 2v28c0 1.1.9 2 2 2h42c1.1 0 2-.9 2-2v-28c0-1.1-.9-2-2-2z" fill="#f0f0f0"/><path d="m59 15v32c0 2.21-1.79 4-4 4h-19-8-19c-2.21 0-4-1.79-4-4v-32c0-2.21 1.79-4 4-4h9.25v4h-7.25c-1.1 0-2 .9-2 2v28c0 1.1.9 2 2 2h9 33c1.1 0 2-.9 2-2v-28c0-1.1-.9-2-2-2h-7.25v-4h9.25c2.21 0 4 1.79 4 4z" fill="#81cff1"/><path d="m11.731 15h-.731c-1.1 0-2 .9-2 2v28c0 1.1.9 2 2 2h42c1.1 0 2-.9 2-2v-1.872c-20.792.159-46.268-4.54-43.269-28.128z" fill="#ccd4f6"/><path d="m55 43.128v1.872c0 1.1-.9 2-2 2h-33-9c-1.1 0-2-.9-2-2v-28c0-1.1.9-2 2-2h.731c.162-1.277.409-2.61.743-4h-3.474c-2.21 0-4 1.79-4 4v32c0 2.21 1.79 4 4 4h19 8 19c2.21 0 4-1.79 4-4v-3.96c-1.307.048-2.644.078-4 .088z" fill="#57b4e8"/><path d="m45.29 59c1.1 0 2 .9 2 2s-.9 2-2 2h-26c-.55 0-1.05-.22-1.42-.59-.36-.36-.58-.86-.58-1.41 0-1.1.89-2 2-2h7.71 10z" fill="#6f7bbf"/><path d="m45.75 16.45v10.55c0 2.76-6.16 5-13.75 5-2.38 0-4.61-.22-6.55-.6-4.29-.85-7.2-2.5-7.2-4.4v-10.55c1.29 2.71 6.16 5 13.75 5s13.04-2.3 13.75-5z" fill="#f25430"/><path d="m35 28.34c-2.38 0-4.61-.22-6.55-.6-4.29-.85-7.2-2.5-7.2-4.4v-4.07c-1.49-.81-2.5-1.79-3-2.82v10.55c0 1.9 2.91 3.55 7.2 4.4 1.94.38 4.17.6 6.55.6 7.59 0 13.75-2.24 13.75-5v-.54c-2.52 1.14-6.4 1.88-10.75 1.88z" fill="#b53f24"/><path d="m40.59 23.54c-1.07 0-1.93.92-1.93 2.05 0 .84.48 1.56 1.17 1.88.71-.1 1.39-.22 2.03-.35.4-.38.65-.92.65-1.53 0-1.13-.86-2.05-1.92-2.05zm0 0c-1.07 0-1.93.92-1.93 2.05 0 .84.48 1.56 1.17 1.88.71-.1 1.39-.22 2.03-.35.4-.38.65-.92.65-1.53 0-1.13-.86-2.05-1.92-2.05z" fill="#f25430"/><path d="m45.75 15v1.45c-.71 2.7-6.16 5-13.75 5s-12.46-2.29-13.75-5v-1.45-4-5c1.29 2.71 6.16 5 13.75 5s13.04-2.3 13.75-5v5z" fill="#f9b904"/><path d="m34.99 17.62c-7.59 0-12.46-2.29-13.75-5v-3.81c-1.48-.81-2.49-1.77-2.99-2.81v10.45c1.29 2.71 6.16 5 13.75 5s13.04-2.3 13.75-5v-.9c-2.45 1.25-6.22 2.07-10.76 2.07z" fill="#e3952e"/><path d="m40.59 12.79c-1.07 0-1.93.91-1.93 2.04s.86 2.04 1.93 2.04c1.06 0 1.92-.91 1.92-2.04s-.86-2.04-1.92-2.04zm0 0c-1.07 0-1.93.91-1.93 2.04s.86 2.04 1.93 2.04c1.06 0 1.92-.91 1.92-2.04s-.86-2.04-1.92-2.04z" fill="#e3952e"/><path d="m40.59 12.79c1.06 0 1.92.91 1.92 2.04s-.86 2.04-1.92 2.04c-1.07 0-1.93-.91-1.93-2.04s.86-2.04 1.93-2.04z" fill="#7ad300"/><path d="m40.59 23.54c1.06 0 1.92.92 1.92 2.05 0 1.12-.86 2.04-1.92 2.04-1.07 0-1.93-.92-1.93-2.04 0-1.13.86-2.05 1.93-2.05z" fill="#7ad300"/><path d="m32 1c7.59 0 13.75 2.24 13.75 5-.71 2.7-6.16 5-13.75 5s-12.46-2.29-13.75-5c0-2.76 6.16-5 13.75-5z" fill="#f4f454"/><path d="m43.05 8.79c-2.44 1.32-6.33 2.21-11.05 2.21-7.59 0-12.46-2.29-13.75-5 0-1.91 2.94-3.57 7.27-4.41-1.44.79-2.27 1.73-2.27 2.75 1.29 2.71 6.16 5 13.75 5 2.22 0 4.26-.2 6.05-.55z" fill="#f6de09"/><path d="m36 51 1 8h-10l1-8z" fill="#9bb8f2"/><g><path d="m32 17.225c-4.101 0-7.698-.654-10.404-1.894-.502-.229-.723-.823-.493-1.325.229-.501.821-.724 1.325-.493 1.706.781 4.752 1.712 9.572 1.712.994 0 1.972-.041 2.906-.121.562-.063 1.034.361 1.082.91.048.551-.36 1.035-.91 1.082-.991.086-2.027.129-3.078.129z" fill="#f4f454"/></g><g><path d="m32 27.486c-4.103 0-7.7-.655-10.404-1.894-.503-.23-.724-.823-.493-1.325.229-.501.821-.724 1.325-.493 1.705.781 4.75 1.712 9.572 1.712.99 0 1.969-.04 2.907-.12.561-.057 1.034.36 1.081.911s-.361 1.034-.911 1.081c-.995.085-2.03.128-3.077.128z" fill="#f79883"/></g><g><path d="m26 34v3c0 1.65-1.35 3-3 3h-6.27c.17-.29.27-.64.27-1s-.1-.71-.27-1h6.27c.55 0 1-.45 1-1v-3c0-.55.45-1 1-1s1 .45 1 1z" fill="#6f7bbf"/></g><g><circle cx="15" cy="39" fill="#7ad300" r="2"/></g><g><circle cx="20" cy="43" fill="#f25430" r="2"/></g><g><circle cx="44" cy="43" fill="#f6de09" r="2"/></g><g><circle cx="49" cy="39" fill="#81cff1" r="2"/></g><g><path d="m12 21c-.553 0-1-.447-1-1v-2c0-.553.447-1 1-1h2c.553 0 1 .447 1 1s-.447 1-1 1h-1v1c0 .553-.447 1-1 1z" fill="#6f7bbf"/></g><g><path d="m12 26c-.553 0-1-.447-1-1v-2c0-.553.447-1 1-1s1 .447 1 1v2c0 .553-.447 1-1 1z" fill="#6f7bbf"/></g><g><path d="m30 35v6c0 1.65-1.35 3-3 3h-5.27c.17-.29.27-.64.27-1s-.1-.71-.27-1h5.27c.55 0 1-.45 1-1v-6c0-.55.45-1 1-1s1 .45 1 1z" fill="#6f7bbf"/></g><g><path d="m47 39c0 .36.1.71.27 1h-6.27c-1.65 0-3-1.35-3-3v-3c0-.55.45-1 1-1s1 .45 1 1v3c0 .55.45 1 1 1h6.27c-.17.29-.27.64-.27 1z" fill="#6f7bbf"/></g><g><path d="m42 43c0 .36.1.71.27 1h-5.27c-1.65 0-3-1.35-3-3v-6c0-.55.45-1 1-1s1 .45 1 1v6c0 .55.45 1 1 1h5.27c-.17.29-.27.64-.27 1z" fill="#6f7bbf"/></g></svg>