<svg id="Capa_1" enable-background="new 0 0 510 510" height="512" viewBox="0 0 510 510" width="512" xmlns="http://www.w3.org/2000/svg" xmlns:xlink="http://www.w3.org/1999/xlink"><linearGradient id="SVGID_1_" gradientUnits="userSpaceOnUse" x1="277.748" x2="360.013" y1="77.067" y2="319.161"><stop offset="0" stop-color="#09a76d"/><stop offset="1" stop-color="#026841"/></linearGradient><linearGradient id="lg1"><stop offset="0" stop-color="#026841" stop-opacity="0"/><stop offset="1" stop-color="#433f43"/></linearGradient><linearGradient id="SVGID_2_" gradientUnits="userSpaceOnUse" x1="309.362" x2="309.362" xlink:href="#lg1" y1="100.119" y2="50.956"/><linearGradient id="SVGID_3_" gradientUnits="userSpaceOnUse" x1="329" x2="228.755" xlink:href="#lg1" y1="170.103" y2="170.103"/><linearGradient id="lg2"><stop offset="0" stop-color="#c86d36"/><stop offset="1" stop-color="#883f2e"/></linearGradient><linearGradient id="SVGID_4_" gradientUnits="userSpaceOnUse" x1="191.265" x2="491.018" xlink:href="#lg2" y1="52.006" y2="351.759"/><linearGradient id="SVGID_5_" gradientUnits="userSpaceOnUse" x1="504.839" x2="103.696" xlink:href="#lg2" y1="365.58" y2="-35.563"/><linearGradient id="SVGID_6_" gradientUnits="userSpaceOnUse" x1="309.362" x2="309.362" y1="259.087" y2="316.096"><stop offset="0" stop-color="#883f2e" stop-opacity="0"/><stop offset="1" stop-color="#6d3326"/></linearGradient><linearGradient id="SVGID_7_" gradientUnits="userSpaceOnUse" x1="119.971" x2="168.384" y1="268.332" y2="366.67"><stop offset="0" stop-color="#e6eeff"/><stop offset="1" stop-color="#bac8fa"/></linearGradient><linearGradient id="SVGID_8_" gradientUnits="userSpaceOnUse" x1="157.904" x2="157.904" y1="275.95" y2="256.392"><stop offset="0" stop-color="#a7b7f1" stop-opacity="0"/><stop offset="1" stop-color="#a7b7f1"/></linearGradient><linearGradient id="lg3"><stop offset="0" stop-color="#5a5a5a"/><stop offset="1" stop-color="#444"/></linearGradient><linearGradient id="SVGID_9_" gradientUnits="userSpaceOnUse" x1="119.572" x2="168.494" xlink:href="#lg3" y1="267.954" y2="367.327"/><linearGradient id="lg4"><stop offset="0" stop-color="#433f43" stop-opacity="0"/><stop offset="1" stop-color="#1a1a1a"/></linearGradient><linearGradient id="SVGID_10_" gradientUnits="userSpaceOnUse" x1="263.819" x2="214.388" xlink:href="#lg4" y1="341.585" y2="315.595"/><linearGradient id="SVGID_11_" gradientUnits="userSpaceOnUse" x1="44.171" x2="107.235" xlink:href="#lg3" y1="274.901" y2="299.362"/><linearGradient id="SVGID_12_" gradientUnits="userSpaceOnUse" x1="185.382" x2="234.304" xlink:href="#lg3" y1="300.862" y2="333.477"/><linearGradient id="SVGID_13_" gradientUnits="userSpaceOnUse" x1="157.904" x2="157.904" xlink:href="#lg4" y1="343.481" y2="369.65"/><linearGradient id="lg5"><stop offset="0" stop-color="#f1b0a2"/><stop offset="1" stop-color="#ca6e59"/></linearGradient><linearGradient id="SVGID_14_" gradientUnits="userSpaceOnUse" x1="157.905" x2="157.905" xlink:href="#lg5" y1="237.713" y2="288.659"/><linearGradient id="lg6"><stop offset="0" stop-color="#ca6e59" stop-opacity="0"/><stop offset="1" stop-color="#883f2e"/></linearGradient><linearGradient id="SVGID_15_" gradientUnits="userSpaceOnUse" x1="157.905" x2="157.905" xlink:href="#lg6" y1="285.386" y2="260.057"/><linearGradient id="SVGID_16_" gradientUnits="userSpaceOnUse" x1="53.52" x2="78.802" xlink:href="#lg5" y1="99.092" y2="124.374"/><linearGradient id="SVGID_17_" gradientUnits="userSpaceOnUse" x1="230.305" x2="265.683" xlink:href="#lg5" y1="94.289" y2="129.667"/><linearGradient id="SVGID_18_" gradientUnits="userSpaceOnUse" x1="66.981" x2="248.826" xlink:href="#lg5" y1="114.236" y2="114.236"/><linearGradient id="SVGID_19_" gradientUnits="userSpaceOnUse" x1="96.584" x2="126.863" xlink:href="#lg3" y1="119.502" y2="119.502"/><linearGradient id="SVGID_20_" gradientUnits="userSpaceOnUse" x1="188.945" x2="219.224" xlink:href="#lg3" y1="119.502" y2="119.502"/><linearGradient id="SVGID_21_" gradientUnits="userSpaceOnUse" x1="157.904" x2="157.904" xlink:href="#lg6" y1="130.878" y2="166.551"/><linearGradient id="SVGID_22_" gradientUnits="userSpaceOnUse" x1="133.753" x2="212.487" y1="152.955" y2="225.574"><stop offset="0" stop-color="#b4d2e2"/><stop offset="1" stop-color="#7bacdf"/></linearGradient><linearGradient id="SVGID_23_" gradientUnits="userSpaceOnUse" x1="158.022" x2="158.022" y1="224.968" y2="272.46"><stop offset="0" stop-color="#7bacdf" stop-opacity="0"/><stop offset="1" stop-color="#017297"/></linearGradient><linearGradient id="lg7"><stop offset="0" stop-color="#d9b1ee"/><stop offset="1" stop-color="#814aa0"/></linearGradient><linearGradient id="SVGID_24_" gradientUnits="userSpaceOnUse" x1="57.735" x2="112.423" xlink:href="#lg7" y1="317.518" y2="372.207"/><linearGradient id="SVGID_25_" gradientUnits="userSpaceOnUse" x1="84.208" x2="84.208" y1="370.008" y2="402.428"><stop offset="0" stop-color="#5b3374" stop-opacity="0"/><stop offset="1" stop-color="#5b3374"/></linearGradient><linearGradient id="SVGID_26_" gradientUnits="userSpaceOnUse" x1="51.648" x2="134.794" xlink:href="#lg7" y1="426.734" y2="517.438"/><linearGradient id="lg8"><stop offset="0" stop-color="#fee45a"/><stop offset="1" stop-color="#fea613"/></linearGradient><linearGradient id="SVGID_27_" gradientUnits="userSpaceOnUse" x1="228.527" x2="283.215" xlink:href="#lg8" y1="317.518" y2="372.207"/><linearGradient id="SVGID_28_" gradientUnits="userSpaceOnUse" x1="255" x2="255" y1="370.008" y2="402.428"><stop offset="0" stop-color="#fe7701" stop-opacity="0"/><stop offset=".1854" stop-color="#f87204" stop-opacity=".185"/><stop offset=".4314" stop-color="#e7630c" stop-opacity=".431"/><stop offset=".7114" stop-color="#cb4b19" stop-opacity=".711"/><stop offset="1" stop-color="#a72b2b"/></linearGradient><linearGradient id="SVGID_29_" gradientUnits="userSpaceOnUse" x1="222.44" x2="305.586" xlink:href="#lg8" y1="426.734" y2="517.438"/><linearGradient id="lg9"><stop offset="0" stop-color="#8ac9fe"/><stop offset="1" stop-color="#0593fc"/></linearGradient><linearGradient id="SVGID_30_" gradientUnits="userSpaceOnUse" x1="399.319" x2="454.007" xlink:href="#lg9" y1="317.518" y2="372.207"/><linearGradient id="SVGID_31_" gradientUnits="userSpaceOnUse" x1="425.792" x2="425.792" y1="370.008" y2="402.428"><stop offset="0" stop-color="#2740b0" stop-opacity="0"/><stop offset=".9786" stop-color="#192a7e" stop-opacity=".979"/><stop offset="1" stop-color="#192a7d"/></linearGradient><linearGradient id="SVGID_32_" gradientUnits="userSpaceOnUse" x1="393.232" x2="476.378" xlink:href="#lg9" y1="426.734" y2="517.438"/><g><g><path d="m125.923 46.086h366.878v248.034h-366.878z" fill="url(#SVGID_1_)"/><path d="m125.923 46.086h366.878v71.033h-366.878z" fill="url(#SVGID_2_)"/><path d="m125.923 46.086h240.077v248.034h-240.077z" fill="url(#SVGID_3_)"/><path d="m108.724 44.997v250.212c0 9.541 7.735 17.276 17.276 17.276h366.724c9.541 0 17.276-7.735 17.276-17.276v-250.212c0-9.541-7.735-17.276-17.276-17.276h-366.724c-9.541 0-17.276 7.735-17.276 17.276zm363.578 234.908h-325.88c-3.827 0-6.93-3.103-6.93-6.93v-205.744c0-3.827 3.103-6.93 6.93-6.93h325.88c3.827 0 6.93 3.103 6.93 6.93v205.744c0 3.827-3.103 6.93-6.93 6.93z" fill="url(#SVGID_4_)"/><path d="m139.441 294.12h339.842c7.466 0 13.518-6.052 13.518-13.518v-220.998c0-7.465-6.052-13.518-13.518-13.518h-339.842c-7.466 0-13.518 6.052-13.518 13.518v220.999c0 7.465 6.052 13.517 13.518 13.517zm.051-226.889c0-3.827 3.103-6.93 6.93-6.93h325.88c3.827 0 6.93 3.103 6.93 6.93v205.744c0 3.827-3.103 6.93-6.93 6.93h-325.88c-3.827 0-6.93-3.103-6.93-6.93z" fill="url(#SVGID_5_)"/><path d="m479.232 183.087v89.888c0 3.827-3.103 6.93-6.93 6.93h-325.88c-3.827 0-6.93-3.103-6.93-6.93v-89.888h-30.768v112.122c0 9.541 7.735 17.276 17.276 17.276h366.724c9.541 0 17.276-7.735 17.276-17.276v-112.122z" fill="url(#SVGID_6_)"/></g><g><g><path d="m301.762 370.305h-32.429l-111.428-1.513-111.428 1.513h-32.432c-6.847 0-12.397-5.551-12.397-12.397 0-66.141 53.618-119.759 119.759-119.759h72.993c66.141 0 119.759 53.618 119.759 119.759.001 6.846-5.55 12.397-12.397 12.397z" fill="url(#SVGID_7_)"/><path d="m29.078 281.967h257.652c-21.83-26.932-55.172-44.152-92.54-44.152h-72.571c-37.37-.001-70.712 17.22-92.541 44.152z" fill="url(#SVGID_8_)"/><path d="m315.807 358.471c0 3.463-1.399 6.589-3.669 8.859-2.27 2.263-5.404 3.669-8.859 3.669h-32.77l-112.605-1.529-112.598 1.53h-32.777c-6.918 0-12.529-5.611-12.529-12.529 0-33.42 13.545-63.675 35.446-85.576 18.613-18.606 43.25-31.18 70.731-34.544-1.001 7.147-1.529 14.623-1.529 22.321 0 51.643 23.842 93.51 53.256 93.51s53.256-41.867 53.256-93.51c0-7.698-.527-15.173-1.529-22.321 59.83 7.317 106.176 58.31 106.176 120.12z" fill="url(#SVGID_9_)"/><path d="m209.631 238.352c1.001 7.147 1.529 14.623 1.529 22.321 0 51.642-23.841 93.509-53.255 93.51v15.288l112.604 1.529h32.77c3.455 0 6.589-1.407 8.859-3.669 2.27-2.27 3.669-5.397 3.669-8.859 0-61.811-46.346-112.804-106.176-120.12z" fill="url(#SVGID_10_)"/><path d="m157.904 354.183c-29.414 0-53.256-41.867-53.256-93.51 0-7.698.527-15.173 1.529-22.321-6.029.738-11.922 1.92-17.644 3.511l-17.649 45.258c-1.897 4.864 1.691 10.114 6.911 10.114 9.836 0 17.81 7.974 17.81 17.81v10.289c0 4.767 1.894 9.34 5.265 12.711l31.77 31.77 25.265-.343v-15.289z" fill="url(#SVGID_11_)"/><path d="m157.904 354.183c29.414 0 53.256-41.867 53.256-93.51 0-7.698-.527-15.173-1.529-22.321 6.029.738 11.922 1.92 17.644 3.511l17.65 45.258c1.897 4.864-1.691 10.114-6.911 10.114-9.836 0-17.81 7.974-17.81 17.81v10.289c0 4.767-1.894 9.34-5.265 12.711l-31.77 31.77-25.265-.343z" fill="url(#SVGID_12_)"/><path d="m.003 358.472c0 6.919 5.609 12.528 12.528 12.528h32.774l112.601-1.529 112.6 1.529h32.771c6.919 0 12.528-5.609 12.528-12.528 0-9.595-1.122-18.928-3.233-27.879h-309.336c-2.111 8.951-3.233 18.284-3.233 27.879z" fill="url(#SVGID_13_)"/></g><g><g><circle cx="157.905" cy="258.25" fill="url(#SVGID_14_)" r="35.545"/></g><circle cx="157.905" cy="258.25" fill="url(#SVGID_15_)" r="35.545"/></g><g><g><path d="m44.271 112.682c0-14.865 10.319-27.32 24.184-30.593 3.706-.875 7.249 1.991 7.249 5.799v49.587c0 3.808-3.543 6.674-7.249 5.799-13.866-3.273-24.184-15.727-24.184-30.592z" fill="url(#SVGID_16_)"/><path d="m271.536 112.682c0-14.865-10.318-27.32-24.184-30.593-3.706-.875-7.249 1.991-7.249 5.799v49.587c0 3.808 3.543 6.674 7.249 5.799 13.866-3.273 24.184-15.727 24.184-30.592z" fill="url(#SVGID_17_)"/></g><g><g><g><path d="m157.904 228.472c-50.215 0-90.923-40.707-90.923-90.922v-46.628c0-50.215 40.708-90.922 90.922-90.922 50.215 0 90.922 40.707 90.922 90.922v46.627c.001 50.215-40.706 90.923-90.921 90.923z" fill="url(#SVGID_18_)"/><g><path d="m111.723 138.524c-8.361 0-15.139-6.778-15.139-15.14v-7.764c0-8.361 6.778-15.14 15.139-15.14 8.361 0 15.14 6.778 15.14 15.14v7.764c0 8.362-6.779 15.14-15.14 15.14z" fill="url(#SVGID_19_)"/><path d="m204.084 138.524c-8.362 0-15.14-6.778-15.14-15.14v-7.764c0-8.361 6.778-15.14 15.14-15.14 8.361 0 15.139 6.778 15.139 15.14v7.764c.001 8.362-6.777 15.14-15.139 15.14z" fill="url(#SVGID_20_)"/></g><path d="m162.927 160.417h-10.046c-8.372 0-14.711-7.566-13.244-15.808l5.759-32.373h25.017l5.759 32.373c1.465 8.243-4.873 15.808-13.245 15.808z" fill="url(#SVGID_21_)"/></g></g></g></g><g><path d="m220.572 148.486c-2.079 4.502-4.629 8.741-7.586 12.655-5.261 6.962-14.665 9.478-22.634 5.923-9.466-4.223-20.568-6.658-32.448-6.658s-22.982 2.434-32.448 6.658c-7.969 3.556-17.373 1.039-22.634-5.923-2.958-3.914-5.508-8.153-7.587-12.655-4.863-10.531-15.533-17.146-27.111-16.439-.722.044-1.139.085-1.139.121v45.642c0 50.25 40.35 91.732 90.6 91.905 50.36.173 91.238-40.598 91.238-90.918v-46.629c0-.036-.417-.077-1.139-.121-11.579-.707-22.249 5.908-27.112 16.439z" fill="url(#SVGID_22_)"/><path d="m70.637 203.565c10.996 37.923 45.62 66.008 86.947 66.151 41.767.143 77.01-27.877 87.821-66.151z" fill="url(#SVGID_23_)"/></g></g><g fill="#eaf6ff"><path d="m313.488 112.634h113.833c4.142 0 7.5-3.358 7.5-7.5s-3.358-7.5-7.5-7.5h-113.833c-4.142 0-7.5 3.358-7.5 7.5s3.358 7.5 7.5 7.5z"/><path d="m313.488 145.301h87.333c4.142 0 7.5-3.358 7.5-7.5s-3.358-7.5-7.5-7.5h-87.333c-4.142 0-7.5 3.358-7.5 7.5s3.358 7.5 7.5 7.5z"/><path d="m423 130.301c-4.142 0-7.5 3.358-7.5 7.5s3.358 7.5 7.5 7.5h8.5c4.142 0 7.5-3.358 7.5-7.5s-3.358-7.5-7.5-7.5z"/><path d="m313.488 182.634h60.5c4.142 0 7.5-3.358 7.5-7.5s-3.358-7.5-7.5-7.5h-60.5c-4.142 0-7.5 3.358-7.5 7.5s3.358 7.5 7.5 7.5z"/></g><g><g><g><circle cx="84.208" cy="343.991" fill="url(#SVGID_24_)" r="65.27"/><path d="m149.478 343.991c0 36.048-29.222 65.27-65.27 65.27s-65.27-29.222-65.27-65.27z" fill="url(#SVGID_25_)"/></g><path d="m84.208 386.85c-46.507 0-84.208 37.701-84.208 84.208 0 21.507 17.435 38.942 38.942 38.942h90.532c21.507 0 38.942-17.435 38.942-38.942 0-46.507-37.701-84.208-84.208-84.208z" fill="url(#SVGID_26_)"/></g><g><g><circle cx="255" cy="343.991" fill="url(#SVGID_27_)" r="65.27"/><path d="m320.27 343.991c0 36.048-29.222 65.27-65.27 65.27s-65.27-29.222-65.27-65.27z" fill="url(#SVGID_28_)"/></g><path d="m255 386.85c-46.507 0-84.208 37.701-84.208 84.208 0 21.507 17.435 38.942 38.942 38.942h90.532c21.507 0 38.942-17.435 38.942-38.942 0-46.507-37.701-84.208-84.208-84.208z" fill="url(#SVGID_29_)"/></g><g><g><circle cx="425.792" cy="343.991" fill="url(#SVGID_30_)" r="65.27"/><path d="m491.062 343.991c0 36.048-29.222 65.27-65.27 65.27s-65.27-29.222-65.27-65.27z" fill="url(#SVGID_31_)"/></g><path d="m425.792 386.85c-46.507 0-84.208 37.701-84.208 84.208 0 21.507 17.435 38.942 38.942 38.942h90.532c21.507 0 38.942-17.435 38.942-38.942 0-46.507-37.701-84.208-84.208-84.208z" fill="url(#SVGID_32_)"/></g></g></g></svg>