<svg id="Layer_1" enable-background="new 0 0 40.007 36.02" height="512" viewBox="0 0 40.007 36.02" width="512" xmlns="http://www.w3.org/2000/svg"><g id="Layer_2_1_"><g id="outline"><path d="m37.992 3h-9.985l.015 27.977c-.039 2.757 2.165 5.024 4.922 5.063s5.024-2.165 5.063-4.922c.001-.047.001-.094 0-.141z" fill="#e8e8f8"/><path d="m31.007 4s-2 2-3 24l-.007-24z" fill="#f1f1fb"/><path d="m38.007 30.98c.005 2.522-1.868 4.652-4.37 4.97 4.28-.66 3.37-8.22 3.37-13.95v-12c0-5-5-6-5-6h5.98z" fill="#cbcff7"/><path d="m28.007 21c3-3 9-3 10 0v3h-10z" fill="#b31c3a"/><path d="m28.004 0h10.006c1.103 0 1.997.894 1.997 1.997v.006c0 1.103-.894 1.997-1.997 1.997h-10.006c-1.103 0-1.997-.894-1.997-1.997v-.006c0-1.103.894-1.997 1.997-1.997z" fill="#e8e8f8"/><path d="m7.027 0h10.006c1.103 0 1.997.894 1.997 1.997v.006c0 1.103-.894 1.997-1.997 1.997h-10.006c-1.103 0-1.997-.894-1.997-1.997v-.006c0-1.103.894-1.997 1.997-1.997z" fill="#e8e8f8"/><path d="m38.007 21c-2.286 0-3.55-.917-6.051-1-1.557.013-3.018.753-3.949 2v9c0 2.761 2.239 5 5 5 2.761 0 5-2.239 5-5z" fill="#ef264d"/><path d="m28.357 21.59c-.12 1.92-.24 4.05-.35 6.41v-6c.107-.144.224-.281.35-.41z" fill="#f25171"/><path d="m23.9 32.22s-5.334-14.483-6.077-19.344c-.307-2.01-.79-8.876-.79-8.876h-10.006s-.547 6.866-.854 8.876c-.744 4.861-6.073 19.344-6.073 19.344-.391 1.663.64 3.328 2.303 3.719.261.061.529.089.797.081h17.6c1.708.049 3.132-1.295 3.181-3.003.008-.268-.02-.536-.081-.797z" fill="#e8e8f8"/><path d="m21.137 36h-12.13c10 0 12-5 11-10s-5-13-5-19c.035-1.622-1.252-2.965-2.875-3-.042-.001-.084-.001-.125 0h5.03s.48 6.87.79 8.88c.74 4.86 6.07 19.34 6.07 19.34.397 1.648-.618 3.306-2.267 3.703-.162.039-.327.065-.493.077z" fill="#cbcff7"/><path d="m9.007 4c-.408 7.871-2.743 15.522-6.8 22.28 1.58-4.58 3.54-10.59 3.97-13.4.3-2.01.85-8.88.85-8.88z" fill="#f1f1fb"/><path d="m21.017 24h-18.01c.34-.99.68-2.01 1-3l.01-.01c.01 0 .01-.01.02-.01.97-2.98 12.97-1.98 15.73-.81.4 1.27.833 2.57 1.25 3.83z" fill="#1052bb"/><path d="m20.807 36.02h-17.62c-1.707.043-3.125-1.305-3.169-3.011-.007-.265.021-.53.082-.789 0 0 2.187-5.94 3.907-11.22 2.247-.914 4.763-.914 7.01 0 2.884 1.124 6.129.816 8.75-.83 1.79 5.7 4.13 12.05 4.13 12.05.392 1.661-.637 3.326-2.298 3.718-.26.062-.526.089-.792.082z" fill="#037eff"/><path d="m5.077 20.63c-.831 1.945-1.789 3.832-2.87 5.65.57-1.65 1.19-3.49 1.77-5.29.01 0 .02.01.03.01.345-.154.703-.277 1.07-.37z" fill="#74c2fc"/><g fill="#4c4359"><path d="m11.017 8c0 .552-.448 1-1 1h-3.417c.06-.68.12-1.37.18-2h3.24c.551.002.997.449.997 1z"/><path d="m11.017 12c0 .552-.448 1-1 1h-3.86c.01-.04.01-.08.02-.12.07-.44.14-1.1.22-1.88h3.62c.552 0 1 .448 1 1z"/><path d="m11.017 16c0 .552-.448 1-1 1h-4.83c.21-.71.39-1.38.55-2h4.28c.552 0 1 .448 1 1z"/><path d="m33.015 8c0-.552-.448-1-1-1h-4.008v2h4.008c.552 0 1-.448 1-1z"/><path d="m32.015 11h-4.008v2h4.008c.552 0 1-.448 1-1s-.448-1-1-1z"/><path d="m32.015 15h-4.015v2h4.015c.552 0 1-.448 1-1s-.448-1-1-1z"/></g><path d="m40.007 2c0 1.105-.895 2-2 2h-4c1.107 0 3.667 0 3.667-2 0-1.105-.895-2-2-2h2.333c1.105 0 2 .895 2 2z" fill="#cbcff7"/><path d="m19.007 2c0 1.105-.895 2-2 2h-5c1.107 0 5 0 5-2 0-1.105-.895-2-2-2h2c1.105 0 2 .895 2 2z" fill="#cbcff7"/><path d="m20.807 36.02h-11.73l-.07-.02c10 0 12-5 11-10-.401-1.746-.956-3.453-1.66-5.1.492-.206.966-.45 1.42-.73 1.79 5.7 4.13 12.05 4.13 12.05.392 1.661-.637 3.326-2.298 3.718-.26.062-.526.089-.792.082z" fill="#1052bb"/><path d="m11.007 0c-3.99 0-5.43 1.91-5.86 2.68-.081-.217-.122-.448-.12-.68 0-1.105.895-2 2-2z" fill="#f1f1fb"/><path d="m32.007 0c-3.99 0-5.43 1.91-5.86 2.68-.081-.217-.122-.448-.12-.68 0-1.105.895-2 2-2z" fill="#f1f1fb"/><path d="m38.007 21v10c.011 2.429-1.736 4.51-4.13 4.92l-.24.03c4.28-.66 3.37-8.22 3.37-13.95v-1.06c.332.041.666.061 1 .06z" fill="#b31c3a"/></g></g></svg>