<?xml version="1.0" encoding="UTF-8"?>
<svg xmlns="http://www.w3.org/2000/svg" xmlns:xlink="http://www.w3.org/1999/xlink" version="1.1" id="Capa_1" x="0px" y="0px" viewBox="0 0 512 512" style="enable-background:new 0 0 512 512;" xml:space="preserve" width="512" height="512">
<g>
	<path style="fill:#FFD600;" d="M108.703,502.4L27.17,461.032C16.637,455.688,10,444.879,10,433.068v-63.001l113.509,57.592&#10;&#9;&#9;c7.998,4.058,13.037,12.266,13.037,21.234v36.413C136.546,499.605,121.455,508.87,108.703,502.4z"/>
	<path style="fill:#FF9900;" d="M10,58.706l73.678,37.382l38.687-33.198c7.457-6.399,7.457-17.939,0-24.338L92.441,12.874&#10;&#9;&#9;c-8.35-7.165-20.68-7.165-29.03,0L10,58.706z"/>
	<path style="fill:#B98EFF;" d="M220.57,502.4l81.533-41.368c10.533-5.344,17.17-16.154,17.17-27.965v-63.001l-113.509,57.592&#10;&#9;&#9;c-7.998,4.058-13.037,12.266-13.037,21.234v36.413C192.727,499.605,207.818,508.87,220.57,502.4z"/>
	<path style="fill:#9448F5;" d="M319.273,58.706l-73.678,37.382L206.908,62.89c-7.457-6.399-7.457-17.939,0-24.338l29.924-25.678&#10;&#9;&#9;c8.35-7.165,20.68-7.165,29.03,0L319.273,58.706z"/>
	<path style="fill:#88F8D8;" d="M474.157,502.4l-81.533-41.368c-10.533-5.344-17.17-16.154-17.17-27.965v-63.001l113.509,57.592&#10;&#9;&#9;C496.96,431.716,502,439.924,502,448.892v36.413C502,499.605,486.909,508.87,474.157,502.4z"/>
	<path style="fill:#17D9C3;" d="M375.454,58.706l73.678,37.382l38.687-33.198c7.457-6.399,7.457-17.939,0-24.338l-29.924-25.678&#10;&#9;&#9;c-8.35-7.165-20.68-7.165-29.03,0L375.454,58.706z"/>
	<polygon style="fill:#FF9900;" points="64.676,168.702 10,215.62 83.678,253.003 136.546,207.635 129.51,201.597 &#9;"/>
	<path style="fill:#FFD600;" d="M120.883,114.966L10,58.706v63.001c0,11.811,6.637,22.621,17.17,27.965l109.377,55.495v-64.691&#10;&#9;&#9;C136.546,129.702,130.492,119.841,120.883,114.966z"/>
	<polygon style="fill:#9448F5;" points="199.763,201.597 192.727,207.635 245.595,253.003 319.273,215.62 264.597,168.702 &#9;"/>
	<path style="fill:#B98EFF;" d="M208.39,114.966l110.883-56.259v63.001c0,11.811-6.637,22.621-17.17,27.965l-109.377,55.495v-64.691&#10;&#9;&#9;C192.727,129.702,198.781,119.841,208.39,114.966z"/>
	<polygon style="fill:#17D9C3;" points="430.13,168.702 375.454,215.62 449.131,253.003 502,207.635 494.964,201.597 &#9;"/>
	<path style="fill:#88F8D8;" d="M486.337,114.966L375.454,58.706v63.001c0,11.811,6.637,22.621,17.17,27.965L502,205.167v-64.691&#10;&#9;&#9;C502,129.702,495.946,119.841,486.337,114.966z"/>
	<polygon style="fill:#FF9900;" points="10,370.066 83.678,407.448 136.546,362.081 62.868,324.699 &#9;"/>
	<path style="fill:#FFD600;" d="M120.883,271.88L10,215.62v63.001c0,11.811,6.637,22.62,17.17,27.965l109.377,55.495v-64.691&#10;&#9;&#9;C136.546,286.616,130.492,276.755,120.883,271.88z"/>
	<polygon style="fill:#9448F5;" points="192.727,362.081 245.595,407.448 319.273,370.066 266.404,324.699 &#9;"/>
	<path style="fill:#B98EFF;" d="M208.39,271.88l110.883-56.259v63.001c0,11.811-6.637,22.62-17.17,27.965l-109.377,55.495v-64.691&#10;&#9;&#9;C192.727,286.616,198.781,276.755,208.39,271.88z"/>
	<polygon style="fill:#17D9C3;" points="375.454,370.066 449.131,407.448 502,362.081 428.322,324.699 &#9;"/>
	<path style="fill:#88F8D8;" d="M486.337,271.88L375.454,215.62v63.001c0,11.811,6.637,22.62,17.17,27.965L502,362.081v-64.691&#10;&#9;&#9;C502,286.616,495.945,276.755,486.337,271.88z"/>
	<path style="fill:none;stroke:#F95116;stroke-width:15;stroke-linecap:round;stroke-linejoin:round;stroke-miterlimit:10;" d="&#10;&#9;&#9;M108.703,502.4L27.17,461.032C16.637,455.688,10,444.879,10,433.068v-63.001l113.509,57.592&#10;&#9;&#9;c7.998,4.058,13.037,12.266,13.037,21.234v36.413C136.546,499.605,121.455,508.87,108.703,502.4z"/>
	<path style="fill:none;stroke:#F95116;stroke-width:15;stroke-linecap:round;stroke-linejoin:round;stroke-miterlimit:10;" d="&#10;&#9;&#9;M10,58.706l73.678,37.382l38.687-33.198c7.457-6.399,7.457-17.939,0-24.338L92.441,12.874c-8.35-7.165-20.68-7.165-29.03,0&#10;&#9;&#9;L10,58.706z"/>
	<path style="fill:none;stroke:#6D00CA;stroke-width:15;stroke-linecap:round;stroke-linejoin:round;stroke-miterlimit:10;" d="&#10;&#9;&#9;M220.57,502.4l81.533-41.368c10.533-5.344,17.17-16.154,17.17-27.965v-63.001l-113.509,57.592&#10;&#9;&#9;c-7.998,4.058-13.037,12.266-13.037,21.234v36.413C192.727,499.605,207.818,508.87,220.57,502.4z"/>
	<path style="fill:none;stroke:#6D00CA;stroke-width:15;stroke-linecap:round;stroke-linejoin:round;stroke-miterlimit:10;" d="&#10;&#9;&#9;M319.273,58.706l-73.678,37.382L206.908,62.89c-7.457-6.399-7.457-17.939,0-24.338l29.924-25.678c8.35-7.165,20.68-7.165,29.03,0&#10;&#9;&#9;L319.273,58.706z"/>
	<path style="fill:none;stroke:#007EA8;stroke-width:15;stroke-linecap:round;stroke-linejoin:round;stroke-miterlimit:10;" d="&#10;&#9;&#9;M474.157,502.4l-81.533-41.368c-10.533-5.344-17.17-16.154-17.17-27.965v-63.001l113.509,57.592&#10;&#9;&#9;C496.96,431.716,502,439.924,502,448.892v36.413C502,499.605,486.909,508.87,474.157,502.4z"/>
	<path style="fill:none;stroke:#007EA8;stroke-width:15;stroke-linecap:round;stroke-linejoin:round;stroke-miterlimit:10;" d="&#10;&#9;&#9;M375.454,58.706l73.678,37.382l38.687-33.198c7.457-6.399,7.457-17.939,0-24.338l-29.924-25.678c-8.35-7.165-20.68-7.165-29.03,0&#10;&#9;&#9;L375.454,58.706z"/>
	
		<polygon style="fill:none;stroke:#F95116;stroke-width:15;stroke-linecap:round;stroke-linejoin:round;stroke-miterlimit:10;" points="&#10;&#9;&#9;64.676,168.702 10,215.62 83.678,253.003 136.546,207.635 129.51,201.597 &#9;"/>
	<path style="fill:none;stroke:#F95116;stroke-width:15;stroke-linecap:round;stroke-linejoin:round;stroke-miterlimit:10;" d="&#10;&#9;&#9;M120.883,114.966L10,58.706v63.001c0,11.811,6.637,22.621,17.17,27.965l109.377,55.495v-64.691&#10;&#9;&#9;C136.546,129.702,130.492,119.841,120.883,114.966z"/>
	
		<polygon style="fill:none;stroke:#6D00CA;stroke-width:15;stroke-linecap:round;stroke-linejoin:round;stroke-miterlimit:10;" points="&#10;&#9;&#9;199.763,201.597 192.727,207.635 245.595,253.003 319.273,215.62 264.597,168.702 &#9;"/>
	<path style="fill:none;stroke:#6D00CA;stroke-width:15;stroke-linecap:round;stroke-linejoin:round;stroke-miterlimit:10;" d="&#10;&#9;&#9;M208.39,114.966l110.883-56.259v63.001c0,11.811-6.637,22.621-17.17,27.965l-109.377,55.495v-64.691&#10;&#9;&#9;C192.727,129.702,198.781,119.841,208.39,114.966z"/>
	
		<polygon style="fill:none;stroke:#007EA8;stroke-width:15;stroke-linecap:round;stroke-linejoin:round;stroke-miterlimit:10;" points="&#10;&#9;&#9;430.13,168.702 375.454,215.62 449.131,253.003 502,207.635 494.964,201.597 &#9;"/>
	<path style="fill:none;stroke:#007EA8;stroke-width:15;stroke-linecap:round;stroke-linejoin:round;stroke-miterlimit:10;" d="&#10;&#9;&#9;M486.337,114.966L375.454,58.706v63.001c0,11.811,6.637,22.621,17.17,27.965L502,205.167v-64.691&#10;&#9;&#9;C502,129.702,495.946,119.841,486.337,114.966z"/>
	
		<polygon style="fill:none;stroke:#F95116;stroke-width:15;stroke-linecap:round;stroke-linejoin:round;stroke-miterlimit:10;" points="&#10;&#9;&#9;10,370.066 83.678,407.448 136.546,362.081 62.868,324.699 &#9;"/>
	<path style="fill:none;stroke:#F95116;stroke-width:15;stroke-linecap:round;stroke-linejoin:round;stroke-miterlimit:10;" d="&#10;&#9;&#9;M120.883,271.88L10,215.62v63.001c0,11.811,6.637,22.62,17.17,27.965l109.377,55.495v-64.691&#10;&#9;&#9;C136.546,286.616,130.492,276.755,120.883,271.88z"/>
	
		<polygon style="fill:none;stroke:#6D00CA;stroke-width:15;stroke-linecap:round;stroke-linejoin:round;stroke-miterlimit:10;" points="&#10;&#9;&#9;192.727,362.081 245.595,407.448 319.273,370.066 266.404,324.699 &#9;"/>
	<path style="fill:none;stroke:#6D00CA;stroke-width:15;stroke-linecap:round;stroke-linejoin:round;stroke-miterlimit:10;" d="&#10;&#9;&#9;M208.39,271.88l110.883-56.259v63.001c0,11.811-6.637,22.62-17.17,27.965l-109.377,55.495v-64.691&#10;&#9;&#9;C192.727,286.616,198.781,276.755,208.39,271.88z"/>
	
		<polygon style="fill:none;stroke:#007EA8;stroke-width:15;stroke-linecap:round;stroke-linejoin:round;stroke-miterlimit:10;" points="&#10;&#9;&#9;375.454,370.066 449.131,407.448 502,362.081 428.322,324.699 &#9;"/>
	<path style="fill:none;stroke:#007EA8;stroke-width:15;stroke-linecap:round;stroke-linejoin:round;stroke-miterlimit:10;" d="&#10;&#9;&#9;M486.337,271.88L375.454,215.62v63.001c0,11.811,6.637,22.62,17.17,27.965L502,362.081v-64.691&#10;&#9;&#9;C502,286.616,495.945,276.755,486.337,271.88z"/>
</g>















</svg>
