<svg id="Layer_1" enable-background="new 0 0 512 512" viewBox="0 0 512 512" xmlns="http://www.w3.org/2000/svg" xmlns:xlink="http://www.w3.org/1999/xlink"><linearGradient id="lg1"><stop offset="0" stop-color="#f89580"/><stop offset="1" stop-color="#c4573a"/></linearGradient><linearGradient id="SVGID_1_" gradientUnits="userSpaceOnUse" x1="129.11" x2="325.187" xlink:href="#lg1" y1="147.307" y2="343.383"/><linearGradient id="SVGID_00000090264872811118668870000013167705743861424536_" gradientUnits="userSpaceOnUse" x1="344.902" x2="114.401" xlink:href="#lg1" y1="363.098" y2="132.597"/><linearGradient id="lg2"><stop offset="0" stop-color="#c4573a" stop-opacity="0"/><stop offset=".235" stop-color="#be5539" stop-opacity=".235"/><stop offset=".539" stop-color="#ae4e35" stop-opacity=".539"/><stop offset=".8794" stop-color="#934330" stop-opacity=".879"/><stop offset="1" stop-color="#883f2e"/></linearGradient><linearGradient id="SVGID_00000178896965863683525970000000334868813560435368_" gradientUnits="userSpaceOnUse" x1="237.804" x2="237.804" xlink:href="#lg2" y1="282.907" y2="452.718"/><linearGradient id="SVGID_00000068670237022611662150000005188331760013968018_" gradientUnits="userSpaceOnUse" x1="312.034" x2="385.174" xlink:href="#lg2" y1="305.05" y2="353.375"/><linearGradient id="lg3"><stop offset="0" stop-color="#f5fbff"/><stop offset="1" stop-color="#dbd5ef"/></linearGradient><linearGradient id="SVGID_00000007396499066834981750000001893650119244190086_" gradientTransform="matrix(-1 0 0 -1 512 -1616)" gradientUnits="userSpaceOnUse" x1="191.4" x2="340.759" xlink:href="#lg3" y1="-1954.796" y2="-1805.437"/><linearGradient id="lg4"><stop offset="0" stop-color="#dbd5ef" stop-opacity="0"/><stop offset=".2585" stop-color="#d9d2ec" stop-opacity=".259"/><stop offset=".4295" stop-color="#d2cae3" stop-opacity=".43"/><stop offset=".5751" stop-color="#c6bcd4" stop-opacity=".575"/><stop offset=".7065" stop-color="#b6a9bf" stop-opacity=".707"/><stop offset=".8283" stop-color="#a08fa4" stop-opacity=".828"/><stop offset=".9415" stop-color="#867082" stop-opacity=".942"/><stop offset="1" stop-color="#765d6e"/></linearGradient><linearGradient id="SVGID_00000160872987468656655910000003473378323722419863_" gradientUnits="userSpaceOnUse" x1="222.318" x2="189.658" xlink:href="#lg4" y1="210.674" y2="115.112"/><linearGradient id="SVGID_00000162341413855448229770000008307572959655222432_" gradientUnits="userSpaceOnUse" x1="171.329" x2="110.847" xlink:href="#lg4" y1="224.087" y2="195.055"/><linearGradient id="SVGID_00000088817473701561975720000013600217543490330248_" gradientUnits="userSpaceOnUse" x1="291.504" x2="229.812" xlink:href="#lg4" y1="241.548" y2="234.693"/><linearGradient id="SVGID_00000130616068317637448220000009799491931813410985_" gradientUnits="userSpaceOnUse" x1="284.855" x2="229.212" xlink:href="#lg4" y1="287.443" y2="265.67"/><linearGradient id="SVGID_00000174569647347156985260000003667029300268180609_" gradientUnits="userSpaceOnUse" x1="757.079" x2="143.758" xlink:href="#lg4" y1="507.095" y2="86.576"/><linearGradient id="SVGID_00000108307822129039892550000010389616224012023221_" gradientUnits="userSpaceOnUse" x1="659.191" x2="45.87" xlink:href="#lg4" y1="649.864" y2="229.344"/><linearGradient id="SVGID_00000122682312541978002840000018175893936317443979_" gradientUnits="userSpaceOnUse" x1="741.693" x2="128.372" xlink:href="#lg4" y1="529.535" y2="109.016"/><linearGradient id="SVGID_00000182504560560087290630000000267645299379661204_" gradientUnits="userSpaceOnUse" x1="674.577" x2="61.256" xlink:href="#lg4" y1="627.424" y2="206.904"/><linearGradient id="SVGID_00000047033020244631278640000000431276846679368847_" gradientUnits="userSpaceOnUse" x1="733.743" x2="120.422" xlink:href="#lg4" y1="541.131" y2="120.612"/><linearGradient id="SVGID_00000170240275968782791350000009942825898518126997_" gradientUnits="userSpaceOnUse" x1="682.527" x2="69.206" xlink:href="#lg4" y1="615.828" y2="195.309"/><linearGradient id="SVGID_00000067941092524531722700000004682064584204475275_" gradientUnits="userSpaceOnUse" x1="761.669" x2="148.348" xlink:href="#lg4" y1="500.401" y2="79.881"/><linearGradient id="SVGID_00000065054347446918485390000012997394893255138482_" gradientUnits="userSpaceOnUse" x1="654.601" x2="41.28" xlink:href="#lg4" y1="656.559" y2="236.039"/><linearGradient id="SVGID_00000095297641473175492800000006412350943128412342_" gradientUnits="userSpaceOnUse" x1="767.301" x2="153.98" xlink:href="#lg4" y1="492.187" y2="71.667"/><linearGradient id="SVGID_00000027595298113812752870000007335560194256782513_" gradientUnits="userSpaceOnUse" x1="648.969" x2="35.648" xlink:href="#lg4" y1="664.772" y2="244.253"/><linearGradient id="SVGID_00000086655690830631407450000009756018089733684660_" gradientUnits="userSpaceOnUse" x1="703.545" x2="90.224" xlink:href="#lg4" y1="585.174" y2="164.655"/><linearGradient id="SVGID_00000176766075148529388050000015683235417167780263_" gradientUnits="userSpaceOnUse" x1="712.725" x2="99.404" xlink:href="#lg4" y1="571.785" y2="151.265"/><linearGradient id="lg5"><stop offset="0" stop-color="#5a5a5a"/><stop offset="1" stop-color="#444"/></linearGradient><linearGradient id="SVGID_00000008837276206713821500000017116361019961590438_" gradientTransform="matrix(1 0 0 -1 -554.844 -1357.789)" gradientUnits="userSpaceOnUse" x1="787.742" x2="801.119" xlink:href="#lg5" y1="-1547.822" y2="-1547.822"/><linearGradient id="SVGID_00000030478651472427216730000009139499400218934703_" gradientTransform="matrix(.707 .707 .707 -.707 856.466 -2074.005)" gradientUnits="userSpaceOnUse" x1="1204.242" x2="1217.62" xlink:href="#lg5" y1="-2036.042" y2="-2036.042"/><linearGradient id="SVGID_00000124151604661202012980000014034522121747178686_" gradientUnits="userSpaceOnUse" x1="227.442" x2="246.134" y1="245.638" y2="264.331"><stop offset="0" stop-color="#c8effe"/><stop offset=".1027" stop-color="#c0eefe"/><stop offset=".2579" stop-color="#abebfd"/><stop offset=".4463" stop-color="#89e6fd"/><stop offset=".6607" stop-color="#5adefc"/><stop offset=".8941" stop-color="#1ed5fb"/><stop offset="1" stop-color="#01d0fb"/></linearGradient><linearGradient id="lg6"><stop offset="0" stop-color="#0290cf" stop-opacity="0"/><stop offset=".8724" stop-color="#0290cf" stop-opacity=".872"/><stop offset="1" stop-color="#0290cf"/></linearGradient><linearGradient id="SVGID_00000069384168880753729710000015809367940822038955_" gradientUnits="userSpaceOnUse" x1="237.804" x2="237.804" xlink:href="#lg6" y1="255.447" y2="272.867"/><linearGradient id="SVGID_00000178172453050535145480000006978891174722590090_" gradientUnits="userSpaceOnUse" x1="237.343" x2="250.433" xlink:href="#lg6" y1="255.539" y2="268.629"/><linearGradient id="SVGID_00000095311550792108703930000016450920507585537197_" gradientUnits="userSpaceOnUse" x1="425.701" x2="380.994" xlink:href="#lg2" y1="298.459" y2="283.024"/><linearGradient id="SVGID_00000092417693715236820130000014842924273286873275_" gradientUnits="userSpaceOnUse" x1="129.825" x2="194.082" y1="27.665" y2="91.922"><stop offset="0" stop-color="#fe5694"/><stop offset="1" stop-color="#e41f2d"/></linearGradient><linearGradient id="lg7"><stop offset="0" stop-color="#fedbbd"/><stop offset="1" stop-color="#ffbf51"/></linearGradient><linearGradient id="SVGID_00000154427280424950012820000018135797604543217552_" gradientUnits="userSpaceOnUse" x1="-8.683" x2="91.876" xlink:href="#lg7" y1="281.571" y2="382.13"/><linearGradient id="SVGID_00000080891049357210496880000010456379741192139448_" gradientUnits="userSpaceOnUse" x1="9.469" x2="73.725" xlink:href="#lg7" y1="148.021" y2="212.278"/><linearGradient id="SVGID_00000032635695658181616520000004159118582423452077_" gradientUnits="userSpaceOnUse" x1="111.674" x2="212.233" y1="401.927" y2="502.486"><stop offset="0" stop-color="#d7f8c4"/><stop offset="1" stop-color="#24ce20"/></linearGradient><linearGradient id="SVGID_00000063618811498282246300000008772483800681395891_" gradientUnits="userSpaceOnUse" x1="358.667" x2="476.591" xlink:href="#lg3" y1="237.306" y2="355.23"/><linearGradient id="SVGID_00000081615434922301637880000008713677106355385496_" gradientUnits="userSpaceOnUse" x1="455.104" x2="371.612" xlink:href="#lg3" y1="333.743" y2="250.251"/><linearGradient id="SVGID_00000122721884618468083870000013198925106633351605_" gradientUnits="userSpaceOnUse" x1="342.564" x2="351.22" xlink:href="#lg4" y1="342.678" y2="360.237"/><linearGradient id="SVGID_00000101100151485622441020000013329594617507306136_" gradientUnits="userSpaceOnUse" x1="342.214" x2="325.644" xlink:href="#lg4" y1="334.979" y2="350.807"/><linearGradient id="SVGID_00000097460384005266775860000007064004705213640890_" gradientUnits="userSpaceOnUse" x1="491.325" x2="502.455" xlink:href="#lg4" y1="252.729" y2="272.515"/><linearGradient id="SVGID_00000029039975307753889360000005613116427718762143_" gradientUnits="userSpaceOnUse" x1="418.072" x2="442.33" xlink:href="#lg4" y1="206.127" y2="206.127"/><linearGradient id="SVGID_00000181770285649775101110000015830472556041243574_" gradientUnits="userSpaceOnUse" x1="418.072" x2="442.33" xlink:href="#lg4" y1="379.907" y2="379.907"/><linearGradient id="SVGID_00000055676290527460692040000000554290562660005806_" gradientUnits="userSpaceOnUse" x1="414.378" x2="414.378" xlink:href="#lg4" y1="373.307" y2="395.161"/><linearGradient id="SVGID_00000008840815649031715730000007146397450132843395_" gradientUnits="userSpaceOnUse" x1="337.604" x2="324.805" xlink:href="#lg4" y1="252.324" y2="274.768"/><linearGradient id="SVGID_00000165220008027986817760000007980386503270006712_" gradientUnits="userSpaceOnUse" x1="484.641" x2="503.375" xlink:href="#lg4" y1="333.56" y2="345.06"/><linearGradient id="SVGID_00000141447993554902685150000012505110643268024467_" gradientUnits="userSpaceOnUse" x1="485.88" x2="476.791" xlink:href="#lg4" y1="343.033" y2="359.542"/><linearGradient id="SVGID_00000179642194483556058950000002412719363358301350_" gradientTransform="matrix(.906 -.423 .423 .906 -149.479 177.906)" gradientUnits="userSpaceOnUse" x1="299.325" x2="374.123" xlink:href="#lg3" y1="391.083" y2="465.881"/><linearGradient id="SVGID_00000044162574019918881030000002065079266285055107_" gradientTransform="matrix(.906 -.423 .423 .906 -149.479 177.906)" gradientUnits="userSpaceOnUse" x1="360.494" x2="307.536" xlink:href="#lg3" y1="452.253" y2="399.294"/><linearGradient id="SVGID_00000041997500594111399170000017049103956568798118_" gradientTransform="matrix(.906 -.423 .423 .906 -149.479 177.906)" gradientUnits="userSpaceOnUse" x1="289.111" x2="294.602" xlink:href="#lg4" y1="457.92" y2="469.057"/><linearGradient id="SVGID_00000163771121139910851550000011720501963268797860_" gradientTransform="matrix(.906 -.423 .423 .906 -149.479 177.906)" gradientUnits="userSpaceOnUse" x1="288.889" x2="278.379" xlink:href="#lg4" y1="453.036" y2="463.076"/><linearGradient id="SVGID_00000111886306803181245310000016983802346672726664_" gradientTransform="matrix(.906 -.423 .423 .906 -149.479 177.906)" gradientUnits="userSpaceOnUse" x1="383.468" x2="390.528" xlink:href="#lg4" y1="400.866" y2="413.416"/><linearGradient id="SVGID_00000140708104307572535780000010817821776797504422_" gradientTransform="matrix(.906 -.423 .423 .906 -149.479 177.906)" gradientUnits="userSpaceOnUse" x1="337.005" x2="352.391" xlink:href="#lg4" y1="371.307" y2="371.307"/><linearGradient id="SVGID_00000039851636803221292210000015754345670483204784_" gradientTransform="matrix(.906 -.423 .423 .906 -149.479 177.906)" gradientUnits="userSpaceOnUse" x1="337.005" x2="352.391" xlink:href="#lg4" y1="481.534" y2="481.534"/><linearGradient id="SVGID_00000075845375758212036430000016651921551608309637_" gradientTransform="matrix(.906 -.423 .423 .906 -149.479 177.906)" gradientUnits="userSpaceOnUse" x1="334.662" x2="334.662" xlink:href="#lg4" y1="477.348" y2="491.209"/><linearGradient id="SVGID_00000059276141508608724080000015436474781066317721_" gradientTransform="matrix(.906 -.423 .423 .906 -149.479 177.906)" gradientUnits="userSpaceOnUse" x1="285.965" x2="277.847" xlink:href="#lg4" y1="400.609" y2="414.845"/><linearGradient id="SVGID_00000078733556732343677960000008633771007146147502_" gradientTransform="matrix(.906 -.423 .423 .906 -149.479 177.906)" gradientUnits="userSpaceOnUse" x1="379.229" x2="391.111" xlink:href="#lg4" y1="452.136" y2="459.431"/><linearGradient id="SVGID_00000173153288559338373760000008044054823877172925_" gradientTransform="matrix(.906 -.423 .423 .906 -149.479 177.906)" gradientUnits="userSpaceOnUse" x1="380.014" x2="374.249" xlink:href="#lg4" y1="458.145" y2="468.616"/><g><g><g><g><circle cx="237.804" cy="256" fill="url(#SVGID_1_)" r="177.694"/><circle cx="237.804" cy="256" fill="url(#SVGID_00000090264872811118668870000013167705743861424536_)" r="153.02"/><path d="m60.11 256c0 98.137 79.556 177.694 177.694 177.694s177.694-79.557 177.694-177.694c0-21.254-3.744-41.63-10.588-60.522h-334.213c-6.843 18.892-10.587 39.268-10.587 60.522z" fill="url(#SVGID_00000178896965863683525970000000334868813560435368_)"/><path d="m112.155 381.649c69.394 69.394 181.904 69.394 251.298 0s69.394-181.904 0-251.298c-15.029-15.029-32.085-26.79-50.282-35.309l-236.325 236.324c8.519 18.198 20.28 35.254 35.309 50.283z" fill="url(#SVGID_00000068670237022611662150000005188331760013968018_)"/></g><g><circle cx="237.804" cy="256" fill="url(#SVGID_00000007396499066834981750000001893650119244190086_)" r="135.357"/><path d="m373.16 256c0-74.755-60.601-135.357-135.357-135.357-74.755 0-135.357 60.602-135.357 135.357 0 16.19 2.852 31.712 8.065 46.102h254.583c5.214-14.39 8.066-29.912 8.066-46.102z" fill="url(#SVGID_00000160872987468656655910000003473378323722419863_)"/><path d="m333.515 160.288c-52.86-52.86-138.563-52.86-191.423 0s-52.86 138.563 0 191.423c11.448 11.448 24.44 20.407 38.302 26.896l180.018-180.017c-6.49-13.861-15.448-26.853-26.897-38.302z" fill="url(#SVGID_00000162341413855448229770000008307572959655222432_)"/></g></g><path d="m239.588 126.648-10.153 127.629 100.694 100.694c1.141-1.066 2.274-2.146 3.386-3.259 25.375-25.375 38.561-58.318 39.574-91.563z" fill="url(#SVGID_00000088817473701561975720000013600217543490330248_)"/><path d="m225.825 267.979 40.244 40.244c6.597 6.597 17.376 6.872 24.023.325.087-.086.174-.172.259-.259 6.547-6.646 6.272-17.426-.325-24.023l-40.244-40.244z" fill="url(#SVGID_00000130616068317637448220000009799491931813410985_)"/><g><path d="m237.804 137.13c-2.627 0-4.757 2.13-4.757 4.757v18.34c0 2.627 2.13 4.757 4.757 4.757s4.757-2.13 4.757-4.757v-18.34c0-2.627-2.13-4.757-4.757-4.757z" fill="url(#SVGID_00000174569647347156985260000003667029300268180609_)"/><path d="m237.804 347.015c-2.627 0-4.757 2.13-4.757 4.757v18.34c0 2.627 2.13 4.757 4.757 4.757s4.757-2.13 4.757-4.757v-18.34c0-2.627-2.13-4.757-4.757-4.757z" fill="url(#SVGID_00000108307822129039892550000010389616224012023221_)"/><path d="m351.917 251.243h-18.34c-2.627 0-4.757 2.13-4.757 4.757 0 2.627 2.13 4.757 4.757 4.757h18.34c2.627 0 4.757-2.13 4.757-4.757-.001-2.627-2.13-4.757-4.757-4.757z" fill="url(#SVGID_00000122682312541978002840000018175893936317443979_)"/><path d="m146.788 256c0-2.627-2.13-4.757-4.757-4.757h-18.34c-2.627 0-4.757 2.13-4.757 4.757s2.13 4.757 4.757 4.757h18.34c2.628 0 4.757-2.13 4.757-4.757z" fill="url(#SVGID_00000182504560560087290630000000267645299379661204_)"/><path d="m184.867 154.797c-1.314-2.275-4.223-3.055-6.498-1.741s-3.055 4.223-1.741 6.498l9.17 15.883c1.314 2.275 4.223 3.055 6.498 1.741s3.055-4.223 1.741-6.498z" fill="url(#SVGID_00000047033020244631278640000000431276846679368847_)"/><path d="m289.81 336.563c-1.314-2.275-4.223-3.055-6.498-1.741s-3.055 4.223-1.741 6.498l9.17 15.883c1.314 2.275 4.223 3.055 6.498 1.741s3.055-4.223 1.741-6.498z" fill="url(#SVGID_00000170240275968782791350000009942825898518126997_)"/><path d="m323.123 212.234 15.883-9.17c2.275-1.314 3.055-4.223 1.741-6.498s-4.223-3.055-6.498-1.741l-15.883 9.17c-2.275 1.314-3.055 4.223-1.741 6.498s4.223 3.054 6.498 1.741z" fill="url(#SVGID_00000067941092524531722700000004682064584204475275_)"/><path d="m152.484 299.767-15.883 9.17c-2.275 1.314-3.055 4.223-1.741 6.498s4.223 3.055 6.498 1.741l15.883-9.17c2.275-1.314 3.055-4.223 1.741-6.498-1.313-2.276-4.223-3.055-6.498-1.741z" fill="url(#SVGID_00000065054347446918485390000012997394893255138482_)"/><path d="m297.239 153.056c-2.275-1.314-5.185-.534-6.498 1.741l-9.17 15.883c-1.314 2.275-.534 5.185 1.741 6.498 2.275 1.314 5.185.534 6.498-1.741l9.17-15.883c1.313-2.275.534-5.185-1.741-6.498z" fill="url(#SVGID_00000095297641473175492800000006412350943128412342_)"/><path d="m192.296 334.822c-2.275-1.314-5.185-.534-6.498 1.741l-9.17 15.883c-1.314 2.275-.534 5.185 1.741 6.498 2.275 1.314 5.185.534 6.498-1.741l9.17-15.883c1.314-2.275.534-5.185-1.741-6.498z" fill="url(#SVGID_00000027595298113812752870000007335560194256782513_)"/><path d="m157.241 203.994-15.883-9.17c-2.275-1.314-5.185-.534-6.498 1.741-1.314 2.275-.534 5.185 1.741 6.498l15.883 9.17c2.275 1.314 5.185.534 6.498-1.741 1.314-2.275.534-5.184-1.741-6.498z" fill="url(#SVGID_00000086655690830631407450000009756018089733684660_)"/><path d="m339.007 308.937-15.883-9.17c-2.275-1.314-5.185-.534-6.498 1.741-1.314 2.275-.534 5.185 1.741 6.498l15.883 9.17c2.275 1.314 5.184.534 6.498-1.741s.534-5.185-1.741-6.498z" fill="url(#SVGID_00000176766075148529388050000015683235417167780263_)"/></g><path d="m237.804 254.277h-8.368v-80.74c0-14.024 1.703-27.997 5.071-41.611l1.091-4.41c.57-2.302 3.842-2.302 4.411 0l1.091 4.41c3.369 13.614 5.071 27.587 5.071 41.611v80.74z" fill="url(#SVGID_00000008837276206713821500000017116361019961590438_)"/><path d="m236.455 256-5.917-5.917 36.855-36.855c9.917-9.917 21.001-18.593 33.009-25.837l3.89-2.347c2.03-1.225 4.344 1.089 3.119 3.119l-2.347 3.89c-7.245 12.008-15.921 23.093-25.837 33.009l-36.855 36.855z" fill="url(#SVGID_00000030478651472427216730000009139499400218934703_)"/><g><circle cx="237.804" cy="256" fill="url(#SVGID_00000124151604661202012980000014034522121747178686_)" r="16.94"/><path d="m220.863 256c0 9.356 7.584 16.94 16.94 16.94s16.94-7.584 16.94-16.94c0-2.026-.357-3.969-1.009-5.77h-31.862c-.652 1.801-1.009 3.744-1.009 5.77z" fill="url(#SVGID_00000069384168880753729710000015809367940822038955_)"/><path d="m225.825 267.979c6.616 6.616 17.342 6.616 23.957 0 6.616-6.616 6.616-17.342 0-23.957-1.433-1.433-3.059-2.554-4.794-3.366l-22.53 22.53c.813 1.734 1.934 3.36 3.367 4.793z" fill="url(#SVGID_00000178172453050535145480000006978891174722590090_)"/></g></g><path d="m357.959 293.017c0 23.13 13.922 42.997 33.84 51.706 19.125-33.149 26.669-71.146 22.631-108.124-.017 0-.034-.001-.051-.001-31.162 0-56.42 25.258-56.42 56.419z" fill="url(#SVGID_00000095311550792108703930000016450920507585537197_)"/><g><path d="m115.795 107.948c30.323-25.045 66.536-39.349 103.589-42.902 2.513-.241 4.421-2.366 4.421-4.89v-37.033c0-2.884-2.468-5.143-5.342-4.91-48.442 3.917-95.911 22.572-135.134 55.971-2.193 1.867-2.336 5.208-.299 7.245l26.184 26.184c1.783 1.783 4.636 1.941 6.581.335z" fill="url(#SVGID_00000092417693715236820130000014842924273286873275_)"/><path d="m89.752 378.009c-25.046-30.323-39.349-66.536-42.902-103.589-.241-2.513-2.366-4.421-4.89-4.421h-37.033c-2.884 0-5.143 2.468-4.91 5.342 3.917 48.442 22.572 95.911 55.971 135.134 1.867 2.193 5.208 2.336 7.245.299l26.184-26.184c1.782-1.783 1.941-4.637.335-6.581z" fill="url(#SVGID_00000154427280424950012820000018135797604543217552_)"/><path d="m46.85 237.58c3.553-37.053 17.856-73.266 42.902-103.589 1.606-1.945 1.448-4.798-.336-6.581l-26.184-26.184c-2.037-2.037-5.378-1.894-7.245.299-33.399 39.223-52.054 86.692-55.971 135.134-.232 2.874 2.027 5.342 4.91 5.342h37.034c2.524 0 4.649-1.908 4.89-4.421z" fill="url(#SVGID_00000080891049357210496880000010456379741192139448_)"/><path d="m219.384 446.954c-37.053-3.553-73.266-17.856-103.589-42.902-1.945-1.606-4.798-1.448-6.581.336l-26.184 26.184c-2.037 2.037-1.894 5.378.299 7.245 39.223 33.399 86.692 52.054 135.134 55.971 2.874.232 5.342-2.027 5.342-4.91v-37.033c0-2.525-1.909-4.65-4.421-4.891z" fill="url(#SVGID_00000032635695658181616520000004159118582423452077_)"/></g><g><g><g><path d="m506.92 316.461-17.412-10.059c.765-4.345 1.171-8.815 1.171-13.385s-.406-9.039-1.171-13.385l17.412-10.059c4.855-2.8 6.52-9.008 3.716-13.863l-15.815-27.404c-2.805-4.855-9.013-6.515-13.869-3.716l-17.433 10.064c-6.807-5.74-14.634-10.309-23.168-13.4v-20.103c0-5.61-4.548-10.153-10.153-10.153h-31.64c-5.605 0-10.153 4.543-10.153 10.153v20.103c-8.535 3.091-16.361 7.66-23.168 13.4l-17.433-10.064c-4.855-2.8-11.064-1.14-13.869 3.716l-15.815 27.404c-2.805 4.855-1.14 11.064 3.716 13.863l17.413 10.059c-.765 4.345-1.171 8.816-1.171 13.385s.406 9.039 1.171 13.385l-17.413 10.059c-4.855 2.8-6.521 9.008-3.716 13.863l15.815 27.404c2.805 4.855 9.013 6.515 13.869 3.716l17.433-10.065c6.807 5.74 14.634 10.309 23.168 13.4v20.103c0 5.61 4.548 10.153 10.153 10.153h31.64c5.605 0 10.153-4.543 10.153-10.153v-20.102c8.535-3.091 16.361-7.66 23.168-13.4l17.433 10.065c4.855 2.8 11.064 1.14 13.869-3.716l15.815-27.404c2.805-4.856 1.14-11.065-3.716-13.864zm-92.542 16.096c-21.836 0-39.54-17.704-39.54-39.54s17.704-39.54 39.54-39.54 39.54 17.704 39.54 39.54-17.704 39.54-39.54 39.54z" fill="url(#SVGID_00000063618811498282246300000008772483800681395891_)"/><path d="m414.378 236.598c-31.161 0-56.419 25.258-56.419 56.419s25.258 56.419 56.419 56.419 56.419-25.258 56.419-56.419-25.258-56.419-56.419-56.419zm0 93.254c-20.342 0-36.835-16.493-36.835-36.835s16.493-36.835 36.835-36.835 36.835 16.493 36.835 36.835-16.493 36.835-36.835 36.835z" fill="url(#SVGID_00000081615434922301637880000008713677106355385496_)"/><g><path d="m339.251 306.403-17.417 10.056c-4.855 2.803-6.519 9.012-3.716 13.867l15.819 27.4c2.803 4.855 9.012 6.519 13.867 3.716l17.431-10.064c-13.365-11.267-22.81-27.037-25.984-44.975z" fill="url(#SVGID_00000122721884618468083870000013198925106633351605_)"/><path d="m339.251 306.403-17.417 10.056c-4.855 2.803-6.519 9.012-3.716 13.867l15.819 27.4c2.803 4.855 9.012 6.519 13.867 3.716l17.431-10.064c-13.365-11.267-22.81-27.037-25.984-44.975z" fill="url(#SVGID_00000101100151485622441020000013329594617507306136_)"/><path d="m510.638 255.707-15.819-27.4c-2.803-4.855-9.012-6.519-13.867-3.716l-17.431 10.064c13.366 11.266 22.81 27.037 25.985 44.975l17.417-10.056c4.855-2.802 6.519-9.011 3.715-13.867z" fill="url(#SVGID_00000097460384005266775860000007064004705213640890_)"/></g><g><path d="m414.378 216.718c9.12 0 17.864 1.603 25.971 4.537v-20.105c0-5.607-4.545-10.152-10.152-10.152h-31.639c-5.607 0-10.152 4.545-10.152 10.152v20.105c8.108-2.935 16.853-4.537 25.972-4.537z" fill="url(#SVGID_00000029039975307753889360000005613116427718762143_)"/><path d="m414.378 369.316c-9.12 0-17.864-1.603-25.971-4.537v20.105c0 5.607 4.545 10.152 10.152 10.152h31.639c5.607 0 10.152-4.545 10.152-10.152v-20.105c-8.108 2.934-16.852 4.537-25.972 4.537z" fill="url(#SVGID_00000181770285649775101110000015830472556041243574_)"/><path d="m414.378 369.316c-9.12 0-17.864-1.603-25.971-4.537v20.105c0 5.607 4.545 10.152 10.152 10.152h31.639c5.607 0 10.152-4.545 10.152-10.152v-20.105c-8.108 2.934-16.852 4.537-25.972 4.537z" fill="url(#SVGID_00000055676290527460692040000000554290562660005806_)"/></g><g><path d="m365.235 234.656-17.431-10.064c-4.855-2.803-11.064-1.14-13.867 3.716l-15.819 27.4c-2.803 4.855-1.14 11.064 3.716 13.867l17.417 10.056c3.174-17.938 12.619-33.709 25.984-44.975z" fill="url(#SVGID_00000008840815649031715730000007146397450132843395_)"/><path d="m506.922 316.459-17.417-10.056c-3.175 17.938-12.619 33.708-25.985 44.975l17.431 10.064c4.855 2.803 11.064 1.14 13.867-3.716l15.819-27.4c2.805-4.855 1.141-11.064-3.715-13.867z" fill="url(#SVGID_00000165220008027986817760000007980386503270006712_)"/><path d="m506.922 316.459-17.417-10.056c-3.175 17.938-12.619 33.708-25.985 44.975l17.431 10.064c4.855 2.803 11.064 1.14 13.867-3.716l15.819-27.4c2.805-4.855 1.141-11.064-3.715-13.867z" fill="url(#SVGID_00000141447993554902685150000012505110643268024467_)"/></g></g></g><g><g><path d="m393.524 411.609-12.706-1.115c-.725-2.703-1.69-5.382-2.915-8.008-1.225-2.627-2.656-5.088-4.261-7.38l7.313-10.45c2.041-2.911 1.334-6.926-1.58-8.965l-16.437-11.514c-2.914-2.039-6.928-1.329-8.969 1.582l-7.324 10.459c-5.452-1.475-11.176-2.004-16.91-1.493l-5.389-11.556c-1.504-3.225-5.336-4.617-8.558-3.115l-18.189 8.481c-3.222 1.502-4.619 5.333-3.115 8.558l5.389 11.556c-4.078 4.065-7.352 8.789-9.726 13.914l-12.72-1.112c-3.542-.308-6.666 2.311-6.977 5.854l-1.745 19.993c-.311 3.543 2.311 6.666 5.852 6.973l12.706 1.115c.725 2.703 1.69 5.382 2.915 8.008 1.225 2.627 2.656 5.088 4.261 7.38l-7.313 10.45c-2.041 2.911-1.334 6.926 1.58 8.965l16.437 11.514c2.914 2.039 6.928 1.329 8.969-1.582l7.324-10.459c5.452 1.475 11.176 2.004 16.91 1.493l5.389 11.556c1.504 3.225 5.336 4.617 8.558 3.115l18.189-8.482c3.222-1.502 4.619-5.333 3.115-8.558l-5.389-11.556c4.078-4.065 7.352-8.789 9.726-13.914l12.72 1.112c3.542.308 6.666-2.311 6.977-5.854l1.745-19.993c.311-3.541-2.311-6.664-5.852-6.972zm-48.884 34.06c-12.553 5.853-27.476.422-33.329-12.131s-.422-27.476 12.131-33.329 27.476-.422 33.329 12.131.421 27.476-12.131 33.329z" fill="url(#SVGID_00000179642194483556058950000002412719363358301350_)"/><path d="m318.917 390.507c-17.913 8.353-25.662 29.643-17.309 47.557 8.353 17.913 29.643 25.662 47.557 17.309 17.913-8.353 25.662-29.643 17.309-47.557-8.354-17.914-29.644-25.663-47.557-17.309zm24.997 53.607c-11.694 5.453-25.596.393-31.049-11.301s-.393-25.596 11.301-31.049 25.596-.393 31.049 11.301.393 25.596-11.301 31.049z" fill="url(#SVGID_00000044162574019918881030000002065079266285055107_)"/><g><path d="m294.441 450.773-7.317 10.449c-2.04 2.913-1.332 6.928 1.581 8.968l16.439 11.51c2.913 2.04 6.928 1.332 8.968-1.581l7.323-10.458c-10.704-2.893-20.36-9.427-26.994-18.888z" fill="url(#SVGID_00000041997500594111399170000017049103956568798118_)"/><path d="m294.441 450.773-7.317 10.449c-2.04 2.913-1.332 6.928 1.581 8.968l16.439 11.51c2.913 2.04 6.928 1.332 8.968-1.581l7.323-10.458c-10.704-2.893-20.36-9.427-26.994-18.888z" fill="url(#SVGID_00000163771121139910851550000011720501963268797860_)"/><path d="m379.375 375.688-16.439-11.51c-2.913-2.04-6.928-1.332-8.968 1.581l-7.323 10.458c10.704 2.894 20.36 9.428 26.994 18.889l7.317-10.45c2.04-2.913 1.332-6.928-1.581-8.968z" fill="url(#SVGID_00000111886306803181245310000016983802346672726664_)"/></g><g><path d="m313.588 379.078c5.242-2.445 10.699-3.867 16.146-4.354l-5.389-11.557c-1.503-3.223-5.334-4.617-8.557-3.114l-18.188 8.481c-3.223 1.503-4.617 5.334-3.115 8.557l5.389 11.557c3.874-3.86 8.471-7.125 13.714-9.57z" fill="url(#SVGID_00000140708104307572535780000010817821776797504422_)"/><path d="m354.493 466.801c-5.242 2.445-10.699 3.867-16.146 4.354l5.389 11.557c1.503 3.223 5.334 4.617 8.557 3.115l18.188-8.481c3.223-1.503 4.617-5.334 3.114-8.557l-5.389-11.557c-3.873 3.859-8.47 7.124-13.713 9.569z" fill="url(#SVGID_00000039851636803221292210000015754345670483204784_)"/><path d="m354.493 466.801c-5.242 2.445-10.699 3.867-16.146 4.354l5.389 11.557c1.503 3.223 5.334 4.617 8.557 3.115l18.188-8.481c3.223-1.503 4.617-5.334 3.114-8.557l-5.389-11.557c-3.873 3.859-8.47 7.124-13.713 9.569z" fill="url(#SVGID_00000075845375758212036430000016651921551608309637_)"/></g><g><path d="m290.146 402.563-12.718-1.113c-3.543-.31-6.666 2.311-6.976 5.853l-1.749 19.992c-.31 3.543 2.311 6.666 5.853 6.976l12.708 1.112c-2.983-11.163-1.781-22.76 2.882-32.82z" fill="url(#SVGID_00000059276141508608724080000015436474781066317721_)"/><path d="m393.524 411.608-12.708-1.112c2.983 11.163 1.782 22.76-2.882 32.82l12.718 1.113c3.543.31 6.666-2.311 6.976-5.853l1.749-19.992c.311-3.543-2.31-6.666-5.853-6.976z" fill="url(#SVGID_00000078733556732343677960000008633771007146147502_)"/><path d="m393.524 411.608-12.708-1.112c2.983 11.163 1.782 22.76-2.882 32.82l12.718 1.113c3.543.31 6.666-2.311 6.976-5.853l1.749-19.992c.311-3.543-2.31-6.666-5.853-6.976z" fill="url(#SVGID_00000173153288559338373760000008044054823877172925_)"/></g></g></g></g></g><g/><g/><g/><g/><g/><g/><g/><g/><g/><g/><g/><g/><g/><g/><g/></svg>