<svg id="Layer_1" enable-background="new 0 0 70 70" viewBox="0 0 70 70" xmlns="http://www.w3.org/2000/svg"><g><g opacity=".5"><path d="m33.5932732 63.7822342-21.6861725-12.5646782.0090036-4.869709-8.9161043 5.4227943 22.3252335 12.0115929z" fill="#b6bcd8"/></g><path d="m66.9973145 19.1238613-.0090027 5.7658768-.0090027.0090027-.0539703 19.8792896c0 .692646-.4587631 1.3942947-1.3762894 1.9249802l-28.0019455 16.272274c-.9264717.5396881-2.1407967.8095322-3.3641815.8095322-1.214325 0-2.4376545-.2698441-3.3641815-.8095322l-17.5585776-10.1375656c-.9444809-.5396881-1.4032431-1.2503433-1.4032431-1.9609413l.0629721-25.6542225c0 .0809803.0090046.1709099.0270119.2518902-.1169415-.7825756.3328171-1.5831585 1.3582792-2.1858177l28.0019493-16.2632714c1.8530006-1.0794306 4.8663597-1.0794306 6.728363 0l17.5585747 10.1375675c1.0074539.5846519 1.4572144 1.358223 1.376236 2.1228447.0090027-.0539684.0270081-.1079369.0270081-.1619072z" fill="#b6bcd8"/><g><g><g><g><g><g enable-background="new"><g><g><path d="m66.9973145 19.1238613-.0719757 25.6541691c0 .692646-.4587631 1.3942947-1.3762894 1.9249802l-28.0019455 16.272274c-1.8530006 1.0794334-4.8663597 1.0794334-6.728363 0l-17.5585776-10.1375656c-.9444809-.5396881-1.4032431-1.2503433-1.4032431-1.9609413l.0629721-25.6542225c0 .7106514.4767704 1.4212513 1.4122477 1.9699421l17.5585766 10.1375656-.0180073 5.7568741c1.8350468 1.0614777 4.866415 1.1424026 6.7283649.1169395l.0180054-5.8738136 28.0019531-16.272274c.9175186-.5396882 1.3762818-1.2323323 1.3762818-1.9339276z" fill="#434240"/></g></g><g><g><path d="m66.9983597 19.1254921-.069252 25.6497307c-.0063019.6984978-.4656677 1.3970375-1.3844376 1.9319153l-27.9966507 16.2697677.0692139-25.6497307 28.0029831-16.2697678c.9187393-.5348777 1.3781433-1.2333774 1.3781433-1.9319152z" fill="#434240"/></g></g><g><g><path d="m30.8901577 37.3271751-.069212 25.6497307-17.5634126-10.1377983c-.9376307-.541214-1.4032974-1.2522736-1.4032974-1.9633713l.0692129-25.6497307c0 .7110977.4719648 1.4221954 1.4095955 1.9633713z" fill="#434240"/></g></g><g><g><path d="m37.6010742 43.2038765-.0539703 19.7714081c-1.8530006 1.0794334-4.8663597 1.0794334-6.728363 0l.0539684-19.8883476c1.8350467 1.0614776 4.866415 1.1424026 6.7283649.1169395z" fill="#282521"/></g></g><g><g><path d="m30.8901615 37.3271561c.6362743 1.9571495.8478737 3.9038124.0995789 5.8268166l-17.6758232-10.2035294c-.9376307-.5412178-1.4032965-1.2522755-1.4032965-1.9633732l.0128279-5.7610645c0 .7110977.4719648 1.4221954 1.4095955 1.9633713z" fill="#fd9500"/></g></g><g><g><path d="m37.6201859 37.3283615c.7284203 2.0818901.8125916 4.0342102.0960808 5.8256111-1.8521461 1.076355-4.9760895 1.0106392-6.8403378-.0656853l.0163288-5.7598724c1.8642502 1.0763245 4.8757858 1.0763016 6.7279282-.0000534z" fill="#e88503"/></g></g><g><g><path d="m65.5953674 17.161644c1.8642502 1.0763245 1.8740616 2.8207245.0219269 3.8970661l-27.9971084 16.2696705c-1.8521461 1.0763512-4.863678 1.0763588-6.7279282.0000343l-17.5617256-10.139267c-1.8642483-1.0763245-1.8740797-2.8207207-.0219345-3.8970699l27.9971122-16.26967c1.8521309-1.0763412 4.8636856-1.076355 6.727932-.000031z" fill="#ffb850"/></g></g></g></g><g><g><path d="m66.9983597 19.1254921-.0128708 5.7610645c-.0062943.6984997-.4656601 1.3970375-1.3844376 1.9319153l-27.8842354 16.3355084-.0995827-5.8268051 28.0029831-16.2697678c.9187394-.5348778 1.3781434-1.2333775 1.3781434-1.9319153z" fill="#fd9500"/></g></g></g><g><g><g><path d="m56.0769081 18.882658-.3083458.1824799-21.9432602 12.7493534c-.8621216.5034218-2.2717171.4971237-3.1464348-.0063l-7.5199432-4.3420925-.302084-.1761799c-.8684196-.4971619-.8746796-1.3152256-.0125599-1.8186474l22.2515678-12.9318342c.8684158-.5034208 2.2780151-.5034208 3.146431 0l7.8220291 4.5182734c.8747178.5034217.8810158 1.3214874.0126 1.8249473z" fill="#e88503"/></g></g><g><g><path d="m55.7685623 19.0651379-21.9432602 12.7493534c-.8621216.5034218-2.2717171.4971237-3.1464348-.0063l-7.5199432-4.3420925 21.936924-12.7493544c.8684158-.5034208 2.2780151-.5034208 3.146431 0z" fill="#fd9500"/></g></g></g><path d="m50.2033081 18.7820415-1.6191216.9354763-2.4197006-1.4032421-.0180054-3.8679094-11.0460358 6.3775396c-.9624863.5487461-1.7360573 1.8890171-1.7270546 2.9864006l.017952 4.6684933-1.6191177.9355316-2.410696-1.403244-.0269566-4.6684914c0-2.1229 1.4931717-4.7134571 3.3461723-5.783884l11.720726-6.7733841c.9264717-.5307388 1.7720222-.5847073 2.3836861-.2248793l2.4106979 1.403244c0-.0090046 0-.0090046 0-.0090046.6027145.3508244.9804955 1.0974388.9804955 2.1498575z" fill="#333"/><g><g enable-background="new"><g><g><path d="m48.5800285 19.7148991-2.415081-1.403492-.0225105-4.6716776 2.415081 1.403492z" fill="#4d4d4d"/></g></g><g><g><path d="m45.6381073 12.5319443 2.415081 1.4034939c.3100815.1801968.5027847.5629625.5043297 1.1077833l-2.415081-1.403492c-.001545-.5448208-.1942482-.9275866-.5043297-1.1077852z" fill="#4d4d4d"/></g></g><g><g><path d="m46.7827377 10.5562162 2.4150772 1.4034939c-.6090355-.3539362-1.4515648-.3049231-2.3795662.2308578l-2.415081-1.403492c.9280014-.5357818 1.7705307-.5847939 2.37957-.2308597z" fill="#4d4d4d"/></g></g><g><g><path d="m31.7741299 29.4177876-2.4150811-1.403492-.0225105-4.6716767 2.4150829 1.403492z" fill="#4d4d4d"/></g></g><g><g><path d="m35.0916786 18.960907-2.415081-1.403492 11.7265701-6.770339 2.415081 1.403492z" fill="#4d4d4d"/></g></g><g><g><path d="m31.7516212 24.7461109-2.4150829-1.403492c-.0060215-2.1242752 1.4913731-4.717865 3.3400593-5.7852039l2.415081 1.403492c-1.8486862 1.0673389-3.3460808 3.6609287-3.3400574 5.7852039z" fill="#4d4d4d"/></g></g><g><g><path d="m46.8182487 12.190568c1.8450317-1.0652294 3.3522148-.2063322 3.3582382 1.917942l.0225067 4.6716776-1.6189651.9347115-.0225105-4.6716776c-.0031128-1.0977545-.7822952-1.5376024-1.7339821-.9881439l-11.7265701 6.770339c-.9553375.5515633-1.7294884 1.8882275-1.7263756 2.9859829l.0225067 4.6716766-1.6189671.9347115-.0225086-4.6716766c-.0060234-2.1242752 1.4913712-4.717865 3.3400574-5.7852039z" fill="#333"/></g></g></g></g></g><g><g enable-background="new"><g><g fill="#b6bcd8"><path d="m48.4582405 34.9193687.0180092 6.2605973-3.9938545 2.3027611-.9714928-.5666466-.017952-6.2606545 3.9848481-2.3117637z"/><path d="m62.8955231 32.8504906-3.9938546 2.302761-.9714927-.5666999-.0180092-6.2606545 3.9848518-2.3027592.9804993.5666981z"/></g></g></g></g><g><g enable-background="new"><g><g><path d="m44.4836617 43.4832916-.9757386-.5670395-.0177612-6.2649192.9757385.5670394z" fill="#b6bcd8"/></g></g><g><g><path d="m44.4659004 37.2183723-.9757385-.5670394 3.9896545-2.3034287.9757386.5670395z" fill="#dbdcfa"/></g></g><g><g><path d="m48.455555 34.9149437.0177612 6.2649193-3.9896545 2.3034286-.0177613-6.2649193z" fill="#cccfed"/></g></g></g><g enable-background="new"><g><g><path d="m58.9042931 35.1575356-.9757424-.5670395-.0177612-6.2649174.9757423.5670395z" fill="#b6bcd8"/></g></g><g><g><path d="m58.8865318 28.8926182-.9757423-.5670395 3.9896545-2.3034287.9757424.5670395z" fill="#dbdcfa"/></g></g><g><g><path d="m62.8761864 26.5891895.0177612 6.2649174-3.9896545 2.3034287-.0177613-6.2649174z" fill="#cccfed"/></g></g></g></g></g><g opacity=".7"><g><path d="m40.6239967 35.5687065c1.5500832-1.1153908 3.1497116-2.1455193 4.756855-3.1627464 1.6019821-1.0260658 3.2394676-1.9910259 4.8770866-2.9558201 1.6483688-.9462376 3.2976532-1.8908844 4.9819069-2.7754116l2.5280037-1.3239651c.8591919-.41292 1.7028313-.85252 2.5757256-1.2418308-.7704086.5656567-1.5700645 1.0809669-2.3541679 1.6230717l-2.4019012 1.5409927c-1.6023369 1.0254612-3.2396507 1.9907494-4.8778725 2.9544468-1.6489792.9451942-3.2980957 1.8901711-4.9827118 2.7740402-1.6794548.8927612-3.3664208 1.772625-5.1029244 2.5672226z" fill="#fff"/></g></g></g></g></svg>