<svg height="512" viewBox="0 0 64 64" width="512" xmlns="http://www.w3.org/2000/svg"><g id="Flat"><g id="Color"><g><g><path d="m36.958 38.355-4.242-4.242 22.627-22.628 5.657-1.414-1.414 5.657z" fill="#d0d8da"/><path d="m46.2 25.113a5.975 5.975 0 0 1 -5.963 1.477l-7.522 7.523 4.242 4.242 22.629-22.627 1.333-5.328z" fill="#93999a"/><path d="m37.406 43.565 2.828-2.828-9.9-9.9-2.829 2.828-.707 4.95h-5.656l-9.9 9.9a4 4 0 0 0 0 5.657l5.658 5.656a4 4 0 0 0 5.657 0l9.9-9.9v-5.656z" fill="#f9e109"/><path d="m37.7 38.2-2.277 2.277a2 2 0 0 1 -1.131.566l-2.573.368a2 2 0 0 0 -1.719 1.98v3.094a2 2 0 0 1 -.586 1.414l-3.657 3.657a8 8 0 0 1 -11.313 0l-3.122-3.121-.079.08a4 4 0 0 0 0 5.657l5.657 5.656a4 4 0 0 0 5.657 0l9.9-9.9v-5.656l4.95-.707 2.828-2.828z" fill="#fcbc04"/><path d="m27.506 33.665-.614 4.298 6.216 6.216 4.298-.614 2.828-2.828-9.899-9.9z" fill="#fcbc04"/><path d="m16.192 59.121-4.242-4.242 12.021-12.021 5.656-1.414-1.414 5.657z" fill="#aae1f9"/><path d="m33.87 40.029-4.243 1.415 1.415-4.243 2.828-2.828 2.828 2.828z" fill="#aae1f9"/><g fill="#57b7eb"><path d="m14.879 51.95-2.929 2.929 4.242 4.242 5.357-5.357a7.983 7.983 0 0 1 -6.67-1.814z"/><path d="m29.814 40.885.372.372 3.684-1.228 2.828-2.828-2.828-2.828-2.828 2.828z"/></g></g><g><path d="m34.433 15.616h10a0 0 0 0 1 0 0v42.634a5 5 0 0 1 -5 5 5 5 0 0 1 -5-5v-42.634a0 0 0 0 1 0 0z" fill="#ccc" transform="matrix(.707 -.707 .707 .707 -16.334 39.433)"/><path d="m56.274 52.274a5 5 0 0 1 -7.071 0l-28.147-28.147-2 2 30.144 30.147a4.994 4.994 0 0 0 8.107-5.536 4.969 4.969 0 0 1 -1.033 1.536z" fill="#93999a"/><circle cx="13.243" cy="13.243" fill="#fcbc04" r="9"/><path d="m10.636 15.364a9 9 0 0 1 -1.909-9.9 9 9 0 1 0 12.789 11.311 9 9 0 0 1 -10.88-1.411z" fill="#e59730"/><g><path d="m13.242 19.243a1.014 1.014 0 0 1 -.356-.066 1 1 0 0 1 -.578-1.291l1.407-3.695-2.349.293a1 1 0 0 1 -1.058-1.348l2-5.25a1 1 0 0 1 1.869.712l-1.408 3.695 2.349-.293a1 1 0 0 1 1.059 1.348l-2 5.25a1 1 0 0 1 -.935.645z" fill="#f9e109"/><path d="m51.738 52.738a1 1 0 0 1 -.707-.293l-24-24a1 1 0 0 1 1.414-1.414l24 24a1 1 0 0 1 -.707 1.707z" fill="#656b76"/></g><path d="m17.485 4.757 11.315 11.314-12.729 12.729-11.314-11.315a6 6 0 0 0 0 8.486l7.071 7.071a8 8 0 0 0 11.314 0l9.9-9.9a8 8 0 0 0 0-11.314l-7.071-7.071a6 6 0 0 0 -8.486 0z" fill="#ccc"/><path d="m33.042 19.142-9.9 9.9a8 8 0 0 1 -11.314 0l-7.071-7.071a5.955 5.955 0 0 1 -1.394-2.243 5.985 5.985 0 0 0 1.394 6.243l7.071 7.071a8 8 0 0 0 11.314 0l9.9-9.9a7.99 7.99 0 0 0 2.081-7.657 7.952 7.952 0 0 1 -2.081 3.657z" fill="#93999a"/><path d="m14.177 18.6.36-.946a8.908 8.908 0 0 1 -1.851-.76l-.378.994a1 1 0 0 0 .578 1.291 1.014 1.014 0 0 0 .356.066 1 1 0 0 0 .935-.645z" fill="#fcbc04"/></g></g></g></g></svg>