<svg id="Layer_1" enable-background="new 0 0 64 64" viewBox="0 0 64 64" xmlns="http://www.w3.org/2000/svg" xmlns:xlink="http://www.w3.org/1999/xlink"><linearGradient id="lg1"><stop offset="0" stop-color="#666"/><stop offset=".0878" stop-color="#5c5c5c"/><stop offset=".7084" stop-color="#1a1a1a"/><stop offset="1"/></linearGradient><linearGradient id="SVGID_1_" gradientUnits="userSpaceOnUse" x1="15.537" x2="8.057" xlink:href="#lg1" y1="49.791" y2="38.858"/><linearGradient id="SVGID_2_" gradientUnits="userSpaceOnUse" x1="39.164" x2="31.685" xlink:href="#lg1" y1="63.911" y2="52.978"/><g><path d="m2.78 33.5 18.04-10.49 23.49 13.57-18.04 10.48z" fill="#6ba6d6"/><g><g><path d="m25.18 45.53-20.24-11.76-.04-15.65 20.23 11.75z" fill="#a8002c"/></g><g><path d="m45.55 18.09.04 15.65-20.41 11.79-.05-15.66z" fill="#e50042"/></g><g><path d="m11.99 19.5-.05 18.34 5.27 3.04.05-18.33z" fill="#f0b11b"/></g><g><path d="m38.45 19.5.05 18.34-5.27 3.04-.05-18.33z" fill="#f0b11b"/></g><g><path d="m24.74 30.92-20.24-11.75-.01-6.4 20.23 11.76z" fill="#b70034"/></g><g><path d="m24.72 24.53-20.23-11.76 21.25-12.27 20.23 11.76z" fill="#ff276a"/></g><g><path d="m45.97 12.26.02 6.39-21.25 12.27-.02-6.39z" fill="#f71c55"/></g><g><path d="m38.71 16.45.05 6.41-5.27 3.05-.05-6.41z" fill="#f0b11b"/></g><g><path d="m11.73 16.96-.06 6.39 5.28 3.04.05-6.38z" fill="#f0b11b"/></g><path d="m18.47 4.7-5.3 3.06 20.23 11.76 5.3-3.06z" fill="#fed62f"/><path d="m32.96 4.7-21.25 12.27 5.28 3.07 21.25-12.27z" fill="#fcc134"/><g><g><path d="m31.14 15.97c-2.2 0-5.93-3.08-6.65-3.7l-1.02-.87 1.02-.87c.72-.62 4.45-3.7 6.65-3.7 2.52 0 4.58 2.05 4.58 4.58s-2.06 4.56-4.58 4.56zm-4.08-4.58c1.59 1.21 3.35 2.28 4.08 2.28 1.26 0 2.28-1.02 2.28-2.28s-1.02-2.28-2.28-2.28c-.73 0-2.49 1.07-4.08 2.28z" fill="#e5e5e5"/></g><g><path d="m19.32 15.97c-2.52 0-4.58-2.05-4.58-4.58s2.05-4.58 4.58-4.58c2.2 0 5.93 3.08 6.65 3.7l1.03.88-1.02.87c-.73.62-4.45 3.71-6.66 3.71zm0-6.86c-1.26 0-2.28 1.02-2.28 2.28s1.02 2.28 2.28 2.28c.71 0 2.48-1.07 4.08-2.28-1.59-1.21-3.34-2.28-4.08-2.28z" fill="#e5e5e5"/></g></g></g><path d="m59.76 46.8-.01 2.58-1.84-1.06v-2.58z" fill="#474747"/><path d="m4.99 41.31 6.68-2.63-4.73-1.62-3.33 1.62z" fill="#494949"/><path d="m28.68 54.98 6.68-2.63-4.73-1.62-3.33 1.62z" fill="#494949"/><g><path d="m9.07 40.24c2.07 1.2 3.75 4.1 3.74 6.48s-1.7 3.34-3.77 2.15c-2.08-1.2-3.75-4.1-3.74-6.48.01-2.39 1.7-3.35 3.77-2.15zm-.02 6.75c1.17.68 2.12.13 2.13-1.21 0-1.35-.94-2.98-2.11-3.66s-2.12-.13-2.13 1.21c0 1.35.94 2.98 2.11 3.66" fill="#212121"/><path d="m9.07 42.12c1.17.68 2.12 2.31 2.11 3.66 0 1.35-.95 1.89-2.13 1.21-1.17-.68-2.12-2.31-2.11-3.66s.96-1.89 2.13-1.21z" fill="#848484"/><path d="m9.68 46.76c-1.17-.68-2.12-2.31-2.11-3.66 0-.59.19-1.01.5-1.26-.66.03-1.11.56-1.12 1.49 0 1.35.94 2.98 2.11 3.66.66.38 1.24.36 1.63.05-.31.01-.65-.07-1.01-.28z" fill="#b9b9ba"/><path d="m14.62 45.5c0-.06 0-.12-.01-.18 0-.06-.01-.12-.01-.18-.01-.06-.01-.12-.02-.18s-.02-.13-.03-.19c0 0 0 0 0-.01-.01-.06-.02-.12-.03-.18-.01-.07-.03-.13-.04-.2s-.03-.13-.05-.2-.03-.13-.05-.2c-.01-.05-.03-.1-.05-.16v-.01c0-.01-.01-.02-.01-.03-.02-.06-.04-.13-.06-.19s-.04-.13-.07-.19c-.02-.06-.05-.12-.07-.18s-.05-.12-.07-.18c-.02-.05-.04-.09-.06-.14v-.01c0-.01-.01-.02-.01-.03-.03-.06-.05-.12-.08-.18-.03-.07-.06-.13-.1-.2-.04-.08-.08-.15-.12-.22-.04-.08-.09-.16-.14-.24-.01-.01-.01-.03-.02-.04-.01-.02-.02-.03-.03-.05-.09-.15-.18-.3-.28-.45-.08-.11-.16-.23-.24-.34-.05-.07-.11-.15-.17-.22-.05-.06-.1-.12-.14-.18-.05-.06-.1-.11-.14-.17-.05-.05-.1-.11-.15-.16-.01-.01-.02-.02-.03-.03 0 0-.01-.01-.01-.01-.04-.04-.07-.08-.11-.12-.05-.05-.11-.11-.16-.16s-.11-.1-.17-.15-.11-.1-.17-.15c-.03-.02-.06-.05-.08-.07-.01-.01-.01-.01-.02-.02-.02-.02-.04-.03-.06-.05-.05-.04-.11-.08-.16-.13-.05-.04-.11-.08-.16-.12s-.11-.07-.16-.11c-.05-.03-.11-.07-.16-.1-.01-.01-.02-.01-.04-.02-.04-.02-.08-.05-.12-.07-.05-.03-.1-.05-.15-.08-.03-.02-.07-.03-.1-.05-.01 0-.02-.01-.03-.01s-.02-.01-.03-.01c-.05-.02-.1-.04-.15-.06s-.1-.04-.15-.06c-.01 0-.02-.01-.02-.01-.01 0-.01 0-.02-.01-.03-.01-.07-.02-.1-.03-.05-.02-.1-.03-.16-.04-.02-.01-.05-.01-.07-.02-.01 0-.02 0-.03-.01-.02 0-.03-.01-.05-.01-.06-.01-.11-.02-.16-.03-.03 0-.07-.01-.1-.01-.01 0-.02 0-.03 0s-.02 0-.04 0c-.06 0-.12-.01-.18-.01-.03 0-.05 0-.07 0s-.04 0-.06 0-.04 0-.06 0c-.07.01-.15.02-.22.03-.01 0-.03.01-.04.01-.07.02-.15.03-.22.06-.01 0-.01.01-.02.01-.1.04-.2.08-.29.13l-1.8 1.05c.09-.05.19-.1.29-.13.08-.03.15-.05.23-.07.01 0 .03-.01.04-.01.09-.02.19-.03.28-.04h.06c.09 0 .19 0 .29.01h.04c.1.01.2.03.31.05.01 0 .02 0 .03.01.11.02.22.05.33.09.01 0 .01 0 .02.01.12.04.24.09.36.14.01 0 .02.01.03.01.12.06.25.12.37.19.26.15.5.32.75.52l.02.02c.24.19.47.41.69.64 0 0 .01.01.01.01.44.47.84 1.01 1.18 1.59.01.01.02.03.02.04.16.28.31.58.44.87v.01c.13.3.25.61.34.92v.01c.09.31.17.62.21.93.05.31.07.62.07.91s-.03.56-.08.81v.02c-.05.24-.12.47-.21.66v.01c-.08.17-.18.3-.28.44-.03.04-.07.09-.1.13-.12.13-.26.25-.41.34l1.8-1.05c.15-.09.29-.21.41-.34.04-.04.07-.09.1-.13.05-.06.1-.11.14-.17.05-.08.1-.17.14-.26v-.01-.01c.03-.06.06-.13.08-.19s.05-.13.07-.2c.02-.06.03-.13.05-.19.01-.03.01-.05.02-.08 0-.01 0-.01 0-.02.01-.03.01-.05.02-.08.01-.06.02-.12.03-.18s.01-.12.02-.18c0-.06.01-.12.01-.18s0-.12 0-.18v-.01c-.01 0-.01-.06-.01-.12z" fill="url(#SVGID_1_)"/></g><g><path d="m32.7 54.36c2.07 1.2 3.75 4.1 3.74 6.48s-1.7 3.34-3.77 2.15c-2.08-1.2-3.75-4.1-3.74-6.48.01-2.39 1.7-3.35 3.77-2.15zm-.02 6.75c1.17.68 2.12.13 2.13-1.21 0-1.35-.94-2.98-2.11-3.66s-2.12-.13-2.13 1.21c0 1.35.94 2.98 2.11 3.66" fill="#212121"/><path d="m32.7 56.24c1.17.68 2.12 2.31 2.11 3.66 0 1.35-.95 1.89-2.13 1.21-1.17-.68-2.12-2.31-2.11-3.66 0-1.35.95-1.89 2.13-1.21z" fill="#848484"/><path d="m33.3 60.88c-1.17-.68-2.12-2.31-2.11-3.66 0-.59.19-1.01.5-1.26-.66.03-1.11.56-1.12 1.49 0 1.35.94 2.98 2.11 3.66.66.38 1.24.36 1.63.05-.3.01-.64-.07-1.01-.28z" fill="#b9b9ba"/><path d="m38.24 59.62c0-.06 0-.12-.01-.18 0-.06-.01-.12-.01-.18s-.01-.12-.02-.18-.02-.13-.03-.19c0 0 0 0 0-.01-.01-.06-.02-.12-.03-.18-.01-.07-.03-.13-.04-.2s-.03-.13-.05-.2-.03-.13-.05-.2c-.01-.05-.03-.1-.05-.16v-.01c0-.01-.01-.02-.01-.03-.02-.06-.04-.13-.06-.19s-.04-.13-.07-.19c-.02-.06-.05-.12-.07-.18s-.05-.12-.07-.18c-.02-.05-.04-.09-.06-.14v-.01c0-.01-.01-.02-.01-.03-.03-.06-.05-.12-.08-.18-.03-.07-.06-.13-.1-.2-.04-.08-.08-.15-.12-.22-.04-.08-.09-.16-.14-.24-.01-.01-.01-.03-.02-.04-.01-.02-.02-.03-.03-.05-.09-.15-.18-.3-.28-.45-.08-.11-.16-.23-.24-.34-.05-.07-.11-.15-.17-.22-.05-.06-.1-.12-.14-.18-.05-.06-.1-.11-.14-.17-.05-.05-.1-.11-.15-.16-.01-.01-.02-.02-.03-.03 0 0-.01-.01-.01-.01-.04-.04-.07-.08-.11-.12-.05-.05-.11-.11-.16-.16s-.11-.1-.17-.15-.11-.1-.17-.15c-.03-.02-.06-.05-.08-.07-.01-.01-.01-.01-.02-.02-.02-.02-.04-.03-.06-.05-.05-.04-.11-.08-.16-.13-.05-.04-.11-.08-.16-.12s-.11-.07-.16-.11c-.05-.03-.11-.07-.16-.1-.01-.01-.02-.01-.04-.02-.04-.02-.08-.05-.12-.07-.05-.03-.1-.05-.15-.08-.03-.02-.07-.03-.1-.05-.01 0-.02-.01-.03-.01s-.02-.01-.03-.01c-.05-.02-.1-.04-.15-.06s-.1-.04-.15-.06c-.01 0-.02-.01-.02-.01-.01 0-.01 0-.02-.01-.03-.01-.07-.02-.1-.03-.05-.02-.1-.03-.16-.04-.02-.01-.05-.01-.07-.02-.01 0-.02 0-.03-.01-.02 0-.03-.01-.05-.01-.06-.01-.11-.02-.16-.03-.03 0-.07-.01-.1-.01-.01 0-.02 0-.03 0s-.02 0-.04 0c-.06 0-.12-.01-.18-.01-.03 0-.05 0-.07 0s-.04 0-.06 0-.04 0-.06 0c-.07.01-.15.02-.22.03-.01 0-.03.01-.04.01-.07.02-.15.03-.22.06-.01 0-.01.01-.02.01-.1.04-.2.08-.29.13l-1.8 1.05c.09-.05.19-.1.29-.13.08-.03.15-.05.23-.07.01 0 .03-.01.04-.01.09-.02.19-.03.28-.04h.06c.09 0 .19 0 .29.01h.04c.1.01.2.03.31.05.01 0 .02 0 .03.01.11.02.22.06.33.09.01 0 .01 0 .02.01.12.04.24.09.36.14.01 0 .02.01.03.01.12.06.25.12.37.19.26.15.5.32.75.52l.02.02c.24.19.47.41.69.64 0 0 .01.01.01.01.44.47.84 1.01 1.18 1.59.01.01.02.03.02.04.16.28.31.58.44.87v.01c.13.3.25.61.34.92v.01c.09.31.17.62.21.93.05.31.07.62.07.91s-.03.56-.08.81v.02c-.05.24-.12.47-.21.66v.01c-.08.17-.18.3-.28.44-.03.04-.07.09-.1.13-.12.13-.26.25-.41.34l1.8-1.05c.15-.09.29-.21.41-.34.04-.04.07-.09.1-.13.05-.06.1-.11.14-.17.05-.08.1-.17.14-.26v-.01-.01c.03-.06.06-.13.08-.19s.05-.13.07-.2c.02-.06.03-.13.05-.19.01-.03.01-.05.02-.08 0-.01 0-.01 0-.02.01-.03.01-.05.02-.08.01-.06.02-.12.03-.18s.01-.12.02-.18c0-.06.01-.12.01-.18s0-.12 0-.18v-.01s0-.06-.01-.12z" fill="url(#SVGID_2_)"/></g><path d="m26.31 29.69 18.04-10.48-.04 13.56-18.04 10.49z" fill="#b81519"/><path d="m40.92 49.16 18.04-10.48-.04 12.86-18.04 10.49z" fill="#b1b1b1"/><path d="m26.31 29.69 18.04-10.48 8.97 5.17-18.04 10.49z" fill="#c5c5c5"/><path d="m35.28 34.87 18.04-10.49 5.64 14.3-18.04 10.48z" fill="#dbdbdb"/><path d="m56.3 37.75-7.13 4.14-1.45.84-1.35.8-4.38 2.54-.31-.78-3.74-9.49 6.09-3.55 4.88-2.83 1.35-.78 1.45-.85.54-.31z" fill="#1e7dbc"/><path d="m48.91 29.42-2.54 14.11-4.38 2.54-.31-.78 2.35-13.04z" fill="#1d91bf"/><path d="m51.71 27.79-2.54 14.1-1.45.84 2.54-14.09z" fill="#1d91bf"/><path d="m41.19 58.47-.01 2.57-2.59-1.5v-2.57z" fill="#474747"/><path d="m61.25 46.81-.01 2.57-20.06 11.66.01-2.57z" fill="#666"/><path d="m58.94 45.47v.86l.82.47-18.58 10.8-1.85-1.06-.74.43 2.6 1.5 20.06-11.66z" fill="#727272"/><g><path d="m45.49 51.49c.8-.46 1.45-.09 1.45.83v.13l-3.82 2.21-.01-1.79z" fill="#ef1b21"/><path d="m42.67 55.34-.72-.42-.01-2.66.72.42z" fill="#a3a3a3"/><path d="m45.52 51.03c1.14-.66 2.07-.13 2.08 1.18v.29l-4.93 2.84-.01-2.67zm1.42 1.41v-.13c0-.92-.65-1.29-1.45-.83l-2.38 1.37.01 1.79z" fill="#e5e5e5"/><path d="m46.37 50.75h.01.16.02c.16.01.3.06.43.13l-.72-.42s-.01 0-.01-.01c-.03-.02-.07-.04-.1-.05-.04-.01-.07-.03-.11-.04s-.08-.02-.12-.03c-.03-.01-.06-.01-.09-.01 0 0 0 0-.01 0h-.01c-.01 0-.01 0-.02 0-.04 0-.09 0-.14 0h-.01s0 0-.01 0h-.01c-.04 0-.09.01-.13.01-.06.01-.12.02-.18.04-.02.01-.04.02-.06.02-.02.01-.04.01-.07.02-.04.01-.08.02-.12.04-.09.04-.19.09-.29.14l-2.86 1.65.72.42 2.86-1.65c.14-.08.27-.14.41-.18.02-.01.04-.02.06-.02.15-.03.28-.06.4-.06z" fill="#d1d1d1"/><path d="m57.88 44.33.01 1.79-3.82 2.2v-.13c0-.92.64-2.03 1.43-2.49z" fill="#ef1b21"/><path d="m53.52 48.03c.07-.26.16-.53.28-.79.01-.01.01-.03.02-.04.03-.07.07-.14.1-.21 0 0 0-.01.01-.01.08-.14.16-.28.25-.41.01-.01.02-.03.03-.04.07-.11.15-.21.23-.31.01-.01.02-.03.04-.04.13-.16.27-.31.42-.44.04-.03.07-.06.11-.1.16-.13.32-.26.48-.35l2.86-1.65-.72-.42-2.86 1.65c-.17.1-.33.22-.48.35-.04.03-.07.06-.11.1-.03.03-.07.06-.1.09-.08.08-.15.16-.23.24-.03.04-.06.08-.09.11-.01.01-.01.01-.02.02s-.01.02-.02.03c-.01.02-.03.03-.04.05-.05.06-.09.12-.14.19-.02.03-.03.05-.05.08-.01.01-.01.01-.02.02 0 .01-.01.01-.01.02-.01.02-.03.04-.04.06-.04.06-.07.12-.11.18-.03.06-.07.12-.1.17v.01c-.03.06-.06.11-.08.17-.01.02-.01.03-.02.05 0 .01-.01.02-.01.03v.01c-.01.03-.03.06-.04.09-.03.06-.05.12-.08.19-.02.06-.05.13-.07.2s-.04.14-.06.21c-.01.03-.02.07-.03.1 0 .01-.01.02-.01.03-.01.03-.02.07-.02.1-.02.1-.04.19-.05.29-.02.14-.03.27-.03.4v.29l.72.42v-.29c0-.26.04-.52.1-.79-.02-.04-.01-.05-.01-.06z" fill="#d1d1d1"/><path d="m55.48 45.28 2.86-1.65.01 2.67-4.93 2.84v-.29c-.01-1.31.91-2.91 2.06-3.57zm2.41.84-.01-1.79-2.38 1.37c-.8.46-1.44 1.57-1.43 2.49v.13z" fill="#e5e5e5"/><path d="m48.39 51.87-.72-.42-.01-.44.73.42z" fill="#666"/><path d="m48.39 51.43-.73-.42 4.11-2.37.73.42z" fill="#b9b9ba"/><path d="m52.5 49.06v.43l-4.11 2.38v-.44z" fill="#848484"/><path d="m48.38 50.93-.72-.42v-.44l.72.42z" fill="#666"/><path d="m48.38 50.49-.72-.42 4.11-2.37.72.42z" fill="#b9b9ba"/><path d="m52.49 48.12v.44l-4.11 2.37v-.44z" fill="#848484"/><path d="m48.38 49.99-.72-.42v-.43l.72.41z" fill="#666"/><path d="m48.38 49.55-.72-.41 4.11-2.38.72.42z" fill="#b9b9ba"/><path d="m52.49 47.18v.44l-4.11 2.37v-.44z" fill="#848484"/></g><path d="m2.77 33.49-.02 6.52 2.24 1.29c.03-2.92 2.11-4.08 4.67-2.61 2.56 1.48 4.62 5.03 4.64 7.98l14.39 8.31c.03-2.92 2.11-4.08 4.67-2.6s4.62 5.03 4.64 7.98l2.9 1.67.02-6.52z" fill="#5089c3"/><path d="m40.92 49.16-5.64-14.29-8.97-5.18v17.39l14.59 8.43z" fill="#a3a3a3"/><path d="m33.25 36.22 4.04 9.91-.01 3.17-8.7-5.03.03-10.73z" fill="#215eb7"/></g></svg>