<svg id="Capa_1" enable-background="new 0 0 512 512" height="512" viewBox="0 0 512 512" width="512" xmlns="http://www.w3.org/2000/svg" xmlns:xlink="http://www.w3.org/1999/xlink"><linearGradient id="SVGID_1_" gradientUnits="userSpaceOnUse" x1="18.264" x2="409.544" y1="343.982" y2="343.982"><stop offset="0" stop-color="#c5baeb"/><stop offset=".3492" stop-color="#d7d1eb"/><stop offset="1" stop-color="#f2effa"/></linearGradient><linearGradient id="lg1"><stop offset=".0319" stop-color="#7662bd"/><stop offset="1" stop-color="#7662bd" stop-opacity="0"/></linearGradient><linearGradient id="SVGID_2_" gradientUnits="userSpaceOnUse" x1="333.609" x2="333.609" xlink:href="#lg1" y1="552.918" y2="200.579"/><linearGradient id="SVGID_3_" gradientUnits="userSpaceOnUse" x1="343.738" x2="435.723" y1="355.291" y2="195.969"><stop offset=".0319" stop-color="#a996eb"/><stop offset=".0645" stop-color="#b3a3ed"/><stop offset=".1414" stop-color="#c7bbf0"/><stop offset=".2286" stop-color="#d6cef3"/><stop offset=".3305" stop-color="#e1dbf5"/><stop offset=".4611" stop-color="#e7e3f6"/><stop offset=".719" stop-color="#e9e5f6"/><stop offset=".7626" stop-color="#dfdaf0"/><stop offset=".8254" stop-color="#d9d3ec"/><stop offset="1" stop-color="#d7d1eb"/></linearGradient><linearGradient id="SVGID_4_" gradientUnits="userSpaceOnUse" x1="327.947" x2="327.947" xlink:href="#lg1" y1="366.457" y2="424.243"/><linearGradient id="lg2"><stop offset="0" stop-color="#dfdaef"/><stop offset="1" stop-color="#fff"/></linearGradient><linearGradient id="SVGID_5_" gradientUnits="userSpaceOnUse" x1="405.848" x2="405.848" xlink:href="#lg2" y1="496.922" y2="287.364"/><linearGradient id="SVGID_6_" gradientUnits="userSpaceOnUse" x1="405.848" x2="405.848" y1="507.851" y2="300.669"><stop offset="0" stop-color="#2f878a"/><stop offset="1" stop-color="#06daae"/></linearGradient><linearGradient id="SVGID_7_" gradientUnits="userSpaceOnUse" x1="386.594" x2="386.594" y1="355.835" y2="433.159"><stop offset=".0319" stop-color="#1a4c4e"/><stop offset="1" stop-color="#1a4c4e" stop-opacity="0"/></linearGradient><linearGradient id="lg3"><stop offset=".0319" stop-color="#a996eb"/><stop offset=".6819" stop-color="#d7cff3"/><stop offset="1" stop-color="#e9e5f6"/></linearGradient><linearGradient id="SVGID_8_" gradientUnits="userSpaceOnUse" x1="383.494" x2="397.392" xlink:href="#lg3" y1="392.566" y2="368.689"/><linearGradient id="SVGID_9_" gradientUnits="userSpaceOnUse" x1="395.406" x2="375.845" xlink:href="#lg1" y1="406.139" y2="390.024"/><linearGradient id="SVGID_10_" gradientUnits="userSpaceOnUse" x1="410.634" x2="440.015" xlink:href="#lg3" y1="363.253" y2="312.778"/><linearGradient id="SVGID_11_" gradientUnits="userSpaceOnUse" x1="422.913" x2="422.913" xlink:href="#lg2" y1="410.915" y2="322.511"/><linearGradient id="SVGID_12_" gradientUnits="userSpaceOnUse" x1="219.939" x2="68.539" xlink:href="#lg1" y1="213.805" y2="213.805"/><radialGradient id="SVGID_13_" cx="240.985" cy="80.167" gradientUnits="userSpaceOnUse" r="177.79"><stop offset="0" stop-color="#e7e3f3"/><stop offset=".3914" stop-color="#dcd6f0"/><stop offset="1" stop-color="#c5baeb"/></radialGradient><g><path d="m213.904 175.963c-108.049 0-195.64 87.591-195.64 195.64v43.59l.055-.005c-.016 25.951 15.635 50.731 47.697 69.242 70.733 40.839 194.286 35.717 275.963-11.439 44.67-25.79 67.507-58.809 67.51-90.119l.056-.005v-11.264c-.001-108.049-87.592-195.64-195.641-195.64z" fill="url(#SVGID_1_)"/><path d="m409.488 382.872.056-.005v-11.264c0-64.012-30.745-120.839-78.27-156.532l-65.582 68.016c-4.798 4.976-8.017 12.857-8.017 19.623v55.49c0 40.276 13.257 70.214 35.479 83.039l-.003.005.219.127c.034.019.067.039.101.058l19.405 11.203c7.532 5.566 16.278 8.961 26.038 9.865l17.194 1.592c35.34-24.245 53.378-53.403 53.38-81.217z" fill="url(#SVGID_2_)"/><g><path d="m489.731 227.057-23.209-13.4c-1.971-1.19-3.244-2.281-5.449-2.021l-73.883 8.687c-1.94.228-3.964.951-5.988 2.119-2.024 1.169-4.048 2.783-5.989 4.795l-73.882 76.625c-4.798 4.976-8.017 12.856-8.017 19.623v55.49c0 40.276 13.257 70.214 35.479 83.039l-.003.005.22.127c.034.019.067.039.101.058l19.405 11.203z" fill="url(#SVGID_3_)"/><path d="m362.543 422.557-69.193-39.948c.776 38.442 13.893 66.97 35.441 79.407l-.003.005.22.127c.034.019.067.039.101.058l19.405 11.203 12.435-21.692z" fill="url(#SVGID_4_)"/><path d="m485.719 226.248-73.882 8.687c-3.88.456-8.097 2.891-11.977 6.915l-73.882 76.625c-4.798 4.976-8.018 12.856-8.018 19.623v55.49c0 51.771 21.897 86.473 56.592 89.686l24.01 2.223c4.584.425 9.988-2.695 14.573-8.414l24.01-29.948c34.695-43.275 56.592-103.262 56.592-155.033v-55.49c-.001-6.766-3.221-10.928-8.018-10.364z" fill="url(#SVGID_5_)"/><path d="m405.848 253.218c.695-.401 1.38-.644 2.036-.721l73.729-8.669v55.274c0 22.403-4.662 47.016-13.481 71.177-8.82 24.161-21.417 46.83-36.431 65.557l-24.01 29.948c-.569.71-1.207 1.28-1.844 1.647-.637.368-1.275.534-1.844.481l-24.01-2.223c-15.014-1.391-27.611-9.513-36.431-23.49-8.819-13.977-13.481-33.206-13.481-55.61v-55.274l73.729-76.466c.658-.682 1.343-1.23 2.038-1.631z" fill="url(#SVGID_6_)"/><g><path d="m400.565 374.821-37.125 1.522v17.493l.032.023c-.184 4.833 1.064 8.92 3.772 10.967l24.137 18.247c2.536 1.917 5.86 1.689 9.184-.23s6.648-5.529 9.184-10.375z" fill="url(#SVGID_7_)"/><path d="m451.379 290.001c-5.072-3.582-13.295.913-18.368 10.605l-31.534 60.25-3.671-2.526-12.812-7.449-.003.026c-5.101-3.043-12.876 1.683-17.749 10.994-5.072 9.692-5.072 20.657 0 24.491l24.137 18.247c.474.358.982.617 1.506.828l-.011.022 12.872 7.497 57.609-116.037c.002.001-11.938-6.921-11.976-6.948z" fill="url(#SVGID_8_)"/><path d="m380.846 394.24-13.618-7.862c.006.004.01.01.016.014l24.137 18.247c.474.358.982.617 1.506.828l-.011.022 12.872 7.497.628-1.265z" fill="url(#SVGID_9_)"/><path d="m451.379 290.001c-5.072-3.582-13.295.913-18.368 10.605l-31.534 60.25 12.689 9.592 49.19-73.498c.001 0-11.939-6.922-11.977-6.949z" fill="url(#SVGID_10_)"/><g><path d="m414.167 412.257c-3.324 1.919-6.648 2.148-9.184.23l-24.137-18.247c-5.072-3.835-5.072-14.799 0-24.491 5.072-9.691 13.296-14.44 18.368-10.605l14.953 11.304 32.447-61.995c5.073-9.692 13.296-14.44 18.368-10.605s5.072 14.799 0 24.491l-41.631 79.543c-2.536 4.846-5.86 8.456-9.184 10.375z" fill="url(#SVGID_11_)"/></g></g></g><path d="m60.281 250.457h153.623l-21.566-73.305c-53.449 5.862-100.421 33.243-132.057 73.305z" fill="url(#SVGID_12_)"/><circle cx="213.904" cy="125.229" fill="url(#SVGID_13_)" r="125.203"/></g></svg>