<svg id="Layer_2" height="512" viewBox="0 0 512 512" width="512" xmlns="http://www.w3.org/2000/svg" xmlns:xlink="http://www.w3.org/1999/xlink" data-name="Layer 2"><linearGradient id="linear-gradient" gradientUnits="userSpaceOnUse" x1="43.93" x2="468.07" y1="43.93" y2="468.07"><stop offset="0" stop-color="#6ebeff"/><stop offset="1" stop-color="#0056ab"/></linearGradient><linearGradient id="linear-gradient-2" gradientUnits="userSpaceOnUse" x1="157.35" x2="477.3" y1="138.88" y2="458.83"><stop offset="0" stop-opacity=".35"/><stop offset="1" stop-opacity="0"/></linearGradient><g id="Social_Icon" data-name="Social Icon"><g id="Users"><rect fill="url(#linear-gradient)" height="512" rx="150" width="512"/><path d="m512 228.34v133.66c0 82.84-67.16 150-150 150h-96.73l-95.86-95.86 3.31-4.76-106.67-106.67 97.37-80.5-45.7-45.7 68.87-68.87 155.97 155.97 27.14-41.83-45.27-45.27 68.87-68.87z" fill="url(#linear-gradient-2)"/><g id="Users-2" fill="#fff" data-name="Users"><path d="m342.64 386.01-.05 30.13h-173.18l-.05-30.13c-.05-31.6 16.83-59.28 42.08-74.44 10.51 11.02 26.57 18.07 44.56 18.07s34.06-7.05 44.57-18.07c6.1 3.66 11.7 8.05 16.7 13.05 15.71 15.7 25.42 37.42 25.38 61.39z"/><circle cx="256" cy="256" r="48.71"/><path d="m446 274.58-.04 30.13h-135.15c11.52-12.95 18.52-30.01 18.52-48.71 0-20.06-8.06-38.24-21.12-51.48 2.12-1.57 4.33-3.03 6.59-4.39 10.51 11.02 26.56 18.06 44.56 18.06s34.07-7.04 44.57-18.06c6.1 3.66 11.7 8.05 16.7 13.05 15.71 15.7 25.41 37.42 25.38 61.39z"/><circle cx="359.36" cy="144.57" r="48.71"/><path d="m182.69 256c0 18.7 7 35.76 18.52 48.71h-135.16l-.05-30.13c-.04-31.6 16.83-59.27 42.07-74.44 10.51 11.02 26.57 18.06 44.57 18.06s34.06-7.04 44.57-18.06c2.26 1.36 4.46 2.82 6.58 4.39-13.05 13.24-21.11 31.42-21.11 51.48z"/><circle cx="152.64" cy="144.57" r="48.71"/></g></g></g></svg>