<?xml version="1.0" encoding="iso-8859-1"?>
<!-- Generator: Adobe Illustrator 19.0.0, SVG Export Plug-In . SVG Version: 6.00 Build 0)  -->
<svg version="1.1" id="Layer_1" xmlns="http://www.w3.org/2000/svg" xmlns:xlink="http://www.w3.org/1999/xlink" x="0px" y="0px"
	 viewBox="0 0 512.003 512.003" style="enable-background:new 0 0 512.003 512.003;" xml:space="preserve">
<g>
	<path style="fill:#FB7B76;" d="M273.658,349.296v-84.462c5.967-0.777,11.723-1.801,17.302-3.037
		c7.521-11.608,18.114-30.897,23.455-54.201c7.309-4.723,12.209-12.906,12.209-22.21v-35.31c0-7.768-3.452-14.716-8.828-19.571
		v-51.05c0,0,10.478-79.448-97.103-79.448s-97.103,79.448-97.103,79.448v51.05c-5.376,4.855-8.828,11.802-8.828,19.571v35.31
		c0,9.304,4.899,17.487,12.209,22.21c8.819,38.418,31.929,66.066,31.929,66.066v32.265c0,11.767-6.435,22.599-16.755,28.231
		l-78.76,42.955c-22.74,12.412-36.899,36.255-36.899,62.164v37.42h298.567C292.619,444.378,273.658,398.016,273.658,349.296"/>
	<path style="fill:#FC9691;" d="M89.865,377.114l78.76-42.955c10.328-5.632,16.755-16.463,16.755-28.231v-32.274
		c0,0-23.111-27.639-31.929-66.057c-7.309-4.723-12.209-12.915-12.209-22.219v-35.31c0-7.768,3.452-14.716,8.828-19.571v-51.05
		c0,0-9.516-72.669,83.862-78.963C229.711,0.203,225.351,0,220.69,0c-107.582,0-97.103,79.448-97.103,79.448v51.05
		c-5.376,4.855-8.828,11.802-8.828,19.571v35.31c0,9.304,4.899,17.496,12.209,22.219c8.819,38.418,31.929,66.057,31.929,66.057
		v32.274c0,11.767-6.426,22.599-16.755,28.231l-78.76,42.955c-22.74,12.412-36.899,36.246-36.899,62.164v37.411h26.483v-37.411
		C52.966,413.361,67.125,389.526,89.865,377.114"/>
	<path style="fill:#BC5C59;" d="M351.52,377.119l-78.76-42.964c-10.328-5.632-16.755-16.463-16.755-28.231V273.66
		c0,0,23.111-27.648,31.929-66.066c7.318-4.723,12.209-12.906,12.209-22.21v-35.31c0-7.777-3.452-14.716-8.828-19.571v-51.05
		c0,0,9.516-72.669-83.862-78.972c4.22-0.282,8.58-0.477,13.241-0.477c107.582,0,97.103,79.448,97.103,79.448v51.05
		c5.376,4.855,8.828,11.802,8.828,19.571v35.31c0,9.304-4.891,17.487-12.209,22.219c-8.819,38.409-31.929,66.057-31.929,66.057
		v32.265c0,11.767,6.427,22.599,16.755,28.231l78.76,42.964c22.74,12.403,36.899,36.246,36.899,62.164v37.411h-26.483v-37.411
		C388.419,413.365,374.26,389.522,351.52,377.119"/>
	<path style="fill:#F0C419;" d="M379.589,512.003c-13.868-5.517-28.672-13.409-41.419-23.552
		c-40.404-32.168-64.512-84.189-64.512-139.158V264.83c48.296-6.241,83.968-29.016,105.931-44.138
		c21.963,15.122,57.635,37.897,105.931,44.138v84.462c0,54.969-23.261,106.92-63.647,139.079
		C409.126,498.523,393.457,506.485,379.589,512.003"/>
	<path style="fill:#F29C1F;" d="M379.692,473.304c-6.276-3.231-13.1-7.362-19.518-12.473
		c-32.071-25.529-51.209-67.222-51.209-111.537V293.76c27.772-7.433,51.147-19.085,70.621-30.949
		c19.474,11.864,42.858,23.517,70.621,30.949v55.534c0,44.694-18.812,86.36-50.326,111.457
		C394.399,465.103,387.478,469.402,379.692,473.304"/>
</g>
<g>
</g>
<g>
</g>
<g>
</g>
<g>
</g>
<g>
</g>
<g>
</g>
<g>
</g>
<g>
</g>
<g>
</g>
<g>
</g>
<g>
</g>
<g>
</g>
<g>
</g>
<g>
</g>
<g>
</g>
</svg>
