<svg id="Layer_1" enable-background="new 0 0 66 66" height="512" viewBox="0 0 66 66" width="512" xmlns="http://www.w3.org/2000/svg"><g><path d="m61.89 3.01h-10.17l-6.6 6.6v15.71c0 .25.2.45.45.45h16.32c.25 0 .45-.2.45-.45v-21.86c0-.25-.2-.45-.45-.45z" fill="#e6e9ee"/><path d="m48.42 9.29v-2.23l4.05-4.05h-.75l-6.6 6.6v15.71c0 .25.2.45.45.45h16.32c.25 0 .45-.2.45-.45v-2.1c-7.69-.01-13.92-6.24-13.92-13.93z" opacity=".1"/><path d="m46.86 52.55c-4.52 0-5.86-4.92-4.04-7.85-1.91-1.18-4.15-1.88-6.56-1.88h-21.77c-6.9 0-12.49 5.59-12.49 12.48v7.69h46.75v-7.69c0-1.03-.14-2.02-.37-2.97-.46.14-.96.22-1.52.22z" fill="#ff4823"/><path d="m18.78 57.53c-6.59 0-11.64-6.05-10.22-12.48.08-.38.17-.68.27-.86-4.05 2.06-6.83 6.26-6.83 11.11v7.69h46.75v-5.46z" opacity=".1"/><path d="m32.11 43.59-1.98-5.11h-9.51l-1.98 5.11c-.2.52-.05 1.1.37 1.46 3.67 3.13 9.07 3.13 12.74 0 .41-.36.56-.94.36-1.46z" fill="#e5d3b3"/><path d="m34.73 11.94s-2.71 6.76.76 10.76 2.47-.53 2.47-.53 3.41-8.58-3.23-10.23z" fill="#5d5b68"/><path d="m34.73 11.94s-.29 2.12-2.15 2.96c-3.33 1.51-9.69 1.9-14.26-.14 0 0-2.19-.61-2.16 3.72.01 1.16-.15 2.32-.53 3.41-.41 1.19-1.07 2.4-2.07 2.46-2 .11-4.47-16.59 7.88-18.59s13.29 6.18 13.29 6.18z" fill="#5d5b68"/><path d="m32.19 7.63c.45.98.54 1.72.54 1.72s-.29 2.12-2.15 2.96c-3.33 1.51-9.69 1.9-14.26-.14 0 0-2.19-.61-2.16 3.72.01 1.16-.15 2.32-.53 3.41-.32.93-.8 1.86-1.47 2.26.31 1.7.87 2.82 1.39 2.79 1-.06 1.66-1.26 2.07-2.46.38-1.09.54-2.26.53-3.41-.03-4.33 2.16-3.72 2.16-3.72 4.56 2.04 10.93 1.65 14.26.14 1.86-.84 2.15-2.96 2.15-2.96s-.28-2.42-2.53-4.31z" opacity=".15"/><path d="m38.52 23.99h-.51c-.2.58-.83.66-2.51-1.28-2.58-2.97-1.75-7.47-1.15-9.58-.31.63-.84 1.36-1.77 1.78-3.33 1.51-9.69 1.9-14.26-.14 0 0-2.19-.61-2.16 3.72.01 1.16-.15 2.32-.53 3.41-.41 1.19-1.07 2.4-2.07 2.46-.18.01-.37-.12-.54-.36h-.78c-1.24.35-1.76 2.37-1.15 4.5s2.11 3.57 3.35 3.21c.34-.1.62-.33.85-.65 2.1 4.88 5.83 9.27 10.09 9.27s7.99-4.39 10.09-9.27c.22.32.5.55.85.65 1.24.36 2.74-1.08 3.35-3.21.6-2.14.09-4.16-1.15-4.51z" fill="#e5d3b3"/><g fill="#5d5b68"><circle cx="21.33" cy="25.4" r="1.37"/><circle cx="29.42" cy="25.4" r="1.37"/></g><g><path d="m25.23 34.79c-1.28 0-2.47-.5-3.38-1.4-.39-.39-.39-1.02 0-1.41s1.02-.39 1.41 0c1.05 1.05 2.87 1.05 3.92 0 .39-.39 1.02-.39 1.41 0s.39 1.02 0 1.41c-.89.9-2.09 1.4-3.36 1.4z" fill="#fff"/></g><path d="m51.27 9.61c.25 0 .45-.2.45-.45v-6.15l-6.6 6.6z" fill="#009aff"/><g fill="#aab2bd"><path d="m48.72 14.8h10.02c.55 0 1-.45 1-1s-.45-1-1-1h-10.02c-.55 0-1 .45-1 1s.45 1 1 1z"/><path d="m58.74 16.69h-10.02c-.55 0-1 .45-1 1s.45 1 1 1h10.02c.55 0 1-.45 1-1s-.45-1-1-1z"/><path d="m58.74 20.58h-10.02c-.55 0-1 .45-1 1s.45 1 1 1h10.02c.55 0 1-.45 1-1s-.45-1-1-1z"/></g><g opacity=".1"><path d="m11.55 52.69c-.55 0-1 .45-1 1v9.3h2v-9.3c0-.55-.45-1-1-1z"/><path d="m39.2 52.69c-.55 0-1 .45-1 1v9.3h2v-9.3c0-.55-.44-1-1-1z"/></g><path d="m64 47.39v-4.32l-3.17-.77c-.28-1.14-.73-2.21-1.31-3.2l1.7-2.78-3.06-3.06-2.79 1.7c-.98-.58-2.05-1.03-3.19-1.33l-.77-3.16h-4.32l-.77 3.16c-1.14.29-2.22.74-3.2 1.33l-2.78-1.7-3.07 3.06 1.71 2.78c-.59.99-1.03 2.06-1.33 3.2l-3.17.77v4.32l3.17.77c.29 1.14.73 2.21 1.33 3.2l-1.71 2.78 3.07 3.06 2.78-1.7c.98.59 2.06 1.03 3.2 1.33l.77 3.17h4.32l.77-3.17c1.14-.29 2.21-.73 3.19-1.33l2.79 1.7 3.06-3.06-1.7-2.78c.58-.99 1.03-2.06 1.31-3.2zm-14.75 3.3c-3.02 0-5.46-2.44-5.46-5.46 0-3.01 2.44-5.45 5.46-5.45 3.01 0 5.45 2.44 5.45 5.45 0 3.02-2.44 5.46-5.45 5.46z" fill="#fec200"/><path d="m30.13 38.48c-1.46 1.14-3.06 1.84-4.75 1.84s-3.3-.7-4.75-1.84l-.04.1c1.71 1.67 3.69 2.74 5.79 2.74 1.51 0 2.95-.56 4.28-1.49z" opacity=".1"/><path d="m55.84 54.87c-8.79 0-15.92-7.13-15.92-15.92 0-1.89.34-3.69.95-5.36l-.52-.32-3.07 3.06 1.71 2.78c-.59.99-1.03 2.06-1.33 3.2l-3.17.77v4.32l3.17.77c.29 1.14.73 2.21 1.33 3.2l-1.71 2.78 3.07 3.06 2.78-1.7c.98.59 2.06 1.03 3.2 1.33l.77 3.17h4.32l.77-3.17c1.14-.29 2.21-.73 3.19-1.33l2.79 1.7 3.06-3.06-.1-.17c-1.67.56-3.44.89-5.29.89z" opacity=".1"/></g></svg>