<svg id="Layer_2" height="512" viewBox="0 0 512 512" width="512" xmlns="http://www.w3.org/2000/svg" xmlns:xlink="http://www.w3.org/1999/xlink" data-name="Layer 2"><linearGradient id="linear-gradient" gradientUnits="userSpaceOnUse" x1="43.93" x2="468.07" y1="43.93" y2="468.07"><stop offset="0" stop-color="#6ebeff"/><stop offset="1" stop-color="#0056ab"/></linearGradient><linearGradient id="linear-gradient-2" gradientUnits="userSpaceOnUse" x1="254.46" x2="468.06" y1="254.47" y2="468.07"><stop offset="0" stop-opacity=".35"/><stop offset="1" stop-opacity="0"/></linearGradient><g id="Social_Icon" data-name="Social Icon"><g id="User"><rect id="Background" fill="url(#linear-gradient)" height="512" rx="150" width="512"/><path d="m512 243.31v118.69c0 82.84-67.16 150-150 150h-118.69l-123.19-123.19 268.69-268.69z" fill="url(#linear-gradient-2)"/><g id="User-2" data-name="User"><g><circle cx="256" cy="256" fill="#1e88e5" r="190"/><path d="m373.82 334.57c1.42 5.8.02 11.91-3.81 16.49-27.23 32.62-68.2 53.38-114.01 53.38s-86.78-20.76-114.01-53.38c-3.82-4.58-5.23-10.69-3.81-16.49 6.53-26.63 21.85-49.81 42.72-66.29 6.48-5.12 15.66-5.25 22.3-.32 14.11 10.49 32.59 16.84 52.81 16.84s38.7-6.36 52.81-16.84c6.63-4.93 15.81-4.8 22.3.32 20.87 16.47 36.19 39.66 42.72 66.29z" fill="#bbdefb"/><circle cx="256" cy="192.09" fill="#e3f2fd" r="68.2"/></g></g></g></g></svg>