<svg clip-rule="evenodd" fill-rule="evenodd" height="1.707in" image-rendering="optimizeQuality" shape-rendering="geometricPrecision" text-rendering="geometricPrecision" viewBox="0 0 1.70666 1.70666" width="1.707in" xmlns="http://www.w3.org/2000/svg"><g id="Layer_x0020_1"><g id="_340523192"><g><path id="_396065456" d="m1.58299 1.51978h-1.45935c-.0681732 0-.123646-.0554646-.123646-.123646v-1.08561c0-.0681732.0554646-.123642.123646-.123642l1.45936.00000394c.0681732 0 .123657.0554646.123657.123646v1.0856c-.00001575.0681811-.0554843.123646-.123673.123646z" fill="#e2e7ff"/><path id="_396065408" d="m-.00000394.544776v-.234252c0-.0680551.0552717-.123449.123291-.123638h1.45972c.0681732 0 .123657.0554646.123657.123646v.234244h-1.70667z" fill="#4073c8"/><path id="_396064616" d="m.204787.443287c-.0427047 0-.0774409-.0347362-.0774409-.0774409 0-.0427008.0347362-.077437.0774409-.077437s.077437.0347362.077437.077437c0 .0427047-.0347323.0774409-.077437.0774409z" fill="#f6e266"/><path id="_396064496" d="m.458535.443287c-.0427047 0-.0774409-.0347362-.0774409-.0774409 0-.0427008.0347362-.077437.0774409-.077437.0427008 0 .077437.0347362.077437.077437 0 .0427047-.0347283.0774409-.077437.0774409z" fill="#dd636e"/><path id="_396064928" d="m.712268.443287c-.0426929 0-.0774409-.0347362-.0774409-.0774409 0-.0427008.0347362-.077437.0774409-.077437s.0774409.0347362.0774409.077437c0 .0427047-.0347323.0774409-.0774409.0774409z" fill="#aad880"/><path id="_396064712" d="m1.49765.441764h-.519827c-.0127874 0-.0231732-.0103819-.0231732-.0231732v-.105535c0-.0127913.0103858-.0231693.0231732-.0231693h.519827c.0127874 0 .0231693.010378.0231693.0231693v.105535c0 .012811-.0103819.0231732-.0231693.0231732z" fill="#f1f4f6"/></g><path id="_396064856" d="m.152575.839583c-.0357598 0-.0648504-.0290906-.0648504-.0648346 0-.0110354.00896063-.0199961.0199961-.0199961.0110394 0 .0199961.00896063.0199961.0199961 0 .0137047.0111535.0248583.0248583.0248583.0137047 0 .0248543-.0111535.0248543-.0248583 0-.0168976-.00483071-.0195236-.0294961-.0253976-.0225236-.00535827-.0602087-.0143307-.0602087-.0642913 0-.0357598.0290906-.0648504.0648504-.0648504.0357559 0 .0648346.0290906.0648346.0648504 0 .0110354-.00896063.0199961-.02.0199961-.0110354 0-.0199961-.00896063-.0199961-.0199961 0-.0137047-.0111496-.0248583-.0248543-.0248583s-.0248583.0111535-.0248583.0248583c0 .0168976.00483465.0195236.0294961.0253976.0225276.00535827.0602126.0143307.0602126.0642913.00001575.035752-.0290787.0648346-.0648346.0648346z" fill="#fea832"/><path id="_396065072" d="m.152575.660181c-.0110394 0-.0199961-.00896063-.0199961-.0199961v-.0238189c0-.0110354.00895669-.0199961.0199961-.0199961.0110354 0 .0199961.00896063.0199961.0199961v.0238189c0 .0110512-.00894488.0199961-.0199961.0199961z" fill="#fea832"/><path id="_396064400" d="m.152575.863425c-.0110394 0-.0199961-.00895669-.0199961-.0199961v-.0238425c0-.0110394.00895669-.0199961.0199961-.0199961.0110354 0 .0199961.00895669.0199961.0199961v.0238268c0 .0110551-.00894488.0200118-.0199961.0200118z" fill="#fea832"/><path id="_396064640" d="m1.4999 1.33895h-.506764c-.0360787 0-.0654213-.0293425-.0654213-.0654055v-.0946063l-.176882-.114811c-.0056811-.00369291-.00911417-.0100118-.00911417-.0167756 0-.00675984.00343307-.0130787.00911417-.0167717l.176886-.114843v-.236142c0-.036063.0293425-.0653898.0654213-.0653898h.506744c.0360591 0 .0654055.0293268.0654055.0653898v.593957c.00001575.0360433-.0293465.0653976-.0653898.0653976z" fill="#5d536e"/><g fill="#958fa1"><path id="_396065144" d="m1.44271.756165h-.264122c-.0110354 0-.0199961-.00896063-.0199961-.02 0-.0110354.0089685-.0199961.0199961-.0199961h.264122c.0110394 0 .0199961.00896063.0199961.0199961 0 .0110394-.00895276.02-.0199961.02zm-.348051 0h-.0443386c-.0110354 0-.0199961-.00896063-.0199961-.02 0-.0110354.00897244-.0199961.0199961-.0199961h.0443386c.0110394 0 .02.00896063.02.0199961 0 .0110394-.00896063.02-.02.02z"/><path id="_396065000" d="m1.4427.85537h-.0443386c-.0110354 0-.0199961-.00896063-.0199961-.0199961 0-.0110394.0089685-.0199961.0199961-.0199961h.0443386c.0110394 0 .0199961.00895669.0199961.0199961 0 .0110354-.00895276.0199961-.0199961.0199961zm-.128268 0h-.264122c-.0110354 0-.0199961-.00896063-.0199961-.0199961 0-.0110394.00897244-.0199961.0199961-.0199961h.264138c.0110394 0 .02.00895669.02.0199961 0 .0110354-.00897638.0199961-.0200157.0199961z"/><path id="_396063632" d="m1.44271.954587h-.264122c-.0110354 0-.0199961-.0089685-.0199961-.0199961s.0089685-.0199961.0199961-.0199961h.264122c.0110394 0 .0199961.0089685.0199961.0199961s-.00895276.0199961-.0199961.0199961zm-.348051 0h-.0443386c-.0110354 0-.0199961-.0089685-.0199961-.0199961s.00897244-.0199961.0199961-.0199961h.0443386c.0110394 0 .02.0089685.02.0199961s-.00896063.0199961-.02.0199961z"/><path id="_396063848" d="m1.44271 1.05379h-.0443386c-.0110354 0-.0199961-.0089685-.0199961-.0199961s.0089685-.0199961.0199961-.0199961h.0443386c.0110394 0 .0199961.0089685.0199961.0199961s-.00895276.0199961-.0199961.0199961zm-.128283 0h-.264122c-.0110354 0-.0199961-.0089685-.0199961-.0199961s.00897244-.0199961.0199961-.0199961h.264122c.0110394 0 .02.0089685.02.0199961s-.00896063.0199961-.02.0199961z"/><path id="_396063920" d="m1.44271 1.25222h-.392406c-.0110354 0-.0199961-.0089685-.0199961-.0199961v-.0992087c0-.0110354.00897244-.0199961.0199961-.0199961h.392421c.0110394 0 .0199961.00897244.0199961.0199961v.0992087c0 .0110197-.0089685.0199961-.0200118.0199961z"/></g><path id="_396063872" d="m.803189 1.40502h-.629598c-.00502362 0-.00910236-.00408661-.00910236-.0091063v-.133445c0-.0786024.0639528-.142555.142547-.142555h.0587205c.00012205.00079528.00035433.0015748.00069291.0023189.0215512.0479173.0694173.078878.121937.078878.0525236 0 .100386-.0309685.121937-.078874.00033858-.00074803.00057087-.00152756.00069291-.00232283h.0587165c.0786063 0 .142555.0639528.142555.142555v.133445c0 .00502756-.0040748.0091063-.00909843.0091063z" fill="#5d536e"/><path id="_396064352" d="m.353303 1.11991h.0124528c.00012205.00079528.00035433.0015748.00069291.0023189.0215512.0479173.0694173.078878.121937.078878.0525236 0 .100386-.0309685.121937-.078874.00033858-.00074803.00057087-.00152756.00069291-.00232283h.0124606c-.0005.00268504-.00114961.00523228-.00209055.00731496-.0235512.0522205-.0756929.0860197-.133.0860197-.057311 0-.109425-.033811-.133-.0860197-.00094095-.00208661-.00158661-.00462992-.00208268-.00731496z" fill="#7c748a"/><path id="_396063944" d="m.721913 1.40502h-.0182008v-.132831c0-.00502362.00408268-.00909843.00910236-.00909843.00501969 0 .00909843.00407874.00909843.00909843v.132831z" fill="#7c748a"/><path id="_340524368" d="m.812287 1.31414v.0182087l-.0994724.00081496c-.00502362 0-.00910236-.00408661-.00910236-.00910236 0-.00501969.00408268-.00910236.00910236-.00910236l.0994724-.0008189z" fill="#7c748a"/><path id="_340524536" d="m.365756 1.11991h.0476063v-.0105157-.00000787-.0510315c0-.00319291.00167323-.00614961.00440551-.00779134.00273228-.00164567.00612598-.00174803.00895669-.00024803.0193386.0102323.0400827.0154213.0616614.0154213s.0423228-.00518898.0616614-.0154213c.00281102-.00150394.00620472-.00141732.00895669.00024803.00273622.00164173.00440157.0046063.00440157.00779134v.0510315.00000787.0105157h.0476102c-.00012205.00079528-.00035433.0015748-.00069291.00232283-.0215512.0479055-.0694134.078874-.121937.078874-.0525197 0-.100386-.0309606-.121937-.078878-.00033858-.00074409-.00057087-.00152362-.00069291-.0023189z" fill="#ebad88"/><path id="_340524272" d="m.413362 1.07751v-.0191496c0-.00319291.00167323-.00614961.00440551-.00779134.00273228-.00164567.00612598-.00174803.00895669-.00024803.0193386.0102323.0400827.0154213.0616614.0154213s.0423228-.00518898.0616614-.0154213c.00281102-.00150394.00620472-.00141732.00895669.00024803.00273622.00164173.00440157.0046063.00440157.00779134v.0191496c-.00103543.00054331-.00207874.0010748-.00312992.00159843-.0224134.0111457-.0468465.0169803-.0718898.0169803-.0250512 0-.0494961-.00583858-.0719134-.0169921-.00104331-.00051969-.00207874-.00104724-.00311024-.00158661z" fill="#ed9c7a"/><path id="_340524800" d="m.335941.965591c-.0412126-.105315-.0496772-.170433-.0283031-.217724.0222559-.0492441.0758819-.0770079.155193-.10585.0513307-.0186654.0958504-.0181969.132311.00138976.0474921.0255039.0660118.0752559.0708543.0910906.0145669.00575197.0244764.0157913.0295.0299094.019189.0539055-.0445.15098-.0472244.155087-.00250787.00377559-.00733465.00507087-.0113346.00326378l-.284268.0433465c-.00331496.00716142-.0137874.00702362-.0167283-.00051181z" fill="#4d4d4d"/><path id="_340524152" d="m.642441 1.26675h-.061622c-.00502362 0-.00910236-.00408268-.00910236-.00910236 0-.00501575.00408268-.00909843.00910236-.00909843h.061622c.00502362 0 .00910236.00408268.00910236.00909843 0 .00501969-.0040748.00910236-.00910236.00910236z" fill="#7c748a"/><path id="_340524608" d="m.395953 1.26675h-.061626c-.00502362 0-.00909843-.00408268-.00909843-.00910236 0-.00501575.0040748-.00909843.00909843-.00909843h.061626c.00502362 0 .00909843.00408268.00909843.00909843 0 .00501969-.0040748.00910236-.00909843.00910236z" fill="#7c748a"/><path id="_340524560" d="m.488386 1.08395c-.0891299 0-.161642-.0795866-.161642-.177406 0-.0978189.0725118-.177406.161642-.177406.0891299 0 .161642.0795787.161642.177398 0 .0978189-.0725118.177413-.161642.177413z" fill="#ebad88"/><path id="_340523768" d="m.721913 1.33309v.0719291h.0812756c.00502362 0 .00909843-.00407874.00909843-.0091063v-.063563l-.090374.00074016z" fill="#ebad88"/><path id="_340523936" d="m.508118 1.40502h-.0394843v-.193839c0-.0108976.0084685-.0069685.0193583-.0069685.0108858 0 .020126-.00391732.020126.0069685z" fill="#7c748a"/><path id="_340523624" d="m.48839 1.26566c-.00502756 0-.0091063-.00408268-.0091063-.00909843v-.00948425c0-.00502362.00407874-.00910236.0091063-.00910236.00501969 0 .00909843.00408268.00909843.00910236v.00948425c0 .00501575-.00407874.00909843-.00909843.00909843z" fill="#ff547b"/><path id="_340523888" d="m.48839 1.31307c-.00502756 0-.0091063-.00408661-.0091063-.0091063v-.00947638c0-.00502362.00407874-.00910236.0091063-.00910236.00501969 0 .00909843.00408268.00909843.00910236v.00947638c0 .00501969-.00407874.0091063-.00909843.0091063z" fill="#ff547b"/><path id="_340523504" d="m.48839 1.36047c-.00502756 0-.0091063-.00408268-.0091063-.00910236v-.00948425c0-.00501969.00407874-.00909843.0091063-.00909843.00501969 0 .00909843.00408268.00909843.00909843v.00948425c0 .00501969-.00407874.00910236-.00909843.00910236z" fill="#ff547b"/><path id="_340523840" d="m.488386 1.26566c-.00502362 0-.00910236-.00408268-.00910236-.00910236v-.00948031c0-.00502362.00407874-.00910236.00910236-.00910236s.00910236.00408268.00910236.00910236v.00948031c0 .00501969-.00407874.00910236-.00910236.00910236z" fill="#5d536e"/><path id="_340523696" d="m.488386 1.31307c-.00502362 0-.00910236-.00407874-.00910236-.00909843v-.00948031c0-.00502362.00407874-.00910236.00910236-.00910236s.00910236.00408268.00910236.00910236v.00948031c0 .00501969-.00407874.00909843-.00910236.00909843z" fill="#5d536e"/><path id="_340523816" d="m.488386 1.36047c-.00502362 0-.00910236-.00408268-.00910236-.00910236v-.00948031c0-.00502362.00407874-.00910236.00910236-.00910236s.00910236.00408268.00910236.00910236v.00948031c0 .00501969-.00407874.00910236-.00910236.00910236z" fill="#5d536e"/><path id="_340523528" d="m.273059 1.40502h-.0182047v-.132831c0-.00502362.00407874-.00909843.00910236-.00909843s.00910236.00407874.00910236.00909843v.132831z" fill="#7c748a"/><path id="_340523216" d="m.164488 1.33317v-.0182047h.0994685c.00502362 0 .00910236.00408268.00910236.00910236 0 .00501575-.0040748.00910236-.00910236.00910236h-.0994685z" fill="#7c748a"/><path id="_340522976" d="m.254854 1.33317h-.0903661v.062748c0 .00501969.00407874.0091063.00910236.0091063h.0812638v-.0718543z" fill="#ebad88"/></g></g></svg>