<svg viewBox="0 0 48 48" xmlns="http://www.w3.org/2000/svg"><g id="Layer_9" data-name="Layer 9"><path d="m4 18a1 1 0 0 1 -.707-1.707l14-14a1 1 0 1 1 1.414 1.414l-14 14a1 1 0 0 1 -.707.293z" fill="#ffcb39"/><path d="m44 18a1 1 0 0 1 -.707-.293l-14-14a1 1 0 0 1 1.414-1.414l14 14a1 1 0 0 1 -.707 1.707z" fill="#ffcb39"/><path d="m45 21-.15 2-1.57 20.31a3.992 3.992 0 0 1 -3.98 3.69h-30.6a3.992 3.992 0 0 1 -3.98-3.69l-1.57-20.31-.15-2z" fill="#dd4747"/><path d="m45 21h-42l1.716 22.307a4 4 0 0 0 3.984 3.693h30.6a3.99 3.99 0 0 0 3.886-3.109 3.979 3.979 0 0 1 -.886.109h-13.927a22 22 0 0 1 -21.936-20.313.639.639 0 0 1 .637-.687h37.776z" fill="#c61414"/><rect fill="#ffcb39" height="4" rx="2" width="46" x="1" y="17"/><path d="m45 17h-2a2 2 0 0 1 0 4h2a2 2 0 0 0 0-4z" fill="#ffe4a1"/><path d="m4 19a2 2 0 0 1 2-2h-3a2 2 0 0 0 0 4h3a2 2 0 0 1 -2-2z" fill="#f2b725"/><rect fill="#dd4747" height="4" rx="2" width="14" x="17" y="1"/><path d="m29 1h-2a2 2 0 0 1 0 4h2a2 2 0 0 0 0-4z" fill="#f47a7a"/><circle cx="24" cy="34" fill="#ffcb39" r="9"/><path d="m20 3a2 2 0 0 1 2-2h-3a2 2 0 0 0 0 4h3a2 2 0 0 1 -2-2z" fill="#c61414"/><g fill="#dd4747"><path d="m27.707 30.293a1 1 0 0 0 -1.414 0l-6 6a1 1 0 1 0 1.414 1.414l6-6a1 1 0 0 0 0-1.414z"/><circle cx="21" cy="31" r="1"/><circle cx="27" cy="37" r="1"/></g><path d="m12 41v-14a1 1 0 0 0 -2 0v14a1 1 0 0 0 2 0z" fill="#ffcb39"/><path d="m38 41v-14a1 1 0 0 0 -2 0v14a1 1 0 0 0 2 0z" fill="#ffcb39"/></g></svg>