<svg id="Layer_2" height="512" viewBox="0 0 512 512" width="512" xmlns="http://www.w3.org/2000/svg" xmlns:xlink="http://www.w3.org/1999/xlink" data-name="Layer 2"><linearGradient id="linear-gradient" gradientUnits="userSpaceOnUse" x1="43.93" x2="468.07" y1="43.93" y2="468.07"><stop offset="0" stop-color="#6ebeff"/><stop offset="1" stop-color="#0056ab"/></linearGradient><linearGradient id="linear-gradient-2" gradientUnits="userSpaceOnUse" x1="231.35" x2="468.08" y1="231.34" y2="468.06"><stop offset="0" stop-opacity=".35"/><stop offset="1" stop-opacity="0"/></linearGradient><g id="Social_Icon" data-name="Social Icon"><g id="Movie"><rect id="Background" fill="url(#linear-gradient)" height="512" rx="150" width="512"/><path d="m512 200.87v161.13c0 82.84-67.16 150-150 150h-161.08l-125.12-125.11 359.19-263.03z" fill="url(#linear-gradient-2)"/><g id="Movie-2" data-name="Movie"><rect fill="#90caf9" height="285.74" rx="37.11" width="380" x="66" y="113.13"/><rect fill="#42a5f5" height="226.37" rx="18.55" width="261.25" x="125.38" y="142.82"/><g fill="#e3f2fd"><circle cx="95.69" cy="198.58" r="16.18"/><circle cx="95.69" cy="256" r="16.18"/><circle cx="95.69" cy="313.42" r="16.18"/><circle cx="416.31" cy="198.58" r="16.18"/><circle cx="416.31" cy="256" r="16.18"/><circle cx="416.31" cy="313.42" r="16.18"/><path d="m217.85 195.88 87.43 50.48c7.42 4.29 7.42 15 0 19.28l-87.43 50.48c-7.42 4.29-16.7-1.07-16.7-9.64v-100.95c0-8.57 9.28-13.93 16.7-9.64z"/></g></g></g></g></svg>