<svg height="511pt" viewBox="0 0 511 511.998" width="511pt" xmlns="http://www.w3.org/2000/svg" xmlns:xlink="http://www.w3.org/1999/xlink"><linearGradient id="a"><stop offset="0" stop-color="#ecf7ff"/><stop offset="1" stop-color="#c2e0ff"/></linearGradient><linearGradient id="b" gradientUnits="userSpaceOnUse" x1="139.133098825" x2="541.4062505002" xlink:href="#a" y1="40.1740470662" y2="644.8810425874"/><linearGradient id="c"><stop offset=".0029" stop-color="#c2e0ff" stop-opacity="0"/><stop offset=".0763" stop-color="#bfdcfd" stop-opacity=".07451"/><stop offset="1" stop-color="#9eb2e7"/></linearGradient><linearGradient id="d" gradientUnits="userSpaceOnUse" x1="467.0403267814" x2="129.8636862146" xlink:href="#c" y1="359.1935535566" y2="118.8300306676"/><linearGradient id="e" gradientUnits="userSpaceOnUse" x1="453.6665798584" x2="306.6988241592" xlink:href="#c" y1="639.7877447126" y2="492.8198886212"/><linearGradient id="f" gradientUnits="userSpaceOnUse" x1="240.8365213492" x2="240.8365213492" xlink:href="#a" y1="445.5077553506" y2="542.2548149608"/><linearGradient id="g"><stop offset="0" stop-color="#45425a"/><stop offset="1" stop-color="#2d3251"/></linearGradient><linearGradient id="h" gradientUnits="userSpaceOnUse" x1="219.6390094958" x2="283.9184284884" xlink:href="#g" y1="100.871070794" y2="100.871070794"/><linearGradient id="i" gradientTransform="matrix(-1.003922 0 0 1.003922 416.303235 0)" gradientUnits="userSpaceOnUse" x1="70.2871" x2="134.3155" xlink:href="#g" y1="100.477" y2="100.477"/><linearGradient id="j" gradientUnits="userSpaceOnUse" x1="143.4229579232" x2="241.2862784052" xlink:href="#g" y1="134.3700404822" y2="134.3700404822"/><linearGradient id="k" gradientUnits="userSpaceOnUse" x1="104.2666869806" x2="226.5569356056" xlink:href="#g" y1="220.3871817564" y2="220.3871817564"/><linearGradient id="l" gradientTransform="matrix(.95483 -.310011 .310011 .95483 -282.315544 73.549402)" gradientUnits="userSpaceOnUse" x1="325.3298" x2="409.4317" xlink:href="#g" y1="357.9684" y2="357.9684"/><linearGradient id="m" gradientTransform="matrix(-1.003922 0 0 1.003922 160.424609 0)" gradientUnits="userSpaceOnUse" x1="-260.5103" x2="-163.0292" xlink:href="#g" y1="133.8454" y2="133.8454"/><linearGradient id="n" gradientTransform="matrix(-1.003922 0 0 1.003922 160.424609 0)" gradientUnits="userSpaceOnUse" x1="-299.5136" x2="-177.701" xlink:href="#g" y1="219.5261" y2="219.5261"/><linearGradient id="o" gradientTransform="matrix(-.95483 -.310011 -.310011 .95483 442.415938 73.549402)" gradientUnits="userSpaceOnUse" x1="-58.6353" x2="25.4666" xlink:href="#g" y1="233.3046" y2="233.3046"/><linearGradient id="p" gradientUnits="userSpaceOnUse" x1="240.92827982" x2="323.9745147196" xlink:href="#g" y1="146.924486661" y2="146.924486661"/><linearGradient id="q" gradientUnits="userSpaceOnUse" x1="195.1306632786" x2="369.7720308688" xlink:href="#g" y1="228.1388650872" y2="228.1388650872"/><linearGradient id="r"><stop offset="0" stop-color="#ff6e3a"/><stop offset=".2085" stop-color="#ff6a3c"/><stop offset=".396" stop-color="#ff5f44"/><stop offset=".5755" stop-color="#ff4d50"/><stop offset=".7501" stop-color="#ff3361"/><stop offset=".9195" stop-color="#ff1278"/><stop offset="1" stop-color="#ff0084"/></linearGradient><radialGradient id="s" cx="314.3256" cy="153.5171" gradientTransform="matrix(1.002315 -.0567216 .0567216 1.002315 -35.180774 15.281795)" gradientUnits="userSpaceOnUse" r="199.4698" xlink:href="#r"/><radialGradient id="t" cx="428.8765" cy="159.9958" gradientTransform="matrix(-1.002315 -.0567216 -.0567216 1.002315 715.744026 15.281795)" gradientUnits="userSpaceOnUse" r="199.4698" xlink:href="#r"/><path d="m477.898438 511.945312h-390.417969c-18.175781 0-32.910157-14.734374-32.910157-32.914062v-446.121094c0-18.175781 14.734376-32.910156 32.910157-32.910156h390.417969c18.175781 0 32.910156 14.734375 32.910156 32.910156v446.121094c0 18.175781-14.734375 32.914062-32.910156 32.914062zm0 0" fill="url(#b)"/><path d="m510.746094 479.097656.105468-297.738281-95-95.984375c-4.566406-1.355469-9.371093 1.25-10.730468 5.816406l-8.066406 27.199219c-1.207032 4.070313-3.003907 7.898437-5.273438 11.402344-.449219-.136719-.914062-.230469-1.390625-.292969l-44.65625-44.683594c-.542969-4.242187-4.15625-7.527344-8.546875-7.527344h-6.253906c-16.648438-.007812-31.902344 8.386719-40.808594 22.453126l-3.699219 5.839843c-1.226562-.113281-2.464843-.179687-3.71875-.183593-.992187-.945313-2.019531-1.832032-3.078125-2.683594-2.226562-2.773438-4.722656-5.261719-7.445312-7.445313-9.105469-11.359375-22.785156-18.007812-37.582032-18.015625h-6.257812c-4.765625-.003906-8.628906 3.859375-8.632812 8.625 0 4.390625 3.28125 8.011719 7.523437 8.554688 0 0 22.902344 24.730468 23.527344 25.746094-4.484375 5.324218-7.671875 11.777343-9.03125 18.890624-7.578125 3.355469-14.699219 7.746094-21.230469 13.007813-.054688-.011719-.105469-.019531-.160156-.027344l-.402344-1.363281-59.136719-58.214844-.402343-1.363281c-1.351563-4.570313-6.148438-7.179687-10.722657-5.824219-4.570312 1.351563-7.179687 6.152344-5.828125 10.722656l8.054688 27.203126c3.421875 11.574218 10.207031 21.796874 19.292968 29.464843 2.257813 2.6875 4.753907 5.175781 7.445313 7.445313 2.257813 2.691406 4.75 5.175781 7.441406 7.449218 2.257813 2.6875 4.75 5.175782 7.441407 7.445313 1.117187 1.332031 2.296874 2.601563 3.523437 3.832031-5.324219 8.664063-9.546875 18.234375-12.421875 28.484375l-2.953125-1.425781c-23.453125-11.347656-50.855469-8.53125-71.511719 7.347656l-2.496094 1.917969c-3.777343 2.90625-4.488281 8.324219-1.582031 12.101563l50.386719 47.980468c.1875 1.464844.746094 2.898438 1.710938 4.152344.113281.148438.238281.285156.363281.425781-12.335938 12.246094-17.730469 30.296875-13.582031 47.644531l3.953124 16.515626c.851563 3.558593 3.800782 6.054687 7.222657 6.523437l.21875.925781 192.058593 160.511719 129.40625.042969c18.175782.011718 32.917969-14.71875 32.925782-32.898438zm0 0" fill="url(#d)"/><path d="m87.480469 511.945312h390.417969c18.175781 0 32.910156-14.734374 32.910156-32.914062v-34.019531l-62.621094-62.625c-6.023438-6.621094-14.707031-10.777344-24.359375-10.777344h-369.257813v107.421875c0 18.179688 14.734376 32.914062 32.910157 32.914062zm0 0" fill="url(#e)"/><path d="m423.828125 371.605469h-390.417969c-18.175781 0-32.910156 14.734375-32.910156 32.914062v43.382813c0 35.367187 28.671875 64.039062 64.042969 64.039062h416.628906c-13.492187 0-24.433594-10.9375-24.433594-24.433594v-82.988281c0-18.175781-14.734375-32.914062-32.910156-32.914062zm0 0" fill="url(#f)"/><path d="m275.296875 124.460938c-2.863281 0-5.660156-1.417969-7.300781-4.015626l-7.257813-11.46875c-5.71875-9.039062-15.515625-14.4375-26.214843-14.4375h-6.253907c-4.765625 0-8.628906-3.863281-8.628906-8.628906s3.863281-8.628906 8.628906-8.628906h6.253907c16.648437 0 31.898437 8.398438 40.800781 22.46875l7.253906 11.46875c2.550781 4.027344 1.351563 9.359375-2.675781 11.90625-1.433594.90625-3.027344 1.335938-4.605469 1.335938zm0 0" fill="url(#h)"/><path d="m290.082031 124.460938c-1.574219 0-3.171875-.429688-4.605469-1.335938-4.027343-2.550781-5.226562-7.878906-2.675781-11.90625l7.253907-11.472656c8.902343-14.066406 24.152343-22.464844 40.800781-22.464844h6.253906c4.765625 0 8.632813 3.863281 8.632813 8.628906s-3.867188 8.628906-8.632813 8.628906h-6.253906c-10.695313 0-20.496094 5.394532-26.214844 14.4375l-7.257813 11.46875c-1.640624 2.59375-4.4375 4.015626-7.300781 4.015626zm0 0" fill="url(#i)"/><path d="m232.648438 183.761719c-1.265626 0-2.550782-.28125-3.765626-.871094l-45.066406-21.910156c-15.445312-7.503907-27.097656-21.253907-31.976562-37.714844l-8.058594-27.199219c-1.355469-4.570312 1.253906-9.371094 5.820312-10.726562 4.574219-1.355469 9.371094 1.253906 10.726563 5.820312l8.058594 27.203125c3.503906 11.828125 11.878906 21.703125 22.972656 27.097657l45.066406 21.90625c4.289063 2.085937 6.074219 7.246093 3.988281 11.535156-1.492187 3.070312-4.566406 4.859375-7.765624 4.859375zm0 0" fill="url(#j)"/><path d="m217.917969 241.703125c-1.257813 0-2.539063-.277344-3.746094-.863281l-40.042969-19.351563c-17.542968-8.476562-38.035156-6.367187-53.476562 5.515625l-2.492188 1.917969c-3.777344 2.90625-9.199218 2.199219-12.101562-1.578125-2.90625-3.777344-2.199219-9.195312 1.574218-12.101562l2.496094-1.917969c20.648438-15.886719 48.050782-18.714844 71.511719-7.371094l40.039063 19.351563c4.292968 2.074218 6.089843 7.234374 4.015624 11.523437-1.488281 3.082031-4.570312 4.875-7.777343 4.875zm0 0" fill="url(#k)"/><path d="m157.308594 350.667969c-3.898438 0-7.433594-2.664063-8.382813-6.621094l-3.957031-16.511719c-4.96875-20.746094 3.703125-42.5 21.582031-54.132812l30.335938-19.742188c3.992187-2.601562 9.339843-1.472656 11.9375 2.523438 2.601562 3.996094 1.46875 9.339844-2.523438 11.941406l-30.335937 19.742188c-11.773438 7.660156-17.484375 21.984374-14.210938 35.644531l3.957032 16.511719c1.109374 4.636718-1.75 9.292968-6.382813 10.40625-.675781.160156-1.351563.238281-2.019531.238281zm0 0" fill="url(#l)"/><path d="m332.730469 183.761719c-3.199219 0-6.273438-1.789063-7.765625-4.859375-2.085938-4.289063-.300782-9.453125 3.988281-11.535156l45.066406-21.90625c11.09375-5.394532 19.46875-15.269532 22.972657-27.097657l8.058593-27.203125c1.355469-4.570312 6.160157-7.175781 10.726563-5.820312 4.566406 1.351562 7.175781 6.15625 5.820312 10.722656l-8.058594 27.203125c-4.878906 16.460937-16.53125 30.207031-31.976562 37.714844l-45.066406 21.910156c-1.214844.589844-2.5.871094-3.765625.871094zm0 0" fill="url(#m)"/><path d="m347.460938 241.703125c-3.207032 0-6.289063-1.796875-7.777344-4.875-2.074219-4.292969-.277344-9.453125 4.015625-11.527344l40.039062-19.351562c23.460938-11.339844 50.863281-8.511719 71.511719 7.371093l2.496094 1.921876c3.777344 2.902343 4.484375 8.320312 1.578125 12.101562-2.90625 3.777344-8.324219 4.484375-12.101563 1.574219l-2.496094-1.917969c-15.441406-11.878906-35.933593-13.988281-53.476562-5.511719l-40.039062 19.351563c-1.210938.585937-2.492188.863281-3.75.863281zm0 0" fill="url(#n)"/><path d="m408.070312 350.667969c-.667968 0-1.34375-.078125-2.019531-.238281-4.632812-1.113282-7.492187-5.769532-6.378906-10.40625l3.953125-16.511719c3.273438-13.660157-2.4375-27.984375-14.207031-35.644531l-30.339844-19.742188c-3.992187-2.601562-5.125-7.945312-2.523437-11.941406 2.601562-3.992188 7.945312-5.125 11.9375-2.523438l30.335937 19.742188c17.878906 11.632812 26.550781 33.386718 21.582031 54.132812l-3.957031 16.511719c-.949219 3.957031-4.484375 6.621094-8.382813 6.621094zm0 0" fill="url(#o)"/><path d="m323.972656 146.925781c0 22.933594-18.589844 41.523438-41.519531 41.523438-22.933594 0-41.523437-18.589844-41.523437-41.523438 0-22.933593 18.589843-41.523437 41.523437-41.523437 22.929687 0 41.519531 18.589844 41.519531 41.523437zm0 0" fill="url(#p)"/><path d="m369.773438 228.140625c0-53.285156-39.097657-96.480469-87.320313-96.480469-48.226563 0-87.324219 43.195313-87.324219 96.480469 0 53.28125 39.097656 96.476563 87.324219 96.476563 48.222656 0 87.320313-43.195313 87.320313-96.476563zm0 0" fill="url(#q)"/><path d="m282.6875 131.546875 9.390625 165.988281c1.609375 28.511719 35.359375 43.011719 56.878906 24.234375 23.652344-20.640625 38.023438-53.355469 35.988281-89.328125-3.324218-58.726562-49.101562-103.898437-102.257812-100.894531zm0 0" fill="url(#s)"/><path d="m282.6875 131.546875-9.386719 165.988281c-1.613281 28.511719-35.359375 43.011719-56.878906 24.234375-23.652344-20.640625-38.023437-53.355469-35.988281-89.328125 3.320312-58.726562 49.105468-103.898437 102.253906-100.894531zm0 0" fill="url(#t)"/></svg>