<?xml version="1.0" encoding="iso-8859-1"?>
<!-- Generator: Adobe Illustrator 19.0.0, SVG Export Plug-In . SVG Version: 6.00 Build 0)  -->
<svg version="1.1" id="Capa_1" xmlns="http://www.w3.org/2000/svg" xmlns:xlink="http://www.w3.org/1999/xlink" x="0px" y="0px"
	 viewBox="0 0 469.334 469.334" style="enable-background:new 0 0 469.334 469.334;" xml:space="preserve">
<path style="fill:#BC1D37;" d="M0.001,409.365c0-12.111,9.177-22.251,21.227-23.456l367.018-36.702
	c21.811-2.181,38.421-20.535,38.421-42.455V42.671c0-23.564-19.103-42.667-42.667-42.667c-1.418,0-2.835,0.071-4.246,0.212
	L21.228,36.069C9.177,37.274,0.001,47.414,0.001,59.525L0.001,409.365z"/>
<path style="fill:#FF4957;" d="M384.069,0c-1.425,0-2.863,0.072-4.314,0.216l-2.529,0.253l-0.007,0.001l-0.356,0.036l-0.013,0.001
	l-0.334,0.033l-0.066,0.007l-1.771,0.177l-0.023,0.002c-0.323,0.032-0.655,0.065-1.006,0.101l-0.019,0.002L372.82,0.91l-0.045,0.004
	l-0.012,0.001l-0.117,0.012l-0.03,0.003l-0.184,0.018l-0.095,0.01l-0.046,0.005l-0.047,0.005l-0.047,0.005l-0.031,0.003
	l-0.036,0.004l-0.037,0.004l-0.284,0.028l-0.139,0.014l-0.051,0.005l-0.002,0l-0.138,0.014l-0.047,0.005l-0.104,0.01l-0.053,0.005
	l-0.126,0.013l-0.001,0l-0.453,0.045l-0.066,0.007l-0.005,0.001l-0.152,0.015l-0.019,0.002l-0.23,0.023l-0.008,0.001l-0.409,0.041
	l-0.095,0.01l-0.15,0.015l-0.024,0.002L86.829,29.508c-5.86,0.609-10.116,5.853-9.508,11.712c0.564,5.43,5.137,9.558,10.597,9.565
	c0.355,0,0.714-0.018,1.074-0.054l292.885-29.288c0.736-0.074,1.467-0.111,2.191-0.11c11.759,0.033,21.272,9.579,21.265,21.337
	v28.874c0,5.891,4.776,10.667,10.667,10.667c5.891,0,10.667-4.776,10.667-10.667V42.671C426.666,19.133,407.606,0.041,384.069,0
	L384.069,0z"/>
<path style="fill:#19E77C;" d="M382.154,40.384L83.848,68.326c-11.267,1.128-19.847,10.609-19.848,21.932v209.01
	c0,11.782,9.551,21.333,21.333,21.333c0.686,0,1.371-0.033,2.054-0.099l298.602-27.586c10.97-1.013,19.365-10.214,19.371-21.231
	l0.117-210.136c-0.042-11.783-9.628-21.3-21.411-21.258C383.428,40.294,382.79,40.325,382.154,40.384z"/>
<path style="fill:#6DF0AC;" d="M384.174,40.29c-0.667,0-1.341,0.032-2.02,0.095L86.803,68.049
	c-5.866,0.549-10.175,5.75-9.626,11.615c0.513,5.477,5.107,9.666,10.608,9.672c0.333,0,0.669-0.016,1.007-0.047l295.349-27.664
	l0.033-0.002c5.947-0.4,10.585-5.307,10.65-11.267c0.065-4.898-3.446-9.114-8.275-9.934C385.76,40.334,384.968,40.29,384.174,40.29
	L384.174,40.29z"/>
<path style="fill:#D7E816;" d="M379.754,81.518L21.228,117.37c-12.051,1.206-21.228,11.346-21.228,23.457v248.915l388.246-40.536
	c21.811-2.181,38.421-20.535,38.421-42.454V123.973c0-23.564-19.102-42.666-42.666-42.666
	C382.583,81.306,381.166,81.377,379.754,81.518L379.754,81.518z"/>
<path style="fill:#EBD5FF;" d="M234.667,405.333l94.192-203.991c7.495-16.232,4.075-35.414-8.567-48.056L192.594,25.586
	c-16.662-16.662-43.677-16.662-60.34,0c-3.557,3.557-6.458,7.716-8.567,12.283l-81.02,175.463L234.667,405.333z"/>
<path style="fill:#E1C0F6;" d="M204.497,51.503c-11.782-11.781-30.883-11.781-42.665,0L79.27,134.064l-36.603,79.27l16.829,16.829
	c6.194-0.91,12.233-3.227,17-7.993l128.001-128c11.781-11.782,11.781-30.884,0-42.667L204.497,51.503z"/>
<path style="fill:#F6EDFF;" d="M42.667,213.333L243.504,12.497c16.662-16.662,43.677-16.662,60.34,0c0,0,0,0,0,0l131.66,131.66
	c16.662,16.662,16.662,43.677,0,60.34L234.667,405.333L42.667,213.333z"/>
<path style="fill:#00BC6E;" d="M375.165,140.496l-67.661-67.66c-16.661,16.662-43.675,16.663-60.337,0.002
	c-0.001-0.001-0.001-0.001-0.002-0.002L74.667,245.333l26.288,26.288c20.819-20.836,54.588-20.85,75.424-0.031
	s20.85,54.588,0.031,75.424c-0.01,0.01-0.021,0.021-0.031,0.031l26.288,26.288l172.497-172.497
	c-16.662-16.662-16.663-43.676-0.001-60.339C375.164,140.497,375.164,140.496,375.165,140.496L375.165,140.496z"/>
<path style="fill:#FF4957;" d="M469.334,426.663c0,23.564-19.103,42.667-42.667,42.667c-1.284,0-2.566-0.058-3.845-0.174
	L21.228,432.821c-12.051-1.205-21.227-11.345-21.227-23.456V59.525c0,12.111,9.177,22.251,21.227,23.456l409.284,37.031
	c21.985,1.989,38.822,20.419,38.822,42.493L469.334,426.663z"/>
<circle style="fill:#E62939;" cx="394.667" cy="309.337" r="53.33"/>
<path style="fill:#FF7983;" d="M31.989,85.333c-5.891,0.007-10.661,4.788-10.654,10.68c0.006,5.514,4.214,10.114,9.706,10.611
	l397.549,34.635c11.016,0.946,19.461,10.19,19.411,21.247V416c0,5.891,4.776,10.667,10.667,10.667
	c5.891,0,10.667-4.776,10.667-10.667V162.505c0-22.074-16.838-40.504-38.822-42.493L32.962,85.377
	C32.635,85.348,32.311,85.333,31.989,85.333L31.989,85.333z"/>
<circle style="fill:#F6EDFF;" cx="373.337" cy="287.997" r="53.33"/>
<circle style="fill:#FBF7FF;" cx="362.667" cy="277.337" r="21.333"/>
<path style="fill:#E6CCFF;" d="M411.046,325.712c20.828-20.828,20.828-54.597,0-75.425l-0.063-0.063l-0.021-0.021l-0.043-0.043
	l-0.026-0.025l-0.038-0.038l-0.026-0.026l-0.038-0.037l-0.027-0.027l-0.037-0.036l-0.027-0.027
	c-0.013-0.012-0.025-0.024-0.037-0.036l-0.028-0.027c-0.012-0.012-0.023-0.023-0.036-0.035l-0.028-0.028
	c-0.012-0.011-0.024-0.023-0.036-0.035l-0.03-0.029l-0.035-0.034l-0.029-0.028c-0.012-0.011-0.024-0.024-0.036-0.035l-0.029-0.028
	l-0.037-0.035l-0.027-0.026l-0.039-0.038l-0.026-0.024c-0.016-0.016-0.031-0.03-0.047-0.046l-0.016-0.016l-0.064-0.061l-0.021-0.02
	c-0.014-0.014-0.029-0.028-0.044-0.042l-0.026-0.025l-0.038-0.035l-0.03-0.03c-0.012-0.011-0.023-0.022-0.035-0.033l-0.029-0.027
	c-0.012-0.011-0.024-0.022-0.036-0.034l-0.029-0.027l-0.037-0.034l-0.029-0.027l-0.035-0.033l-0.031-0.029l-0.035-0.033
	l-0.029-0.027l-0.036-0.033l-0.029-0.028l-0.036-0.034l-0.029-0.027l-0.034-0.031l-0.033-0.03l-0.032-0.029l-0.033-0.031
	l-0.035-0.033l-0.03-0.027l-0.064-0.059l-0.022-0.02l-0.043-0.04l-0.029-0.026c-0.012-0.011-0.024-0.023-0.037-0.033l-0.029-0.026
	l-0.037-0.034l-0.03-0.026l-0.035-0.032c-0.011-0.009-0.023-0.02-0.033-0.029l-0.032-0.029l-0.034-0.031l-0.032-0.029l-0.033-0.029
	l-0.033-0.03l-0.034-0.03l-0.032-0.028l-0.035-0.031l-0.031-0.027l-0.035-0.031l-0.032-0.029c-0.011-0.009-0.022-0.02-0.033-0.029
	l-0.036-0.031l-0.031-0.027l-0.036-0.031l-0.03-0.027l-0.036-0.032c-0.019-0.016-0.039-0.035-0.058-0.051l-0.037-0.032l-0.029-0.025
	l-0.038-0.033l-0.03-0.026l-0.037-0.032l-0.031-0.027l-0.035-0.03l-0.031-0.028l-0.036-0.031l-0.032-0.027l-0.034-0.029
	c-0.012-0.01-0.022-0.019-0.034-0.029l-0.033-0.027l-0.035-0.03l-0.031-0.027l-0.036-0.03l-0.033-0.027l-0.034-0.029l-0.033-0.028
	l-0.034-0.029l-0.035-0.03l-0.032-0.027l-0.038-0.031l-0.03-0.025l-0.048-0.04l-0.019-0.016l-0.066-0.055l-0.028-0.023l-0.04-0.033
	l-0.029-0.025c-0.013-0.01-0.026-0.021-0.038-0.031c-0.01-0.008-0.023-0.018-0.032-0.026c-0.012-0.009-0.024-0.02-0.036-0.03
	l-0.032-0.026l-0.036-0.029l-0.034-0.027l-0.034-0.028l-0.033-0.027l-0.036-0.029l-0.033-0.026l-0.036-0.03l-0.031-0.025
	l-0.037-0.03l-0.032-0.026l-0.035-0.029l-0.033-0.027l-0.033-0.026l-0.036-0.029l-0.033-0.026l-0.035-0.027
	c-0.013-0.011-0.027-0.022-0.04-0.032l-0.029-0.022c-0.022-0.018-0.044-0.036-0.067-0.054l-0.03-0.023l-0.038-0.03l-0.034-0.027
	c-0.012-0.009-0.023-0.018-0.035-0.028l-0.033-0.026l-0.035-0.028l-0.034-0.026l-0.035-0.028l-0.034-0.026l-0.034-0.027
	l-0.035-0.027l-0.035-0.027l-0.033-0.026l-0.037-0.029l-0.031-0.025c-0.013-0.01-0.026-0.02-0.039-0.03l-0.031-0.024
	c-0.012-0.01-0.024-0.019-0.036-0.028l-0.034-0.027l-0.034-0.026l-0.035-0.027l-0.035-0.027l-0.034-0.026l-0.037-0.028l-0.033-0.025
	l-0.028-0.021l-0.079-0.059l-0.03-0.023l-0.033-0.025l-0.037-0.028l-0.034-0.026l-0.035-0.026l-0.036-0.027l-0.034-0.025
	l-0.036-0.027l-0.035-0.025l-0.034-0.026l-0.035-0.026l-0.036-0.027l-0.033-0.025l-0.036-0.027l-0.034-0.025l-0.036-0.027
	l-0.035-0.026l-0.033-0.024l-0.039-0.028l-0.032-0.024c-0.013-0.009-0.025-0.018-0.037-0.027l-0.033-0.024l-0.034-0.025
	l-0.037-0.026l-0.033-0.024c-0.048-0.035-0.099-0.072-0.147-0.107l-0.027-0.019l-0.043-0.031l-0.026-0.019l-0.042-0.03l-0.03-0.021
	l-0.039-0.028l-0.031-0.022l-0.039-0.028l-0.032-0.023l-0.039-0.028l-0.03-0.021l-0.041-0.029l-0.03-0.022l-0.04-0.028l-0.03-0.021
	l-0.04-0.028l-0.032-0.022l-0.039-0.027l-0.031-0.022l-0.039-0.027l-0.031-0.022l-0.04-0.027l-0.025-0.018
	c-0.053-0.036-0.108-0.075-0.161-0.111l-0.023-0.016c-0.016-0.011-0.028-0.02-0.044-0.03l-0.027-0.018l-0.042-0.029l-0.029-0.02
	l-0.04-0.027l-0.031-0.021l-0.039-0.027l-0.032-0.021l-0.041-0.028l-0.03-0.02l-0.04-0.027l-0.031-0.021l-0.041-0.027l-0.032-0.021
	l-0.039-0.026l-0.032-0.022l-0.041-0.027l-0.03-0.02c-0.014-0.01-0.026-0.018-0.041-0.027l-0.031-0.021l-0.04-0.027l-0.03-0.02
	l-0.041-0.027l-0.015-0.01c-0.036-0.024-0.068-0.045-0.104-0.069l-0.021-0.014l-0.047-0.031l-0.024-0.016l-0.044-0.029l-0.029-0.019
	l-0.043-0.028l-0.028-0.018l-0.044-0.029l-0.028-0.018l-0.044-0.028l-0.028-0.018c-0.014-0.01-0.029-0.019-0.043-0.028l-0.029-0.019
	c-0.014-0.01-0.029-0.019-0.044-0.028l-0.026-0.017l-0.046-0.03l-0.025-0.016l-0.047-0.029l-0.024-0.016
	c-0.016-0.01-0.032-0.02-0.048-0.03l-0.024-0.015l-0.049-0.031l-0.014-0.009c-0.083-0.053-0.169-0.106-0.252-0.158l-0.017-0.011
	l-0.052-0.032l-0.021-0.012c-0.016-0.01-0.034-0.021-0.051-0.031l-0.022-0.014l-0.047-0.029l-0.026-0.016l-0.047-0.029l-0.024-0.015
	c-0.016-0.01-0.032-0.019-0.048-0.029l-0.025-0.015c-0.016-0.01-0.032-0.02-0.049-0.03l-0.023-0.014l-0.049-0.03l-0.024-0.015
	l-0.049-0.03l-0.021-0.013l-0.052-0.031l-0.018-0.01l-0.057-0.035l-0.002-0.001c-0.114-0.068-0.224-0.133-0.337-0.201l-0.019-0.011
	c-0.016-0.01-0.035-0.021-0.052-0.031l-0.02-0.012l-0.052-0.03l-0.022-0.012c-0.016-0.01-0.035-0.021-0.051-0.03l-0.021-0.012
	l-0.052-0.03l-0.021-0.013c-0.018-0.01-0.034-0.019-0.052-0.03l-0.021-0.012c-0.017-0.009-0.037-0.021-0.053-0.031l-0.019-0.011
	l-0.054-0.031l-0.018-0.01c-0.018-0.01-0.037-0.021-0.055-0.031l-0.017-0.01l-0.056-0.032l-0.009-0.005
	c-0.137-0.078-0.277-0.157-0.415-0.234l-0.009-0.006l-0.059-0.033l-0.015-0.008c-0.019-0.011-0.038-0.022-0.058-0.032l-0.015-0.009
	c-0.019-0.011-0.037-0.021-0.057-0.031l-0.016-0.009l-0.058-0.032l-0.014-0.008l-0.058-0.033l-0.014-0.008l-0.061-0.033l-0.01-0.006
	l-0.063-0.034l-0.009-0.005c-0.022-0.012-0.043-0.024-0.066-0.035l-0.001-0.001c-0.167-0.091-0.333-0.18-0.5-0.268l-0.007-0.004
	c-0.021-0.012-0.042-0.023-0.063-0.034l-0.011-0.005l-0.059-0.031l-0.017-0.009l-0.059-0.031l-0.012-0.007l-0.063-0.032l-0.01-0.006
	l-0.064-0.033l-0.007-0.004l-0.067-0.034l-0.006-0.003c-0.29-0.15-0.58-0.297-0.872-0.441l-0.002-0.001
	c-1.645-0.813-3.332-1.541-5.053-2.179c-5.53-2.032-11.659,0.804-13.691,6.334c-2.026,5.513,0.787,11.627,6.292,13.676
	c4.303,1.599,8.208,4.113,11.445,7.369c12.477,12.505,12.477,32.75,0,45.255c-12.528,12.497-32.815,12.471-45.312-0.057
	c-2.345-2.35-4.31-5.051-5.825-8.005c-2.68-5.246-9.106-7.326-14.352-4.646c-5.237,2.676-7.321,9.086-4.657,14.33
	c0.144,0.281,0.29,0.561,0.439,0.841l0.002,0.003l0.037,0.069l0.001,0.001c0.025,0.047,0.051,0.095,0.076,0.141l0.005,0.01
	l0.03,0.055l0.011,0.02l0.027,0.05l0.01,0.018c0.012,0.021,0.024,0.043,0.035,0.064l0.009,0.016l0.027,0.048l0.013,0.025l0.022,0.04
	l0.016,0.029l0.02,0.036l0.028,0.051l0.019,0.035l0.02,0.036l0.016,0.027c0.007,0.013,0.014,0.026,0.022,0.039l0.011,0.019
	l0.08,0.143l0.009,0.017l0.026,0.046l0.007,0.012c0.04,0.073,0.082,0.144,0.123,0.216v0.001c1.498,2.631,3.218,5.129,5.141,7.467
	l0.002,0.003c0.056,0.067,0.111,0.134,0.167,0.202l0,0l0.04,0.049l0.004,0.005c0.054,0.064,0.108,0.129,0.162,0.193l0.009,0.01
	l0.037,0.044l0.006,0.007c0.038,0.046,0.076,0.091,0.115,0.136l0.012,0.014c0.011,0.013,0.022,0.027,0.034,0.04l0.013,0.015
	c0.011,0.013,0.022,0.027,0.033,0.04l0.009,0.009c0.024,0.029,0.049,0.057,0.073,0.086l0.006,0.007l0.035,0.04l0.014,0.017
	c0.011,0.012,0.022,0.025,0.033,0.037l0.015,0.018l0.107,0.124l0.016,0.019l0.031,0.035l0.018,0.021
	c0.011,0.012,0.021,0.024,0.031,0.036l0.011,0.012c0.021,0.025,0.043,0.049,0.065,0.074l0.016,0.019l0.03,0.034l0.02,0.022
	l0.031,0.036l0.017,0.018c0.019,0.021,0.037,0.043,0.056,0.063l0.02,0.022l0.026,0.029l0.026,0.029l0.025,0.029l0.024,0.027
	l0.028,0.03l0.023,0.026c0.016,0.018,0.032,0.036,0.048,0.055c0.008,0.008,0.017,0.019,0.024,0.027l0.028,0.03l0.023,0.026
	l0.028,0.031l0.023,0.026c0.014,0.015,0.028,0.031,0.042,0.047l0.032,0.035l0.024,0.027l0.026,0.029l0.026,0.029l0.026,0.029
	l0.026,0.027l0.034,0.038l0.029,0.031l0.037,0.039l0.021,0.023l0.033,0.036l0.02,0.022l0.037,0.04l0.015,0.016l0.05,0.055
	l0.019,0.02l0.035,0.037l0.021,0.023l0.033,0.035l0.02,0.022l0.043,0.046l0.021,0.023l0.039,0.042l0.023,0.024l0.031,0.033
	l0.022,0.024c0.011,0.012,0.025,0.026,0.036,0.038l0.018,0.019l0.051,0.055l0.016,0.017c0.013,0.013,0.025,0.026,0.037,0.039
	l0.021,0.022l0.035,0.037l0.019,0.02c0.016,0.017,0.035,0.037,0.051,0.053l0.006,0.007c0.016,0.016,0.034,0.035,0.05,0.052
	l0.016,0.017l0.039,0.04l0.019,0.019l0.041,0.043l0.013,0.013c0.017,0.018,0.035,0.037,0.053,0.055l0.016,0.017l0.04,0.041
	l0.018,0.019l0.037,0.038l0.019,0.019l0.053,0.055l0.003,0.003l0.053,0.054l0.017,0.017c0.012,0.013,0.026,0.027,0.038,0.039
	l0.018,0.019l0.04,0.04l0.016,0.016c0.017,0.018,0.037,0.038,0.054,0.055l0.011,0.011c0.015,0.015,0.029,0.029,0.043,0.044
	l0.019,0.019l0.039,0.039l0.018,0.018l0.055,0.055C356.45,346.54,390.218,346.54,411.046,325.712L411.046,325.712z"/>
<circle style="fill:#19E77C;" cx="138.667" cy="351.997" r="117.33"/>
<path style="fill:#E62939;" d="M270.963,288.988c-11.791,0.008-21.343,9.573-21.335,21.364c0.001,2.164,0.332,4.315,0.98,6.38
	c2.662,8.465,4.352,17.206,5.036,26.053l0.001,0.003c0.007,0.092,0.014,0.183,0.021,0.275l0.001,0.005
	c0.007,0.091,0.014,0.181,0.02,0.272l0.001,0.013c0.005,0.057,0.008,0.116,0.012,0.173l0.001,0.005
	c0.002,0.029,0.004,0.06,0.007,0.089l0.001,0.012l0.012,0.167l0.001,0.015l0.006,0.087l0.001,0.012
	c0.003,0.054,0.007,0.107,0.01,0.161l0.002,0.025l0.005,0.082l0.001,0.016l0.01,0.151l0.002,0.035l0.005,0.075l0.002,0.035
	c0.003,0.045,0.006,0.09,0.008,0.135l0.003,0.037c0.001,0.025,0.003,0.051,0.005,0.076l0.002,0.034l0.008,0.132l0.003,0.042
	c0.001,0.024,0.003,0.049,0.005,0.074l0.002,0.036c0.003,0.042,0.005,0.083,0.007,0.125l0.003,0.053l0.003,0.066l0.006,0.098
	l0.003,0.064l0.003,0.057l0.003,0.063c0.002,0.031,0.004,0.069,0.005,0.1c0.001,0.02,0.003,0.041,0.003,0.061l0.003,0.064
	l0.003,0.057c0.002,0.035,0.003,0.069,0.005,0.104l0.003,0.055l0.004,0.07c0.001,0.018,0.001,0.035,0.003,0.052
	c0.001,0.035,0.003,0.07,0.005,0.105l0.003,0.056l0.003,0.072l0.002,0.05c0.002,0.035,0.004,0.072,0.005,0.108l0.003,0.052
	l0.003,0.078l0.002,0.045c0.002,0.035,0.003,0.074,0.005,0.109l0.002,0.052c0.001,0.024,0.002,0.053,0.003,0.077l0.003,0.059
	l0.004,0.096l0.002,0.053l0.003,0.079l0.003,0.058c0.001,0.027,0.003,0.066,0.003,0.094l0.002,0.052
	c0.001,0.027,0.003,0.061,0.003,0.088l0.002,0.051l0.004,0.094l0.002,0.051c0.001,0.031,0.002,0.065,0.003,0.096l0.001,0.04
	c0.001,0.031,0.003,0.067,0.003,0.099l0.002,0.047l0.003,0.113l0.001,0.024l0.004,0.103l0.001,0.044
	c0.001,0.039,0.002,0.077,0.003,0.116l0.001,0.03c0.001,0.031,0.002,0.064,0.003,0.095l0.001,0.043
	c0.001,0.039,0.002,0.079,0.003,0.118l0.001,0.026l0.003,0.101l0.001,0.039c0.001,0.043,0.002,0.077,0.003,0.121l0.001,0.024
	c0.001,0.031,0.002,0.071,0.003,0.102l0.001,0.038c0.001,0.039,0.002,0.081,0.003,0.12l0.001,0.027l0.002,0.1l0.001,0.039
	l0.002,0.118l0.001,0.034l0.002,0.096l0.001,0.037c0.001,0.039,0.002,0.081,0.003,0.12l0.001,0.032
	c0.001,0.031,0.001,0.071,0.001,0.102l0.001,0.03l0.002,0.123l0.001,0.03c0.001,0.035,0.001,0.068,0.001,0.104l0.001,0.03
	l0.002,0.123v0.03c0.001,0.035,0.001,0.071,0.001,0.107l0.001,0.027c0.001,0.043,0.001,0.08,0.001,0.123l0.001,0.032
	c0,0.036,0.001,0.07,0.001,0.106l0.001,0.025c0,0.043,0.001,0.081,0.001,0.124l0.001,0.031c0,0.036,0.001,0.077,0.001,0.112v0.018
	c0.001,0.04,0.001,0.087,0.001,0.127v0.029c0,0.036,0.001,0.079,0.001,0.115v0.016c0,0.04,0,0.086,0.001,0.125v0.161
	c0.001,0.043,0.001,0.083,0.001,0.126V352v0.16c0,0.043,0,0.085-0.001,0.128v0.162c-0.001,0.04-0.001,0.085-0.001,0.124v0.022
	c-0.001,0.04-0.001,0.071-0.001,0.11v0.031c-0.001,0.043-0.001,0.082-0.001,0.125v0.024c0,0.036-0.001,0.073-0.001,0.108
	l-0.001,0.03c0,0.043-0.001,0.081-0.001,0.125l-0.001,0.028c0,0.036-0.001,0.072-0.001,0.108v0.026
	c-0.001,0.039-0.001,0.086-0.001,0.126l-0.001,0.027c0,0.035-0.001,0.075-0.001,0.11v0.025l-0.002,0.125l-0.001,0.031
	c-0.001,0.039-0.001,0.07-0.001,0.11l-0.001,0.021l-0.002,0.125l-0.001,0.032l-0.002,0.11v0.021
	c-0.001,0.039-0.002,0.083-0.003,0.123l-0.001,0.037l-0.002,0.112l-0.001,0.015c-0.001,0.039-0.002,0.084-0.003,0.123l-0.001,0.037
	c-0.001,0.043-0.002,0.081-0.003,0.124l-0.001,0.01c-0.001,0.039-0.002,0.078-0.003,0.118l-0.001,0.035
	c-0.001,0.039-0.003,0.087-0.003,0.126v0.01c-0.001,0.039-0.003,0.078-0.003,0.118l-0.001,0.033l-0.004,0.124l-0.001,0.021
	c-0.001,0.035-0.002,0.072-0.003,0.107l-0.001,0.036l-0.003,0.121l-0.001,0.028c-0.001,0.035-0.002,0.068-0.003,0.103l-0.001,0.032
	l-0.004,0.123l-0.001,0.029c-0.001,0.031-0.002,0.071-0.003,0.102l-0.001,0.033l-0.004,0.121l-0.001,0.033l-0.003,0.098
	l-0.001,0.034c-0.001,0.043-0.003,0.077-0.005,0.12l-0.001,0.033l-0.004,0.104l-0.001,0.027c-0.002,0.039-0.003,0.082-0.005,0.121
	l-0.001,0.036l-0.004,0.105l-0.001,0.023c-0.001,0.039-0.003,0.082-0.005,0.121l-0.001,0.037c-0.002,0.039-0.003,0.076-0.005,0.115
	l-0.001,0.014c-0.001,0.043-0.003,0.08-0.005,0.124l-0.001,0.032l-0.006,0.125l-0.001,0.011c-0.001,0.039-0.003,0.078-0.005,0.117
	l-0.001,0.032l-0.006,0.124l-0.001,0.022l-0.005,0.11l-0.001,0.029c-0.003,0.043-0.005,0.083-0.007,0.126l-0.001,0.019
	c-0.002,0.039-0.003,0.073-0.006,0.112l-0.001,0.028c-0.002,0.043-0.004,0.08-0.007,0.123l-0.001,0.03l-0.006,0.102l-0.001,0.032
	c-0.003,0.039-0.005,0.081-0.007,0.12l-0.002,0.035l-0.006,0.097l-0.002,0.033c-0.002,0.039-0.004,0.077-0.007,0.116l-0.003,0.044
	c-0.001,0.027-0.003,0.061-0.005,0.089l-0.002,0.037c-0.002,0.035-0.005,0.081-0.007,0.116l-0.003,0.042l-0.005,0.093l-0.003,0.032
	c-0.002,0.039-0.005,0.077-0.007,0.116c-0.001,0.013-0.001,0.029-0.003,0.042l-0.006,0.098l-0.002,0.032l-0.007,0.11l-0.003,0.045
	c-0.002,0.035-0.005,0.068-0.007,0.103l-0.003,0.035l-0.007,0.099l-0.003,0.048c-0.003,0.035-0.005,0.07-0.007,0.105l-0.003,0.039
	c-0.003,0.031-0.005,0.063-0.007,0.094l-0.003,0.045l-0.008,0.112l-0.003,0.041l-0.006,0.084l-0.003,0.046l-0.008,0.113
	l-0.003,0.039l-0.007,0.087l-0.003,0.044l-0.009,0.114l-0.003,0.038l-0.007,0.085l-0.004,0.047c-0.003,0.039-0.005,0.07-0.008,0.109
	l-0.003,0.047c-0.003,0.027-0.005,0.054-0.007,0.082l-0.004,0.045l-0.008,0.11l-0.004,0.047c-0.003,0.027-0.005,0.055-0.007,0.082
	l-0.003,0.041c-0.003,0.035-0.006,0.076-0.009,0.111l-0.004,0.047l-0.007,0.084l-0.004,0.05l-0.009,0.101l-0.004,0.05l-0.007,0.08
	l-0.005,0.061l-0.008,0.091l-0.005,0.046l-0.008,0.098l-0.004,0.046c-0.003,0.031-0.006,0.06-0.008,0.091l-0.005,0.048l-0.009,0.102
	l-0.005,0.046c-0.003,0.031-0.005,0.056-0.008,0.087l-0.004,0.044c-0.004,0.039-0.007,0.075-0.01,0.113l-0.004,0.037
	c-0.003,0.031-0.005,0.057-0.008,0.088l-0.004,0.044c-0.003,0.035-0.007,0.076-0.011,0.111l-0.004,0.043l-0.008,0.082l-0.005,0.044
	l-0.011,0.11l-0.005,0.045c-0.003,0.031-0.005,0.053-0.008,0.084l-0.004,0.042l-0.011,0.113l-0.005,0.042
	c-0.003,0.027-0.006,0.059-0.009,0.086l-0.004,0.039c-0.003,0.035-0.008,0.077-0.011,0.111l-0.005,0.046l-0.008,0.083l-0.005,0.042
	c-0.004,0.035-0.008,0.073-0.011,0.107l-0.006,0.051c-0.003,0.027-0.006,0.059-0.009,0.086l-0.004,0.035
	c-0.004,0.038-0.008,0.072-0.012,0.11l-0.005,0.047l-0.01,0.09l-0.006,0.052l-0.01,0.09l-0.006,0.052l-0.01,0.089
	c-0.003,0.019-0.005,0.04-0.007,0.059l-0.009,0.078l-0.006,0.054l-0.01,0.089l-0.008,0.066l-0.008,0.069
	c-0.003,0.021-0.005,0.037-0.007,0.058c-0.005,0.034-0.008,0.069-0.012,0.103l-0.006,0.048l-0.008,0.073
	c-0.002,0.018-0.004,0.035-0.007,0.053c-0.004,0.035-0.008,0.069-0.012,0.104l-0.006,0.052l-0.008,0.07l-0.007,0.055
	c-0.005,0.034-0.008,0.069-0.013,0.103l-0.006,0.052c-0.003,0.023-0.006,0.046-0.008,0.069l-0.007,0.054
	c-0.004,0.034-0.008,0.067-0.012,0.101l-0.007,0.058c-0.003,0.019-0.006,0.044-0.008,0.063c-0.003,0.022-0.006,0.044-0.008,0.066
	l-0.012,0.094l-0.007,0.052c-0.003,0.023-0.006,0.047-0.009,0.07c-0.003,0.023-0.005,0.045-0.008,0.069
	c-0.003,0.027-0.007,0.057-0.011,0.084l-0.007,0.057l-0.009,0.067c-0.003,0.029-0.007,0.056-0.011,0.085l-0.008,0.067
	c-0.003,0.02-0.006,0.04-0.008,0.061l-0.008,0.064c-0.004,0.031-0.008,0.061-0.012,0.091l-0.008,0.059
	c-0.003,0.022-0.005,0.042-0.008,0.064l-0.008,0.056l-0.014,0.102l-0.008,0.057l-0.008,0.062l-0.009,0.065
	c-0.004,0.032-0.008,0.062-0.012,0.094c-0.003,0.019-0.006,0.038-0.008,0.057s-0.005,0.041-0.008,0.06
	c-0.003,0.023-0.007,0.048-0.01,0.071c-0.004,0.031-0.008,0.061-0.013,0.092l-0.007,0.053c-0.003,0.02-0.007,0.043-0.009,0.064
	c-0.005,0.03-0.009,0.066-0.014,0.097c-0.003,0.02-0.007,0.044-0.009,0.064c-0.003,0.015-0.005,0.034-0.007,0.05l-0.01,0.067
	l-0.014,0.094c-0.003,0.02-0.007,0.044-0.009,0.064l-0.008,0.054c-0.004,0.029-0.008,0.061-0.013,0.09l-0.01,0.069l-0.009,0.064
	c-0.003,0.019-0.005,0.035-0.008,0.054c-0.005,0.032-0.009,0.06-0.014,0.092c-0.003,0.023-0.006,0.043-0.01,0.065
	c-0.003,0.02-0.007,0.044-0.01,0.064c-0.003,0.019-0.005,0.038-0.008,0.057c-0.005,0.029-0.008,0.058-0.013,0.087
	c-0.004,0.023-0.007,0.047-0.01,0.069l-0.01,0.061c-0.003,0.023-0.005,0.036-0.009,0.059l-0.016,0.101
	c-0.002,0.015-0.005,0.034-0.008,0.05l-0.01,0.069l-0.007,0.046l-0.018,0.115l-0.007,0.045c-0.003,0.023-0.007,0.046-0.011,0.069
	l-0.008,0.051c-0.006,0.036-0.012,0.072-0.017,0.108l-0.008,0.047c-0.004,0.023-0.008,0.047-0.011,0.07l-0.007,0.044
	c-0.007,0.039-0.012,0.075-0.018,0.114c-0.003,0.019-0.005,0.028-0.008,0.047l-0.012,0.069l-0.008,0.055
	c-0.006,0.035-0.012,0.069-0.017,0.104c-0.003,0.015-0.006,0.032-0.008,0.047l-0.012,0.068c-0.005,0.03-0.01,0.063-0.015,0.093
	l-0.011,0.065l-0.008,0.051l-0.014,0.081l-0.013,0.078l-0.012,0.067c-0.002,0.015-0.005,0.029-0.007,0.045
	c-0.007,0.04-0.013,0.078-0.02,0.118l-0.007,0.043l-0.012,0.067l-0.008,0.049c-0.007,0.036-0.013,0.076-0.02,0.112l-0.008,0.046
	l-0.012,0.069c-0.003,0.015-0.005,0.028-0.008,0.043l-0.021,0.12l-0.007,0.039c-0.005,0.024-0.008,0.047-0.012,0.071l-0.008,0.043
	c-0.007,0.037-0.014,0.075-0.02,0.113l-0.008,0.05c-0.005,0.023-0.008,0.044-0.012,0.067l-0.008,0.043
	c-0.007,0.04-0.014,0.082-0.022,0.122l-0.007,0.038c-0.004,0.023-0.008,0.048-0.013,0.071l-0.007,0.041
	c-0.007,0.04-0.014,0.079-0.022,0.12l-0.008,0.043c-0.004,0.023-0.008,0.048-0.013,0.071l-0.005,0.029l-0.025,0.137l-0.006,0.03
	c-0.014,0.079-0.03,0.16-0.044,0.239l-0.007,0.036c-0.014,0.077-0.03,0.158-0.044,0.235l-0.007,0.038
	c-0.015,0.079-0.03,0.157-0.046,0.235l-0.006,0.033c-0.01,0.051-0.021,0.106-0.031,0.157l-0.001,0.004l-0.015,0.08l-0.006,0.027
	c-0.009,0.049-0.018,0.095-0.028,0.144l-0.005,0.022l-0.014,0.074l-0.008,0.038c-0.008,0.044-0.018,0.088-0.026,0.132l-0.005,0.027
	l-0.016,0.078l-0.006,0.027c-0.008,0.044-0.018,0.089-0.027,0.133l-0.007,0.035c-0.005,0.024-0.01,0.049-0.015,0.073l-0.007,0.036
	c-0.008,0.04-0.017,0.082-0.025,0.122l-0.008,0.041l-0.014,0.072l-0.007,0.031c-0.009,0.043-0.018,0.087-0.027,0.13l-0.008,0.036
	c-0.005,0.024-0.01,0.049-0.015,0.074l-0.005,0.023c-0.01,0.047-0.02,0.091-0.029,0.138l-0.007,0.035
	c-0.016,0.078-0.033,0.156-0.049,0.235l-0.007,0.034l-0.051,0.239l-0.006,0.027l-0.053,0.242l-0.006,0.028
	c-0.01,0.048-0.021,0.097-0.032,0.145l-0.004,0.018c-0.005,0.026-0.01,0.051-0.016,0.076l-0.007,0.031
	c-0.011,0.048-0.021,0.093-0.031,0.141l-0.005,0.021l-0.018,0.078l-0.005,0.022c-0.011,0.051-0.021,0.099-0.033,0.15l-0.003,0.016
	c-0.007,0.027-0.012,0.053-0.018,0.08l-0.005,0.02l-0.033,0.149l-0.005,0.02c-0.007,0.027-0.012,0.054-0.018,0.081l-0.003,0.01
	c-0.012,0.051-0.023,0.102-0.035,0.153l-0.006,0.025c-0.006,0.027-0.012,0.053-0.018,0.08l-0.001,0.003
	c-0.012,0.052-0.024,0.105-0.036,0.157l-0.007,0.031c-0.018,0.08-0.037,0.16-0.055,0.241l-0.006,0.023
	c-0.019,0.083-0.038,0.164-0.057,0.247l-0.005,0.018c-0.02,0.083-0.039,0.166-0.059,0.249l-0.003,0.016
	c-0.02,0.083-0.04,0.165-0.06,0.248l-0.005,0.021c-0.02,0.082-0.039,0.164-0.059,0.245l-0.005,0.021l-0.039,0.16l-0.001,0.003
	l-0.02,0.084l-0.003,0.013c-0.012,0.051-0.026,0.105-0.038,0.155l-0.004,0.016l-0.021,0.084l-0.001,0.002l-0.042,0.167l-0.003,0.011
	l-0.021,0.083l-0.002,0.008l-0.039,0.157l-0.005,0.021c-0.021,0.083-0.042,0.165-0.063,0.248l-0.003,0.014
	c-0.021,0.081-0.042,0.161-0.063,0.242l-0.008,0.03c-0.02,0.08-0.041,0.161-0.062,0.24l-0.005,0.018
	c-0.021,0.081-0.043,0.164-0.064,0.245l-0.006,0.022c-0.021,0.082-0.044,0.164-0.065,0.247l-0.003,0.01
	c-0.022,0.084-0.045,0.169-0.067,0.252l-0.004,0.014c-0.014,0.054-0.029,0.107-0.043,0.161l-0.002,0.006l-0.023,0.085l-0.001,0.004
	l-0.045,0.168l-0.001,0.005c-0.008,0.029-0.016,0.056-0.023,0.086l-0.001,0.002c-0.015,0.056-0.031,0.112-0.046,0.167l-0.003,0.009
	c-0.023,0.086-0.047,0.171-0.071,0.257l-0.001,0.002l-0.07,0.253l-0.003,0.013c-0.023,0.083-0.047,0.168-0.07,0.251l-0.003,0.009
	c-0.023,0.083-0.046,0.164-0.07,0.247l-0.006,0.021c-0.023,0.082-0.046,0.163-0.07,0.244l-0.004,0.012
	c-0.023,0.083-0.048,0.168-0.072,0.251l-0.001,0.006c-0.049,0.171-0.1,0.345-0.15,0.516l-0.001,0.002
	c-0.017,0.057-0.033,0.113-0.05,0.169l-0.001,0.004c-0.024,0.083-0.049,0.168-0.074,0.251l-0.003,0.012
	c-0.025,0.084-0.049,0.166-0.075,0.25l-0.003,0.01c-0.025,0.083-0.05,0.166-0.075,0.249l-0.004,0.013
	c-0.025,0.082-0.049,0.164-0.075,0.246l-0.005,0.014c-0.025,0.082-0.049,0.161-0.075,0.243l-0.006,0.019
	c-0.024,0.08-0.049,0.159-0.074,0.238l-0.007,0.023c-0.025,0.081-0.05,0.161-0.076,0.242l-0.003,0.008
	c-0.044,0.141-0.089,0.283-0.133,0.424l-0.001,0.001c-0.054,0.171-0.108,0.339-0.163,0.509l-0.003,0.009
	c-0.026,0.082-0.053,0.166-0.08,0.247l-0.003,0.011l-0.081,0.247l-0.003,0.01c-0.027,0.082-0.055,0.166-0.081,0.247l-0.004,0.01
	l-0.082,0.248l-0.002,0.006c-0.028,0.084-0.055,0.166-0.084,0.25l-0.002,0.007c-0.028,0.083-0.055,0.165-0.083,0.248l-0.005,0.012
	c-0.018,0.053-0.036,0.107-0.054,0.16l-0.001,0.003l-0.029,0.084v0.001l-0.057,0.168l-0.001,0.003l-0.085,0.246l-0.005,0.013
	l-0.085,0.245l-0.003,0.009c-0.028,0.081-0.056,0.161-0.085,0.241l-0.006,0.017c-0.027,0.078-0.055,0.157-0.083,0.235l-0.008,0.022
	c-0.027,0.077-0.055,0.156-0.082,0.233l-0.008,0.024l-0.084,0.234l-0.006,0.016c-0.028,0.079-0.057,0.158-0.085,0.237l-0.007,0.02
	c-0.018,0.047-0.035,0.095-0.052,0.142l-0.006,0.017l-0.027,0.076l-0.007,0.018c-0.016,0.044-0.033,0.091-0.049,0.136l-0.01,0.028
	c-0.008,0.023-0.016,0.045-0.025,0.068l-0.012,0.034c-0.015,0.042-0.031,0.084-0.046,0.126l-0.009,0.025l-0.027,0.075l-0.005,0.012
	c-0.018,0.047-0.035,0.095-0.053,0.142l-0.009,0.026l-0.027,0.072l-0.008,0.022c-0.016,0.043-0.031,0.085-0.048,0.128l-0.014,0.036
	c-0.028,0.075-0.055,0.149-0.083,0.224l-0.01,0.024l-0.085,0.225l-0.012,0.031c-0.028,0.075-0.057,0.15-0.085,0.225l-0.009,0.024
	c-0.02,0.051-0.038,0.099-0.057,0.15l-0.002,0.004c-0.008,0.023-0.018,0.047-0.027,0.07l-0.014,0.036
	c-0.016,0.04-0.031,0.08-0.046,0.12l-0.011,0.028l-0.027,0.069l-0.013,0.034l-0.046,0.117l-0.012,0.032l-0.026,0.068l-0.013,0.033
	l-0.047,0.12l-0.012,0.031l-0.027,0.071l-0.009,0.022c-0.016,0.041-0.033,0.085-0.049,0.126l-0.013,0.033l-0.025,0.065l-0.018,0.044
	c-0.014,0.036-0.029,0.072-0.042,0.108l-0.014,0.034c-0.01,0.024-0.019,0.047-0.028,0.071l-0.003,0.007l-0.057,0.143l-0.012,0.029
	c-0.03,0.074-0.059,0.148-0.089,0.222l-0.012,0.03c-0.03,0.074-0.059,0.147-0.089,0.221l-0.012,0.031l-0.053,0.133l-0.007,0.018
	l-0.027,0.065l-0.016,0.039l-0.041,0.102l-0.02,0.047c-0.008,0.02-0.016,0.041-0.025,0.06l-0.018,0.045
	c-0.014,0.033-0.026,0.063-0.039,0.096l-0.02,0.048c-0.008,0.02-0.017,0.041-0.025,0.061l-0.017,0.042l-0.044,0.106l-0.016,0.041
	c-0.009,0.021-0.018,0.041-0.026,0.062l-0.018,0.044l-0.041,0.099l-0.019,0.045c-0.008,0.02-0.017,0.041-0.025,0.061l-0.019,0.046
	l-0.041,0.098l-0.02,0.047l-0.025,0.059l-0.022,0.053c-0.012,0.029-0.024,0.058-0.036,0.087c-0.007,0.017-0.015,0.036-0.023,0.053
	l-0.021,0.051l-0.033,0.076c-0.01,0.024-0.018,0.044-0.029,0.068l-0.023,0.054l-0.023,0.053l-0.038,0.089l-0.023,0.053
	c-0.008,0.021-0.014,0.033-0.023,0.053l-0.022,0.052l-0.038,0.088l-0.023,0.054l-0.024,0.057c-0.008,0.017-0.014,0.033-0.021,0.05
	c-0.014,0.031-0.025,0.058-0.038,0.088l-0.024,0.056c-0.008,0.017-0.015,0.034-0.022,0.051l-0.031,0.07l-0.03,0.069
	c-0.008,0.018-0.017,0.039-0.025,0.057c-0.007,0.017-0.015,0.036-0.023,0.053c-0.01,0.025-0.021,0.05-0.033,0.074
	c-0.008,0.02-0.02,0.046-0.029,0.067l-0.023,0.053l-0.024,0.054l-0.036,0.083l-0.023,0.053l-0.025,0.056l-0.026,0.058
	c-0.011,0.026-0.023,0.054-0.035,0.079c-0.008,0.02-0.015,0.034-0.024,0.055l-0.025,0.056l-0.029,0.064l-0.032,0.072l-0.023,0.053
	c-0.009,0.021-0.017,0.038-0.027,0.059l-0.021,0.048c-0.013,0.03-0.027,0.059-0.04,0.089l-0.024,0.053l-0.023,0.053
	c-0.014,0.031-0.027,0.06-0.041,0.09c-0.006,0.014-0.014,0.031-0.02,0.045c-0.009,0.02-0.018,0.041-0.028,0.062
	c-0.007,0.016-0.014,0.031-0.021,0.046l-0.042,0.093l-0.021,0.046c-0.009,0.02-0.019,0.042-0.029,0.063
	c-0.007,0.016-0.014,0.031-0.021,0.046l-0.042,0.092c-0.007,0.015-0.014,0.03-0.021,0.046c-0.01,0.02-0.019,0.041-0.028,0.061
	l-0.021,0.047c-0.014,0.03-0.028,0.061-0.042,0.091c-0.007,0.015-0.014,0.03-0.021,0.045l-0.03,0.066l-0.024,0.052l-0.038,0.082
	l-0.022,0.049l-0.029,0.061c-0.009,0.021-0.02,0.043-0.029,0.063l-0.033,0.072l-0.021,0.046l-0.033,0.071l-0.025,0.054l-0.035,0.075
	l-0.021,0.045l-0.033,0.069c-0.01,0.022-0.021,0.045-0.031,0.067l-0.029,0.062l-0.022,0.047c-0.012,0.027-0.026,0.056-0.039,0.083
	l-0.023,0.05l-0.032,0.068l-0.02,0.042l-0.045,0.095l-0.019,0.039l-0.032,0.067l-0.02,0.043l-0.045,0.095l-0.018,0.038
	c-0.012,0.023-0.023,0.048-0.035,0.071l-0.018,0.038l-0.046,0.095l-0.02,0.042c-0.012,0.023-0.023,0.049-0.035,0.072l-0.016,0.033
	c-0.016,0.033-0.031,0.066-0.048,0.099l-0.018,0.037c-0.012,0.027-0.024,0.05-0.037,0.077l-0.015,0.031
	c-0.014,0.03-0.033,0.068-0.048,0.098l-0.018,0.038l-0.037,0.076l-0.015,0.031l-0.048,0.097l-0.019,0.038
	c-0.014,0.03-0.025,0.052-0.04,0.082l-0.016,0.034c-0.014,0.03-0.028,0.057-0.042,0.086l-0.021,0.044l-0.04,0.082l-0.018,0.035
	l-0.04,0.082l-0.02,0.04l-0.048,0.098l-0.011,0.022l-0.042,0.085l-0.018,0.035c-0.016,0.033-0.033,0.068-0.05,0.101l-0.01,0.022
	c-0.014,0.027-0.03,0.06-0.044,0.087l-0.015,0.031l-0.051,0.102l-0.012,0.026l-0.042,0.084l-0.016,0.031
	c-0.016,0.033-0.035,0.07-0.051,0.103l-0.012,0.023l-0.044,0.088l-0.014,0.026c-0.016,0.033-0.035,0.069-0.052,0.102l-0.013,0.027
	c-0.016,0.03-0.03,0.058-0.045,0.088l-0.012,0.023c-0.018,0.036-0.035,0.069-0.054,0.106l-0.01,0.021l-0.051,0.1l-0.005,0.011
	c-0.019,0.036-0.037,0.072-0.055,0.108l-0.012,0.024c-0.016,0.03-0.033,0.064-0.048,0.094l-0.009,0.017l-0.054,0.105l-0.012,0.024
	c-0.018,0.033-0.036,0.07-0.053,0.103l-0.003,0.006c-0.018,0.036-0.036,0.07-0.055,0.106l-0.014,0.026
	c-0.018,0.036-0.036,0.07-0.055,0.106l-0.005,0.01l-0.051,0.099l-0.013,0.025l-0.057,0.108l-0.003,0.006l-0.055,0.103l-0.01,0.021
	c-0.02,0.036-0.038,0.071-0.057,0.107l-0.007,0.014c-0.018,0.033-0.036,0.067-0.053,0.1l-0.009,0.017l-0.057,0.109l-0.008,0.015
	l-0.053,0.099l-0.008,0.016c-0.019,0.036-0.038,0.071-0.057,0.107l-0.01,0.02l-0.05,0.094l-0.01,0.018
	c-0.019,0.036-0.038,0.072-0.058,0.108l-0.008,0.016c-0.019,0.036-0.035,0.066-0.055,0.102l-0.005,0.01
	c-0.019,0.036-0.038,0.071-0.057,0.107l-0.012,0.023c-0.02,0.036-0.036,0.067-0.055,0.102l-0.003,0.005
	c-0.021,0.039-0.04,0.073-0.061,0.112l-0.007,0.013c-0.04,0.075-0.082,0.151-0.122,0.225l-0.007,0.012
	c-0.042,0.078-0.081,0.149-0.124,0.227l-0.005,0.01l-0.124,0.226l-0.007,0.011c-0.041,0.074-0.083,0.152-0.125,0.226l-0.005,0.01
	c-0.041,0.074-0.085,0.153-0.126,0.228l-0.005,0.008c-0.043,0.077-0.087,0.155-0.13,0.232l-0.001,0.002
	c-0.021,0.039-0.043,0.077-0.065,0.116l-0.002,0.004l-0.063,0.113l-0.003,0.004c-0.02,0.035-0.044,0.078-0.064,0.113l-0.005,0.009
	c-0.022,0.039-0.042,0.074-0.064,0.112v0.001c-0.022,0.039-0.044,0.078-0.066,0.116l-0.002,0.003
	c-0.044,0.077-0.087,0.152-0.13,0.229l-0.005,0.009c-0.044,0.077-0.085,0.149-0.13,0.226l-0.005,0.007
	c-0.044,0.077-0.086,0.15-0.13,0.227l-0.005,0.008l-0.131,0.227l-0.004,0.006c-0.044,0.077-0.089,0.152-0.133,0.229l-0.002,0.003
	c-0.022,0.038-0.044,0.076-0.067,0.114l-0.002,0.004c-0.021,0.035-0.044,0.074-0.064,0.109l-0.005,0.008
	c-0.023,0.038-0.043,0.074-0.066,0.112l-0.004,0.006c-0.044,0.076-0.089,0.152-0.134,0.229l-0.001,0.001
	c-0.047,0.079-0.09,0.152-0.137,0.231l-0.002,0.003c-0.045,0.076-0.091,0.153-0.136,0.229l-0.002,0.003
	c-0.046,0.076-0.091,0.153-0.137,0.229l-0.002,0.004c-1.299,2.166-2.665,4.284-4.097,6.356c-6.696,9.694-4.265,22.982,5.429,29.678
	c9.694,6.696,22.982,4.265,29.678-5.429c27.996-40.626,35.719-91.882,20.938-138.954
	C288.509,295.039,280.276,288.995,270.963,288.988L270.963,288.988z"/>
<circle style="fill:#4AEC98;" cx="138.667" cy="351.997" r="96"/>
<path style="fill:#9DF4C7;" d="M138.667,256c-53.019,0-96,42.981-96,96c0,0,0,0,0,0v0.242l0.001,0.032v0.128l0.001,0.039v0.081
	l0.001,0.044v0.081l0.001,0.035v0.049l0.001,0.029v0.054l0.001,0.029v0.055l0.001,0.025c0,0.019,0,0.039,0.001,0.058v0.024
	l0.002,0.161v0.023l0.001,0.059l0.001,0.031c0,0.016,0,0.032,0.001,0.047l0.001,0.04l0.001,0.042v0.041l0.001,0.037l0.001,0.042
	l0.001,0.041l0.001,0.039l0.001,0.039l0.001,0.041l0.001,0.044l0.001,0.034l0.001,0.05l0.001,0.029l0.001,0.056l0.001,0.024
	l0.001,0.053l0.001,0.029l0.001,0.056l0.001,0.024l0.002,0.075v0.005l0.002,0.082v0.007l0.002,0.073v0.024l0.002,0.057v0.023
	l0.002,0.058l0.001,0.026c0,0.017,0.001,0.036,0.001,0.053l0.001,0.032l0.001,0.044l0.001,0.042l0.001,0.039l0.001,0.037
	l0.001,0.045l0.001,0.037l0.001,0.041l0.001,0.038c0.001,0.016,0.001,0.029,0.001,0.045l0.001,0.035
	c0.001,0.016,0.001,0.033,0.001,0.05l0.001,0.029l0.001,0.052l0.001,0.03c0,0.016,0.001,0.031,0.001,0.047l0.001,0.033l0.001,0.048
	l0.002,0.056l0.002,0.056l0.001,0.028l0.001,0.049l0.001,0.038l0.002,0.044l0.001,0.036l0.001,0.043l0.001,0.034l0.002,0.05
	l0.001,0.032l0.002,0.046l0.001,0.036l0.002,0.046l0.001,0.034l0.002,0.044l0.001,0.037l0.002,0.046l0.001,0.034l0.002,0.044
	l0.001,0.036l0.002,0.045l0.001,0.035c0.001,0.019,0.002,0.038,0.003,0.057l0.001,0.021c0.002,0.054,0.005,0.108,0.007,0.162
	l0.001,0.011c0.001,0.023,0.002,0.046,0.003,0.069l0.001,0.021c0.001,0.019,0.002,0.039,0.003,0.058l0.002,0.029l0.002,0.052
	l0.001,0.027c0.001,0.018,0.002,0.037,0.003,0.055l0.001,0.025l0.003,0.056l0.001,0.025c0.001,0.018,0.001,0.035,0.003,0.053
	l0.001,0.033l0.003,0.044l0.002,0.035l0.002,0.047l0.002,0.032l0.003,0.048l0.002,0.032l0.002,0.045l0.002,0.037l0.003,0.044
	l0.002,0.034l0.004,0.067l0.001,0.012c0.003,0.054,0.006,0.107,0.009,0.161l0.001,0.024l0.003,0.056l0.002,0.03l0.003,0.049
	l0.002,0.031l0.003,0.051l0.001,0.03l0.003,0.047l0.002,0.034l0.003,0.05l0.001,0.026l0.004,0.057l0.001,0.021l0.004,0.061
	l0.001,0.02l0.004,0.059l0.001,0.023l0.004,0.061l0.001,0.018l0.005,0.074l0.001,0.004l0.005,0.081v0.001
	c0.004,0.054,0.007,0.109,0.011,0.163l0.001,0.01l0.005,0.07l0.001,0.018l0.004,0.061l0.002,0.022l0.004,0.058l0.002,0.023
	l0.004,0.059l0.001,0.019l0.005,0.061l0.001,0.021c0.002,0.02,0.003,0.04,0.005,0.059l0.001,0.021
	c0.002,0.02,0.003,0.039,0.005,0.059l0.002,0.022l0.005,0.064l0.001,0.013c0.001,0.023,0.003,0.046,0.005,0.069l0.001,0.013
	l0.006,0.074l0.001,0.005l0.025,0.326l0.001,0.004l0.006,0.075l0.001,0.015c0.002,0.022,0.004,0.045,0.005,0.067l0.001,0.014
	c0.002,0.021,0.004,0.044,0.005,0.065l0.002,0.019l0.005,0.062l0.001,0.018c0.002,0.02,0.004,0.042,0.005,0.062l0.002,0.018
	c0.001,0.021,0.003,0.043,0.005,0.064l0.001,0.016l0.006,0.064l0.001,0.017l0.006,0.067l0.001,0.011
	c0.002,0.025,0.004,0.05,0.007,0.075v0.005c0.012,0.136,0.025,0.27,0.037,0.406l0.001,0.004l0.007,0.076l0.001,0.007
	c0.002,0.025,0.004,0.048,0.007,0.073l0.001,0.01c0.002,0.022,0.004,0.046,0.007,0.068l0.001,0.015
	c0.002,0.023,0.004,0.044,0.007,0.067l0.001,0.011l0.007,0.071l0.001,0.01l0.007,0.072l0.001,0.009
	c0.003,0.025,0.005,0.048,0.007,0.073l0.001,0.008c0.021,0.214,0.044,0.43,0.066,0.644l0.001,0.012
	c0.002,0.024,0.005,0.047,0.007,0.07l0.001,0.008l0.008,0.07l0.001,0.012l0.008,0.07l0.001,0.009l0.008,0.068l0.001,0.014
	l0.008,0.071l0.001,0.007l0.008,0.078l0.001,0.002c0.03,0.27,0.061,0.539,0.093,0.809v0.002c1.123,9.413,3.643,18.606,7.477,27.276
	l0.003,0.007c0.01,0.022,0.02,0.043,0.029,0.066l0.001,0.002l0.03,0.068l0.002,0.005l0.031,0.068l0.001,0.001
	c0.01,0.022,0.02,0.043,0.029,0.065l0.005,0.011l0.027,0.061l0.004,0.008c0.009,0.021,0.018,0.042,0.028,0.063l0.004,0.008
	l0.028,0.064l0.004,0.007c0.008,0.02,0.018,0.04,0.027,0.061l0.005,0.011c0.031,0.07,0.063,0.141,0.095,0.211l0.008,0.018
	l0.022,0.049l0.014,0.031l0.018,0.038l0.014,0.03l0.018,0.038l0.016,0.037l0.014,0.03l0.019,0.041l0.012,0.025l0.014,0.03
	c4.909,10.71,17.571,15.413,28.282,10.504c10.71-4.909,15.413-17.571,10.504-28.282c-3.185-6.955-4.823-14.519-4.799-22.169
	c0.033-29.441,23.891-53.299,53.332-53.333c9.038-0.04,17.933,2.251,25.827,6.651c10.301,5.718,23.288,2.003,29.006-8.298
	c5.708-10.283,2.017-23.246-8.251-28.98c-11.253-6.26-23.657-10.176-36.464-11.512l-0.001,0c-0.098-0.01-0.197-0.021-0.295-0.03
	l-0.012-0.001l-0.069-0.007l-0.004,0c-0.101-0.01-0.198-0.02-0.299-0.03l-0.002,0c-0.098-0.01-0.197-0.019-0.296-0.028l-0.011-0.001
	l-0.067-0.006l-0.012-0.001c-0.072-0.007-0.147-0.014-0.22-0.02l-0.068-0.006l-0.016-0.001l-0.066-0.006l-0.008-0.001l-0.212-0.019
	l-0.014-0.001l-0.063-0.005l-0.023-0.002l-0.06-0.005l-0.014-0.001l-0.14-0.012l-0.001,0l-0.061-0.005l-0.025-0.002l-0.057-0.005
	l-0.027-0.002l-0.199-0.016l-0.014-0.001l-0.06-0.005l-0.025-0.002l-0.061-0.005l-0.018-0.001l-0.193-0.015l-0.033-0.003
	l-0.051-0.004l-0.033-0.002l-0.054-0.004l-0.022-0.002l-0.126-0.009l-0.01-0.001l-0.06-0.004l-0.025-0.002l-0.057-0.004
	l-0.027-0.002c-0.063-0.005-0.125-0.009-0.189-0.013l-0.027-0.002l-0.057-0.004l-0.029-0.002l-0.055-0.004l-0.027-0.002l-0.19-0.013
	l-0.026-0.002l-0.057-0.004l-0.03-0.002l-0.053-0.003l-0.035-0.002l-0.096-0.006l-0.032-0.002l-0.054-0.003l-0.031-0.002
	l-0.053-0.003l-0.036-0.002l-0.174-0.01l-0.041-0.002l-0.044-0.003l-0.043-0.002l-0.047-0.003l-0.042-0.002l-0.068-0.004
	l-0.055-0.003l-0.044-0.002l-0.046-0.002l-0.042-0.002l-0.047-0.002l-0.042-0.002l-0.063-0.003l-0.044-0.002l-0.064-0.003
	l-0.035-0.002l-0.053-0.003l-0.038-0.002l-0.051-0.003l-0.038-0.002l-0.082-0.004l-0.033-0.002l-0.057-0.003l-0.036-0.002
	l-0.055-0.003l-0.035-0.002l-0.064-0.003l-0.025-0.001l-0.083-0.004l-0.038-0.002l-0.051-0.002l-0.04-0.002l-0.051-0.002
	l-0.036-0.001l-0.064-0.003l-0.053-0.002l-0.055-0.002l-0.038-0.001l-0.051-0.002l-0.036-0.001l-0.058-0.002l-0.033-0.001
	l-0.083-0.003l-0.036-0.001l-0.051-0.002l-0.038-0.001l-0.053-0.002l-0.039-0.001l-0.055-0.002l-0.046-0.002l-0.068-0.002
	l-0.038-0.001l-0.053-0.002l-0.036-0.001l-0.054-0.002l-0.036-0.001l-0.079-0.002l-0.032-0.001l-0.062-0.002l-0.038-0.001
	l-0.051-0.001l-0.038-0.001l-0.059-0.002l-0.031-0.001l-0.087-0.002l-0.025-0.001l-0.063-0.002l-0.036-0.001l-0.056-0.001
	l-0.035-0.001l-0.074-0.002l-0.014,0l-0.088-0.002l-0.03-0.001l-0.061-0.001l-0.033-0.001l-0.064-0.001l-0.025,0l-0.089-0.002
	l-0.021,0l-0.068-0.001l-0.037-0.001l-0.051-0.001l-0.038-0.001l-0.061-0.001l-0.029,0l-0.087-0.001l-0.025,0l-0.066-0.001l-0.028,0
	l-0.065-0.001l-0.029,0l-0.178-0.002l-0.028,0l-0.064-0.001l-0.03,0l-0.064-0.001l-0.027,0l-0.089-0.001l-0.017,0l-0.074,0l-0.029,0
	l-0.063,0l-0.03,0l-0.066,0l-0.025,0l-0.088,0l-0.025,0l-0.063,0l-0.035,0l-0.059,0h-0.032L138.667,256L138.667,256z"/>
<path style="fill:#C1F8DC;" d="M138.667,256h-0.082h-0.027l-0.055,0l-0.032,0l-0.051,0l-0.032,0l-0.049,0l-0.037,0l-0.046,0
	l-0.035,0l-0.049,0l-0.034,0l-0.056,0l-0.024,0l-0.061,0l-0.023,0l-0.164,0.001l-0.028,0l-0.056,0.001l-0.029,0l-0.052,0.001
	l-0.034,0l-0.051,0.001l-0.032,0l-0.049,0.001l-0.035,0l-0.049,0.001l-0.034,0l-0.046,0.001l-0.038,0.001l-0.043,0.001l-0.059,0.001
	l-0.06,0.001l-0.033,0.001l-0.048,0.001l-0.037,0.001l-0.046,0.001l-0.038,0.001l-0.046,0.001l-0.034,0.001l-0.049,0.001
	l-0.035,0.001l-0.048,0.001l-0.035,0.001l-0.045,0.001l-0.04,0.001l-0.046,0.001l-0.033,0.001l-0.055,0.001l-0.049,0.001
	l-0.061,0.001l-0.025,0.001l-0.055,0.001l-0.033,0.001l-0.052,0.001l-0.03,0.001l-0.05,0.001l-0.036,0.001l-0.045,0.001l-0.04,0.001
	l-0.038,0.001l-0.044,0.001l-0.039,0.001l-0.042,0.001l-0.046,0.001l-0.035,0.001l-0.081,0.002l-0.017,0.001l-0.065,0.002
	l-0.03,0.001l-0.053,0.002l-0.031,0.001l-0.05,0.002l-0.036,0.001l-0.045,0.002l-0.036,0.001l-0.044,0.002l-0.042,0.001
	l-0.038,0.001l-0.04,0.001l-0.046,0.002l-0.036,0.001l-0.074,0.003l-0.004,0l-0.081,0.003l-0.039,0.002l-0.044,0.002l-0.038,0.002
	l-0.042,0.002l-0.04,0.002l-0.044,0.002l-0.039,0.002l-0.038,0.002l-0.046,0.002l-0.037,0.002l-0.044,0.002l-0.038,0.002
	l-0.042,0.002l-0.051,0.002l-0.029,0.001l-0.059,0.003l-0.027,0.001l-0.076,0.004l-0.035,0.002l-0.046,0.002l-0.039,0.002
	l-0.042,0.002l-0.04,0.002l-0.041,0.002l-0.04,0.002l-0.042,0.002l-0.038,0.002l-0.042,0.002l-0.044,0.002l-0.031,0.002
	l-0.049,0.003l-0.03,0.002l-0.051,0.003l-0.008,0l-0.206,0.011l-0.02,0.001l-0.058,0.003l-0.021,0.001l-0.055,0.003l-0.027,0.002
	l-0.05,0.003l-0.03,0.002l-0.051,0.003l-0.029,0.002l-0.053,0.003l-0.024,0.001l-0.055,0.003l-0.023,0.001l-0.186,0.011
	l-0.026,0.002l-0.049,0.003l-0.03,0.002l-0.052,0.003l-0.027,0.002l-0.051,0.003l-0.029,0.002l-0.051,0.003l-0.027,0.002
	l-0.051,0.003l-0.029,0.002l-0.053,0.004l-0.019,0.001l-0.061,0.004l-0.008,0.001c-0.096,0.007-0.193,0.013-0.289,0.02l-0.012,0.001
	l-0.06,0.004l-0.02,0.001l-0.057,0.004l-0.022,0.002l-0.059,0.004l-0.017,0.001l-0.062,0.005l-0.017,0.001l-0.062,0.005
	l-0.015,0.001c-0.098,0.007-0.193,0.015-0.292,0.022l-0.066,0.005l-0.014,0.001l-0.063,0.005l-0.016,0.001l-0.061,0.005
	l-0.017,0.001l-0.062,0.005l-0.017,0.001l-0.061,0.005l-0.015,0.001c-0.146,0.012-0.294,0.025-0.44,0.037l-0.008,0.001l-0.066,0.006
	l-0.012,0.001l-0.063,0.006l-0.016,0.001l-0.064,0.006l-0.009,0.001l-0.07,0.006l-0.002,0c-0.126,0.011-0.247,0.023-0.374,0.035
	l-0.005,0l-0.067,0.006l-0.011,0.001l-0.067,0.006l-0.01,0.001l-0.066,0.006l-0.012,0.001l-0.068,0.007l-0.001,0
	c-0.177,0.017-0.349,0.035-0.525,0.053l-0.007,0.001l-0.069,0.007l-0.007,0.001l-0.07,0.007l-0.005,0.001
	c-8.353,0.872-16.553,2.844-24.39,5.863l-0.012,0.005l-0.059,0.022l-0.011,0.004l-0.056,0.022l-0.016,0.006
	c-0.043,0.017-0.084,0.033-0.126,0.049l-0.003,0.001c-0.086,0.033-0.172,0.067-0.257,0.1l-0.019,0.007l-0.044,0.018l-0.03,0.012
	l-0.036,0.014l-0.039,0.015l-0.035,0.014l-0.031,0.012l-0.042,0.017l-0.031,0.012l-0.039,0.015l-0.037,0.015l-0.035,0.014
	l-0.042,0.017l-0.048,0.019l-0.053,0.021l-0.027,0.011l-0.046,0.018l-0.025,0.01l-0.049,0.02l-0.023,0.009l-0.05,0.02l-0.023,0.009
	l-0.051,0.02l-0.023,0.009l-0.055,0.022l-0.016,0.006l-0.061,0.025l-0.014,0.005c-0.099,0.04-0.198,0.081-0.297,0.121l-0.005,0.002
	l-0.072,0.029l-0.003,0.001l-0.068,0.028l-0.012,0.005l-0.069,0.028l-0.001,0.001c-1.583,0.653-3.143,1.347-4.682,2.081
	C86.75,270.37,82.233,283.1,87.299,293.737c5.066,10.637,17.796,15.154,28.433,10.088c0.008-0.004,0.016-0.008,0.024-0.012
	c7.154-3.414,14.984-5.173,22.911-5.147c1.118,0,2.228,0.034,3.329,0.101c0.441,0.027,0.88,0.04,1.316,0.04
	c11.782-0.011,21.324-9.572,21.313-21.354c-0.011-11.271-8.787-20.589-20.037-21.274l-0.089-0.005l-0.007,0l-0.074-0.004
	l-0.025-0.001l-0.059-0.003l-0.029-0.002l-0.046-0.003l-0.191-0.011h-0.001c-1.376-0.076-2.758-0.123-4.148-0.141l-0.016,0
	l-0.063-0.001l-0.019,0l-0.061-0.001l-0.025,0l-0.059-0.001l-0.018,0l-0.11-0.001l-0.031,0l-0.048,0l-0.039,0l-0.045,0l-0.042,0
	l-0.04,0l-0.049,0l-0.038,0l-0.059,0l-0.048,0l-0.059,0l-0.038,0l-0.05,0l-0.037,0l-0.049,0l-0.036,0l-0.056,0h-0.03L138.667,256
	L138.667,256z"/>
<path style="fill:#00BC6E;" d="M255.999,351.508v-0.242c-0.001-0.018-0.001-0.035-0.001-0.055v-0.1c0-0.016,0-0.027-0.001-0.043
	v-0.099c0-0.02,0-0.04-0.001-0.06v-0.098c0-0.016,0-0.025-0.001-0.04v-0.096c-0.001-0.034-0.001-0.064-0.001-0.098
	c0-0.016,0-0.026-0.001-0.042v-0.059l-0.001-0.046v-0.049c0-0.016-0.001-0.036-0.001-0.052v-0.048c0-0.016-0.001-0.029-0.001-0.044
	v-0.056c-0.001-0.016-0.001-0.026-0.001-0.042c0-0.02,0-0.038-0.001-0.057v-0.043c0-0.017-0.001-0.035-0.001-0.052v-0.048
	c-0.001-0.017-0.001-0.035-0.001-0.052c0-0.016,0-0.03-0.001-0.046v-0.051c-0.001-0.016-0.001-0.033-0.001-0.048
	c0-0.018-0.001-0.034-0.001-0.052c0-0.016,0-0.03-0.001-0.046v-0.048c-0.001-0.016-0.001-0.036-0.001-0.052l-0.001-0.046
	c0-0.02,0-0.031-0.001-0.051c0-0.02,0-0.038-0.001-0.057v-0.04c-0.001-0.031-0.001-0.065-0.003-0.098c0-0.011,0-0.022-0.001-0.033
	c0-0.021,0-0.042-0.001-0.064c0-0.016,0-0.029-0.001-0.044c0-0.018,0-0.038-0.001-0.055v-0.042c-0.001-0.02-0.001-0.036-0.001-0.056
	c-0.001-0.016-0.001-0.033-0.001-0.048c-0.001-0.017-0.001-0.031-0.001-0.048c-0.001-0.021-0.001-0.033-0.001-0.052
	c-0.001-0.014-0.001-0.029-0.001-0.044c-0.001-0.02-0.001-0.035-0.001-0.055c-0.001-0.014-0.001-0.03-0.001-0.046
	c-0.001-0.016-0.001-0.034-0.001-0.049c-0.001-0.016-0.001-0.031-0.003-0.047c0-0.016,0-0.036-0.001-0.052
	c0-0.016,0-0.031-0.001-0.046c0-0.02,0-0.033-0.001-0.052l-0.001-0.044c0-0.02-0.001-0.035-0.001-0.055
	c-0.001-0.016-0.001-0.029-0.001-0.044c-0.001-0.016-0.001-0.035-0.001-0.051c-0.001-0.018-0.001-0.034-0.003-0.051
	c0-0.017,0-0.033-0.001-0.048c0-0.014-0.001-0.031-0.001-0.047s-0.001-0.035-0.001-0.051l-0.001-0.021
	c-0.001-0.047-0.003-0.094-0.005-0.141v-0.03c-0.001-0.02-0.001-0.04-0.003-0.06l-0.001-0.036c0-0.02-0.001-0.04-0.003-0.06
	c0-0.013,0-0.025-0.001-0.038c0-0.016-0.001-0.04-0.001-0.056c-0.001-0.014-0.001-0.027-0.001-0.042
	c-0.001-0.016-0.003-0.036-0.003-0.052s-0.001-0.033-0.001-0.048c-0.001-0.016-0.001-0.034-0.003-0.049
	c0-0.014-0.001-0.03-0.001-0.046c-0.001-0.016-0.001-0.038-0.003-0.053c0-0.016-0.001-0.029-0.001-0.044
	c-0.001-0.02-0.001-0.035-0.003-0.055l-0.001-0.036c-0.001-0.02-0.001-0.044-0.003-0.064l-0.001-0.031
	c-0.001-0.02-0.001-0.047-0.003-0.066l-0.001-0.026c-0.001-0.023-0.001-0.047-0.003-0.07l-0.001-0.027
	c-0.001-0.023-0.003-0.044-0.003-0.069c-0.001-0.008-0.002-0.016-0.001-0.025l-0.004-0.072v-0.009
	c-0.004-0.086-0.008-0.177-0.012-0.263v-0.011l-0.004-0.07l-0.001-0.027l-0.004-0.068c0-0.01,0-0.019-0.001-0.029
	c0-0.02-0.001-0.044-0.003-0.064l-0.001-0.034l-0.004-0.061c0-0.012,0-0.023-0.001-0.035c-0.001-0.02-0.001-0.04-0.003-0.06
	l-0.003-0.036c-0.001-0.023-0.001-0.039-0.003-0.063c-0.001-0.011-0.002-0.022-0.001-0.033l-0.004-0.064l-0.001-0.03l-0.004-0.07
	l-0.001-0.019l-0.004-0.077v-0.013c-0.012-0.215-0.025-0.426-0.036-0.641l-0.001-0.005l-0.004-0.081l-0.001-0.017
	c-0.001-0.027-0.004-0.055-0.005-0.082v-0.01c-0.003-0.027-0.004-0.055-0.005-0.082l-0.001-0.014
	c-0.001-0.023-0.004-0.055-0.005-0.078l-0.001-0.018l-0.004-0.074c-0.001-0.008-0.002-0.016-0.001-0.023
	c-0.003-0.027-0.004-0.048-0.005-0.076l-0.001-0.013c-0.001-0.027-0.003-0.057-0.005-0.085v-0.001
	c-0.02-0.307-0.042-0.618-0.064-0.926v-0.01l-0.007-0.085l-0.001-0.008c-0.001-0.03-0.004-0.057-0.007-0.087v-0.004
	c-0.004-0.061-0.009-0.12-0.013-0.182l-0.001-0.008c-1.04-13.769-4.517-27.243-10.27-39.796c-2.474-5.346-8.814-7.674-14.16-5.199
	c-5.322,2.463-7.657,8.762-5.227,14.099c22.02,48.266,0.743,105.244-47.523,127.264c-12.498,5.702-26.074,8.657-39.812,8.665
	c-26.919-0.033-52.595-11.335-70.799-31.165c-3.98-4.343-10.727-4.638-15.07-0.659c-4.332,3.969-4.639,10.695-0.685,15.042
	c4.34,4.74,9.06,9.118,14.113,13.089l0.003,0.003c0.046,0.036,0.091,0.07,0.137,0.107l0.001,0.001
	c0.023,0.018,0.044,0.035,0.068,0.052l0.003,0.003c0.023,0.018,0.04,0.033,0.064,0.051l0.009,0.007
	c0.02,0.016,0.044,0.034,0.064,0.051h0.001l0.068,0.052l0.005,0.004c0.022,0.018,0.042,0.034,0.065,0.051l0.001,0.003
	c0.023,0.017,0.044,0.033,0.068,0.051l0.005,0.005c0.253,0.195,0.506,0.39,0.76,0.585l0.005,0.004
	c0.021,0.016,0.038,0.03,0.059,0.046l0.016,0.01c0.017,0.014,0.039,0.031,0.057,0.044l0.013,0.01
	c0.017,0.013,0.036,0.029,0.055,0.042l0.018,0.013c0.017,0.013,0.036,0.029,0.055,0.042l0.016,0.013
	c0.018,0.013,0.034,0.025,0.051,0.038c0.008,0.007,0.016,0.013,0.025,0.018c0.014,0.012,0.035,0.027,0.051,0.039l0.016,0.012
	c0.018,0.013,0.038,0.029,0.056,0.042l0.014,0.012c0.021,0.016,0.038,0.027,0.057,0.043l0.012,0.009
	c0.021,0.016,0.038,0.027,0.059,0.043c0.005,0.005,0.011,0.009,0.017,0.013l0.056,0.043l0.003,0.001
	c0.023,0.018,0.043,0.033,0.066,0.051l0.013,0.009c0.042,0.031,0.085,0.063,0.125,0.094l0.005,0.004
	c0.042,0.03,0.083,0.061,0.124,0.092l0.02,0.014c0.023,0.017,0.042,0.031,0.065,0.048l0.004,0.003
	c0.017,0.014,0.039,0.03,0.056,0.043l0.018,0.013l0.053,0.039l0.018,0.014l0.051,0.038l0.022,0.017
	c0.018,0.013,0.034,0.023,0.051,0.036l0.021,0.016c0.014,0.01,0.033,0.025,0.048,0.035l0.029,0.022
	c0.013,0.009,0.031,0.022,0.043,0.031c0.009,0.007,0.018,0.013,0.027,0.021c0.016,0.01,0.031,0.022,0.046,0.033
	c0.008,0.007,0.02,0.014,0.027,0.02c0.014,0.012,0.034,0.025,0.048,0.036l0.021,0.014l0.049,0.038
	c0.008,0.005,0.02,0.013,0.027,0.02c0.014,0.01,0.03,0.022,0.046,0.033l0.026,0.021c0.016,0.01,0.031,0.022,0.046,0.033l0.03,0.022
	l0.043,0.031c0.01,0.007,0.021,0.014,0.03,0.021c0.014,0.011,0.028,0.022,0.043,0.031c0.012,0.009,0.025,0.02,0.038,0.029
	l0.035,0.025c0.009,0.008,0.021,0.016,0.03,0.023c0.06,0.043,0.118,0.085,0.177,0.128l0.009,0.007
	c0.017,0.013,0.038,0.027,0.056,0.04l0.017,0.013c0.014,0.01,0.027,0.02,0.043,0.03c0.011,0.009,0.022,0.017,0.034,0.025
	l0.036,0.027l0.036,0.026l0.035,0.025l0.039,0.029c0.012,0.008,0.025,0.017,0.036,0.026l0.036,0.026
	c0.014,0.01,0.021,0.016,0.036,0.026l0.038,0.027c0.012,0.009,0.023,0.017,0.036,0.026c0.013,0.01,0.025,0.018,0.039,0.029
	l0.033,0.022c0.014,0.01,0.026,0.02,0.04,0.029l0.036,0.027c0.012,0.008,0.025,0.018,0.036,0.026l0.035,0.025l0.042,0.03
	c0.012,0.008,0.02,0.013,0.031,0.022c0.017,0.013,0.033,0.023,0.051,0.036l0.021,0.014c0.017,0.013,0.035,0.025,0.052,0.038
	l0.025,0.017c0.016,0.012,0.033,0.023,0.048,0.034c0.009,0.007,0.017,0.013,0.026,0.018l0.048,0.035l0.027,0.018l0.072,0.052
	c0.025,0.017,0.047,0.033,0.07,0.049l0.025,0.017c0.02,0.014,0.038,0.027,0.057,0.04L71.189,448l0.066,0.047l0.014,0.01l0.063,0.044
	l0.012,0.008l0.061,0.043l0.021,0.014c0.02,0.013,0.035,0.025,0.055,0.038l0.021,0.016c0.018,0.012,0.036,0.025,0.053,0.036
	l0.022,0.016l0.053,0.038l0.023,0.016c0.017,0.013,0.034,0.023,0.051,0.036l0.023,0.016c0.02,0.014,0.036,0.025,0.055,0.038
	l0.02,0.014c0.02,0.013,0.04,0.027,0.06,0.042l0.013,0.008l0.065,0.046l0.01,0.007c0.022,0.016,0.043,0.031,0.065,0.047l0.01,0.007
	c0.022,0.016,0.048,0.034,0.07,0.048l0.004,0.004c0.23,0.159,0.46,0.315,0.691,0.473l0.004,0.003
	c0.022,0.016,0.048,0.033,0.072,0.048l0.009,0.007c0.022,0.016,0.044,0.03,0.066,0.046l0.01,0.007
	c0.023,0.017,0.046,0.031,0.069,0.047l0.004,0.003c0.026,0.017,0.048,0.033,0.074,0.049l0.003,0.003
	c0.026,0.017,0.049,0.033,0.076,0.051l0.001,0.001c0.025,0.016,0.048,0.033,0.073,0.048l0.007,0.005
	c0.309,0.207,0.62,0.414,0.93,0.618l0.001,0.001c0.052,0.034,0.103,0.068,0.155,0.102c0.051,0.033,0.103,0.068,0.154,0.1
	l0.005,0.004c0.025,0.016,0.051,0.033,0.074,0.048l0.001,0.001c0.026,0.017,0.051,0.034,0.077,0.051h0.001
	c10.051,6.56,21.054,11.53,32.621,14.736l0.003,0.001l0.086,0.023l0.009,0.003l0.086,0.023l0.004,0.001
	c0.029,0.008,0.057,0.016,0.087,0.023l0.005,0.001c0.029,0.009,0.059,0.017,0.087,0.025l0.005,0.001
	c0.03,0.008,0.057,0.016,0.087,0.023l0.004,0.001c0.862,0.234,1.727,0.46,2.595,0.676l0.005,0.001
	c0.03,0.007,0.059,0.014,0.089,0.021l0.004,0.001l0.089,0.022l0.005,0.001c0.03,0.007,0.059,0.014,0.087,0.021l0.005,0.001
	l0.087,0.022l0.008,0.001c0.029,0.008,0.06,0.014,0.089,0.022h0.001c0.031,0.008,0.061,0.014,0.091,0.022h0.003
	c0.405,0.099,0.809,0.194,1.215,0.289h0.001c0.03,0.007,0.06,0.014,0.09,0.021l0.008,0.001c0.03,0.007,0.057,0.013,0.087,0.021
	h0.004c0.03,0.008,0.059,0.014,0.089,0.021l0.007,0.001c0.03,0.007,0.06,0.013,0.089,0.021h0.003c0.03,0.007,0.06,0.013,0.089,0.021
	l0.008,0.001c0.313,0.07,0.624,0.139,0.938,0.208c0.031,0.007,0.061,0.013,0.092,0.021l0.007,0.001
	c0.027,0.005,0.053,0.012,0.081,0.017l0.023,0.005l0.07,0.016l0.021,0.004l0.073,0.016c0.006,0.002,0.013,0.003,0.02,0.004
	c0.025,0.007,0.052,0.012,0.078,0.017l0.012,0.003c0.026,0.007,0.053,0.012,0.079,0.017l0.017,0.004
	c0.027,0.005,0.055,0.012,0.082,0.017l0.008,0.003c0.031,0.007,0.06,0.012,0.091,0.02h0.001c0.313,0.065,0.628,0.132,0.941,0.194
	l0.012,0.003l0.082,0.017l0.012,0.003c0.027,0.005,0.053,0.01,0.082,0.016l0.014,0.004c0.027,0.005,0.052,0.01,0.081,0.016
	l0.012,0.003l0.079,0.016l0.017,0.004l0.081,0.016l0.009,0.003l0.083,0.016l0.014,0.003c0.027,0.005,0.055,0.012,0.083,0.017
	l0.008,0.001c0.03,0.007,0.055,0.01,0.083,0.017l0.013,0.003c0.25,0.048,0.501,0.096,0.754,0.145l0.01,0.003
	c0.03,0.005,0.056,0.01,0.086,0.016l0.005,0.001c0.029,0.005,0.059,0.01,0.086,0.016l0.016,0.003
	c0.025,0.005,0.053,0.01,0.079,0.016l0.014,0.003c0.026,0.005,0.052,0.009,0.078,0.014l0.018,0.004
	c0.026,0.004,0.051,0.009,0.077,0.014l0.017,0.003c0.026,0.005,0.051,0.009,0.077,0.014l0.018,0.003
	c0.025,0.005,0.052,0.01,0.078,0.014l0.016,0.004c0.025,0.004,0.049,0.009,0.076,0.013l0.02,0.004
	c0.026,0.005,0.053,0.009,0.079,0.014l0.013,0.003l0.085,0.016l0.009,0.001c0.223,0.04,0.443,0.079,0.665,0.118h0.001
	c0.033,0.005,0.061,0.01,0.092,0.016l0.01,0.001l0.085,0.016l0.012,0.001c0.029,0.005,0.052,0.009,0.079,0.014l0.022,0.004
	l0.072,0.012l0.022,0.004l0.072,0.012l0.026,0.005l0.068,0.012l0.026,0.004l0.068,0.012l0.029,0.004
	c0.023,0.005,0.044,0.008,0.068,0.012l0.023,0.004c0.026,0.005,0.047,0.008,0.073,0.013l0.022,0.003
	c0.026,0.005,0.051,0.009,0.077,0.013l0.016,0.003c0.026,0.004,0.052,0.009,0.078,0.013l0.017,0.003
	c0.029,0.005,0.056,0.009,0.085,0.014l0.009,0.001c0.03,0.005,0.059,0.01,0.089,0.014l0.007,0.001l0.383,0.063h0.003l0.092,0.014
	l0.008,0.001c0.029,0.005,0.056,0.009,0.085,0.014l0.02,0.003l0.076,0.012c0.006,0.002,0.013,0.002,0.02,0.003l0.073,0.012
	l0.023,0.004l0.074,0.012l0.02,0.003l0.072,0.012l0.026,0.004l0.074,0.012l0.017,0.003l0.081,0.012l0.013,0.003l0.082,0.012
	l0.014,0.003l0.078,0.012l0.018,0.003c0.026,0.004,0.055,0.009,0.081,0.013l0.013,0.001c0.029,0.004,0.059,0.009,0.087,0.013
	l0.008,0.001c0.03,0.005,0.059,0.009,0.09,0.013l0.005,0.001c0.129,0.02,0.257,0.038,0.385,0.057
	c0.03,0.004,0.063,0.009,0.092,0.013l0.022,0.003c0.023,0.004,0.047,0.008,0.072,0.01l0.025,0.004
	c0.025,0.004,0.048,0.007,0.072,0.01c0.008,0.001,0.016,0.002,0.023,0.003c0.022,0.004,0.048,0.008,0.07,0.01l0.027,0.004
	c0.022,0.004,0.043,0.007,0.065,0.009l0.035,0.005c0.02,0.003,0.042,0.005,0.061,0.009c0.01,0.001,0.019,0.002,0.029,0.004
	c0.023,0.003,0.044,0.005,0.068,0.009l0.029,0.004c0.022,0.003,0.042,0.007,0.064,0.009l0.033,0.004
	c0.022,0.004,0.04,0.007,0.063,0.009l0.033,0.004c0.022,0.004,0.044,0.007,0.066,0.009l0.026,0.004
	c0.022,0.004,0.044,0.007,0.066,0.009l0.031,0.004c0.021,0.004,0.043,0.007,0.063,0.009l0.031,0.004
	c0.021,0.003,0.04,0.005,0.061,0.009l0.036,0.004l0.083,0.012l0.007,0.001c0.098,0.013,0.191,0.025,0.289,0.038l0.013,0.001
	l0.085,0.012h0.008l0.086,0.012l0.016,0.003c0.026,0.003,0.055,0.007,0.081,0.01l0.018,0.001c0.025,0.004,0.049,0.007,0.074,0.01
	c0.008,0,0.02,0.003,0.027,0.003c0.022,0.004,0.047,0.007,0.069,0.009l0.027,0.004l0.065,0.008l0.034,0.004l0.06,0.008l0.038,0.005
	c0.018,0.003,0.036,0.004,0.055,0.007c0.016,0.003,0.023,0.003,0.039,0.005l0.06,0.008l0.034,0.004
	c0.02,0.003,0.042,0.005,0.061,0.007c0.011,0.002,0.022,0.004,0.034,0.005l0.063,0.008l0.033,0.004
	c0.021,0.003,0.042,0.004,0.063,0.007l0.033,0.004c0.023,0.004,0.046,0.007,0.068,0.009c0.008,0,0.02,0.003,0.027,0.003
	c0.026,0.004,0.051,0.007,0.077,0.009l0.017,0.003c0.033,0.004,0.063,0.007,0.094,0.01l0.001,0.001
	c0.065,0.007,0.13,0.014,0.194,0.022h0.005l0.09,0.012c0.008,0,0.016,0.001,0.023,0.003l0.072,0.008
	c0.009,0.001,0.018,0.002,0.027,0.003l0.068,0.008l0.034,0.004l0.06,0.008l0.035,0.004c0.021,0.001,0.042,0.004,0.063,0.007
	l0.034,0.004c0.02,0.003,0.04,0.004,0.061,0.007l0.033,0.004c0.021,0.003,0.042,0.004,0.061,0.007l0.039,0.004
	c0.018,0.003,0.038,0.005,0.056,0.007c0.013,0.002,0.025,0.003,0.038,0.004c0.02,0.003,0.038,0.005,0.059,0.007
	c0.013,0.002,0.025,0.003,0.038,0.004c0.018,0.003,0.039,0.005,0.057,0.007l0.036,0.004c0.021,0.003,0.038,0.004,0.057,0.007
	l0.042,0.004l0.052,0.007l0.043,0.004c0.016,0.003,0.035,0.004,0.052,0.007l0.043,0.004c0.021,0.003,0.042,0.004,0.061,0.007
	l0.031,0.004c0.022,0.001,0.047,0.004,0.07,0.007l0.026,0.003c0.126,0.013,0.257,0.027,0.383,0.039l0.029,0.004
	c0.022,0.001,0.047,0.004,0.069,0.007c0.009,0,0.018,0.001,0.027,0.003c0.02,0.001,0.046,0.004,0.066,0.007
	c0.011,0.002,0.022,0.002,0.033,0.003c0.022,0.003,0.044,0.005,0.066,0.007l0.027,0.004c0.022,0.001,0.043,0.004,0.065,0.005
	l0.035,0.004l0.063,0.007l0.031,0.003c0.021,0.003,0.044,0.004,0.065,0.007c0.008,0,0.023,0.003,0.031,0.003
	c0.02,0.003,0.046,0.004,0.066,0.007l0.03,0.003c0.021,0.003,0.039,0.004,0.06,0.005c0.012,0.001,0.029,0.004,0.04,0.004
	c0.018,0.003,0.039,0.004,0.057,0.007c0.012,0,0.024,0.001,0.036,0.003c0.021,0.003,0.04,0.004,0.061,0.005l0.034,0.004
	c0.021,0.001,0.042,0.004,0.063,0.005l0.035,0.004c0.021,0.001,0.038,0.003,0.059,0.005c0.012,0.001,0.026,0.003,0.036,0.003
	c0.025,0.003,0.048,0.005,0.073,0.007l0.021,0.003l0.091,0.008h0.005c0.065,0.007,0.128,0.012,0.193,0.018
	c0.012,0,0.023,0.001,0.035,0.003c0.021,0.001,0.042,0.004,0.061,0.005c0.008,0,0.025,0.003,0.033,0.003
	c0.022,0.003,0.042,0.004,0.064,0.005l0.038,0.004c0.018,0.001,0.039,0.003,0.057,0.005c0.012,0,0.029,0.001,0.04,0.003
	c0.02,0.001,0.036,0.003,0.055,0.005l0.044,0.004l0.052,0.004l0.042,0.003c0.018,0.003,0.035,0.004,0.055,0.005l0.044,0.004
	l0.049,0.004l0.046,0.004l0.049,0.004l0.049,0.004l0.047,0.004c0.016,0.001,0.029,0.003,0.044,0.003
	c0.018,0.003,0.035,0.004,0.053,0.005l0.044,0.003c0.018,0.001,0.035,0.004,0.055,0.005c0.012,0,0.027,0.001,0.039,0.003
	l0.059,0.004l0.038,0.004c0.021,0.001,0.046,0.003,0.066,0.005l0.027,0.001c0.022,0.003,0.046,0.004,0.069,0.005
	c0.01,0.002,0.02,0.002,0.03,0.003c0.023,0.001,0.047,0.004,0.072,0.005c0.008,0.001,0.016,0.002,0.023,0.001
	c0.025,0.003,0.044,0.004,0.069,0.005l0.029,0.003c0.064,0.005,0.126,0.009,0.19,0.014l0.042,0.003l0.056,0.004
	c0.012,0.001,0.027,0.003,0.039,0.003l0.056,0.004c0.012,0.001,0.029,0.003,0.04,0.003c0.018,0.001,0.039,0.004,0.059,0.005
	c0.013,0,0.025,0.001,0.038,0.003c0.018,0.001,0.036,0.001,0.055,0.003l0.048,0.004c0.016,0.001,0.031,0.003,0.047,0.003
	l0.051,0.004c0.014,0.001,0.029,0.003,0.043,0.003l0.052,0.004c0.014,0.001,0.034,0.003,0.048,0.003l0.046,0.004
	c0.017,0.001,0.034,0.001,0.051,0.003l0.044,0.004c0.02,0.001,0.035,0.001,0.055,0.003c0.012,0.001,0.029,0.003,0.04,0.003
	l0.055,0.004l0.043,0.003l0.055,0.004l0.042,0.003c0.018,0.001,0.034,0.001,0.053,0.003c0.016,0.001,0.029,0.003,0.044,0.003
	l0.049,0.004c0.016,0.001,0.031,0.001,0.047,0.003c0.014,0.001,0.031,0.001,0.046,0.003c0.02,0.001,0.031,0.003,0.051,0.003
	l0.052,0.004l0.044,0.003c0.016,0.001,0.038,0.003,0.055,0.003c0.023,0.001,0.051,0.004,0.074,0.005
	c0.021,0.001,0.042,0.003,0.063,0.003l0.034,0.003l0.061,0.004c0.016,0,0.031,0.001,0.047,0.003c0.017,0,0.033,0.001,0.049,0.003
	c0.016,0.001,0.033,0.001,0.048,0.003s0.031,0.001,0.048,0.003c0.016,0.001,0.034,0.001,0.049,0.003l0.047,0.003
	c0.016,0.001,0.033,0.001,0.048,0.003c0.014,0.001,0.033,0.001,0.047,0.003l0.051,0.003l0.047,0.003
	c0.016,0.001,0.031,0.001,0.047,0.003l0.051,0.003l0.046,0.003c0.016,0,0.035,0.001,0.052,0.003c0.016,0,0.027,0.001,0.043,0.003
	c0.018,0,0.035,0.001,0.053,0.003c0.016,0,0.03,0.001,0.046,0.001c0.018,0.001,0.033,0.003,0.051,0.003
	c0.012,0.001,0.033,0.003,0.044,0.003c0.016,0.001,0.036,0.001,0.052,0.003l0.046,0.003c0.018,0,0.034,0.001,0.053,0.003
	c0.016,0,0.026,0.001,0.042,0.001c0.018,0.001,0.038,0.003,0.056,0.003c0.012,0.001,0.03,0.001,0.042,0.003
	c0.021,0,0.043,0.001,0.063,0.003l0.031,0.001l0.072,0.004h0.027c0.064,0.004,0.13,0.007,0.194,0.009l0.02,0.001
	c0.025,0.001,0.052,0.001,0.077,0.003l0.043,0.003c0.018,0,0.034,0.001,0.052,0.001l0.046,0.003c0.018,0,0.034,0.001,0.053,0.003
	l0.043,0.001c0.018,0,0.034,0.001,0.052,0.003c0.016,0,0.029,0,0.044,0.001c0.02,0,0.036,0.001,0.055,0.003
	c0.016,0,0.025,0,0.04,0.001c0.021,0,0.036,0.001,0.057,0.001l0.038,0.003c0.021,0,0.042,0.001,0.063,0.001
	c0.012,0.001,0.023,0.002,0.035,0.001c0.021,0.001,0.036,0.001,0.057,0.003c0.016,0.001,0.029,0.001,0.044,0.001
	c0.017,0.001,0.035,0.001,0.052,0.003c0.016,0,0.029,0.001,0.044,0.001c0.018,0.001,0.036,0.001,0.055,0.003
	c0.012,0,0.029,0,0.04,0.001c0.021,0,0.039,0.001,0.06,0.001c0.013,0.001,0.025,0.002,0.038,0.001
	c0.018,0.001,0.035,0.001,0.053,0.003c0.016,0,0.031,0,0.047,0.001c0.018,0,0.033,0.001,0.052,0.001
	c0.016,0.001,0.027,0.001,0.043,0.001c0.018,0.001,0.043,0.001,0.061,0.003c0.012,0,0.023,0,0.035,0.001
	c0.02,0,0.043,0.001,0.064,0.001l0.034,0.001c0.02,0,0.038,0.001,0.056,0.001c0.017,0.001,0.027,0.001,0.043,0.001
	c0.064,0.003,0.129,0.004,0.194,0.007h0.021c0.025,0.001,0.051,0.001,0.076,0.003h0.038c0.021,0.001,0.036,0.001,0.057,0.003
	c0.012,0,0.034,0,0.046,0.001c0.017,0,0.036,0,0.053,0.001h0.036c0.021,0.001,0.042,0.001,0.063,0.003h0.035
	c0.021,0.001,0.042,0.001,0.063,0.001c0.013,0.001,0.025,0.002,0.038,0.001c0.02,0.001,0.039,0.001,0.057,0.001l0.043,0.001
	c0.018,0,0.036,0.001,0.055,0.001c0.016,0,0.026,0,0.043,0.001c0.016,0,0.036,0,0.053,0.001h0.046
	c0.017,0.001,0.034,0.001,0.049,0.001s0.033,0.001,0.049,0.001c0.016,0,0.03,0,0.047,0.001c0.02,0,0.03,0,0.049,0.001h0.052
	c0.016,0.001,0.027,0.001,0.043,0.001c0.018,0,0.039,0.001,0.059,0.001h0.039c0.021,0.001,0.04,0.001,0.061,0.001l0.035,0.001h0.063
	c0.012,0.001,0.024,0.002,0.036,0.001c0.022,0,0.047,0.001,0.07,0.001h0.026c0.031,0.001,0.059,0.001,0.09,0.001h0.008
	c0.033,0.001,0.065,0.001,0.098,0.001c0.016,0.001,0.035,0.001,0.051,0.001h0.044c0.016,0.001,0.034,0.001,0.049,0.001h0.051
	c0.012,0.001,0.034,0.001,0.046,0.001h0.049c0.016,0,0.035,0.001,0.051,0.001h0.048c0.016,0,0.031,0,0.047,0.001h0.096
	c0.017,0,0.036,0.001,0.053,0.001h0.098c0.016,0.001,0.029,0.001,0.044,0.001h0.099c0.017,0,0.033,0,0.049,0.001h0.199
	c0.016,0.001,0.026,0.001,0.043,0.001h0.293c0.021,0.001,0.038,0.001,0.059,0.001h0.234c64.801,0,117.333-52.532,117.333-117.333
	v-0.441c0-0.017,0-0.034-0.001-0.051L255.999,351.508z"/>
<g>
	<path style="fill:#F6EDFF;" d="M160.001,341.333h-42.667c-5.891,0-10.667-4.776-10.667-10.667c0-5.891,4.776-10.667,10.667-10.667
		l0,0h64c5.891,0,10.667-4.776,10.667-10.667c0-5.891-4.776-10.667-10.667-10.667h-64c-17.673,0-32,14.327-32,32s14.327,32,32,32
		h42.667c5.891,0,10.667,4.776,10.667,10.667c0,5.891-4.776,10.667-10.667,10.667h-64c-5.891,0-10.667,4.776-10.667,10.667
		c0,5.891,4.776,10.667,10.667,10.667h64c17.673,0,32-14.327,32-32S177.674,341.333,160.001,341.333z"/>
	<path style="fill:#F6EDFF;" d="M138.664,277.337L138.664,277.337c5.891,0,10.666,4.776,10.666,10.667v21.333
		c0,5.891-4.776,10.667-10.667,10.667h0c-5.891,0-10.667-4.776-10.667-10.667v-21.333
		C127.997,282.112,132.773,277.337,138.664,277.337z"/>
	<path style="fill:#F6EDFF;" d="M138.664,383.997L138.664,383.997c5.891,0,10.666,4.776,10.666,10.667v21.333
		c0,5.891-4.776,10.667-10.667,10.667h0c-5.891,0-10.667-4.776-10.667-10.667v-21.333
		C127.997,388.772,132.773,383.997,138.664,383.997z"/>
</g>
<path style="fill:#E62939;" d="M10.667,85.337L10.667,85.337c5.891,0,10.667,4.776,10.667,10.667V394.67
	c0,5.891-4.776,10.667-10.667,10.667l0,0C4.776,405.337,0,400.561,0,394.67V96.004C0,90.112,4.776,85.337,10.667,85.337z"/>
<g>
	<path style="fill:#FF3646;" d="M53.334,127.997h63.996c5.891,0,10.667,4.776,10.667,10.667v0c0,5.891-4.776,10.667-10.667,10.667
		H53.334c-5.891,0-10.667-4.776-10.667-10.667v0C42.667,132.772,47.443,127.997,53.334,127.997z"/>
	<path style="fill:#FF3646;" d="M138.664,170.667h63.996c5.891,0,10.667,4.776,10.667,10.667l0,0
		c0,5.891-4.776,10.667-10.667,10.667h-63.996c-5.891,0-10.667-4.776-10.667-10.667l0,0
		C127.997,175.442,132.773,170.667,138.664,170.667z"/>
	<path style="fill:#FF3646;" d="M53.334,213.337h63.996c5.891,0,10.667,4.776,10.667,10.667v0c0,5.891-4.776,10.667-10.667,10.667
		H53.334c-5.891,0-10.667-4.776-10.667-10.667v0C42.667,218.112,47.443,213.337,53.334,213.337z"/>
	<path style="fill:#FF3646;" d="M266.664,213.337h63.996c5.891,0,10.667,4.776,10.667,10.667v0c0,5.891-4.776,10.667-10.667,10.667
		h-63.996c-5.891,0-10.667-4.776-10.667-10.667v0C255.997,218.112,260.773,213.337,266.664,213.337z"/>
	<path style="fill:#FF3646;" d="M330.664,405.337h63.996c5.891,0,10.667,4.776,10.667,10.667l0,0
		c0,5.891-4.776,10.667-10.667,10.667h-63.996c-5.891,0-10.667-4.776-10.667-10.667l0,0
		C319.997,410.112,324.773,405.337,330.664,405.337z"/>
	<path style="fill:#FF3646;" d="M330.664,170.667h63.996c5.891,0,10.667,4.776,10.667,10.667l0,0
		c0,5.891-4.776,10.667-10.667,10.667h-63.996c-5.891,0-10.667-4.776-10.667-10.667l0,0
		C319.997,175.442,324.773,170.667,330.664,170.667z"/>
	<path style="fill:#FF3646;" d="M202.664,127.997h63.996c5.891,0,10.667,4.776,10.667,10.667v0c0,5.891-4.776,10.667-10.667,10.667
		h-63.996c-5.891,0-10.667-4.776-10.667-10.667v0C191.997,132.772,196.773,127.997,202.664,127.997z"/>
</g>
<g>
</g>
<g>
</g>
<g>
</g>
<g>
</g>
<g>
</g>
<g>
</g>
<g>
</g>
<g>
</g>
<g>
</g>
<g>
</g>
<g>
</g>
<g>
</g>
<g>
</g>
<g>
</g>
<g>
</g>
</svg>
