<svg id="Layer_1" enable-background="new 0 0 68 68" viewBox="0 0 68 68" xmlns="http://www.w3.org/2000/svg"><g><g><g enable-background="new"><g><g><path d="m32.5461082 66-29.947539-17.4036064-.0078655-1.1725731 29.9475386 17.4036026z" fill="#333"/></g></g><g><g><path d="m32.5382423 64.8274231-29.9475386-17.4036026 33.021559-19.0650082 29.9475365 17.4036084z" fill="#4d4d4d"/></g><g><path d="m35.6125069 7.1322761 26.7831192 15.5648408v23.0579223l-26.7831192-15.5648422z" fill="#6565bb"/></g><g><path d="m5.7577319 24.3704128 26.7831235 15.5648403v23.0579224l-26.7831235-15.5648422z" fill="#e3e6f9"/></g><g><g><g><path d="m22.5522137 38.648159-.0128193 4.5219918-5.1655731-2.9823418.0128192-4.5219917z" fill="#3e62f8"/></g></g><g><g><path d="m29.3334522 42.5633087-.0128212 4.5219917-5.1730098-2.9866371.0128192-4.5219917z" fill="#3e62f8"/></g></g></g><g><path d="m62.3956261 22.1750221v23.5800171l-3.5799561 2.0700073v-18.5700073l-22.7000122 13.1099854v18.5700073l-3.5700073 2.0599975v-23.0599975l14.9199829-17.2399902z" fill="#bac2f0"/></g></g><g><g><path d="m65.5597992 45.7624207.0078659 1.172573-33.0215569 19.0650063-.0078659-1.1725769z" fill="#1e1b17"/></g></g></g><g enable-background="new"><g><g><path d="m48.9475746 19.9938965-29.9475384-17.4036079 17.0524235-.5902886 29.9475403 17.4036083z" fill="#ef6c79"/></g></g><g><g><path d="m32.9855461 40.9749451-29.9475398-17.4036084-1.0380063-1.9111385 29.9475384 17.4036064z" fill="#ce3e50"/></g></g><g><g><path d="m31.9475384 39.0638046-29.9475384-17.4036064 17.0000362-19.0699096 29.9475384 17.4036079z" fill="#f0555d"/></g></g><g><g><path d="m48.9475746 19.9938965 17.0524254-.5902882-1.0238113 3.101532-16.0199166.5562267-15.970726 17.9135781-1.0380077-1.9111405z" fill="#ce3e50"/></g></g></g></g><g><g><g><path d="m44.3018684 49.7223854-.011425 4.0300903-3.4412384 1.9998284.011425-4.0300865z" fill="#e88503"/></g><g><path d="m42.3147469 50.8747482v4.0228539l.5215835-.303112v-4.024292z" fill="#dd4351"/></g><g><g><path d="m40.86063 51.7222176-.011425 4.0300865-3.4626999-1.9991913.011425-4.0300865z" fill="#ffb850"/></g></g><g><path d="m39.3829041 50.8747482v4.0228539l-.5215836-.303112v-4.024292z" fill="#dd4351"/></g><g><path d="m44.301281 49.723053-3.4410744 1.9988327-3.4620857-1.9988327 3.4410744-2.0005875z" fill="#ffca6c"/></g><g><g><path d="m42.8415298 50.5701981-.5215835.3045501-3.4638252-2.0005836.5233345-.3028107z" fill="#f0555d"/></g></g><g><g><path d="m38.8561211 50.5701981.5215835.3045501 3.4638252-2.0005836-.5233345-.3028107z" fill="#f0555d"/></g></g></g><g><g><path d="m44.3018684 45.4628983-.011425 4.0300865-3.4412384 1.9998283.011425-4.0300865z" fill="#e88503"/></g><g><path d="m42.3147469 46.6152573v4.0228538l.5215835-.3031082v-4.0242958z" fill="#dd4351"/></g><g><g><path d="m40.86063 47.4627266-.011425 4.0300865-3.4626999-1.9991875.011425-4.0300903z" fill="#ffb850"/></g></g><g><path d="m39.3829041 46.6152573v4.0228538l-.5215836-.3031082v-4.0242958z" fill="#dd4351"/></g><g><path d="m44.301281 45.463562-3.4410744 1.9988327-3.4620857-1.9988327 3.4410744-2.0005836z" fill="#ffca6c"/></g><g><g><path d="m42.8415298 46.3107071-.5215835.3045502-3.4638252-2.0005837.5233345-.3028068z" fill="#f0555d"/></g></g><g><g><path d="m38.8561211 46.3107071.5215835.3045502 3.4638252-2.0005837-.5233345-.3028068z" fill="#f0555d"/></g></g></g></g><g><path d="m58.81567 29.2550392v18.5700073l-2 1.1599732v-16.2600098l-18.7000122 10.7900391v16.2600097l-2 1.1599732v-18.5700073z" fill="#e3e6f9"/></g><g><path d="m56.81567 32.7250099v16.2600098l-2.1500244-1.25v-13.7699585z" fill="#bac2f0"/></g><g><g><path d="m45.4076843 64.3778-7.0219841-4.0807305 19.3338318-11.1623916 7.0219841 4.0807304z" fill="#4d4d4d"/></g></g><g><g><g><path d="m58.6990089 49.0068512-.0163192 5.7558746-4.9148674 2.8562088.0163192-5.7558746z" fill="#e88503"/></g><g><path d="m55.8609467 50.6526833v5.7455444l.7449379-.4329109v-5.7476006z" fill="#dd4351"/></g><g><g><path d="m53.7841415 51.86306-.0163192 5.7558746-4.9455147-2.8552932.0163154-5.7558785z" fill="#ffb850"/></g></g><g><path d="m51.6736183 50.6526833v5.7455444l-.7449417-.4329109v-5.7476006z" fill="#dd4351"/></g><g><path d="m58.6981697 49.0078011-4.9146309 2.8547821-4.9446411-2.8547821 4.9146271-2.8572884z" fill="#ffca6c"/></g><g><g><path d="m56.6133156 50.2177162-.7449379.4349671-4.9471321-2.8572884.7474441-.4324799z" fill="#f0555d"/></g></g><g><g><path d="m50.9212456 50.2177162.7449417.4349671 4.9471283-2.8572884-.7474404-.4324799z" fill="#f0555d"/></g></g></g><g><g><path d="m57.6379776 44.5469475-.0128098 4.5191955-3.8588829 2.2425385.0128098-4.5191956z" fill="#e88503"/></g><g><path d="m55.409687 45.8391647v4.5110855l.5848885-.3399009v-4.5126992z" fill="#dd4351"/></g><g><g><path d="m53.7790947 46.7894859-.0128098 4.5191956-3.8829498-2.2418213.0128136-4.5191956z" fill="#ffb850"/></g></g><g><path d="m52.1220284 45.8391647v4.5110855l-.5848847-.3399009v-4.5126992z" fill="#dd4351"/></g><g><path d="m57.6373215 44.5476913-3.8586998 2.2414208-3.8822594-2.2414208 3.858696-2.2433853z" fill="#ffca6c"/></g><g><g><path d="m56.0004082 45.4976501-.5848847.3415146-3.8842163-2.2433853.586853-.3395576z" fill="#f0555d"/></g></g><g><g><path d="m51.5313072 45.4976501.5848885.3415146 3.8842125-2.2433853-.5868492-.3395576z" fill="#f0555d"/></g></g></g></g><g><g><path d="m45.4076843 64.3778-6.0255737-3.5016594.0078735 1.1725464 6.0177002 3.4971428z" fill="#333"/></g></g><g><g><path d="m45.4076843 64.3778 19.3338318-11.1623917-.0078735 1.1725464-19.3259583 11.1578751z" fill="#1e1b17"/></g></g></g></svg>