<svg xmlns="http://www.w3.org/2000/svg" height="512pt" version="1.1" viewBox="0 0 512 512" width="512pt">
<g id="surface1">
<path d="M 512 256 C 512 397.386719 397.386719 512 256 512 C 114.613281 512 0 397.386719 0 256 C 0 114.613281 114.613281 0 256 0 C 397.386719 0 512 114.613281 512 256 Z M 512 256 " style=" stroke:none;fill-rule:nonzero;fill:rgb(98.039216%,36.470588%,5.882353%);fill-opacity:1;" />
<path d="M 418.792969 204.355469 L 96.8125 311.808594 L 294.167969 509.164062 C 404.832031 492.621094 492.34375 405.253906 509.097656 294.65625 Z M 418.792969 204.355469 " style=" stroke:none;fill-rule:nonzero;fill:rgb(84.705882%,29.803922%,5.882353%);fill-opacity:1;" />
<path d="M 256 128.5 C 168.839844 128.5 93.941406 180.949219 61.109375 256 C 93.941406 331.050781 168.839844 383.5 256 383.5 C 343.160156 383.5 418.058594 331.050781 450.890625 256 C 418.058594 180.949219 343.160156 128.5 256 128.5 Z M 256 128.5 " style=" stroke:none;fill-rule:nonzero;fill:rgb(100%,100%,100%);fill-opacity:1;" />
<path d="M 256 383.5 C 343.160156 383.5 418.058594 331.050781 450.890625 256 L 61.109375 256 C 93.941406 331.050781 168.839844 383.5 256 383.5 Z M 256 383.5 " style=" stroke:none;fill-rule:nonzero;fill:rgb(92.156863%,92.156863%,94.117647%);fill-opacity:1;" />
<path d="M 373.941406 256 C 373.941406 321.136719 321.136719 373.941406 256 373.941406 C 190.863281 373.941406 138.058594 321.136719 138.058594 256 C 138.058594 190.863281 190.863281 138.058594 256 138.058594 C 321.136719 138.058594 373.941406 190.863281 373.941406 256 Z M 373.941406 256 " style=" stroke:none;fill-rule:nonzero;fill:rgb(35.294118%,32.941176%,87.843137%);fill-opacity:1;" />
<path d="M 256 373.941406 C 321.136719 373.941406 373.941406 321.136719 373.941406 256 L 138.058594 256 C 138.058594 321.136719 190.863281 373.941406 256 373.941406 Z M 256 373.941406 " style=" stroke:none;fill-rule:nonzero;fill:rgb(22.745098%,25.490196%,80%);fill-opacity:1;" />
<path d="M 335.203125 256 C 335.203125 299.742188 299.742188 335.203125 256 335.203125 C 212.257812 335.203125 176.796875 299.742188 176.796875 256 C 176.796875 212.257812 212.257812 176.796875 256 176.796875 C 299.742188 176.796875 335.203125 212.257812 335.203125 256 Z M 335.203125 256 " style=" stroke:none;fill-rule:nonzero;fill:rgb(29.411765%,33.333333%,40.784314%);fill-opacity:1;" />
<path d="M 256 335.203125 C 299.742188 335.203125 335.203125 299.742188 335.203125 256 L 176.796875 256 C 176.796875 299.742188 212.257812 335.203125 256 335.203125 Z M 256 335.203125 " style=" stroke:none;fill-rule:nonzero;fill:rgb(19.607843%,21.568627%,31.372549%);fill-opacity:1;" />
<path d="M 231.246094 207.058594 L 306.753906 256 L 231.246094 304.941406 Z M 231.246094 207.058594 " style=" stroke:none;fill-rule:nonzero;fill:rgb(100%,100%,100%);fill-opacity:1;" />
<path d="M 231.246094 256 L 231.246094 304.941406 L 306.753906 256 Z M 231.246094 256 " style=" stroke:none;fill-rule:nonzero;fill:rgb(92.156863%,92.156863%,94.117647%);fill-opacity:1;" />
</g>
</svg>