<svg clip-rule="evenodd" fill-rule="evenodd" height="128" image-rendering="optimizeQuality" shape-rendering="geometricPrecision" text-rendering="geometricPrecision" viewBox="0 0 13322 14985" width="114" xmlns="http://www.w3.org/2000/svg"><g id="Layer_x0020_1"><g id="_568720352"><path d="m7320 182 5342 3084c420 242 660 658 660 1142v6168c0 485-240 901-660 1143l-5342 3084c-419 242-899 242-1319 0l-5342-3084c-419-242-659-658-659-1143v-6168c0-484 240-900 659-1142l5342-3084c420-243 900-243 1319 0z" fill="#1c3b5c"/><g><g><path d="m6409 2912c1640 0 3002 1182 3283 2740 820 23 1515 548 1787 1280 458 230 772 703 772 1251 0 772-627 1399-1400 1399h-1214-3228-3373c-1085 0-1965-880-1965-1965 0-1086 880-1965 1965-1965 31 0 61 0 91 2 280-1559 1643-2742 3282-2742z" fill="#e1e3e8"/><g fill="#fff"><path d="m9692 5652c820 23 1515 548 1787 1280-275 1804-2558 1819-2558 1819 1282-1219 771-3099 771-3099z"/><path d="m3036 5652c31 0 61 0 91 2 280-1559 1643-2742 3282-2742 834 0 1596 305 2180 810 31 182 47 369 47 560 0 1842-1493 3335-3335 3335-847 0-1620-316-2208-836-283 809-1031 1399-1924 1451-63-193-98-400-98-615 0-1086 880-1965 1965-1965z"/></g></g><g><path d="m7045 11614c-176-55-341-132-493-226l-359 277-242-223-242-223 247-381c-107-145-197-304-266-473l-454 14-65-323-64-322 424-163c-1-90 4-181 14-272 11-91 27-180 48-267l-375-256 137-299 138-299 438 117c106-148 230-282 368-399l-153-428 287-161 287-161 286 353c169-57 348-94 532-107l127-436 327 38 327 38 24 454c176 55 341 131 493 226l359-278 242 223 242 223-247 382c107 145 197 304 266 472l454-13 65 323 64 322-424 163c1 90-4 180-14 271-11 92-27 181-48 268l375 256-137 299-138 299-439-117c-105 148-229 282-367 398l153 428-287 162-287 161-286-353c-169 57-348 94-532 107l-127 436-327-38-327-39zm501-793c-703-82-1206-717-1124-1419 82-703 718-1206 1420-1124 703 82 1205 718 1124 1420-82 702-718 1205-1420 1123z" fill="#53b4ed"/><path d="m7510 11125c-869-102-1492-889-1391-1759 102-870 889-1492 1759-1391 869 102 1492 889 1391 1758-102 870-889 1493-1759 1392zm36-304c-703-82-1206-717-1124-1419 82-703 718-1206 1420-1124 703 82 1205 718 1124 1420-82 702-718 1205-1420 1123z" fill="#43a6e0"/><path d="m4048 12674c-75-23-145-56-210-96l-153 118-103-95-103-95 105-162c-46-62-84-130-113-202l-194 6-27-138-28-137 181-69c0-39 2-77 6-116 5-39 12-77 21-114l-160-109 58-128 59-127 187 50c45-63 98-120 156-170l-65-182 122-69 123-69 121 151c73-24 149-40 227-46l54-185 140 16 139 16 10 193c75 24 145 56 210 97l153-119 103 95 104 95-106 163c46 62 84 129 113 201l194-5 28 137 27 137-181 70c1 38-1 77-6 115-4 39-11 77-20 114l160 110-59 127-58 127-187-50c-45 64-98 121-157 170l65 183-122 68-122 69-122-150c-72 24-148 40-227 45l-54 186-139-16-140-17zm232-496c-212-25-363-216-338-428 24-212 216-363 427-338 212 24 363 216 339 427-25 212-216 364-428 339z" fill="#ffc42e"/><path d="m4257 12375c-321-37-550-327-513-648 38-320 328-550 648-513 321 38 550 328 513 648-37 321-327 550-648 513zm23-197c-212-25-363-216-338-428 24-212 216-363 427-338 212 24 363 216 339 427-25 212-216 364-428 339z" fill="#eaa43a"/></g></g></g></g></svg>