<svg id="OBJECT" height="512" viewBox="0 0 32 32" width="512" xmlns="http://www.w3.org/2000/svg"><g fill="#8481e2"><path d="m26.5 7.86h2v7.28h-2z" transform="matrix(.962 -.275 .275 .962 -2.1 8)"/><path d="m18.86 10.5h7.28v2h-7.28z" transform="matrix(.27 -.96 .96 .27 5.26 29.97)"/><path d="m15 9h2v11h-2z"/></g><rect fill="#dc72a9" height="9" rx="1" width="6" x="13" y="18"/><path d="m15 21a1 1 0 0 1 1-1h3v-1a1 1 0 0 0 -1-1h-4a1 1 0 0 0 -1 1v7a1 1 0 0 0 1 1h1z" fill="#c15291"/><path d="m8.5 7.86h2v7.28h-2z" fill="#8481e2" transform="matrix(.962 -.275 .275 .962 -2.79 3.05)"/><path d="m.86 10.5h7.28v2h-7.28z" fill="#8481e2" transform="matrix(.27 -.96 .96 .27 -7.79 12.67)"/><path d="m13 3h-9a3 3 0 0 0 -3 3v2a1 1 0 0 0 1 1h11a1 1 0 0 0 1-1v-4a1 1 0 0 0 -1-1z" fill="#6cafff"/><path d="m28 3h-9a1 1 0 0 0 -1 1v4a1 1 0 0 0 1 1h11a1 1 0 0 0 1-1v-2a3 3 0 0 0 -3-3z" fill="#6cafff"/><path d="m6 5h8v-1a1 1 0 0 0 -1-1h-9a3 3 0 0 0 -3 3v2a1 1 0 0 0 1 1h1v-1a3 3 0 0 1 3-3z" fill="#4a8fd3"/><path d="m30 5a3 3 0 0 1 .86.14 3 3 0 0 0 -2.86-2.14h-9a1 1 0 0 0 -1 1v4a1 1 0 0 0 1 1h3a4 4 0 0 1 4-4z" fill="#4a8fd3"/><path d="m10.5 14h-7a1 1 0 0 0 -1 1v3a3 3 0 0 0 3 3h3a3 3 0 0 0 3-3v-3a1 1 0 0 0 -1-1z" fill="#ffc144"/><path d="m10.5 19h-3a3 3 0 0 1 -3-3v-2h-1a1 1 0 0 0 -1 1v3a3 3 0 0 0 3 3h3a3 3 0 0 0 2.86-2.14 3 3 0 0 1 -.86.14z" fill="#d3922a"/><path d="m28.5 14h-7a1 1 0 0 0 -1 1v3a3 3 0 0 0 3 3h3a3 3 0 0 0 3-3v-3a1 1 0 0 0 -1-1z" fill="#ffc144"/><path d="m28.5 19h-3a3 3 0 0 1 -3-3v-2h-1a1 1 0 0 0 -1 1v3a3 3 0 0 0 3 3h3a3 3 0 0 0 2.86-2.14 3 3 0 0 1 -.86.14z" fill="#d3922a"/><path d="m1 14h12v2h-12z" fill="#f5eeec"/><path d="m19 14h12v2h-12z" fill="#f5eeec"/><path d="m24 29.76-.72-2.87a2.48 2.48 0 0 0 -2.45-1.89h-9.66a2.48 2.48 0 0 0 -2.42 1.89l-.75 2.87a1 1 0 0 0 .18.86 1 1 0 0 0 .82.38h14a1 1 0 0 0 .79-.38 1 1 0 0 0 .21-.86z" fill="#6cafff"/><path d="m10.75 28.89a2.48 2.48 0 0 1 2.42-1.89h9.66a2.31 2.31 0 0 1 .46.05v-.16a2.48 2.48 0 0 0 -2.46-1.89h-9.66a2.48 2.48 0 0 0 -2.42 1.89l-.75 2.87a1 1 0 0 0 .18.86 1 1 0 0 0 .82.38h1.22z" fill="#4a8fd3"/><path d="m4 29h24v2h-24z" fill="#f5eeec"/><rect fill="#dc72a9" height="10" rx="2" width="8" x="12" y="1"/><path d="m16 3h4a2 2 0 0 0 -2-2h-4a2 2 0 0 0 -2 2v6a2 2 0 0 0 2 2v-6a2 2 0 0 1 2-2z" fill="#c15291"/><path d="m15 4.37h2v3h-2z" fill="#f5eeec"/></svg>