<svg id="Layer_2_00000040544715005265768320000007618273037141444540_" enable-background="new 0 0 512 512" viewBox="0 0 512 512" xmlns="http://www.w3.org/2000/svg"><g id="Layer_1-2"><g id="WEBM"><g id="BG"><path d="m153.7.5 302.2 36.5c18 2.2 30.8 18.5 28.6 36.5l-49.5 409.4c-2.2 18-18.5 30.8-36.5 28.6l-302.2-36.5c-18-2.2-30.8-18.5-28.6-36.5l49.5-409.4c2.2-18 18.5-30.8 36.5-28.6z" fill="#449ecc"/><path d="m123.9 17h304.4c18.1 0 32.8 14.7 32.8 32.8v412.4c0 18.1-14.7 32.8-32.8 32.8h-304.4c-18.1 0-32.8-14.7-32.8-32.8v-412.4c0-18.1 14.7-32.8 32.8-32.8z" fill="#52c0f7"/><path d="m37.7 308h277.3c5.7 0 10.4 4.7 10.4 10.4v90.2c0 5.7-4.7 10.4-10.4 10.4h-277.3c-5.7 0-10.4-4.7-10.4-10.4v-90.2c0-5.7 4.7-10.4 10.4-10.4z" fill="#07c"/><g fill="#efefef"><path d="m403 92h-247.4c-1.4 0-2.5-1.1-2.5-2.5s1.1-2.5 2.5-2.5h247.4c1.4 0 2.5 1.1 2.5 2.5s-1.2 2.5-2.5 2.5z"/><path d="m403 123.4h-247.4c-1.4 0-2.5-1.1-2.5-2.5s1.1-2.5 2.5-2.5h247.4c1.4 0 2.5 1.1 2.5 2.5s-1.2 2.5-2.5 2.5z"/><path d="m403 154.7h-247.4c-1.4 0-2.5-1.1-2.5-2.5s1.1-2.5 2.5-2.5h247.4c1.4 0 2.5 1.1 2.5 2.5s-1.2 2.5-2.5 2.5z"/><path d="m403 186.1h-247.4c-1.4 0-2.5-1.1-2.5-2.5s1.1-2.5 2.5-2.5h247.4c1.4 0 2.5 1.1 2.5 2.5s-1.2 2.5-2.5 2.5z"/><path d="m403 217.5h-247.4c-1.4 0-2.5-1.1-2.5-2.5s1.1-2.5 2.5-2.5h247.4c1.4 0 2.5 1.1 2.5 2.5s-1.2 2.5-2.5 2.5z"/><path d="m403 248.8h-247.4c-1.4 0-2.5-1.1-2.5-2.5s1.1-2.5 2.5-2.5h247.4c1.4 0 2.5 1.1 2.5 2.5s-1.2 2.5-2.5 2.5z"/></g></g><g fill="#fff"><path d="m44.4 335.5h16.4l5.9 31.3 8.7-31.3h16.4l8.7 31.3 5.9-31.3h16.3l-12.3 56h-17l-9.8-35.2-9.8 35.2h-17s-12.4-56-12.4-56z"/><path d="m128.3 335.5h46.3v12h-29v8.9h26.9v11.4h-26.9v11h29.9v12.7h-47.2z"/><path d="m184.8 335.5h32.4c5.4 0 9.5 1.3 12.4 4s4.3 6 4.3 9.9c0 3.3-1 6.1-3.1 8.5-1.4 1.6-3.4 2.8-6 3.7 4 1 7 2.6 8.9 5s2.8 5.3 2.8 8.9c0 2.9-.7 5.5-2 7.8-1.4 2.3-3.2 4.1-5.5 5.5-1.4.8-3.6 1.5-6.6 1.8-3.9.5-6.5.8-7.8.8h-29.9zm17.5 22h7.5c2.7 0 4.6-.5 5.6-1.4 1.1-.9 1.6-2.3 1.6-4 0-1.6-.5-2.9-1.6-3.8s-2.9-1.4-5.5-1.4h-7.6zm0 22h8.8c3 0 5.1-.5 6.3-1.6s1.8-2.5 1.8-4.3c0-1.6-.6-3-1.8-4s-3.3-1.5-6.4-1.5h-8.8z"/><path d="m245.4 335.5h22.7l8.8 34 8.7-34h22.7v56h-14.2v-42.7l-10.9 42.7h-12.8l-10.9-42.7v42.7h-14.2z"/></g></g></g></svg>