<svg id="Layer_1" enable-background="new 0 0 56 56" height="512" viewBox="0 0 56 56" width="512" xmlns="http://www.w3.org/2000/svg"><g id="_x36_8"><g><g enable-background="new"><g><g><g><path d="m26.5 37.5-9.7 5.5-2.7-1.6-.1-16.3 9.7-5.6 2.7 1.6z" fill="#111d33"/></g></g></g></g></g><g><g enable-background="new"><g><g><g><path d="m42 46.4-9.7 5.6-2.7-1.6-.1-16.3 9.7-5.6 2.7 1.6z" fill="#111d33"/></g></g></g></g></g><g><g><g><g enable-background="new"><g><g><g><path d="m32.3 52-2.7-1.6-.1-16.3 2.8 1.6z" fill="#111d33"/></g></g></g><g><g><g><path d="m32.3 35.7-2.8-1.6 9.7-5.6 2.7 1.6z" fill="#4c5c75"/></g></g></g><g><g><g><path d="m41.9 30.1.1 16.3-9.7 5.6v-16.3z" fill="#1d2943"/></g></g></g></g></g><g><g enable-background="new"><g><g><g><path d="m16.8 43-2.7-1.6-.1-16.3 2.8 1.6z" fill="#111d33"/></g></g></g><g><g><g><path d="m16.8 26.7-2.8-1.6 9.7-5.6 2.7 1.7z" fill="#4c5c75"/></g></g></g><g><g><g><path d="m26.4 21.2.1 16.3-9.7 5.5v-16.3z" fill="#1d2943"/></g></g></g></g></g><g><g><g><path d="m38.7 31.3c-.4 0-.7-.3-.7-.7 0-10.9-3.5-22.2-7.6-24.6-.9-.5-1.8-.6-2.6-.1-2.2 1.3-4.4 6.5-4.4 15.4 0 .4-.3.7-.7.7-.4 0-.7-.3-.7-.7 0-8.5 2-14.9 5.2-16.7 1.3-.7 2.7-.7 4.1.1 4.7 2.7 8.4 14.1 8.4 25.9-.2.3-.6.7-1 .7z" fill="#72d561"/></g></g></g><g><g><g><path d="m35.8 33c-.4 0-.7-.3-.7-.7 0-10.9-3.5-22.2-7.6-24.6-.9-.5-1.8-.6-2.6-.1-2.2 1.3-4.4 6.5-4.4 15.4 0 .4-.3.7-.7.7-.4 0-.7-.3-.7-.7 0-8.5 2-14.9 5.2-16.7 1.3-.7 2.7-.7 4.1.1 4.7 2.7 8.4 14.1 8.4 25.9-.3.4-.6.7-1 .7z" fill="#f45170"/></g></g></g><g><g><g><path d="m32.8 34.7c-.4 0-.7-.3-.7-.7 0-10.9-3.5-22.2-7.6-24.6-.9-.5-1.8-.6-2.6-.1-2.2 1.3-4.4 6.5-4.4 15.4 0 .4-.3.7-.7.7-.4 0-.7-.3-.7-.7 0-8.5 2-14.9 5.2-16.7 1.3-.7 2.7-.7 4.1.1 4.7 2.7 8.4 14.1 8.4 25.9-.3.4-.6.7-1 .7z" fill="#ffd06c"/></g></g></g></g><g><g><g><g><g><path d="m40.9 34.9-1.2.6v-2.2l1.2-.7z" fill="#4c5c75"/></g></g><g><g><path d="m34.5 36.3.1 2.2-1.2.7v-2.3z" fill="#4c5c75"/></g></g><g><g><path d="m37.7 34.4v2.3l-1.1.6v-2.2z" fill="#4c5c75"/></g></g></g></g><g><g><g><g><path d="m40.9 45.2-1.2.7v-2.3l1.2-.6z" fill="#4c5c75"/></g></g><g><g><path d="m34.5 46.6.1 2.3-1.2.6v-2.2z" fill="#4c5c75"/></g></g><g><g><path d="m37.7 44.8v2.2l-1.1.7v-2.3z" fill="#4c5c75"/></g></g></g></g></g><g><g><g><g><g><path d="m25.4 25.9-1.2.6v-2.2l1.2-.7z" fill="#4c5c75"/></g></g><g><g><path d="m19 27.3v2.2l-1.1.7v-2.3z" fill="#4c5c75"/></g></g><g><g><path d="m22.2 25.5v2.2l-1.1.7v-2.3z" fill="#4c5c75"/></g></g></g></g><g><g><g><g><path d="m25.4 36.2-1.2.7v-2.3l1.2-.6z" fill="#4c5c75"/></g></g><g><g><path d="m19 37.6v2.3l-1.1.7v-2.3z" fill="#4c5c75"/></g></g><g><g><path d="m22.2 35.8v2.3l-1.1.6v-2.2z" fill="#4c5c75"/></g></g></g></g></g></g></g></svg>