<svg id="Image" enable-background="new 0 0 64 64" height="64" viewBox="0 0 64 64" width="64" xmlns="http://www.w3.org/2000/svg"><g id="XMLID_2_"><g><path d="m58.98 31.37c.02.21.02.42.02.63 0 5.31-1.53 10.26-4.19 14.43-.93.84-1.97 1.63-3.11 2.36.55-2.46.8-4.93.76-7.36 3.95-2.71 6.38-6.22 6.52-10.06z" fill="#85ceff"/><path d="m58.98 31.35s.01.01 0 .02c-.14 3.84-2.57 7.35-6.52 10.06-.03-3-.49-5.95-1.34-8.77 3.67-2.61 5.88-5.98 5.88-9.66 0-.31-.01-.63-.05-.93.19.33.36.67.53 1.01.01.01.02.02.02.03.9 2.58 1.42 5.35 1.48 8.24z" fill="#85ceff"/><path d="m56.95 22.07c.04.3.05.62.05.93 0 3.68-2.21 7.05-5.88 9.66-.8-2.7-1.97-5.28-3.45-7.67 3.31-2.11 5.33-4.91 5.33-7.98 1.53 1.45 2.87 3.15 3.95 5.06z" fill="#c2e7ff"/><path d="m56.87 21.47c.04.2.06.4.08.6-1.08-1.91-2.42-3.61-3.95-5.06v-.01c-2.04-1.93-4.43-3.43-7.02-4.44-.23-2.38-2.27-4.48-5.34-5.85.25-.02.49-.03.74-.03h.02c6.97 2.59 12.58 7.98 15.47 14.79z" fill="#85ceff"/><path d="m52.46 41.43c.04 2.43-.21 4.9-.76 7.36-2.93 1.86-6.51 3.32-10.49 4.2.5-2.37.82-4.77.96-7.16 4-.97 7.52-2.48 10.29-4.4z" fill="#85ceff"/><path d="m51.12 32.66c.85 2.82 1.31 5.77 1.34 8.77-2.77 1.92-6.29 3.43-10.29 4.4.19-3.03.1-6.07-.25-9.06 3.58-.93 6.73-2.35 9.2-4.11z" fill="#c2e7ff"/><path d="m51.7 48.79c-.18.77-.38 1.54-.61 2.3-3.07 3.07-6.86 5.4-11.1 6.71.49-1.59.9-3.2 1.22-4.81 3.98-.88 7.56-2.34 10.49-4.2z" fill="#85ceff"/><path d="m47.67 24.99c1.48 2.39 2.65 4.97 3.45 7.67-2.47 1.76-5.62 3.18-9.2 4.11-.34-2.95-.94-5.86-1.8-8.7 2.9-.7 5.48-1.75 7.55-3.08z" fill="#c2e7ff"/><path d="m40.64 6.71c3.07 1.37 5.11 3.47 5.34 5.85-4.34-1.69-9.24-1.98-13.98-.56 1.88-3.06 5.1-5.02 8.64-5.29z" fill="#c2e7ff"/><path d="m41.92 36.77c.35 2.99.44 6.03.25 9.06-3.14.75-6.57 1.17-10.17 1.17v-9c3.52 0 6.88-.44 9.92-1.23z" fill="#c2e7ff"/><path d="m42.17 45.83c-.14 2.39-.46 4.79-.96 7.16-2.89.66-5.99 1.01-9.21 1.01v-7c3.6 0 7.03-.42 10.17-1.17z" fill="#85ceff"/><path d="m40.12 28.07c.86 2.84 1.46 5.75 1.8 8.7-3.04.79-6.4 1.23-9.92 1.23v-9c2.88 0 5.62-.33 8.12-.93z" fill="#c2e7ff"/><path d="m41.21 52.99c-.32 1.61-.73 3.22-1.22 4.81-2.52.78-5.21 1.2-7.99 1.2v-5c3.22 0 6.32-.35 9.21-1.01z" fill="#85ceff"/><path d="m40.64 6.71c-3.54.27-6.76 2.23-8.64 5.29v-7c.12 0 .23 0 .35.01.35 0 .7.01 1.04.03.33.01.66.03.98.07 2.34.24 4.48.79 6.27 1.6z" fill="#c2e7ff"/><path d="m32 54v5c-2.78 0-5.47-.42-7.99-1.2-.49-1.59-.9-3.2-1.22-4.81 2.89.66 5.99 1.01 9.21 1.01z" fill="#85ceff"/><path d="m32 47v7c-3.22 0-6.32-.35-9.21-1.01-.5-2.37-.82-4.77-.96-7.16 3.14.75 6.57 1.17 10.17 1.17z" fill="#85ceff"/><g fill="#c2e7ff"><path d="m32 38v9c-3.6 0-7.03-.42-10.17-1.17-.19-3.03-.1-6.07.25-9.06 3.04.79 6.4 1.23 9.92 1.23z"/><path d="m32 29v9c-3.52 0-6.88-.44-9.92-1.23.34-2.95.94-5.86 1.8-8.7 2.5.6 5.24.93 8.12.93z"/><path d="m32 5v7c-1.88-3.06-5.1-5.02-8.64-5.29 1.79-.81 3.93-1.36 6.27-1.6.32-.04.65-.06.98-.07.34-.02.69-.03 1.04-.03.12-.01.23-.01.35-.01z"/><path d="m23.36 6.71c3.54.27 6.76 2.23 8.64 5.29-4.74-1.42-9.64-1.13-13.98.56.23-2.38 2.27-4.48 5.34-5.85z"/><path d="m32 12c-2.01 2.66-3.73 5.49-5.15 8.43-1.98-.44-3.73-1.13-5.14-2.01 2.91-2.7 6.37-4.91 10.29-6.42z"/><path d="m18.02 12.56c4.34-1.69 9.24-1.98 13.98-.56-3.92 1.51-7.38 3.72-10.29 6.42-2.3-1.42-3.71-3.33-3.71-5.42 0-.15.01-.3.02-.44z"/><path d="m26.85 20.43c-1.2 2.47-2.19 5.03-2.97 7.64-2.9-.7-5.48-1.75-7.55-3.08 1.48-2.4 3.29-4.61 5.38-6.57 1.41.88 3.16 1.57 5.14 2.01z"/></g><path d="m22.62 6.68c.25 0 .49.01.74.03-3.07 1.37-5.11 3.47-5.34 5.85-2.59 1.01-4.98 2.51-7.02 4.44v.01c-1.53 1.45-2.87 3.15-3.95 5.06.02-.2.04-.4.08-.6 2.89-6.81 8.5-12.2 15.47-14.79z" fill="#85ceff"/><path d="m22.79 52.99c.32 1.61.73 3.22 1.22 4.81-4.24-1.31-8.03-3.64-11.1-6.71-.23-.76-.43-1.53-.61-2.3 2.93 1.86 6.51 3.32 10.49 4.2z" fill="#85ceff"/><path d="m23.88 28.07c-.86 2.84-1.46 5.75-1.8 8.7-3.58-.93-6.73-2.35-9.2-4.11.8-2.7 1.97-5.28 3.45-7.67 2.07 1.33 4.65 2.38 7.55 3.08z" fill="#c2e7ff"/><path d="m21.83 45.83c.14 2.39.46 4.79.96 7.16-3.98-.88-7.56-2.34-10.49-4.2-.55-2.46-.8-4.93-.76-7.36 2.77 1.92 6.29 3.43 10.29 4.4z" fill="#85ceff"/><path d="m22.08 36.77c-.35 2.99-.44 6.03-.25 9.06-4-.97-7.52-2.48-10.29-4.4.03-3 .49-5.95 1.34-8.77 2.47 1.76 5.62 3.18 9.2 4.11z" fill="#85ceff"/><path d="m18 13c0 2.09 1.41 4 3.71 5.42-2.09 1.96-3.9 4.17-5.38 6.57-3.31-2.11-5.33-4.91-5.33-7.98v-.01c2.04-1.93 4.43-3.43 7.02-4.44-.01.14-.02.29-.02.44z" fill="#c2e7ff"/><path d="m16.33 24.99c-1.48 2.39-2.65 4.97-3.45 7.67-3.67-2.61-5.88-5.98-5.88-9.66 0-.31.01-.63.05-.93 1.08-1.91 2.42-3.61 3.95-5.06 0 3.07 2.02 5.87 5.33 7.98z" fill="#85ceff"/><path d="m12.88 32.66c-.85 2.82-1.31 5.77-1.34 8.77-3.95-2.71-6.38-6.22-6.52-10.06-.01-.01-.01-.02 0-.03.06-2.88.58-5.65 1.48-8.23 0-.01.01-.02.02-.03.17-.34.34-.68.53-1.01-.04.3-.05.62-.05.93 0 3.68 2.21 7.05 5.88 9.66z" fill="#85ceff"/><path d="m11.54 41.43c-.04 2.43.21 4.9.76 7.36-1.14-.73-2.18-1.52-3.11-2.36 0 0-.01 0-.01-.01-2.65-4.17-4.18-9.11-4.18-14.42 0-.21 0-.42.02-.63.14 3.84 2.57 7.35 6.52 10.06z" fill="#85ceff"/></g><g fill="none" stroke="#0c67bd" stroke-linejoin="round" stroke-miterlimit="10"><g stroke-width="1.5"><path d="m58.98 31.37c-.14 3.84-2.57 7.35-6.52 10.06-2.77 1.92-6.29 3.43-10.29 4.4-3.14.75-6.57 1.17-10.17 1.17s-7.03-.42-10.17-1.17c-4-.97-7.52-2.48-10.29-4.4-3.95-2.71-6.38-6.22-6.52-10.06"/><path d="m54.81 46.43c-.93.84-1.97 1.63-3.11 2.36-2.93 1.86-6.51 3.32-10.49 4.2-2.89.66-5.99 1.01-9.21 1.01s-6.32-.35-9.21-1.01c-3.98-.88-7.56-2.34-10.49-4.2-1.14-.73-2.18-1.52-3.11-2.36"/><path d="m29.63 5.11c-2.34.24-4.48.79-6.27 1.6-3.07 1.37-5.11 3.47-5.34 5.85-.01.14-.02.29-.02.44 0 2.09 1.41 4 3.71 5.42 1.41.88 3.16 1.57 5.14 2.01 1.59.37 3.33.57 5.15.57s3.56-.2 5.15-.57c1.98-.44 3.73-1.13 5.14-2.01 2.3-1.42 3.71-3.33 3.71-5.42 0-.15-.01-.3-.02-.44-.23-2.38-2.27-4.48-5.34-5.85-1.79-.81-3.93-1.36-6.27-1.6"/><path d="m31.65 5.01c-.35 0-.69.01-1.04.03"/><path d="m33.39 5.04c-.35-.02-.69-.03-1.04-.03"/><path d="m53 17.01c0 3.07-2.02 5.87-5.33 7.98-2.07 1.33-4.65 2.38-7.55 3.08-2.5.6-5.24.93-8.12.93s-5.62-.33-8.12-.93c-2.9-.7-5.48-1.75-7.55-3.08-3.31-2.11-5.33-4.91-5.33-7.98"/><path d="m56.87 21.47c.04.2.06.4.08.6.04.3.05.62.05.93 0 3.68-2.21 7.05-5.88 9.66-2.47 1.76-5.62 3.18-9.2 4.11-3.04.79-6.4 1.23-9.92 1.23s-6.88-.44-9.92-1.23c-3.58-.93-6.73-2.35-9.2-4.11-3.67-2.61-5.88-5.98-5.88-9.66 0-.31.01-.63.05-.93.02-.2.04-.4.08-.6"/><path d="m32 5v7 9 8 9 9 7 5"/><path d="m24.01 57.8c-.49-1.59-.9-3.2-1.22-4.81-.5-2.37-.82-4.77-.96-7.16-.19-3.03-.1-6.07.25-9.06.34-2.95.94-5.86 1.8-8.7.78-2.61 1.77-5.17 2.97-7.64 1.42-2.94 3.14-5.77 5.15-8.43 2.01 2.66 3.73 5.49 5.15 8.43 1.2 2.47 2.19 5.03 2.97 7.64.86 2.84 1.46 5.75 1.8 8.7.35 2.99.44 6.03.25 9.06-.14 2.39-.46 4.79-.96 7.16-.32 1.61-.73 3.22-1.22 4.81"/><path d="m12.91 51.09c-.23-.76-.43-1.53-.61-2.3-.55-2.46-.8-4.93-.76-7.36.03-3 .49-5.95 1.34-8.77.8-2.7 1.97-5.28 3.45-7.67 1.48-2.4 3.29-4.61 5.38-6.57 2.91-2.7 6.37-4.91 10.29-6.42 3.92 1.51 7.38 3.72 10.29 6.42 2.09 1.96 3.9 4.17 5.38 6.57 1.48 2.39 2.65 4.97 3.45 7.67.85 2.82 1.31 5.77 1.34 8.77.04 2.43-.21 4.9-.76 7.36-.18.77-.38 1.54-.61 2.3"/><path d="m6.52 23.08c.17-.34.34-.68.53-1.01 1.08-1.91 2.42-3.61 3.95-5.06v-.01c2.04-1.93 4.43-3.43 7.02-4.44 4.34-1.69 9.24-1.98 13.98-.56 4.74-1.42 9.64-1.13 13.98.56 2.59 1.01 4.98 2.51 7.02 4.44v.01c1.53 1.45 2.87 3.15 3.95 5.06.19.33.36.67.53 1.01"/><path d="m22.62 6.68c.25 0 .49.01.74.03 3.54.27 6.76 2.23 8.64 5.29 1.88-3.06 5.1-5.02 8.64-5.29.25-.02.49-.03.74-.03"/></g><path d="m54.81 46.43c2.66-4.17 4.19-9.12 4.19-14.43 0-.21 0-.42-.02-.63.01-.01 0-.02 0-.02-.06-2.89-.58-5.66-1.48-8.24 0-.01-.01-.02-.02-.03-.18-.55-.39-1.08-.61-1.61-2.89-6.81-8.5-12.2-15.47-14.79 0 0-.01 0-.02 0-2.21-.83-4.56-1.36-7.01-1.57-.32-.04-.65-.06-.98-.07-.34-.02-.69-.03-1.04-.03-.12-.01-.23-.01-.35-.01s-.23 0-.35.01c-.35 0-.7.01-1.04.03-.33.01-.66.03-.98.07-2.45.21-4.8.74-7.01 1.57-.01 0-.02 0-.02 0-6.97 2.59-12.58 7.98-15.47 14.79-.22.53-.43 1.06-.61 1.61-.01.01-.02.02-.02.03-.9 2.58-1.42 5.35-1.48 8.23-.01.01-.01.02 0 .03-.02.21-.02.42-.02.63 0 5.31 1.53 10.25 4.18 14.42 0 .01.01.01.01.01 1.06 1.69 2.31 3.25 3.72 4.66 3.07 3.07 6.86 5.4 11.1 6.71 2.52.78 5.21 1.2 7.99 1.2s5.47-.42 7.99-1.2c4.24-1.31 8.03-3.64 11.1-6.71 1.41-1.41 2.66-2.97 3.72-4.66z" stroke-width="2"/></g></g></svg>