<svg id="Layer_1" enable-background="new 0 0 450.4 512" viewBox="0 0 450.4 512" xmlns="http://www.w3.org/2000/svg" xmlns:xlink="http://www.w3.org/1999/xlink"><linearGradient id="SVGID_1_" gradientUnits="userSpaceOnUse" x1="69.029" x2="394.478" y1="7.3" y2="402.706"><stop offset="0" stop-color="#fff"/><stop offset=".9959" stop-color="#c4cbff"/></linearGradient><linearGradient id="SVGID_2_" gradientUnits="userSpaceOnUse" x1="49.741" x2="74.642" y1="197.198" y2="197.198"><stop offset=".00000186333" stop-color="#fff"/><stop offset="1" stop-color="#e9edff" stop-opacity="0"/></linearGradient><linearGradient id="SVGID_3_" gradientUnits="userSpaceOnUse" x1="408.309" x2="385.289" y1="198.125" y2="198.125"><stop offset=".00000226926" stop-color="#9caeff"/><stop offset=".573" stop-color="#b6c1ff" stop-opacity=".427"/><stop offset="1" stop-color="#c4cbff" stop-opacity="0"/></linearGradient><radialGradient id="SVGID_4_" cx="237.777" cy="36.618" fx="78.51" fy="-70.489" gradientTransform="matrix(1 0 0 .472 0 19.35)" gradientUnits="userSpaceOnUse" r="201.64"><stop offset=".05874044" stop-color="#859cff"/><stop offset=".4535" stop-color="#9daeff" stop-opacity=".581"/><stop offset="1" stop-color="#c4cbff" stop-opacity="0"/></radialGradient><linearGradient id="SVGID_5_" gradientUnits="userSpaceOnUse" x1="195.924" x2="195.924" y1="1.014" y2="64.453"><stop offset="0" stop-color="#e9edff"/><stop offset=".3229" stop-color="#e5e9ff"/><stop offset=".6599" stop-color="#d8deff"/><stop offset=".9959" stop-color="#c4cbff"/></linearGradient><linearGradient id="SVGID_6_" gradientUnits="userSpaceOnUse" x1="256.851" x2="256.851" y1="87.192" y2="201.364"><stop offset=".00000226926" stop-color="#9caeff"/><stop offset=".2753" stop-color="#acb9ff" stop-opacity=".725"/><stop offset=".6968" stop-color="#bec6ff" stop-opacity=".303"/><stop offset="1" stop-color="#c4cbff" stop-opacity="0"/></linearGradient><linearGradient id="SVGID_7_" gradientUnits="userSpaceOnUse" x1="228.65" x2="228.65" y1="88.65" y2="184.588"><stop offset="0" stop-color="#ffb18c"/><stop offset=".3254" stop-color="#ff8462"/><stop offset="1" stop-color="#ff1e00"/></linearGradient><linearGradient id="SVGID_8_" gradientUnits="userSpaceOnUse" x1="228.65" x2="228.65" y1="92.664" y2="180.304"><stop offset="0" stop-color="#ffceb7"/><stop offset=".3406" stop-color="#ffa28a"/><stop offset="1" stop-color="#ff442b"/></linearGradient><linearGradient id="SVGID_9_" gradientUnits="userSpaceOnUse" x1=".997" x2="434.423" y1="230.849" y2="520.56"><stop offset="0" stop-color="#ffed81"/><stop offset=".2348" stop-color="#ffd968"/><stop offset=".7302" stop-color="#ffa629"/><stop offset="1" stop-color="#ff8804"/></linearGradient><linearGradient id="lg1"><stop offset=".00000187801" stop-color="#ff440b"/><stop offset=".5511" stop-color="#ff6c07" stop-opacity=".449"/><stop offset="1" stop-color="#ff8804" stop-opacity="0"/></linearGradient><linearGradient id="SVGID_10_" gradientUnits="userSpaceOnUse" x1="450.047" x2="417.54" xlink:href="#lg1" y1="380.705" y2="380.705"/><linearGradient id="SVGID_11_" gradientUnits="userSpaceOnUse" x1="225.191" x2="225.191" xlink:href="#lg1" y1="516.393" y2="478.415"/><linearGradient id="lg2"><stop offset=".00000250401" stop-color="#fffcf0"/><stop offset="1" stop-color="#ffed81" stop-opacity="0"/></linearGradient><linearGradient id="SVGID_12_" gradientUnits="userSpaceOnUse" x1="-.108" x2="33.231" xlink:href="#lg2" y1="358.907" y2="358.907"/><linearGradient id="SVGID_13_" gradientUnits="userSpaceOnUse" x1="99.433" x2="99.433" xlink:href="#lg2" y1="202.434" y2="242.774"/><g><g><g><g><path d="m407.7 35c0-9.2-3.7-18.2-10.2-24.7-6.6-6.6-15.6-10.3-24.8-10.3h-.1-300.6c-12.3 0-22.4 10-22.4 22.4v349.6c0 12.4 10 22.4 22.4 22.4h313.3c12.4 0 22.4-10 22.4-22.4v-67.1z" fill="url(#SVGID_1_)"/><path d="m73.4 0h-1.4c-12.3 0-22.4 10-22.4 22.4v349.6c0 12.4 10 22.4 22.4 22.4h1.4z" fill="url(#SVGID_2_)"/><path d="m407.7 35v337c0 2.3-.4 4.5-1 6.7-.3 1.1-.7 2.1-1.2 3-.5 1-1 1.9-1.6 2.8-.4.6-.8 1.2-1.3 1.7-4.1 5-10.3 8.1-17.3 8.1h-1.4v-392.4c5.1 1.7 9.7 4.6 13.5 8.4 6.5 6.5 10.3 15.5 10.3 24.7z" fill="url(#SVGID_3_)"/></g><path d="m407.7 35v70.7c-42.3 17.6-101 28.4-166 28.4-79.7 0-150-16.4-192.1-41.4v-70.3c0-12.4 10.1-22.4 22.4-22.4h300.7c9.2 0 18.2 3.7 24.7 10.2 6.5 6.6 10.3 15.6 10.3 24.8z" fill="url(#SVGID_4_)"/><path d="m372.7 0c-19.3 0-35 15.6-35 35v20.3c0 5-4.1 9.1-9.1 9.1h-300.4c-5 0-9.1-4.1-9.1-9.1v-20.3c0-19.3 15.6-35 35-35z" fill="url(#SVGID_5_)"/></g><g><path d="m350.7 89.9c-.5-1.2-1.4-2.3-2.6-3.1-3.3-2.2-7.7-1.3-9.9 1.9l-18.2 27.2-26.8-27.2c-2.2-3.3-6.6-4.1-9.9-1.9s-4.1 6.6-1.9 9.9l25.8 38.3-16.5 24.6c-.8-1.3-68.5-69-70.1-69.7-1.1-2.6-3.7-4.3-6.5-4.3-2.9 0-5.5 1.8-6.6 4.5l-10.5 26.2c-.2-.1-25-25.6-26.7-26.4-1.1-2.5-3.6-4.3-6.5-4.3h-50.6c-3.9 0-7.1 3.2-7.1 7.1 0 2.9 1.8 5.4 4.3 6.5.7 1.7 19.9 20.8 21 21.6v56.5c0 2.9 1.8 5.4 4.3 6.5.4.8 16.2 16.9 32.3 33h239.7v-70.4c-20.5-20.4-56.7-56.4-57-56.5z" fill="url(#SVGID_6_)"/><g><path d="m220.5 90.1c-1.1-2.7-3.7-4.5-6.6-4.5s-5.6 1.8-6.6 4.5l-33.4 84.6c-1.4 3.7.4 7.8 4 9.2.9.3 1.7.5 2.6.5 2.8 0 5.5-1.7 6.6-4.5l10.1-25.7h33.3l9.6 24.4c1.4 3.7 5.6 5.5 9.2 4 3.7-1.4 5.5-5.6 4-9.2zm-17.6 50 11-27.9 11 27.9zm-32-47.4c0 3.9-3.2 7.1-7.1 7.1h-18.2v77.5c0 3.9-3.2 7.1-7.1 7.1s-7.1-3.2-7.1-7.1v-77.4h-18.2c-3.9 0-7.1-3.2-7.1-7.1s3.2-7.1 7.1-7.1h50.6c3.9-.1 7.1 3.1 7.1 7zm179.2 80.7c2.2 3.3 1.3 7.7-1.9 9.9-1.2.8-2.6 1.2-4 1.2-2.3 0-4.5-1.1-5.9-3.2l-22.5-33.5-22.5 33.5c-1.4 2-3.6 3.2-5.9 3.2-1.4 0-2.7-.4-4-1.2-3.3-2.2-4.1-6.6-1.9-9.9l25.8-38.3-25.8-38.3c-2.2-3.3-1.3-7.7 1.9-9.9s7.7-1.3 9.9 1.9l22.5 33.5 22.5-33.5c2.2-3.3 6.6-4.1 9.9-1.9s4.1 6.6 1.9 9.9l-25.8 38.3z" fill="url(#SVGID_7_)"/><path d="m180.5 180.2c-.4 0-.7-.1-1-.2-1.5-.6-2.2-2.2-1.6-3.7l33.4-84.6c.4-1.1 1.5-1.8 2.7-1.8s2.2.7 2.7 1.8l32.9 83.4c.6 1.5-.1 3.1-1.6 3.7-.3.1-.7.2-1 .2-1.2 0-2.2-.7-2.7-1.8l-10.7-27.1h-39.1l-11.2 28.4c-.6 1-1.6 1.7-2.8 1.7zm16.1-35.8h34.6l-17.3-43.9zm147.5 35.8c-1 0-1.8-.5-2.4-1.3l-26.1-38.8-26 38.9c-.5.8-1.4 1.3-2.4 1.3-.6 0-1.1-.2-1.6-.5-1.3-.9-1.7-2.7-.8-4l27.4-40.7-27.4-40.7c-.9-1.3-.5-3.1.8-4 .5-.3 1-.5 1.6-.5 1 0 1.8.5 2.4 1.3l26.1 38.8 26.1-38.8c.5-.8 1.4-1.3 2.4-1.3.6 0 1.1.2 1.6.5.6.4 1.1 1.1 1.2 1.8s0 1.5-.4 2.1l-27.4 40.7 27.4 40.7c.4.6.6 1.4.4 2.1-.1.7-.6 1.4-1.2 1.8-.5.5-1.1.6-1.7.6zm-205.7 0c-1.6 0-2.9-1.3-2.9-2.9v-81.7h-22.4c-1.6 0-2.9-1.3-2.9-2.9s1.3-2.9 2.9-2.9h50.6c1.6 0 2.9 1.3 2.9 2.9s-1.3 2.9-2.9 2.9h-22.4v81.8c0 1.5-1.3 2.8-2.9 2.8z" fill="url(#SVGID_8_)"/></g></g></g><g><path d="m439.7 512h-429c-5.9 0-10.7-4.8-10.7-10.7v-284.8c0-5.9 4.8-10.7 10.7-10.7h157.7c3.6 0 7 1.8 9 4.9l22.1 33.9c2 3 5.4 4.9 9 4.9h231.2c5.9 0 10.7 4.8 10.7 10.7v241.2c0 5.8-4.8 10.6-10.7 10.6z" fill="url(#SVGID_9_)"/><g><path d="m439.7 249.4h-23.3v262.6h23.3c5.9 0 10.7-4.8 10.7-10.7v-241.2c0-5.9-4.8-10.7-10.7-10.7z" fill="url(#SVGID_10_)"/><path d="m0 474v27.3c0 5.9 4.8 10.7 10.7 10.7h428.9c5.9 0 10.7-4.8 10.7-10.7v-27.3z" fill="url(#SVGID_11_)"/><path d="m36.9 205.8h-26.2c-5.9 0-10.7 4.8-10.7 10.7v284.7c0 5.9 4.8 10.7 10.7 10.7h26.2z" fill="url(#SVGID_12_)"/><path d="m198.9 243.6-21.4-32.9c-2-3-5.4-4.9-9-4.9h-157.8c-5.9 0-10.7 4.8-10.7 10.7v27h198.9z" fill="url(#SVGID_13_)"/></g></g></g></svg>