<?xml version="1.0" encoding="UTF-8"?>
<svg version="1.1" xmlns="http://www.w3.org/2000/svg" width="512" height="512">
<path d="M0 0 C0.84739746 0.65790527 0.84739746 0.65790527 1.71191406 1.32910156 C3.18193728 2.50357365 4.59623368 3.74708618 6 5 C6 5.66 6 6.32 6 7 C4.5390625 8.2890625 4.5390625 8.2890625 2.625 9.625 C1.99851562 10.07101563 1.37203125 10.51703125 0.7265625 10.9765625 C-1 12 -1 12 -3 12 C-3 12.66 -3 13.32 -3 14 C-4.4609375 15.2890625 -4.4609375 15.2890625 -6.375 16.625 C-7.00148438 17.07101563 -7.62796875 17.51703125 -8.2734375 17.9765625 C-10 19 -10 19 -12 19 C-12 19.66 -12 20.32 -12 21 C-13.85961588 22.66979863 -15.70236364 24.18177523 -17.6875 25.6875 C-18.21794922 26.11611328 -18.74839844 26.54472656 -19.29492188 26.98632812 C-21.82351222 28.91302089 -23.41648505 30.01120487 -26.64453125 29.94921875 C-29.15149299 28.93895059 -30.88215829 27.80162469 -33 26.125 C-67.71374871 0.93541323 -115.07733335 -7.6979163 -157.12353516 -2.23095703 C-160.78854602 -1.63497378 -164.38977915 -0.86476108 -168 0 C-168.8470752 0.19335938 -169.69415039 0.38671875 -170.56689453 0.5859375 C-200.06585448 7.45330809 -228.11852722 21.33859062 -250.109375 42.3828125 C-252 44 -252 44 -254 44 C-254 44.66 -254 45.32 -254 46 C-254.66 46 -255.32 46 -256 46 C-256 46.66 -256 47.32 -256 48 C-257.62582073 49.70653523 -259.30043291 51.36689643 -261 53 C-284.88970939 77.68075936 -299.68112005 109.46685298 -306 143 C-306.13277344 143.6923877 -306.26554687 144.38477539 -306.40234375 145.09814453 C-309.8258002 163.86464808 -309.0897423 184.22688224 -306 203 C-305.81695312 204.19625 -305.63390625 205.3925 -305.4453125 206.625 C-300.92094461 232.5423667 -289.70839969 256.55185401 -274.54248047 277.86035156 C-272.6264936 280.55999432 -271.05364099 282.83907704 -270 286 C-269.34 286 -268.68 286 -268 286 C-266.58829235 287.59675178 -265.24600532 289.25513602 -263.9375 290.9375 C-236.39031187 325.26147243 -193.8923827 344.36812202 -151 350 C-149.68515625 350.19529297 -149.68515625 350.19529297 -148.34375 350.39453125 C-104.08817606 356.07803818 -57.95164877 340.73282047 -23 314 C-22.0821875 313.30648438 -21.164375 312.61296875 -20.21875 311.8984375 C-7.54362632 301.94473743 3.7986968 290.22986257 13 277 C13.4429541 276.36900391 13.8859082 275.73800781 14.34228516 275.08789062 C41.57587021 235.88067269 51.21153354 188.13398498 43.375 141.26171875 C40.02233759 124.44125903 34.34483561 107.70791014 26.13671875 92.65625 C24.88736527 89.73679856 24.70687185 88.14065874 25 85 C26.14233398 82.86279297 26.14233398 82.86279297 27.74609375 80.7421875 C28.33221436 79.95626221 28.91833496 79.17033691 29.5222168 78.3605957 C30.15426025 77.54034912 30.78630371 76.72010254 31.4375 75.875 C32.07405518 75.03348389 32.71061035 74.19196777 33.36645508 73.32495117 C35.2305734 70.87238726 37.1125369 68.43462112 39 66 C39.49435547 65.35401855 39.98871094 64.70803711 40.49804688 64.04248047 C45.70574211 57.25374119 45.70574211 57.25374119 48 55 C48.99 55 49.98 55 51 55 C68.45267696 76.22622874 78.24592095 107.31332943 83 134 C83.22429687 135.22251465 83.22429687 135.22251465 83.453125 136.46972656 C88.15294667 163.11893089 87.39339145 190.54648649 82 217 C81.82339844 217.90959473 81.64679688 218.81918945 81.46484375 219.75634766 C75.46844481 250.11034117 61.9697833 277.96226684 44 303 C43.46729492 303.75168457 42.93458984 304.50336914 42.38574219 305.27783203 C41.85368164 306.01243652 41.32162109 306.74704102 40.7734375 307.50390625 C40.29052246 308.17365479 39.80760742 308.84340332 39.31005859 309.53344727 C38.87773926 310.01740967 38.44541992 310.50137207 38 311 C37.34 311 36.68 311 36 311 C35.77441406 311.54269531 35.54882812 312.08539063 35.31640625 312.64453125 C33.59949566 315.71662943 31.33046366 318.13873062 28.9375 320.6875 C28.44870361 321.21351807 27.95990723 321.73953613 27.45629883 322.28149414 C14.70898172 335.92735529 14.70898172 335.92735529 8 341 C7.34 341 6.68 341 6 341 C6 341.66 6 342.32 6 343 C2.56515386 345.96005099 -1.25780287 348.44467482 -5 351 C-5.62148926 351.42522949 -6.24297852 351.85045898 -6.88330078 352.28857422 C-56.8516974 386.1846106 -115.86769247 398.17241197 -175.25 386.875 C-208.40351159 380.17139921 -236.92299763 365.84533934 -264 346 C-264.75007324 345.46439453 -265.50014648 344.92878906 -266.27294922 344.37695312 C-267.00658691 343.84521484 -267.74022461 343.31347656 -268.49609375 342.765625 C-269.16697021 342.28383789 -269.83784668 341.80205078 -270.52905273 341.30566406 C-271.01446533 340.87479492 -271.49987793 340.44392578 -272 340 C-272 339.34 -272 338.68 -272 338 C-272.56589844 337.74992187 -273.13179688 337.49984375 -273.71484375 337.2421875 C-285.12230093 331.04121077 -296.93872887 316.74855606 -304 306 C-304 305.34 -304 304.68 -304 304 C-304.66 304 -305.32 304 -306 304 C-327.03810159 277.5837371 -341.27813947 242.18768311 -346 209 C-346.17442627 207.78175537 -346.34885254 206.56351074 -346.52856445 205.30834961 C-347.98905312 194.46224689 -348.36252583 183.74755755 -348.3125 172.8125 C-348.31034485 171.95938232 -348.3081897 171.10626465 -348.30596924 170.22729492 C-348.11972335 124.15458252 -333.32611414 81.08111276 -306 44 C-305.21474588 42.91152894 -304.42959661 41.82298222 -303.64453125 40.734375 C-302.82644055 39.61391124 -302.00743974 38.49411137 -301.1875 37.375 C-300.43855469 36.35148437 -299.68960938 35.32796875 -298.91796875 34.2734375 C-298.28503906 33.52320312 -297.65210938 32.77296875 -297 32 C-296.34 32 -295.68 32 -295 32 C-294.74508789 31.4212915 -294.49017578 30.84258301 -294.22753906 30.24633789 C-291.9034561 25.99337701 -288.16486261 22.82893962 -284.75 19.4375 C-283.94240234 18.6333667 -283.13480469 17.8292334 -282.30273438 17.00073242 C-275.59175655 10.40959348 -268.6033246 4.52271749 -261 -1 C-260.13246094 -1.639375 -259.26492188 -2.27875 -258.37109375 -2.9375 C-182.36702618 -57.59211039 -74.58008207 -57.96276935 0 0 Z " fill="#17479F" transform="translate(373,82)"/>
<path d="M0 0 C1.0837793 0.02707031 1.0837793 0.02707031 2.18945312 0.0546875 C3.93939925 0.10104369 5.6886453 0.17274998 7.4375 0.25 C4.13348887 2.88187161 0.62716155 4.88907303 -3.0625 6.9375 C-10.93588988 11.36265972 -18.3617134 16.33391998 -25.78125 21.484375 C-28.5625 23.25 -28.5625 23.25 -30.5625 23.25 C-30.5625 23.91 -30.5625 24.57 -30.5625 25.25 C-32.0234375 26.5390625 -32.0234375 26.5390625 -33.9375 27.875 C-34.56398438 28.32101563 -35.19046875 28.76703125 -35.8359375 29.2265625 C-37.5625 30.25 -37.5625 30.25 -39.5625 30.25 C-39.5625 30.91 -39.5625 31.57 -39.5625 32.25 C-40.5525 32.25 -41.5425 32.25 -42.5625 32.25 C-42.830625 32.86875 -43.09875 33.4875 -43.375 34.125 C-44.5625 36.25 -44.5625 36.25 -47.5625 38.25 C-44.14076788 36.93956558 -40.93321006 35.45275801 -37.7109375 33.7109375 C-15.77401552 21.97616711 6.78168767 11.68718656 31.4375 7.25 C31.4375 7.91 31.4375 8.57 31.4375 9.25 C30.6846875 9.518125 29.931875 9.78625 29.15625 10.0625 C8.32922263 17.74625767 -12.2125381 28.81079657 -29.515625 42.73828125 C-31.5625 44.25 -31.5625 44.25 -33.5625 44.25 C-33.5625 44.91 -33.5625 45.57 -33.5625 46.25 C-35.4609375 47.9765625 -35.4609375 47.9765625 -37.9375 49.875 C-38.74960937 50.50664063 -39.56171875 51.13828125 -40.3984375 51.7890625 C-42.5625 53.25 -42.5625 53.25 -44.5625 53.25 C-44.5625 53.91 -44.5625 54.57 -44.5625 55.25 C-49.03308824 59.25 -49.03308824 59.25 -51.5625 59.25 C-51.5625 59.91 -51.5625 60.57 -51.5625 61.25 C-53.06640625 62.73046875 -53.06640625 62.73046875 -55.125 64.4375 C-59.69098868 68.31778367 -63.90879519 72.46290791 -68.0390625 76.80078125 C-69.17936323 77.98442675 -70.36666029 79.12249399 -71.5625 80.25 C-72.2225 80.25 -72.8825 80.25 -73.5625 80.25 C-73.90087891 81.08337891 -73.90087891 81.08337891 -74.24609375 81.93359375 C-75.95144414 84.93440319 -78.12956316 86.92937537 -80.625 89.3125 C-85.24638877 93.80724421 -89.36660853 98.5258743 -93.38671875 103.57421875 C-95.50746574 106.18231873 -97.72121428 108.65465261 -100 111.125 C-104.71254032 116.30960826 -108.94905913 121.81554062 -113.16308594 127.40478516 C-114.65110765 129.36683472 -116.15575262 131.31522766 -117.6640625 133.26171875 C-129.67166486 148.78396168 -140.79266767 164.8493384 -151.5625 181.25 C-151.96033691 181.85376465 -152.35817383 182.4575293 -152.76806641 183.07958984 C-163.81250797 199.87843919 -173.82996009 217.3401963 -184.03271484 234.65625 C-185.48367854 237.11635824 -186.93846018 239.57416217 -188.39453125 242.03125 C-189.26306753 243.49997239 -190.13155981 244.9687208 -191 246.4375 C-191.37656738 247.07131592 -191.75313477 247.70513184 -192.14111328 248.3581543 C-197.45848644 257.36808243 -202.32345265 266.6231376 -207.08203125 275.9375 C-207.83633675 277.41138184 -207.83633675 277.41138184 -208.60588074 278.91503906 C-209.6629247 280.98185792 -210.71917436 283.0490832 -211.7746582 285.11669922 C-213.35770307 288.21613443 -214.94531684 291.3131992 -216.53320312 294.41015625 C-221.71961561 304.54944205 -226.82469935 314.71180349 -231.62580872 325.04016113 C-234.67645988 331.59080764 -238.03913353 337.93966198 -241.5625 344.25 C-243.89583333 341.91666667 -246.22916667 339.58333333 -248.5625 337.25 C-249.5525 338.9 -250.5425 340.55 -251.5625 342.25 C-252.8825 341.59 -254.2025 340.93 -255.5625 340.25 C-255.5625 339.59 -255.5625 338.93 -255.5625 338.25 C-256.2225 338.25 -256.8825 338.25 -257.5625 338.25 C-258.2225 336.6 -258.8825 334.95 -259.5625 333.25 C-260.2225 333.25 -260.8825 333.25 -261.5625 333.25 C-261.5625 332.59 -261.5625 331.93 -261.5625 331.25 C-262.2225 331.25 -262.8825 331.25 -263.5625 331.25 C-265.1484375 329.45703125 -265.1484375 329.45703125 -266.9375 327.0625 C-268.91853259 324.43215193 -270.8963294 321.84769278 -273 319.3125 C-274.5625 317.25 -274.5625 317.25 -274.5625 315.25 C-275.2225 315.25 -275.8825 315.25 -276.5625 315.25 C-278.35789556 313.1602773 -280.03311442 311.07157918 -281.6875 308.875 C-282.38939453 307.97007812 -282.38939453 307.97007812 -283.10546875 307.046875 C-286.5625 302.51141126 -286.5625 302.51141126 -286.5625 300.25 C-287.5525 299.92 -288.5425 299.59 -289.5625 299.25 C-291.12946227 297.38570144 -292.57086582 295.52777259 -294 293.5625 C-297.72749936 288.57043777 -301.60261582 283.76656118 -305.6875 279.0625 C-309.27815795 274.91351226 -312.84712525 270.75518631 -316.3125 266.5 C-316.94671875 265.72140625 -317.5809375 264.9428125 -318.234375 264.140625 C-319.5625 262.25 -319.5625 262.25 -319.5625 260.25 C-320.2225 260.25 -320.8825 260.25 -321.5625 260.25 C-321.665625 259.610625 -321.76875 258.97125 -321.875 258.3125 C-322.2153125 257.2915625 -322.2153125 257.2915625 -322.5625 256.25 C-323.5525 255.92 -324.5425 255.59 -325.5625 255.25 C-327.4296875 253.17578125 -327.4296875 253.17578125 -329.4375 250.5625 C-331.75842602 247.56927622 -334.07889821 244.60969006 -336.5625 241.75 C-338.5625 239.25 -338.5625 239.25 -338.5625 237.25 C-339.2225 237.25 -339.8825 237.25 -340.5625 237.25 C-341.93741299 235.74212839 -343.23614462 234.16460239 -344.5 232.5625 C-345.29792969 231.56476563 -346.09585938 230.56703125 -346.91796875 229.5390625 C-347.34513184 229.00442383 -347.77229492 228.46978516 -348.21240234 227.91894531 C-350.53175078 225.05184478 -352.92290189 222.24608274 -355.3125 219.4375 C-357.06426107 217.37647469 -358.81398023 215.31378319 -360.5625 213.25 C-361.2750293 212.43329834 -361.2750293 212.43329834 -362.00195312 211.60009766 C-365.5625 207.46740946 -365.5625 207.46740946 -365.5625 205.25 C-366.2225 205.25 -366.8825 205.25 -367.5625 205.25 C-368.90234375 203.73828125 -368.90234375 203.73828125 -370.5 201.5625 C-374.08146834 196.81234198 -377.87355482 192.2846717 -381.74194336 187.76879883 C-388.5625 179.78408362 -388.5625 179.78408362 -388.5625 177.25 C-389.5215625 176.9096875 -389.5215625 176.9096875 -390.5 176.5625 C-392.5625 175.25 -392.5625 175.25 -393.3125 172.625 C-393.395 171.84125 -393.4775 171.0575 -393.5625 170.25 C-391.0875 169.26 -391.0875 169.26 -388.5625 168.25 C-388.5625 167.59 -388.5625 166.93 -388.5625 166.25 C-386.71875 164.7265625 -386.71875 164.7265625 -384.0625 162.875 C-382.55236328 161.80378906 -382.55236328 161.80378906 -381.01171875 160.7109375 C-380.17906494 160.12070801 -380.17906494 160.12070801 -379.32958984 159.51855469 C-376.14062775 157.22926938 -373.01056516 154.86160621 -369.875 152.5 C-368.49610103 151.46353198 -367.11719469 150.42707377 -365.73828125 149.390625 C-364.7011499 148.61041992 -364.7011499 148.61041992 -363.64306641 147.81445312 C-359.62932391 144.79637498 -355.61035755 141.78525875 -351.59228516 138.77294922 C-348.09485831 136.15052628 -344.59903007 133.5260085 -341.10546875 130.8984375 C-340.37650391 130.35058594 -339.64753906 129.80273438 -338.89648438 129.23828125 C-337.4975528 128.18685497 -336.09909179 127.13480221 -334.70117188 126.08203125 C-334.07146484 125.60894531 -333.44175781 125.13585937 -332.79296875 124.6484375 C-332.24020264 124.23255371 -331.68743652 123.81666992 -331.11791992 123.38818359 C-326.82359489 120.24579727 -326.82359489 120.24579727 -324.62109375 120.28125 C-320.72524432 122.11459091 -318.93788618 126.26729687 -316.66015625 129.78125 C-314.83054749 132.47056371 -314.83054749 132.47056371 -312.1484375 132.66015625 C-308.03874432 133.59756361 -306.41360108 136.89538472 -304.125 140.1875 C-303.06954845 141.65106834 -302.01217978 143.11325563 -300.953125 144.57421875 C-300.40205078 145.34040527 -299.85097656 146.1065918 -299.28320312 146.89599609 C-296.40430931 150.83446008 -293.38707205 154.66304346 -290.375 158.5 C-285.74644413 164.42259445 -281.18161515 170.38186474 -276.69140625 176.41015625 C-274.4043112 179.46101515 -272.0815425 182.4831142 -269.75 185.5 C-265.33243409 191.21731274 -260.99071829 196.98948606 -256.67260742 202.78222656 C-256.1954126 203.4212793 -255.71821777 204.06033203 -255.2265625 204.71875 C-254.77442383 205.32460937 -254.32228516 205.93046875 -253.85644531 206.5546875 C-252.67905578 208.09728994 -251.44760287 209.59824769 -250.2109375 211.09375 C-248.5625 213.25 -248.5625 213.25 -248.5625 215.25 C-247.9025 215.25 -247.2425 215.25 -246.5625 215.25 C-246.253125 214.63125 -245.94375 214.0125 -245.625 213.375 C-244.9375 212 -244.25 210.625 -243.5625 209.25 C-242.9025 209.25 -242.2425 209.25 -241.5625 209.25 C-241.15825806 208.3827832 -241.15825806 208.3827832 -240.74584961 207.49804688 C-239.54665484 205.21989844 -238.20288103 203.3158703 -236.62890625 201.28125 C-236.06236328 200.54519531 -235.49582031 199.80914062 -234.91210938 199.05078125 C-234.32236328 198.29152344 -233.73261719 197.53226563 -233.125 196.75 C-231.95954535 195.23965283 -230.79417791 193.72923835 -229.62890625 192.21875 C-229.11271729 191.55294922 -228.59652832 190.88714844 -228.06469727 190.20117188 C-227.0070721 188.82744519 -225.98709084 187.42432327 -224.99584961 186.00195312 C-224.52284424 185.42380859 -224.04983887 184.84566406 -223.5625 184.25 C-222.9025 184.25 -222.2425 184.25 -221.5625 184.25 C-221.29566406 183.67378906 -221.02882813 183.09757813 -220.75390625 182.50390625 C-211.95139219 165.8512813 -195.82403127 150.77763124 -183.04296875 136.9453125 C-177.23696104 130.72267069 -177.23696104 130.72267069 -172 124.03125 C-171.525625 123.4434375 -171.05125 122.855625 -170.5625 122.25 C-169.9025 122.25 -169.2425 122.25 -168.5625 122.25 C-168.2325 121.26 -167.9025 120.27 -167.5625 119.25 C-165.93910195 117.54115995 -164.26930947 115.87553283 -162.5625 114.25 C-162.005625 113.651875 -161.44875 113.05375 -160.875 112.4375 C-159.5625 111.25 -159.5625 111.25 -157.5625 111.25 C-157.16611328 110.36683105 -157.16611328 110.36683105 -156.76171875 109.46582031 C-155.51881056 107.16927416 -154.21243519 105.64166834 -152.375 103.796875 C-151.75882813 103.178125 -151.14265625 102.559375 -150.5078125 101.921875 C-149.86585938 101.28765625 -149.22390625 100.6534375 -148.5625 100 C-147.92054688 99.3503125 -147.27859375 98.700625 -146.6171875 98.03125 C-146.00101563 97.41765625 -145.38484375 96.8040625 -144.75 96.171875 C-144.18667969 95.61081055 -143.62335938 95.04974609 -143.04296875 94.47167969 C-141.5625 93.25 -141.5625 93.25 -139.5625 93.25 C-139.5625 92.59 -139.5625 91.93 -139.5625 91.25 C-138.9025 91.25 -138.2425 91.25 -137.5625 91.25 C-137.2325 90.26 -136.9025 89.27 -136.5625 88.25 C-135.13671875 86.8125 -135.13671875 86.8125 -133.25 85.25 C-130.58823966 83.00368683 -127.97725924 80.72611858 -125.43359375 78.34765625 C-124.89710205 77.84685547 -124.36061035 77.34605469 -123.80786133 76.83007812 C-122.73545985 75.82570151 -121.66622791 74.81792897 -120.6003418 73.80664062 C-116.78317103 70.25 -116.78317103 70.25 -114.5625 70.25 C-114.5625 69.59 -114.5625 68.93 -114.5625 68.25 C-112.51459392 66.50503861 -110.45684184 64.86911169 -108.3125 63.25 C-107.02480729 62.26071923 -105.73837161 61.26980035 -104.453125 60.27734375 C-103.80150391 59.77444824 -103.14988281 59.27155273 -102.47851562 58.75341797 C-98.65780069 55.75546148 -94.97644945 52.59166758 -91.28125 49.44140625 C-83.59993316 43.25 -83.59993316 43.25 -80.5625 43.25 C-80.5625 42.59 -80.5625 41.93 -80.5625 41.25 C-78.38563851 39.63717125 -76.21255908 38.15071112 -73.9375 36.6875 C-72.91849609 36.0214978 -72.91849609 36.0214978 -71.87890625 35.34204102 C-69.77761568 33.97147522 -67.67018932 32.61069797 -65.5625 31.25 C-64.36680073 30.46934208 -63.17146608 29.68812529 -61.9765625 28.90625 C-58.52496937 26.6558526 -55.0482146 24.44707407 -51.5625 22.25 C-50.68972412 21.69530029 -50.68972412 21.69530029 -49.79931641 21.12939453 C-40.16957057 15.03980217 -30.20262823 9.94736936 -19.8112793 5.27783203 C-18.29162496 4.58325547 -16.78512573 3.85926472 -15.29223633 3.10888672 C-10.00470999 0.52924414 -5.85545557 -0.28536428 0 0 Z " fill="#00ACEE" transform="translate(480.5625,36.75)"/>
<path d="M0 0 C0.33 0.66 0.66 1.32 1 2 C-0.12921875 2.4021875 -0.12921875 2.4021875 -1.28125 2.8125 C-22.10827737 10.49625767 -42.6500381 21.56079657 -59.953125 35.48828125 C-62 37 -62 37 -64 37 C-64 37.66 -64 38.32 -64 39 C-65.8984375 40.7265625 -65.8984375 40.7265625 -68.375 42.625 C-69.59316406 43.57246094 -69.59316406 43.57246094 -70.8359375 44.5390625 C-73 46 -73 46 -75 46 C-75 46.66 -75 47.32 -75 48 C-79.47058824 52 -79.47058824 52 -82 52 C-82 52.66 -82 53.32 -82 54 C-83.50390625 55.48046875 -83.50390625 55.48046875 -85.5625 57.1875 C-90.12848868 61.06778367 -94.34629519 65.21290791 -98.4765625 69.55078125 C-99.61686323 70.73442675 -100.80416029 71.87249399 -102 73 C-102.66 73 -103.32 73 -104 73 C-104.33837891 73.83337891 -104.33837891 73.83337891 -104.68359375 74.68359375 C-106.38894414 77.68440319 -108.56706316 79.67937537 -111.0625 82.0625 C-115.68388877 86.55724421 -119.80410853 91.2758743 -123.82421875 96.32421875 C-125.94496574 98.93231873 -128.15871428 101.40465261 -130.4375 103.875 C-135.15004032 109.05960826 -139.38655913 114.56554062 -143.60058594 120.15478516 C-145.08860765 122.11683472 -146.59325262 124.06522766 -148.1015625 126.01171875 C-160.10916486 141.53396168 -171.23016767 157.5993384 -182 174 C-182.39783691 174.60376465 -182.79567383 175.2075293 -183.20556641 175.82958984 C-194.25000797 192.62843919 -204.26746009 210.0901963 -214.47021484 227.40625 C-215.92117854 229.86635824 -217.37596018 232.32416217 -218.83203125 234.78125 C-219.70056753 236.24997239 -220.56905981 237.7187208 -221.4375 239.1875 C-221.81406738 239.82131592 -222.19063477 240.45513184 -222.57861328 241.1081543 C-227.89598644 250.11808243 -232.76095265 259.3731376 -237.51953125 268.6875 C-238.02240158 269.67008789 -238.52527191 270.65267578 -239.04338074 271.66503906 C-240.1004247 273.73185792 -241.15667436 275.7990832 -242.2121582 277.86669922 C-243.79520307 280.96613443 -245.38281684 284.0631992 -246.97070312 287.16015625 C-252.15711561 297.29944205 -257.26219935 307.46180349 -262.06330872 317.79016113 C-265.11395988 324.34080764 -268.47663353 330.68966198 -272 337 C-274.33333333 334.66666667 -276.66666667 332.33333333 -279 330 C-278.70063614 324.82925912 -277.2751367 320.92662713 -274.97167969 316.328125 C-274.66079407 315.70080475 -274.34990845 315.0734845 -274.02960205 314.42715454 C-273.00344024 312.36307111 -271.9630505 310.30654573 -270.921875 308.25 C-270.19145648 306.79087882 -269.46175415 305.33139891 -268.73272705 303.87158203 C-267.19881863 300.80541781 -265.65816872 297.74277059 -264.11230469 294.68261719 C-262.16868348 290.83443952 -260.23885261 286.97956158 -258.31361771 283.122159 C-250.05367804 266.58234903 -241.5701736 250.25851354 -232.29919434 234.25726318 C-230.50425215 231.1386713 -228.77199257 227.98980288 -227.046875 224.83203125 C-218.15729672 208.58876357 -208.7422038 192.74159806 -199 177 C-198.45778809 176.11908691 -197.91557617 175.23817383 -197.35693359 174.33056641 C-184.55598639 153.56181012 -170.71141146 133.45914259 -156 114 C-155.29472168 113.06510742 -155.29472168 113.06510742 -154.57519531 112.11132812 C-142.67655059 96.37857993 -129.99233388 81.27862473 -116.58984375 66.80859375 C-114.15516094 64.16826654 -111.76126942 61.49653614 -109.375 58.8125 C-81.62968571 28.01716889 -40.50081492 8.16969228 0 0 Z " fill="#1748A0" transform="translate(511,44)"/>
<path d="M0 0 C4.10788269 0.70170432 5.47000132 2.52011003 7.90698242 5.86230469 C8.39142822 6.54711914 8.87587402 7.23193359 9.375 7.9375 C10.43969897 9.40098317 11.50617638 10.86317378 12.57421875 12.32421875 C13.13157715 13.09040527 13.68893555 13.8565918 14.26318359 14.64599609 C17.16117486 18.57380489 20.17594052 22.40901671 23.1875 26.25 C27.81567087 32.17290449 32.38087629 38.13185325 36.87109375 44.16015625 C39.15819061 47.21101756 41.48111334 50.23299225 43.8125 53.25 C47.68290782 58.26402427 51.50980099 63.30943152 55.3125 68.375 C55.80403564 69.02887695 56.29557129 69.68275391 56.80200195 70.35644531 C59.92855634 74.52943614 62.98327206 78.74690815 66 83 C65.01 84.98 65.01 84.98 64 87 C59.25275565 82.57166842 55.45983387 77.55261746 51.5625 72.375 C50.85802734 71.44494141 50.15355469 70.51488281 49.42773438 69.55664062 C44.32432595 62.80253406 39.29392505 55.99637947 34.29125977 49.16748047 C29.27877644 42.33929036 24.14453443 35.60804613 18.99609375 28.88208008 C12.21481397 20.00653276 5.59100644 11.0173831 -1 2 C-0.67 1.34 -0.34 0.68 0 0 Z " fill="#164AA2" transform="translate(167,169)"/>
</svg>
